<?xml version="1.0" encoding="UTF-8" standalone="no"?>
<svg
   xmlns:dc="http://purl.org/dc/elements/1.1/"
   xmlns:cc="http://creativecommons.org/ns#"
   xmlns:rdf="http://www.w3.org/1999/02/22-rdf-syntax-ns#"
   xmlns:svg="http://www.w3.org/2000/svg"
   xmlns="http://www.w3.org/2000/svg"
   xmlns:sodipodi="http://sodipodi.sourceforge.net/DTD/sodipodi-0.dtd"
   xmlns:inkscape="http://www.inkscape.org/namespaces/inkscape"
   width="16"
   height="16"
   version="1.1"
   id="svg8"
   sodipodi:docname="applications-utilities-symbolic.svg"
   inkscape:version="0.92.5 (2060ec1f9f, 2020-04-08)">
  <metadata
     id="metadata14">
    <rdf:RDF>
      <cc:Work
         rdf:about="">
        <dc:format>image/svg+xml</dc:format>
        <dc:type
           rdf:resource="http://purl.org/dc/dcmitype/StillImage" />
      </cc:Work>
    </rdf:RDF>
  </metadata>
  <defs
     id="defs12" />
  <sodipodi:namedview
     pagecolor="#ffffff"
     bordercolor="#666666"
     borderopacity="1"
     objecttolerance="10"
     gridtolerance="10"
     guidetolerance="10"
     inkscape:pageopacity="0"
     inkscape:pageshadow="2"
     inkscape:window-width="640"
     inkscape:window-height="480"
     id="namedview10"
     showgrid="false"
     inkscape:zoom="14.75"
     inkscape:cx="8"
     inkscape:cy="8"
     inkscape:current-layer="svg8" />
  <path
     style="fill:#dfdfdf;stroke-width:0.88248587"
     d="m 3.5288136,0.94011299 c 1.4666915,0 2.6474576,1.18076611 2.6474576,2.64745761 v 8.8248584 c 0,1.466692 -1.1807661,2.647458 -2.6474576,2.647458 -1.4666916,0 -2.64745767,-1.180766 -2.64745767,-2.647458 V 3.5875706 c 0,-1.4666915 1.18076607,-2.64745761 2.64745767,-2.64745761 z"
     id="path2"
     inkscape:connector-curvature="0" />
  <path
     style="fill:#dfdfdf;stroke-width:0.88248587"
     d="M 5.6556045,0.94011299 C 6.4233672,1.566678 6.9528588,2.5197627 6.9528588,3.5875706 v 0.8824859 h 1.87087 C 8.7619548,3.5081469 9.9268362,2.7050847 10.588701,2.7050847 c 0.60009,0 0.882485,0.00882 0.882485,0.8824859 v 0.8824859 h 1.076633 c 1.085458,-0.5294915 1.570825,-1.7384972 1.570825,-2.373887 0,-0.6442147 -2.109141,-1.15605651 -3.256373,-1.15605651 z"
     id="path4"
     inkscape:connector-curvature="0" />
  <path
     style="fill:#dfdfdf;stroke-width:0.88248587"
     d="m 7.0587571,5.3525424 v 3.8035141 c 2.4444858,2.3474125 5.4096379,2.1267905 5.4096379,2.1267905 0,0 0.308871,-1.3413781 -1.685548,-3.5564176 L 8.6825311,5.3525424 Z M 9.688565,7.5852316 11.171141,9.1207571 C 9.5826667,9.2619548 9.2737966,8.3618192 9.688565,7.5852316 Z"
     id="path6"
     inkscape:connector-curvature="0" />
</svg>
