<?xml version="1.0" encoding="UTF-8" standalone="no"?>
<svg
   xmlns:dc="http://purl.org/dc/elements/1.1/"
   xmlns:cc="http://creativecommons.org/ns#"
   xmlns:rdf="http://www.w3.org/1999/02/22-rdf-syntax-ns#"
   xmlns:svg="http://www.w3.org/2000/svg"
   xmlns="http://www.w3.org/2000/svg"
   xmlns:sodipodi="http://sodipodi.sourceforge.net/DTD/sodipodi-0.dtd"
   xmlns:inkscape="http://www.inkscape.org/namespaces/inkscape"
   width="16"
   height="16"
   version="1.1"
   viewBox="0 0 16 16"
   id="svg7"
   sodipodi:docname="akonadiconsole.svg"
   inkscape:version="0.92.5 (2060ec1f9f, 2020-04-08)">
  <metadata
     id="metadata11">
    <rdf:RDF>
      <cc:Work
         rdf:about="">
        <dc:format>image/svg+xml</dc:format>
        <dc:type
           rdf:resource="http://purl.org/dc/dcmitype/StillImage" />
      </cc:Work>
    </rdf:RDF>
  </metadata>
  <sodipodi:namedview
     pagecolor="#ffffff"
     bordercolor="#666666"
     borderopacity="1"
     objecttolerance="10"
     gridtolerance="10"
     guidetolerance="10"
     inkscape:pageopacity="0"
     inkscape:pageshadow="2"
     inkscape:window-width="640"
     inkscape:window-height="480"
     id="namedview9"
     showgrid="false"
     inkscape:zoom="14.75"
     inkscape:cx="8"
     inkscape:cy="8"
     inkscape:current-layer="svg7" />
  <defs
     id="defs3">
    <style
       id="current-color-scheme"
       type="text/css">
   .ColorScheme-Text { color:#dfdfdf; } .ColorScheme-Highlight { color:#4285f4; } .ColorScheme-NeutralText { color:#ff9800; } .ColorScheme-PositiveText { color:#4caf50; } .ColorScheme-NegativeText { color:#f44336; }
  </style>
  </defs>
  <path
     style="fill:#dfdfdf;fill-opacity:1"
     class="ColorScheme-Text"
     d="M 2,1 C 0.89200005,1 4.9999999e-8,1.892 4.9999999e-8,3 V 13 C 4.9999999e-8,14.108 0.89200005,15 2,15 h 12 c 1.108,0 2,-0.892 2,-2 V 3 C 16,1.892 15.108,1 14,1 Z m 2,2 h 0.9999999 v 1 h 0.5 c 0.654,0 1.2022,0.418 1.4082,1 h -1.9082 v 1 h 0.5 c 0.831,0 1.5,0.669 1.5,1.5 0,0.831 -0.669,1.5 -1.5,1.5 h -0.5 v 1 H 4 V 9 H 3.5 C 2.8458,9 2.2978,8.582 2.0918,8 H 4 V 7 H 3.5 C 2.669,7 2,6.331 2,5.5 2,4.669 2.669,4 3.5,4 H 4 Z M 3.5,5 C 3.223,5 3,5.223 3,5.5 3,5.777 3.223,6 3.5,6 H 4 V 5 Z m 1.4999999,2 v 1 h 0.5 c 0.2767,0.0129 0.5,-0.223 0.5,-0.5 0,-0.277 -0.223,-0.5 -0.5,-0.5 z m 3,2 H 12 v 1 H 7.9999999 Z"
     id="path5" />
  <path
     id="path8"
     d="M 2,1 C 0.89200005,1 4.9999999e-8,1.892 4.9999999e-8,3 V 13 C 4.9999999e-8,14.108 0.89200005,15 2,15 h 12 c 1.108,0 2,-0.892 2,-2 V 3 C 16,1.892 15.108,1 14,1 Z m 2,2 h 0.9999999 v 1 h 0.5 c 0.654,0 1.2022,0.418 1.4082,1 h -1.9082 v 1 h 0.5 c 0.831,0 1.5,0.669 1.5,1.5 0,0.831 -0.669,1.5 -1.5,1.5 h -0.5 v 1 H 4 V 9 H 3.5 C 2.8458,9 2.2978,8.582 2.0918,8 H 4 V 7 H 3.5 C 2.669,7 2,6.331 2,5.5 2,4.669 2.669,4 3.5,4 H 4 Z M 3.5,5 C 3.223,5 3,5.223 3,5.5 3,5.777 3.223,6 3.5,6 H 4 V 5 Z m 1.4999999,2 v 1 h 0.5 c 0.2767,0.0129 0.5,-0.223 0.5,-0.5 0,-0.277 -0.223,-0.5 -0.5,-0.5 z m 3,2 H 12 v 1 H 7.9999999 Z"
     class="ColorScheme-Text"
     style="fill:#dfdfdf;fill-opacity:1" />
</svg>
