<?xml version="1.0" encoding="UTF-8" standalone="no"?>
<svg
   xmlns:dc="http://purl.org/dc/elements/1.1/"
   xmlns:cc="http://creativecommons.org/ns#"
   xmlns:rdf="http://www.w3.org/1999/02/22-rdf-syntax-ns#"
   xmlns:svg="http://www.w3.org/2000/svg"
   xmlns="http://www.w3.org/2000/svg"
   xmlns:sodipodi="http://sodipodi.sourceforge.net/DTD/sodipodi-0.dtd"
   xmlns:inkscape="http://www.inkscape.org/namespaces/inkscape"
   width="16"
   height="16"
   version="1.1"
   id="svg7"
   sodipodi:docname="system-software-install.svg"
   inkscape:version="0.92.5 (2060ec1f9f, 2020-04-08)">
  <metadata
     id="metadata11">
    <rdf:RDF>
      <cc:Work
         rdf:about="">
        <dc:format>image/svg+xml</dc:format>
        <dc:type
           rdf:resource="http://purl.org/dc/dcmitype/StillImage" />
      </cc:Work>
    </rdf:RDF>
  </metadata>
  <sodipodi:namedview
     pagecolor="#ffffff"
     bordercolor="#666666"
     borderopacity="1"
     objecttolerance="10"
     gridtolerance="10"
     guidetolerance="10"
     inkscape:pageopacity="0"
     inkscape:pageshadow="2"
     inkscape:window-width="640"
     inkscape:window-height="480"
     id="namedview9"
     showgrid="false"
     inkscape:zoom="14.75"
     inkscape:cx="8"
     inkscape:cy="8"
     inkscape:current-layer="svg7" />
  <defs
     id="defs3">
    <style
       id="current-color-scheme"
       type="text/css">
   .ColorScheme-Text { color:#dfdfdf; } .ColorScheme-Highlight { color:#4285f4; } .ColorScheme-NeutralText { color:#ff9800; } .ColorScheme-PositiveText { color:#4caf50; } .ColorScheme-NegativeText { color:#f44336; }
  </style>
  </defs>
  <path
     style="fill:#c3c7d1;fill-opacity:1"
     class="ColorScheme-Text"
     d="M 2 1 C 1.446 1 1 1.446 1 2 L 1 6 C 1 6.554 1.446 7 2 7 L 6 7 C 6.554 7 7 6.554 7 6 L 7 2 C 7 1.446 6.554 1 6 1 L 2 1 z M 10 1 C 9.446 1 9 1.446 9 2 L 9 6 C 9 6.554 9.446 7 10 7 L 14 7 C 14.554 7 15 6.554 15 6 L 15 2 C 15 1.446 14.554 1 14 1 L 10 1 z M 2 9 C 1.446 9 1 9.446 1 10 L 1 14 C 1 14.554 1.446 15 2 15 L 6 15 C 6.554 15 7 14.554 7 14 L 7 10 C 7 9.446 6.554 9 6 9 L 2 9 z M 12 9 C 11.446 9 11 9.4542252 11 10.019531 L 11 12 L 9.4277344 12 A 0.42863216 0.37504649 0 0 0 9.125 12.640625 L 11.697266 14.890625 A 0.42863216 0.37504649 0 0 0 12.302734 14.890625 L 14.875 12.640625 A 0.42863216 0.37504649 0 0 0 14.572266 12 L 13 12 L 13 10.019531 C 13 9.4542252 12.553999 9 12 9 z"
     id="path5" />
</svg>
