<svg xmlns="http://www.w3.org/2000/svg" width="16" height="16" version="1.1">
 <defs>
  <style id="current-color-scheme" type="text/css">
   .ColorScheme-Text { color:#ffffff; } .ColorScheme-Highlight { color:#e5b0b0; } .ColorScheme-NeutralText { color:#f7e6e6; } .ColorScheme-PositiveText { color:#efd0d0; } .ColorScheme-NegativeText { color:#d98e8e; }
  </style>
 </defs>
 <path style="fill:currentColor" class="ColorScheme-Text" d="m 1,0.9999998 c 0,0 -1,0 -1,1 V 12 c 0,1 1,1 1,1 h 2 l 1,1 h 7 l 1,-1 h 2 c 0,0 1,0.13 1,-1 V 1.9999998 c 0,-1 -1,-1 -1,-1 z m 1,2 h 1 v 2 h 1 v -2 h 1 v 2 h 1 v -2 h 1 v 2 h 1 v -2 h 1 v 2 h 1 v -2 h 1 v 2 h 1 v -2 h 1 V 11 h -2 l -1,1 H 5 L 4,11 H 2 Z"/>
</svg>
