<?xml version="1.0" encoding="UTF-8" standalone="no"?>
<svg
   xmlns:dc="http://purl.org/dc/elements/1.1/"
   xmlns:cc="http://creativecommons.org/ns#"
   xmlns:rdf="http://www.w3.org/1999/02/22-rdf-syntax-ns#"
   xmlns:svg="http://www.w3.org/2000/svg"
   xmlns="http://www.w3.org/2000/svg"
   xmlns:sodipodi="http://sodipodi.sourceforge.net/DTD/sodipodi-0.dtd"
   xmlns:inkscape="http://www.inkscape.org/namespaces/inkscape"
   width="16"
   height="16"
   version="1.1"
   id="svg7"
   sodipodi:docname="action-albumfolder-importdir2.svg"
   inkscape:version="0.92.5 (2060ec1f9f, 2020-04-08)">
  <metadata
     id="metadata11">
    <rdf:RDF>
      <cc:Work
         rdf:about="">
        <dc:format>image/svg+xml</dc:format>
        <dc:type
           rdf:resource="http://purl.org/dc/dcmitype/StillImage" />
      </cc:Work>
    </rdf:RDF>
  </metadata>
  <sodipodi:namedview
     pagecolor="#ffffff"
     bordercolor="#666666"
     borderopacity="1"
     objecttolerance="10"
     gridtolerance="10"
     guidetolerance="10"
     inkscape:pageopacity="0"
     inkscape:pageshadow="2"
     inkscape:window-width="640"
     inkscape:window-height="480"
     id="namedview9"
     showgrid="false"
     inkscape:zoom="14.75"
     inkscape:cx="-5.220339"
     inkscape:cy="8"
     inkscape:current-layer="svg7" />
  <defs
     id="defs3">
    <style
       id="current-color-scheme"
       type="text/css">
   .ColorScheme-Text { color:#dfdfdf; } .ColorScheme-Highlight { color:#4285f4; } .ColorScheme-NeutralText { color:#ff9800; } .ColorScheme-PositiveText { color:#4caf50; } .ColorScheme-NegativeText { color:#f44336; }
  </style>
  </defs>
  <path
     style="fill:#dfdfdf;fill-opacity:1"
     class="ColorScheme-Text"
     d="M 1,3 V 14 C 1,14 1,15 2,15 H 14 C 14,15 15,15 15,14 V 5 C 15,4 14,4 14,4 H 9 L 7,2 H 2 C 2,2 1,2 1,3 Z M 7,6 H 9 V 8 H 11 V 10 H 9 V 12 H 7 V 10 H 5 V 8 H 7 Z"
     id="path5" />
  <path
     id="path8"
     d="M 1,3 V 14 C 1,14 1,15 2,15 H 14 C 14,15 15,15 15,14 V 5 C 15,4 14,4 14,4 H 9 L 7,2 H 2 C 2,2 1,2 1,3 Z M 7,6 H 9 V 8 H 11 V 10 H 9 V 12 H 7 V 10 H 5 V 8 H 7 Z"
     class="ColorScheme-Text"
     style="fill:#dfdfdf;fill-opacity:1" />
</svg>
