<?xml version="1.0" encoding="UTF-8" standalone="no"?>
<svg
   xmlns:dc="http://purl.org/dc/elements/1.1/"
   xmlns:cc="http://creativecommons.org/ns#"
   xmlns:rdf="http://www.w3.org/1999/02/22-rdf-syntax-ns#"
   xmlns:svg="http://www.w3.org/2000/svg"
   xmlns="http://www.w3.org/2000/svg"
   xmlns:sodipodi="http://sodipodi.sourceforge.net/DTD/sodipodi-0.dtd"
   xmlns:inkscape="http://www.inkscape.org/namespaces/inkscape"
   width="16"
   height="16"
   viewBox="0 0 16 16"
   version="1.1"
   id="svg7"
   sodipodi:docname="irc-remove-operator.svg"
   inkscape:version="0.92.5 (2060ec1f9f, 2020-04-08)">
  <metadata
     id="metadata11">
    <rdf:RDF>
      <cc:Work
         rdf:about="">
        <dc:format>image/svg+xml</dc:format>
        <dc:type
           rdf:resource="http://purl.org/dc/dcmitype/StillImage" />
      </cc:Work>
    </rdf:RDF>
  </metadata>
  <sodipodi:namedview
     pagecolor="#ffffff"
     bordercolor="#666666"
     borderopacity="1"
     objecttolerance="10"
     gridtolerance="10"
     guidetolerance="10"
     inkscape:pageopacity="0"
     inkscape:pageshadow="2"
     inkscape:window-width="640"
     inkscape:window-height="480"
     id="namedview9"
     showgrid="false"
     inkscape:zoom="14.75"
     inkscape:cx="-5.220339"
     inkscape:cy="8"
     inkscape:current-layer="svg7" />
  <defs
     id="defs3">
    <style
       id="current-color-scheme"
       type="text/css">
   .ColorScheme-Text { color:#dfdfdf; } .ColorScheme-Highlight { color:#4285f4; } .ColorScheme-NeutralText { color:#ff9800; } .ColorScheme-PositiveText { color:#4caf50; } .ColorScheme-NegativeText { color:#f44336; }
  </style>
  </defs>
  <path
     style="fill:#bf616a;fill-opacity:1"
     class="ColorScheme-NegativeText"
     d="M 2 0 C 0.892 0 0 0.892 0 2 L 0 14 C 0 15.108 0.892 16 2 16 L 14 16 C 15.108 16 16 15.108 16 14 L 16 2 C 16 0.892 15.108 0 14 0 L 2 0 z M 3.7148438 2 L 12.285156 2 C 13.235156 2 14 2.7651437 14 3.7148438 L 14 12.285156 C 14 13.235156 13.235156 14 12.285156 14 L 3.7148438 14 C 2.7651438 14 2 13.235156 2 12.285156 L 2 3.7148438 C 2 2.7651438 2.7651437 2 3.7148438 2 z M 6.7402344 3 L 6.6289062 4.3164062 A 3.964 3.9286 0 0 0 5.4707031 4.9804688 L 4.2617188 4.4179688 L 3.0019531 6.5820312 L 4.0976562 7.3378906 A 3.964 3.9286 0 0 0 4.0371094 8 A 3.964 3.9286 0 0 0 4.0957031 8.6660156 L 3.0019531 9.4179688 L 4.2617188 11.582031 L 5.4667969 11.019531 A 3.964 3.9286 0 0 0 6.6289062 11.679688 L 6.7402344 13 L 9.2617188 13 L 9.3730469 11.683594 A 3.964 3.9286 0 0 0 10.53125 11.019531 L 11.740234 11.582031 L 13.001953 9.4179688 L 11.904297 8.6621094 A 3.964 3.9286 0 0 0 11.964844 8 A 3.964 3.9286 0 0 0 11.908203 7.3339844 L 13.001953 6.5820312 L 11.740234 4.4179688 L 10.535156 4.9804688 A 3.964 3.9286 0 0 0 9.3730469 4.3203125 L 9.2617188 3 L 6.7402344 3 z M 8.0019531 6.5722656 A 1.4414 1.4286 0 0 1 9.4433594 8 A 1.4414 1.4286 0 0 1 8.0019531 9.4277344 A 1.4414 1.4286 0 0 1 6.5605469 8 A 1.4414 1.4286 0 0 1 8.0019531 6.5722656 z"
     id="path5" />
</svg>
