<?xml version="1.0" encoding="UTF-8" standalone="no"?>
<svg
   xmlns:dc="http://purl.org/dc/elements/1.1/"
   xmlns:cc="http://creativecommons.org/ns#"
   xmlns:rdf="http://www.w3.org/1999/02/22-rdf-syntax-ns#"
   xmlns:svg="http://www.w3.org/2000/svg"
   xmlns="http://www.w3.org/2000/svg"
   xmlns:sodipodi="http://sodipodi.sourceforge.net/DTD/sodipodi-0.dtd"
   xmlns:inkscape="http://www.inkscape.org/namespaces/inkscape"
   width="16"
   height="16"
   version="1.1"
   id="svg9"
   sodipodi:docname="replay-record.svg"
   inkscape:version="0.92.5 (2060ec1f9f, 2020-04-08)">
  <metadata
     id="metadata13">
    <rdf:RDF>
      <cc:Work
         rdf:about="">
        <dc:format>image/svg+xml</dc:format>
        <dc:type
           rdf:resource="http://purl.org/dc/dcmitype/StillImage" />
      </cc:Work>
    </rdf:RDF>
  </metadata>
  <sodipodi:namedview
     pagecolor="#ffffff"
     bordercolor="#666666"
     borderopacity="1"
     objecttolerance="10"
     gridtolerance="10"
     guidetolerance="10"
     inkscape:pageopacity="0"
     inkscape:pageshadow="2"
     inkscape:window-width="640"
     inkscape:window-height="480"
     id="namedview11"
     showgrid="false"
     inkscape:zoom="14.75"
     inkscape:cx="-5.220339"
     inkscape:cy="8"
     inkscape:current-layer="svg9" />
  <defs
     id="defs3">
    <style
       id="current-color-scheme"
       type="text/css">
   .ColorScheme-Text { color:#dfdfdf; } .ColorScheme-Highlight { color:#4285f4; } .ColorScheme-NeutralText { color:#ff9800; } .ColorScheme-PositiveText { color:#4caf50; } .ColorScheme-NegativeText { color:#f44336; }
  </style>
  </defs>
  <path
     style="fill:#457697;fill-opacity:1"
     class="ColorScheme-Highlight"
     d="M 12.5 9 C 10.567003 9 9 10.567003 9 12.5 C 9 14.432997 10.567003 16 12.5 16 C 14.432997 16 16 14.432997 16 12.5 C 16 10.567003 14.432997 9 12.5 9 z M 12.5 11 A 1.5 1.5 0 0 1 14 12.5 A 1.5 1.5 0 0 1 12.5 14 A 1.5 1.5 0 0 1 11 12.5 A 1.5 1.5 0 0 1 12.5 11 z"
     id="path5" />
  <path
     style="fill:currentColor"
     class="ColorScheme-Text"
     d="M 8 0 C 3.581722 0 0 3.581722 0 8 C 0 12.418278 3.581722 16 8 16 C 8.501907 15.9943 9.0021596 15.94129 9.4941406 15.841797 C 8.9325328 15.334394 8.5079796 14.693534 8.2597656 13.978516 C 8.1733429 13.987558 8.0867339 13.994721 8 14 C 4.6862915 14 2 11.313708 2 8 C 2 4.6862915 4.6862915 2 8 2 C 11.313708 2 14 4.6862915 14 8 C 13.9953 8.084112 13.988749 8.1681152 13.980469 8.2519531 C 14.694989 8.5010149 15.335168 8.9262333 15.841797 9.4882812 C 15.940921 8.9982213 15.993889 8.4999474 16 8 C 16 3.581722 12.418278 0 8 0 z M 8 4 C 5.790861 4 4 5.790861 4 8 C 4 10.209139 5.790861 12 8 12 L 8.0351562 11.996094 C 8.2725968 9.9147749 9.9147869 8.2725964 11.996094 8.0351562 C 11.997448 8.0234435 11.99875 8.0117244 12 8 C 12 5.790861 10.209139 4 8 4 z"
     id="path7" />
</svg>
