<?xml version="1.0" encoding="UTF-8" standalone="no"?>
<svg
   xmlns:dc="http://purl.org/dc/elements/1.1/"
   xmlns:cc="http://creativecommons.org/ns#"
   xmlns:rdf="http://www.w3.org/1999/02/22-rdf-syntax-ns#"
   xmlns:svg="http://www.w3.org/2000/svg"
   xmlns="http://www.w3.org/2000/svg"
   xmlns:sodipodi="http://sodipodi.sourceforge.net/DTD/sodipodi-0.dtd"
   xmlns:inkscape="http://www.inkscape.org/namespaces/inkscape"
   width="48"
   height="48"
   version="1.1"
   id="svg24"
   sodipodi:docname="1cedt.svg"
   inkscape:version="0.92.5 (2060ec1f9f, 2020-04-08)">
  <metadata
     id="metadata30">
    <rdf:RDF>
      <cc:Work
         rdf:about="">
        <dc:format>image/svg+xml</dc:format>
        <dc:type
           rdf:resource="http://purl.org/dc/dcmitype/StillImage" />
      </cc:Work>
    </rdf:RDF>
  </metadata>
  <defs
     id="defs28" />
  <sodipodi:namedview
     pagecolor="#ffffff"
     bordercolor="#666666"
     borderopacity="1"
     objecttolerance="10"
     gridtolerance="10"
     guidetolerance="10"
     inkscape:pageopacity="0"
     inkscape:pageshadow="2"
     inkscape:window-width="954"
     inkscape:window-height="500"
     id="namedview26"
     showgrid="false"
     inkscape:zoom="4.9166667"
     inkscape:cx="19.932203"
     inkscape:cy="24"
     inkscape:window-x="0"
     inkscape:window-y="554"
     inkscape:window-maximized="0"
     inkscape:current-layer="svg24" />
  <circle
     style="opacity:0.2"
     cx="24"
     cy="25"
     r="20"
     id="circle2" />
  <circle
     style="fill:#4c566a;fill-opacity:1"
     cx="24"
     cy="24"
     r="20"
     id="circle4" />
  <path
     style="fill:#ffffff;opacity:0.2"
     d="M 24 4 A 20 20 0 0 0 4 24 A 20 20 0 0 0 4.0214844 24.582031 A 20 20 0 0 1 24 5 A 20 20 0 0 1 43.978516 24.417969 A 20 20 0 0 0 44 24 A 20 20 0 0 0 24 4 z"
     id="path6" />
  <rect
     style="opacity:0.1"
     width="2.919"
     height="8.369"
     x="31.82"
     y="-4.65"
     transform="rotate(30)"
     id="rect8" />
  <rect
     style="opacity:0.1"
     width="2.919"
     height="8.369"
     x="31.83"
     y="-23.95"
     transform="matrix(0.8660254,0.5,0.5,-0.8660254,0,0)"
     id="rect10" />
  <rect
     style="fill:#5f697d;fill-opacity:1"
     width="2.919"
     height="8.369"
     x="31.32"
     y="-5.51"
     transform="rotate(30)"
     id="rect12" />
  <path
     style="opacity:0.1"
     d="m 15.924805,19 -5.773438,10 5.773438,10 H 27.47168 L 33.245118,29 27.47168,19 Z m 1.730469,3 h 8.083984 l 4.041016,7 -4.041016,7 h -8.082031 l -4.042969,-7 z"
     id="path14" />
  <path
     style="fill:#e6e7ed;fill-opacity:1"
     d="m 15.924805,18 -5.773438,10 5.773438,10 H 27.47168 L 33.245118,28 27.47168,18 Z m 1.730469,3 h 8.083984 l 4.041016,7 -4.041016,7 h -8.082031 l -4.042969,-7 z"
     id="path16" />
  <rect
     style="fill:#ffffff;fill-opacity:1"
     width="2.919"
     height="8.369"
     x="31.33"
     y="-23.08"
     transform="matrix(0.8660254,0.5,0.5,-0.8660254,0,0)"
     id="rect18" />
  <path
     style="opacity:0.1"
     d="m 20.528321,11 -5.773438,10 5.775391,10 H 32.075196 L 37.848633,21 32.077149,11 Z m 1.732422,3 h 8.082031 l 4.042969,7 -4.041016,7 h -8.083984 l -4.041016,-7 z"
     id="path20" />
  <path
     style="fill:#5f697d;fill-opacity:1"
     d="m 20.528321,10 -5.773438,10 5.775391,10 H 32.075196 L 37.848633,20 32.077149,10 Z m 1.732422,3 h 8.082031 l 4.042969,7 -4.041016,7 h -8.083984 l -4.041016,-7 z"
     id="path22" />
</svg>
