<?xml version="1.0" encoding="UTF-8" standalone="no"?>
<svg
   xmlns:dc="http://purl.org/dc/elements/1.1/"
   xmlns:cc="http://creativecommons.org/ns#"
   xmlns:rdf="http://www.w3.org/1999/02/22-rdf-syntax-ns#"
   xmlns:svg="http://www.w3.org/2000/svg"
   xmlns="http://www.w3.org/2000/svg"
   xmlns:sodipodi="http://sodipodi.sourceforge.net/DTD/sodipodi-0.dtd"
   xmlns:inkscape="http://www.inkscape.org/namespaces/inkscape"
   width="48"
   height="48"
   version="1.1"
   id="svg22"
   sodipodi:docname="3depict.svg"
   inkscape:version="0.92.5 (2060ec1f9f, 2020-04-08)">
  <metadata
     id="metadata28">
    <rdf:RDF>
      <cc:Work
         rdf:about="">
        <dc:format>image/svg+xml</dc:format>
        <dc:type
           rdf:resource="http://purl.org/dc/dcmitype/StillImage" />
      </cc:Work>
    </rdf:RDF>
  </metadata>
  <defs
     id="defs26" />
  <sodipodi:namedview
     pagecolor="#ffffff"
     bordercolor="#666666"
     borderopacity="1"
     objecttolerance="10"
     gridtolerance="10"
     guidetolerance="10"
     inkscape:pageopacity="0"
     inkscape:pageshadow="2"
     inkscape:window-width="947"
     inkscape:window-height="480"
     id="namedview24"
     showgrid="false"
     inkscape:zoom="4.9166667"
     inkscape:cx="24"
     inkscape:cy="24"
     inkscape:window-x="0"
     inkscape:window-y="558"
     inkscape:window-maximized="0"
     inkscape:current-layer="g20" />
  <g
     transform="matrix(2,0,0,2,2,2)"
     id="g20">
    <circle
       cx="15"
       cy="9"
       r="6"
       style="opacity:.2"
       id="circle2" />
    <circle
       cx="15"
       cy="8.5"
       r="6"
       style="fill:#5f697d;fill-opacity:1"
       id="circle4" />
    <path
       d="M 15,2.5 A 6,6 0 0 0 9,8.5 6,6 0 0 0 9.00977,8.7851562 6,6 0 0 1 15,3 6,6 0 0 1 20.990234,8.7148438 6,6 0 0 0 21,8.5 6,6 0 0 0 15,2.5 Z"
       style="fill:#ffffff;opacity:.2"
       id="path6" />
    <circle
       cx="7"
       cy="11"
       r="6"
       style="opacity:.2"
       id="circle8" />
    <circle
       cx="7"
       cy="10.5"
       r="6"
       style="fill:#555f73;fill-opacity:1"
       id="circle10" />
    <path
       d="M 7,4.5000001 A 6,6 0 0 0 1,10.5 6,6 0 0 0 1.00977,10.785156 6,6 0 0 1 7,5 a 6,6 0 0 1 5.990234,5.714844 6,6 0 0 0 0.0098,-0.214844 6,6 0 0 0 -6,-6 z"
       style="fill:#ffffff;opacity:.2"
       id="path12" />
    <circle
       cx="13"
       cy="14"
       r="6"
       style="opacity:.2"
       id="circle14" />
    <circle
       cx="13"
       cy="13.5"
       r="6"
       style="fill:#4c566a;fill-opacity:1"
       id="circle16" />
    <path
       d="m 13,7.5 a 6,6 0 0 0 -6,6 6,6 0 0 0 0.00977,0.285156 A 6,6 0 0 1 13,8 6,6 0 0 1 18.990234,13.714844 6,6 0 0 0 19,13.5 6,6 0 0 0 13,7.5 Z"
       style="fill:#ffffff;opacity:.2"
       id="path18" />
  </g>
</svg>
