<?xml version="1.0" encoding="UTF-8" standalone="no"?>
<svg
   xmlns:dc="http://purl.org/dc/elements/1.1/"
   xmlns:cc="http://creativecommons.org/ns#"
   xmlns:rdf="http://www.w3.org/1999/02/22-rdf-syntax-ns#"
   xmlns:svg="http://www.w3.org/2000/svg"
   xmlns="http://www.w3.org/2000/svg"
   xmlns:sodipodi="http://sodipodi.sourceforge.net/DTD/sodipodi-0.dtd"
   xmlns:inkscape="http://www.inkscape.org/namespaces/inkscape"
   width="48"
   height="48"
   version="1.1"
   id="svg14"
   sodipodi:docname="4digits.svg"
   inkscape:version="0.92.5 (2060ec1f9f, 2020-04-08)">
  <metadata
     id="metadata20">
    <rdf:RDF>
      <cc:Work
         rdf:about="">
        <dc:format>image/svg+xml</dc:format>
        <dc:type
           rdf:resource="http://purl.org/dc/dcmitype/StillImage" />
      </cc:Work>
    </rdf:RDF>
  </metadata>
  <defs
     id="defs18" />
  <sodipodi:namedview
     pagecolor="#ffffff"
     bordercolor="#666666"
     borderopacity="1"
     objecttolerance="10"
     gridtolerance="10"
     guidetolerance="10"
     inkscape:pageopacity="0"
     inkscape:pageshadow="2"
     inkscape:window-width="783"
     inkscape:window-height="480"
     id="namedview16"
     showgrid="false"
     inkscape:zoom="4.9166667"
     inkscape:cx="24"
     inkscape:cy="24"
     inkscape:window-x="0"
     inkscape:window-y="28"
     inkscape:window-maximized="0"
     inkscape:current-layer="g12" />
  <g
     transform="matrix(2,0,0,2,2,2)"
     id="g12">
    <rect
       x="1"
       y="1.5"
       width="20"
       height="20"
       rx="8"
       ry="8"
       style="opacity:.2"
       id="rect2" />
    <rect
       x="1"
       y="1"
       width="20"
       height="20"
       rx="8"
       ry="8"
       style="fill:#4c566a;fill-opacity:1"
       id="rect4" />
    <path
       d="m13.455078 2.5a1.50015 1.50015 0 0 0-1.015625 0.4394531l-9.9999999 9.9999999a1.50015 1.50015 0 0 0 1.0605469 2.560547h8.5v3.5a1.50015 1.50015 0 1 0 3 0v-3.5h3.5a1.50015 1.50015 0 1 0 0-3h-3.5v-8.5a1.50015 1.50015 0 0 0-1.544922-1.5zm-1.455078 5.1210938v4.8789062h-4.8789062z"
       style="opacity:.1"
       id="path6" />
    <path
       d="m13.5 18.5v-15l-10 10h15"
       style="fill:none;stroke-linecap:round;stroke-linejoin:round;stroke-width:3;stroke:#ffffff;stroke-opacity:1"
       id="path8" />
    <path
       d="m9 1c-4.432 0-8 3.568-8 8v0.5c0-4.432 3.568-8 8-8h4c4.432 0 8 3.568 8 8v-0.5c0-4.432-3.568-8-8-8z"
       style="fill:#ffffff;opacity:.2"
       id="path10" />
  </g>
</svg>
