<?xml version="1.0" encoding="UTF-8" standalone="no"?>
<svg
   xmlns:dc="http://purl.org/dc/elements/1.1/"
   xmlns:cc="http://creativecommons.org/ns#"
   xmlns:rdf="http://www.w3.org/1999/02/22-rdf-syntax-ns#"
   xmlns:svg="http://www.w3.org/2000/svg"
   xmlns="http://www.w3.org/2000/svg"
   xmlns:sodipodi="http://sodipodi.sourceforge.net/DTD/sodipodi-0.dtd"
   xmlns:inkscape="http://www.inkscape.org/namespaces/inkscape"
   width="48"
   height="48"
   version="1.1"
   id="svg16"
   sodipodi:docname="4Pane.svg"
   inkscape:version="0.92.5 (2060ec1f9f, 2020-04-08)">
  <metadata
     id="metadata22">
    <rdf:RDF>
      <cc:Work
         rdf:about="">
        <dc:format>image/svg+xml</dc:format>
        <dc:type
           rdf:resource="http://purl.org/dc/dcmitype/StillImage" />
      </cc:Work>
    </rdf:RDF>
  </metadata>
  <defs
     id="defs20" />
  <sodipodi:namedview
     pagecolor="#ffffff"
     bordercolor="#666666"
     borderopacity="1"
     objecttolerance="10"
     gridtolerance="10"
     guidetolerance="10"
     inkscape:pageopacity="0"
     inkscape:pageshadow="2"
     inkscape:window-width="783"
     inkscape:window-height="480"
     id="namedview18"
     showgrid="false"
     inkscape:zoom="4.9166667"
     inkscape:cx="24"
     inkscape:cy="24"
     inkscape:window-x="68"
     inkscape:window-y="32"
     inkscape:window-maximized="0"
     inkscape:current-layer="svg16" />
  <path
     d="m44 40v-31c0-1.108-0.892-2-2-2h-36c-1.108 0-2 0.892-2 2v31c0 1.108 0.892 2 2 2h36c1.108 0 2-0.892 2-2z"
     style="fill:#4c566a;fill-opacity:1"
     id="path2" />
  <path
     d="m22 15v14h-6l4-12h-4l-4 12v4h10v8h4v-8h2s8 0 8-10c0-8-8-8-8-8h-2zm4 4h2s4 0 4 4c0 6-4 6-4 6h-2z"
     style="opacity:.1"
     id="path4" />
  <path
     d="m44 12v-4c0-1.108-0.892-2-2-2h-36c-1.108 0-2 0.892-2 2v4z"
     style="fill:#5f697d;fill-opacity:1"
     id="path6" />
  <path
     d="m22 14v14h-6l4-12h-4l-4 12v4h10v8h4v-8h2s8 0 8-10c0-8-8-8-8-8h-2zm4 4h2s4 0 4 4c0 6-4 6-4 6h-2z"
     style="fill:#ffffff;fill-opacity:1"
     id="path8" />
  <path
     d="m44 40v-28h-20v30h18c1.108 0 2-0.892 2-2z"
     style="opacity:.15"
     id="path10" />
  <path
     d="m6 6c-1.108 0-2 0.892-2 2v1c0-1.108 0.892-2 2-2h36c1.108 0 2 0.892 2 2v-1c0-1.108-0.892-2-2-2z"
     style="fill:#ffffff;opacity:.1"
     id="path12" />
  <path
     d="m4 40v1c0 1.108 0.892 2 2 2h36c1.108 0 2-0.892 2-2v-1c0 1.108-0.892 2-2 2h-36c-1.108 0-2-0.892-2-2z"
     style="opacity:.2"
     id="path14" />
</svg>
