<?xml version="1.0" encoding="UTF-8" standalone="no"?>
<svg
   xmlns:dc="http://purl.org/dc/elements/1.1/"
   xmlns:cc="http://creativecommons.org/ns#"
   xmlns:rdf="http://www.w3.org/1999/02/22-rdf-syntax-ns#"
   xmlns:svg="http://www.w3.org/2000/svg"
   xmlns="http://www.w3.org/2000/svg"
   xmlns:sodipodi="http://sodipodi.sourceforge.net/DTD/sodipodi-0.dtd"
   xmlns:inkscape="http://www.inkscape.org/namespaces/inkscape"
   height="48"
   width="48"
   version="1.1"
   id="svg18"
   sodipodi:docname="6180-the-moon.svg"
   inkscape:version="0.92.5 (2060ec1f9f, 2020-04-08)">
  <metadata
     id="metadata24">
    <rdf:RDF>
      <cc:Work
         rdf:about="">
        <dc:format>image/svg+xml</dc:format>
        <dc:type
           rdf:resource="http://purl.org/dc/dcmitype/StillImage" />
      </cc:Work>
    </rdf:RDF>
  </metadata>
  <defs
     id="defs22" />
  <sodipodi:namedview
     pagecolor="#ffffff"
     bordercolor="#666666"
     borderopacity="1"
     objecttolerance="10"
     gridtolerance="10"
     guidetolerance="10"
     inkscape:pageopacity="0"
     inkscape:pageshadow="2"
     inkscape:window-width="640"
     inkscape:window-height="480"
     id="namedview20"
     showgrid="false"
     inkscape:zoom="4.9166667"
     inkscape:cx="-15.661017"
     inkscape:cy="24"
     inkscape:current-layer="svg18" />
  <circle
     cx="24"
     cy="25"
     r="20"
     style="opacity:.2"
     id="circle2" />
  <circle
     cx="24"
     cy="24"
     r="20"
     style="fill:#4c566a;fill-opacity:1"
     id="circle4" />
  <path
     d="m24 4a20 20 0 0 0 -20 20 20 20 0 0 0 0.0215 0.582 20 20 0 0 1 19.9785 -19.582 20 20 0 0 1 19.979 19.418 20 20 0 0 0 0.021 -0.418 20 20 0 0 0 -20 -20z"
     style="opacity:.2;fill:#ffffff"
     id="path6" />
  <path
     style="opacity:.2"
     d="m13 21c-1.75 0-2 2-2 2v6s0 2 2 2h2c2 0 2-2 2-2v-2.75s-0.25-1.25-2-1.25h-2v-2h4v-2zm6 0v10h2v-10zm6 0c-2 0-2 2-2 2v2l2 1-2 1v2s0 2 2 2h2c2 0 2-2 2-2v-2l-2-1 2-1v-2s0-2-2-2zm8 0c-0.9695 0-2 1.0305-2 2v6c0 0.9695 1.0305 2 2 2h2c0.9695 0 2-1.0305 2-2v-6c0-0.9695-1.0305-2-2-2zm-8 2h2v2h-2zm8 0h2v6h-2zm-20 4h2v2h-2zm12 0h2v2h-2z"
     id="path8" />
  <path
     style="fill:#ffffff;fill-opacity:1"
     d="m13 20c-1.75 0-2 2-2 2v6s0 2 2 2h2c2 0 2-2 2-2v-2.75s-0.25-1.25-2-1.25h-2v-2h4v-2zm0 6h2v2h-2z"
     id="path10" />
  <rect
     style="fill:#ffffff;fill-opacity:1"
     height="10"
     width="2"
     y="20"
     x="19"
     id="rect12" />
  <path
     style="fill:#ffffff;fill-opacity:1"
     d="m25 20c-2 0-2 2-2 2v2l2 1-2 1v2s0 2 2 2h2c2 0 2-2 2-2v-2l-2-1 2-1v-2s0-2-2-2zm0 2h2v2h-2zm0 4h2v2h-2z"
     id="path14" />
  <path
     style="fill:#e4e4e4;fill-opacity:1"
     d="m33 20c-0.9695 0-2 1.0305-2 2v6c0 0.9695 1.0305 2 2 2h2c0.9695 0 2-1.0305 2-2v-6c0-0.9695-1.0305-2-2-2zm0 2h2v6h-2z"
     id="path16" />
</svg>
