<?xml version="1.0" encoding="UTF-8" standalone="no"?>
<svg
   xmlns:dc="http://purl.org/dc/elements/1.1/"
   xmlns:cc="http://creativecommons.org/ns#"
   xmlns:rdf="http://www.w3.org/1999/02/22-rdf-syntax-ns#"
   xmlns:svg="http://www.w3.org/2000/svg"
   xmlns="http://www.w3.org/2000/svg"
   xmlns:sodipodi="http://sodipodi.sourceforge.net/DTD/sodipodi-0.dtd"
   xmlns:inkscape="http://www.inkscape.org/namespaces/inkscape"
   width="48"
   height="48"
   version="1.1"
   id="svg22"
   sodipodi:docname="a-boy-and-his-blob.svg"
   inkscape:version="0.92.5 (2060ec1f9f, 2020-04-08)">
  <metadata
     id="metadata28">
    <rdf:RDF>
      <cc:Work
         rdf:about="">
        <dc:format>image/svg+xml</dc:format>
        <dc:type
           rdf:resource="http://purl.org/dc/dcmitype/StillImage" />
      </cc:Work>
    </rdf:RDF>
  </metadata>
  <defs
     id="defs26" />
  <sodipodi:namedview
     pagecolor="#ffffff"
     bordercolor="#666666"
     borderopacity="1"
     objecttolerance="10"
     gridtolerance="10"
     guidetolerance="10"
     inkscape:pageopacity="0"
     inkscape:pageshadow="2"
     inkscape:window-width="783"
     inkscape:window-height="480"
     id="namedview24"
     showgrid="false"
     inkscape:zoom="4.9166667"
     inkscape:cx="24"
     inkscape:cy="24"
     inkscape:window-x="0"
     inkscape:window-y="28"
     inkscape:window-maximized="0"
     inkscape:current-layer="g20" />
  <g
     transform="matrix(2,0,0,2,2,2)"
     id="g20">
    <path
       d="m11 21.5c4 0 10-2 10-6s0-14-6-14c-5 0-6 4-8 6-2.3011169 2.3011169-6 4-6 8 0 3.75 6 6 10 6z"
       style="opacity:.2"
       id="path2" />
    <path
       d="m11 21c4 0 10-2 10-6s0-14-6-14c-5 0-6 4-8 6-2.3011169 2.3011169-6 4-6 8 0 3.75 6 6 10 6z"
       style="fill:#4c566a;fill-opacity:1"
       id="path4" />
    <path
       d="m12 8.5000001s0-1 1-1h4c1 0 1 1 1 1 0 1.9999999-1 2.9999999-3 2.9999999s-3-1-3-2.9999999z"
       style="opacity:.1"
       id="path6" />
    <path
       d="m12 8s0-1 1-1h4c1 0 1 1 1 1 0 2-1 3-3 3s-3-1-3-3z"
       style="fill:#ffffff;fill-opacity:1"
       id="path8" />
    <ellipse
       cx="13"
       cy="5.5"
       rx=".99999952"
       ry="1.0000001"
       style="opacity:.1"
       id="ellipse10" />
    <ellipse
       cx="13"
       cy="5"
       rx=".99999952"
       ry="1.0000001"
       style="fill:#ffffff;fill-opacity:1"
       id="ellipse12" />
    <ellipse
       cx="17"
       cy="5.5"
       rx="1.0000002"
       ry="1.0000001"
       style="opacity:.1"
       id="ellipse14" />
    <ellipse
       cx="17"
       cy="5"
       rx="1.0000002"
       ry="1.0000001"
       style="fill:#fcfdfe;fill-opacity:1"
       id="ellipse16" />
    <path
       d="M 15,1 C 10,1 9,5 7,7 4.6988831,9.3011169 1,11 1,15 1,15.06347 1.016133,15.12294 1.019531,15.185547 1.2111189,11.413436 4.7613058,9.7386942 7,7.5 c 2,-2 3,-6 8,-6 5.799942,0 5.989646,9.296995 5.996094,13.533203 C 20.996192,15.021786 21,15.01145 21,15 21,11 21,1 15,1 Z"
       style="fill:#ffffff;opacity:.2"
       id="path18" />
  </g>
</svg>
