<?xml version="1.0" encoding="UTF-8" standalone="no"?>
<svg
   xmlns:dc="http://purl.org/dc/elements/1.1/"
   xmlns:cc="http://creativecommons.org/ns#"
   xmlns:rdf="http://www.w3.org/1999/02/22-rdf-syntax-ns#"
   xmlns:svg="http://www.w3.org/2000/svg"
   xmlns="http://www.w3.org/2000/svg"
   xmlns:sodipodi="http://sodipodi.sourceforge.net/DTD/sodipodi-0.dtd"
   xmlns:inkscape="http://www.inkscape.org/namespaces/inkscape"
   height="48"
   width="48"
   version="1.1"
   id="svg14"
   sodipodi:docname="a-story-about-my-uncle.svg"
   inkscape:version="0.92.5 (2060ec1f9f, 2020-04-08)">
  <metadata
     id="metadata20">
    <rdf:RDF>
      <cc:Work
         rdf:about="">
        <dc:format>image/svg+xml</dc:format>
        <dc:type
           rdf:resource="http://purl.org/dc/dcmitype/StillImage" />
      </cc:Work>
    </rdf:RDF>
  </metadata>
  <defs
     id="defs18" />
  <sodipodi:namedview
     pagecolor="#ffffff"
     bordercolor="#666666"
     borderopacity="1"
     objecttolerance="10"
     gridtolerance="10"
     guidetolerance="10"
     inkscape:pageopacity="0"
     inkscape:pageshadow="2"
     inkscape:window-width="640"
     inkscape:window-height="480"
     id="namedview16"
     showgrid="false"
     inkscape:zoom="4.9166667"
     inkscape:cx="-15.661017"
     inkscape:cy="24"
     inkscape:current-layer="svg14" />
  <circle
     cx="24"
     cy="25"
     r="20"
     style="opacity:.2"
     id="circle2" />
  <circle
     cx="24"
     cy="24"
     r="20"
     style="fill:#4c566a;fill-opacity:1"
     id="circle4" />
  <path
     d="m24 4a20 20 0 0 0 -20 20 20 20 0 0 0 0.0215 0.582 20 20 0 0 1 19.9785 -19.582 20 20 0 0 1 19.979 19.418 20 20 0 0 0 0.021 -0.418 20 20 0 0 0 -20 -20z"
     style="opacity:.1;fill:#ffffff"
     id="path6" />
  <path
     style="opacity:.2"
     d="m24 5a20 20 0 0 0 -2 0.1210938v7.0507812l-11.414062 11.414063a2.0002 2.0002 0 0 0 -0.05469 2.771484l11.468752 12.423828v6.119141a20 20 0 0 0 2 0.09961 20 20 0 0 0 2 -0.121094v-6.11914l6.085938-6.845704 1.5 1.5a2.0002 2.0002 0 1 0 2.828124 -2.828124l-3-3a2.0002 2.0002 0 0 0 -2.908203 0.08594l-6.533203 7.349606-9.199218-9.966796 9.226562-9.226563 6.585938 6.585937a2.0002 2.0002 0 0 0 2.828124 0l3-3a2.0002 2.0002 0 1 0 -2.828124 -2.828124l-1.585938 1.585937-6-6v-7.0722666a20 20 0 0 0 -2 -0.0996094zm0 18a2 2 0 0 0 -2 2 2 2 0 0 0 2 2 2 2 0 0 0 2 -2 2 2 0 0 0 -2 -2z"
     id="path8" />
  <path
     style="fill:#ffffff;fill-opacity:1"
     d="m24 4a20 20 0 0 0 -2 0.1210938v7.0507812l-11.414062 11.414063a2.0002 2.0002 0 0 0 -0.054688 2.771484l11.46875 12.423828v6.119141a20 20 0 0 0 2 0.099609 20 20 0 0 0 2 -0.121094v-6.11914l6.085938-6.845704 1.5 1.5a2.0002 2.0002 0 1 0 2.828124 -2.828124l-3-3a2.0002 2.0002 0 0 0 -2.908203 0.085937l-6.533203 7.349609-9.199218-9.966796 9.226562-9.226563 6.585938 6.585937a2.0002 2.0002 0 0 0 2.828124 0l3-3a2.0002 2.0002 0 1 0 -2.828124 -2.828124l-1.585938 1.585937-6-6v-7.0722656a20 20 0 0 0 -2 -0.0996094zm0 18a2 2 0 0 0 -2 2 2 2 0 0 0 2 2 2 2 0 0 0 2 -2 2 2 0 0 0 -2 -2z"
     id="path10" />
  <path
     style="fill:#ffffff;opacity:.2"
     d="m24 3.828125a20 20 0 0 0 -2 0.1210938v1.0722656a20 20 0 0 1 2 -0.1210938 20 20 0 0 1 2 0.0996094v-1.0722656a20 20 0 0 0 -2 -0.0996094zm-2 7.171875l-11.414062 11.414062a2.0002 2.0002 0 0 0 -0.509766 1.949219 2.0002 2.0002 0 0 1 0.509766 -0.876953l11.414062-11.414062v-1.072266zm4 0v1.072266l6 6 1.585938-1.585938a2.0002 2.0002 0 0 1 3.367187 0.845703 2.0002 2.0002 0 0 0 -3.367187 -1.917969l-1.585938 1.585938-6-6zm-2 10.828125a2 2 0 0 0 -2 2 2 2 0 0 0 0.074219 0.53125 2 2 0 0 1 1.925781 -1.458984 2 2 0 0 1 1.925781 1.46875 2 2 0 0 0 0.074219 -0.541016 2 2 0 0 0 -2 -2zm-8.710938 2.611328l-0.515624 0.515625 9.199218 9.966797 6.533203-7.349609a2.0002 2.0002 0 0 1 2.908203 -0.085938l3 3a2.0002 2.0002 0 0 1 0.541016 0.910156 2.0002 2.0002 0 0 0 -0.541016 -1.982422l-3-3a2.0002 2.0002 0 0 0 -2.908203 0.085938l-6.533203 7.349609-8.683594-9.410156z"
     id="path12" />
</svg>
