<?xml version="1.0" encoding="UTF-8" standalone="no"?>
<svg
   xmlns:dc="http://purl.org/dc/elements/1.1/"
   xmlns:cc="http://creativecommons.org/ns#"
   xmlns:rdf="http://www.w3.org/1999/02/22-rdf-syntax-ns#"
   xmlns:svg="http://www.w3.org/2000/svg"
   xmlns="http://www.w3.org/2000/svg"
   xmlns:sodipodi="http://sodipodi.sourceforge.net/DTD/sodipodi-0.dtd"
   xmlns:inkscape="http://www.inkscape.org/namespaces/inkscape"
   width="48"
   height="48"
   version="1"
   id="svg30"
   sodipodi:docname="aafm.svg"
   inkscape:version="0.92.5 (2060ec1f9f, 2020-04-08)">
  <metadata
     id="metadata36">
    <rdf:RDF>
      <cc:Work
         rdf:about="">
        <dc:format>image/svg+xml</dc:format>
        <dc:type
           rdf:resource="http://purl.org/dc/dcmitype/StillImage" />
      </cc:Work>
    </rdf:RDF>
  </metadata>
  <defs
     id="defs34" />
  <sodipodi:namedview
     pagecolor="#ffffff"
     bordercolor="#666666"
     borderopacity="1"
     objecttolerance="10"
     gridtolerance="10"
     guidetolerance="10"
     inkscape:pageopacity="0"
     inkscape:pageshadow="2"
     inkscape:window-width="783"
     inkscape:window-height="480"
     id="namedview32"
     showgrid="false"
     inkscape:zoom="4.9166667"
     inkscape:cx="24"
     inkscape:cy="24"
     inkscape:window-x="0"
     inkscape:window-y="28"
     inkscape:window-maximized="0"
     inkscape:current-layer="svg30" />
  <path
     style="opacity:0.1"
     d="m 11.457031,4.9823187 a 1.50015,1.50015 0 0 0 -1.191406,2.3710937 l 4.261719,6.1601566 a 1.5007233,1.5007233 0 1 0 2.46875,-1.707031 L 12.734375,5.6463812 A 1.50015,1.50015 0 0 0 11.457031,4.9823187 Z m 25.041016,0 a 1.50015,1.50015 0 0 0 -1.232422,0.6640625 l -4.261719,6.1601568 a 1.5007233,1.5007233 0 1 0 2.46875,1.707031 L 37.734375,7.3534124 A 1.50015,1.50015 0 0 0 36.498047,4.9823187 Z"
     id="path2" />
  <path
     style="opacity:0.2"
     d="m 42,25 v 17 c 0,1.662 -1.338,3 -3,3 H 9 C 7.338,45 6,43.662 6,42 V 25 Z"
     id="path4" />
  <path
     style="fill:none;stroke:#4c566a;stroke-width:3;stroke-linecap:round;stroke-opacity:1"
     d="m 11.5,5.5 4.261821,6.160245"
     id="path6" />
  <path
     style="fill:none;stroke:#4c566a;stroke-width:3;stroke-linecap:round;stroke-opacity:1"
     d="m 36.5,5.5 -4.261821,6.160245"
     id="path8" />
  <path
     style="fill:#4c566a;fill-opacity:1"
     d="m 42,24 v 17 c 0,1.662 -1.338,3 -3,3 H 9 C 7.338,44 6,42.662 6,41 V 24 Z"
     id="path10" />
  <path
     style="fill:#5f697d;fill-opacity:1"
     d="M 24 6 A 18 18 0 0 0 6 24 L 42 24 A 18 18 0 0 0 24 6 z"
     id="path12" />
  <path
     style="opacity:0.2"
     d="M 16.5,16 A 2.5,2.5 0 0 0 14,18.5 2.5,2.5 0 0 0 16.5,21 2.5,2.5 0 0 0 19,18.5 2.5,2.5 0 0 0 16.5,16 Z m 16,0 A 2.5,2.5 0 0 0 30,18.5 2.5,2.5 0 0 0 32.5,21 2.5,2.5 0 0 0 35,18.5 2.5,2.5 0 0 0 32.5,16 Z"
     id="path14" />
  <circle
     style="fill:#ffffff"
     cx="16.5"
     cy="17.5"
     r="2.5"
     id="circle16" />
  <circle
     style="fill:#ffffff"
     cx="32.5"
     cy="17.5"
     r="2.5"
     id="circle18" />
  <path
     style="opacity:0.2"
     d="m 17,29 v 11 c 0,0 0,1 1,1 h 12 c 0,0 1,0 1,-1 v -9 c 0,-1 -1,-1 -1,-1 h -5 l -2,-2 h -5 c 0,0 -1,0 -1,1 z"
     id="path20" />
  <path
     style="fill:#ffffff;fill-opacity:1"
     d="m 17,28 v 11 c 0,0 0,1 1,1 h 12 c 0,0 1,0 1,-1 v -9 c 0,-1 -1,-1 -1,-1 h -5 l -2,-2 h -5 c 0,0 -1,0 -1,1 z"
     id="path22" />
  <path
     style="opacity:0.2;fill:#ffffff"
     d="M 24 6 A 18 18 0 0 0 6 24 L 6.0351562 24 A 18 18 0 0 1 24 7 A 18 18 0 0 1 41.949219 24 L 42 24 A 18 18 0 0 0 24 6 z"
     id="path24" />
  <rect
     style="opacity:0.2"
     width="36"
     height="1"
     x="6"
     y="24"
     id="rect26" />
  <path
     style="fill:#ffffff;opacity:0.2"
     d="M 18 27 C 18 27 17 27 17 28 L 17 29 C 17 28 18 28 18 28 L 23 28 L 25 30 L 30 30 C 30 30 31 30 31 31 L 31 30 C 31 29 30 29 30 29 L 25 29 L 23 27 L 18 27 z"
     id="path28" />
</svg>
