<?xml version="1.0" encoding="UTF-8" standalone="no"?>
<svg
   xmlns:dc="http://purl.org/dc/elements/1.1/"
   xmlns:cc="http://creativecommons.org/ns#"
   xmlns:rdf="http://www.w3.org/1999/02/22-rdf-syntax-ns#"
   xmlns:svg="http://www.w3.org/2000/svg"
   xmlns="http://www.w3.org/2000/svg"
   xmlns:sodipodi="http://sodipodi.sourceforge.net/DTD/sodipodi-0.dtd"
   xmlns:inkscape="http://www.inkscape.org/namespaces/inkscape"
   width="48"
   height="48"
   version="1.1"
   id="svg14"
   sodipodi:docname="abbaye.svg"
   inkscape:version="0.92.5 (2060ec1f9f, 2020-04-08)">
  <metadata
     id="metadata20">
    <rdf:RDF>
      <cc:Work
         rdf:about="">
        <dc:format>image/svg+xml</dc:format>
        <dc:type
           rdf:resource="http://purl.org/dc/dcmitype/StillImage" />
      </cc:Work>
    </rdf:RDF>
  </metadata>
  <defs
     id="defs18" />
  <sodipodi:namedview
     pagecolor="#ffffff"
     bordercolor="#666666"
     borderopacity="1"
     objecttolerance="10"
     gridtolerance="10"
     guidetolerance="10"
     inkscape:pageopacity="0"
     inkscape:pageshadow="2"
     inkscape:window-width="783"
     inkscape:window-height="480"
     id="namedview16"
     showgrid="false"
     inkscape:zoom="4.9166667"
     inkscape:cx="24"
     inkscape:cy="24"
     inkscape:window-x="0"
     inkscape:window-y="28"
     inkscape:window-maximized="0"
     inkscape:current-layer="svg14" />
  <rect
     x="4"
     y="5"
     width="40"
     height="40"
     ry="2"
     style="opacity:.2"
     id="rect2" />
  <rect
     x="4"
     y="4"
     width="40"
     height="40"
     ry="2"
     style="fill:#4c566a;fill-opacity:1"
     id="rect4" />
  <path
     d="m8 14v22l6-6h5v5l-6 6h22l-6-6v-5h5l6 6v-22l-6 6h-5v-5l6-6h-22l6 6v5h-5z"
     style="opacity:.2"
     id="path6" />
  <path
     d="m8 13v22l6-6h5v5l-6 6h22l-6-6v-5h5l6 6v-22l-6 6h-5v-5l6-6h-22l6 6v5h-5z"
     style="fill:#ffffff;fill-opacity:1"
     id="path8" />
  <path
     d="m6 4c-1.108 0-2 0.892-2 2v1c0-1.108 0.892-2 2-2h36c1.108 0 2 0.892 2 2v-1c0-1.108-0.892-2-2-2z"
     style="fill:#ffffff;opacity:.1"
     id="path10" />
  <path
     d="m13 8 1 1h20l1-1h-22zm-5 5v1l6 6h5v-1h-5l-6-6zm32 0-6 6h-5v1h5l6-6v-1zm-21 21-6 6h1l5-5v-1zm10 0v1l5 5h1l-6-6z"
     style="fill:#ffffff;opacity:.2"
     id="path12" />
</svg>
