<?xml version="1.0" encoding="UTF-8" standalone="no"?>
<svg
   xmlns:dc="http://purl.org/dc/elements/1.1/"
   xmlns:cc="http://creativecommons.org/ns#"
   xmlns:rdf="http://www.w3.org/1999/02/22-rdf-syntax-ns#"
   xmlns:svg="http://www.w3.org/2000/svg"
   xmlns="http://www.w3.org/2000/svg"
   xmlns:sodipodi="http://sodipodi.sourceforge.net/DTD/sodipodi-0.dtd"
   xmlns:inkscape="http://www.inkscape.org/namespaces/inkscape"
   width="48"
   height="48"
   version="1"
   id="svg26"
   sodipodi:docname="cs-desklets.svg"
   inkscape:version="0.92.5 (2060ec1f9f, 2020-04-08)">
  <metadata
     id="metadata32">
    <rdf:RDF>
      <cc:Work
         rdf:about="">
        <dc:format>image/svg+xml</dc:format>
        <dc:type
           rdf:resource="http://purl.org/dc/dcmitype/StillImage" />
      </cc:Work>
    </rdf:RDF>
  </metadata>
  <defs
     id="defs30" />
  <sodipodi:namedview
     pagecolor="#ffffff"
     bordercolor="#666666"
     borderopacity="1"
     objecttolerance="10"
     gridtolerance="10"
     guidetolerance="10"
     inkscape:pageopacity="0"
     inkscape:pageshadow="2"
     inkscape:window-width="783"
     inkscape:window-height="480"
     id="namedview28"
     showgrid="false"
     inkscape:zoom="4.9166667"
     inkscape:cx="24"
     inkscape:cy="24"
     inkscape:window-x="0"
     inkscape:window-y="28"
     inkscape:window-maximized="0"
     inkscape:current-layer="svg26" />
  <rect
     style="opacity:0.2"
     width="36"
     height="36"
     x="6"
     y="9"
     rx="3"
     ry="3"
     id="rect2" />
  <rect
     style="fill:#4c566a;fill-opacity:1"
     width="36"
     height="36"
     x="6"
     y="8"
     rx="3"
     ry="3"
     id="rect4" />
  <path
     style="fill:#ffffff;opacity:0.1"
     d="M 9 8 C 7.338 8 6 9.338 6 11 L 6 12 C 6 10.338 7.338 9 9 9 L 20.296875 9 L 20.296875 8 L 9 8 z M 27.585938 8 L 27.585938 9 L 39 9 C 40.662 9 42 10.338 42 12 L 42 11 C 42 9.338 40.662 8 39 8 L 27.585938 8 z"
     id="path6" />
  <path
     style="opacity:0.2"
     d="M 10,13 H 38 V 41 H 10 Z"
     id="path8" />
  <path
     style="fill:#697387;fill-opacity:1"
     d="M 10,12 H 38 V 40 H 10 Z"
     id="path10" />
  <path
     style="opacity:0.1"
     d="m 23.810547,5 c -0.950811,0.010677 -1.98647,0.3110658 -3.109375,1.2539062 L 14,11.333984 V 17 H 24 34 V 11.333984 L 27.298828,6.2539062 C 26.101063,5.2482099 25.002142,4.9737993 24,5.0019531 23.937367,5.0001931 23.873935,4.9992901 23.810547,5 Z M 24,9 a 2,2 0 0 1 2,2 2,2 0 0 1 -2,2 2,2 0 0 1 -2,-2 2,2 0 0 1 2,-2 z"
     id="path12" />
  <path
     style="fill:#b5b5b5"
     d="M 23.810547 4 C 22.859736 4.010677 21.824077 4.3110658 20.701172 5.2539062 L 14 10.333984 L 14 16 L 24 16 L 34 16 L 34 10.333984 L 27.298828 5.2539062 C 26.101063 4.2482099 25.002142 3.9737993 24 4.0019531 C 23.937367 4.0001931 23.873935 3.9992901 23.810547 4 z M 24 8 A 2 2 0 0 1 26 10 A 2 2 0 0 1 24 12 A 2 2 0 0 1 22 10 A 2 2 0 0 1 24 8 z"
     id="path14" />
  <rect
     style="fill:#fefefe;fill-opacity:1"
     width="12"
     height="2"
     x="18"
     y="20"
     id="rect16" />
  <rect
     style="fill:#fefefe;fill-opacity:1"
     width="12"
     height="2"
     x="18"
     y="24"
     id="rect18" />
  <rect
     style="fill:#fefefe;fill-opacity:1"
     width="12"
     height="2"
     x="18"
     y="28"
     id="rect20" />
  <rect
     style="fill:#fefefe;fill-opacity:1"
     width="7"
     height="2"
     x="18"
     y="32"
     id="rect22" />
  <path
     style="fill:#ffffff;opacity:0.2"
     d="M 23.810547 4 C 22.859736 4.010677 21.824077 4.3110658 20.701172 5.2539062 L 14 10.333984 L 14 11.333984 L 20.701172 6.2539062 C 21.824077 5.3110658 22.859736 5.010677 23.810547 5 C 23.873935 4.9992901 23.937367 5.0001931 24 5.0019531 C 25.002142 4.9737993 26.101063 5.2482099 27.298828 6.2539062 L 34 11.333984 L 34 10.333984 L 27.298828 5.2539062 C 26.101063 4.2482099 25.002142 3.9737993 24 4.0019531 C 23.937367 4.0001931 23.873935 3.9992901 23.810547 4 z M 22.066406 10.5 A 2 2 0 0 0 22 11 A 2 2 0 0 0 24 13 A 2 2 0 0 0 26 11 A 2 2 0 0 0 25.933594 10.5 A 2 2 0 0 1 24 12 A 2 2 0 0 1 22.066406 10.5 z"
     id="path24" />
</svg>
