<?xml version="1.0" encoding="UTF-8" standalone="no"?>
<svg
   xmlns:dc="http://purl.org/dc/elements/1.1/"
   xmlns:cc="http://creativecommons.org/ns#"
   xmlns:rdf="http://www.w3.org/1999/02/22-rdf-syntax-ns#"
   xmlns:svg="http://www.w3.org/2000/svg"
   xmlns="http://www.w3.org/2000/svg"
   xmlns:sodipodi="http://sodipodi.sourceforge.net/DTD/sodipodi-0.dtd"
   xmlns:inkscape="http://www.inkscape.org/namespaces/inkscape"
   width="48"
   height="48"
   version="1"
   id="svg20"
   sodipodi:docname="accerciser.svg"
   inkscape:version="0.92.5 (2060ec1f9f, 2020-04-08)">
  <metadata
     id="metadata26">
    <rdf:RDF>
      <cc:Work
         rdf:about="">
        <dc:format>image/svg+xml</dc:format>
        <dc:type
           rdf:resource="http://purl.org/dc/dcmitype/StillImage" />
      </cc:Work>
    </rdf:RDF>
  </metadata>
  <defs
     id="defs24" />
  <sodipodi:namedview
     pagecolor="#ffffff"
     bordercolor="#666666"
     borderopacity="1"
     objecttolerance="10"
     gridtolerance="10"
     guidetolerance="10"
     inkscape:pageopacity="0"
     inkscape:pageshadow="2"
     inkscape:window-width="954"
     inkscape:window-height="500"
     id="namedview22"
     showgrid="false"
     inkscape:zoom="6.9532167"
     inkscape:cx="25.560859"
     inkscape:cy="26.36178"
     inkscape:window-x="0"
     inkscape:window-y="28"
     inkscape:window-maximized="0"
     inkscape:current-layer="svg20" />
  <rect
     fill="#2a85c2"
     width="42"
     height="8"
     x="3"
     y="20"
     rx="3"
     ry="3"
     id="rect2"
     style="fill:#697387;fill-opacity:1" />
  <path
     fill="#fff"
     opacity=".2"
     d="m6 20c-1.662 0-3 1.338-3 3v1c0-1.662 1.338-3 3-3h36c1.662 0 3 1.338 3 3v-1c0-1.662-1.338-3-3-3h-36z"
     id="path4" />
  <path
     opacity=".2"
     d="m3 25v1c0 1.662 1.338 3 3 3h36c1.662 0 3-1.338 3-3v-1c0 1.662-1.338 3-3 3h-36c-1.662 0-3-1.338-3-3z"
     id="path6" />
  <rect
     fill="#c2352a"
     width="40"
     height="10"
     x="-44"
     y="-18"
     rx="4"
     ry="4"
     transform="matrix(0,-1,-1,0,0,0)"
     id="rect8"
     style="fill:#4c566a;fill-opacity:1" />
  <rect
     fill="#c2352a"
     width="40"
     height="10"
     x="-44"
     y="-40"
     rx="4"
     ry="4"
     transform="matrix(0,-1,-1,0,0,0)"
     id="rect10"
     style="fill:#4c566a;fill-opacity:1" />
  <rect
     fill="#d8564b"
     width="30"
     height="4"
     x="-39"
     y="-8"
     rx="2"
     ry="2"
     transform="matrix(0,-1,-1,0,0,0)"
     id="rect12"
     style="fill:#555f73;fill-opacity:1" />
  <rect
     fill="#d8564b"
     width="30"
     height="4"
     x="-39"
     y="-44"
     rx="2"
     ry="2"
     transform="matrix(0,-1,-1,0,0,0)"
     id="rect14"
     style="fill:#555f73;fill-opacity:1" />
  <path
     opacity=".2"
     d="m4 37v1c0 1.108 0.892 2 2 2s2-0.892 2-2v-1c0 1.108-0.892 2-2 2s-2-0.892-2-2zm36 0v1c0 1.108 0.892 2 2 2s2-0.892 2-2v-1c0 1.108-0.892 2-2 2s-2-0.892-2-2zm-32 3v1c0 2.216 1.784 4 4 4h2c2.216 0 4-1.784 4-4v-1c0 2.216-1.784 4-4 4h-2c-2.216 0-4-1.784-4-4zm22 0v1c0 2.216 1.784 4 4 4h2c2.216 0 4-1.784 4-4v-1c0 2.216-1.784 4-4 4h-2c-2.216 0-4-1.784-4-4z"
     id="path16" />
  <path
     fill="#fff"
     opacity=".2"
     d="m12 4c-2.216 0-4 1.784-4 4v1c0-2.216 1.784-4 4-4h2c2.216 0 4 1.784 4 4v-1c0-2.216-1.784-4-4-4h-2zm22 0c-2.216 0-4 1.784-4 4v1c0-2.216 1.784-4 4-4h2c2.216 0 4 1.784 4 4v-1c0-2.216-1.784-4-4-4h-2zm-28 5c-1.108 0-2 0.892-2 2v1c0-1.108 0.892-2 2-2s2 0.892 2 2v-1c0-1.108-0.892-2-2-2zm36 0c-1.108 0-2 0.892-2 2v1c0-1.108 0.892-2 2-2s2 0.892 2 2v-1c0-1.108-0.892-2-2-2z"
     id="path18" />
</svg>
