<?xml version="1.0" encoding="UTF-8" standalone="no"?>
<svg
   xmlns:dc="http://purl.org/dc/elements/1.1/"
   xmlns:cc="http://creativecommons.org/ns#"
   xmlns:rdf="http://www.w3.org/1999/02/22-rdf-syntax-ns#"
   xmlns:svg="http://www.w3.org/2000/svg"
   xmlns="http://www.w3.org/2000/svg"
   xmlns:sodipodi="http://sodipodi.sourceforge.net/DTD/sodipodi-0.dtd"
   xmlns:inkscape="http://www.inkscape.org/namespaces/inkscape"
   width="48"
   height="48"
   version="1"
   id="svg26"
   sodipodi:docname="acestream.svg"
   inkscape:version="0.92.5 (2060ec1f9f, 2020-04-08)">
  <metadata
     id="metadata32">
    <rdf:RDF>
      <cc:Work
         rdf:about="">
        <dc:format>image/svg+xml</dc:format>
        <dc:type
           rdf:resource="http://purl.org/dc/dcmitype/StillImage" />
      </cc:Work>
    </rdf:RDF>
  </metadata>
  <defs
     id="defs30" />
  <sodipodi:namedview
     pagecolor="#ffffff"
     bordercolor="#666666"
     borderopacity="1"
     objecttolerance="10"
     gridtolerance="10"
     guidetolerance="10"
     inkscape:pageopacity="0"
     inkscape:pageshadow="2"
     inkscape:window-width="783"
     inkscape:window-height="480"
     id="namedview28"
     showgrid="false"
     inkscape:zoom="4.9166667"
     inkscape:cx="22.917586"
     inkscape:cy="33.754764"
     inkscape:window-x="0"
     inkscape:window-y="28"
     inkscape:window-maximized="0"
     inkscape:current-layer="svg26" />
  <path
     style="opacity:0.2"
     d="M 44,25 A 20,20 0 0 1 24,45 20,20 0 0 1 4,25 20,20 0 0 1 24,5 20,20 0 0 1 44,25 Z"
     id="path2" />
  <path
     style="fill:#5f697d;fill-opacity:1"
     d="m 24,24 v 20 a 20.01343,20 0 0 0 17.199042,-9.818359 20.01343,20 0 0 0 0.111403,-0.19336 z"
     id="path4" />
  <path
     style="fill:#414b5f;fill-opacity:1"
     d="M 24,24 V 44 A 20.01343,20 0 0 1 6.8009591,34.181641 20.01343,20 0 0 1 6.6895563,33.988281 Z"
     id="path6" />
  <path
     style="fill:#414b5f;fill-opacity:1"
     d="M 24,24 V 4 a 20.01343,20 0 0 1 17.199042,9.818359 20.01343,20 0 0 1 0.111403,0.19336 z"
     id="path8" />
  <path
     style="fill:#5f697d;fill-opacity:1"
     d="M 24,24 V 4 a 20.01343,20 0 0 0 -17.1990409,9.818359 20.01343,20 0 0 0 -0.1114028,0.19336 z"
     id="path10" />
  <path
     style="fill:#555f73;fill-opacity:1"
     d="M 24,24 6.6678617,34 A 20.01343,20 0 0 1 6.576999,14.206009 20.01343,20 0 0 1 6.6888648,14.012916 Z"
     id="path12" />
  <path
     style="fill:#555f73;fill-opacity:1"
     d="M 24,24 41.332139,14 a 20.01343,20 0 0 1 0.09086,19.793991 20.01343,20 0 0 1 -0.111866,0.193093 z"
     id="path14" />
  <circle
     style="opacity:0.2"
     cx="24"
     cy="25"
     r="16"
     id="circle16" />
  <circle
     style="fill:#4c566a;fill-opacity:1"
     cx="24"
     cy="24"
     r="16"
     id="circle18" />
  <path
     style="opacity:0.1"
     transform="matrix(1.7333333,0,0,2.0784609,-13.933333,-15.176915)"
     d="m 26.5,19.330128 -3.75,2.165063 -3.75,2.165064 0,-4.330127 0,-4.330127 3.75,2.165063 z"
     id="path20" />
  <path
     style="fill:#ffffff;fill-opacity:1"
     transform="matrix(1.7333333,0,0,2.0784609,-13.933333,-16.176915)"
     d="m 26.5,19.330128 -3.75,2.165063 -3.75,2.165064 0,-4.330127 0,-4.330127 3.75,2.165063 z"
     id="path22" />
  <path
     style="opacity:0.2;fill:#ffffff"
     d="M 24 4 A 20 20 0 0 0 4 24 A 20 20 0 0 0 4.0214844 24.582031 A 20 20 0 0 1 24 5 A 20 20 0 0 1 43.978516 24.417969 A 20 20 0 0 0 44 24 A 20 20 0 0 0 24 4 z"
     id="path24" />
</svg>
