<?xml version="1.0" encoding="UTF-8" standalone="no"?>
<svg
   xmlns:dc="http://purl.org/dc/elements/1.1/"
   xmlns:cc="http://creativecommons.org/ns#"
   xmlns:rdf="http://www.w3.org/1999/02/22-rdf-syntax-ns#"
   xmlns:svg="http://www.w3.org/2000/svg"
   xmlns="http://www.w3.org/2000/svg"
   xmlns:sodipodi="http://sodipodi.sourceforge.net/DTD/sodipodi-0.dtd"
   xmlns:inkscape="http://www.inkscape.org/namespaces/inkscape"
   width="48"
   height="48"
   version="1"
   id="svg16"
   sodipodi:docname="Acetino2.svg"
   inkscape:version="0.92.5 (2060ec1f9f, 2020-04-08)">
  <metadata
     id="metadata22">
    <rdf:RDF>
      <cc:Work
         rdf:about="">
        <dc:format>image/svg+xml</dc:format>
        <dc:type
           rdf:resource="http://purl.org/dc/dcmitype/StillImage" />
      </cc:Work>
    </rdf:RDF>
  </metadata>
  <defs
     id="defs20" />
  <sodipodi:namedview
     pagecolor="#ffffff"
     bordercolor="#666666"
     borderopacity="1"
     objecttolerance="10"
     gridtolerance="10"
     guidetolerance="10"
     inkscape:pageopacity="0"
     inkscape:pageshadow="2"
     inkscape:window-width="783"
     inkscape:window-height="480"
     id="namedview18"
     showgrid="false"
     inkscape:zoom="4.9166667"
     inkscape:cx="24"
     inkscape:cy="24"
     inkscape:window-x="0"
     inkscape:window-y="28"
     inkscape:window-maximized="0"
     inkscape:current-layer="svg16" />
  <path
     fill="#848484"
     d="m24 14a10 10 0 0 0 -10 10 10 10 0 0 0 10 10 10 10 0 0 0 10 -10 10 10 0 0 0 -10 -10zm0 6c2.209 0 4 1.791 4 4s-1.791 4-4 4-4-1.791-4-4c0-2.2091 1.7909-4 4-4z"
     id="path2" />
  <path
     fill="#e4e4e4"
     d="m24 4c-11.08 0-20 8.92-20 20s8.92 20 20 20 20-8.92 20-20-8.92-20-20-20zm0 12a8 8 0 0 1 8 8 8 8 0 0 1 -8 8 8 8 0 0 1 -8 -8 8 8 0 0 1 8 -8z"
     id="path4"
     style="fill:#4c566a;fill-opacity:1" />
  <path
     fill="#fff"
     opacity=".2"
     d="m24 4c11.07 0 19.982 8.92 19.982 20 0 0.16787-0.008 0.33314-0.01169 0.5-0.264-10.846-9.068-19.5-19.97-19.5s-19.706 8.654-19.97 19.5c-0.004-0.16686-0.011689-0.33213-0.011689-0.5 0-11.08 8.9119-20 19.982-20zm3.9456 20.5c0.02088 0.16551 0.05075 0.32883 0.05075 0.5 0 2.2091-1.7892 4-3.9963 4s-3.9963-1.7909-3.9963-4c0-0.17117 0.02987-0.33449 0.05075-0.5 0.24818 1.9706 1.9095 3.5 3.9456 3.5s3.6974-1.5294 3.9456-3.5z"
     id="path6" />
  <path
     opacity=".2"
     d="m4.012 24.5c-0.0041 0.167-0.0117 0.332-0.0117 0.5 0 11.08 8.92 20 20 20s20-8.92 20-20c0-0.168-0.008-0.333-0.012-0.5-0.264 10.846-9.076 19.5-19.988 19.5s-19.724-8.654-19.988-19.5z"
     id="path8" />
  <circle
     opacity=".2"
     cx="36"
     cy="37"
     r="11"
     id="circle10" />
  <circle
     fill="#ba22ff"
     cx="36"
     cy="36"
     r="11"
     id="circle12"
     style="fill:#5f697d;fill-opacity:1" />
  <path
     fill="#fff"
     d="m30 36c0 3.3137 2.6863 6 6 6 3.2801 0 5.9403-2.6332 5.9941-5.9004a1 1 0 0 0 0.006 -0.09961 1 1 0 0 0 -1 -1 1 1 0 0 0 -1 1c0 2.2091-1.7909 4-4 4s-4-1.7909-4-4 1.7909-4 4-4v2l4-3-4-3v2c-3.3137 0-6 2.6863-6 6z"
     id="path14" />
</svg>
