<?xml version="1.0" encoding="UTF-8" standalone="no"?>
<svg
   xmlns:dc="http://purl.org/dc/elements/1.1/"
   xmlns:cc="http://creativecommons.org/ns#"
   xmlns:rdf="http://www.w3.org/1999/02/22-rdf-syntax-ns#"
   xmlns:svg="http://www.w3.org/2000/svg"
   xmlns="http://www.w3.org/2000/svg"
   xmlns:sodipodi="http://sodipodi.sourceforge.net/DTD/sodipodi-0.dtd"
   xmlns:inkscape="http://www.inkscape.org/namespaces/inkscape"
   width="48"
   height="48"
   version="1"
   id="svg24"
   sodipodi:docname="activitywatch.svg"
   inkscape:version="0.92.5 (2060ec1f9f, 2020-04-08)">
  <metadata
     id="metadata30">
    <rdf:RDF>
      <cc:Work
         rdf:about="">
        <dc:format>image/svg+xml</dc:format>
        <dc:type
           rdf:resource="http://purl.org/dc/dcmitype/StillImage" />
      </cc:Work>
    </rdf:RDF>
  </metadata>
  <defs
     id="defs28" />
  <sodipodi:namedview
     pagecolor="#ffffff"
     bordercolor="#666666"
     borderopacity="1"
     objecttolerance="10"
     gridtolerance="10"
     guidetolerance="10"
     inkscape:pageopacity="0"
     inkscape:pageshadow="2"
     inkscape:window-width="783"
     inkscape:window-height="480"
     id="namedview26"
     showgrid="false"
     inkscape:zoom="4.9166667"
     inkscape:cx="24"
     inkscape:cy="24"
     inkscape:window-x="0"
     inkscape:window-y="28"
     inkscape:window-maximized="0"
     inkscape:current-layer="svg24" />
  <rect
     style="fill:#4c566a;fill-opacity:1"
     width="40"
     height="40"
     x="4"
     y="4"
     rx="20"
     ry="20"
     id="rect2" />
  <path
     style="opacity:0.1"
     d="m 18.039062,11.00212 a 1.0001,1.0001 0 0 0 -0.947265,0.580078 l -6,13 a 1.0005834,1.0005834 0 0 0 1.816406,0.839844 l 1.578125,-3.419922 h 7.027344 l 1.578125,3.419922 3.980469,9.951172 a 1.0001,1.0001 0 0 0 1.871093,-0.04102 L 31.5,28.027511 l 2.556641,7.304687 a 1.0001,1.0001 0 0 0 1.871093,0.04102 l 4,-10 A 1.0001,1.0001 0 1 0 38.072266,24.631026 L 35.0625,32.154464 32.443359,24.672042 a 1.0001,1.0001 0 0 0 -1.886718,0 L 27.9375,32.154464 24.941406,24.664229 a 1.0005834,1.0005834 0 0 0 -0.0332,-0.08203 l -6,-13 A 1.0001,1.0001 0 0 0 18.039062,11.00212 Z M 18,14.388839 20.589844,20.00212 h -5.179688 z"
     id="path4" />
  <path
     style="opacity:0.2;fill:#ffffff"
     d="M 24,4 C 12.920985,4 4.0017778,12.92 4.0017778,24 c 0,0.168 -0.004,0.333 0,0.5 C 4.2661543,13.654 13.08897,5 24,5 c 10.91103,0 19.734246,8.654 19.998223,19.5 0.004,-0.167 0,-0.332 0,-0.5 C 43.998223,12.92 35.079015,4 24,4 Z"
     id="path6" />
  <path
     opacity=".2"
     d="m4.0117 24.5c-0.0041 0.167-0.0117 0.332-0.0117 0.5 0 11.08 8.92 20 20 20s20-8.92 20-20c0-0.168-0.008-0.333-0.012-0.5-0.264 10.846-9.076 19.5-19.988 19.5s-19.724-8.654-19.988-19.5z"
     id="path8" />
  <path
     style="fill:none;stroke:#ffffff;stroke-width:2;stroke-linecap:round;stroke-linejoin:round;stroke-opacity:1"
     d="m 12,24 6,-13 6,13"
     id="path10" />
  <rect
     style="fill:#ffffff;fill-opacity:1"
     width="8"
     height="2"
     x="14"
     y="19"
     id="rect12" />
  <path
     style="fill:none;stroke:#ffffff;stroke-width:2;stroke-linecap:round;stroke-linejoin:round;stroke-opacity:1"
     d="M 24,24 28,34 31.5,24 35,34 39,24"
     id="path14" />
  <path
     style="fill:none;stroke:#404040;stroke-width:1px;stroke-linecap:round"
     d="M 13.5,33.5 24,24"
     id="path16" />
  <path
     style="fill:none;stroke:#404040;stroke-width:2;stroke-linecap:round"
     d="m 24,24 6,-7"
     id="path18" />
  <circle
     style="opacity:0.1"
     cx="24"
     cy="25"
     r="3"
     id="circle20" />
  <circle
     style="fill:#595959"
     cx="24"
     cy="24"
     r="3"
     id="circle22" />
</svg>
