<?xml version="1.0" encoding="UTF-8" standalone="no"?>
<svg
   xmlns:dc="http://purl.org/dc/elements/1.1/"
   xmlns:cc="http://creativecommons.org/ns#"
   xmlns:rdf="http://www.w3.org/1999/02/22-rdf-syntax-ns#"
   xmlns:svg="http://www.w3.org/2000/svg"
   xmlns="http://www.w3.org/2000/svg"
   xmlns:sodipodi="http://sodipodi.sourceforge.net/DTD/sodipodi-0.dtd"
   xmlns:inkscape="http://www.inkscape.org/namespaces/inkscape"
   width="48"
   height="48"
   version="1.1"
   id="svg14"
   sodipodi:docname="AdobeUpdate.svg"
   inkscape:version="0.92.5 (2060ec1f9f, 2020-04-08)">
  <metadata
     id="metadata20">
    <rdf:RDF>
      <cc:Work
         rdf:about="">
        <dc:format>image/svg+xml</dc:format>
        <dc:type
           rdf:resource="http://purl.org/dc/dcmitype/StillImage" />
      </cc:Work>
    </rdf:RDF>
  </metadata>
  <defs
     id="defs18" />
  <sodipodi:namedview
     pagecolor="#ffffff"
     bordercolor="#666666"
     borderopacity="1"
     objecttolerance="10"
     gridtolerance="10"
     guidetolerance="10"
     inkscape:pageopacity="0"
     inkscape:pageshadow="2"
     inkscape:window-width="640"
     inkscape:window-height="480"
     id="namedview16"
     showgrid="false"
     inkscape:zoom="4.9166667"
     inkscape:cx="-15.661017"
     inkscape:cy="24"
     inkscape:current-layer="g12" />
  <g
     transform="matrix(2,0,0,2,2,2)"
     id="g12">
    <rect
       x=".99989998"
       y="1"
       width="20"
       height="20"
       rx="1"
       ry="1"
       style="fill:#4c566a;fill-opacity:1"
       id="rect2" />
    <path
       d="m1.9999 1c-0.554 0-1 0.446-1 1v0.5c0-0.554 0.446-1 1-1h18c0.554 0 1 0.446 1 1v-0.5c0-0.554-0.446-1-1-1z"
       style="fill:#ffffff;opacity:.1"
       id="path4" />
    <path
       d="m0.9999 20v0.5c0 0.554 0.446 1 1 1h18c0.554 0 1-0.446 1-1v-0.5c0 0.554-0.446 1-1 1h-18c-0.554 0-1-0.446-1-1z"
       style="opacity:.2"
       id="path6" />
    <path
       d="M 8,1.5 1.2832031,20.693359 C 1.4647933,20.881166 1.7169173,21 2,21 H 12.3125 L 11,17.5 H 8 l 3,-9 4.808594,12.5 H 20 c 0.283083,0 0.535207,-0.118834 0.716797,-0.306641 L 14,1.5 Z"
       style="opacity:.2"
       id="path8" />
    <path
       d="M 8,1 1.1679688,20.521484 C 1.3445565,20.802787 1.641982,21 2,21 H 12.5 L 11,17 H 8 l 3,-9 5,13 h 4 c 0.358018,0 0.655444,-0.197213 0.832031,-0.478516 L 14,1 Z"
       style="fill:#ffffff"
       id="path10" />
  </g>
</svg>
