<?xml version="1.0" encoding="UTF-8" standalone="no"?>
<svg
   xmlns:dc="http://purl.org/dc/elements/1.1/"
   xmlns:cc="http://creativecommons.org/ns#"
   xmlns:rdf="http://www.w3.org/1999/02/22-rdf-syntax-ns#"
   xmlns:svg="http://www.w3.org/2000/svg"
   xmlns="http://www.w3.org/2000/svg"
   xmlns:sodipodi="http://sodipodi.sourceforge.net/DTD/sodipodi-0.dtd"
   xmlns:inkscape="http://www.inkscape.org/namespaces/inkscape"
   width="48"
   height="48"
   version="1.1"
   id="svg18"
   sodipodi:docname="AdobeBridge.svg"
   inkscape:version="0.92.5 (2060ec1f9f, 2020-04-08)">
  <metadata
     id="metadata24">
    <rdf:RDF>
      <cc:Work
         rdf:about="">
        <dc:format>image/svg+xml</dc:format>
        <dc:type
           rdf:resource="http://purl.org/dc/dcmitype/StillImage" />
      </cc:Work>
    </rdf:RDF>
  </metadata>
  <defs
     id="defs22" />
  <sodipodi:namedview
     pagecolor="#ffffff"
     bordercolor="#666666"
     borderopacity="1"
     objecttolerance="10"
     gridtolerance="10"
     guidetolerance="10"
     inkscape:pageopacity="0"
     inkscape:pageshadow="2"
     inkscape:window-width="794"
     inkscape:window-height="846"
     id="namedview20"
     showgrid="false"
     inkscape:zoom="4.9166667"
     inkscape:cx="24"
     inkscape:cy="24"
     inkscape:window-x="0"
     inkscape:window-y="28"
     inkscape:window-maximized="0"
     inkscape:current-layer="svg18" />
  <path
     d="m4 42v1c0 1.108 0.892 2 2 2h36c1.108 0 2-0.892 2-2v-1c0 1.108-0.892 2-2 2h-36c-1.108 0-2-0.892-2-2z"
     style="opacity:.2"
     id="path2" />
  <rect
     x="4"
     y="4"
     width="40"
     height="40"
     rx="2"
     ry="2"
     style="fill:#4c566a;fill-opacity:1"
     id="rect4" />
  <path
     d="m6 4c-1.108 0-2 0.892-2 2v1c0-1.108 0.892-2 2-2h36c1.108 0 2 0.892 2 2v-1c0-1.108-0.892-2-2-2z"
     style="fill:#ffffff;opacity:.1"
     id="path6" />
  <path
     d="m11 15v20h5s8 0 8-5c0-2.805911-1.289757-4.475135-2.830078-5.482422 1.042112-0.740735 1.830078-1.845474 1.830078-3.517578 0-6-7-6-7-6h-1zm4 3h1s3 0 3 3c0 2-3 2-3 2h-1zm0 8h1s4 0 4 4c0 2-4 2-4 2h-1z"
     style="opacity:.2"
     id="path8" />
  <path
     d="m11 14v8 3 9h4 1s8 0 8-5c0-2.805911-1.289757-4.475135-2.830078-5.482422 1.042112-0.740735 1.830078-1.845474 1.830078-3.517578 0-6-7-6-7-6h-1-4zm4 3h1s3 0 3 3c0 2-3 2-3 2h-1v-5zm0 8h1s4 0 4 4c0 2-4 2-4 2h-1v-6z"
     style="fill:#ffffff;fill-opacity:1"
     id="path10" />
  <path
     d="m4 42v1c0 1.108 0.892 2 2 2h36c1.108 0 2-0.892 2-2v-1c0 1.108-0.892 2-2 2h-36c-1.108 0-2-0.892-2-2z"
     style="opacity:.2"
     id="path12" />
  <path
     d="m26 18.917969v16h4v-10c2-2 7-2 7-2v-4s-5 0-7 2v-2z"
     style="opacity:.2"
     id="path14" />
  <path
     d="m26 17.917969v16h4v-10c2-2 7-2 7-2v-4s-5 0-7 2v-2z"
     style="fill:#ffffff;fill-opacity:1"
     id="path16" />
</svg>
