<?xml version="1.0" encoding="UTF-8" standalone="no"?>
<svg
   xmlns:dc="http://purl.org/dc/elements/1.1/"
   xmlns:cc="http://creativecommons.org/ns#"
   xmlns:rdf="http://www.w3.org/1999/02/22-rdf-syntax-ns#"
   xmlns:svg="http://www.w3.org/2000/svg"
   xmlns="http://www.w3.org/2000/svg"
   xmlns:sodipodi="http://sodipodi.sourceforge.net/DTD/sodipodi-0.dtd"
   xmlns:inkscape="http://www.inkscape.org/namespaces/inkscape"
   width="48"
   height="48"
   version="1.1"
   id="svg16"
   sodipodi:docname="AdobeIncopy.svg"
   inkscape:version="0.92.5 (2060ec1f9f, 2020-04-08)">
  <metadata
     id="metadata22">
    <rdf:RDF>
      <cc:Work
         rdf:about="">
        <dc:format>image/svg+xml</dc:format>
        <dc:type
           rdf:resource="http://purl.org/dc/dcmitype/StillImage" />
      </cc:Work>
    </rdf:RDF>
  </metadata>
  <defs
     id="defs20" />
  <sodipodi:namedview
     pagecolor="#ffffff"
     bordercolor="#666666"
     borderopacity="1"
     objecttolerance="10"
     gridtolerance="10"
     guidetolerance="10"
     inkscape:pageopacity="0"
     inkscape:pageshadow="2"
     inkscape:window-width="783"
     inkscape:window-height="480"
     id="namedview18"
     showgrid="false"
     inkscape:zoom="4.9166667"
     inkscape:cx="24"
     inkscape:cy="24"
     inkscape:window-x="0"
     inkscape:window-y="28"
     inkscape:window-maximized="0"
     inkscape:current-layer="svg16" />
  <rect
     x="4"
     y="4"
     width="40"
     height="40"
     rx="2"
     ry="2"
     style="fill:#4c566a;fill-opacity:1"
     id="rect2" />
  <path
     d="m6 4c-1.108 0-2 0.892-2 2v1c0-1.108 0.892-2 2-2h36c1.108 0 2 0.892 2 2v-1c0-1.108-0.892-2-2-2z"
     style="fill:#ffffff;opacity:.1"
     id="path4" />
  <path
     d="m4 42v1c0 1.108 0.892 2 2 2h36c1.108 0 2-0.892 2-2v-1c0 1.108-0.892 2-2 2h-36c-1.108 0-2-0.892-2-2z"
     style="opacity:.2"
     id="path6" />
  <rect
     x="16"
     y="15"
     width="4"
     height="20"
     style="opacity:.2"
     id="rect8" />
  <rect
     x="16"
     y="14"
     width="4"
     height="20"
     style="fill:#ffffff;fill-opacity:1"
     id="rect10" />
  <path
     d="m30.5 21a6.5 7 0 0 0-6.5 7 6.5 7 0 0 0 6.5 7 6.5 7 0 0 0 2.5-0.541016v-3.484375a3 4 0 0 1-2 1.025391 3 4 0 0 1-3-4 3 4 0 0 1 3-4 3 4 0 0 1 2 1.023438v-3.476563a6.5 7 0 0 0-2.5-0.546875z"
     style="opacity:.2"
     id="path12" />
  <path
     d="m30.5 20a6.5 7 0 0 0-6.5 7 6.5 7 0 0 0 6.5 7 6.5 7 0 0 0 2.5-0.541016v-3.484375a3 4 0 0 1-2 1.025391 3 4 0 0 1-3-4 3 4 0 0 1 3-4 3 4 0 0 1 2 1.023438v-3.476563a6.5 7 0 0 0-2.5-0.546875z"
     style="fill:#ffffff;fill-opacity:1"
     id="path14" />
</svg>
