<?xml version="1.0" encoding="UTF-8" standalone="no"?>
<svg
   xmlns:dc="http://purl.org/dc/elements/1.1/"
   xmlns:cc="http://creativecommons.org/ns#"
   xmlns:rdf="http://www.w3.org/1999/02/22-rdf-syntax-ns#"
   xmlns:svg="http://www.w3.org/2000/svg"
   xmlns="http://www.w3.org/2000/svg"
   xmlns:sodipodi="http://sodipodi.sourceforge.net/DTD/sodipodi-0.dtd"
   xmlns:inkscape="http://www.inkscape.org/namespaces/inkscape"
   height="48"
   width="48"
   version="1.1"
   id="svg14"
   sodipodi:docname="AdobeIndesign.svg"
   inkscape:version="0.92.5 (2060ec1f9f, 2020-04-08)">
  <metadata
     id="metadata20">
    <rdf:RDF>
      <cc:Work
         rdf:about="">
        <dc:format>image/svg+xml</dc:format>
        <dc:type
           rdf:resource="http://purl.org/dc/dcmitype/StillImage" />
      </cc:Work>
    </rdf:RDF>
  </metadata>
  <defs
     id="defs18" />
  <sodipodi:namedview
     pagecolor="#ffffff"
     bordercolor="#666666"
     borderopacity="1"
     objecttolerance="10"
     gridtolerance="10"
     guidetolerance="10"
     inkscape:pageopacity="0"
     inkscape:pageshadow="2"
     inkscape:window-width="783"
     inkscape:window-height="480"
     id="namedview16"
     showgrid="false"
     inkscape:zoom="4.9166667"
     inkscape:cx="24"
     inkscape:cy="24"
     inkscape:window-x="0"
     inkscape:window-y="28"
     inkscape:window-maximized="0"
     inkscape:current-layer="svg14" />
  <rect
     style="fill:#4c566a;fill-opacity:1"
     rx="2"
     ry="2"
     height="40"
     width="40"
     y="4"
     x="4"
     id="rect2" />
  <path
     style="opacity:.1;fill:#ffffff"
     d="m6 4c-1.108 0-2 0.892-2 2v1c0-1.108 0.892-2 2-2h36c1.108 0 2 0.892 2 2v-1c0-1.108-0.892-2-2-2z"
     id="path4" />
  <path
     style="opacity:.2"
     d="m4 42v1c0 1.108 0.892 2 2 2h36c1.108 0 2-0.892 2-2v-1c0 1.108-0.892 2-2 2h-36c-1.108 0-2-0.892-2-2z"
     id="path6" />
  <path
     style="opacity:.2"
     d="m15 15v20h4v-20h-4zm15 0v7s-7 0-7 7c0 6 6 6 6 6s5 0 5-1v-5-7-7h-4zm-1 10h1v7h-1s-2 0-2-3c0-4 2-4 2-4z"
     id="path8" />
  <path
     style="fill:#ffffff;fill-opacity:1"
     d="m30 14v7s-7 0-7 7c0 6 6 6 6 6s5 0 5-1v-19zm-1 10h1v7h-1s-2 0-2-3c0-4 2-4 2-4z"
     id="path10" />
  <rect
     style="fill:#ffffff;fill-opacity:1"
     height="20"
     width="4"
     y="14"
     x="15"
     id="rect12" />
</svg>
