<?xml version="1.0" encoding="UTF-8" standalone="no"?>
<svg
   xmlns:dc="http://purl.org/dc/elements/1.1/"
   xmlns:cc="http://creativecommons.org/ns#"
   xmlns:rdf="http://www.w3.org/1999/02/22-rdf-syntax-ns#"
   xmlns:svg="http://www.w3.org/2000/svg"
   xmlns="http://www.w3.org/2000/svg"
   xmlns:sodipodi="http://sodipodi.sourceforge.net/DTD/sodipodi-0.dtd"
   xmlns:inkscape="http://www.inkscape.org/namespaces/inkscape"
   width="48"
   height="48"
   version="1.1"
   id="svg16"
   sodipodi:docname="AdobePrelude.svg"
   inkscape:version="0.92.5 (2060ec1f9f, 2020-04-08)">
  <metadata
     id="metadata22">
    <rdf:RDF>
      <cc:Work
         rdf:about="">
        <dc:format>image/svg+xml</dc:format>
        <dc:type
           rdf:resource="http://purl.org/dc/dcmitype/StillImage" />
      </cc:Work>
    </rdf:RDF>
  </metadata>
  <defs
     id="defs20" />
  <sodipodi:namedview
     pagecolor="#ffffff"
     bordercolor="#666666"
     borderopacity="1"
     objecttolerance="10"
     gridtolerance="10"
     guidetolerance="10"
     inkscape:pageopacity="0"
     inkscape:pageshadow="2"
     inkscape:window-width="783"
     inkscape:window-height="480"
     id="namedview18"
     showgrid="false"
     inkscape:zoom="4.9166667"
     inkscape:cx="24"
     inkscape:cy="24"
     inkscape:window-x="0"
     inkscape:window-y="28"
     inkscape:window-maximized="0"
     inkscape:current-layer="svg16" />
  <rect
     x="4"
     y="3.918"
     width="40"
     height="40"
     rx="2"
     ry="2"
     style="fill:#4c566a;fill-opacity:1"
     id="rect2" />
  <path
     d="m6 3.918c-1.108 0-2 0.892-2 2v1c0-1.108 0.892-2 2-2h36c1.108 0 2 0.892 2 2v-1c0-1.108-0.892-2-2-2z"
     style="fill:#ffffff;opacity:.1"
     id="path4" />
  <path
     d="m4 41.918v1c0 1.108 0.892 2 2 2h36c1.108 0 2-0.892 2-2v-1c0 1.108-0.892 2-2 2h-36c-1.108 0-2-0.892-2-2z"
     style="opacity:.2"
     id="path6" />
  <path
     d="m12.9998 15.06165s3.0348-0.08214 5.5331-0.08214c3.467 0 7.467 1 7.467 7s-4 7-7.4668 6.9795c-0.76719 0.03308-1.5331 0.04099-1.5331 0.04099v5.98h-4zm3.9998 10.91c0.44064 0.04411 0.77266 0.02288 1.4258 0.01481 2.175-0.026 3.574-1.949 3.574-4.007 0-1.8492-1.1631-3.9213-3.2518-4-0.83247-0.03128-1.7483 0-1.7483 0z"
     style="opacity:.2"
     id="path8" />
  <path
     d="m12.9998 14.06165s3.0348-0.08214 5.5331-0.08214c3.467 0 7.467 1 7.467 7s-4 7-7.4668 6.9795c-0.76719 0.03308-1.5331 0.04099-1.5331 0.04099v5.98h-4zm3.9998 10.91c0.44064 0.04411 0.77266 0.02288 1.4258 0.01481 2.175-0.026 3.574-1.949 3.574-4.007 0-1.8492-1.1631-3.9213-3.2518-4-0.83247-0.03128-1.7483 0-1.7483 0z"
     style="fill:#ffffff;fill-opacity:1"
     id="path10" />
  <path
     d="m28 15v16s0 4 4 4h3v-4h-3v-16z"
     style="opacity:.2"
     id="path12" />
  <path
     d="m27.9998 14.06165v16s0 4 4 4h3v-4h-3v-16z"
     style="fill:#ffffff;fill-opacity:1"
     id="path14" />
</svg>
