<?xml version="1.0" encoding="UTF-8" standalone="no"?>
<svg
   xmlns:dc="http://purl.org/dc/elements/1.1/"
   xmlns:cc="http://creativecommons.org/ns#"
   xmlns:rdf="http://www.w3.org/1999/02/22-rdf-syntax-ns#"
   xmlns:svg="http://www.w3.org/2000/svg"
   xmlns="http://www.w3.org/2000/svg"
   xmlns:sodipodi="http://sodipodi.sourceforge.net/DTD/sodipodi-0.dtd"
   xmlns:inkscape="http://www.inkscape.org/namespaces/inkscape"
   width="48"
   height="48"
   version="1.1"
   id="svg16"
   sodipodi:docname="AdobeAfterEffect.svg"
   inkscape:version="0.92.5 (2060ec1f9f, 2020-04-08)">
  <metadata
     id="metadata22">
    <rdf:RDF>
      <cc:Work
         rdf:about="">
        <dc:format>image/svg+xml</dc:format>
        <dc:type
           rdf:resource="http://purl.org/dc/dcmitype/StillImage" />
      </cc:Work>
    </rdf:RDF>
  </metadata>
  <defs
     id="defs20" />
  <sodipodi:namedview
     pagecolor="#ffffff"
     bordercolor="#666666"
     borderopacity="1"
     objecttolerance="10"
     gridtolerance="10"
     guidetolerance="10"
     inkscape:pageopacity="0"
     inkscape:pageshadow="2"
     inkscape:window-width="794"
     inkscape:window-height="846"
     id="namedview18"
     showgrid="false"
     inkscape:zoom="4.9166667"
     inkscape:cx="24"
     inkscape:cy="24"
     inkscape:window-x="0"
     inkscape:window-y="28"
     inkscape:window-maximized="0"
     inkscape:current-layer="svg16" />
  <path
     d="m4 42v1c0 1.108 0.892 2 2 2h36c1.108 0 2-0.892 2-2v-1c0 1.108-0.892 2-2 2h-36c-1.108 0-2-0.892-2-2z"
     style="opacity:.2"
     id="path2" />
  <rect
     x="4"
     y="4"
     width="40"
     height="40"
     rx="2"
     ry="2"
     style="fill:#4c566a;fill-opacity:1"
     id="rect4" />
  <path
     d="m6 4c-1.108 0-2 0.892-2 2v1c0-1.108 0.892-2 2-2h36c1.108 0 2 0.892 2 2v-1c0-1.108-0.892-2-2-2z"
     style="fill:#ffffff;opacity:.1"
     id="path6" />
  <path
     d="m15 15-4 20h4l0.800781-6h3l1.199219 6h4l-5-20zm2 5 1.199219 6h-2z"
     style="opacity:.2"
     id="path8" />
  <path
     d="m15 14-4 20h4l0.800781-6h3l1.199219 6h4l-5-20zm2 5 1.199219 6h-2z"
     style="fill:#ffffff;fill-opacity:1"
     id="path10" />
  <path
     d="m31.5 19c-3.037566 0-5.5 3.581722-5.5 8s2.462434 8 5.5 8c0.507455-0.0024 3.012244-0.101015 3.5-0.304688v-3.695312c-0.432373 0.651202-2.95874 0.99831-3.5 1-0.993247-0.0018-1.891763-1.179346-2.289062-3h7.609374c0.117666-0.65297 0.178042-1.324976 0.179688-2 0-4.418278-2.462434-8-5.5-8zm0 3c1.18641 4e-3 2.208031 1.675117 2.445312 4h-4.894531c0.237576-2.327756 1.261341-3.999743 2.449219-4z"
     style="opacity:.2"
     id="path12" />
  <path
     d="m31.5 18c-3.037566 0-5.5 3.581722-5.5 8s2.462434 8 5.5 8c0.507455-0.0024 3.012244-0.101015 3.5-0.304688v-3.695312c-0.432373 0.651202-2.95874 0.99831-3.5 1-0.993247-0.0018-1.891763-1.179346-2.289062-3h7.609374c0.117666-0.65297 0.178042-1.324976 0.179688-2 0-4.418278-2.462434-8-5.5-8zm0 3c1.18641 4e-3 2.208031 1.675117 2.445312 4h-4.894531c0.237576-2.327756 1.261341-3.999743 2.449219-4z"
     style="fill:#ffffff;fill-opacity:1"
     id="path14" />
</svg>
