<?xml version="1.0" encoding="UTF-8" standalone="no"?>
<svg
   xmlns:dc="http://purl.org/dc/elements/1.1/"
   xmlns:cc="http://creativecommons.org/ns#"
   xmlns:rdf="http://www.w3.org/1999/02/22-rdf-syntax-ns#"
   xmlns:svg="http://www.w3.org/2000/svg"
   xmlns="http://www.w3.org/2000/svg"
   xmlns:sodipodi="http://sodipodi.sourceforge.net/DTD/sodipodi-0.dtd"
   xmlns:inkscape="http://www.inkscape.org/namespaces/inkscape"
   width="48"
   height="48"
   version="1.1"
   id="svg16"
   sodipodi:docname="AdobeLightroom.svg"
   inkscape:version="0.92.5 (2060ec1f9f, 2020-04-08)">
  <metadata
     id="metadata22">
    <rdf:RDF>
      <cc:Work
         rdf:about="">
        <dc:format>image/svg+xml</dc:format>
        <dc:type
           rdf:resource="http://purl.org/dc/dcmitype/StillImage" />
      </cc:Work>
    </rdf:RDF>
  </metadata>
  <defs
     id="defs20" />
  <sodipodi:namedview
     pagecolor="#ffffff"
     bordercolor="#666666"
     borderopacity="1"
     objecttolerance="10"
     gridtolerance="10"
     guidetolerance="10"
     inkscape:pageopacity="0"
     inkscape:pageshadow="2"
     inkscape:window-width="783"
     inkscape:window-height="480"
     id="namedview18"
     showgrid="false"
     inkscape:zoom="4.9166667"
     inkscape:cx="24"
     inkscape:cy="24"
     inkscape:window-x="0"
     inkscape:window-y="28"
     inkscape:window-maximized="0"
     inkscape:current-layer="svg16" />
  <rect
     x="3.9998"
     y="3.917619"
     width="40"
     height="40"
     rx="2"
     ry="2"
     style="fill:#4c566a;fill-opacity:1"
     id="rect2" />
  <path
     d="m5.9998 3.917619c-1.108 0-2 0.892-2 2v1c0-1.108 0.892-2 2-2h36c1.108 0 2 0.892 2 2v-1c0-1.108-0.892-2-2-2z"
     style="fill:#ffffff;opacity:.1"
     id="path4" />
  <path
     d="m3.9998 41.917619v1c0 1.108 0.892 2 2 2h36c1.108 0 2-0.892 2-2v-1c0 1.108-0.892 2-2 2h-36c-1.108 0-2-0.892-2-2z"
     style="opacity:.2"
     id="path6" />
  <path
     d="m26 18.917969v16h4v-10c2-2 7-2 7-2v-4s-5 0-7 2v-2z"
     style="opacity:.2"
     id="path8" />
  <path
     d="m26 17.917969v16h4v-10c2-2 7-2 7-2v-4s-5 0-7 2v-2z"
     style="fill:#ffffff;fill-opacity:1"
     id="path10" />
  <path
     d="m11 15v20h13v-3h-9v-17z"
     style="opacity:.2"
     id="path12" />
  <path
     d="m11 14v20h4 9v-3h-9v-17h-4z"
     style="fill:#ffffff;fill-opacity:1"
     id="path14" />
</svg>
