<?xml version="1.0" encoding="UTF-8" standalone="no"?>
<svg
   xmlns:dc="http://purl.org/dc/elements/1.1/"
   xmlns:cc="http://creativecommons.org/ns#"
   xmlns:rdf="http://www.w3.org/1999/02/22-rdf-syntax-ns#"
   xmlns:svg="http://www.w3.org/2000/svg"
   xmlns="http://www.w3.org/2000/svg"
   xmlns:sodipodi="http://sodipodi.sourceforge.net/DTD/sodipodi-0.dtd"
   xmlns:inkscape="http://www.inkscape.org/namespaces/inkscape"
   width="48"
   height="48"
   version="1.1"
   id="svg16"
   sodipodi:docname="AdobeCharacterAnimator.svg"
   inkscape:version="0.92.5 (2060ec1f9f, 2020-04-08)">
  <metadata
     id="metadata22">
    <rdf:RDF>
      <cc:Work
         rdf:about="">
        <dc:format>image/svg+xml</dc:format>
        <dc:type
           rdf:resource="http://purl.org/dc/dcmitype/StillImage" />
      </cc:Work>
    </rdf:RDF>
  </metadata>
  <defs
     id="defs20" />
  <sodipodi:namedview
     pagecolor="#ffffff"
     bordercolor="#666666"
     borderopacity="1"
     objecttolerance="10"
     gridtolerance="10"
     guidetolerance="10"
     inkscape:pageopacity="0"
     inkscape:pageshadow="2"
     inkscape:window-width="783"
     inkscape:window-height="480"
     id="namedview18"
     showgrid="false"
     inkscape:zoom="4.9166667"
     inkscape:cx="24"
     inkscape:cy="24"
     inkscape:window-x="0"
     inkscape:window-y="28"
     inkscape:window-maximized="0"
     inkscape:current-layer="svg16" />
  <path
     d="m4 42v1c0 1.108 0.892 2 2 2h36c1.108 0 2-0.892 2-2v-1c0 1.108-0.892 2-2 2h-36c-1.108 0-2-0.892-2-2z"
     style="opacity:.2"
     id="path2" />
  <rect
     x="4"
     y="4"
     width="40"
     height="40"
     rx="2"
     ry="2"
     style="fill:#4c566a;fill-opacity:1"
     id="rect4" />
  <path
     d="m6 4c-1.108 0-2 0.892-2 2v1c0-1.108 0.892-2 2-2h36c1.108 0 2 0.892 2 2v-1c0-1.108-0.892-2-2-2z"
     style="fill:#ffffff;opacity:.1"
     id="path6" />
  <path
     d="m26 16v19h3v-9h3s2 0 2 2v7h3v-8s0-4-4-4c-1.51339 0-2.881222 0.14429-4 0.322266v-7.322266z"
     style="opacity:.2"
     id="path8" />
  <path
     d="m26 15v8 4 7h3v-7-2h3s2 0 2 2v7h3v-8s0-4-4-4c-1.51339 0-2.881222 0.14429-4 0.322266v-7.322266h-3z"
     style="fill:#ffffff;fill-opacity:1"
     id="path10" />
  <path
     d="m19 15c-6 0-8 4.477153-8 10s2 10 8 10c0.852164-0.0039 4.197601-0.201365 5-0.583984v-5.226563c-0.657369 1.15536-4.058536 1.808002-5 1.810547-1.932997 0-4-2.686292-4-6s2-6 4-6c0.940633-2.5e-5 4.34168 0.649011 5 1.800781v-5.216797c-0.802399-0.382619-4.147836-0.580107-5-0.583984z"
     style="opacity:.2"
     id="path12" />
  <path
     d="m19 14c-6 0-8 4.477153-8 10s2 10 8 10c0.852164-0.0039 4.197601-0.201365 5-0.583984v-5.226563c-0.657369 1.15536-4.058536 1.808002-5 1.810547-1.932997 0-4-2.686292-4-6s2-6 4-6c0.940633-2.5e-5 4.34168 0.649011 5 1.800781v-5.216797c-0.802399-0.382619-4.147836-0.580107-5-0.583984z"
     style="fill:#ffffff;fill-opacity:1"
     id="path14" />
</svg>
