<?xml version="1.0" encoding="UTF-8" standalone="no"?>
<svg
   xmlns:dc="http://purl.org/dc/elements/1.1/"
   xmlns:cc="http://creativecommons.org/ns#"
   xmlns:rdf="http://www.w3.org/1999/02/22-rdf-syntax-ns#"
   xmlns:svg="http://www.w3.org/2000/svg"
   xmlns="http://www.w3.org/2000/svg"
   xmlns:sodipodi="http://sodipodi.sourceforge.net/DTD/sodipodi-0.dtd"
   xmlns:inkscape="http://www.inkscape.org/namespaces/inkscape"
   width="48"
   height="48"
   version="1"
   id="svg12"
   sodipodi:docname="akonadi.svg"
   inkscape:version="0.92.5 (2060ec1f9f, 2020-04-08)">
  <metadata
     id="metadata18">
    <rdf:RDF>
      <cc:Work
         rdf:about="">
        <dc:format>image/svg+xml</dc:format>
        <dc:type
           rdf:resource="http://purl.org/dc/dcmitype/StillImage" />
      </cc:Work>
    </rdf:RDF>
  </metadata>
  <defs
     id="defs16" />
  <sodipodi:namedview
     pagecolor="#ffffff"
     bordercolor="#666666"
     borderopacity="1"
     objecttolerance="10"
     gridtolerance="10"
     guidetolerance="10"
     inkscape:pageopacity="0"
     inkscape:pageshadow="2"
     inkscape:window-width="640"
     inkscape:window-height="480"
     id="namedview14"
     showgrid="false"
     inkscape:zoom="4.9166667"
     inkscape:cx="-15.661017"
     inkscape:cy="24"
     inkscape:current-layer="svg12" />
  <path
     inkscape:connector-curvature="0"
     style="fill:#cddff0"
     d="m 41.40678,23.339208 a 17,17 0 0 1 -17,17 17,17 0 0 1 -17.0000003,-17 17,17 0 0 1 17.0000003,-16.9999992 17,17 0 0 1 17,16.9999992 z"
     id="path2" />
  <path
     inkscape:connector-curvature="0"
     style="opacity:0.2;fill:#ffffff"
     d="M 24.40678,6.3392088 A 17,17 0 0 0 7.4067797,23.339208 a 17,17 0 0 0 0.0215,0.58 17,17 0 0 1 16.9780003,-16.5799992 17,17 0 0 1 16.979,16.4199992 17,17 0 0 0 0.021,-0.42 17,17 0 0 0 -17,-16.9999992 z"
     id="path4" />
  <path
     inkscape:connector-curvature="0"
     d="m 34.90978,38.790208 c -9.087,5.247 -20.708,2.133 -25.9540003,-6.954 -5.247,-9.088 -2.1334,-20.707999 6.9540003,-25.9549992 10.708,-0.04918 17.507,23.0889992 19,32.9089992 z"
     id="path6"
     style="fill:#5f697d;fill-opacity:1" />
  <path
     inkscape:connector-curvature="0"
     d="m 43.40678,23.339208 c 0,10.493 -8.507,19 -19,19 -10.493,0 -19.0000003,-8.507 -19.0000003,-19 5.3113003,-9.297899 28.7490003,-3.6167 38.0000003,0 z"
     id="path8"
     style="fill:#4c566a;fill-opacity:1" />
  <path
     inkscape:connector-curvature="0"
     style="opacity:0.2"
     d="m 5.4536797,24.269208 c -0.0144,0.024 -0.0328,0.045 -0.0469,0.07 0,10.493 8.5070003,19 19.0000003,19 10.493,0 19,-8.507 19,-19 -0.015,-0.006 -0.034,-0.012 -0.049,-0.018 -0.514,10.034 -8.789,18.018 -18.951,18.018 -10.18,0 -18.4650003,-8.012 -18.9530003,-18.07 z"
     id="path10" />
</svg>
