<?xml version="1.0" encoding="UTF-8" standalone="no"?>
<svg
   xmlns:dc="http://purl.org/dc/elements/1.1/"
   xmlns:cc="http://creativecommons.org/ns#"
   xmlns:rdf="http://www.w3.org/1999/02/22-rdf-syntax-ns#"
   xmlns:svg="http://www.w3.org/2000/svg"
   xmlns="http://www.w3.org/2000/svg"
   xmlns:sodipodi="http://sodipodi.sourceforge.net/DTD/sodipodi-0.dtd"
   xmlns:inkscape="http://www.inkscape.org/namespaces/inkscape"
   height="48"
   width="48"
   version="1.1"
   id="svg8"
   sodipodi:docname="akregator_empty.svg"
   inkscape:version="0.92.5 (2060ec1f9f, 2020-04-08)">
  <metadata
     id="metadata14">
    <rdf:RDF>
      <cc:Work
         rdf:about="">
        <dc:format>image/svg+xml</dc:format>
        <dc:type
           rdf:resource="http://purl.org/dc/dcmitype/StillImage" />
      </cc:Work>
    </rdf:RDF>
  </metadata>
  <defs
     id="defs12" />
  <sodipodi:namedview
     pagecolor="#ffffff"
     bordercolor="#666666"
     borderopacity="1"
     objecttolerance="10"
     gridtolerance="10"
     guidetolerance="10"
     inkscape:pageopacity="0"
     inkscape:pageshadow="2"
     inkscape:window-width="640"
     inkscape:window-height="480"
     id="namedview10"
     showgrid="false"
     inkscape:zoom="4.9166667"
     inkscape:cx="24"
     inkscape:cy="24"
     inkscape:current-layer="svg8" />
  <path
     style="fill:#4c566a;fill-opacity:1"
     d="m44 38c0-20-14-34-34-34-3 0-6 3-6 6v28c0 3 3 6 6 6h28c3 0 6-3 6-6z"
     id="path2" />
  <path
     style="opacity:.1;fill:#ffffff"
     d="m10 4c-3 0-6 3-6 6v1c0-3 3-6 6-6 19.752 0 33.642 13.659 33.984 33.262 0.005-0.087 0.016-0.175 0.016-0.262 0-20-14-34-34-34z"
     id="path4" />
  <path
     style="opacity:.2"
     d="m4 38v1c0 3 3 6 6 6h28c3 0 6-3 6-6 0-0.248-0.011-0.492-0.016-0.738-0.167 2.91-3.071 5.738-5.984 5.738h-28c-3 0-6-3-6-6z"
     id="path6" />
</svg>
