<?xml version="1.0" encoding="UTF-8" standalone="no"?>
<svg
   xmlns:dc="http://purl.org/dc/elements/1.1/"
   xmlns:cc="http://creativecommons.org/ns#"
   xmlns:rdf="http://www.w3.org/1999/02/22-rdf-syntax-ns#"
   xmlns:svg="http://www.w3.org/2000/svg"
   xmlns="http://www.w3.org/2000/svg"
   xmlns:sodipodi="http://sodipodi.sourceforge.net/DTD/sodipodi-0.dtd"
   xmlns:inkscape="http://www.inkscape.org/namespaces/inkscape"
   width="48"
   height="48"
   version="1.1"
   id="svg22"
   sodipodi:docname="albion-online.svg"
   inkscape:version="0.92.5 (2060ec1f9f, 2020-04-08)">
  <metadata
     id="metadata28">
    <rdf:RDF>
      <cc:Work
         rdf:about="">
        <dc:format>image/svg+xml</dc:format>
        <dc:type
           rdf:resource="http://purl.org/dc/dcmitype/StillImage" />
      </cc:Work>
    </rdf:RDF>
  </metadata>
  <defs
     id="defs26" />
  <sodipodi:namedview
     pagecolor="#ffffff"
     bordercolor="#666666"
     borderopacity="1"
     objecttolerance="10"
     gridtolerance="10"
     guidetolerance="10"
     inkscape:pageopacity="0"
     inkscape:pageshadow="2"
     inkscape:window-width="783"
     inkscape:window-height="480"
     id="namedview24"
     showgrid="false"
     inkscape:zoom="4.9166667"
     inkscape:cx="24"
     inkscape:cy="24"
     inkscape:window-x="0"
     inkscape:window-y="28"
     inkscape:window-maximized="0"
     inkscape:current-layer="svg22" />
  <path
     style="opacity:0.2"
     d="M 18,22.999972 H 30 V 38.999997 L 24.000001,44.999959 18,38.999997 Z"
     id="path2" />
  <path
     style="fill:#afafb1"
     d="M 18,21.999947 H 30 V 37.999972 L 24.000001,43.999934 18,37.999972 Z"
     id="path4" />
  <path
     style="fill:#e4e4e4"
     d="m 18,21.999947 h 6.000001 V 43.999934 L 18,37.999972 Z"
     id="path6" />
  <rect
     style="opacity:0.2"
     width="8"
     height="28"
     x="15"
     y="-38"
     rx="3.999"
     ry="3.999"
     transform="rotate(90)"
     id="rect8" />
  <rect
     style="fill:#4c566a;fill-opacity:1"
     width="8"
     height="28"
     x="14"
     y="-38"
     rx="3.999"
     ry="3.999"
     transform="rotate(90)"
     id="rect10" />
  <rect
     style="fill:#5f697d;fill-opacity:1"
     width="8"
     height="10"
     x="20"
     y="4"
     id="rect12" />
  <rect
     style="opacity:0.2"
     width="12"
     height="4"
     x="18"
     y="5"
     rx="1.999"
     ry="1.999"
     id="rect14" />
  <rect
     style="fill:#4c566a;fill-opacity:1"
     width="12"
     height="4"
     x="18"
     y="4"
     rx="1.999"
     ry="1.999"
     id="rect16" />
  <path
     style="fill:#ffffff;opacity:0.2"
     d="M 14 14 C 11.784475 14 10 15.782878 10 17.998047 L 10 18.001953 C 10 18.172897 10.028206 18.33482 10.048828 18.5 C 10.295439 16.524709 11.955447 15 14 15 L 34 15 C 36.044553 15 37.704561 16.524709 37.951172 18.5 C 37.971794 18.33482 38 18.172897 38 18.001953 L 38 17.998047 C 38 15.782878 36.215525 14 34 14 L 14 14 z"
     id="path18" />
  <path
     style="fill:#ffffff;opacity:0.2"
     d="M 19.998047 4 C 18.890601 4 18 4.8922771 18 6 C 18 6.1737913 18.029031 6.3394495 18.070312 6.5 C 18.292153 5.6372227 19.064349 5 19.998047 5 L 28.001953 5 C 28.935651 5 29.707847 5.6372227 29.929688 6.5 C 29.970969 6.3394495 30 6.1737913 30 6 C 30 4.8922771 29.109399 4 28.001953 4 L 19.998047 4 z"
     id="path20" />
</svg>
