<?xml version="1.0" encoding="UTF-8" standalone="no"?>
<svg
   xmlns:dc="http://purl.org/dc/elements/1.1/"
   xmlns:cc="http://creativecommons.org/ns#"
   xmlns:rdf="http://www.w3.org/1999/02/22-rdf-syntax-ns#"
   xmlns:svg="http://www.w3.org/2000/svg"
   xmlns="http://www.w3.org/2000/svg"
   xmlns:sodipodi="http://sodipodi.sourceforge.net/DTD/sodipodi-0.dtd"
   xmlns:inkscape="http://www.inkscape.org/namespaces/inkscape"
   width="48"
   height="48"
   version="1.1"
   id="svg14"
   sodipodi:docname="alien-isolation.svg"
   inkscape:version="0.92.5 (2060ec1f9f, 2020-04-08)">
  <metadata
     id="metadata20">
    <rdf:RDF>
      <cc:Work
         rdf:about="">
        <dc:format>image/svg+xml</dc:format>
        <dc:type
           rdf:resource="http://purl.org/dc/dcmitype/StillImage" />
      </cc:Work>
    </rdf:RDF>
  </metadata>
  <defs
     id="defs18" />
  <sodipodi:namedview
     pagecolor="#ffffff"
     bordercolor="#666666"
     borderopacity="1"
     objecttolerance="10"
     gridtolerance="10"
     guidetolerance="10"
     inkscape:pageopacity="0"
     inkscape:pageshadow="2"
     inkscape:window-width="783"
     inkscape:window-height="480"
     id="namedview16"
     showgrid="false"
     inkscape:zoom="4.9166667"
     inkscape:cx="24"
     inkscape:cy="24"
     inkscape:window-x="0"
     inkscape:window-y="28"
     inkscape:window-maximized="0"
     inkscape:current-layer="svg14" />
  <path
     d="m23.945312 5c-6.923076 0-15 12.222656-15 22.222656 0 6.571248 4.6128245 15.591028 12.183594 17.433594 0.57591 0.737557 1.422646 1.34375 2.681641 1.34375 0.647321 0 1.18022-0.469682 1.626953-1.097656 8.354975-1.04705 13.507812-10.733176 13.507812-17.679688 0-8.888889-8.076924-22.222656-15-22.222656z"
     style="opacity:.2"
     id="path2" />
  <path
     d="m23.946001 4.0000018c-6.923077 0-15.000001 12.222221-15.000001 22.222221 0 7.351641 5.769232 17.777777 15.000001 17.777777s15-10.426136 15-17.777777c0-8.888889-8.076924-22.222221-15-22.222221z"
     style="fill:#4c566a;fill-opacity:1"
     id="path4" />
  <path
     d="m24.132812 4.0117188a10.405212 20.995689 8.4915283 0 0-9.818359 18.513672 10.405212 20.995689 8.4915283 0 0 2.873047 19.378906c1.964286 1.291685 4.224292 2.095703 6.757812 2.095703 0.576256 0 1.138787-0.04116 1.6875-0.119141a10.405212 20.995689 8.4915283 0 0 0.001954 0 10.405212 20.995689 8.4915283 0 0 9.25-18.207031 10.405212 20.995689 8.4915283 0 0-0.214844-12.861328c-2.905391-4.8638307-6.866035-8.6748757-10.53711-8.8007812z"
     style="opacity:.2"
     id="path6" />
  <path
     d="m13 26 6 8 1 8s0.109467 0.677605 0.445312 1.470703c1.102165 0.338667 2.269304 0.529297 3.5 0.529297 0.730446 0 1.437096-0.071429 2.123047-0.195312 0.619433-1.344401 0.931641-2.804688 0.931641-2.804688l5-5 1-5-3 5-5 4-5-9-7-5z"
     style="opacity:.2"
     id="path8" />
  <path
     d="m13 25 6 8 1 8s0.567567 4 3.810811 4c2.162162 0 3.189189-5 3.189189-5l5-5 1-5-3 5-5 4-5-9z"
     style="fill:#ffffff;fill-opacity:1"
     id="path10" />
  <path
     d="m23.945312 4c-6.923076 0-15 12.222656-15 22.222656 0 0.164205 0.0196599 0.336784 0.0253906 0.503906 0.2571208-9.90428 8.1646119-21.726562 14.974609-21.726562 6.804797 0 14.705987 12.872712 14.97461 21.753906 0.006367-0.176338 0.02539-0.358144 0.02539-0.53125 0-8.888889-8.076924-22.222656-15-22.222656z"
     style="fill:#ffffff;opacity:.2"
     id="path12" />
</svg>
