<?xml version="1.0" encoding="UTF-8" standalone="no"?>
<svg
   xmlns:dc="http://purl.org/dc/elements/1.1/"
   xmlns:cc="http://creativecommons.org/ns#"
   xmlns:rdf="http://www.w3.org/1999/02/22-rdf-syntax-ns#"
   xmlns:svg="http://www.w3.org/2000/svg"
   xmlns="http://www.w3.org/2000/svg"
   xmlns:sodipodi="http://sodipodi.sourceforge.net/DTD/sodipodi-0.dtd"
   xmlns:inkscape="http://www.inkscape.org/namespaces/inkscape"
   width="48"
   height="48"
   version="1.1"
   id="svg30"
   sodipodi:docname="allegorithmic-Substance_Painter.svg"
   inkscape:version="0.92.5 (2060ec1f9f, 2020-04-08)">
  <metadata
     id="metadata36">
    <rdf:RDF>
      <cc:Work
         rdf:about="">
        <dc:format>image/svg+xml</dc:format>
        <dc:type
           rdf:resource="http://purl.org/dc/dcmitype/StillImage" />
      </cc:Work>
    </rdf:RDF>
  </metadata>
  <defs
     id="defs34" />
  <sodipodi:namedview
     pagecolor="#ffffff"
     bordercolor="#666666"
     borderopacity="1"
     objecttolerance="10"
     gridtolerance="10"
     guidetolerance="10"
     inkscape:pageopacity="0"
     inkscape:pageshadow="2"
     inkscape:window-width="783"
     inkscape:window-height="480"
     id="namedview32"
     showgrid="false"
     inkscape:zoom="4.9166667"
     inkscape:cx="24"
     inkscape:cy="24"
     inkscape:window-x="0"
     inkscape:window-y="28"
     inkscape:window-maximized="0"
     inkscape:current-layer="svg30" />
  <circle
     style="opacity:0.2"
     cx="24.5"
     cy="5.5"
     r="2.5"
     id="circle2" />
  <circle
     style="opacity:0.2"
     cx="24"
     cy="26"
     r="17"
     id="circle4" />
  <circle
     style="opacity:0.2"
     cx="41"
     cy="40"
     r="4"
     id="circle6" />
  <circle
     style="opacity:0.2"
     cx="6"
     cy="40"
     r="2"
     id="circle8" />
  <circle
     style="fill:#4c566a;fill-opacity:1"
     cx="24.5"
     cy="4.5"
     r="2.5"
     id="circle10" />
  <circle
     style="fill:#4c566a;fill-opacity:1"
     cx="24"
     cy="25"
     r="17"
     id="circle12" />
  <circle
     style="fill:#4c566a;fill-opacity:1"
     cx="41"
     cy="39"
     r="4"
     id="circle14" />
  <circle
     style="fill:#4c566a;fill-opacity:1"
     cx="6"
     cy="39"
     r="2"
     id="circle16" />
  <path
     style="opacity:0.2"
     d="M 24,13 12,19 V 25 L 29.455,30.818 24,33.5 17,30 V 28.667 L 12,27 V 33 L 24,39 36,33 V 27 L 18.545,21.182 24,18.5 31,22 V 23.333 L 36,25 V 19 Z"
     id="path18" />
  <path
     style="fill:#ffffff"
     d="M 24,12 12,18 V 24 L 29.455,29.818 24,32.5 17,29 V 27.667 L 12,26 V 32 L 24,38 36,32 V 26 L 18.545,20.182 24,17.5 31,21 V 22.333 L 36,24 V 18 Z"
     id="path20" />
  <path
     style="opacity:0.2;fill:#ffffff"
     d="M 24.5 2 A 2.5 2.5 0 0 0 22 4.5 A 2.5 2.5 0 0 0 22.053 4.9961 A 2.5 2.5 0 0 1 24.5 3 A 2.5 2.5 0 0 1 26.947 5.0039 A 2.5 2.5 0 0 0 27 4.5 A 2.5 2.5 0 0 0 24.5 2 z"
     id="path22" />
  <path
     style="opacity:0.2;fill:#ffffff"
     d="M 24 8 A 17 17 0 0 0 7 25 A 17 17 0 0 0 7.0215 25.58 A 17 17 0 0 1 24 9 A 17 17 0 0 1 40.979 25.42 A 17 17 0 0 0 41 25 A 17 17 0 0 0 24 8 z"
     id="path24" />
  <path
     style="opacity:0.2;fill:#ffffff"
     d="M 41 35 A 4 4 0 0 0 37 39 A 4 4 0 0 0 37.035 39.494 A 4 4 0 0 1 41 36 A 4 4 0 0 1 44.965 39.506 A 4 4 0 0 0 45 39 A 4 4 0 0 0 41 35 z"
     id="path26" />
  <path
     style="opacity:0.2;fill:#ffffff"
     d="M 6 37 A 2 2 0 0 0 4 39 A 2 2 0 0 0 4.0645 39.504 A 2 2 0 0 1 6 38 A 2 2 0 0 1 7.9355 39.496 A 2 2 0 0 0 8 39 A 2 2 0 0 0 6 37 z"
     id="path28" />
</svg>
