<?xml version="1.0" encoding="UTF-8" standalone="no"?>
<svg
   xmlns:dc="http://purl.org/dc/elements/1.1/"
   xmlns:cc="http://creativecommons.org/ns#"
   xmlns:rdf="http://www.w3.org/1999/02/22-rdf-syntax-ns#"
   xmlns:svg="http://www.w3.org/2000/svg"
   xmlns="http://www.w3.org/2000/svg"
   xmlns:sodipodi="http://sodipodi.sourceforge.net/DTD/sodipodi-0.dtd"
   xmlns:inkscape="http://www.inkscape.org/namespaces/inkscape"
   width="48"
   height="48"
   version="1.1"
   id="svg8"
   sodipodi:docname="allusion.svg"
   inkscape:version="0.92.5 (2060ec1f9f, 2020-04-08)">
  <metadata
     id="metadata14">
    <rdf:RDF>
      <cc:Work
         rdf:about="">
        <dc:format>image/svg+xml</dc:format>
        <dc:type
           rdf:resource="http://purl.org/dc/dcmitype/StillImage" />
      </cc:Work>
    </rdf:RDF>
  </metadata>
  <defs
     id="defs12" />
  <sodipodi:namedview
     pagecolor="#ffffff"
     bordercolor="#666666"
     borderopacity="1"
     objecttolerance="10"
     gridtolerance="10"
     guidetolerance="10"
     inkscape:pageopacity="0"
     inkscape:pageshadow="2"
     inkscape:window-width="783"
     inkscape:window-height="480"
     id="namedview10"
     showgrid="false"
     inkscape:zoom="4.9166667"
     inkscape:cx="24"
     inkscape:cy="24"
     inkscape:window-x="0"
     inkscape:window-y="28"
     inkscape:window-maximized="0"
     inkscape:current-layer="svg8" />
  <path
     style="opacity:0.2"
     d="M 4.1153679,34.818182 C 4.5966874,37.453979 5.1124837,41 9.1009469,41 14.086526,41 16.080758,36.878788 22.063453,36.878788 28.046148,36.878788 29.043263,41 35.025958,41 38.017306,41 44,36.893073 44,32.757576 44,26.575758 36.739139,26.837876 35.325093,22.454545 34.327977,19.363636 37.02019,7 30.040379,7 c -5.982695,0 -7.976926,8.242424 -9.971158,12.363636 -2.473883,5.112444 -8.974042,6.181819 -13.9596215,9.272728 -1.8025399,1.11752 -2.3839927,4.047411 -1.9942316,6.181818 z"
     id="path2" />
  <path
     style="fill:#4c566a;fill-opacity:1"
     d="M 4.1153679,33.818182 C 4.5966874,36.453979 5.1124837,40 9.1009469,40 14.086526,40 16.080758,35.878788 22.063453,35.878788 28.046148,35.878788 29.043263,40 35.025958,40 38.017306,40 44,35.893073 44,31.757576 44,25.575758 36.739139,25.837876 35.325093,21.454545 34.327977,18.363636 37.02019,6 30.040379,6 c -5.982695,0 -7.976926,8.242424 -9.971158,12.363636 -2.473883,5.112444 -8.974042,6.181819 -13.9596215,9.272728 -1.8025399,1.11752 -2.3839927,4.047411 -1.9942316,6.181818 z"
     id="path4" />
  <path
     style="fill:#ffffff;opacity:0.2"
     d="M 30.041016 6 C 24.058321 6 22.062591 14.242069 20.068359 18.363281 C 17.594476 23.475725 11.094955 24.54581 6.109375 27.636719 C 4.5242061 28.619475 3.8859605 31.003239 4.0195312 33.015625 C 4.1217434 31.267489 4.7811955 29.46015 6.109375 28.636719 C 11.094955 25.54581 17.594476 24.475725 20.068359 19.363281 C 22.062591 15.242069 24.058321 7 30.041016 7 C 37.020827 7 34.327103 19.364169 35.324219 22.455078 C 36.694392 26.70241 43.534633 26.605847 43.958984 32.21875 C 43.975123 32.064995 44 31.911857 44 31.757812 C 44 25.575995 36.738265 25.838409 35.324219 21.455078 C 34.327103 18.364169 37.020827 6 30.041016 6 z"
     id="path6" />
</svg>
