<?xml version="1.0" encoding="UTF-8" standalone="no"?>
<svg
   xmlns:dc="http://purl.org/dc/elements/1.1/"
   xmlns:cc="http://creativecommons.org/ns#"
   xmlns:rdf="http://www.w3.org/1999/02/22-rdf-syntax-ns#"
   xmlns:svg="http://www.w3.org/2000/svg"
   xmlns="http://www.w3.org/2000/svg"
   xmlns:sodipodi="http://sodipodi.sourceforge.net/DTD/sodipodi-0.dtd"
   xmlns:inkscape="http://www.inkscape.org/namespaces/inkscape"
   width="48"
   height="48"
   version="1.1"
   id="svg16"
   sodipodi:docname="android-file-transfer.svg"
   inkscape:version="0.92.5 (2060ec1f9f, 2020-04-08)">
  <metadata
     id="metadata22">
    <rdf:RDF>
      <cc:Work
         rdf:about="">
        <dc:format>image/svg+xml</dc:format>
        <dc:type
           rdf:resource="http://purl.org/dc/dcmitype/StillImage" />
      </cc:Work>
    </rdf:RDF>
  </metadata>
  <defs
     id="defs20" />
  <sodipodi:namedview
     pagecolor="#ffffff"
     bordercolor="#666666"
     borderopacity="1"
     objecttolerance="10"
     gridtolerance="10"
     guidetolerance="10"
     inkscape:pageopacity="0"
     inkscape:pageshadow="2"
     inkscape:window-width="783"
     inkscape:window-height="480"
     id="namedview18"
     showgrid="false"
     inkscape:zoom="4.9166667"
     inkscape:cx="24"
     inkscape:cy="24"
     inkscape:window-x="0"
     inkscape:window-y="28"
     inkscape:window-maximized="0"
     inkscape:current-layer="svg16" />
  <rect
     style="opacity:.2"
     width="40"
     height="40"
     x="4"
     y="5"
     rx="3"
     ry="3"
     id="rect2" />
  <rect
     style="fill:#4c566a;fill-opacity:1"
     width="40"
     height="40"
     x="4"
     y="4"
     rx="3"
     ry="3"
     id="rect4" />
  <path
     style="opacity:0.2"
     d="m 16.515625,10.999799 c -2.019854,-0.02869 -2.019854,3.028688 0,3 H 20 23.484375 c 2.019288,-0.03349 2.027259,3.022882 0.0078,3 -0.0026,7e-6 -0.0052,7e-6 -0.0078,0 H 21.507812 21.5 a 1.5,1.5 0 0 0 -1.5,1.5 1.5,1.5 0 0 0 1.5,1.5 1.5,1.5 0 0 0 0.0078,0 h 1.976563 0.0078 c 2.019434,-0.02288 2.011462,3.03349 -0.0078,3 H 20 15.515625 c -2.020635,-0.02869 -2.020635,3.028688 0,3 H 20 23.484375 c 2.020586,-0.02998 2.022529,3.027331 0.002,3 h -0.002 H 20 18.513672 c -2.017708,-0.02869 -2.017708,3.028688 0,3 H 20 23.486328 c 2.020586,-0.02998 2.022529,3.027331 0.002,3 -0.0013,2e-6 -0.0026,2e-6 -0.0039,0 H 20 19.511719 c -2.016177,-0.02869 -2.016177,3.028688 0,3 H 20 23.488281 35 c 1.108,0 2,-0.859306 2,-1.927734 V 19.999799 l -9,-9 H 23.484375 20 Z m -5.001953,6 c -2.0177077,-0.02869 -2.0177077,3.028688 0,3 h 4.972656 c 2.017708,0.02869 2.017708,-3.028688 0,-3 z m 1.986328,12 c -0.828427,0 -1.5,0.671573 -1.5,1.5 0,0.828427 0.671573,1.5 1.5,1.5 0.828427,0 1.5,-0.671573 1.5,-1.5 0,-0.828427 -0.671573,-1.5 -1.5,-1.5 z m 0.0078,6 c -2.011295,-0.02869 -2.011296,3.028688 0,3 h 1.984376 c 2.011296,0.02869 2.011296,-3.028688 0,-3 z"
     id="path6" />
  <path
     style="fill:#ffffff"
     d="m 16.515625,10 c -2.019854,-0.02869 -2.019854,3.028688 0,3 H 20 23.484375 c 2.019288,-0.03349 2.027259,3.022882 0.0078,3 -0.0026,7e-6 -0.0052,7e-6 -0.0078,0 H 21.507812 21.5 a 1.5,1.5 0 0 0 -1.5,1.5 1.5,1.5 0 0 0 1.5,1.5 1.5,1.5 0 0 0 0.0078,0 h 1.976563 0.0078 c 2.019434,-0.02288 2.011462,3.03349 -0.0078,3 H 20 15.515625 c -2.020635,-0.02869 -2.020635,3.028688 0,3 H 20 23.484375 c 2.020586,-0.02998 2.022529,3.027331 0.002,3 h -0.002 H 20 18.513672 c -2.017708,-0.02869 -2.017708,3.028688 0,3 H 20 23.486328 c 2.020586,-0.02998 2.022529,3.027331 0.002,3 -0.0013,2e-6 -0.0026,2e-6 -0.0039,0 H 20 19.511719 c -2.016177,-0.02869 -2.016177,3.028688 0,3 H 20 23.488281 35 c 1.108,0 2,-0.859306 2,-1.927734 V 19 L 28,10 H 23.484375 20 Z m -5.001953,6 c -2.0177077,-0.02869 -2.0177077,3.028688 0,3 h 4.972656 c 2.017708,0.02869 2.017708,-3.028688 0,-3 z M 13.5,28 C 12.671573,28 12,28.671573 12,29.5 12,30.328427 12.671573,31 13.5,31 14.328427,31 15,30.328427 15,29.5 15,28.671573 14.328427,28 13.5,28 Z m 0.0078,6 c -2.011295,-0.02869 -2.011296,3.028688 0,3 h 1.984376 c 2.011296,0.02869 2.011296,-3.028688 0,-3 z"
     id="path8" />
  <path
     style="fill:#ffffff;opacity:.1"
     d="m7 4c-1.662 0-3 1.3379999-3 3v1c0-1.6620001 1.338-3 3-3h34c1.662 0 3 1.3379999 3 3v-1c0-1.6620001-1.338-3-3-3h-34z"
     id="path10" />
  <path
     style="fill:#979797"
     d="m 28,10 v 7 c 0,1.108 0.892,2 2,2 h 7 z"
     id="path12" />
  <path
     style="fill:#979797"
     d="m 27,30 v 3 L 28.146484,31.853515 30.292969,34 H 31 V 33.292968 L 28.853516,31.146484 30,30 Z m 4,1 v 0.707031 L 33.146484,33.853515 32,35 h 3 V 32 L 33.853516,33.146484 31.707031,31 Z"
     id="path14" />
</svg>
