<?xml version="1.0" encoding="UTF-8" standalone="no"?>
<svg
   xmlns:dc="http://purl.org/dc/elements/1.1/"
   xmlns:cc="http://creativecommons.org/ns#"
   xmlns:rdf="http://www.w3.org/1999/02/22-rdf-syntax-ns#"
   xmlns:svg="http://www.w3.org/2000/svg"
   xmlns="http://www.w3.org/2000/svg"
   xmlns:sodipodi="http://sodipodi.sourceforge.net/DTD/sodipodi-0.dtd"
   xmlns:inkscape="http://www.inkscape.org/namespaces/inkscape"
   width="48"
   height="48"
   version="1"
   id="svg26"
   sodipodi:docname="angrysearch.svg"
   inkscape:version="0.92.5 (2060ec1f9f, 2020-04-08)">
  <metadata
     id="metadata32">
    <rdf:RDF>
      <cc:Work
         rdf:about="">
        <dc:format>image/svg+xml</dc:format>
        <dc:type
           rdf:resource="http://purl.org/dc/dcmitype/StillImage" />
      </cc:Work>
    </rdf:RDF>
  </metadata>
  <defs
     id="defs30" />
  <sodipodi:namedview
     pagecolor="#ffffff"
     bordercolor="#666666"
     borderopacity="1"
     objecttolerance="10"
     gridtolerance="10"
     guidetolerance="10"
     inkscape:pageopacity="0"
     inkscape:pageshadow="2"
     inkscape:window-width="783"
     inkscape:window-height="480"
     id="namedview28"
     showgrid="false"
     inkscape:zoom="3.4766083"
     inkscape:cx="38.425072"
     inkscape:cy="34.652227"
     inkscape:window-x="0"
     inkscape:window-y="28"
     inkscape:window-maximized="0"
     inkscape:current-layer="svg26" />
  <rect
     fill="#3f3f3f"
     width="40"
     height="40"
     x="4"
     y="4"
     rx="2"
     ry="2"
     id="rect2"
     style="fill:#4c566a;fill-opacity:1" />
  <path
     fill="#fff"
     opacity=".1"
     d="m6 4c-1.108 0-2 0.892-2 2v1c0-1.108 0.892-2 2-2h36c1.108 0 2 0.892 2 2v-1c0-1.108-0.892-2-2-2h-36z"
     id="path4" />
  <path
     opacity=".2"
     d="m6 45c-1.108 0-2-0.892-2-2v-1c0 1.108 0.892 2 2 2h36c1.108 0 2-0.892 2-2v1c0 1.108-0.892 2-2 2h-36z"
     id="path6" />
  <rect
     opacity=".2"
     width="8"
     height="8"
     x="8"
     y="33"
     rx="1.854"
     ry="1.74"
     id="rect8" />
  <rect
     opacity=".2"
     width="8"
     height="8"
     x="8"
     y="21"
     rx="1.854"
     ry="1.74"
     id="rect10" />
  <rect
     opacity=".2"
     width="8"
     height="8"
     x="20"
     y="33"
     rx="1.854"
     ry="1.74"
     id="rect12" />
  <rect
     opacity=".2"
     width="8"
     height="8"
     x="20"
     y="21"
     rx="1.854"
     ry="1.74"
     id="rect14" />
  <g
     fill="#f44336"
     id="g24"
     style="fill:#ffffff;fill-opacity:1">
    <rect
       width="8"
       height="8"
       x="8"
       y="32"
       rx="1.854"
       ry="1.74"
       id="rect16"
       style="fill:#ffffff;fill-opacity:1" />
    <rect
       width="8"
       height="8"
       x="8"
       y="20"
       rx="1.854"
       ry="1.74"
       id="rect18"
       style="fill:#ffffff;fill-opacity:1" />
    <rect
       width="8"
       height="8"
       x="20"
       y="32"
       rx="1.854"
       ry="1.74"
       id="rect20"
       style="fill:#ffffff;fill-opacity:1" />
    <rect
       width="8"
       height="8"
       x="20"
       y="20"
       rx="1.854"
       ry="1.74"
       id="rect22"
       style="fill:#ffffff;fill-opacity:1" />
  </g>
</svg>
