<?xml version="1.0" encoding="UTF-8" standalone="no"?>
<svg
   xmlns:dc="http://purl.org/dc/elements/1.1/"
   xmlns:cc="http://creativecommons.org/ns#"
   xmlns:rdf="http://www.w3.org/1999/02/22-rdf-syntax-ns#"
   xmlns:svg="http://www.w3.org/2000/svg"
   xmlns="http://www.w3.org/2000/svg"
   xmlns:sodipodi="http://sodipodi.sourceforge.net/DTD/sodipodi-0.dtd"
   xmlns:inkscape="http://www.inkscape.org/namespaces/inkscape"
   width="48"
   height="48"
   version="1"
   id="svg12"
   sodipodi:docname="anjuta.svg"
   inkscape:version="0.92.5 (2060ec1f9f, 2020-04-08)">
  <metadata
     id="metadata18">
    <rdf:RDF>
      <cc:Work
         rdf:about="">
        <dc:format>image/svg+xml</dc:format>
        <dc:type
           rdf:resource="http://purl.org/dc/dcmitype/StillImage" />
      </cc:Work>
    </rdf:RDF>
  </metadata>
  <defs
     id="defs16" />
  <sodipodi:namedview
     pagecolor="#ffffff"
     bordercolor="#666666"
     borderopacity="1"
     objecttolerance="10"
     gridtolerance="10"
     guidetolerance="10"
     inkscape:pageopacity="0"
     inkscape:pageshadow="2"
     inkscape:window-width="783"
     inkscape:window-height="480"
     id="namedview14"
     showgrid="false"
     inkscape:zoom="4.9166667"
     inkscape:cx="24"
     inkscape:cy="24"
     inkscape:window-x="0"
     inkscape:window-y="28"
     inkscape:window-maximized="0"
     inkscape:current-layer="svg12" />
  <rect
     fill="#964fa9"
     width="40"
     height="40"
     x="4"
     y="4"
     rx="20"
     ry="20"
     id="rect2"
     style="fill:#4c566a;fill-opacity:1" />
  <path
     fill="#fff"
     opacity=".2"
     d="m24 4c-11.08 0-20 8.92-20 20 0 0.168-0.004 0.333 0 0.5 0.2644-10.846 9.088-19.5 20-19.5s19.736 8.654 20 19.5c0.004-0.167 0-0.332 0-0.5 0-11.08-8.92-20-20-20z"
     id="path4" />
  <path
     opacity=".2"
     d="m4.0117 24.5c-0.0041 0.167-0.0117 0.332-0.0117 0.5 0 11.08 8.92 20 20 20s20-8.92 20-20c0-0.168-0.008-0.333-0.012-0.5-0.264 10.846-9.076 19.5-19.988 19.5s-19.724-8.654-19.988-19.5z"
     id="path6" />
  <path
     opacity=".2"
     d="m10 23c-0.65811-0.19683-3 1-3 1 1.1842-4.3852 8-8 8-8-0.72302-0.26702-3 0-3 0 5.3283-5.1824 12-3 12-3 0.19623-1.1314 3-3 3-3-0.32982 0.33034 0 2 0 2 0.32906-0.59886 1.1132-1.07 1.1132-1.07-0.59169 1.3946 0 4.3852 0 4.3852 1.7094 1.7295 3.6166 7.7145 3.6166 7.7145l0.72527 1.0635c0.92077 1.3313 0.58266 2.9283-0.32981 3.4242-2.5571 1.5301-3.7494-1.0286-3.7494-1.0286-2.829-0.334-5.376-3.49-5.376-3.49-3.811 1.994-0.561 8.104 1.086 10.264 2.115 2.77-0.086 6.736-0.086 6.736s-6.632 0-12.336-6.143c-2.664-2.857-3.664-6.857-1.664-10.857z"
     id="path8" />
  <path
     style="fill:#ffffff"
     d="m10 22c-0.65811-0.19683-3 1-3 1 1.1842-4.3852 8-8 8-8-0.72302-0.26702-3 0-3 0 5.3283-5.1824 12-3 12-3 0.19623-1.1314 3-3 3-3-0.33 0.3303 0 2 0 2 0.32906-0.59886 1.1132-1.07 1.1132-1.07-0.59169 1.3946 0 4.3852 0 4.3852 1.7094 1.7295 3.6166 7.7145 3.6166 7.7145l0.72527 1.0635c0.92077 1.3313 0.58266 2.9283-0.32981 3.4242-2.5571 1.5301-3.7494-1.0286-3.7494-1.0286-2.829-0.334-5.376-3.49-5.376-3.49-3.811 1.994-0.561 8.104 1.086 10.264 2.115 2.77-0.086 6.736-0.086 6.736s-6.632 0-12.336-6.143c-2.664-2.857-3.664-6.857-1.664-10.857z"
     id="path10" />
</svg>
