<?xml version="1.0" encoding="UTF-8" standalone="no"?>
<svg
   xmlns:dc="http://purl.org/dc/elements/1.1/"
   xmlns:cc="http://creativecommons.org/ns#"
   xmlns:rdf="http://www.w3.org/1999/02/22-rdf-syntax-ns#"
   xmlns:svg="http://www.w3.org/2000/svg"
   xmlns="http://www.w3.org/2000/svg"
   xmlns:sodipodi="http://sodipodi.sourceforge.net/DTD/sodipodi-0.dtd"
   xmlns:inkscape="http://www.inkscape.org/namespaces/inkscape"
   width="48"
   height="48"
   version="1.1"
   id="svg20"
   sodipodi:docname="aoi.svg"
   inkscape:version="0.92.5 (2060ec1f9f, 2020-04-08)">
  <metadata
     id="metadata26">
    <rdf:RDF>
      <cc:Work
         rdf:about="">
        <dc:format>image/svg+xml</dc:format>
        <dc:type
           rdf:resource="http://purl.org/dc/dcmitype/StillImage" />
      </cc:Work>
    </rdf:RDF>
  </metadata>
  <defs
     id="defs24" />
  <sodipodi:namedview
     pagecolor="#ffffff"
     bordercolor="#666666"
     borderopacity="1"
     objecttolerance="10"
     gridtolerance="10"
     guidetolerance="10"
     inkscape:pageopacity="0"
     inkscape:pageshadow="2"
     inkscape:window-width="783"
     inkscape:window-height="480"
     id="namedview22"
     showgrid="false"
     inkscape:zoom="4.9166667"
     inkscape:cx="24"
     inkscape:cy="24"
     inkscape:window-x="0"
     inkscape:window-y="28"
     inkscape:window-maximized="0"
     inkscape:current-layer="svg20" />
  <rect
     style="opacity:0.2"
     width="24"
     height="24"
     x="20"
     y="7"
     ry="4"
     id="rect2" />
  <rect
     style="fill:#4c566a;fill-opacity:1"
     width="24"
     height="24"
     x="20"
     y="6"
     ry="4"
     id="rect4" />
  <path
     style="opacity:0.2;fill:#ffffff"
     d="M 24 6 C 21.784 6 20 7.784 20 10 L 20 11 C 20 8.784 21.784 7 24 7 L 40 7 C 42.216 7 44 8.784 44 11 L 44 10 C 44 7.784 42.216 6 40 6 L 24 6 z"
     id="path6" />
  <circle
     style="opacity:0.2"
     cx="26"
     cy="31"
     r="12"
     id="circle8" />
  <circle
     style="fill:#5f697d;fill-opacity:1"
     cx="26"
     cy="30"
     r="12"
     id="circle10" />
  <path
     style="opacity:0.2;fill:#ffffff"
     d="M 26 18 A 12 12 0 0 0 14 30 A 12 12 0 0 0 14.019531 30.59375 A 12 12 0 0 1 26 19 A 12 12 0 0 1 37.980469 30.40625 A 12 12 0 0 0 38 30 A 12 12 0 0 0 26 18 z"
     id="path12" />
  <path
     style="opacity:0.2"
     d="m 16.023439,6.9999997 c -0.69754,-0.00799 -1.348852,0.3480135 -1.71875,0.9394531 L 4.3046875,23.939453 c -0.1111048,0.178059 -0.193493,0.372495 -0.2441406,0.576172 0,0 -0.1597142,0.760325 -0.00195,1.517578 0.157761,0.757253 0.6233811,1.692138 1.4882812,2.460938 C 7.2766752,30.031741 10.257576,31 16.000001,31 c 5.742424,0 8.723325,-0.968259 10.453125,-2.505859 0.8649,-0.7688 1.33052,-1.703685 1.488281,-2.460938 0.157761,-0.757253 -0.002,-1.517578 -0.002,-1.517578 -0.05065,-0.203677 -0.133036,-0.398113 -0.244141,-0.576172 l -10,-16.0000002 C 17.334219,7.3621553 16.704292,7.008179 16.023439,6.9999997 Z"
     id="path14" />
  <path
     style="fill:#737d91;fill-opacity:1"
     d="m 16.023438,6 c -0.69754,-0.00799 -1.348852,0.3480135 -1.71875,0.9394531 L 4.3046875,22.939453 c -0.1111048,0.178059 -0.193493,0.372495 -0.2441406,0.576172 0,0 -0.1597142,0.760325 -0.00195,1.517578 0.157761,0.757253 0.6233811,1.692138 1.4882812,2.460938 C 7.2766752,29.031741 10.257576,30 16,30 c 5.742424,0 8.723325,-0.968259 10.453125,-2.505859 0.8649,-0.7688 1.33052,-1.703685 1.488281,-2.460938 0.157761,-0.757253 -0.002,-1.517578 -0.002,-1.517578 -0.05065,-0.203677 -0.133036,-0.398113 -0.244141,-0.576172 l -10,-15.9999999 C 17.334218,6.3621556 16.704291,6.0081793 16.023438,6 Z"
     id="path16" />
  <path
     style="opacity:0.2;fill:#ffffff"
     d="M 16.023438 6 C 15.325897 5.99201 14.674585 6.3480135 14.304688 6.9394531 L 4.3046875 22.939453 C 4.1935827 23.117512 4.1111945 23.311948 4.0605469 23.515625 C 4.0605469 23.515625 3.9476914 24.113088 4.0273438 24.773438 C 4.0413495 24.676529 4.0605469 24.515625 4.0605469 24.515625 C 4.1111945 24.311948 4.1935827 24.117512 4.3046875 23.939453 L 14.304688 7.9394531 C 14.674585 7.3480135 15.325897 6.99201 16.023438 7 C 16.70429 7.0081793 17.334265 7.3621556 17.695312 7.9394531 L 27.695312 23.939453 C 27.806418 24.117512 27.888803 24.311948 27.939453 24.515625 C 27.939453 24.515625 27.958645 24.676529 27.972656 24.773438 C 28.052298 24.113088 27.939453 23.515625 27.939453 23.515625 C 27.888803 23.311948 27.806418 23.117512 27.695312 22.939453 L 17.695312 6.9394531 C 17.334265 6.3621556 16.70429 6.0081793 16.023438 6 z"
     id="path18" />
</svg>
