<?xml version="1.0" encoding="UTF-8" standalone="no"?>
<svg
   xmlns:dc="http://purl.org/dc/elements/1.1/"
   xmlns:cc="http://creativecommons.org/ns#"
   xmlns:rdf="http://www.w3.org/1999/02/22-rdf-syntax-ns#"
   xmlns:svg="http://www.w3.org/2000/svg"
   xmlns="http://www.w3.org/2000/svg"
   xmlns:sodipodi="http://sodipodi.sourceforge.net/DTD/sodipodi-0.dtd"
   xmlns:inkscape="http://www.inkscape.org/namespaces/inkscape"
   width="48"
   height="48"
   x="0"
   y="0"
   version="1.1"
   id="svg38"
   sodipodi:docname="applications-engineering.svg"
   inkscape:version="0.92.5 (2060ec1f9f, 2020-04-08)">
  <metadata
     id="metadata44">
    <rdf:RDF>
      <cc:Work
         rdf:about="">
        <dc:format>image/svg+xml</dc:format>
        <dc:type
           rdf:resource="http://purl.org/dc/dcmitype/StillImage" />
      </cc:Work>
    </rdf:RDF>
  </metadata>
  <defs
     id="defs42" />
  <sodipodi:namedview
     pagecolor="#ffffff"
     bordercolor="#666666"
     borderopacity="1"
     objecttolerance="10"
     gridtolerance="10"
     guidetolerance="10"
     inkscape:pageopacity="0"
     inkscape:pageshadow="2"
     inkscape:window-width="765"
     inkscape:window-height="480"
     id="namedview40"
     showgrid="false"
     inkscape:zoom="3.4766083"
     inkscape:cx="10.748074"
     inkscape:cy="27.034089"
     inkscape:window-x="0"
     inkscape:window-y="28"
     inkscape:window-maximized="0"
     inkscape:current-layer="svg38" />
  <path
     fill="none"
     stroke="#7d7d7d"
     stroke-width="8"
     d="m27 10-14 14"
     id="path2"
     style="stroke:#4c566a;stroke-opacity:1" />
  <rect
     fill="#7d7d7d"
     width="12"
     height="17"
     x="-19"
     y="24"
     ry="0"
     transform="scale(-1,1)"
     id="rect4"
     style="fill:#4c566a;fill-opacity:1" />
  <rect
     opacity=".2"
     width="16"
     height="16"
     x="-21"
     y="17"
     ry="8"
     transform="scale(-1,1)"
     id="rect6" />
  <rect
     fill="#909090"
     width="16"
     height="4"
     x="-21"
     y="38"
     ry="2"
     transform="scale(-1,1)"
     id="rect8" />
  <path
     fill="#fff"
     opacity=".1"
     d="m19 38c1.108 0 2 0.892 2 2 0 0.17383-0.029 0.33941-0.0703 0.5-0.222-0.863-0.996-1.5-1.93-1.5h-12c-0.93417 0-1.7077 0.63701-1.9297 1.5-0.0413-0.16059-0.0703-0.32617-0.0703-0.5 0-1.108 0.892-2 2-2h12z"
     id="path10" />
  <path
     fill="#4f4f4f"
     d="m21 40c2 0 2 2 2 2v2h-20v-2c0-2 2-2 2-2z"
     id="path12"
     style="fill:#ffffff;fill-opacity:1" />
  <rect
     fill="#909090"
     width="16"
     height="16"
     x="-21"
     y="16"
     ry="8"
     transform="scale(-1,1)"
     id="rect14"
     style="fill:#ffffff;fill-opacity:1" />
  <rect
     fill="#4f4f4f"
     width="12"
     height="12"
     x="-19"
     y="18"
     ry="6"
     transform="scale(-1,1)"
     id="rect16" />
  <path
     fill="none"
     stroke="#7d7d7d"
     stroke-width="6"
     d="m27 10 10 10"
     id="path18"
     style="stroke:#4c566a;stroke-opacity:1" />
  <rect
     opacity=".2"
     width="12"
     height="12"
     x="-33"
     y="5"
     ry="6"
     transform="scale(-1,1)"
     id="rect20" />
  <rect
     fill="#909090"
     width="12"
     height="12"
     x="-33"
     y="4"
     ry="6"
     transform="scale(-1,1)"
     id="rect22"
     style="fill:#f9f9f9;fill-opacity:1" />
  <path
     fill="none"
     stroke="#4f4f4f"
     stroke-linecap="round"
     stroke-linejoin="round"
     stroke-width="2"
     d="m39 28-4-2v-4l4-4h4l2 4"
     id="path24"
     style="fill:none;fill-opacity:1;stroke:#ffffff;stroke-opacity:1" />
  <rect
     fill="#4f4f4f"
     width="8"
     height="8"
     x="-31"
     y="6"
     ry="4"
     transform="scale(-1,1)"
     id="rect26" />
  <rect
     fill="#fff"
     opacity=".1"
     width="8"
     height="8"
     x="-17"
     y="20"
     ry="4"
     transform="scale(-1,1)"
     id="rect28"
     style="fill:#4c566a;fill-opacity:1;opacity:1" />
  <rect
     fill="#fff"
     opacity=".1"
     width="4"
     height="4"
     x="-29"
     y="8"
     ry="2"
     transform="scale(-1,1)"
     id="rect30"
     style="fill:#4c566a;fill-opacity:1;opacity:1" />
  <path
     fill="#fff"
     opacity=".1"
     d="m13 16c4.432 0 8 3.568 8 8 0 0.16884-0.0152 0.33381-0.0254 0.5-0.258-4.196-3.712-7.5-7.975-7.5-4.2632 0-7.7169 3.304-7.9746 7.5-0.0102-0.166-0.0254-0.331-0.0254-0.5 0-4.432 3.568-8 8-8z"
     id="path32" />
  <path
     fill="#fff"
     opacity=".2"
     d="m27 4c3.324 0 6 2.676 6 6 0 0.16884-0.0119 0.33477-0.0254 0.5-0.253-3.0877-2.82-5.5-5.975-5.5-3.1552 0-5.7215 2.4123-5.9746 5.5-0.0135-0.16523-0.0254-0.33116-0.0254-0.5 0-3.324 2.676-6 6-6z"
     id="path34" />
  <path
     fill="#fff"
     opacity=".1"
     d="m21 40c2 0 2 2 2 2v1s0-2-2-2h-16s-2 0-2 2v-1c0-2 2-2 2-2h16z"
     id="path36" />
</svg>
