<?xml version="1.0" encoding="UTF-8" standalone="no"?>
<svg
   xmlns:dc="http://purl.org/dc/elements/1.1/"
   xmlns:cc="http://creativecommons.org/ns#"
   xmlns:rdf="http://www.w3.org/1999/02/22-rdf-syntax-ns#"
   xmlns:svg="http://www.w3.org/2000/svg"
   xmlns="http://www.w3.org/2000/svg"
   xmlns:sodipodi="http://sodipodi.sourceforge.net/DTD/sodipodi-0.dtd"
   xmlns:inkscape="http://www.inkscape.org/namespaces/inkscape"
   width="48"
   height="48"
   version="1.1"
   id="svg18"
   sodipodi:docname="applications-education.svg"
   inkscape:version="0.92.5 (2060ec1f9f, 2020-04-08)">
  <metadata
     id="metadata24">
    <rdf:RDF>
      <cc:Work
         rdf:about="">
        <dc:format>image/svg+xml</dc:format>
        <dc:type
           rdf:resource="http://purl.org/dc/dcmitype/StillImage" />
      </cc:Work>
    </rdf:RDF>
  </metadata>
  <defs
     id="defs22" />
  <sodipodi:namedview
     pagecolor="#ffffff"
     bordercolor="#666666"
     borderopacity="1"
     objecttolerance="10"
     gridtolerance="10"
     guidetolerance="10"
     inkscape:pageopacity="0"
     inkscape:pageshadow="2"
     inkscape:window-width="783"
     inkscape:window-height="480"
     id="namedview20"
     showgrid="false"
     inkscape:zoom="4.9166667"
     inkscape:cx="24"
     inkscape:cy="24"
     inkscape:window-x="0"
     inkscape:window-y="28"
     inkscape:window-maximized="0"
     inkscape:current-layer="svg18" />
  <path
     style="opacity:0.2"
     d="m 10.00029,21 h 28 v 11 c 0,0 -2,6 -14,6 -12,0 -14,-6 -14,-6 z"
     id="path2" />
  <path
     style="fill:#4c566a;fill-opacity:1"
     d="m 10.00029,20 h 28 v 11 c 0,0 -2,6 -14,6 -12,0 -14,-6 -14,-6 z"
     id="path4" />
  <path
     style="opacity:0.2"
     d="m 23.529933,10.013277 a 4.2078232,2.1039266 0 0 0 -2.50338,0.601555 L 5.2304101,18.514119 a 4.2078232,2.1039266 0 0 0 0,2.973077 l 15.7961429,7.897355 a 4.2078232,2.1039266 0 0 0 5.947653,0 l 15.796141,-7.897355 a 4.2078232,2.1039266 0 0 0 0,-2.973077 L 26.974206,10.614832 a 4.2078232,2.1039266 0 0 0 -3.444273,-0.601555 z"
     id="path6" />
  <path
     style="fill:#4c566a;fill-opacity:1"
     d="m 23.529933,9.0132767 a 4.2078232,2.1039266 0 0 0 -2.50338,0.601555 L 5.2304101,17.514119 a 4.2078232,2.1039266 0 0 0 0,2.973077 l 15.7961429,7.897355 a 4.2078232,2.1039266 0 0 0 5.947653,0 l 15.796141,-7.897355 a 4.2078232,2.1039266 0 0 0 0,-2.973077 L 26.974206,9.6148317 a 4.2078232,2.1039266 0 0 0 -3.444273,-0.601555 z"
     id="path8" />
  <path
     style="opacity:0.2"
     d="M 23.851852,18.011719 9.1389618,20.232422 c -1.3851093,0.114452 -2.3121753,0.937497 -2.7167969,1.691406 -0.4096318,0.763244 -0.421875,1.50586 -0.421875,1.50586 a 1.0001,1.0001 0 0 0 0,0.02539 v 6.59961 a 0.7501307,0.83341666 0 0 0 -0.4863281,0.615234 l -1.5,8.333984 A 0.7501307,0.83341666 0 0 0 4.7502899,40 h 4.5 A 0.7501307,0.83341666 0 0 0 9.986618,39.003906 l -1.5,-8.333984 A 0.7501307,0.83341666 0 0 0 8.0002899,30.054688 v -6.574219 c 0,0 0.015196,-0.297562 0.1835938,-0.611328 0.1683976,-0.313766 0.3533606,-0.591698 1.1445312,-0.646485 a 1.0001,1.0001 0 0 0 0.080078,-0.0098 l 14.7402351,-2.22461 a 1,1 0 0 0 0.839843,-1.136719 1,1 0 0 0 -1.136719,-0.839843 z"
     id="path10" />
  <path
     style="fill:none;stroke:#ffffff;stroke-width:2;stroke-linecap:round;stroke-linejoin:round;stroke-opacity:1"
     d="M 24.00029,18 9.2588147,20.224321 C 7.0538854,20.377006 7.0002899,22.454685 7.0002899,22.454685 V 31"
     id="path12" />
  <path
     style="fill:#fffdfb;fill-opacity:1"
     d="M 6.2502344,29 A 0.7501307,0.83341666 0 0 0 5.5148281,29.670574 L 4.0147168,38.003907 A 0.7501307,0.83341666 0 0 0 4.7501229,39 H 9.2504576 A 0.7501307,0.83341666 0 0 0 9.9858631,38.003907 L 8.4857521,29.670574 A 0.7501307,0.83341666 0 0 0 7.7503457,29 Z"
     id="path14" />
  <path
     style="opacity:0.1;fill:#ffffff"
     d="m 23.529587,9.0136717 a 4.2078232,2.1039266 0 0 0 -2.503906,0.601562 L 5.2307587,17.513672 A 4.2078232,2.1039266 0 0 0 4.1311493,19.5 4.2078232,2.1039266 0 0 1 5.2307587,18.513672 L 21.025681,10.615234 a 4.2078232,2.1039266 0 0 1 2.503906,-0.601562 4.2078232,2.1039266 0 0 1 3.445312,0.601562 l 15.794922,7.898438 A 4.2078232,2.1039266 0 0 1 43.879196,19.5 4.2078232,2.1039266 0 0 0 42.769821,17.513672 L 26.974899,9.6152337 a 4.2078232,2.1039266 0 0 0 -3.445312,-0.601562 z"
     id="path16" />
</svg>
