<?xml version="1.0" encoding="UTF-8" standalone="no"?>
<svg
   xmlns:dc="http://purl.org/dc/elements/1.1/"
   xmlns:cc="http://creativecommons.org/ns#"
   xmlns:rdf="http://www.w3.org/1999/02/22-rdf-syntax-ns#"
   xmlns:svg="http://www.w3.org/2000/svg"
   xmlns="http://www.w3.org/2000/svg"
   xmlns:sodipodi="http://sodipodi.sourceforge.net/DTD/sodipodi-0.dtd"
   xmlns:inkscape="http://www.inkscape.org/namespaces/inkscape"
   width="48"
   height="48"
   version="1.1"
   id="svg18"
   sodipodi:docname="applications-other.svg"
   inkscape:version="0.92.5 (2060ec1f9f, 2020-04-08)">
  <metadata
     id="metadata24">
    <rdf:RDF>
      <cc:Work
         rdf:about="">
        <dc:format>image/svg+xml</dc:format>
        <dc:type
           rdf:resource="http://purl.org/dc/dcmitype/StillImage" />
      </cc:Work>
    </rdf:RDF>
  </metadata>
  <defs
     id="defs22" />
  <sodipodi:namedview
     pagecolor="#ffffff"
     bordercolor="#666666"
     borderopacity="1"
     objecttolerance="10"
     gridtolerance="10"
     guidetolerance="10"
     inkscape:pageopacity="0"
     inkscape:pageshadow="2"
     inkscape:window-width="640"
     inkscape:window-height="480"
     id="namedview20"
     showgrid="false"
     inkscape:zoom="4.9166667"
     inkscape:cx="24"
     inkscape:cy="24"
     inkscape:current-layer="svg18" />
  <circle
     style="opacity:0.2"
     cx="24"
     cy="25"
     r="20"
     id="circle2" />
  <circle
     style="fill:#4c566a;fill-opacity:1"
     cx="24"
     cy="24"
     r="20"
     id="circle4" />
  <path
     style="opacity:0.2"
     d="m 12,21 a 4,4 0 0 0 -4,4 4,4 0 0 0 4,4 4,4 0 0 0 4,-4 4,4 0 0 0 -4,-4 z m 12,0 a 4,4 0 0 0 -4,4 4,4 0 0 0 4,4 4,4 0 0 0 4,-4 4,4 0 0 0 -4,-4 z m 12,0 a 4,4 0 0 0 -4,4 4,4 0 0 0 4,4 4,4 0 0 0 4,-4 4,4 0 0 0 -4,-4 z"
     id="path6" />
  <path
     style="opacity:0.1;fill:#ffffff"
     d="M 24,4 A 20,20 0 0 0 4,24 20,20 0 0 0 4.0215,24.582 20,20 0 0 1 24,5 20,20 0 0 1 43.979,24.418 20,20 0 0 0 44,24 20,20 0 0 0 24,4 Z"
     id="path8" />
  <circle
     style="fill:#ffffff;fill-opacity:0.99115044"
     cx="24"
     cy="24"
     r="4"
     id="circle10" />
  <circle
     style="fill:#ffffff;fill-opacity:0.99115044"
     cx="36"
     cy="24"
     r="4"
     id="circle12" />
  <circle
     style="fill:#ffffff;fill-opacity:0.99115044"
     cx="12"
     cy="24"
     r="4"
     id="circle14" />
  <path
     style="opacity:0.2;fill:#ffffff"
     d="M 12 20 A 4 4 0 0 0 8 24 A 4 4 0 0 0 8.0351562 24.505859 A 4 4 0 0 1 12 21 A 4 4 0 0 1 15.964844 24.494141 A 4 4 0 0 0 16 24 A 4 4 0 0 0 12 20 z M 24 20 A 4 4 0 0 0 20 24 A 4 4 0 0 0 20.035156 24.505859 A 4 4 0 0 1 24 21 A 4 4 0 0 1 27.964844 24.494141 A 4 4 0 0 0 28 24 A 4 4 0 0 0 24 20 z M 36 20 A 4 4 0 0 0 32 24 A 4 4 0 0 0 32.035156 24.505859 A 4 4 0 0 1 36 21 A 4 4 0 0 1 39.964844 24.494141 A 4 4 0 0 0 40 24 A 4 4 0 0 0 36 20 z"
     id="path16" />
</svg>
