<?xml version="1.0" encoding="UTF-8" standalone="no"?>
<svg
   xmlns:dc="http://purl.org/dc/elements/1.1/"
   xmlns:cc="http://creativecommons.org/ns#"
   xmlns:rdf="http://www.w3.org/1999/02/22-rdf-syntax-ns#"
   xmlns:svg="http://www.w3.org/2000/svg"
   xmlns="http://www.w3.org/2000/svg"
   xmlns:sodipodi="http://sodipodi.sourceforge.net/DTD/sodipodi-0.dtd"
   xmlns:inkscape="http://www.inkscape.org/namespaces/inkscape"
   width="48"
   height="48"
   version="1.1"
   id="svg30"
   sodipodi:docname="applications-electronics.svg"
   inkscape:version="0.92.5 (2060ec1f9f, 2020-04-08)">
  <metadata
     id="metadata36">
    <rdf:RDF>
      <cc:Work
         rdf:about="">
        <dc:format>image/svg+xml</dc:format>
        <dc:type
           rdf:resource="http://purl.org/dc/dcmitype/StillImage" />
      </cc:Work>
    </rdf:RDF>
  </metadata>
  <defs
     id="defs34" />
  <sodipodi:namedview
     pagecolor="#ffffff"
     bordercolor="#666666"
     borderopacity="1"
     objecttolerance="10"
     gridtolerance="10"
     guidetolerance="10"
     inkscape:pageopacity="0"
     inkscape:pageshadow="2"
     inkscape:window-width="783"
     inkscape:window-height="480"
     id="namedview32"
     showgrid="false"
     inkscape:zoom="4.9166667"
     inkscape:cx="24"
     inkscape:cy="24"
     inkscape:window-x="0"
     inkscape:window-y="28"
     inkscape:window-maximized="0"
     inkscape:current-layer="svg30" />
  <rect
     style="opacity:0.2"
     width="40"
     height="40"
     x="4"
     y="5"
     rx="3"
     ry="3"
     id="rect2" />
  <rect
     style="fill:#4c566a;fill-opacity:1"
     width="40"
     height="40"
     x="4"
     y="4"
     rx="3"
     ry="3"
     id="rect4" />
  <rect
     style="opacity:0.1"
     width="3"
     height="1"
     x="17"
     y="-39"
     transform="scale(1,-1)"
     id="rect6" />
  <rect
     style="fill:#737d91;fill-opacity:1"
     width="3"
     height="13"
     x="17"
     y="-38"
     transform="scale(1,-1)"
     id="rect8" />
  <rect
     style="opacity:0.1"
     width="3"
     height="1"
     x="31"
     y="38"
     id="rect10" />
  <rect
     style="fill:#737d91;fill-opacity:1"
     width="3"
     height="28"
     x="31"
     y="10"
     id="rect12" />
  <rect
     style="opacity:0.1"
     width="7"
     height="1"
     x="29"
     y="31"
     id="rect14" />
  <rect
     style="fill:#ffffff;fill-opacity:1"
     width="7"
     height="14"
     x="29"
     y="17"
     id="rect16" />
  <rect
     style="fill:#737d91;fill-opacity:1"
     width="3"
     height="13"
     x="17"
     y="10"
     id="rect18" />
  <rect
     style="opacity:0.1"
     width="1"
     height="13"
     x="23"
     y="-25"
     transform="rotate(90)"
     id="rect20" />
  <rect
     style="fill:#ffffff;fill-opacity:1"
     width="3"
     height="13"
     x="20"
     y="-25"
     transform="rotate(90)"
     id="rect22" />
  <rect
     style="opacity:0.1"
     width="1"
     height="13"
     x="-29"
     y="-25"
     transform="matrix(0,-1,-1,0,0,0)"
     id="rect24" />
  <rect
     style="fill:#ffffff;fill-opacity:1"
     width="3"
     height="13"
     x="-28"
     y="-25"
     transform="matrix(0,-1,-1,0,0,0)"
     id="rect26" />
  <path
     style="fill:#ffffff;opacity:0.2"
     d="M 7 4 C 5.338 4 4 5.338 4 7 L 4 8 C 4 6.338 5.338 5 7 5 L 41 5 C 42.662 5 44 6.338 44 8 L 44 7 C 44 5.338 42.662 4 41 4 L 7 4 z"
     id="path28" />
</svg>
