<?xml version="1.0" encoding="UTF-8" standalone="no"?>
<svg
   xmlns:dc="http://purl.org/dc/elements/1.1/"
   xmlns:cc="http://creativecommons.org/ns#"
   xmlns:rdf="http://www.w3.org/1999/02/22-rdf-syntax-ns#"
   xmlns:svg="http://www.w3.org/2000/svg"
   xmlns="http://www.w3.org/2000/svg"
   xmlns:sodipodi="http://sodipodi.sourceforge.net/DTD/sodipodi-0.dtd"
   xmlns:inkscape="http://www.inkscape.org/namespaces/inkscape"
   width="48"
   height="48"
   version="1"
   id="svg12"
   sodipodi:docname="spectacle.svg"
   inkscape:version="0.92.5 (2060ec1f9f, 2020-04-08)">
  <metadata
     id="metadata18">
    <rdf:RDF>
      <cc:Work
         rdf:about="">
        <dc:format>image/svg+xml</dc:format>
        <dc:type
           rdf:resource="http://purl.org/dc/dcmitype/StillImage" />
      </cc:Work>
    </rdf:RDF>
  </metadata>
  <defs
     id="defs16" />
  <sodipodi:namedview
     pagecolor="#ffffff"
     bordercolor="#666666"
     borderopacity="1"
     objecttolerance="10"
     gridtolerance="10"
     guidetolerance="10"
     inkscape:pageopacity="0"
     inkscape:pageshadow="2"
     inkscape:window-width="640"
     inkscape:window-height="480"
     id="namedview14"
     showgrid="false"
     inkscape:zoom="4.9166667"
     inkscape:cx="24"
     inkscape:cy="24"
     inkscape:current-layer="svg12" />
  <circle
     style="opacity:0.2;stroke-width:1.07937169"
     cx="24"
     cy="25.039686"
     r="21.587433"
     id="circle2" />
  <circle
     style="fill:#4c566a;fill-opacity:1;stroke-width:1.07937169"
     cx="24"
     cy="23.960314"
     r="21.587433"
     id="circle4" />
  <path
     style="opacity:0.2;stroke-width:1.19326997"
     d="m 24,10.777396 c -3.331438,0.004 -6.557259,1.169292 -9.121989,3.295476 l 4.987495,8.637224 6.744771,-11.683325 C 25.749643,10.863987 24.875889,10.780511 24,10.777396 Z M 28.985165,11.690993 24,20.323555 h 13.482552 c -1.415981,-3.99286 -4.527371,-7.153745 -8.497387,-8.632562 z m -15.866762,4.106526 c -2.216625,2.591475 -3.4356206,5.88896 -3.4376426,9.299116 8.214e-4,0.79978 0.068653,1.598085 0.2027628,2.38654 h 9.9819828 z m 15.016091,6.912577 6.747103,11.685655 c 2.216625,-2.591475 3.435621,-5.888959 3.437643,-9.299116 -8.22e-4,-0.799779 -0.06865,-1.598086 -0.202763,-2.386539 z m 0,4.773079 -6.744771,11.683325 c 0.860634,0.162784 1.734388,0.246258 2.610277,0.249375 3.331438,-0.004 6.557259,-1.169293 9.121989,-3.295477 z m -17.617046,2.386539 c 1.415981,3.992861 4.527371,7.153745 8.497387,8.632563 L 24,29.869714 Z"
     id="path6"
     inkscape:connector-curvature="0" />
  <path
     style="fill:#ffffff;stroke-width:1.19326997"
     d="m 24,9.5841252 c -3.331438,0.00398 -6.557259,1.1692928 -9.121989,3.2954768 l 4.987495,8.637223 6.744771,-11.6833248 C 25.749643,9.6707164 24.875889,9.5872417 24,9.5841252 Z M 28.985165,10.497723 24,19.130286 h 13.482552 c -1.415981,-3.992861 -4.527371,-7.153745 -8.497387,-8.632563 z m -15.866762,4.106526 c -2.216625,2.591475 -3.4356206,5.888959 -3.4376426,9.299116 8.214e-4,0.799779 0.068653,1.598086 0.2027628,2.386539 h 9.9819828 z m 15.016091,6.912576 6.747103,11.685656 c 2.216625,-2.591475 3.435621,-5.88896 3.437643,-9.299116 -8.22e-4,-0.79978 -0.06865,-1.598085 -0.202763,-2.38654 z m 0,4.773079 -6.744771,11.683325 c 0.860634,0.162784 1.734388,0.24626 2.610277,0.249375 3.331438,-0.004 6.557259,-1.169292 9.121989,-3.295476 z m -17.617046,2.386541 c 1.415981,3.99286 4.527371,7.153745 8.497387,8.632562 L 24,28.676445 Z"
     id="path8"
     inkscape:connector-curvature="0" />
  <path
     style="opacity:0.2;fill:#ffffff;stroke-width:1.07937169"
     d="M 24,2.3728814 A 21.587433,21.587433 0 0 0 2.4125672,23.960314 21.587433,21.587433 0 0 0 2.4357568,24.588542 21.587433,21.587433 0 0 1 24,3.452253 21.587433,21.587433 0 0 1 45.564244,24.411458 21.587433,21.587433 0 0 0 45.587433,23.960314 21.587433,21.587433 0 0 0 24,2.3728814 Z"
     id="path10"
     inkscape:connector-curvature="0" />
</svg>
