<?xml version="1.0" encoding="UTF-8" standalone="no"?>
<svg
   xmlns:dc="http://purl.org/dc/elements/1.1/"
   xmlns:cc="http://creativecommons.org/ns#"
   xmlns:rdf="http://www.w3.org/1999/02/22-rdf-syntax-ns#"
   xmlns:svg="http://www.w3.org/2000/svg"
   xmlns="http://www.w3.org/2000/svg"
   xmlns:sodipodi="http://sodipodi.sourceforge.net/DTD/sodipodi-0.dtd"
   xmlns:inkscape="http://www.inkscape.org/namespaces/inkscape"
   width="48"
   height="48"
   version="1"
   id="svg46"
   sodipodi:docname="applications-multimedia.svg"
   inkscape:version="0.92.5 (2060ec1f9f, 2020-04-08)">
  <metadata
     id="metadata52">
    <rdf:RDF>
      <cc:Work
         rdf:about="">
        <dc:format>image/svg+xml</dc:format>
        <dc:type
           rdf:resource="http://purl.org/dc/dcmitype/StillImage" />
      </cc:Work>
    </rdf:RDF>
  </metadata>
  <defs
     id="defs50" />
  <sodipodi:namedview
     pagecolor="#ffffff"
     bordercolor="#666666"
     borderopacity="1"
     objecttolerance="10"
     gridtolerance="10"
     guidetolerance="10"
     inkscape:pageopacity="0"
     inkscape:pageshadow="2"
     inkscape:window-width="640"
     inkscape:window-height="480"
     id="namedview48"
     showgrid="false"
     inkscape:zoom="4.9166667"
     inkscape:cx="16.881356"
     inkscape:cy="24"
     inkscape:current-layer="g44" />
  <rect
     style="fill:#4c566a;fill-opacity:1"
     width="32"
     height="40"
     x="-38"
     y="-44"
     rx="2"
     ry="2"
     transform="matrix(0,-1,-1,0,0,0)"
     id="rect2" />
  <path
     style="opacity:0.2"
     d="M 19.127296,15.000302 A 1.1016411,1.1138871 0 0 0 18,16.113273 v 6.887973 6.884611 a 1.1016411,1.1138871 0 0 0 1.652269,0.965023 l 5.89814,-3.443146 5.898139,-3.443146 a 1.1016411,1.1138871 0 0 0 0,-1.930046 l -5.898139,-3.443146 -5.89814,-3.441465 a 1.1016411,1.1138871 0 0 0 -0.524973,-0.149629 z"
     id="path4" />
  <path
     style="opacity:0.1;fill:#ffffff"
     d="M 6,6 C 4.892,6 4,6.892 4,8 V 9 C 4,7.892 4.892,7 6,7 h 36 c 1.108,0 2,0.892 2,2 V 8 C 44,6.892 43.108,6 42,6 Z"
     id="path6" />
  <path
     style="opacity:0.2"
     d="m 4,36 v 1 c 0,1.108 0.892,2 2,2 h 36 c 1.108,0 2,-0.892 2,-2 v -1 c 0,1.108 -0.892,2 -2,2 H 6 C 4.892,38 4,37.108 4,36 Z"
     id="path8" />
  <rect
     style="opacity:0.3"
     width="4"
     height="4"
     x="6"
     y="11"
     rx=".899"
     ry=".871"
     id="rect10" />
  <rect
     style="opacity:0.3"
     width="4"
     height="4"
     x="6"
     y="29"
     rx=".899"
     ry=".871"
     id="rect12" />
  <rect
     style="opacity:0.3"
     width="4"
     height="4"
     x="6"
     y="23"
     rx=".899"
     ry=".871"
     id="rect14" />
  <rect
     style="opacity:0.3"
     width="4"
     height="4"
     x="6"
     y="17"
     rx=".899"
     ry=".871"
     id="rect16" />
  <rect
     style="opacity:0.3"
     width="4"
     height="4"
     x="38"
     y="11"
     rx=".899"
     ry=".871"
     id="rect18" />
  <rect
     style="opacity:0.3"
     width="4"
     height="4"
     x="38"
     y="29"
     rx=".899"
     ry=".871"
     id="rect20" />
  <rect
     style="opacity:0.3"
     width="4"
     height="4"
     x="38"
     y="23"
     rx=".899"
     ry=".871"
     id="rect22" />
  <rect
     style="opacity:0.3"
     width="4"
     height="4"
     x="38"
     y="17"
     rx=".899"
     ry=".871"
     id="rect24" />
  <path
     style="fill:#ffffff"
     d="M 19.127296,14.000302 A 1.1016411,1.1138871 0 0 0 18,15.113273 v 6.887973 6.884611 a 1.1016411,1.1138871 0 0 0 1.652269,0.965023 l 5.89814,-3.443146 5.898139,-3.443146 a 1.1016411,1.1138871 0 0 0 0,-1.930046 l -5.898139,-3.443146 -5.89814,-3.441465 a 1.1016411,1.1138871 0 0 0 -0.524973,-0.149629 z"
     id="path26" />
  <g
     transform="translate(0,-1)"
     id="g44">
    <path
       style="opacity:0.2"
       d="m 41.941406,21 a 2.0002,2.0002 0 0 0 -0.396484,0.05273 l -15,3.5 A 2.0002,2.0002 0 0 0 25,26.5 V 41 h 4 V 28.087891 l 11,-2.56836 V 38 h 4 V 23 a 2.0002,2.0002 0 0 0 -2.058594,-2 z"
       id="path28" />
    <path
       style="fill:none;stroke:#6e788c;stroke-width:4;stroke-linejoin:round;stroke-opacity:1"
       d="M 27,40 V 25.5 L 42,22 v 15"
       id="path30" />
    <circle
       style="opacity:0.2"
       cx="24"
       cy="41"
       r="5"
       id="circle32" />
    <circle
       style="fill:#4c566a;fill-opacity:1"
       cx="24"
       cy="40"
       r="5"
       id="circle34" />
    <circle
       style="opacity:0.2"
       cx="39"
       cy="38"
       r="5"
       id="circle36" />
    <circle
       style="fill:#4c566a;fill-opacity:1"
       cx="39"
       cy="37"
       r="5"
       id="circle38" />
    <path
       style="opacity:0.2;fill:#ffffff"
       d="m 41.941406,20 a 2.0002,2.0002 0 0 0 -0.396484,0.05273 l -15,3.5 A 2.0002,2.0002 0 0 0 25,25.5 v 1 a 2.0002,2.0002 0 0 1 1.544922,-1.947266 l 15,-3.5 A 2.0002,2.0002 0 0 1 41.941406,21 2.0002,2.0002 0 0 1 44,23 v -1 a 2.0002,2.0002 0 0 0 -2.058594,-2 z"
       id="path40" />
    <path
       style="opacity:0.2;fill:#ffffff"
       d="m 39,32 a 5,5 0 0 0 -5,5 5,5 0 0 0 0.02734,0.515625 A 5,5 0 0 1 39,33 5,5 0 0 1 43.972656,37.484375 5,5 0 0 0 44,37 5,5 0 0 0 39,32 Z m -15,3 a 5,5 0 0 0 -5,5 5,5 0 0 0 0.02734,0.515625 A 5,5 0 0 1 24,36 5,5 0 0 1 28.972656,40.484375 5,5 0 0 0 29,40 5,5 0 0 0 24,35 Z"
       id="path42" />
  </g>
</svg>
