<?xml version="1.0" encoding="UTF-8" standalone="no"?>
<svg
   xmlns:dc="http://purl.org/dc/elements/1.1/"
   xmlns:cc="http://creativecommons.org/ns#"
   xmlns:rdf="http://www.w3.org/1999/02/22-rdf-syntax-ns#"
   xmlns:svg="http://www.w3.org/2000/svg"
   xmlns="http://www.w3.org/2000/svg"
   xmlns:sodipodi="http://sodipodi.sourceforge.net/DTD/sodipodi-0.dtd"
   xmlns:inkscape="http://www.inkscape.org/namespaces/inkscape"
   width="48"
   height="48"
   version="1"
   id="svg12"
   sodipodi:docname="applications-education-mathematics.svg"
   inkscape:version="0.92.5 (2060ec1f9f, 2020-04-08)">
  <metadata
     id="metadata18">
    <rdf:RDF>
      <cc:Work
         rdf:about="">
        <dc:format>image/svg+xml</dc:format>
        <dc:type
           rdf:resource="http://purl.org/dc/dcmitype/StillImage" />
      </cc:Work>
    </rdf:RDF>
  </metadata>
  <defs
     id="defs16" />
  <sodipodi:namedview
     pagecolor="#ffffff"
     bordercolor="#666666"
     borderopacity="1"
     objecttolerance="10"
     gridtolerance="10"
     guidetolerance="10"
     inkscape:pageopacity="0"
     inkscape:pageshadow="2"
     inkscape:window-width="783"
     inkscape:window-height="480"
     id="namedview14"
     showgrid="false"
     inkscape:zoom="4.9166667"
     inkscape:cx="24"
     inkscape:cy="24"
     inkscape:window-x="0"
     inkscape:window-y="28"
     inkscape:window-maximized="0"
     inkscape:current-layer="svg12" />
  <path
     fill="#395d6d"
     d="m40 42v-36c0-1.108-0.892-2-2-2h-28c-1.108 0-2 0.892-2 2v36c0 1.108 0.892 2 2 2h28c1.108 0 2-0.892 2-2z"
     id="path2"
     style="fill:#4c566a;fill-opacity:1" />
  <path
     style="opacity:0.2"
     d="M 23.919922 16.001953 L 20.806641 26.939453 L 18.494141 21.148438 L 14 21.148438 L 14 23.152344 L 17.185547 23.152344 L 20.298828 30.994141 L 21.679688 30.994141 L 25.382812 18.017578 L 31.775391 18.017578 L 31.775391 16.001953 L 23.919922 16.001953 z M 25.417969 22 L 28.673828 26.292969 L 25.113281 31.001953 L 26.890625 31.001953 L 29.558594 27.464844 L 32.226562 31.001953 L 34.003906 31.001953 L 30.515625 26.380859 L 33.832031 22 L 32.054688 22 L 29.625 25.207031 L 27.193359 22 L 25.417969 22 z"
     id="path4" />
  <path
     style="fill:#ffffff;fill-opacity:1"
     d="M 23.919922 15.001953 L 20.806641 25.939453 L 18.494141 20.148438 L 14 20.148438 L 14 22.152344 L 17.185547 22.152344 L 20.298828 29.994141 L 21.679688 29.994141 L 25.382812 17.017578 L 31.775391 17.017578 L 31.775391 15.001953 L 23.919922 15.001953 z M 25.417969 21.001953 L 28.673828 25.292969 L 25.113281 30.001953 L 26.890625 30.001953 L 29.558594 26.464844 L 32.226562 30.001953 L 34.003906 30.001953 L 30.515625 25.380859 L 33.832031 21.001953 L 32.054688 21.001953 L 29.625 24.207031 L 27.193359 21.001953 L 25.417969 21.001953 z"
     id="path6" />
  <path
     fill="#fff"
     opacity=".1"
     d="m10 4c-1.108 0-2 0.892-2 2v1c0-1.108 0.892-2 2-2h28c1.108 0 2 0.892 2 2v-1c0-1.108-0.892-2-2-2z"
     id="path8" />
  <path
     opacity=".2"
     d="m8 42v1c0 1.108 0.892 2 2 2h28c1.108 0 2-0.892 2-2v-1c0 1.108-0.892 2-2 2h-28c-1.108 0-2-0.892-2-2z"
     id="path10" />
</svg>
