<?xml version="1.0" encoding="UTF-8" standalone="no"?>
<svg
   xmlns:dc="http://purl.org/dc/elements/1.1/"
   xmlns:cc="http://creativecommons.org/ns#"
   xmlns:rdf="http://www.w3.org/1999/02/22-rdf-syntax-ns#"
   xmlns:svg="http://www.w3.org/2000/svg"
   xmlns="http://www.w3.org/2000/svg"
   xmlns:sodipodi="http://sodipodi.sourceforge.net/DTD/sodipodi-0.dtd"
   xmlns:inkscape="http://www.inkscape.org/namespaces/inkscape"
   width="48"
   height="48"
   version="1"
   id="svg12"
   sodipodi:docname="aptana.svg"
   inkscape:version="0.92.5 (2060ec1f9f, 2020-04-08)">
  <metadata
     id="metadata18">
    <rdf:RDF>
      <cc:Work
         rdf:about="">
        <dc:format>image/svg+xml</dc:format>
        <dc:type
           rdf:resource="http://purl.org/dc/dcmitype/StillImage" />
      </cc:Work>
    </rdf:RDF>
  </metadata>
  <defs
     id="defs16" />
  <sodipodi:namedview
     pagecolor="#ffffff"
     bordercolor="#666666"
     borderopacity="1"
     objecttolerance="10"
     gridtolerance="10"
     guidetolerance="10"
     inkscape:pageopacity="0"
     inkscape:pageshadow="2"
     inkscape:window-width="783"
     inkscape:window-height="480"
     id="namedview14"
     showgrid="false"
     inkscape:zoom="4.9166667"
     inkscape:cx="24"
     inkscape:cy="24"
     inkscape:window-x="0"
     inkscape:window-y="28"
     inkscape:window-maximized="0"
     inkscape:current-layer="svg12" />
  <rect
     style="opacity:0.2"
     width="40"
     height="40"
     x="4"
     y="5"
     rx="12"
     ry="12"
     id="rect2" />
  <rect
     style="fill:#4c566a;fill-opacity:1"
     width="40"
     height="40"
     x="4"
     y="4"
     rx="12"
     ry="12"
     id="rect4" />
  <path
     opacity=".2"
     d="m21.951 11c-0.527 0-0.951 0.662-0.951 1.486v1.9336a11 11 0 0 0 -2.3516 0.98438l-1.375-1.375c-0.58261-0.58261-1.3518-0.74976-1.7246-0.37695l-2.8965 2.8965c-0.3728 0.3728-0.20566 1.142 0.37695 1.7246l1.3691 1.3672a11 11 0 0 0 -0.97 2.36h-1.9414c-0.825 0-1.487 0.424-1.487 0.951v4.0977c0 0.527 0.662 0.951 1.486 0.951h1.9336a11 11 0 0 0 0.98438 2.3516l-1.375 1.375c-0.58261 0.58261-0.74976 1.3518-0.37695 1.7246l2.8965 2.8965c0.3728 0.3728 1.142 0.20566 1.7246-0.37695l1.3672-1.3691a11 11 0 0 0 2.36 0.97v1.9414c0 0.825 0.424 1.487 0.951 1.487h4.0977c0.527 0 0.951-0.662 0.951-1.486v-1.9336a11 11 0 0 0 2.3516 -0.98438l1.375 1.375c0.58261 0.58261 1.3518 0.74976 1.7246 0.37695l2.8965-2.8965c0.3728-0.3728 0.20566-1.142-0.37695-1.7246l-1.369-1.368a11 11 0 0 0 0.97 -2.359h1.9414c0.825 0 1.487-0.424 1.487-0.951v-4.0977c0-0.527-0.662-0.951-1.486-0.951h-1.9336a11 11 0 0 0 -0.98438 -2.3516l1.375-1.375c0.58261-0.58261 0.74976-1.3518 0.37695-1.7246l-2.8965-2.8965c-0.3728-0.3728-1.142-0.20566-1.7246 0.37695l-1.3672 1.3691a11 11 0 0 0 -2.36 -0.97v-1.9414c0-0.825-0.424-1.487-0.951-1.487h-4.0977zm2.049 8a6 6 0 0 1 6 6 6 6 0 0 1 -6 6 6 6 0 0 1 -6 -6 6 6 0 0 1 6 -6z"
     id="path6" />
  <path
     fill="#ffaa56"
     d="m21.951 10c-0.527 0-0.951 0.662-0.951 1.486v1.934a11 11 0 0 0 -2.352 0.984l-1.375-1.375c-0.582-0.582-1.351-0.749-1.724-0.377l-2.897 2.897c-0.372 0.373-0.205 1.142 0.377 1.724l1.369 1.368a11 11 0 0 0 -0.97 2.359h-1.942c-0.824 0-1.486 0.424-1.486 0.951v4.098c0 0.527 0.662 0.951 1.486 0.951h1.934a11 11 0 0 0 0.984 2.352l-1.375 1.375c-0.582 0.582-0.749 1.351-0.377 1.724l2.897 2.897c0.373 0.372 1.142 0.205 1.724-0.377l1.368-1.369a11 11 0 0 0 2.359 0.97v1.942c0 0.824 0.424 1.486 0.951 1.486h4.098c0.527 0 0.951-0.662 0.951-1.486v-1.934a11 11 0 0 0 2.352 -0.984l1.375 1.375c0.582 0.582 1.351 0.749 1.724 0.377l2.897-2.897c0.372-0.373 0.205-1.142-0.377-1.724l-1.369-1.368a11 11 0 0 0 0.97 -2.359h1.942c0.824 0 1.486-0.424 1.486-0.951v-4.098c0-0.527-0.662-0.951-1.486-0.951h-1.934a11 11 0 0 0 -0.984 -2.352l1.375-1.375c0.582-0.582 0.749-1.351 0.377-1.724l-2.897-2.897c-0.373-0.372-1.142-0.205-1.724 0.377l-1.368 1.369a11 11 0 0 0 -2.359 -0.97v-1.942c0-0.824-0.424-1.486-0.951-1.486h-4.098zm2.049 8a6 6 0 0 1 6 6 6 6 0 0 1 -6 6 6 6 0 0 1 -6 -6 6 6 0 0 1 6 -6z"
     id="path8"
     style="fill:#ffffff;fill-opacity:1" />
  <path
     style="fill:#ffffff;opacity:0.1"
     d="M 16 4 C 9.352 4 4 9.352 4 16 L 4 17 C 4 10.352 9.352 5 16 5 L 32 5 C 38.648 5 44 10.352 44 17 L 44 16 C 44 9.352 38.648 4 32 4 L 16 4 z"
     id="path10" />
</svg>
