<?xml version="1.0" encoding="UTF-8" standalone="no"?>
<svg
   xmlns:dc="http://purl.org/dc/elements/1.1/"
   xmlns:cc="http://creativecommons.org/ns#"
   xmlns:rdf="http://www.w3.org/1999/02/22-rdf-syntax-ns#"
   xmlns:svg="http://www.w3.org/2000/svg"
   xmlns="http://www.w3.org/2000/svg"
   xmlns:sodipodi="http://sodipodi.sourceforge.net/DTD/sodipodi-0.dtd"
   xmlns:inkscape="http://www.inkscape.org/namespaces/inkscape"
   width="48"
   height="48"
   version="1.1"
   id="svg26"
   sodipodi:docname="aqualung.svg"
   inkscape:version="0.92.5 (2060ec1f9f, 2020-04-08)">
  <metadata
     id="metadata32">
    <rdf:RDF>
      <cc:Work
         rdf:about="">
        <dc:format>image/svg+xml</dc:format>
        <dc:type
           rdf:resource="http://purl.org/dc/dcmitype/StillImage" />
      </cc:Work>
    </rdf:RDF>
  </metadata>
  <defs
     id="defs30" />
  <sodipodi:namedview
     pagecolor="#ffffff"
     bordercolor="#666666"
     borderopacity="1"
     objecttolerance="10"
     gridtolerance="10"
     guidetolerance="10"
     inkscape:pageopacity="0"
     inkscape:pageshadow="2"
     inkscape:window-width="783"
     inkscape:window-height="480"
     id="namedview28"
     showgrid="false"
     inkscape:zoom="3.4766083"
     inkscape:cx="-6.6191501"
     inkscape:cy="33.458141"
     inkscape:window-x="0"
     inkscape:window-y="28"
     inkscape:window-maximized="0"
     inkscape:current-layer="svg26" />
  <path
     d="M 24,8 C 15.291667,8 10.408182,12.933639 8.1894531,17.648438 5.9707245,22.363236 6,27 6,27 a 2.0002,2.0002 0 1 0 4,0 c 0,0 0.02928,-3.863236 1.810547,-7.648438 C 13.591818,15.566361 16.708333,12 24,12 31.291667,12 34.408182,15.566361 36.189453,19.351562 37.970725,23.136764 38,27 38,27 a 2.0002,2.0002 0 1 0 4,0 c 0,0 0.02927,-4.636764 -2.189453,-9.351562 C 37.591818,12.933639 32.708333,8 24,8 Z"
     style="opacity:.2"
     id="path2" />
  <path
     d="M 24,7 C 15.291667,7 10.408182,11.933639 8.1894531,16.648438 5.9707245,21.363236 6,26 6,26 a 2.0002,2.0002 0 1 0 4,0 c 0,0 0.02928,-3.863236 1.810547,-7.648438 C 13.591818,14.566361 16.708333,11 24,11 31.291667,11 34.408182,14.566361 36.189453,18.351562 37.970725,22.136764 38,26 38,26 a 2.0002,2.0002 0 1 0 4,0 c 0,0 0.02927,-4.636764 -2.189453,-9.351562 C 37.591818,11.933639 32.708333,7 24,7 Z"
     style="fill:#4f4f4f"
     id="path4" />
  <path
     d="M 24 7 C 15.291667 7 10.408182 11.933639 8.1894531 16.648438 C 5.9707245 21.363236 6 26 6 26 A 2.0002 2.0002 0 0 0 6.0253906 26.322266 C 6.0963292 24.934081 6.4413364 21.363185 8.1894531 17.648438 C 10.408182 12.933639 15.291667 8 24 8 C 32.708333 8 37.591818 12.933639 39.810547 17.648438 C 41.569544 21.386315 41.908667 24.969695 41.976562 26.337891 A 2.0002 2.0002 0 0 0 42 26 C 42 26 42.02927 21.363236 39.810547 16.648438 C 37.591818 11.933639 32.708333 7 24 7 z "
     style="fill:#ffffff;opacity:.1"
     id="path6" />
  <path
     d="M 24,5 C 20,20 4.1611253,28.880554 10.624,39.071396 c 5.000933,7.884597 21.999177,7.924989 26.942,0 C 43.996986,28.761504 28,20 24.001417,5 Z"
     style="opacity:.2"
     id="path8" />
  <path
     d="M 24,4 C 20,19 4.1611253,27.880554 10.624,38.071396 c 5.000933,7.884597 21.999177,7.924989 26.942,0 C 43.996986,27.761504 28,19 24.001417,4 Z"
     style="fill:#4c566a;fill-opacity:1"
     id="path10" />
  <path
     d="M 24 4 C 20.60177 16.743362 8.6669959 25.069526 9.1132812 33.535156 C 9.5908961 25.406693 20.733665 17.241433 23.998047 5 L 24 5 C 27.274623 17.284188 38.588703 25.385008 39.048828 33.578125 C 39.522145 25.036495 27.409782 16.783887 24.001953 4 L 24 4 z "
     style="fill:#ffffff;opacity:.2"
     id="path12" />
  <path
     d="m7 24c-1.662 0-3 1.338-3 3v10c0 1.662 1.338 3 3 3h2c1.662 0 3-1.338 3-3v-10c0-1.662-1.338-3-3-3zm32 0c-1.662 0-3 1.338-3 3v10c0 1.662 1.338 3 3 3h2c1.662 0 3-1.338 3-3v-10c0-1.662-1.338-3-3-3z"
     style="opacity:.2"
     id="path14" />
  <path
     d="m10 28v2h4v3s0 2 4 2 4-2 4-2v-3h4v3s0 2 4 2 4-2 4-2v-3h4v-2h-28z"
     style="opacity:.2"
     id="path16" />
  <path
     d="m14 28v4s0 2 4 2 4-2 4-2v-4h-8zm12 0v4s0 2 4 2 4-2 4-2v-4h-8z"
     style="fill:#ffffff"
     id="path18" />
  <rect
     x="10"
     y="27"
     width="28"
     height="2.0000002"
     style="fill:#4f4f4f"
     id="rect20" />
  <path
     d="m7 23c-1.662 0-3 1.338-3 3v10c0 1.662 1.338 3 3 3h2c1.662 0 3-1.338 3-3v-10c0-1.662-1.338-3-3-3h-2zm32 0c-1.662 0-3 1.338-3 3v10c0 1.662 1.338 3 3 3h2c1.662 0 3-1.338 3-3v-10c0-1.662-1.338-3-3-3h-2z"
     style="fill:#5f697d;fill-opacity:1"
     id="path22" />
  <path
     d="m7 23c-1.662 0-3 1.338-3 3v1c0-1.662 1.338-3 3-3h2c1.662 0 3 1.338 3 3v-1c0-1.662-1.338-3-3-3h-2zm32 0c-1.662 0-3 1.338-3 3v1c0-1.662 1.338-3 3-3h2c1.662 0 3 1.338 3 3v-1c0-1.662-1.338-3-3-3h-2z"
     style="fill:#ffffff;opacity:.2"
     id="path24" />
</svg>
