<?xml version="1.0" encoding="UTF-8" standalone="no"?>
<svg
   xmlns:dc="http://purl.org/dc/elements/1.1/"
   xmlns:cc="http://creativecommons.org/ns#"
   xmlns:rdf="http://www.w3.org/1999/02/22-rdf-syntax-ns#"
   xmlns:svg="http://www.w3.org/2000/svg"
   xmlns="http://www.w3.org/2000/svg"
   xmlns:sodipodi="http://sodipodi.sourceforge.net/DTD/sodipodi-0.dtd"
   xmlns:inkscape="http://www.inkscape.org/namespaces/inkscape"
   width="48"
   height="48"
   version="1"
   id="svg8"
   sodipodi:docname="application-x-ardour.svg"
   inkscape:version="0.92.5 (2060ec1f9f, 2020-04-08)">
  <metadata
     id="metadata14">
    <rdf:RDF>
      <cc:Work
         rdf:about="">
        <dc:format>image/svg+xml</dc:format>
        <dc:type
           rdf:resource="http://purl.org/dc/dcmitype/StillImage" />
      </cc:Work>
    </rdf:RDF>
  </metadata>
  <defs
     id="defs12" />
  <sodipodi:namedview
     pagecolor="#ffffff"
     bordercolor="#666666"
     borderopacity="1"
     objecttolerance="10"
     gridtolerance="10"
     guidetolerance="10"
     inkscape:pageopacity="0"
     inkscape:pageshadow="2"
     inkscape:window-width="640"
     inkscape:window-height="480"
     id="namedview10"
     showgrid="false"
     inkscape:zoom="4.9166667"
     inkscape:cx="-15.661017"
     inkscape:cy="24"
     inkscape:current-layer="svg8" />
  <path
     fill="#fff"
     opacity=".2"
     d="m24 5-9.5 19-9.5 19h0.5l9-18 9.5-19 9.5 19 9 18h0.5l-9.5-19-9.5-19z"
     id="path4" />
  <path
     opacity=".2"
     d="m19 33v1h2v-1h-2zm-4 2v1h2v-1h-2zm8 0v1h2v-1h-2zm-12 2v1h2v-1h-2zm16 0v1h2v-1h-2zm4 2v1h2v-1h-2zm4 2v1h2v-1h-2zm-29.5 2-0.5 1h6v-1h-5.5zm7.5 0v1h2v-1h-2zm4 0v1h2v-1h-2zm4 0v1h2v-1h-2zm4 0v1h2v-1h-2zm4 0v1h2v-1h-2zm4 0v1h2v-1h-2zm4 0v1h6l-0.5-1h-5.5z"
     id="path6" />
  <path
     inkscape:connector-curvature="0"
     d="M 24,4.9999995 14.5,24 5,43 h 6 v -6 h 2 v 6 h 2 v -8 h 2 v 8 h 2 V 33 h 2 v 10 h 2 v -8 h 2 v 8 h 2 v -6 h 2 v 6 h 2 v -4 h 2 v 4 h 2 v -2 h 2 v 2 h 6 L 33.5,24 Z"
     id="path2"
     style="fill:#4a546c;fill-opacity:1" />
</svg>
