<?xml version="1.0" encoding="UTF-8" standalone="no"?>
<svg
   xmlns:dc="http://purl.org/dc/elements/1.1/"
   xmlns:cc="http://creativecommons.org/ns#"
   xmlns:rdf="http://www.w3.org/1999/02/22-rdf-syntax-ns#"
   xmlns:svg="http://www.w3.org/2000/svg"
   xmlns="http://www.w3.org/2000/svg"
   xmlns:sodipodi="http://sodipodi.sourceforge.net/DTD/sodipodi-0.dtd"
   xmlns:inkscape="http://www.inkscape.org/namespaces/inkscape"
   width="48"
   height="48"
   version="1"
   id="svg20"
   sodipodi:docname="arduino.svg"
   inkscape:version="0.92.5 (2060ec1f9f, 2020-04-08)">
  <metadata
     id="metadata26">
    <rdf:RDF>
      <cc:Work
         rdf:about="">
        <dc:format>image/svg+xml</dc:format>
        <dc:type
           rdf:resource="http://purl.org/dc/dcmitype/StillImage" />
      </cc:Work>
    </rdf:RDF>
  </metadata>
  <defs
     id="defs24" />
  <sodipodi:namedview
     pagecolor="#ffffff"
     bordercolor="#666666"
     borderopacity="1"
     objecttolerance="10"
     gridtolerance="10"
     guidetolerance="10"
     inkscape:pageopacity="0"
     inkscape:pageshadow="2"
     inkscape:window-width="765"
     inkscape:window-height="480"
     id="namedview22"
     showgrid="false"
     inkscape:zoom="4.9166667"
     inkscape:cx="24"
     inkscape:cy="24"
     inkscape:window-x="0"
     inkscape:window-y="28"
     inkscape:window-maximized="0"
     inkscape:current-layer="svg20" />
  <circle
     style="opacity:0.2"
     cx="24"
     cy="25"
     r="20"
     id="circle2" />
  <circle
     style="fill:#4c566a;fill-opacity:1"
     cx="24"
     cy="24"
     r="20"
     id="circle4" />
  <path
     style="opacity:0.1;stroke-width:0.82566583;stroke:#ffffff;stroke-opacity:1"
     d="m 32.256659,16.656174 c -2.201776,0 -4.051619,1.111619 -5.558731,2.5028 -1.507113,1.391181 -2.780172,3.112373 -4.018671,4.763705 -1.238498,1.651331 -2.442437,3.232803 -3.618739,4.318619 -1.176301,1.085817 -2.216289,1.62553 -3.317177,1.62553 -2.752219,0 -3.67376,-1.132449 -4.302493,-2.389915 -0.628733,-1.257466 -0.651502,-2.56408 -0.651502,-2.56408 H 7.4866828 c 0,0 -0.022769,1.99605 0.9998298,4.041247 1.0225986,2.045198 3.4037214,4.215412 7.2568284,4.215412 2.201776,0 4.051619,-1.111619 5.558731,-2.5028 1.507113,-1.391181 2.780172,-3.112373 4.018671,-4.763705 1.238498,-1.651332 2.442437,-3.232803 3.618739,-4.31862 1.176301,-1.085816 2.216289,-1.625529 3.317177,-1.625529 2.752219,0 3.673759,1.132449 4.302493,2.389915 0.628732,1.257466 0.651502,2.56408 0.651502,2.56408 h 3.302663 c 0,0 0.02277,-1.99605 -0.99983,-4.041247 -1.022598,-2.045198 -3.403721,-4.215412 -7.256828,-4.215412 z m -0.0129,4.942707 c -0.455368,0.0071 -0.819002,0.381573 -0.812765,0.836954 v 1.651332 h -1.651332 c -1.116567,-0.01579 -1.116567,1.667123 0,1.651332 h 1.651332 v 1.651332 c -0.0158,1.116566 1.667122,1.116566 1.651331,0 v -1.651332 h 1.651332 c 1.116567,0.01579 1.116567,-1.667123 0,-1.651332 h -1.651332 v -1.651332 c 0.0064,-0.465485 -0.373094,-0.844224 -0.838566,-0.836954 z m -18.977414,2.488286 c -1.116567,-0.01579 -1.116567,1.667123 0,1.651332 h 4.953995 c 1.116567,0.01579 1.116567,-1.667123 0,-1.651332 z"
     id="path6"
     inkscape:connector-curvature="0" />
  <path
     style="fill:none;stroke:#ffffff;stroke-width:1.65133166;stroke-linecap:round;stroke-linejoin:round;stroke-opacity:1"
     d="m 13.266344,24.087167 h 4.953995"
     id="path8"
     inkscape:connector-curvature="0" />
  <path
     style="fill:none;stroke:#ffffff;stroke-width:1.65133166;stroke-linecap:round;stroke-linejoin:round;stroke-opacity:1"
     d="m 32.256659,21.610169 v 4.953996 m -2.476998,-2.476998 h 4.953995"
     id="path10"
     inkscape:connector-curvature="0" />
  <path
     style="fill:none;stroke:#b9c3d7;stroke-width:3.30266333;stroke-opacity:1"
     d="m 9.1380145,24.087167 c 0,0 0,6.605327 6.6053265,6.605327 6.605327,0 9.907991,-13.210654 16.513318,-13.210654 6.605326,0 6.605326,6.605327 6.605326,6.605327 v 0 0"
     id="path12"
     inkscape:connector-curvature="0" />
  <path
     style="opacity:0.1;stroke-width:0.82566583;stroke:#ffffff;stroke-opacity:1"
     d="m 15.743341,16.656174 c -3.853107,0 -6.2342298,2.170214 -7.2568284,4.215412 -0.6314149,1.262829 -0.8463421,2.448552 -0.9320994,3.215581 h 3.3284658 c 0.08492,-0.482309 0.246368,-1.115212 0.557969,-1.738414 0.628733,-1.257466 1.550274,-2.389915 4.302493,-2.389915 1.100888,0 2.140876,0.539713 3.317177,1.625529 1.176302,1.085817 2.380241,2.667288 3.618739,4.31862 1.238499,1.651332 2.511558,3.372524 4.018671,4.763705 1.507112,1.391181 3.356955,2.5028 5.558731,2.5028 3.853107,0 6.23423,-2.170214 7.256828,-4.215412 1.0226,-2.045197 0.99983,-4.041247 0.99983,-4.041247 h -3.302663 c 0,0 -0.02277,1.306614 -0.651502,2.56408 -0.628734,1.257466 -1.550274,2.389915 -4.302493,2.389915 -1.100888,0 -2.140876,-0.539713 -3.317177,-1.62553 -1.176302,-1.085816 -2.380241,-2.667288 -3.618739,-4.318619 -1.238499,-1.651332 -2.511558,-3.372524 -4.018671,-4.763705 -1.507112,-1.391181 -3.356955,-2.5028 -5.558731,-2.5028 z"
     id="path14"
     inkscape:connector-curvature="0" />
  <path
     style="fill:none;stroke:#ffffff;stroke-width:3.30266333;stroke-opacity:1"
     d="m 9.1380145,24.087167 c 0,0 0,-6.605327 6.6053265,-6.605327 6.605327,0 9.907991,13.210654 16.513318,13.210654 6.605326,0 6.605326,-6.605327 6.605326,-6.605327 v 0 0"
     id="path16"
     inkscape:connector-curvature="0" />
  <path
     style="opacity:0.2;fill:#ffffff"
     d="M 24 4 A 20 20 0 0 0 4 24 A 20 20 0 0 0 4.0214844 24.582031 A 20 20 0 0 1 24 5 A 20 20 0 0 1 43.978516 24.417969 A 20 20 0 0 0 44 24 A 20 20 0 0 0 24 4 z"
     id="path18" />
</svg>
