<?xml version="1.0" encoding="UTF-8" standalone="no"?>
<svg
   xmlns:dc="http://purl.org/dc/elements/1.1/"
   xmlns:cc="http://creativecommons.org/ns#"
   xmlns:rdf="http://www.w3.org/1999/02/22-rdf-syntax-ns#"
   xmlns:svg="http://www.w3.org/2000/svg"
   xmlns="http://www.w3.org/2000/svg"
   xmlns:sodipodi="http://sodipodi.sourceforge.net/DTD/sodipodi-0.dtd"
   xmlns:inkscape="http://www.inkscape.org/namespaces/inkscape"
   width="48"
   height="48"
   version="1"
   id="svg18"
   sodipodi:docname="arts.svg"
   inkscape:version="0.92.5 (2060ec1f9f, 2020-04-08)">
  <metadata
     id="metadata24">
    <rdf:RDF>
      <cc:Work
         rdf:about="">
        <dc:format>image/svg+xml</dc:format>
        <dc:type
           rdf:resource="http://purl.org/dc/dcmitype/StillImage" />
      </cc:Work>
    </rdf:RDF>
  </metadata>
  <defs
     id="defs22" />
  <sodipodi:namedview
     pagecolor="#ffffff"
     bordercolor="#666666"
     borderopacity="1"
     objecttolerance="10"
     gridtolerance="10"
     guidetolerance="10"
     inkscape:pageopacity="0"
     inkscape:pageshadow="2"
     inkscape:window-width="765"
     inkscape:window-height="480"
     id="namedview20"
     showgrid="false"
     inkscape:zoom="4.9166667"
     inkscape:cx="24"
     inkscape:cy="24"
     inkscape:window-x="0"
     inkscape:window-y="28"
     inkscape:window-maximized="0"
     inkscape:current-layer="svg18" />
  <rect
     style="opacity:0.2"
     width="40"
     height="40"
     x="4"
     y="5"
     rx="19.999"
     ry="19.999"
     id="rect2" />
  <rect
     style="fill:#5f697d;fill-opacity:1"
     width="40"
     height="40"
     x="4"
     y="4"
     rx="19.999"
     ry="19.999"
     id="rect4" />
  <circle
     style="fill:#555f73;fill-opacity:1"
     cx="-24"
     cy="-24"
     r="16"
     transform="matrix(0,-1,-1,0,0,0)"
     id="circle6" />
  <circle
     style="fill:#4c566a;fill-opacity:1"
     cx="-24"
     cy="-24"
     r="12"
     transform="matrix(0,-1,-1,0,0,0)"
     id="circle8" />
  <circle
     style="opacity:0.1"
     cx="-25"
     cy="-24"
     r="6"
     transform="matrix(0,-1,-1,0,0,0)"
     id="circle10" />
  <circle
     style="fill:#4f4f4f"
     cx="-24"
     cy="-24"
     r="6"
     transform="matrix(0,-1,-1,0,0,0)"
     id="circle12" />
  <path
     style="fill:#ffffff;opacity:0.1"
     d="M 24 18 A 6 6 0 0 0 18 24 A 6 6 0 0 0 18.025391 24.501953 A 6 6 0 0 1 24 19 A 6 6 0 0 1 29.974609 24.498047 A 6 6 0 0 0 30 24 A 6 6 0 0 0 24 18 z"
     id="path14" />
  <path
     style="fill:#ffffff;opacity:0.1"
     d="M 24 4 C 12.920395 4 4 12.920395 4 24 C 4 24.167551 4.0076625 24.33346 4.0117188 24.5 C 4.2758915 13.653807 13.087946 5 24 5 C 34.912054 5 43.724109 13.653807 43.988281 24.5 C 43.992338 24.33346 44 24.167551 44 24 C 44 12.920395 35.079605 4 24 4 z"
     id="path16" />
</svg>
