<?xml version="1.0" encoding="UTF-8" standalone="no"?>
<svg
   xmlns:dc="http://purl.org/dc/elements/1.1/"
   xmlns:cc="http://creativecommons.org/ns#"
   xmlns:rdf="http://www.w3.org/1999/02/22-rdf-syntax-ns#"
   xmlns:svg="http://www.w3.org/2000/svg"
   xmlns="http://www.w3.org/2000/svg"
   xmlns:sodipodi="http://sodipodi.sourceforge.net/DTD/sodipodi-0.dtd"
   xmlns:inkscape="http://www.inkscape.org/namespaces/inkscape"
   width="48"
   height="48"
   version="1.1"
   id="svg14"
   sodipodi:docname="asciidocfx.svg"
   inkscape:version="0.92.5 (2060ec1f9f, 2020-04-08)">
  <metadata
     id="metadata20">
    <rdf:RDF>
      <cc:Work
         rdf:about="">
        <dc:format>image/svg+xml</dc:format>
        <dc:type
           rdf:resource="http://purl.org/dc/dcmitype/StillImage" />
      </cc:Work>
    </rdf:RDF>
  </metadata>
  <defs
     id="defs18" />
  <sodipodi:namedview
     pagecolor="#ffffff"
     bordercolor="#666666"
     borderopacity="1"
     objecttolerance="10"
     gridtolerance="10"
     guidetolerance="10"
     inkscape:pageopacity="0"
     inkscape:pageshadow="2"
     inkscape:window-width="765"
     inkscape:window-height="480"
     id="namedview16"
     showgrid="false"
     inkscape:zoom="4.9166667"
     inkscape:cx="15.760657"
     inkscape:cy="27.390014"
     inkscape:window-x="0"
     inkscape:window-y="28"
     inkscape:window-maximized="0"
     inkscape:current-layer="svg14" />
  <rect
     style="opacity:0.2"
     width="40"
     height="40"
     x="4"
     y="5"
     rx="2"
     ry="2"
     id="rect2" />
  <path
     style="fill:#5f697d;fill-opacity:1"
     d="M 24,4 V 25 L 43.597656,43.195312 C 43.847647,42.861474 44,42.451004 44,42 V 6 C 44,4.892 43.108,4 42,4 Z"
     id="path4" />
  <path
     style="fill:#5f697d;fill-opacity:1"
     d="M 6,4 C 4.892,4 4,4.892 4,6 v 36 c 0,0.451004 0.1523531,0.861474 0.4023438,1.195312 L 24,25 V 4 Z"
     id="path6" />
  <path
     style="opacity:.2;fill:#ffffff"
     d="m6 4c-1.108 0-2 0.892-2 2v1c0-1.108 0.892-2 2-2h36c1.108 0 2 0.892 2 2v-1c0-1.108-0.892-2-2-2z"
     id="path8" />
  <path
     style="fill:#4c566a;fill-opacity:1"
     d="M 24 4 L 4.4023438 43.195312 C 4.7665156 43.681629 5.3430038 44 6 44 L 42 44 C 42.656996 44 43.233484 43.681629 43.597656 43.195312 L 24 4 z"
     id="path10" />
  <path
     style="opacity:0.2;fill:#ffffff"
     d="M 24 4 L 4.4023438 43.195312 C 4.4976036 43.322523 4.608513 43.435574 4.7304688 43.537109 L 24 5 L 43.269531 43.537109 C 43.391487 43.435574 43.502396 43.322523 43.597656 43.195312 L 24 4 z"
     id="path12" />
</svg>
