<?xml version="1.0" encoding="UTF-8" standalone="no"?>
<svg
   xmlns:dc="http://purl.org/dc/elements/1.1/"
   xmlns:cc="http://creativecommons.org/ns#"
   xmlns:rdf="http://www.w3.org/1999/02/22-rdf-syntax-ns#"
   xmlns:svg="http://www.w3.org/2000/svg"
   xmlns="http://www.w3.org/2000/svg"
   xmlns:sodipodi="http://sodipodi.sourceforge.net/DTD/sodipodi-0.dtd"
   xmlns:inkscape="http://www.inkscape.org/namespaces/inkscape"
   width="48"
   height="48"
   version="1.1"
   id="svg30"
   sodipodi:docname="aspia_client.svg"
   inkscape:version="0.92.5 (2060ec1f9f, 2020-04-08)">
  <metadata
     id="metadata36">
    <rdf:RDF>
      <cc:Work
         rdf:about="">
        <dc:format>image/svg+xml</dc:format>
        <dc:type
           rdf:resource="http://purl.org/dc/dcmitype/StillImage" />
      </cc:Work>
    </rdf:RDF>
  </metadata>
  <defs
     id="defs34" />
  <sodipodi:namedview
     pagecolor="#ffffff"
     bordercolor="#666666"
     borderopacity="1"
     objecttolerance="10"
     gridtolerance="10"
     guidetolerance="10"
     inkscape:pageopacity="0"
     inkscape:pageshadow="2"
     inkscape:window-width="783"
     inkscape:window-height="480"
     id="namedview32"
     showgrid="false"
     inkscape:zoom="4.9166667"
     inkscape:cx="24"
     inkscape:cy="24"
     inkscape:window-x="0"
     inkscape:window-y="28"
     inkscape:window-maximized="0"
     inkscape:current-layer="svg30" />
  <rect
     style="opacity:0.2"
     width="30"
     height="24"
     x="14"
     y="9"
     rx="3"
     id="rect2" />
  <rect
     style="fill:#5f697d;fill-opacity:1"
     width="30"
     height="24"
     x="14"
     y="8"
     rx="3"
     id="rect4" />
  <rect
     style="opacity:0.2;fill:#ffffff"
     width="24"
     height="1"
     x="17"
     y="29"
     id="rect6" />
  <rect
     style="fill:#4c566a;fill-opacity:1"
     width="24"
     height="18"
     x="17"
     y="11"
     id="rect8" />
  <rect
     style="opacity:0.2"
     width="30"
     height="24"
     x="4"
     y="17"
     rx="3"
     id="rect10" />
  <rect
     style="fill:#5f697d;fill-opacity:1"
     width="30"
     height="24"
     x="4"
     y="16"
     rx="3"
     id="rect12" />
  <rect
     style="fill:#4c566a;fill-opacity:1"
     width="24"
     height="18"
     x="7"
     y="19"
     id="rect14" />
  <path
     style="opacity:0.2"
     d="m 9,22 v 0.951172 l 3,2.183594 -3,1.914062 V 28 l 4,-2.523438 v -0.611328 z m 4,5 v 1 h 4 v -1 z"
     id="path16" />
  <path
     style="opacity:0.2;fill:#ffffff"
     d="M 17 8 C 15.338 8 14 9.338 14 11 L 14 12 C 14 10.338 15.338 9 17 9 L 41 9 C 42.662 9 44 10.338 44 12 L 44 11 C 44 9.338 42.662 8 41 8 L 17 8 z"
     id="path18" />
  <path
     style="opacity:0.2;fill:#ffffff"
     d="M 7 16 C 5.338 16 4 17.338 4 19 L 4 20 C 4 18.338 5.338 17 7 17 L 31 17 C 32.662 17 34 18.338 34 20 L 34 19 C 34 17.338 32.662 16 31 16 L 7 16 z"
     id="path20" />
  <rect
     style="opacity:0.2"
     width="24"
     height="1"
     x="7"
     y="19"
     id="rect22" />
  <rect
     style="opacity:0.2"
     width="24"
     height="1"
     x="17"
     y="11"
     id="rect24" />
  <rect
     style="opacity:0.2;fill:#ffffff"
     width="24"
     height="1"
     x="7"
     y="37"
     id="rect26" />
  <path
     style="fill:#ffffff"
     d="M 9 21 L 9 21.951172 L 12 24.134766 L 9 26.048828 L 9 27 L 13 24.476562 L 13 23.865234 L 9 21 z M 13 26 L 13 27 L 17 27 L 17 26 L 13 26 z"
     id="path28" />
</svg>
