<?xml version="1.0" encoding="UTF-8" standalone="no"?>
<svg
   xmlns:dc="http://purl.org/dc/elements/1.1/"
   xmlns:cc="http://creativecommons.org/ns#"
   xmlns:rdf="http://www.w3.org/1999/02/22-rdf-syntax-ns#"
   xmlns:svg="http://www.w3.org/2000/svg"
   xmlns="http://www.w3.org/2000/svg"
   xmlns:sodipodi="http://sodipodi.sourceforge.net/DTD/sodipodi-0.dtd"
   xmlns:inkscape="http://www.inkscape.org/namespaces/inkscape"
   width="48"
   height="48"
   version="1.1"
   id="svg16"
   sodipodi:docname="asunder.svg"
   inkscape:version="0.92.5 (2060ec1f9f, 2020-04-08)">
  <metadata
     id="metadata22">
    <rdf:RDF>
      <cc:Work
         rdf:about="">
        <dc:format>image/svg+xml</dc:format>
        <dc:type
           rdf:resource="http://purl.org/dc/dcmitype/StillImage" />
      </cc:Work>
    </rdf:RDF>
  </metadata>
  <defs
     id="defs20" />
  <sodipodi:namedview
     pagecolor="#ffffff"
     bordercolor="#666666"
     borderopacity="1"
     objecttolerance="10"
     gridtolerance="10"
     guidetolerance="10"
     inkscape:pageopacity="0"
     inkscape:pageshadow="2"
     inkscape:window-width="783"
     inkscape:window-height="480"
     id="namedview18"
     showgrid="false"
     showguides="false"
     inkscape:zoom="4.9166667"
     inkscape:cx="24"
     inkscape:cy="24"
     inkscape:window-x="0"
     inkscape:window-y="28"
     inkscape:window-maximized="0"
     inkscape:current-layer="svg16">
    <sodipodi:guide
       position="28.881356,61.830508"
       orientation="0,1"
       id="guide830"
       inkscape:locked="false" />
  </sodipodi:namedview>
  <path
     style="opacity:0.2"
     d="M 24,5 A 20,20 0 0 0 4,25 20,20 0 0 0 24,45 20,20 0 0 0 44,25 20,20 0 0 0 24,5 Z m 0,16 a 4,4 0 0 1 4,4 4,4 0 0 1 -4,4 4,4 0 0 1 -4,-4 4,4 0 0 1 4,-4 z"
     id="path2" />
  <path
     style="fill:#4c566a;fill-opacity:1"
     d="M 25.316406 4.046875 C 25.409841 4.0530858 25.50238 4.0647444 25.595703 4.0722656 A 20 20 0 0 0 25.316406 4.046875 z M 22.640625 4.0683594 A 20 20 0 0 0 4 24 A 20 20 0 0 0 24 44 A 20 20 0 0 0 44 24 A 20 20 0 0 0 28.78125 4.6015625 L 30.4375 8.25 L 25.333984 11.623047 L 29.181641 15.341797 L 25 19.101562 A 5 5 0 0 1 29 24 A 5 5 0 0 1 24 29 A 5 5 0 0 1 19 24 A 5 5 0 0 1 24 19 A 5 5 0 0 1 24.271484 19.013672 L 25.351562 15.097656 L 21.212891 11.378906 L 24.955078 8.2714844 L 21.664062 4.1660156 C 21.988475 4.1237579 22.314667 4.0946454 22.640625 4.0683594 z M 27.164062 4.2636719 C 27.275773 4.2816392 27.388588 4.2945884 27.5 4.3144531 A 20 20 0 0 0 27.164062 4.2636719 z "
     id="path4" />
  <path
     style="fill:#4c566a;opacity:0.5;fill-opacity:1"
     d="M 24.478516 4.0058594 C 24.092543 3.996666 23.704796 3.9984307 23.316406 4.0117188 C 18.916552 4.1620899 14.688268 5.760965 11.289062 8.5585938 C 2.7608028 15.578145 1.5391443 28.182593 8.5585938 36.710938 L 20.146484 27.173828 A 5 5 0 0 1 19 24 A 5 5 0 0 1 24 19 A 5 5 0 0 1 27.861328 20.822266 L 39.441406 11.289062 C 35.736775 6.7884005 30.268109 4.1437593 24.478516 4.0058594 z"
     id="path6" />
  <path
     style="fill:#fbfbfb"
     d="M 24 16 A 8 8 0 0 0 16 24 A 8 8 0 0 0 24 32 A 8 8 0 0 0 32 24 A 8 8 0 0 0 24 16 z M 24 20 A 4 4 0 0 1 28 24 A 4 4 0 0 1 24 28 A 4 4 0 0 1 20 24 A 4 4 0 0 1 24 20 z"
     id="path8" />
  <path
     style="opacity:0.2"
     d="M 31.972656,24.376953 C 31.771723,28.636809 28.264581,31.99016 24,32 19.783398,31.989713 16.298682,28.708372 16.035156,24.5 16.018218,24.666259 16.006493,24.833007 16,25 c 0,4.418278 3.581722,8 8,8 4.418278,0 8,-3.581722 8,-8 -0.001,-0.207959 -0.01013,-0.415799 -0.02734,-0.623047 z"
     id="path10" />
  <path
     style="fill:#ffffff;opacity:0.2"
     d="M 24 4 A 20 20 0 0 0 4 24 A 20 20 0 0 0 4.0351562 24.5 A 20 20 0 0 1 24 5 A 20 20 0 0 1 43.982422 24.25 A 20 20 0 0 0 44 24 A 20 20 0 0 0 24 4 z M 27.943359 24.363281 A 4 4 0 0 1 24 28 A 4 4 0 0 1 20.078125 24.5 A 4 4 0 0 0 20 25 A 4 4 0 0 0 24 29 A 4 4 0 0 0 28 25 A 4 4 0 0 0 27.943359 24.363281 z"
     id="path12" />
</svg>
