<?xml version="1.0" encoding="UTF-8" standalone="no"?>
<svg
   xmlns:dc="http://purl.org/dc/elements/1.1/"
   xmlns:cc="http://creativecommons.org/ns#"
   xmlns:rdf="http://www.w3.org/1999/02/22-rdf-syntax-ns#"
   xmlns:svg="http://www.w3.org/2000/svg"
   xmlns="http://www.w3.org/2000/svg"
   xmlns:sodipodi="http://sodipodi.sourceforge.net/DTD/sodipodi-0.dtd"
   xmlns:inkscape="http://www.inkscape.org/namespaces/inkscape"
   width="48"
   height="48"
   version="1.1"
   id="svg22"
   sodipodi:docname="atlauncher.svg"
   inkscape:version="0.92.5 (2060ec1f9f, 2020-04-08)">
  <metadata
     id="metadata28">
    <rdf:RDF>
      <cc:Work
         rdf:about="">
        <dc:format>image/svg+xml</dc:format>
        <dc:type
           rdf:resource="http://purl.org/dc/dcmitype/StillImage" />
      </cc:Work>
    </rdf:RDF>
  </metadata>
  <defs
     id="defs26" />
  <sodipodi:namedview
     pagecolor="#ffffff"
     bordercolor="#666666"
     borderopacity="1"
     objecttolerance="10"
     gridtolerance="10"
     guidetolerance="10"
     inkscape:pageopacity="0"
     inkscape:pageshadow="2"
     inkscape:window-width="783"
     inkscape:window-height="480"
     id="namedview24"
     showgrid="false"
     inkscape:zoom="4.9166667"
     inkscape:cx="38.628498"
     inkscape:cy="38.249387"
     inkscape:window-x="0"
     inkscape:window-y="28"
     inkscape:window-maximized="0"
     inkscape:current-layer="svg22" />
  <path
     style="opacity:0.2"
     d="M 24,5 7,14.992188 V 35.007812 L 24,45 41,34.919922 V 15.080078 L 31.443359,9.4160156 25.798828,13.027344 34.988281,18.482422 35.011719,31.417969 24,37.998047 13.015625,31.496094 12.984375,18.382812 29.611328,8.3125 Z"
     id="path2" />
  <path
     style="fill:#4f4f4f"
     d="M 24 4.2890625 L 7.25 14.134766 L 7.25 33.865234 L 24 43.708984 L 40.75 33.777344 L 40.75 14.222656 L 31.449219 8.7089844 L 26.275391 12.019531 L 35.238281 17.339844 L 35.261719 30.560547 L 24 37.289062 L 12.765625 30.638672 L 12.734375 17.242188 L 29.125 7.3164062 L 24 4.2890625 z"
     id="path4" />
  <path
     style="opacity:0.2"
     d="M 34.988281,18.280812 24.005859,24.8355 12.984375,18.382374 13.015625,31.694874 15.978516,33.571828 V 29.433156 L 21.011719,32.192921 V 36.343312 L 24.011719,38.398 V 28.276906 L 28,25.823781 V 35.802296 L 31,34.112843 V 23.911671 L 34.988281,21.605031 Z M 16.021484,23.481984 20.988281,26.130421 V 29.343312 L 16.021484,26.605031 Z"
     id="path6" />
  <path
     style="fill:#ffffff;fill-opacity:1"
     d="M 12.983654,17.382 13.016347,30.696076 15.978206,32.572972 V 28.432755 L 21.010897,31.192906 V 35.344141 L 24.010929,37.397692 V 23.840037 Z M 20.989103,28.344427 16.021794,25.606373 V 22.481893 L 20.989103,25.131619 Z"
     id="path8" />
  <path
     style="fill:#4c566a;fill-opacity:1"
     d="M 24.000093,3.9999952 29.612277,7.312 12.983717,17.382 7.0000618,13.991709 Z M 25.798055,12.028 31.442931,8.416213 41,14.080036 34.989123,17.482 Z"
     id="path10" />
  <path
     style="fill:#4c566a;fill-opacity:1"
     d="M 7,13.991709 V 34.008229 L 24.000031,43.999942 V 36.997969 L 13.016347,30.496 12.983654,17.382 Z"
     id="path12" />
  <path
     style="fill:#ffffff;fill-opacity:1"
     d="M 34.989103,17.281847 23.999969,23.840037 V 27.284693 L 28,24.824 V 34.803157 L 31,33.113955 V 22.912472 L 34.989103,20.605154 Z"
     id="path14" />
  <path
     style="fill:#4c566a;fill-opacity:1"
     d="M 40.999979,33.919985 23.999969,44.000005 V 36.998031 L 35.010897,30.418299 34.989103,17.281847 40.999979,14.080099 Z"
     id="path16" />
  <path
     style="fill:#ffffff;opacity:0.1"
     d="M 24 4 L 7 13.992188 L 7.8671875 14.482422 L 24 5 L 28.775391 7.8183594 L 29.611328 7.3125 L 24 4 z M 31.443359 8.4160156 L 25.798828 12.027344 L 26.609375 12.507812 L 31.443359 9.4160156 L 40.136719 14.568359 L 41 14.080078 L 31.443359 8.4160156 z"
     id="path18" />
  <path
     style="fill:#ffffff;opacity:0.2"
     d="M 34.988281 17.28125 L 24.005859 23.835938 L 12.984375 17.382812 L 12.986328 18.384766 L 24.005859 24.835938 L 34.988281 18.28125 L 34.988281 17.28125 z M 16.021484 25.605469 L 16.021484 26.605469 L 20.988281 29.34375 L 20.988281 28.34375 L 16.021484 25.605469 z"
     id="path20" />
</svg>
