<?xml version="1.0" encoding="UTF-8" standalone="no"?>
<svg
   xmlns:dc="http://purl.org/dc/elements/1.1/"
   xmlns:cc="http://creativecommons.org/ns#"
   xmlns:rdf="http://www.w3.org/1999/02/22-rdf-syntax-ns#"
   xmlns:svg="http://www.w3.org/2000/svg"
   xmlns="http://www.w3.org/2000/svg"
   xmlns:sodipodi="http://sodipodi.sourceforge.net/DTD/sodipodi-0.dtd"
   xmlns:inkscape="http://www.inkscape.org/namespaces/inkscape"
   height="48"
   width="48"
   version="1.1"
   id="svg20"
   sodipodi:docname="atlantikdesigner.svg"
   inkscape:version="0.92.5 (2060ec1f9f, 2020-04-08)">
  <metadata
     id="metadata26">
    <rdf:RDF>
      <cc:Work
         rdf:about="">
        <dc:format>image/svg+xml</dc:format>
        <dc:type
           rdf:resource="http://purl.org/dc/dcmitype/StillImage" />
      </cc:Work>
    </rdf:RDF>
  </metadata>
  <defs
     id="defs24" />
  <sodipodi:namedview
     pagecolor="#ffffff"
     bordercolor="#666666"
     borderopacity="1"
     objecttolerance="10"
     gridtolerance="10"
     guidetolerance="10"
     inkscape:pageopacity="0"
     inkscape:pageshadow="2"
     inkscape:window-width="783"
     inkscape:window-height="480"
     id="namedview22"
     showgrid="false"
     inkscape:zoom="4.9166667"
     inkscape:cx="18.230971"
     inkscape:cy="30.905459"
     inkscape:window-x="0"
     inkscape:window-y="28"
     inkscape:window-maximized="0"
     inkscape:current-layer="svg20" />
  <g
     transform="matrix(2,0,0,2,2,1)"
     id="g12">
    <rect
       style="opacity:.2"
       rx="1"
       ry=".9375"
       height="17"
       width="20"
       y="3.5"
       x="1"
       id="rect2" />
    <rect
       style="fill:#4c566a;fill-opacity:1"
       rx="1"
       ry=".9375"
       height="17"
       width="20"
       y="3"
       x="1"
       id="rect4" />
    <path
       style="opacity:.2;fill:#ffffff"
       d="m2 3c-0.554 0-1 0.418125-1 0.9375v0.5c0-0.519375 0.446-0.9375 1-0.9375h18c0.554 0 1 0.418125 1 0.9375v-0.5c0-0.519375-0.446-0.9375-1-0.9375z"
       id="path6" />
    <path
       d="m5 3.5v4h-4v1h4v3h-4v1h4v3h-4v1h4v4h1v-4h4v4h1v-4h5v4h1v-4h4v-0.923077l-4-0.076923v-3h4v-1h-4v-3h4v-1h-4v-4h-1v4h-5v-4h-1v4h-4v-4zm1 5h10v7h-10z"
       style="opacity:.2"
       id="path8" />
    <path
       d="m5 3v4h-4v1h4v3h-4v1h4v3h-4v1h4v4h1v-4h4v4h1v-4h5v4h1v-4h4v-0.923077l-4-0.076923v-3h4v-1h-4v-3h4v-1h-4v-4h-1v4h-5v-4h-1v4h-4v-4zm1 5h10v7h-10z"
       style="fill:#ffffff"
       id="path10" />
  </g>
  <circle
     style="opacity:.2"
     cx="36"
     r="11"
     cy="35"
     id="circle14" />
  <circle
     style="fill:#5f697d;fill-opacity:1"
     cx="36"
     r="11"
     cy="34"
     id="circle16" />
  <path
     style="fill:#ffffff"
     d="m30 37.326999v2.673001h2.6728l6.7507-6.750701-2.6728-2.6728zm11.788-6.4337c0.28271-0.28271 0.28271-0.72818 0-1.0109l-1.6705-1.6705c-0.28271-0.28271-0.72818-0.28271-1.0109 0l-1.3964 1.405 2.6728 2.6728z"
     id="path18" />
</svg>
