<?xml version="1.0" encoding="UTF-8" standalone="no"?>
<svg
   xmlns:dc="http://purl.org/dc/elements/1.1/"
   xmlns:cc="http://creativecommons.org/ns#"
   xmlns:rdf="http://www.w3.org/1999/02/22-rdf-syntax-ns#"
   xmlns:svg="http://www.w3.org/2000/svg"
   xmlns="http://www.w3.org/2000/svg"
   xmlns:sodipodi="http://sodipodi.sourceforge.net/DTD/sodipodi-0.dtd"
   xmlns:inkscape="http://www.inkscape.org/namespaces/inkscape"
   width="48"
   height="48"
   version="1.1"
   id="svg24"
   sodipodi:docname="appimagekit-audacium.svg"
   inkscape:version="0.92.5 (2060ec1f9f, 2020-04-08)">
  <metadata
     id="metadata30">
    <rdf:RDF>
      <cc:Work
         rdf:about="">
        <dc:format>image/svg+xml</dc:format>
        <dc:type
           rdf:resource="http://purl.org/dc/dcmitype/StillImage" />
      </cc:Work>
    </rdf:RDF>
  </metadata>
  <defs
     id="defs28" />
  <sodipodi:namedview
     pagecolor="#ffffff"
     bordercolor="#666666"
     borderopacity="1"
     objecttolerance="10"
     gridtolerance="10"
     guidetolerance="10"
     inkscape:pageopacity="0"
     inkscape:pageshadow="2"
     inkscape:window-width="783"
     inkscape:window-height="480"
     id="namedview26"
     showgrid="false"
     inkscape:zoom="4.9166667"
     inkscape:cx="24"
     inkscape:cy="24"
     inkscape:window-x="0"
     inkscape:window-y="28"
     inkscape:window-maximized="0"
     inkscape:current-layer="svg24" />
  <circle
     style="opacity:0.2"
     cx="24"
     cy="25"
     r="20"
     id="circle2" />
  <circle
     style="fill:#1a1a1a"
     cx="24"
     cy="24"
     r="19.5"
     id="circle4" />
  <path
     style="fill:#3c465a;fill-opacity:1"
     d="M 4.5136719 28.267578 A 20 20 0 0 0 24 44 A 20 20 0 0 0 30.074219 43.025391 L 4.5136719 28.267578 z"
     id="path6" />
  <path
     style="fill:#414b5f;fill-opacity:1"
     d="M 4.3632812 20.421875 A 20 20 0 0 0 4 24 A 20 20 0 0 0 4.5136719 28.267578 L 30.074219 43.025391 A 20 20 0 0 0 36.941406 39.232422 L 4.3632812 20.421875 z"
     id="path8" />
  <path
     style="fill:#465064;fill-opacity:1"
     d="M 6.71875 14.023438 A 20 20 0 0 0 4.3632812 20.421875 L 36.941406 39.232422 A 20 20 0 0 0 41.28125 33.976562 L 6.71875 14.023438 z"
     id="path10" />
  <path
     style="fill:#4c566a;fill-opacity:1"
     d="M 11.058594 8.7675781 A 20 20 0 0 0 6.71875 14.023438 L 41.28125 33.976562 A 20 20 0 0 0 43.636719 27.578125 L 11.058594 8.7675781 z"
     id="path12" />
  <path
     style="fill:#555f73;fill-opacity:1"
     d="M 17.925781 4.9746094 A 20 20 0 0 0 11.058594 8.7675781 L 43.636719 27.578125 A 20 20 0 0 0 44 24 A 20 20 0 0 0 43.541016 19.763672 L 17.925781 4.9746094 z"
     id="path14" />
  <path
     style="fill:#5f697d;fill-opacity:1"
     d="M 24 4 A 20 20 0 0 0 17.925781 4.9746094 L 43.541016 19.763672 A 20 20 0 0 0 24 4 z"
     id="path16" />
  <path
     style="opacity:0.2;fill:#ffffff"
     d="M 24,4 A 20,20 0 0 0 4,24 20,20 0 0 0 4.0215,24.582 20,20 0 0 1 24,5 20,20 0 0 1 43.979,24.418 20,20 0 0 0 44,24 20,20 0 0 0 24,4 Z"
     id="path18" />
  <path
     style="opacity:0.2"
     d="m 21.720418,13.725079 c 0.930575,-0.795905 2.303381,-0.87165 3.442063,-0.539537 1.157484,0.382221 1.85169,1.468288 2.279613,2.53338 2.341336,5.785759 4.777029,11.534222 7.133619,17.31415 0.323986,0.855334 0.678717,1.883134 0.16554,2.737311 -0.532095,0.957994 -1.741723,1.446146 -2.804849,1.137343 -0.611318,-0.170023 -1.076014,-0.661903 -1.346792,-1.211811 -0.716553,-1.454186 -1.230913,-2.993674 -1.829224,-4.496923 -0.831251,-2.057931 -1.528885,-4.163528 -2.315203,-6.237891 -0.839528,-2.26536 -1.705069,-4.521403 -2.523313,-6.794914 -0.08396,0.13284 -0.169087,0.265689 -0.229392,0.40902 -1.826859,4.95606 -3.669089,9.907568 -5.523145,14.853025 -0.371284,0.913594 -0.63142,1.878471 -1.119764,2.7408 -0.326352,0.593143 -1.035812,0.846128 -1.69088,0.823877 -0.955406,0.02331 -1.858784,-0.60468 -2.227704,-1.460014 -0.283784,-0.725992 -0.05676,-1.518515 0.210473,-2.21292 2.329394,-5.814891 4.684801,-11.620457 7.013012,-17.435463 0.334864,-0.780873 0.689595,-1.60125 1.365946,-2.159433 z"
     id="path20" />
  <path
     style="fill:#ffffff"
     d="m 21.720418,12.725079 c 0.930575,-0.795905 2.303381,-0.87165 3.442063,-0.539537 1.157484,0.382221 1.85169,1.468288 2.279613,2.53338 2.341336,5.785759 4.777029,11.534222 7.133619,17.31415 0.323986,0.855334 0.678717,1.883134 0.16554,2.737311 -0.532095,0.957994 -1.741723,1.446146 -2.804849,1.137343 -0.611318,-0.170023 -1.076014,-0.661903 -1.346792,-1.211811 -0.716553,-1.454186 -1.230913,-2.993674 -1.829224,-4.496923 -0.831251,-2.057931 -1.528885,-4.163528 -2.315203,-6.237891 -0.839528,-2.26536 -1.705069,-4.521403 -2.523313,-6.794914 -0.08396,0.13284 -0.169087,0.265689 -0.229392,0.40902 -1.826859,4.95606 -3.669089,9.907568 -5.523145,14.853025 -0.371284,0.913594 -0.63142,1.878471 -1.119764,2.7408 -0.326352,0.593143 -1.035812,0.846128 -1.69088,0.823877 -0.955406,0.02331 -1.858784,-0.60468 -2.227704,-1.460014 -0.283784,-0.725992 -0.05676,-1.518515 0.210473,-2.21292 2.329394,-5.814891 4.684801,-11.620457 7.013012,-17.435463 0.334864,-0.780873 0.689595,-1.60125 1.365946,-2.159433 z"
     id="path22" />
</svg>
