<?xml version="1.0" encoding="UTF-8" standalone="no"?>
<svg
   xmlns:dc="http://purl.org/dc/elements/1.1/"
   xmlns:cc="http://creativecommons.org/ns#"
   xmlns:rdf="http://www.w3.org/1999/02/22-rdf-syntax-ns#"
   xmlns:svg="http://www.w3.org/2000/svg"
   xmlns="http://www.w3.org/2000/svg"
   xmlns:sodipodi="http://sodipodi.sourceforge.net/DTD/sodipodi-0.dtd"
   xmlns:inkscape="http://www.inkscape.org/namespaces/inkscape"
   width="48"
   height="48"
   version="1.1"
   id="svg12"
   sodipodi:docname="appimagekit-auryo.svg"
   inkscape:version="0.92.5 (2060ec1f9f, 2020-04-08)">
  <metadata
     id="metadata18">
    <rdf:RDF>
      <cc:Work
         rdf:about="">
        <dc:format>image/svg+xml</dc:format>
        <dc:type
           rdf:resource="http://purl.org/dc/dcmitype/StillImage" />
      </cc:Work>
    </rdf:RDF>
  </metadata>
  <defs
     id="defs16" />
  <sodipodi:namedview
     pagecolor="#ffffff"
     bordercolor="#666666"
     borderopacity="1"
     objecttolerance="10"
     gridtolerance="10"
     guidetolerance="10"
     inkscape:pageopacity="0"
     inkscape:pageshadow="2"
     inkscape:window-width="783"
     inkscape:window-height="480"
     id="namedview14"
     showgrid="false"
     inkscape:zoom="4.9166667"
     inkscape:cx="24"
     inkscape:cy="24"
     inkscape:window-x="0"
     inkscape:window-y="28"
     inkscape:window-maximized="0"
     inkscape:current-layer="svg12" />
  <circle
     style="opacity:0.2"
     cx="24"
     cy="25"
     r="20"
     id="circle2" />
  <circle
     style="fill:#4c566a;fill-opacity:1"
     cx="24"
     cy="24"
     r="20"
     id="circle4" />
  <path
     style="opacity:0.1;fill:#ffffff"
     d="M 24 4 A 20 20 0 0 0 4 24 A 20 20 0 0 0 4.0215 24.582 A 20 20 0 0 1 24 5 A 20 20 0 0 1 43.979 24.418 A 20 20 0 0 0 44 24 A 20 20 0 0 0 24 4 z"
     id="path6" />
  <path
     style="opacity:0.2"
     d="m 24,13 c -4.970563,0 -9,4.029437 -9,9 l 0,3.132812 C 13.236014,25.588269 12.00264,27.178165 12,29 c 0,2.209139 1.790861,4 4,4 0.702612,-0.0016 1.392419,-0.188154 2,-0.541016 L 18,33 l 2,0 0,-4 0,-4 -2,0 0,0.541016 c -0.313242,-0.181332 -0.649645,-0.31931 -1,-0.410157 L 17,22 c 0,-3.865993 3.134007,-7 7,-7 3.865993,0 7,3.134007 7,7 l 0,3.132812 C 29.236014,25.588269 28.00264,27.178165 28,29 c 0,2.209139 1.790861,4 4,4 2.209139,0 4,-1.790861 4,-4 -0.0018,-1.822562 -1.235311,-3.413501 -3,-3.869141 L 33,22 c 0,-4.970563 -4.029437,-9 -9,-9 z m -8,14 c 1.104569,0 2,0.895431 2,2 0,1.104569 -0.895431,2 -2,2 -1.104569,0 -2,-0.895431 -2,-2 0,-1.104569 0.895431,-2 2,-2 z m 16,0 c 1.104569,0 2,0.895431 2,2 0,1.104569 -0.895431,2 -2,2 -1.104569,0 -2,-0.895431 -2,-2 0,-1.104569 0.895431,-2 2,-2 z"
     id="path8" />
  <path
     style="fill:#ffffff;fill-opacity:1"
     d="m 24,12 c -4.970563,0 -9,4.029437 -9,9 l 0,3.132812 C 13.236014,24.588269 12.00264,26.178165 12,28 c 0,2.209139 1.790861,4 4,4 0.702612,-0.0016 1.392419,-0.188154 2,-0.541016 L 18,32 l 2,0 0,-4 0,-4 -2,0 0,0.541016 c -0.313242,-0.181332 -0.649645,-0.31931 -1,-0.410157 L 17,21 c 0,-3.865993 3.134007,-7 7,-7 3.865993,0 7,3.134007 7,7 l 0,3.132812 C 29.236014,24.588269 28.00264,26.178165 28,28 c 0,2.209139 1.790861,4 4,4 2.209139,0 4,-1.790861 4,-4 -0.0018,-1.822562 -1.235311,-3.413501 -3,-3.869141 L 33,21 c 0,-4.970563 -4.029437,-9 -9,-9 z m -8,14 c 1.104569,0 2,0.895431 2,2 0,1.104569 -0.895431,2 -2,2 -1.104569,0 -2,-0.895431 -2,-2 0,-1.104569 0.895431,-2 2,-2 z m 16,0 c 1.104569,0 2,0.895431 2,2 0,1.104569 -0.895431,2 -2,2 -1.104569,0 -2,-0.895431 -2,-2 0,-1.104569 0.895431,-2 2,-2 z"
     id="path10" />
</svg>
