<?xml version="1.0" encoding="UTF-8" standalone="no"?>
<svg
   xmlns:dc="http://purl.org/dc/elements/1.1/"
   xmlns:cc="http://creativecommons.org/ns#"
   xmlns:rdf="http://www.w3.org/1999/02/22-rdf-syntax-ns#"
   xmlns:svg="http://www.w3.org/2000/svg"
   xmlns="http://www.w3.org/2000/svg"
   xmlns:sodipodi="http://sodipodi.sourceforge.net/DTD/sodipodi-0.dtd"
   xmlns:inkscape="http://www.inkscape.org/namespaces/inkscape"
   width="48"
   height="48"
   version="1"
   id="svg20"
   sodipodi:docname="authy.svg"
   inkscape:version="0.92.5 (2060ec1f9f, 2020-04-08)">
  <metadata
     id="metadata26">
    <rdf:RDF>
      <cc:Work
         rdf:about="">
        <dc:format>image/svg+xml</dc:format>
        <dc:type
           rdf:resource="http://purl.org/dc/dcmitype/StillImage" />
      </cc:Work>
    </rdf:RDF>
  </metadata>
  <defs
     id="defs24" />
  <sodipodi:namedview
     pagecolor="#ffffff"
     bordercolor="#666666"
     borderopacity="1"
     objecttolerance="10"
     gridtolerance="10"
     guidetolerance="10"
     inkscape:pageopacity="0"
     inkscape:pageshadow="2"
     inkscape:window-width="783"
     inkscape:window-height="480"
     id="namedview22"
     showgrid="false"
     inkscape:zoom="4.9166667"
     inkscape:cx="20.68713"
     inkscape:cy="24.231998"
     inkscape:window-x="0"
     inkscape:window-y="28"
     inkscape:window-maximized="0"
     inkscape:current-layer="svg20" />
  <rect
     fill="#e91e63"
     width="40"
     height="40"
     x="4"
     y="4"
     rx="20"
     ry="20"
     id="rect2"
     style="fill:#4c566a;fill-opacity:1" />
  <path
     fill="#fff"
     opacity=".2"
     d="m24 4c-11.08 0-20 8.92-20 20 0 0.168 0.008 0.333 0.0117 0.5 0.2647-10.846 9.0763-19.5 19.988-19.5s19.724 8.6539 19.988 19.5c0.004-0.16686 0.0117-0.33213 0.0117-0.5 0-11.08-8.92-20-20-20z"
     id="path4" />
  <path
     opacity=".2"
     d="m4.0117 24.5c-0.0041 0.167-0.0117 0.332-0.0117 0.5 0 11.08 8.92 20 20 20s20-8.92 20-20c0-0.168-0.008-0.333-0.012-0.5-0.264 10.846-9.076 19.5-19.988 19.5s-19.724-8.654-19.988-19.5z"
     id="path6" />
  <g
     opacity=".2"
     style="enable-background:new"
     transform="matrix(.28158 0 0 .28158 -33.981 -59.776)"
     id="g12">
    <path
       d="m199.99 286.44 16.56 16.561c2.394 2.393 6.273 2.391 8.667-0.002 2.395-2.396 2.397-6.275 0.003-8.668l-16.561-16.562c-11.85-11.851-31.001-12.044-43.104-0.6-0.111 0.094-0.222 0.191-0.326 0.295-0.051 0.052-0.099 0.105-0.148 0.158-0.052 0.05-0.107 0.097-0.157 0.146-0.106 0.106-0.2 0.215-0.294 0.325-11.445 12.105-11.25 31.254 0.6 43.105l16.561 16.559c2.394 2.394 6.272 2.394 8.666 0 2.394-2.396 2.396-6.275 0.002-8.667l-16.56-16.562c-7.225-7.225-7.275-18.949-0.149-26.24 7.289-7.123 19.014-7.074 26.24 0.152z"
       id="path8" />
    <path
       d="m221.37 264.39c-2.394 2.394-2.392 6.274 0.002 8.667l16.56 16.56c7.226 7.228 7.271 18.951 0.147 26.242-7.29 7.122-19.013 7.075-26.239-0.15l-16.559-16.561c-2.394-2.393-6.277-2.393-8.671 0-2.394 2.396-2.394 6.279 0 8.672l16.56 16.56c11.851 11.851 31.002 12.044 43.102 0.6 0.111-0.095 0.222-0.188 0.327-0.295 0.051-0.053 0.097-0.104 0.149-0.155 0.051-0.052 0.107-0.1 0.159-0.15 0.104-0.106 0.196-0.216 0.291-0.327 11.447-12.1 11.253-31.251-0.598-43.102l-16.558-16.56c-2.394-2.395-6.279-2.395-8.672-0.001z"
       id="path10" />
  </g>
  <g
     fill="#ff8bff"
     style="enable-background:new;fill:#ffffff;fill-opacity:1"
     transform="matrix(.28158 0 0 .28158 -33.981 -60.776)"
     id="g18">
    <path
       d="m199.99 286.44 16.56 16.561c2.394 2.393 6.273 2.391 8.667-0.002 2.395-2.396 2.397-6.275 0.003-8.668l-16.561-16.562c-11.85-11.851-31.001-12.044-43.104-0.6-0.111 0.094-0.222 0.191-0.326 0.295-0.051 0.052-0.099 0.105-0.148 0.158-0.052 0.05-0.107 0.097-0.157 0.146-0.106 0.106-0.2 0.215-0.294 0.325-11.445 12.105-11.25 31.254 0.6 43.105l16.561 16.559c2.394 2.394 6.272 2.394 8.666 0 2.394-2.396 2.396-6.275 0.002-8.667l-16.56-16.562c-7.225-7.225-7.275-18.949-0.149-26.24 7.289-7.123 19.014-7.074 26.24 0.152z"
       id="path14"
       style="fill:#ffffff;fill-opacity:1" />
    <path
       d="m221.37 264.39c-2.394 2.394-2.392 6.274 0.002 8.667l16.56 16.56c7.226 7.228 7.271 18.951 0.147 26.242-7.29 7.122-19.013 7.075-26.239-0.15l-16.559-16.561c-2.394-2.393-6.277-2.393-8.671 0-2.394 2.396-2.394 6.279 0 8.672l16.56 16.56c11.851 11.851 31.002 12.044 43.102 0.6 0.111-0.095 0.222-0.188 0.327-0.295 0.051-0.053 0.097-0.104 0.149-0.155 0.051-0.052 0.107-0.1 0.159-0.15 0.104-0.106 0.196-0.216 0.291-0.327 11.447-12.1 11.253-31.251-0.598-43.102l-16.558-16.56c-2.394-2.395-6.279-2.395-8.672-0.001z"
       id="path16"
       style="fill:#ffffff;fill-opacity:1" />
  </g>
</svg>
