<?xml version="1.0" encoding="UTF-8" standalone="no"?>
<svg
   xmlns:dc="http://purl.org/dc/elements/1.1/"
   xmlns:cc="http://creativecommons.org/ns#"
   xmlns:rdf="http://www.w3.org/1999/02/22-rdf-syntax-ns#"
   xmlns:svg="http://www.w3.org/2000/svg"
   xmlns="http://www.w3.org/2000/svg"
   xmlns:sodipodi="http://sodipodi.sourceforge.net/DTD/sodipodi-0.dtd"
   xmlns:inkscape="http://www.inkscape.org/namespaces/inkscape"
   width="48"
   height="48"
   version="1"
   id="svg32"
   sodipodi:docname="avidemux_icon.svg"
   inkscape:version="0.92.5 (2060ec1f9f, 2020-04-08)">
  <metadata
     id="metadata38">
    <rdf:RDF>
      <cc:Work
         rdf:about="">
        <dc:format>image/svg+xml</dc:format>
        <dc:type
           rdf:resource="http://purl.org/dc/dcmitype/StillImage" />
      </cc:Work>
    </rdf:RDF>
  </metadata>
  <defs
     id="defs36" />
  <sodipodi:namedview
     pagecolor="#ffffff"
     bordercolor="#666666"
     borderopacity="1"
     objecttolerance="10"
     gridtolerance="10"
     guidetolerance="10"
     inkscape:pageopacity="0"
     inkscape:pageshadow="2"
     inkscape:window-width="765"
     inkscape:window-height="480"
     id="namedview34"
     showgrid="false"
     inkscape:zoom="4.9166667"
     inkscape:cx="24"
     inkscape:cy="24"
     inkscape:window-x="0"
     inkscape:window-y="28"
     inkscape:window-maximized="0"
     inkscape:current-layer="svg32" />
  <path
     fill="#4f4f4f"
     d="m44 40v-32c0-1.108-0.892-2-2-2h-36c-1.108 0-2 0.892-2 2v32c0 1.108 0.892 2 2 2h36c1.108 0 2-0.892 2-2z"
     id="path2"
     style="fill:#4c566a;fill-opacity:1" />
  <g
     transform="translate(-144,-236)"
     id="g24">
    <path
       opacity=".2"
       d="m150 242c-1.108 0-2 0.892-2 2v6h40v-6c0-1.108-0.892-2-2-2z"
       id="path4" />
    <path
       opacity=".2"
       d="m150 242c-1.108 0-2 0.892-2 2v2h40v-2c0-1.108-0.892-2-2-2z"
       id="path6" />
    <path
       fill="#fff"
       opacity=".2"
       d="m150 242c-1.108 0-2 0.892-2 2v6h9v-4l-4-4z"
       id="path8" />
    <path
       fill="#fff"
       fill-rule="evenodd"
       opacity=".2"
       d="m163 246-4-4h5l4 4z"
       id="path10" />
    <path
       fill="#fff"
       fill-rule="evenodd"
       opacity=".2"
       d="m163 246-4 4h5l4-4z"
       id="path12" />
    <path
       fill="#fff"
       fill-rule="evenodd"
       opacity=".2"
       d="m173 246-4-4h5l4 4z"
       id="path14" />
    <path
       fill="#fff"
       fill-rule="evenodd"
       opacity=".2"
       d="m173 246-4 4h5l4-4z"
       id="path16" />
    <path
       fill="#fff"
       fill-rule="evenodd"
       opacity=".2"
       d="m183 246-4-4h5l4 4z"
       id="path18" />
    <path
       fill="#fff"
       fill-rule="evenodd"
       opacity=".2"
       d="m183 246-4 4h5l4-4z"
       id="path20" />
    <path
       fill="#fff"
       opacity=".2"
       d="m150 242c-1.108 0-2 0.892-2 2v1c0-1.108 0.892-2 2-2h36c1.108 0 2 0.892 2 2v-1c0-1.108-0.892-2-2-2h-36z"
       id="path22" />
  </g>
  <path
     opacity=".2"
     d="m4 40v1c0 1.108 0.892 2 2 2h36c1.108 0 2-0.892 2-2v-1c0 1.108-0.892 2-2 2h-36c-1.108 0-2-0.892-2-2z"
     id="path26" />
  <path
     opacity=".2"
     d="m15.003 20h13.997c1 0 1 1 1 1v12c0 1-1 1-1 1h-13.997s-1 0-1-1v-12s0-1 1-1zm20.997 1.5v11.5l-6-6z"
     id="path28" />
  <path
     fill="#bababa"
     d="m15.003 19h13.997c1 0 1 1 1 1v12c0 1-1 1-1 1h-13.997s-1 0-1-1v-12s0-1 1-1zm20.997 1.5v11.5l-6-6z"
     id="path30"
     style="fill:#ffffff;fill-opacity:1" />
</svg>
