<?xml version="1.0" encoding="UTF-8" standalone="no"?>
<svg
   xmlns:dc="http://purl.org/dc/elements/1.1/"
   xmlns:cc="http://creativecommons.org/ns#"
   xmlns:rdf="http://www.w3.org/1999/02/22-rdf-syntax-ns#"
   xmlns:svg="http://www.w3.org/2000/svg"
   xmlns="http://www.w3.org/2000/svg"
   xmlns:sodipodi="http://sodipodi.sourceforge.net/DTD/sodipodi-0.dtd"
   xmlns:inkscape="http://www.inkscape.org/namespaces/inkscape"
   width="48"
   height="48"
   version="1"
   id="svg16"
   sodipodi:docname="avimetaedit.svg"
   inkscape:version="0.92.5 (2060ec1f9f, 2020-04-08)">
  <metadata
     id="metadata22">
    <rdf:RDF>
      <cc:Work
         rdf:about="">
        <dc:format>image/svg+xml</dc:format>
        <dc:type
           rdf:resource="http://purl.org/dc/dcmitype/StillImage" />
      </cc:Work>
    </rdf:RDF>
  </metadata>
  <defs
     id="defs20" />
  <sodipodi:namedview
     pagecolor="#ffffff"
     bordercolor="#666666"
     borderopacity="1"
     objecttolerance="10"
     gridtolerance="10"
     guidetolerance="10"
     inkscape:pageopacity="0"
     inkscape:pageshadow="2"
     inkscape:window-width="783"
     inkscape:window-height="480"
     id="namedview18"
     showgrid="false"
     inkscape:zoom="4.9166667"
     inkscape:cx="24"
     inkscape:cy="24"
     inkscape:window-x="0"
     inkscape:window-y="28"
     inkscape:window-maximized="0"
     inkscape:current-layer="svg16" />
  <path
     style="opacity:0.2"
     d="M 44,41 V 9 C 44,7.892 43.108,7 42,7 H 6 C 4.892,7 4,7.892 4,9 v 32 c 0,1.108 0.892,2 2,2 h 36 c 1.108,0 2,-0.892 2,-2 z"
     id="path2" />
  <path
     style="fill:#4c566a;fill-opacity:1"
     d="M 44,40 V 8 C 44,6.892 43.108,6 42,6 H 6 C 4.892,6 4,6.892 4,8 v 32 c 0,1.108 0.892,2 2,2 h 36 c 1.108,0 2,-0.892 2,-2 z"
     id="path4" />
  <path
     style="opacity:0.2;fill:#ffffff"
     d="M 6,6 C 4.892,6 4,6.892 4,8 V 9 C 4,7.892 4.892,7 6,7 h 36 c 1.108,0 2,0.892 2,2 V 8 C 44,6.892 43.108,6 42,6 Z"
     id="path6" />
  <path
     style="opacity:0.2"
     d="m 33.021484,13.972452 a 2.0002,2.0002 0 0 0 -1.917968,1.394532 L 27,27.68339 22.898438,15.366984 a 2.0002023,2.0002023 0 1 0 -3.794922,1.265624 l 6,18.011719 a 2.0002,2.0002 0 0 0 3.794922,0 l 6,-18.011719 a 2.0002,2.0002 0 0 0 -1.876954,-2.660156 z m 5.949219,0 A 2.0002,2.0002 0 0 0 37,15.999796 v 17.986328 a 2.0002,2.0002 0 1 0 4,0 V 15.999796 a 2.0002,2.0002 0 0 0 -2.029297,-2.027344 z m -24.072265,0.0293 a 2.0002,2.0002 0 0 0 -1.794922,1.365235 L 7.1035156,33.353312 a 2.0002,2.0002 0 1 0 3.7929684,1.265625 L 15,22.318155 19.103516,34.618937 a 2.0002,2.0002 0 1 0 3.792968,-1.265625 l -6,-17.986328 a 2.0002,2.0002 0 0 0 -1.798828,-1.365235 2.0002,2.0002 0 0 0 -0.199218,0 z"
     id="path8" />
  <path
     style="fill:none;stroke:#ffffff;stroke-width:4;stroke-linecap:round;stroke-linejoin:round"
     d="M 9.0001445,32.986543 15.000144,15 l 6,17.986543"
     id="path10" />
  <path
     style="fill:none;stroke:#ffffff;stroke-width:4;stroke-linecap:round;stroke-linejoin:round"
     d="m 21.000276,15 6,18.013457 6,-18.013457"
     id="path12" />
  <path
     style="fill:none;stroke:#ffffff;stroke-width:4;stroke-linecap:round;stroke-linejoin:round"
     d="M 39.000344,15 V 32.986543"
     id="path14" />
</svg>
