<?xml version="1.0" encoding="UTF-8" standalone="no"?>
<svg
   xmlns:dc="http://purl.org/dc/elements/1.1/"
   xmlns:cc="http://creativecommons.org/ns#"
   xmlns:rdf="http://www.w3.org/1999/02/22-rdf-syntax-ns#"
   xmlns:svg="http://www.w3.org/2000/svg"
   xmlns="http://www.w3.org/2000/svg"
   xmlns:sodipodi="http://sodipodi.sourceforge.net/DTD/sodipodi-0.dtd"
   xmlns:inkscape="http://www.inkscape.org/namespaces/inkscape"
   width="48"
   height="48"
   version="1.1"
   id="svg12"
   sodipodi:docname="avocode.svg"
   inkscape:version="0.92.5 (2060ec1f9f, 2020-04-08)">
  <metadata
     id="metadata18">
    <rdf:RDF>
      <cc:Work
         rdf:about="">
        <dc:format>image/svg+xml</dc:format>
        <dc:type
           rdf:resource="http://purl.org/dc/dcmitype/StillImage" />
      </cc:Work>
    </rdf:RDF>
  </metadata>
  <defs
     id="defs16" />
  <sodipodi:namedview
     pagecolor="#ffffff"
     bordercolor="#666666"
     borderopacity="1"
     objecttolerance="10"
     gridtolerance="10"
     guidetolerance="10"
     inkscape:pageopacity="0"
     inkscape:pageshadow="2"
     inkscape:window-width="783"
     inkscape:window-height="480"
     id="namedview14"
     showgrid="false"
     inkscape:zoom="4.9166667"
     inkscape:cx="24"
     inkscape:cy="24"
     inkscape:window-x="0"
     inkscape:window-y="28"
     inkscape:window-maximized="0"
     inkscape:current-layer="svg12" />
  <circle
     style="opacity:0.2"
     cx="24"
     cy="25"
     r="20"
     id="circle2" />
  <circle
     style="fill:#4c566a;fill-opacity:1"
     cx="24"
     cy="24"
     r="20"
     id="circle4" />
  <path
     style="opacity:0.2;fill:#ffffff"
     d="M 24,4 A 20,20 0 0 0 4,24 20,20 0 0 0 4.0215,24.582 20,20 0 0 1 24,5 20,20 0 0 1 43.979,24.418 20,20 0 0 0 44,24 20,20 0 0 0 24,4 Z"
     id="path6" />
  <path
     style="opacity:0.1"
     d="m 23.877358,13.000715 c -0.287199,0.0048 -0.574863,0.03324 -0.857422,0.08203 -2.33158,0.709943 -3.930371,2.742952 -5.138672,4.751663 -1.901954,3.362777 -3.093578,7.24781 -2.849609,11.137994 0.35971,3.975816 3.671576,7.428089 7.625,7.954593 0.435253,0.05752 0.874065,0.06506 1.3125,0.06836 4.089609,0.141502 7.968537,-2.967139 8.802734,-6.962467 0.598146,-2.871468 -0.0675,-5.847235 -0.990234,-8.575649 -1.114231,-2.977494 -2.70705,-6.014291 -5.453125,-7.782729 -0.72879,-0.490811 -1.589575,-0.688094 -2.451172,-0.673787 z m 0.25,7.007385 c 0.705521,0.06118 1.395345,0.460088 1.851563,1.007752 1.497185,1.64469 2.368146,3.855009 2.492187,6.067989 0.261674,2.159476 -1.300886,4.301821 -3.408203,4.788771 -1.665364,0.412043 -3.496716,-0.194541 -4.564453,-1.540922 -1.102526,-1.257598 -1.144209,-3.034376 -0.828125,-4.591517 0.488439,-2.055684 1.402657,-4.218007 3.21875,-5.435215 0.386628,-0.247568 0.814969,-0.333568 1.238281,-0.296858 z"
     id="path8" />
  <path
     style="fill:#ffffff;fill-opacity:1"
     d="m 23.877358,12.000715 c -0.287199,0.0048 -0.574863,0.03324 -0.857422,0.08203 -2.33158,0.709943 -3.930371,2.742952 -5.138672,4.751663 -1.901954,3.362777 -3.093578,7.24781 -2.849609,11.137994 0.35971,3.975816 3.671576,7.428089 7.625,7.954593 0.435253,0.05752 0.874065,0.06506 1.3125,0.06836 4.089609,0.141502 7.968537,-2.967139 8.802734,-6.962467 0.598146,-2.871468 -0.0675,-5.847235 -0.990234,-8.575649 -1.114231,-2.977494 -2.70705,-6.014291 -5.453125,-7.782729 -0.72879,-0.490811 -1.589575,-0.688094 -2.451172,-0.673787 z m 0.25,7.007385 c 0.705521,0.06118 1.395345,0.460088 1.851563,1.007752 1.497185,1.64469 2.368146,3.855009 2.492187,6.067989 0.261674,2.159476 -1.300886,4.301821 -3.408203,4.788771 -1.665364,0.412043 -3.496716,-0.194541 -4.564453,-1.540922 -1.102526,-1.257598 -1.144209,-3.034376 -0.828125,-4.591517 0.488439,-2.055684 1.402657,-4.218007 3.21875,-5.435215 0.386628,-0.247568 0.814969,-0.333568 1.238281,-0.296858 z"
     id="path10" />
</svg>
