<?xml version="1.0" encoding="UTF-8" standalone="no"?>
<svg
   xmlns:dc="http://purl.org/dc/elements/1.1/"
   xmlns:cc="http://creativecommons.org/ns#"
   xmlns:rdf="http://www.w3.org/1999/02/22-rdf-syntax-ns#"
   xmlns:svg="http://www.w3.org/2000/svg"
   xmlns="http://www.w3.org/2000/svg"
   xmlns:sodipodi="http://sodipodi.sourceforge.net/DTD/sodipodi-0.dtd"
   xmlns:inkscape="http://www.inkscape.org/namespaces/inkscape"
   width="48"
   height="48"
   version="1"
   id="svg16"
   sodipodi:docname="awesomebump.svg"
   inkscape:version="0.92.5 (2060ec1f9f, 2020-04-08)">
  <metadata
     id="metadata22">
    <rdf:RDF>
      <cc:Work
         rdf:about="">
        <dc:format>image/svg+xml</dc:format>
        <dc:type
           rdf:resource="http://purl.org/dc/dcmitype/StillImage" />
      </cc:Work>
    </rdf:RDF>
  </metadata>
  <defs
     id="defs20" />
  <sodipodi:namedview
     pagecolor="#ffffff"
     bordercolor="#666666"
     borderopacity="1"
     objecttolerance="10"
     gridtolerance="10"
     guidetolerance="10"
     inkscape:pageopacity="0"
     inkscape:pageshadow="2"
     inkscape:window-width="783"
     inkscape:window-height="480"
     id="namedview18"
     showgrid="false"
     inkscape:zoom="6.9532167"
     inkscape:cx="18.056879"
     inkscape:cy="22.437714"
     inkscape:window-x="0"
     inkscape:window-y="28"
     inkscape:window-maximized="0"
     inkscape:current-layer="svg16" />
  <rect
     style="opacity:.2"
     width="40"
     height="40"
     x="-45"
     y="-44"
     rx="2"
     ry="2"
     transform="matrix(0,-1,-1,0,0,0)"
     id="rect2" />
  <rect
     style="fill:#4c566a;fill-opacity:1"
     width="40"
     height="40"
     x="-44"
     y="-44"
     rx="2"
     ry="2"
     transform="matrix(0,-1,-1,0,0,0)"
     id="rect4" />
  <path
     style="opacity:.1"
     d="m9.5996 9c-0.8864 0-1.5996 0.7132-1.5996 1.6v28.8c0 0.887 0.7132 1.6 1.5996 1.6h28.8c0.887 0 1.6-0.713 1.6-1.6v-28.8c0-0.8868-0.713-1.6-1.6-1.6z"
     id="path6" />
  <path
     style="fill:#5f697d;fill-opacity:1"
     d="m9.5996 8c-0.8864 0-1.5996 0.7132-1.5996 1.5996v28.8c0 0.887 0.7132 1.6 1.5996 1.6h28.8c0.887 0 1.6-0.713 1.6-1.6v-28.8c0-0.8868-0.713-1.6-1.6-1.6h-28.8z"
     id="path8" />
  <path
     style="fill:#fff;opacity:.2"
     d="m6 4c-1.108 0-2 0.892-2 2v1c0-1.108 0.892-2 2-2h36c1.108 0 2 0.892 2 2v-1c0-1.108-0.892-2-2-2h-36z"
     id="path10" />
  <path
     style="fill:#ffffff;fill-opacity:1"
     d="m25 15v6.5273l6.1602 10.473h2.9316s3.9082 3.44e-4 3.9082-4.4727c0-4.5455-3-5.0273-3-5.0273s2-0.22781 2-2.9551c0-4.5455-4-4.5449-4-4.5449z"
     id="path12" />
  <path
     style="fill:#ffffff;fill-opacity:1"
     d="m20 15-10 17h7l3-4 3 4h7z"
     id="path14" />
</svg>
