<?xml version="1.0" encoding="UTF-8" standalone="no"?>
<svg
   xmlns:dc="http://purl.org/dc/elements/1.1/"
   xmlns:cc="http://creativecommons.org/ns#"
   xmlns:rdf="http://www.w3.org/1999/02/22-rdf-syntax-ns#"
   xmlns:svg="http://www.w3.org/2000/svg"
   xmlns="http://www.w3.org/2000/svg"
   xmlns:sodipodi="http://sodipodi.sourceforge.net/DTD/sodipodi-0.dtd"
   xmlns:inkscape="http://www.inkscape.org/namespaces/inkscape"
   width="48"
   height="48"
   version="1"
   id="svg44"
   sodipodi:docname="appimagekit-azpainter.svg"
   inkscape:version="0.92.5 (2060ec1f9f, 2020-04-08)">
  <metadata
     id="metadata50">
    <rdf:RDF>
      <cc:Work
         rdf:about="">
        <dc:format>image/svg+xml</dc:format>
        <dc:type
           rdf:resource="http://purl.org/dc/dcmitype/StillImage" />
      </cc:Work>
    </rdf:RDF>
  </metadata>
  <defs
     id="defs48" />
  <sodipodi:namedview
     pagecolor="#ffffff"
     bordercolor="#666666"
     borderopacity="1"
     objecttolerance="10"
     gridtolerance="10"
     guidetolerance="10"
     inkscape:pageopacity="0"
     inkscape:pageshadow="2"
     inkscape:window-width="1920"
     inkscape:window-height="1029"
     id="namedview46"
     showgrid="false"
     inkscape:zoom="9.8333333"
     inkscape:cx="19.54971"
     inkscape:cy="23.499692"
     inkscape:window-x="0"
     inkscape:window-y="28"
     inkscape:window-maximized="1"
     inkscape:current-layer="svg44" />
  <rect
     style="opacity:0.2"
     width="40"
     height="40"
     x="4"
     y="5"
     rx="2"
     ry="2"
     id="rect2" />
  <rect
     style="fill:#4c566a;fill-opacity:1"
     width="40"
     height="40"
     x="4"
     y="4"
     rx="2"
     ry="2"
     id="rect4" />
  <path
     style="fill:#fefefa;fill-opacity:1"
     d="M 8,8 V 40 H 40 V 8 Z"
     id="path6" />
  <path
     style="opacity:0.1;fill-rule:evenodd;stroke:#000000;stroke-width:0;stroke-linecap:round;stroke-linejoin:round"
     d="M 10.659,16.048674 C 29.48544,14.76791 41.000898,21.847927 30.584531,39.846824 31.288138,37.441396 30.921532,31.868532 27.147312,25.048466 24.228905,19.774869 10.659,16.048674 10.659,16.048674 Z"
     id="path8" />
  <path
     style="opacity:0.2;fill:#ffffff"
     d="M 6,4 C 4.892,4 4,4.892 4,6 V 7 C 4,5.892 4.892,5 6,5 h 36 c 1.108,0 2,0.892 2,2 V 6 C 44,4.892 43.108,4 42,4 Z"
     id="path10" />
  <path
     style="fill:#5f697d;fill-rule:evenodd;stroke:#000000;stroke-width:0;stroke-linecap:round;stroke-linejoin:round;fill-opacity:1"
     d="M 10.659,15.048674 C 29.48544,13.76791 41.000898,20.847927 30.584531,38.846824 31.288138,36.441396 30.921532,30.868532 27.147312,24.048466 24.228905,18.774869 10.659,15.048674 10.659,15.048674 Z"
     id="path12" />
  <path
     style="opacity:0.1;fill-rule:evenodd;stroke:#000000;stroke-width:0;stroke-linecap:round;stroke-linejoin:round"
     d="m 11.683547,12.85358 c 18.362046,-1.723869 29.442307,6.190494 18.950539,26.865102 0.731568,-2.753401 0.481603,-9.104536 -3.063493,-16.83058 C 24.829355,16.91396 11.683547,12.85358 11.683547,12.85358 Z"
     id="path14" />
  <path
     style="fill:#555f73;fill-rule:evenodd;stroke:#000000;stroke-width:0;stroke-linecap:round;stroke-linejoin:round;fill-opacity:1"
     d="m 11.683547,11.85358 c 18.362046,-1.723869 29.442307,6.190494 18.950539,26.865102 0.731568,-2.753401 0.481603,-9.104536 -3.063493,-16.83058 C 24.829355,15.91396 11.683547,11.85358 11.683547,11.85358 Z"
     id="path16" />
  <path
     style="opacity:0.1;fill-rule:evenodd;stroke:#000000;stroke-width:0;stroke-linecap:round;stroke-linejoin:round"
     d="M 14.691694,9.9999989 C 35.448813,12.104854 46.238543,22.074335 30.561562,40 31.908968,37.475671 32.862074,31.254131 30.416731,23.018615 28.525876,16.650524 14.691694,9.9999989 14.691694,9.9999989 Z"
     id="path18" />
  <path
     style="fill:#4c566a;fill-rule:evenodd;stroke:#000000;stroke-width:0;stroke-linecap:round;stroke-linejoin:round;fill-opacity:1"
     d="M 14.691694,8.9999992 C 35.448813,11.104854 46.238543,21.074335 30.561562,39 31.908968,36.475671 32.862074,30.254131 30.416731,22.018615 28.525876,15.650524 14.691694,8.9999992 14.691694,8.9999992 Z"
     id="path20" />
  <circle
     style="opacity:0.2;stroke:#6a4326;stroke-width:0;stroke-linecap:round;stroke-linejoin:round"
     cx="34.5"
     cy="29.5"
     r="1.5"
     id="circle22" />
  <circle
     style="fill:#ffffff;stroke:#6a4326;stroke-width:0;stroke-linecap:round;stroke-linejoin:round"
     cx="34.5"
     cy="28.5"
     r="1.5"
     id="circle24" />
  <circle
     style="opacity:0.2;stroke:#6a4326;stroke-width:0;stroke-linecap:round;stroke-linejoin:round"
     cx="32"
     cy="34"
     r="1"
     id="circle26" />
  <circle
     style="fill:#ffffff;stroke:#6a4326;stroke-width:0;stroke-linecap:round;stroke-linejoin:round"
     cx="32"
     cy="33"
     r="1"
     id="circle28" />
  <rect
     style="opacity:0.1"
     width="3.836"
     height="14.442"
     x="35.57"
     y="-9.31"
     ry="0"
     transform="matrix(0.83219764,0.55447911,-0.55908617,0.82910956,0,0)"
     id="rect30" />
  <rect
     style="fill:#697387;fill-opacity:1"
     width="3.836"
     height="14.442"
     x="35.01"
     y="-10.15"
     ry="0"
     transform="matrix(0.83219764,0.55447911,-0.55908617,0.82910956,0,0)"
     id="rect32" />
  <rect
     style="opacity:0.1"
     width="4.509"
     height="3.752"
     x="35.11"
     y="6.9"
     transform="matrix(0.83260805,0.55386264,-0.55813368,0.82975104,0,0)"
     id="rect34" />
  <rect
     style="fill:#4c566a;fill-opacity:1"
     width="4.509"
     height="3.752"
     x="34.55"
     y="6.07"
     transform="matrix(0.83260805,0.55386264,-0.55813368,0.82975104,0,0)"
     id="rect36" />
  <path
     style="opacity:0.1;fill-rule:evenodd"
     d="m 21.974166,29.435018 c -4.713797,3.962063 -9.831634,2.949536 -9.831634,2.949536 L 9,31.944325 c 0,0 1.671794,2.907452 3.681251,4.666429 2.558919,2.239948 6.3334,3.8729 10.100995,0.30816 3.322112,-3.14324 3.501679,-4.578382 3.501679,-4.578382 z"
     id="path38" />
  <path
     style="fill:#4c566a;fill-rule:evenodd;fill-opacity:1"
     d="m 21.974166,28.435018 c -4.713797,3.962063 -9.831634,2.949536 -9.831634,2.949536 L 9,30.944325 c 0,0 1.671794,2.907452 3.681251,4.666429 2.558919,2.239948 6.3334,3.8729 10.100995,0.30816 3.322112,-3.14324 3.501679,-4.578382 3.501679,-4.578382 z"
     id="path40" />
  <rect
     style="opacity:0.2"
     width="32"
     height="1"
     x="8"
     y="40"
     id="rect42" />
</svg>
