<?xml version="1.0" encoding="UTF-8" standalone="no"?>
<svg
   xmlns:dc="http://purl.org/dc/elements/1.1/"
   xmlns:cc="http://creativecommons.org/ns#"
   xmlns:rdf="http://www.w3.org/1999/02/22-rdf-syntax-ns#"
   xmlns:svg="http://www.w3.org/2000/svg"
   xmlns="http://www.w3.org/2000/svg"
   xmlns:sodipodi="http://sodipodi.sourceforge.net/DTD/sodipodi-0.dtd"
   xmlns:inkscape="http://www.inkscape.org/namespaces/inkscape"
   height="48"
   width="48"
   version="1.1"
   id="svg12"
   sodipodi:docname="basingstoke.svg"
   inkscape:version="0.92.5 (2060ec1f9f, 2020-04-08)">
  <metadata
     id="metadata18">
    <rdf:RDF>
      <cc:Work
         rdf:about="">
        <dc:format>image/svg+xml</dc:format>
        <dc:type
           rdf:resource="http://purl.org/dc/dcmitype/StillImage" />
      </cc:Work>
    </rdf:RDF>
  </metadata>
  <defs
     id="defs16" />
  <sodipodi:namedview
     pagecolor="#ffffff"
     bordercolor="#666666"
     borderopacity="1"
     objecttolerance="10"
     gridtolerance="10"
     guidetolerance="10"
     inkscape:pageopacity="0"
     inkscape:pageshadow="2"
     inkscape:window-width="783"
     inkscape:window-height="480"
     id="namedview14"
     showgrid="false"
     inkscape:zoom="4.9166667"
     inkscape:cx="24"
     inkscape:cy="24"
     inkscape:window-x="0"
     inkscape:window-y="28"
     inkscape:window-maximized="0"
     inkscape:current-layer="svg12" />
  <rect
     style="opacity:.2"
     rx="8"
     ry="8"
     height="40"
     width="40"
     y="5"
     x="4"
     id="rect2" />
  <rect
     style="fill:#4c566a;fill-opacity:1"
     rx="8"
     ry="8"
     height="40"
     width="40"
     y="4"
     x="4"
     id="rect4" />
  <path
     style="opacity:.2"
     d="m16 14c-5 0-6 6-6 6v10h7v6h14v-6h7v-10s-1-6-6-6zm1.5 5a4.5 4.5 0 0 1 4.5 4.5 4.5 4.5 0 0 1 -4.5 4.5 4.5 4.5 0 0 1 -4.5 -4.5 4.5 4.5 0 0 1 4.5 -4.5zm13 0a4.5 4.5 0 0 1 4.5 4.5 4.5 4.5 0 0 1 -4.5 4.5 4.5 4.5 0 0 1 -4.5 -4.5 4.5 4.5 0 0 1 4.5 -4.5z"
     id="path6" />
  <path
     style="fill:#ffffff;fill-opacity:1"
     d="m16 13c-5 0-6 6-6 6v10h7v6h14v-6h7v-10s-1-6-6-6h-16zm1.5 5a4.5 4.5 0 0 1 4.5 4.5 4.5 4.5 0 0 1 -4.5 4.5 4.5 4.5 0 0 1 -4.5 -4.5 4.5 4.5 0 0 1 4.5 -4.5zm13 0a4.5 4.5 0 0 1 4.5 4.5 4.5 4.5 0 0 1 -4.5 4.5 4.5 4.5 0 0 1 -4.5 -4.5 4.5 4.5 0 0 1 4.5 -4.5z"
     id="path8" />
  <path
     style="opacity:.2;fill:#ffffff"
     d="m12 4c-4.432 0-8 3.568-8 8v1c0-4.432 3.568-8 8-8h24c4.432 0 8 3.568 8 8v-1c0-4.432-3.568-8-8-8h-24z"
     id="path10" />
</svg>
