<?xml version="1.0" encoding="UTF-8" standalone="no"?>
<svg
   xmlns:dc="http://purl.org/dc/elements/1.1/"
   xmlns:cc="http://creativecommons.org/ns#"
   xmlns:rdf="http://www.w3.org/1999/02/22-rdf-syntax-ns#"
   xmlns:svg="http://www.w3.org/2000/svg"
   xmlns="http://www.w3.org/2000/svg"
   xmlns:sodipodi="http://sodipodi.sourceforge.net/DTD/sodipodi-0.dtd"
   xmlns:inkscape="http://www.inkscape.org/namespaces/inkscape"
   width="48"
   height="48"
   version="1"
   id="svg24"
   sodipodi:docname="bbc.svg"
   inkscape:version="0.92.5 (2060ec1f9f, 2020-04-08)">
  <metadata
     id="metadata30">
    <rdf:RDF>
      <cc:Work
         rdf:about="">
        <dc:format>image/svg+xml</dc:format>
        <dc:type
           rdf:resource="http://purl.org/dc/dcmitype/StillImage" />
      </cc:Work>
    </rdf:RDF>
  </metadata>
  <defs
     id="defs28" />
  <sodipodi:namedview
     pagecolor="#ffffff"
     bordercolor="#666666"
     borderopacity="1"
     objecttolerance="10"
     gridtolerance="10"
     guidetolerance="10"
     inkscape:pageopacity="0"
     inkscape:pageshadow="2"
     inkscape:window-width="783"
     inkscape:window-height="480"
     id="namedview26"
     showgrid="false"
     inkscape:zoom="4.9166667"
     inkscape:cx="-1.1186441"
     inkscape:cy="24"
     inkscape:window-x="0"
     inkscape:window-y="28"
     inkscape:window-maximized="0"
     inkscape:current-layer="svg24" />
  <rect
     fill="#c2352a"
     width="40"
     height="40"
     x="4"
     y="4"
     rx="2"
     ry="2"
     id="rect2"
     style="fill:#4c566a;fill-opacity:1" />
  <g
     opacity=".2"
     transform="translate(0,1)"
     id="g10">
    <path
       d="m19 19v10h10v-10zm1 1h7v3h1v5h-8v-6zm2 2v1h3v-1zm0 3v1h4v-1z"
       id="path4" />
    <path
       d="m7 19v10h10v-10zm1 1h7v3h1v5h-8v-6zm2 2v1h3v-1zm0 3v1h4v-1z"
       id="path6" />
    <path
       d="m31 19v10h10v-10h-10zm1 1h8v2h-6v4h6v2h-8v-8z"
       id="path8" />
  </g>
  <path
     fill="#fff"
     opacity=".2"
     d="m6 4c-1.108 0-2 0.892-2 2v1c0-1.108 0.892-2 2-2h36c1.108 0 2 0.892 2 2v-1c0-1.108-0.892-2-2-2h-36z"
     id="path12" />
  <path
     opacity=".2"
     d="m6 45c-1.108 0-2-0.892-2-2v-1c0 1.108 0.892 2 2 2h36c1.108 0 2-0.892 2-2v1c0 1.108-0.892 2-2 2h-36z"
     id="path14" />
  <g
     fill="#fff"
     id="g22">
    <path
       d="m19 19v10h10v-10zm1 1h7v3h1v5h-8v-6zm2 2v1h3v-1zm0 3v1h4v-1z"
       id="path16" />
    <path
       d="m7 19v10h10v-10zm1 1h7v3h1v5h-8v-6zm2 2v1h3v-1zm0 3v1h4v-1z"
       id="path18" />
    <path
       d="m31 19v10h10v-10h-10zm1 1h8v2h-6v4h6v2h-8v-8z"
       id="path20" />
  </g>
</svg>
