<?xml version="1.0" encoding="UTF-8" standalone="no"?>
<svg
   xmlns:dc="http://purl.org/dc/elements/1.1/"
   xmlns:cc="http://creativecommons.org/ns#"
   xmlns:rdf="http://www.w3.org/1999/02/22-rdf-syntax-ns#"
   xmlns:svg="http://www.w3.org/2000/svg"
   xmlns="http://www.w3.org/2000/svg"
   xmlns:sodipodi="http://sodipodi.sourceforge.net/DTD/sodipodi-0.dtd"
   xmlns:inkscape="http://www.inkscape.org/namespaces/inkscape"
   width="48"
   height="48"
   version="1.1"
   id="svg12"
   sodipodi:docname="beat-hazard.svg"
   inkscape:version="0.92.5 (2060ec1f9f, 2020-04-08)">
  <metadata
     id="metadata18">
    <rdf:RDF>
      <cc:Work
         rdf:about="">
        <dc:format>image/svg+xml</dc:format>
        <dc:type
           rdf:resource="http://purl.org/dc/dcmitype/StillImage" />
      </cc:Work>
    </rdf:RDF>
  </metadata>
  <defs
     id="defs16" />
  <sodipodi:namedview
     pagecolor="#ffffff"
     bordercolor="#666666"
     borderopacity="1"
     objecttolerance="10"
     gridtolerance="10"
     guidetolerance="10"
     inkscape:pageopacity="0"
     inkscape:pageshadow="2"
     inkscape:window-width="783"
     inkscape:window-height="480"
     id="namedview14"
     showgrid="false"
     inkscape:zoom="4.9166667"
     inkscape:cx="24"
     inkscape:cy="24"
     inkscape:window-x="0"
     inkscape:window-y="28"
     inkscape:window-maximized="0"
     inkscape:current-layer="svg12" />
  <circle
     cx="24"
     cy="25"
     r="20"
     style="opacity:.2"
     id="circle2" />
  <circle
     cx="24"
     cy="24"
     r="20"
     style="fill:#4c566a;fill-opacity:1"
     id="circle4" />
  <path
     d="M 24,4 A 20,20 0 0 0 4,24 20,20 0 0 0 4.0215,24.582 20,20 0 0 1 24,5 20,20 0 0 1 43.979,24.418 20,20 0 0 0 44,24 20,20 0 0 0 24,4 Z"
     style="fill:#ffffff;opacity:.2"
     id="path6" />
  <path
     d="m24 7a18 18 0 0 0-18 18 18 18 0 0 0 18 18 18 18 0 0 0 18-18 18 18 0 0 0-18-18zm0 2a16 16 0 0 1 16 16 16 16 0 0 1-16 16 16 16 0 0 1-16-16 16 16 0 0 1 16-16zm-7 11c-5 0-7 1-7 1v3s1 0 1 1 1 4 5 4c6 0 5-1 6-4 0.447214-1.341641 1-2 2-2s1.552786 0.658359 2 2c1 3 0 4 6 4 4 0 5-3 5-4s1-1 1-1v-3s-1.235117-0.600634-4.130859-0.869141l-0.869141 0.869141 1 1-5 3 2-3-1-1 1-1c-3 0-5 1-7 1s-4-1-7-1zm13.167969 11.445312s-0.453568 0.676224-1.125 1.347657c-0.671433 0.671432-1.542969 1.207031-2.042969 1.207031h-2v2h2c1.5 0 2.628464-0.964401 3.457031-1.792969 0.828568-0.828567 1.375-1.652344 1.375-1.652343l-1.664062-1.109376z"
     style="opacity:.1"
     id="path8" />
  <path
     d="m24 6a18 18 0 0 0-18 18 18 18 0 0 0 18 18 18 18 0 0 0 18-18 18 18 0 0 0-18-18zm0 2a16 16 0 0 1 16 16 16 16 0 0 1-16 16 16 16 0 0 1-16-16 16 16 0 0 1 16-16zm-7 11c-5 0-7 1-7 1v3s1 0 1 1 1 4 5 4c6 0 5-1 6-4 0.447214-1.341641 1-2 2-2s1.552786 0.658359 2 2c1 3 0 4 6 4 4 0 5-3 5-4s1-1 1-1v-3s-1.235117-0.600634-4.130859-0.869141l-0.869141 0.869141 1 1-5 3 2-3-1-1 1-1c-3 0-5 1-7 1s-4-1-7-1zm13.167969 11.445312s-0.453568 0.676224-1.125 1.347657c-0.671433 0.671432-1.542969 1.207031-2.042969 1.207031h-2v2h2c1.5 0 2.628464-0.964401 3.457031-1.792969 0.828568-0.828567 1.375-1.652344 1.375-1.652343l-1.664062-1.109376z"
     style="fill:#ffffff;fill-opacity:1"
     id="path10" />
</svg>
