<?xml version="1.0" encoding="UTF-8" standalone="no"?>
<svg
   xmlns:dc="http://purl.org/dc/elements/1.1/"
   xmlns:cc="http://creativecommons.org/ns#"
   xmlns:rdf="http://www.w3.org/1999/02/22-rdf-syntax-ns#"
   xmlns:svg="http://www.w3.org/2000/svg"
   xmlns="http://www.w3.org/2000/svg"
   xmlns:sodipodi="http://sodipodi.sourceforge.net/DTD/sodipodi-0.dtd"
   xmlns:inkscape="http://www.inkscape.org/namespaces/inkscape"
   width="48"
   height="48"
   version="1.1"
   id="svg14"
   sodipodi:docname="beholder.svg"
   inkscape:version="0.92.5 (2060ec1f9f, 2020-04-08)">
  <metadata
     id="metadata20">
    <rdf:RDF>
      <cc:Work
         rdf:about="">
        <dc:format>image/svg+xml</dc:format>
        <dc:type
           rdf:resource="http://purl.org/dc/dcmitype/StillImage" />
      </cc:Work>
    </rdf:RDF>
  </metadata>
  <defs
     id="defs18" />
  <sodipodi:namedview
     pagecolor="#ffffff"
     bordercolor="#666666"
     borderopacity="1"
     objecttolerance="10"
     gridtolerance="10"
     guidetolerance="10"
     inkscape:pageopacity="0"
     inkscape:pageshadow="2"
     inkscape:window-width="640"
     inkscape:window-height="480"
     id="namedview16"
     showgrid="false"
     inkscape:zoom="4.9166667"
     inkscape:cx="24"
     inkscape:cy="24"
     inkscape:current-layer="g12" />
  <g
     transform="matrix(2,0,0,2,2,3)"
     id="g12">
    <path
       d="m12 1.5c-10 0-10 9-10 9s0 6 2 8c3 3 6 3 9 3 4 0 7-3.5 7-6v-8l1 1-1-3h1l-2-1h1l-2-1h1s-3-2-7-2z"
       style="opacity:.2"
       id="path2" />
    <path
       d="m12 1c-10 0-10 9-10 9s0 6 2 8c3 3 6 3 9 3 4 0 7-3.5 7-6v-8l1 1-1-3h1l-2-1h1l-2-1h1s-3-2-7-2z"
       style="fill:#4c566a;fill-opacity:1"
       id="path4" />
    <path
       d="m11 10.5c-2 0-3 2-3 2h7s-2-2-4-2zm8 1c-1.266666 0-3 1-3 1h4s0-1-1-1z"
       style="opacity:.2"
       id="path6" />
    <path
       d="m11 10c-2 0-3 2-3 2h7s-2-2-4-2zm8 1c-1.266666 0-3 1-3 1h4s0-1-1-1z"
       style="fill:#ffffff"
       id="path8" />
    <path
       d="m12 1c-10 0-10 9-10 9s0.00879 0.235359 0.00977 0.304688c0.0373333-0.997391 0.6215271-8.804688 9.99023-8.804688 2.707919 0 4.930768 0.9078372 6.101562 1.5h0.898438s-3-2-7-2zm6 2.5 1 0.5h1l-1-0.5zm1 1 1 0.5h1l-1-0.5zm1 1 0.75 2.25 0.25 0.25-0.833984-2.5z"
       style="fill:#ffffff;opacity:.1"
       id="path10" />
  </g>
</svg>
