<?xml version="1.0" encoding="UTF-8" standalone="no"?>
<svg
   xmlns:dc="http://purl.org/dc/elements/1.1/"
   xmlns:cc="http://creativecommons.org/ns#"
   xmlns:rdf="http://www.w3.org/1999/02/22-rdf-syntax-ns#"
   xmlns:svg="http://www.w3.org/2000/svg"
   xmlns="http://www.w3.org/2000/svg"
   xmlns:sodipodi="http://sodipodi.sourceforge.net/DTD/sodipodi-0.dtd"
   xmlns:inkscape="http://www.inkscape.org/namespaces/inkscape"
   width="48"
   height="48"
   version="1.1"
   id="svg12"
   sodipodi:docname="beyondallreason.svg"
   inkscape:version="0.92.5 (2060ec1f9f, 2020-04-08)">
  <metadata
     id="metadata18">
    <rdf:RDF>
      <cc:Work
         rdf:about="">
        <dc:format>image/svg+xml</dc:format>
        <dc:type
           rdf:resource="http://purl.org/dc/dcmitype/StillImage" />
      </cc:Work>
    </rdf:RDF>
  </metadata>
  <defs
     id="defs16" />
  <sodipodi:namedview
     pagecolor="#ffffff"
     bordercolor="#666666"
     borderopacity="1"
     objecttolerance="10"
     gridtolerance="10"
     guidetolerance="10"
     inkscape:pageopacity="0"
     inkscape:pageshadow="2"
     inkscape:window-width="783"
     inkscape:window-height="480"
     id="namedview14"
     showgrid="false"
     inkscape:zoom="4.9166667"
     inkscape:cx="24"
     inkscape:cy="24"
     inkscape:window-x="0"
     inkscape:window-y="28"
     inkscape:window-maximized="0"
     inkscape:current-layer="svg12" />
  <rect
     style="opacity:0.2"
     width="40"
     height="40"
     x="4"
     y="5"
     rx="2"
     ry="2"
     id="rect2" />
  <rect
     style="fill:#4c566a;fill-opacity:1"
     width="40"
     height="40"
     x="4"
     y="4"
     rx="2"
     ry="2"
     id="rect4" />
  <path
     style="fill:#ffffff;opacity:0.1"
     d="m6 4c-1.108 0-2 0.892-2 2v1c0-1.108 0.892-2 2-2h36c1.108 0 2 0.892 2 2v-1c0-1.108-0.892-2-2-2h-36z"
     id="path6" />
  <path
     style="opacity:0.2"
     d="m 6,18 v 4 8 4 h 2 3 3 2 1 2 1 l 1,-3 h 5.0625 L 27,34 h 2 2 L 26,18 H 24 23 21 20 L 17.490234,28.041016 C 16.806566,26.821363 15.503098,26 14,26 c 2.216,0 4,-1.784 4,-4 0,-2.216 -1.784,-4 -4,-4 H 11 8 Z m 21,0 5,16 h 1 v -7 l 4,7 h 5 l -4,-7 c 2.216,0 4,-1.784 4,-4 v -1 c 0,-2.216 -1.784,-4 -4,-4 h -5 z m -17,3 h 2 c 1.108,0 2,0.669 2,1.5 0,0.831 -0.892,1.5 -2,1.5 h -2 v -1.5 z m 23,1 h 2 c 1.108,0 2,0.669 2,1.5 0,0.831 -0.892,1.5 -2,1.5 h -2 z m -10,1 2,5 h -4 z m -13,4 h 2 c 1.108,0 2,0.669 2,1.5 0,0.831 -0.892,1.5 -2,1.5 h -2 v -1.5 z"
     id="path8" />
  <path
     style="fill:#e4e4e4"
     d="m 6,17 v 4 8 4 h 2 3 3 2 1 2 1 l 1,-3 h 5.0625 L 27,33 h 2 2 L 26,17 H 24 23 21 20 L 17.490234,27.041016 C 16.806566,25.821363 15.503098,25 14,25 c 2.216,0 4,-1.784 4,-4 0,-2.216 -1.784,-4 -4,-4 H 11 8 Z m 21,0 5,16 h 1 v -7 l 4,7 h 5 l -4,-7 c 2.216,0 4,-1.784 4,-4 v -1 c 0,-2.216 -1.784,-4 -4,-4 h -5 z m -17,3 h 2 c 1.108,0 2,0.669 2,1.5 0,0.831 -0.892,1.5 -2,1.5 h -2 v -1.5 z m 23,1 h 2 c 1.108,0 2,0.669 2,1.5 0,0.831 -0.892,1.5 -2,1.5 h -2 z m -10,1 2,5 h -4 z m -13,4 h 2 c 1.108,0 2,0.669 2,1.5 0,0.831 -0.892,1.5 -2,1.5 h -2 v -1.5 z"
     id="path10" />
</svg>
