<?xml version="1.0" encoding="UTF-8" standalone="no"?>
<svg
   xmlns:dc="http://purl.org/dc/elements/1.1/"
   xmlns:cc="http://creativecommons.org/ns#"
   xmlns:rdf="http://www.w3.org/1999/02/22-rdf-syntax-ns#"
   xmlns:svg="http://www.w3.org/2000/svg"
   xmlns="http://www.w3.org/2000/svg"
   xmlns:sodipodi="http://sodipodi.sourceforge.net/DTD/sodipodi-0.dtd"
   xmlns:inkscape="http://www.inkscape.org/namespaces/inkscape"
   width="48"
   height="48"
   version="1.1"
   id="svg12"
   sodipodi:docname="bitcoin-qt.svg"
   inkscape:version="0.92.5 (2060ec1f9f, 2020-04-08)">
  <metadata
     id="metadata18">
    <rdf:RDF>
      <cc:Work
         rdf:about="">
        <dc:format>image/svg+xml</dc:format>
        <dc:type
           rdf:resource="http://purl.org/dc/dcmitype/StillImage" />
      </cc:Work>
    </rdf:RDF>
  </metadata>
  <defs
     id="defs16" />
  <sodipodi:namedview
     pagecolor="#ffffff"
     bordercolor="#666666"
     borderopacity="1"
     objecttolerance="10"
     gridtolerance="10"
     guidetolerance="10"
     inkscape:pageopacity="0"
     inkscape:pageshadow="2"
     inkscape:window-width="640"
     inkscape:window-height="480"
     id="namedview14"
     showgrid="false"
     inkscape:zoom="4.9166667"
     inkscape:cx="24"
     inkscape:cy="24"
     inkscape:current-layer="svg12" />
  <circle
     style="fill:#4c566a;fill-opacity:1"
     cx="24"
     cy="24"
     r="20"
     id="circle2" />
  <path
     style="opacity:0.2;fill:#ffffff"
     d="M 24,4 A 20,20 0 0 0 4,24 20,20 0 0 0 4.0215,24.582 20,20 0 0 1 23.9995,5 a 20,20 0 0 1 19.979,19.418 20,20 0 0 0 0.02148,-0.4179 20,20 0 0 0 -20,-20 z"
     id="path4" />
  <path
     style="opacity:0.2"
     d="M 43.979,24.4 A 20,20 0 0 1 24,44 20,20 0 0 1 4.022,24.5 20,20 0 0 0 4,25 20,20 0 0 0 24,45 20,20 0 0 0 44,25 20,20 0 0 0 43.9785,24.4179 Z"
     id="path6" />
  <path
     style="opacity:0.2"
     d="m 19.998123,13 0,4 c -0.491694,0.02 -1.394226,0 -1.865234,0 l -3.134766,0 0,2 c 0,0 1.718836,-0.02999 1.691406,0 0.920258,-0.014 1.213314,0.654087 1.308594,1.099609 l 0,9.900391 c -0.03527,0.281551 -0.0053,0.98 -0.648438,1 0.0297,0.026 -2.351562,0 -2.351562,0 l 0,2 3.253906,0 c 0.550204,-0.02 1.214576,0 1.746094,0 l 0,4 2,-0.03711 0,-3.96289 1.96875,0 0.0625,4 2,0 -0.0625,-4 c 3.815624,-0.276952 6.033065,-2 6.033065,-4.501953 C 31.999938,27 30.554609,25 28.999938,25 c 0.561809,0 2,-2 2,-4 0,-1.722387 -1.089853,-3.444775 -3.009867,-3.889746 C 27.680605,17.038534 26.351511,17 26,17 l -0.0019,-4 -2,0 0,4 C 23.400876,17 22.606342,16.978 22,17 l -0.0019,-4 z m 2,6 c 2,0 5.000347,3.8e-5 5,2.5 3.47e-4,2.500163 -3,2.5 -5,2.5 z m 0,7 c 4,1.25e-4 6.000416,3.8e-5 6,2.5 4.16e-4,2.500163 -2,2.5 -6,2.5 z"
     id="path8" />
  <path
     style="fill:#ffffff"
     d="m 19.998123,12 0,4 c -0.491694,0.02 -1.394226,0 -1.865234,0 l -3.134766,0 0,2 c 0,0 1.718836,-0.02999 1.691406,0 0.920258,-0.014 1.213314,0.654087 1.308594,1.099609 l 0,9.900391 c -0.03527,0.281551 -0.0053,0.98 -0.648438,1 0.0297,0.026 -2.351562,0 -2.351562,0 l 0,2 3.253906,0 c 0.550204,-0.02 1.214576,0 1.746094,0 l 0,4 2,-0.03711 0,-3.96289 1.96875,0 0.0625,4 2,0 -0.0625,-4 c 3.815624,-0.276952 6.033065,-2 6.033065,-4.501953 C 31.999938,26 30.554609,24 28.999938,24 c 0.561809,0 2,-2 2,-4 0,-1.722387 -1.089853,-3.444775 -3.009867,-3.889746 C 27.680605,16.038534 26.351511,16 26,16 l -0.0019,-4 -2,0 0,4 C 23.400876,16 22.606342,15.978 22,16 l -0.0019,-4 z m 2,6 c 2,0 5.000347,3.8e-5 5,2.5 3.47e-4,2.500163 -3,2.5 -5,2.5 z m 0,7 c 4,1.25e-4 6.000416,3.8e-5 6,2.5 4.16e-4,2.500163 -2,2.5 -6,2.5 z"
     id="path10" />
</svg>
