<?xml version="1.0" encoding="UTF-8" standalone="no"?>
<svg
   xmlns:dc="http://purl.org/dc/elements/1.1/"
   xmlns:cc="http://creativecommons.org/ns#"
   xmlns:rdf="http://www.w3.org/1999/02/22-rdf-syntax-ns#"
   xmlns:svg="http://www.w3.org/2000/svg"
   xmlns="http://www.w3.org/2000/svg"
   xmlns:sodipodi="http://sodipodi.sourceforge.net/DTD/sodipodi-0.dtd"
   xmlns:inkscape="http://www.inkscape.org/namespaces/inkscape"
   width="48"
   height="48"
   version="1"
   id="svg32"
   sodipodi:docname="blogilo.svg"
   inkscape:version="0.92.5 (2060ec1f9f, 2020-04-08)">
  <metadata
     id="metadata38">
    <rdf:RDF>
      <cc:Work
         rdf:about="">
        <dc:format>image/svg+xml</dc:format>
        <dc:type
           rdf:resource="http://purl.org/dc/dcmitype/StillImage" />
      </cc:Work>
    </rdf:RDF>
  </metadata>
  <defs
     id="defs36" />
  <sodipodi:namedview
     pagecolor="#ffffff"
     bordercolor="#666666"
     borderopacity="1"
     objecttolerance="10"
     gridtolerance="10"
     guidetolerance="10"
     inkscape:pageopacity="0"
     inkscape:pageshadow="2"
     inkscape:window-width="640"
     inkscape:window-height="480"
     id="namedview34"
     showgrid="false"
     inkscape:zoom="4.9166667"
     inkscape:cx="24"
     inkscape:cy="24"
     inkscape:current-layer="svg32" />
  <path
     inkscape:connector-curvature="0"
     d="M 40.20339,41.70339 V 5.7033898 c 0,-1.108 -0.892,-2 -2,-2 h -28 c -1.1080002,0 -2.0000002,0.892 -2.0000002,2 V 41.70339 c 0,1.108 0.892,2 2.0000002,2 h 28 c 1.108,0 2,-0.892 2,-2 z"
     id="path2"
     style="fill:#4c566a;fill-opacity:1" />
  <g
     style="opacity:0.2"
     transform="matrix(0.2046,0,0,0.2046,14.20339,14.70339)"
     id="g14">
    <g
       id="g12">
      <g
         id="g10">
        <path
           inkscape:connector-curvature="0"
           d="m 36.491,40.31 c 0,0 13.827,-0.006 13.858,-0.006 3.201,0 5.82,-2.344 5.873,-5.556 0.051,-3.244 -2.537,-6.15 -5.781,-6.201 l -13.766,0.016 c -3.249,-0.031 -5.914,2.537 -5.966,5.78 -0.051,3.243 2.538,5.915 5.782,5.967 z"
           id="path4" />
        <path
           inkscape:connector-curvature="0"
           d="M 62.55,55.48 H 35.021 c -3.244,0 -5.875,2.631 -5.875,5.875 0,3.244 2.631,5.873 5.875,5.873 H 62.55 c 3.244,0 5.875,-2.629 5.875,-5.873 0,-3.244 -2.631,-5.875 -5.875,-5.875 z"
           id="path6" />
        <path
           inkscape:connector-curvature="0"
           d="M 48.875,0 C 21.883,0 0,21.882 0,48.875 0,75.868 21.883,97.75 48.875,97.75 75.867,97.75 97.75,75.868 97.75,48.875 97.75,21.882 75.867,0 48.875,0 Z m 27.902,77.021 c -3.776,3.889 -9.108,5.972 -15.42,6.024 H 36.688 c -0.155,0.002 -0.31,0.003 -0.463,0.003 -7.074,0 -12.534,-1.994 -16.227,-5.927 -3.694,-3.935 -4.878,-9.256 -4.878,-16.649 0.007,-0.51 -0.042,-1.006 -0.011,-1.496 l 0.013,-25.991 c 0.305,-6.445 3.185,-10.431 5.353,-12.713 3.503,-3.689 8.455,-5.56 14.721,-5.56 h 0.174 l 16.11,-0.012 0.15,0.004 c 10.533,0.292 18.123,7.623 18.197,17.822 0.275,3.063 0.104,5.896 -0.493,8.452 3.541,0.105 7.91,0.725 10.741,4.383 2.5,3.23 2.516,6.903 2.537,11.985 0.006,1.04 0.035,3.688 0.035,3.688 -0.068,6.579 -2.098,12.109 -5.87,15.987 z"
           id="path8" />
      </g>
    </g>
  </g>
  <g
     style="fill:#ffffff"
     transform="matrix(0.2046,0,0,0.2046,14.20339,13.70339)"
     id="g26">
    <g
       id="g24">
      <g
         id="g22">
        <path
           inkscape:connector-curvature="0"
           d="m 36.491,40.31 c 0,0 13.827,-0.006 13.858,-0.006 3.201,0 5.82,-2.344 5.873,-5.556 0.051,-3.244 -2.537,-6.15 -5.781,-6.201 l -13.766,0.016 c -3.249,-0.031 -5.914,2.537 -5.966,5.78 -0.051,3.243 2.538,5.915 5.782,5.967 z"
           id="path16" />
        <path
           inkscape:connector-curvature="0"
           d="M 62.55,55.48 H 35.021 c -3.244,0 -5.875,2.631 -5.875,5.875 0,3.244 2.631,5.873 5.875,5.873 H 62.55 c 3.244,0 5.875,-2.629 5.875,-5.873 0,-3.244 -2.631,-5.875 -5.875,-5.875 z"
           id="path18" />
        <path
           inkscape:connector-curvature="0"
           d="M 48.875,0 C 21.883,0 0,21.882 0,48.875 0,75.868 21.883,97.75 48.875,97.75 75.867,97.75 97.75,75.868 97.75,48.875 97.75,21.882 75.867,0 48.875,0 Z m 27.902,77.021 c -3.776,3.889 -9.108,5.972 -15.42,6.024 H 36.688 c -0.155,0.002 -0.31,0.003 -0.463,0.003 -7.074,0 -12.534,-1.994 -16.227,-5.927 -3.694,-3.935 -4.878,-9.256 -4.878,-16.649 0.007,-0.51 -0.042,-1.006 -0.011,-1.496 l 0.013,-25.991 c 0.305,-6.445 3.185,-10.431 5.353,-12.713 3.503,-3.689 8.455,-5.56 14.721,-5.56 h 0.174 l 16.11,-0.012 0.15,0.004 c 10.533,0.292 18.123,7.623 18.197,17.822 0.275,3.063 0.104,5.896 -0.493,8.452 3.541,0.105 7.91,0.725 10.741,4.383 2.5,3.23 2.516,6.903 2.537,11.985 0.006,1.04 0.035,3.688 0.035,3.688 -0.068,6.579 -2.098,12.109 -5.87,15.987 z"
           id="path20" />
      </g>
    </g>
  </g>
  <path
     inkscape:connector-curvature="0"
     style="opacity:0.2;fill:#ffffff"
     d="m 10.20339,3.7033898 c -1.1080002,0 -2.0000002,0.892 -2.0000002,2 v 1 c 0,-1.108 0.892,-2 2.0000002,-2 h 28 c 1.108,0 2,0.892 2,2 v -1 c 0,-1.108 -0.892,-2 -2,-2 z"
     id="path28" />
  <path
     inkscape:connector-curvature="0"
     style="opacity:0.2"
     d="m 8.2033898,41.70339 v 1 c 0,1.108 0.892,2 2.0000002,2 h 28 c 1.108,0 2,-0.892 2,-2 v -1 c 0,1.108 -0.892,2 -2,2 h -28 c -1.1080002,0 -2.0000002,-0.892 -2.0000002,-2 z"
     id="path30" />
</svg>
