<?xml version="1.0" encoding="UTF-8" standalone="no"?>
<svg
   xmlns:dc="http://purl.org/dc/elements/1.1/"
   xmlns:cc="http://creativecommons.org/ns#"
   xmlns:rdf="http://www.w3.org/1999/02/22-rdf-syntax-ns#"
   xmlns:svg="http://www.w3.org/2000/svg"
   xmlns="http://www.w3.org/2000/svg"
   xmlns:sodipodi="http://sodipodi.sourceforge.net/DTD/sodipodi-0.dtd"
   xmlns:inkscape="http://www.inkscape.org/namespaces/inkscape"
   width="48"
   height="48"
   version="1"
   id="svg22"
   sodipodi:docname="bluejeans.svg"
   inkscape:version="0.92.5 (2060ec1f9f, 2020-04-08)">
  <metadata
     id="metadata28">
    <rdf:RDF>
      <cc:Work
         rdf:about="">
        <dc:format>image/svg+xml</dc:format>
        <dc:type
           rdf:resource="http://purl.org/dc/dcmitype/StillImage" />
      </cc:Work>
    </rdf:RDF>
  </metadata>
  <defs
     id="defs26" />
  <sodipodi:namedview
     pagecolor="#ffffff"
     bordercolor="#666666"
     borderopacity="1"
     objecttolerance="10"
     gridtolerance="10"
     guidetolerance="10"
     inkscape:pageopacity="0"
     inkscape:pageshadow="2"
     inkscape:window-width="640"
     inkscape:window-height="480"
     id="namedview24"
     showgrid="false"
     inkscape:zoom="4.9166667"
     inkscape:cx="24"
     inkscape:cy="24"
     inkscape:current-layer="svg22" />
  <path
     style="opacity:0.2"
     d="m 38,16 6,-5 v 28 l -6,-5 z"
     id="path2" />
  <rect
     style="opacity:0.2"
     width="34"
     height="34"
     x="4"
     y="8"
     rx="4"
     ry="4"
     id="rect4" />
  <rect
     style="fill:#4c566a;fill-opacity:1"
     width="34"
     height="34"
     x="4"
     y="7"
     rx="4"
     ry="4"
     id="rect6" />
  <path
     style="opacity:0.2"
     d="m 12,14 v 9 4 9 h 12 c 3.313708,0 6,-3.186292 6,-6.5 C 30,27.839381 29.324515,26.211649 28.234375,25 29.324515,23.788351 30,22.160619 30,20.5 30,17.186292 27.313708,14 24,14 Z m 4,4 h 8 c 1.151948,0 2,1.348052 2,2.5 0,1.151948 -0.848052,2.5 -2,2.5 h -8 z m 0,9 h 8 c 1.151948,0 2,1.348052 2,2.5 0,1.151948 -0.848052,2.5 -2,2.5 h -8 z"
     id="path8" />
  <path
     style="fill:#ffffff"
     d="m 12,13 v 13 h 12 c 3.313708,0 6,-3.186292 6,-6.5 C 30,16.186292 27.313708,13 24,13 Z m 4,4 h 8 c 1.151948,0 2,1.348052 2,2.5 0,1.151948 -0.848052,2.5 -2,2.5 h -8 z"
     id="path10" />
  <rect
     fill="none"
     width="32"
     height="32"
     x="8"
     y="7.99"
     id="rect12" />
  <path
     style="fill:#4c566a;fill-opacity:1"
     d="m 38,15 6,-5 v 28 l -6,-5 z"
     id="path14" />
  <path
     style="fill:#ffffff"
     d="m 12,22 v 13 h 12 c 3.313708,0 6,-3.186292 6,-6.5 C 30,25.186292 27.313708,22 24,22 Z m 4,4 h 8 c 1.151948,0 2,1.348052 2,2.5 0,1.151948 -0.848052,2.5 -2,2.5 h -8 z"
     id="path16" />
  <path
     style="opacity:0.1;fill:#ffffff"
     d="M 8 7 C 5.784 7 4 8.784 4 11 L 4 12 C 4 9.784 5.784 8 8 8 L 34 8 C 36.216 8 38 9.784 38 12 L 38 11 C 38 8.784 36.216 7 34 7 L 8 7 z"
     id="path18" />
  <path
     style="opacity:0.1;fill:#ffffff"
     d="M 44 10 L 38 15 L 38 16 L 44 11 L 44 10 z"
     id="path20" />
</svg>
