<?xml version="1.0" encoding="UTF-8" standalone="no"?>
<svg
   xmlns:dc="http://purl.org/dc/elements/1.1/"
   xmlns:cc="http://creativecommons.org/ns#"
   xmlns:rdf="http://www.w3.org/1999/02/22-rdf-syntax-ns#"
   xmlns:svg="http://www.w3.org/2000/svg"
   xmlns="http://www.w3.org/2000/svg"
   xmlns:sodipodi="http://sodipodi.sourceforge.net/DTD/sodipodi-0.dtd"
   xmlns:inkscape="http://www.inkscape.org/namespaces/inkscape"
   width="48"
   height="48"
   version="1"
   id="svg24"
   sodipodi:docname="box.svg"
   inkscape:version="0.92.5 (2060ec1f9f, 2020-04-08)">
  <metadata
     id="metadata30">
    <rdf:RDF>
      <cc:Work
         rdf:about="">
        <dc:format>image/svg+xml</dc:format>
        <dc:type
           rdf:resource="http://purl.org/dc/dcmitype/StillImage" />
      </cc:Work>
    </rdf:RDF>
  </metadata>
  <defs
     id="defs28" />
  <sodipodi:namedview
     pagecolor="#ffffff"
     bordercolor="#666666"
     borderopacity="1"
     objecttolerance="10"
     gridtolerance="10"
     guidetolerance="10"
     inkscape:pageopacity="0"
     inkscape:pageshadow="2"
     inkscape:window-width="640"
     inkscape:window-height="480"
     id="namedview26"
     showgrid="false"
     inkscape:zoom="4.9166667"
     inkscape:cx="24"
     inkscape:cy="24"
     inkscape:current-layer="svg24" />
  <rect
     width="40"
     height="40"
     x="4"
     y="3.9067798"
     rx="2"
     ry="2"
     id="rect2"
     style="fill:#4c566a;fill-opacity:1" />
  <path
     inkscape:connector-curvature="0"
     style="opacity:0.2;fill:#ffffff"
     d="m 6,3.9067797 c -1.108,0 -2,0.892 -2,2 v 1 c 0,-1.108 0.892,-2 2,-2 h 36 c 1.108,0 2,0.892 2,2 v -1 c 0,-1.108 -0.892,-2 -2,-2 z"
     id="path4" />
  <path
     inkscape:connector-curvature="0"
     style="opacity:0.2"
     d="m 6,44.90678 c -1.108,0 -2,-0.892 -2,-2 v -1 c 0,1.108 0.892,2 2,2 h 36 c 1.108,0 2,-0.892 2,-2 v 1 c 0,1.108 -0.892,2 -2,2 z"
     id="path6" />
  <g
     style="opacity:0.2"
     transform="translate(0,0.90677966)"
     id="g14">
    <path
       inkscape:connector-curvature="0"
       d="m 24,17 a 7,7 0 0 0 -7,7 7,7 0 0 0 7,7 7,7 0 0 0 7,-7 7,7 0 0 0 -7,-7 z m 0,3 a 4,4 0 0 1 4,4 4,4 0 0 1 -4,4 4,4 0 0 1 -4,-4 4,4 0 0 1 4,-4 z"
       id="path8" />
    <path
       inkscape:connector-curvature="0"
       d="M 7.457,23 C 6.65,23 6,23.62 6,24.391 v 11.218 c 0,0.16976 0.035988,0.32835 0.09375,0.47852 a 7,7 0 0 0 6.9062,5.912 7,7 0 0 0 7,-7 7,7 0 0 0 -7,-7 7,7 0 0 0 -4,1.258 v -4.867 c 0,-0.771 -0.65,-1.391 -1.457,-1.391 H 7.457012 Z M 13,31 a 4,4 0 0 1 4,4 4,4 0 0 1 -4,4 4,4 0 0 1 -4,-4 4,4 0 0 1 4,-4 z"
       id="path10" />
    <path
       inkscape:connector-curvature="0"
       d="M 41.716,6.2234 C 41.145,5.6527 40.184,5.6944 39.561,6.3173 l -3.472,3.472 -3.472,-3.472 C 31.994,5.6944 31.034,5.6527 30.463,6.2234 l -0.06077,0.060767 c -0.57068,0.57068 -0.52905,1.5315 0.09392,2.1545 l 3.472,3.472 -3.472,3.472 c -0.62297,0.62297 -0.6646,1.5838 -0.09391,2.1545 l 0.06077,0.06077 c 0.57068,0.57068 1.5315,0.52905 2.1545,-0.09391 l 3.472,-3.472 3.472,3.472 c 0.62297,0.62297 1.5838,0.6646 2.1545,0.09391 l 0.06077,-0.06077 c 0.57068,-0.57068 0.52905,-1.5315 -0.09391,-2.1545 l -3.472,-3.472 3.472,-3.472 c 0.62297,-0.62297 0.6646,-1.5838 0.09391,-2.1545 L 41.71601,6.2234 Z"
       id="path12" />
  </g>
  <g
     transform="translate(0,-0.09322034)"
     style="fill:#ffffff"
     id="g22">
    <path
       inkscape:connector-curvature="0"
       d="m 24,17 a 7,7 0 0 0 -7,7 7,7 0 0 0 7,7 7,7 0 0 0 7,-7 7,7 0 0 0 -7,-7 z m 0,3 a 4,4 0 0 1 4,4 4,4 0 0 1 -4,4 4,4 0 0 1 -4,-4 4,4 0 0 1 4,-4 z"
       id="path16" />
    <path
       inkscape:connector-curvature="0"
       d="M 7.457,23 C 6.65,23 6,23.62 6,24.391 v 11.218 c 0,0.17 0.036,0.329 0.0938,0.479 A 7,7 0 0 0 13,42 7,7 0 0 0 20,35 7,7 0 0 0 13,28 7,7 0 0 0 9,29.258 V 24.391 C 9,23.62 8.35,23 7.543,23 Z M 13,31 a 4,4 0 0 1 4,4 4,4 0 0 1 -4,4 4,4 0 0 1 -4,-4 4,4 0 0 1 4,-4 z"
       id="path18" />
    <path
       inkscape:connector-curvature="0"
       d="M 41.716,6.2234 C 41.145,5.6527 40.184,5.6944 39.561,6.3173 l -3.472,3.472 -3.472,-3.472 C 31.994,5.6944 31.034,5.6527 30.463,6.2234 l -0.06077,0.060767 c -0.57068,0.57068 -0.52905,1.5315 0.09392,2.1545 l 3.472,3.472 -3.472,3.472 c -0.62297,0.62297 -0.6646,1.5838 -0.09391,2.1545 l 0.06077,0.06077 c 0.57068,0.57068 1.5315,0.52905 2.1545,-0.09391 l 3.472,-3.472 3.472,3.472 c 0.62297,0.62297 1.5838,0.6646 2.1545,0.09391 l 0.06077,-0.06077 c 0.57068,-0.57068 0.52905,-1.5315 -0.09391,-2.1545 l -3.472,-3.472 3.472,-3.472 c 0.62297,-0.62297 0.6646,-1.5838 0.09391,-2.1545 L 41.71601,6.2234 Z"
       id="path20" />
  </g>
</svg>
