<?xml version="1.0" encoding="UTF-8" standalone="no"?>
<svg
   xmlns:dc="http://purl.org/dc/elements/1.1/"
   xmlns:cc="http://creativecommons.org/ns#"
   xmlns:rdf="http://www.w3.org/1999/02/22-rdf-syntax-ns#"
   xmlns:svg="http://www.w3.org/2000/svg"
   xmlns="http://www.w3.org/2000/svg"
   xmlns:sodipodi="http://sodipodi.sourceforge.net/DTD/sodipodi-0.dtd"
   xmlns:inkscape="http://www.inkscape.org/namespaces/inkscape"
   width="48"
   height="48"
   version="1.1"
   id="svg12"
   sodipodi:docname="com.brosix.Brosix.svg"
   inkscape:version="0.92.5 (2060ec1f9f, 2020-04-08)">
  <metadata
     id="metadata18">
    <rdf:RDF>
      <cc:Work
         rdf:about="">
        <dc:format>image/svg+xml</dc:format>
        <dc:type
           rdf:resource="http://purl.org/dc/dcmitype/StillImage" />
      </cc:Work>
    </rdf:RDF>
  </metadata>
  <defs
     id="defs16" />
  <sodipodi:namedview
     pagecolor="#ffffff"
     bordercolor="#666666"
     borderopacity="1"
     objecttolerance="10"
     gridtolerance="10"
     guidetolerance="10"
     inkscape:pageopacity="0"
     inkscape:pageshadow="2"
     inkscape:window-width="783"
     inkscape:window-height="480"
     id="namedview14"
     showgrid="false"
     inkscape:zoom="4.9166667"
     inkscape:cx="-1.1186441"
     inkscape:cy="24"
     inkscape:window-x="0"
     inkscape:window-y="28"
     inkscape:window-maximized="0"
     inkscape:current-layer="svg12" />
  <rect
     x="4"
     y="5"
     width="40"
     height="40"
     ry="12"
     style="opacity:.2"
     id="rect2" />
  <rect
     x="4"
     y="4"
     width="40"
     height="40"
     ry="12"
     style="fill:#4c566a;fill-opacity:1"
     id="rect4" />
  <path
     d="m16 4c-6.648 0-12 5.352-12 12v1c0-6.648 5.352-12 12-12h16c6.648 0 12 5.352 12 12v-1c0-6.648-5.352-12-12-12z"
     style="fill:#ffffff;opacity:.2"
     id="path6" />
  <path
     d="m24 11c-7.731986 0-14 6.268014-14 14s6.268014 14 14 14 14-6.268014 14-14-6.268014-14-14-14zm0 2c6.627417 0 12 5.372583 12 12s-5.372583 12-12 12c-3.166876-0.0036-6.203954-1.258827-8.449219-3.492188 0.449219-0.507812 1.449219-1.507812 2.449219-1.507812h12s2 0 2-2v-3c0-2-2-2-2-2s2 0 2-2v-3c0-2-2-2-2-2h-12c-1 0-2-1-2.453125-1.507812 2.246225-2.234314 5.284896-3.489661 8.453125-3.492188zm-4 7h7c1.108 0 2 0.5 2 1.5 0 1.108-0.892 1.5-2 1.5h-7zm0 7h7c1.108 0 2 0.392 2 1.5s-0.892 1.5-2 1.5h-7z"
     style="opacity:.2"
     id="path8" />
  <path
     d="m24 10c-7.731986 0-14 6.268014-14 14s6.268014 14 14 14 14-6.268014 14-14-6.268014-14-14-14zm0 2c6.627417 0 12 5.372583 12 12s-5.372583 12-12 12c-3.166876-0.0036-6.203954-1.258827-8.449219-3.492188 0.449219-0.507812 1.449219-1.507812 2.449219-1.507812h12s2 0 2-2v-3c0-2-2-2-2-2s2 0 2-2v-3c0-2-2-2-2-2h-12c-1 0-2-1-2.453125-1.507812 2.246225-2.234314 5.284896-3.489661 8.453125-3.492188zm-4 7h7c1.108 0 2 0.5 2 1.5 0 1.108-0.892 1.5-2 1.5h-7zm0 7h7c1.108 0 2 0.392 2 1.5s-0.892 1.5-2 1.5h-7z"
     style="fill:#ffffff"
     id="path10" />
</svg>
