<?xml version="1.0" encoding="UTF-8" standalone="no"?>
<svg
   xmlns:dc="http://purl.org/dc/elements/1.1/"
   xmlns:cc="http://creativecommons.org/ns#"
   xmlns:rdf="http://www.w3.org/1999/02/22-rdf-syntax-ns#"
   xmlns:svg="http://www.w3.org/2000/svg"
   xmlns="http://www.w3.org/2000/svg"
   xmlns:sodipodi="http://sodipodi.sourceforge.net/DTD/sodipodi-0.dtd"
   xmlns:inkscape="http://www.inkscape.org/namespaces/inkscape"
   width="48"
   height="48"
   version="1.1"
   id="svg12"
   sodipodi:docname="appimagekit-cacher.svg"
   inkscape:version="0.92.5 (2060ec1f9f, 2020-04-08)">
  <metadata
     id="metadata18">
    <rdf:RDF>
      <cc:Work
         rdf:about="">
        <dc:format>image/svg+xml</dc:format>
        <dc:type
           rdf:resource="http://purl.org/dc/dcmitype/StillImage" />
      </cc:Work>
    </rdf:RDF>
  </metadata>
  <defs
     id="defs16" />
  <sodipodi:namedview
     pagecolor="#ffffff"
     bordercolor="#666666"
     borderopacity="1"
     objecttolerance="10"
     gridtolerance="10"
     guidetolerance="10"
     inkscape:pageopacity="0"
     inkscape:pageshadow="2"
     inkscape:window-width="783"
     inkscape:window-height="480"
     id="namedview14"
     showgrid="false"
     inkscape:zoom="4.9166667"
     inkscape:cx="24"
     inkscape:cy="24"
     inkscape:window-x="0"
     inkscape:window-y="28"
     inkscape:window-maximized="0"
     inkscape:current-layer="svg12" />
  <circle
     style="opacity:0.2"
     cx="24"
     cy="25"
     r="20"
     id="circle2" />
  <circle
     style="fill:#4c566a;fill-opacity:1"
     cx="24"
     cy="24"
     r="20"
     id="circle4" />
  <path
     style="opacity:0.2;fill:#ffffff"
     d="M 24,4 A 20,20 0 0 0 4,24 20,20 0 0 0 4.0215,24.582 20,20 0 0 1 24,5 20,20 0 0 1 43.979,24.418 20,20 0 0 0 44,24 20,20 0 0 0 24,4 Z"
     id="path6" />
  <path
     style="opacity:0.2"
     d="m 25,15 -6,18 h 3.164062 l 6,-18 z m -7,4.855469 -0.613281,0.27539 -8.4003909,3.763672 0.00391,2.738281 8.4003909,3.738282 L 18,30.642578 V 27.357422 L 13.279297,25.257812 18,23.144531 Z m 11,0 v 3.289062 L 33.720703,25.257812 29,27.357422 v 3.285156 l 0.609375,-0.271484 8.400391,-3.738282 0.0039,-2.738281 -8.400391,-3.763672 z"
     id="path8" />
  <path
     style="fill:#ffffff"
     d="m 25,14 -6,18 h 3.164062 l 6,-18 z m -7,4.855469 -0.613281,0.27539 -8.4003909,3.763672 0.00391,2.738281 8.4003906,3.738282 L 18,29.642578 V 26.357422 L 13.279297,24.257812 18,22.144531 Z m 11,0 v 3.289062 L 33.720703,24.257812 29,26.357422 v 3.285156 l 0.609375,-0.271484 8.400391,-3.738282 0.0039,-2.738281 -8.400391,-3.763672 z"
     id="path10" />
</svg>
