<?xml version="1.0" encoding="UTF-8" standalone="no"?>
<svg
   xmlns:dc="http://purl.org/dc/elements/1.1/"
   xmlns:cc="http://creativecommons.org/ns#"
   xmlns:rdf="http://www.w3.org/1999/02/22-rdf-syntax-ns#"
   xmlns:svg="http://www.w3.org/2000/svg"
   xmlns="http://www.w3.org/2000/svg"
   xmlns:sodipodi="http://sodipodi.sourceforge.net/DTD/sodipodi-0.dtd"
   xmlns:inkscape="http://www.inkscape.org/namespaces/inkscape"
   width="48"
   height="48"
   version="1"
   id="svg20"
   sodipodi:docname="com.calibre_ebook.calibre.ebook-edit.svg"
   inkscape:version="0.92.5 (2060ec1f9f, 2020-04-08)">
  <metadata
     id="metadata26">
    <rdf:RDF>
      <cc:Work
         rdf:about="">
        <dc:format>image/svg+xml</dc:format>
        <dc:type
           rdf:resource="http://purl.org/dc/dcmitype/StillImage" />
      </cc:Work>
    </rdf:RDF>
  </metadata>
  <defs
     id="defs24" />
  <sodipodi:namedview
     pagecolor="#ffffff"
     bordercolor="#666666"
     borderopacity="1"
     objecttolerance="10"
     gridtolerance="10"
     guidetolerance="10"
     inkscape:pageopacity="0"
     inkscape:pageshadow="2"
     inkscape:window-width="783"
     inkscape:window-height="480"
     id="namedview22"
     showgrid="false"
     inkscape:zoom="6.9532167"
     inkscape:cx="21.985967"
     inkscape:cy="24.561332"
     inkscape:window-x="0"
     inkscape:window-y="28"
     inkscape:window-maximized="0"
     inkscape:current-layer="svg20" />
  <path
     fill="#009587"
     d="m10 4c-1.108 0-2 0.892-2 2v36c0 1.108 0.892 2 2 2h28c1.108 0 2-0.892 2-2v-36c0-1.108-0.892-2-2-2h-28z"
     id="path2"
     style="fill:#4c566a;fill-opacity:1" />
  <path
     opacity=".2"
     d="m10 4c-1.108 0-2 0.892-2 2v36c0 1.108 0.892 2 2 2h3.9785v-40h-3.978z"
     id="path4" />
  <path
     opacity=".2"
     d="m31.979 4c-1 0-1 1-1 1v16.5l2.5-1.5 2.5 1.5v-16.5c0-1-1-1-1-1z"
     id="path6" />
  <path
     fill="#d8d8d8"
     d="m30.979 4v16.5l2.5-1.5 2.5 1.5v-16.5h-5z"
     id="path8" />
  <path
     fill="#fff"
     opacity=".2"
     d="m10 4c-1.108 0-2 0.892-2 2v1c0-1.108 0.892-2 2-2h28c1.108 0 2 0.892 2 2v-1c0-1.108-0.892-2-2-2h-28z"
     id="path10" />
  <path
     opacity=".2"
     d="m8 42v1c0 1.108 0.892 2 2 2h28c1.108 0 2-0.892 2-2v-1c0 1.108-0.892 2-2 2h-28c-1.108 0-2-0.892-2-2z"
     id="path12" />
  <circle
     opacity=".2"
     cx="36"
     cy="37"
     r="11"
     id="circle14" />
  <circle
     fill="#8561c5"
     cx="36"
     cy="36"
     r="11"
     id="circle16"
     style="fill:#5f697d;fill-opacity:1" />
  <path
     fill="#fff"
     d="m34.447 29.999-0.13226 1.5804a4.7143 4.7143 0 0 0 -1.3778 0.79689l-1.4364-0.67635-1.5 2.5982 1.3041 0.9057a4.7143 4.7143 0 0 0 -0.072 0.7952 4.7143 4.7143 0 0 0 0.0686 0.79855l-1.301 0.903 1.5 2.5982 1.433-0.67466a4.7143 4.7143 0 0 0 1.3811 0.79185l0.131 1.584h3l0.13225-1.5804a4.7143 4.7143 0 0 0 1.3778 -0.79688l1.4364 0.67634 1.5-2.5982-1.3041-0.9057a4.7143 4.7143 0 0 0 0.072 -0.79519 4.7143 4.7143 0 0 0 -0.0686 -0.79855l1.3008-0.90235-1.5-2.5982-1.433 0.67467a4.7143 4.7143 0 0 0 -1.381 -0.79l-0.13225-1.5837h-3zm1.5 4.2857a1.7143 1.7143 0 0 1 1.7143 1.7143 1.7143 1.7143 0 0 1 -1.7143 1.7143 1.7143 1.7143 0 0 1 -1.7143 -1.7143 1.7143 1.7143 0 0 1 1.7143 -1.7143z"
     id="path18" />
</svg>
