<?xml version="1.0" encoding="UTF-8" standalone="no"?>
<svg
   xmlns:dc="http://purl.org/dc/elements/1.1/"
   xmlns:cc="http://creativecommons.org/ns#"
   xmlns:rdf="http://www.w3.org/1999/02/22-rdf-syntax-ns#"
   xmlns:svg="http://www.w3.org/2000/svg"
   xmlns="http://www.w3.org/2000/svg"
   xmlns:sodipodi="http://sodipodi.sourceforge.net/DTD/sodipodi-0.dtd"
   xmlns:inkscape="http://www.inkscape.org/namespaces/inkscape"
   width="48"
   height="48"
   version="1.1"
   id="svg14"
   sodipodi:docname="cantata.svg"
   inkscape:version="0.92.5 (2060ec1f9f, 2020-04-08)">
  <metadata
     id="metadata20">
    <rdf:RDF>
      <cc:Work
         rdf:about="">
        <dc:format>image/svg+xml</dc:format>
        <dc:type
           rdf:resource="http://purl.org/dc/dcmitype/StillImage" />
      </cc:Work>
    </rdf:RDF>
  </metadata>
  <defs
     id="defs18" />
  <sodipodi:namedview
     pagecolor="#ffffff"
     bordercolor="#666666"
     borderopacity="1"
     objecttolerance="10"
     gridtolerance="10"
     guidetolerance="10"
     inkscape:pageopacity="0"
     inkscape:pageshadow="2"
     inkscape:window-width="783"
     inkscape:window-height="480"
     id="namedview16"
     showgrid="false"
     inkscape:zoom="4.9166667"
     inkscape:cx="31.290256"
     inkscape:cy="31.894225"
     inkscape:window-x="0"
     inkscape:window-y="28"
     inkscape:window-maximized="0"
     inkscape:current-layer="svg14" />
  <path
     style="opacity:0.2"
     d="m 43.999687,25.111883 a 20,20 0 1 0 -39.9993741,0 20,20 0 0 0 39.9993741,0"
     id="path2" />
  <path
     style="fill:#4c566a;fill-opacity:1"
     d="m 43.999687,24.111885 a 20,20 0 1 0 -39.9993741,0 20,20 0 0 0 39.9993741,0"
     id="path4" />
  <path
     style="opacity:0.2"
     d="m 9.0000002,24.999998 c 0,8.271058 6.7289428,15 15.0000008,15 8.271057,0 14.999999,-6.728942 14.999999,-15 0,-8.271057 -6.728942,-14.9999996 -14.999999,-14.9999996 -8.271058,0 -15.0000008,6.7289426 -15.0000008,14.9999996 z"
     id="path6" />
  <path
     style="fill:#ffffff"
     d="m 9.0000002,24 c 0,8.271058 6.7289428,15 15.0000008,15 C 32.271058,39 39,32.271058 39,24 39,15.728943 32.271058,9 24.000001,9 15.728943,9 9.0000002,15.728943 9.0000002,24 Z"
     id="path8" />
  <path
     style="fill:#4c566a;fill-opacity:1"
     d="M 24,13.047608 24,24.52 C 23.038743,24.179895 22.072716,24.001674 21,24 c -3.865993,0 -7,2.238576 -7,5 0,2.761424 3.134007,5 7,5 3.865993,0 7,-2.238576 7,-5 l 0,-12 c 0,0 5.170151,3.396669 2.812469,5.558594 -0.647519,0.371426 -0.859843,0.94549 -0.746094,1.445312 0.172736,0.759022 1.096039,1.348662 2.378906,0.802735 C 34.372817,23.801668 35,22 35,20.5 35,16 29,12 25,12 c -1,0 -1,1.047608 -1,1.047608 z"
     id="path10" />
  <path
     style="opacity:0.1;fill:#ffffff"
     d="M 23.527043,4.0058594 A 19.999692,20 0 0 0 4,24.111328 19.999692,20 0 0 0 4.0156248,24.378906 19.999692,20 0 0 1 43.983759,24.75 19.999692,20 0 0 0 43.999383,24.111328 19.999692,20 0 0 0 23.527043,4.0058594 Z"
     id="path12" />
</svg>
