<?xml version="1.0" encoding="UTF-8" standalone="no"?>
<svg
   xmlns:dc="http://purl.org/dc/elements/1.1/"
   xmlns:cc="http://creativecommons.org/ns#"
   xmlns:rdf="http://www.w3.org/1999/02/22-rdf-syntax-ns#"
   xmlns:svg="http://www.w3.org/2000/svg"
   xmlns="http://www.w3.org/2000/svg"
   xmlns:sodipodi="http://sodipodi.sourceforge.net/DTD/sodipodi-0.dtd"
   xmlns:inkscape="http://www.inkscape.org/namespaces/inkscape"
   width="48"
   height="48"
   version="1"
   id="svg24"
   sodipodi:docname="cdbaby.svg"
   inkscape:version="0.92.5 (2060ec1f9f, 2020-04-08)">
  <metadata
     id="metadata30">
    <rdf:RDF>
      <cc:Work
         rdf:about="">
        <dc:format>image/svg+xml</dc:format>
        <dc:type
           rdf:resource="http://purl.org/dc/dcmitype/StillImage" />
      </cc:Work>
    </rdf:RDF>
  </metadata>
  <defs
     id="defs28" />
  <sodipodi:namedview
     pagecolor="#ffffff"
     bordercolor="#666666"
     borderopacity="1"
     objecttolerance="10"
     gridtolerance="10"
     guidetolerance="10"
     inkscape:pageopacity="0"
     inkscape:pageshadow="2"
     inkscape:window-width="783"
     inkscape:window-height="480"
     id="namedview26"
     showgrid="false"
     inkscape:zoom="4.9166667"
     inkscape:cx="24"
     inkscape:cy="24"
     inkscape:window-x="0"
     inkscape:window-y="28"
     inkscape:window-maximized="0"
     inkscape:current-layer="svg24" />
  <rect
     fill="#4f4f4f"
     width="40"
     height="40"
     x="4"
     y="4"
     rx="2"
     ry="2"
     id="rect2"
     style="fill:#4c566a;fill-opacity:1" />
  <path
     fill="#fff"
     opacity=".1"
     d="m6 4c-1.108 0-2 0.892-2 2v1c0-1.108 0.892-2 2-2h36c1.108 0 2 0.892 2 2v-1c0-1.108-0.892-2-2-2h-36z"
     id="path4" />
  <path
     opacity=".2"
     d="m6 45c-1.108 0-2-0.892-2-2v-1c0 1.108 0.892 2 2 2h36c1.108 0 2-0.892 2-2v1c0 1.108-0.892 2-2 2h-36z"
     id="path6" />
  <g
     opacity=".2"
     transform="translate(-6,-6)"
     id="g14">
    <path
       d="m16 15 8 4.5 8 4.5-8 4.5-8 4.5v-18z"
       id="path8" />
    <path
       d="m34 24 6 3.5 6 3.5-6 3.5-6 3.5v-14z"
       id="path10" />
    <path
       d="m20 32 7 4 7 4-7 4-7 4v-16z"
       id="path12" />
  </g>
  <g
     fill="#b0b0b0"
     transform="translate(-6,-7)"
     id="g22"
     style="fill:#ffffff;fill-opacity:1">
    <path
       d="m16 15 8 4.5 8 4.5-8 4.5-8 4.5v-18z"
       id="path16"
       style="fill:#ffffff;fill-opacity:1" />
    <path
       d="m34 24 6 3.5 6 3.5-6 3.5-6 3.5v-14z"
       id="path18"
       style="fill:#ffffff;fill-opacity:1" />
    <path
       d="m20 32 7 4 7 4-7 4-7 4v-16z"
       id="path20"
       style="fill:#ffffff;fill-opacity:1" />
  </g>
</svg>
