<?xml version="1.0" encoding="UTF-8" standalone="no"?>
<svg
   xmlns:dc="http://purl.org/dc/elements/1.1/"
   xmlns:cc="http://creativecommons.org/ns#"
   xmlns:rdf="http://www.w3.org/1999/02/22-rdf-syntax-ns#"
   xmlns:svg="http://www.w3.org/2000/svg"
   xmlns="http://www.w3.org/2000/svg"
   xmlns:sodipodi="http://sodipodi.sourceforge.net/DTD/sodipodi-0.dtd"
   xmlns:inkscape="http://www.inkscape.org/namespaces/inkscape"
   width="48"
   height="48"
   version="1.1"
   id="svg16"
   sodipodi:docname="appimagekit-chiaki.svg"
   inkscape:version="0.92.5 (2060ec1f9f, 2020-04-08)">
  <metadata
     id="metadata22">
    <rdf:RDF>
      <cc:Work
         rdf:about="">
        <dc:format>image/svg+xml</dc:format>
        <dc:type
           rdf:resource="http://purl.org/dc/dcmitype/StillImage" />
      </cc:Work>
    </rdf:RDF>
  </metadata>
  <defs
     id="defs20" />
  <sodipodi:namedview
     pagecolor="#ffffff"
     bordercolor="#666666"
     borderopacity="1"
     objecttolerance="10"
     gridtolerance="10"
     guidetolerance="10"
     inkscape:pageopacity="0"
     inkscape:pageshadow="2"
     inkscape:window-width="783"
     inkscape:window-height="480"
     id="namedview18"
     showgrid="false"
     inkscape:zoom="4.9166667"
     inkscape:cx="24"
     inkscape:cy="24"
     inkscape:window-x="0"
     inkscape:window-y="28"
     inkscape:window-maximized="0"
     inkscape:current-layer="svg16" />
  <circle
     style="opacity:.2"
     cx="24"
     cy="25"
     r="20"
     id="circle2" />
  <circle
     style="fill:#4c566a;fill-opacity:1"
     cx="24"
     cy="24"
     r="20"
     id="circle4" />
  <path
     style="fill:#ffffff;opacity:.2"
     d="M 24,4 A 20,20 0 0 0 4,24 20,20 0 0 0 4.0215,24.582 20,20 0 0 1 24,5 20,20 0 0 1 43.979,24.418 20,20 0 0 0 44,24 20,20 0 0 0 24,4 Z"
     id="path6" />
  <path
     style="opacity:.2"
     d="m18 9c-4 0-6 2-6 2l1 1s2-2 5-2 5 2 5 2l1-1s-2-2-6-2zm0 3c-1.374369 0-4 1-4 1l1 1s1.945907-1 3-1 3 1 3 1l1-1s-2.625631-1-4-1zm0 2-2 5h-11.074219a20 20 0 0 0-0.925781 6 20 20 0 0 0 0.945313 6h16.054687l3 4 3-4h16.074219a20 20 0 0 0 0.925781-6 20 20 0 0 0-0.945312-6h-11.054688l-2-5-2 5h-8z"
     id="path8" />
  <path
     style="fill:#fefefe;fill-opacity:1"
     d="m18 8c-4 0-6 2-6 2l1 1s2-2 5-2 5 2 5 2l1-1s-2-2-6-2zm0 3c-1.374369 0-4 1-4 1l1 1s1.945907-1 3-1 3 1 3 1l1-1s-2.625631-1-4-1zm0 2-2 5h-11.074219a20 20 0 0 0-0.9257812 6 20 20 0 0 0 0.9453125 6h16.054688l3 4 3-4h16.074219a20 20 0 0 0 0.925781-6 20 20 0 0 0-0.945312-6h-11.054688l-2-5-2 5h-8l-2-5z"
     id="path10" />
  <path
     style="opacity:.2"
     d="m19 24v4h2v-4zm8 0v4h2v-4z"
     id="path12" />
  <path
     style="fill:#4c566a;fill-opacity:1"
     d="m19 23v4h2v-4h-2zm8 0v4h2v-4h-2z"
     id="path14" />
</svg>
