<?xml version="1.0" encoding="UTF-8" standalone="no"?>
<svg
   xmlns:dc="http://purl.org/dc/elements/1.1/"
   xmlns:cc="http://creativecommons.org/ns#"
   xmlns:rdf="http://www.w3.org/1999/02/22-rdf-syntax-ns#"
   xmlns:svg="http://www.w3.org/2000/svg"
   xmlns="http://www.w3.org/2000/svg"
   xmlns:sodipodi="http://sodipodi.sourceforge.net/DTD/sodipodi-0.dtd"
   xmlns:inkscape="http://www.inkscape.org/namespaces/inkscape"
   width="48"
   height="48"
   version="1.1"
   id="svg14"
   sodipodi:docname="chkrootkit.svg"
   inkscape:version="0.92.5 (2060ec1f9f, 2020-04-08)">
  <metadata
     id="metadata20">
    <rdf:RDF>
      <cc:Work
         rdf:about="">
        <dc:format>image/svg+xml</dc:format>
        <dc:type
           rdf:resource="http://purl.org/dc/dcmitype/StillImage" />
      </cc:Work>
    </rdf:RDF>
  </metadata>
  <defs
     id="defs18" />
  <sodipodi:namedview
     pagecolor="#ffffff"
     bordercolor="#666666"
     borderopacity="1"
     objecttolerance="10"
     gridtolerance="10"
     guidetolerance="10"
     inkscape:pageopacity="0"
     inkscape:pageshadow="2"
     inkscape:window-width="783"
     inkscape:window-height="480"
     id="namedview16"
     showgrid="false"
     inkscape:zoom="4.9166667"
     inkscape:cx="24"
     inkscape:cy="24"
     inkscape:window-x="0"
     inkscape:window-y="28"
     inkscape:window-maximized="0"
     inkscape:current-layer="svg14" />
  <g
     transform="matrix(2,0,0,2,2,2)"
     id="g12"
     style="fill:#4c566a;fill-opacity:1">
    <circle
       cx="11"
       cy="11.5"
       r="10"
       style="opacity:0.2;fill:#4c566a;fill-opacity:1"
       id="circle2" />
    <circle
       cx="11"
       cy="11"
       r="10"
       style="fill:#4c566a;fill-opacity:1"
       id="circle4" />
    <path
       d="M 11,1 A 10,10 0 0 0 1,11 10,10 0 0 0 1.0098,11.293 10,10 0 0 1 11,1.5 10,10 0 0 1 20.99,11.207 10,10 0 0 0 21,11 10,10 0 0 0 11,1 Z"
       style="fill:#4c566a;opacity:0.2;fill-opacity:1"
       id="path6" />
    <path
       d="m12 9.485757a1.0001 1.0001 0 0 0-1 1v4.832032a1.0001 1.0001 0 0 0 0 0.326172v2.841797a1.0001 1.0001 0 1 0 2 0v-2h5a1.0001 1.0001 0 0 0 1-1v-5.000001a1.0001 1.0001 0 0 0-1-1zm1 2.000001h4v3h-4z"
       style="opacity:0.2;fill:#4c566a;fill-opacity:1"
       id="path8" />
    <path
       d="m12 18v-8h6v5h-6"
       style="fill:#4c566a;stroke-linecap:round;stroke-linejoin:round;stroke-width:2;stroke:#ffffff;fill-opacity:1"
       id="path10" />
  </g>
</svg>
