<?xml version="1.0" encoding="UTF-8" standalone="no"?>
<svg
   xmlns:dc="http://purl.org/dc/elements/1.1/"
   xmlns:cc="http://creativecommons.org/ns#"
   xmlns:rdf="http://www.w3.org/1999/02/22-rdf-syntax-ns#"
   xmlns:svg="http://www.w3.org/2000/svg"
   xmlns="http://www.w3.org/2000/svg"
   xmlns:sodipodi="http://sodipodi.sourceforge.net/DTD/sodipodi-0.dtd"
   xmlns:inkscape="http://www.inkscape.org/namespaces/inkscape"
   width="48"
   height="48"
   version="1"
   id="svg46"
   sodipodi:docname="chromium-app-list.svg"
   inkscape:version="0.92.5 (2060ec1f9f, 2020-04-08)">
  <metadata
     id="metadata52">
    <rdf:RDF>
      <cc:Work
         rdf:about="">
        <dc:format>image/svg+xml</dc:format>
        <dc:type
           rdf:resource="http://purl.org/dc/dcmitype/StillImage" />
      </cc:Work>
    </rdf:RDF>
  </metadata>
  <defs
     id="defs50" />
  <sodipodi:namedview
     pagecolor="#ffffff"
     bordercolor="#666666"
     borderopacity="1"
     objecttolerance="10"
     gridtolerance="10"
     guidetolerance="10"
     inkscape:pageopacity="0"
     inkscape:pageshadow="2"
     inkscape:window-width="783"
     inkscape:window-height="480"
     id="namedview48"
     showgrid="false"
     inkscape:zoom="4.9166667"
     inkscape:cx="24"
     inkscape:cy="24"
     inkscape:window-x="0"
     inkscape:window-y="28"
     inkscape:window-maximized="0"
     inkscape:current-layer="svg46" />
  <path
     style="opacity:0.2"
     d="M 24,5 C 12.92,5 4,13.92 4,25 4,36.08 12.92,45 24,45 35.08,45 44,36.08 44,25 44,13.92 35.08,5 24,5 Z"
     id="path2" />
  <path
     style="fill:#4c566a;fill-opacity:1"
     d="M 24,4 C 12.92,4 4,12.92 4,24 4,35.08 12.92,44 24,44 35.08,44 44,35.08 44,24 44,12.92 35.08,4 24,4 Z"
     id="path4" />
  <path
     style="fill:#ffffff;opacity:0.2"
     d="M 24 4 C 12.92 4 4 12.92 4 24 C 4 24.167874 4.007647 24.333141 4.0117188 24.5 C 4.2763904 13.653863 13.087874 5 24 5 C 34.912126 5 43.72361 13.653863 43.988281 24.5 C 43.992353 24.333141 44 24.167874 44 24 C 44 12.92 35.08 4 24 4 z"
     id="path6" />
  <rect
     style="opacity:0.2"
     width="6"
     height="6"
     x="12"
     y="14"
     rx="2"
     ry="2"
     id="rect8" />
  <rect
     style="opacity:0.2"
     width="6"
     height="6"
     x="21"
     y="14"
     rx="2"
     ry="2"
     id="rect10" />
  <rect
     style="opacity:0.2"
     width="6"
     height="6"
     x="30"
     y="14"
     rx="2"
     ry="2"
     id="rect12" />
  <rect
     style="opacity:0.2"
     width="6"
     height="6"
     x="12"
     y="22"
     rx="2"
     ry="2"
     id="rect14" />
  <rect
     style="opacity:0.2"
     width="6"
     height="6"
     x="21"
     y="22"
     rx="2"
     ry="2"
     id="rect16" />
  <rect
     style="opacity:0.2"
     width="6"
     height="6"
     x="30"
     y="22"
     rx="2"
     ry="2"
     id="rect18" />
  <rect
     style="opacity:0.2"
     width="6"
     height="6"
     x="12"
     y="30"
     rx="2"
     ry="2"
     id="rect20" />
  <rect
     style="opacity:0.2"
     width="6"
     height="6"
     x="21"
     y="30"
     rx="2"
     ry="2"
     id="rect22" />
  <rect
     style="opacity:0.2"
     width="6"
     height="6"
     x="30"
     y="30"
     rx="2"
     ry="2"
     id="rect24" />
  <g
     id="g44">
    <rect
       style="fill:#ffffff"
       width="6"
       height="6"
       x="12"
       y="13"
       rx="2"
       ry="2"
       id="rect26" />
    <rect
       style="fill:#ffffff"
       width="6"
       height="6"
       x="21"
       y="13"
       rx="2"
       ry="2"
       id="rect28" />
    <rect
       style="fill:#ffffff"
       width="6"
       height="6"
       x="30"
       y="13"
       rx="2"
       ry="2"
       id="rect30" />
    <rect
       style="fill:#ffffff"
       width="6"
       height="6"
       x="12"
       y="21"
       rx="2"
       ry="2"
       id="rect32" />
    <rect
       style="fill:#ffffff"
       width="6"
       height="6"
       x="21"
       y="21"
       rx="2"
       ry="2"
       id="rect34" />
    <rect
       style="fill:#ffffff"
       width="6"
       height="6"
       x="30"
       y="21"
       rx="2"
       ry="2"
       id="rect36" />
    <rect
       style="fill:#ffffff"
       width="6"
       height="6"
       x="12"
       y="29"
       rx="2"
       ry="2"
       id="rect38" />
    <rect
       style="fill:#ffffff"
       width="6"
       height="6"
       x="21"
       y="29"
       rx="2"
       ry="2"
       id="rect40" />
    <rect
       style="fill:#ffffff"
       width="6"
       height="6"
       x="30"
       y="29"
       rx="2"
       ry="2"
       id="rect42" />
  </g>
</svg>
