<?xml version="1.0" encoding="UTF-8" standalone="no"?>
<svg
   xmlns:dc="http://purl.org/dc/elements/1.1/"
   xmlns:cc="http://creativecommons.org/ns#"
   xmlns:rdf="http://www.w3.org/1999/02/22-rdf-syntax-ns#"
   xmlns:svg="http://www.w3.org/2000/svg"
   xmlns="http://www.w3.org/2000/svg"
   xmlns:sodipodi="http://sodipodi.sourceforge.net/DTD/sodipodi-0.dtd"
   xmlns:inkscape="http://www.inkscape.org/namespaces/inkscape"
   id="svg8"
   xml:space="preserve"
   enable-background="new 0 0 23 23"
   viewBox="0 0 23 23"
   height="23px"
   width="23px"
   y="0px"
   x="0px"
   version="1.1"
   sodipodi:docname="cinnamon.svg"
   inkscape:version="0.92.5 (2060ec1f9f, 2020-04-08)"><sodipodi:namedview
     pagecolor="#ffffff"
     bordercolor="#666666"
     borderopacity="1"
     objecttolerance="10"
     gridtolerance="10"
     guidetolerance="10"
     inkscape:pageopacity="0"
     inkscape:pageshadow="2"
     inkscape:window-width="954"
     inkscape:window-height="1026"
     id="namedview6"
     showgrid="false"
     inkscape:zoom="10.26087"
     inkscape:cx="6.9919707"
     inkscape:cy="10.785951"
     inkscape:window-x="0"
     inkscape:window-y="28"
     inkscape:window-maximized="0"
     inkscape:current-layer="svg8" /><metadata
     id="metadata14"><rdf:RDF><cc:Work
         rdf:about=""><dc:format>image/svg+xml</dc:format><dc:type
           rdf:resource="http://purl.org/dc/dcmitype/StillImage" /><dc:title /></cc:Work></rdf:RDF></metadata><defs
     id="defs12" /><ellipse
     style="opacity:1;fill:#ffffff;fill-opacity:1;fill-rule:evenodd;stroke:none;stroke-width:0.85464728;stroke-linecap:butt;stroke-linejoin:miter;stroke-miterlimit:4;stroke-dasharray:none;stroke-opacity:1;paint-order:fill markers stroke"
     id="path812"
     cx="11.411628"
     cy="11.632559"
     rx="10.074476"
     ry="10.118662" /><path
     id="XMLID_9_"
     d="M 11.5,1.0720339 C 5.7410424,1.0720339 1.0720339,5.7410424 1.0720339,11.5 c 0,5.759864 4.6690085,10.427966 10.4279661,10.427966 5.759864,0 10.427966,-4.668102 10.427966,-10.427966 C 21.927966,5.7410424 17.259864,1.0720339 11.5,1.0720339 Z m 0,1.7781382 c 4.777822,0 8.649827,3.8720058 8.649827,8.6498279 0,0.734851 -0.100241,1.443975 -0.272742,2.125265 L 15.762928,9.0524033 10.502897,15.036795 13.040817,9.9591831 11.772742,7.6922338 4.2953523,16.285389 C 3.3831429,14.914625 2.8501721,13.269738 2.8501721,11.5 2.8501721,6.7221779 6.7221779,2.8501721 11.5,2.8501721 Z"
     style="fill:#4c566a;fill-opacity:1;stroke-width:0.90677965"
     inkscape:connector-curvature="0" /></svg>