<?xml version="1.0" encoding="UTF-8" standalone="no"?>
<svg
   xmlns:dc="http://purl.org/dc/elements/1.1/"
   xmlns:cc="http://creativecommons.org/ns#"
   xmlns:rdf="http://www.w3.org/1999/02/22-rdf-syntax-ns#"
   xmlns:svg="http://www.w3.org/2000/svg"
   xmlns="http://www.w3.org/2000/svg"
   xmlns:sodipodi="http://sodipodi.sourceforge.net/DTD/sodipodi-0.dtd"
   xmlns:inkscape="http://www.inkscape.org/namespaces/inkscape"
   width="48"
   height="48"
   version="1"
   id="svg22"
   sodipodi:docname="codes.nora.gDiceRoller.svg"
   inkscape:version="0.92.5 (2060ec1f9f, 2020-04-08)">
  <metadata
     id="metadata28">
    <rdf:RDF>
      <cc:Work
         rdf:about="">
        <dc:format>image/svg+xml</dc:format>
        <dc:type
           rdf:resource="http://purl.org/dc/dcmitype/StillImage" />
      </cc:Work>
    </rdf:RDF>
  </metadata>
  <defs
     id="defs26" />
  <sodipodi:namedview
     pagecolor="#ffffff"
     bordercolor="#666666"
     borderopacity="1"
     objecttolerance="10"
     gridtolerance="10"
     guidetolerance="10"
     inkscape:pageopacity="0"
     inkscape:pageshadow="2"
     inkscape:window-width="783"
     inkscape:window-height="480"
     id="namedview24"
     showgrid="false"
     inkscape:zoom="4.9166667"
     inkscape:cx="22.508871"
     inkscape:cy="25.653672"
     inkscape:window-x="0"
     inkscape:window-y="28"
     inkscape:window-maximized="0"
     inkscape:current-layer="svg22" />
  <rect
     style="opacity:0.2"
     width="40"
     height="40"
     x="4"
     y="5"
     rx="2"
     ry="2"
     id="rect2" />
  <rect
     style="fill:#4c566a;fill-opacity:1"
     width="40"
     height="40"
     x="4"
     y="4"
     rx="2"
     ry="2"
     id="rect4" />
  <path
     style="opacity:0.2"
     d="m 12,9 a 4,4 0 0 0 -4,4 4,4 0 0 0 4,4 4,4 0 0 0 4,-4 4,4 0 0 0 -4,-4 z m 24,0 a 4,4 0 0 0 -4,4 4,4 0 0 0 4,4 4,4 0 0 0 4,-4 4,4 0 0 0 -4,-4 z M 24,21 a 4,4 0 0 0 -4,4 4,4 0 0 0 4,4 4,4 0 0 0 4,-4 4,4 0 0 0 -4,-4 z M 12,33 a 4,4 0 0 0 -4,4 4,4 0 0 0 4,4 4,4 0 0 0 4,-4 4,4 0 0 0 -4,-4 z m 24,0 a 4,4 0 0 0 -4,4 4,4 0 0 0 4,4 4,4 0 0 0 4,-4 4,4 0 0 0 -4,-4 z"
     id="path6" />
  <path
     fill="#fff"
     style="opacity:0.2"
     d="m6 4c-1.108 0-2 0.892-2 2v1c0-1.108 0.892-2 2-2h36c1.108 0 2 0.892 2 2v-1c0-1.108-0.892-2-2-2h-36z"
     id="path8" />
  <circle
     style="fill:#ffffff;fill-opacity:1"
     cx="12"
     cy="12"
     r="4"
     id="circle10" />
  <circle
     style="fill:#ffffff;fill-opacity:1"
     cx="36"
     cy="12"
     r="4"
     id="circle12" />
  <circle
     style="fill:#ffffff;fill-opacity:1"
     cx="12"
     cy="36"
     r="4"
     id="circle14" />
  <circle
     style="fill:#ffffff;fill-opacity:1"
     cx="36"
     cy="36"
     r="4"
     id="circle16" />
  <circle
     style="fill:#ffffff;fill-opacity:1"
     cx="24"
     cy="24"
     r="4"
     id="circle18" />
  <path
     style="opacity:0.2;fill:#ffffff"
     d="M 12 8 A 4 4 0 0 0 8 12 A 4 4 0 0 0 8.0351562 12.505859 A 4 4 0 0 1 12 9 A 4 4 0 0 1 15.964844 12.494141 A 4 4 0 0 0 16 12 A 4 4 0 0 0 12 8 z M 36 8 A 4 4 0 0 0 32 12 A 4 4 0 0 0 32.035156 12.505859 A 4 4 0 0 1 36 9 A 4 4 0 0 1 39.964844 12.494141 A 4 4 0 0 0 40 12 A 4 4 0 0 0 36 8 z M 24 20 A 4 4 0 0 0 20 24 A 4 4 0 0 0 20.035156 24.505859 A 4 4 0 0 1 24 21 A 4 4 0 0 1 27.964844 24.494141 A 4 4 0 0 0 28 24 A 4 4 0 0 0 24 20 z M 12 32 A 4 4 0 0 0 8 36 A 4 4 0 0 0 8.0351562 36.505859 A 4 4 0 0 1 12 33 A 4 4 0 0 1 15.964844 36.494141 A 4 4 0 0 0 16 36 A 4 4 0 0 0 12 32 z M 36 32 A 4 4 0 0 0 32 36 A 4 4 0 0 0 32.035156 36.505859 A 4 4 0 0 1 36 33 A 4 4 0 0 1 39.964844 36.494141 A 4 4 0 0 0 40 36 A 4 4 0 0 0 36 32 z"
     id="path20" />
</svg>
