<?xml version="1.0" encoding="UTF-8" standalone="no"?>
<svg
   xmlns:dc="http://purl.org/dc/elements/1.1/"
   xmlns:cc="http://creativecommons.org/ns#"
   xmlns:rdf="http://www.w3.org/1999/02/22-rdf-syntax-ns#"
   xmlns:svg="http://www.w3.org/2000/svg"
   xmlns="http://www.w3.org/2000/svg"
   xmlns:sodipodi="http://sodipodi.sourceforge.net/DTD/sodipodi-0.dtd"
   xmlns:inkscape="http://www.inkscape.org/namespaces/inkscape"
   width="48"
   height="48"
   version="1.1"
   id="svg36"
   sodipodi:docname="appimagekit-colobot.svg"
   inkscape:version="0.92.5 (2060ec1f9f, 2020-04-08)">
  <metadata
     id="metadata42">
    <rdf:RDF>
      <cc:Work
         rdf:about="">
        <dc:format>image/svg+xml</dc:format>
        <dc:type
           rdf:resource="http://purl.org/dc/dcmitype/StillImage" />
      </cc:Work>
    </rdf:RDF>
  </metadata>
  <defs
     id="defs40" />
  <sodipodi:namedview
     pagecolor="#ffffff"
     bordercolor="#666666"
     borderopacity="1"
     objecttolerance="10"
     gridtolerance="10"
     guidetolerance="10"
     inkscape:pageopacity="0"
     inkscape:pageshadow="2"
     inkscape:window-width="1600"
     inkscape:window-height="849"
     id="namedview38"
     showgrid="false"
     inkscape:zoom="9.8333333"
     inkscape:cx="48.80956"
     inkscape:cy="13.796624"
     inkscape:window-x="0"
     inkscape:window-y="28"
     inkscape:window-maximized="1"
     inkscape:current-layer="svg36" />
  <path
     style="opacity:0.2"
     d="m 9,22 h 5 v 5 l 6,3 v 5 L 9,29 Z"
     id="path2" />
  <path
     style="fill:none;stroke:#b8b8b8;stroke-width:3"
     d="M 33,19 26.9,36"
     id="path4" />
  <rect
     style="fill:#4c566a;fill-opacity:1"
     width="10"
     height="11"
     x="6.99"
     y="19.04"
     transform="rotate(-36.715872)"
     id="rect6" />
  <path
     style="fill:#4c566a;fill-opacity:1"
     d="m 9,21 h 5 v 5 l 6,3 v 5 L 9,28 Z"
     id="path8" />
  <rect
     style="opacity:0.2"
     width="6"
     height="18"
     x="-23"
     y="6"
     rx="3"
     ry="3"
     transform="rotate(-90)"
     id="rect10" />
  <rect
     style="fill:#4c566a;fill-opacity:1"
     width="6"
     height="18"
     x="-22"
     y="6"
     rx="3"
     ry="3"
     transform="rotate(-90)"
     id="rect12" />
  <path
     style="opacity:0.2;fill:#ffffff"
     d="M 9 16 C 7.338 16 6 17.338 6 19 C 6 19.171588 6.023374 19.336435 6.0507812 19.5 C 6.2888409 18.079274 7.5095878 17 9 17 L 21 17 C 22.490412 17 23.711159 18.079274 23.949219 19.5 C 23.976626 19.336435 24 19.171588 24 19 C 24 17.338 22.662 16 21 16 L 9 16 z"
     id="path14" />
  <rect
     style="opacity:0.2"
     width="6"
     height="12"
     x="30"
     y="11"
     rx="3"
     ry="3"
     id="rect16" />
  <rect
     style="fill:#4c566a;fill-opacity:1"
     width="6"
     height="12"
     x="30"
     y="10"
     rx="3"
     ry="3"
     id="rect18" />
  <path
     style="opacity:0.2"
     d="M 34,7 C 24.529736,7 16.70093,13.935343 15.259766,23 H 25.523438 C 26.760287,19.506904 30.083119,17 34,17 c 2.005512,0.0039 3.952258,0.677584 5.53125,1.914062 L 37.808594,7.4082031 C 36.556055,7.1441871 35.280041,7.0074246 34,7 Z M 15.050781,27 C 15.573828,37.025709 23.844075,45 34,45 c 1.246744,-9.33e-4 2.490369,-0.124576 3.712891,-0.369141 l 1.716797,-11.46289 C 37.867739,34.353919 35.961161,34.997217 34,35 29.36788,35 25.556613,31.499341 25.058594,27 Z"
     id="path20" />
  <rect
     style="fill:#4c566a;fill-opacity:1"
     width="6"
     height="12"
     x="34.59"
     y="13.47"
     rx="3"
     ry="3"
     transform="rotate(21.358618)"
     id="rect22" />
  <circle
     style="opacity:1;fill:#ffffff;fill-opacity:1"
     cx="33"
     cy="19"
     r="2"
     id="circle24" />
  <path
     style="fill:#4c566a;fill-opacity:1"
     d="M 34 6 C 24.529736 6 16.70093 12.935343 15.259766 22 L 25.523438 22 C 26.760287 18.506904 30.083119 16 34 16 C 36.005512 16.0039 37.952258 16.677584 39.53125 17.914062 L 37.808594 6.4082031 C 36.556055 6.1441871 35.280041 6.0074246 34 6 z M 15.050781 26 C 15.573828 36.025709 23.844075 44 34 44 C 35.246744 43.999067 36.490369 43.875424 37.712891 43.630859 L 39.429688 32.167969 C 37.867739 33.353919 35.961161 33.997217 34 34 C 29.36788 34 25.556613 30.499341 25.058594 26 L 15.050781 26 z"
     id="path26" />
  <path
     style="opacity:1;fill:#ffffff;fill-opacity:1"
     d="M 21.5 14 A 3.5 3.5 0 0 0 18 17.5 A 3.5 3.5 0 0 0 21.5 21 A 3.5 3.5 0 0 0 25 17.5 A 3.5 3.5 0 0 0 21.5 14 z M 21.5 15 A 2.5 2.5 0 0 1 24 17.5 A 2.5 2.5 0 0 1 21.5 20 A 2.5 2.5 0 0 1 19 17.5 A 2.5 2.5 0 0 1 21.5 15 z"
     id="path28" />
  <circle
     style="opacity:1;fill:#ffffff;fill-opacity:1"
     cx="9"
     cy="19"
     r="2"
     id="circle30" />
  <circle
     style="opacity:1;fill:#ffffff;fill-opacity:1"
     cx="26"
     cy="37"
     r="2"
     id="circle32" />
  <path
     style="opacity:0.2;fill:#ffffff"
     d="M 34 6 C 24.529736 6 16.70093 12.935343 15.259766 22 L 15.464844 22 C 17.305015 13.433313 24.883331 7 34 7 C 35.280041 7.0074246 36.556055 7.1441871 37.808594 7.4082031 L 39.363281 17.792969 C 39.418625 17.834288 39.476769 17.871399 39.53125 17.914062 L 37.808594 6.4082031 C 36.556055 6.1441871 35.280041 6.0074246 34 6 z M 15.050781 26 C 15.068419 26.338078 15.117312 26.666815 15.152344 27 L 25.058594 27 C 25.556613 31.499341 29.36788 35 34 35 C 35.892724 34.997314 37.731404 34.393054 39.261719 33.285156 L 39.429688 32.167969 C 37.867739 33.353919 35.961161 33.997217 34 34 C 29.36788 34 25.556613 30.499341 25.058594 26 L 15.050781 26 z"
     id="path34" />
</svg>
