<?xml version="1.0" encoding="UTF-8" standalone="no"?>
<svg
   xmlns:dc="http://purl.org/dc/elements/1.1/"
   xmlns:cc="http://creativecommons.org/ns#"
   xmlns:rdf="http://www.w3.org/1999/02/22-rdf-syntax-ns#"
   xmlns:svg="http://www.w3.org/2000/svg"
   xmlns="http://www.w3.org/2000/svg"
   xmlns:sodipodi="http://sodipodi.sourceforge.net/DTD/sodipodi-0.dtd"
   xmlns:inkscape="http://www.inkscape.org/namespaces/inkscape"
   width="48"
   height="48"
   version="1"
   id="svg16"
   sodipodi:docname="com.georgefb.haruna.svg"
   inkscape:version="0.92.5 (2060ec1f9f, 2020-04-08)">
  <metadata
     id="metadata22">
    <rdf:RDF>
      <cc:Work
         rdf:about="">
        <dc:format>image/svg+xml</dc:format>
        <dc:type
           rdf:resource="http://purl.org/dc/dcmitype/StillImage" />
      </cc:Work>
    </rdf:RDF>
  </metadata>
  <defs
     id="defs20" />
  <sodipodi:namedview
     pagecolor="#ffffff"
     bordercolor="#666666"
     borderopacity="1"
     objecttolerance="10"
     gridtolerance="10"
     guidetolerance="10"
     inkscape:pageopacity="0"
     inkscape:pageshadow="2"
     inkscape:window-width="783"
     inkscape:window-height="480"
     id="namedview18"
     showgrid="false"
     inkscape:zoom="4.9166667"
     inkscape:cx="24"
     inkscape:cy="24"
     inkscape:window-x="0"
     inkscape:window-y="28"
     inkscape:window-maximized="0"
     inkscape:current-layer="svg16" />
  <rect
     style="opacity:0.2"
     width="40"
     height="40"
     x="4"
     y="5"
     rx="2"
     ry="2"
     id="rect2" />
  <rect
     style="fill:#5f697d;fill-opacity:1"
     width="40"
     height="40"
     x="4"
     y="4"
     rx="2"
     ry="2"
     id="rect4" />
  <path
     style="opacity:0.1;fill:#ffffff"
     d="M 6,4 C 4.892,4 4,4.892 4,6 L 4,7 C 4,5.892 4.892,5 6,5 l 36,0 c 1.108,0 2,0.892 2,2 L 44,6 C 44,4.892 43.108,4 42,4 L 6,4 Z"
     id="path6" />
  <path
     style="opacity:0.2"
     d="M 7,8 V 42 H 15 V 29 H 33 V 42 H 41 V 8 H 33 V 21 H 15 V 8 Z"
     id="path8" />
  <path
     style="fill:#ffffff;fill-opacity:1"
     d="M 7,7 V 41 H 15 V 28 H 33 V 41 H 41 V 7 H 33 V 20 H 15 V 7 Z"
     id="path10" />
  <path
     style="opacity:0.1"
     d="M 9,13 V 17 H 13 V 13 Z M 9,23 V 27 H 13 V 23 Z M 9,33 V 37 H 13 V 33 Z M 35,33 V 37 H 39 V 33 Z M 35,13 V 17 H 39 V 13 Z M 35,23 V 27 H 39 V 23 Z"
     id="path12" />
  <path
     style="fill:#5f697d;fill-opacity:1"
     d="M 9,12 V 16 H 13 V 12 Z M 9,22 V 26 H 13 V 22 Z M 9,32 V 36 H 13 V 32 Z M 35,32 V 36 H 39 V 32 Z M 35,12 V 16 H 39 V 12 Z M 35,22 V 26 H 39 V 22 Z"
     id="path14" />
</svg>
