<?xml version="1.0" encoding="UTF-8" standalone="no"?>
<svg
   xmlns:dc="http://purl.org/dc/elements/1.1/"
   xmlns:cc="http://creativecommons.org/ns#"
   xmlns:rdf="http://www.w3.org/1999/02/22-rdf-syntax-ns#"
   xmlns:svg="http://www.w3.org/2000/svg"
   xmlns="http://www.w3.org/2000/svg"
   xmlns:sodipodi="http://sodipodi.sourceforge.net/DTD/sodipodi-0.dtd"
   xmlns:inkscape="http://www.inkscape.org/namespaces/inkscape"
   width="48"
   height="48"
   version="1"
   id="svg12"
   sodipodi:docname="com.github.candiedoperation.ordne.svg"
   inkscape:version="0.92.5 (2060ec1f9f, 2020-04-08)">
  <metadata
     id="metadata18">
    <rdf:RDF>
      <cc:Work
         rdf:about="">
        <dc:format>image/svg+xml</dc:format>
        <dc:type
           rdf:resource="http://purl.org/dc/dcmitype/StillImage" />
      </cc:Work>
    </rdf:RDF>
  </metadata>
  <defs
     id="defs16" />
  <sodipodi:namedview
     pagecolor="#ffffff"
     bordercolor="#666666"
     borderopacity="1"
     objecttolerance="10"
     gridtolerance="10"
     guidetolerance="10"
     inkscape:pageopacity="0"
     inkscape:pageshadow="2"
     inkscape:window-width="783"
     inkscape:window-height="480"
     id="namedview14"
     showgrid="false"
     inkscape:zoom="4.9166667"
     inkscape:cx="24"
     inkscape:cy="24"
     inkscape:window-x="0"
     inkscape:window-y="28"
     inkscape:window-maximized="0"
     inkscape:current-layer="svg12" />
  <rect
     style="opacity:0.2"
     width="40"
     height="40"
     x="4"
     y="5"
     rx="4"
     ry="4"
     id="rect2" />
  <rect
     style="fill:#4c566a;fill-opacity:1"
     width="40"
     height="40"
     x="4"
     y="4"
     rx="4"
     ry="4"
     id="rect4" />
  <path
     style="opacity:0.2;fill:#ffffff"
     d="M 8 4 C 5.784 4 4 5.784 4 8 L 4 9 C 4 6.784 5.784 5 8 5 L 40 5 C 42.216 5 44 6.784 44 9 L 44 8 C 44 5.784 42.216 4 40 4 L 8 4 z"
     id="path6" />
  <path
     style="opacity:0.2;fill:none;stroke:#000000;stroke-width:5.33334"
     transform="matrix(0.37499953,0,0,0.37499953,0.20017464,-0.49996847)"
     d="m 38.132914,41.3333 h 50.66673 l -50.66673,53.3334 h 50.66673 z"
     id="path8" />
  <path
     style="fill:none;stroke:#ffffff;stroke-width:5.33334"
     transform="matrix(0.37499953,0,0,0.37499953,0.20017464,-1.4999683)"
     d="m 38.132914,41.3333 h 50.66673 l -50.66673,53.3334 h 50.66673 z"
     id="path10" />
</svg>
