<?xml version="1.0" encoding="UTF-8" standalone="no"?>
<svg
   xmlns:dc="http://purl.org/dc/elements/1.1/"
   xmlns:cc="http://creativecommons.org/ns#"
   xmlns:rdf="http://www.w3.org/1999/02/22-rdf-syntax-ns#"
   xmlns:svg="http://www.w3.org/2000/svg"
   xmlns="http://www.w3.org/2000/svg"
   xmlns:sodipodi="http://sodipodi.sourceforge.net/DTD/sodipodi-0.dtd"
   xmlns:inkscape="http://www.inkscape.org/namespaces/inkscape"
   width="48"
   height="48"
   version="1.1"
   id="svg12"
   sodipodi:docname="com.gitlab.newsflash.svg"
   inkscape:version="0.92.5 (2060ec1f9f, 2020-04-08)">
  <metadata
     id="metadata18">
    <rdf:RDF>
      <cc:Work
         rdf:about="">
        <dc:format>image/svg+xml</dc:format>
        <dc:type
           rdf:resource="http://purl.org/dc/dcmitype/StillImage" />
      </cc:Work>
    </rdf:RDF>
  </metadata>
  <defs
     id="defs16" />
  <sodipodi:namedview
     pagecolor="#ffffff"
     bordercolor="#666666"
     borderopacity="1"
     objecttolerance="10"
     gridtolerance="10"
     guidetolerance="10"
     inkscape:pageopacity="0"
     inkscape:pageshadow="2"
     inkscape:window-width="783"
     inkscape:window-height="480"
     id="namedview14"
     showgrid="false"
     inkscape:zoom="4.9166667"
     inkscape:cx="24"
     inkscape:cy="24"
     inkscape:window-x="0"
     inkscape:window-y="28"
     inkscape:window-maximized="0"
     inkscape:current-layer="svg12" />
  <path
     style="opacity:0.2"
     d="M 7.0769233,6 H 40.923077 C 42.622296,6 44,7.3611718 44,9.04 V 40.96 C 44,42.638829 42.622296,44 40.923077,44 H 7.0769233 C 5.3777045,44 4.0000002,42.638829 4.0000002,40.96 V 9.04 C 4.0000002,7.3611718 5.3777045,6 7.0769233,6 Z m 0,0"
     id="path2" />
  <path
     style="fill:#4c566a;fill-opacity:1"
     d="M 7.0769233,5 H 40.923077 C 42.622296,5 44,6.3611718 44,8.04 V 39.96 C 44,41.638829 42.622296,43 40.923077,43 H 7.0769233 C 5.3777045,43 4.0000002,41.638829 4.0000002,39.96 V 8.04 C 4.0000002,6.3611718 5.3777045,5 7.0769233,5 Z m 0,0"
     id="path4" />
  <path
     style="opacity:0.2"
     d="m 22.5148,14.227698 -4.499416,12.31498 c -0.03424,0.117518 -0.0071,0.240912 0.03994,0.309955 0.05992,0.06905 0.114126,0.151305 0.273903,0.165995 l 3.155582,-0.01469 c 0.106993,0 0.201147,0.04847 0.241091,0.151304 0.02568,0.08961 0.0328,0.179216 0,0.30408 l -2.734743,10.11199 c -0.01997,0.08227 -0.04708,0.267354 0.139804,0.392217 0.121259,0.07491 0.36235,0.03379 0.509288,-0.117519 L 29.941547,24.87115 c 0.06705,-0.110174 0.07419,-0.302611 0.0328,-0.392219 -0.03994,-0.08961 -0.126965,-0.214472 -0.326686,-0.235037 l -4.807554,-0.185092 c -0.139805,-0.02791 -0.186881,-0.09695 -0.226825,-0.151305 -0.05278,-0.08373 -0.06705,-0.199782 -0.01284,-0.324646 l 3.937347,-9.197972 c 0.05278,-0.116049 0.05278,-0.198312 0.01997,-0.26148 -0.0271,-0.05435 -0.114121,-0.123394 -0.266764,-0.123394 h -5.368199 c -0.07419,0 -0.328113,0.02791 -0.408001,0.227693 z"
     id="path6" />
  <path
     style="fill:#ffffff"
     d="m 22.5148,13.227698 -4.499416,12.31498 c -0.03424,0.117518 -0.0071,0.240912 0.03994,0.309955 0.05992,0.06905 0.114126,0.151305 0.273903,0.165995 l 3.155582,-0.01469 c 0.106993,0 0.201147,0.04847 0.241091,0.151304 0.02568,0.08961 0.0328,0.179216 0,0.30408 l -2.734743,10.11199 c -0.01997,0.08227 -0.04708,0.267354 0.139804,0.392217 0.121259,0.07491 0.36235,0.03379 0.509288,-0.117519 L 29.941547,23.87115 c 0.06705,-0.110174 0.07419,-0.302611 0.0328,-0.392219 -0.03994,-0.08961 -0.126965,-0.214472 -0.326686,-0.235037 l -4.807554,-0.185092 c -0.139805,-0.02791 -0.186881,-0.09695 -0.226825,-0.151305 -0.05278,-0.08373 -0.06705,-0.199782 -0.01284,-0.324646 l 3.937347,-9.197972 c 0.05278,-0.116049 0.05278,-0.198312 0.01997,-0.26148 -0.0271,-0.05435 -0.114121,-0.123394 -0.266764,-0.123394 h -5.368199 c -0.07419,0 -0.328113,0.02791 -0.408001,0.227693 z"
     id="path8" />
  <path
     style="fill:#ffffff;opacity:0.2"
     d="M 7.0761719 5 C 5.3769531 5 4 6.3602343 4 8.0390625 L 4 9.0390625 C 4 7.3602343 5.3769531 6 7.0761719 6 L 40.923828 6 C 42.623047 6 44 7.3602343 44 9.0390625 L 44 8.0390625 C 44 6.3602343 42.623047 5 40.923828 5 L 7.0761719 5 z"
     id="path10" />
</svg>
