<?xml version="1.0" encoding="UTF-8" standalone="no"?>
<svg
   xmlns:dc="http://purl.org/dc/elements/1.1/"
   xmlns:cc="http://creativecommons.org/ns#"
   xmlns:rdf="http://www.w3.org/1999/02/22-rdf-syntax-ns#"
   xmlns:svg="http://www.w3.org/2000/svg"
   xmlns="http://www.w3.org/2000/svg"
   xmlns:sodipodi="http://sodipodi.sourceforge.net/DTD/sodipodi-0.dtd"
   xmlns:inkscape="http://www.inkscape.org/namespaces/inkscape"
   width="48"
   height="48"
   version="1.1"
   id="svg12"
   sodipodi:docname="com.github.treagod.spectator.svg"
   inkscape:version="0.92.5 (2060ec1f9f, 2020-04-08)">
  <metadata
     id="metadata18">
    <rdf:RDF>
      <cc:Work
         rdf:about="">
        <dc:format>image/svg+xml</dc:format>
        <dc:type
           rdf:resource="http://purl.org/dc/dcmitype/StillImage" />
      </cc:Work>
    </rdf:RDF>
  </metadata>
  <defs
     id="defs16" />
  <sodipodi:namedview
     pagecolor="#ffffff"
     bordercolor="#666666"
     borderopacity="1"
     objecttolerance="10"
     gridtolerance="10"
     guidetolerance="10"
     inkscape:pageopacity="0"
     inkscape:pageshadow="2"
     inkscape:window-width="783"
     inkscape:window-height="480"
     id="namedview14"
     showgrid="false"
     inkscape:zoom="4.9166667"
     inkscape:cx="24"
     inkscape:cy="24"
     inkscape:window-x="0"
     inkscape:window-y="28"
     inkscape:window-maximized="0"
     inkscape:current-layer="svg12" />
  <circle
     cx="24"
     cy="25"
     r="20"
     style="opacity:.2"
     id="circle2" />
  <circle
     cx="24"
     cy="24"
     r="20"
     style="fill:#4c566a;fill-opacity:1"
     id="circle4" />
  <path
     d="M 24,4 A 20,20 0 0 0 4,24 20,20 0 0 0 4.0215,24.582 20,20 0 0 1 24,5 20,20 0 0 1 43.979,24.418 20,20 0 0 0 44,24 20,20 0 0 0 24,4 Z"
     style="fill:#ffffff;opacity:.2"
     id="path6" />
  <path
     d="m24 14a16 11 0 0 0-16 11 16 11 0 0 0 16 11 16 11 0 0 0 16-11 16 11 0 0 0-16-11zm0 4a10 7 0 0 1 10 7 10 7 0 0 1-10 7 10 7 0 0 1-10-7 10 7 0 0 1 10-7zm0 4a4 3 0 0 0-4 3 4 3 0 0 0 4 3 4 3 0 0 0 4-3 4 3 0 0 0-4-3z"
     style="opacity:.2"
     id="path8" />
  <path
     d="m24 13a16 11 0 0 0-16 11 16 11 0 0 0 16 11 16 11 0 0 0 16-11 16 11 0 0 0-16-11zm0 4a10 7 0 0 1 10 7 10 7 0 0 1-10 7 10 7 0 0 1-10-7 10 7 0 0 1 10-7zm0 4a4 3 0 0 0-4 3 4 3 0 0 0 4 3 4 3 0 0 0 4-3 4 3 0 0 0-4-3z"
     style="fill:#ffffff"
     id="path10" />
</svg>
