<?xml version="1.0" encoding="UTF-8" standalone="no"?>
<svg
   xmlns:dc="http://purl.org/dc/elements/1.1/"
   xmlns:cc="http://creativecommons.org/ns#"
   xmlns:rdf="http://www.w3.org/1999/02/22-rdf-syntax-ns#"
   xmlns:svg="http://www.w3.org/2000/svg"
   xmlns="http://www.w3.org/2000/svg"
   xmlns:sodipodi="http://sodipodi.sourceforge.net/DTD/sodipodi-0.dtd"
   xmlns:inkscape="http://www.inkscape.org/namespaces/inkscape"
   width="48"
   height="48"
   version="1"
   id="svg10"
   sodipodi:docname="com.github.lafydev.animage.svg"
   inkscape:version="0.92.5 (2060ec1f9f, 2020-04-08)">
  <metadata
     id="metadata16">
    <rdf:RDF>
      <cc:Work
         rdf:about="">
        <dc:format>image/svg+xml</dc:format>
        <dc:type
           rdf:resource="http://purl.org/dc/dcmitype/StillImage" />
      </cc:Work>
    </rdf:RDF>
  </metadata>
  <defs
     id="defs14" />
  <sodipodi:namedview
     pagecolor="#ffffff"
     bordercolor="#666666"
     borderopacity="1"
     objecttolerance="10"
     gridtolerance="10"
     guidetolerance="10"
     inkscape:pageopacity="0"
     inkscape:pageshadow="2"
     inkscape:window-width="783"
     inkscape:window-height="480"
     id="namedview12"
     showgrid="false"
     inkscape:zoom="4.9166667"
     inkscape:cx="24"
     inkscape:cy="24"
     inkscape:window-x="0"
     inkscape:window-y="28"
     inkscape:window-maximized="0"
     inkscape:current-layer="svg10" />
  <path
     style="opacity:0.2"
     d="M 14.321307,5.0047165 C 7.7237762,5.2188739 1.7574338,12.701103 4.8308613,22.943806 6.24374,27.338257 8.8970272,30.688536 15.031537,35.822452 19.054652,39.189367 23.999964,45 23.999964,45 c 0,0 4.945311,-5.810633 8.968427,-9.177548 6.13451,-5.133916 8.787797,-8.484195 10.200676,-12.878646 C 47.852384,7.3358777 31.547233,-1.8616574 23.999964,11.299511 21.40559,6.7753593 17.777157,4.8925389 14.321307,5.0047165 Z"
     id="path2" />
  <path
     style="fill:#4c566a;fill-opacity:1"
     d="M 14.321307,4.0047165 C 7.7237762,4.2188739 1.7574338,11.701103 4.8308613,21.943806 6.24374,26.338257 8.8970272,29.688536 15.031537,34.822452 19.054652,38.189367 23.999964,44 23.999964,44 c 0,0 4.945311,-5.810633 8.968427,-9.177548 6.13451,-5.133916 8.787797,-8.484195 10.200676,-12.878646 C 47.852384,6.3358777 31.547233,-2.8616574 23.999964,10.299511 21.40559,5.7753593 17.777157,3.8925389 14.321307,4.0047165 Z"
     id="path4" />
  <path
     style="fill:#ffffff;opacity:0.2"
     d="M 14.322266 4.0039062 C 8.8293373 4.182208 3.7768187 9.4016786 4.0117188 17.054688 C 4.2254369 9.9510736 9.0723016 5.1743213 14.322266 5.0039062 C 17.778116 4.8917287 21.405626 6.7746764 24 11.298828 C 30.526577 -0.082424556 43.591685 5.2623356 43.980469 17.007812 C 44.325304 4.5741787 30.708997 -1.4005353 24 10.298828 C 21.405626 5.7746764 17.778116 3.8917287 14.322266 4.0039062 z"
     id="path6" />
  <path
     style="opacity:0.3;fill:#ffffff"
     d="M 14.321307,4.0047165 C 7.7237762,4.2188739 1.7574338,11.701103 4.8308613,21.943806 6.24374,26.338257 8.8970272,29.688536 15.031537,34.822452 19.054652,38.189367 23.999964,44 23.999964,44 V 10.299511 C 21.40559,5.7753593 17.777157,3.8925389 14.321307,4.0047165 Z"
     id="path8" />
</svg>
