<?xml version="1.0" encoding="UTF-8" standalone="no"?>
<svg
   xmlns:dc="http://purl.org/dc/elements/1.1/"
   xmlns:cc="http://creativecommons.org/ns#"
   xmlns:rdf="http://www.w3.org/1999/02/22-rdf-syntax-ns#"
   xmlns:svg="http://www.w3.org/2000/svg"
   xmlns="http://www.w3.org/2000/svg"
   xmlns:sodipodi="http://sodipodi.sourceforge.net/DTD/sodipodi-0.dtd"
   xmlns:inkscape="http://www.inkscape.org/namespaces/inkscape"
   width="48"
   height="48"
   version="1.1"
   id="svg18"
   sodipodi:docname="com.github.alainm23.planner.svg"
   inkscape:version="0.92.5 (2060ec1f9f, 2020-04-08)">
  <metadata
     id="metadata24">
    <rdf:RDF>
      <cc:Work
         rdf:about="">
        <dc:format>image/svg+xml</dc:format>
        <dc:type
           rdf:resource="http://purl.org/dc/dcmitype/StillImage" />
      </cc:Work>
    </rdf:RDF>
  </metadata>
  <defs
     id="defs22" />
  <sodipodi:namedview
     pagecolor="#ffffff"
     bordercolor="#666666"
     borderopacity="1"
     objecttolerance="10"
     gridtolerance="10"
     guidetolerance="10"
     inkscape:pageopacity="0"
     inkscape:pageshadow="2"
     inkscape:window-width="783"
     inkscape:window-height="480"
     id="namedview20"
     showgrid="false"
     inkscape:zoom="4.9166667"
     inkscape:cx="24"
     inkscape:cy="24"
     inkscape:window-x="0"
     inkscape:window-y="28"
     inkscape:window-maximized="0"
     inkscape:current-layer="svg18" />
  <rect
     style="opacity:0.2"
     width="32.358"
     height="36.546"
     x="4.72"
     y="-46.07"
     rx="1.82"
     ry="1.827"
     transform="matrix(0.99304837,-0.11770701,-0.11677755,-0.9931581,0,0)"
     id="rect2" />
  <rect
     style="fill:#e4e4e4"
     width="32.358"
     height="36.546"
     x="4.84"
     y="-45.08"
     rx="1.82"
     ry="1.827"
     transform="matrix(0.99304837,-0.11770701,-0.11677755,-0.9931581,0,0)"
     id="rect4" />
  <rect
     style="opacity:0.2"
     width="32.358"
     height="36.546"
     x="10.56"
     y="3.58"
     rx="1.82"
     ry="1.827"
     transform="matrix(0.99304837,0.11770701,-0.11677755,0.9931581,0,0)"
     id="rect6" />
  <path
     style="opacity:0.2;fill:#ffffff"
     d="M 36.494141,4.3046875 C 36.373431,4.294564 36.25017,4.2957104 36.125,4.3105469 L 7.6074219,7.6914062 C 6.6060656,7.810098 5.8954562,8.7153142 6.0136719,9.7207031 l 0.041016,0.3554689 C 6.2281515,9.3544714 6.8279873,8.7837934 7.6074219,8.6914062 L 36.125,5.3105469 c 1.001356,-0.1186918 1.903269,0.5961735 2.021484,1.6015625 l 3.798828,32.3105466 c 0.04939,-0.205483 0.06721,-0.421716 0.04102,-0.644531 L 38.146484,5.9121094 C 38.043046,5.032394 37.339105,4.3755521 36.494141,4.3046875 Z"
     id="path8" />
  <rect
     style="fill:#4c566a;fill-opacity:1"
     width="32.358"
     height="36.546"
     x="10.44"
     y="2.59"
     rx="1.82"
     ry="1.827"
     transform="matrix(0.99304837,0.11770701,-0.11677755,0.9931581,0,0)"
     id="rect10" />
  <path
     style="opacity:0.2"
     d="M 29.900832,16 33,18.603337 23.051591,32 15,25.528045 l 2.546087,-3.439519 4.70774,3.814651 z"
     id="path12" />
  <path
     style="fill:#ffffff"
     d="M 29.900832,15 33,17.603337 23.051591,31 15,24.528045 l 2.546087,-3.439519 4.70774,3.814651 z"
     id="path14" />
  <path
     style="opacity:0.2;fill:#ffffff"
     d="M 11.505859,4.0058594 C 10.660895,4.076724 9.9569543,4.7335659 9.8535156,5.6132812 L 6.0136719,38.279297 c -0.026199,0.222815 -0.00837,0.439048 0.041016,0.644531 L 9.8535156,6.6132812 C 9.9717313,5.6078923 10.873644,4.8949801 11.875,5.0136719 l 28.517578,3.3789062 c 0.779435,0.092387 1.379271,0.6630651 1.552734,1.3847657 L 41.986328,9.421875 C 42.104544,8.416486 41.393934,7.5112699 40.392578,7.3925781 L 11.875,4.0136719 c -0.12517,-0.014837 -0.248431,-0.017936 -0.369141,-0.00781 z"
     id="path16" />
</svg>
