<?xml version="1.0" encoding="UTF-8" standalone="no"?>
<svg
   xmlns:dc="http://purl.org/dc/elements/1.1/"
   xmlns:cc="http://creativecommons.org/ns#"
   xmlns:rdf="http://www.w3.org/1999/02/22-rdf-syntax-ns#"
   xmlns:svg="http://www.w3.org/2000/svg"
   xmlns="http://www.w3.org/2000/svg"
   xmlns:sodipodi="http://sodipodi.sourceforge.net/DTD/sodipodi-0.dtd"
   xmlns:inkscape="http://www.inkscape.org/namespaces/inkscape"
   width="48"
   height="48"
   version="1"
   id="svg20"
   sodipodi:docname="com.github.aleksandar-stefanovic.urmsimulator.svg"
   inkscape:version="0.92.5 (2060ec1f9f, 2020-04-08)">
  <metadata
     id="metadata26">
    <rdf:RDF>
      <cc:Work
         rdf:about="">
        <dc:format>image/svg+xml</dc:format>
        <dc:type
           rdf:resource="http://purl.org/dc/dcmitype/StillImage" />
      </cc:Work>
    </rdf:RDF>
  </metadata>
  <defs
     id="defs24" />
  <sodipodi:namedview
     pagecolor="#ffffff"
     bordercolor="#666666"
     borderopacity="1"
     objecttolerance="10"
     gridtolerance="10"
     guidetolerance="10"
     inkscape:pageopacity="0"
     inkscape:pageshadow="2"
     inkscape:window-width="783"
     inkscape:window-height="480"
     id="namedview22"
     showgrid="false"
     inkscape:zoom="4.9166667"
     inkscape:cx="24"
     inkscape:cy="24"
     inkscape:window-x="0"
     inkscape:window-y="28"
     inkscape:window-maximized="0"
     inkscape:current-layer="svg20" />
  <rect
     style="fill:#4c566a;fill-opacity:1"
     width="40"
     height="40"
     x="4"
     y="4"
     rx="2"
     ry="2"
     id="rect2" />
  <path
     style="opacity:0.2;fill:#ffffff"
     d="M 4,7 4,6 C 4,4.892 4.892,4 6,4 l 36,0 c 1.108,0 2,0.892 2,2 l 0,1 C 44,5.892 43.108,5 42,5 L 6,5 C 4.892,5 4,5.892 4,7 Z"
     id="path4" />
  <path
     style="opacity:0.2"
     d="m 4,42 0,1 c 0,1.108 0.892,2 2,2 l 36,0 c 1.108,0 2,-0.892 2,-2 l 0,-1 c 0,1.108 -0.892,2 -2,2 L 6,44 C 4.892,44 4,43.108 4,42 Z"
     id="path6" />
  <path
     style="opacity:0.2;fill:none;stroke:#000000;stroke-width:2.99981117;stroke-linecap:round;stroke-linejoin:bevel"
     d="m 15.499678,18.49929 -4e-6,8.999434 c 0,2.260291 -1.573137,3.037063 -2.999807,3.000056 -1.337003,0.0053 -2.9998154,-0.711322 -2.9998154,-3.000056 l 4e-6,-8.999434"
     id="path8" />
  <path
     style="fill:none;stroke:#ffffff;stroke-width:2.99981117;stroke-linecap:round;stroke-linejoin:bevel"
     d="m 15.499678,17.49929 -4e-6,8.999434 c 0,2.260291 -1.573137,3.037063 -2.999807,3.000056 -1.337003,0.0053 -2.9998154,-0.711322 -2.9998154,-3.000056 l 4e-6,-8.999434"
     id="path10" />
  <path
     style="opacity:0.2;fill:none;stroke:#000000;stroke-width:2.99981117;stroke-linecap:round"
     d="m 25.520832,30.478585 -2.999811,-4.499963 m -2.999887,-1.499905 c 0,0 5.999698,0.677849 5.999698,-2.999812 0,-3.677664 -5.999698,-2.999883 -5.999698,-2.999883 m 1.47e-4,11.99971 0,-11.999562"
     id="path12" />
  <path
     style="fill:none;stroke:#ffffff;stroke-width:2.99981117;stroke-linecap:round"
     d="m 25.520832,29.478585 -2.999811,-4.499963 m -2.999887,-1.499905 c 0,0 5.999698,0.677849 5.999698,-2.999812 0,-3.677664 -5.999698,-2.999883 -5.999698,-2.999883 m 1.47e-4,11.99971 0,-11.999562"
     id="path14" />
  <path
     style="opacity:0.2;fill:none;stroke:#000000;stroke-width:2.99981117;stroke-linecap:round;stroke-linejoin:round"
     d="m 38.512217,30.478732 0,-11.99949 m -8.999434,0 4.499717,5.999622 4.499717,-5.999622 m -8.999434,11.99949 0,-11.99949"
     id="path16" />
  <path
     style="fill:none;stroke:#ffffff;stroke-width:2.99981117;stroke-linecap:round;stroke-linejoin:round"
     d="m 38.512217,29.478732 0,-11.99949 m -8.999434,0 4.499717,5.999622 4.499717,-5.999622 m -8.999434,11.99949 0,-11.99949"
     id="path18" />
</svg>
