<?xml version="1.0" encoding="UTF-8" standalone="no"?>
<svg
   xmlns:dc="http://purl.org/dc/elements/1.1/"
   xmlns:cc="http://creativecommons.org/ns#"
   xmlns:rdf="http://www.w3.org/1999/02/22-rdf-syntax-ns#"
   xmlns:svg="http://www.w3.org/2000/svg"
   xmlns="http://www.w3.org/2000/svg"
   xmlns:sodipodi="http://sodipodi.sourceforge.net/DTD/sodipodi-0.dtd"
   xmlns:inkscape="http://www.inkscape.org/namespaces/inkscape"
   width="48"
   height="48"
   version="1.1"
   id="svg12"
   sodipodi:docname="com.github.danrabbit.nimbus.svg"
   inkscape:version="0.92.5 (2060ec1f9f, 2020-04-08)">
  <metadata
     id="metadata18">
    <rdf:RDF>
      <cc:Work
         rdf:about="">
        <dc:format>image/svg+xml</dc:format>
        <dc:type
           rdf:resource="http://purl.org/dc/dcmitype/StillImage" />
      </cc:Work>
    </rdf:RDF>
  </metadata>
  <defs
     id="defs16" />
  <sodipodi:namedview
     pagecolor="#ffffff"
     bordercolor="#666666"
     borderopacity="1"
     objecttolerance="10"
     gridtolerance="10"
     guidetolerance="10"
     inkscape:pageopacity="0"
     inkscape:pageshadow="2"
     inkscape:window-width="783"
     inkscape:window-height="480"
     id="namedview14"
     showgrid="false"
     inkscape:zoom="4.9166667"
     inkscape:cx="24"
     inkscape:cy="24"
     inkscape:window-x="0"
     inkscape:window-y="28"
     inkscape:window-maximized="0"
     inkscape:current-layer="svg12" />
  <path
     style="fill:#4c566a;fill-opacity:1"
     d="m24 4a20 20 0 0 0 -20 20 20 20 0 0 0 20 20 20 20 0 0 0 20 -20 20 20 0 0 0 -20 -20z"
     id="path2" />
  <path
     opacity=".2"
     d="m4.0215 24.418a20 20 0 0 0 -0.0215 0.582 20 20 0 0 0 20 20 20 20 0 0 0 20 -20 20 20 0 0 0 -0.021 -0.418 20 20 0 0 1 -19.979 19.418 20 20 0 0 1 -19.978 -19.582z"
     id="path4" />
  <path
     fill="#ffffff"
     opacity=".2"
     d="m24 4a20 20 0 0 0 -20 20 20 20 0 0 0 0.0215 0.418 20 20 0 0 1 19.978 -19.418 20 20 0 0 1 19.979 19.582 20 20 0 0 0 0.021 -0.582 20 20 0 0 0 -20 -20z"
     id="path6" />
  <path
     style="opacity:.2"
     d="m26.042558 15.000002c-2.273369 0-4.242191 1.309233-5.218085 3.209467-0.632512-0.404176-1.381267-0.641881-2.186171-0.641881-2.256134 0-4.085101 1.839224-4.085101 4.108104 0 0.360717 0.05673 0.709701 0.14361 1.043049-1.629457 1.105216-2.696811 2.985449-2.696811 5.119073 0 3.413834 2.732937 6.162186 6.127656 6.162186h11.744692c3.394722 0 6.127652-2.748352 6.127652-6.162186 0-2.726084-1.750031-5.02443-4.180858-5.841211 0.06596-0.354297 0.09575-0.717625 0.09575-1.091178 0-3.2615-2.629124-5.905425-5.872327-5.905425z"
     id="path8" />
  <path
     style="fill:#ffffff"
     d="m26.042558 14.000002c-2.273369 0-4.242191 1.309233-5.218085 3.209467-0.632512-0.404176-1.381267-0.641881-2.186171-0.641881-2.256134 0-4.085101 1.839224-4.085101 4.108104 0 0.360717 0.05673 0.709701 0.14361 1.043049-1.629457 1.105216-2.696811 2.985449-2.696811 5.119073 0 3.413834 2.732937 6.162186 6.127656 6.162186h11.744692c3.394722 0 6.127652-2.748352 6.127652-6.162186 0-2.726084-1.750031-5.02443-4.180858-5.841211 0.06596-0.354297 0.09575-0.717625 0.09575-1.091178 0-3.2615-2.629124-5.905425-5.872327-5.905425z"
     id="path10" />
</svg>
