<?xml version="1.0" encoding="UTF-8" standalone="no"?>
<svg
   xmlns:dc="http://purl.org/dc/elements/1.1/"
   xmlns:cc="http://creativecommons.org/ns#"
   xmlns:rdf="http://www.w3.org/1999/02/22-rdf-syntax-ns#"
   xmlns:svg="http://www.w3.org/2000/svg"
   xmlns="http://www.w3.org/2000/svg"
   xmlns:sodipodi="http://sodipodi.sourceforge.net/DTD/sodipodi-0.dtd"
   xmlns:inkscape="http://www.inkscape.org/namespaces/inkscape"
   width="48"
   height="48"
   version="1"
   id="svg12"
   sodipodi:docname="com.remarkable.reMarkable.svg"
   inkscape:version="0.92.5 (2060ec1f9f, 2020-04-08)">
  <metadata
     id="metadata18">
    <rdf:RDF>
      <cc:Work
         rdf:about="">
        <dc:format>image/svg+xml</dc:format>
        <dc:type
           rdf:resource="http://purl.org/dc/dcmitype/StillImage" />
      </cc:Work>
    </rdf:RDF>
  </metadata>
  <defs
     id="defs16" />
  <sodipodi:namedview
     pagecolor="#ffffff"
     bordercolor="#666666"
     borderopacity="1"
     objecttolerance="10"
     gridtolerance="10"
     guidetolerance="10"
     inkscape:pageopacity="0"
     inkscape:pageshadow="2"
     inkscape:window-width="783"
     inkscape:window-height="480"
     id="namedview14"
     showgrid="false"
     inkscape:zoom="4.9166667"
     inkscape:cx="24"
     inkscape:cy="24"
     inkscape:window-x="0"
     inkscape:window-y="28"
     inkscape:window-maximized="0"
     inkscape:current-layer="svg12" />
  <rect
     style="opacity:0.2"
     width="40"
     height="40"
     x="4"
     y="5"
     rx="2"
     ry="2"
     id="rect2" />
  <rect
     style="fill:#4c566a;fill-opacity:1"
     width="40"
     height="40"
     x="4"
     y="4"
     rx="2"
     ry="2"
     id="rect4" />
  <path
     style="fill:#ffffff;opacity:0.1"
     d="M 6 4 C 4.892 4 4 4.892 4 6 L 4 7 C 4 5.892 4.892 5 6 5 L 42 5 C 43.108 5 44 5.892 44 7 L 44 6 C 44 4.892 43.108 4 42 4 L 6 4 z"
     id="path6" />
  <path
     style="opacity:0.2"
     d="M 35,16 28.556641,26.330078 22.054688,16.011719 h -4.44336 L 19,18.216797 V 32.365234 L 16.880859,34 H 19 21 22.537109 L 21,32.365234 V 21.814453 l 5.333984,8.271485 1.148438,1.941406 L 35,19.882812 V 32.365234 L 33.472656,34 H 35 39 41.300781 L 39,32.365234 V 17.648438 l 2.300781,-1.636719 H 39 Z M 15.117188,21.992188 C 13.726852,22.08267 12.648505,22.878195 12,23.968015 V 22 L 8,23.714844 6.4003906,24.441406 8,25.824219 v 6.566406 L 6.5117188,34 H 8 12 14.339844 L 12,32.390625 v -7.090579 c 1.267558,-0.302712 2.200246,-0.570944 3.640625,0.335938 l 0.966797,-3.401609 c -0.528415,-0.200837 -1.026789,-0.272348 -1.490234,-0.242187 z"
     id="path8" />
  <path
     style="fill:#ffffff"
     d="M 35,15 28.556641,25.330078 22.054688,15.011719 h -4.44336 L 19,17.216797 V 31.365234 L 16.880859,33 H 19 21 22.537109 L 21,31.365234 V 20.814453 l 5.333984,8.271485 1.148438,1.941406 L 35,18.882812 V 31.365234 L 33.472656,33 H 35 39 41.300781 L 39,31.365234 V 16.648438 l 2.300781,-1.636719 H 39 Z M 15.117188,20.992188 C 13.726852,21.08267 12.648505,22.078149 12,23.167969 V 21 L 8,22.714844 6.4003906,23.441406 8,24.824219 v 6.566406 L 6.5117188,33 H 8 12 14.339844 L 12,31.390625 v -7.090579 c 1.267558,-0.302712 2.200246,-0.570944 3.640625,0.335938 l 0.966797,-3.401609 c -0.528415,-0.200837 -1.026789,-0.272348 -1.490234,-0.242187 z"
     id="path10" />
</svg>
