<?xml version="1.0" encoding="UTF-8" standalone="no"?>
<svg
   xmlns:dc="http://purl.org/dc/elements/1.1/"
   xmlns:cc="http://creativecommons.org/ns#"
   xmlns:rdf="http://www.w3.org/1999/02/22-rdf-syntax-ns#"
   xmlns:svg="http://www.w3.org/2000/svg"
   xmlns="http://www.w3.org/2000/svg"
   xmlns:sodipodi="http://sodipodi.sourceforge.net/DTD/sodipodi-0.dtd"
   xmlns:inkscape="http://www.inkscape.org/namespaces/inkscape"
   width="48"
   height="48"
   version="1.1"
   id="svg44"
   sodipodi:docname="at.priv.toastfreeware.ConfClerk.svg"
   inkscape:version="0.92.5 (2060ec1f9f, 2020-04-08)">
  <metadata
     id="metadata50">
    <rdf:RDF>
      <cc:Work
         rdf:about="">
        <dc:format>image/svg+xml</dc:format>
        <dc:type
           rdf:resource="http://purl.org/dc/dcmitype/StillImage" />
      </cc:Work>
    </rdf:RDF>
  </metadata>
  <defs
     id="defs48" />
  <sodipodi:namedview
     pagecolor="#ffffff"
     bordercolor="#666666"
     borderopacity="1"
     objecttolerance="10"
     gridtolerance="10"
     guidetolerance="10"
     inkscape:pageopacity="0"
     inkscape:pageshadow="2"
     inkscape:window-width="640"
     inkscape:window-height="480"
     id="namedview46"
     showgrid="false"
     inkscape:zoom="4.9166667"
     inkscape:cx="-15.661017"
     inkscape:cy="24"
     inkscape:current-layer="svg44" />
  <path
     style="fill:#4c566a;fill-opacity:1"
     d="M 4,15.9 V 40 c 0,1.108 0.892,2 2,2 h 36 c 1.108,0 2,-0.892 2,-2 V 15.9 Z"
     id="path2" />
  <path
     style="opacity:0.1"
     d="M 44,17 V 9 C 44,7.892 43.108,7 42,7 H 6 C 4.892,7 4,7.892 4,9 v 8 z"
     id="path4" />
  <path
     style="fill:#5f697d;fill-opacity:1"
     d="M 44,16 V 8 C 44,6.892 43.108,6 42,6 H 6 C 4.892,6 4,6.892 4,8 v 8 z"
     id="path6" />
  <path
     style="opacity:0.2;fill:#ffffff"
     d="M 6,6 C 4.892,6 4,6.892 4,8 V 9 C 4,7.892 4.892,7 6,7 h 36 c 1.108,0 2,0.892 2,2 V 8 C 44,6.892 43.108,6 42,6 Z"
     id="path8" />
  <path
     style="opacity:0.2"
     d="m 4,40 v 1 c 0,1.108 0.892,2 2,2 h 36 c 1.108,0 2,-0.892 2,-2 v -1 c 0,1.108 -0.892,2 -2,2 H 6 C 4.892,42 4,41.108 4,40 Z"
     id="path10" />
  <rect
     style="opacity:0.2"
     width="6"
     height="6"
     x="33"
     y="26"
     id="rect12" />
  <rect
     style="opacity:0.2"
     width="6"
     height="6"
     x="17"
     y="26"
     id="rect14" />
  <rect
     style="opacity:0.2"
     width="6"
     height="6"
     x="9"
     y="26"
     id="rect16" />
  <rect
     style="opacity:0.2"
     width="6"
     height="6"
     x="25"
     y="34"
     id="rect18" />
  <rect
     style="opacity:0.2"
     width="6"
     height="6"
     x="33"
     y="34"
     id="rect20" />
  <rect
     style="opacity:0.2"
     width="6"
     height="6"
     x="17"
     y="34"
     id="rect22" />
  <rect
     style="opacity:0.2"
     width="6"
     height="6"
     x="9"
     y="34"
     id="rect24" />
  <rect
     style="opacity:0.2"
     width="6"
     height="6"
     x="25"
     y="18"
     id="rect26" />
  <rect
     style="opacity:0.2"
     width="6"
     height="6"
     x="33"
     y="18"
     id="rect28" />
  <rect
     style="opacity:0.2"
     width="6"
     height="6"
     x="17"
     y="18"
     id="rect30" />
  <rect
     style="opacity:0.2"
     width="6"
     height="6"
     x="9"
     y="18"
     id="rect32" />
  <circle
     style="opacity:0.2"
     cx="12"
     cy="12"
     r="2"
     id="circle34" />
  <circle
     style="fill:#ffffff"
     cx="12"
     cy="11"
     r="2"
     id="circle36" />
  <circle
     style="opacity:0.2"
     cx="36"
     cy="12"
     r="2"
     id="circle38" />
  <circle
     style="fill:#ffffff"
     cx="36"
     cy="11"
     r="2"
     id="circle40" />
  <rect
     style="opacity:0.2"
     width="6"
     height="6"
     x="25"
     y="26"
     id="rect42" />
</svg>
