<?xml version="1.0" encoding="UTF-8" standalone="no"?>
<svg
   xmlns:dc="http://purl.org/dc/elements/1.1/"
   xmlns:cc="http://creativecommons.org/ns#"
   xmlns:rdf="http://www.w3.org/1999/02/22-rdf-syntax-ns#"
   xmlns:svg="http://www.w3.org/2000/svg"
   xmlns="http://www.w3.org/2000/svg"
   xmlns:sodipodi="http://sodipodi.sourceforge.net/DTD/sodipodi-0.dtd"
   xmlns:inkscape="http://www.inkscape.org/namespaces/inkscape"
   width="48"
   height="48"
   version="1"
   id="svg12"
   sodipodi:docname="connectagram.svg"
   inkscape:version="0.92.5 (2060ec1f9f, 2020-04-08)">
  <metadata
     id="metadata18">
    <rdf:RDF>
      <cc:Work
         rdf:about="">
        <dc:format>image/svg+xml</dc:format>
        <dc:type
           rdf:resource="http://purl.org/dc/dcmitype/StillImage" />
      </cc:Work>
    </rdf:RDF>
  </metadata>
  <defs
     id="defs16" />
  <sodipodi:namedview
     pagecolor="#ffffff"
     bordercolor="#666666"
     borderopacity="1"
     objecttolerance="10"
     gridtolerance="10"
     guidetolerance="10"
     inkscape:pageopacity="0"
     inkscape:pageshadow="2"
     inkscape:window-width="783"
     inkscape:window-height="480"
     id="namedview14"
     showgrid="false"
     inkscape:zoom="4.9166667"
     inkscape:cx="-1.1186441"
     inkscape:cy="24"
     inkscape:window-x="0"
     inkscape:window-y="28"
     inkscape:window-maximized="0"
     inkscape:current-layer="svg12" />
  <rect
     style="opacity:0.2"
     width="40"
     height="40"
     x="4"
     y="5"
     rx="12"
     ry="12"
     id="rect2" />
  <rect
     style="fill:#4c566a;fill-opacity:1"
     width="40"
     height="40"
     x="4"
     y="4"
     rx="12"
     ry="12"
     id="rect4" />
  <path
     style="fill:#ffffff;opacity:0.2"
     d="M 16 4 C 9.352 4 4 9.352 4 16 L 4 17 C 4 10.352 9.352 5 16 5 L 32 5 C 38.648 5 44 10.352 44 17 L 44 16 C 44 9.352 38.648 4 32 4 L 16 4 z"
     id="path6" />
  <path
     style="opacity:0.2"
     d="m 31,32.710135 c -0.83466,0.426082 -1.704739,0.74758 -2.610236,0.964494 C 27.484239,33.891542 26.539359,33.999999 25.555119,34 22.618102,33.999999 20.291333,33.194319 18.574803,31.582957 16.858266,29.963851 15.999999,27.771471 16,25.005811 c -10e-7,-2.773391 0.858266,-4.965771 2.574803,-6.577147 1.71653,-1.619092 4.043299,-2.428645 6.980316,-2.428664 0.98424,1.9e-5 1.92912,0.108475 2.834645,0.325371 0.905497,0.216932 1.775576,0.53843 2.610236,0.964494 v 3.390373 c -0.842535,-0.565513 -1.673241,-0.979974 -2.492126,-1.243384 -0.81891,-0.263381 -1.381074,-0.395079 -2.286575,-0.395093 -1.622056,1.4e-5 -2.897645,0.511312 -3.826771,1.533893 -0.929142,1.022606 -1.393833,2.632878 -1.393826,4.430157 -7e-6,1.789548 0.464684,3.395946 1.393826,4.418535 0.929126,1.022599 2.204715,1.533896 3.826771,1.533893 0.905501,3e-6 1.467665,-0.131695 2.286575,-0.395093 C 29.326759,30.299753 30.157465,29.885293 31,29.319762 v 3.390373"
     id="path8" />
  <path
     style="fill:#ffffff"
     d="m 31,31.710135 c -0.83466,0.426082 -1.704739,0.74758 -2.610236,0.964494 C 27.484239,32.891542 26.539359,32.999999 25.555119,33 22.618102,32.999999 20.291333,32.194319 18.574803,30.582957 16.858266,28.963851 15.999999,26.771471 16,24.005811 c -10e-7,-2.773391 0.858266,-4.965771 2.574803,-6.577147 1.71653,-1.619092 4.043299,-2.428645 6.980316,-2.428664 0.98424,1.9e-5 1.92912,0.108475 2.834645,0.325371 0.905497,0.216932 1.775576,0.53843 2.610236,0.964494 v 3.390373 c -0.842535,-0.565513 -1.673241,-0.979974 -2.492126,-1.243384 -0.81891,-0.263381 -1.381074,-0.395079 -2.286575,-0.395093 -1.622056,1.4e-5 -2.897645,0.511312 -3.826771,1.533893 -0.929142,1.022606 -1.393833,2.632878 -1.393826,4.430157 -7e-6,1.789548 0.464684,3.395946 1.393826,4.418535 0.929126,1.022599 2.204715,1.533896 3.826771,1.533893 0.905501,3e-6 1.467665,-0.131695 2.286575,-0.395093 C 29.326759,29.299753 30.157465,28.885293 31,28.319762 v 3.390373"
     id="path10" />
</svg>
