<?xml version="1.0" encoding="UTF-8" standalone="no"?>
<svg
   xmlns:dc="http://purl.org/dc/elements/1.1/"
   xmlns:cc="http://creativecommons.org/ns#"
   xmlns:rdf="http://www.w3.org/1999/02/22-rdf-syntax-ns#"
   xmlns:svg="http://www.w3.org/2000/svg"
   xmlns="http://www.w3.org/2000/svg"
   xmlns:sodipodi="http://sodipodi.sourceforge.net/DTD/sodipodi-0.dtd"
   xmlns:inkscape="http://www.inkscape.org/namespaces/inkscape"
   width="48"
   height="48"
   version="1.1"
   id="svg12"
   sodipodi:docname="appimagekit-cool-retro-term.svg"
   inkscape:version="0.92.5 (2060ec1f9f, 2020-04-08)">
  <metadata
     id="metadata18">
    <rdf:RDF>
      <cc:Work
         rdf:about="">
        <dc:format>image/svg+xml</dc:format>
        <dc:type
           rdf:resource="http://purl.org/dc/dcmitype/StillImage" />
      </cc:Work>
    </rdf:RDF>
  </metadata>
  <defs
     id="defs16" />
  <sodipodi:namedview
     pagecolor="#ffffff"
     bordercolor="#666666"
     borderopacity="1"
     objecttolerance="10"
     gridtolerance="10"
     guidetolerance="10"
     inkscape:pageopacity="0"
     inkscape:pageshadow="2"
     inkscape:window-width="783"
     inkscape:window-height="480"
     id="namedview14"
     showgrid="false"
     inkscape:zoom="4.9166667"
     inkscape:cx="24"
     inkscape:cy="24"
     inkscape:window-x="0"
     inkscape:window-y="28"
     inkscape:window-maximized="0"
     inkscape:current-layer="svg12" />
  <path
     style="opacity:.2"
     d="m4 40v1c0 1.108 0.892 2 2 2h36c1.108 0 2-0.892 2-2v-1c0 1.108-0.892 2-2 2h-36c-1.108 0-2-0.892-2-2z"
     id="path2" />
  <rect
     style="fill:#4c566a;fill-opacity:1"
     width="40"
     height="36"
     x="4"
     y="6"
     rx="2"
     ry="2"
     id="rect4" />
  <path
     style="fill:#ffffff;opacity:.1"
     d="m6 6c-1.108 0-2 0.892-2 2v1c0-1.108 0.892-2 2-2h36c1.108 0 2 0.892 2 2v-1c0-1.108-0.892-2-2-2z"
     id="path6" />
  <path
     style="opacity:.2"
     d="m9 11v1h3v-1zm3 1v1h1v-1zm-3 0h-1l0.0918 5h0.9082zm0 5v1h3v-1zm3 0h1v-1h-1zm2-6v7h1v-2h3v-1h-3v-3h3v-1zm4 1v3h1v-3zm0 4v2h1v-2zm2-5v1h2v6h1v-6h2v-1h-3zm-12 8v7h5v-7z"
     id="path8" />
  <path
     style="fill:#ffffff;fill-opacity:1"
     d="m9 10v1h3v-1h-3zm3 1v1h1v-1h-1zm-3 0h-1l0.0917969 5h0.9082031v-5zm0 5v1h3v-1h-3zm3 0h1v-1h-1v1zm2-6v7h1v-2h3v-1h-3v-3h3v-1h-4zm4 1v3h1v-3h-1zm0 4v2h1v-2h-1zm2-5v1h2v6h1v-6h2v-1h-2-1-2zm-12 8v7h5v-7h-5z"
     id="path10" />
</svg>
