<?xml version="1.0" encoding="UTF-8" standalone="no"?>
<svg
   xmlns:dc="http://purl.org/dc/elements/1.1/"
   xmlns:cc="http://creativecommons.org/ns#"
   xmlns:rdf="http://www.w3.org/1999/02/22-rdf-syntax-ns#"
   xmlns:svg="http://www.w3.org/2000/svg"
   xmlns="http://www.w3.org/2000/svg"
   xmlns:sodipodi="http://sodipodi.sourceforge.net/DTD/sodipodi-0.dtd"
   xmlns:inkscape="http://www.inkscape.org/namespaces/inkscape"
   width="48"
   height="48"
   version="1"
   id="svg12"
   sodipodi:docname="crashplan.svg"
   inkscape:version="0.92.5 (2060ec1f9f, 2020-04-08)">
  <metadata
     id="metadata18">
    <rdf:RDF>
      <cc:Work
         rdf:about="">
        <dc:format>image/svg+xml</dc:format>
        <dc:type
           rdf:resource="http://purl.org/dc/dcmitype/StillImage" />
      </cc:Work>
    </rdf:RDF>
  </metadata>
  <defs
     id="defs16" />
  <sodipodi:namedview
     pagecolor="#ffffff"
     bordercolor="#666666"
     borderopacity="1"
     objecttolerance="10"
     gridtolerance="10"
     guidetolerance="10"
     inkscape:pageopacity="0"
     inkscape:pageshadow="2"
     inkscape:window-width="783"
     inkscape:window-height="480"
     id="namedview14"
     showgrid="false"
     inkscape:zoom="4.9166667"
     inkscape:cx="24"
     inkscape:cy="24"
     inkscape:window-x="0"
     inkscape:window-y="28"
     inkscape:window-maximized="0"
     inkscape:current-layer="svg12" />
  <path
     style="opacity:0.2"
     d="M 24,8 4.0000001,22 H 7 V 40.583334 C 7,41.280334 7.375058,42 8.129,42 H 39.871 C 40.625285,42 41,41.280334 41,40.583334 V 22 h 3 z"
     id="path2" />
  <path
     style="fill:#4c566a;fill-opacity:1"
     d="M 24,7 4.0000001,21 H 7 V 39.583334 C 7,40.280334 7.375058,41 8.129,41 H 39.871 C 40.625285,41 41,40.280334 41,39.583334 V 21 h 3 z"
     id="path4" />
  <path
     style="opacity:0.2"
     d="m 24,23 a 2,2 0 0 0 -2,2 2,2 0 0 0 2,2 2,2 0 0 0 2,-2 2,2 0 0 0 -2,-2 z m 6,0 a 2,2 0 0 0 -2,2 2,2 0 0 0 2,2 2,2 0 0 0 2,-2 2,2 0 0 0 -2,-2 z m 6,0 a 2,2 0 0 0 -2,2 2,2 0 0 0 2,2 2,2 0 0 0 2,-2 2,2 0 0 0 -2,-2 z m -12,6 a 2,2 0 0 0 -2,2 2,2 0 0 0 2,2 2,2 0 0 0 2,-2 2,2 0 0 0 -2,-2 z m 6,0 a 2,2 0 0 0 -2,2 2,2 0 0 0 2,2 2,2 0 0 0 2,-2 2,2 0 0 0 -2,-2 z m 6,0 a 2,2 0 0 0 -2,2 2,2 0 0 0 2,2 2,2 0 0 0 2,-2 2,2 0 0 0 -2,-2 z m -12,6 a 2,2 0 0 0 -2,2 2,2 0 0 0 2,2 2,2 0 0 0 2,-2 2,2 0 0 0 -2,-2 z m 6,0 a 2,2 0 0 0 -2,2 2,2 0 0 0 2,2 2,2 0 0 0 2,-2 2,2 0 0 0 -2,-2 z m 6,0 a 2,2 0 0 0 -2,2 2,2 0 0 0 2,2 2,2 0 0 0 2,-2 2,2 0 0 0 -2,-2 z"
     id="path6" />
  <path
     style="fill:#ffffff"
     d="M 24 22 A 2 2 0 0 0 22 24 A 2 2 0 0 0 24 26 A 2 2 0 0 0 26 24 A 2 2 0 0 0 24 22 z M 30 22 A 2 2 0 0 0 28 24 A 2 2 0 0 0 30 26 A 2 2 0 0 0 32 24 A 2 2 0 0 0 30 22 z M 36 22 A 2 2 0 0 0 34 24 A 2 2 0 0 0 36 26 A 2 2 0 0 0 38 24 A 2 2 0 0 0 36 22 z M 24 28 A 2 2 0 0 0 22 30 A 2 2 0 0 0 24 32 A 2 2 0 0 0 26 30 A 2 2 0 0 0 24 28 z M 30 28 A 2 2 0 0 0 28 30 A 2 2 0 0 0 30 32 A 2 2 0 0 0 32 30 A 2 2 0 0 0 30 28 z M 36 28 A 2 2 0 0 0 34 30 A 2 2 0 0 0 36 32 A 2 2 0 0 0 38 30 A 2 2 0 0 0 36 28 z M 24 34 A 2 2 0 0 0 22 36 A 2 2 0 0 0 24 38 A 2 2 0 0 0 26 36 A 2 2 0 0 0 24 34 z M 30 34 A 2 2 0 0 0 28 36 A 2 2 0 0 0 30 38 A 2 2 0 0 0 32 36 A 2 2 0 0 0 30 34 z M 36 34 A 2 2 0 0 0 34 36 A 2 2 0 0 0 36 38 A 2 2 0 0 0 38 36 A 2 2 0 0 0 36 34 z"
     id="path8" />
  <path
     style="fill:#ffffff;opacity:0.2"
     d="M 24 7 L 4 21 L 5.4277344 21 L 24 8 L 42.572266 21 L 44 21 L 24 7 z"
     id="path10" />
</svg>
