<?xml version="1.0" encoding="UTF-8" standalone="no"?>
<svg
   xmlns:dc="http://purl.org/dc/elements/1.1/"
   xmlns:cc="http://creativecommons.org/ns#"
   xmlns:rdf="http://www.w3.org/1999/02/22-rdf-syntax-ns#"
   xmlns:svg="http://www.w3.org/2000/svg"
   xmlns="http://www.w3.org/2000/svg"
   xmlns:sodipodi="http://sodipodi.sourceforge.net/DTD/sodipodi-0.dtd"
   xmlns:inkscape="http://www.inkscape.org/namespaces/inkscape"
   width="48"
   height="48"
   version="1"
   id="svg30"
   sodipodi:docname="cs-login.svg"
   inkscape:version="0.92.5 (2060ec1f9f, 2020-04-08)">
  <metadata
     id="metadata36">
    <rdf:RDF>
      <cc:Work
         rdf:about="">
        <dc:format>image/svg+xml</dc:format>
        <dc:type
           rdf:resource="http://purl.org/dc/dcmitype/StillImage" />
      </cc:Work>
    </rdf:RDF>
  </metadata>
  <defs
     id="defs34" />
  <sodipodi:namedview
     pagecolor="#ffffff"
     bordercolor="#666666"
     borderopacity="1"
     objecttolerance="10"
     gridtolerance="10"
     guidetolerance="10"
     inkscape:pageopacity="0"
     inkscape:pageshadow="2"
     inkscape:window-width="783"
     inkscape:window-height="480"
     id="namedview32"
     showgrid="false"
     inkscape:zoom="4.9166667"
     inkscape:cx="24"
     inkscape:cy="24"
     inkscape:window-x="0"
     inkscape:window-y="28"
     inkscape:window-maximized="0"
     inkscape:current-layer="svg30" />
  <rect
     fill="#4f4f4f"
     width="32"
     height="40"
     x="-40"
     y="-44"
     rx="2"
     ry="2"
     transform="matrix(0,-1,-1,0,0,0)"
     id="rect2"
     style="fill:#4c566a;fill-opacity:1" />
  <g
     opacity=".2"
     transform="translate(0,1)"
     id="g8">
    <rect
       width="30"
       height="8"
       x="9"
       y="14"
       rx="2"
       ry="2"
       id="rect4" />
    <rect
       width="30"
       height="8"
       x="9"
       y="26"
       rx="2"
       ry="2"
       id="rect6" />
  </g>
  <path
     fill="#fff"
     opacity=".1"
     d="m6 8c-1.108 0-2 0.892-2 2v1c0-1.108 0.892-2 2-2h36c1.108 0 2 0.892 2 2v-1c0-1.108-0.892-2-2-2h-36z"
     id="path10" />
  <path
     opacity=".2"
     d="m4 38v1c0 1.108 0.892 2 2 2h36c1.108 0 2-0.892 2-2v-1c0 1.108-0.892 2-2 2h-36c-1.108 0-2-0.892-2-2z"
     id="path12" />
  <rect
     fill="#fff"
     width="30"
     height="8"
     x="9"
     y="14"
     rx="2"
     ry="2"
     id="rect14" />
  <rect
     fill="#fff"
     width="30"
     height="8"
     x="9"
     y="26"
     rx="2"
     ry="2"
     id="rect16" />
  <circle
     fill="#4fa0ff"
     cx="13"
     cy="18"
     r="3"
     id="circle18"
     style="fill:#5f697d;fill-opacity:1" />
  <circle
     fill="#4fa0ff"
     cx="20"
     cy="18"
     r="3"
     id="circle20"
     style="fill:#5f697d;fill-opacity:1" />
  <circle
     fill="#4fa0ff"
     cx="27"
     cy="18"
     r="3"
     id="circle22"
     style="fill:#5f697d;fill-opacity:1" />
  <circle
     fill="#ff4f4f"
     cx="13"
     cy="30"
     r="3"
     id="circle24"
     style="fill:#4c566a;fill-opacity:1" />
  <circle
     fill="#ff4f4f"
     cx="20"
     cy="30"
     r="3"
     id="circle26"
     style="fill:#4c566a;fill-opacity:1" />
  <circle
     fill="#ff4f4f"
     cx="27"
     cy="30"
     r="3"
     id="circle28"
     style="fill:#4c566a;fill-opacity:1" />
</svg>
