<?xml version="1.0" encoding="UTF-8" standalone="no"?>
<svg
   xmlns:dc="http://purl.org/dc/elements/1.1/"
   xmlns:cc="http://creativecommons.org/ns#"
   xmlns:rdf="http://www.w3.org/1999/02/22-rdf-syntax-ns#"
   xmlns:svg="http://www.w3.org/2000/svg"
   xmlns="http://www.w3.org/2000/svg"
   xmlns:sodipodi="http://sodipodi.sourceforge.net/DTD/sodipodi-0.dtd"
   xmlns:inkscape="http://www.inkscape.org/namespaces/inkscape"
   width="48"
   height="48"
   version="1"
   id="svg30"
   sodipodi:docname="printersandfax_q4os_startmenu.svg"
   inkscape:version="0.92.5 (2060ec1f9f, 2020-04-08)">
  <metadata
     id="metadata36">
    <rdf:RDF>
      <cc:Work
         rdf:about="">
        <dc:format>image/svg+xml</dc:format>
        <dc:type
           rdf:resource="http://purl.org/dc/dcmitype/StillImage" />
      </cc:Work>
    </rdf:RDF>
  </metadata>
  <defs
     id="defs34" />
  <sodipodi:namedview
     pagecolor="#ffffff"
     bordercolor="#666666"
     borderopacity="1"
     objecttolerance="10"
     gridtolerance="10"
     guidetolerance="10"
     inkscape:pageopacity="0"
     inkscape:pageshadow="2"
     inkscape:window-width="783"
     inkscape:window-height="480"
     id="namedview32"
     showgrid="false"
     inkscape:zoom="4.9166667"
     inkscape:cx="24"
     inkscape:cy="24"
     inkscape:window-x="0"
     inkscape:window-y="28"
     inkscape:window-maximized="0"
     inkscape:current-layer="svg30" />
  <rect
     style="opacity:0.2"
     width="17"
     height="40"
     x="-33"
     y="-44"
     rx="2"
     ry="2"
     transform="matrix(0,-1,-1,0,0,0)"
     id="rect2" />
  <path
     style="opacity:0.2"
     d="m 8,28 0,15 c 0,1.108 0.892,2 2,2 l 28,0 c 1.108,0 2,-0.892 2,-2 L 40,28 8,28 Z"
     id="path4" />
  <path
     style="fill:#737d91;fill-opacity:1"
     d="M 10 4 C 8.892 4 8 4.892 8 6 L 8 18 L 40 18 L 40 6 C 40 4.892 39.108 4 38 4 L 10 4 z"
     id="path6" />
  <rect
     fill="#4f4f4f"
     width="17"
     height="40"
     x="-32"
     y="-44"
     rx="2"
     ry="2"
     transform="matrix(0,-1,-1,0,0,0)"
     id="rect8"
     style="fill:#4c566a;fill-opacity:1" />
  <path
     fill="#fff"
     opacity=".1"
     d="m6 15.004c-1.108 0-2 0.892-2 2v1c0-1.108 0.892-2 2-2h36c1.108 0 2 0.892 2 2v-1c0-1.108-0.892-2-2-2h-36z"
     id="path10" />
  <rect
     style="opacity:0.2"
     width="36"
     height="4"
     x="6"
     y="25"
     id="rect12" />
  <rect
     style="opacity:0.2"
     width="4"
     height="4"
     x="6"
     y="18"
     rx="1.5"
     ry="1.5"
     id="rect14" />
  <rect
     style="fill:#ffffff;fill-opacity:1"
     width="4"
     height="4"
     x="6"
     y="17"
     rx="1.5"
     ry="1.5"
     id="rect16" />
  <path
     style="fill:#737d91;fill-opacity:1"
     d="M 8 27 L 8 42 C 8 43.108 8.892 44 10 44 L 38 44 C 39.108 44 40 43.108 40 42 L 40 27 L 8 27 z"
     id="path18" />
  <path
     style="fill:#ffffff;opacity:0.2"
     d="M 10 4 C 8.892 4 8 4.892 8 6 L 8 7 C 8 5.892 8.892 5 10 5 L 38 5 C 39.108 5 40 5.892 40 7 L 40 6 C 40 4.892 39.108 4 38 4 L 10 4 z"
     id="path20" />
  <rect
     style="opacity:1;fill:#ffffff;fill-opacity:1"
     width="21"
     height="2"
     x="12"
     y="38"
     id="rect22" />
  <rect
     style="opacity:1;fill:#ffffff;fill-opacity:1"
     width="17"
     height="2"
     x="12"
     y="34"
     id="rect24" />
  <rect
     style="opacity:1;fill:#ffffff;fill-opacity:1"
     width="24"
     height="2"
     x="12"
     y="30"
     id="rect26" />
  <path
     style="fill:#ffffff;opacity:0.2"
     d="M 7.5 17 C 6.669 17 6 17.669 6 18.5 L 6 19.5 C 6 18.669 6.669 18 7.5 18 L 8.5 18 C 9.331 18 10 18.669 10 19.5 L 10 18.5 C 10 17.669 9.331 17 8.5 17 L 7.5 17 z"
     id="path28" />
</svg>
