<?xml version="1.0" encoding="UTF-8" standalone="no"?>
<svg
   xmlns:dc="http://purl.org/dc/elements/1.1/"
   xmlns:cc="http://creativecommons.org/ns#"
   xmlns:rdf="http://www.w3.org/1999/02/22-rdf-syntax-ns#"
   xmlns:svg="http://www.w3.org/2000/svg"
   xmlns="http://www.w3.org/2000/svg"
   xmlns:sodipodi="http://sodipodi.sourceforge.net/DTD/sodipodi-0.dtd"
   xmlns:inkscape="http://www.inkscape.org/namespaces/inkscape"
   width="48"
   height="48"
   version="1"
   id="svg12"
   sodipodi:docname="appimagekit-cura-icon.svg"
   inkscape:version="0.92.5 (2060ec1f9f, 2020-04-08)">
  <metadata
     id="metadata18">
    <rdf:RDF>
      <cc:Work
         rdf:about="">
        <dc:format>image/svg+xml</dc:format>
        <dc:type
           rdf:resource="http://purl.org/dc/dcmitype/StillImage" />
      </cc:Work>
    </rdf:RDF>
  </metadata>
  <defs
     id="defs16" />
  <sodipodi:namedview
     pagecolor="#ffffff"
     bordercolor="#666666"
     borderopacity="1"
     objecttolerance="10"
     gridtolerance="10"
     guidetolerance="10"
     inkscape:pageopacity="0"
     inkscape:pageshadow="2"
     inkscape:window-width="783"
     inkscape:window-height="480"
     id="namedview14"
     showgrid="false"
     inkscape:zoom="4.9166667"
     inkscape:cx="24"
     inkscape:cy="24"
     inkscape:window-x="0"
     inkscape:window-y="28"
     inkscape:window-maximized="0"
     inkscape:current-layer="svg12" />
  <path
     style="opacity:0.2"
     d="M 17.636719,5 4,18.634766 V 43 c 0,1.108 0.892,2 2,2 h 18 6.363281 L 44,31.365234 V 7 C 44,5.892 43.108,5 42,5 H 24 Z"
     id="path2" />
  <path
     style="fill:#4c566a;fill-opacity:1"
     d="M 17.636719 4 L 4 17.634766 L 4 42 C 4 43.108 4.892 44 6 44 L 24 44 L 30.363281 44 L 44 30.365234 L 44 6 C 44 4.892 43.108 4 42 4 L 24 4 L 17.636719 4 z"
     id="path4" />
  <path
     style="opacity:0.2"
     d="m 23,13 c -5.54,0 -10,4.46 -10,10 v 2 c 0,5.54 4.46,10 10,10 H 33 V 29 H 23 c -2.319783,0 -4,-1.680217 -4,-4 v -2 c 0,-2.319783 1.680217,-4 4,-4 h 10 v -6 z"
     id="path6" />
  <path
     style="fill:#ffffff"
     d="m 23,12 c -5.54,0 -10,4.46 -10,10 v 2 c 0,5.54 4.46,10 10,10 H 33 V 28 H 23 c -2.319783,0 -4,-1.680217 -4,-4 v -2 c 0,-2.319783 1.680217,-4 4,-4 h 10 v -6 z"
     id="path8" />
  <path
     style="fill:#ffffff;opacity:0.2"
     d="M 17.636719 4 L 4 17.634766 L 4 18.634766 L 17.636719 5 L 24 5 L 42 5 C 43.108 5 44 5.892 44 7 L 44 6 C 44 4.892 43.108 4 42 4 L 24 4 L 17.636719 4 z"
     id="path10" />
</svg>
