<?xml version="1.0" encoding="UTF-8" standalone="no"?>
<svg
   xmlns:dc="http://purl.org/dc/elements/1.1/"
   xmlns:cc="http://creativecommons.org/ns#"
   xmlns:rdf="http://www.w3.org/1999/02/22-rdf-syntax-ns#"
   xmlns:svg="http://www.w3.org/2000/svg"
   xmlns="http://www.w3.org/2000/svg"
   xmlns:sodipodi="http://sodipodi.sourceforge.net/DTD/sodipodi-0.dtd"
   xmlns:inkscape="http://www.inkscape.org/namespaces/inkscape"
   width="48"
   height="48"
   version="1.1"
   id="svg16"
   sodipodi:docname="datastudio.svg"
   inkscape:version="0.92.5 (2060ec1f9f, 2020-04-08)">
  <metadata
     id="metadata22">
    <rdf:RDF>
      <cc:Work
         rdf:about="">
        <dc:format>image/svg+xml</dc:format>
        <dc:type
           rdf:resource="http://purl.org/dc/dcmitype/StillImage" />
      </cc:Work>
    </rdf:RDF>
  </metadata>
  <defs
     id="defs20" />
  <sodipodi:namedview
     pagecolor="#ffffff"
     bordercolor="#666666"
     borderopacity="1"
     objecttolerance="10"
     gridtolerance="10"
     guidetolerance="10"
     inkscape:pageopacity="0"
     inkscape:pageshadow="2"
     inkscape:window-width="783"
     inkscape:window-height="480"
     id="namedview18"
     showgrid="false"
     inkscape:zoom="4.9166667"
     inkscape:cx="-1.1186441"
     inkscape:cy="24"
     inkscape:window-x="0"
     inkscape:window-y="28"
     inkscape:window-maximized="0"
     inkscape:current-layer="svg16" />
  <rect
     style="opacity:0.2"
     width="40"
     height="40"
     x="4"
     y="5"
     rx="8"
     ry="8"
     id="rect2" />
  <rect
     style="fill:#4c566a;fill-opacity:1"
     width="40"
     height="40"
     x="4"
     y="4"
     rx="8"
     ry="8"
     id="rect4" />
  <path
     style="opacity:0.2"
     d="m 21,21 c -0.554,0 -1,0.446 -1,1 v 14 c 0,0.554 0.446,1 1,1 h 14 c 0.554,0 1,-0.446 1,-1 V 22 c 0,-0.554 -0.446,-1 -1,-1 z m 1,4 h 4 v 4 h -4 z m 6,0 h 6 v 4 h -6 z m -6,6 h 4 v 4 h -4 z m 6,0 h 6 v 4 h -6 z"
     id="path6" />
  <path
     style="fill:#ffffff"
     d="M 21 20 C 20.446 20 20 20.446 20 21 L 20 35 C 20 35.554 20.446 36 21 36 L 35 36 C 35.554 36 36 35.554 36 35 L 36 21 C 36 20.446 35.554 20 35 20 L 21 20 z M 22 24 L 26 24 L 26 28 L 22 28 L 22 24 z M 28 24 L 34 24 L 34 28 L 28 28 L 28 24 z M 22 30 L 26 30 L 26 34 L 22 34 L 22 30 z M 28 30 L 34 30 L 34 34 L 28 34 L 28 30 z"
     id="path8" />
  <path
     style="opacity:0.2"
     d="m 20,11 c -3.865993,0 -7,0.895431 -7,2 0,1.104569 3.134007,2 7,2 3.865993,0 7,-0.895431 7,-2 0,-1.104569 -3.134007,-2 -7,-2 z m -8,1.900391 v 5 c 0.07259,2.344419 4.90332,2.919039 7.298828,3.0625 C 19.653537,20.389479 20.2873,20 21,20 h 4.958984 C 27.11743,19.540149 27.969909,18.872311 28,17.900391 v -5 C 27.91966,15.495245 21.977742,15.92742 20,16 18.022258,15.92742 12.08034,15.495245 12,12.900391 Z m 0,6 v 5 c 0.06951,2.244927 4.518567,2.869854 7,3.044921 V 22 c 0,-0.01834 0.0014,-0.03645 0.002,-0.05469 C 16.520874,21.77042 12.069523,21.145858 12,18.900391 Z m 0,6 v 5 c 0.0695,2.244927 4.518566,2.869854 7,3.044921 v -5 c -2.481433,-0.175067 -6.930494,-0.799994 -7,-3.044921 z"
     id="path10" />
  <path
     style="fill:#ffffff"
     d="m 20,10 c -3.865993,0 -7,0.895431 -7,2 0,1.104569 3.134007,2 7,2 3.865993,0 7,-0.895431 7,-2 0,-1.104569 -3.134007,-2 -7,-2 z m -8,1.900391 v 5 c 0.07259,2.344419 4.90332,2.919039 7.298828,3.0625 C 19.653537,19.389479 20.2873,19 21,19 h 4.958984 C 27.11743,18.540149 27.969909,17.872311 28,16.900391 v -5 C 27.91966,14.495245 21.977742,14.92742 20,15 18.022258,14.92742 12.08034,14.495245 12,11.900391 Z m 0,6 v 5 c 0.06951,2.244927 4.518567,2.869854 7,3.044921 V 21 c 0,-0.01834 0.0014,-0.03645 0.002,-0.05469 C 16.520874,20.77042 12.069523,20.145858 12,17.900391 Z m 0,6 v 5 c 0.0695,2.244927 4.518566,2.869854 7,3.044921 v -5 c -2.481433,-0.175067 -6.930494,-0.799994 -7,-3.044921 z"
     id="path12" />
  <path
     style="opacity:0.2;fill:#ffffff"
     d="M 12 4 C 7.568 4 4 7.568 4 12 L 4 13 C 4 8.568 7.568 5 12 5 L 36 5 C 40.432 5 44 8.568 44 13 L 44 12 C 44 7.568 40.432 4 36 4 L 12 4 z"
     id="path14" />
</svg>
