<?xml version="1.0" encoding="UTF-8" standalone="no"?>
<svg
   xmlns:dc="http://purl.org/dc/elements/1.1/"
   xmlns:cc="http://creativecommons.org/ns#"
   xmlns:rdf="http://www.w3.org/1999/02/22-rdf-syntax-ns#"
   xmlns:svg="http://www.w3.org/2000/svg"
   xmlns="http://www.w3.org/2000/svg"
   xmlns:sodipodi="http://sodipodi.sourceforge.net/DTD/sodipodi-0.dtd"
   xmlns:inkscape="http://www.inkscape.org/namespaces/inkscape"
   width="48"
   height="48"
   version="1.0"
   id="svg22"
   sodipodi:docname="appimagekit-de.rwth_aachen.ient.YUView.svg"
   inkscape:version="0.92.5 (2060ec1f9f, 2020-04-08)">
  <metadata
     id="metadata28">
    <rdf:RDF>
      <cc:Work
         rdf:about="">
        <dc:format>image/svg+xml</dc:format>
        <dc:type
           rdf:resource="http://purl.org/dc/dcmitype/StillImage" />
      </cc:Work>
    </rdf:RDF>
  </metadata>
  <defs
     id="defs26" />
  <sodipodi:namedview
     pagecolor="#ffffff"
     bordercolor="#666666"
     borderopacity="1"
     objecttolerance="10"
     gridtolerance="10"
     guidetolerance="10"
     inkscape:pageopacity="0"
     inkscape:pageshadow="2"
     inkscape:window-width="783"
     inkscape:window-height="480"
     id="namedview24"
     showgrid="false"
     inkscape:zoom="9.8333333"
     inkscape:cx="26.947223"
     inkscape:cy="16.235989"
     inkscape:window-x="0"
     inkscape:window-y="28"
     inkscape:window-maximized="0"
     inkscape:current-layer="svg22" />
  <circle
     style="opacity:0.2"
     cx="24"
     cy="-25"
     r="20"
     transform="scale(1,-1)"
     id="circle2" />
  <circle
     style="fill:#4c566a;fill-opacity:1"
     cx="24"
     cy="-24"
     r="20"
     transform="scale(1,-1)"
     id="circle4" />
  <path
     style="fill:#ffffff;opacity:0.2"
     d="M 24 4 A 20 20 0 0 0 4 24 A 20 20 0 0 0 4.0214844 24.417969 A 20 20 0 0 1 24 5 A 20 20 0 0 1 43.978516 24.582031 A 20 20 0 0 0 44 24 A 20 20 0 0 0 24 4 z"
     id="path6" />
  <circle
     style="fill:#5f697d;fill-opacity:1"
     cx="24"
     cy="24"
     r="16"
     id="circle8" />
  <path
     style="opacity:0.1"
     d="M 24,13 A 12,12 0 0 0 12,25 12,12 0 0 0 24,37 12,12 0 0 0 36,25 12,12 0 0 0 24,13 Z m 0,5 a 7,7 0 0 1 7,7 7,7 0 0 1 -7,7 7,7 0 0 1 -7,-7 7,7 0 0 1 7,-7 z"
     id="path10" />
  <path
     style="fill:#4c566a;fill-opacity:1"
     d="M 24 12 A 12 12 0 0 0 12 24 A 12 12 0 0 0 24 36 A 12 12 0 0 0 36 24 A 12 12 0 0 0 24 12 z M 24 17 A 7 7 0 0 1 31 24 A 7 7 0 0 1 24 31 A 7 7 0 0 1 17 24 A 7 7 0 0 1 24 17 z"
     id="path12" />
  <path
     style="opacity:0.2"
     transform="matrix(0.92376046,0,0,1,2.3848536,0.28767395)"
     d="m 35.306931,24.712326 -8.660254,5 -8.660254,4.999999 0,-9.999999 0,-9.999999 8.660254,4.999999 z"
     id="path14" />
  <path
     style="fill:#ffffff"
     transform="matrix(0.92376046,0,0,1,2.3848536,-0.71232605)"
     d="m 35.306931,24.712326 -8.660254,5 -8.660254,4.999999 0,-9.999999 0,-9.999999 8.660254,4.999999 z"
     id="path16" />
  <path
     style="opacity:0.1;fill:#ffffff"
     d="M 24 12 A 12 12 0 0 0 12 24 A 12 12 0 0 0 12.019531 24.40625 A 12 12 0 0 1 24 13 A 12 12 0 0 1 35.980469 24.59375 A 12 12 0 0 0 36 24 A 12 12 0 0 0 24 12 z M 30.976562 24.458984 A 7 7 0 0 1 24 31 A 7 7 0 0 1 17.023438 24.541016 A 7 7 0 0 0 17 25 A 7 7 0 0 0 24 32 A 7 7 0 0 0 31 25 A 7 7 0 0 0 30.976562 24.458984 z"
     id="path18" />
  <path
     style="opacity:0.1"
     d="M 39.978516 23.419922 A 16 16 0 0 1 24 39 A 16 16 0 0 1 8.0214844 23.580078 A 16 16 0 0 0 8 24 A 16 16 0 0 0 24 40 A 16 16 0 0 0 40 24 A 16 16 0 0 0 39.978516 23.419922 z"
     id="path20" />
</svg>
