<?xml version="1.0" encoding="UTF-8" standalone="no"?>
<svg
   xmlns:dc="http://purl.org/dc/elements/1.1/"
   xmlns:cc="http://creativecommons.org/ns#"
   xmlns:rdf="http://www.w3.org/1999/02/22-rdf-syntax-ns#"
   xmlns:svg="http://www.w3.org/2000/svg"
   xmlns="http://www.w3.org/2000/svg"
   xmlns:sodipodi="http://sodipodi.sourceforge.net/DTD/sodipodi-0.dtd"
   xmlns:inkscape="http://www.inkscape.org/namespaces/inkscape"
   width="48"
   height="48"
   version="1.1"
   id="svg16"
   sodipodi:docname="deepin-manual.svg"
   inkscape:version="0.92.5 (2060ec1f9f, 2020-04-08)">
  <metadata
     id="metadata22">
    <rdf:RDF>
      <cc:Work
         rdf:about="">
        <dc:format>image/svg+xml</dc:format>
        <dc:type
           rdf:resource="http://purl.org/dc/dcmitype/StillImage" />
      </cc:Work>
    </rdf:RDF>
  </metadata>
  <defs
     id="defs20" />
  <sodipodi:namedview
     pagecolor="#ffffff"
     bordercolor="#666666"
     borderopacity="1"
     objecttolerance="10"
     gridtolerance="10"
     guidetolerance="10"
     inkscape:pageopacity="0"
     inkscape:pageshadow="2"
     inkscape:window-width="783"
     inkscape:window-height="480"
     id="namedview18"
     showgrid="false"
     inkscape:zoom="4.9166667"
     inkscape:cx="24"
     inkscape:cy="24"
     inkscape:window-x="0"
     inkscape:window-y="28"
     inkscape:window-maximized="0"
     inkscape:current-layer="svg16" />
  <path
     fill="#009587"
     d="m10 4c-1.108 0-2 0.892-2 2v36c0 1.108 0.892 2 2 2h28c1.108 0 2-0.892 2-2v-36c0-1.108-0.892-2-2-2h-28z"
     id="path2"
     style="fill:#4c566a;fill-opacity:1" />
  <path
     opacity=".2"
     d="m10 4c-1.108 0-2 0.892-2 2v36c0 1.108 0.892 2 2 2h3.9785v-40h-3.978z"
     id="path4" />
  <path
     fill="#fff"
     opacity=".2"
     d="m10 4c-1.108 0-2 0.892-2 2v1c0-1.108 0.892-2 2-2h28c1.108 0 2 0.892 2 2v-1c0-1.108-0.892-2-2-2h-28z"
     id="path6" />
  <path
     opacity=".2"
     d="m8 42v1c0 1.108 0.892 2 2 2h28c1.108 0 2-0.892 2-2v-1c0 1.108-0.892 2-2 2h-28c-1.108 0-2-0.892-2-2z"
     id="path8" />
  <path
     style="opacity:0.2"
     d="m 34.000013,24 a 6.9999999,6.9999999 0 0 1 -4.000026,6.31641 V 45 H 23.999988 V 30.31445 A 6.9999999,6.9999999 0 0 1 20,24 6.9999999,6.9999999 0 0 1 23.999988,17.68555 V 24 h 5.999999 V 17.68359 A 6.9999999,6.9999999 0 0 1 34.000013,24 Z"
     id="path10" />
  <path
     style="fill:#ffffff"
     d="m 34.000013,23 a 6.9999999,6.9999999 0 0 1 -4.000026,6.31641 V 44 H 23.999988 V 29.31445 A 6.9999999,6.9999999 0 0 1 20,23 6.9999999,6.9999999 0 0 1 23.999988,16.68555 V 23 h 5.999999 V 16.68359 A 6.9999999,6.9999999 0 0 1 34.000013,23 Z"
     id="path12" />
  <path
     style="fill:#ffffff;opacity:0.2"
     d="M 30 16.683594 L 30 17.683594 A 6.9999999 6.9999999 0 0 1 33.974609 23.509766 A 6.9999999 6.9999999 0 0 0 34 23 A 6.9999999 6.9999999 0 0 0 30 16.683594 z M 24 16.685547 A 6.9999999 6.9999999 0 0 0 20 23 A 6.9999999 6.9999999 0 0 0 20.025391 23.488281 A 6.9999999 6.9999999 0 0 1 24 17.685547 L 24 16.685547 z M 24 23 L 24 24 L 30 24 L 30 23 L 24 23 z"
     id="path14" />
</svg>
