<?xml version="1.0" encoding="UTF-8" standalone="no"?>
<svg
   xmlns:dc="http://purl.org/dc/elements/1.1/"
   xmlns:cc="http://creativecommons.org/ns#"
   xmlns:rdf="http://www.w3.org/1999/02/22-rdf-syntax-ns#"
   xmlns:svg="http://www.w3.org/2000/svg"
   xmlns="http://www.w3.org/2000/svg"
   xmlns:sodipodi="http://sodipodi.sourceforge.net/DTD/sodipodi-0.dtd"
   xmlns:inkscape="http://www.inkscape.org/namespaces/inkscape"
   width="48"
   height="48"
   version="1.1"
   id="svg20"
   sodipodi:docname="preferences-desktop-feedback.svg"
   inkscape:version="0.92.5 (2060ec1f9f, 2020-04-08)">
  <metadata
     id="metadata26">
    <rdf:RDF>
      <cc:Work
         rdf:about="">
        <dc:format>image/svg+xml</dc:format>
        <dc:type
           rdf:resource="http://purl.org/dc/dcmitype/StillImage" />
      </cc:Work>
    </rdf:RDF>
  </metadata>
  <defs
     id="defs24" />
  <sodipodi:namedview
     pagecolor="#ffffff"
     bordercolor="#666666"
     borderopacity="1"
     objecttolerance="10"
     gridtolerance="10"
     guidetolerance="10"
     inkscape:pageopacity="0"
     inkscape:pageshadow="2"
     inkscape:window-width="783"
     inkscape:window-height="480"
     id="namedview22"
     showgrid="false"
     inkscape:zoom="4.9166667"
     inkscape:cx="24"
     inkscape:cy="24"
     inkscape:window-x="0"
     inkscape:window-y="28"
     inkscape:window-maximized="0"
     inkscape:current-layer="svg20" />
  <path
     style="opacity:0.2;fill-rule:evenodd"
     d="M 24,43 C 35.5983,43 45,35.045372 45,23.9995 45,12.954628 35.5983,5.0010002 24,5.0000001 c -11.5983,0 -21,7.9546279 -21,18.9994999 0,6.048485 2.8190296,11.170084 7.274102,14.56629 0.266655,0.203278 -0.3385391,4.182612 -2.065489,5.498127 -0.42525,0.323536 -0.1512,0.988466 0.3801,0.932793 2.031401,-0.212953 5.014309,-0.974972 7.082473,-3.469345 C 18.224696,42.482198 21.040855,43 24,43 Z"
     id="path2" />
  <path
     style="fill:#4c566a;fill-rule:evenodd;fill-opacity:1"
     d="M 24,42 C 35.5983,42 45,34.045372 45,22.9995 45,11.954628 35.5983,4.0010001 24,4 12.4017,4 3,11.954628 3,22.9995 c 0,6.048485 2.8190296,11.170084 7.274102,14.56629 0.266655,0.203278 -0.3385391,4.182612 -2.065489,5.498127 -0.42525,0.323536 -0.1512,0.988466 0.3801,0.932793 2.031401,-0.212953 5.014309,-0.974972 7.082473,-3.469345 C 18.224696,41.482198 21.040855,42 24,42 Z"
     id="path4" />
  <rect
     style="opacity:0.2"
     width="22"
     height="2"
     x="13"
     y="17"
     rx="1"
     id="rect6" />
  <rect
     style="fill:#ffffff"
     width="22"
     height="2"
     x="13"
     y="16"
     rx="1"
     id="rect8" />
  <rect
     style="opacity:0.2"
     width="22"
     height="2"
     x="13"
     y="23"
     rx="1"
     id="rect10" />
  <rect
     style="fill:#ffffff"
     width="22"
     height="2"
     x="13"
     y="22"
     rx="1"
     id="rect12" />
  <rect
     style="opacity:0.2"
     width="22"
     height="2"
     x="13"
     y="29"
     rx="1"
     id="rect14" />
  <rect
     style="fill:#ffffff"
     width="22"
     height="2"
     x="13"
     y="28"
     rx="1"
     id="rect16" />
  <path
     style="fill:#ffffff;fill-rule:evenodd;opacity:0.2"
     d="M 24 4 C 12.4017 4 3 11.955128 3 23 C 3 23.159755 3.0097605 23.316162 3.0136719 23.474609 C 3.3075598 12.704664 12.587055 5 24 5 C 35.421897 5.0009849 44.70633 12.716823 44.986328 23.5 C 44.990669 23.333132 45 23.168321 45 23 C 45 11.955128 35.5983 4.0010001 24 4 z M 10.269531 38.5625 C 10.083957 39.878025 9.433599 42.131595 8.2089844 43.064453 C 7.8615412 43.328793 7.9849922 43.814166 8.3300781 43.955078 C 9.9612682 42.548256 10.533561 38.764705 10.273438 38.566406 C 10.271977 38.565293 10.270992 38.563614 10.269531 38.5625 z"
     id="path18" />
</svg>
