<?xml version="1.0" encoding="UTF-8" standalone="no"?>
<svg
   xmlns:dc="http://purl.org/dc/elements/1.1/"
   xmlns:cc="http://creativecommons.org/ns#"
   xmlns:rdf="http://www.w3.org/1999/02/22-rdf-syntax-ns#"
   xmlns:svg="http://www.w3.org/2000/svg"
   xmlns="http://www.w3.org/2000/svg"
   xmlns:sodipodi="http://sodipodi.sourceforge.net/DTD/sodipodi-0.dtd"
   xmlns:inkscape="http://www.inkscape.org/namespaces/inkscape"
   width="48"
   height="48"
   version="1"
   id="svg14"
   sodipodi:docname="desktop-profiler.svg"
   inkscape:version="0.92.5 (2060ec1f9f, 2020-04-08)">
  <metadata
     id="metadata20">
    <rdf:RDF>
      <cc:Work
         rdf:about="">
        <dc:format>image/svg+xml</dc:format>
        <dc:type
           rdf:resource="http://purl.org/dc/dcmitype/StillImage" />
      </cc:Work>
    </rdf:RDF>
  </metadata>
  <defs
     id="defs18" />
  <sodipodi:namedview
     pagecolor="#ffffff"
     bordercolor="#666666"
     borderopacity="1"
     objecttolerance="10"
     gridtolerance="10"
     guidetolerance="10"
     inkscape:pageopacity="0"
     inkscape:pageshadow="2"
     inkscape:window-width="783"
     inkscape:window-height="480"
     id="namedview16"
     showgrid="false"
     inkscape:zoom="4.9166667"
     inkscape:cx="-1.1186441"
     inkscape:cy="24"
     inkscape:window-x="0"
     inkscape:window-y="28"
     inkscape:window-maximized="0"
     inkscape:current-layer="svg14" />
  <path
     style="opacity:0.2"
     d="M 4,13.900391 V 42.714844 C 4,43.981987 5.0188705,45 6.2851562,45 H 24 41.714844 C 42.98113,45 44,43.981987 44,42.714844 V 13.900391 H 24 Z"
     id="path2" />
  <path
     style="fill:#4c566a;fill-opacity:1"
     d="M 4 12.900391 L 4 41.714844 C 4 42.981987 5.0188705 44 6.2851562 44 L 24 44 L 41.714844 44 C 42.98113 44 44 42.981987 44 41.714844 L 44 12.900391 L 24 12.900391 L 4 12.900391 z"
     id="path4" />
  <path
     style="opacity:0.2"
     d="m 22,20 v 3.298828 a 7,7 0 0 0 -2.804688,1.617188 l -2.855468,-1.648438 -2,3.464844 2.857422,1.65039 A 7,7 0 0 0 17,30 a 7,7 0 0 0 0.197266,1.617188 l -2.857422,1.65039 2,3.464844 2.859375,-1.650391 A 7,7 0 0 0 22,36.705078 V 40 h 4 v -3.298828 a 7,7 0 0 0 2.804688,-1.617188 l 2.855468,1.648438 2,-3.464844 -2.857422,-1.65039 A 7,7 0 0 0 31,30 7,7 0 0 0 30.802734,28.382812 l 2.857422,-1.65039 -2,-3.464844 -2.859375,1.650391 A 7,7 0 0 0 26,23.294922 V 20 Z m 2,6 a 4,4 0 0 1 4,4 4,4 0 0 1 -4,4 4,4 0 0 1 -4,-4 4,4 0 0 1 4,-4 z"
     id="path6" />
  <path
     style="fill:#ffffff"
     d="m 22,19 v 3.298828 a 7,7 0 0 0 -2.804688,1.617188 l -2.855468,-1.648438 -2,3.464844 2.857422,1.65039 A 7,7 0 0 0 17,29 a 7,7 0 0 0 0.197266,1.617188 l -2.857422,1.65039 2,3.464844 2.859375,-1.650391 A 7,7 0 0 0 22,35.705078 V 39 h 4 v -3.298828 a 7,7 0 0 0 2.804688,-1.617188 l 2.855468,1.648438 2,-3.464844 -2.857422,-1.65039 A 7,7 0 0 0 31,29 7,7 0 0 0 30.802734,27.382812 l 2.857422,-1.65039 -2,-3.464844 -2.859375,1.650391 A 7,7 0 0 0 26,22.294922 V 19 Z m 2,6 a 4,4 0 0 1 4,4 4,4 0 0 1 -4,4 4,4 0 0 1 -4,-4 4,4 0 0 1 4,-4 z"
     id="path8" />
  <path
     style="fill:#5f697d;fill-opacity:1"
     d="M 6.2851562 4 C 5.0188705 4 4 5.0180134 4 6.2851562 L 4 14 L 24 14 L 44 14 L 44 6.2851562 C 44 5.0180134 42.98113 4 41.714844 4 L 24 4 L 6.2851562 4 z"
     id="path10" />
  <path
     style="fill:#ffffff;opacity:0.1"
     d="M 6.2851562 4 C 5.0188705 4 4 5.0180134 4 6.2851562 L 4 7.2851562 C 4 6.0180134 5.0188705 5 6.2851562 5 L 24 5 L 41.714844 5 C 42.98113 5 44 6.0180134 44 7.2851562 L 44 6.2851562 C 44 5.0180134 42.98113 4 41.714844 4 L 24 4 L 6.2851562 4 z"
     id="path12" />
</svg>
