<?xml version="1.0" encoding="UTF-8" standalone="no"?>
<svg
   xmlns:dc="http://purl.org/dc/elements/1.1/"
   xmlns:cc="http://creativecommons.org/ns#"
   xmlns:rdf="http://www.w3.org/1999/02/22-rdf-syntax-ns#"
   xmlns:svg="http://www.w3.org/2000/svg"
   xmlns="http://www.w3.org/2000/svg"
   xmlns:sodipodi="http://sodipodi.sourceforge.net/DTD/sodipodi-0.dtd"
   xmlns:inkscape="http://www.inkscape.org/namespaces/inkscape"
   width="48"
   height="48"
   version="1.1"
   id="svg12"
   sodipodi:docname="appimagekit-devhub.svg"
   inkscape:version="0.92.5 (2060ec1f9f, 2020-04-08)">
  <metadata
     id="metadata18">
    <rdf:RDF>
      <cc:Work
         rdf:about="">
        <dc:format>image/svg+xml</dc:format>
        <dc:type
           rdf:resource="http://purl.org/dc/dcmitype/StillImage" />
      </cc:Work>
    </rdf:RDF>
  </metadata>
  <defs
     id="defs16" />
  <sodipodi:namedview
     pagecolor="#ffffff"
     bordercolor="#666666"
     borderopacity="1"
     objecttolerance="10"
     gridtolerance="10"
     guidetolerance="10"
     inkscape:pageopacity="0"
     inkscape:pageshadow="2"
     inkscape:window-width="783"
     inkscape:window-height="480"
     id="namedview14"
     showgrid="false"
     inkscape:zoom="4.9166667"
     inkscape:cx="-1.1186441"
     inkscape:cy="24"
     inkscape:window-x="0"
     inkscape:window-y="28"
     inkscape:window-maximized="0"
     inkscape:current-layer="svg12" />
  <circle
     style="opacity:0.2"
     cx="24"
     cy="25"
     r="20"
     id="circle2" />
  <circle
     style="fill:#4c566a;fill-opacity:1"
     cx="24"
     cy="24"
     r="20"
     id="circle4" />
  <path
     style="opacity:0.2;fill:#ffffff"
     d="M 24,4 A 20,20 0 0 0 4,24 20,20 0 0 0 4.0215,24.582 20,20 0 0 1 24,5 20,20 0 0 1 43.979,24.418 20,20 0 0 0 44,24 20,20 0 0 0 24,4 Z"
     id="path6" />
  <path
     style="opacity:0.1"
     d="m 16.167969,17.999404 c -0.475558,-10e-4 -0.763135,0.02964 -1.181641,0.08984 -1.809365,0.260291 -2.893448,0.757327 -3.888672,1.78125 -1.024188,1.053723 -1.6173472,2.07626 -1.9433591,3.353515 -0.1600384,0.627001 -0.1767006,0.867316 -0.1347657,1.941407 0.059012,1.511467 0.2441115,2.272019 0.828125,3.421875 0.9112098,1.794067 2.0991018,2.829703 3.9238278,3.419921 1.231033,0.398185 3.783609,0.810843 5.785157,0.933594 2.012872,0.123444 9.00057,0.03997 10.332031,-0.123047 2.480136,-0.303655 4.483877,-0.808241 5.671875,-1.427734 1.047805,-0.546387 2.303928,-2.004485 2.828125,-3.283203 0.33167,-0.809068 0.538263,-1.818056 0.595703,-2.900391 0.06868,-1.294122 -0.08978,-2.14596 -0.601563,-3.21289 -0.937249,-1.953914 -2.614889,-3.389175 -4.460937,-3.81836 -0.904824,-0.210282 -4.014467,-0.207319 -7.273437,0.0059 -2.6434,0.172912 -3.592168,0.163618 -8.164063,-0.08399 -1.17588,-0.06367 -1.840848,-0.09662 -2.316406,-0.09766 z m 1.832031,3 a 3,4.5 0 0 1 3,4.5 3,4.5 0 0 1 -3,4.5 3,4.5 0 0 1 -3,-4.5 3,4.5 0 0 1 3,-4.5 z m 12,0 a 3,4.5 0 0 1 3,4.5 3,4.5 0 0 1 -3,4.5 3,4.5 0 0 1 -3,-4.5 3,4.5 0 0 1 3,-4.5 z"
     id="path8" />
  <path
     style="fill:#ffffff;fill-opacity:1"
     d="m 16.167969,17 c -0.475558,-0.001 -0.763135,0.02964 -1.181641,0.08984 -1.809365,0.260291 -2.893448,0.757327 -3.888672,1.78125 -1.024188,1.053723 -1.6173472,2.07626 -1.9433591,3.353515 -0.1600384,0.627001 -0.1767006,0.867316 -0.1347657,1.941407 0.059012,1.511467 0.2441115,2.272019 0.828125,3.421875 0.9112098,1.794067 2.0991018,2.829703 3.9238278,3.419921 1.231033,0.398185 3.783609,0.810843 5.785157,0.933594 2.012872,0.123444 9.00057,0.03997 10.332031,-0.123047 2.480136,-0.303655 4.483877,-0.808241 5.671875,-1.427734 1.047805,-0.546387 2.303928,-2.004485 2.828125,-3.283203 0.33167,-0.809068 0.538263,-1.818056 0.595703,-2.900391 0.06868,-1.294122 -0.08978,-2.14596 -0.601563,-3.21289 -0.937249,-1.953914 -2.614889,-3.389175 -4.460937,-3.81836 -0.904824,-0.210282 -4.014467,-0.207319 -7.273437,0.0059 -2.6434,0.172912 -3.592168,0.163618 -8.164063,-0.08398 C 17.308495,17.033987 16.643527,17.001034 16.167969,17 Z M 18,20 a 3,4.5 0 0 1 3,4.5 3,4.5 0 0 1 -3,4.5 3,4.5 0 0 1 -3,-4.5 3,4.5 0 0 1 3,-4.5 z m 12,0 a 3,4.5 0 0 1 3,4.5 3,4.5 0 0 1 -3,4.5 3,4.5 0 0 1 -3,-4.5 3,4.5 0 0 1 3,-4.5 z"
     id="path10" />
</svg>
