<?xml version="1.0" encoding="UTF-8" standalone="no"?>
<svg
   xmlns:dc="http://purl.org/dc/elements/1.1/"
   xmlns:cc="http://creativecommons.org/ns#"
   xmlns:rdf="http://www.w3.org/1999/02/22-rdf-syntax-ns#"
   xmlns:svg="http://www.w3.org/2000/svg"
   xmlns="http://www.w3.org/2000/svg"
   xmlns:sodipodi="http://sodipodi.sourceforge.net/DTD/sodipodi-0.dtd"
   xmlns:inkscape="http://www.inkscape.org/namespaces/inkscape"
   width="48"
   height="48"
   version="1.1"
   id="svg20"
   sodipodi:docname="distributor-logo-rosa.svg"
   inkscape:version="0.92.5 (2060ec1f9f, 2020-04-08)">
  <metadata
     id="metadata26">
    <rdf:RDF>
      <cc:Work
         rdf:about="">
        <dc:format>image/svg+xml</dc:format>
        <dc:type
           rdf:resource="http://purl.org/dc/dcmitype/StillImage" />
      </cc:Work>
    </rdf:RDF>
  </metadata>
  <defs
     id="defs24" />
  <sodipodi:namedview
     pagecolor="#ffffff"
     bordercolor="#666666"
     borderopacity="1"
     objecttolerance="10"
     gridtolerance="10"
     guidetolerance="10"
     inkscape:pageopacity="0"
     inkscape:pageshadow="2"
     inkscape:window-width="640"
     inkscape:window-height="480"
     id="namedview22"
     showgrid="false"
     inkscape:zoom="4.9166667"
     inkscape:cx="24"
     inkscape:cy="24"
     inkscape:current-layer="svg20" />
  <circle
     style="opacity:0.2"
     cx="24"
     cy="25"
     r="20"
     id="circle2" />
  <circle
     style="fill:#4c566a;fill-opacity:1"
     cx="24"
     cy="24"
     r="20"
     id="circle4" />
  <path
     style="fill:#ffffff;opacity:0.1"
     d="M 24,4 A 20,20 0 0 0 4,24 20,20 0 0 0 4.0215,24.582 20,20 0 0 1 24,5 20,20 0 0 1 43.979,24.418 20,20 0 0 0 44,24 20,20 0 0 0 24,4 Z"
     id="path6" />
  <g
     style="fill:none;opacity:0.2;stroke:#000000;stroke-width:2;stroke-linejoin:round"
     transform="translate(0,1)"
     id="g12">
    <path
       d="M 35,13 C 35,13 34,19.624 28,24.312 22,29 16.5,32 16.5,32"
       id="path8" />
    <path
       d="M 35,24 C 35,30.075 30.075,35 24,35 17.925,35 13,30.075 13,24 13,17.925 17.925,13 24,13 H 35 Z"
       id="path10" />
  </g>
  <g
     style="fill:none;stroke:#ffffff;stroke-width:2;stroke-linejoin:round"
     id="g18">
    <path
       d="M 35,13 C 35,13 34,19.624 28,24.312 22,29 16.5,32 16.5,32"
       id="path14" />
    <path
       d="M 35,24 C 35,30.075 30.075,35 24,35 17.925,35 13,30.075 13,24 13,17.925 17.925,13 24,13 H 35 Z"
       id="path16" />
  </g>
</svg>
