<?xml version="1.0" encoding="UTF-8" standalone="no"?>
<svg
   xmlns:dc="http://purl.org/dc/elements/1.1/"
   xmlns:cc="http://creativecommons.org/ns#"
   xmlns:rdf="http://www.w3.org/1999/02/22-rdf-syntax-ns#"
   xmlns:svg="http://www.w3.org/2000/svg"
   xmlns="http://www.w3.org/2000/svg"
   xmlns:sodipodi="http://sodipodi.sourceforge.net/DTD/sodipodi-0.dtd"
   xmlns:inkscape="http://www.inkscape.org/namespaces/inkscape"
   width="48"
   height="48"
   version="1.1"
   id="svg12"
   sodipodi:docname="distributor-logo-alpine.svg"
   inkscape:version="0.92.5 (2060ec1f9f, 2020-04-08)">
  <metadata
     id="metadata18">
    <rdf:RDF>
      <cc:Work
         rdf:about="">
        <dc:format>image/svg+xml</dc:format>
        <dc:type
           rdf:resource="http://purl.org/dc/dcmitype/StillImage" />
      </cc:Work>
    </rdf:RDF>
  </metadata>
  <defs
     id="defs16" />
  <sodipodi:namedview
     pagecolor="#ffffff"
     bordercolor="#666666"
     borderopacity="1"
     objecttolerance="10"
     gridtolerance="10"
     guidetolerance="10"
     inkscape:pageopacity="0"
     inkscape:pageshadow="2"
     inkscape:window-width="783"
     inkscape:window-height="480"
     id="namedview14"
     showgrid="false"
     inkscape:zoom="4.9166667"
     inkscape:cx="-1.1186441"
     inkscape:cy="24"
     inkscape:window-x="0"
     inkscape:window-y="28"
     inkscape:window-maximized="0"
     inkscape:current-layer="svg12" />
  <path
     style="opacity:0.2"
     d="M 14.884,45 C 13.67,45 12.18,44.124 11.574,43.053 L 2.4547,26.947 C 1.8484,25.876 1.8484,24.124 2.4547,23.053 L 11.574,6.947 C 12.18,5.8761 13.67,5 14.884,5 H 33.116 C 34.33,5 35.82,5.8761 36.426,6.947 L 45.545,23.053 C 46.152,24.124 46.152,25.876 45.545,26.947 L 36.426,43.053 C 35.82,44.124 34.331,45 33.116,45 Z"
     id="path2" />
  <path
     style="fill:#4c566a;fill-opacity:1"
     d="M 14.884,44 C 13.67,44 12.18,43.124 11.574,42.053 L 2.4547,25.947 C 1.8484,24.876 1.8484,23.124 2.4547,22.053 L 11.574,5.947 C 12.18,4.8761 13.67,4 14.884,4 H 33.116 C 34.33,4 35.82,4.8761 36.426,5.947 L 45.545,22.053 C 46.152,23.124 46.152,24.876 45.545,25.947 L 36.426,42.053 C 35.82,43.124 34.331,44 33.116,44 Z"
     id="path4" />
  <path
     style="opacity:0.1;fill:#ffffff"
     d="M 14.883,4 C 13.669,4 12.18,4.8764 11.574,5.9473 L 2.4551,22.053 C 2.0801,22.715 1.9385,23.639 2.0273,24.5 2.0822,23.969 2.2238,23.461 2.4551,23.053 L 11.574,6.9473 C 12.18,5.8764 13.669,5 14.883,5 H 33.117 C 34.331,5 35.82,5.8764 36.426,6.9473 L 45.545,23.053 C 45.776,23.461 45.918,23.969 45.973,24.5 46.062,23.639 45.92,22.715 45.545,22.053 L 36.426,5.9473 C 35.82,4.8764 34.331,4 33.117,4 Z"
     id="path6" />
  <path
     style="opacity:0.2"
     d="M 19,18 8,30 H 13 L 19,23 25,30 H 30 L 26.652,26.348 29,24 35,30 H 40 L 29,19 23.914,23.359 Z M 18,27 15,30 H 18 Z"
     id="path8" />
  <path
     style="fill:#ffffff"
     d="M 19,17 8,29 H 13 L 19,22 25,29 H 30 L 26.652,25.348 29,23 35,29 H 40 L 29,18 23.914,22.359 Z M 18,26 15,29 H 18 Z"
     id="path10" />
</svg>
