<?xml version="1.0" encoding="UTF-8" standalone="no"?>
<svg
   xmlns:dc="http://purl.org/dc/elements/1.1/"
   xmlns:cc="http://creativecommons.org/ns#"
   xmlns:rdf="http://www.w3.org/1999/02/22-rdf-syntax-ns#"
   xmlns:svg="http://www.w3.org/2000/svg"
   xmlns="http://www.w3.org/2000/svg"
   xmlns:sodipodi="http://sodipodi.sourceforge.net/DTD/sodipodi-0.dtd"
   xmlns:inkscape="http://www.inkscape.org/namespaces/inkscape"
   width="48"
   height="48"
   version="1.1"
   id="svg12"
   sodipodi:docname="distributor-logo-ubuntu-mate.svg"
   inkscape:version="0.92.5 (2060ec1f9f, 2020-04-08)">
  <metadata
     id="metadata18">
    <rdf:RDF>
      <cc:Work
         rdf:about="">
        <dc:format>image/svg+xml</dc:format>
        <dc:type
           rdf:resource="http://purl.org/dc/dcmitype/StillImage" />
      </cc:Work>
    </rdf:RDF>
  </metadata>
  <defs
     id="defs16" />
  <sodipodi:namedview
     pagecolor="#ffffff"
     bordercolor="#666666"
     borderopacity="1"
     objecttolerance="10"
     gridtolerance="10"
     guidetolerance="10"
     inkscape:pageopacity="0"
     inkscape:pageshadow="2"
     inkscape:window-width="640"
     inkscape:window-height="480"
     id="namedview14"
     showgrid="false"
     inkscape:zoom="4.9166667"
     inkscape:cx="24"
     inkscape:cy="24"
     inkscape:current-layer="svg12" />
  <circle
     cx="24.20339"
     cy="23.90678"
     r="20"
     id="circle2"
     style="fill:#4c566a;fill-opacity:1" />
  <path
     inkscape:connector-curvature="0"
     style="opacity:0.2;fill:#ffffff"
     d="M 24.20339,3.9067797 A 20,20 0 0 0 4.2033898,23.90678 a 20,20 0 0 0 0.0215,0.582 20,20 0 0 1 19.9780002,-19.5820003 20,20 0 0 1 19.979,19.4180003 20,20 0 0 0 0.021,-0.418 20,20 0 0 0 -20,-20.0000003 z"
     id="path4" />
  <path
     inkscape:connector-curvature="0"
     style="opacity:0.2"
     d="m 44.18239,24.32478 a 20,20 0 0 1 -19.979,19.582 20,20 0 0 1 -19.9780002,-19.418 20,20 0 0 0 -0.022,0.418 20,20 0 0 0 20.0000002,20 20,20 0 0 0 20,-20 20,20 0 0 0 -0.022,-0.582 z"
     id="path6" />
  <path
     inkscape:connector-curvature="0"
     style="opacity:0.2"
     d="m 27.54539,10.31478 7.7691,4.592 -7.7778,4.592 0.009,-9.184 z m -3.342,2.361 c 0.56979,0 1.127,0.0454 1.6754,0.12153 v 1.7014 c -0.545,-0.088 -1.104,-0.139 -1.675,-0.139 -4.4425,0 -8.2418,2.7226 -9.8004,6.5972 l -1.441,-0.8507 c 1.871,-4.361 6.205,-7.43 11.241,-7.43 z m 0,4.158 c 0.57054,0 1.1282,0.0679 1.6667,0.18228 v 1.7274 c -0.532,-0.141 -1.09,-0.216 -1.667,-0.216 -2.9175,0 -5.3533,1.9387 -6.1198,4.6007 l -1.493,-0.886 c 1.105,-3.142 4.105,-5.408 7.613,-5.408 z m 9.809,0.77256 c 1.5213,2.0395 2.4219,4.5686 2.4219,7.3004 0,2.7743 -0.93503,5.3403 -2.5,7.3958 l -1.4496,-0.85937 c 1.4185,-1.7957 2.2656,-4.0624 2.2656,-6.5365 0,-2.4276 -0.8167,-4.6616 -2.1875,-6.441 z m -3.6198,2.1441 c 1.172,1.4019 1.8837,3.198 1.8837,5.1562 0,2.0025 -0.74213,3.8448 -1.9618,5.2604 l -1.4844,-0.87673 c 1.0851,-1.1395 1.7535,-2.6748 1.7535,-4.3837 0,-1.6603 -0.62798,-3.1642 -1.658,-4.2969 z m -20.347,0.56424 7.7691,4.592 -7.7778,4.592 0.009,-9.184 z m 8.0382,6.3715 c 0.76646,2.6599 3.2023,4.592 6.1198,4.592 0.57698,0 1.1351,-0.0774 1.6667,-0.21702 v 1.7361 c -0.538,0.114 -1.095,0.182 -1.666,0.182 -3.5108,0 -6.5107,-2.2703 -7.6128,-5.4167 z m -3.6806,2.1701 c 1.5585,3.8746 5.3578,6.5972 9.8004,6.5972 0.56591,0 1.1174,-0.0449 1.658,-0.1302 v 1.6927 c -0.541,0.075 -1.094,0.121 -1.657,0.121 -5.0364,0 -9.3702,-3.0686 -11.241,-7.4306 z m 13.134,1.6059 7.7691,4.5833 -7.7778,4.592 0.009,-9.1754 z"
     id="path8" />
  <path
     inkscape:connector-curvature="0"
     style="fill:#ffffff"
     d="m 27.54539,9.3147797 7.769,4.5920003 -7.7778,4.592 0.009,-9.1840003 z m -3.342,2.3610003 c 0.56979,0 1.127,0.0454 1.6754,0.12153 v 1.7014 c -0.545,-0.088 -1.104,-0.139 -1.675,-0.139 -4.4425,0 -8.2418,2.7226 -9.8004,6.5972 l -1.441,-0.8507 c 1.871,-4.361 6.205,-7.43 11.241,-7.43 z m 0,4.158 c 0.57054,0 1.1282,0.0679 1.6667,0.18228 v 1.7274 c -0.532,-0.141 -1.09,-0.216 -1.667,-0.216 -2.9175,0 -5.3533,1.9387 -6.1198,4.6007 l -1.493,-0.886 c 1.105,-3.142 4.105,-5.408 7.613,-5.408 z m 9.809,0.77256 c 1.5213,2.0395 2.4219,4.5686 2.4219,7.3004 0,2.7743 -0.93503,5.3403 -2.5,7.3958 l -1.45,-0.86 c 1.419,-1.795 2.266,-4.062 2.266,-6.536 0,-2.4276 -0.8167,-4.6616 -2.1875,-6.441 z m -3.6198,2.1441 c 1.172,1.4019 1.8837,3.198 1.8837,5.1562 0,2.0025 -0.74213,3.8448 -1.9618,5.2604 l -1.484,-0.877 c 1.085,-1.14 1.753,-2.675 1.753,-4.384 0,-1.6603 -0.62798,-3.1642 -1.658,-4.2969 z m -20.347,0.564 7.769,4.592 -7.7778,4.592 0.009,-9.184 z m 8.0382,6.3715 c 0.76646,2.6599 3.2023,4.592 6.1198,4.592 0.57698,0 1.1351,-0.0774 1.6667,-0.21702 v 1.7361 c -0.538,0.114 -1.095,0.182 -1.666,0.182 -3.5108,0 -6.5107,-2.2703 -7.6128,-5.4167 z m -3.6806,2.1701 c 1.5585,3.8746 5.3578,6.5972 9.8004,6.5972 0.56591,0 1.1174,-0.0449 1.658,-0.1302 v 1.6927 c -0.541,0.075 -1.094,0.121 -1.657,0.121 -5.0364,0 -9.3702,-3.0686 -11.241,-7.4306 z m 13.134,1.6059 7.7691,4.5833 -7.7778,4.592 0.009,-9.1754 z"
     id="path10" />
</svg>
