<?xml version="1.0" encoding="UTF-8" standalone="no"?>
<svg
   xmlns:dc="http://purl.org/dc/elements/1.1/"
   xmlns:cc="http://creativecommons.org/ns#"
   xmlns:rdf="http://www.w3.org/1999/02/22-rdf-syntax-ns#"
   xmlns:svg="http://www.w3.org/2000/svg"
   xmlns="http://www.w3.org/2000/svg"
   xmlns:sodipodi="http://sodipodi.sourceforge.net/DTD/sodipodi-0.dtd"
   xmlns:inkscape="http://www.inkscape.org/namespaces/inkscape"
   width="48"
   height="48"
   version="1.1"
   id="svg12"
   sodipodi:docname="kalu.svg"
   inkscape:version="0.92.5 (2060ec1f9f, 2020-04-08)">
  <metadata
     id="metadata18">
    <rdf:RDF>
      <cc:Work
         rdf:about="">
        <dc:format>image/svg+xml</dc:format>
        <dc:type
           rdf:resource="http://purl.org/dc/dcmitype/StillImage" />
      </cc:Work>
    </rdf:RDF>
  </metadata>
  <defs
     id="defs16" />
  <sodipodi:namedview
     pagecolor="#ffffff"
     bordercolor="#666666"
     borderopacity="1"
     objecttolerance="10"
     gridtolerance="10"
     guidetolerance="10"
     inkscape:pageopacity="0"
     inkscape:pageshadow="2"
     inkscape:window-width="765"
     inkscape:window-height="480"
     id="namedview14"
     showgrid="false"
     inkscape:zoom="4.9166667"
     inkscape:cx="24"
     inkscape:cy="24"
     inkscape:window-x="0"
     inkscape:window-y="28"
     inkscape:window-maximized="0"
     inkscape:current-layer="svg12" />
  <circle
     style="opacity:0.2"
     cx="24"
     cy="25"
     r="20"
     id="circle2" />
  <circle
     style="fill:#4c566a;fill-opacity:1"
     cx="24"
     cy="24"
     r="20"
     id="circle4" />
  <path
     style="opacity:0.2;fill:#ffffff"
     d="M 24,4 A 20,20 0 0 0 4,24 20,20 0 0 0 4.0215,24.582 20,20 0 0 1 24,5 20,20 0 0 1 43.979,24.418 20,20 0 0 0 44,24 20,20 0 0 0 24,4 Z"
     id="path6" />
  <path
     style="opacity:0.2"
     d="m 24.00141,8 c -1.247334,3.05577 -1.99971,5.05725 -3.387839,8.02215 0.85194,0.90196 1.895877,1.94715 3.591216,3.13342 -1.823344,-0.75036 -3.064977,-1.4983 -3.99514,-2.2801 C 18.433245,20.58134 15.647028,25.85506 10.00049,36 14.438095,33.43859 17.979746,31.86135 21.185539,31.25834 21.047574,30.66669 20.97077,30.02385 20.976462,29.35541 l 0.004,-0.13795 c 0.0697,-2.84301 1.450493,-5.36537 3.202724,-5.21746 1.752232,0.14791 2.914819,2.91205 2.843707,5.75505 -0.0128,0.53476 -0.0725,1.04818 -0.177786,1.52462 3.170231,0.62151 6.7765,2.19448 11.151383,4.72033 -0.86331,-1.58861 -1.637027,-3.01794 -2.372343,-4.38184 -1.159141,-0.89884 -2.365223,-2.0679 -4.831429,-3.33368 1.693919,0.44089 2.911372,0.9472 3.857185,1.51609 C 27.172791,15.87168 26.56548,14.02109 24.00114,8.00085 Z"
     id="path8" />
  <path
     style="fill:#ffffff"
     d="m 24.00141,7 c -1.247334,3.05577 -1.99971,5.05725 -3.387839,8.02215 0.85194,0.90196 1.895877,1.94715 3.591216,3.13342 -1.823344,-0.75036 -3.064977,-1.4983 -3.99514,-2.2801 C 18.433245,19.58134 15.647028,24.85506 10.00049,35 14.438095,32.43859 17.979746,30.86135 21.185539,30.25834 21.047574,29.66669 20.97077,29.02385 20.976462,28.35541 l 0.004,-0.13795 c 0.0697,-2.84301 1.450493,-5.36537 3.202724,-5.21746 1.752232,0.14791 2.914819,2.91205 2.843707,5.75505 -0.0128,0.53476 -0.0725,1.04818 -0.177786,1.52462 3.170231,0.62151 6.7765,2.19448 11.151383,4.72033 -0.86331,-1.58861 -1.637027,-3.01794 -2.372343,-4.38184 -1.159141,-0.89884 -2.365223,-2.0679 -4.831429,-3.33368 1.693919,0.44089 2.911372,0.9472 3.857185,1.51609 C 27.172791,14.87168 26.56548,13.02109 24.00114,7.00085 Z"
     id="path10" />
</svg>
