<?xml version="1.0" encoding="UTF-8" standalone="no"?>
<svg
   xmlns:dc="http://purl.org/dc/elements/1.1/"
   xmlns:cc="http://creativecommons.org/ns#"
   xmlns:rdf="http://www.w3.org/1999/02/22-rdf-syntax-ns#"
   xmlns:svg="http://www.w3.org/2000/svg"
   xmlns="http://www.w3.org/2000/svg"
   xmlns:sodipodi="http://sodipodi.sourceforge.net/DTD/sodipodi-0.dtd"
   xmlns:inkscape="http://www.inkscape.org/namespaces/inkscape"
   width="48"
   height="48"
   version="1.1"
   id="svg12"
   sodipodi:docname="distributor-logo-archbang.svg"
   inkscape:version="0.92.5 (2060ec1f9f, 2020-04-08)">
  <metadata
     id="metadata18">
    <rdf:RDF>
      <cc:Work
         rdf:about="">
        <dc:format>image/svg+xml</dc:format>
        <dc:type
           rdf:resource="http://purl.org/dc/dcmitype/StillImage" />
      </cc:Work>
    </rdf:RDF>
  </metadata>
  <defs
     id="defs16" />
  <sodipodi:namedview
     pagecolor="#ffffff"
     bordercolor="#666666"
     borderopacity="1"
     objecttolerance="10"
     gridtolerance="10"
     guidetolerance="10"
     inkscape:pageopacity="0"
     inkscape:pageshadow="2"
     inkscape:window-width="783"
     inkscape:window-height="480"
     id="namedview14"
     showgrid="false"
     inkscape:zoom="4.9166667"
     inkscape:cx="-1.1186441"
     inkscape:cy="24"
     inkscape:window-x="0"
     inkscape:window-y="28"
     inkscape:window-maximized="0"
     inkscape:current-layer="svg12" />
  <path
     style="opacity:0.2"
     d="M 24,5 C 17,21 17,22 4,45 4,45 16,38 24,38 32,38 44,45 44,45 31,22 31,21 24,5 Z"
     id="path2" />
  <path
     style="fill:#4c566a;fill-opacity:1"
     d="M 24,4 C 17,20 17,21 4,44 4,44 16,37 24,37 32,37 44,44 44,44 31,21 31,20 24,4 Z"
     id="path4" />
  <path
     style="opacity:0.2"
     d="M 27.982,14.154 C 27.982,14.154 26,15 23,15 23,17 24,17 24,22 24,26 23,32 23,32 L 26,30 28.957,16.367 Z M 23.5,34 A 2.5,2.5 0 0 0 21,36.5 2.5,2.5 0 0 0 21.66,38.188 C 22.464,38.076 23.253,38 24,38 24.467,38 24.95,38.027 25.441,38.072 A 2.5,2.5 0 0 0 26,36.5 2.5,2.5 0 0 0 23.5,34 Z"
     id="path6" />
  <path
     style="fill:#ffffff"
     d="M 27.982,13.154 C 27.982,13.154 26,14 23,14 23,16 24,16 24,21 24,25 23,31 23,31 L 26,29 28.957,15.367 Z M 23.5,33 A 2.5,2.5 0 0 0 21,35.5 2.5,2.5 0 0 0 21.66,37.188 C 22.464,37.076 23.253,37 24,37 24.467,37 24.95,37.027 25.441,37.072 A 2.5,2.5 0 0 0 26,35.5 2.5,2.5 0 0 0 23.5,33 Z"
     id="path8" />
  <path
     style="fill:#ffffff;opacity:0.2"
     d="M 24 4 C 17 20 17 21 4 44 C 4 44 4.5808 43.686 4.8105 43.557 C 16.918 22.089 17.165 20.623 24 5 C 30.835 20.623 31.082 22.089 43.189 43.557 C 43.419 43.686 44 44 44 44 C 31 21 31 20 24 4 z"
     id="path10" />
</svg>
