<?xml version="1.0" encoding="UTF-8" standalone="no"?>
<svg
   xmlns:dc="http://purl.org/dc/elements/1.1/"
   xmlns:cc="http://creativecommons.org/ns#"
   xmlns:rdf="http://www.w3.org/1999/02/22-rdf-syntax-ns#"
   xmlns:svg="http://www.w3.org/2000/svg"
   xmlns="http://www.w3.org/2000/svg"
   xmlns:sodipodi="http://sodipodi.sourceforge.net/DTD/sodipodi-0.dtd"
   xmlns:inkscape="http://www.inkscape.org/namespaces/inkscape"
   width="48"
   height="48"
   version="1.1"
   id="svg28"
   sodipodi:docname="distributor-logo-mac.svg"
   inkscape:version="0.92.5 (2060ec1f9f, 2020-04-08)">
  <metadata
     id="metadata34">
    <rdf:RDF>
      <cc:Work
         rdf:about="">
        <dc:format>image/svg+xml</dc:format>
        <dc:type
           rdf:resource="http://purl.org/dc/dcmitype/StillImage" />
      </cc:Work>
    </rdf:RDF>
  </metadata>
  <defs
     id="defs32" />
  <sodipodi:namedview
     pagecolor="#ffffff"
     bordercolor="#666666"
     borderopacity="1"
     objecttolerance="10"
     gridtolerance="10"
     guidetolerance="10"
     inkscape:pageopacity="0"
     inkscape:pageshadow="2"
     inkscape:window-width="640"
     inkscape:window-height="480"
     id="namedview30"
     showgrid="false"
     inkscape:zoom="4.9166667"
     inkscape:cx="-15.661017"
     inkscape:cy="24"
     inkscape:current-layer="svg28" />
  <rect
     style="opacity:0.2"
     width="40"
     height="38"
     x="4"
     y="6"
     rx="2"
     ry="2"
     id="rect2" />
  <path
     style="fill:#4c566a;fill-opacity:1"
     d="M 6,5 H 25 L 29,9 V 43 H 6 C 4.892,43 4,42.108 4,41 V 7 C 4,5.892 4.892,5 6,5 Z"
     id="path4" />
  <path
     style="opacity:0.2"
     d="M 21.102 24 C 21.068 24.347 21 25 21 25 L 26 25 C 26 25 26.9 36.673 28.697 43 L 29 43 C 27 37 26 24 26 24 L 21.102 24 z"
     id="path6" />
  <path
     style="fill:#5f697d;fill-opacity:1"
     d="M 25,5 C 22,12 21,24 21,24 H 26 C 26,24 27,37 29,43 H 42 C 43.108,43 44,42.108 44,41 V 7 C 44,5.892 43.108,5 42,5 Z"
     id="path8" />
  <g
     style="opacity:0.2;fill:none;stroke:#000000;stroke-width:2;stroke-linecap:round"
     transform="translate(0,1)"
     id="g16">
    <path
       d="M 33,15 V 18"
       id="path10" />
    <path
       d="M 15,15 V 18"
       id="path12" />
    <path
       d="M 12,29 C 12,29 16,34 24,34 32,34 36,29 36,29"
       id="path14" />
  </g>
  <g
     style="fill:none;stroke:#ffffff;stroke-width:2;stroke-linecap:round;stroke-opacity:1"
     id="g24">
    <path
       d="M 33,15 V 18"
       id="path18"
       style="stroke:#ffffff;stroke-opacity:1" />
    <path
       d="M 15,15 V 18"
       id="path20"
       style="stroke:#ffffff;stroke-opacity:1" />
    <path
       d="M 12,29 C 12,29 16,34 24,34 32,34 36,29 36,29"
       id="path22"
       style="stroke:#ffffff;stroke-opacity:1" />
  </g>
  <path
     style="fill:#ffffff;opacity:0.2"
     d="M 6 5 C 4.892 5 4 5.892 4 7 L 4 8 C 4 6.892 4.892 6 6 6 L 42 6 C 43.108 6 44 6.892 44 8 L 44 7 C 44 5.892 43.108 5 42 5 L 6 5 z"
     id="path26" />
</svg>
