<?xml version="1.0" encoding="UTF-8" standalone="no"?>
<svg
   xmlns:dc="http://purl.org/dc/elements/1.1/"
   xmlns:cc="http://creativecommons.org/ns#"
   xmlns:rdf="http://www.w3.org/1999/02/22-rdf-syntax-ns#"
   xmlns:svg="http://www.w3.org/2000/svg"
   xmlns="http://www.w3.org/2000/svg"
   xmlns:sodipodi="http://sodipodi.sourceforge.net/DTD/sodipodi-0.dtd"
   xmlns:inkscape="http://www.inkscape.org/namespaces/inkscape"
   width="48"
   height="48"
   version="1"
   id="svg20"
   sodipodi:docname="appimagekit-dmanager.svg"
   inkscape:version="0.92.5 (2060ec1f9f, 2020-04-08)">
  <metadata
     id="metadata26">
    <rdf:RDF>
      <cc:Work
         rdf:about="">
        <dc:format>image/svg+xml</dc:format>
        <dc:type
           rdf:resource="http://purl.org/dc/dcmitype/StillImage" />
      </cc:Work>
    </rdf:RDF>
  </metadata>
  <defs
     id="defs24" />
  <sodipodi:namedview
     pagecolor="#ffffff"
     bordercolor="#666666"
     borderopacity="1"
     objecttolerance="10"
     gridtolerance="10"
     guidetolerance="10"
     inkscape:pageopacity="0"
     inkscape:pageshadow="2"
     inkscape:window-width="783"
     inkscape:window-height="480"
     id="namedview22"
     showgrid="false"
     inkscape:zoom="9.8333333"
     inkscape:cx="24.594901"
     inkscape:cy="16.465082"
     inkscape:window-x="0"
     inkscape:window-y="28"
     inkscape:window-maximized="0"
     inkscape:current-layer="svg20" />
  <path
     style="opacity:0.2"
     d="m 24.107422,5.0000003 v 0.00195 A 4.565676,4.5478844 0 0 0 21.716797,5.6074201 L 8.2832031,13.333955 A 4.565676,4.5478844 0 0 0 6,17.273396 v 15.45307 a 4.565676,4.5478844 0 0 0 2.2832031,3.937487 l 13.4335939,7.726536 a 4.565676,4.5478844 0 0 0 4.566405,0 L 39.716797,36.663953 A 4.565676,4.5478844 0 0 0 42,32.726466 V 17.273396 A 4.565676,4.5478844 0 0 0 39.716797,13.333955 L 26.283202,5.6074201 a 4.565676,4.5478844 0 0 0 -2.17578,-0.6074198 z"
     id="path2" />
  <path
     style="fill:#4c566a;fill-opacity:1"
     d="m 24.107422,3.9999999 v 0.00195 A 4.565676,4.5478844 0 0 0 21.716797,4.6074197 L 8.2832031,12.333955 A 4.565676,4.5478844 0 0 0 6,16.273396 v 15.45307 a 4.565676,4.5478844 0 0 0 2.2832031,3.937487 l 13.4335939,7.726536 a 4.565676,4.5478844 0 0 0 4.566405,0 L 39.716797,35.663953 A 4.565676,4.5478844 0 0 0 42,31.726466 V 16.273396 A 4.565676,4.5478844 0 0 0 39.716797,12.333955 L 26.283202,4.6074197 a 4.565676,4.5478844 0 0 0 -2.17578,-0.6074198 z"
     id="path4" />
  <path
     style="opacity:0.2"
     d="m 30,11.537218 -4,2.308594 v 6.142578 l -2,1.15625 -6,3.464844 v 0.427734 4.189453 4.619141 2.291016 2.326172 l 12,-6.925782 z m -4,13.072266 v 4.615234 l -4,2.310547 v -4.617187 z"
     id="path6" />
  <path
     style="fill:#ffffff;opacity:0.1"
     d="M 24.107422 4 L 24.107422 4.0019531 A 4.565676 4.5478844 0 0 0 21.716797 4.6074219 L 8.2832031 12.333984 A 4.565676 4.5478844 0 0 0 6 16.273438 L 6 17.273438 A 4.565676 4.5478844 0 0 1 8.2832031 13.333984 L 21.716797 5.6074219 A 4.565676 4.5478844 0 0 1 24.107422 5.0019531 L 24.107422 5 A 4.565676 4.5478844 0 0 1 26.283203 5.6074219 L 39.716797 13.333984 A 4.565676 4.5478844 0 0 1 42 17.273438 L 42 16.273438 A 4.565676 4.5478844 0 0 0 39.716797 12.333984 L 26.283203 4.6074219 A 4.565676 4.5478844 0 0 0 24.107422 4 z"
     id="path8" />
  <path
     style="fill:#ffffff;fill-opacity:1"
     d="m 30,10.536133 -4,2.308594 v 17.691406 h 4 z"
     id="path10" />
  <path
     style="fill:#ffffff;fill-opacity:1"
     d="M 27.644457,18.039403 24,20.143555 18,23.608399 v 0.427734 4.191406 l 8,-4.61914 2.850725,-1.645886 z"
     id="path12" />
  <path
     style="fill:#f9fcfe;fill-opacity:1"
     d="m 28,27.071289 -10,5.773438 v 4.61914 l 12,-6.927734 z"
     id="path14" />
  <path
     style="fill:#ffffff;fill-opacity:1"
     d="m 18,24.036133 h 4 v 11.1 h -4 z"
     id="path16" />
  <path
     style="opacity:0.2;fill:#ffffff"
     d="M 30 10.537109 L 26 12.845703 L 26 13.845703 L 30 11.537109 L 30 10.537109 z M 26 18.988281 L 24 20.144531 L 18 23.609375 L 18 24.037109 L 18 24.609375 L 24 21.144531 L 26 19.988281 L 26 18.988281 z M 26 28.224609 L 22 30.535156 L 22 31.535156 L 26 29.224609 L 26 28.224609 z"
     id="path18" />
</svg>
