<?xml version="1.0" encoding="UTF-8" standalone="no"?>
<svg
   xmlns:dc="http://purl.org/dc/elements/1.1/"
   xmlns:cc="http://creativecommons.org/ns#"
   xmlns:rdf="http://www.w3.org/1999/02/22-rdf-syntax-ns#"
   xmlns:svg="http://www.w3.org/2000/svg"
   xmlns="http://www.w3.org/2000/svg"
   xmlns:sodipodi="http://sodipodi.sourceforge.net/DTD/sodipodi-0.dtd"
   xmlns:inkscape="http://www.inkscape.org/namespaces/inkscape"
   width="48"
   height="48"
   version="1.1"
   id="svg20"
   sodipodi:docname="appimagekit-dockstation.svg"
   inkscape:version="0.92.5 (2060ec1f9f, 2020-04-08)">
  <metadata
     id="metadata26">
    <rdf:RDF>
      <cc:Work
         rdf:about="">
        <dc:format>image/svg+xml</dc:format>
        <dc:type
           rdf:resource="http://purl.org/dc/dcmitype/StillImage" />
      </cc:Work>
    </rdf:RDF>
  </metadata>
  <defs
     id="defs24" />
  <sodipodi:namedview
     pagecolor="#ffffff"
     bordercolor="#666666"
     borderopacity="1"
     objecttolerance="10"
     gridtolerance="10"
     guidetolerance="10"
     inkscape:pageopacity="0"
     inkscape:pageshadow="2"
     inkscape:window-width="783"
     inkscape:window-height="480"
     id="namedview22"
     showgrid="false"
     inkscape:zoom="4.9166667"
     inkscape:cx="24"
     inkscape:cy="24"
     inkscape:window-x="0"
     inkscape:window-y="28"
     inkscape:window-maximized="0"
     inkscape:current-layer="svg20" />
  <circle
     style="opacity:0.2"
     cx="24"
     cy="25"
     r="20"
     id="circle2" />
  <path
     style="fill:#ffffff;fill-opacity:1"
     d="M 44,24 C 43,25 33.084855,26.679247 22.03916,26.679247 10.993465,26.679247 5,25 4,24 4,12.954305 12.954305,4 24,4 35.045695,4 44,12.954305 44,24 Z"
     id="path4" />
  <path
     style="opacity:0.2;fill:#ffffff"
     d="M 24,4 A 20,20 0 0 0 4,24 20,20 0 0 0 4.0215,24.582 20,20 0 0 1 24,5 20,20 0 0 1 43.979,24.418 20,20 0 0 0 44,24 20,20 0 0 0 24,4 Z"
     id="path6" />
  <path
     style="fill:#4c566a;fill-opacity:1"
     d="M 21.638672,20.003906 C 17.112003,20.066468 11.476476,20.909669 5.1445312,22.480469 4.5422808,22.629871 4.2566863,22.699184 4.0625,22.736328 4.0283451,23.156787 4.0075013,23.578222 4,24 c 0.00206,11.012215 8.905847,19.950927 19.917969,19.996094 0.04508,-5.8e-5 0.06998,0.0022 0.115234,0.002 C 35.065185,43.979779 43.998964,35.031997 44,24 43.9922,23.277285 43.94528,22.555524 43.859375,21.837891 41.920098,22.7572 40.170297,23.055358 38.220302,23.041035 33.05233,23.000813 28.062067,20.285727 23.509766,20.02539 22.909537,20.00226 22.285339,19.99497 21.638672,20.00391 Z"
     id="path8" />
  <path
     style="opacity:0.2"
     d="m 16,24 a 1,1 0 0 0 -1,1 1,1 0 0 0 1,1 1,1 0 0 0 1,-1 1,1 0 0 0 -1,-1 z m 18,4 a 3,3 0 0 0 -3,3 3,3 0 0 0 3,3 3,3 0 0 0 3,-3 3,3 0 0 0 -3,-3 z M 22.5,40 A 1.5,1.5 0 0 0 21,41.5 1.5,1.5 0 0 0 22.5,43 1.5,1.5 0 0 0 24,41.5 1.5,1.5 0 0 0 22.5,40 Z"
     id="path10" />
  <circle
     style="fill:#ffffff;fill-opacity:1"
     cx="16"
     cy="24"
     r="1"
     id="circle12" />
  <circle
     style="fill:#ffffff;fill-opacity:1"
     cx="34"
     cy="30"
     r="3"
     id="circle14" />
  <circle
     style="fill:#ffffff;fill-opacity:1"
     cx="22.5"
     cy="40.5"
     r="1.5"
     id="circle16" />
  <path
     style="opacity:0.1"
     d="M 21.638672 20.003906 C 17.112003 20.066468 11.476476 20.909669 5.1445312 22.480469 C 4.5422809 22.629871 4.2566863 22.699184 4.0625 22.736328 C 4.0283451 23.156787 4.0075013 23.578222 4 24 C 4.0000418 24.223515 4.0083056 24.444267 4.015625 24.666016 C 4.0263307 24.355863 4.0373709 24.045676 4.0625 23.736328 C 4.2566863 23.699184 4.5422809 23.629871 5.1445312 23.480469 C 11.476476 21.909669 17.112003 21.066468 21.638672 21.003906 C 22.285339 20.994966 22.909537 21.002261 23.509766 21.025391 C 28.062067 21.285728 33.052731 24.000796 38.220703 24.041016 C 40.170698 24.055339 41.920098 23.7572 43.859375 22.837891 C 43.929646 23.424919 43.96635 24.014654 43.984375 24.605469 C 43.990412 24.40374 43.999981 24.203185 44 24 C 43.9922 23.277285 43.94528 22.555524 43.859375 21.837891 C 41.920098 22.7572 40.170698 23.055339 38.220703 23.041016 C 33.052731 23.000794 28.062067 20.285728 23.509766 20.025391 C 22.909537 20.002261 22.285339 19.994966 21.638672 20.003906 z"
     id="path18" />
</svg>
