<?xml version="1.0" encoding="UTF-8" standalone="no"?>
<svg
   xmlns:dc="http://purl.org/dc/elements/1.1/"
   xmlns:cc="http://creativecommons.org/ns#"
   xmlns:rdf="http://www.w3.org/1999/02/22-rdf-syntax-ns#"
   xmlns:svg="http://www.w3.org/2000/svg"
   xmlns="http://www.w3.org/2000/svg"
   xmlns:sodipodi="http://sodipodi.sourceforge.net/DTD/sodipodi-0.dtd"
   xmlns:inkscape="http://www.inkscape.org/namespaces/inkscape"
   width="48"
   height="48"
   version="1"
   id="svg16"
   sodipodi:docname="doublecmd.svg"
   inkscape:version="0.92.5 (2060ec1f9f, 2020-04-08)">
  <metadata
     id="metadata22">
    <rdf:RDF>
      <cc:Work
         rdf:about="">
        <dc:format>image/svg+xml</dc:format>
        <dc:type
           rdf:resource="http://purl.org/dc/dcmitype/StillImage" />
      </cc:Work>
    </rdf:RDF>
  </metadata>
  <defs
     id="defs20" />
  <sodipodi:namedview
     pagecolor="#ffffff"
     bordercolor="#666666"
     borderopacity="1"
     objecttolerance="10"
     gridtolerance="10"
     guidetolerance="10"
     inkscape:pageopacity="0"
     inkscape:pageshadow="2"
     inkscape:window-width="783"
     inkscape:window-height="480"
     id="namedview18"
     showgrid="false"
     inkscape:zoom="4.9166667"
     inkscape:cx="-1.1186441"
     inkscape:cy="24"
     inkscape:window-x="0"
     inkscape:window-y="28"
     inkscape:window-maximized="0"
     inkscape:current-layer="svg16" />
  <rect
     style="opacity:0.2"
     width="40"
     height="40"
     x="4"
     y="5"
     rx="12"
     ry="12"
     id="rect2" />
  <rect
     style="fill:#4c566a;fill-opacity:1"
     width="40"
     height="40"
     x="4"
     y="4"
     rx="12"
     ry="12"
     id="rect4" />
  <path
     style="fill:#ffffff;opacity:0.2"
     d="M 16 4 C 9.352 4 4 9.352 4 16 L 4 17 C 4 10.352 9.352 5 16 5 L 32 5 C 38.648 5 44 10.352 44 17 L 44 16 C 44 9.352 38.648 4 32 4 L 16 4 z"
     id="path6" />
  <path
     style="opacity:0.2"
     d="m 2,12 v 2 c 0,0 0,1 1,1 h 3 c 5.522847,0 10,4.477153 10,10 0,5.522847 -4.477153,10 -10,10 H 5 3 c -1,0 -1,1 -1,1 v 2 c 0,0 0,1 1,1 H 6 C 13.731986,39 20,32.731986 20,25 20,17.268014 13.731986,11 6,11 H 3 c -1,0 -1,1 -1,1 z"
     id="path8" />
  <path
     style="fill:#ffffff"
     d="m 2,11 v 2 c 0,0 0,1 1,1 h 3 c 5.522847,0 10,4.477153 10,10 0,5.522847 -4.477153,10 -10,10 H 5 3 c -1,0 -1,1 -1,1 v 2 c 0,0 0,1 1,1 H 6 C 13.731986,38 20,31.731986 20,24 20,16.268014 13.731986,10 6,10 H 3 c -1,0 -1,1 -1,1 z"
     id="path10" />
  <path
     style="opacity:0.2"
     d="m 46,12 v 2 c 0,0 0,1 -1,1 h -3 c -5.522847,0 -10,4.477153 -10,10 0,5.522847 4.477153,10 10,10 h 1 2 c 1,0 1,1 1,1 v 2 c 0,0 0,1 -1,1 H 42 C 34.268014,39 28,32.731986 28,25 28,17.268014 34.268014,11 42,11 h 3 c 1,0 1,1 1,1 z"
     id="path12" />
  <path
     style="fill:#ffffff"
     d="m 46,11 v 2 c 0,0 0,1 -1,1 h -3 c -5.522847,0 -10,4.477153 -10,10 0,5.522847 4.477153,10 10,10 h 1 2 c 1,0 1,1 1,1 v 2 c 0,0 0,1 -1,1 H 42 C 34.268014,38 28,31.731986 28,24 28,16.268014 34.268014,10 42,10 h 3 c 1,0 1,1 1,1 z"
     id="path14" />
</svg>
