<?xml version="1.0" encoding="UTF-8" standalone="no"?>
<svg
   xmlns:dc="http://purl.org/dc/elements/1.1/"
   xmlns:cc="http://creativecommons.org/ns#"
   xmlns:rdf="http://www.w3.org/1999/02/22-rdf-syntax-ns#"
   xmlns:svg="http://www.w3.org/2000/svg"
   xmlns="http://www.w3.org/2000/svg"
   xmlns:sodipodi="http://sodipodi.sourceforge.net/DTD/sodipodi-0.dtd"
   xmlns:inkscape="http://www.inkscape.org/namespaces/inkscape"
   width="48"
   height="48"
   version="1.1"
   id="svg16"
   sodipodi:docname="electrum.svg"
   inkscape:version="0.92.5 (2060ec1f9f, 2020-04-08)">
  <metadata
     id="metadata22">
    <rdf:RDF>
      <cc:Work
         rdf:about="">
        <dc:format>image/svg+xml</dc:format>
        <dc:type
           rdf:resource="http://purl.org/dc/dcmitype/StillImage" />
      </cc:Work>
    </rdf:RDF>
  </metadata>
  <defs
     id="defs20" />
  <sodipodi:namedview
     pagecolor="#ffffff"
     bordercolor="#666666"
     borderopacity="1"
     objecttolerance="10"
     gridtolerance="10"
     guidetolerance="10"
     inkscape:pageopacity="0"
     inkscape:pageshadow="2"
     inkscape:window-width="783"
     inkscape:window-height="480"
     id="namedview18"
     showgrid="false"
     inkscape:zoom="4.9166667"
     inkscape:cx="23.288136"
     inkscape:cy="7.7288136"
     inkscape:window-x="0"
     inkscape:window-y="28"
     inkscape:window-maximized="0"
     inkscape:current-layer="svg16" />
  <circle
     style="fill:#4c566a;fill-opacity:1"
     cx="24"
     cy="24"
     r="20"
     id="circle2" />
  <path
     style="opacity:0.2;fill:#ffffff"
     d="M 24,4 A 20,20 0 0 0 4,24 20,20 0 0 0 4.0215,24.582 20,20 0 0 1 23.9995,5 a 20,20 0 0 1 19.979,19.418 20,20 0 0 0 0.02148,-0.4179 20,20 0 0 0 -20,-20 z"
     id="path4" />
  <path
     style="opacity:0.2"
     d="M 43.979,24.4 A 20,20 0 0 1 24,44 20,20 0 0 1 4.022,24.5 20,20 0 0 0 4,25 20,20 0 0 0 24,45 20,20 0 0 0 44,25 20,20 0 0 0 43.9785,24.4179 Z"
     id="path6" />
  <path
     style="fill:#fbfdff;fill-opacity:1"
     d="m 21,16 v 1.999999 h -3 v 2.000002 c 0,0 1.14565,-0.01999 1.127368,0 0.613377,-0.0093 0.808708,0.436058 0.872215,0.733073 v 6.600259 C 19.976073,27.521033 19.996083,27.986666 19.567381,28 19.587181,28.01733 18,28 18,28 v 2 h 2.168817 C 20.535544,29.98667 20.645729,30 21,30 v 2 h 2 v -2 h 0.97917 l 0.04166,2 H 26 l -0.02083,-2 c 2.543221,-0.184635 4.020831,-1.402119 4.00401,-3.5 C 30,24.570087 28.456652,23.506411 27.5,23.5 c 0.956507,0.0038 1.500001,-1.036553 1.500001,-2.5 0,-2 -1.380197,-3 -3.000002,-3 V 16 H 24 v 2 c -0.398082,0 -0.595857,-0.01467 -1,0 v -2 z m 2,4.000001 C 25,20 26,20 26,21.5 26,23 25,23 23,23 Z M 23,25 c 2.666111,8.3e-5 4.000276,-0.166641 4,1.5 2.76e-4,1.666775 -1.333889,1.5 -4,1.5 z"
     id="path8" />
  <ellipse
     style="fill:none;stroke:#ffffff;stroke-width:1.82574189;stroke-opacity:1"
     cx="24"
     cy="24"
     rx="18"
     ry="10"
     id="ellipse10" />
  <ellipse
     style="fill:none;stroke:#ffffff;stroke-width:1.82574189;stroke-opacity:1"
     cx="32.785"
     cy="-8.785"
     rx="18"
     ry="10"
     transform="rotate(60)"
     id="ellipse12" />
  <ellipse
     style="fill:none;stroke:#ffffff;stroke-width:1.82574189;stroke-opacity:1"
     cx="8.785"
     cy="32.785"
     rx="18"
     ry="10"
     transform="matrix(-0.5,0.8660254,0.8660254,0.5,0,0)"
     id="ellipse14" />
</svg>
