<?xml version="1.0" encoding="UTF-8" standalone="no"?>
<svg
   xmlns:dc="http://purl.org/dc/elements/1.1/"
   xmlns:cc="http://creativecommons.org/ns#"
   xmlns:rdf="http://www.w3.org/1999/02/22-rdf-syntax-ns#"
   xmlns:svg="http://www.w3.org/2000/svg"
   xmlns="http://www.w3.org/2000/svg"
   xmlns:sodipodi="http://sodipodi.sourceforge.net/DTD/sodipodi-0.dtd"
   xmlns:inkscape="http://www.inkscape.org/namespaces/inkscape"
   width="48"
   height="48"
   version="1"
   id="svg14"
   sodipodi:docname="application-x-emerald-theme.svg"
   inkscape:version="0.92.5 (2060ec1f9f, 2020-04-08)">
  <metadata
     id="metadata20">
    <rdf:RDF>
      <cc:Work
         rdf:about="">
        <dc:format>image/svg+xml</dc:format>
        <dc:type
           rdf:resource="http://purl.org/dc/dcmitype/StillImage" />
      </cc:Work>
    </rdf:RDF>
  </metadata>
  <defs
     id="defs18" />
  <sodipodi:namedview
     pagecolor="#ffffff"
     bordercolor="#666666"
     borderopacity="1"
     objecttolerance="10"
     gridtolerance="10"
     guidetolerance="10"
     inkscape:pageopacity="0"
     inkscape:pageshadow="2"
     inkscape:window-width="783"
     inkscape:window-height="480"
     id="namedview16"
     showgrid="false"
     inkscape:zoom="4.9166667"
     inkscape:cx="24"
     inkscape:cy="24"
     inkscape:window-x="0"
     inkscape:window-y="28"
     inkscape:window-maximized="0"
     inkscape:current-layer="svg14" />
  <path
     style="opacity:0.2"
     d="M 14.399943,6.000001 A 2.4002537,2.5336174 0 0 0 12.649152,6.8003361 L 3.6490995,16.933793 a 2.4002537,2.5336174 0 0 0 -0.067968,3.385652 L 22.181239,43.119721 a 2.4002537,2.5336174 0 0 0 3.63752,0 L 44.418865,20.319445 a 2.4002537,2.5336174 0 0 0 -0.06796,-3.385652 L 35.350849,6.8003361 A 2.4002537,2.5336174 0 0 0 33.600052,6.000001 l -9.600054,0 -9.600055,0 z"
     id="path2" />
  <path
     style="fill:#4c566a;fill-opacity:1"
     d="M 14.399943,5.0000006 A 2.4002537,2.5336174 0 0 0 12.649152,5.8003357 L 3.6490995,15.933793 a 2.4002537,2.5336174 0 0 0 -0.067968,3.385652 L 22.181239,42.119721 a 2.4002537,2.5336174 0 0 0 3.63752,0 L 44.418865,19.319445 a 2.4002537,2.5336174 0 0 0 -0.06796,-3.385652 L 35.350849,5.8003357 A 2.4002537,2.5336174 0 0 0 33.600052,5.0000006 l -9.600054,0 -9.600055,0 z"
     id="path4" />
  <path
     style="opacity:0.2"
     d="M 14.400391 5 A 2.4002537 2.5336174 0 0 0 12.648438 5.8007812 L 3.6484375 15.933594 A 2.4002537 2.5336174 0 0 0 3.0214844 18 L 44.976562 18 A 2.4002537 2.5336174 0 0 0 44.351562 15.933594 L 35.351562 5.8007812 A 2.4002537 2.5336174 0 0 0 33.599609 5 L 24 5 L 14.400391 5 z"
     id="path6" />
  <path
     style="fill:#4c566a;fill-opacity:1"
     transform="matrix(1.0167496,0,0,0.76312684,18.916252,17.973156)"
     d="m 5.0000003,-17 9.8352627,17.03517606 -19.6705265,-5.2e-7 z"
     id="path8" />
  <path
     style="opacity:0.2"
     d="M 24,43 34,18 14,18 Z"
     id="path10" />
  <path
     style="opacity:0.2;fill:#ffffff"
     d="M 14.400391 5 A 2.4002537 2.5336174 0 0 0 12.648438 5.8007812 L 3.6484375 15.933594 A 2.4002537 2.5336174 0 0 0 3.0488281 18.166016 A 2.4002537 2.5336174 0 0 1 3.6484375 16.933594 L 12.648438 6.8007812 A 2.4002537 2.5336174 0 0 1 14.400391 6 L 24 6 L 33.599609 6 A 2.4002537 2.5336174 0 0 1 35.351562 6.8007812 L 44.351562 16.933594 A 2.4002537 2.5336174 0 0 1 44.951172 18.166016 A 2.4002537 2.5336174 0 0 0 44.351562 15.933594 L 35.351562 5.8007812 A 2.4002537 2.5336174 0 0 0 33.599609 5 L 24 5 L 14.400391 5 z"
     id="path12" />
</svg>
