<?xml version="1.0" encoding="UTF-8" standalone="no"?>
<svg
   xmlns:dc="http://purl.org/dc/elements/1.1/"
   xmlns:cc="http://creativecommons.org/ns#"
   xmlns:rdf="http://www.w3.org/1999/02/22-rdf-syntax-ns#"
   xmlns:svg="http://www.w3.org/2000/svg"
   xmlns="http://www.w3.org/2000/svg"
   xmlns:sodipodi="http://sodipodi.sourceforge.net/DTD/sodipodi-0.dtd"
   xmlns:inkscape="http://www.inkscape.org/namespaces/inkscape"
   width="48"
   height="48"
   version="1.1"
   id="svg14"
   sodipodi:docname="appimagekit-enve.svg"
   inkscape:version="0.92.5 (2060ec1f9f, 2020-04-08)">
  <metadata
     id="metadata20">
    <rdf:RDF>
      <cc:Work
         rdf:about="">
        <dc:format>image/svg+xml</dc:format>
        <dc:type
           rdf:resource="http://purl.org/dc/dcmitype/StillImage" />
      </cc:Work>
    </rdf:RDF>
  </metadata>
  <defs
     id="defs18" />
  <sodipodi:namedview
     pagecolor="#ffffff"
     bordercolor="#666666"
     borderopacity="1"
     objecttolerance="10"
     gridtolerance="10"
     guidetolerance="10"
     inkscape:pageopacity="0"
     inkscape:pageshadow="2"
     inkscape:window-width="640"
     inkscape:window-height="480"
     id="namedview16"
     showgrid="false"
     inkscape:zoom="4.9166667"
     inkscape:cx="24"
     inkscape:cy="24"
     inkscape:current-layer="g12" />
  <g
     transform="matrix(2,0,0,2,2,2)"
     id="g12">
    <path
       d="m6 14.5s2 3 5 3c4 0 6-2 7-2 2 0 3 1 3 2 0 2-6 4-10 4-5 0-10-4-10-8 0-3 1.5169491-12 13-12 5 0 7 2 7 5s-2 5-7 7c-2.936101 1.17444-8 1-8 1z"
       style="opacity:.2"
       id="path2" />
    <path
       d="m6 14s2 3 5 3c4 0 6-2 7-2 2 0 3 1 3 2 0 2-6 4-10 4-5 0-10-4-10-8 0-3 1.5169491-12 13-12 5 0 7 2 7 5s-2 5-7 7c-2.936101 1.17444-8 1-8 1z"
       style="fill:#4c566a;fill-opacity:1"
       id="path4" />
    <circle
       cx="11"
       cy="7.5"
       r="4"
       style="opacity:.2"
       id="circle6" />
    <circle
       cx="11"
       cy="7"
       r="4"
       style="fill:#ffffff"
       id="circle8" />
    <path
       d="M 14,1 C 2.5169491,1 1,10 1,13 1,13.07618 1.013986,13.152363 1.017578,13.228516 1.0955172,10.022871 2.7999699,1.5 14,1.5 c 4.858177,0 6.879212,1.8909956 6.990234,4.75 C 20.993475,6.1664925 21,6.0850938 21,6 21,3 19,1 14,1 Z M 6,14.5 c 0,0 2,3 5,3 4,0 6,-2 7,-2 1.801063,0 2.783742,0.811503 2.962891,1.703125 C 20.976335,17.135489 21,17.067713 21,17 21,16 20,15 18,15 17,15 15,17 11,17 8.7773096,17 7.1087602,15.35728 6.390625,14.503906 6.2644403,14.501579 6,14.5 6,14.5 Z"
       style="fill:#ffffff;opacity:.2"
       id="path10" />
  </g>
</svg>
