<?xml version="1.0" encoding="UTF-8" standalone="no"?>
<svg
   xmlns:dc="http://purl.org/dc/elements/1.1/"
   xmlns:cc="http://creativecommons.org/ns#"
   xmlns:rdf="http://www.w3.org/1999/02/22-rdf-syntax-ns#"
   xmlns:svg="http://www.w3.org/2000/svg"
   xmlns="http://www.w3.org/2000/svg"
   xmlns:sodipodi="http://sodipodi.sourceforge.net/DTD/sodipodi-0.dtd"
   xmlns:inkscape="http://www.inkscape.org/namespaces/inkscape"
   width="48"
   height="48"
   version="1"
   id="svg12"
   sodipodi:docname="evnc.svg"
   inkscape:version="0.92.5 (2060ec1f9f, 2020-04-08)">
  <metadata
     id="metadata18">
    <rdf:RDF>
      <cc:Work
         rdf:about="">
        <dc:format>image/svg+xml</dc:format>
        <dc:type
           rdf:resource="http://purl.org/dc/dcmitype/StillImage" />
      </cc:Work>
    </rdf:RDF>
  </metadata>
  <defs
     id="defs16" />
  <sodipodi:namedview
     pagecolor="#ffffff"
     bordercolor="#666666"
     borderopacity="1"
     objecttolerance="10"
     gridtolerance="10"
     guidetolerance="10"
     inkscape:pageopacity="0"
     inkscape:pageshadow="2"
     inkscape:window-width="783"
     inkscape:window-height="480"
     id="namedview14"
     showgrid="false"
     inkscape:zoom="4.9166667"
     inkscape:cx="-1.1186441"
     inkscape:cy="24"
     inkscape:window-x="0"
     inkscape:window-y="28"
     inkscape:window-maximized="0"
     inkscape:current-layer="svg12" />
  <path
     style="opacity:0.2"
     d="M 6,8 C 3.7909525,8.0002209 2.0002209,9.7909525 2,12 v 26 c 2.209e-4,2.209048 1.7909525,3.999779 4,4 h 2 c 1.822514,-0.0019 3.413377,-1.235392 3.869141,-3 H 12 c 0,0 24.132812,0 24,0 h 0.132812 C 36.588394,40.763905 38.178213,41.997219 40,42 h 2 c 2.209048,-2.21e-4 3.999779,-1.790952 4,-4 V 12 C 45.999779,9.7909525 44.209048,8.0002209 42,8 h -2 c -1.822514,0.00189 -3.413377,1.2353925 -3.869141,3 H 36 12 11.867188 C 11.411606,9.2360953 9.8217866,8.0027809 8,8 Z"
     id="path2" />
  <path
     style="fill:#4c566a;fill-opacity:1"
     d="M 6,7 C 3.7909525,7.0002209 2.0002209,8.7909525 2,11 v 26 c 2.209e-4,2.209048 1.7909525,3.999779 4,4 h 2 c 1.822514,-0.0019 3.413377,-1.235392 3.869141,-3 H 12 c 0,0 24.132812,0 24,0 h 0.132812 C 36.588394,39.763905 38.178213,40.997219 40,41 h 2 c 2.209048,-2.21e-4 3.999779,-1.790952 4,-4 V 11 C 45.999779,8.7909525 44.209048,7.0002209 42,7 h -2 c -1.822514,0.00189 -3.413377,1.2353925 -3.869141,3 H 36 12 11.867188 C 11.411606,8.2360953 9.8217866,7.0027809 8,7 Z"
     id="path4" />
  <path
     opacity=".2"
     d="m6 12v26h2v-26h-2zm34 0v26h2v-26h-2zm-30 3v20h2v-20h-2zm4 0v20h20v-20h-20zm22 0v20h2v-20h-2zm-20 2h16v16h-16v-16z"
     id="path6" />
  <path
     fill="#fff"
     d="m6 11v26h2v-26h-2zm34 0v26h2v-26h-2zm-30 3v20h2v-20h-2zm4 0v20h20v-20h-20zm22 0v20h2v-20h-2zm-20 2h16v16h-16v-16z"
     id="path8" />
  <path
     style="opacity:0.2;fill:#ffffff"
     d="M 6 7 C 3.7909525 7.0002209 2.0002209 8.7909525 2 11 L 2 12 C 2.0002209 9.7909525 3.7909525 8.0002209 6 8 L 8 8 C 9.8217866 8.0027809 11.411606 9.2360953 11.867188 11 L 12 11 L 36 11 L 36.130859 11 C 36.586623 9.2353925 38.177486 8.00189 40 8 L 42 8 C 44.209048 8.0002209 45.999779 9.7909525 46 12 L 46 11 C 45.999779 8.7909525 44.209048 7.0002209 42 7 L 40 7 C 38.177486 7.00189 36.586623 8.2353925 36.130859 10 L 36 10 L 12 10 L 11.867188 10 C 11.411606 8.2360953 9.8217866 7.0027809 8 7 L 6 7 z"
     id="path10" />
</svg>
