<?xml version="1.0" encoding="UTF-8" standalone="no"?>
<svg
   xmlns:dc="http://purl.org/dc/elements/1.1/"
   xmlns:cc="http://creativecommons.org/ns#"
   xmlns:rdf="http://www.w3.org/1999/02/22-rdf-syntax-ns#"
   xmlns:svg="http://www.w3.org/2000/svg"
   xmlns="http://www.w3.org/2000/svg"
   xmlns:sodipodi="http://sodipodi.sourceforge.net/DTD/sodipodi-0.dtd"
   xmlns:inkscape="http://www.inkscape.org/namespaces/inkscape"
   width="48"
   height="48"
   version="1.1"
   id="svg12"
   sodipodi:docname="extraterm.svg"
   inkscape:version="0.92.5 (2060ec1f9f, 2020-04-08)">
  <metadata
     id="metadata18">
    <rdf:RDF>
      <cc:Work
         rdf:about="">
        <dc:format>image/svg+xml</dc:format>
        <dc:type
           rdf:resource="http://purl.org/dc/dcmitype/StillImage" />
      </cc:Work>
    </rdf:RDF>
  </metadata>
  <defs
     id="defs16" />
  <sodipodi:namedview
     pagecolor="#ffffff"
     bordercolor="#666666"
     borderopacity="1"
     objecttolerance="10"
     gridtolerance="10"
     guidetolerance="10"
     inkscape:pageopacity="0"
     inkscape:pageshadow="2"
     inkscape:window-width="783"
     inkscape:window-height="480"
     id="namedview14"
     showgrid="false"
     inkscape:zoom="4.9166667"
     inkscape:cx="24"
     inkscape:cy="24"
     inkscape:window-x="0"
     inkscape:window-y="28"
     inkscape:window-maximized="0"
     inkscape:current-layer="svg12" />
  <circle
     style="opacity:0.2"
     cx="24"
     cy="25"
     r="20"
     id="circle2" />
  <circle
     style="fill:#4c566a;fill-opacity:1"
     cx="24"
     cy="24"
     r="20"
     id="circle4" />
  <path
     style="opacity:0.2;fill:#ffffff"
     d="M 24,4 A 20,20 0 0 0 4,24 20,20 0 0 0 4.0215,24.582 20,20 0 0 1 24,5 20,20 0 0 1 43.979,24.418 20,20 0 0 0 44,24 20,20 0 0 0 24,4 Z"
     id="path6" />
  <path
     style="opacity:0.2"
     d="M 16.53125,15 C 16.239987,14.9936 15.999674,15.237301 16,15.539062 v 3.375 c 2.15e-4,0.192428 0.100606,0.369041 0.261719,0.464844 L 21.470703,22.5 16.261719,25.621094 C 16.100606,25.716897 16.000215,25.89351 16,26.085938 v 3.375 c -3.26e-4,0.30176 0.239987,0.545462 0.53125,0.539062 0.08741,-0.0021 0.172427,-0.02682 0.248047,-0.07227 l 8.958984,-5.328125 C 25.899394,24.50381 25.999785,24.327194 26,24.134766 V 22.5 20.865234 c -2.15e-4,-0.192428 -0.100606,-0.36904 -0.261719,-0.464843 L 16.779297,15.072266 C 16.703677,15.026816 16.61866,15.00212 16.53125,15 Z M 26,31 c -0.554,0 -1,0.446 -1,1 v 2 c 0,0.554 0.446,1 1,1 h 10 c 0.554,0 1,-0.446 1,-1 v -2 c 0,-0.554 -0.446,-1 -1,-1 z"
     id="path8" />
  <path
     style="fill:#ffffff"
     d="M 16.53125 14 C 16.239987 13.9936 15.999674 14.237301 16 14.539062 L 16 17.914062 C 16.000215 18.10649 16.100606 18.283103 16.261719 18.378906 L 21.470703 21.5 L 16.261719 24.621094 C 16.100606 24.716897 16.000215 24.89351 16 25.085938 L 16 28.460938 C 15.999674 28.762698 16.239987 29.0064 16.53125 29 C 16.61866 28.9979 16.703677 28.973184 16.779297 28.927734 L 25.738281 23.599609 C 25.899394 23.50381 25.999785 23.327194 26 23.134766 L 26 21.5 L 26 19.865234 C 25.999785 19.672806 25.899394 19.496194 25.738281 19.400391 L 16.779297 14.072266 C 16.703677 14.026816 16.61866 14.00212 16.53125 14 z M 26 30 C 25.446 30 25 30.446 25 31 L 25 33 C 25 33.554 25.446 34 26 34 L 36 34 C 36.554 34 37 33.554 37 33 L 37 31 C 37 30.446 36.554 30 36 30 L 26 30 z"
     id="path10" />
</svg>
