<?xml version="1.0" encoding="UTF-8" standalone="no"?>
<svg
   xmlns:dc="http://purl.org/dc/elements/1.1/"
   xmlns:cc="http://creativecommons.org/ns#"
   xmlns:rdf="http://www.w3.org/1999/02/22-rdf-syntax-ns#"
   xmlns:svg="http://www.w3.org/2000/svg"
   xmlns="http://www.w3.org/2000/svg"
   xmlns:sodipodi="http://sodipodi.sourceforge.net/DTD/sodipodi-0.dtd"
   xmlns:inkscape="http://www.inkscape.org/namespaces/inkscape"
   width="48"
   height="48"
   version="1"
   id="svg12"
   sodipodi:docname="filezilla.svg"
   inkscape:version="0.92.5 (2060ec1f9f, 2020-04-08)">
  <metadata
     id="metadata18">
    <rdf:RDF>
      <cc:Work
         rdf:about="">
        <dc:format>image/svg+xml</dc:format>
        <dc:type
           rdf:resource="http://purl.org/dc/dcmitype/StillImage" />
      </cc:Work>
    </rdf:RDF>
  </metadata>
  <defs
     id="defs16" />
  <sodipodi:namedview
     pagecolor="#ffffff"
     bordercolor="#666666"
     borderopacity="1"
     objecttolerance="10"
     gridtolerance="10"
     guidetolerance="10"
     inkscape:pageopacity="0"
     inkscape:pageshadow="2"
     inkscape:window-width="783"
     inkscape:window-height="480"
     id="namedview14"
     showgrid="false"
     inkscape:zoom="4.9166667"
     inkscape:cx="24"
     inkscape:cy="24"
     inkscape:window-x="0"
     inkscape:window-y="28"
     inkscape:window-maximized="0"
     inkscape:current-layer="svg12" />
  <rect
     fill="#e83838"
     width="40"
     height="40"
     x="4"
     y="4"
     rx="2"
     ry="2"
     id="rect2"
     style="fill:#4c566a;fill-opacity:1" />
  <path
     fill="#fff"
     opacity=".2"
     d="m6 4c-1.108 0-2 0.892-2 2v1c0-1.108 0.892-2 2-2h36c1.108 0 2 0.892 2 2v-1c0-1.108-0.892-2-2-2h-36z"
     id="path4" />
  <path
     opacity=".2"
     d="m6 45c-1.108 0-2-0.892-2-2v-1c0 1.108 0.892 2 2 2h36c1.108 0 2-0.892 2-2v1c0 1.108-0.892 2-2 2h-36z"
     id="path6" />
  <path
     opacity=".2"
     d="m16.27 12-5.27 23.377h4.2819l2.4873-10.462h11.688l-10.946 9.799 2.854 3.286 1.4616-0.75312c2.764-1.4211 3.9232-0.59017 6.0202-0.0083 2.0401 0.56616 3.958 1.1721 7.937-1.1215l-0.7902-4.0482c-4.3425 3.0876-5.7163 0.33286-8.8092 0.2235l8.854-7.492 0.961-4h-18.548l1.194-4.8004h12.157l0.83372-3.9997h-16.367z"
     id="path8" />
  <path
     fill="#fff"
     d="m16.27 11-5.27 23.377h4.2819l2.4873-10.462h11.688l-10.946 9.799 2.854 3.286 1.4616-0.75312c2.764-1.4211 3.9232-0.59017 6.0202-0.0083 2.0401 0.56616 3.958 1.1721 7.937-1.1215l-0.7902-4.0482c-4.3425 3.0876-5.7163 0.33286-8.8092 0.2235l8.854-7.492 0.961-4h-18.548l1.194-4.8004h12.157l0.83372-3.9997h-16.367z"
     id="path10" />
</svg>
