<?xml version="1.0" encoding="UTF-8" standalone="no"?>
<svg
   xmlns:dc="http://purl.org/dc/elements/1.1/"
   xmlns:cc="http://creativecommons.org/ns#"
   xmlns:rdf="http://www.w3.org/1999/02/22-rdf-syntax-ns#"
   xmlns:svg="http://www.w3.org/2000/svg"
   xmlns="http://www.w3.org/2000/svg"
   xmlns:sodipodi="http://sodipodi.sourceforge.net/DTD/sodipodi-0.dtd"
   xmlns:inkscape="http://www.inkscape.org/namespaces/inkscape"
   width="48"
   height="48"
   version="1"
   id="svg30"
   sodipodi:docname="appimagekit-filmulator-gui.svg"
   inkscape:version="0.92.5 (2060ec1f9f, 2020-04-08)">
  <metadata
     id="metadata36">
    <rdf:RDF>
      <cc:Work
         rdf:about="">
        <dc:format>image/svg+xml</dc:format>
        <dc:type
           rdf:resource="http://purl.org/dc/dcmitype/StillImage" />
      </cc:Work>
    </rdf:RDF>
  </metadata>
  <defs
     id="defs34" />
  <sodipodi:namedview
     pagecolor="#ffffff"
     bordercolor="#666666"
     borderopacity="1"
     objecttolerance="10"
     gridtolerance="10"
     guidetolerance="10"
     inkscape:pageopacity="0"
     inkscape:pageshadow="2"
     inkscape:window-width="783"
     inkscape:window-height="480"
     id="namedview32"
     showgrid="false"
     inkscape:zoom="6.9532167"
     inkscape:cx="26.025431"
     inkscape:cy="28.706149"
     inkscape:window-x="0"
     inkscape:window-y="28"
     inkscape:window-maximized="0"
     inkscape:current-layer="svg30" />
  <rect
     style="opacity:0.2"
     width="44"
     height="36"
     x="2"
     y="7"
     rx="2.2"
     ry="2"
     id="rect2" />
  <rect
     style="fill:#5f697d;fill-opacity:1"
     width="44"
     height="36"
     x="2"
     y="6"
     rx="2.2"
     ry="2"
     id="rect4" />
  <rect
     style="fill:#4c566a;fill-opacity:1"
     width="44"
     height="22"
     x="2"
     y="13"
     id="rect6" />
  <path
     style="opacity:0.2"
     d="M 6,17 V 33 H 8.0292969 V 26 H 14 V 24 H 8.0292969 V 18.769531 H 15 V 17 Z m 12.009766,0 c -0.28479,0 -0.524576,0.08333 -0.71875,0.25 C 17.096841,17.404762 17,17.654762 17,18 c 0,0.345238 0.09684,0.600911 0.291016,0.767578 C 17.48519,18.92234 17.724976,19 18.009766,19 18.268665,19 18.495278,18.92234 18.689453,18.767578 18.896573,18.600911 19,18.345238 19,18 19,17.654762 18.896573,17.404762 18.689453,17.25 18.495278,17.083333 18.268665,17 18.009766,17 Z M 22,17 v 16 h 2 V 17 Z m -5,4 v 12 h 2 V 21 Z m 15.138672,0 c -0.665799,0 -1.296132,0.153245 -1.892578,0.460938 -0.582574,0.29304 -1.04776,0.747896 -1.394532,1.363281 H 28.748047 L 28.476562,21.220703 H 27 V 33 h 1.830078 v -6.109375 c 0,-1.377289 0.216488,-2.433415 0.646484,-3.166016 0.429997,-0.7326 1.206542,-1.097656 2.330079,-1.097656 1.52579,0 2.289062,0.93021 2.289062,2.791016 V 33 h 1.808594 v -6.505859 c 0,-1.260074 0.229763,-2.219565 0.6875,-2.878907 0.471608,-0.65934 1.248153,-0.988281 2.330078,-0.988281 1.51192,0 2.267578,0.93021 2.267578,2.791016 V 33 H 43 V 25.330078 C 43,23.820921 42.68864,22.721848 42.064453,22.033203 41.440266,21.344558 40.496621,21 39.234375,21 c -0.735153,0 -1.422489,0.16203 -2.060547,0.484375 -0.638058,0.322344 -1.143065,0.820148 -1.517578,1.494141 H 35.550781 C 35.02369,21.659834 33.886396,21 32.138672,21 Z"
     id="path8" />
  <path
     style="opacity:0.1"
     d="m 2,36 v 4 h 2 v -4 z m 6,0 v 4 h 2 v -4 z m 6,0 v 4 h 2 v -4 z m 6,0 v 4 h 2 v -4 z m 6,0 v 4 h 2 v -4 z m 6,0 v 4 h 2 v -4 z m 6,0 v 4 h 2 v -4 z m 6,0 v 4 h 2 v -4 z"
     id="path10" />
  <path
     style="fill:#ffffff"
     d="M 2 9 L 2 13 L 4 13 L 4 9 L 2 9 z M 8 9 L 8 13 L 10 13 L 10 9 L 8 9 z M 14 9 L 14 13 L 16 13 L 16 9 L 14 9 z M 20 9 L 20 13 L 22 13 L 22 9 L 20 9 z M 26 9 L 26 13 L 28 13 L 28 9 L 26 9 z M 32 9 L 32 13 L 34 13 L 34 9 L 32 9 z M 38 9 L 38 13 L 40 13 L 40 9 L 38 9 z M 44 9 L 44 13 L 46 13 L 46 9 L 44 9 z M 2 35 L 2 39 L 4 39 L 4 35 L 2 35 z M 8 35 L 8 39 L 10 39 L 10 35 L 8 35 z M 14 35 L 14 39 L 16 39 L 16 35 L 14 35 z M 20 35 L 20 39 L 22 39 L 22 35 L 20 35 z M 26 35 L 26 39 L 28 39 L 28 35 L 26 35 z M 32 35 L 32 39 L 34 39 L 34 35 L 32 35 z M 38 35 L 38 39 L 40 39 L 40 35 L 38 35 z M 44 35 L 44 39 L 46 39 L 46 35 L 44 35 z"
     id="path12" />
  <path
     style="fill:#ffffff;opacity:0.2"
     d="M 4.1992188 6 C 2.9804187 6 2 6.892 2 8 L 2 9 C 2 7.892 2.9804187 7 4.1992188 7 L 43.800781 7 C 45.019581 7 46 7.892 46 9 L 46 8 C 46 6.892 45.019581 6 43.800781 6 L 4.1992188 6 z"
     id="path14" />
  <rect
     style="opacity:0.1"
     width="44"
     height="1"
     x="2"
     y="13"
     id="rect16" />
  <rect
     style="opacity:0.1;fill:#ffffff"
     width="44"
     height="1"
     x="2"
     y="35"
     id="rect18" />
  <path
     style="fill:#ffffff"
     d="M 8.030075,32 H 6 V 16 h 9 v 1.770309 H 8.030075 V 23 H 14 v 2 H 8.030075 Z"
     id="path20" />
  <path
     style="fill:#ffffff"
     d="m 18.009709,16 q 0.388349,0 0.679611,0.25 Q 19,16.482143 19,17 19,17.517857 18.68932,17.767857 18.398058,18 18.009709,18 17.582524,18 17.291262,17.767857 17,17.517857 17,17 17,16.482143 17.291262,16.25 17.582524,16 18.009709,16 Z"
     id="path22" />
  <path
     style="fill:#ffffff"
     d="M 19,20 V 32 H 17 V 20 Z"
     id="path24" />
  <path
     style="fill:#ffffff"
     d="M 24,32 H 22 V 16 h 2 z"
     id="path26" />
  <path
     style="fill:#ffffff"
     d="m 39.23407,20 q 1.893369,0 2.829649,1.032967 Q 43,22.065935 43,24.329671 V 32 h -1.810143 v -7.582418 q 0,-2.791208 -2.26788,-2.791208 -1.622887,0 -2.330299,0.98901 -0.686606,0.989012 -0.686606,2.879122 V 32 h -1.810144 v -7.582418 q 0,-2.791208 -2.288686,-2.791208 -1.685305,0 -2.330299,1.098901 -0.644994,1.098901 -0.644994,3.164835 V 32 H 27 V 20.219781 h 1.477243 l 0.270481,1.604395 h 0.104031 Q 29.371912,20.901099 30.245773,20.461539 31.140443,20 32.139142,20 q 2.621586,0 3.412223,1.978022 h 0.104032 Q 36.217166,20.967033 37.174253,20.483517 38.13134,20 39.23407,20 Z"
     id="path28" />
</svg>
