<?xml version="1.0" encoding="UTF-8" standalone="no"?>
<svg
   xmlns:dc="http://purl.org/dc/elements/1.1/"
   xmlns:cc="http://creativecommons.org/ns#"
   xmlns:rdf="http://www.w3.org/1999/02/22-rdf-syntax-ns#"
   xmlns:svg="http://www.w3.org/2000/svg"
   xmlns="http://www.w3.org/2000/svg"
   xmlns:sodipodi="http://sodipodi.sourceforge.net/DTD/sodipodi-0.dtd"
   xmlns:inkscape="http://www.inkscape.org/namespaces/inkscape"
   width="48"
   height="48"
   version="1"
   id="svg26"
   sodipodi:docname="calligraflow.svg"
   inkscape:version="0.92.5 (2060ec1f9f, 2020-04-08)">
  <metadata
     id="metadata32">
    <rdf:RDF>
      <cc:Work
         rdf:about="">
        <dc:format>image/svg+xml</dc:format>
        <dc:type
           rdf:resource="http://purl.org/dc/dcmitype/StillImage" />
      </cc:Work>
    </rdf:RDF>
  </metadata>
  <defs
     id="defs30" />
  <sodipodi:namedview
     pagecolor="#ffffff"
     bordercolor="#666666"
     borderopacity="1"
     objecttolerance="10"
     gridtolerance="10"
     guidetolerance="10"
     inkscape:pageopacity="0"
     inkscape:pageshadow="2"
     inkscape:window-width="783"
     inkscape:window-height="480"
     id="namedview28"
     showgrid="false"
     inkscape:zoom="4.9166667"
     inkscape:cx="24"
     inkscape:cy="24"
     inkscape:window-x="0"
     inkscape:window-y="28"
     inkscape:window-maximized="0"
     inkscape:current-layer="svg26" />
  <rect
     fill="#4f4f4f"
     width="40"
     height="40"
     x="4"
     y="4"
     rx="2"
     ry="2"
     id="rect2"
     style="fill:#4c566a;fill-opacity:1" />
  <path
     fill="#fff"
     opacity=".1"
     d="m6 4c-1.108 0-2 0.892-2 2v1c0-1.108 0.892-2 2-2h36c1.108 0 2 0.892 2 2v-1c0-1.108-0.892-2-2-2h-36z"
     id="path4" />
  <path
     opacity=".2"
     d="m6 45c-1.108 0-2-0.892-2-2v-1c0 1.108 0.892 2 2 2h36c1.108 0 2-0.892 2-2v1c0 1.108-0.892 2-2 2h-36z"
     id="path6" />
  <path
     fill="#848484"
     d="m13 14v22h22v-22h-22zm3.9999 3.9999 13.999-0.000177 0.000177 13.999-13.999 0.000177-0.000177-13.999z"
     id="path8" />
  <rect
     opacity=".2"
     width="14"
     height="14"
     x="10"
     y="26"
     id="rect10" />
  <rect
     fill="#64b5ff"
     width="14"
     height="14"
     x="10"
     y="25"
     id="rect12"
     style="fill:#ffffff;fill-opacity:1" />
  <rect
     opacity=".2"
     width="14"
     height="10"
     x="10"
     y="12"
     id="rect14" />
  <rect
     fill="#e47cff"
     width="14"
     height="10"
     x="10"
     y="11"
     id="rect16"
     style="fill:#ffffff;fill-opacity:1" />
  <circle
     opacity=".2"
     cx="33"
     cy="17"
     r="5"
     id="circle18" />
  <circle
     fill="#ff6363"
     cx="33"
     cy="16"
     r="5"
     id="circle20"
     style="fill:#ffffff;fill-opacity:1" />
  <rect
     opacity=".2"
     width="12"
     height="10"
     x="27"
     y="29"
     id="rect22" />
  <rect
     fill="#3bff80"
     width="12"
     height="10"
     x="27"
     y="28"
     id="rect24"
     style="fill:#ffffff;fill-opacity:1" />
</svg>
