<?xml version="1.0" encoding="UTF-8" standalone="no"?>
<svg
   xmlns:dc="http://purl.org/dc/elements/1.1/"
   xmlns:cc="http://creativecommons.org/ns#"
   xmlns:rdf="http://www.w3.org/1999/02/22-rdf-syntax-ns#"
   xmlns:svg="http://www.w3.org/2000/svg"
   xmlns="http://www.w3.org/2000/svg"
   xmlns:sodipodi="http://sodipodi.sourceforge.net/DTD/sodipodi-0.dtd"
   xmlns:inkscape="http://www.inkscape.org/namespaces/inkscape"
   width="48"
   height="48"
   version="1"
   id="svg16"
   sodipodi:docname="flowblade.svg"
   inkscape:version="0.92.5 (2060ec1f9f, 2020-04-08)">
  <metadata
     id="metadata22">
    <rdf:RDF>
      <cc:Work
         rdf:about="">
        <dc:format>image/svg+xml</dc:format>
        <dc:type
           rdf:resource="http://purl.org/dc/dcmitype/StillImage" />
      </cc:Work>
    </rdf:RDF>
  </metadata>
  <defs
     id="defs20" />
  <sodipodi:namedview
     pagecolor="#ffffff"
     bordercolor="#666666"
     borderopacity="1"
     objecttolerance="10"
     gridtolerance="10"
     guidetolerance="10"
     inkscape:pageopacity="0"
     inkscape:pageshadow="2"
     inkscape:window-width="765"
     inkscape:window-height="480"
     id="namedview18"
     showgrid="false"
     inkscape:zoom="4.9166667"
     inkscape:cx="24"
     inkscape:cy="24"
     inkscape:window-x="0"
     inkscape:window-y="28"
     inkscape:window-maximized="0"
     inkscape:current-layer="svg16" />
  <rect
     style="fill:#4c566a;fill-opacity:1"
     width="40"
     height="40"
     x="4"
     y="4"
     rx="2"
     ry="2"
     id="rect2" />
  <path
     style="opacity:0.1;fill:#ffffff"
     d="M 6,4 C 4.892,4 4,4.892 4,6 L 4,7 C 4,5.892 4.892,5 6,5 l 36,0 c 1.108,0 2,0.892 2,2 L 44,6 C 44,4.892 43.108,4 42,4 L 6,4 Z"
     id="path4" />
  <path
     style="opacity:0.2"
     d="M 6,45 C 4.892,45 4,44.108 4,43 l 0,-1 c 0,1.108 0.892,2 2,2 l 36,0 c 1.108,0 2,-0.892 2,-2 l 0,1 c 0,1.108 -0.892,2 -2,2 L 6,45 Z"
     id="path6" />
  <path
     style="opacity:0.2"
     d="m 24.666667,10.999998 9.333333,0 c 0,0 -6.268198,1.339635 -7,3.666667 -0.551755,1.754504 3.383473,3.201205 3,5.000001 -0.459842,2.157022 -4.543627,2.175574 -5,4.333333 -0.431976,2.042406 3.358897,3.61016 3,5.666667 -0.378204,2.167134 -4.959283,2.467155 -5,4.666667 C 22.96071,36.455744 28,39 28,39 l -14,0 z"
     id="path8" />
  <path
     style="fill:#e4e4e4"
     d="m 24.666667,9.9999993 9.333333,0 c 0,0 -6.268198,1.3396347 -7,3.6666667 -0.551755,1.754504 3.383473,3.201205 3,5.000001 -0.459842,2.157022 -4.543627,2.175574 -5,4.333333 -0.431976,2.042406 3.358897,3.61016 3,5.666667 -0.378204,2.167134 -4.959283,2.467155 -5,4.666667 -0.03929,2.122411 5,4.666667 5,4.666667 l -14,0 z"
     id="path10" />
  <path
     style="opacity:0.2"
     d="m 6,7 0,4 4,0 0,-4 -4,0 z m 32,0 0,4 4,0 0,-4 -4,0 z m -32,8 0,4 4,0 0,-4 -4,0 z m 32,0 0,4 4,0 0,-4 -4,0 z m -32,8 0,4 4,0 0,-4 -4,0 z m 32,0 0,4 4,0 0,-4 -4,0 z m -32,8 0,4 4,0 0,-4 -4,0 z m 32,0 0,4 4,0 0,-4 -4,0 z m -32,8 0,4 4,0 0,-4 -4,0 z m 32,0 0,4 4,0 0,-4 -4,0 z"
     id="path12" />
  <path
     style="fill:#989898"
     d="m 6,6 0,4 4,0 0,-4 -4,0 z m 32,0 0,4 4,0 0,-4 -4,0 z m -32,8 0,4 4,0 0,-4 -4,0 z m 32,0 0,4 4,0 0,-4 -4,0 z m -32,8 0,4 4,0 0,-4 -4,0 z m 32,0 0,4 4,0 0,-4 -4,0 z m -32,8 0,4 4,0 0,-4 -4,0 z m 32,0 0,4 4,0 0,-4 -4,0 z m -32,8 0,4 4,0 0,-4 -4,0 z m 32,0 0,4 4,0 0,-4 -4,0 z"
     id="path14" />
</svg>
