<?xml version="1.0" encoding="UTF-8" standalone="no"?>
<svg
   xmlns:dc="http://purl.org/dc/elements/1.1/"
   xmlns:cc="http://creativecommons.org/ns#"
   xmlns:rdf="http://www.w3.org/1999/02/22-rdf-syntax-ns#"
   xmlns:svg="http://www.w3.org/2000/svg"
   xmlns="http://www.w3.org/2000/svg"
   xmlns:sodipodi="http://sodipodi.sourceforge.net/DTD/sodipodi-0.dtd"
   xmlns:inkscape="http://www.inkscape.org/namespaces/inkscape"
   width="48"
   height="48"
   version="1.1"
   id="svg12"
   sodipodi:docname="fluajho.svg"
   inkscape:version="0.92.5 (2060ec1f9f, 2020-04-08)">
  <metadata
     id="metadata18">
    <rdf:RDF>
      <cc:Work
         rdf:about="">
        <dc:format>image/svg+xml</dc:format>
        <dc:type
           rdf:resource="http://purl.org/dc/dcmitype/StillImage" />
      </cc:Work>
    </rdf:RDF>
  </metadata>
  <defs
     id="defs16" />
  <sodipodi:namedview
     pagecolor="#ffffff"
     bordercolor="#666666"
     borderopacity="1"
     objecttolerance="10"
     gridtolerance="10"
     guidetolerance="10"
     inkscape:pageopacity="0"
     inkscape:pageshadow="2"
     inkscape:window-width="783"
     inkscape:window-height="480"
     id="namedview14"
     showgrid="false"
     inkscape:zoom="4.9166667"
     inkscape:cx="24"
     inkscape:cy="24"
     inkscape:window-x="0"
     inkscape:window-y="28"
     inkscape:window-maximized="0"
     inkscape:current-layer="svg12" />
  <path
     d="m25 45c9 0 12-7.102731 12-13 0-8-7.462544-12.162797-9-19-0.585035-2.6017 0-8 0-8s-17 12-17 26c0 6.599663 5 14 14 14z"
     style="opacity:.2"
     id="path2" />
  <path
     d="m25 44c9 0 12-7.102731 12-13 0-8-7.462544-12.162797-9-19-0.585035-2.6017005 0-8 0-8s-17 12-17 26c0 6.599663 5 14 14 14z"
     style="fill:#4c566a;fill-opacity:1"
     id="path4" />
  <path
     d="m26 11s-12 8-12 20c0 5.426274 5 11 11 11s8-7 8-10c0-2 0-7-5-7s-6 3-6 3 2.118325-0.471858 3 0c1.059641 0.567103 2 1.509288 2 3 0 2-2 3-4 3-1.414214 0-3-1.585786-3-3 0-8 7-9 7-9s2 0 3 1c-4-7-4-12-4-12z"
     style="opacity:.2"
     id="path6" />
  <path
     d="m26 10s-12 8-12 20c0 5.426274 5 11 11 11s8-7 8-10c0-2 0-7-5-7s-6 3-6 3 2.118325-0.471858 3 0c1.059641 0.567103 2 1.509288 2 3 0 2-2 3-4 3-1.414214 0-3-1.585786-3-3 0-8 7-9 7-9s2 0 3 1c-4-7-4-12-4-12z"
     style="fill:#ffffff"
     id="path8" />
  <path
     d="M 28 4 C 28 4 11 16 11 30 C 11 30.147 11.016534 30.295656 11.021484 30.443359 C 11.454979 16.908472 27.383689 5.4426985 27.90625 5.0703125 C 27.95742 4.437711 28 4 28 4 z M 27.748047 9.0976562 C 27.721331 10.499067 27.767786 11.967324 28 13 C 29.514145 19.733536 36.760635 23.880903 36.980469 31.646484 C 36.988458 31.430446 37 31.213278 37 31 C 37 23 29.537456 18.837203 28 12 C 27.823154 11.213549 27.75954 10.168835 27.748047 9.0976562 z "
     style="fill:#ffffff;opacity:.1"
     id="path10" />
</svg>
