<?xml version="1.0" encoding="UTF-8" standalone="no"?>
<svg
   xmlns:dc="http://purl.org/dc/elements/1.1/"
   xmlns:cc="http://creativecommons.org/ns#"
   xmlns:rdf="http://www.w3.org/1999/02/22-rdf-syntax-ns#"
   xmlns:svg="http://www.w3.org/2000/svg"
   xmlns="http://www.w3.org/2000/svg"
   xmlns:sodipodi="http://sodipodi.sourceforge.net/DTD/sodipodi-0.dtd"
   xmlns:inkscape="http://www.inkscape.org/namespaces/inkscape"
   width="48"
   height="48"
   version="1"
   id="svg14"
   sodipodi:docname="foobnix.svg"
   inkscape:version="0.92.5 (2060ec1f9f, 2020-04-08)">
  <metadata
     id="metadata20">
    <rdf:RDF>
      <cc:Work
         rdf:about="">
        <dc:format>image/svg+xml</dc:format>
        <dc:type
           rdf:resource="http://purl.org/dc/dcmitype/StillImage" />
      </cc:Work>
    </rdf:RDF>
  </metadata>
  <defs
     id="defs18" />
  <sodipodi:namedview
     pagecolor="#ffffff"
     bordercolor="#666666"
     borderopacity="1"
     objecttolerance="10"
     gridtolerance="10"
     guidetolerance="10"
     inkscape:pageopacity="0"
     inkscape:pageshadow="2"
     inkscape:window-width="765"
     inkscape:window-height="480"
     id="namedview16"
     showgrid="false"
     inkscape:zoom="4.9166667"
     inkscape:cx="24"
     inkscape:cy="24"
     inkscape:window-x="0"
     inkscape:window-y="28"
     inkscape:window-maximized="0"
     inkscape:current-layer="svg14" />
  <rect
     style="fill:#4c566a;fill-opacity:1"
     width="40"
     height="40"
     x="-44.2"
     y="-44.2"
     rx="2"
     ry="2"
     transform="matrix(0,-1,-1,0,0,0)"
     id="rect2" />
  <path
     style="opacity:0.1;fill:#ffffff"
     d="M 6,4 C 4.892,4 4,4.892 4,6 L 4,7 C 4,5.892 4.892,5 6,5 l 36,0 c 1.108,0 2,0.892 2,2 L 44,6 C 44,4.892 43.108,4 42,4 L 6,4 Z"
     id="path4" />
  <path
     style="opacity:0.2"
     d="M 6,45 C 4.892,45 4,44.108 4,43 l 0,-1 c 0,1.108 0.892,2 2,2 l 36,0 c 1.108,0 2,-0.892 2,-2 l 0,1 c 0,1.108 -0.892,2 -2,2 L 6,45 Z"
     id="path6" />
  <path
     style="opacity:0.2"
     d="M 9.5996,9 C 8.7132,9 8,9.7132 8,10.6 L 8,39.4 C 8,40.287 8.7132,41 9.5996,41 l 28.8,0 c 0.887,0 1.6,-0.713 1.6,-1.6 l 0,-28.8 c 0,-0.8868 -0.713,-1.6 -1.6,-1.6 l -28.8,0 z M 17,16 l 8,4.5 8,4.5 -8,4.5 -8,4.5 0,-18 z"
     id="path8" />
  <path
     style="fill:#ffffff"
     d="M 9.5996,8 C 8.7132,8 8,8.7132 8,9.5996 l 0,28.8 c 0,0.887 0.7132,1.6 1.5996,1.6 l 28.8,0 c 0.887,0 1.6,-0.713 1.6,-1.6 l 0,-28.8 c 0,-0.8868 -0.713,-1.6 -1.6,-1.6 l -28.8,0 z"
     id="path10" />
  <path
     style="fill:#4c566a;fill-opacity:1"
     d="m 17,15 8,4.5 8,4.5 -8,4.5 -8,4.5 0,-18 z"
     id="path12" />
</svg>
