<?xml version="1.0" encoding="UTF-8" standalone="no"?>
<svg
   xmlns:dc="http://purl.org/dc/elements/1.1/"
   xmlns:cc="http://creativecommons.org/ns#"
   xmlns:rdf="http://www.w3.org/1999/02/22-rdf-syntax-ns#"
   xmlns:svg="http://www.w3.org/2000/svg"
   xmlns="http://www.w3.org/2000/svg"
   xmlns:sodipodi="http://sodipodi.sourceforge.net/DTD/sodipodi-0.dtd"
   xmlns:inkscape="http://www.inkscape.org/namespaces/inkscape"
   height="48"
   width="48"
   version="1.1"
   id="svg16"
   sodipodi:docname="freegish.svg"
   inkscape:version="0.92.5 (2060ec1f9f, 2020-04-08)">
  <metadata
     id="metadata22">
    <rdf:RDF>
      <cc:Work
         rdf:about="">
        <dc:format>image/svg+xml</dc:format>
        <dc:type
           rdf:resource="http://purl.org/dc/dcmitype/StillImage" />
      </cc:Work>
    </rdf:RDF>
  </metadata>
  <defs
     id="defs20" />
  <sodipodi:namedview
     pagecolor="#ffffff"
     bordercolor="#666666"
     borderopacity="1"
     objecttolerance="10"
     gridtolerance="10"
     guidetolerance="10"
     inkscape:pageopacity="0"
     inkscape:pageshadow="2"
     inkscape:window-width="765"
     inkscape:window-height="480"
     id="namedview18"
     showgrid="false"
     inkscape:zoom="4.9166667"
     inkscape:cx="24"
     inkscape:cy="24"
     inkscape:window-x="0"
     inkscape:window-y="28"
     inkscape:window-maximized="0"
     inkscape:current-layer="g14" />
  <g
     transform="translate(.101562 .023391)"
     id="g14">
    <path
       style="opacity:.2"
       d="m24 39c-20.025144 0-20.025144-10.012572-20.025144-10.012572s0-20.025144 20.025144-20.025144c20.025143 0 20.025143 20.025144 20.025143 20.025144s0 10.012572-20.025143 10.012572z"
       id="path2" />
    <path
       style="fill:#4c566a;fill-opacity:1"
       d="m24.025144 38.037716c-20.025144 0-20.025144-10.012572-20.025144-10.012572s0-20.025144 20.025144-20.025144c20.025143 0 20.025143 20.025144 20.025143 20.025144s0 10.012572-20.025143 10.012572z"
       id="path4" />
    <path
       style="opacity:.2"
       d="m36 22c-4.291102 0-10 7-10 7l10.003906 0.02539c4.9968-0.025139 4.996094-7.02539-0.0039-7.02539zm-24.251953 0.02539c-5 0-5.000706 7.000247-0.0039 7.025391l10.0039-0.02539s-5.708898-7-10-7.000001z"
       id="path6" />
    <path
       style="fill:#fff8f8;fill-opacity:1"
       d="m36.251953 20.974609c-4.291102 0-10 7-10 7l10.003906 0.025391c4.9968-0.02514 4.996094-7.025391-0.0039-7.025391zm-24.251953 0.025391c-5 0-5.0007063 7.000247-0.0039 7.025391l10.0039-0.025391s-5.708898-7-10-7z"
       id="path8" />
    <path
       style="opacity:.1;fill:#ffffff"
       d="m24 7.9628906c-20.025144 0-20.025391 20.02539-20.025391 20.02539s0.011264 0.163324 0.029297 0.332031c0.1699151-3.166026 1.9120315-19.357421 19.996094-19.357421 18.084061 0 19.826178 16.191395 19.996094 19.357421 0.01803-0.168707 0.0293-0.332031 0.0293-0.332031s-0.000248-20.02539-20.025391-20.02539z"
       id="path10" />
    <path
       style="opacity:.2;fill:#ffffff"
       d="m36.251953 20.974609c-4.291102 0-10 7-10 7l0.646485 0.002c1.747864-1.92243 5.814807-5.976609 9.101562-5.976609 2.674422 0 3.904668 2.002242 3.71875 3.869141 0.863035-2.067755-0.287381-4.894532-3.466797-4.894532zm-24.251953 0.025391c-2.3264641 0-3.5548216 1.517357-3.7167969 3.140625 0.4947364-1.182171 1.6435797-2.115234 3.4648439-2.115234 3.287704 0 7.356516 4.054886 9.103515 5.976562l1.148438-0.001953s-5.708898-7-10-7z"
       id="path12" />
  </g>
</svg>
