<?xml version="1.0" encoding="UTF-8" standalone="no"?>
<svg
   xmlns:dc="http://purl.org/dc/elements/1.1/"
   xmlns:cc="http://creativecommons.org/ns#"
   xmlns:rdf="http://www.w3.org/1999/02/22-rdf-syntax-ns#"
   xmlns:svg="http://www.w3.org/2000/svg"
   xmlns="http://www.w3.org/2000/svg"
   xmlns:sodipodi="http://sodipodi.sourceforge.net/DTD/sodipodi-0.dtd"
   xmlns:inkscape="http://www.inkscape.org/namespaces/inkscape"
   width="48"
   height="48"
   version="1.1"
   id="svg28"
   sodipodi:docname="freedesktop.svg"
   inkscape:version="0.92.5 (2060ec1f9f, 2020-04-08)">
  <metadata
     id="metadata34">
    <rdf:RDF>
      <cc:Work
         rdf:about="">
        <dc:format>image/svg+xml</dc:format>
        <dc:type
           rdf:resource="http://purl.org/dc/dcmitype/StillImage" />
      </cc:Work>
    </rdf:RDF>
  </metadata>
  <defs
     id="defs32" />
  <sodipodi:namedview
     pagecolor="#ffffff"
     bordercolor="#666666"
     borderopacity="1"
     objecttolerance="10"
     gridtolerance="10"
     guidetolerance="10"
     inkscape:pageopacity="0"
     inkscape:pageshadow="2"
     inkscape:window-width="783"
     inkscape:window-height="480"
     id="namedview30"
     showgrid="false"
     inkscape:zoom="13.906433"
     inkscape:cx="22.544156"
     inkscape:cy="27.637519"
     inkscape:window-x="0"
     inkscape:window-y="28"
     inkscape:window-maximized="0"
     inkscape:current-layer="svg28" />
  <rect
     style="opacity:0.2"
     width="40"
     height="32"
     x="4"
     y="9"
     rx="6"
     ry="6"
     id="rect2" />
  <rect
     style="fill:#4c566a;fill-opacity:1"
     width="40"
     height="32"
     x="4"
     y="8"
     rx="6"
     ry="6"
     id="rect4" />
  <path
     style="fill:none;stroke:#ffffff;stroke-width:2;stroke-opacity:1"
     d="M 15,18 34,22 23,33 Z"
     id="path6" />
  <rect
     style="fill:#5f697d;fill-opacity:1"
     width="14"
     height="12"
     x="8"
     y="12"
     rx="1"
     ry="1"
     id="rect8" />
  <rect
     style="fill:#5f697d;fill-opacity:1"
     width="8"
     height="6"
     x="19"
     y="30"
     rx="1"
     ry="1"
     id="rect10" />
  <rect
     style="fill:#5f697d;fill-opacity:1"
     width="12"
     height="10"
     x="28"
     y="17"
     rx="1"
     ry="1"
     id="rect12" />
  <rect
     style="opacity:0.2"
     width="12"
     height="10"
     x="9"
     y="14"
     rx="1"
     ry="1"
     id="rect14" />
  <rect
     style="opacity:0.2"
     width="6"
     height="4"
     x="20"
     y="32"
     rx="1"
     ry="1"
     id="rect16" />
  <rect
     style="opacity:0.2"
     width="10"
     height="8"
     x="29"
     y="19"
     rx="1"
     ry="1"
     id="rect18" />
  <rect
     style="fill:#ffffff"
     width="12"
     height="10"
     x="9"
     y="13"
     rx="1"
     ry="1"
     id="rect20" />
  <rect
     style="fill:#ffffff"
     width="6"
     height="4"
     x="20"
     y="31"
     rx="1"
     ry="1"
     id="rect22" />
  <rect
     style="fill:#ffffff"
     width="10"
     height="8"
     x="29"
     y="18"
     rx="1"
     ry="1"
     id="rect24" />
  <path
     style="opacity:0.2;fill:#ffffff"
     d="M 10 8 C 6.676 8 4 10.676 4 14 L 4 15 C 4 11.676 6.676 9 10 9 L 38 9 C 41.324 9 44 11.676 44 15 L 44 14 C 44 10.676 41.324 8 38 8 L 10 8 z"
     id="path26" />
</svg>
