<?xml version="1.0" encoding="UTF-8" standalone="no"?>
<svg
   xmlns:dc="http://purl.org/dc/elements/1.1/"
   xmlns:cc="http://creativecommons.org/ns#"
   xmlns:rdf="http://www.w3.org/1999/02/22-rdf-syntax-ns#"
   xmlns:svg="http://www.w3.org/2000/svg"
   xmlns="http://www.w3.org/2000/svg"
   xmlns:sodipodi="http://sodipodi.sourceforge.net/DTD/sodipodi-0.dtd"
   xmlns:inkscape="http://www.inkscape.org/namespaces/inkscape"
   width="48"
   height="48"
   version="1"
   id="svg16"
   sodipodi:docname="fusion-icon.svg"
   inkscape:version="0.92.5 (2060ec1f9f, 2020-04-08)">
  <metadata
     id="metadata22">
    <rdf:RDF>
      <cc:Work
         rdf:about="">
        <dc:format>image/svg+xml</dc:format>
        <dc:type
           rdf:resource="http://purl.org/dc/dcmitype/StillImage" />
      </cc:Work>
    </rdf:RDF>
  </metadata>
  <defs
     id="defs20" />
  <sodipodi:namedview
     pagecolor="#ffffff"
     bordercolor="#666666"
     borderopacity="1"
     objecttolerance="10"
     gridtolerance="10"
     guidetolerance="10"
     inkscape:pageopacity="0"
     inkscape:pageshadow="2"
     inkscape:window-width="765"
     inkscape:window-height="480"
     id="namedview18"
     showgrid="false"
     inkscape:zoom="4.9166667"
     inkscape:cx="24"
     inkscape:cy="24"
     inkscape:window-x="0"
     inkscape:window-y="28"
     inkscape:window-maximized="0"
     inkscape:current-layer="svg16" />
  <rect
     fill="#4f4f4f"
     width="40"
     height="40"
     x="4"
     y="4"
     rx="2"
     ry="2"
     id="rect2"
     style="fill:#4c566a;fill-opacity:1" />
  <path
     fill-rule="evenodd"
     opacity=".2"
     d="m21.229 4.9648c-2.7044-0.00688-5.4078-0.0092-8.2773 0.025391-11.784 13.605-0.093 22.377 9.751 24.496-10.419-6.755-1.938-19.372 6.805-24.515-2.8697 0.014098-5.5749 0.00102-8.2793-0.00586zm4.121 15.51c9.735 6.312 2.315 18.332-9.543 23.525h21.801c7.073-13.598-2.642-21.455-12.258-23.525zm-3.2168 0.50586a4.8433 2.9227 45 0 0 -0.14844 0.0039 4.8433 2.9227 45 0 0 -1.4102 0.57227 4.8434 2.9227 45 1 0 6.8496 6.8496 4.8433 2.9227 45 0 0 -5.291 -7.4258z"
     id="path4" />
  <path
     fill="#ff6363"
     fill-rule="evenodd"
     d="m12.951 4.0106c-11.784 13.604-0.092 22.375 9.752 24.495-10.419-6.756-1.938-19.374 6.804-24.517-5.739 0.0286-10.817-0.0476-16.556 0.0216z"
     id="path6"
     style="fill:#ffffff;fill-opacity:1" />
  <path
     fill="#ff6363"
     d="m27.424 27.425a4.8433 2.9227 45 0 1 -6.8495 -6.8495 4.8433 2.9227 45 1 1 6.8495 6.8495z"
     id="path8"
     style="fill:#fff6f6;fill-opacity:1" />
  <path
     fill="#ff6363"
     fill-rule="evenodd"
     d="m37.087 43.989c8.062-14.197-1.894-22.375-11.738-24.495 10.419 6.756 1.191 20.051-12.099 24.517 5.7393-0.02819 18.098 0.04799 23.837-0.02118z"
     id="path10"
     style="fill:#ffffff;fill-opacity:1" />
  <path
     fill="#fff"
     opacity=".1"
     d="m6 4c-1.108 0-2 0.892-2 2v1c0-1.108 0.892-2 2-2h36c1.108 0 2 0.892 2 2v-1c0-1.108-0.892-2-2-2h-36z"
     id="path12" />
  <path
     opacity=".2"
     d="m6 45c-1.108 0-2-0.892-2-2v-1c0 1.108 0.892 2 2 2h36c1.108 0 2-0.892 2-2v1c0 1.108-0.892 2-2 2h-36z"
     id="path14" />
</svg>
