<?xml version="1.0" encoding="UTF-8" standalone="no"?>
<svg
   xmlns:dc="http://purl.org/dc/elements/1.1/"
   xmlns:cc="http://creativecommons.org/ns#"
   xmlns:rdf="http://www.w3.org/1999/02/22-rdf-syntax-ns#"
   xmlns:svg="http://www.w3.org/2000/svg"
   xmlns="http://www.w3.org/2000/svg"
   xmlns:sodipodi="http://sodipodi.sourceforge.net/DTD/sodipodi-0.dtd"
   xmlns:inkscape="http://www.inkscape.org/namespaces/inkscape"
   width="48"
   height="48"
   version="1"
   id="svg12"
   sodipodi:docname="garrysmod.svg"
   inkscape:version="0.92.5 (2060ec1f9f, 2020-04-08)">
  <metadata
     id="metadata18">
    <rdf:RDF>
      <cc:Work
         rdf:about="">
        <dc:format>image/svg+xml</dc:format>
        <dc:type
           rdf:resource="http://purl.org/dc/dcmitype/StillImage" />
      </cc:Work>
    </rdf:RDF>
  </metadata>
  <defs
     id="defs16" />
  <sodipodi:namedview
     pagecolor="#ffffff"
     bordercolor="#666666"
     borderopacity="1"
     objecttolerance="10"
     gridtolerance="10"
     guidetolerance="10"
     inkscape:pageopacity="0"
     inkscape:pageshadow="2"
     inkscape:window-width="783"
     inkscape:window-height="480"
     id="namedview14"
     showgrid="false"
     inkscape:zoom="4.9166667"
     inkscape:cx="24"
     inkscape:cy="24"
     inkscape:window-x="0"
     inkscape:window-y="28"
     inkscape:window-maximized="0"
     inkscape:current-layer="svg12" />
  <rect
     fill="#1194f0"
     width="40"
     height="40"
     x="4"
     y="4"
     rx="2"
     ry="2"
     id="rect2"
     style="fill:#4c566a;fill-opacity:1" />
  <path
     fill="#fff"
     opacity=".2"
     d="m6 4c-1.108 0-2 0.892-2 2v1c0-1.108 0.892-2 2-2h36c1.108 0 2 0.892 2 2v-1c0-1.108-0.892-2-2-2h-36z"
     id="path4" />
  <path
     opacity=".2"
     d="m6 45c-1.108 0-2-0.892-2-2v-1c0 1.108 0.892 2 2 2h36c1.108 0 2-0.892 2-2v1c0 1.108-0.892 2-2 2h-36z"
     id="path6" />
  <path
     opacity=".2"
     d="m29.065 12.429v2.3097c-1.27-1.848-3.129-2.739-5.607-2.739-4.864 0-8.458 4.025-8.458 9.437 0 5.6421 3.5318 9.7005 8.4268 9.7005 2.4165 0 4.0276-0.82487 5.6386-2.8376-0.1549 3.9264-1.7349 5.8401-4.8021 5.8401-1.9208 0-3.0981-0.52794-4.3064-1.9467h-4.6782c1.395 3.662 4.617 5.807 8.83 5.807 3.0981 0 5.5456-1.1548 7.1566-3.3325 1.208-1.683 1.735-3.927 1.735-7.424v-14.815h-3.9346m-5.142 3.596c2.9432 0 4.957 2.2766 4.957 5.6091 0 3.2995-1.9518 5.4772-4.895 5.4772s-4.8331-2.1447-4.8331-5.4772c0-3.3655 1.8899-5.6091 4.7711-5.6091"
     id="path8" />
  <path
     fill="#fff"
     d="m29.065 11.429v2.3097c-1.27-1.848-3.129-2.739-5.607-2.739-4.864 0-8.458 4.025-8.458 9.437 0 5.6421 3.5318 9.7005 8.4268 9.7005 2.4165 0 4.0276-0.82487 5.6386-2.8376-0.1549 3.9264-1.7349 5.8401-4.8021 5.8401-1.9208 0-3.0981-0.52794-4.3064-1.9467h-4.6782c1.395 3.662 4.617 5.807 8.83 5.807 3.0981 0 5.5456-1.1548 7.1566-3.3325 1.208-1.683 1.735-3.927 1.735-7.424v-14.815h-3.9346m-5.142 3.596c2.9432 0 4.957 2.2766 4.957 5.6091 0 3.2995-1.9518 5.4772-4.895 5.4772s-4.8331-2.1447-4.8331-5.4772c0-3.3655 1.8899-5.6091 4.7711-5.6091"
     id="path10" />
</svg>
