<?xml version="1.0" encoding="UTF-8" standalone="no"?>
<svg
   xmlns:dc="http://purl.org/dc/elements/1.1/"
   xmlns:cc="http://creativecommons.org/ns#"
   xmlns:rdf="http://www.w3.org/1999/02/22-rdf-syntax-ns#"
   xmlns:svg="http://www.w3.org/2000/svg"
   xmlns="http://www.w3.org/2000/svg"
   xmlns:sodipodi="http://sodipodi.sourceforge.net/DTD/sodipodi-0.dtd"
   xmlns:inkscape="http://www.inkscape.org/namespaces/inkscape"
   width="48"
   height="48"
   version="1.1"
   id="svg14"
   sodipodi:docname="geonkick.svg"
   inkscape:version="0.92.5 (2060ec1f9f, 2020-04-08)">
  <metadata
     id="metadata20">
    <rdf:RDF>
      <cc:Work
         rdf:about="">
        <dc:format>image/svg+xml</dc:format>
        <dc:type
           rdf:resource="http://purl.org/dc/dcmitype/StillImage" />
      </cc:Work>
    </rdf:RDF>
  </metadata>
  <defs
     id="defs18" />
  <sodipodi:namedview
     pagecolor="#ffffff"
     bordercolor="#666666"
     borderopacity="1"
     objecttolerance="10"
     gridtolerance="10"
     guidetolerance="10"
     inkscape:pageopacity="0"
     inkscape:pageshadow="2"
     inkscape:window-width="783"
     inkscape:window-height="480"
     id="namedview16"
     showgrid="false"
     inkscape:zoom="4.9166667"
     inkscape:cx="16.805789"
     inkscape:cy="22.096192"
     inkscape:window-x="0"
     inkscape:window-y="28"
     inkscape:window-maximized="0"
     inkscape:current-layer="svg14" />
  <circle
     style="opacity:0.2"
     cx="24"
     cy="25"
     r="20"
     id="circle2" />
  <circle
     style="fill:#4c566a;fill-opacity:1"
     cx="24"
     cy="24"
     r="20"
     id="circle4" />
  <path
     style="opacity:0.2;fill:none;stroke:#000000;stroke-width:4;stroke-linejoin:round"
     d="m 10.607225,31.75296 c 1.062978,-4.835872 1.279497,-11.275995 4.925019,-14.752633 1.575403,2.80083 0.157356,10.650941 2.056519,15 l 2.680833,-7 2.120301,4 3.775737,-3 3.110127,1.5 4.390649,-1 2.920831,0.5 2.744615,-0.335519"
     id="path6" />
  <path
     style="fill:none;stroke:#ffffff;stroke-width:4;stroke-linejoin:round"
     d="M 10.607225,30.752633 C 11.670203,25.916761 11.886722,19.476638 15.532244,16 c 1.575403,2.80083 0.157356,10.650941 2.056519,15 l 2.680833,-7 2.120301,4 3.775737,-3 3.110127,1.5 4.390649,-1 2.920831,0.5 2.744615,-0.335519"
     id="path8" />
  <path
     style="fill:#ffffff;opacity:0.15"
     d="M 24 4 A 20 20 0 0 0 4.3183594 20.552734 A 20 20 0 0 1 17 16 A 20 20 0 0 1 37 36 A 20 20 0 0 1 36.681641 39.447266 A 20 20 0 0 0 44 24 A 20 20 0 0 0 24 4 z"
     id="path10" />
  <path
     style="opacity:0.1;fill:#ffffff"
     d="M 24,4 A 20,20 0 0 0 4,24 20,20 0 0 0 4.0215,24.582 20,20 0 0 1 24,5 20,20 0 0 1 43.979,24.418 20,20 0 0 0 44,24 20,20 0 0 0 24,4 Z"
     id="path12" />
</svg>
