<?xml version="1.0" encoding="UTF-8" standalone="no"?>
<svg
   xmlns:dc="http://purl.org/dc/elements/1.1/"
   xmlns:cc="http://creativecommons.org/ns#"
   xmlns:rdf="http://www.w3.org/1999/02/22-rdf-syntax-ns#"
   xmlns:svg="http://www.w3.org/2000/svg"
   xmlns="http://www.w3.org/2000/svg"
   xmlns:sodipodi="http://sodipodi.sourceforge.net/DTD/sodipodi-0.dtd"
   xmlns:inkscape="http://www.inkscape.org/namespaces/inkscape"
   width="48"
   height="48"
   version="1"
   id="svg14"
   sodipodi:docname="appimagekit-glyphr-studio-desktop.svg"
   inkscape:version="0.92.5 (2060ec1f9f, 2020-04-08)">
  <metadata
     id="metadata20">
    <rdf:RDF>
      <cc:Work
         rdf:about="">
        <dc:format>image/svg+xml</dc:format>
        <dc:type
           rdf:resource="http://purl.org/dc/dcmitype/StillImage" />
      </cc:Work>
    </rdf:RDF>
  </metadata>
  <defs
     id="defs18" />
  <sodipodi:namedview
     pagecolor="#ffffff"
     bordercolor="#666666"
     borderopacity="1"
     objecttolerance="10"
     gridtolerance="10"
     guidetolerance="10"
     inkscape:pageopacity="0"
     inkscape:pageshadow="2"
     inkscape:window-width="640"
     inkscape:window-height="480"
     id="namedview16"
     showgrid="false"
     inkscape:zoom="4.9166667"
     inkscape:cx="-15.661017"
     inkscape:cy="24"
     inkscape:current-layer="svg14" />
  <rect
     style="opacity:0.2"
     width="40"
     height="40"
     x="4"
     y="5"
     rx="12"
     ry="12"
     id="rect2" />
  <rect
     style="fill:#4c566a;fill-opacity:1"
     width="40"
     height="40"
     x="4"
     y="4"
     rx="12"
     ry="12"
     id="rect4" />
  <path
     style="fill:#ffffff;opacity:0.2"
     d="M 16 4 C 9.352 4 4 9.352 4 16 L 4 17 C 4 10.352 9.352 5 16 5 L 32 5 C 38.648 5 44 10.352 44 17 L 44 16 C 44 9.352 38.648 4 32 4 L 16 4 z"
     id="path6" />
  <path
     style="opacity:0.2"
     d="m 24,10 c -3.216984,0 -6.195668,1.402817 -8.40625,3.421875 -2.210582,2.019058 -3.770824,4.738178 -3.589844,7.699219 0.158022,2.585412 1.288716,5.013338 3.398438,6.583984 C 17.512066,29.275724 20.392991,30 24,30 c 3.281513,0 5.954367,-0.60759 8,-1.898438 v 4.84961 c 0,0 0.02386,0.745448 -0.832031,1.757812 C 30.312077,35.721349 28.521473,37 24,37 19.910139,37 18.204357,35.949014 17.253906,35 H 19 V 31 H 11.951172 L 12,33.048828 c 0,0 0.09692,2.254552 1.777344,4.242188 C 15.457767,39.278651 18.666734,41 24,41 29.333266,41 32.542233,39.278651 34.222656,37.291016 35.90308,35.30338 36,33.048828 36,33.048828 V 33.023438 21 h -0.0059 C 36.125466,18.086461 34.586346,15.413088 32.40625,13.421875 30.195668,11.402817 27.216984,10 24,10 Z m 0,4 c 2.010131,0 4.161119,0.961241 5.708984,2.375 1.547866,1.413759 2.374849,3.196216 2.294922,4.503906 -0.102885,1.683319 -0.636836,2.755016 -1.794922,3.617188 C 29.050899,25.358265 27.060853,26 24,26 20.939147,26 18.949101,25.358265 17.791016,24.496094 16.63293,23.633922 16.098979,22.562225 15.996094,20.878906 15.916167,19.571216 16.74315,17.788759 18.291016,16.375 19.838881,14.961241 21.989869,14 24,14 Z"
     id="path8" />
  <path
     style="fill:none;stroke:#fafdfe;stroke-width:4;stroke-opacity:1"
     d="m 24,27 c -6.667862,0 -9.739093,-2.731269 -10,-7 -0.260907,-4.268731 4.772885,-9 10,-9 5.227115,0 10.260907,4.731269 10,9 -0.260907,4.268731 -3.332138,7 -10,7 z"
     id="path10" />
  <path
     style="fill:none;stroke:#f6fcfd;stroke-width:4;stroke-opacity:1"
     d="m 19,32 h -5 c 0,0 0.145261,6 10,6 9.854739,0 10,-6 10,-6 V 20"
     id="path12" />
</svg>
