<?xml version="1.0" encoding="UTF-8" standalone="no"?>
<svg
   xmlns:dc="http://purl.org/dc/elements/1.1/"
   xmlns:cc="http://creativecommons.org/ns#"
   xmlns:rdf="http://www.w3.org/1999/02/22-rdf-syntax-ns#"
   xmlns:svg="http://www.w3.org/2000/svg"
   xmlns="http://www.w3.org/2000/svg"
   xmlns:sodipodi="http://sodipodi.sourceforge.net/DTD/sodipodi-0.dtd"
   xmlns:inkscape="http://www.inkscape.org/namespaces/inkscape"
   width="48"
   height="48"
   version="1.1"
   id="svg18"
   sodipodi:docname="appimagekit-gmail-desktop.svg"
   inkscape:version="0.92.5 (2060ec1f9f, 2020-04-08)">
  <metadata
     id="metadata24">
    <rdf:RDF>
      <cc:Work
         rdf:about="">
        <dc:format>image/svg+xml</dc:format>
        <dc:type
           rdf:resource="http://purl.org/dc/dcmitype/StillImage" />
      </cc:Work>
    </rdf:RDF>
  </metadata>
  <defs
     id="defs22" />
  <sodipodi:namedview
     pagecolor="#ffffff"
     bordercolor="#666666"
     borderopacity="1"
     objecttolerance="10"
     gridtolerance="10"
     guidetolerance="10"
     inkscape:pageopacity="0"
     inkscape:pageshadow="2"
     inkscape:window-width="783"
     inkscape:window-height="480"
     id="namedview20"
     showgrid="false"
     inkscape:zoom="4.9166667"
     inkscape:cx="24"
     inkscape:cy="24"
     inkscape:window-x="0"
     inkscape:window-y="28"
     inkscape:window-maximized="0"
     inkscape:current-layer="svg18" />
  <path
     style="opacity:0.2"
     d="M 4,17.732422 V 37.273438 C 4,38.779886 5.2074688,40 6.6992188,40 H 13 V 24.548828 Z m 40,0 -9,6.816406 V 40 h 6.300781 C 42.792532,40 44,38.779887 44,37.273438 Z"
     id="path2" />
  <path
     style="fill:#4c566a;fill-opacity:1"
     d="M 6.7,39 H 13 V 23.54924 L 4,16.732728 V 36.273395 C 4,37.779844 5.2082501,39 6.7,39 Z"
     id="path4" />
  <path
     style="fill:#4c566a;fill-opacity:1"
     d="m 35,39 h 6.3 C 42.791751,39 44,37.779844 44,36.273395 V 16.732728 l -9,6.816512 z"
     id="path6" />
  <path
     style="opacity:0.2"
     d="M 7.7929688,10.010204 C 5.7998139,10.147835 4,11.781475 4,14.098094 V 17.73286 L 13,24.549266 24,32.727 35,24.549266 44,17.73286 V 14.098094 C 44,10.728466 40.190281,8.804378 37.519531,10.82661 L 35,12.734813 24,20.908641 13,12.734813 10.480469,10.82661 C 9.6458591,10.194662 8.6989482,9.9476441 7.7929688,10.010204 Z"
     id="path8" />
  <path
     style="fill:#5f697d;fill-opacity:1"
     d="M 35,11.733952 V 23.54924 l 9,-6.816512 V 13.097254 C 44,9.7276253 40.19075,7.8030967 37.52,9.8253286 Z"
     id="path10" />
  <path
     style="fill:#4c566a;fill-opacity:1"
     d="M 13,23.54924 V 11.733952 l 11,8.175139 11,-8.175139 V 23.54924 l -11,8.178033 z"
     id="path12" />
  <path
     style="fill:#5f697d;fill-opacity:1"
     d="m 4,13.097254 v 3.635474 l 9,6.816512 V 11.733952 L 10.480001,9.8253286 C 7.8092501,7.8030967 4,9.7276253 4,13.097254 Z"
     id="path14" />
  <path
     style="fill:#ffffff;opacity:0.2"
     d="M 7.7929688 9.0097656 C 5.7998139 9.1473967 4 10.781037 4 13.097656 L 4 14.097656 C 4 11.781037 5.7998139 10.147397 7.7929688 10.009766 C 8.6989481 9.9472057 9.6458588 10.194224 10.480469 10.826172 L 13 12.734375 L 24 20.908203 L 35 12.734375 L 37.519531 10.826172 C 40.190281 8.8039399 44 10.728028 44 14.097656 L 44 13.097656 C 44 9.7280279 40.190281 7.80394 37.519531 9.8261719 L 35 11.734375 L 24 19.908203 L 13 11.734375 L 10.480469 9.8261719 C 9.6458588 9.1942244 8.6989481 8.9472061 7.7929688 9.0097656 z"
     id="path16" />
</svg>
