<?xml version="1.0" encoding="UTF-8" standalone="no"?>
<svg
   xmlns:dc="http://purl.org/dc/elements/1.1/"
   xmlns:cc="http://creativecommons.org/ns#"
   xmlns:rdf="http://www.w3.org/1999/02/22-rdf-syntax-ns#"
   xmlns:svg="http://www.w3.org/2000/svg"
   xmlns="http://www.w3.org/2000/svg"
   xmlns:sodipodi="http://sodipodi.sourceforge.net/DTD/sodipodi-0.dtd"
   xmlns:inkscape="http://www.inkscape.org/namespaces/inkscape"
   width="48"
   height="48"
   version="1"
   id="svg12"
   sodipodi:docname="gnome-subtitles.svg"
   inkscape:version="0.92.5 (2060ec1f9f, 2020-04-08)">
  <metadata
     id="metadata18">
    <rdf:RDF>
      <cc:Work
         rdf:about="">
        <dc:format>image/svg+xml</dc:format>
        <dc:type
           rdf:resource="http://purl.org/dc/dcmitype/StillImage" />
      </cc:Work>
    </rdf:RDF>
  </metadata>
  <defs
     id="defs16" />
  <sodipodi:namedview
     pagecolor="#ffffff"
     bordercolor="#666666"
     borderopacity="1"
     objecttolerance="10"
     gridtolerance="10"
     guidetolerance="10"
     inkscape:pageopacity="0"
     inkscape:pageshadow="2"
     inkscape:window-width="783"
     inkscape:window-height="480"
     id="namedview14"
     showgrid="false"
     inkscape:zoom="2.4583333"
     inkscape:cx="-6.8838653"
     inkscape:cy="47.046856"
     inkscape:window-x="0"
     inkscape:window-y="28"
     inkscape:window-maximized="0"
     inkscape:current-layer="svg12" />
  <path
     fill="#2e8163"
     d="m6.2222 6c-1.2311 0-2.2222 1.2689-2.2222 2.5v26c0 1.231 0.9911 2.5 2.2222 2.5h18.778l5 5 5-5h6.7778c1.231 0 2.222-1.269 2.222-2.5v-26c0-1.2311-0.991-2.5-2.222-2.5z"
     id="path2"
     style="fill:#4c566a;fill-opacity:1" />
  <path
     opacity=".2"
     d="m4 34.5v1c0 1.231 0.9915 2.5 2.2227 2.5h18.777l5 5 5-5h6.777c1.231 0 2.223-1.269 2.223-2.5v-1c0 1.231-0.992 2.5-2.223 2.5h-6.777l-5 5-5-5h-18.777c-1.2315 0-2.223-1.269-2.223-2.5z"
     id="path4" />
  <path
     fill="#fff"
     opacity=".1"
     d="m6.2227 6c-1.2312 0-2.2227 1.2689-2.2227 2.5v1c0-1.2311 0.9915-2.5 2.2227-2.5h35.554c1.231 0 2.223 1.2689 2.223 2.5v-1c0-1.2311-0.992-2.5-2.223-2.5h-35.554z"
     id="path6" />
  <path
     opacity=".2"
     d="m15 29v-2h12v2zm0-4v-2h18v2zm0-4v-2h18v2zm0-4v-2h18v2z"
     id="path8" />
  <path
     fill="#ffffff"
     d="m15 28v-2h12v2zm0-4v-2h18v2zm0-4v-2h18v2zm0-4v-2h18v2z"
     id="path10" />
</svg>
