<?xml version="1.0" encoding="UTF-8" standalone="no"?>
<svg
   xmlns:dc="http://purl.org/dc/elements/1.1/"
   xmlns:cc="http://creativecommons.org/ns#"
   xmlns:rdf="http://www.w3.org/1999/02/22-rdf-syntax-ns#"
   xmlns:svg="http://www.w3.org/2000/svg"
   xmlns="http://www.w3.org/2000/svg"
   xmlns:sodipodi="http://sodipodi.sourceforge.net/DTD/sodipodi-0.dtd"
   xmlns:inkscape="http://www.inkscape.org/namespaces/inkscape"
   width="48"
   height="48"
   version="1"
   id="svg36"
   sodipodi:docname="application-x-godot-project.svg"
   inkscape:version="0.92.5 (2060ec1f9f, 2020-04-08)">
  <metadata
     id="metadata42">
    <rdf:RDF>
      <cc:Work
         rdf:about="">
        <dc:format>image/svg+xml</dc:format>
        <dc:type
           rdf:resource="http://purl.org/dc/dcmitype/StillImage" />
      </cc:Work>
    </rdf:RDF>
  </metadata>
  <defs
     id="defs40" />
  <sodipodi:namedview
     pagecolor="#ffffff"
     bordercolor="#666666"
     borderopacity="1"
     objecttolerance="10"
     gridtolerance="10"
     guidetolerance="10"
     inkscape:pageopacity="0"
     inkscape:pageshadow="2"
     inkscape:window-width="783"
     inkscape:window-height="480"
     id="namedview38"
     showgrid="false"
     inkscape:zoom="4.9166667"
     inkscape:cx="24"
     inkscape:cy="24"
     inkscape:window-x="0"
     inkscape:window-y="28"
     inkscape:window-maximized="0"
     inkscape:current-layer="g34" />
  <g
     transform="translate(0,2)"
     id="g34">
    <path
       style="opacity:0.2"
       d="M 19,41 C 7.3222,39.486 7,33.5 7,33.5 V 19 L 4,16 8,11 12,13 15,11 14.643,7 20,5 22,9 H 26 L 28,5 33.357,7 33,11 36,13 40,11 44,16 41,19 V 33.5 C 41,33.5 40.774,40.829 29,41 Z"
       id="path2" />
    <path
       style="fill:#4c566a;fill-opacity:1"
       d="M 19,40 C 7.3222,38.486 7,32.5 7,32.5 V 18 L 4,15 8,10 12,12 15,10 14.643,6 20,4 22,8 H 26 L 28,4 33.357,6 33,10 36,12 40,10 44,15 41,18 V 32.5 C 41,32.5 40.774,39.829 29,40 Z"
       id="path4" />
    <circle
       style="opacity:0.2"
       cx="34"
       cy="23"
       r="4"
       id="circle6" />
    <circle
       style="fill:#ffffff"
       cx="34"
       cy="22"
       r="4"
       id="circle8" />
    <circle
       style="opacity:0.2"
       cx="14"
       cy="23"
       r="4"
       id="circle10" />
    <circle
       style="fill:#ffffff"
       cx="14"
       cy="22"
       r="4"
       id="circle12" />
    <circle
       style="fill:#353535"
       cx="14"
       cy="22"
       r="3"
       id="circle14" />
    <circle
       style="fill:#353535"
       cx="34"
       cy="22"
       r="3"
       id="circle16" />
    <path
       style="fill:none;stroke:#000000;stroke-width:4;stroke-linecap:round;stroke-opacity:0.2"
       d="M 24,23 V 27"
       id="path18" />
    <path
       style="fill:none;stroke:#ffffff;stroke-width:4;stroke-linecap:round"
       d="M 24,22 V 26"
       id="path20" />
    <path
       style="opacity:0.2;fill:#ffffff"
       d="M 14.644,6 20,4 22,8 H 26 V 9 H 22 L 20,5 14.665,7 Z"
       id="path22" />
    <path
       style="opacity:0.2;fill:#ffffff"
       d="M 33.356,6 28,4 26,8 V 9 L 28.034,5 33.335,7 Z"
       id="path24" />
    <path
       style="opacity:0.2;fill:#ffffff"
       d="M 4,15 8,10 12,12 15,10 V 11 L 12,13 8,11 4.4404,15.449 Z"
       id="path26" />
    <path
       style="opacity:0.2;fill:#ffffff"
       d="M 44,15 40,10 36,12 33,10 V 11 L 36,13 40,11 43.56,15.449 Z"
       id="path28" />
    <path
       style="opacity:0.2;fill:none;stroke:#000000;stroke-width:2;stroke-linejoin:round"
       d="M 41,32 H 35 V 35 H 28 V 32 H 24 M 7,32 H 13 V 35 H 20 V 32 H 24"
       id="path30" />
    <path
       style="fill:none;stroke:#ffffff;stroke-width:2;stroke-linejoin:round"
       d="M 41,31 H 35 V 34 H 28 V 31 H 24 M 7,31 H 13 V 34 H 20 V 31 H 24"
       id="path32" />
  </g>
</svg>
