<?xml version="1.0" encoding="UTF-8" standalone="no"?>
<svg
   xmlns:dc="http://purl.org/dc/elements/1.1/"
   xmlns:cc="http://creativecommons.org/ns#"
   xmlns:rdf="http://www.w3.org/1999/02/22-rdf-syntax-ns#"
   xmlns:svg="http://www.w3.org/2000/svg"
   xmlns="http://www.w3.org/2000/svg"
   xmlns:sodipodi="http://sodipodi.sourceforge.net/DTD/sodipodi-0.dtd"
   xmlns:inkscape="http://www.inkscape.org/namespaces/inkscape"
   width="48"
   height="48"
   version="1"
   id="svg12"
   sodipodi:docname="brave-aohghmighlieiainnegkcijnfilokake-Default.svg"
   inkscape:version="0.92.5 (2060ec1f9f, 2020-04-08)">
  <metadata
     id="metadata18">
    <rdf:RDF>
      <cc:Work
         rdf:about="">
        <dc:format>image/svg+xml</dc:format>
        <dc:type
           rdf:resource="http://purl.org/dc/dcmitype/StillImage" />
      </cc:Work>
    </rdf:RDF>
  </metadata>
  <defs
     id="defs16" />
  <sodipodi:namedview
     pagecolor="#ffffff"
     bordercolor="#666666"
     borderopacity="1"
     objecttolerance="10"
     gridtolerance="10"
     guidetolerance="10"
     inkscape:pageopacity="0"
     inkscape:pageshadow="2"
     inkscape:window-width="640"
     inkscape:window-height="480"
     id="namedview14"
     showgrid="false"
     inkscape:zoom="4.9166667"
     inkscape:cx="-15.661017"
     inkscape:cy="24"
     inkscape:current-layer="svg12" />
  <path
     inkscape:connector-curvature="0"
     style="opacity:0.2"
     d="m 10.20339,4.9067797 c -1.1080002,0 -2.0000002,0.892 -2.0000002,2 V 42.90678 c 0,1.108 0.892,2 2.0000002,2 h 28 c 1.108,0 2,-0.892 2,-2 v -26 l -11,-1 -1,-11.0000003 z"
     id="path2" />
  <path
     inkscape:connector-curvature="0"
     d="m 10.20339,3.9067797 c -1.1080002,0 -2.0000002,0.892 -2.0000002,2 V 41.90678 c 0,1.108 0.892,2 2.0000002,2 h 28 c 1.108,0 2,-0.892 2,-2 v -26 l -11,-1 -1,-11.0000003 z"
     id="path4"
     style="fill:#4c566a;fill-opacity:1" />
  <path
     inkscape:connector-curvature="0"
     style="opacity:0.2;fill:#ffffff"
     d="m 10.20339,3.9067797 c -1.1080002,0 -2.0000002,0.892 -2.0000002,2 v 1 c 0,-1.108 0.892,-2 2.0000002,-2 h 18 l 11,11.0000003 h 1 l -12,-12.0000003 z"
     id="path6" />
  <path
     inkscape:connector-curvature="0"
     d="M 28.20339,3.9067797 V 13.90678 c 0,1.1046 0.89543,2 2,2 h 10 z"
     id="path8"
     style="fill:#5f697d;fill-opacity:1" />
  <path
     inkscape:connector-curvature="0"
     style="fill:#ffffff"
     d="m 15.20339,36.90678 v -2 h 11 v 2 z m 0,-4 v -2 h 17 v 2 z m 0,-4 v -2 h 17 v 2 z m 0,-4 v -2 h 17 v 2 z"
     id="path10" />
</svg>
