<?xml version="1.0" encoding="UTF-8" standalone="no"?>
<svg
   xmlns:dc="http://purl.org/dc/elements/1.1/"
   xmlns:cc="http://creativecommons.org/ns#"
   xmlns:rdf="http://www.w3.org/1999/02/22-rdf-syntax-ns#"
   xmlns:svg="http://www.w3.org/2000/svg"
   xmlns="http://www.w3.org/2000/svg"
   xmlns:sodipodi="http://sodipodi.sourceforge.net/DTD/sodipodi-0.dtd"
   xmlns:inkscape="http://www.inkscape.org/namespaces/inkscape"
   width="48"
   height="48"
   version="1.1"
   id="svg16"
   sodipodi:docname="google-chat.svg"
   inkscape:version="0.92.5 (2060ec1f9f, 2020-04-08)">
  <metadata
     id="metadata22">
    <rdf:RDF>
      <cc:Work
         rdf:about="">
        <dc:format>image/svg+xml</dc:format>
        <dc:type
           rdf:resource="http://purl.org/dc/dcmitype/StillImage" />
      </cc:Work>
    </rdf:RDF>
  </metadata>
  <defs
     id="defs20" />
  <sodipodi:namedview
     pagecolor="#ffffff"
     bordercolor="#666666"
     borderopacity="1"
     objecttolerance="10"
     gridtolerance="10"
     guidetolerance="10"
     inkscape:pageopacity="0"
     inkscape:pageshadow="2"
     inkscape:window-width="783"
     inkscape:window-height="480"
     id="namedview18"
     showgrid="false"
     inkscape:zoom="4.9166667"
     inkscape:cx="24"
     inkscape:cy="24"
     inkscape:window-x="0"
     inkscape:window-y="28"
     inkscape:window-maximized="0"
     inkscape:current-layer="svg16" />
  <path
     style="opacity:0.2"
     d="m 9,14 c -2.216,0 -4,1.783962 -4,3.999914 v 15.999656 9.482218 c 0,1.352038 1.6319364,2.024269 2.5839844,1.072243 L 13.832031,38.005342 H 31.625 c 1.324028,0 2.444839,-0.848293 2.855469,-2.031206 C 34.810333,35.392007 35,34.719057 35,33.99957 V 17.999914 C 35,15.783962 33.216,14 31,14 Z"
     id="path2" />
  <path
     style="fill:#4c566a;fill-opacity:1"
     d="m 9,13 c -2.216,0 -4,1.783962 -4,3.999914 v 15.999656 9.482218 c 0,1.352038 1.6319364,2.024269 2.5839844,1.072243 L 13.832031,37.005342 H 31.625 c 1.324028,0 2.444839,-0.848293 2.855469,-2.031206 C 34.810333,34.392007 35,33.719057 35,32.99957 V 16.999914 C 35,14.783962 33.216,13 31,13 Z"
     id="path4" />
  <path
     style="opacity:0.2;fill:#ffffff"
     d="m 9,13 c -2.216,0 -4,1.784048 -4,4 v 1 c 0,-2.215952 1.784,-4 4,-4 h 22 c 2.216,0 4,1.784048 4,4 v -1 c 0,-2.215952 -1.784,-4 -4,-4 z"
     id="path6" />
  <rect
     style="opacity:0.1"
     width="30"
     height="24"
     x="14"
     y="5"
     rx="4"
     ry="4"
     id="rect8" />
  <rect
     style="fill:#4c566a;fill-opacity:1"
     width="30"
     height="24"
     x="14"
     y="4"
     rx="4"
     ry="4"
     id="rect10" />
  <path
     style="fill:#5f697d;fill-opacity:1"
     d="m 14,13 v 11 c 0,2.216 1.784,4 4,4 H 35 V 17 c 0,-2.216 -1.784,-4 -4,-4 z"
     id="path12" />
  <path
     style="opacity:0.2;fill:#ffffff"
     d="m 18,4 c -2.216,0 -4,1.784 -4,4 v 1 c 0,-2.216 1.784,-4 4,-4 h 22 c 2.216,0 4,1.784 4,4 V 8 C 44,5.784 42.216,4 40,4 Z"
     id="path14" />
</svg>
