<?xml version="1.0" encoding="UTF-8" standalone="no"?>
<svg
   xmlns:dc="http://purl.org/dc/elements/1.1/"
   xmlns:cc="http://creativecommons.org/ns#"
   xmlns:rdf="http://www.w3.org/1999/02/22-rdf-syntax-ns#"
   xmlns:svg="http://www.w3.org/2000/svg"
   xmlns="http://www.w3.org/2000/svg"
   xmlns:sodipodi="http://sodipodi.sourceforge.net/DTD/sodipodi-0.dtd"
   xmlns:inkscape="http://www.inkscape.org/namespaces/inkscape"
   width="48"
   height="48"
   version="1"
   id="svg12"
   sodipodi:docname="gps.svg"
   inkscape:version="0.92.5 (2060ec1f9f, 2020-04-08)">
  <metadata
     id="metadata18">
    <rdf:RDF>
      <cc:Work
         rdf:about="">
        <dc:format>image/svg+xml</dc:format>
        <dc:type
           rdf:resource="http://purl.org/dc/dcmitype/StillImage" />
      </cc:Work>
    </rdf:RDF>
  </metadata>
  <defs
     id="defs16" />
  <sodipodi:namedview
     pagecolor="#ffffff"
     bordercolor="#666666"
     borderopacity="1"
     objecttolerance="10"
     gridtolerance="10"
     guidetolerance="10"
     inkscape:pageopacity="0"
     inkscape:pageshadow="2"
     inkscape:window-width="783"
     inkscape:window-height="480"
     id="namedview14"
     showgrid="false"
     inkscape:zoom="4.9166667"
     inkscape:cx="24"
     inkscape:cy="24"
     inkscape:window-x="0"
     inkscape:window-y="28"
     inkscape:window-maximized="0"
     inkscape:current-layer="svg12" />
  <path
     style="opacity:0.2"
     d="m 20,5 0,3.4882812 C 13.812749,9.9726515 8.9726515,14.812749 7.4882812,21 L 4,21 4,29 7.4882812,29 C 8.9726515,35.187251 13.812749,40.027349 20,41.511719 L 20,45 l 8,0 0,-3.488281 C 34.187251,40.027349 39.027349,35.187251 40.511719,29 L 44,29 44,21 40.511719,21 C 39.027349,14.812749 34.187251,9.9726515 28,8.4882812 L 28,5 20,5 Z"
     id="path2" />
  <path
     style="fill:#4c566a;fill-opacity:1"
     d="M 20 4 L 20 7.4882812 C 13.812749 8.9726515 8.9726515 13.812749 7.4882812 20 L 4 20 L 4 28 L 7.4882812 28 C 8.9726515 34.187251 13.812749 39.027349 20 40.511719 L 20 44 L 28 44 L 28 40.511719 C 34.187251 39.027349 39.027349 34.187251 40.511719 28 L 44 28 L 44 20 L 40.511719 20 C 39.027349 13.812749 34.187251 8.9726515 28 7.4882812 L 28 4 L 20 4 z"
     id="path4" />
  <rect
     style="opacity:0.2"
     width="20"
     height="20"
     x="-35"
     y="-34"
     rx="10"
     ry="10"
     transform="matrix(0,-1,-1,0,0,0)"
     id="rect6" />
  <rect
     style="fill:#ffffff"
     width="20"
     height="20"
     x="-34"
     y="-34"
     rx="10"
     ry="10"
     transform="matrix(0,-1,-1,0,0,0)"
     id="rect8" />
  <path
     style="fill:#ffffff;opacity:0.2"
     d="M 20 4 L 20 5 L 28 5 L 28 4 L 20 4 z M 20 7.4882812 C 13.812749 8.9726515 8.9726515 13.812749 7.4882812 20 L 4 20 L 4 21 L 7.4882812 21 C 8.9726515 14.812749 13.812749 9.9726516 20 8.4882812 L 20 7.4882812 z M 28 7.4882812 L 28 8.4882812 C 34.187251 9.9726515 39.027349 14.812749 40.511719 21 L 44 21 L 44 20 L 40.511719 20 C 39.027349 13.812749 34.187251 8.9726515 28 7.4882812 z"
     id="path10" />
</svg>
