<?xml version="1.0" encoding="UTF-8" standalone="no"?>
<svg
   xmlns:dc="http://purl.org/dc/elements/1.1/"
   xmlns:cc="http://creativecommons.org/ns#"
   xmlns:rdf="http://www.w3.org/1999/02/22-rdf-syntax-ns#"
   xmlns:svg="http://www.w3.org/2000/svg"
   xmlns="http://www.w3.org/2000/svg"
   xmlns:sodipodi="http://sodipodi.sourceforge.net/DTD/sodipodi-0.dtd"
   xmlns:inkscape="http://www.inkscape.org/namespaces/inkscape"
   width="48"
   height="48"
   x="0"
   y="0"
   version="1.1"
   id="svg46"
   sodipodi:docname="gramps.svg"
   inkscape:version="0.92.5 (2060ec1f9f, 2020-04-08)">
  <metadata
     id="metadata52">
    <rdf:RDF>
      <cc:Work
         rdf:about="">
        <dc:format>image/svg+xml</dc:format>
        <dc:type
           rdf:resource="http://purl.org/dc/dcmitype/StillImage" />
      </cc:Work>
    </rdf:RDF>
  </metadata>
  <defs
     id="defs50" />
  <sodipodi:namedview
     pagecolor="#ffffff"
     bordercolor="#666666"
     borderopacity="1"
     objecttolerance="10"
     gridtolerance="10"
     guidetolerance="10"
     inkscape:pageopacity="0"
     inkscape:pageshadow="2"
     inkscape:window-width="783"
     inkscape:window-height="480"
     id="namedview48"
     showgrid="false"
     inkscape:zoom="4.9166667"
     inkscape:cx="24"
     inkscape:cy="24"
     inkscape:window-x="0"
     inkscape:window-y="28"
     inkscape:window-maximized="0"
     inkscape:current-layer="svg46" />
  <rect
     fill="#ac8a78"
     width="40"
     height="40"
     x="4"
     y="4"
     rx="2"
     ry="2"
     id="rect2"
     style="fill:#4c566a;fill-opacity:1" />
  <path
     fill="#fff"
     opacity=".2"
     d="m6 4c-1.108 0-2 0.892-2 2v1c0-1.108 0.892-2 2-2h36c1.108 0 2 0.892 2 2v-1c0-1.108-0.892-2-2-2h-36z"
     id="path4" />
  <path
     opacity=".2"
     d="m6 45c-1.108 0-2-0.892-2-2v-1c0 1.108 0.892 2 2 2h36c1.108 0 2-0.892 2-2v1c0 1.108-0.892 2-2 2h-36z"
     id="path6" />
  <path
     fill="none"
     stroke="#494949"
     stroke-width="2"
     d="m16 24v-10h16v10"
     id="path8"
     style="stroke:#7d879b;stroke-opacity:1" />
  <path
     fill="none"
     stroke="#494949"
     stroke-width="2"
     d="m20 34v-10h16v10"
     id="path10"
     style="stroke:#7d879b;stroke-opacity:1" />
  <path
     fill="none"
     stroke="#494949"
     stroke-width="2"
     d="m12 34v-10h16v10"
     id="path12"
     style="stroke:#7d879b;stroke-opacity:1" />
  <g
     opacity=".2"
     transform="translate(0,1)"
     id="g28">
    <rect
       width="4"
       height="6"
       x="10"
       y="30"
       id="rect14" />
    <rect
       width="4"
       height="6"
       x="18"
       y="30"
       id="rect16" />
    <rect
       width="4"
       height="6"
       x="26"
       y="30"
       id="rect18" />
    <rect
       width="4"
       height="6"
       x="22"
       y="11"
       id="rect20" />
    <rect
       width="4"
       height="6"
       x="14"
       y="21"
       id="rect22" />
    <rect
       width="4"
       height="6"
       x="30"
       y="21"
       id="rect24" />
    <rect
       width="4"
       height="6"
       x="34"
       y="30"
       id="rect26" />
  </g>
  <g
     fill="#fff"
     id="g44">
    <rect
       width="4"
       height="6"
       x="10"
       y="30"
       id="rect30" />
    <rect
       width="4"
       height="6"
       x="18"
       y="30"
       id="rect32" />
    <rect
       width="4"
       height="6"
       x="26"
       y="30"
       id="rect34" />
    <rect
       width="4"
       height="6"
       x="22"
       y="11"
       id="rect36" />
    <rect
       width="4"
       height="6"
       x="14"
       y="21"
       id="rect38" />
    <rect
       width="4"
       height="6"
       x="30"
       y="21"
       id="rect40" />
    <rect
       width="4"
       height="6"
       x="34"
       y="30"
       id="rect42" />
  </g>
</svg>
