<?xml version="1.0" encoding="UTF-8" standalone="no"?>
<svg
   xmlns:dc="http://purl.org/dc/elements/1.1/"
   xmlns:cc="http://creativecommons.org/ns#"
   xmlns:rdf="http://www.w3.org/1999/02/22-rdf-syntax-ns#"
   xmlns:svg="http://www.w3.org/2000/svg"
   xmlns="http://www.w3.org/2000/svg"
   xmlns:sodipodi="http://sodipodi.sourceforge.net/DTD/sodipodi-0.dtd"
   xmlns:inkscape="http://www.inkscape.org/namespaces/inkscape"
   width="48"
   height="48"
   version="1.1"
   id="svg14"
   sodipodi:docname="gramwallet.svg"
   inkscape:version="0.92.5 (2060ec1f9f, 2020-04-08)">
  <metadata
     id="metadata20">
    <rdf:RDF>
      <cc:Work
         rdf:about="">
        <dc:format>image/svg+xml</dc:format>
        <dc:type
           rdf:resource="http://purl.org/dc/dcmitype/StillImage" />
      </cc:Work>
    </rdf:RDF>
  </metadata>
  <defs
     id="defs18" />
  <sodipodi:namedview
     pagecolor="#ffffff"
     bordercolor="#666666"
     borderopacity="1"
     objecttolerance="10"
     gridtolerance="10"
     guidetolerance="10"
     inkscape:pageopacity="0"
     inkscape:pageshadow="2"
     inkscape:window-width="783"
     inkscape:window-height="480"
     id="namedview16"
     showgrid="false"
     inkscape:zoom="4.9166667"
     inkscape:cx="24"
     inkscape:cy="24"
     inkscape:window-x="0"
     inkscape:window-y="28"
     inkscape:window-maximized="0"
     inkscape:current-layer="svg14" />
  <circle
     style="opacity:.2"
     cx="24"
     cy="25"
     r="20"
     id="circle2" />
  <circle
     style="fill:#4c566a;fill-opacity:1"
     cx="24"
     cy="24"
     r="20"
     id="circle4" />
  <path
     style="opacity:0.2"
     d="m 17.328125,16.001174 c -1.352329,0 -2.735496,0.161723 -3.679687,1.171875 -0.472097,0.505076 -0.734359,1.247957 -0.689454,2.013672 0.04491,0.765714 0.335331,1.561461 0.853516,2.458984 a 1.0001,1.0001 0 0 0 0.0039,0.0059 l 9.322266,15.855468 a 1.0001,1.0001 0 0 0 1.728516,-0.0078 l 9.390624,-16.347656 0.002,-0.002 c 0.667519,-1.156992 1.051606,-2.445833 0.410156,-3.578126 -0.64191,-1.133038 -2.022896,-1.570312 -3.867188,-1.570312 z m 0,2 H 23 v 15.326172 l -7.455078,-12.681641 -0.002,-0.0039 -0.002,-0.0039 c -0.413903,-0.719659 -0.567529,-1.25446 -0.585938,-1.56836 -0.0185,-0.315528 0.03733,-0.406113 0.154297,-0.53125 0.234026,-0.250332 1.109628,-0.537109 2.21875,-0.537109 z m 7.671875,0 h 5.802734 c 1.523943,0 2.022608,0.37245 2.126954,0.556641 0.104345,0.184191 0.100471,0.719464 -0.404297,1.59375 a 1.0001,1.0001 0 0 0 0,0.002 L 25,33.25508 Z"
     id="path6" />
  <path
     style="opacity:0.1;fill:#ffffff"
     d="m24 4a20 20 0 0 0 -20 20 20 20 0 0 0 0.0215 0.582 20 20 0 0 1 19.9785 -19.582 20 20 0 0 1 19.979 19.418 20 20 0 0 0 0.021 -0.418 20 20 0 0 0 -20 -20z"
     id="path8" />
  <path
     style="fill:none;stroke:#ffffff;stroke-width:2;stroke-linecap:round;stroke-linejoin:round"
     d="M 24,36 14.679,20.143739 C 12.805051,16.897963 14.867549,16 17.329,16 h 13.473 c 3.368234,0 3.763096,1.618519 2.59,3.650382 z"
     id="path10" />
  <rect
     style="fill:#ffffff"
     width="2"
     height="19.848"
     x="23"
     y="15.64"
     id="rect12" />
</svg>
