<?xml version="1.0" encoding="UTF-8" standalone="no"?>
<svg
   xmlns:dc="http://purl.org/dc/elements/1.1/"
   xmlns:cc="http://creativecommons.org/ns#"
   xmlns:rdf="http://www.w3.org/1999/02/22-rdf-syntax-ns#"
   xmlns:svg="http://www.w3.org/2000/svg"
   xmlns="http://www.w3.org/2000/svg"
   xmlns:sodipodi="http://sodipodi.sourceforge.net/DTD/sodipodi-0.dtd"
   xmlns:inkscape="http://www.inkscape.org/namespaces/inkscape"
   width="48"
   height="48"
   version="1.1"
   id="svg8"
   sodipodi:docname="grapejuice-roblox-player.svg"
   inkscape:version="0.92.5 (2060ec1f9f, 2020-04-08)">
  <metadata
     id="metadata14">
    <rdf:RDF>
      <cc:Work
         rdf:about="">
        <dc:format>image/svg+xml</dc:format>
        <dc:type
           rdf:resource="http://purl.org/dc/dcmitype/StillImage" />
      </cc:Work>
    </rdf:RDF>
  </metadata>
  <defs
     id="defs12" />
  <sodipodi:namedview
     pagecolor="#ffffff"
     bordercolor="#666666"
     borderopacity="1"
     objecttolerance="10"
     gridtolerance="10"
     guidetolerance="10"
     inkscape:pageopacity="0"
     inkscape:pageshadow="2"
     inkscape:window-width="783"
     inkscape:window-height="480"
     id="namedview10"
     showgrid="false"
     inkscape:zoom="4.9166667"
     inkscape:cx="24"
     inkscape:cy="24"
     inkscape:window-x="0"
     inkscape:window-y="28"
     inkscape:window-maximized="0"
     inkscape:current-layer="svg8" />
  <path
     style="opacity:0.2"
     d="M 13.019531,5.0024025 C 12.60497,4.9771034 12.219274,5.2451192 12.107422,5.6625588 L 4.03125,35.80123 c -0.1278316,0.477074 0.1537855,0.963966 0.6308594,1.091797 l 30.1386716,8.076172 c 0.477074,0.127832 0.963966,-0.153786 1.091797,-0.630859 L 43.96875,14.199668 c 0.127832,-0.477074 -0.153786,-0.963966 -0.630859,-1.091797 L 13.199219,5.0316994 c -0.05963,-0.015979 -0.120465,-0.025683 -0.179688,-0.029297 z M 21.691406,21.000449 28,22.691855 26.308594,29.000449 20,27.309043 Z"
     id="path2" />
  <path
     style="fill:#4c566a;fill-opacity:1"
     d="M 13.019531 4.0019531 C 12.60497 3.976654 12.219274 4.2446698 12.107422 4.6621094 L 4.03125 34.800781 C 3.9034184 35.277855 4.1850355 35.764747 4.6621094 35.892578 L 34.800781 43.96875 C 35.277855 44.096582 35.764747 43.814964 35.892578 43.337891 L 43.96875 13.199219 C 44.096582 12.722145 43.814964 12.235253 43.337891 12.107422 L 13.199219 4.03125 C 13.139589 4.015271 13.078754 4.005567 13.019531 4.0019531 z M 21.691406 20 L 28 21.691406 L 26.308594 28 L 20 26.308594 L 21.691406 20 z"
     id="path4" />
  <path
     style="opacity:0.2;fill:#ffffff"
     d="M 13.019531 4.0019531 C 12.60497 3.976654 12.219274 4.2446698 12.107422 4.6621094 L 4.03125 34.800781 C 3.9675003 35.038698 4.0057696 35.279513 4.1191406 35.476562 L 12.107422 5.6621094 C 12.219274 5.2446698 12.60497 4.976654 13.019531 5.0019531 C 13.078754 5.005567 13.139589 5.015271 13.199219 5.03125 L 43.337891 13.107422 C 43.576427 13.171337 43.7668 13.326101 43.880859 13.523438 L 43.96875 13.199219 C 44.096582 12.722145 43.814964 12.235253 43.337891 12.107422 L 13.199219 4.03125 C 13.139589 4.015271 13.078754 4.005567 13.019531 4.0019531 z M 27.75 22.625 L 26.308594 28 L 20.25 26.375 L 20 27.308594 L 26.308594 29 L 28 22.691406 L 27.75 22.625 z"
     id="path6" />
</svg>
