<?xml version="1.0" encoding="UTF-8" standalone="no"?>
<svg
   xmlns:dc="http://purl.org/dc/elements/1.1/"
   xmlns:cc="http://creativecommons.org/ns#"
   xmlns:rdf="http://www.w3.org/1999/02/22-rdf-syntax-ns#"
   xmlns:svg="http://www.w3.org/2000/svg"
   xmlns="http://www.w3.org/2000/svg"
   xmlns:sodipodi="http://sodipodi.sourceforge.net/DTD/sodipodi-0.dtd"
   xmlns:inkscape="http://www.inkscape.org/namespaces/inkscape"
   width="48"
   height="48"
   version="1"
   id="svg28"
   sodipodi:docname="gretl.svg"
   inkscape:version="0.92.5 (2060ec1f9f, 2020-04-08)">
  <metadata
     id="metadata34">
    <rdf:RDF>
      <cc:Work
         rdf:about="">
        <dc:format>image/svg+xml</dc:format>
        <dc:type
           rdf:resource="http://purl.org/dc/dcmitype/StillImage" />
      </cc:Work>
    </rdf:RDF>
  </metadata>
  <defs
     id="defs32" />
  <sodipodi:namedview
     pagecolor="#ffffff"
     bordercolor="#666666"
     borderopacity="1"
     objecttolerance="10"
     gridtolerance="10"
     guidetolerance="10"
     inkscape:pageopacity="0"
     inkscape:pageshadow="2"
     inkscape:window-width="783"
     inkscape:window-height="480"
     id="namedview30"
     showgrid="false"
     inkscape:zoom="4.9166667"
     inkscape:cx="24"
     inkscape:cy="24"
     inkscape:window-x="0"
     inkscape:window-y="28"
     inkscape:window-maximized="0"
     inkscape:current-layer="svg28" />
  <path
     style="opacity:0.2"
     d="M 44,41 V 9 C 44,7.892 43.108,7 42,7 H 6 C 4.892,7 4,7.892 4,9 v 32 c 0,1.108 0.892,2 2,2 h 36 c 1.108,0 2,-0.892 2,-2 z"
     id="path2" />
  <path
     style="fill:#4c566a;fill-opacity:1"
     d="M 44,40 V 8 C 44,6.892 43.108,6 42,6 H 6 C 4.892,6 4,6.892 4,8 v 32 c 0,1.108 0.892,2 2,2 h 36 c 1.108,0 2,-0.892 2,-2 z"
     id="path4" />
  <path
     style="fill:none;stroke:#ffffff;stroke-width:2"
     d="m 11,30 8,-10 8,6 10,-8"
     id="path6" />
  <g
     style="opacity:0.1"
     transform="translate(0,1)"
     id="g16">
    <circle
       cx="11"
       cy="30"
       r="3"
       id="circle8" />
    <circle
       cx="19"
       cy="20"
       r="3"
       id="circle10" />
    <circle
       cx="27"
       cy="26"
       r="3"
       id="circle12" />
    <circle
       cx="37"
       cy="18"
       r="3"
       id="circle14" />
  </g>
  <circle
     style="fill:#697387;fill-opacity:1"
     cx="11"
     cy="30"
     r="3"
     id="circle18" />
  <circle
     style="fill:#697387;fill-opacity:1"
     cx="19"
     cy="20"
     r="3"
     id="circle20" />
  <circle
     style="fill:#697387;fill-opacity:1"
     cx="27"
     cy="26"
     r="3"
     id="circle22" />
  <circle
     style="fill:#697387;fill-opacity:1"
     cx="37"
     cy="18"
     r="3"
     id="circle24" />
  <path
     style="opacity:0.2;fill:#ffffff"
     d="M 6,6 C 4.892,6 4,6.892 4,8 V 9 C 4,7.892 4.892,7 6,7 h 36 c 1.108,0 2,0.892 2,2 V 8 C 44,6.892 43.108,6 42,6 Z"
     id="path26" />
</svg>
