<?xml version="1.0" encoding="UTF-8" standalone="no"?>
<svg
   xmlns:dc="http://purl.org/dc/elements/1.1/"
   xmlns:cc="http://creativecommons.org/ns#"
   xmlns:rdf="http://www.w3.org/1999/02/22-rdf-syntax-ns#"
   xmlns:svg="http://www.w3.org/2000/svg"
   xmlns="http://www.w3.org/2000/svg"
   xmlns:sodipodi="http://sodipodi.sourceforge.net/DTD/sodipodi-0.dtd"
   xmlns:inkscape="http://www.inkscape.org/namespaces/inkscape"
   width="48"
   height="48"
   version="1"
   id="svg28"
   sodipodi:docname="groove.svg"
   inkscape:version="0.92.5 (2060ec1f9f, 2020-04-08)">
  <metadata
     id="metadata34">
    <rdf:RDF>
      <cc:Work
         rdf:about="">
        <dc:format>image/svg+xml</dc:format>
        <dc:type
           rdf:resource="http://purl.org/dc/dcmitype/StillImage" />
      </cc:Work>
    </rdf:RDF>
  </metadata>
  <defs
     id="defs32" />
  <sodipodi:namedview
     pagecolor="#ffffff"
     bordercolor="#666666"
     borderopacity="1"
     objecttolerance="10"
     gridtolerance="10"
     guidetolerance="10"
     inkscape:pageopacity="0"
     inkscape:pageshadow="2"
     inkscape:window-width="783"
     inkscape:window-height="480"
     id="namedview30"
     showgrid="false"
     inkscape:zoom="4.9166667"
     inkscape:cx="24"
     inkscape:cy="24"
     inkscape:window-x="0"
     inkscape:window-y="28"
     inkscape:window-maximized="0"
     inkscape:current-layer="svg28" />
  <rect
     style="fill:#4c566a;fill-opacity:1"
     width="40"
     height="40"
     x="4"
     y="4"
     rx="20"
     ry="20"
     id="rect2" />
  <path
     style="opacity:0.2;fill:#ffffff"
     d="M 24,4 C 12.921,4 4.002,12.92 4.002,24 c 0,0.16772 -0.004,0.33329 0,0.5 C 4.2662,13.654 13.089,5 24,5 c 10.911,0 19.734,8.6536 19.998,19.5 0.004,-0.16671 0,-0.33228 0,-0.5 C 43.998,12.92 35.079,4 24,4 Z"
     id="path4" />
  <path
     style="opacity:0.2"
     d="M 4.0117,24.5 C 4.0076,24.667 4,24.832 4,25 4,36.08 12.92,45 24,45 35.08,45 44,36.08 44,25 44,24.832 43.992,24.667 43.988,24.5 43.724,35.346 34.912,44 24,44 13.088,44 4.276,35.346 4.012,24.5 Z"
     id="path6" />
  <g
     style="opacity:0.2"
     transform="translate(0,1.0194785)"
     id="g16">
    <g
       transform="matrix(0.8660254,-0.5,0.5,0.8660254,-8.775749,15.212294)"
       id="g12">
      <path
         d="m 20.373838,10.456565 a 14,14 0 0 0 -9.899495,17.146429 14,14 0 0 0 17.146428,9.899495 14,14 0 0 0 10.264321,-15.173631 l -2.929849,0.785051 A 11,11 0 0 1 26.844314,34.604711 11,11 0 0 1 13.372121,26.826537 11,11 0 0 1 21.150295,13.354343 11,11 0 0 1 33.921853,19.2497 l 2.92419,-0.783534 A 14,14 0 0 0 20.373838,10.456565 Z"
         id="path8" />
      <path
         d="m 30,22 8,0 -2,4 -6,0 z"
         id="path10" />
    </g>
    <path
       d="m 24,20 a 4,4 0 0 0 -4,4 4,4 0 0 0 4,4 4,4 0 0 0 4,-4 4,4 0 0 0 -4,-4 z m 0,2 a 2,2 0 0 1 2,2 2,2 0 0 1 -2,2 2,2 0 0 1 -2,-2 2,2 0 0 1 2,-2 z"
       id="path14" />
  </g>
  <g
     id="g26"
     style="fill:#f6f7f8;fill-opacity:1">
    <g
       style="fill:#f6f7f8;fill-opacity:1"
       transform="matrix(0.8660254,-0.5,0.5,0.8660254,-8.775749,15.212294)"
       id="g22">
      <path
         style="fill:#f6f7f8;fill-opacity:1"
         d="m 20.373838,10.456565 a 14,14 0 0 0 -9.899495,17.146429 14,14 0 0 0 17.146428,9.899495 14,14 0 0 0 10.264321,-15.173631 l -2.929849,0.785051 A 11,11 0 0 1 26.844314,34.604711 11,11 0 0 1 13.372121,26.826537 11,11 0 0 1 21.150295,13.354343 11,11 0 0 1 33.921853,19.2497 l 2.92419,-0.783534 A 14,14 0 0 0 20.373838,10.456565 Z"
         id="path18" />
      <path
         style="fill:#f6f7f8;fill-opacity:1"
         d="m 30,22 8,0 -2,4 -6,0 z"
         id="path20" />
    </g>
    <path
       style="fill:#f6f7f8;fill-opacity:1"
       d="m 24,20 a 4,4 0 0 0 -4,4 4,4 0 0 0 4,4 4,4 0 0 0 4,-4 4,4 0 0 0 -4,-4 z m 0,2 a 2,2 0 0 1 2,2 2,2 0 0 1 -2,2 2,2 0 0 1 -2,-2 2,2 0 0 1 2,-2 z"
       id="path24" />
  </g>
</svg>
