<?xml version="1.0" encoding="UTF-8" standalone="no"?>
<svg
   xmlns:dc="http://purl.org/dc/elements/1.1/"
   xmlns:cc="http://creativecommons.org/ns#"
   xmlns:rdf="http://www.w3.org/1999/02/22-rdf-syntax-ns#"
   xmlns:svg="http://www.w3.org/2000/svg"
   xmlns="http://www.w3.org/2000/svg"
   xmlns:sodipodi="http://sodipodi.sourceforge.net/DTD/sodipodi-0.dtd"
   xmlns:inkscape="http://www.inkscape.org/namespaces/inkscape"
   width="48"
   height="48"
   version="1.1"
   id="svg20"
   sodipodi:docname="gtklick.svg"
   inkscape:version="0.92.5 (2060ec1f9f, 2020-04-08)">
  <metadata
     id="metadata26">
    <rdf:RDF>
      <cc:Work
         rdf:about="">
        <dc:format>image/svg+xml</dc:format>
        <dc:type
           rdf:resource="http://purl.org/dc/dcmitype/StillImage" />
      </cc:Work>
    </rdf:RDF>
  </metadata>
  <defs
     id="defs24" />
  <sodipodi:namedview
     pagecolor="#ffffff"
     bordercolor="#666666"
     borderopacity="1"
     objecttolerance="10"
     gridtolerance="10"
     guidetolerance="10"
     inkscape:pageopacity="0"
     inkscape:pageshadow="2"
     inkscape:window-width="783"
     inkscape:window-height="480"
     id="namedview22"
     showgrid="false"
     inkscape:zoom="4.9166667"
     inkscape:cx="24"
     inkscape:cy="24"
     inkscape:window-x="0"
     inkscape:window-y="28"
     inkscape:window-maximized="0"
     inkscape:current-layer="svg20" />
  <path
     style="fill:#4c566a;fill-opacity:1"
     d="m 4.045978,42 9.977,-36 c 0.29587,-1.0676 0.88995,-2 1.9954,-2 h 15.963 c 1.1055,0 1.6995,0.9324 1.9954,2 l 9.977,36 c 0.29587,1.0676 -0.88995,2 -1.9954,2 h -35.917 c -1.1055,0 -2.2913,-0.9324 -1.9954,-2 z"
     id="path2" />
  <path
     style="opacity:0.1;fill:#ffffff"
     d="m 31.999978,4 c 1.108,0 1.7035,0.9324 2,2 l 10,36 c 0.07888,0.284 0.04711,0.5568 -0.05469,0.8066 l -9.9453,-35.8 c -0.29655,-1.0676 -0.892,-2 -2,-2 h -16 c -1.108,0 -1.7035,0.9324 -2,2 l -9.9453,35.807 C 3.952891,42.5638 3.921121,42.291 4.000001,42.007 l 10,-36 c 0.29655,-1.0676 0.892,-2 2,-2 h 16 z"
     id="path4" />
  <circle
     style="opacity:0.2"
     cx="-24"
     cy="36"
     r="5"
     transform="scale(-1,1)"
     id="circle6" />
  <circle
     style="fill:#717171"
     cx="-24"
     cy="35"
     r="5"
     transform="scale(-1,1)"
     id="circle8" />
  <rect
     style="opacity:0.2"
     width="4"
     height="30"
     x="-4.85"
     y="15.18"
     rx="1.924"
     ry="2.33"
     transform="matrix(-0.8660254,0.5,0.5,0.8660254,0,0)"
     id="rect10" />
  <rect
     style="fill:#e4e4e4"
     width="4"
     height="30"
     x="-5.35"
     y="14.32"
     rx="1.924"
     ry="2.33"
     transform="matrix(-0.8660254,0.5,0.5,0.8660254,0,0)"
     id="rect12" />
  <path
     style="opacity:0.2"
     d="m 43.899378,42.8 0.05456,0.1934 c 0.29587,1.0676 -0.88995,2 -1.9954,2 h -35.917 c -1.1055,0 -2.2913,-0.9324 -1.9954,-2 L 4.100709,42.8 c 0.28027,0.6895 1.1294,1.1934 1.9408,1.1934 h 35.917 c 0.81142,0 1.6606,-0.5039 1.9408,-1.1934 z"
     id="path14" />
  <path
     style="opacity:0.2"
     d="m 18.999978,5 5,8 5,-8 z"
     id="path16" />
  <path
     style="fill:#e4e4e4"
     d="m 18.999978,4 5,8 5,-8 z"
     id="path18" />
</svg>
