<?xml version="1.0" encoding="UTF-8" standalone="no"?>
<svg
   xmlns:dc="http://purl.org/dc/elements/1.1/"
   xmlns:cc="http://creativecommons.org/ns#"
   xmlns:rdf="http://www.w3.org/1999/02/22-rdf-syntax-ns#"
   xmlns:svg="http://www.w3.org/2000/svg"
   xmlns="http://www.w3.org/2000/svg"
   xmlns:sodipodi="http://sodipodi.sourceforge.net/DTD/sodipodi-0.dtd"
   xmlns:inkscape="http://www.inkscape.org/namespaces/inkscape"
   width="48"
   height="48"
   version="1"
   id="svg16"
   sodipodi:docname="gtkpod.svg"
   inkscape:version="0.92.5 (2060ec1f9f, 2020-04-08)">
  <metadata
     id="metadata22">
    <rdf:RDF>
      <cc:Work
         rdf:about="">
        <dc:format>image/svg+xml</dc:format>
        <dc:type
           rdf:resource="http://purl.org/dc/dcmitype/StillImage" />
      </cc:Work>
    </rdf:RDF>
  </metadata>
  <defs
     id="defs20" />
  <sodipodi:namedview
     pagecolor="#ffffff"
     bordercolor="#666666"
     borderopacity="1"
     objecttolerance="10"
     gridtolerance="10"
     guidetolerance="10"
     inkscape:pageopacity="0"
     inkscape:pageshadow="2"
     inkscape:window-width="783"
     inkscape:window-height="480"
     id="namedview18"
     showgrid="false"
     inkscape:zoom="2.4583333"
     inkscape:cx="-8.6344853"
     inkscape:cy="24.734948"
     inkscape:window-x="0"
     inkscape:window-y="28"
     inkscape:window-maximized="0"
     inkscape:current-layer="svg16" />
  <rect
     style="fill:#4c566a;fill-opacity:1"
     width="32"
     height="40"
     x="-40"
     y="3"
     rx="2"
     ry="2"
     transform="scale(-1,1)"
     id="rect2" />
  <rect
     style="fill:#374155;fill-opacity:1"
     width="30"
     height="17"
     x="9"
     y="4"
     rx="0"
     ry="0"
     id="rect4" />
  <path
     fill="#fff"
     opacity=".1"
     d="m10 3c-1.108 0-2 0.892-2 2v1c0-1.108 0.892-2 2-2h28c1.108 0 2 0.892 2 2v-1c0-1.108-0.892-2-2-2h-28z"
     id="path6" />
  <path
     opacity=".2"
     d="m8 41v1c0 1.108 0.892 2 2 2h28c1.108 0 2-0.892 2-2v-1c0 1.108-0.892 2-2 2h-28c-1.108 0-2-0.892-2-2z"
     id="path8" />
  <circle
     style="opacity:0.2"
     cx="24"
     cy="33"
     r="8"
     id="circle10" />
  <circle
     style="fill:#ffffff"
     cx="24"
     cy="32"
     r="8"
     id="circle12" />
  <circle
     style="fill:#8e8e8e"
     cx="24"
     cy="32"
     r="4"
     id="circle14" />
</svg>
