<?xml version="1.0" encoding="UTF-8" standalone="no"?>
<svg
   xmlns:dc="http://purl.org/dc/elements/1.1/"
   xmlns:cc="http://creativecommons.org/ns#"
   xmlns:rdf="http://www.w3.org/1999/02/22-rdf-syntax-ns#"
   xmlns:svg="http://www.w3.org/2000/svg"
   xmlns="http://www.w3.org/2000/svg"
   xmlns:sodipodi="http://sodipodi.sourceforge.net/DTD/sodipodi-0.dtd"
   xmlns:inkscape="http://www.inkscape.org/namespaces/inkscape"
   width="48"
   height="48"
   version="1"
   id="svg48"
   sodipodi:docname="hamster-indicator.svg"
   inkscape:version="0.92.5 (2060ec1f9f, 2020-04-08)">
  <metadata
     id="metadata54">
    <rdf:RDF>
      <cc:Work
         rdf:about="">
        <dc:format>image/svg+xml</dc:format>
        <dc:type
           rdf:resource="http://purl.org/dc/dcmitype/StillImage" />
      </cc:Work>
    </rdf:RDF>
  </metadata>
  <defs
     id="defs52" />
  <sodipodi:namedview
     pagecolor="#ffffff"
     bordercolor="#666666"
     borderopacity="1"
     objecttolerance="10"
     gridtolerance="10"
     guidetolerance="10"
     inkscape:pageopacity="0"
     inkscape:pageshadow="2"
     inkscape:window-width="783"
     inkscape:window-height="480"
     id="namedview50"
     showgrid="false"
     inkscape:zoom="4.9166667"
     inkscape:cx="24"
     inkscape:cy="24"
     inkscape:window-x="0"
     inkscape:window-y="28"
     inkscape:window-maximized="0"
     inkscape:current-layer="svg48" />
  <rect
     fill="#5584bb"
     width="40"
     height="40"
     x="4"
     y="4"
     rx="20"
     ry="20"
     id="rect2"
     style="fill:#4c566a;fill-opacity:1" />
  <path
     fill="#fff"
     opacity=".2"
     d="m24 4c-11.08 0-20 8.92-20 20 0 0.168-0.004 0.333 0 0.5 0.2644-10.846 9.088-19.5 20-19.5s19.736 8.654 20 19.5c0.004-0.167 0-0.332 0-0.5 0-11.08-8.92-20-20-20z"
     id="path4" />
  <path
     opacity=".2"
     d="m4.0117 24.5c-0.0041 0.167-0.0117 0.332-0.0117 0.5 0 11.08 8.92 20 20 20s20-8.92 20-20c0-0.168-0.008-0.333-0.012-0.5-0.264 10.846-9.076 19.5-19.988 19.5s-19.724-8.654-19.988-19.5z"
     id="path6" />
  <path
     opacity=".2"
     d="m18 14.609a12 12 0 0 0 -5.235 14.569l20.48-11.824a12 12 0 0 0 -15.245 -2.745zm-3.245 18.039a12 12 0 0 0 15.245 2.745 12 12 0 0 0 5.235 -14.569l-20.48 11.824z"
     id="path8" />
  <path
     fill="#fff"
     d="m18 13.608a12 12 0 0 0 -5.235 14.569l20.48-11.824a12 12 0 0 0 -15.245 -2.745zm-3.245 18.039a12 12 0 0 0 15.245 2.745 12 12 0 0 0 5.235 -14.569l-20.48 11.824z"
     id="path10" />
  <g
     opacity=".2"
     transform="translate(0,1)"
     id="g28">
    <rect
       width="6"
       height="2"
       x="21"
       y="7"
       id="rect12" />
    <rect
       width="6"
       height="2"
       x="21"
       y="39"
       id="rect14" />
    <rect
       width="6"
       height="2"
       x="21"
       y="-41"
       transform="rotate(90)"
       id="rect16" />
    <rect
       width="6"
       height="2"
       x="21"
       y="-9"
       transform="rotate(90)"
       id="rect18" />
    <rect
       width="6"
       height="2"
       x="30.94"
       y="-17"
       transform="rotate(45)"
       id="rect20" />
    <rect
       width="6"
       height="2"
       x="30.94"
       y="15"
       transform="rotate(45)"
       id="rect22" />
    <rect
       width="6"
       height="2"
       x="-3"
       y="-50.94"
       transform="rotate(135)"
       id="rect24" />
    <rect
       width="6"
       height="2"
       x="-3"
       y="-18.94"
       transform="rotate(135)"
       id="rect26" />
  </g>
  <g
     fill="#fff"
     id="g46">
    <rect
       width="6"
       height="2"
       x="21"
       y="7"
       id="rect30" />
    <rect
       width="6"
       height="2"
       x="21"
       y="39"
       id="rect32" />
    <rect
       width="6"
       height="2"
       x="21"
       y="-41"
       transform="rotate(90)"
       id="rect34" />
    <rect
       width="6"
       height="2"
       x="21"
       y="-9"
       transform="rotate(90)"
       id="rect36" />
    <rect
       width="6"
       height="2"
       x="30.94"
       y="-17"
       transform="rotate(45)"
       id="rect38" />
    <rect
       width="6"
       height="2"
       x="30.94"
       y="15"
       transform="rotate(45)"
       id="rect40" />
    <rect
       width="6"
       height="2"
       x="-3"
       y="-50.94"
       transform="rotate(135)"
       id="rect42" />
    <rect
       width="6"
       height="2"
       x="-3"
       y="-18.94"
       transform="rotate(135)"
       id="rect44" />
  </g>
</svg>
