<?xml version="1.0" encoding="UTF-8" standalone="no"?>
<svg
   xmlns:dc="http://purl.org/dc/elements/1.1/"
   xmlns:cc="http://creativecommons.org/ns#"
   xmlns:rdf="http://www.w3.org/1999/02/22-rdf-syntax-ns#"
   xmlns:svg="http://www.w3.org/2000/svg"
   xmlns="http://www.w3.org/2000/svg"
   xmlns:sodipodi="http://sodipodi.sourceforge.net/DTD/sodipodi-0.dtd"
   xmlns:inkscape="http://www.inkscape.org/namespaces/inkscape"
   width="48"
   height="48"
   version="1"
   id="svg12"
   sodipodi:docname="application-vnd.ms-htmlhelp.svg"
   inkscape:version="0.92.5 (2060ec1f9f, 2020-04-08)">
  <metadata
     id="metadata18">
    <rdf:RDF>
      <cc:Work
         rdf:about="">
        <dc:format>image/svg+xml</dc:format>
        <dc:type
           rdf:resource="http://purl.org/dc/dcmitype/StillImage" />
      </cc:Work>
    </rdf:RDF>
  </metadata>
  <defs
     id="defs16" />
  <sodipodi:namedview
     pagecolor="#ffffff"
     bordercolor="#666666"
     borderopacity="1"
     objecttolerance="10"
     gridtolerance="10"
     guidetolerance="10"
     inkscape:pageopacity="0"
     inkscape:pageshadow="2"
     inkscape:window-width="640"
     inkscape:window-height="480"
     id="namedview14"
     showgrid="false"
     inkscape:zoom="13.906433"
     inkscape:cx="12.229205"
     inkscape:cy="24"
     inkscape:current-layer="svg12" />
  <rect
     width="40"
     height="40"
     x="4.3595457"
     y="3.9079061"
     rx="2"
     ry="2"
     id="rect2"
     style="fill:#4c566a;fill-opacity:1" />
  <path
     style="opacity:0.1;fill:#ffffff"
     d="m 6.2876367,2.9213625 c -1.108,0 -2,0.892 -2,2 v 1 c 0,-1.108 0.892,-2 2,-2 H 42.287637 c 1.108,0 2,0.892 2,2 v -1 c 0,-1.108 -0.892,-2 -2,-2 z"
     id="path4"
     inkscape:connector-curvature="0" />
  <path
     d="m 6.2876367,43.921363 c -1.108,0 -2,-0.892 -2,-2 v -1 c 0,1.108 0.892,2 2,2 H 42.287637 c 1.108,0 2,-0.892 2,-2 v 1 c 0,1.108 -0.892,2 -2,2 z"
     id="path6"
     inkscape:connector-curvature="0"
     style="opacity:0.2" />
  <path
     d="m 26.287637,37.921363 h -4 v -4 h 4 z m 4.14,-15.5 -1.8,1.84 c -1.44,1.46 -2.34,2.66 -2.34,5.66 h -4 v -1 c 0,-2.2 0.9,-4.2 2.34,-5.66 l 2.48,-2.52 c 0.74,-0.72 1.18,-1.72 1.18,-2.82 0,-2.2 -1.8,-4 -4,-4 -2.2,0 -4,1.8 -4,4 h -4 c 0,-4.42 3.58,-8.0000002 8,-8.0000002 4.42,0 8,3.5800002 8,8.0000002 0,1.76 -0.72,3.36 -1.86,4.5 z"
     id="path8"
     inkscape:connector-curvature="0"
     style="opacity:0.2" />
  <path
     d="m 26.287637,36.921363 h -4 v -4 h 4 z m 4.14,-15.5 -1.8,1.84 c -1.44,1.46 -2.34,2.66 -2.34,5.66 h -4 v -1 c 0,-2.2 0.9,-4.2 2.34,-5.66 l 2.48,-2.52 c 0.74,-0.72 1.18,-1.72 1.18,-2.82 0,-2.2 -1.8,-4 -4,-4 -2.2,0 -4,1.8 -4,4 h -4 c 0,-4.42 3.58,-8.0000005 8,-8.0000005 4.42,0 8,3.5800005 8,8.0000005 0,1.76 -0.72,3.36 -1.86,4.5 z"
     id="path10"
     inkscape:connector-curvature="0"
     style="fill:#ffffff" />
</svg>
