<?xml version="1.0" encoding="UTF-8" standalone="no"?>
<svg
   xmlns:dc="http://purl.org/dc/elements/1.1/"
   xmlns:cc="http://creativecommons.org/ns#"
   xmlns:rdf="http://www.w3.org/1999/02/22-rdf-syntax-ns#"
   xmlns:svg="http://www.w3.org/2000/svg"
   xmlns="http://www.w3.org/2000/svg"
   xmlns:sodipodi="http://sodipodi.sourceforge.net/DTD/sodipodi-0.dtd"
   xmlns:inkscape="http://www.inkscape.org/namespaces/inkscape"
   width="48"
   height="48"
   version="1.1"
   id="svg18"
   sodipodi:docname="appimagekit-heroic.svg"
   inkscape:version="0.92.5 (2060ec1f9f, 2020-04-08)">
  <metadata
     id="metadata24">
    <rdf:RDF>
      <cc:Work
         rdf:about="">
        <dc:format>image/svg+xml</dc:format>
        <dc:type
           rdf:resource="http://purl.org/dc/dcmitype/StillImage" />
      </cc:Work>
    </rdf:RDF>
  </metadata>
  <defs
     id="defs22" />
  <sodipodi:namedview
     pagecolor="#ffffff"
     bordercolor="#666666"
     borderopacity="1"
     objecttolerance="10"
     gridtolerance="10"
     guidetolerance="10"
     inkscape:pageopacity="0"
     inkscape:pageshadow="2"
     inkscape:window-width="765"
     inkscape:window-height="480"
     id="namedview20"
     showgrid="false"
     inkscape:zoom="3.4766083"
     inkscape:cx="4.1697043"
     inkscape:cy="29.981525"
     inkscape:window-x="0"
     inkscape:window-y="28"
     inkscape:window-maximized="0"
     inkscape:current-layer="svg18" />
  <rect
     style="opacity:.2"
     width="40"
     height="40"
     x="4"
     y="5"
     rx="3"
     ry="3"
     id="rect2" />
  <rect
     style="fill:#4c566a;fill-opacity:1"
     width="40"
     height="40"
     x="4"
     y="4"
     rx="3"
     ry="3"
     id="rect4" />
  <path
     style="opacity:.2;fill:#ffffff"
     d="m7 4c-1.662 0-3 1.338-3 3v1c0-1.662 1.338-3 3-3h34c1.662 0 3 1.338 3 3v-1c0-1.662-1.338-3-3-3z"
     id="path6" />
  <path
     style="opacity:0.1"
     d="M 24,9 11,13.220703 17.641431,36.074219 24,41 30.358569,36.074219 37,13.220703 Z"
     id="path8" />
  <path
     style="fill:#ffffff;fill-opacity:1"
     d="M 24,8 11,12.220703 17.641431,35.074219 24,40 30.358569,35.074219 37,12.220703 Z"
     id="path10" />
  <path
     style="opacity:0.2"
     d="M 23.988281,10 21,13.738281 22.503906,31.158203 23.998047,33 25.484375,31.171875 27,13.742188 Z M 19.119141,32 18.5,33.494141 19.128906,35 22.34375,34.431641 23,33.498047 22.34375,32.560547 Z M 28.880859,32 25.65625,32.560547 25,33.498047 25.65625,34.431641 28.871094,35 29.5,33.494141 Z M 24.003906,34.5 23.068359,35.15625 22.5,38.373047 24.005859,39 25.5,38.380859 24.9375,35.15625 Z"
     id="path12" />
  <path
     style="fill:#4c566a;fill-opacity:1"
     d="M 23.988281 9 L 21 12.738281 L 22.503906 30.158203 L 23.998047 32 L 25.484375 30.171875 L 27 12.742188 L 23.988281 9 z M 19.119141 31 L 18.5 32.494141 L 19.128906 34 L 22.34375 33.431641 L 23 32.498047 L 22.34375 31.560547 L 19.119141 31 z M 28.880859 31 L 25.65625 31.560547 L 25 32.498047 L 25.65625 33.431641 L 28.871094 34 L 29.5 32.494141 L 28.880859 31 z M 24.003906 33.5 L 23.068359 34.15625 L 22.5 37.373047 L 24.005859 38 L 25.5 37.380859 L 24.9375 34.15625 L 24.003906 33.5 z"
     id="path14" />
  <path
     style="opacity:0.2;fill:#ffffff"
     d="M 23.988281 9 L 21 12.738281 L 21.078125 13.640625 L 23.988281 10 L 26.921875 13.644531 L 27 12.742188 L 23.988281 9 z M 19.119141 31 L 18.5 32.494141 L 18.707031 32.992188 L 19.119141 32 L 22.34375 32.560547 L 22.648438 32.996094 L 23 32.498047 L 22.34375 31.560547 L 19.119141 31 z M 28.880859 31 L 25.65625 31.560547 L 25 32.498047 L 25.351562 32.996094 L 25.65625 32.560547 L 28.880859 32 L 29.292969 32.992188 L 29.5 32.494141 L 28.880859 31 z M 24.003906 33.5 L 23.068359 34.15625 L 22.5 37.373047 L 22.664062 37.441406 L 23.068359 35.15625 L 24.003906 34.5 L 24.9375 35.15625 L 25.337891 37.449219 L 25.5 37.380859 L 24.9375 34.15625 L 24.003906 33.5 z"
     id="path16" />
</svg>
