<?xml version="1.0" encoding="UTF-8" standalone="no"?>
<svg
   xmlns:dc="http://purl.org/dc/elements/1.1/"
   xmlns:cc="http://creativecommons.org/ns#"
   xmlns:rdf="http://www.w3.org/1999/02/22-rdf-syntax-ns#"
   xmlns:svg="http://www.w3.org/2000/svg"
   xmlns="http://www.w3.org/2000/svg"
   xmlns:sodipodi="http://sodipodi.sourceforge.net/DTD/sodipodi-0.dtd"
   xmlns:inkscape="http://www.inkscape.org/namespaces/inkscape"
   width="48"
   height="48"
   version="1.1"
   id="svg12"
   sodipodi:docname="iconoclasts.svg"
   inkscape:version="0.92.5 (2060ec1f9f, 2020-04-08)">
  <metadata
     id="metadata18">
    <rdf:RDF>
      <cc:Work
         rdf:about="">
        <dc:format>image/svg+xml</dc:format>
        <dc:type
           rdf:resource="http://purl.org/dc/dcmitype/StillImage" />
      </cc:Work>
    </rdf:RDF>
  </metadata>
  <defs
     id="defs16" />
  <sodipodi:namedview
     pagecolor="#ffffff"
     bordercolor="#666666"
     borderopacity="1"
     objecttolerance="10"
     gridtolerance="10"
     guidetolerance="10"
     inkscape:pageopacity="0"
     inkscape:pageshadow="2"
     inkscape:window-width="783"
     inkscape:window-height="480"
     id="namedview14"
     showgrid="false"
     inkscape:zoom="4.9166667"
     inkscape:cx="24"
     inkscape:cy="24"
     inkscape:window-x="0"
     inkscape:window-y="28"
     inkscape:window-maximized="0"
     inkscape:current-layer="svg12" />
  <circle
     style="opacity:0.2"
     cx="24"
     cy="25"
     r="20"
     id="circle2" />
  <circle
     style="fill:#4c566a;fill-opacity:1"
     cx="24"
     cy="24"
     r="20"
     id="circle4" />
  <path
     style="fill:#fff;opacity:0.1"
     d="M 24,4 A 20,20 0 0 0 4,24 20,20 0 0 0 4.0215,24.582 20,20 0 0 1 24,5 20,20 0 0 1 43.979,24.418 20,20 0 0 0 44,24 20,20 0 0 0 24,4 Z"
     id="path6" />
  <path
     style="opacity:0.2"
     d="M 25.5,11 21,15.5 V 22 L 13.184,29.816 C 11.582,31.482 11.608,34.124 13.242,35.758 14.899,37.415 17.586,37.414 19.242,35.758 L 27,28 33.494,28.002 38,23.5 V 16 L 30.5,23.5 25.5,18.5 33,11 Z M 16.5,31 A 1.5,1.5 0 0 1 18,32.5 1.5,1.5 0 0 1 16.5,34 1.5,1.5 0 0 1 15,32.5 1.5,1.5 0 0 1 16.5,31 Z"
     id="path8" />
  <path
     style="fill:#ffffff;fill-opacity:1"
     d="M 25.5 10 L 21 14.5 L 21 21 L 13.184 28.816 C 11.582 30.482 11.608 33.124 13.242 34.758 C 14.899 36.415 17.586 36.414 19.242 34.758 L 27 27 L 33.494 27.002 L 38 22.5 L 38 15 L 30.5 22.5 L 25.5 17.5 L 33 10 L 25.5 10 z M 16.5 30 A 1.5 1.5 0 0 1 18 31.5 A 1.5 1.5 0 0 1 16.5 33 A 1.5 1.5 0 0 1 15 31.5 A 1.5 1.5 0 0 1 16.5 30 z"
     id="path10" />
</svg>
