<?xml version="1.0" encoding="UTF-8" standalone="no"?>
<svg
   xmlns:dc="http://purl.org/dc/elements/1.1/"
   xmlns:cc="http://creativecommons.org/ns#"
   xmlns:rdf="http://www.w3.org/1999/02/22-rdf-syntax-ns#"
   xmlns:svg="http://www.w3.org/2000/svg"
   xmlns="http://www.w3.org/2000/svg"
   xmlns:sodipodi="http://sodipodi.sourceforge.net/DTD/sodipodi-0.dtd"
   xmlns:inkscape="http://www.inkscape.org/namespaces/inkscape"
   width="48"
   height="48"
   version="1"
   id="svg12"
   sodipodi:docname="appimagekit-irccloud-desktop.svg"
   inkscape:version="0.92.5 (2060ec1f9f, 2020-04-08)">
  <metadata
     id="metadata18">
    <rdf:RDF>
      <cc:Work
         rdf:about="">
        <dc:format>image/svg+xml</dc:format>
        <dc:type
           rdf:resource="http://purl.org/dc/dcmitype/StillImage" />
      </cc:Work>
    </rdf:RDF>
  </metadata>
  <defs
     id="defs16" />
  <sodipodi:namedview
     pagecolor="#ffffff"
     bordercolor="#666666"
     borderopacity="1"
     objecttolerance="10"
     gridtolerance="10"
     guidetolerance="10"
     inkscape:pageopacity="0"
     inkscape:pageshadow="2"
     inkscape:window-width="640"
     inkscape:window-height="480"
     id="namedview14"
     showgrid="false"
     inkscape:zoom="4.9166667"
     inkscape:cx="24"
     inkscape:cy="24"
     inkscape:current-layer="svg12" />
  <rect
     style="opacity:0.2"
     width="40"
     height="40"
     x="4"
     y="5"
     rx="2"
     ry="2"
     id="rect2" />
  <rect
     style="fill:#4c566a;fill-opacity:1"
     width="40"
     height="40"
     x="4"
     y="4"
     rx="2"
     ry="2"
     id="rect4" />
  <path
     style="opacity:0.2;fill:#ffffff"
     d="M 6,4 C 4.892,4 4,4.892 4,6 V 7 C 4,5.892 4.892,5 6,5 h 36 c 1.108,0 2,0.892 2,2 V 6 C 44,4.892 43.108,4 42,4 Z"
     id="path6" />
  <path
     style="opacity:0.2"
     d="M 23.5,12.000549 A 8.5,8.5 0 0 0 15.015625,20.180237 6.5,6.5 0 0 0 10,26.500549 a 6.5,6.5 0 0 0 6.5,6.5 h -0.316406 l 0.583984,0.03125 c 0.139102,0.488228 0.266831,0.984203 0.232422,1.466797 0.01689,1.213163 -0.650133,1.951012 -1.466797,2.658203 -0.20771,0.110188 -0.366542,0.238947 -0.351562,0.285156 0.04937,0.152224 1.001827,0.476971 1.5625,0.533203 0.723378,0.07252 1.730334,-0.01635 2.30664,-0.232421 0.916268,-0.343528 1.651706,-0.91538 2.169922,-1.691407 0.443121,-0.663581 0.676505,-1.320954 0.746094,-2.08789 l 0.05859,-0.931641 3.585937,-0.03125 H 32.5 a 5.5,5.5 0 0 0 5.5,-5.5 5.5,5.5 0 0 0 -5.5,-5.5 5.5,5.5 0 0 0 -0.648438,0.04492 A 8.5,8.5 0 0 0 32,20.500549 a 8.5,8.5 0 0 0 -8.5,-8.5 z"
     id="path8" />
  <path
     style="fill:#ffffff"
     d="M 23.5,11 A 8.5,8.5 0 0 0 15.015625,19.179688 6.5,6.5 0 0 0 10,25.5 6.5,6.5 0 0 0 16.5,32 h -0.316406 l 0.583984,0.03125 c 0.139102,0.488228 0.266831,0.984203 0.232422,1.466797 0.01689,1.213163 -0.650133,1.951012 -1.466797,2.658203 -0.20771,0.110188 -0.366542,0.238947 -0.351562,0.285156 0.04937,0.152224 1.001827,0.476971 1.5625,0.533203 0.723378,0.07252 1.730334,-0.01635 2.30664,-0.232421 0.916268,-0.343528 1.651706,-0.91538 2.169922,-1.691407 0.443121,-0.663581 0.676505,-1.320954 0.746094,-2.08789 L 22.025391,32.03125 25.611328,32 H 32.5 A 5.5,5.5 0 0 0 38,26.5 5.5,5.5 0 0 0 32.5,21 5.5,5.5 0 0 0 31.851562,21.044922 8.5,8.5 0 0 0 32,19.5 8.5,8.5 0 0 0 23.5,11 Z"
     id="path10" />
</svg>
