<?xml version="1.0" encoding="UTF-8" standalone="no"?>
<svg
   xmlns:dc="http://purl.org/dc/elements/1.1/"
   xmlns:cc="http://creativecommons.org/ns#"
   xmlns:rdf="http://www.w3.org/1999/02/22-rdf-syntax-ns#"
   xmlns:svg="http://www.w3.org/2000/svg"
   xmlns="http://www.w3.org/2000/svg"
   xmlns:sodipodi="http://sodipodi.sourceforge.net/DTD/sodipodi-0.dtd"
   xmlns:inkscape="http://www.inkscape.org/namespaces/inkscape"
   width="48"
   height="48"
   version="1"
   id="svg12"
   sodipodi:docname="iron_product_logo.svg"
   inkscape:version="0.92.5 (2060ec1f9f, 2020-04-08)">
  <metadata
     id="metadata18">
    <rdf:RDF>
      <cc:Work
         rdf:about="">
        <dc:format>image/svg+xml</dc:format>
        <dc:type
           rdf:resource="http://purl.org/dc/dcmitype/StillImage" />
      </cc:Work>
    </rdf:RDF>
  </metadata>
  <defs
     id="defs16" />
  <sodipodi:namedview
     pagecolor="#ffffff"
     bordercolor="#666666"
     borderopacity="1"
     objecttolerance="10"
     gridtolerance="10"
     guidetolerance="10"
     inkscape:pageopacity="0"
     inkscape:pageshadow="2"
     inkscape:window-width="640"
     inkscape:window-height="480"
     id="namedview14"
     showgrid="false"
     inkscape:zoom="4.9166667"
     inkscape:cx="-15.661017"
     inkscape:cy="24"
     inkscape:current-layer="svg12" />
  <rect
     style="opacity:.2"
     width="40"
     height="40"
     x="4"
     y="5"
     rx="20"
     ry="20"
     id="rect2" />
  <rect
     style="fill:#4c566a;fill-opacity:1"
     width="40"
     height="40"
     x="4"
     y="4"
     rx="20"
     ry="20"
     id="rect4" />
  <path
     style="opacity:.2;fill:#ffffff"
     d="m24 4c-11.08 0-20 8.92-20 20 0 0.167874 0.007647 0.333141 0.0117188 0.5 0.2646716-10.846137 9.0761552-19.5 19.988281-19.5s19.72361 8.653863 19.988281 19.5c0.004072-0.166859 0.011719-0.332126 0.011719-0.5 0-11.08-8.92-20-20-20z"
     id="path6" />
  <path
     style="opacity:.2"
     d="m22.521484 12.14399c-3.059558-0.08979-6.002766 0.537298-8.720703 1.173827-4.004215 0.937773-10.59375 3.84375-10.59375 3.84375a2.0002 2.0002 0 0 0 -0.041016 3.654297s1.5022169 0.692673 3.0429688 1.677735c0.7703759 0.492531 1.53911 1.057113 2.0742187 1.570312s0.7599702 0.987298 0.7597657 0.986328c0.023114 0.109556-0.040205 1.117376-0.4277344 2.285157-0.3875294 1.16778-1.0001301 2.54431-1.6425782 3.830078-1.2848961 2.571534-2.6660156 4.765625-2.6660156 4.765625a2.0002 2.0002 0 0 0 3.125 2.46289s9.9284008-10.033743 23.478516-10.396484c2.523411-0.06755 5.884053 1.046087 8.507813 2.253906s4.492187 2.421875 4.492187 2.421875a2.0002 2.0002 0 0 0 2.927735 -2.466797c-3.885666-9.033268-11.928791-16.76503-22.980469-17.976562a2.0002 2.0002 0 0 0 -0.01758 -0.002c-0.441496-0.04417-0.88128-0.07116-1.31836-0.08398z"
     id="path8" />
  <path
     style="fill:#ffffff;fill-opacity:1"
     d="m22.521484 11.146485c-3.059558-0.08979-6.002766 0.537298-8.720703 1.173827-4.004215 0.937773-10.59375 3.84375-10.59375 3.84375a2.0002 2.0002 0 0 0 -0.041016 3.654297s1.5022169 0.692673 3.0429688 1.677735c0.7703759 0.492531 1.53911 1.057113 2.0742187 1.570312s0.7599702 0.987298 0.7597657 0.986328c0.023114 0.109556-0.040205 1.117376-0.4277344 2.285157-0.3875294 1.16778-1.0001301 2.54431-1.6425782 3.830078-1.2848961 2.571534-2.6660156 4.765625-2.6660156 4.765625a2.0002 2.0002 0 0 0 3.125 2.46289s9.9284008-10.033743 23.478516-10.396484c2.523411-0.06755 5.884053 1.046087 8.507813 2.253906s4.492187 2.421875 4.492187 2.421875a2.0002 2.0002 0 0 0 2.927735 -2.466797c-3.885666-9.033268-11.928791-16.76503-22.980469-17.976562a2.0002 2.0002 0 0 0 -0.01758 -0.002c-0.441496-0.04417-0.88128-0.07116-1.31836-0.08398z"
     id="path10" />
</svg>
