<?xml version="1.0" encoding="UTF-8" standalone="no"?>
<svg
   xmlns:dc="http://purl.org/dc/elements/1.1/"
   xmlns:cc="http://creativecommons.org/ns#"
   xmlns:rdf="http://www.w3.org/1999/02/22-rdf-syntax-ns#"
   xmlns:svg="http://www.w3.org/2000/svg"
   xmlns="http://www.w3.org/2000/svg"
   xmlns:sodipodi="http://sodipodi.sourceforge.net/DTD/sodipodi-0.dtd"
   xmlns:inkscape="http://www.inkscape.org/namespaces/inkscape"
   width="48"
   height="48"
   version="1"
   id="svg52"
   sodipodi:docname="cs-drivers.svg"
   inkscape:version="0.92.5 (2060ec1f9f, 2020-04-08)">
  <metadata
     id="metadata58">
    <rdf:RDF>
      <cc:Work
         rdf:about="">
        <dc:format>image/svg+xml</dc:format>
        <dc:type
           rdf:resource="http://purl.org/dc/dcmitype/StillImage" />
      </cc:Work>
    </rdf:RDF>
  </metadata>
  <defs
     id="defs56" />
  <sodipodi:namedview
     pagecolor="#ffffff"
     bordercolor="#666666"
     borderopacity="1"
     objecttolerance="10"
     gridtolerance="10"
     guidetolerance="10"
     inkscape:pageopacity="0"
     inkscape:pageshadow="2"
     inkscape:window-width="783"
     inkscape:window-height="480"
     id="namedview54"
     showgrid="false"
     inkscape:zoom="4.9166667"
     inkscape:cx="33.152543"
     inkscape:cy="24"
     inkscape:window-x="0"
     inkscape:window-y="28"
     inkscape:window-maximized="0"
     inkscape:current-layer="svg52" />
  <path
     style="opacity:0.2"
     d="M 11,12 C 9.892,12 9,12.892 9,14 V 36 C 9,37.108 9.892,38 11,38 H 14 V 34 H 24 V 38 H 43 C 44.108,38 45,37.108 45,36 V 14 C 45,12.892 44.108,12 43,12 Z"
     id="path2" />
  <path
     fill="#419d45"
     d="m11 11c-1.108 0-2 0.892-2 2v22c0 1.108 0.892 2 2 2h3v-4h10v4h19c1.108 0 2-0.892 2-2v-22c0-1.108-0.892-2-2-2z"
     id="path4"
     style="fill:#4c566a;fill-opacity:1" />
  <path
     fill="#fff"
     opacity=".2"
     d="m11 11c-1.108 0-2 0.892-2 2v1c0-1.108 0.892-2 2-2h32c1.108 0 2 0.892 2 2v-1c0-1.108-0.892-2-2-2h-32z"
     id="path6" />
  <g
     style="opacity:0.2"
     id="g14">
    <rect
       width="4"
       height="6"
       x="25"
       y="34"
       id="rect8" />
    <rect
       width="4"
       height="6"
       x="30"
       y="34"
       id="rect10" />
    <rect
       width="4"
       height="6"
       x="35"
       y="34"
       id="rect12" />
  </g>
  <rect
     fill="#f8c44e"
     width="4"
     height="6"
     x="25"
     y="33"
     id="rect16"
     style="fill:#ffffff;fill-opacity:1" />
  <rect
     fill="#f8c44e"
     width="4"
     height="6"
     x="30"
     y="33"
     id="rect18"
     style="fill:#ffffff;fill-opacity:1" />
  <rect
     fill="#f8c44e"
     width="4"
     height="6"
     x="35"
     y="33"
     id="rect20"
     style="fill:#ffffff;fill-opacity:1" />
  <rect
     style="opacity:0.2"
     width="4"
     height="6"
     x="40"
     y="34"
     id="rect22" />
  <rect
     fill="#f8c44e"
     width="4"
     height="6"
     x="40"
     y="33"
     id="rect24"
     style="fill:#ffffff;fill-opacity:1" />
  <path
     style="fill:none;stroke:#000000;stroke-width:4;stroke-linecap:round;stroke-linejoin:round;opacity:0.2"
     d="M 4,8 H 8 V 41"
     id="path26" />
  <path
     style="fill:none;stroke:#b7b7b7;stroke-width:4;stroke-linecap:round;stroke-linejoin:round"
     d="M 4,7 H 8 V 40"
     id="path28" />
  <rect
     fill="#4e4e4e"
     width="10"
     height="10"
     x="22"
     y="17"
     rx="2"
     ry="2"
     id="rect30" />
  <g
     style="fill:#b7b7b7"
     id="g48">
    <rect
       width="2"
       height="3"
       x="24"
       y="15"
       id="rect32" />
    <rect
       width="2"
       height="3"
       x="28"
       y="15"
       id="rect34" />
    <rect
       width="2"
       height="3"
       x="24"
       y="26"
       id="rect36" />
    <rect
       width="2"
       height="3"
       x="28"
       y="26"
       id="rect38" />
    <rect
       width="2"
       height="3"
       x="19"
       y="-34"
       transform="rotate(90)"
       id="rect40" />
    <rect
       width="2"
       height="3"
       x="23"
       y="-34"
       transform="rotate(90)"
       id="rect42" />
    <rect
       width="2"
       height="3"
       x="19"
       y="-23"
       transform="rotate(90)"
       id="rect44" />
    <rect
       width="2"
       height="3"
       x="23"
       y="-23"
       transform="rotate(90)"
       id="rect46" />
  </g>
  <path
     fill="#fff"
     style="opacity:0.2"
     d="m4 5a2.0002 2.0002 0 0 0 -1.9668 2.4883 2.0002 2.0002 0 0 1 1.9668 -1.5176h4a2.0002 2.0002 0 0 1 2 2v-0.9707a2.0002 2.0002 0 0 0 -2 -2h-4z"
     id="path50" />
</svg>
