<?xml version="1.0" encoding="UTF-8" standalone="no"?>
<svg
   xmlns:dc="http://purl.org/dc/elements/1.1/"
   xmlns:cc="http://creativecommons.org/ns#"
   xmlns:rdf="http://www.w3.org/1999/02/22-rdf-syntax-ns#"
   xmlns:svg="http://www.w3.org/2000/svg"
   xmlns="http://www.w3.org/2000/svg"
   xmlns:sodipodi="http://sodipodi.sourceforge.net/DTD/sodipodi-0.dtd"
   xmlns:inkscape="http://www.inkscape.org/namespaces/inkscape"
   width="48"
   height="48"
   version="1.1"
   id="svg22"
   sodipodi:docname="appimagekit-jubler.svg"
   inkscape:version="0.92.5 (2060ec1f9f, 2020-04-08)">
  <metadata
     id="metadata28">
    <rdf:RDF>
      <cc:Work
         rdf:about="">
        <dc:format>image/svg+xml</dc:format>
        <dc:type
           rdf:resource="http://purl.org/dc/dcmitype/StillImage" />
      </cc:Work>
    </rdf:RDF>
  </metadata>
  <defs
     id="defs26" />
  <sodipodi:namedview
     pagecolor="#ffffff"
     bordercolor="#666666"
     borderopacity="1"
     objecttolerance="10"
     gridtolerance="10"
     guidetolerance="10"
     inkscape:pageopacity="0"
     inkscape:pageshadow="2"
     inkscape:window-width="783"
     inkscape:window-height="480"
     id="namedview24"
     showgrid="false"
     inkscape:zoom="4.9166667"
     inkscape:cx="24"
     inkscape:cy="24"
     inkscape:window-x="0"
     inkscape:window-y="28"
     inkscape:window-maximized="0"
     inkscape:current-layer="svg22" />
  <path
     style="opacity:0.2"
     d="M 22,5 C 4,5 4,24 4,24 h 18 v 2 C 4,26 4,45 4,45 h 18 4 18 V 26 23 C 44,23 44,5 22,5 Z"
     id="path2" />
  <path
     style="fill:#ffffff;fill-opacity:1"
     d="M 22,23 24,13 22,4 C 4,4 4,23 4,23 Z"
     id="path4" />
  <path
     style="fill:#4c566a;fill-opacity:1"
     d="M 22,44 24,34 22,25 C 4,25 4,44 4,44 Z"
     id="path6" />
  <path
     style="fill:#4c566a;fill-opacity:1"
     d="m 22,4 v 40 h 4 L 44,25 V 22 C 44,22 44,4 22,4 Z"
     id="path8" />
  <path
     style="fill:#5f697d;fill-opacity:1"
     d="M 44,44 V 25 C 26,25 26,44 26,44 Z"
     id="path10" />
  <circle
     style="opacity:0.1"
     cx="30"
     cy="15"
     r="2"
     id="circle12" />
  <circle
     style="fill:#4f4f4f"
     cx="30"
     cy="14"
     r="2"
     id="circle14" />
  <circle
     style="fill:#ffffff"
     cx="30"
     cy="14"
     r="1"
     id="circle16" />
  <path
     style="fill:#ffffff;opacity:0.2"
     d="M 22 4 C 4 4 4 23 4 23 L 4.0507812 23 C 4.3432592 19.118202 6.4702248 5 22 5 C 44 5 44 23 44 23 L 44 22 C 44 22 44 4 22 4 z M 22 25 C 4 25 4 44 4 44 L 4.0507812 44 C 4.3432592 40.118202 6.4702248 26 22 26 L 22 25 z"
     id="path18" />
  <path
     style="fill:#ffffff;opacity:0.2"
     d="M 44 25 C 26 25 26 44 26 44 L 26.050781 44 C 26.343259 40.118202 28.470225 26 44 26 L 44 25 z"
     id="path20" />
</svg>
