<?xml version="1.0" encoding="UTF-8" standalone="no"?>
<svg
   xmlns:dc="http://purl.org/dc/elements/1.1/"
   xmlns:cc="http://creativecommons.org/ns#"
   xmlns:rdf="http://www.w3.org/1999/02/22-rdf-syntax-ns#"
   xmlns:svg="http://www.w3.org/2000/svg"
   xmlns="http://www.w3.org/2000/svg"
   xmlns:sodipodi="http://sodipodi.sourceforge.net/DTD/sodipodi-0.dtd"
   xmlns:inkscape="http://www.inkscape.org/namespaces/inkscape"
   width="48"
   height="48"
   version="1.1"
   id="svg20"
   sodipodi:docname="kali-undercover.svg"
   inkscape:version="0.92.5 (2060ec1f9f, 2020-04-08)">
  <metadata
     id="metadata26">
    <rdf:RDF>
      <cc:Work
         rdf:about="">
        <dc:format>image/svg+xml</dc:format>
        <dc:type
           rdf:resource="http://purl.org/dc/dcmitype/StillImage" />
      </cc:Work>
    </rdf:RDF>
  </metadata>
  <defs
     id="defs24" />
  <sodipodi:namedview
     pagecolor="#ffffff"
     bordercolor="#666666"
     borderopacity="1"
     objecttolerance="10"
     gridtolerance="10"
     guidetolerance="10"
     inkscape:pageopacity="0"
     inkscape:pageshadow="2"
     inkscape:window-width="765"
     inkscape:window-height="480"
     id="namedview22"
     showgrid="false"
     inkscape:zoom="4.9166667"
     inkscape:cx="-2.9491525"
     inkscape:cy="24"
     inkscape:window-x="0"
     inkscape:window-y="28"
     inkscape:window-maximized="0"
     inkscape:current-layer="svg20" />
  <circle
     cx="24"
     cy="25"
     r="20"
     style="opacity:.2"
     id="circle2" />
  <circle
     cx="24"
     cy="24"
     r="20"
     style="fill:#4c566a;fill-opacity:1"
     id="circle4" />
  <path
     d="M 24,4 A 20,20 0 0 0 4,24 20,20 0 0 0 4.0215,24.582 20,20 0 0 1 24,5 20,20 0 0 1 43.979,24.418 20,20 0 0 0 44,24 20,20 0 0 0 24,4 Z"
     style="fill:#ffffff;opacity:.1"
     id="path6" />
  <path
     d="m12.375 27c-0.642277 0-1.17557 0.424762-1.328125 1h-0.378906c-0.369518 0-0.667969 0.3345-0.667969 0.75v1.5c0 0.4155 0.298451 0.75 0.667969 0.75h0.332031v2.667969c0 0.738482 0.61325 1.332031 1.375 1.332031h8.25c0.76175 0 1.375-0.593549 1.375-1.332031v-3.667969c0.535948-0.188458 1.240724-0.378906 2-0.378906s1.464052 0.190448 2 0.378906v3.667969c0 0.738482 0.61325 1.332031 1.375 1.332031h8.25c0.76175 0 1.375-0.593549 1.375-1.332031v-2.667969h0.332031c0.369518 0 0.667969-0.3345 0.667969-0.75v-1.5c0-0.4155-0.298451-0.75-0.667969-0.75h-0.378906c-0.152555-0.575238-0.685848-1-1.328125-1h-8.25c-0.76175 0-1.375 0.593549-1.375 1.332031v0.04687c-0.535948-0.188458-1.240724-0.378906-2-0.378906s-1.464052 0.190448-2 0.378906v-0.04687c0-0.738482-0.61325-1.332031-1.375-1.332031z"
     style="opacity:.2"
     id="path8" />
  <path
     d="m12.375 26c-0.642277 0-1.17557 0.424762-1.328125 1h-0.378906c-0.369518 0-0.667969 0.3345-0.667969 0.75v1.5c0 0.4155 0.298451 0.75 0.667969 0.75h0.332031v2.667969c0 0.738482 0.61325 1.332031 1.375 1.332031h8.25c0.76175 0 1.375-0.593549 1.375-1.332031v-3.667969c0.535948-0.188458 1.240724-0.378906 2-0.378906s1.464052 0.190448 2 0.378906v3.667969c0 0.738482 0.61325 1.332031 1.375 1.332031h8.25c0.76175 0 1.375-0.593549 1.375-1.332031v-2.667969h0.332031c0.369518 0 0.667969-0.3345 0.667969-0.75v-1.5c0-0.4155-0.298451-0.75-0.667969-0.75h-0.378906c-0.152555-0.575238-0.685848-1-1.328125-1h-8.25c-0.76175 0-1.375 0.593549-1.375 1.332031v0.04687c-0.535948-0.188458-1.240724-0.378906-2-0.378906s-1.464052 0.190448-2 0.378906v-0.04687c0-0.738482-0.61325-1.332031-1.375-1.332031z"
     style="fill:#ffffff"
     id="path10" />
  <rect
     x="7"
     y="22"
     width="34"
     height="2"
     style="opacity:.2"
     id="rect12" />
  <rect
     x="7"
     y="21"
     width="34"
     height="2"
     style="fill:#ffffff"
     id="rect14" />
  <path
     d="m13 20 2-8 5 4 13-4 2 8z"
     style="opacity:.2"
     id="path16" />
  <path
     d="m13 19 2-8 5 4 13-4 2 8z"
     style="fill:#ffffff"
     id="path18" />
</svg>
