<?xml version="1.0" encoding="UTF-8" standalone="no"?>
<svg
   xmlns:dc="http://purl.org/dc/elements/1.1/"
   xmlns:cc="http://creativecommons.org/ns#"
   xmlns:rdf="http://www.w3.org/1999/02/22-rdf-syntax-ns#"
   xmlns:svg="http://www.w3.org/2000/svg"
   xmlns="http://www.w3.org/2000/svg"
   xmlns:sodipodi="http://sodipodi.sourceforge.net/DTD/sodipodi-0.dtd"
   xmlns:inkscape="http://www.inkscape.org/namespaces/inkscape"
   width="48"
   height="48"
   version="1.1"
   id="svg20"
   sodipodi:docname="setoolkit.svg"
   inkscape:version="0.92.5 (2060ec1f9f, 2020-04-08)">
  <metadata
     id="metadata26">
    <rdf:RDF>
      <cc:Work
         rdf:about="">
        <dc:format>image/svg+xml</dc:format>
        <dc:type
           rdf:resource="http://purl.org/dc/dcmitype/StillImage" />
      </cc:Work>
    </rdf:RDF>
  </metadata>
  <defs
     id="defs24" />
  <sodipodi:namedview
     pagecolor="#ffffff"
     bordercolor="#666666"
     borderopacity="1"
     objecttolerance="10"
     gridtolerance="10"
     guidetolerance="10"
     inkscape:pageopacity="0"
     inkscape:pageshadow="2"
     inkscape:window-width="765"
     inkscape:window-height="480"
     id="namedview22"
     showgrid="false"
     inkscape:zoom="2.4583333"
     inkscape:cx="1.3694182"
     inkscape:cy="40.493991"
     inkscape:window-x="0"
     inkscape:window-y="28"
     inkscape:window-maximized="0"
     inkscape:current-layer="g18" />
  <g
     transform="matrix(2,0,0,2,2,2)"
     id="g18">
    <path
       d="m 12,1.5 a 8,8 0 0 0 -8,8 8,8 0 0 0 0.00781,0.253906 L 3.4589844,10.705078 2.1347656,13 A 1.0001,1.0001 0 0 0 3,14.5 h 1 v 2.578125 C 4,17.865388 4.6346119,18.5 5.421875,18.5 H 8 v 1.578125 C 8,20.865388 8.6346119,21.5 9.421875,21.5 h 6.15625 C 16.365388,21.5 17,20.865388 17,20.078125 V 15.744141 A 8,8 0 0 0 20,9.5 8,8 0 0 0 12,1.5 Z"
       style="opacity:.2"
       id="path2" />
    <circle
       cx="12"
       cy="9"
       r="8"
       style="fill:#4c566a;fill-opacity:1"
       id="circle4" />
    <rect
       x="4"
       y="9"
       width="9"
       height="9"
       rx="1.421"
       ry="1.421"
       style="fill:#4c566a;fill-opacity:1"
       id="rect6" />
    <rect
       x="8"
       y="12"
       width="9"
       height="9"
       rx="1.421"
       ry="1.421"
       style="fill:#4c566a;fill-opacity:1"
       id="rect8" />
    <path
       d="m5.5977685 7.4091795a1.0001 1.0001 0 0 0-0.8125 0.4990235l-1.3261719 2.295899-1.3251952 2.295898a1.0001 1.0001 0 0 0 0.8662108 1.5h5.3017583a1.0001 1.0001 0 0 0 0.8662105-1.5l-1.325195-2.295898-1.326172-2.295899a1.0001 1.0001 0 0 0-0.819336-0.4990235 1.0001 1.0001 0 0 0-0.099609 0z"
       style="fill:#4c566a;fill-opacity:1"
       id="path10" />
    <path
       d="M 12,1 A 8,8 0 0 0 4,9 8,8 0 0 0 4.00781,9.253906 8,8 0 0 1 12,1.5 8,8 0 0 1 19.988281,9.25 8,8 0 0 0 20,9 8,8 0 0 0 12,1 Z M 4.0078125,9.253906 3.4589844,10.205078 2.1347656,12.5 A 1.0001,1.0001 0 0 0 2.0332031,13.25 1.0001,1.0001 0 0 1 2.1347656,13 L 3.4589844,10.705078 4.0078125,9.753906 A 8,8 0 0 1 4,9.5 8,8 0 0 1 4.00781,9.253906 Z"
       style="fill:#ffffff;opacity:.2"
       id="path12" />
    <path
       d="m12 9.5s-2 0-2-2 2-3 2-3v3h2v-3s2 1 2 3-2 2-2 2v12h-2z"
       style="opacity:.2"
       id="path14" />
    <path
       d="m12 9s-2 0-2-2 2-3 2-3v3h2v-3s2 1 2 3-2 2-2 2v12h-2z"
       style="fill:#ffffff"
       id="path16" />
  </g>
</svg>
