<?xml version="1.0" encoding="UTF-8" standalone="no"?>
<svg
   xmlns:dc="http://purl.org/dc/elements/1.1/"
   xmlns:cc="http://creativecommons.org/ns#"
   xmlns:rdf="http://www.w3.org/1999/02/22-rdf-syntax-ns#"
   xmlns:svg="http://www.w3.org/2000/svg"
   xmlns="http://www.w3.org/2000/svg"
   xmlns:sodipodi="http://sodipodi.sourceforge.net/DTD/sodipodi-0.dtd"
   xmlns:inkscape="http://www.inkscape.org/namespaces/inkscape"
   width="48"
   height="48"
   version="1"
   id="svg10"
   sodipodi:docname="kapman.svg"
   inkscape:version="0.92.5 (2060ec1f9f, 2020-04-08)">
  <metadata
     id="metadata16">
    <rdf:RDF>
      <cc:Work
         rdf:about="">
        <dc:format>image/svg+xml</dc:format>
        <dc:type
           rdf:resource="http://purl.org/dc/dcmitype/StillImage" />
      </cc:Work>
    </rdf:RDF>
  </metadata>
  <defs
     id="defs14" />
  <sodipodi:namedview
     pagecolor="#ffffff"
     bordercolor="#666666"
     borderopacity="1"
     objecttolerance="10"
     gridtolerance="10"
     guidetolerance="10"
     inkscape:pageopacity="0"
     inkscape:pageshadow="2"
     inkscape:window-width="765"
     inkscape:window-height="480"
     id="namedview12"
     showgrid="false"
     inkscape:zoom="4.9166667"
     inkscape:cx="24"
     inkscape:cy="24"
     inkscape:window-x="0"
     inkscape:window-y="28"
     inkscape:window-maximized="0"
     inkscape:current-layer="svg10" />
  <path
     fill="#fecd38"
     d="m24 4c-11.08 0-20 8.92-20 20s8.92 20 20 20c6.8107 0 12.805-3.3703 16.414-8.5409l-16.414-11.459 18.895-6.595c-2.713-7.8206-10.128-13.405-18.895-13.405z"
     id="path2"
     style="fill:#4c566a;fill-opacity:1" />
  <circle
     fill="#3f3f3f"
     cx="26"
     cy="13"
     r="3"
     id="circle4"
     style="fill:#ffffff;fill-opacity:1" />
  <path
     fill="#fff"
     opacity=".2"
     d="m24 4c-11.08 0-20 8.92-20 20 0 0.168 0.0076 0.333 0.0117 0.5 0.2647-10.846 9.0763-19.5 19.988-19.5 8.4317 0 15.6 5.1714 18.551 12.523l0.34375-0.11914c-2.714-7.8199-10.128-13.404-18.895-13.404zm0.955 20.666-0.955 0.334 15.924 11.117c0.16562-0.21768 0.33349-0.4336 0.49023-0.6582l-15.459-10.793z"
     id="path6" />
  <path
     opacity=".2"
     d="m42.551 17.523-18.551 6.477l0.95508 0.66602 17.939-6.2617c-0.104-0.299-0.226-0.588-0.344-0.881zm-38.539 6.977c-0.0041 0.167-0.0117 0.332-0.0117 0.5 0 11.08 8.92 20 20 20 6.8107 0 12.806-3.3704 16.414-8.541l-0.49-0.342c-3.647 4.794-9.409 7.883-15.924 7.883-10.912 0-19.724-8.654-19.988-19.5z"
     id="path8" />
</svg>
