<?xml version="1.0" encoding="UTF-8" standalone="no"?>
<svg
   xmlns:dc="http://purl.org/dc/elements/1.1/"
   xmlns:cc="http://creativecommons.org/ns#"
   xmlns:rdf="http://www.w3.org/1999/02/22-rdf-syntax-ns#"
   xmlns:svg="http://www.w3.org/2000/svg"
   xmlns="http://www.w3.org/2000/svg"
   xmlns:sodipodi="http://sodipodi.sourceforge.net/DTD/sodipodi-0.dtd"
   xmlns:inkscape="http://www.inkscape.org/namespaces/inkscape"
   width="48"
   height="48"
   version="1.1"
   id="svg22"
   sodipodi:docname="kapow.svg"
   inkscape:version="0.92.5 (2060ec1f9f, 2020-04-08)">
  <metadata
     id="metadata28">
    <rdf:RDF>
      <cc:Work
         rdf:about="">
        <dc:format>image/svg+xml</dc:format>
        <dc:type
           rdf:resource="http://purl.org/dc/dcmitype/StillImage" />
      </cc:Work>
    </rdf:RDF>
  </metadata>
  <defs
     id="defs26" />
  <sodipodi:namedview
     pagecolor="#ffffff"
     bordercolor="#666666"
     borderopacity="1"
     objecttolerance="10"
     gridtolerance="10"
     guidetolerance="10"
     inkscape:pageopacity="0"
     inkscape:pageshadow="2"
     inkscape:window-width="765"
     inkscape:window-height="480"
     id="namedview24"
     showgrid="false"
     inkscape:zoom="4.9166667"
     inkscape:cx="24.748639"
     inkscape:cy="31.263614"
     inkscape:window-x="0"
     inkscape:window-y="28"
     inkscape:window-maximized="0"
     inkscape:current-layer="svg22" />
  <circle
     style="opacity:0.2"
     cx="24"
     cy="25"
     r="20"
     id="circle2" />
  <circle
     style="fill:#4c566a;fill-opacity:1"
     cx="24"
     cy="24"
     r="20"
     id="circle4" />
  <path
     style="opacity:0.2;fill:#ffffff"
     d="M 24,4 A 20,20 0 0 0 4,24 20,20 0 0 0 4.0215,24.582 20,20 0 0 1 24,5 20,20 0 0 1 43.979,24.418 20,20 0 0 0 44,24 20,20 0 0 0 24,4 Z"
     id="path6" />
  <circle
     style="opacity:0.2"
     cx="24"
     cy="25"
     r="14"
     id="circle8" />
  <circle
     style="fill:#ffffff"
     cx="24"
     cy="24"
     r="14"
     id="circle10" />
  <path
     style="fill:#4c566a;fill-opacity:1"
     d="M 26.890625,13.400391 C 25.899031,17.004793 24,24 24,24 c 0,0 6.877786,-1.711173 10.599609,-2.941406 a 11,11 0 0 0 -7.708984,-7.658203 z"
     id="path12" />
  <path
     style="opacity:0.2"
     d="M 26.890625 13.400391 C 25.899031 17.004793 24 24 24 24 C 24 24 24.274123 23.928533 24.292969 23.923828 C 24.613409 22.743913 25.999695 17.638884 26.890625 14.400391 A 11 11 0 0 1 34.296875 21.150391 C 34.387518 21.121033 34.51231 21.08745 34.599609 21.058594 A 11 11 0 0 0 26.890625 13.400391 z"
     id="path14" />
  <path
     style="fill:#4f4f4f;fill-rule:evenodd"
     d="M 22.528713,25.03459 16,19 25.010748,23.752956 27,27 22.528713,25.03459"
     id="path16" />
  <path
     style="fill:#4f4f4f;fill-rule:evenodd"
     d="M 23.380679,23.549725 37.4,20 24.809997,25.375929 20,26 23.380679,23.549725"
     id="path18" />
  <path
     style="fill:#4f4f4f"
     d="m 24,12 a 1,1 0 0 0 -1,1 1,1 0 0 0 1,1 1,1 0 0 0 1,-1 1,1 0 0 0 -1,-1 z M 13,23 a 1,1 0 0 0 -1,1 1,1 0 0 0 1,1 1,1 0 0 0 1,-1 1,1 0 0 0 -1,-1 z m 22,0 a 1,1 0 0 0 -1,1 1,1 0 0 0 1,1 1,1 0 0 0 1,-1 1,1 0 0 0 -1,-1 z M 24,34 a 1,1 0 0 0 -1,1 1,1 0 0 0 1,1 1,1 0 0 0 1,-1 1,1 0 0 0 -1,-1 z"
     id="path20" />
</svg>
