<?xml version="1.0" encoding="UTF-8" standalone="no"?>
<svg
   xmlns:dc="http://purl.org/dc/elements/1.1/"
   xmlns:cc="http://creativecommons.org/ns#"
   xmlns:rdf="http://www.w3.org/1999/02/22-rdf-syntax-ns#"
   xmlns:svg="http://www.w3.org/2000/svg"
   xmlns="http://www.w3.org/2000/svg"
   xmlns:sodipodi="http://sodipodi.sourceforge.net/DTD/sodipodi-0.dtd"
   xmlns:inkscape="http://www.inkscape.org/namespaces/inkscape"
   width="48"
   height="48"
   version="1"
   id="svg22"
   sodipodi:docname="calligrakarbon.svg"
   inkscape:version="0.92.5 (2060ec1f9f, 2020-04-08)">
  <metadata
     id="metadata28">
    <rdf:RDF>
      <cc:Work
         rdf:about="">
        <dc:format>image/svg+xml</dc:format>
        <dc:type
           rdf:resource="http://purl.org/dc/dcmitype/StillImage" />
      </cc:Work>
    </rdf:RDF>
  </metadata>
  <defs
     id="defs26" />
  <sodipodi:namedview
     pagecolor="#ffffff"
     bordercolor="#666666"
     borderopacity="1"
     objecttolerance="10"
     gridtolerance="10"
     guidetolerance="10"
     inkscape:pageopacity="0"
     inkscape:pageshadow="2"
     inkscape:window-width="783"
     inkscape:window-height="480"
     id="namedview24"
     showgrid="false"
     inkscape:zoom="4.9166667"
     inkscape:cx="24"
     inkscape:cy="24"
     inkscape:window-x="0"
     inkscape:window-y="28"
     inkscape:window-maximized="0"
     inkscape:current-layer="svg22" />
  <circle
     style="opacity:0.2"
     cx="24"
     cy="25"
     r="20"
     id="circle2" />
  <path
     style="fill:#697387;fill-opacity:1"
     d="m 44,24 c 0,4.658382 -1.592634,8.944784 -4.263106,12.344411 C 36.075292,41.00579 30.387313,41.918638 24,41.918638 c -11.045695,0 -16.4049196,-6.96755 -16.4049196,-18.013245 0,-4.97878 -1.7758334,-9.438045 1.2341708,-12.93852 C 12.497105,6.7013546 17.933085,4 24,4 35.045695,4 44,12.954305 44,24 Z"
     id="path4" />
  <path
     style="fill:#4c566a;fill-opacity:1"
     d="M 8.235,11.732 C 5.499,15.237 4.008,19.554 4,24 4,35.05 12.954,44 24,44 30.631,43.999 36.831,40.711 40.552,35.222 38.301,35.195 23.846,34.861 21.956,30.134 19.911,25.022 27.068,24 26.045,18.888 24.765,12.488 12.386,11.781 8.235,11.731"
     id="path6" />
  <path
     style="fill:#ffffff;opacity:0.2"
     d="M 24 4 A 20 20 0 0 0 4 24 A 20 20 0 0 0 4.0214844 24.582031 A 20 20 0 0 1 24 5 A 20 20 0 0 1 43.978516 24.417969 A 20 20 0 0 0 44 24 A 20 20 0 0 0 24 4 z"
     id="path8" />
  <path
     style="fill:#3c3f3f"
     d="m 8.234,11.732 c -0.007,0.01 -0.014,0.02 -0.021,0.029 4.798,0.144 15.634,1.137 16.832,7.127 1.022,5.112 -6.179,6.09 -4.134,11.202 1.891,4.726 16.838,6.883 19.09,6.909 l 0.551,-1.777 C 38.301,35.195 23.847,34.861 21.956,30.134 19.911,25.022 27.068,24 26.046,18.888 24.766,12.488 12.386,11.781 8.235,11.732"
     id="path10" />
  <path
     style="opacity:0.2"
     d="m 9,11 c -1.1045695,0 -2,0.895431 -2,2 0,1.104569 0.8954305,2 2,2 1.104569,0 2,-0.895431 2,-2 0,-1.104569 -0.895431,-2 -2,-2 z m 16.5,6 C 24.119288,17 23,18.119288 23,19.5 23,20.880712 24.119288,22 25.5,22 26.880712,22 28,20.880712 28,19.5 28,18.119288 26.880712,17 25.5,17 Z M 22,27 c -1.656854,0 -3,1.343146 -3,3 0,1.656854 1.343146,3 3,3 1.656854,0 3,-1.343146 3,-3 0,-1.656854 -1.343146,-3 -3,-3 z m 17,6 c -2.209139,0 -4,1.790861 -4,4 0,2.209139 1.790861,4 4,4 2.209139,0 4,-1.790861 4,-4 0,-2.209139 -1.790861,-4 -4,-4 z"
     id="path12" />
  <circle
     style="fill:#ffffff"
     cx="9"
     cy="12"
     r="2"
     id="circle14" />
  <circle
     style="fill:#ffffff"
     cx="25.5"
     cy="18.5"
     r="2.5"
     id="circle16" />
  <circle
     style="fill:#ffffff"
     cx="22"
     cy="29"
     r="3"
     id="circle18" />
  <circle
     style="fill:#ffffff"
     cx="39"
     cy="36"
     r="4"
     id="circle20" />
</svg>
