<?xml version="1.0" encoding="UTF-8" standalone="no"?>
<svg
   xmlns:dc="http://purl.org/dc/elements/1.1/"
   xmlns:cc="http://creativecommons.org/ns#"
   xmlns:rdf="http://www.w3.org/1999/02/22-rdf-syntax-ns#"
   xmlns:svg="http://www.w3.org/2000/svg"
   xmlns="http://www.w3.org/2000/svg"
   xmlns:sodipodi="http://sodipodi.sourceforge.net/DTD/sodipodi-0.dtd"
   xmlns:inkscape="http://www.inkscape.org/namespaces/inkscape"
   width="48"
   height="48"
   version="1"
   id="svg14"
   sodipodi:docname="atomix-icon.svg"
   inkscape:version="0.92.5 (2060ec1f9f, 2020-04-08)">
  <metadata
     id="metadata20">
    <rdf:RDF>
      <cc:Work
         rdf:about="">
        <dc:format>image/svg+xml</dc:format>
        <dc:type
           rdf:resource="http://purl.org/dc/dcmitype/StillImage" />
      </cc:Work>
    </rdf:RDF>
  </metadata>
  <defs
     id="defs18" />
  <sodipodi:namedview
     pagecolor="#ffffff"
     bordercolor="#666666"
     borderopacity="1"
     objecttolerance="10"
     gridtolerance="10"
     guidetolerance="10"
     inkscape:pageopacity="0"
     inkscape:pageshadow="2"
     inkscape:window-width="783"
     inkscape:window-height="480"
     id="namedview16"
     showgrid="false"
     inkscape:zoom="4.9166667"
     inkscape:cx="24"
     inkscape:cy="24"
     inkscape:window-x="0"
     inkscape:window-y="28"
     inkscape:window-maximized="0"
     inkscape:current-layer="svg14" />
  <circle
     fill="#4f4f4f"
     cx="22.785"
     cy="8.785"
     r="10"
     transform="rotate(30)"
     id="circle2"
     style="fill:#4c566a;fill-opacity:1" />
  <circle
     fill="#e4e4e4"
     cx="-1.215"
     cy="-32.785"
     r="10"
     transform="rotate(120)"
     id="circle4" />
  <circle
     fill="#4f4f4f"
     cx="42.785"
     cy="8.785"
     r="10"
     transform="rotate(30)"
     id="circle6"
     style="fill:#4c566a;fill-opacity:1" />
  <circle
     fill="#e4e4e4"
     cx="18.785"
     cy="-32.785"
     r="10"
     transform="rotate(120)"
     id="circle8" />
  <path
     fill="#fff"
     opacity=".1"
     d="m29.236 5.3438a10 10 0 0 0 -0.709 0.0078 10 10 0 0 0 -8.187 4.9884 10 10 0 0 0 -13.66 3.66 10 10 0 0 0 -1.3187 5.496 10 10 0 0 1 1.3184 -4.496 10 10 0 0 1 13.66 -3.66 10 10 0 0 1 8.187 -4.9884 10 10 0 0 1 5.473 1.3281 10 10 0 0 1 4.979 8.1643 10 10 0 0 0 -4.979 -9.1643 10 10 0 0 0 -4.764 -1.3359zm8.813 15.238a10 10 0 0 1 -0.389 0.758 10 10 0 0 1 4.979 8.164 10 10 0 0 0 -4.59 -8.922zm-28.098 7.836a10 10 0 0 0 -0.9297 4.738 10 10 0 0 1 1.3185 -4.496 10 10 0 0 1 -0.3888 -0.242z"
     id="path10" />
  <path
     opacity=".2"
     d="m38.979 15.844a10 10 0 0 1 -1.319 4.496 10 10 0 0 1 0.389 0.242 10 10 0 0 0 0.93 -4.738zm-33.618 3.652a10 10 0 0 0 4.5899 8.922 10 10 0 0 1 0.3888 -0.758 10 10 0 0 1 -4.9787 -8.164zm37.278 10.008a10 10 0 0 1 -1.319 4.496 10 10 0 0 1 -13.66 3.66 10 10 0 0 1 -13.66 3.66 10 10 0 0 1 -4.9785 -8.164 10 10 0 0 0 4.9785 9.164 10 10 0 0 0 13.66 -3.66 10 10 0 0 0 13.66 -3.66 10 10 0 0 0 1.319 -5.496z"
     id="path12" />
</svg>
