<?xml version="1.0" encoding="UTF-8" standalone="no"?>
<svg
   xmlns:dc="http://purl.org/dc/elements/1.1/"
   xmlns:cc="http://creativecommons.org/ns#"
   xmlns:rdf="http://www.w3.org/1999/02/22-rdf-syntax-ns#"
   xmlns:svg="http://www.w3.org/2000/svg"
   xmlns="http://www.w3.org/2000/svg"
   xmlns:sodipodi="http://sodipodi.sourceforge.net/DTD/sodipodi-0.dtd"
   xmlns:inkscape="http://www.inkscape.org/namespaces/inkscape"
   width="48"
   height="48"
   version="1.1"
   id="svg20"
   sodipodi:docname="appimagekit-org.keepassxc.KeePassXC.svg"
   inkscape:version="0.92.5 (2060ec1f9f, 2020-04-08)">
  <metadata
     id="metadata26">
    <rdf:RDF>
      <cc:Work
         rdf:about="">
        <dc:format>image/svg+xml</dc:format>
        <dc:type
           rdf:resource="http://purl.org/dc/dcmitype/StillImage" />
      </cc:Work>
    </rdf:RDF>
  </metadata>
  <defs
     id="defs24" />
  <sodipodi:namedview
     pagecolor="#ffffff"
     bordercolor="#666666"
     borderopacity="1"
     objecttolerance="10"
     gridtolerance="10"
     guidetolerance="10"
     inkscape:pageopacity="0"
     inkscape:pageshadow="2"
     inkscape:window-width="783"
     inkscape:window-height="480"
     id="namedview22"
     showgrid="false"
     inkscape:zoom="4.9166667"
     inkscape:cx="24"
     inkscape:cy="24"
     inkscape:window-x="87"
     inkscape:window-y="44"
     inkscape:window-maximized="0"
     inkscape:current-layer="svg20" />
  <path
     style="fill:#4c566a;fill-opacity:1"
     d="m24 4a20 20 0 0 0 -20 20 20 20 0 0 0 20 20 20 20 0 0 0 20 -20 20 20 0 0 0 -20 -20z"
     id="path2" />
  <path
     opacity=".2"
     d="m4.0215 24.418a20 20 0 0 0 -0.0215 0.582 20 20 0 0 0 20 20 20 20 0 0 0 20 -20 20 20 0 0 0 -0.021 -0.418 20 20 0 0 1 -19.979 19.418 20 20 0 0 1 -19.978 -19.582z"
     id="path4" />
  <path
     fill="#ffffff"
     opacity=".2"
     d="m24 4a20 20 0 0 0 -20 20 20 20 0 0 0 0.0215 0.418 20 20 0 0 1 19.978 -19.418 20 20 0 0 1 19.979 19.582 20 20 0 0 0 0.021 -0.582 20 20 0 0 0 -20 -20z"
     id="path6" />
  <g
     style="opacity:0.2"
     transform="translate(0,1)"
     id="g12">
    <path
       d="m 24,8 a 9,9 0 0 0 -9,9 9,9 0 0 0 9,9 9,9 0 0 0 9,-9 9,9 0 0 0 -9,-9 z m 0,2 a 4,4 0 0 1 4,4 4,4 0 0 1 -4,4 4,4 0 0 1 -4,-4 4,4 0 0 1 4,-4 z"
       id="path8" />
    <path
       d="m 20,22 v 14 l 4,4 4,-4 V 35 L 30,33.5 28,32 v -1.5 l 2,-2 -2,-2 V 22 Z m 1,4 h 2 v 9 h -2 z"
       id="path10" />
  </g>
  <g
     id="g18">
    <path
       style="fill:#ffffff"
       d="M 24 8 A 9 9 0 0 0 15 17 A 9 9 0 0 0 24 26 A 9 9 0 0 0 33 17 A 9 9 0 0 0 24 8 z M 24 10 A 4 4 0 0 1 28 14 A 4 4 0 0 1 24 18 A 4 4 0 0 1 20 14 A 4 4 0 0 1 24 10 z"
       id="path14" />
    <path
       style="fill:#ffffff"
       d="m 20,22 v 14 l 4,4 4,-4 V 35 L 30,33.5 28,32 v -1.5 l 2,-2 -2,-2 V 22 Z m 1,4 h 2 v 9 h -2 z"
       id="path16" />
  </g>
</svg>
