<?xml version="1.0" encoding="UTF-8" standalone="no"?>
<svg
   xmlns:dc="http://purl.org/dc/elements/1.1/"
   xmlns:cc="http://creativecommons.org/ns#"
   xmlns:rdf="http://www.w3.org/1999/02/22-rdf-syntax-ns#"
   xmlns:svg="http://www.w3.org/2000/svg"
   xmlns="http://www.w3.org/2000/svg"
   xmlns:sodipodi="http://sodipodi.sourceforge.net/DTD/sodipodi-0.dtd"
   xmlns:inkscape="http://www.inkscape.org/namespaces/inkscape"
   width="48"
   height="48"
   version="1"
   id="svg24"
   sodipodi:docname="khangman.svg"
   inkscape:version="0.92.5 (2060ec1f9f, 2020-04-08)">
  <metadata
     id="metadata30">
    <rdf:RDF>
      <cc:Work
         rdf:about="">
        <dc:format>image/svg+xml</dc:format>
        <dc:type
           rdf:resource="http://purl.org/dc/dcmitype/StillImage" />
      </cc:Work>
    </rdf:RDF>
  </metadata>
  <defs
     id="defs28" />
  <sodipodi:namedview
     pagecolor="#ffffff"
     bordercolor="#666666"
     borderopacity="1"
     objecttolerance="10"
     gridtolerance="10"
     guidetolerance="10"
     inkscape:pageopacity="0"
     inkscape:pageshadow="2"
     inkscape:window-width="765"
     inkscape:window-height="480"
     id="namedview26"
     showgrid="false"
     inkscape:zoom="4.9166667"
     inkscape:cx="24"
     inkscape:cy="24"
     inkscape:window-x="0"
     inkscape:window-y="28"
     inkscape:window-maximized="0"
     inkscape:current-layer="svg24" />
  <circle
     style="opacity:0.2"
     cx="24"
     cy="25"
     r="20"
     id="circle2" />
  <circle
     style="fill:#4c566a;fill-opacity:1"
     cx="24"
     cy="24"
     r="20"
     id="circle4" />
  <path
     style="opacity:0.2;fill:none;stroke:#080808;stroke-width:4"
     d="m 24,5 v 15 c -10,5 -9,18 0,18 9,0 10,-13 0,-18"
     id="path6" />
  <path
     style="fill:none;stroke:#e4e4e4;stroke-width:4"
     d="m 24,4 v 15 c -10,5 -9,18 0,18 9,0 10,-13 0,-18"
     id="path8" />
  <rect
     style="opacity:0.2"
     width="8"
     height="4"
     x="20"
     y="15"
     rx="2"
     ry="2"
     id="rect10" />
  <rect
     style="fill:#ffffff"
     width="8"
     height="4"
     x="20"
     y="14"
     rx="2"
     ry="2"
     id="rect12" />
  <rect
     style="opacity:0.2"
     width="8"
     height="4"
     x="20"
     y="11"
     rx="2"
     ry="2"
     id="rect14" />
  <rect
     style="fill:#ffffff"
     width="8"
     height="4"
     x="20"
     y="10"
     rx="2"
     ry="2"
     id="rect16" />
  <rect
     style="opacity:0.2"
     width="8"
     height="4"
     x="20"
     y="7"
     rx="2"
     ry="2"
     id="rect18" />
  <rect
     style="fill:#ffffff"
     width="8"
     height="4"
     x="20"
     y="6"
     rx="2"
     ry="2"
     id="rect20" />
  <path
     style="opacity:0.1;fill:#ffffff"
     d="M 24 4 A 20 20 0 0 0 4 24 A 20 20 0 0 0 4.0214844 24.582031 A 20 20 0 0 1 24 5 A 20 20 0 0 1 43.978516 24.417969 A 20 20 0 0 0 44 24 A 20 20 0 0 0 24 4 z"
     id="path22" />
</svg>
