<?xml version="1.0" encoding="UTF-8" standalone="no"?>
<svg
   xmlns:dc="http://purl.org/dc/elements/1.1/"
   xmlns:cc="http://creativecommons.org/ns#"
   xmlns:rdf="http://www.w3.org/1999/02/22-rdf-syntax-ns#"
   xmlns:svg="http://www.w3.org/2000/svg"
   xmlns="http://www.w3.org/2000/svg"
   xmlns:sodipodi="http://sodipodi.sourceforge.net/DTD/sodipodi-0.dtd"
   xmlns:inkscape="http://www.inkscape.org/namespaces/inkscape"
   width="48"
   height="48"
   version="1"
   id="svg20"
   sodipodi:docname="khotkeys.svg"
   inkscape:version="0.92.5 (2060ec1f9f, 2020-04-08)">
  <metadata
     id="metadata26">
    <rdf:RDF>
      <cc:Work
         rdf:about="">
        <dc:format>image/svg+xml</dc:format>
        <dc:type
           rdf:resource="http://purl.org/dc/dcmitype/StillImage" />
      </cc:Work>
    </rdf:RDF>
  </metadata>
  <defs
     id="defs24" />
  <sodipodi:namedview
     pagecolor="#ffffff"
     bordercolor="#666666"
     borderopacity="1"
     objecttolerance="10"
     gridtolerance="10"
     guidetolerance="10"
     inkscape:pageopacity="0"
     inkscape:pageshadow="2"
     inkscape:window-width="765"
     inkscape:window-height="480"
     id="namedview22"
     showgrid="false"
     inkscape:zoom="4.9166667"
     inkscape:cx="24"
     inkscape:cy="24"
     inkscape:window-x="0"
     inkscape:window-y="28"
     inkscape:window-maximized="0"
     inkscape:current-layer="svg20" />
  <rect
     style="opacity:0.2"
     width="40"
     height="40"
     x="4"
     y="5"
     rx="12"
     ry="12"
     id="rect2" />
  <rect
     style="fill:#4c566a;fill-opacity:1"
     width="40"
     height="40"
     x="4"
     y="4"
     rx="12"
     ry="12"
     id="rect4" />
  <path
     style="opacity:0.3"
     d="M 15,33 7.5078125,40.492188 C 9.6768125,42.661187 12.676,44 16,44 h 8 8 c 3.324,0 6.323188,-1.338813 8.492188,-3.507812 L 33,33 h -9 z"
     id="path6" />
  <path
     style="opacity:0.15"
     d="M 40.492188 7.5078125 L 33 15 L 33 24 L 33 33 L 40.492188 40.492188 C 42.661187 38.323188 44 35.324 44 32 L 44 16 C 44 12.676 42.661187 9.6768125 40.492188 7.5078125 z"
     id="path8" />
  <path
     style="opacity:0.15"
     d="M 7.5078125 7.5078125 C 5.3388125 9.6768125 4 12.676 4 16 L 4 24 L 4 32 C 4 35.324 5.3388125 38.323188 7.5078125 40.492188 L 15 33 L 15 24 L 15 15 L 7.5078125 7.5078125 z"
     id="path10" />
  <rect
     style="opacity:0.2"
     width="28"
     height="28"
     x="10"
     y="11"
     rx="6"
     ry="6"
     id="rect12" />
  <rect
     style="fill:#eceeeb"
     width="28"
     height="28"
     x="10"
     y="10"
     rx="6"
     ry="6"
     id="rect14" />
  <path
     style="opacity:0.2;fill:#ffffff"
     d="M 16 4 C 9.352 4 4 9.352 4 16 L 4 17 C 4 10.352 9.352 5 16 5 L 32 5 C 38.648 5 44 10.352 44 17 L 44 16 C 44 9.352 38.648 4 32 4 L 16 4 z"
     id="path16" />
  <path
     style="fill:#4c566a;fill-opacity:1"
     d="M 15 15 L 15 22 L 15 26 L 15 33 L 19 33 L 19 26 L 29 26 L 29 33 L 33 33 L 33 26 L 33 22 L 33 15 L 29 15 L 29 22 L 19 22 L 19 15 L 15 15 z"
     id="path18" />
</svg>
