<?xml version="1.0" encoding="UTF-8" standalone="no"?>
<svg
   xmlns:dc="http://purl.org/dc/elements/1.1/"
   xmlns:cc="http://creativecommons.org/ns#"
   xmlns:rdf="http://www.w3.org/1999/02/22-rdf-syntax-ns#"
   xmlns:svg="http://www.w3.org/2000/svg"
   xmlns="http://www.w3.org/2000/svg"
   xmlns:sodipodi="http://sodipodi.sourceforge.net/DTD/sodipodi-0.dtd"
   xmlns:inkscape="http://www.inkscape.org/namespaces/inkscape"
   width="48"
   height="48"
   version="1"
   id="svg12"
   sodipodi:docname="kmahjongg.svg"
   inkscape:version="0.92.5 (2060ec1f9f, 2020-04-08)">
  <metadata
     id="metadata18">
    <rdf:RDF>
      <cc:Work
         rdf:about="">
        <dc:format>image/svg+xml</dc:format>
        <dc:type
           rdf:resource="http://purl.org/dc/dcmitype/StillImage" />
      </cc:Work>
    </rdf:RDF>
  </metadata>
  <defs
     id="defs16" />
  <sodipodi:namedview
     pagecolor="#ffffff"
     bordercolor="#666666"
     borderopacity="1"
     objecttolerance="10"
     gridtolerance="10"
     guidetolerance="10"
     inkscape:pageopacity="0"
     inkscape:pageshadow="2"
     inkscape:window-width="765"
     inkscape:window-height="480"
     id="namedview14"
     showgrid="false"
     inkscape:zoom="4.9166667"
     inkscape:cx="24"
     inkscape:cy="24"
     inkscape:window-x="0"
     inkscape:window-y="28"
     inkscape:window-maximized="0"
     inkscape:current-layer="svg12" />
  <rect
     fill="#c2352a"
     width="40"
     height="40"
     x="4"
     y="4"
     rx="2"
     ry="2"
     id="rect2"
     style="fill:#4c566a;fill-opacity:1" />
  <path
     opacity=".2"
     d="m21.02 11.23c-0.20885 0.18421-0.26106 0.46053-0.26106 0.7829 0 0.59868 0.20885 1.3355 0.31327 1.6118 0 0 0.15664 3.2237 0.20885 3.5921-0.46991 0.0461-1.3053 0.0921-1.6186 0.18421h-0.4177c-0.88762 0.0461-1.723 0.0921-2.0885 0.41448l-0.15664 0.13816 0.15664 0.18421c0.26106 0.27631 0.36548 1.0592 0.46991 1.8882 0.26106 1.704 0.57432 3.8224 2.1407 4.6513l0.31328 0.13816v-0.32237s0.0523-0.13816 0.0523-0.32237c0-0.13816-0.0523-0.36842-0.10441-0.69079 0.41769 0.0461 1.3053 0.13816 1.6186 0.13816 0.053 0.37 1.411 15.383 1.411 15.383h0.52212s0.57434-14.829 0.57434-15.289c0.36547 0 1.9841 0.0461 2.454 0.0921-0.1044 0.27632-0.52211 1.4276-0.52211 1.4276l0.73096-0.59868c0.20885-0.13816 4.7513-3.7763 4.1248-6.1711-0.20886-0.78289-0.93982-1.3355-2.1407-1.6118h-0.1046c-0.67875 0-2.7672 0.0461-4.3336 0.13816 0.0523-1.1974 0.0523-1.8421 0.0523-2.1645v-0.41442c0-0.23027 0.26106-0.55264 0.46991-0.7829 0.20886-0.27632 0.46991-0.50658 0.46991-0.78289 0-0.0921-0.0523-0.18422-0.10439-0.27632-0.31328-0.41447-2.6106-1.4737-3.6026-1.5658-0.31328 0.0461-0.52213 0.0921-0.62655 0.23026zm0.0523 7.5526h0.26106c0 0.41447 0.15664 3.3158 0.20885 3.7303-0.4177-0.0461-1.4097-0.13816-1.723-0.13816-0.15664-0.59869-0.20885-1.2434-0.26106-1.8882-0.0521-0.55263-0.10441-1.1053-0.20885-1.6118 0.46991 0 1.723-0.0921 1.723-0.0921zm3.185 1.4276s0.0521-1.1053 0.0521-1.4737c0.67875 0.0921 1.5664 0.13816 2.4018 0.13816h0.93983c0 0.18421-0.0523 0.41447-0.0523 0.41447-0.1044 1.0132-0.26106 2.2105-0.73098 3.4079-0.31326 0-2.2451-0.0921-2.6628-0.13816 0-0.32237 0.0523-2.3487 0.0523-2.3487z"
     id="path4" />
  <path
     fill="#fff"
     d="m21.02 10.23c-0.20885 0.18421-0.26106 0.46053-0.26106 0.7829 0 0.59868 0.20885 1.3355 0.31327 1.6118 0 0 0.15664 3.2237 0.20885 3.5921-0.46991 0.0461-1.3053 0.0921-1.6186 0.18421h-0.4177c-0.88762 0.0461-1.723 0.0921-2.0885 0.41448l-0.15664 0.13816 0.15664 0.18421c0.26106 0.27631 0.36548 1.0592 0.46991 1.8882 0.26106 1.704 0.57432 3.8224 2.1407 4.6513l0.31328 0.13816v-0.32237s0.0523-0.13816 0.0523-0.32237c0-0.13816-0.0523-0.36842-0.10441-0.69079 0.41769 0.0461 1.3053 0.13816 1.6186 0.13816 0.0523 0.36842 1.4097 15.382 1.4097 15.382h0.52212s0.57434-14.829 0.57434-15.289c0.36547 0 1.9841 0.0461 2.454 0.0921-0.1044 0.27632-0.52211 1.4276-0.52211 1.4276l0.73096-0.59868c0.20885-0.13816 4.7513-3.7763 4.1248-6.1711-0.20886-0.78289-0.93982-1.3355-2.1407-1.6118h-0.1046c-0.67875 0-2.7672 0.0461-4.3336 0.13816 0.0523-1.1974 0.0523-1.8421 0.0523-2.1645v-0.41442c0-0.23027 0.26106-0.55264 0.46991-0.7829 0.20886-0.27632 0.46991-0.50658 0.46991-0.78289 0-0.0921-0.0523-0.18422-0.10439-0.27632-0.31328-0.41447-2.6106-1.4737-3.6026-1.5658-0.31328 0.0461-0.52213 0.0921-0.62655 0.23026zm0.0523 7.5526h0.26106c0 0.41447 0.15664 3.3158 0.20885 3.7303-0.4177-0.0461-1.4097-0.13816-1.723-0.13816-0.15664-0.59869-0.20885-1.2434-0.26106-1.8882-0.0521-0.55263-0.10441-1.1053-0.20885-1.6118 0.46991 0 1.723-0.0921 1.723-0.0921zm3.185 1.4276s0.0521-1.1053 0.0521-1.4737c0.67875 0.0921 1.5664 0.13816 2.4018 0.13816h0.93983c0 0.18421-0.0523 0.41447-0.0523 0.41447-0.1044 1.0132-0.26106 2.2105-0.73098 3.4079-0.31326 0-2.2451-0.0921-2.6628-0.13816 0-0.32237 0.0523-2.3487 0.0523-2.3487z"
     id="path6" />
  <path
     fill="#fff"
     opacity=".2"
     d="m6 4c-1.108 0-2 0.892-2 2v1c0-1.108 0.892-2 2-2h36c1.108 0 2 0.892 2 2v-1c0-1.108-0.892-2-2-2h-36z"
     id="path8" />
  <path
     opacity=".2"
     d="m6 45c-1.108 0-2-0.892-2-2v-1c0 1.108 0.892 2 2 2h36c1.108 0 2-0.892 2-2v1c0 1.108-0.892 2-2 2h-36z"
     id="path10" />
</svg>
