<?xml version="1.0" encoding="UTF-8" standalone="no"?>
<svg
   xmlns:dc="http://purl.org/dc/elements/1.1/"
   xmlns:cc="http://creativecommons.org/ns#"
   xmlns:rdf="http://www.w3.org/1999/02/22-rdf-syntax-ns#"
   xmlns:svg="http://www.w3.org/2000/svg"
   xmlns="http://www.w3.org/2000/svg"
   xmlns:sodipodi="http://sodipodi.sourceforge.net/DTD/sodipodi-0.dtd"
   xmlns:inkscape="http://www.inkscape.org/namespaces/inkscape"
   width="48"
   height="48"
   version="1.1"
   id="svg14"
   sodipodi:docname="kodelife.svg"
   inkscape:version="0.92.5 (2060ec1f9f, 2020-04-08)">
  <metadata
     id="metadata20">
    <rdf:RDF>
      <cc:Work
         rdf:about="">
        <dc:format>image/svg+xml</dc:format>
        <dc:type
           rdf:resource="http://purl.org/dc/dcmitype/StillImage" />
      </cc:Work>
    </rdf:RDF>
  </metadata>
  <defs
     id="defs18" />
  <sodipodi:namedview
     pagecolor="#ffffff"
     bordercolor="#666666"
     borderopacity="1"
     objecttolerance="10"
     gridtolerance="10"
     guidetolerance="10"
     inkscape:pageopacity="0"
     inkscape:pageshadow="2"
     inkscape:window-width="765"
     inkscape:window-height="480"
     id="namedview16"
     showgrid="false"
     inkscape:zoom="4.9166667"
     inkscape:cx="-2.9491525"
     inkscape:cy="24"
     inkscape:window-x="0"
     inkscape:window-y="28"
     inkscape:window-maximized="0"
     inkscape:current-layer="g12" />
  <g
     transform="scale(2)"
     id="g12">
    <rect
       x="2"
       y="2.5"
       width="20"
       height="20"
       rx="1"
       ry="1"
       style="opacity:.2"
       id="rect2" />
    <rect
       x="2"
       y="2"
       width="20"
       height="20"
       rx="1"
       ry="1"
       style="fill:#4c566a;fill-opacity:1"
       id="rect4" />
    <path
       d="m3 2c-0.554 0-1 0.446-1 1v0.5c0-0.554 0.446-1 1-1h18c0.554 0 1 0.446 1 1v-0.5c0-0.554-0.446-1-1-1z"
       style="fill:#ffffff;opacity:.1"
       id="path6" />
    <path
       d="m6 5.5c-0.554 0-1 0.446-1 1v5.5l8-6.5zm10 0-6.334 5.1816 9.0313 8.5313c0.18552-0.18134 0.30273-0.43177 0.30273-0.71289v-12c0-0.554-0.446-1-1-1h-2zm-8 6.5-3 2.5v4c0 0.554 0.446 1 1 1h10z"
       style="opacity:.2"
       id="path8" />
    <path
       d="m6 5c-0.554 0-1 0.446-1 1v5.5l8-6.5zm10 0-6.334 5.1816 9.0313 8.5313c0.18552-0.18134 0.30273-0.43177 0.30273-0.71289v-12c0-0.554-0.446-1-1-1h-2zm-8 6.5-3 2.5v4c0 0.554 0.446 1 1 1h10z"
       style="fill:#ffffff"
       id="path10" />
  </g>
</svg>
