<?xml version="1.0" encoding="UTF-8" standalone="no"?>
<svg
   xmlns:dc="http://purl.org/dc/elements/1.1/"
   xmlns:cc="http://creativecommons.org/ns#"
   xmlns:rdf="http://www.w3.org/1999/02/22-rdf-syntax-ns#"
   xmlns:svg="http://www.w3.org/2000/svg"
   xmlns="http://www.w3.org/2000/svg"
   xmlns:sodipodi="http://sodipodi.sourceforge.net/DTD/sodipodi-0.dtd"
   xmlns:inkscape="http://www.inkscape.org/namespaces/inkscape"
   width="48"
   height="48"
   version="1"
   id="svg12"
   sodipodi:docname="kontact.svg"
   inkscape:version="0.92.5 (2060ec1f9f, 2020-04-08)">
  <metadata
     id="metadata18">
    <rdf:RDF>
      <cc:Work
         rdf:about="">
        <dc:format>image/svg+xml</dc:format>
        <dc:type
           rdf:resource="http://purl.org/dc/dcmitype/StillImage" />
      </cc:Work>
    </rdf:RDF>
  </metadata>
  <defs
     id="defs16" />
  <sodipodi:namedview
     pagecolor="#ffffff"
     bordercolor="#666666"
     borderopacity="1"
     objecttolerance="10"
     gridtolerance="10"
     guidetolerance="10"
     inkscape:pageopacity="0"
     inkscape:pageshadow="2"
     inkscape:window-width="765"
     inkscape:window-height="480"
     id="namedview14"
     showgrid="false"
     inkscape:zoom="4.9166667"
     inkscape:cx="-2.9491525"
     inkscape:cy="24"
     inkscape:window-x="0"
     inkscape:window-y="28"
     inkscape:window-maximized="0"
     inkscape:current-layer="svg12" />
  <circle
     style="fill:#4c566a;fill-opacity:1"
     cx="24"
     cy="24"
     r="20"
     id="circle2" />
  <path
     fill="#fff"
     opacity=".2"
     d="m24 4a20 20 0 0 0 -20 20 20 20 0 0 0 0.0215 0.582 20 20 0 0 1 19.978 -19.582 20 20 0 0 1 19.979 19.418 20 20 0 0 0 0.021 -0.418 20 20 0 0 0 -20 -20z"
     id="path4" />
  <path
     opacity=".2"
     d="m43.979 24.418a20 20 0 0 1 -19.979 19.582 20 20 0 0 1 -19.978 -19.418 20 20 0 0 0 -0.022 0.418 20 20 0 0 0 20 20 20 20 0 0 0 20 -20 20 20 0 0 0 -0.021 -0.582z"
     id="path6" />
  <path
     style="opacity:0.2"
     d="m 24,12 c -2.762,0 -5,2.239 -5,5 0,2.761 2.238,5 5,5 2.762,0 5,-2.239 5,-5 0,-2.761 -2.238,-5 -5,-5 z m 0,13 c -9.999,0.006 -10,6.4 -10,6.4 V 34 c 0,0 1.846142,4 10,4 8.153858,0 10,-4 10,-4 v -2.6 c 0,0 0,-6.404 -9.998,-6.4 z"
     id="path8" />
  <path
     style="fill:#ffffff;fill-opacity:1"
     d="m 24,11 c -2.762,0 -5,2.239 -5,5 0,2.761 2.238,5 5,5 2.762,0 5,-2.239 5,-5 0,-2.761 -2.238,-5 -5,-5 z m 0,13 c -9.999,0.006 -10,6.4 -10,6.4 V 33 c 0,0 1.846142,4 10,4 8.153858,0 10,-4 10,-4 v -2.6 c 0,0 0,-6.404 -9.998,-6.4 z"
     id="path10" />
</svg>
