<?xml version="1.0" encoding="UTF-8" standalone="no"?>
<svg
   xmlns:dc="http://purl.org/dc/elements/1.1/"
   xmlns:cc="http://creativecommons.org/ns#"
   xmlns:rdf="http://www.w3.org/1999/02/22-rdf-syntax-ns#"
   xmlns:svg="http://www.w3.org/2000/svg"
   xmlns="http://www.w3.org/2000/svg"
   xmlns:sodipodi="http://sodipodi.sourceforge.net/DTD/sodipodi-0.dtd"
   xmlns:inkscape="http://www.inkscape.org/namespaces/inkscape"
   width="48"
   height="48"
   version="1.1"
   id="svg16"
   sodipodi:docname="kde-im-log-viewer.svg"
   inkscape:version="0.92.5 (2060ec1f9f, 2020-04-08)">
  <metadata
     id="metadata22">
    <rdf:RDF>
      <cc:Work
         rdf:about="">
        <dc:format>image/svg+xml</dc:format>
        <dc:type
           rdf:resource="http://purl.org/dc/dcmitype/StillImage" />
      </cc:Work>
    </rdf:RDF>
  </metadata>
  <defs
     id="defs20" />
  <sodipodi:namedview
     pagecolor="#ffffff"
     bordercolor="#666666"
     borderopacity="1"
     objecttolerance="10"
     gridtolerance="10"
     guidetolerance="10"
     inkscape:pageopacity="0"
     inkscape:pageshadow="2"
     inkscape:window-width="640"
     inkscape:window-height="480"
     id="namedview18"
     showgrid="false"
     inkscape:zoom="4.9166667"
     inkscape:cx="-15.661017"
     inkscape:cy="24"
     inkscape:current-layer="svg16" />
  <path
     style="opacity:.2"
     d="m33 28h9.7l-9.7 17z"
     id="path2" />
  <path
     style="fill:#4c566a;fill-opacity:1"
     d="m33 27h9.7l-9.7 17z"
     id="path4" />
  <path
     style="opacity:.2"
     d="m44 22a20 17 0 0 1-20 17 20 17 0 0 1-20-17 20 17 0 0 1 20-17 20 17 0 0 1 20 17z"
     id="path6" />
  <path
     style="fill:#4c566a;fill-opacity:1"
     d="m44 21a20 17 0 0 1-20 17 20 17 0 0 1-20-17 20 17 0 0 1 20-17 20 17 0 0 1 20 17z"
     id="path8" />
  <path
     style="fill:#ffffff;opacity:.2"
     d="M 24 4 A 20 17 0 0 0 4 21 A 20 17 0 0 0 4.0253906 21.582031 A 20 17 0 0 1 24 5 A 20 17 0 0 1 43.974609 21.417969 A 20 17 0 0 0 44 21 A 20 17 0 0 0 24 4 z"
     id="path10" />
  <path
     style="opacity:.1"
     d="m25 12a10 10 0 0 0-1.980469 0.207031 10 10 0 0 1 7.980469 9.792969 10 10 0 0 1-8.019531 9.792969 10 10 0 0 0 2.019531 0.207031 10 10 0 0 0 10-10 10 10 0 0 0-10-10zm-10 3a2 2 0 0 0-2 2 2 2 0 0 0 2 2 2 2 0 0 0 2-2 2 2 0 0 0-2-2zm5 5c-1.108 0-2 0.892-2 2s0.892 2 2 2h6c1.108 0 2-0.892 2-2s-0.892-2-2-2zm-5 5c-1.1046 0-2 0.89543-2 2s0.89543 2 2 2c0.70697 0 1 2 1 2s1-3.6024 1-4c0-1.1046-0.89543-2-2-2z"
     id="path12" />
  <path
     style="fill:#ffffff;fill-opacity:1"
     d="m25 11a10 10 0 0 0-1.980469 0.207031 10 10 0 0 1 7.980469 9.792969 10 10 0 0 1-8.019531 9.792969 10 10 0 0 0 2.019531 0.207031 10 10 0 0 0 10-10 10 10 0 0 0-10-10zm-10 3a2 2 0 0 0-2 2 2 2 0 0 0 2 2 2 2 0 0 0 2-2 2 2 0 0 0-2-2zm5 5c-1.108 0-2 0.892-2 2s0.892 2 2 2h6c1.108 0 2-0.892 2-2s-0.892-2-2-2zm-5 5c-1.1046 0-2 0.89543-2 2s0.89543 2 2 2c0.70697 0 1 2 1 2s1-3.6024 1-4c0-1.1046-0.89543-2-2-2z"
     id="path14" />
</svg>
