<?xml version="1.0" encoding="UTF-8" standalone="no"?>
<svg
   xmlns:dc="http://purl.org/dc/elements/1.1/"
   xmlns:cc="http://creativecommons.org/ns#"
   xmlns:rdf="http://www.w3.org/1999/02/22-rdf-syntax-ns#"
   xmlns:svg="http://www.w3.org/2000/svg"
   xmlns="http://www.w3.org/2000/svg"
   xmlns:sodipodi="http://sodipodi.sourceforge.net/DTD/sodipodi-0.dtd"
   xmlns:inkscape="http://www.inkscape.org/namespaces/inkscape"
   width="48"
   height="48"
   version="1.1"
   id="svg36"
   sodipodi:docname="agenda.svg"
   inkscape:version="0.92.5 (2060ec1f9f, 2020-04-08)">
  <metadata
     id="metadata42">
    <rdf:RDF>
      <cc:Work
         rdf:about="">
        <dc:format>image/svg+xml</dc:format>
        <dc:type
           rdf:resource="http://purl.org/dc/dcmitype/StillImage" />
      </cc:Work>
    </rdf:RDF>
  </metadata>
  <defs
     id="defs40" />
  <sodipodi:namedview
     pagecolor="#ffffff"
     bordercolor="#666666"
     borderopacity="1"
     objecttolerance="10"
     gridtolerance="10"
     guidetolerance="10"
     inkscape:pageopacity="0"
     inkscape:pageshadow="2"
     inkscape:window-width="783"
     inkscape:window-height="480"
     id="namedview38"
     showgrid="false"
     inkscape:zoom="19.666667"
     inkscape:cx="13.811006"
     inkscape:cy="22.051908"
     inkscape:window-x="0"
     inkscape:window-y="28"
     inkscape:window-maximized="0"
     inkscape:current-layer="svg36" />
  <rect
     style="opacity:0.2"
     width="34"
     height="36"
     x="7"
     y="9"
     rx="3"
     ry="3"
     id="rect2" />
  <rect
     style="fill:#4c566a;fill-opacity:1"
     width="34"
     height="36"
     x="7"
     y="8"
     rx="3"
     ry="3"
     id="rect4" />
  <rect
     style="opacity:0.1"
     width="40"
     height="8"
     x="4"
     y="5"
     rx="3.333"
     ry="3"
     id="rect6" />
  <rect
     style="fill:#5f697d;fill-opacity:1"
     width="40"
     height="8"
     x="4"
     y="4"
     rx="3.333"
     ry="3"
     id="rect8" />
  <circle
     style="fill:#5f697d;fill-opacity:1"
     cx="12"
     cy="24"
     r="4"
     id="circle10" />
  <rect
     style="fill:#5f697d;fill-opacity:1"
     width="19"
     height="2"
     x="18"
     y="23"
     id="rect12" />
  <rect
     style="opacity:1;fill:#ffffff;fill-opacity:1"
     width="22"
     height="2"
     x="15"
     y="16"
     id="rect14" />
  <path
     style="opacity:0.2;fill:#ffffff"
     d="M 7.3339844 4 C 5.4873178 4 4 5.338 4 7 L 4 8 C 4 6.338 5.4873178 5 7.3339844 5 L 40.666016 5 C 42.512682 5 44 6.338 44 8 L 44 7 C 44 5.338 42.512682 4 40.666016 4 L 7.3339844 4 z"
     id="path16" />
  <circle
     style="opacity:0.2"
     cx="12"
     cy="25"
     r="2"
     id="circle18" />
  <circle
     style="fill:#ffffff"
     cx="12"
     cy="24"
     r="2"
     id="circle20" />
  <rect
     style="opacity:1;fill:#ffffff;fill-opacity:1"
     width="2"
     height="2"
     x="11"
     y="16"
     id="rect22" />
  <rect
     style="opacity:1;fill:#ffffff;fill-opacity:1"
     width="22"
     height="2"
     x="15"
     y="30"
     id="rect24" />
  <rect
     style="opacity:1;fill:#ffffff;fill-opacity:1"
     width="2"
     height="2"
     x="11"
     y="30"
     id="rect26" />
  <rect
     style="opacity:1;fill:#ffffff;fill-opacity:1"
     width="22"
     height="2"
     x="15"
     y="34"
     id="rect28" />
  <rect
     style="opacity:1;fill:#ffffff;fill-opacity:1"
     width="2"
     height="2"
     x="11"
     y="34"
     id="rect30" />
  <rect
     style="opacity:1;fill:#ffffff;fill-opacity:1"
     width="22"
     height="2"
     x="15"
     y="38"
     id="rect32" />
  <rect
     style="opacity:1;fill:#ffffff;fill-opacity:1"
     width="2"
     height="2"
     x="11"
     y="38"
     id="rect34" />
</svg>
