<?xml version="1.0" encoding="UTF-8" standalone="no"?>
<svg
   xmlns:dc="http://purl.org/dc/elements/1.1/"
   xmlns:cc="http://creativecommons.org/ns#"
   xmlns:rdf="http://www.w3.org/1999/02/22-rdf-syntax-ns#"
   xmlns:svg="http://www.w3.org/2000/svg"
   xmlns="http://www.w3.org/2000/svg"
   xmlns:sodipodi="http://sodipodi.sourceforge.net/DTD/sodipodi-0.dtd"
   xmlns:inkscape="http://www.inkscape.org/namespaces/inkscape"
   width="48"
   height="48"
   version="1"
   id="svg16"
   sodipodi:docname="yast-remote.svg"
   inkscape:version="0.92.5 (2060ec1f9f, 2020-04-08)">
  <metadata
     id="metadata22">
    <rdf:RDF>
      <cc:Work
         rdf:about="">
        <dc:format>image/svg+xml</dc:format>
        <dc:type
           rdf:resource="http://purl.org/dc/dcmitype/StillImage" />
      </cc:Work>
    </rdf:RDF>
  </metadata>
  <defs
     id="defs20" />
  <sodipodi:namedview
     pagecolor="#ffffff"
     bordercolor="#666666"
     borderopacity="1"
     objecttolerance="10"
     gridtolerance="10"
     guidetolerance="10"
     inkscape:pageopacity="0"
     inkscape:pageshadow="2"
     inkscape:window-width="765"
     inkscape:window-height="480"
     id="namedview18"
     showgrid="false"
     inkscape:zoom="9.8333333"
     inkscape:cx="29.035626"
     inkscape:cy="17.53589"
     inkscape:window-x="0"
     inkscape:window-y="28"
     inkscape:window-maximized="0"
     inkscape:current-layer="svg16" />
  <rect
     style="fill:#4c566a;fill-opacity:1"
     width="32"
     height="40"
     x="-40"
     y="-44"
     rx="2"
     ry="2"
     transform="matrix(0,-1,-1,0,0,0)"
     id="rect2" />
  <rect
     style="opacity:0.2"
     width="26"
     height="34"
     x="-37"
     y="-41"
     rx="0"
     ry="0"
     transform="matrix(0,-1,-1,0,0,0)"
     id="rect4" />
  <path
     fill="#fff"
     style="opacity:0.1"
     d="m6 8c-1.108 0-2 0.892-2 2v1c0-1.108 0.892-2 2-2h36c1.108 0 2 0.892 2 2v-1c0-1.108-0.892-2-2-2h-36z"
     id="path6" />
  <path
     opacity=".2"
     d="m4 38v1c0 1.108 0.892 2 2 2h36c1.108 0 2-0.892 2-2v-1c0 1.108-0.892 2-2 2h-36c-1.108 0-2-0.892-2-2z"
     id="path8" />
  <circle
     opacity=".2"
     cx="36"
     cy="37"
     r="11"
     id="circle10" />
  <circle
     fill="#48cd42"
     cx="36"
     cy="36"
     r="11"
     id="circle12"
     style="fill:#5f697d;fill-opacity:1" />
  <path
     fill="#fff"
     d="m30 30v1c0 0.55016 0.45347 1 1 1 4.9706 0 9 4.0294 9 9 0 0.55016 0.45347 1 1 1h1v-1c0-6.075-4.925-11-11-11h-1zm0 4v1c0 0.55016 0.45347 1 1 1 2.7614 0 5 2.2386 5 5 0 0.55016 0.45347 1 1 1h1v-1c0-3.866-3.134-7-7-7h-1zm2 4c-1.1046 0-2 0.89543-2 2s0.89543 2 2 2 2-0.89543 2-2-0.8954-2-2-2z"
     id="path14" />
</svg>
