<?xml version="1.0" encoding="UTF-8" standalone="no"?>
<svg
   xmlns:dc="http://purl.org/dc/elements/1.1/"
   xmlns:cc="http://creativecommons.org/ns#"
   xmlns:rdf="http://www.w3.org/1999/02/22-rdf-syntax-ns#"
   xmlns:svg="http://www.w3.org/2000/svg"
   xmlns="http://www.w3.org/2000/svg"
   xmlns:sodipodi="http://sodipodi.sourceforge.net/DTD/sodipodi-0.dtd"
   xmlns:inkscape="http://www.inkscape.org/namespaces/inkscape"
   width="48"
   height="48"
   version="1.1"
   id="svg12"
   sodipodi:docname="appimagekit-kuro.svg"
   inkscape:version="0.92.5 (2060ec1f9f, 2020-04-08)">
  <metadata
     id="metadata18">
    <rdf:RDF>
      <cc:Work
         rdf:about="">
        <dc:format>image/svg+xml</dc:format>
        <dc:type
           rdf:resource="http://purl.org/dc/dcmitype/StillImage" />
      </cc:Work>
    </rdf:RDF>
  </metadata>
  <defs
     id="defs16" />
  <sodipodi:namedview
     pagecolor="#ffffff"
     bordercolor="#666666"
     borderopacity="1"
     objecttolerance="10"
     gridtolerance="10"
     guidetolerance="10"
     inkscape:pageopacity="0"
     inkscape:pageshadow="2"
     inkscape:window-width="783"
     inkscape:window-height="480"
     id="namedview14"
     showgrid="false"
     inkscape:zoom="4.9166667"
     inkscape:cx="24"
     inkscape:cy="24"
     inkscape:window-x="0"
     inkscape:window-y="28"
     inkscape:window-maximized="0"
     inkscape:current-layer="svg12" />
  <path
     style="opacity:0.2"
     d="M 36.908203,8 C 36.394352,8 35.88202,8.2010117 35.488281,8.6015625 L 19.605469,24.757812 12.511719,17.595703 c -0.787478,-0.795104 -2.054319,-0.795104 -2.8417971,0 l -6.0800781,6.138672 c -0.7874781,0.795104 -0.7874781,2.07599 0,2.871094 L 18.248047,41.404297 c 0.295304,0.298164 0.657351,0.484053 1.037109,0.558594 C 19.411742,41.987738 19.541459,42 19.669922,42 c 0.128463,0 0.256226,-0.01226 0.382812,-0.03711 0.379758,-0.07454 0.741805,-0.26043 1.03711,-0.558594 l 6.080078,-6.138672 c 0.09331,-0.09421 0.174896,-0.194559 0.246094,-0.300781 l 16.99414,-17.28711 c 0.787478,-0.801101 0.787478,-2.091476 0,-2.892578 L 38.330078,8.6015625 C 37.936339,8.2010117 37.422054,8 36.908203,8 Z"
     id="path2" />
  <rect
     style="fill:#f6feff;fill-opacity:1"
     width="12.679"
     height="24.869"
     x="2.79"
     y="-43.42"
     ry="2.02"
     transform="matrix(-0.70369145,0.71050569,-0.70369145,-0.71050569,0,0)"
     id="rect4" />
  <path
     style="opacity:0.1;fill:#ffffff"
     d="M 11.091797 16 C 10.577946 16 10.063661 16.198151 9.6699219 16.595703 L 3.5898438 22.734375 C 3.0687606 23.260504 2.895923 23.99813 3.0644531 24.667969 C 3.1507795 24.326204 3.3239269 24.002867 3.5898438 23.734375 L 9.6699219 17.595703 C 10.4574 16.800599 11.724241 16.800599 12.511719 17.595703 L 27.169922 32.394531 C 27.436249 32.663438 27.609131 32.989683 27.695312 33.332031 C 27.864745 32.661633 27.691553 31.921213 27.169922 31.394531 L 12.511719 16.595703 C 12.11798 16.198151 11.605648 16 11.091797 16 z"
     id="path6" />
  <rect
     style="fill:#4c566a;fill-opacity:1"
     width="12.727"
     height="37.32"
     x="30.64"
     y="-22.01"
     ry="2.028"
     transform="matrix(0.70101695,0.71314461,-0.70101695,0.71314461,0,0)"
     id="rect8" />
  <path
     style="opacity:0.2;fill:#ffffff"
     d="M 36.908203 7 C 36.394352 7 35.88202 7.2010117 35.488281 7.6015625 L 12.167969 31.322266 C 11.646839 31.852411 11.47983 32.594592 11.648438 33.269531 C 11.734447 32.923903 11.901154 32.593697 12.167969 32.322266 L 35.488281 8.6015625 C 36.275759 7.8004609 37.5426 7.8004609 38.330078 8.6015625 L 44.410156 14.785156 C 44.676504 15.056112 44.843513 15.385509 44.929688 15.730469 C 45.097526 15.05601 44.930819 14.314827 44.410156 13.785156 L 38.330078 7.6015625 C 37.936339 7.2010117 37.422054 7 36.908203 7 z"
     id="path10" />
</svg>
