<?xml version="1.0" encoding="UTF-8" standalone="no"?>
<svg
   xmlns:dc="http://purl.org/dc/elements/1.1/"
   xmlns:cc="http://creativecommons.org/ns#"
   xmlns:rdf="http://www.w3.org/1999/02/22-rdf-syntax-ns#"
   xmlns:svg="http://www.w3.org/2000/svg"
   xmlns="http://www.w3.org/2000/svg"
   xmlns:sodipodi="http://sodipodi.sourceforge.net/DTD/sodipodi-0.dtd"
   xmlns:inkscape="http://www.inkscape.org/namespaces/inkscape"
   width="48"
   height="48"
   version="1"
   id="svg18"
   sodipodi:docname="libreoffice6.0-chart.svg"
   inkscape:version="0.92.5 (2060ec1f9f, 2020-04-08)">
  <metadata
     id="metadata24">
    <rdf:RDF>
      <cc:Work
         rdf:about="">
        <dc:format>image/svg+xml</dc:format>
        <dc:type
           rdf:resource="http://purl.org/dc/dcmitype/StillImage" />
      </cc:Work>
    </rdf:RDF>
  </metadata>
  <defs
     id="defs22" />
  <sodipodi:namedview
     pagecolor="#ffffff"
     bordercolor="#666666"
     borderopacity="1"
     objecttolerance="10"
     gridtolerance="10"
     guidetolerance="10"
     inkscape:pageopacity="0"
     inkscape:pageshadow="2"
     inkscape:window-width="783"
     inkscape:window-height="480"
     id="namedview20"
     showgrid="false"
     inkscape:zoom="4.9166667"
     inkscape:cx="24"
     inkscape:cy="24"
     inkscape:window-x="0"
     inkscape:window-y="28"
     inkscape:window-maximized="0"
     inkscape:current-layer="svg18" />
  <path
     style="fill:#5f697d;fill-opacity:1"
     d="m40 42v-36c0-1.108-0.892-2-2-2h-28c-1.108 0-2 0.892-2 2v36c0 1.108 0.892 2 2 2h28c1.108 0 2-0.892 2-2z"
     id="path2" />
  <path
     opacity=".1"
     d="m12 8c-1 0-1 1-1 1v32s0 1 1 1h24.062s0.938 0 0.938-1v-20l-12.234-13zm16.883 0 8.117 8.625v-7.625c0-1-1-1-1-1z"
     id="path4" />
  <path
     fill="#fff"
     opacity=".1"
     d="m10 4c-1.108 0-2 0.892-2 2v1c0-1.108 0.892-2 2-2h28c1.108 0 2 0.892 2 2v-1c0-1.108-0.892-2-2-2z"
     id="path6" />
  <path
     fill="#f5f5f5"
     d="m12 7c-1 0-1 1-1 1v32s0 1 1 1h24.062s0.938 0 0.938-1v-20l-12.234-13zm16.883 0 8.117 8.625v-7.625c0-1-1-1-1-1z"
     id="path8"
     style="fill:#4c566a;fill-opacity:1" />
  <path
     opacity=".2"
     d="m8 42v1c0 1.108 0.892 2 2 2h28c1.108 0 2-0.892 2-2v-1c0 1.108-0.892 2-2 2h-28c-1.108 0-2-0.892-2-2z"
     id="path10" />
  <rect
     style="opacity:1;fill:#ffffff;fill-opacity:1"
     width="4"
     height="10"
     x="15"
     y="26"
     id="rect12" />
  <rect
     style="opacity:1;fill:#ffffff;fill-opacity:1"
     width="4"
     height="14"
     x="22"
     y="22"
     id="rect14" />
  <rect
     style="opacity:1;fill:#ffffff;fill-opacity:1"
     width="4"
     height="7"
     x="29"
     y="29"
     id="rect16" />
</svg>
