<?xml version="1.0" encoding="UTF-8" standalone="no"?>
<svg
   xmlns:dc="http://purl.org/dc/elements/1.1/"
   xmlns:cc="http://creativecommons.org/ns#"
   xmlns:rdf="http://www.w3.org/1999/02/22-rdf-syntax-ns#"
   xmlns:svg="http://www.w3.org/2000/svg"
   xmlns="http://www.w3.org/2000/svg"
   xmlns:sodipodi="http://sodipodi.sourceforge.net/DTD/sodipodi-0.dtd"
   xmlns:inkscape="http://www.inkscape.org/namespaces/inkscape"
   width="48"
   height="48"
   version="1"
   id="svg14"
   sodipodi:docname="libreoffice4.2-math.svg"
   inkscape:version="0.92.5 (2060ec1f9f, 2020-04-08)">
  <metadata
     id="metadata20">
    <rdf:RDF>
      <cc:Work
         rdf:about="">
        <dc:format>image/svg+xml</dc:format>
        <dc:type
           rdf:resource="http://purl.org/dc/dcmitype/StillImage" />
      </cc:Work>
    </rdf:RDF>
  </metadata>
  <defs
     id="defs18" />
  <sodipodi:namedview
     pagecolor="#ffffff"
     bordercolor="#666666"
     borderopacity="1"
     objecttolerance="10"
     gridtolerance="10"
     guidetolerance="10"
     inkscape:pageopacity="0"
     inkscape:pageshadow="2"
     inkscape:window-width="783"
     inkscape:window-height="480"
     id="namedview16"
     showgrid="false"
     inkscape:zoom="4.9166667"
     inkscape:cx="28.870321"
     inkscape:cy="26.276843"
     inkscape:window-x="0"
     inkscape:window-y="28"
     inkscape:window-maximized="0"
     inkscape:current-layer="svg14" />
  <path
     fill="#636e73"
     d="m40 42v-36c0-1.108-0.892-2-2-2h-28c-1.108 0-2 0.892-2 2v36c0 1.108 0.892 2 2 2h28c1.108 0 2-0.892 2-2z"
     id="path2"
     style="fill:#5f697d;fill-opacity:1" />
  <path
     opacity=".1"
     d="m12 8c-1 0-1 1-1 1v32s0 1 1 1h24.062s0.938 0 0.938-1v-20l-12.234-13zm16.883 0 8.117 8.625v-7.625c0-1-1-1-1-1z"
     id="path4" />
  <path
     fill="#fff"
     opacity=".1"
     d="m10 4c-1.108 0-2 0.892-2 2v1c0-1.108 0.892-2 2-2h28c1.108 0 2 0.892 2 2v-1c0-1.108-0.892-2-2-2z"
     id="path6" />
  <path
     fill="#f5f5f5"
     d="m12 7c-1 0-1 1-1 1v32s0 1 1 1h24.062s0.938 0 0.938-1v-20l-12.234-13zm16.883 0 8.117 8.625v-7.625c0-1-1-1-1-1z"
     id="path8"
     style="fill:#4c566a;fill-opacity:1" />
  <path
     opacity=".2"
     d="m8 42v1c0 1.108 0.892 2 2 2h28c1.108 0 2-0.892 2-2v-1c0 1.108-0.892 2-2 2h-28c-1.108 0-2-0.892-2-2z"
     id="path10" />
  <path
     style="opacity:1;fill:#ffffff;fill-opacity:1"
     d="m 23.919922,22 -3.113281,10.9375 -2.3125,-5.789062 H 14 v 2.001953 h 3.185547 l 3.113281,7.841797 h 1.38086 l 3.703124,-12.976563 h 6.392579 V 22 Z m 1.498047,6 3.255859,4.291016 L 25.113281,37 h 1.777344 L 29.558594,33.464844 32.226562,37 h 1.777344 L 30.515625,32.378906 33.832031,28 H 32.054688 L 29.625,31.205078 27.193359,28 Z"
     id="path12" />
</svg>
