<?xml version="1.0" encoding="UTF-8" standalone="no"?>
<svg
   xmlns:dc="http://purl.org/dc/elements/1.1/"
   xmlns:cc="http://creativecommons.org/ns#"
   xmlns:rdf="http://www.w3.org/1999/02/22-rdf-syntax-ns#"
   xmlns:svg="http://www.w3.org/2000/svg"
   xmlns="http://www.w3.org/2000/svg"
   xmlns:sodipodi="http://sodipodi.sourceforge.net/DTD/sodipodi-0.dtd"
   xmlns:inkscape="http://www.inkscape.org/namespaces/inkscape"
   width="48"
   height="48"
   version="1.1"
   id="svg16"
   sodipodi:docname="appimagekit-Lightcord.svg"
   inkscape:version="0.92.5 (2060ec1f9f, 2020-04-08)">
  <metadata
     id="metadata22">
    <rdf:RDF>
      <cc:Work
         rdf:about="">
        <dc:format>image/svg+xml</dc:format>
        <dc:type
           rdf:resource="http://purl.org/dc/dcmitype/StillImage" />
      </cc:Work>
    </rdf:RDF>
  </metadata>
  <defs
     id="defs20" />
  <sodipodi:namedview
     pagecolor="#ffffff"
     bordercolor="#666666"
     borderopacity="1"
     objecttolerance="10"
     gridtolerance="10"
     guidetolerance="10"
     inkscape:pageopacity="0"
     inkscape:pageshadow="2"
     inkscape:window-width="783"
     inkscape:window-height="480"
     id="namedview18"
     showgrid="false"
     inkscape:zoom="9.8333333"
     inkscape:cx="32.631297"
     inkscape:cy="17.319224"
     inkscape:window-x="0"
     inkscape:window-y="28"
     inkscape:window-maximized="0"
     inkscape:current-layer="svg16" />
  <rect
     style="fill:#4c566a;fill-opacity:1"
     width="36"
     height="36"
     x="6"
     y="3"
     rx="3"
     ry="3"
     id="rect2" />
  <path
     style="opacity:0.2"
     d="m 6,36 v 1 c 0,1.662 1.338,3 3,3 h 27 l 6,6 V 45 L 36,39 H 9 C 7.338,39 6,37.662 6,36 Z"
     id="path4" />
  <path
     style="fill:#4c566a;fill-rule:evenodd;fill-opacity:1"
     d="M 42,45 32,35 h 10 z"
     id="path6" />
  <path
     style="opacity:0.2"
     d="m 20.720703,13 c 0,0 -2.798366,-0.06395 -5.759765,2.248047 C 11.999538,17.560047 11,20.843528 11,27.736328 c 0,0 2.726484,3.112472 7.271484,3.263672 0,0 0.761947,-0.950384 1.378907,-1.771484 -2.6118,-0.8211 -3.59961,-2.529297 -3.59961,-2.529297 C 18.287876,28.241422 21.360363,28.959499 24,29 c 2.639637,-0.0405 5.712124,-0.758578 7.949219,-2.300781 0,0 -0.98781,1.708197 -3.59961,2.529297 C 28.966569,30.049616 29.728516,31 29.728516,31 34.273516,30.8488 37,27.736328 37,27.736328 37,20.843528 36.000462,17.560047 33.039062,15.248047 30.077663,12.936047 27.279297,13 27.279297,13 l -0.205078,0.203125 c 3.7018,1.102 5.388672,2.808594 5.388672,2.808594 0,0 -0.451961,-0.259669 -1.212891,-0.605469 C 29.382626,14.567526 27,14 24,14 c -3,0 -5.382626,0.567526 -7.25,1.40625 -0.76093,0.3458 -1.212891,0.605469 -1.212891,0.605469 0,0 1.686872,-1.706594 5.388672,-2.808594 C 20.878751,13.119187 20.720703,13 20.720703,13 Z M 20,21 c 1.1175,0 2.0195,1.1138 2,2.5 0,1.3865 -0.88246,2.5 -2,2.5 -1.0979,0 -2,-1.1135 -2,-2.5 0,-1.3862 0.88247,-2.5 2,-2.5 z m 8,0 c 1.11753,0 2,1.1138 2,2.5 0,1.3865 -0.9021,2.5 -2,2.5 -1.11754,0 -2,-1.1135 -2,-2.5 -0.0195,-1.3862 0.8825,-2.5 2,-2.5 z"
     id="path8" />
  <path
     style="fill:#ffffff"
     d="m 20.720703,12 c 0,0 -2.798366,-0.06395 -5.759765,2.248047 C 11.999538,16.560047 11,19.843528 11,26.736328 c 0,0 2.726484,3.112472 7.271484,3.263672 0,0 0.761947,-0.950384 1.378907,-1.771484 -2.6118,-0.8211 -3.59961,-2.529297 -3.59961,-2.529297 C 18.287876,27.241422 21.360363,27.959499 24,28 c 2.639637,-0.0405 5.712124,-0.758578 7.949219,-2.300781 0,0 -0.98781,1.708197 -3.59961,2.529297 C 28.966569,29.049616 29.728516,30 29.728516,30 34.273516,29.8488 37,26.736328 37,26.736328 37,19.843528 36.000462,16.560047 33.039062,14.248047 30.077663,11.936047 27.279297,12 27.279297,12 l -0.205078,0.203125 c 3.7018,1.102 5.388672,2.808594 5.388672,2.808594 0,0 -0.451961,-0.259669 -1.212891,-0.605469 C 29.382626,13.567526 27,13 24,13 c -3,0 -5.382626,0.567526 -7.25,1.40625 -0.76093,0.3458 -1.212891,0.605469 -1.212891,0.605469 0,0 1.686872,-1.706594 5.388672,-2.808594 C 20.878751,12.119187 20.720703,12 20.720703,12 Z M 20,20 c 1.1175,0 2.0195,1.1138 2,2.5 0,1.3865 -0.88246,2.5 -2,2.5 -1.0979,0 -2,-1.1135 -2,-2.5 0,-1.3862 0.88247,-2.5 2,-2.5 z m 8,0 c 1.11753,0 2,1.1138 2,2.5 0,1.3865 -0.9021,2.5 -2,2.5 -1.11754,0 -2,-1.1135 -2,-2.5 -0.0195,-1.3862 0.8825,-2.5 2,-2.5 z"
     id="path10" />
  <path
     style="opacity:0.2;fill:#ffffff"
     d="M 9,3 C 9,3 6,3 6,6 V 7 C 6,4 9,4 9,4 h 30 c 0,0 3,0 3,3 V 6 C 42,3 39,3 39,3 Z"
     id="path12" />
  <path
     style="opacity:0.2;fill-rule:evenodd"
     d="M 32,36 42,46 V 45 L 33,36 Z"
     id="path14" />
</svg>
