<?xml version="1.0" encoding="UTF-8" standalone="no"?>
<svg
   xmlns:dc="http://purl.org/dc/elements/1.1/"
   xmlns:cc="http://creativecommons.org/ns#"
   xmlns:rdf="http://www.w3.org/1999/02/22-rdf-syntax-ns#"
   xmlns:svg="http://www.w3.org/2000/svg"
   xmlns="http://www.w3.org/2000/svg"
   xmlns:sodipodi="http://sodipodi.sourceforge.net/DTD/sodipodi-0.dtd"
   xmlns:inkscape="http://www.inkscape.org/namespaces/inkscape"
   width="48"
   height="48"
   version="1.1"
   id="svg14"
   sodipodi:docname="logseq.svg"
   inkscape:version="0.92.5 (2060ec1f9f, 2020-04-08)">
  <metadata
     id="metadata20">
    <rdf:RDF>
      <cc:Work
         rdf:about="">
        <dc:format>image/svg+xml</dc:format>
        <dc:type
           rdf:resource="http://purl.org/dc/dcmitype/StillImage" />
      </cc:Work>
    </rdf:RDF>
  </metadata>
  <defs
     id="defs18" />
  <sodipodi:namedview
     pagecolor="#ffffff"
     bordercolor="#666666"
     borderopacity="1"
     objecttolerance="10"
     gridtolerance="10"
     guidetolerance="10"
     inkscape:pageopacity="0"
     inkscape:pageshadow="2"
     inkscape:window-width="814"
     inkscape:window-height="480"
     id="namedview16"
     showgrid="false"
     inkscape:zoom="4.9166667"
     inkscape:cx="-55.322034"
     inkscape:cy="24"
     inkscape:current-layer="svg14"
     inkscape:window-x="0"
     inkscape:window-y="28"
     inkscape:window-maximized="0" />
  <rect
     style="opacity:.2"
     width="40"
     height="40"
     x="4"
     y="5"
     rx="3"
     ry="3"
     id="rect2" />
  <rect
     style="fill:#4c566a;fill-opacity:1"
     width="40"
     height="40"
     x="4"
     y="4"
     rx="3"
     ry="3"
     id="rect4" />
  <path
     style="fill:#ffffff;opacity:.1"
     d="m7 4c-1.662 0-3 1.3379999-3 3v1c0-1.6620001 1.338-3 3-3h34c1.662 0 3 1.3379999 3 3v-1c0-1.6620001-1.338-3-3-3h-34z"
     id="path6" />
  <path
     style="opacity:0.2"
     d="m 27.265625,12 a 2.9171887,4.5541203 78.453373 0 0 -1.755859,0.236328 2.9171887,4.5541203 78.453373 0 0 -3.400391,3.933594 2.9171887,4.5541203 78.453373 0 0 5.380859,1.59375 2.9171887,4.5541203 78.453373 0 0 3.400391,-3.933594 A 2.9171887,4.5541203 78.453373 0 0 27.265625,12 Z m -14.068359,1.005859 a 5.0108764,3.9231511 45.000001 0 0 -2.353516,1.070313 5.0108764,3.9231511 45.000001 0 0 1.033203,6.34375 5.0108764,3.9231511 45.000001 0 0 6.279297,0.503906 5.0108764,3.9231511 45.000001 0 0 -1.033203,-6.34375 5.0108764,3.9231511 45.000001 0 0 -3.925781,-1.574219 z M 26.5,21 A 10.5,8 0 0 0 16,29 10.5,8 0 0 0 26.5,37 10.5,8 0 0 0 37,29 10.5,8 0 0 0 26.5,21 Z"
     id="path8" />
  <path
     style="fill:#d8dee9;fill-opacity:1"
     d="M 27.265625 11 A 2.9171887 4.5541203 78.453373 0 0 25.509766 11.236328 A 2.9171887 4.5541203 78.453373 0 0 22.109375 15.169922 A 2.9171887 4.5541203 78.453373 0 0 27.490234 16.763672 A 2.9171887 4.5541203 78.453373 0 0 30.890625 12.830078 A 2.9171887 4.5541203 78.453373 0 0 27.265625 11 z M 13.197266 12.005859 A 5.0108764 3.9231511 45.000001 0 0 10.84375 13.076172 A 5.0108764 3.9231511 45.000001 0 0 11.876953 19.419922 A 5.0108764 3.9231511 45.000001 0 0 18.15625 19.923828 A 5.0108764 3.9231511 45.000001 0 0 17.123047 13.580078 A 5.0108764 3.9231511 45.000001 0 0 13.197266 12.005859 z M 26.5 20 A 10.5 8 0 0 0 16 28 A 10.5 8 0 0 0 26.5 36 A 10.5 8 0 0 0 37 28 A 10.5 8 0 0 0 26.5 20 z"
     id="path10" />
  <path
     style="opacity:0.2;fill:#ffffff"
     d="M 27.265625 11 A 2.9171887 4.5541203 78.453373 0 0 25.509766 11.236328 A 2.9171887 4.5541203 78.453373 0 0 22.083984 15.023438 A 2.9171887 4.5541203 78.453373 0 1 25.509766 12.236328 A 2.9171887 4.5541203 78.453373 0 1 27.265625 12 A 2.9171887 4.5541203 78.453373 0 1 30.890625 13.830078 A 2.9171887 4.5541203 78.453373 0 1 30.916016 13.976562 A 2.9171887 4.5541203 78.453373 0 0 30.890625 12.830078 A 2.9171887 4.5541203 78.453373 0 0 27.265625 11 z M 13.197266 12.005859 A 5.0108764 3.9231511 45.000001 0 0 10.84375 13.076172 A 5.0108764 3.9231511 45.000001 0 0 10.052734 15.929688 A 5.0108764 3.9231511 45.000001 0 1 10.84375 14.076172 A 5.0108764 3.9231511 45.000001 0 1 13.197266 13.005859 A 5.0108764 3.9231511 45.000001 0 1 17.123047 14.580078 A 5.0108764 3.9231511 45.000001 0 1 18.947266 18.070312 A 5.0108764 3.9231511 45.000001 0 0 17.123047 13.580078 A 5.0108764 3.9231511 45.000001 0 0 13.197266 12.005859 z M 26.5 20 A 10.5 8 0 0 0 16 28 A 10.5 8 0 0 0 16.050781 28.5 A 10.5 8 0 0 1 26.5 21 A 10.5 8 0 0 1 36.962891 28.365234 A 10.5 8 0 0 0 37 28 A 10.5 8 0 0 0 26.5 20 z"
     id="path12" />
</svg>
