<?xml version="1.0" encoding="UTF-8" standalone="no"?>
<svg
   xmlns:dc="http://purl.org/dc/elements/1.1/"
   xmlns:cc="http://creativecommons.org/ns#"
   xmlns:rdf="http://www.w3.org/1999/02/22-rdf-syntax-ns#"
   xmlns:svg="http://www.w3.org/2000/svg"
   xmlns="http://www.w3.org/2000/svg"
   xmlns:sodipodi="http://sodipodi.sourceforge.net/DTD/sodipodi-0.dtd"
   xmlns:inkscape="http://www.inkscape.org/namespaces/inkscape"
   width="48"
   height="48"
   version="1"
   id="svg14"
   sodipodi:docname="links_32x32.xpm.svg"
   inkscape:version="0.92.5 (2060ec1f9f, 2020-04-08)">
  <metadata
     id="metadata20">
    <rdf:RDF>
      <cc:Work
         rdf:about="">
        <dc:format>image/svg+xml</dc:format>
        <dc:type
           rdf:resource="http://purl.org/dc/dcmitype/StillImage" />
      </cc:Work>
    </rdf:RDF>
  </metadata>
  <defs
     id="defs18" />
  <sodipodi:namedview
     pagecolor="#ffffff"
     bordercolor="#666666"
     borderopacity="1"
     objecttolerance="10"
     gridtolerance="10"
     guidetolerance="10"
     inkscape:pageopacity="0"
     inkscape:pageshadow="2"
     inkscape:window-width="640"
     inkscape:window-height="480"
     id="namedview16"
     showgrid="false"
     inkscape:zoom="4.9166667"
     inkscape:cx="-15.661017"
     inkscape:cy="24"
     inkscape:current-layer="svg14" />
  <rect
     width="40"
     height="40"
     x="-44.40678"
     y="-44"
     rx="20"
     ry="20"
     transform="matrix(0,-1,-1,0,0,0)"
     id="rect2"
     style="fill:#4c566a;fill-opacity:1" />
  <path
     fill="#fff"
     opacity=".2"
     d="m24 4.0182c-11.07 0-19.982 8.9119-19.982 19.982 0 0.16757-0.004 0.33299 0 0.49955 0.2644-10.837 9.08-19.483 19.982-19.483s19.718 8.6458 19.982 19.482c0.004-0.16656 0-0.33198 0-0.49955 0-11.069-8.912-19.981-19.982-19.981z"
     id="path4" />
  <path
     fill="#f2f2f2"
     d="m9.8707 38.129 12.363-15.895l1.673 1.673 1.8593 1.8593z"
     id="path6" />
  <path
     inkscape:connector-curvature="0"
     d="m 38.049195,9.9508051 -15.895,12.3629999 3.532,3.532 z"
     id="path8"
     style="fill:#7d879b;fill-opacity:1" />
  <path
     fill="#fff"
     opacity=".2"
     d="m38.129 9.8707-28.258 28.258c-7.8276-7.8276-7.8276-20.431 0-28.259 7.828-7.8279 20.431-7.8279 28.259-0.0003z"
     id="path10" />
  <path
     opacity=".2"
     d="m4.0312 24.526c-0.0039 0.164-0.0136 0.327-0.0136 0.492 0 11.07 8.9124 19.982 19.982 19.982s19.982-8.912 19.982-19.982c0-0.165-0.009-0.328-0.013-0.492-0.26 10.841-9.064 19.492-19.969 19.492s-19.709-8.651-19.969-19.492z"
     id="path12" />
</svg>
