<?xml version="1.0" encoding="UTF-8" standalone="no"?>
<svg
   xmlns:dc="http://purl.org/dc/elements/1.1/"
   xmlns:cc="http://creativecommons.org/ns#"
   xmlns:rdf="http://www.w3.org/1999/02/22-rdf-syntax-ns#"
   xmlns:svg="http://www.w3.org/2000/svg"
   xmlns="http://www.w3.org/2000/svg"
   xmlns:sodipodi="http://sodipodi.sourceforge.net/DTD/sodipodi-0.dtd"
   xmlns:inkscape="http://www.inkscape.org/namespaces/inkscape"
   width="48"
   height="48"
   version="1"
   id="svg16"
   sodipodi:docname="kdisknav.svg"
   inkscape:version="0.92.5 (2060ec1f9f, 2020-04-08)">
  <metadata
     id="metadata22">
    <rdf:RDF>
      <cc:Work
         rdf:about="">
        <dc:format>image/svg+xml</dc:format>
        <dc:type
           rdf:resource="http://purl.org/dc/dcmitype/StillImage" />
      </cc:Work>
    </rdf:RDF>
  </metadata>
  <defs
     id="defs20" />
  <sodipodi:namedview
     pagecolor="#ffffff"
     bordercolor="#666666"
     borderopacity="1"
     objecttolerance="10"
     gridtolerance="10"
     guidetolerance="10"
     inkscape:pageopacity="0"
     inkscape:pageshadow="2"
     inkscape:window-width="783"
     inkscape:window-height="480"
     id="namedview18"
     showgrid="false"
     inkscape:zoom="4.9166667"
     inkscape:cx="24"
     inkscape:cy="24"
     inkscape:window-x="0"
     inkscape:window-y="28"
     inkscape:window-maximized="0"
     inkscape:current-layer="svg16" />
  <path
     fill="#e3af4a"
     d="m44 39v-30c0-1.108-0.892-2-2-2h-36c-1.108 0-2 0.892-2 2v30c0 1.108 0.892 2 2 2h36c1.108 0 2-0.892 2-2z"
     id="path2"
     style="fill:#4c566a;fill-opacity:1" />
  <rect
     opacity=".2"
     width="28"
     height="22"
     x="10"
     y="14"
     rx="1.89"
     ry="2.002"
     id="rect4" />
  <path
     opacity=".2"
     d="m4 39v1c0 1.108 0.892 2 2 2h36c1.108 0 2-0.892 2-2v-1c0 1.108-0.892 2-2 2h-36c-1.108 0-2-0.892-2-2z"
     id="path6" />
  <path
     fill="#fff"
     opacity=".2"
     d="m6 7c-1.108 0-2 0.892-2 2v1c0-1.108 0.892-2 2-2h36c1.108 0 2 0.892 2 2v-1c0-1.108-0.892-2-2-2h-36z"
     id="path8" />
  <rect
     fill="#faff84"
     width="28"
     height="22"
     x="10"
     y="13"
     rx="1.89"
     ry="2.002"
     id="rect10"
     style="fill:#5f697d;fill-opacity:1" />
  <rect
     opacity=".2"
     width="12"
     height="4"
     x="18"
     y="23"
     rx="1.984"
     ry="1.825"
     id="rect12" />
  <rect
     fill="#4e4e4e"
     width="12"
     height="4"
     x="18"
     y="22"
     rx="1.984"
     ry="1.825"
     id="rect14"
     style="fill:#ffffff;fill-opacity:1" />
</svg>
