<?xml version="1.0" encoding="UTF-8" standalone="no"?>
<svg
   xmlns:dc="http://purl.org/dc/elements/1.1/"
   xmlns:cc="http://creativecommons.org/ns#"
   xmlns:rdf="http://www.w3.org/1999/02/22-rdf-syntax-ns#"
   xmlns:svg="http://www.w3.org/2000/svg"
   xmlns="http://www.w3.org/2000/svg"
   xmlns:sodipodi="http://sodipodi.sourceforge.net/DTD/sodipodi-0.dtd"
   xmlns:inkscape="http://www.inkscape.org/namespaces/inkscape"
   width="48"
   height="48"
   version="1.1"
   id="svg12"
   sodipodi:docname="mattermost.svg"
   inkscape:version="0.92.5 (2060ec1f9f, 2020-04-08)">
  <metadata
     id="metadata18">
    <rdf:RDF>
      <cc:Work
         rdf:about="">
        <dc:format>image/svg+xml</dc:format>
        <dc:type
           rdf:resource="http://purl.org/dc/dcmitype/StillImage" />
      </cc:Work>
    </rdf:RDF>
  </metadata>
  <defs
     id="defs16" />
  <sodipodi:namedview
     pagecolor="#ffffff"
     bordercolor="#666666"
     borderopacity="1"
     objecttolerance="10"
     gridtolerance="10"
     guidetolerance="10"
     inkscape:pageopacity="0"
     inkscape:pageshadow="2"
     inkscape:window-width="783"
     inkscape:window-height="480"
     id="namedview14"
     showgrid="false"
     inkscape:zoom="4.9166667"
     inkscape:cx="24"
     inkscape:cy="24"
     inkscape:window-x="0"
     inkscape:window-y="28"
     inkscape:window-maximized="0"
     inkscape:current-layer="svg12" />
  <circle
     style="opacity:0.2"
     cx="24"
     cy="25"
     r="20"
     id="circle2" />
  <circle
     style="fill:#4c566a;fill-opacity:1"
     cx="24"
     cy="24"
     r="20"
     id="circle4" />
  <path
     style="opacity:0.2;fill:#ffffff"
     d="M 24,4 A 20,20 0 0 0 4,24 20,20 0 0 0 4.0196,24.586 20,20 0 0 1 24,5 20,20 0 0 1 43.98,24.414 20,20 0 0 0 44,24 20,20 0 0 0 24,4 Z"
     id="path6" />
  <path
     style="opacity:0.2"
     d="M 23.683594,11.015625 A 14,14 0 0 0 10,25 14,14 0 0 0 24,39 14,14 0 0 0 38,25 14,14 0 0 0 31.972656,13.535156 l 0,3.460938 A 10,10 0 0 1 34,23 10,10 0 0 1 24,33 10,10 0 0 1 14,23 10,10 0 0 1 21.816406,13.253906 c 0.572134,-0.681619 1.280612,-1.53408 1.578126,-1.898437 0.09974,-0.122148 0.19272,-0.226071 0.289062,-0.339844 z m 3.597656,2.003906 c -0.07394,0.03271 -0.427632,0.424553 -0.789062,0.867188 -0.361428,0.442634 -1.150692,1.388778 -1.753906,2.105469 -0.603214,0.71669 -1.748738,2.088628 -2.54297,3.046874 -1.56033,1.882542 -1.80937,2.26213 -2.066406,3.15625 -0.160528,0.558434 -0.174654,1.46049 -0.03126,1.984376 0.393134,1.436176 1.707584,2.512488 3.402344,2.789062 0.07704,0.0126 0.343366,0.02786 0.589844,0.03126 1.026922,0.0148 1.900318,-0.33208 2.640624,-1.050782 0.390172,-0.378786 0.498448,-0.527794 0.738282,-1.011718 0.15454,-0.3118 0.3223,-0.727454 0.375,-0.921876 0.1352,-0.498674 0.19922,-1.528992 0.1289,-3.886718 l 0,-6.867187 c -0.03681,-0.185589 -0.52451,-0.316016 -0.69139,-0.242198 z"
     id="path8" />
  <path
     style="fill:#ffffff"
     d="M 23.683594,10.015625 A 14,14 0 0 0 10,24 14,14 0 0 0 24,38 14,14 0 0 0 38,24 14,14 0 0 0 31.972656,12.535156 l 0,3.460938 A 10,10 0 0 1 34,22 10,10 0 0 1 24,32 10,10 0 0 1 14,22 10,10 0 0 1 21.816406,12.253906 c 0.572134,-0.681619 1.280612,-1.53408 1.578126,-1.898437 0.09974,-0.122148 0.19272,-0.226071 0.289062,-0.339844 z m 3.597656,2.003906 c -0.07394,0.03271 -0.427632,0.424553 -0.789062,0.867188 -0.361428,0.442634 -1.150692,1.388778 -1.753906,2.105469 -0.603214,0.71669 -1.748738,2.088628 -2.54297,3.046874 -1.56033,1.882541 -1.80937,2.26213 -2.066406,3.15625 -0.160528,0.558434 -0.174654,1.46049 -0.03126,1.984376 0.393134,1.436176 1.707584,2.512488 3.402344,2.789062 0.07704,0.0126 0.343366,0.02786 0.589844,0.03126 1.026922,0.0148 1.900318,-0.33208 2.640624,-1.050782 0.390172,-0.378786 0.498448,-0.527794 0.738282,-1.011718 0.15454,-0.3118 0.3223,-0.727454 0.375,-0.921876 0.1352,-0.498674 0.19922,-1.528992 0.1289,-3.886718 l 0,-6.867187 c -0.03681,-0.185589 -0.52451,-0.316016 -0.69139,-0.242198 z"
     id="path10" />
</svg>
