<?xml version="1.0" encoding="UTF-8" standalone="no"?>
<svg
   xmlns:dc="http://purl.org/dc/elements/1.1/"
   xmlns:cc="http://creativecommons.org/ns#"
   xmlns:rdf="http://www.w3.org/1999/02/22-rdf-syntax-ns#"
   xmlns:svg="http://www.w3.org/2000/svg"
   xmlns="http://www.w3.org/2000/svg"
   xmlns:sodipodi="http://sodipodi.sourceforge.net/DTD/sodipodi-0.dtd"
   xmlns:inkscape="http://www.inkscape.org/namespaces/inkscape"
   width="48"
   height="48"
   version="1.1"
   id="svg12"
   sodipodi:docname="mednaffe.svg"
   inkscape:version="0.92.5 (2060ec1f9f, 2020-04-08)">
  <metadata
     id="metadata18">
    <rdf:RDF>
      <cc:Work
         rdf:about="">
        <dc:format>image/svg+xml</dc:format>
        <dc:type
           rdf:resource="http://purl.org/dc/dcmitype/StillImage" />
      </cc:Work>
    </rdf:RDF>
  </metadata>
  <defs
     id="defs16" />
  <sodipodi:namedview
     pagecolor="#ffffff"
     bordercolor="#666666"
     borderopacity="1"
     objecttolerance="10"
     gridtolerance="10"
     guidetolerance="10"
     inkscape:pageopacity="0"
     inkscape:pageshadow="2"
     inkscape:window-width="765"
     inkscape:window-height="480"
     id="namedview14"
     showgrid="false"
     inkscape:zoom="4.9166667"
     inkscape:cx="-2.9491525"
     inkscape:cy="24"
     inkscape:window-x="0"
     inkscape:window-y="28"
     inkscape:window-maximized="0"
     inkscape:current-layer="svg12" />
  <circle
     style="opacity:0.2"
     cx="24"
     cy="25"
     r="20"
     id="circle2" />
  <circle
     style="fill:#4c566a;fill-opacity:1"
     cx="24"
     cy="24"
     r="20"
     id="circle4" />
  <path
     style="opacity:0.1;fill:#ffffff"
     d="M 24,4 A 20,20 0 0 0 4,24 20,20 0 0 0 4.0215,24.582 20,20 0 0 1 24,5 20,20 0 0 1 43.979,24.418 20,20 0 0 0 44,24 20,20 0 0 0 24,4 Z"
     id="path6" />
  <path
     style="opacity:0.1"
     d="m 14,13.973548 c -1.108,0 -2,0.892 -2,2 0,1.108 0.892,2 2,2 v 15 h -1 c -1.108,0 -2,0.892 -2,2 0,1.108 0.892,2 2,2 h 2.675781 a 2.0002,2.0002 0 0 0 0.648438,0 H 19 c 1.108,0 2,-0.892 2,-2 0,-1.108 -0.892,-2 -2,-2 H 18 V 21.04972 l 4.162109,9.710937 a 2.0002,2.0002 0 0 0 3.675782,0 L 30,21.04972 V 32.973548 H 28.974609 C 27.880694,32.973548 27,33.854242 27,34.948157 v 0.05078 c 0,1.093917 0.880694,1.974611 1.974609,1.974611 h 2.701172 a 2.0002,2.0002 0 0 0 0.648438,0 h 2.701172 C 36.119306,36.973548 37,36.092854 37,34.998939 v -0.05078 c 0,-1.093917 -0.880694,-1.974611 -1.974609,-1.974611 H 34 v -15 c 1.108,0 2,-0.892 2,-2 0,-1.108 -0.892,-2 -2,-2 h -2 -1 -1 a 2.0002,2.0002 0 0 0 -1.837891,1.212891 L 24,24.897376 19.837891,15.186439 A 2.0002,2.0002 0 0 0 18,13.973548 h -1 -1 z"
     id="path8" />
  <path
     style="fill:#ffffff;fill-opacity:1"
     d="M 14 13 C 12.892 13 12 13.892 12 15 C 12 16.108 12.892 17 14 17 L 14 32 L 13 32 C 11.892 32 11 32.892 11 34 C 11 35.108 11.892 36 13 36 L 15.675781 36 A 2.0002 2.0002 0 0 0 16.324219 36 L 19 36 C 20.108 36 21 35.108 21 34 C 21 32.892 20.108 32 19 32 L 18 32 L 18 20.076172 L 22.162109 29.787109 A 2.0002 2.0002 0 0 0 25.837891 29.787109 L 30 20.076172 L 30 32 L 28.974609 32 C 27.880694 32 27 32.880694 27 33.974609 L 27 34.025391 C 27 35.119306 27.880694 36 28.974609 36 L 31.675781 36 A 2.0002 2.0002 0 0 0 32.324219 36 L 35.025391 36 C 36.119306 36 37 35.119306 37 34.025391 L 37 33.974609 C 37 32.880694 36.119306 32 35.025391 32 L 34 32 L 34 17 C 35.108 17 36 16.108 36 15 C 36 13.892 35.108 13 34 13 L 32 13 L 31 13 L 30 13 A 2.0002 2.0002 0 0 0 28.162109 14.212891 L 24 23.923828 L 19.837891 14.212891 A 2.0002 2.0002 0 0 0 18 13 L 17 13 L 16 13 L 14 13 z"
     id="path10" />
</svg>
