<?xml version="1.0" encoding="UTF-8" standalone="no"?>
<svg
   xmlns:dc="http://purl.org/dc/elements/1.1/"
   xmlns:cc="http://creativecommons.org/ns#"
   xmlns:rdf="http://www.w3.org/1999/02/22-rdf-syntax-ns#"
   xmlns:svg="http://www.w3.org/2000/svg"
   xmlns="http://www.w3.org/2000/svg"
   xmlns:sodipodi="http://sodipodi.sourceforge.net/DTD/sodipodi-0.dtd"
   xmlns:inkscape="http://www.inkscape.org/namespaces/inkscape"
   width="48"
   height="48"
   version="1.1"
   id="svg16"
   sodipodi:docname="metasploit.svg"
   inkscape:version="0.92.5 (2060ec1f9f, 2020-04-08)">
  <metadata
     id="metadata22">
    <rdf:RDF>
      <cc:Work
         rdf:about="">
        <dc:format>image/svg+xml</dc:format>
        <dc:type
           rdf:resource="http://purl.org/dc/dcmitype/StillImage" />
      </cc:Work>
    </rdf:RDF>
  </metadata>
  <defs
     id="defs20" />
  <sodipodi:namedview
     pagecolor="#ffffff"
     bordercolor="#666666"
     borderopacity="1"
     objecttolerance="10"
     gridtolerance="10"
     guidetolerance="10"
     inkscape:pageopacity="0"
     inkscape:pageshadow="2"
     inkscape:window-width="783"
     inkscape:window-height="480"
     id="namedview18"
     showgrid="false"
     inkscape:zoom="4.9166667"
     inkscape:cx="24"
     inkscape:cy="24"
     inkscape:window-x="0"
     inkscape:window-y="28"
     inkscape:window-maximized="0"
     inkscape:current-layer="g14" />
  <g
     transform="matrix(2,0,0,2,2,2)"
     id="g14">
    <path
       d="m11 21.5s6-3 8-8v-11s-3-1-8-1-8.0000001 1-8.0000001 1v11c2.0000001 5 8.0000001 8 8.0000001 8z"
       style="opacity:.2"
       id="path2" />
    <path
       d="m11 21s6-3 8-8v-11s-3-1-8-1-8.0000001 1-8.0000001 1v11c2.0000001 5 8.0000001 8 8.0000001 8z"
       style="fill:#4c566a;fill-opacity:1"
       id="path4" />
    <path
       d="m11 1v20s6-3 8-8v-11s-3-1-8-1z"
       style="opacity:.2"
       id="path6" />
    <path
       d="m4 3.5v10c0 1 3 4 3 4l1e-7 -9.75 2.4999999 2.75v4h3v-4l2.5-2.75v9.75s3-3 3-4v-10h-3l-4 4-4-4z"
       style="opacity:.2"
       id="path8" />
    <path
       d="m4 3v10c0 1 3 4 3 4l1e-7 -9.75 2.4999999 2.75v4h3v-4l2.5-2.75v9.75s3-3 3-4v-10h-3l-4 4-4-4z"
       style="fill:#ffffff"
       id="path10" />
    <path
       d="m11 1c-5 0-8 1-8 1v0.5s3-1 8-1 8 1 8 1v-0.5s-3-1-8-1z"
       style="fill:#ffffff;opacity:.2"
       id="path12" />
  </g>
</svg>
