<?xml version="1.0" encoding="UTF-8" standalone="no"?>
<svg
   xmlns:dc="http://purl.org/dc/elements/1.1/"
   xmlns:cc="http://creativecommons.org/ns#"
   xmlns:rdf="http://www.w3.org/1999/02/22-rdf-syntax-ns#"
   xmlns:svg="http://www.w3.org/2000/svg"
   xmlns="http://www.w3.org/2000/svg"
   xmlns:sodipodi="http://sodipodi.sourceforge.net/DTD/sodipodi-0.dtd"
   xmlns:inkscape="http://www.inkscape.org/namespaces/inkscape"
   width="48"
   height="48"
   version="1"
   id="svg14"
   sodipodi:docname="microsoft.svg"
   inkscape:version="0.92.5 (2060ec1f9f, 2020-04-08)">
  <metadata
     id="metadata20">
    <rdf:RDF>
      <cc:Work
         rdf:about="">
        <dc:format>image/svg+xml</dc:format>
        <dc:type
           rdf:resource="http://purl.org/dc/dcmitype/StillImage" />
      </cc:Work>
    </rdf:RDF>
  </metadata>
  <defs
     id="defs18" />
  <sodipodi:namedview
     pagecolor="#ffffff"
     bordercolor="#666666"
     borderopacity="1"
     objecttolerance="10"
     gridtolerance="10"
     guidetolerance="10"
     inkscape:pageopacity="0"
     inkscape:pageshadow="2"
     inkscape:window-width="765"
     inkscape:window-height="480"
     id="namedview16"
     showgrid="false"
     inkscape:zoom="4.9166667"
     inkscape:cx="17.71557"
     inkscape:cy="34.088877"
     inkscape:window-x="0"
     inkscape:window-y="28"
     inkscape:window-maximized="0"
     inkscape:current-layer="svg14" />
  <rect
     style="opacity:0.2"
     width="40"
     height="40"
     x="4"
     y="5"
     rx="2"
     ry="2"
     id="rect2" />
  <path
     style="fill:#5f697d;fill-opacity:1"
     d="M 42,44 C 43.108,44 44,43.108 44,42 V 24 H 23 V 44 Z"
     id="path4" />
  <path
     style="fill:#4c566a;fill-opacity:1"
     d="M 6,44 C 4.892,44 4,43.108 4,42 V 23 H 24 V 44 Z"
     id="path6" />
  <path
     style="fill:#465064;fill-opacity:1"
     d="M 4,24 V 6 C 4,4.892 4.892,4 6,4 H 25 V 24 Z"
     id="path8" />
  <path
     style="fill:#555f73;fill-opacity:1"
     d="M 24,4 V 24 H 44 V 6 C 44,4.892 43.108,4 42,4 Z"
     id="path10" />
  <path
     style="opacity:0.2;fill:#ffffff"
     d="M 6,4 C 4.892,4 4,4.892 4,6 V 7 C 4,5.892 4.892,5 6,5 H 42 C 43.108,5 44,5.892 44,7 V 6 C 44,4.892 43.108,4 42,4 Z"
     id="path12" />
</svg>
