<?xml version="1.0" encoding="UTF-8" standalone="no"?>
<svg
   xmlns:dc="http://purl.org/dc/elements/1.1/"
   xmlns:cc="http://creativecommons.org/ns#"
   xmlns:rdf="http://www.w3.org/1999/02/22-rdf-syntax-ns#"
   xmlns:svg="http://www.w3.org/2000/svg"
   xmlns="http://www.w3.org/2000/svg"
   xmlns:sodipodi="http://sodipodi.sourceforge.net/DTD/sodipodi-0.dtd"
   xmlns:inkscape="http://www.inkscape.org/namespaces/inkscape"
   width="48"
   height="48"
   version="1"
   id="svg12"
   sodipodi:docname="mixcloud.svg"
   inkscape:version="0.92.5 (2060ec1f9f, 2020-04-08)">
  <metadata
     id="metadata18">
    <rdf:RDF>
      <cc:Work
         rdf:about="">
        <dc:format>image/svg+xml</dc:format>
        <dc:type
           rdf:resource="http://purl.org/dc/dcmitype/StillImage" />
      </cc:Work>
    </rdf:RDF>
  </metadata>
  <defs
     id="defs16" />
  <sodipodi:namedview
     pagecolor="#ffffff"
     bordercolor="#666666"
     borderopacity="1"
     objecttolerance="10"
     gridtolerance="10"
     guidetolerance="10"
     inkscape:pageopacity="0"
     inkscape:pageshadow="2"
     inkscape:window-width="765"
     inkscape:window-height="480"
     id="namedview14"
     showgrid="false"
     inkscape:zoom="6.9532167"
     inkscape:cx="25.156861"
     inkscape:cy="25.846504"
     inkscape:window-x="0"
     inkscape:window-y="28"
     inkscape:window-maximized="0"
     inkscape:current-layer="svg12" />
  <path
     style="fill:#4c566a;fill-opacity:1"
     d="M 24,9 C 18.305,9 13.455,12.458 11.367,17.352 6.0657,18.134 2,22.616 2,28.091 2,34.116 6.9249,39 13,39 l 23.375,0 C 41.691,39 46,34.726 46,29.455 46,24.555 42.285,20.54 37.492,19.994 36.242,13.74 30.674,9 24,9 Z"
     id="path2" />
  <path
     style="opacity:0.2;fill:#ffffff"
     d="M 24,9 C 18.305,9 13.455,12.457 11.367,17.352 6.0657,18.133 2,22.617 2,28.092 2,28.253 2.0165,28.409 2.0234,28.568 2.2741,23.334 6.2364,19.108 11.367,18.352 13.455,13.457 18.305,10 24,10 c 6.674,0 12.242,4.739 13.492,10.994 4.624,0.526 8.234,4.284 8.485,8.947 C 45.985,29.779 46,29.619 46,29.455 46,24.555 42.285,20.54 37.492,19.994 36.242,13.739 30.674,9 24,9 Z"
     id="path4" />
  <path
     style="opacity:0.2"
     d="M 2.0234,28.568 C 2.0151,28.743 2,28.915 2,29.092 2,35.117 6.9249,40 13,40 l 23.375,0 C 41.691,40 46,35.727 46,30.455 46,30.282 45.986,30.112 45.977,29.941 45.719,34.985 41.525,39 36.375,39 L 13,39 C 7.0871,39 2.277,34.37 2.023,28.568 Z"
     id="path6" />
  <path
     style="opacity:1;fill:none;stroke:#fcfcfc;stroke-width:4;stroke-linecap:round;stroke-linejoin:round;stroke-opacity:1"
     d="m 26.025,17.987151 c 0,0 4,2 4,8 0,6 -4,8 -4,8"
     id="path8" />
  <path
     style="opacity:1;fill:none;stroke:#fcfcfc;stroke-width:4;stroke-linecap:round;stroke-linejoin:round;stroke-opacity:1"
     d="m 18.025499,19.987151 c 0,0 3.999501,2 4,6 4.99e-4,4 -4,6 -4,6"
     id="path10" />
</svg>
