<?xml version="1.0" encoding="UTF-8" standalone="no"?>
<svg
   xmlns:dc="http://purl.org/dc/elements/1.1/"
   xmlns:cc="http://creativecommons.org/ns#"
   xmlns:rdf="http://www.w3.org/1999/02/22-rdf-syntax-ns#"
   xmlns:svg="http://www.w3.org/2000/svg"
   xmlns="http://www.w3.org/2000/svg"
   xmlns:sodipodi="http://sodipodi.sourceforge.net/DTD/sodipodi-0.dtd"
   xmlns:inkscape="http://www.inkscape.org/namespaces/inkscape"
   width="48"
   height="48"
   version="1.1"
   id="svg24"
   sodipodi:docname="modelio.svg"
   inkscape:version="0.92.5 (2060ec1f9f, 2020-04-08)">
  <metadata
     id="metadata30">
    <rdf:RDF>
      <cc:Work
         rdf:about="">
        <dc:format>image/svg+xml</dc:format>
        <dc:type
           rdf:resource="http://purl.org/dc/dcmitype/StillImage" />
      </cc:Work>
    </rdf:RDF>
  </metadata>
  <defs
     id="defs28" />
  <sodipodi:namedview
     pagecolor="#ffffff"
     bordercolor="#666666"
     borderopacity="1"
     objecttolerance="10"
     gridtolerance="10"
     guidetolerance="10"
     inkscape:pageopacity="0"
     inkscape:pageshadow="2"
     inkscape:window-width="765"
     inkscape:window-height="480"
     id="namedview26"
     showgrid="false"
     inkscape:zoom="4.9166667"
     inkscape:cx="15.591437"
     inkscape:cy="32.402487"
     inkscape:window-x="0"
     inkscape:window-y="28"
     inkscape:window-maximized="0"
     inkscape:current-layer="svg24" />
  <circle
     cx="24"
     cy="25"
     r="20"
     style="opacity:.2"
     id="circle2" />
  <circle
     cx="24"
     cy="24"
     r="20"
     style="fill:#4c566a;fill-opacity:1"
     id="circle4" />
  <path
     d="M 24,4 A 20,20 0 0 0 4,24 20,20 0 0 0 4.0215,24.582 20,20 0 0 1 24,5 20,20 0 0 1 43.979,24.418 20,20 0 0 0 44,24 20,20 0 0 0 24,4 Z"
     style="fill:#ffffff;opacity:.1"
     id="path6" />
  <path
     d="M 39.417969,15.75 24,25 39.416016,34.25 A 18,18 0 0 0 42,25 18,18 0 0 0 39.417969,15.75 Z"
     style="opacity:.2"
     id="path8" />
  <path
     d="M 39.417969 14.75 L 24 24 L 39.416016 33.25 A 18 18 0 0 0 42 24 A 18 18 0 0 0 39.417969 14.75 z "
     style="fill:#e4e4e4"
     id="path10" />
  <circle
     cx="24"
     cy="25"
     r="10"
     style="opacity:.1"
     id="circle12" />
  <circle
     cx="24"
     cy="24"
     r="10"
     style="fill:#5f697d;fill-opacity:1"
     id="circle14" />
  <path
     d="m21 20c-0.554 0-1 0.446-1 1v8c0 0.554 0.446 1 1 1s1-0.446 1-1v-8c0-0.554-0.446-1-1-1zm6 0c-0.554 0-1 0.446-1 1v8c0 0.554 0.446 1 1 1s1-0.446 1-1v-8c0-0.554-0.446-1-1-1zm-3 2c-0.554 0-1 0.446-1 1v6c0 0.554 0.446 1 1 1s1-0.446 1-1v-6c0-0.554-0.446-1-1-1z"
     style="opacity:.2"
     id="path16" />
  <rect
     x="20"
     y="19"
     width="2"
     height="10"
     ry="1"
     style="fill:#ffffff"
     id="rect18" />
  <rect
     x="23"
     y="21"
     width="2"
     height="8"
     ry="1"
     style="fill:#cccccc"
     id="rect20" />
  <rect
     x="26"
     y="19"
     width="2"
     height="10"
     ry="1"
     style="fill:#ffffff"
     id="rect22" />
</svg>
