<?xml version="1.0" encoding="UTF-8" standalone="no"?>
<svg
   xmlns:dc="http://purl.org/dc/elements/1.1/"
   xmlns:cc="http://creativecommons.org/ns#"
   xmlns:rdf="http://www.w3.org/1999/02/22-rdf-syntax-ns#"
   xmlns:svg="http://www.w3.org/2000/svg"
   xmlns="http://www.w3.org/2000/svg"
   xmlns:sodipodi="http://sodipodi.sourceforge.net/DTD/sodipodi-0.dtd"
   xmlns:inkscape="http://www.inkscape.org/namespaces/inkscape"
   width="48"
   height="48"
   version="1.1"
   id="svg12"
   sodipodi:docname="moonlighter.svg"
   inkscape:version="0.92.5 (2060ec1f9f, 2020-04-08)">
  <metadata
     id="metadata18">
    <rdf:RDF>
      <cc:Work
         rdf:about="">
        <dc:format>image/svg+xml</dc:format>
        <dc:type
           rdf:resource="http://purl.org/dc/dcmitype/StillImage" />
      </cc:Work>
    </rdf:RDF>
  </metadata>
  <defs
     id="defs16" />
  <sodipodi:namedview
     pagecolor="#ffffff"
     bordercolor="#666666"
     borderopacity="1"
     objecttolerance="10"
     gridtolerance="10"
     guidetolerance="10"
     inkscape:pageopacity="0"
     inkscape:pageshadow="2"
     inkscape:window-width="765"
     inkscape:window-height="480"
     id="namedview14"
     showgrid="false"
     inkscape:zoom="4.9166667"
     inkscape:cx="24"
     inkscape:cy="24"
     inkscape:window-x="0"
     inkscape:window-y="28"
     inkscape:window-maximized="0"
     inkscape:current-layer="svg12" />
  <rect
     style="opacity:.2"
     width="40"
     height="40"
     x="4"
     y="5"
     rx="2"
     ry="2"
     id="rect2" />
  <rect
     style="fill:#4c566a;fill-opacity:1"
     width="40"
     height="40"
     x="4"
     y="4"
     rx="2"
     ry="2"
     id="rect4" />
  <path
     style="fill:#ffffff;opacity:0.2"
     d="m6 4c-1.108 0-2 0.892-2 2v1c0-1.108 0.892-2 2-2h36c1.108 0 2 0.892 2 2v-1c0-1.108-0.892-2-2-2h-36z"
     id="path6" />
  <path
     style="opacity:0.2"
     d="m 19,10 v 1 h -1 v 3 h 1 v 1 h 1 v 1 2 h 2 v 6 h -2 v -1 h -1 v -4 h -1 v -2 h -1 v -1 h -2 v -1 h -2.589844 v 1 H 11 v 1 h -1 v 3 h 1 v 1 h 4 v 2 h -4 v 1 h -1 v 3 h 1 v 1 h 4 v 1 h 1 v 4 h -1 v 1 h 1 v 1 h 1 v 1 1 1 h 1 v 1 h 1 v 1 h 5 5 v -1 h 1 v -1 h 1 v -1 -1 -1 h 1 v -1 h 1 v -1 h -1 v -4 h 1 v -1 h 4 v -1 h 1 v -3 h -1 v -1 h -4 v -2 h 4 v -1 h 1 V 17 H 37 V 16 H 35.589844 V 15 H 33 v 1 h -2 v 1 h -1 v 2 h -1 v 4 h -1 v 1 h -2 v -6 h 2 v -2 -1 h 1 v -1 h 1 v -3 h -1 v -1 h -3 v 1 h -1 v 1 h -1 -1 v -1 h -1 v -1 z m 3,18 h 2 2 v 1 h 1 v 4 h -1 v 1 h -2 -2 v -1 h -1 v -4 h 1 z"
     id="path8" />
  <path
     style="fill:#ffffff"
     d="M 19 9 L 19 10 L 18 10 L 18 13 L 19 13 L 19 14 L 20 14 L 20 15 L 20 17 L 22 17 L 22 23 L 20 23 L 20 22 L 19 22 L 19 18 L 18 18 L 18 16 L 17 16 L 17 15 L 15 15 L 15 14 L 12.410156 14 L 12.410156 15 L 11 15 L 11 16 L 10 16 L 10 19 L 11 19 L 11 20 L 15 20 L 15 22 L 11 22 L 11 23 L 10 23 L 10 26 L 11 26 L 11 27 L 15 27 L 15 28 L 16 28 L 16 32 L 15 32 L 15 33 L 16 33 L 16 34 L 17 34 L 17 35 L 17 36 L 17 37 L 18 37 L 18 38 L 19 38 L 19 39 L 24 39 L 29 39 L 29 38 L 30 38 L 30 37 L 31 37 L 31 36 L 31 35 L 31 34 L 32 34 L 32 33 L 33 33 L 33 32 L 32 32 L 32 28 L 33 28 L 33 27 L 37 27 L 37 26 L 38 26 L 38 23 L 37 23 L 37 22 L 33 22 L 33 20 L 37 20 L 37 19 L 38 19 L 38 16 L 37 16 L 37 15 L 35.589844 15 L 35.589844 14 L 33 14 L 33 15 L 31 15 L 31 16 L 30 16 L 30 18 L 29 18 L 29 22 L 28 22 L 28 23 L 26 23 L 26 17 L 28 17 L 28 15 L 28 14 L 29 14 L 29 13 L 30 13 L 30 10 L 29 10 L 29 9 L 26 9 L 26 10 L 25 10 L 25 11 L 24 11 L 23 11 L 23 10 L 22 10 L 22 9 L 19 9 z M 22 27 L 24 27 L 26 27 L 26 28 L 27 28 L 27 32 L 26 32 L 26 33 L 24 33 L 22 33 L 22 32 L 21 32 L 21 28 L 22 28 L 22 27 z"
     id="path10" />
</svg>
