<?xml version="1.0" encoding="UTF-8" standalone="no"?>
<svg
   xmlns:dc="http://purl.org/dc/elements/1.1/"
   xmlns:cc="http://creativecommons.org/ns#"
   xmlns:rdf="http://www.w3.org/1999/02/22-rdf-syntax-ns#"
   xmlns:svg="http://www.w3.org/2000/svg"
   xmlns="http://www.w3.org/2000/svg"
   xmlns:sodipodi="http://sodipodi.sourceforge.net/DTD/sodipodi-0.dtd"
   xmlns:inkscape="http://www.inkscape.org/namespaces/inkscape"
   width="48"
   height="48"
   version="1.1"
   id="svg20"
   sodipodi:docname="mouse-touchpad-gestures.svg"
   inkscape:version="0.92.5 (2060ec1f9f, 2020-04-08)">
  <metadata
     id="metadata26">
    <rdf:RDF>
      <cc:Work
         rdf:about="">
        <dc:format>image/svg+xml</dc:format>
        <dc:type
           rdf:resource="http://purl.org/dc/dcmitype/StillImage" />
      </cc:Work>
    </rdf:RDF>
  </metadata>
  <defs
     id="defs24" />
  <sodipodi:namedview
     pagecolor="#ffffff"
     bordercolor="#666666"
     borderopacity="1"
     objecttolerance="10"
     gridtolerance="10"
     guidetolerance="10"
     inkscape:pageopacity="0"
     inkscape:pageshadow="2"
     inkscape:window-width="640"
     inkscape:window-height="480"
     id="namedview22"
     showgrid="false"
     inkscape:zoom="4.9166667"
     inkscape:cx="-15.661017"
     inkscape:cy="24"
     inkscape:current-layer="svg20" />
  <rect
     style="opacity:0.2"
     width="40"
     height="40"
     x="4"
     y="5"
     rx="5.714"
     ry="5.714"
     id="rect2" />
  <rect
     style="fill:#4c566a;fill-opacity:1"
     width="40"
     height="40"
     x="4"
     y="4"
     rx="5.714"
     ry="5.714"
     id="rect4" />
  <path
     style="opacity:0.2"
     d="M 17,31 7.9999998,36.5 17,42 v -4 h 14 v 4 L 40,36.5 31,31 v 4 H 17 Z"
     id="path6" />
  <path
     style="fill:#ffffff"
     d="M 17,30 7.9999998,35.5 17,41 v -4 h 14 v 4 L 40,35.5 31,30 v 4 H 17 Z"
     id="path8" />
  <path
     style="opacity:0.2"
     d="M 17,20 7.9999998,25.5 17,31 v -4 h 14 v 4 L 40,25.5 31,20 v 4 H 17 Z"
     id="path10" />
  <path
     style="fill:#ffffff"
     d="M 17,19 7.9999998,24.5 17,30 v -4 h 14 v 4 L 40,24.5 31,19 v 4 H 17 Z"
     id="path12" />
  <path
     style="opacity:0.2"
     d="M 17,8.9999995 7.9999998,14.5 17,20 v -4 h 14 v 4 L 40,14.5 31,8.9999995 V 13 H 17 Z"
     id="path14" />
  <path
     style="fill:#ffffff"
     d="M 17,8 7.9999998,13.5 17,19 v -4 h 14 v 4 L 40,13.5 31,8 v 4 H 17 Z"
     id="path16" />
  <path
     style="fill:#ffffff;opacity:0.2"
     d="M 9.7148438 4 C 6.5491297 4 4 6.5491297 4 9.7148438 L 4 10.714844 C 4 7.5491297 6.5491297 5 9.7148438 5 L 38.285156 5 C 41.45087 5 44 7.5491297 44 10.714844 L 44 9.7148438 C 44 6.5491297 41.45087 4 38.285156 4 L 9.7148438 4 z"
     id="path18" />
</svg>
