<?xml version="1.0" encoding="UTF-8" standalone="no"?>
<svg
   xmlns:dc="http://purl.org/dc/elements/1.1/"
   xmlns:cc="http://creativecommons.org/ns#"
   xmlns:rdf="http://www.w3.org/1999/02/22-rdf-syntax-ns#"
   xmlns:svg="http://www.w3.org/2000/svg"
   xmlns="http://www.w3.org/2000/svg"
   xmlns:sodipodi="http://sodipodi.sourceforge.net/DTD/sodipodi-0.dtd"
   xmlns:inkscape="http://www.inkscape.org/namespaces/inkscape"
   width="48"
   height="48"
   version="1"
   id="svg12"
   sodipodi:docname="mynotes.svg"
   inkscape:version="0.92.5 (2060ec1f9f, 2020-04-08)">
  <metadata
     id="metadata18">
    <rdf:RDF>
      <cc:Work
         rdf:about="">
        <dc:format>image/svg+xml</dc:format>
        <dc:type
           rdf:resource="http://purl.org/dc/dcmitype/StillImage" />
      </cc:Work>
    </rdf:RDF>
  </metadata>
  <defs
     id="defs16" />
  <sodipodi:namedview
     pagecolor="#ffffff"
     bordercolor="#666666"
     borderopacity="1"
     objecttolerance="10"
     gridtolerance="10"
     guidetolerance="10"
     inkscape:pageopacity="0"
     inkscape:pageshadow="2"
     inkscape:window-width="783"
     inkscape:window-height="480"
     id="namedview14"
     showgrid="false"
     inkscape:zoom="4.9166667"
     inkscape:cx="13.951317"
     inkscape:cy="27.154208"
     inkscape:window-x="0"
     inkscape:window-y="28"
     inkscape:window-maximized="0"
     inkscape:current-layer="svg12" />
  <path
     style="opacity:0.2"
     d="m 9,5 h 30 c 1.662,0 3,1.338 3,3 V 29 L 26,45 H 9 C 7.338,45 6,43.662 6,42 V 8 C 6,6.338 7.338,5 9,5 Z"
     id="path2" />
  <path
     style="fill:#4c566a;fill-opacity:1"
     d="m 9,4 h 30 c 1.662,0 3,1.338 3,3 V 28 L 26,44 H 9 C 7.338,44 6,42.662 6,41 V 7 C 6,5.338 7.338,4 9,4 Z"
     id="path4" />
  <path
     style="fill:#5f697d;fill-opacity:1"
     d="M 42,28 H 28 c -1.105,0 -2,0.895 -2,2 v 14 z"
     id="path6" />
  <path
     style="opacity:0.2;fill:#ffffff"
     d="M 9 4 C 7.338 4 6 5.338 6 7 L 6 8 C 6 6.338 7.338 5 9 5 L 39 5 C 40.662 5 42 6.338 42 8 L 42 7 C 42 5.338 40.662 4 39 4 L 9 4 z"
     id="path8" />
  <path
     style="fill:#ffffff;opacity:0.2"
     d="M 28 28 C 26.895 28 26 28.895 26 30 L 26 31 C 26 29.895 26.895 29 28 29 L 41 29 L 42 28 L 28 28 z"
     id="path10" />
</svg>
