<?xml version="1.0" encoding="UTF-8" standalone="no"?>
<svg
   xmlns:dc="http://purl.org/dc/elements/1.1/"
   xmlns:cc="http://creativecommons.org/ns#"
   xmlns:rdf="http://www.w3.org/1999/02/22-rdf-syntax-ns#"
   xmlns:svg="http://www.w3.org/2000/svg"
   xmlns="http://www.w3.org/2000/svg"
   xmlns:sodipodi="http://sodipodi.sourceforge.net/DTD/sodipodi-0.dtd"
   xmlns:inkscape="http://www.inkscape.org/namespaces/inkscape"
   width="48"
   height="48"
   version="1.1"
   id="svg12"
   sodipodi:docname="narcissu-1st-2nd.svg"
   inkscape:version="0.92.5 (2060ec1f9f, 2020-04-08)">
  <metadata
     id="metadata18">
    <rdf:RDF>
      <cc:Work
         rdf:about="">
        <dc:format>image/svg+xml</dc:format>
        <dc:type
           rdf:resource="http://purl.org/dc/dcmitype/StillImage" />
      </cc:Work>
    </rdf:RDF>
  </metadata>
  <defs
     id="defs16" />
  <sodipodi:namedview
     pagecolor="#ffffff"
     bordercolor="#666666"
     borderopacity="1"
     objecttolerance="10"
     gridtolerance="10"
     guidetolerance="10"
     inkscape:pageopacity="0"
     inkscape:pageshadow="2"
     inkscape:window-width="783"
     inkscape:window-height="480"
     id="namedview14"
     showgrid="false"
     inkscape:zoom="4.9166667"
     inkscape:cx="-1.1186441"
     inkscape:cy="24"
     inkscape:window-x="0"
     inkscape:window-y="28"
     inkscape:window-maximized="0"
     inkscape:current-layer="svg12" />
  <rect
     style="opacity:0.2"
     width="40"
     height="32"
     x="4"
     y="9"
     ry="4"
     id="rect2" />
  <rect
     style="fill:#4c566a;fill-opacity:1"
     width="40"
     height="32"
     x="4"
     y="8"
     ry="4"
     id="rect4" />
  <path
     style="opacity:0.2"
     d="m 8,17 v 16 h 12 v -9 c 0,0 0,-3 4,-3 3,0 3,3 3,3 v 9 H 40 V 22 C 40,22 40,17 29.333334,17 24,17 20,19 20,19 v -2 z"
     id="path6" />
  <path
     style="fill:#ffffff"
     d="m 8,16 v 16 h 12 v -9 c 0,0 0,-3 4,-3 3,0 3,3 3,3 v 9 H 40 V 21 C 40,21 40,16 29.333334,16 24,16 20,18 20,18 v -2 z"
     id="path8" />
  <path
     style="opacity:0.1;fill:#ffffff"
     d="M 8 8 C 5.784 8 4 9.784 4 12 L 4 13 C 4 10.784 5.784 9 8 9 L 40 9 C 42.216 9 44 10.784 44 13 L 44 12 C 44 9.784 42.216 8 40 8 L 8 8 z"
     id="path10" />
</svg>
