<?xml version="1.0" encoding="UTF-8" standalone="no"?>
<svg
   xmlns:dc="http://purl.org/dc/elements/1.1/"
   xmlns:cc="http://creativecommons.org/ns#"
   xmlns:rdf="http://www.w3.org/1999/02/22-rdf-syntax-ns#"
   xmlns:svg="http://www.w3.org/2000/svg"
   xmlns="http://www.w3.org/2000/svg"
   xmlns:xlink="http://www.w3.org/1999/xlink"
   xmlns:sodipodi="http://sodipodi.sourceforge.net/DTD/sodipodi-0.dtd"
   xmlns:inkscape="http://www.inkscape.org/namespaces/inkscape"
   width="48"
   height="48"
   version="1"
   id="svg27"
   sodipodi:docname="navalbattle.svg"
   inkscape:version="0.92.5 (2060ec1f9f, 2020-04-08)">
  <metadata
     id="metadata31">
    <rdf:RDF>
      <cc:Work
         rdf:about="">
        <dc:format>image/svg+xml</dc:format>
        <dc:type
           rdf:resource="http://purl.org/dc/dcmitype/StillImage" />
      </cc:Work>
    </rdf:RDF>
  </metadata>
  <sodipodi:namedview
     pagecolor="#ffffff"
     bordercolor="#666666"
     borderopacity="1"
     objecttolerance="10"
     gridtolerance="10"
     guidetolerance="10"
     inkscape:pageopacity="0"
     inkscape:pageshadow="2"
     inkscape:window-width="783"
     inkscape:window-height="480"
     id="namedview29"
     showgrid="false"
     inkscape:zoom="4.9166667"
     inkscape:cx="24"
     inkscape:cy="24"
     inkscape:window-x="0"
     inkscape:window-y="28"
     inkscape:window-maximized="0"
     inkscape:current-layer="svg27" />
  <defs
     id="defs9">
    <linearGradient
       id="linearGradient4414">
      <stop
         offset="0"
         id="stop2" />
      <stop
         offset="1"
         stop-opacity="0"
         id="stop4" />
    </linearGradient>
    <linearGradient
       id="linearGradient4420"
       x1="23.968"
       x2="23.968"
       y1="32.02"
       y2="34.144"
       gradientTransform="translate(0,-4)"
       gradientUnits="userSpaceOnUse"
       xlink:href="#linearGradient4414" />
    <linearGradient
       id="linearGradient4430"
       x1="37.9"
       x2="32.46"
       y1="4.185"
       y2="-1.361"
       gradientTransform="matrix(.70711 .70711 -.70711 .70711 0 -4)"
       gradientUnits="userSpaceOnUse"
       xlink:href="#linearGradient4414" />
  </defs>
  <rect
     fill="#4e91d9"
     width="40"
     height="40"
     x="4"
     y="4"
     rx="2"
     ry="2"
     id="rect11"
     style="fill:#4c566a;fill-opacity:1" />
  <path
     fill="#fff"
     opacity=".2"
     d="m6 4c-1.108 0-2 0.892-2 2v1c0-1.108 0.892-2 2-2h36c1.108 0 2 0.892 2 2v-1c0-1.108-0.892-2-2-2h-36z"
     id="path13" />
  <path
     opacity=".2"
     d="m6 45c-1.108 0-2-0.892-2-2v-1c0 1.108 0.892 2 2 2h36c1.108 0 2-0.892 2-2v1c0 1.108-0.892 2-2 2h-36z"
     id="path15" />
  <path
     opacity=".2"
     d="m9 19 5 12h20l5-12-9.7832 5.2168-5.217-5.217-5.217 5.217-9.783-5.217z"
     id="path17" />
  <path
     fill="#fff"
     d="m24 18 8 8h-16z"
     id="path19" />
  <path
     fill="url(#linearGradient4430)"
     opacity=".15"
     d="m24 18 8 8h-16z"
     id="path21" />
  <path
     fill="#fff"
     d="m9 18 15 8 15-8-5 12h-20z"
     id="path23" />
  <path
     fill="url(#linearGradient4420)"
     opacity=".15"
     d="m24 28 10 2h-20z"
     id="path25" />
</svg>
