<?xml version="1.0" encoding="UTF-8" standalone="no"?>
<svg
   xmlns:dc="http://purl.org/dc/elements/1.1/"
   xmlns:cc="http://creativecommons.org/ns#"
   xmlns:rdf="http://www.w3.org/1999/02/22-rdf-syntax-ns#"
   xmlns:svg="http://www.w3.org/2000/svg"
   xmlns="http://www.w3.org/2000/svg"
   xmlns:sodipodi="http://sodipodi.sourceforge.net/DTD/sodipodi-0.dtd"
   xmlns:inkscape="http://www.inkscape.org/namespaces/inkscape"
   width="48"
   height="48"
   version="1.1"
   id="svg20"
   sodipodi:docname="netsurf.svg"
   inkscape:version="0.92.5 (2060ec1f9f, 2020-04-08)">
  <metadata
     id="metadata26">
    <rdf:RDF>
      <cc:Work
         rdf:about="">
        <dc:format>image/svg+xml</dc:format>
        <dc:type
           rdf:resource="http://purl.org/dc/dcmitype/StillImage" />
      </cc:Work>
    </rdf:RDF>
  </metadata>
  <defs
     id="defs24" />
  <sodipodi:namedview
     pagecolor="#ffffff"
     bordercolor="#666666"
     borderopacity="1"
     objecttolerance="10"
     gridtolerance="10"
     guidetolerance="10"
     inkscape:pageopacity="0"
     inkscape:pageshadow="2"
     inkscape:window-width="765"
     inkscape:window-height="480"
     id="namedview22"
     showgrid="false"
     inkscape:zoom="4.9166667"
     inkscape:cx="24"
     inkscape:cy="24"
     inkscape:window-x="0"
     inkscape:window-y="28"
     inkscape:window-maximized="0"
     inkscape:current-layer="svg20" />
  <path
     opacity=".2"
     d="m4.0215 24.418a20 20 0 0 0 -0.0215 0.582 20 20 0 0 0 20 20 20 20 0 0 0 20 -20 20 20 0 0 0 -0.021 -0.418 20 20 0 0 1 -19.979 19.418 20 20 0 0 1 -19.978 -19.582z"
     id="path2" />
  <path
     style="fill:#4c566a;fill-opacity:1"
     d="M 34,6.6794918 A 20,20 0 0 0 6.6794918,14 20,20 0 0 0 14,41.320508 20,20 0 0 0 41.320508,34 20,20 0 0 0 34,6.6794918 Z"
     id="path4" />
  <path
     fill="#ffffff"
     opacity=".2"
     d="m24 4a20 20 0 0 0 -20 20 20 20 0 0 0 0.0215 0.418 20 20 0 0 1 19.978 -19.418 20 20 0 0 1 19.979 19.582 20 20 0 0 0 0.021 -0.582 20 20 0 0 0 -20 -20z"
     id="path6" />
  <path
     style="opacity:0.2"
     transform="matrix(0.79277569,0.61020802,-0.61020802,0.79277569,18.478075,-9.5589467)"
     d="m 26.721132,7.139029 1.350113,3.796569 3.639254,-1.7299056 -1.729906,3.6392536 3.796569,1.350113 -3.796569,1.350113 1.729906,3.639253 -3.639254,-1.729906 -1.350113,3.79657 -1.350113,-3.79657 -3.639253,1.729906 1.729906,-3.639254 -3.79657,-1.350112 3.79657,-1.350113 -1.729906,-3.6392538 3.639254,1.7299058 z"
     id="path8" />
  <path
     style="fill:#ffffff"
     transform="matrix(0.79277569,0.61020802,-0.61020802,0.79277569,18.478075,-10.558947)"
     d="m 26.721132,7.139029 1.350113,3.796569 3.639254,-1.7299056 -1.729906,3.6392536 3.796569,1.350113 -3.796569,1.350113 1.729906,3.639253 -3.639254,-1.729906 -1.350113,3.79657 -1.350113,-3.79657 -3.639253,1.729906 1.729906,-3.639254 -3.79657,-1.350112 3.79657,-1.350113 -1.729906,-3.6392538 3.639254,1.7299058 z"
     id="path10" />
  <path
     style="opacity:0.2;fill:none;stroke:#000000;stroke-width:2;stroke-linecap:round;stroke-linejoin:round"
     d="M 14,6.9998236 C 9,22.999824 14.05932,33.890555 25,44.999824"
     id="path12" />
  <path
     style="fill:none;stroke:#3f3f3f;stroke-width:2;stroke-linecap:round;stroke-linejoin:round"
     d="M 14,6 C 9,22 14.05932,32.890731 25,44"
     id="path14" />
  <path
     style="opacity:0.2;fill:none;stroke:#000000;stroke-width:2;stroke-linecap:round;stroke-linejoin:round"
     d="m 44,25.999824 c -11.265171,11.207928 -23,13 -38,9"
     id="path16" />
  <path
     style="fill:none;stroke:#3f3f3f;stroke-width:2;stroke-linecap:round;stroke-linejoin:round"
     d="M 44,25 C 32.734829,36.207928 21,38 6,34"
     id="path18" />
</svg>
