<?xml version="1.0" encoding="UTF-8" standalone="no"?>
<svg
   xmlns:dc="http://purl.org/dc/elements/1.1/"
   xmlns:cc="http://creativecommons.org/ns#"
   xmlns:rdf="http://www.w3.org/1999/02/22-rdf-syntax-ns#"
   xmlns:svg="http://www.w3.org/2000/svg"
   xmlns="http://www.w3.org/2000/svg"
   xmlns:sodipodi="http://sodipodi.sourceforge.net/DTD/sodipodi-0.dtd"
   xmlns:inkscape="http://www.inkscape.org/namespaces/inkscape"
   width="48"
   height="48"
   version="1"
   id="svg36"
   sodipodi:docname="network_local.svg"
   inkscape:version="0.92.5 (2060ec1f9f, 2020-04-08)">
  <metadata
     id="metadata42">
    <rdf:RDF>
      <cc:Work
         rdf:about="">
        <dc:format>image/svg+xml</dc:format>
        <dc:type
           rdf:resource="http://purl.org/dc/dcmitype/StillImage" />
      </cc:Work>
    </rdf:RDF>
  </metadata>
  <defs
     id="defs40" />
  <sodipodi:namedview
     pagecolor="#ffffff"
     bordercolor="#666666"
     borderopacity="1"
     objecttolerance="10"
     gridtolerance="10"
     guidetolerance="10"
     inkscape:pageopacity="0"
     inkscape:pageshadow="2"
     inkscape:window-width="765"
     inkscape:window-height="480"
     id="namedview38"
     showgrid="false"
     inkscape:zoom="4.9166667"
     inkscape:cx="-2.9491525"
     inkscape:cy="24"
     inkscape:window-x="0"
     inkscape:window-y="28"
     inkscape:window-maximized="0"
     inkscape:current-layer="svg36" />
  <rect
     style="fill:#4c566a;fill-opacity:1"
     width="40"
     height="40"
     x="4"
     y="4"
     rx="2"
     ry="2"
     id="rect2" />
  <path
     fill="#fff"
     opacity=".2"
     d="m6 4c-1.108 0-2 0.892-2 2v1c0-1.108 0.892-2 2-2h36c1.108 0 2 0.892 2 2v-1c0-1.108-0.892-2-2-2h-36z"
     id="path4" />
  <path
     opacity=".2"
     d="m6 45c-1.108 0-2-0.892-2-2v-1c0 1.108 0.892 2 2 2h36c1.108 0 2-0.892 2-2v1c0 1.108-0.892 2-2 2h-36z"
     id="path6" />
  <g
     opacity=".2"
     id="g10">
    <path
       d="m22 31v4h-11v4h26v-4h-11v-4h-4z"
       id="path8" />
  </g>
  <g
     style="fill:#3f3f3f"
     id="g16">
    <rect
       style="fill:#3f3f3f"
       width="4"
       height="6"
       x="22"
       y="30"
       id="rect12" />
    <rect
       style="fill:#3f3f3f"
       width="26"
       height="4"
       x="11"
       y="34"
       id="rect14" />
  </g>
  <g
     opacity=".2"
     transform="translate(0,1)"
     id="g24">
    <circle
       cx="10"
       cy="36"
       r="4"
       id="circle18" />
    <circle
       cx="24"
       cy="36"
       r="4"
       id="circle20" />
    <circle
       cx="38"
       cy="36"
       r="4"
       id="circle22" />
  </g>
  <circle
     style="fill:#ffffff"
     cx="10"
     cy="36"
     r="4"
     id="circle26" />
  <circle
     style="fill:#ffffff"
     cx="24"
     cy="36"
     r="4"
     id="circle28" />
  <circle
     style="fill:#ffffff"
     cx="38"
     cy="36"
     r="4"
     id="circle30" />
  <path
     opacity=".2"
     d="m15.295 9c-1.272 0-2.295 1.023-2.295 2.295v17.41c0 1.272 1.023 2.295 2.295 2.295h17.41c1.272 0 2.295-1.023 2.295-2.295v-17.41c0-1.272-1.023-2.295-2.295-2.295h-17.41zm2.705 5h12v12h-12v-12z"
     id="path32" />
  <path
     style="fill:#ffffff"
     d="m15.295 8c-1.272 0-2.295 1.0231-2.295 2.295v17.41c0 1.272 1.023 2.295 2.295 2.295h17.41c1.272 0 2.295-1.023 2.295-2.295v-17.41c0-1.2719-1.023-2.295-2.295-2.295h-17.41zm2.705 5h12v12h-12v-12z"
     id="path34" />
</svg>
