<?xml version="1.0" encoding="UTF-8" standalone="no"?>
<svg
   xmlns:dc="http://purl.org/dc/elements/1.1/"
   xmlns:cc="http://creativecommons.org/ns#"
   xmlns:rdf="http://www.w3.org/1999/02/22-rdf-syntax-ns#"
   xmlns:svg="http://www.w3.org/2000/svg"
   xmlns="http://www.w3.org/2000/svg"
   xmlns:sodipodi="http://sodipodi.sourceforge.net/DTD/sodipodi-0.dtd"
   xmlns:inkscape="http://www.inkscape.org/namespaces/inkscape"
   width="48"
   height="48"
   version="1"
   id="svg14"
   sodipodi:docname="neverball.svg"
   inkscape:version="0.92.5 (2060ec1f9f, 2020-04-08)">
  <metadata
     id="metadata20">
    <rdf:RDF>
      <cc:Work
         rdf:about="">
        <dc:format>image/svg+xml</dc:format>
        <dc:type
           rdf:resource="http://purl.org/dc/dcmitype/StillImage" />
      </cc:Work>
    </rdf:RDF>
  </metadata>
  <defs
     id="defs18" />
  <sodipodi:namedview
     pagecolor="#ffffff"
     bordercolor="#666666"
     borderopacity="1"
     objecttolerance="10"
     gridtolerance="10"
     guidetolerance="10"
     inkscape:pageopacity="0"
     inkscape:pageshadow="2"
     inkscape:window-width="765"
     inkscape:window-height="480"
     id="namedview16"
     showgrid="false"
     inkscape:zoom="6.9532167"
     inkscape:cx="33.555026"
     inkscape:cy="47.485113"
     inkscape:window-x="0"
     inkscape:window-y="28"
     inkscape:window-maximized="0"
     inkscape:current-layer="svg14" />
  <circle
     style="opacity:0.2"
     cx="24"
     cy="25"
     r="20"
     id="circle2" />
  <path
     style="fill:#e4e4e4;fill-rule:evenodd"
     d="m 44,24.000015 c 0,11.045695 -8.954305,20 -20,20 -0.580248,0 -0.100033,-1.319079 -0.61115,-1.368562 C 16.615447,41.975698 14.600481,38.36303 11.769071,31.707035 10.746933,29.304223 5.185984,25.266499 5.185984,22.490581 c 0,-0.687726 -1.1512718,0.142089 -1.0835049,-0.527766 C 5.123132,11.874007 13.642031,4.0000148 24,4.0000148 c 0.440449,0 0.160785,0.9993376 0.564882,1.0543927 4.394318,0.5986918 7.473473,3.3096308 10.73712,6.3193735 C 39.264761,15.028246 44,18.184395 44,24.000015 Z"
     id="path4" />
  <path
     style="opacity:0.1;fill-rule:evenodd"
     d="m 24.000065,5.0002573 0,15.0000157 c 7.223938,0 14.000209,0.808041 19.851227,2.773727 C 42.718706,12.662367 34.174922,5.0127128 24.000065,5.0002573 Z"
     id="path6" />
  <path
     style="fill:#4c566a;fill-rule:evenodd;fill-opacity:1"
     d="m 24.000065,3.9999843 0,15.0000157 c 7.223938,0 14.000209,0.808041 19.851227,2.773727 C 42.718706,11.662094 34.174922,4.0124398 24.000065,3.9999843 Z"
     id="path8" />
  <path
     style="fill:#4c566a;fill-rule:evenodd;fill-opacity:1"
     d="m 24.000065,19 c -7.230022,0 -14.0117968,0.809851 -19.8661804,2.77861 -0.085799,0.737401 -0.1304749,1.479006 -0.1338195,2.221374 0,11.045695 8.9543049,20 19.9999999,20 z"
     id="path10" />
  <path
     style="opacity:0.1;fill:#ffffff"
     d="M 24,4 C 18.741303,4 13.956636,6.0295607 10.386564,9.3481159 6.4578337,13.000061 4,18.213002 4,24 4.00434,24.194104 4.011498,24.388135 4.021484,24.582031 4.2487752,13.708251 13.123849,5.0093082 24,5 34.813993,5.0070363 43.663814,13.608554 43.978516,24.417969 43.987135,24.278725 43.994297,24.139394 44,24 44,12.954305 35.045695,4 24,4 Z"
     id="path12" />
</svg>
