<?xml version="1.0" encoding="UTF-8" standalone="no"?>
<svg
   xmlns:dc="http://purl.org/dc/elements/1.1/"
   xmlns:cc="http://creativecommons.org/ns#"
   xmlns:rdf="http://www.w3.org/1999/02/22-rdf-syntax-ns#"
   xmlns:svg="http://www.w3.org/2000/svg"
   xmlns="http://www.w3.org/2000/svg"
   xmlns:sodipodi="http://sodipodi.sourceforge.net/DTD/sodipodi-0.dtd"
   xmlns:inkscape="http://www.inkscape.org/namespaces/inkscape"
   width="48"
   height="48"
   version="1.1"
   id="svg20"
   sodipodi:docname="appimagekit-nighthawk.svg"
   inkscape:version="0.92.5 (2060ec1f9f, 2020-04-08)">
  <metadata
     id="metadata26">
    <rdf:RDF>
      <cc:Work
         rdf:about="">
        <dc:format>image/svg+xml</dc:format>
        <dc:type
           rdf:resource="http://purl.org/dc/dcmitype/StillImage" />
      </cc:Work>
    </rdf:RDF>
  </metadata>
  <defs
     id="defs24" />
  <sodipodi:namedview
     pagecolor="#ffffff"
     bordercolor="#666666"
     borderopacity="1"
     objecttolerance="10"
     gridtolerance="10"
     guidetolerance="10"
     inkscape:pageopacity="0"
     inkscape:pageshadow="2"
     inkscape:window-width="783"
     inkscape:window-height="480"
     id="namedview22"
     showgrid="false"
     inkscape:zoom="4.9166667"
     inkscape:cx="24"
     inkscape:cy="24"
     inkscape:window-x="0"
     inkscape:window-y="28"
     inkscape:window-maximized="0"
     inkscape:current-layer="svg20" />
  <rect
     style="opacity:0.2"
     width="40"
     height="40"
     x="4"
     y="5"
     rx="3"
     ry="3"
     id="rect2" />
  <rect
     style="fill:#4c566a;fill-opacity:1"
     width="40"
     height="40"
     x="4"
     y="4"
     rx="3"
     ry="3"
     id="rect4" />
  <path
     style="opacity:0.2;fill:#ffffff"
     d="M 7,4 C 5.338,4 4,5.338 4,7 V 8 C 4,6.338 5.338,5 7,5 h 34 c 1.662,0 3,1.338 3,3 V 7 C 44,5.338 42.662,4 41,4 Z"
     id="path6" />
  <circle
     style="fill:#555f73;fill-opacity:1"
     cx="24"
     cy="21"
     r="14"
     id="circle8" />
  <circle
     style="fill:#5f697d;fill-opacity:1"
     cx="24"
     cy="21"
     r="9"
     id="circle10" />
  <circle
     style="fill:#697387;fill-opacity:1"
     cx="24"
     cy="21"
     r="5"
     id="circle12" />
  <path
     style="opacity:0.1"
     d="m 22.765106,40.27266 c -0.62737,-0.685133 -2.298238,-2.43139 -3.71304,-3.880573 -1.414799,-1.449182 -3.631276,-3.820571 -4.925503,-5.269753 -1.294227,-1.449182 -2.486202,-2.781059 -2.648831,-2.959725 l -0.295691,-0.324847 -0.08099,-2.165653 c -0.04455,-1.191108 -0.08863,-2.36056 -0.09796,-2.598782 -0.01174,-0.299453 0.0096,-0.433131 0.06913,-0.433131 0.04736,0 1.908144,1.494301 4.13508,3.320667 2.226936,1.826367 4.094,3.320667 4.149033,3.320667 0.05503,0 0.75811,-1.071999 1.562396,-2.382218 0.804287,-1.31022 1.653388,-2.676192 1.886892,-3.035495 0.267839,-0.412127 0.424557,-0.729163 0.424557,-0.858851 0,-0.133587 -0.233774,-0.587346 -0.667589,-1.295809 -0.790579,-1.291094 -0.903078,-1.503308 -0.903078,-1.703533 0,-0.223303 0.312968,-0.505623 0.560511,-0.505623 0.27196,0 0.466509,0.22846 1.152943,1.353922 0.294502,0.482854 0.573105,0.893516 0.619121,0.912582 0.0482,0.01997 0.343328,-0.389692 0.6962,-0.966391 0.635738,-1.038975 0.868863,-1.300113 1.160645,-1.300113 0.193729,0 0.522583,0.294669 0.522583,0.468261 0,0.203383 -0.184958,0.557936 -0.923123,1.769579 -0.399114,0.65511 -0.71312,1.239836 -0.697796,1.299392 0.01534,0.05955 0.524493,0.904159 1.131486,1.876898 0.606994,0.972738 1.455302,2.34933 1.885131,3.059092 0.42983,0.709762 0.819026,1.305031 0.864883,1.322824 0.04586,0.01779 1.796857,-1.372713 3.891121,-3.090011 2.094264,-1.717298 3.945113,-3.234854 4.112994,-3.372345 0.167877,-0.137491 0.326497,-0.228487 0.352485,-0.20221 0.026,0.02628 0.0056,1.205718 -0.04536,2.62098 l -0.09262,2.573205 -2.651571,2.963411 c -1.722753,1.925356 -3.97244,4.317091 -6.422342,6.827853 -2.073923,2.125442 -3.793327,3.872761 -3.820896,3.882932 -0.02756,0.01016 -0.563437,-0.542071 -1.19081,-1.227202 z"
     id="path14" />
  <path
     style="fill:#ffffff;fill-opacity:1"
     d="m 22.765106,39.27266 c -0.62737,-0.685133 -2.298238,-2.43139 -3.71304,-3.880573 -1.414799,-1.449182 -3.631276,-3.820571 -4.925503,-5.269753 -1.294227,-1.449182 -2.486202,-2.781059 -2.648831,-2.959725 l -0.295691,-0.324847 -0.08099,-2.165653 c -0.04455,-1.191108 -0.08863,-2.36056 -0.09796,-2.598782 -0.01174,-0.299453 0.0096,-0.433131 0.06913,-0.433131 0.04736,0 1.908144,1.494301 4.13508,3.320667 2.226936,1.826367 4.094,3.320667 4.149033,3.320667 0.05503,0 0.75811,-1.071999 1.562396,-2.382218 0.804287,-1.31022 1.653388,-2.676192 1.886892,-3.035495 0.267839,-0.412127 0.424557,-0.729163 0.424557,-0.858851 0,-0.133587 -0.233774,-0.587346 -0.667589,-1.295809 -0.790579,-1.291094 -0.903078,-1.503308 -0.903078,-1.703533 0,-0.223303 0.312968,-0.505623 0.560511,-0.505623 0.27196,0 0.466509,0.22846 1.152943,1.353922 0.294502,0.482854 0.573105,0.893516 0.619121,0.912582 0.0482,0.01997 0.343328,-0.389692 0.6962,-0.966391 0.635738,-1.038975 0.868863,-1.300113 1.160645,-1.300113 0.193729,0 0.522583,0.294669 0.522583,0.468261 0,0.203383 -0.184958,0.557936 -0.923123,1.769579 -0.399114,0.65511 -0.71312,1.239836 -0.697796,1.299392 0.01534,0.05955 0.524493,0.904159 1.131486,1.876898 0.606994,0.972738 1.455302,2.34933 1.885131,3.059092 0.42983,0.709762 0.819026,1.305031 0.864883,1.322824 0.04586,0.01779 1.796857,-1.372713 3.891121,-3.090011 2.094264,-1.717298 3.945113,-3.234854 4.112994,-3.372345 0.167877,-0.137491 0.326497,-0.228487 0.352485,-0.20221 0.026,0.02628 0.0056,1.205718 -0.04536,2.62098 l -0.09262,2.573205 -2.651571,2.963411 c -1.722753,1.925356 -3.97244,4.317091 -6.422342,6.827853 -2.073923,2.125442 -3.793327,3.872761 -3.820896,3.882932 -0.02756,0.01016 -0.563437,-0.542071 -1.19081,-1.227202 z"
     id="path16" />
  <path
     style="opacity:0.3"
     d="m 24.014563,35.155014 -2.168193,3.156218 c 0.263706,0.279286 0.764196,0.792183 0.919599,0.961895 0.627373,0.685132 1.161577,1.236574 1.189137,1.226416 0.01586,-0.0058 1.31716,-1.335795 2.197921,-2.232398 z"
     id="path18" />
</svg>
