<?xml version="1.0" encoding="UTF-8" standalone="no"?>
<svg
   xmlns:dc="http://purl.org/dc/elements/1.1/"
   xmlns:cc="http://creativecommons.org/ns#"
   xmlns:rdf="http://www.w3.org/1999/02/22-rdf-syntax-ns#"
   xmlns:svg="http://www.w3.org/2000/svg"
   xmlns="http://www.w3.org/2000/svg"
   xmlns:sodipodi="http://sodipodi.sourceforge.net/DTD/sodipodi-0.dtd"
   xmlns:inkscape="http://www.inkscape.org/namespaces/inkscape"
   width="48"
   height="48"
   version="1"
   id="svg20"
   sodipodi:docname="noiz2sa.svg"
   inkscape:version="0.92.5 (2060ec1f9f, 2020-04-08)">
  <metadata
     id="metadata26">
    <rdf:RDF>
      <cc:Work
         rdf:about="">
        <dc:format>image/svg+xml</dc:format>
        <dc:type
           rdf:resource="http://purl.org/dc/dcmitype/StillImage" />
      </cc:Work>
    </rdf:RDF>
  </metadata>
  <defs
     id="defs24" />
  <sodipodi:namedview
     pagecolor="#ffffff"
     bordercolor="#666666"
     borderopacity="1"
     objecttolerance="10"
     gridtolerance="10"
     guidetolerance="10"
     inkscape:pageopacity="0"
     inkscape:pageshadow="2"
     inkscape:window-width="765"
     inkscape:window-height="480"
     id="namedview22"
     showgrid="false"
     inkscape:zoom="4.9166667"
     inkscape:cx="15.563255"
     inkscape:cy="32.290058"
     inkscape:window-x="0"
     inkscape:window-y="28"
     inkscape:window-maximized="0"
     inkscape:current-layer="svg20" />
  <path
     style="opacity:0.2;fill:none;stroke:#000000;stroke-width:12"
     d="m 10,11.000359 28,28"
     id="path2" />
  <rect
     style="opacity:0.2"
     width="12"
     height="40"
     x="32"
     y="5"
     rx="4"
     ry="4"
     id="rect4" />
  <rect
     style="opacity:0.2"
     width="12"
     height="40"
     x="4"
     y="5"
     rx="4"
     ry="4"
     id="rect6" />
  <path
     style="fill:none;stroke:#414b5f;stroke-width:12;stroke-opacity:1"
     d="M 10,10 38,38"
     id="path8" />
  <path
     style="opacity:0.1;fill:#ffffff"
     d="M 14.242188 5.7578125 L 5.7578125 14.242188 L 6.2578125 14.742188 L 14.242188 6.7578125 L 41.742188 34.257812 L 42.242188 33.757812 L 14.242188 5.7578125 z"
     id="path10" />
  <rect
     style="fill:#4c566a;fill-opacity:1"
     width="12"
     height="40"
     x="4"
     y="4"
     rx="4"
     ry="4"
     id="rect12" />
  <rect
     style="fill:#4c566a;fill-opacity:1"
     width="12"
     height="40"
     x="32"
     y="4"
     rx="4"
     ry="4"
     id="rect14" />
  <path
     style="opacity:0.1;fill:#ffffff"
     d="M 8 4 C 5.784 4 4 5.784 4 8 L 4 9 C 4 6.784 5.784 5 8 5 L 12 5 C 14.216 5 16 6.784 16 9 L 16 8 C 16 5.784 14.216 4 12 4 L 8 4 z"
     id="path16" />
  <path
     style="opacity:0.1;fill:#ffffff"
     d="M 36 4 C 33.784 4 32 5.784 32 8 L 32 9 C 32 6.784 33.784 5 36 5 L 40 5 C 42.216 5 44 6.784 44 9 L 44 8 C 44 5.784 42.216 4 40 4 L 36 4 z"
     id="path18" />
</svg>
