<?xml version="1.0" encoding="UTF-8" standalone="no"?>
<svg
   xmlns:dc="http://purl.org/dc/elements/1.1/"
   xmlns:cc="http://creativecommons.org/ns#"
   xmlns:rdf="http://www.w3.org/1999/02/22-rdf-syntax-ns#"
   xmlns:svg="http://www.w3.org/2000/svg"
   xmlns="http://www.w3.org/2000/svg"
   xmlns:sodipodi="http://sodipodi.sourceforge.net/DTD/sodipodi-0.dtd"
   xmlns:inkscape="http://www.inkscape.org/namespaces/inkscape"
   width="48"
   height="48"
   version="1.1"
   id="svg12"
   sodipodi:docname="appimagekit-nostlan.svg"
   inkscape:version="0.92.5 (2060ec1f9f, 2020-04-08)">
  <metadata
     id="metadata18">
    <rdf:RDF>
      <cc:Work
         rdf:about="">
        <dc:format>image/svg+xml</dc:format>
        <dc:type
           rdf:resource="http://purl.org/dc/dcmitype/StillImage" />
      </cc:Work>
    </rdf:RDF>
  </metadata>
  <defs
     id="defs16" />
  <sodipodi:namedview
     pagecolor="#ffffff"
     bordercolor="#666666"
     borderopacity="1"
     objecttolerance="10"
     gridtolerance="10"
     guidetolerance="10"
     inkscape:pageopacity="0"
     inkscape:pageshadow="2"
     inkscape:window-width="640"
     inkscape:window-height="480"
     id="namedview14"
     showgrid="false"
     inkscape:zoom="4.9166667"
     inkscape:cx="24"
     inkscape:cy="24"
     inkscape:current-layer="svg12" />
  <rect
     x="4"
     y="5"
     width="40"
     height="40"
     rx="10"
     ry="10"
     style="opacity:.2"
     id="rect2" />
  <rect
     x="4"
     y="4"
     width="40"
     height="40"
     rx="10"
     ry="10"
     style="fill:#4c566a;fill-opacity:1"
     id="rect4" />
  <path
     d="m14 4c-5.54 0-10 4.46-10 10v1c0-5.54 4.46-10 10-10h20c5.54 0 10 4.46 10 10v-1c0-5.54-4.46-10-10-10h-20z"
     style="fill:#ffffff;opacity:.2"
     id="path6" />
  <path
     d="m28 9c-9 0-21 6-21 16 0 5 6 8 6 8s-4-4-4-8c0-6 10-11 16-11 3 0 9 1.073181 9-2 0-2-3.763932-3-6-3zm10 9s1 2 1 8-11 11.599609-17 9.599609c-2.84605-0.948683-9-1.67279-9 1.400391 0 2 3.830695 2.758455 6 3.300781 12 3 22-4.300781 22-14.300781 0-5-3-8-3-8zm-14 4a4 3 0 0 0-4 3 4 3 0 0 0 4 3 4 3 0 0 0 4-3 4 3 0 0 0-4-3z"
     style="opacity:.2"
     id="path8" />
  <path
     d="m28 8c-9 0-21 6-21 16 0 5 6 8 6 8s-4-4-4-8c0-6 10-11 16-11 3 0 9 1.073181 9-2 0-2-3.763932-3-6-3zm10 9s1 2 1 8-11 11.599609-17 9.599609c-2.84605-0.948683-9-1.67279-9 1.400391 0 2 3.830695 2.758455 6 3.300781 12 3 22-4.300781 22-14.300781 0-5-3-8-3-8zm-14 4a4 3 0 0 0-4 3 4 3 0 0 0 4 3 4 3 0 0 0 4-3 4 3 0 0 0-4-3z"
     style="fill:#ffffff"
     id="path10" />
</svg>
