<?xml version="1.0" encoding="UTF-8" standalone="no"?>
<svg
   xmlns:dc="http://purl.org/dc/elements/1.1/"
   xmlns:cc="http://creativecommons.org/ns#"
   xmlns:rdf="http://www.w3.org/1999/02/22-rdf-syntax-ns#"
   xmlns:svg="http://www.w3.org/2000/svg"
   xmlns="http://www.w3.org/2000/svg"
   xmlns:sodipodi="http://sodipodi.sourceforge.net/DTD/sodipodi-0.dtd"
   xmlns:inkscape="http://www.inkscape.org/namespaces/inkscape"
   width="48"
   height="48"
   version="1.1"
   id="svg12"
   sodipodi:docname="brave-cnmnfnkedfekfidgojcdmndbcipagogc-Default.svg"
   inkscape:version="0.92.5 (2060ec1f9f, 2020-04-08)">
  <metadata
     id="metadata18">
    <rdf:RDF>
      <cc:Work
         rdf:about="">
        <dc:format>image/svg+xml</dc:format>
        <dc:type
           rdf:resource="http://purl.org/dc/dcmitype/StillImage" />
      </cc:Work>
    </rdf:RDF>
  </metadata>
  <defs
     id="defs16" />
  <sodipodi:namedview
     pagecolor="#ffffff"
     bordercolor="#666666"
     borderopacity="1"
     objecttolerance="10"
     gridtolerance="10"
     guidetolerance="10"
     inkscape:pageopacity="0"
     inkscape:pageshadow="2"
     inkscape:window-width="783"
     inkscape:window-height="480"
     id="namedview14"
     showgrid="false"
     inkscape:zoom="4.9166667"
     inkscape:cx="24"
     inkscape:cy="24"
     inkscape:window-x="0"
     inkscape:window-y="28"
     inkscape:window-maximized="0"
     inkscape:current-layer="svg12" />
  <rect
     style="opacity:0.2"
     width="40"
     height="40"
     x="4"
     y="5"
     rx="2"
     ry="2"
     id="rect2" />
  <rect
     style="fill:#4c566a;fill-opacity:1"
     width="40"
     height="40"
     x="4"
     y="4"
     rx="2"
     ry="2"
     id="rect4" />
  <path
     style="opacity:0.2;fill:#ffffff"
     d="M 6,4 C 4.892,4 4,4.892 4,6 V 7 C 4,5.892 4.892,5 6,5 h 36 c 1.108,0 2,0.892 2,2 V 6 C 44,4.892 43.108,4 42,4 Z"
     id="path6" />
  <path
     style="opacity:0.1"
     d="m 10,13.999973 h 3 v 22 c -3,0 -3,3 -3,3 h 3 4 3 c 0,0 0,-3 -3,-3 V 20.232395 l 9.868604,16.837254 c 0.879287,1.960579 1.276156,1.930324 3.281705,1.930324 H 31 33 c 0,0 2,0 2,-3 v -22 h 3 c 0,0 0,-3 -3,-3 h -4 c -3,0 -3,3 -3,3 h 3 V 29.767551 L 21.229232,13.097219 C 20.203651,10.704458 19.429569,10.999973 17,10.999973 h -4 c -3,0 -3,3 -3,3 z"
     id="path8" />
  <path
     style="fill:#f8f8f8;fill-opacity:1"
     d="m 10,13 h 3 v 22 c -3,0 -3,3 -3,3 h 3 4 3 c 0,0 0,-3 -3,-3 V 19.232422 l 9.868604,16.837254 C 27.747891,38.030255 28.14476,38 30.150309,38 H 31 33 c 0,0 2,0 2,-3 V 13 h 3 c 0,0 0,-3 -3,-3 h -4 c -3,0 -3,3 -3,3 h 3 V 28.767578 L 21.229232,12.097246 C 20.203651,9.7044848 19.429569,10 17,10 h -4 c -3,0 -3,3 -3,3 z"
     id="path10" />
</svg>
