<?xml version="1.0" encoding="UTF-8" standalone="no"?>
<svg
   xmlns:dc="http://purl.org/dc/elements/1.1/"
   xmlns:cc="http://creativecommons.org/ns#"
   xmlns:rdf="http://www.w3.org/1999/02/22-rdf-syntax-ns#"
   xmlns:svg="http://www.w3.org/2000/svg"
   xmlns="http://www.w3.org/2000/svg"
   xmlns:sodipodi="http://sodipodi.sourceforge.net/DTD/sodipodi-0.dtd"
   xmlns:inkscape="http://www.inkscape.org/namespaces/inkscape"
   width="48"
   height="48"
   version="1.1"
   id="svg14"
   sodipodi:docname="novprog.svg"
   inkscape:version="0.92.5 (2060ec1f9f, 2020-04-08)">
  <metadata
     id="metadata20">
    <rdf:RDF>
      <cc:Work
         rdf:about="">
        <dc:format>image/svg+xml</dc:format>
        <dc:type
           rdf:resource="http://purl.org/dc/dcmitype/StillImage" />
      </cc:Work>
    </rdf:RDF>
  </metadata>
  <defs
     id="defs18" />
  <sodipodi:namedview
     pagecolor="#ffffff"
     bordercolor="#666666"
     borderopacity="1"
     objecttolerance="10"
     gridtolerance="10"
     guidetolerance="10"
     inkscape:pageopacity="0"
     inkscape:pageshadow="2"
     inkscape:window-width="765"
     inkscape:window-height="480"
     id="namedview16"
     showgrid="false"
     inkscape:zoom="4.9166667"
     inkscape:cx="-2.9491525"
     inkscape:cy="24"
     inkscape:window-x="0"
     inkscape:window-y="28"
     inkscape:window-maximized="0"
     inkscape:current-layer="svg14" />
  <path
     style="fill:#4c566a;fill-opacity:1"
     d="m10 4c-1.108 0-2 0.892-2 2v36c0 1.108 0.892 2 2 2h28c1.108 0 2-0.892 2-2v-36c0-1.108-0.892-2-2-2h-28z"
     id="path2" />
  <path
     style="opacity:0.3"
     d="m10 4c-1.108 0-2 0.892-2 2v36c0 1.108 0.892 2 2 2h3.9785v-40h-3.978z"
     id="path4" />
  <path
     fill="#fff"
     style="opacity:0.1"
     d="m10 4c-1.108 0-2 0.892-2 2v1c0-1.108 0.892-2 2-2h28c1.108 0 2 0.892 2 2v-1c0-1.108-0.892-2-2-2h-28z"
     id="path6" />
  <path
     opacity=".2"
     d="m8 42v1c0 1.108 0.892 2 2 2h28c1.108 0 2-0.892 2-2v-1c0 1.108-0.892 2-2 2h-28c-1.108 0-2-0.892-2-2z"
     id="path8" />
  <path
     style="opacity:0.2"
     d="m 32,14 v 21 h 4 V 14 Z m -14,5 v 16 h 4 V 19 Z m 7,6 v 10 h 4 V 25 Z"
     id="path10" />
  <path
     style="fill:#ffffff"
     d="m 32,13 v 21 h 4 V 13 Z m -14,5 v 16 h 4 V 18 Z m 7,6 v 10 h 4 V 24 Z"
     id="path12" />
</svg>
