<?xml version="1.0" encoding="UTF-8" standalone="no"?>
<svg
   xmlns:dc="http://purl.org/dc/elements/1.1/"
   xmlns:cc="http://creativecommons.org/ns#"
   xmlns:rdf="http://www.w3.org/1999/02/22-rdf-syntax-ns#"
   xmlns:svg="http://www.w3.org/2000/svg"
   xmlns="http://www.w3.org/2000/svg"
   xmlns:sodipodi="http://sodipodi.sourceforge.net/DTD/sodipodi-0.dtd"
   xmlns:inkscape="http://www.inkscape.org/namespaces/inkscape"
   width="48"
   height="48"
   version="1"
   id="svg10"
   sodipodi:docname="nvidia-current-updates-settings.svg"
   inkscape:version="0.92.5 (2060ec1f9f, 2020-04-08)">
  <metadata
     id="metadata16">
    <rdf:RDF>
      <cc:Work
         rdf:about="">
        <dc:format>image/svg+xml</dc:format>
        <dc:type
           rdf:resource="http://purl.org/dc/dcmitype/StillImage" />
      </cc:Work>
    </rdf:RDF>
  </metadata>
  <defs
     id="defs14" />
  <sodipodi:namedview
     pagecolor="#ffffff"
     bordercolor="#666666"
     borderopacity="1"
     objecttolerance="10"
     gridtolerance="10"
     guidetolerance="10"
     inkscape:pageopacity="0"
     inkscape:pageshadow="2"
     inkscape:window-width="640"
     inkscape:window-height="480"
     id="namedview12"
     showgrid="false"
     inkscape:zoom="4.9166667"
     inkscape:cx="-15.661017"
     inkscape:cy="24"
     inkscape:current-layer="svg10" />
  <path
     style="opacity:0.2"
     d="m 20.5,10 0.02539,0.01758 c -2.218945,-0.1338122 -4.511093,1.160748 -5.173829,3.751953 -5.9940037,1.946034 -9.8613276,5.970703 -9.8613276,5.970703 -1.3697201,1.350281 -1.843586,3.366489 -1.21875,5.185547 0,0 2.9387002,8.666623 11.2089846,11.720703 0.699465,2.005201 2.589198,3.349864 4.71289,3.353516 H 39 c 2.761309,-2.76e-4 4.999724,-2.238691 5,-5 V 15 c -2.76e-4,-2.761309 -2.238691,-4.999724 -5,-5 z"
     id="path2" />
  <path
     style="fill:#4c566a;fill-opacity:1"
     d="M 20.5 9 L 20.525391 9.0175781 C 18.306446 8.8837658 16.014298 10.178326 15.351562 12.769531 C 9.3575583 14.715565 5.4902344 18.740234 5.4902344 18.740234 C 4.1205143 20.090515 3.6466484 22.106723 4.2714844 23.925781 C 4.2714844 23.925781 7.2101846 32.592404 15.480469 35.646484 C 16.179934 37.651685 18.069667 38.996348 20.193359 39 L 39 39 C 41.761309 38.999724 43.999724 36.761309 44 34 L 44 14 C 43.999724 11.238691 41.761309 9.0002761 39 9 L 20.5 9 z"
     id="path4" />
  <path
     style="opacity:0.2;fill:#ffffff"
     d="M 20.5 9 L 20.525391 9.0175781 C 18.306446 8.8837658 16.014299 10.178326 15.351562 12.769531 C 9.3575588 14.715565 5.4902344 18.740234 5.4902344 18.740234 C 4.4060299 19.809052 3.8942026 21.294278 4.0332031 22.769531 C 4.1540864 21.642511 4.652207 20.566368 5.4902344 19.740234 C 5.4902344 19.740234 9.3575588 15.715565 15.351562 13.769531 C 16.014299 11.178326 18.306446 9.8837659 20.525391 10.017578 L 20.5 10 L 39 10 C 41.761309 10.000276 43.999724 12.238691 44 15 L 44 14 C 43.999724 11.238691 41.761309 9.0002761 39 9 L 20.5 9 z"
     id="path8" />
  <path
     inkscape:connector-curvature="0"
     d="m 12.471765,22.609276 c 0,0 2.7123,-4.0319 8.1279,-4.449 v -1.4628 c -5.999,0.485 -11.1930003,5.604 -11.1930003,5.604 0,0 2.9420003,8.5689 11.1930003,9.3535 v -1.5548 c -6.055,-0.768 -8.128,-7.491 -8.128,-7.491 z m 8.1279,4.3986 v 1.4239 c -4.5761,-0.82197 -5.8464,-5.6147 -5.8464,-5.6147 0,0 2.1972,-2.4523 5.8464,-2.85 v 1.5625 c -0.0023,0 -0.0038,-8.11e-4 -0.0058,-8.11e-4 -1.9153,-0.23157 -3.4115,1.5711 -3.4115,1.5711 0,0 0.83862,3.0347 3.4185,3.9081 m 0,-13.008 v 2.698 c 0.17609,-0.01347 0.35218,-0.025 0.52923,-0.03108 6.8196,-0.23157 11.263,5.6352 11.263,5.6352 0,0 -5.1034,6.2523 -10.42,6.2523 -0.48729,0 -0.94348,-0.04556 -1.372,-0.12202 v 1.6684 c 0.3664,0.0468 0.7463,0.07444 1.1427,0.07444 4.9477,0 8.5258,-2.5458 11.99,-5.5589 0.57444,0.46351 2.9261,1.5911 3.4096,2.0847 -3.2942,2.7787 -10.972,5.0187 -15.324,5.0187 -0.41954,0 -0.82247,-0.02557 -1.2185,-0.06407 v 2.3444 h 18.806 v -20 h -18.806 z m 0,5.9677 v -1.8068 c 0.17428,-0.01042 0.34989,-0.02166 0.52923,-0.02743 4.904,-0.1552 8.1213,4.2459 8.1213,4.2459 0,0 -3.475,4.8625 -7.2009,4.8625 -0.53622,0 -1.017,-0.0868 -1.4497,-0.2334 v -5.4783 c 1.9091,0.23242 2.2934,1.0821 3.4411,3.0098 l 2.5527,-2.1687 c 0,0 -1.8634,-2.4623 -5.0047,-2.4623 -0.34145,-1.17e-4 -0.66819,0.0241 -0.98903,0.05851"
     id="path6"
     style="fill:#ffffff;fill-opacity:1" />
</svg>
