<?xml version="1.0" encoding="UTF-8" standalone="no"?>
<svg
   xmlns:dc="http://purl.org/dc/elements/1.1/"
   xmlns:cc="http://creativecommons.org/ns#"
   xmlns:rdf="http://www.w3.org/1999/02/22-rdf-syntax-ns#"
   xmlns:svg="http://www.w3.org/2000/svg"
   xmlns="http://www.w3.org/2000/svg"
   xmlns:sodipodi="http://sodipodi.sourceforge.net/DTD/sodipodi-0.dtd"
   xmlns:inkscape="http://www.inkscape.org/namespaces/inkscape"
   width="48"
   height="48"
   version="1"
   id="svg36"
   sodipodi:docname="nylas.svg"
   inkscape:version="0.92.5 (2060ec1f9f, 2020-04-08)">
  <metadata
     id="metadata42">
    <rdf:RDF>
      <cc:Work
         rdf:about="">
        <dc:format>image/svg+xml</dc:format>
        <dc:type
           rdf:resource="http://purl.org/dc/dcmitype/StillImage" />
      </cc:Work>
    </rdf:RDF>
  </metadata>
  <defs
     id="defs40" />
  <sodipodi:namedview
     pagecolor="#ffffff"
     bordercolor="#666666"
     borderopacity="1"
     objecttolerance="10"
     gridtolerance="10"
     guidetolerance="10"
     inkscape:pageopacity="0"
     inkscape:pageshadow="2"
     inkscape:window-width="765"
     inkscape:window-height="480"
     id="namedview38"
     showgrid="false"
     inkscape:zoom="4.9166667"
     inkscape:cx="24"
     inkscape:cy="24"
     inkscape:window-x="0"
     inkscape:window-y="28"
     inkscape:window-maximized="0"
     inkscape:current-layer="svg36" />
  <circle
     fill="#37a0f2"
     cx="24"
     cy="24"
     r="20"
     id="circle2"
     style="fill:#4c566a;fill-opacity:1" />
  <path
     fill="#fff"
     opacity=".2"
     d="m24 4c-11.079 0-19.998 8.92-19.998 20 0 0.16772-0.004 0.33329 0 0.5 0.2642-10.846 9.087-19.5 19.998-19.5s19.734 8.6536 19.998 19.5c0.004-0.16671 0-0.33228 0-0.5 0-11.08-8.919-20-19.998-20z"
     id="path4" />
  <path
     opacity=".2"
     d="m43.979 24.418a20 20 0 0 1 -19.979 19.582 20 20 0 0 1 -19.978 -19.418 20 20 0 0 0 -0.022 0.418 20 20 0 0 0 20 20 20 20 0 0 0 20 -20 20 20 0 0 0 -0.021 -0.582z"
     id="path6" />
  <g
     opacity=".2"
     transform="translate(0,1)"
     id="g20">
    <path
       d="m11 27 12 4v3l-12-4z"
       id="path8" />
    <path
       d="m11 21 12 4v3l-12-4z"
       id="path10" />
    <path
       d="m11 15 12 4v3l-12-4z"
       id="path12" />
    <path
       d="m25 25.5 12 4v3l-12-4z"
       id="path14" />
    <path
       d="m25 19.5 12 4v3l-12-4z"
       id="path16" />
    <path
       d="m25 13.5 12 4v3l-12-4z"
       id="path18" />
  </g>
  <g
     fill="#fff"
     id="g34">
    <path
       d="m11 27 12 4v3l-12-4z"
       id="path22" />
    <path
       d="m11 21 12 4v3l-12-4z"
       id="path24" />
    <path
       d="m11 15 12 4v3l-12-4z"
       id="path26" />
    <path
       d="m25 25.5 12 4v3l-12-4z"
       id="path28" />
    <path
       d="m25 19.5 12 4v3l-12-4z"
       id="path30" />
    <path
       d="m25 13.5 12 4v3l-12-4z"
       id="path32" />
  </g>
</svg>
