<?xml version="1.0" encoding="UTF-8" standalone="no"?>
<svg
   xmlns:dc="http://purl.org/dc/elements/1.1/"
   xmlns:cc="http://creativecommons.org/ns#"
   xmlns:rdf="http://www.w3.org/1999/02/22-rdf-syntax-ns#"
   xmlns:svg="http://www.w3.org/2000/svg"
   xmlns="http://www.w3.org/2000/svg"
   xmlns:sodipodi="http://sodipodi.sourceforge.net/DTD/sodipodi-0.dtd"
   xmlns:inkscape="http://www.inkscape.org/namespaces/inkscape"
   width="48"
   height="48"
   version="1"
   id="svg12"
   sodipodi:docname="com.obsproject.Studio.svg"
   inkscape:version="0.92.5 (2060ec1f9f, 2020-04-08)">
  <metadata
     id="metadata18">
    <rdf:RDF>
      <cc:Work
         rdf:about="">
        <dc:format>image/svg+xml</dc:format>
        <dc:type
           rdf:resource="http://purl.org/dc/dcmitype/StillImage" />
      </cc:Work>
    </rdf:RDF>
  </metadata>
  <defs
     id="defs16" />
  <sodipodi:namedview
     pagecolor="#ffffff"
     bordercolor="#666666"
     borderopacity="1"
     objecttolerance="10"
     gridtolerance="10"
     guidetolerance="10"
     inkscape:pageopacity="0"
     inkscape:pageshadow="2"
     inkscape:window-width="640"
     inkscape:window-height="480"
     id="namedview14"
     showgrid="false"
     inkscape:zoom="4.9166667"
     inkscape:cx="-15.661017"
     inkscape:cy="24"
     inkscape:current-layer="svg12" />
  <path
     inkscape:connector-curvature="0"
     d="m 44,23.90678 a 20,20 0 0 1 -20,20 20,20 0 0 1 -20,-20 A 20,20 0 0 1 24,3.9067797 20,20 0 0 1 44,23.90678 Z"
     id="path2"
     style="fill:#4c566a;fill-opacity:1" />
  <path
     inkscape:connector-curvature="0"
     style="opacity:0.1;fill:#ffffff"
     d="M 24,3.9067797 A 20,20 0 0 0 4,23.90678 a 20,20 0 0 0 0.0215,0.582 20,20 0 0 1 19.978,-19.5820003 20,20 0 0 1 19.978,19.4180003 20,20 0 0 0 0.022,-0.418 20,20 0 0 0 -20,-20.0000003 z"
     id="path4" />
  <path
     inkscape:connector-curvature="0"
     style="opacity:0.2"
     d="M 43.979,24.32478 A 20,20 0 0 1 24,43.90678 20,20 0 0 1 4.022,24.48878 20,20 0 0 0 4,24.90678 a 20,20 0 0 0 20,20 20,20 0 0 0 20,-20 20,20 0 0 0 -0.021,-0.582 z"
     id="path6" />
  <path
     d="m 24,9.4850964 c -8.589748,0 -15.5710111,6.9812626 -15.5710111,15.5710116 0,8.589748 6.9812631,15.571011 15.5710111,15.571011 8.589748,0 15.571011,-6.981263 15.571011,-15.571011 C 39.571011,16.466359 32.589748,9.4850964 24,9.4850964 Z m 0,1.6726606 c 7.686518,0 13.89824,6.211721 13.89824,13.898239 0,7.686519 -6.211722,13.89824 -13.89824,13.89824 -7.686518,0 -13.89824,-6.211721 -13.89824,-13.89824 0,-7.686518 6.211722,-13.898239 13.89824,-13.898239 z m -4.042679,1.318531 c -0.03895,0.0125 -0.109309,0.04994 -0.204192,0.10427 -0.639001,0.365919 -2.134341,1.990865 -2.558984,2.780538 -0.489386,0.910236 -0.886514,2.520279 -0.884122,3.584335 0.0022,0.915364 0.241195,2.131449 0.593033,3.010766 0.205081,0.512542 0.230918,0.528814 0.990561,0.614755 0.429092,0.04849 1.107844,0.199175 1.507607,0.336701 3.534397,1.215985 5.202053,5.293031 3.54741,8.67183 -1.127897,2.303063 -3.739601,3.786981 -6.180134,3.510373 -0.993353,-0.112545 -0.886302,0.02103 0.215058,0.271536 0.976046,0.222009 2.755735,0.163184 3.684212,-0.121654 1.480803,-0.454295 3.257567,-1.69991 4.090394,-2.869626 l 0.273705,-0.386673 -0.343219,-1.042702 c -1.256914,-3.803108 1.024617,-7.636023 4.937679,-8.296012 2.844045,-0.479709 5.829119,1.259473 6.857918,3.997079 0.244899,0.651691 0.251283,0.65892 0.171615,0.158579 -0.235678,-1.479913 -0.968016,-2.845713 -2.159254,-4.023104 -1.243012,-1.228553 -2.686778,-1.924243 -4.490124,-2.165816 -0.553527,-0.07418 -0.61075,-0.05271 -0.818957,0.299775 -0.320997,0.543395 -1.254134,1.451218 -1.944152,1.8921 -1.858512,1.187512 -4.725357,1.189069 -6.58854,0.0022 -2.104756,-1.340664 -3.295048,-3.908213 -2.908665,-6.273561 0.21091,-1.291282 0.779463,-2.437642 1.685673,-3.397483 0.492578,-0.521685 0.642527,-0.695724 0.5257,-0.658209 z"
     id="path8"
     inkscape:connector-curvature="0"
     style="opacity:0.2;stroke-width:1.11221504" />
  <path
     d="m 24,8.3728814 c -8.589748,0 -15.5710111,6.9812626 -15.5710111,15.5710106 0,8.589749 6.9812631,15.571012 15.5710111,15.571012 8.589748,0 15.571011,-6.981263 15.571011,-15.571012 C 39.571011,15.354144 32.589748,8.3728814 24,8.3728814 Z m 0,1.6726606 c 7.686518,0 13.89824,6.211721 13.89824,13.898239 0,7.686519 -6.211722,13.89824 -13.89824,13.89824 -7.686518,0 -13.89824,-6.211721 -13.89824,-13.89824 0,-7.686518 6.211722,-13.898239 13.89824,-13.898239 z m -4.042679,1.318531 c -0.03895,0.0125 -0.109309,0.04994 -0.204192,0.10427 -0.639001,0.365919 -2.134341,1.990865 -2.558984,2.780537 -0.489386,0.910237 -0.886514,2.52028 -0.884122,3.584336 0.0022,0.915364 0.241195,2.131449 0.593033,3.010766 0.205081,0.512542 0.230918,0.528814 0.990561,0.614755 0.429092,0.04849 1.107844,0.199175 1.507607,0.336701 3.534397,1.215984 5.202053,5.293031 3.54741,8.671829 -1.127897,2.303064 -3.739601,3.786982 -6.180134,3.510374 -0.993353,-0.112545 -0.886302,0.02103 0.215058,0.271536 0.976046,0.222009 2.755735,0.163184 3.684212,-0.121654 1.480803,-0.454296 3.257567,-1.69991 4.090394,-2.869626 l 0.273705,-0.386673 -0.343219,-1.042702 c -1.256914,-3.803108 1.024617,-7.636024 4.937679,-8.296012 2.844045,-0.479709 5.829119,1.259472 6.857918,3.997079 0.244899,0.651691 0.251283,0.65892 0.171615,0.158579 -0.235678,-1.479913 -0.968016,-2.845713 -2.159254,-4.023104 -1.243012,-1.228553 -2.686778,-1.924243 -4.490124,-2.165817 -0.553527,-0.07418 -0.61075,-0.05271 -0.818957,0.299776 -0.320997,0.543395 -1.254134,1.451218 -1.944152,1.8921 -1.858512,1.187512 -4.725357,1.189069 -6.58854,0.0022 -2.104756,-1.340664 -3.295048,-3.908212 -2.908665,-6.27356 0.21091,-1.291282 0.779463,-2.437642 1.685673,-3.397483 0.492578,-0.521685 0.642527,-0.695724 0.5257,-0.658209 z"
     id="path10"
     inkscape:connector-curvature="0"
     style="fill:#ffffff;stroke-width:1.11221504" />
</svg>
