<?xml version="1.0" encoding="UTF-8" standalone="no"?>
<svg
   xmlns:dc="http://purl.org/dc/elements/1.1/"
   xmlns:cc="http://creativecommons.org/ns#"
   xmlns:rdf="http://www.w3.org/1999/02/22-rdf-syntax-ns#"
   xmlns:svg="http://www.w3.org/2000/svg"
   xmlns="http://www.w3.org/2000/svg"
   xmlns:sodipodi="http://sodipodi.sourceforge.net/DTD/sodipodi-0.dtd"
   xmlns:inkscape="http://www.inkscape.org/namespaces/inkscape"
   width="48"
   height="48"
   version="1"
   id="svg24"
   sodipodi:docname="appimagekit-odio.svg"
   inkscape:version="0.92.5 (2060ec1f9f, 2020-04-08)">
  <metadata
     id="metadata30">
    <rdf:RDF>
      <cc:Work
         rdf:about="">
        <dc:format>image/svg+xml</dc:format>
        <dc:type
           rdf:resource="http://purl.org/dc/dcmitype/StillImage" />
      </cc:Work>
    </rdf:RDF>
  </metadata>
  <defs
     id="defs28" />
  <sodipodi:namedview
     pagecolor="#ffffff"
     bordercolor="#666666"
     borderopacity="1"
     objecttolerance="10"
     gridtolerance="10"
     guidetolerance="10"
     inkscape:pageopacity="0"
     inkscape:pageshadow="2"
     inkscape:window-width="640"
     inkscape:window-height="480"
     id="namedview26"
     showgrid="false"
     inkscape:zoom="4.9166667"
     inkscape:cx="24"
     inkscape:cy="24"
     inkscape:current-layer="svg24" />
  <rect
     style="fill:#4c566a;fill-opacity:1"
     width="40"
     height="40"
     x="4"
     y="4"
     rx="20"
     ry="20"
     id="rect2" />
  <path
     style="opacity:0.2"
     d="M 22.984375,14.986086 A 1.0001,1.0001 0 0 0 22,15.999758 v 18 a 1.0001,1.0001 0 1 0 2,0 v -18 a 1.0001,1.0001 0 0 0 -1.015625,-1.013672 z m -8,1 A 1.0001,1.0001 0 0 0 14,16.999758 v 16 a 1.0001,1.0001 0 1 0 2,0 v -16 a 1.0001,1.0001 0 0 0 -1.015625,-1.013672 z m 4,2 A 1.0001,1.0001 0 0 0 18,18.999758 v 12 a 1.0001,1.0001 0 1 0 2,0 v -12 a 1.0001,1.0001 0 0 0 -1.015625,-1.013672 z m 16,0 A 1.0001,1.0001 0 0 0 34,18.999758 v 12 a 1.0001,1.0001 0 1 0 2,0 v -12 a 1.0001,1.0001 0 0 0 -1.015625,-1.013672 z m -8,1 A 1.0001,1.0001 0 0 0 26,19.999758 v 10 a 1.0001,1.0001 0 1 0 2,0 v -10 a 1.0001,1.0001 0 0 0 -1.015625,-1.013672 z m -16,2 A 1.0001,1.0001 0 0 0 10,21.999758 v 6 a 1.0001,1.0001 0 1 0 2,0 v -6 a 1.0001,1.0001 0 0 0 -1.015625,-1.013672 z m 20,0 A 1.0001,1.0001 0 0 0 30,21.999758 v 6 a 1.0001,1.0001 0 1 0 2,0 v -6 a 1.0001,1.0001 0 0 0 -1.015625,-1.013672 z"
     id="path4" />
  <path
     fill="#fff"
     opacity=".2"
     d="m24 4c-11.079 0-19.998 8.92-19.998 20 0 0.16772-0.004 0.33329 0 0.5 0.2642-10.846 9.087-19.5 19.998-19.5s19.734 8.6536 19.998 19.5c0.004-0.16671 0-0.33228 0-0.5 0-11.08-8.919-20-19.998-20z"
     id="path6" />
  <path
     opacity=".2"
     d="m4.0117 24.5c-0.0041 0.167-0.0117 0.332-0.0117 0.5 0 11.08 8.92 20 20 20s20-8.92 20-20c0-0.168-0.008-0.333-0.012-0.5-0.264 10.846-9.076 19.5-19.988 19.5s-19.724-8.654-19.988-19.5z"
     id="path8" />
  <path
     style="fill:none;stroke:#fff;stroke-width:2;stroke-linecap:round;stroke-linejoin:round"
     d="m 11,21 v 6 0 0"
     id="path10" />
  <path
     style="fill:none;stroke:#fff;stroke-width:2;stroke-linecap:round;stroke-linejoin:round"
     d="M 15,16 V 32"
     id="path12" />
  <path
     style="fill:none;stroke:#fff;stroke-width:2;stroke-linecap:round;stroke-linejoin:round"
     d="M 19,18 V 30"
     id="path14" />
  <path
     style="fill:none;stroke:#fff;stroke-width:2;stroke-linecap:round;stroke-linejoin:round"
     d="M 23,15 V 33"
     id="path16" />
  <path
     style="fill:none;stroke:#fff;stroke-width:2;stroke-linecap:round;stroke-linejoin:round"
     d="M 27,19 V 29"
     id="path18" />
  <path
     style="fill:none;stroke:#fff;stroke-width:2;stroke-linecap:round;stroke-linejoin:round"
     d="m 31,21 v 6"
     id="path20" />
  <path
     style="fill:none;stroke:#fff;stroke-width:2;stroke-linecap:round;stroke-linejoin:round"
     d="m 35.0001,18 v 12 0"
     id="path22" />
</svg>
