<?xml version="1.0" encoding="UTF-8" standalone="no"?>
<svg
   xmlns:dc="http://purl.org/dc/elements/1.1/"
   xmlns:cc="http://creativecommons.org/ns#"
   xmlns:rdf="http://www.w3.org/1999/02/22-rdf-syntax-ns#"
   xmlns:svg="http://www.w3.org/2000/svg"
   xmlns="http://www.w3.org/2000/svg"
   xmlns:sodipodi="http://sodipodi.sourceforge.net/DTD/sodipodi-0.dtd"
   xmlns:inkscape="http://www.inkscape.org/namespaces/inkscape"
   width="48"
   height="48"
   version="1"
   id="svg12"
   sodipodi:docname="x-office-address-book.svg"
   inkscape:version="0.92.5 (2060ec1f9f, 2020-04-08)">
  <metadata
     id="metadata18">
    <rdf:RDF>
      <cc:Work
         rdf:about="">
        <dc:format>image/svg+xml</dc:format>
        <dc:type
           rdf:resource="http://purl.org/dc/dcmitype/StillImage" />
      </cc:Work>
    </rdf:RDF>
  </metadata>
  <defs
     id="defs16" />
  <sodipodi:namedview
     pagecolor="#ffffff"
     bordercolor="#666666"
     borderopacity="1"
     objecttolerance="10"
     gridtolerance="10"
     guidetolerance="10"
     inkscape:pageopacity="0"
     inkscape:pageshadow="2"
     inkscape:window-width="783"
     inkscape:window-height="480"
     id="namedview14"
     showgrid="false"
     inkscape:zoom="4.9166667"
     inkscape:cx="-1.1186441"
     inkscape:cy="24"
     inkscape:window-x="0"
     inkscape:window-y="28"
     inkscape:window-maximized="0"
     inkscape:current-layer="svg12" />
  <circle
     opacity=".2"
     cx="24"
     cy="25"
     r="20"
     id="circle2" />
  <circle
     fill="#2095f2"
     cx="24"
     cy="24"
     r="20"
     id="circle4"
     style="fill:#4c566a;fill-opacity:1" />
  <path
     opacity=".2"
     d="m24 13c-6.627 0-12 5.373-12 12s5.373 12 12 12h7.5s1.4063 0 1.5-1.5c0-1.5-1.5-1.5-1.5-1.5h-7.5c-4.9706 0-9-4.0294-9-9s4.0294-9 9-9c4.971 0 9 4.029 9 9v1.5c0 0.828-0.672 1.5-1.5 1.5s-1.5-0.672-1.5-1.5v-1.5c0-3.314-2.686-6-6-6s-6 2.686-6 6 2.686 6 6 6c1.569 0 2.986-0.616 4.055-1.603 0.855 1.017 2.116 1.604 3.445 1.603 2.485 0 4.5-2.015 4.5-4.5v-1.5c0-6.627-5.373-12-12-12zm0 9c1.6568 0 3 1.3432 3 3 0 1.657-1.343 3-3 3s-3-1.343-3-3c0-1.6568 1.3432-3 3-3z"
     id="path6" />
  <path
     fill="#fff"
     d="m24 12c-6.627 0-12 5.373-12 12s5.373 12 12 12h7.5s1.4063 0 1.5-1.5c0-1.5-1.5-1.5-1.5-1.5h-7.5c-4.9706 0-9-4.0294-9-9s4.0294-9 9-9c4.971 0 9 4.029 9 9v1.5c0 0.828-0.672 1.5-1.5 1.5s-1.5-0.672-1.5-1.5v-1.5c0-3.314-2.686-6-6-6s-6 2.686-6 6 2.686 6 6 6c1.569 0 2.986-0.616 4.055-1.603 0.855 1.017 2.116 1.604 3.445 1.603 2.485 0 4.5-2.015 4.5-4.5v-1.5c0-6.627-5.373-12-12-12zm0 9c1.6568 0 3 1.3432 3 3 0 1.657-1.343 3-3 3s-3-1.343-3-3c0-1.6568 1.3432-3 3-3z"
     id="path8" />
  <path
     fill="#fff"
     opacity=".2"
     d="m24 4a20 20 0 0 0 -20 20 20 20 0 0 0 0.0215 0.582 20 20 0 0 1 19.978 -19.582 20 20 0 0 1 19.979 19.418 20 20 0 0 0 0.021 -0.418 20 20 0 0 0 -20 -20z"
     id="path10" />
</svg>
