<?xml version="1.0" encoding="UTF-8" standalone="no"?>
<svg
   xmlns:dc="http://purl.org/dc/elements/1.1/"
   xmlns:cc="http://creativecommons.org/ns#"
   xmlns:rdf="http://www.w3.org/1999/02/22-rdf-syntax-ns#"
   xmlns:svg="http://www.w3.org/2000/svg"
   xmlns="http://www.w3.org/2000/svg"
   xmlns:sodipodi="http://sodipodi.sourceforge.net/DTD/sodipodi-0.dtd"
   xmlns:inkscape="http://www.inkscape.org/namespaces/inkscape"
   width="48"
   height="48"
   version="1"
   id="svg56"
   sodipodi:docname="wxHexEditor.svg"
   inkscape:version="0.92.5 (2060ec1f9f, 2020-04-08)">
  <metadata
     id="metadata62">
    <rdf:RDF>
      <cc:Work
         rdf:about="">
        <dc:format>image/svg+xml</dc:format>
        <dc:type
           rdf:resource="http://purl.org/dc/dcmitype/StillImage" />
      </cc:Work>
    </rdf:RDF>
  </metadata>
  <defs
     id="defs60" />
  <sodipodi:namedview
     pagecolor="#ffffff"
     bordercolor="#666666"
     borderopacity="1"
     objecttolerance="10"
     gridtolerance="10"
     guidetolerance="10"
     inkscape:pageopacity="0"
     inkscape:pageshadow="2"
     inkscape:window-width="783"
     inkscape:window-height="480"
     id="namedview58"
     showgrid="false"
     inkscape:zoom="4.9166667"
     inkscape:cx="24"
     inkscape:cy="24.240041"
     inkscape:window-x="0"
     inkscape:window-y="28"
     inkscape:window-maximized="0"
     inkscape:current-layer="svg56" />
  <path
     fill="#4f4f4f"
     d="m40 42v-36c0-1.108-0.892-2-2-2h-28c-1.108 0-2 0.892-2 2v36c0 1.108 0.892 2 2 2h28c1.108 0 2-0.892 2-2z"
     id="path2"
     style="fill:#4c566a;fill-opacity:1" />
  <path
     opacity=".05"
     d="m38 5c1.108 0 2 0.892 2 2v17h-32v-17c0-1.108 0.892-2 2-2z"
     id="path4" />
  <path
     fill="#fff"
     opacity=".1"
     d="m10 4c-1.108 0-2 0.892-2 2v1c0-1.108 0.892-2 2-2h28c1.108 0 2 0.892 2 2v-1c0-1.108-0.892-2-2-2z"
     id="path6" />
  <path
     opacity=".2"
     d="m8 42v1c0 1.108 0.892 2 2 2h28c1.108 0 2-0.892 2-2v-1c0 1.108-0.892 2-2 2h-28c-1.108 0-2-0.892-2-2z"
     id="path8" />
  <path
     fill="#fff"
     opacity=".5"
     d="m11.5 9a0.50005 0.50005 0 0 0 -0.5 0.5v5a0.50005 0.50005 0 0 0 0.5 0.5h3a0.50005 0.50005 0 0 0 0.5 -0.5v-5a0.50005 0.50005 0 0 0 -0.5 -0.5h-3zm0.5 1h2v4h-2v-4z"
     id="path10" />
  <path
     fill="#fff"
     fill-rule="evenodd"
     opacity=".5"
     d="m18.492 9.0001a0.50005 0.4988 0 0 0 -0.49219 0.50655v4.9875a0.50005 0.4988 0 1 0 1 0v-4.9875a0.50005 0.4988 0 0 0 -0.508 -0.5064z"
     id="path12" />
  <path
     fill="#fff"
     fill-rule="evenodd"
     opacity=".5"
     d="m22.492 9.0001a0.50005 0.4988 0 0 0 -0.49219 0.50655v4.9875a0.50005 0.4988 0 1 0 1 0v-4.9875a0.50005 0.4988 0 0 0 -0.508 -0.5064z"
     id="path14" />
  <path
     fill="#fff"
     opacity=".5"
     d="m26.5 9a0.50005 0.50005 0 0 0 -0.5 0.5v5a0.50005 0.50005 0 0 0 0.5 0.5h3a0.50005 0.50005 0 0 0 0.5 -0.5v-5a0.50005 0.50005 0 0 0 -0.5 -0.5h-3zm0.5 1h2v4h-2v-4z"
     id="path16" />
  <path
     fill="#fff"
     opacity=".5"
     d="m33.5 9a0.50005 0.50005 0 0 0 -0.5 0.5v5a0.50005 0.50005 0 0 0 0.5 0.5h3a0.50005 0.50005 0 0 0 0.5 -0.5v-5a0.50005 0.50005 0 0 0 -0.5 -0.5h-3zm0.5 1h2v4h-2v-4z"
     id="path18" />
  <path
     fill="#fff"
     opacity=".5"
     d="m36.5 18a0.50005 0.50005 0 0 1 0.5 0.5v5a0.50005 0.50005 0 0 1 -0.5 0.5h-3a0.50005 0.50005 0 0 1 -0.5 -0.5v-5a0.50005 0.50005 0 0 1 0.5 -0.5h3zm-0.5 1h-2v4h2v-4z"
     id="path20" />
  <path
     fill="#fff"
     fill-rule="evenodd"
     opacity=".5"
     d="m29.508 18a0.50005 0.4988 0 0 1 0.49219 0.50655v4.9875a0.50005 0.4988 0 1 1 -1 0v-4.9875a0.50005 0.4988 0 0 1 0.508 -0.506z"
     id="path22" />
  <path
     fill="#fff"
     fill-rule="evenodd"
     opacity=".5"
     d="m25.508 18a0.50005 0.4988 0 0 1 0.49219 0.50655v4.9875a0.50005 0.4988 0 1 1 -1 0v-4.9875a0.50005 0.4988 0 0 1 0.508 -0.506z"
     id="path24" />
  <path
     fill="#fff"
     opacity=".5"
     d="m21.5 18a0.50005 0.50005 0 0 1 0.5 0.5v5a0.50005 0.50005 0 0 1 -0.5 0.5h-3a0.50005 0.50005 0 0 1 -0.5 -0.5v-5a0.50005 0.50005 0 0 1 0.5 -0.5h3zm-0.5 1h-2v4h2v-4z"
     id="path26" />
  <path
     fill="#fff"
     fill-rule="evenodd"
     opacity=".5"
     d="m13.508 18a0.50005 0.4988 0 0 1 0.49219 0.50655v4.9875a0.50005 0.4988 0 1 1 -1 0v-4.9875a0.50005 0.4988 0 0 1 0.508 -0.506z"
     id="path28" />
  <path
     fill="#fff"
     opacity=".5"
     d="m36.5 26a0.50005 0.50005 0 0 1 0.5 0.5v5a0.50005 0.50005 0 0 1 -0.5 0.5h-3a0.50005 0.50005 0 0 1 -0.5 -0.5v-5a0.50005 0.50005 0 0 1 0.5 -0.5h3zm-0.5 1h-2v4h2v-4z"
     id="path30" />
  <path
     fill="#fff"
     fill-rule="evenodd"
     opacity=".5"
     d="m29.508 26a0.50005 0.4988 0 0 1 0.49219 0.50655v4.9875a0.50005 0.4988 0 1 1 -1 0v-4.9875a0.50005 0.4988 0 0 1 0.508 -0.5064z"
     id="path32" />
  <path
     fill="#fff"
     fill-rule="evenodd"
     opacity=".5"
     d="m25.508 26a0.50005 0.4988 0 0 1 0.49219 0.50655v4.9875a0.50005 0.4988 0 1 1 -1 0v-4.9875a0.50005 0.4988 0 0 1 0.508 -0.5064z"
     id="path34" />
  <path
     fill="#fff"
     opacity=".5"
     d="m21.5 26a0.50005 0.50005 0 0 1 0.5 0.5v5a0.50005 0.50005 0 0 1 -0.5 0.5h-3a0.50005 0.50005 0 0 1 -0.5 -0.5v-5a0.50005 0.50005 0 0 1 0.5 -0.5h3zm-0.5 1h-2v4h2v-4z"
     id="path36" />
  <path
     fill="#fff"
     opacity=".5"
     d="m14.5 26a0.50005 0.50005 0 0 1 0.5 0.5v5a0.50005 0.50005 0 0 1 -0.5 0.5h-3a0.50005 0.50005 0 0 1 -0.5 -0.5v-5a0.50005 0.50005 0 0 1 0.5 -0.5h3zm-0.5 1h-2v4h2v-4z"
     id="path38" />
  <path
     fill="#fff"
     opacity=".5"
     d="m11.5 35a0.50005 0.50005 0 0 0 -0.5 0.5v5a0.50005 0.50005 0 0 0 0.5 0.5h3a0.50005 0.50005 0 0 0 0.5 -0.5v-5a0.50005 0.50005 0 0 0 -0.5 -0.5h-3zm0.5 1h2v4h-2v-4z"
     id="path40" />
  <path
     fill="#fff"
     fill-rule="evenodd"
     opacity=".5"
     d="m18.492 35a0.50005 0.4988 0 0 0 -0.49219 0.50655v4.9875a0.50005 0.4988 0 1 0 1 0v-4.9875a0.50005 0.4988 0 0 0 -0.508 -0.506z"
     id="path42" />
  <path
     fill="#fff"
     fill-rule="evenodd"
     opacity=".5"
     d="m22.492 35a0.50005 0.4988 0 0 0 -0.49219 0.50655v4.9875a0.50005 0.4988 0 1 0 1 0v-4.9875a0.50005 0.4988 0 0 0 -0.508 -0.506z"
     id="path44" />
  <path
     fill="#fff"
     opacity=".5"
     d="m26.5 35a0.50005 0.50005 0 0 0 -0.5 0.5v5a0.50005 0.50005 0 0 0 0.5 0.5h3a0.50005 0.50005 0 0 0 0.5 -0.5v-5a0.50005 0.50005 0 0 0 -0.5 -0.5h-3zm0.5 1h2v4h-2v-4z"
     id="path46" />
  <path
     fill="#fff"
     fill-rule="evenodd"
     opacity=".5"
     d="m34.492 35a0.50005 0.4988 0 0 0 -0.49219 0.50655v4.9875a0.50005 0.4988 0 1 0 1 0v-4.9875a0.50005 0.4988 0 0 0 -0.508 -0.506z"
     id="path48" />
  <circle
     opacity=".2"
     cx="36"
     cy="37"
     r="11"
     id="circle50" />
  <circle
     fill="#f34235"
     cx="36"
     cy="36"
     r="11"
     id="circle52"
     style="fill:#5f697d;fill-opacity:1" />
  <path
     fill="#fff"
     d="m30 39.327v2.6728h2.6728l6.7507-6.7507-2.6728-2.6728zm11.788-6.4337c0.28271-0.28271 0.28271-0.72818 0-1.0109l-1.6705-1.6705c-0.28271-0.28271-0.72818-0.28271-1.0109 0l-1.3964 1.405 2.6728 2.6728z"
     id="path54" />
</svg>
