<?xml version="1.0" encoding="UTF-8" standalone="no"?>
<svg
   xmlns:dc="http://purl.org/dc/elements/1.1/"
   xmlns:cc="http://creativecommons.org/ns#"
   xmlns:rdf="http://www.w3.org/1999/02/22-rdf-syntax-ns#"
   xmlns:svg="http://www.w3.org/2000/svg"
   xmlns="http://www.w3.org/2000/svg"
   xmlns:sodipodi="http://sodipodi.sourceforge.net/DTD/sodipodi-0.dtd"
   xmlns:inkscape="http://www.inkscape.org/namespaces/inkscape"
   width="48"
   height="48"
   version="1.1"
   id="svg12"
   sodipodi:docname="openboardview.svg"
   inkscape:version="0.92.5 (2060ec1f9f, 2020-04-08)">
  <metadata
     id="metadata18">
    <rdf:RDF>
      <cc:Work
         rdf:about="">
        <dc:format>image/svg+xml</dc:format>
        <dc:type
           rdf:resource="http://purl.org/dc/dcmitype/StillImage" />
      </cc:Work>
    </rdf:RDF>
  </metadata>
  <defs
     id="defs16" />
  <sodipodi:namedview
     pagecolor="#ffffff"
     bordercolor="#666666"
     borderopacity="1"
     objecttolerance="10"
     gridtolerance="10"
     guidetolerance="10"
     inkscape:pageopacity="0"
     inkscape:pageshadow="2"
     inkscape:window-width="765"
     inkscape:window-height="480"
     id="namedview14"
     showgrid="false"
     inkscape:zoom="4.9166667"
     inkscape:cx="24"
     inkscape:cy="24"
     inkscape:window-x="0"
     inkscape:window-y="28"
     inkscape:window-maximized="0"
     inkscape:current-layer="svg12" />
  <rect
     style="opacity:0.2"
     width="40"
     height="40"
     x="4"
     y="5"
     rx="2"
     ry="2"
     id="rect2" />
  <rect
     style="fill:#4c566a;fill-opacity:1"
     width="40"
     height="40"
     x="4"
     y="4"
     rx="2"
     ry="2"
     id="rect4" />
  <path
     style="opacity:0.2"
     d="m 37,9 a 5,5 0 0 0 -5,5 5,5 0 0 0 0.634766,2.433594 L 30.998047,18 H 17.761719 l -4.820313,4.962891 A 5,5 0 0 0 10,22 a 5,5 0 0 0 -5,5 5,5 0 0 0 5,5 5,5 0 0 0 5,-5 5,5 0 0 0 -0.708984,-2.554688 L 18.607422,20 h 13.193359 l 2.140625,-2.048828 A 5,5 0 0 0 37,19 5,5 0 0 0 42,14 5,5 0 0 0 37,9 Z m -25,2 a 2,2 0 0 0 -2,2 2,2 0 0 0 2,2 2,2 0 0 0 2,-2 2,2 0 0 0 -2,-2 z m 8,0 a 2,2 0 0 0 -2,2 2,2 0 0 0 2,2 2,2 0 0 0 2,-2 2,2 0 0 0 -2,-2 z m 7,0 a 2,2 0 0 0 -2,2 2,2 0 0 0 2,2 2,2 0 0 0 2,-2 2,2 0 0 0 -2,-2 z m 10,0 a 3,3 0 0 1 3,3 3,3 0 0 1 -3,3 3,3 0 0 1 -3,-3 3,3 0 0 1 3,-3 z m 0,12 a 5,5 0 0 0 -4.898438,4 H 20.158203 l -8.806641,8.322266 A 3,3 0 0 0 10,35 a 3,3 0 0 0 -3,3 3,3 0 0 0 3,3 3,3 0 0 0 3,-3 3,3 0 0 0 -0.267578,-1.230469 L 20.953125,29 H 32.105469 A 5,5 0 0 0 37,33 5,5 0 0 0 42,28 5,5 0 0 0 37,23 Z M 24.5,32 A 3.5,3.5 0 0 0 21,35.5 3.5,3.5 0 0 0 24.5,39 3.5,3.5 0 0 0 26.238281,38.535156 L 28.716797,41 H 43.994141 V 39 H 29.541016 L 27.619141,37.087891 A 3.5,3.5 0 0 0 28,35.5 3.5,3.5 0 0 0 24.5,32 Z m 0,2 A 1.5,1.5 0 0 1 26,35.5 1.5,1.5 0 0 1 24.5,37 1.5,1.5 0 0 1 23,35.5 1.5,1.5 0 0 1 24.5,34 Z M 10,37 a 1,1 0 0 1 1,1 1,1 0 0 1 -1,1 1,1 0 0 1 -1,-1 1,1 0 0 1 1,-1 z"
     id="path6" />
  <path
     style="fill:#ffffff"
     d="m 37,8 a 5,5 0 0 0 -5,5 5,5 0 0 0 0.634766,2.433594 L 30.998047,17 H 17.761719 l -4.820313,4.962891 A 5,5 0 0 0 10,21 a 5,5 0 0 0 -5,5 5,5 0 0 0 5,5 5,5 0 0 0 5,-5 5,5 0 0 0 -0.708984,-2.554688 L 18.607422,19 h 13.193359 l 2.140625,-2.048828 A 5,5 0 0 0 37,18 5,5 0 0 0 42,13 5,5 0 0 0 37,8 Z m -25,2 a 2,2 0 0 0 -2,2 2,2 0 0 0 2,2 2,2 0 0 0 2,-2 2,2 0 0 0 -2,-2 z m 8,0 a 2,2 0 0 0 -2,2 2,2 0 0 0 2,2 2,2 0 0 0 2,-2 2,2 0 0 0 -2,-2 z m 7,0 a 2,2 0 0 0 -2,2 2,2 0 0 0 2,2 2,2 0 0 0 2,-2 2,2 0 0 0 -2,-2 z m 10,0 a 3,3 0 0 1 3,3 3,3 0 0 1 -3,3 3,3 0 0 1 -3,-3 3,3 0 0 1 3,-3 z m 0,12 a 5,5 0 0 0 -4.898438,4 H 20.158203 l -8.806641,8.322266 A 3,3 0 0 0 10,34 a 3,3 0 0 0 -3,3 3,3 0 0 0 3,3 3,3 0 0 0 3,-3 3,3 0 0 0 -0.267578,-1.230469 L 20.953125,28 H 32.105469 A 5,5 0 0 0 37,32 5,5 0 0 0 42,27 5,5 0 0 0 37,22 Z M 24.5,31 A 3.5,3.5 0 0 0 21,34.5 3.5,3.5 0 0 0 24.5,38 3.5,3.5 0 0 0 26.238281,37.535156 L 28.716797,40 H 43.994141 V 38 H 29.541016 L 27.619141,36.087891 A 3.5,3.5 0 0 0 28,34.5 3.5,3.5 0 0 0 24.5,31 Z m 0,2 A 1.5,1.5 0 0 1 26,34.5 1.5,1.5 0 0 1 24.5,36 1.5,1.5 0 0 1 23,34.5 1.5,1.5 0 0 1 24.5,33 Z M 10,36 a 1,1 0 0 1 1,1 1,1 0 0 1 -1,1 1,1 0 0 1 -1,-1 1,1 0 0 1 1,-1 z"
     id="path8" />
  <path
     style="opacity:0.1;fill:#ffffff"
     d="M 6,4 C 4.892,4 4,4.892 4,6 V 7 C 4,5.892 4.892,5 6,5 h 36 c 1.108,0 2,0.892 2,2 V 6 C 44,4.892 43.108,4 42,4 Z"
     id="path10" />
</svg>
