<?xml version="1.0" encoding="UTF-8" standalone="no"?>
<svg
   xmlns:dc="http://purl.org/dc/elements/1.1/"
   xmlns:cc="http://creativecommons.org/ns#"
   xmlns:rdf="http://www.w3.org/1999/02/22-rdf-syntax-ns#"
   xmlns:svg="http://www.w3.org/2000/svg"
   xmlns="http://www.w3.org/2000/svg"
   xmlns:sodipodi="http://sodipodi.sourceforge.net/DTD/sodipodi-0.dtd"
   xmlns:inkscape="http://www.inkscape.org/namespaces/inkscape"
   width="48"
   height="48"
   version="1.1"
   id="svg12"
   sodipodi:docname="ch.openboard.OpenBoard.svg"
   inkscape:version="0.92.5 (2060ec1f9f, 2020-04-08)">
  <metadata
     id="metadata18">
    <rdf:RDF>
      <cc:Work
         rdf:about="">
        <dc:format>image/svg+xml</dc:format>
        <dc:type
           rdf:resource="http://purl.org/dc/dcmitype/StillImage" />
      </cc:Work>
    </rdf:RDF>
  </metadata>
  <defs
     id="defs16" />
  <sodipodi:namedview
     pagecolor="#ffffff"
     bordercolor="#666666"
     borderopacity="1"
     objecttolerance="10"
     gridtolerance="10"
     guidetolerance="10"
     inkscape:pageopacity="0"
     inkscape:pageshadow="2"
     inkscape:window-width="783"
     inkscape:window-height="480"
     id="namedview14"
     showgrid="false"
     inkscape:zoom="4.9166667"
     inkscape:cx="24"
     inkscape:cy="24"
     inkscape:window-x="0"
     inkscape:window-y="28"
     inkscape:window-maximized="0"
     inkscape:current-layer="svg12" />
  <path
     style="opacity:0.2"
     d="m 6,11.997995 c -1.108,0 -2,0.920999 -2,2.029 v 18 c 0,1.107999 0.892,1.971 2,1.971 h 12 v 10.001 c 0.001,0.910839 1.051501,1.3463 1.667969,0.675781 L 29.0625,33.997995 H 42 c 1.108,0 2,-0.863001 2,-1.971 v -18 c 0,-1.108001 -0.892,-2.029 -2,-2.029 z"
     id="path2" />
  <path
     style="fill:#4c566a;fill-opacity:1"
     d="m 6,11 c -1.108,0 -2,0.920999 -2,2.029 v 18 C 4,32.136999 4.892,33 6,33 h 12 v 10.001 c 0.001,0.910839 1.051501,1.3463 1.667969,0.675781 L 29.0625,33 H 42 c 1.108,0 2,-0.863001 2,-1.971 v -18 C 44,11.920999 43.108,11 42,11 Z"
     id="path4" />
  <path
     style="opacity:0.2;fill:#ffffff"
     d="M 6 11 C 4.892 11 4 11.921296 4 13.029297 L 4 14.027344 C 4 12.919343 4.892 11.998047 6 11.998047 L 42 11.998047 C 43.108 11.998047 44 12.919343 44 14.027344 L 44 13.029297 C 44 11.921296 43.108 11 42 11 L 6 11 z"
     id="path6" />
  <path
     style="opacity:0.1"
     d="m 41.418162,4.9995978 c -0.497793,0.021644 -0.95255,0.2797235 -1.215494,0.689807 L 28.377195,25.268176 c -1.086183,1.643956 0.410902,2.483325 1.497086,0.83937 L 42.747732,7.2671958 c 0.679171,-0.9982798 -0.09675,-2.3216212 -1.32957,-2.267598 z"
     id="path8" />
  <path
     style="fill:#ffffff;fill-opacity:1"
     d="m 41.418162,4.0016024 c -0.497793,0.021644 -0.95255,0.2797235 -1.215494,0.689807 L 28.377195,24.270181 c -1.086183,1.643956 0.410902,2.483325 1.497086,0.83937 L 42.747732,6.2692004 c 0.679171,-0.9982798 -0.09675,-2.3216212 -1.32957,-2.267598 z"
     id="path10" />
</svg>
