<?xml version="1.0" encoding="UTF-8" standalone="no"?>
<svg
   xmlns:dc="http://purl.org/dc/elements/1.1/"
   xmlns:cc="http://creativecommons.org/ns#"
   xmlns:rdf="http://www.w3.org/1999/02/22-rdf-syntax-ns#"
   xmlns:svg="http://www.w3.org/2000/svg"
   xmlns="http://www.w3.org/2000/svg"
   xmlns:sodipodi="http://sodipodi.sourceforge.net/DTD/sodipodi-0.dtd"
   xmlns:inkscape="http://www.inkscape.org/namespaces/inkscape"
   width="48"
   height="48"
   version="1"
   id="svg12"
   sodipodi:docname="openoffice4-base.svg"
   inkscape:version="0.92.5 (2060ec1f9f, 2020-04-08)">
  <metadata
     id="metadata18">
    <rdf:RDF>
      <cc:Work
         rdf:about="">
        <dc:format>image/svg+xml</dc:format>
        <dc:type
           rdf:resource="http://purl.org/dc/dcmitype/StillImage" />
      </cc:Work>
    </rdf:RDF>
  </metadata>
  <defs
     id="defs16" />
  <sodipodi:namedview
     pagecolor="#ffffff"
     bordercolor="#666666"
     borderopacity="1"
     objecttolerance="10"
     gridtolerance="10"
     guidetolerance="10"
     inkscape:pageopacity="0"
     inkscape:pageshadow="2"
     inkscape:window-width="765"
     inkscape:window-height="480"
     id="namedview14"
     showgrid="false"
     inkscape:zoom="4.9166667"
     inkscape:cx="-2.9491525"
     inkscape:cy="24"
     inkscape:window-x="0"
     inkscape:window-y="28"
     inkscape:window-maximized="0"
     inkscape:current-layer="svg12" />
  <circle
     style="opacity:0.2"
     cx="24"
     cy="25"
     r="20"
     id="circle2" />
  <circle
     style="fill:#4c566a;fill-opacity:1"
     cx="24"
     cy="24"
     r="20"
     id="circle4" />
  <path
     style="opacity:0.2"
     d="m 24.00061,16 c -2.9364,0 -5.4451,1.0351 -6.4844,2.5 -0.08726,0.12299 -0.16463,0.24824 -0.23047,0.37695 -0.06257,0.12232 -0.11607,0.24618 -0.1582,0.37305 a 7,4 0 0 0 -0.0293,0.11719 c -0.02399,0.08598 -0.05021,0.17205 -0.06445,0.25976 a 7,4 0 0 0 -0.034,0.373 c 3.85e-4,0.12998 0.01276,0.25978 0.03516,0.38867 a 7,4 0 0 0 0.0957,0.375 7,4 0 0 0 0.16211,0.37305 7,4 0 0 0 0.223,0.363 7,4 0 0 0 6.484,2.5 7,4 0 0 0 6.4844,-2.5 7,4 0 0 0 0.002,-0.0039 7,4 0 0 0 0.18945,-0.30859 C 30.68672,21.1669 30.70023,21.147 30.71077,21.12663 A 7,4 0 0 0 30.826,20.86101 c 0.01631,-0.04185 0.03683,-0.08288 0.05078,-0.125 a 7,4 0 0 0 0.05664,-0.22266 c 0.01348,-0.05865 0.02819,-0.11679 0.03711,-0.17578 a 7,4 0 0 0 0.029,-0.337 7,4 0 0 0 -0.037,-0.398 c -0.067,-0.387 -0.233,-0.756 -0.479,-1.102 -1.039,-1.465 -3.548,-2.5 -6.484,-2.5 z m -6.4844,7.5 a 7,4 0 0 0 -0.516,1.5 7,4 0 0 0 7,4 7,4 0 0 0 7,-4 7,4 0 0 0 -0.516,-1.5 7,4 0 0 1 -6.484,2.5 7,4 0 0 1 -6.484,-2.5 z m 0,5 a 7,4 0 0 0 -0.516,1.5 7,4 0 0 0 7,4 7,4 0 0 0 7,-4 7,4 0 0 0 -0.516,-1.5 7,4 0 0 1 -6.484,2.5 7,4 0 0 1 -6.484,-2.5 z"
     id="path6" />
  <path
     style="fill:#ffffff"
     d="m 24.00061,15 c -2.9364,0 -5.4451,1.0351 -6.4844,2.5 -0.08726,0.12299 -0.16463,0.24824 -0.23047,0.37695 -0.06257,0.12232 -0.11607,0.24618 -0.1582,0.37305 a 7,4 0 0 0 -0.0293,0.11719 c -0.02399,0.08598 -0.05021,0.17205 -0.06445,0.25976 a 7,4 0 0 0 -0.034,0.373 c 3.85e-4,0.12998 0.01276,0.25978 0.03516,0.38867 a 7,4 0 0 0 0.0957,0.375 7,4 0 0 0 0.16211,0.37305 7,4 0 0 0 0.223,0.363 7,4 0 0 0 6.484,2.5 7,4 0 0 0 6.4844,-2.5 7,4 0 0 0 0.002,-0.0039 7,4 0 0 0 0.18945,-0.30859 C 30.68672,20.1669 30.70023,20.147 30.71077,20.12663 A 7,4 0 0 0 30.826,19.86101 c 0.01631,-0.04185 0.03683,-0.08288 0.05078,-0.125 a 7,4 0 0 0 0.05664,-0.22266 c 0.01348,-0.05865 0.02819,-0.11679 0.03711,-0.17578 a 7,4 0 0 0 0.029,-0.337 7,4 0 0 0 -0.037,-0.398 c -0.067,-0.387 -0.233,-0.756 -0.479,-1.102 -1.039,-1.465 -3.548,-2.5 -6.484,-2.5 z m -6.4844,7.5 a 7,4 0 0 0 -0.516,1.5 7,4 0 0 0 7,4 7,4 0 0 0 7,-4 7,4 0 0 0 -0.516,-1.5 7,4 0 0 1 -6.484,2.5 7,4 0 0 1 -6.484,-2.5 z m 0,5 a 7,4 0 0 0 -0.516,1.5 7,4 0 0 0 7,4 7,4 0 0 0 7,-4 7,4 0 0 0 -0.516,-1.5 7,4 0 0 1 -6.484,2.5 7,4 0 0 1 -6.484,-2.5 z"
     id="path8" />
  <path
     style="opacity:0.2;fill:#ffffff"
     d="M 24 4 A 20 20 0 0 0 4 24 A 20 20 0 0 0 4.0214844 24.582031 A 20 20 0 0 1 24 5 A 20 20 0 0 1 43.978516 24.417969 A 20 20 0 0 0 44 24 A 20 20 0 0 0 24 4 z"
     id="path10" />
</svg>
