<?xml version="1.0" encoding="UTF-8" standalone="no"?>
<svg
   xmlns:dc="http://purl.org/dc/elements/1.1/"
   xmlns:cc="http://creativecommons.org/ns#"
   xmlns:rdf="http://www.w3.org/1999/02/22-rdf-syntax-ns#"
   xmlns:svg="http://www.w3.org/2000/svg"
   xmlns="http://www.w3.org/2000/svg"
   xmlns:sodipodi="http://sodipodi.sourceforge.net/DTD/sodipodi-0.dtd"
   xmlns:inkscape="http://www.inkscape.org/namespaces/inkscape"
   width="48"
   height="48"
   version="1"
   id="svg12"
   sodipodi:docname="openoffice4-math.svg"
   inkscape:version="0.92.5 (2060ec1f9f, 2020-04-08)">
  <metadata
     id="metadata18">
    <rdf:RDF>
      <cc:Work
         rdf:about="">
        <dc:format>image/svg+xml</dc:format>
        <dc:type
           rdf:resource="http://purl.org/dc/dcmitype/StillImage" />
      </cc:Work>
    </rdf:RDF>
  </metadata>
  <defs
     id="defs16" />
  <sodipodi:namedview
     pagecolor="#ffffff"
     bordercolor="#666666"
     borderopacity="1"
     objecttolerance="10"
     gridtolerance="10"
     guidetolerance="10"
     inkscape:pageopacity="0"
     inkscape:pageshadow="2"
     inkscape:window-width="765"
     inkscape:window-height="480"
     id="namedview14"
     showgrid="false"
     inkscape:zoom="4.9166667"
     inkscape:cx="24"
     inkscape:cy="24"
     inkscape:window-x="0"
     inkscape:window-y="28"
     inkscape:window-maximized="0"
     inkscape:current-layer="svg12" />
  <circle
     style="opacity:0.2"
     cx="24"
     cy="25"
     r="20"
     id="circle2" />
  <circle
     style="fill:#4c566a;fill-opacity:1"
     cx="24"
     cy="24"
     r="20"
     id="circle4" />
  <path
     style="opacity:0.2"
     d="m 23.919922,17 -3.113281,10.9375 -2.3125,-5.789062 H 14 v 2.001953 h 3.185547 l 3.113281,7.841797 h 1.38086 l 3.703124,-12.976563 h 6.392579 V 17 Z m 1.498047,6 3.255859,4.291016 L 25.113281,32 h 1.777344 L 29.558594,28.464844 32.226562,32 h 1.777344 L 30.515625,27.378906 33.832031,23 H 32.054688 L 29.625,26.205078 27.193359,23 Z"
     id="path6" />
  <path
     style="fill:#ffffff"
     d="m 23.919922,16 -3.113281,10.9375 -2.3125,-5.789062 H 14 v 2.001953 h 3.185547 l 3.113281,7.841797 h 1.38086 l 3.703124,-12.976563 h 6.392579 V 16 Z m 1.498047,6 3.255859,4.291016 L 25.113281,31 h 1.777344 L 29.558594,27.464844 32.226562,31 h 1.777344 L 30.515625,26.378906 33.832031,22 H 32.054688 L 29.625,25.205078 27.193359,22 Z"
     id="path8" />
  <path
     style="opacity:0.2;fill:#ffffff"
     d="M 24 4 A 20 20 0 0 0 4 24 A 20 20 0 0 0 4.0214844 24.582031 A 20 20 0 0 1 24 5 A 20 20 0 0 1 43.978516 24.417969 A 20 20 0 0 0 44 24 A 20 20 0 0 0 24 4 z"
     id="path10" />
</svg>
