<?xml version="1.0" encoding="UTF-8" standalone="no"?>
<svg
   xmlns:dc="http://purl.org/dc/elements/1.1/"
   xmlns:cc="http://creativecommons.org/ns#"
   xmlns:rdf="http://www.w3.org/1999/02/22-rdf-syntax-ns#"
   xmlns:svg="http://www.w3.org/2000/svg"
   xmlns="http://www.w3.org/2000/svg"
   xmlns:sodipodi="http://sodipodi.sourceforge.net/DTD/sodipodi-0.dtd"
   xmlns:inkscape="http://www.inkscape.org/namespaces/inkscape"
   width="48"
   height="48"
   version="1.1"
   id="svg12"
   sodipodi:docname="org.ubuntubudgie.shuffler-control.svg"
   inkscape:version="0.92.5 (2060ec1f9f, 2020-04-08)">
  <metadata
     id="metadata18">
    <rdf:RDF>
      <cc:Work
         rdf:about="">
        <dc:format>image/svg+xml</dc:format>
        <dc:type
           rdf:resource="http://purl.org/dc/dcmitype/StillImage" />
      </cc:Work>
    </rdf:RDF>
  </metadata>
  <defs
     id="defs16" />
  <sodipodi:namedview
     pagecolor="#ffffff"
     bordercolor="#666666"
     borderopacity="1"
     objecttolerance="10"
     gridtolerance="10"
     guidetolerance="10"
     inkscape:pageopacity="0"
     inkscape:pageshadow="2"
     inkscape:window-width="765"
     inkscape:window-height="480"
     id="namedview14"
     showgrid="false"
     inkscape:zoom="4.9166667"
     inkscape:cx="24"
     inkscape:cy="24"
     inkscape:window-x="0"
     inkscape:window-y="28"
     inkscape:window-maximized="0"
     inkscape:current-layer="svg12" />
  <rect
     style="opacity:0.2"
     width="40"
     height="40"
     x="4"
     y="5"
     ry="8.889"
     id="rect2" />
  <rect
     style="fill:#4c566a;fill-opacity:1"
     width="40"
     height="40"
     x="4"
     y="4"
     ry="8.889"
     id="rect4" />
  <path
     style="opacity:0.2"
     d="M 11.005859,12 11,19.994141 18.992188,20 19,12.005859 Z m 10,0 L 21,19.994141 28.992188,20 29,12.005859 Z m -10,10 L 11,29.994141 18.992188,30 19,22.005859 Z M 21.013672,22 21,37.986328 36.988281,38 37,22.013672 Z"
     id="path6" />
  <path
     style="fill:#ffffff"
     d="M 11.005859,11 11,18.994141 18.992188,19 19,11.005859 Z m 10,0 L 21,18.994141 28.992188,19 29,11.005859 Z m -10,10 L 11,28.994141 18.992188,29 19,21.005859 Z M 21.013672,21 21,36.986328 36.988281,37 37,21.013672 Z"
     id="path8" />
  <path
     style="fill:#ffffff;opacity:0.1"
     d="M 12.888672 4 C 7.9642277 4 4 7.9642277 4 12.888672 L 4 13.888672 C 4 8.9642277 7.9642277 5 12.888672 5 L 35.111328 5 C 40.035772 5 44 8.9642277 44 13.888672 L 44 12.888672 C 44 7.9642277 40.035772 4 35.111328 4 L 12.888672 4 z"
     id="path10" />
</svg>
