<?xml version="1.0" encoding="UTF-8" standalone="no"?>
<svg
   xmlns:dc="http://purl.org/dc/elements/1.1/"
   xmlns:cc="http://creativecommons.org/ns#"
   xmlns:rdf="http://www.w3.org/1999/02/22-rdf-syntax-ns#"
   xmlns:svg="http://www.w3.org/2000/svg"
   xmlns="http://www.w3.org/2000/svg"
   xmlns:sodipodi="http://sodipodi.sourceforge.net/DTD/sodipodi-0.dtd"
   xmlns:inkscape="http://www.inkscape.org/namespaces/inkscape"
   width="48"
   height="48"
   version="1.1"
   id="svg26"
   sodipodi:docname="org.gnome.NetworkDisplays.svg"
   inkscape:version="0.92.5 (2060ec1f9f, 2020-04-08)">
  <metadata
     id="metadata32">
    <rdf:RDF>
      <cc:Work
         rdf:about="">
        <dc:format>image/svg+xml</dc:format>
        <dc:type
           rdf:resource="http://purl.org/dc/dcmitype/StillImage" />
      </cc:Work>
    </rdf:RDF>
  </metadata>
  <defs
     id="defs30" />
  <sodipodi:namedview
     pagecolor="#ffffff"
     bordercolor="#666666"
     borderopacity="1"
     objecttolerance="10"
     gridtolerance="10"
     guidetolerance="10"
     inkscape:pageopacity="0"
     inkscape:pageshadow="2"
     inkscape:window-width="765"
     inkscape:window-height="480"
     id="namedview28"
     showgrid="false"
     inkscape:zoom="4.9166667"
     inkscape:cx="-2.9491525"
     inkscape:cy="24"
     inkscape:window-x="0"
     inkscape:window-y="28"
     inkscape:window-maximized="0"
     inkscape:current-layer="svg26" />
  <rect
     style="opacity:0.2"
     width="24"
     height="32"
     x="12"
     y="11"
     rx="2"
     ry="2"
     id="rect2" />
  <rect
     style="fill:#a5a5a5"
     width="24"
     height="32"
     x="12"
     y="10"
     rx="2"
     ry="2"
     id="rect4" />
  <rect
     style="opacity:0.2"
     width="40"
     height="32"
     x="4"
     y="7"
     rx="2"
     ry="2"
     id="rect6" />
  <path
     style="fill:#e4e4e4"
     d="M 4 34 L 4 36 C 4 37.108 4.892 38 6 38 L 42 38 C 43.108 38 44 37.108 44 36 L 44 34 L 4 34 z"
     id="path8" />
  <path
     style="fill:#4c566a;fill-opacity:1"
     d="M 6,6 C 4.892,6 4,6.892 4,8 V 34 H 44 V 8 C 44,6.892 43.108,6 42,6 Z"
     id="path10" />
  <path
     style="fill:#ffffff;opacity:0.2"
     d="M 6 6 C 4.892 6 4 6.892 4 8 L 4 9 C 4 7.892 4.892 7 6 7 L 42 7 C 43.108 7 44 7.892 44 9 L 44 8 C 44 6.892 43.108 6 42 6 L 6 6 z"
     id="path12" />
  <rect
     style="opacity:0.2;fill:#ffffff"
     width="40"
     height="1"
     x="4"
     y="34"
     id="rect14" />
  <path
     style="opacity:0.2"
     d="m 24.013672,13.001952 c -3.057205,-0.0027 -6.1162,0.926549 -8.72461,2.787109 a 1.0001,1.0001 0 1 0 1.16211,1.626954 c 4.526886,-3.228997 10.595944,-3.22322 15.117187,0.01367 a 1.0002527,1.0002527 0 0 0 1.164063,-1.626954 c -2.605159,-1.86511 -5.661545,-2.798113 -8.71875,-2.800781 z m 0.03516,4 c -2.26055,-0.0099 -4.525912,0.674939 -6.453125,2.054688 a 1.0001,1.0001 0 1 0 1.166016,1.625 c 3.159341,-2.261866 7.401533,-2.24247 10.541015,0.04687 a 1.0002946,1.0002946 0 1 0 1.177735,-1.617188 c -1.915103,-1.396504 -4.171095,-2.099506 -6.431645,-2.10937 z m -0.01172,4 c -1.468112,-0.0077 -2.939536,0.445006 -4.18164,1.357422 a 1.0001,1.0001 0 1 0 1.183593,1.611328 c 1.780357,-1.307802 4.196327,-1.295123 5.962891,0.03125 a 1.0001954,1.0001954 0 1 0 1.201172,-1.599609 c -1.232484,-0.925374 -2.697907,-1.392704 -4.166019,-1.400391 z m -0.03711,3.998047 a 1.9999997,1.9999997 0 0 0 -2,2 1.9999997,1.9999997 0 0 0 2,2 1.9999997,1.9999997 0 0 0 2,-2 1.9999997,1.9999997 0 0 0 -2,-2 z"
     id="path16" />
  <path
     style="fill:none;stroke:#ffffff;stroke-width:2;stroke-linecap:round;stroke-linejoin:round"
     d="m 15.870159,15.60238 a 14,14 0 0 1 16.279563,0.01421"
     id="path18" />
  <path
     style="fill:#ffffff"
     d="m 24,23.999998 a 1.9999997,1.9999997 0 0 0 -2,2.000001 1.9999997,1.9999997 0 0 0 2,2 1.9999997,1.9999997 0 0 0 2,-2 1.9999997,1.9999997 0 0 0 -2,-2.000001 z"
     id="path20" />
  <path
     style="fill:none;stroke:#ffffff;stroke-width:2;stroke-linecap:round;stroke-linejoin:round"
     d="m 18.178771,18.868989 a 10,10 0 0 1 11.713192,0.05111"
     id="path22" />
  <path
     style="fill:none;stroke:#ffffff;stroke-width:2;stroke-linecap:round;stroke-linejoin:round"
     d="m 20.447921,22.164427 a 6,6 0 0 1 7.1546,0.03746"
     id="path24" />
</svg>
