<?xml version="1.0" encoding="UTF-8" standalone="no"?>
<svg
   xmlns:dc="http://purl.org/dc/elements/1.1/"
   xmlns:cc="http://creativecommons.org/ns#"
   xmlns:rdf="http://www.w3.org/1999/02/22-rdf-syntax-ns#"
   xmlns:svg="http://www.w3.org/2000/svg"
   xmlns="http://www.w3.org/2000/svg"
   xmlns:sodipodi="http://sodipodi.sourceforge.net/DTD/sodipodi-0.dtd"
   xmlns:inkscape="http://www.inkscape.org/namespaces/inkscape"
   width="48"
   height="48"
   version="1.1"
   id="svg16"
   sodipodi:docname="org.kde.latte.spacer.svg"
   inkscape:version="0.92.5 (2060ec1f9f, 2020-04-08)">
  <metadata
     id="metadata22">
    <rdf:RDF>
      <cc:Work
         rdf:about="">
        <dc:format>image/svg+xml</dc:format>
        <dc:type
           rdf:resource="http://purl.org/dc/dcmitype/StillImage" />
      </cc:Work>
    </rdf:RDF>
  </metadata>
  <defs
     id="defs20" />
  <sodipodi:namedview
     pagecolor="#ffffff"
     bordercolor="#666666"
     borderopacity="1"
     objecttolerance="10"
     gridtolerance="10"
     guidetolerance="10"
     inkscape:pageopacity="0"
     inkscape:pageshadow="2"
     inkscape:window-width="765"
     inkscape:window-height="480"
     id="namedview18"
     showgrid="false"
     inkscape:zoom="4.9166667"
     inkscape:cx="24"
     inkscape:cy="24"
     inkscape:window-x="0"
     inkscape:window-y="28"
     inkscape:window-maximized="0"
     inkscape:current-layer="svg16" />
  <rect
     style="opacity:0.2"
     width="40"
     height="40"
     x="4"
     y="5"
     rx="2"
     ry="2"
     id="rect2" />
  <rect
     style="fill:#4c566a;fill-opacity:1"
     width="40"
     height="40"
     x="4"
     y="4"
     rx="2"
     ry="2"
     id="rect4" />
  <path
     style="fill:#ffffff;fill-opacity:1"
     d="M 9 26 C 8.446 26 8 26.446 8 27 L 8 37 L 8 39 C 8 39.554 8.446 40 9 40 L 11 40 L 39 40 C 39.554 40 40 39.554 40 39 L 40 37 L 40 27 C 40 26.446 39.554 26 39 26 L 37 26 C 36.446 26 36 26.446 36 27 L 36 36 L 12 36 L 12 27 C 12 26.446 11.554 26 11 26 L 9 26 z"
     id="path6" />
  <path
     style="opacity:0.2;fill:#ffffff"
     d="M 6 4 C 4.892 4 4 4.892 4 6 L 4 7 C 4 5.892 4.892 5 6 5 L 42 5 C 43.108 5 44 5.892 44 7 L 44 6 C 44 4.892 43.108 4 42 4 L 6 4 z"
     id="path8" />
  <path
     style="opacity:0.1;fill:#ffffff"
     d="M 8 39 L 8 40 C 8 40.554 8.446 41 9 41 L 11 41 L 39 41 C 39.554 41 40 40.554 40 40 L 40 39 C 40 39.554 39.554 40 39 40 L 11 40 L 9 40 C 8.446 40 8 39.554 8 39 z"
     id="path10" />
  <path
     style="opacity:0.2"
     d="m 17,15 -7,5 7,5 v -3 h 7 7 v 3 l 7,-5 -7,-5 v 3 h -7 -7 z"
     id="path12" />
  <path
     style="fill:#ffffff;fill-opacity:1"
     d="M 17 14 L 10 19 L 17 24 L 17 21 L 24 21 L 31 21 L 31 24 L 38 19 L 31 14 L 31 17 L 24 17 L 17 17 L 17 14 z"
     id="path14" />
</svg>
