<?xml version="1.0" encoding="UTF-8" standalone="no"?>
<svg
   xmlns:dc="http://purl.org/dc/elements/1.1/"
   xmlns:cc="http://creativecommons.org/ns#"
   xmlns:rdf="http://www.w3.org/1999/02/22-rdf-syntax-ns#"
   xmlns:svg="http://www.w3.org/2000/svg"
   xmlns="http://www.w3.org/2000/svg"
   xmlns:sodipodi="http://sodipodi.sourceforge.net/DTD/sodipodi-0.dtd"
   xmlns:inkscape="http://www.inkscape.org/namespaces/inkscape"
   width="48"
   height="48"
   version="1.1"
   id="svg18"
   sodipodi:docname="baobab.svg"
   inkscape:version="0.92.5 (2060ec1f9f, 2020-04-08)">
  <metadata
     id="metadata24">
    <rdf:RDF>
      <cc:Work
         rdf:about="">
        <dc:format>image/svg+xml</dc:format>
        <dc:type
           rdf:resource="http://purl.org/dc/dcmitype/StillImage" />
      </cc:Work>
    </rdf:RDF>
  </metadata>
  <defs
     id="defs22" />
  <sodipodi:namedview
     pagecolor="#ffffff"
     bordercolor="#666666"
     borderopacity="1"
     objecttolerance="10"
     gridtolerance="10"
     guidetolerance="10"
     inkscape:pageopacity="0"
     inkscape:pageshadow="2"
     inkscape:window-width="765"
     inkscape:window-height="480"
     id="namedview20"
     showgrid="false"
     inkscape:zoom="4.9166667"
     inkscape:cx="24"
     inkscape:cy="24"
     inkscape:window-x="0"
     inkscape:window-y="28"
     inkscape:window-maximized="0"
     inkscape:current-layer="svg18" />
  <circle
     style="opacity:0.2"
     cx="24"
     cy="25"
     r="20"
     id="circle2" />
  <path
     style="fill:#5f697d;fill-opacity:1"
     d="M 44,24 C 44,35.045695 35.045695,44 24,44 18.319843,44 13.192743,41.632083 9.5519757,37.829526 6.1128678,34.237589 6.6625387,30.665848 6.6625387,25.30031 6.6625387,14.254615 12.830466,7.0959752 23.876161,7.0959752 34.921856,7.0959752 44,12.954305 44,24 Z"
     id="path4" />
  <path
     style="opacity:0.1"
     d="m 24,5.000188 c -11.045695,0 -20,8.954305 -20,20 C 4.00494,30.302625 6.1153245,35.386083 9.8671875,39.133 L 24,25.000188 h 20 c 0,-11.045695 -8.954305,-20 -20,-20 z"
     id="path6" />
  <path
     style="fill:#737d91;fill-opacity:1"
     d="M 44,24 H 24 V 4 c 11.045695,0 20,8.954305 20,20 z"
     id="path8" />
  <path
     style="fill:#4c566a;fill-opacity:1"
     d="M 24,4 C 12.954305,4 4,12.954305 4,24 c 0.00494,5.302437 2.1153245,10.385895 5.8671875,14.132812 L 24,24 Z"
     id="path10" />
  <path
     style="opacity:0.2;fill:#ffffff"
     d="M 24,4 A 20,20 0 0 0 4,24 20,20 0 0 0 4.0215,24.582 20,20 0 0 1 24,5 20,20 0 0 1 43.979,24.418 20,20 0 0 0 44,24 20,20 0 0 0 24,4 Z"
     id="path12" />
  <path
     style="fill:#414b5f;fill-opacity:1"
     d="M 24,21 9.8671875,35.132812 C 6.4683907,31.727608 4.4109972,27.211327 4.0722656,22.412109 4.0271449,22.940239 4.0030373,23.469955 4,24 c 0.00494,5.302437 2.1153245,10.385895 5.8671875,14.132812 L 24,24 Z"
     id="path14" />
  <path
     style="fill:#414b5f;fill-opacity:1"
     d="M 24 20 L 24 24 L 44 24 C 44 22.630242 43.861921 21.292347 43.599609 20 L 24 20 z"
     id="path16" />
</svg>
