<?xml version="1.0" encoding="UTF-8" standalone="no"?>
<svg
   xmlns:dc="http://purl.org/dc/elements/1.1/"
   xmlns:cc="http://creativecommons.org/ns#"
   xmlns:rdf="http://www.w3.org/1999/02/22-rdf-syntax-ns#"
   xmlns:svg="http://www.w3.org/2000/svg"
   xmlns="http://www.w3.org/2000/svg"
   xmlns:sodipodi="http://sodipodi.sourceforge.net/DTD/sodipodi-0.dtd"
   xmlns:inkscape="http://www.inkscape.org/namespaces/inkscape"
   width="48"
   height="48"
   version="1"
   id="svg50"
   sodipodi:docname="org.rnd2.cpupower_gui.svg"
   inkscape:version="0.92.5 (2060ec1f9f, 2020-04-08)">
  <metadata
     id="metadata56">
    <rdf:RDF>
      <cc:Work
         rdf:about="">
        <dc:format>image/svg+xml</dc:format>
        <dc:type
           rdf:resource="http://purl.org/dc/dcmitype/StillImage" />
      </cc:Work>
    </rdf:RDF>
  </metadata>
  <defs
     id="defs54" />
  <sodipodi:namedview
     pagecolor="#ffffff"
     bordercolor="#666666"
     borderopacity="1"
     objecttolerance="10"
     gridtolerance="10"
     guidetolerance="10"
     inkscape:pageopacity="0"
     inkscape:pageshadow="2"
     inkscape:window-width="783"
     inkscape:window-height="480"
     id="namedview52"
     showgrid="false"
     inkscape:zoom="4.9166667"
     inkscape:cx="24"
     inkscape:cy="24"
     inkscape:window-x="0"
     inkscape:window-y="28"
     inkscape:window-maximized="0"
     inkscape:current-layer="svg50" />
  <g
     style="fill:#8e8e8e"
     id="g38">
    <rect
       width="2"
       height="40"
       x="27"
       y="-44"
       transform="rotate(90)"
       id="rect2" />
    <rect
       width="2"
       height="40"
       x="23"
       y="-44"
       transform="rotate(90)"
       id="rect4" />
    <rect
       width="2"
       height="40"
       x="19"
       y="-44"
       transform="rotate(90)"
       id="rect6" />
    <rect
       width="2"
       height="40"
       x="15"
       y="-44"
       transform="rotate(90)"
       id="rect8" />
    <rect
       width="2"
       height="40"
       x="31"
       y="-44"
       transform="rotate(90)"
       id="rect10" />
    <rect
       width="2"
       height="40"
       x="35"
       y="-44"
       transform="rotate(90)"
       id="rect12" />
    <rect
       width="2"
       height="40"
       x="39"
       y="-44"
       transform="rotate(90)"
       id="rect14" />
    <rect
       width="2"
       height="40"
       x="11"
       y="-44"
       transform="rotate(90)"
       id="rect16" />
    <rect
       width="2"
       height="40"
       x="7"
       y="-44"
       transform="rotate(90)"
       id="rect18" />
    <rect
       width="2"
       height="40"
       x="23"
       y="4"
       id="rect20" />
    <rect
       width="2"
       height="40"
       x="19"
       y="4"
       id="rect22" />
    <rect
       width="2"
       height="40"
       x="15"
       y="4"
       id="rect24" />
    <rect
       width="2"
       height="40"
       x="11"
       y="4"
       id="rect26" />
    <rect
       width="2"
       height="40"
       x="27"
       y="4"
       id="rect28" />
    <rect
       width="2"
       height="40"
       x="31"
       y="4"
       id="rect30" />
    <rect
       width="2"
       height="40"
       x="35"
       y="4"
       id="rect32" />
    <rect
       width="2"
       height="40"
       x="7"
       y="4"
       id="rect34" />
    <rect
       width="2"
       height="40"
       x="39"
       y="4"
       id="rect36" />
  </g>
  <rect
     style="opacity:0.2"
     width="36"
     height="36"
     x="-43"
     y="-42"
     rx="2"
     ry="2"
     transform="matrix(0,-1,-1,0,0,0)"
     id="rect40" />
  <rect
     style="fill:#4c566a;fill-opacity:1"
     width="36"
     height="36"
     x="-42"
     y="-42"
     rx="2"
     ry="2"
     transform="matrix(0,-1,-1,0,0,0)"
     id="rect42" />
  <path
     style="opacity:0.2;fill-rule:evenodd"
     d="M 28.835937,11 16.999999,27.000001 22.07031,27 l -2.906249,12.000001 11.835938,-16 L 25.929687,23 Z"
     id="path44" />
  <path
     style="fill:#ffffff;fill-rule:evenodd"
     d="M 28.835937,10 16.999999,26 h 5.070312 l -2.90625,12 11.835938,-16 h -5.070312 z"
     id="path46" />
  <path
     style="fill:#ffffff;opacity:0.2"
     d="M 8 6 C 6.892 6 6 6.892 6 8 L 6 9 C 6 7.892 6.892 7 8 7 L 40 7 C 41.108 7 42 7.892 42 9 L 42 8 C 42 6.892 41.108 6 40 6 L 8 6 z"
     id="path48" />
</svg>
