<?xml version="1.0" encoding="UTF-8" standalone="no"?>
<svg
   xmlns:dc="http://purl.org/dc/elements/1.1/"
   xmlns:cc="http://creativecommons.org/ns#"
   xmlns:rdf="http://www.w3.org/1999/02/22-rdf-syntax-ns#"
   xmlns:svg="http://www.w3.org/2000/svg"
   xmlns="http://www.w3.org/2000/svg"
   xmlns:sodipodi="http://sodipodi.sourceforge.net/DTD/sodipodi-0.dtd"
   xmlns:inkscape="http://www.inkscape.org/namespaces/inkscape"
   width="48"
   height="48"
   version="1"
   id="svg12"
   sodipodi:docname="otter-browser.svg"
   inkscape:version="0.92.5 (2060ec1f9f, 2020-04-08)">
  <metadata
     id="metadata18">
    <rdf:RDF>
      <cc:Work
         rdf:about="">
        <dc:format>image/svg+xml</dc:format>
        <dc:type
           rdf:resource="http://purl.org/dc/dcmitype/StillImage" />
      </cc:Work>
    </rdf:RDF>
  </metadata>
  <defs
     id="defs16" />
  <sodipodi:namedview
     pagecolor="#ffffff"
     bordercolor="#666666"
     borderopacity="1"
     objecttolerance="10"
     gridtolerance="10"
     guidetolerance="10"
     inkscape:pageopacity="0"
     inkscape:pageshadow="2"
     inkscape:window-width="765"
     inkscape:window-height="480"
     id="namedview14"
     showgrid="false"
     inkscape:zoom="4.9166667"
     inkscape:cx="24"
     inkscape:cy="24"
     inkscape:window-x="0"
     inkscape:window-y="28"
     inkscape:window-maximized="0"
     inkscape:current-layer="svg12" />
  <path
     style="fill:#4c566a;fill-opacity:1"
     d="M 24,4 A 20,20 0 0 0 4,24 20,20 0 0 0 24,44 20,20 0 0 0 44,24 20,20 0 0 0 24,4 Z"
     id="path2" />
  <path
     style="opacity:0.2"
     d="M 24,13 A 9,12 0 0 1 33,25 9,12 0 0 1 24,37 9,12 0 0 1 15,25 9,12 0 0 1 24,13 Z"
     id="path4" />
  <path
     style="fill:#ffffff"
     d="M 24,12 A 9,12 0 0 1 33,24 9,12 0 0 1 24,36 9,12 0 0 1 15,24 9,12 0 0 1 24,12 Z"
     id="path6" />
  <path
     style="opacity:0.2;fill:#ffffff"
     d="M 24,4 C 12.954305,4 4,12.954305 4,24 c 0.00571,0.139405 0.012875,0.278745 0.0215,0.418 C 4.3361793,13.608773 13.185696,5.0073157 23.9995,5 c 10.875938,0.00959 19.750697,8.708433 19.978,19.582 0.01016,-0.193883 0.01749,-0.387904 0.022,-0.582 0,-11.045695 -8.954305,-20 -20,-20 z"
     id="path8" />
  <path
     style="opacity:0.2;fill:#434343"
     d="m 4.022,24.418 c -0.00999,0.193885 -0.017158,0.387906 -0.0215,0.582 0,11.045695 8.954305,20 20,20 11.045695,0 20,-8.954305 20,-20 -0.0055,-0.139403 -0.01254,-0.278744 -0.021,-0.418 C 43.664797,35.392002 34.814081,43.993765 23.9995,44 13.123562,43.990412 4.248803,35.291567 4.0215,24.418 Z"
     id="path10" />
</svg>
