<?xml version="1.0" encoding="UTF-8" standalone="no"?>
<svg
   xmlns:dc="http://purl.org/dc/elements/1.1/"
   xmlns:cc="http://creativecommons.org/ns#"
   xmlns:rdf="http://www.w3.org/1999/02/22-rdf-syntax-ns#"
   xmlns:svg="http://www.w3.org/2000/svg"
   xmlns="http://www.w3.org/2000/svg"
   xmlns:sodipodi="http://sodipodi.sourceforge.net/DTD/sodipodi-0.dtd"
   xmlns:inkscape="http://www.inkscape.org/namespaces/inkscape"
   width="48"
   height="48"
   version="1.1"
   id="svg14"
   sodipodi:docname="outlast.svg"
   inkscape:version="0.92.5 (2060ec1f9f, 2020-04-08)">
  <metadata
     id="metadata20">
    <rdf:RDF>
      <cc:Work
         rdf:about="">
        <dc:format>image/svg+xml</dc:format>
        <dc:type
           rdf:resource="http://purl.org/dc/dcmitype/StillImage" />
      </cc:Work>
    </rdf:RDF>
  </metadata>
  <defs
     id="defs18" />
  <sodipodi:namedview
     pagecolor="#ffffff"
     bordercolor="#666666"
     borderopacity="1"
     objecttolerance="10"
     gridtolerance="10"
     guidetolerance="10"
     inkscape:pageopacity="0"
     inkscape:pageshadow="2"
     inkscape:window-width="765"
     inkscape:window-height="480"
     id="namedview16"
     showgrid="false"
     inkscape:zoom="3.4766083"
     inkscape:cx="28.80485"
     inkscape:cy="31.128139"
     inkscape:window-x="0"
     inkscape:window-y="28"
     inkscape:window-maximized="0"
     inkscape:current-layer="svg14" />
  <path
     style="opacity:0.2"
     d="M 24,5 C 13.797503,4.9999825 6.0001543,14.271904 6,25 6.0001543,35.728096 13.797503,45.000017 24,45 34.202497,45.000017 41.999846,35.728096 42,25 41.999846,14.271904 34.202497,4.9999825 24,5 Z"
     id="path2" />
  <path
     style="fill:#4c566a;fill-opacity:1"
     d="M 24,4 C 13.797503,3.9999825 6.0001543,13.271904 6,24 6.0001543,34.728096 13.797503,44.000017 24,44 34.202497,44.000017 41.999846,34.728096 42,24 41.999846,13.271904 34.202497,3.9999825 24,4 Z"
     id="path4" />
  <path
     style="opacity:0.2"
     d="M 24,9 A 13.999979,16.000263 0 0 0 10,25 13.999979,16.000263 0 0 0 24,41 13.999979,16.000263 0 0 0 38,25 13.999979,16.000263 0 0 0 24,9 Z m 0,6 a 6.9998001,9.9998896 0 0 1 7,10 6.9998001,9.9998896 0 0 1 -7,10 6.9998001,9.9998896 0 0 1 -7,-10 6.9998001,9.9998896 0 0 1 7,-10 z"
     id="path6" />
  <path
     style="fill:#ffffff;fill-opacity:1"
     d="M 24 8 A 13.999979 16.000263 0 0 0 10 24 A 13.999979 16.000263 0 0 0 24 40 A 13.999979 16.000263 0 0 0 38 24 A 13.999979 16.000263 0 0 0 24 8 z M 24 14 A 6.9998001 9.9998896 0 0 1 31 24 A 6.9998001 9.9998896 0 0 1 24 34 A 6.9998001 9.9998896 0 0 1 17 24 A 6.9998001 9.9998896 0 0 1 24 14 z"
     id="path8" />
  <path
     style="opacity:0.1;fill:#ffffff"
     d="M 24 4 C 13.797503 3.9999825 6.0001543 13.271904 6 24 C 6.0000024 24.168297 6.0196181 24.33245 6.0234375 24.5 C 6.2630829 13.987065 13.957555 4.9999828 24 5 C 34.042445 4.9999828 41.736917 13.987065 41.976562 24.5 C 41.980382 24.33245 41.999998 24.168297 42 24 C 41.999846 13.271904 34.202497 3.9999825 24 4 z"
     id="path10" />
  <path
     style="opacity:0.1;fill:#ffffff"
     d="M 24 8 A 13.999979 16.000263 0 0 0 10 24 A 13.999979 16.000263 0 0 0 10.017578 24.414062 A 13.999979 16.000263 0 0 1 24 9 A 13.999979 16.000263 0 0 1 37.982422 24.585938 A 13.999979 16.000263 0 0 0 38 24 A 13.999979 16.000263 0 0 0 24 8 z M 30.986328 24.414062 A 6.9998001 9.9998896 0 0 1 24 34 A 6.9998001 9.9998896 0 0 1 17.013672 24.585938 A 6.9998001 9.9998896 0 0 0 17 25 A 6.9998001 9.9998896 0 0 0 24 35 A 6.9998001 9.9998896 0 0 0 31 25 A 6.9998001 9.9998896 0 0 0 30.986328 24.414062 z"
     id="path12" />
</svg>
