<?xml version="1.0" encoding="UTF-8" standalone="no"?>
<svg
   xmlns:dc="http://purl.org/dc/elements/1.1/"
   xmlns:cc="http://creativecommons.org/ns#"
   xmlns:rdf="http://www.w3.org/1999/02/22-rdf-syntax-ns#"
   xmlns:svg="http://www.w3.org/2000/svg"
   xmlns="http://www.w3.org/2000/svg"
   xmlns:sodipodi="http://sodipodi.sourceforge.net/DTD/sodipodi-0.dtd"
   xmlns:inkscape="http://www.inkscape.org/namespaces/inkscape"
   width="48"
   height="48"
   version="1"
   id="svg38"
   sodipodi:docname="page.codeberg.foreverxml.Random.svg"
   inkscape:version="0.92.5 (2060ec1f9f, 2020-04-08)">
  <metadata
     id="metadata44">
    <rdf:RDF>
      <cc:Work
         rdf:about="">
        <dc:format>image/svg+xml</dc:format>
        <dc:type
           rdf:resource="http://purl.org/dc/dcmitype/StillImage" />
      </cc:Work>
    </rdf:RDF>
  </metadata>
  <defs
     id="defs42" />
  <sodipodi:namedview
     pagecolor="#ffffff"
     bordercolor="#666666"
     borderopacity="1"
     objecttolerance="10"
     gridtolerance="10"
     guidetolerance="10"
     inkscape:pageopacity="0"
     inkscape:pageshadow="2"
     inkscape:window-width="783"
     inkscape:window-height="480"
     id="namedview40"
     showgrid="false"
     inkscape:zoom="6.9532167"
     inkscape:cx="31.210144"
     inkscape:cy="36.01309"
     inkscape:window-x="0"
     inkscape:window-y="28"
     inkscape:window-maximized="0"
     inkscape:current-layer="svg38" />
  <path
     style="opacity:0.2"
     d="M 24,5 C 12.92,5 4,13.92 4,25 4,36.08 12.92,45 24,45 35.08,45 44,36.08 44,25 44,13.92 35.08,5 24,5 Z"
     id="path2" />
  <path
     style="fill:#5f697d;fill-opacity:1"
     d="M 24,4 C 12.92,4 4,12.92 4,24 4,35.08 12.92,44 24,44 35.08,44 44,35.08 44,24 44,12.92 35.08,4 24,4 Z"
     id="path4" />
  <circle
     style="opacity:0.1"
     cx="34.648"
     cy=".707"
     r="17"
     transform="rotate(45)"
     id="circle6" />
  <path
     style="fill:#ffffff;opacity:0.1"
     d="M 24 4 C 12.92 4 4 12.92 4 24 C 4 24.167874 4.007647 24.333141 4.0117188 24.5 C 4.2763904 13.653863 13.087874 5 24 5 C 34.912126 5 43.72361 13.653863 43.988281 24.5 C 43.992353 24.333141 44 24.167874 44 24 C 44 12.92 35.08 4 24 4 z"
     id="path8" />
  <circle
     style="fill:#4c566a;fill-opacity:1"
     cx="33.941"
     cy="0"
     r="17"
     transform="rotate(45)"
     id="circle10" />
  <circle
     style="opacity:0.2"
     cx="16"
     cy="17"
     r="2"
     id="circle12" />
  <circle
     style="fill:#ffffff;fill-opacity:1"
     cx="16"
     cy="16"
     r="2"
     id="circle14" />
  <circle
     style="opacity:0.2"
     cx="32"
     cy="33"
     r="2"
     id="circle16" />
  <circle
     style="fill:#fbfbfb;fill-opacity:1"
     cx="32"
     cy="32"
     r="2"
     id="circle18" />
  <circle
     style="opacity:0.2"
     cx="17"
     cy="-32"
     r="2"
     transform="rotate(90)"
     id="circle20" />
  <circle
     style="fill:#ffffff;fill-opacity:1"
     cx="16"
     cy="-32"
     r="2"
     transform="rotate(90)"
     id="circle22" />
  <circle
     style="opacity:0.2"
     cx="33"
     cy="-16"
     r="2"
     transform="rotate(90)"
     id="circle24" />
  <circle
     style="fill:#fdfeff;fill-opacity:1"
     cx="32"
     cy="-16"
     r="2"
     transform="rotate(90)"
     id="circle26" />
  <path
     style="fill:none;stroke:#000000;stroke-width:3;stroke-linecap:round;opacity:0.2"
     d="M 14.5,23.5 24,25"
     id="path28" />
  <path
     style="fill:none;stroke:#afafb1;stroke-width:3;stroke-linecap:round"
     d="M 14.5,22.5 24,24"
     id="path30" />
  <path
     style="opacity:0.2"
     d="m 24,21 c -2.207062,0 -4,1.792938 -4,4 0,2.207061 1.792938,4 4,4 2.207061,0 4,-1.792939 4,-4 0,-2.207062 -1.792939,-4 -4,-4 z"
     id="path32" />
  <path
     style="fill:#cccccc"
     d="m 24,20 c -2.207062,0 -4,1.792938 -4,4 0,2.207061 1.792938,4 4,4 2.207061,0 4,-1.792939 4,-4 0,-2.207062 -1.792939,-4 -4,-4 z"
     id="path34" />
  <path
     style="fill:#ffffff;opacity:0.2"
     d="M 24 20 C 21.792938 20 20 21.792938 20 24 C 20 24.169419 20.012697 24.336085 20.033203 24.5 C 20.279833 22.528556 21.962357 21 24 21 C 26.037642 21 27.720167 22.528556 27.966797 24.5 C 27.987303 24.336085 28 24.169419 28 24 C 28 21.792938 26.207061 20 24 20 z"
     id="path36" />
</svg>
