<?xml version="1.0" encoding="UTF-8" standalone="no"?>
<svg
   xmlns:dc="http://purl.org/dc/elements/1.1/"
   xmlns:cc="http://creativecommons.org/ns#"
   xmlns:rdf="http://www.w3.org/1999/02/22-rdf-syntax-ns#"
   xmlns:svg="http://www.w3.org/2000/svg"
   xmlns="http://www.w3.org/2000/svg"
   xmlns:sodipodi="http://sodipodi.sourceforge.net/DTD/sodipodi-0.dtd"
   xmlns:inkscape="http://www.inkscape.org/namespaces/inkscape"
   width="48"
   height="48"
   version="1"
   id="svg34"
   sodipodi:docname="appimagekit-pcloud.svg"
   inkscape:version="0.92.5 (2060ec1f9f, 2020-04-08)">
  <metadata
     id="metadata40">
    <rdf:RDF>
      <cc:Work
         rdf:about="">
        <dc:format>image/svg+xml</dc:format>
        <dc:type
           rdf:resource="http://purl.org/dc/dcmitype/StillImage" />
      </cc:Work>
    </rdf:RDF>
  </metadata>
  <defs
     id="defs38" />
  <sodipodi:namedview
     pagecolor="#ffffff"
     bordercolor="#666666"
     borderopacity="1"
     objecttolerance="10"
     gridtolerance="10"
     guidetolerance="10"
     inkscape:pageopacity="0"
     inkscape:pageshadow="2"
     inkscape:window-width="783"
     inkscape:window-height="480"
     id="namedview36"
     showgrid="false"
     inkscape:zoom="4.9166667"
     inkscape:cx="24"
     inkscape:cy="24"
     inkscape:window-x="0"
     inkscape:window-y="28"
     inkscape:window-maximized="0"
     inkscape:current-layer="svg34" />
  <path
     style="opacity:0.2"
     d="M 38.5 25 A 6.5 6.5 0 0 0 32.183594 30 L 22.796875 30 A 10 10 0 0 1 13 38 L 38.5 38 A 6.5 6.5 0 0 0 45 31.5 A 6.5 6.5 0 0 0 38.5 25 z"
     id="path2" />
  <path
     style="fill:#5f697d;fill-opacity:1"
     d="M 38.5 24 A 6.5 6.5 0 0 0 32.183594 29 L 13 29 L 13 37 L 38.5 37 A 6.5 6.5 0 0 0 45 30.5 A 6.5 6.5 0 0 0 38.5 24 z"
     id="path4" />
  <path
     style="opacity:0.1;fill:#ffffff"
     d="M 38.5 24 A 6.5 6.5 0 0 0 32.183594 29 L 13 29 L 13 30 L 32.183594 30 A 6.5 6.5 0 0 1 38.5 25 A 6.5 6.5 0 0 1 44.976562 31.029297 A 6.5 6.5 0 0 0 45 30.5 A 6.5 6.5 0 0 0 38.5 24 z"
     id="path6" />
  <circle
     style="opacity:0.2"
     cx="36"
     cy="24"
     r="6"
     id="circle8" />
  <circle
     style="opacity:0.2"
     cx="13"
     cy="28"
     r="10"
     id="circle10" />
  <circle
     style="fill:#555f73;fill-opacity:1"
     cx="13"
     cy="27"
     r="10"
     id="circle12" />
  <path
     style="opacity:0.1;fill:#ffffff"
     d="M 13 17 A 10 10 0 0 0 3 27 A 10 10 0 0 0 3.0214844 27.585938 A 10 10 0 0 1 13 18 A 10 10 0 0 1 22.978516 27.414062 A 10 10 0 0 0 23 27 A 10 10 0 0 0 13 17 z"
     id="path14" />
  <circle
     style="fill:#555f73;fill-opacity:1"
     cx="36"
     cy="23"
     r="6"
     id="circle16" />
  <path
     style="opacity:0.1;fill:#ffffff"
     d="M 36 17 A 6 6 0 0 0 30 23 A 6 6 0 0 0 30.025391 23.498047 A 6 6 0 0 1 36 18 A 6 6 0 0 1 41.974609 23.501953 A 6 6 0 0 0 42 23 A 6 6 0 0 0 36 17 z"
     id="path18" />
  <circle
     style="opacity:0.2"
     cx="24"
     cy="24"
     r="13"
     id="circle20" />
  <circle
     style="fill:#4c566a;fill-opacity:1"
     cx="24"
     cy="23"
     r="13"
     id="circle22" />
  <path
     style="opacity:0.2"
     d="M 24,14 A 10,10 0 0 0 14,24 10,10 0 0 0 24,34 10,10 0 0 0 34,24 10,10 0 0 0 24,14 Z m 0,2 a 8,8 0 0 1 8,8 8,8 0 0 1 -8,8 8,8 0 0 1 -8,-8 8,8 0 0 1 8,-8 z"
     id="path24" />
  <path
     style="fill:#ffffff"
     d="M 24 13 A 10 10 0 0 0 14 23 A 10 10 0 0 0 24 33 A 10 10 0 0 0 34 23 A 10 10 0 0 0 24 13 z M 24 15 A 8 8 0 0 1 32 23 A 8 8 0 0 1 24 31 A 8 8 0 0 1 16 23 A 8 8 0 0 1 24 15 z"
     id="path26" />
  <path
     style="opacity:0.2"
     d="M 21.5,19 C 20.669,19 20,19.669 20,20.5 v 8 c 0,0.831 0.669,1.5 1.5,1.5 0.831,0 1.5,-0.669 1.5,-1.5 V 27 h 3 c 2.209139,0 4,-1.790861 4,-4 0,-2.209139 -1.790861,-4 -4,-4 z m 1.5,3 h 3 c 0.587819,0 1,0.412181 1,1 0,0.587819 -0.412181,1 -1,1 h -3 z"
     id="path28" />
  <path
     style="fill:#ffffff"
     d="M 21.5,18 C 20.669,18 20,18.669 20,19.5 v 8 c 0,0.831 0.669,1.5 1.5,1.5 0.831,0 1.5,-0.669 1.5,-1.5 V 26 h 3 c 2.209139,0 4,-1.790861 4,-4 0,-2.209139 -1.790861,-4 -4,-4 z m 1.5,3 h 3 c 0.587819,0 1,0.412181 1,1 0,0.587819 -0.412181,1 -1,1 h -3 z"
     id="path30" />
  <path
     style="opacity:0.2;fill:#ffffff"
     d="M 24 10 A 13 13 0 0 0 11 23 A 13 13 0 0 0 11.021484 23.580078 A 13 13 0 0 1 24 11 A 13 13 0 0 1 36.978516 23.419922 A 13 13 0 0 0 37 23 A 13 13 0 0 0 24 10 z"
     id="path32" />
</svg>
