<?xml version="1.0" encoding="UTF-8" standalone="no"?>
<svg
   xmlns:dc="http://purl.org/dc/elements/1.1/"
   xmlns:cc="http://creativecommons.org/ns#"
   xmlns:rdf="http://www.w3.org/1999/02/22-rdf-syntax-ns#"
   xmlns:svg="http://www.w3.org/2000/svg"
   xmlns="http://www.w3.org/2000/svg"
   xmlns:sodipodi="http://sodipodi.sourceforge.net/DTD/sodipodi-0.dtd"
   xmlns:inkscape="http://www.inkscape.org/namespaces/inkscape"
   width="48"
   height="48"
   version="1"
   id="svg18"
   sodipodi:docname="appimagekit-pling-store.svg"
   inkscape:version="0.92.5 (2060ec1f9f, 2020-04-08)">
  <metadata
     id="metadata24">
    <rdf:RDF>
      <cc:Work
         rdf:about="">
        <dc:format>image/svg+xml</dc:format>
        <dc:type
           rdf:resource="http://purl.org/dc/dcmitype/StillImage" />
      </cc:Work>
    </rdf:RDF>
  </metadata>
  <defs
     id="defs22" />
  <sodipodi:namedview
     pagecolor="#ffffff"
     bordercolor="#666666"
     borderopacity="1"
     objecttolerance="10"
     gridtolerance="10"
     guidetolerance="10"
     inkscape:pageopacity="0"
     inkscape:pageshadow="2"
     inkscape:window-width="640"
     inkscape:window-height="480"
     id="namedview20"
     showgrid="false"
     inkscape:zoom="4.9166667"
     inkscape:cx="24"
     inkscape:cy="24"
     inkscape:current-layer="svg18" />
  <path
     style="opacity:0.2"
     d="m 6.0023134,13.000002 c 0.00925,7.440008 -0.018556,14.880566 0.013997,22.320228 0.1505292,4.791773 4.3568596,9.080156 9.4052176,9.588152 3.254561,0.170255 6.522408,0.04154 9.782698,0.08161 2.548037,-0.04606 5.107334,0.109871 7.645747,-0.117053 5.035237,-0.628774 9.125697,-5.019152 9.145931,-9.814999 0.0082,-7.352605 0.0012,-14.705302 0.0035,-22.057942 -11.999034,0 -23.99807,0 -35.9971033,0 z"
     id="path2" />
  <path
     style="opacity:0.2"
     d="M 24,5 A 10,10 0 0 0 14,15 10,10 0 0 0 24,25 10,10 0 0 0 34,15 10,10 0 0 0 24,5 Z m 0,4 a 6,6 0 0 1 6,6 6,6 0 0 1 -6,6 6,6 0 0 1 -6,-6 6,6 0 0 1 6,-6 z"
     id="path4" />
  <path
     style="fill:#4c566a;fill-opacity:1"
     d="M 24 4 A 10 10 0 0 0 14 14 A 10 10 0 0 0 24 24 A 10 10 0 0 0 34 14 A 10 10 0 0 0 24 4 z M 24 8 A 6 6 0 0 1 30 14 A 6 6 0 0 1 24 20 A 6 6 0 0 1 18 14 A 6 6 0 0 1 24 8 z"
     id="path6" />
  <path
     style="opacity:0.2;fill:#ffffff"
     d="M 24 4 A 10 10 0 0 0 14 14 A 10 10 0 0 0 14.021484 14.414062 A 10 10 0 0 1 24 5 A 10 10 0 0 1 33.978516 14.585938 A 10 10 0 0 0 34 14 A 10 10 0 0 0 24 4 z M 18.025391 14.498047 A 6 6 0 0 0 18 15 A 6 6 0 0 0 24 21 A 6 6 0 0 0 30 15 A 6 6 0 0 0 29.974609 14.501953 A 6 6 0 0 1 24 20 A 6 6 0 0 1 18.025391 14.498047 z"
     id="path8" />
  <path
     style="fill:#4c566a;fill-opacity:1"
     d="m 6.0023134,12.000002 c 0.00925,7.440008 -0.018556,14.880566 0.013997,22.320228 0.1505292,4.791773 4.3568596,9.080156 9.4052176,9.588152 3.254561,0.170255 6.522408,0.04154 9.782698,0.08161 2.548037,-0.04606 5.107334,0.109871 7.645747,-0.117053 5.035237,-0.628774 9.125697,-5.019152 9.145931,-9.814999 0.0082,-7.352605 0.0012,-14.705302 0.0035,-22.057942 -11.999034,0 -23.99807,0 -35.9971033,0 z"
     id="path10" />
  <path
     style="opacity:0.2"
     d="m 24.504496,19.001953 c -0.425496,0.01119 -0.858224,0.06557 -1.291015,0.164063 -1.402424,0.313112 -2.828158,0.67622 -4.09375,0.996093 -1.15444,0.236945 -2.293362,1.492919 -2.097657,2.519532 l 3.822266,16.908203 c 0.236059,1.044602 1.421902,1.637484 2.660156,1.328125 1.238254,-0.309359 2.046608,-1.398759 1.810547,-2.44336 L 23.90684,32.25 c 0.656061,-0.178352 1.388547,-0.345602 2.015625,-0.464844 3.502863,-0.87455 5.704343,-4.404537 4.917969,-7.882812 -0.680196,-2.993948 -3.357467,-4.978696 -6.335938,-4.900391 z m -0.03906,4 a 2.3337507,2.8418261 78.331056 0 1 2.480468,1.714844 2.3337507,2.8418261 78.331056 0 1 -2.216796,2.910156 2.3337507,2.8418261 78.331056 0 1 -0.04687,0.0078 L 23.106059,28 22.00059,23.464844 l 1.623047,-0.375 a 2.3337507,2.8418261 78.331056 0 1 0.841797,-0.08789 z"
     id="path12" />
  <path
     style="fill:#ffffff"
     d="m 24.504496,18.001953 c -0.425496,0.01119 -0.858224,0.06557 -1.291015,0.164063 -1.402424,0.313112 -2.828158,0.67622 -4.09375,0.996093 -1.15444,0.236945 -2.293362,1.492919 -2.097657,2.519532 l 3.822266,16.908203 c 0.236059,1.044602 1.421902,1.637484 2.660156,1.328125 1.238254,-0.309359 2.046608,-1.398759 1.810547,-2.44336 L 23.90684,31.25 c 0.656061,-0.178352 1.388547,-0.345602 2.015625,-0.464844 3.502863,-0.87455 5.704343,-4.404537 4.917969,-7.882812 -0.680196,-2.993948 -3.357467,-4.978696 -6.335938,-4.900391 z m -0.03906,4 a 2.3337507,2.8418261 78.331056 0 1 2.480468,1.714844 2.3337507,2.8418261 78.331056 0 1 -2.216796,2.910156 2.3337507,2.8418261 78.331056 0 1 -0.04687,0.0078 L 23.106059,27 22.00059,22.464844 l 1.623047,-0.375 a 2.3337507,2.8418261 78.331056 0 1 0.841797,-0.08789 z"
     id="path14" />
  <path
     style="opacity:0.2;fill:#ffffff"
     d="m 6.0000668,12 c 4.147e-4,0.333329 -2.746e-4,0.666669 0,1 H 41.999983 c 7e-5,-0.333323 -1.06e-4,-0.666677 0,-1 z"
     id="path16" />
</svg>
