<?xml version="1.0" encoding="UTF-8" standalone="no"?>
<svg
   xmlns:dc="http://purl.org/dc/elements/1.1/"
   xmlns:cc="http://creativecommons.org/ns#"
   xmlns:rdf="http://www.w3.org/1999/02/22-rdf-syntax-ns#"
   xmlns:svg="http://www.w3.org/2000/svg"
   xmlns="http://www.w3.org/2000/svg"
   xmlns:sodipodi="http://sodipodi.sourceforge.net/DTD/sodipodi-0.dtd"
   xmlns:inkscape="http://www.inkscape.org/namespaces/inkscape"
   width="48"
   height="48"
   version="1"
   id="svg12"
   sodipodi:docname="pm.mirko.Twitz.svg"
   inkscape:version="0.92.5 (2060ec1f9f, 2020-04-08)">
  <metadata
     id="metadata18">
    <rdf:RDF>
      <cc:Work
         rdf:about="">
        <dc:format>image/svg+xml</dc:format>
        <dc:type
           rdf:resource="http://purl.org/dc/dcmitype/StillImage" />
      </cc:Work>
    </rdf:RDF>
  </metadata>
  <defs
     id="defs16" />
  <sodipodi:namedview
     pagecolor="#ffffff"
     bordercolor="#666666"
     borderopacity="1"
     objecttolerance="10"
     gridtolerance="10"
     guidetolerance="10"
     inkscape:pageopacity="0"
     inkscape:pageshadow="2"
     inkscape:window-width="765"
     inkscape:window-height="480"
     id="namedview14"
     showgrid="false"
     inkscape:zoom="4.9166667"
     inkscape:cx="24"
     inkscape:cy="24"
     inkscape:window-x="0"
     inkscape:window-y="28"
     inkscape:window-maximized="0"
     inkscape:current-layer="svg12" />
  <rect
     style="fill:#4c566a;fill-opacity:1"
     width="40"
     height="40"
     x="4"
     y="4"
     rx="2"
     ry="2"
     id="rect2" />
  <path
     style="fill:#ffffff;opacity:0.1"
     d="m6 4c-1.108 0-2 0.892-2 2v1c0-1.108 0.892-2 2-2h36c1.108 0 2 0.892 2 2v-1c0-1.108-0.892-2-2-2h-36z"
     id="path4" />
  <path
     style="opacity:0.2"
     d="m6 45c-1.108 0-2-0.892-2-2v-1c0 1.108 0.892 2 2 2h36c1.108 0 2-0.892 2-2v1c0 1.108-0.892 2-2 2h-36z"
     id="path6" />
  <path
     style="opacity:0.2"
     d="M 12.074219,11 C 10.889034,11 10,11.963108 10,13.074219 V 36.925781 C 10,38.110966 10.963108,39 12.074219,39 H 35.925781 C 37.110966,39 38,38.036892 38,36.925781 V 13.074219 C 38,11.889034 37.110966,11 35.925781,11 Z M 15,18 h 6 v 14 h -6 z m 12,0 h 6 v 14 h -6 z"
     id="path8" />
  <path
     style="fill:#ffffff"
     d="M 12.074219 10 C 10.889034 10 10 10.963108 10 12.074219 L 10 35.925781 C 10 37.110966 10.963108 38 12.074219 38 L 35.925781 38 C 37.110966 38 38 37.036892 38 35.925781 L 38 12.074219 C 38 10.889034 37.110966 10 35.925781 10 L 12.074219 10 z M 15 17 L 21 17 L 21 31 L 15 31 L 15 17 z M 27 17 L 33 17 L 33 31 L 27 31 L 27 17 z"
     id="path10" />
</svg>
