<?xml version="1.0" encoding="UTF-8" standalone="no"?>
<svg
   xmlns:dc="http://purl.org/dc/elements/1.1/"
   xmlns:cc="http://creativecommons.org/ns#"
   xmlns:rdf="http://www.w3.org/1999/02/22-rdf-syntax-ns#"
   xmlns:svg="http://www.w3.org/2000/svg"
   xmlns="http://www.w3.org/2000/svg"
   xmlns:sodipodi="http://sodipodi.sourceforge.net/DTD/sodipodi-0.dtd"
   xmlns:inkscape="http://www.inkscape.org/namespaces/inkscape"
   width="48"
   height="48"
   version="1"
   id="svg16"
   sodipodi:docname="preferences-desktop-user-password.svg"
   inkscape:version="0.92.5 (2060ec1f9f, 2020-04-08)">
  <metadata
     id="metadata22">
    <rdf:RDF>
      <cc:Work
         rdf:about="">
        <dc:format>image/svg+xml</dc:format>
        <dc:type
           rdf:resource="http://purl.org/dc/dcmitype/StillImage" />
      </cc:Work>
    </rdf:RDF>
  </metadata>
  <defs
     id="defs20" />
  <sodipodi:namedview
     pagecolor="#ffffff"
     bordercolor="#666666"
     borderopacity="1"
     objecttolerance="10"
     gridtolerance="10"
     guidetolerance="10"
     inkscape:pageopacity="0"
     inkscape:pageshadow="2"
     inkscape:window-width="765"
     inkscape:window-height="480"
     id="namedview18"
     showgrid="false"
     inkscape:zoom="4.9166667"
     inkscape:cx="24"
     inkscape:cy="24"
     inkscape:window-x="0"
     inkscape:window-y="28"
     inkscape:window-maximized="0"
     inkscape:current-layer="svg16" />
  <path
     style="opacity:0.2"
     d="M 23 5 C 16.906 5 12 10.406 12 16.5 L 12 20 L 16 20 L 16 16.5 C 16 12.553 19.053 9 23 9 L 25 9 C 28.947 9 32 12.553 32 16.5 L 32 20 L 36 20 L 36 16.5 C 36 10.406 31.094 5 25 5 L 23 5 z"
     id="path2" />
  <path
     style="fill:#d2d2d2"
     d="M 23 4 C 16.906 4 12 9.406 12 15.5 L 12 20 L 16 20 L 16 15.5 C 16 11.553 19.053 8 23 8 L 25 8 C 28.947 8 32 11.553 32 15.5 L 32 20 L 36 20 L 36 15.5 C 36 9.406 31.094 4 25 4 L 23 4 z"
     id="path4" />
  <path
     style="opacity:0.2"
     d="M 8,42 V 43 C 8,44.108 8.892,45 10,45 H 38 C 39.108,45 40,44.108 40,43 V 42 C 40,43.108 39.108,44 38,44 H 10 C 8.892,44 8,43.108 8,42 Z"
     id="path6" />
  <rect
     style="fill:#4c566a;fill-opacity:1"
     width="32"
     height="24"
     x="8"
     y="20"
     rx="2"
     ry="2"
     id="rect8" />
  <path
     style="opacity:0.2;fill:#ffffff"
     d="M 10,20 C 8.892,20 8,20.892 8,22 V 23 C 8,21.892 8.892,21 10,21 H 38 C 39.108,21 40,21.892 40,23 V 22 C 40,20.892 39.108,20 38,20 Z"
     id="path10" />
  <rect
     style="fill:#5f697d;fill-opacity:1"
     width="32"
     height="14"
     x="8"
     y="24"
     rx="0"
     ry="0"
     id="rect12" />
  <path
     style="opacity:0.2;fill:#ffffff"
     d="M 23,4 C 16.906,4 12,9.406 12,15.5 V 16.5 C 12,10.406 16.906,5 23,5 H 25 C 31.094,5 36,10.406 36,16.5 V 15.5 C 36,9.406 31.094,4 25,4 Z"
     id="path14" />
</svg>
