<?xml version="1.0" encoding="UTF-8" standalone="no"?>
<svg
   xmlns:dc="http://purl.org/dc/elements/1.1/"
   xmlns:cc="http://creativecommons.org/ns#"
   xmlns:rdf="http://www.w3.org/1999/02/22-rdf-syntax-ns#"
   xmlns:svg="http://www.w3.org/2000/svg"
   xmlns="http://www.w3.org/2000/svg"
   xmlns:sodipodi="http://sodipodi.sourceforge.net/DTD/sodipodi-0.dtd"
   xmlns:inkscape="http://www.inkscape.org/namespaces/inkscape"
   width="48"
   height="48"
   version="1"
   id="svg24"
   sodipodi:docname="yast-lan.svg"
   inkscape:version="0.92.5 (2060ec1f9f, 2020-04-08)">
  <metadata
     id="metadata30">
    <rdf:RDF>
      <cc:Work
         rdf:about="">
        <dc:format>image/svg+xml</dc:format>
        <dc:type
           rdf:resource="http://purl.org/dc/dcmitype/StillImage" />
      </cc:Work>
    </rdf:RDF>
  </metadata>
  <defs
     id="defs28" />
  <sodipodi:namedview
     pagecolor="#ffffff"
     bordercolor="#666666"
     borderopacity="1"
     objecttolerance="10"
     gridtolerance="10"
     guidetolerance="10"
     inkscape:pageopacity="0"
     inkscape:pageshadow="2"
     inkscape:window-width="783"
     inkscape:window-height="480"
     id="namedview26"
     showgrid="false"
     inkscape:zoom="4.9166667"
     inkscape:cx="-0.289691"
     inkscape:cy="27.504322"
     inkscape:window-x="0"
     inkscape:window-y="28"
     inkscape:window-maximized="0"
     inkscape:current-layer="svg24" />
  <path
     style="opacity:0.2"
     d="M 16,42 12,38 H 7 C 5.338,38 4,36.662 4,35 V 11 C 4,9.338 5.338,8 7,8 H 41 C 42.662,8 44,9.338 44,11 V 35 C 44,36.662 42.662,38 41,38 H 36 L 32,42 Z"
     id="path2" />
  <path
     style="fill:#4c566a;fill-opacity:1"
     d="M 16,41 12,37 H 7 C 5.338,37 4,35.662 4,34 V 10 C 4,8.338 5.338,7 7,7 H 41 C 42.662,7 44,8.338 44,10 V 34 C 44,35.662 42.662,37 41,37 H 36 L 32,41 Z"
     id="path4" />
  <path
     style="opacity:0.6;fill:#374155;fill-opacity:1"
     d="M 20,35 15.5,31 H 10 V 13 H 38 V 31 H 32 L 28,35 Z"
     id="path6" />
  <g
     style="fill:#ffffff;fill-opacity:1"
     transform="scale(1,-1)"
     id="g18">
    <rect
       width="2"
       height="3"
       x="15"
       y="-16"
       id="rect8"
       style="fill:#ffffff;fill-opacity:1" />
    <rect
       width="2"
       height="3"
       x="19"
       y="-16"
       id="rect10"
       style="fill:#ffffff;fill-opacity:1" />
    <rect
       width="2"
       height="3"
       x="23"
       y="-16"
       id="rect12"
       style="fill:#ffffff;fill-opacity:1" />
    <rect
       width="2"
       height="3"
       x="27"
       y="-16"
       id="rect14"
       style="fill:#ffffff;fill-opacity:1" />
    <rect
       width="2"
       height="3"
       x="31"
       y="-16"
       id="rect16"
       style="fill:#ffffff;fill-opacity:1" />
  </g>
  <path
     style="fill:#ffffff;opacity:0.2"
     d="M 7 7 C 5.338 7 4 8.338 4 10 L 4 11 C 4 9.338 5.338 8 7 8 L 41 8 C 42.662 8 44 9.338 44 11 L 44 10 C 44 8.338 42.662 7 41 7 L 7 7 z"
     id="path20" />
  <path
     style="opacity:0.2;fill:#ffffff"
     d="M 10,31 V 32 H 15.5 L 20,36 H 28 L 32,32 H 38 V 31 H 32 L 28,35 H 20 L 15.5,31 Z"
     id="path22" />
</svg>
