<?xml version="1.0" encoding="UTF-8" standalone="no"?>
<svg
   xmlns:dc="http://purl.org/dc/elements/1.1/"
   xmlns:cc="http://creativecommons.org/ns#"
   xmlns:rdf="http://www.w3.org/1999/02/22-rdf-syntax-ns#"
   xmlns:svg="http://www.w3.org/2000/svg"
   xmlns="http://www.w3.org/2000/svg"
   xmlns:sodipodi="http://sodipodi.sourceforge.net/DTD/sodipodi-0.dtd"
   xmlns:inkscape="http://www.inkscape.org/namespaces/inkscape"
   width="48"
   height="48"
   version="1"
   id="svg20"
   sodipodi:docname="preferences-system-privacy.svg"
   inkscape:version="0.92.5 (2060ec1f9f, 2020-04-08)">
  <metadata
     id="metadata26">
    <rdf:RDF>
      <cc:Work
         rdf:about="">
        <dc:format>image/svg+xml</dc:format>
        <dc:type
           rdf:resource="http://purl.org/dc/dcmitype/StillImage" />
      </cc:Work>
    </rdf:RDF>
  </metadata>
  <defs
     id="defs24" />
  <sodipodi:namedview
     pagecolor="#ffffff"
     bordercolor="#666666"
     borderopacity="1"
     objecttolerance="10"
     gridtolerance="10"
     guidetolerance="10"
     inkscape:pageopacity="0"
     inkscape:pageshadow="2"
     inkscape:window-width="783"
     inkscape:window-height="480"
     id="namedview22"
     showgrid="false"
     inkscape:zoom="4.9166667"
     inkscape:cx="23.022679"
     inkscape:cy="26.092838"
     inkscape:window-x="0"
     inkscape:window-y="28"
     inkscape:window-maximized="0"
     inkscape:current-layer="svg20" />
  <rect
     style="fill:#4c566a;fill-opacity:1"
     width="40"
     height="40"
     x="4"
     y="4"
     rx="20"
     ry="20"
     id="rect2" />
  <rect
     opacity=".2"
     width="32"
     height="32"
     x="-41"
     y="-40"
     rx="16"
     ry="16"
     transform="matrix(0,-1,-1,0,0,0)"
     id="rect4" />
  <rect
     style="fill:#5f697d;fill-opacity:1"
     width="32"
     height="32"
     x="-40"
     y="-40"
     rx="16"
     ry="16"
     transform="matrix(0,-1,-1,0,0,0)"
     id="rect6" />
  <path
     opacity=".2"
     d="m24 14-2.8125 3.5312c-3.03 1.139-5.188 4.041-5.188 7.469 0 4.4183 3.5817 8 8 8s8-3.5817 8-8c0-3.4276-2.158-6.3298-5.1875-7.4688l-2.812-3.531z"
     id="path8" />
  <path
     fill="#fff"
     style="opacity:0.1"
     d="m24 4c-10.901 0-19.688 8.637-19.969 19.469 0.5339-10.597 9.235-18.969 19.969-18.969s19.435 8.372 19.969 18.969c-0.281-10.832-9.068-19.469-19.969-19.469z"
     id="path10" />
  <path
     fill="#fff"
     style="opacity:0.1"
     d="m24 8c-8.864 0-16 7.136-16 16 0 0.085-0.001 0.165 0 0.25 0.135-8.746 7.221-15.75 16-15.75s15.865 7.004 16 15.75c0.001-0.085 0-0.165 0-0.25 0-8.864-7.136-16-16-16z"
     id="path12" />
  <path
     style="fill:#ffffff"
     d="m24 13-2.9688 3.5625c-2.952 1.177-5.031 4.066-5.031 7.438 0 4.4183 3.5817 8 8 8s8-3.5817 8-8c0-3.3724-2.0786-6.2606-5.0312-7.4375l-2.969-3.561z"
     id="path14" />
  <path
     fill="#fff"
     opacity=".2"
     d="m24 13-2.9688 3.5625c-2.952 1.177-5.031 4.066-5.031 7.438 0 0.11666-0.005 0.22831 0 0.34375 0.0633-3.3049 2.1245-6.1226 5.0312-7.2812l2.969-3.563 2.969 3.562c2.907 1.159 4.968 3.977 5.031 7.282 0.005-0.116 0-0.227 0-0.344 0-3.372-2.079-6.261-5.031-7.438l-2.969-3.562z"
     id="path16" />
  <path
     opacity=".2"
     d="m4.0117 24.5c-0.0041 0.167-0.0117 0.332-0.0117 0.5 0 11.08 8.92 20 20 20s20-8.92 20-20c0-0.168-0.008-0.333-0.012-0.5-0.264 10.846-9.076 19.5-19.988 19.5s-19.724-8.654-19.988-19.5z"
     id="path18" />
</svg>
