<?xml version="1.0" encoding="UTF-8" standalone="no"?>
<svg
   xmlns:dc="http://purl.org/dc/elements/1.1/"
   xmlns:cc="http://creativecommons.org/ns#"
   xmlns:rdf="http://www.w3.org/1999/02/22-rdf-syntax-ns#"
   xmlns:svg="http://www.w3.org/2000/svg"
   xmlns="http://www.w3.org/2000/svg"
   xmlns:sodipodi="http://sodipodi.sourceforge.net/DTD/sodipodi-0.dtd"
   xmlns:inkscape="http://www.inkscape.org/namespaces/inkscape"
   width="48"
   height="48"
   version="1.1"
   id="svg27"
   sodipodi:docname="cs-region.svg"
   inkscape:version="0.92.5 (2060ec1f9f, 2020-04-08)">
  <metadata
     id="metadata33">
    <rdf:RDF>
      <cc:Work
         rdf:about="">
        <dc:format>image/svg+xml</dc:format>
        <dc:type
           rdf:resource="http://purl.org/dc/dcmitype/StillImage" />
      </cc:Work>
    </rdf:RDF>
  </metadata>
  <defs
     id="defs31" />
  <sodipodi:namedview
     pagecolor="#ffffff"
     bordercolor="#666666"
     borderopacity="1"
     objecttolerance="10"
     gridtolerance="10"
     guidetolerance="10"
     inkscape:pageopacity="0"
     inkscape:pageshadow="2"
     inkscape:window-width="640"
     inkscape:window-height="480"
     id="namedview29"
     showgrid="false"
     inkscape:zoom="13.906433"
     inkscape:cx="20.189115"
     inkscape:cy="11.761714"
     inkscape:current-layer="svg27" />
  <path
     style="opacity:0.2"
     d="M 15.365234,13 27.009766,31.128906 26.492188,37 h -3.164063 l 2.460937,8 H 41.339844 C 42.802623,45 44,43.820743 44,42.376953 V 15.623047 C 44,14.179257 42.802623,13 41.339844,13 Z"
     id="path2" />
  <path
     style="fill:#e4e4e4"
     d="m 41.338942,44.000002 c 1.462779,0 2.661056,-1.179095 2.661056,-2.622885 v -26.75423 c 0,-1.44379 -1.198277,-2.622885 -2.661056,-2.622885 H 15.365596 L 27.010591,30.127955 25.7894,44.000002 Z"
     id="path4" />
  <path
     style="fill:#ffffff;opacity:0.2"
     d="M 15.365234 12 L 16.007812 13 L 41.339844 13 C 42.802623 13 44 14.179257 44 15.623047 L 44 14.623047 C 44 13.179257 42.802623 12 41.339844 12 L 15.365234 12 z M 26.931641 31.007812 L 25.789062 44 L 25.876953 44 L 27.009766 31.128906 L 26.931641 31.007812 z"
     id="path6" />
  <path
     style="opacity:0.1"
     d="m 31,20 v 2 h -4.8125 v 2.001953 H 27 V 24 h 6 v 0.002 h 2.78125 c -0.512975,1.780849 -1.647804,3.499632 -2.753906,4.806641 C 31.639455,27.189437 31.237703,26.355148 31.117188,26 h -2.039063 c 0.149838,0.457692 0.709026,1.677666 2.779297,4.068359 -0.893698,0.900296 -1.570313,1.433594 -1.570313,1.433594 l 0.625,1.927735 c 0,0 0.944708,-0.801178 2.126953,-2.03711 1.186254,1.267521 2.717504,2.791036 4.697266,4.607422 l 1.28711,-1.267578 C 36.90341,32.837062 35.349201,31.333293 34.207031,30.125 c 1.530908,-1.784797 3.085439,-4.069697 3.414063,-6.126953 h 3.376956 v 0.0039 h 0.0039 V 22 H 33 v -2 z"
     id="path8" />
  <path
     id="polygon6"
     style="fill:#4c566a;fill-opacity:1"
     transform="matrix(0.04007614,0,0,0.04244032,4.0000023,1.6318323)"
     d="M 714.49999,809.79992 482.3,809.8 543.70001,998.29996 Z" />
  <path
     style="fill:#5f697d;fill-opacity:1"
     d="m 31,19 v 2 h -4.8125 v 2.001953 H 27 V 23 h 6 v 0.002 h 2.78125 c -0.512975,1.780849 -1.647804,3.499632 -2.753906,4.806641 C 31.639455,26.189437 31.237703,25.355148 31.117188,25 h -2.039063 c 0.149838,0.457692 0.709026,1.677666 2.779297,4.068359 -0.893698,0.900296 -1.570313,1.433594 -1.570313,1.433594 l 0.625,1.927735 c 0,0 0.944708,-0.801178 2.126953,-2.03711 1.186254,1.267521 2.717504,2.791036 4.697266,4.607422 l 1.28711,-1.267578 C 36.90341,31.837062 35.349201,30.333293 34.207031,29.125 c 1.530908,-1.784797 3.085439,-4.069697 3.414063,-6.126953 h 3.376953 v 0.0039 h 0.0039 V 21 H 33 v -2 z"
     id="path11" />
  <path
     style="opacity:0.2"
     d="M 6.661058,5 C 5.1982789,5 4.0000023,6.1813804 4.0000023,7.6274849 V 34.376466 C 4.0000023,35.818619 5.1982789,37 6.661058,37 H 32.634404 L 22.2106,5 Z"
     id="path13" />
  <path
     inkscape:connector-curvature="0"
     d="M 6.6614201,4 C 5.198641,4 4.0003644,5.18138 4.0003644,6.627484 V 33.376466 C 4.0003644,34.818619 5.198641,36 6.6614201,36 H 32.634766 L 22.210962,4 Z"
     id="path15"
     style="fill:#4c566a;fill-opacity:1" />
  <path
     style="fill:#ffffff;opacity:0.2"
     d="M 6.6601562 4 C 5.1973772 4 4 5.1808486 4 6.6269531 L 4 7.6269531 C 4 6.1808486 5.1973772 5 6.6601562 5 L 22.210938 5 L 32.308594 36 L 32.634766 36 L 22.210938 4 L 6.6601562 4 z"
     id="path17" />
  <g
     style="font-size:40px;line-height:1.25;opacity:0.2"
     transform="matrix(0.43478261,0,0,0.41841004,4.6521739,16.702929)"
     id="g21">
    <path
       d="m 31.5399,27 -2.08,-7.17 H 18.1401 L 16.0601,27 H 10 L 20.08,-1.68 h 7.4 L 37.6,27 Z M 28.2505,15.05 23.8,2.76 19.43,15.05 Z"
       id="path19" />
  </g>
  <g
     style="font-size:40px;line-height:1.25;fill:#ffffff"
     transform="matrix(0.43478261,0,0,0.41841004,4.6521739,15.702929)"
     id="g25">
    <path
       style="fill:#ffffff"
       d="m 31.5399,27 -2.08,-7.17 H 18.1401 L 16.0601,27 H 10 L 20.08,-1.68 h 7.4 L 37.6,27 Z M 28.2505,15.05 23.8,2.76 19.43,15.05 Z"
       id="path23" />
  </g>
</svg>
