<?xml version="1.0" encoding="UTF-8" standalone="no"?>
<svg
   xmlns:dc="http://purl.org/dc/elements/1.1/"
   xmlns:cc="http://creativecommons.org/ns#"
   xmlns:rdf="http://www.w3.org/1999/02/22-rdf-syntax-ns#"
   xmlns:svg="http://www.w3.org/2000/svg"
   xmlns="http://www.w3.org/2000/svg"
   xmlns:sodipodi="http://sodipodi.sourceforge.net/DTD/sodipodi-0.dtd"
   xmlns:inkscape="http://www.inkscape.org/namespaces/inkscape"
   width="48"
   height="48"
   version="1"
   id="svg16"
   sodipodi:docname="cs-mouse.svg"
   inkscape:version="0.92.5 (2060ec1f9f, 2020-04-08)">
  <metadata
     id="metadata22">
    <rdf:RDF>
      <cc:Work
         rdf:about="">
        <dc:format>image/svg+xml</dc:format>
        <dc:type
           rdf:resource="http://purl.org/dc/dcmitype/StillImage" />
      </cc:Work>
    </rdf:RDF>
  </metadata>
  <defs
     id="defs20" />
  <sodipodi:namedview
     pagecolor="#ffffff"
     bordercolor="#666666"
     borderopacity="1"
     objecttolerance="10"
     gridtolerance="10"
     guidetolerance="10"
     inkscape:pageopacity="0"
     inkscape:pageshadow="2"
     inkscape:window-width="640"
     inkscape:window-height="480"
     id="namedview18"
     showgrid="false"
     inkscape:zoom="4.9166667"
     inkscape:cx="-15.661017"
     inkscape:cy="24"
     inkscape:current-layer="svg16" />
  <path
     style="opacity:0.2"
     d="m 24,5.0000007 c -0.01733,0 -0.03611,0.00286 -0.05344,0.00286 h -0.0058 C 17.461,5.0428578 11,11.684287 11,16.668572 V 33.147143 C 11,39.92 15.875,45 24,45 32.124999,45.0014 36.999999,39.922857 36.999999,33.15 V 17.122858 c 0,-5.18 -6.491333,-12.0757144 -12.999999,-12.117143 z"
     id="path2" />
  <path
     style="fill:#4c566a;fill-opacity:1"
     d="m 24,4.0001451 c -0.01733,0 -0.03611,0.00286 -0.05344,0.00286 h -0.0058 C 17.461,4.0430022 11,10.684431 11,15.668716 v 16.478571 c 0,6.772857 4.875,11.852857 13,11.852857 8.124999,0.0014 12.999999,-5.077143 12.999999,-11.85 V 16.123002 c 0,-5.18 -6.491333,-12.075714 -12.999999,-12.1171426 z"
     id="path4"
     inkscape:connector-curvature="0" />
  <path
     style="opacity:0.1"
     d="M 24 4 C 23.98267 4 23.964596 4.0019531 23.947266 4.0019531 L 23.941406 4.0019531 C 17.461646 4.0419502 11 10.683684 11 15.667969 L 11 24 L 37 24 L 37 16.123047 C 37 10.943047 30.508666 4.047288 24 4.0058594 L 24 4 z"
     id="path6" />
  <path
     style="opacity:0.1"
     d="m 24,4 c -0.01733,0 -0.0354,0.00195 -0.05273,0.00195 h -0.0059 C 17.461646,4.0419502 11,10.683684 11,15.667969 V 24 h 13 c 0,0 0,-20 0,-19.9941406 z"
     id="path8" />
  <path
     style="opacity:0.2"
     d="m 24,11.000499 c 1.102,0 2,0.960066 2,2.142977 v 5.714715 C 26,20.039936 25.102,21 24,21 22.898,21 22,20.039936 22,18.856524 V 13.141809 C 22,11.960064 22.898,11 24,11"
     id="path10" />
  <path
     style="fill:#e4e4e4"
     d="m 24,10.000499 c 1.102,0 2,0.960066 2,2.142977 v 5.714715 C 26,19.039936 25.102,20 24,20 22.898,20 22,19.039936 22,17.856524 V 12.141809 C 22,10.960064 22.898,10 24,10"
     id="path12" />
  <path
     style="fill:#ffffff;opacity:0.1"
     d="M 24 4 C 23.98267 4 23.964596 4.0019531 23.947266 4.0019531 L 23.941406 4.0019531 C 17.461646 4.0419502 11 10.683684 11 15.667969 L 11 16.667969 C 11 11.683684 17.461646 5.0419502 23.941406 5.0019531 L 23.947266 5.0019531 C 23.964596 5.0019531 23.98267 5 24 5 L 24 5.0058594 C 30.508666 5.047288 37 11.943047 37 17.123047 L 37 16.123047 C 37 10.943047 30.508666 4.047288 24 4.0058594 L 24 4 z"
     id="path14" />
</svg>
