<?xml version="1.0" encoding="UTF-8" standalone="no"?>
<svg
   xmlns:dc="http://purl.org/dc/elements/1.1/"
   xmlns:cc="http://creativecommons.org/ns#"
   xmlns:rdf="http://www.w3.org/1999/02/22-rdf-syntax-ns#"
   xmlns:svg="http://www.w3.org/2000/svg"
   xmlns="http://www.w3.org/2000/svg"
   xmlns:sodipodi="http://sodipodi.sourceforge.net/DTD/sodipodi-0.dtd"
   xmlns:inkscape="http://www.inkscape.org/namespaces/inkscape"
   width="48"
   height="48"
   version="1"
   id="svg16"
   sodipodi:docname="com.github.zren.presentwindows.svg"
   inkscape:version="0.92.5 (2060ec1f9f, 2020-04-08)">
  <metadata
     id="metadata22">
    <rdf:RDF>
      <cc:Work
         rdf:about="">
        <dc:format>image/svg+xml</dc:format>
        <dc:type
           rdf:resource="http://purl.org/dc/dcmitype/StillImage" />
      </cc:Work>
    </rdf:RDF>
  </metadata>
  <defs
     id="defs20" />
  <sodipodi:namedview
     pagecolor="#ffffff"
     bordercolor="#666666"
     borderopacity="1"
     objecttolerance="10"
     gridtolerance="10"
     guidetolerance="10"
     inkscape:pageopacity="0"
     inkscape:pageshadow="2"
     inkscape:window-width="640"
     inkscape:window-height="480"
     id="namedview18"
     showgrid="false"
     inkscape:zoom="4.9166667"
     inkscape:cx="24"
     inkscape:cy="24"
     inkscape:current-layer="svg16" />
  <path
     style="fill:#4c566a;fill-opacity:1"
     d="m 12,8.9 0,21.5 c 0,0.887 0.713,1.6 1.6,1.6 l 28.801,0 C 43.287,32 44,31.287 44,30.4 L 44,8.9 Z"
     id="path2" />
  <path
     style="fill:#5f697d;fill-opacity:1"
     d="M 13.6,4 C 12.713,4 12,4.7132 12,5.5996 L 12,9 44,9 44,5.5996 C 44,4.7132 43.287,4 42.4,4 Z"
     id="path4" />
  <path
     fill="#fff"
     opacity=".1"
     d="m44 6v-0.5c0-0.8864-0.707-1.5938-1.594-1.5938h-28.812c-0.887 0-1.594 0.7074-1.594 1.5938v0.5c0-0.8864 0.70735-1.5938 1.5938-1.5938h28.812c0.887 0 1.594 0.7074 1.594 1.5938z"
     id="path6" />
  <path
     opacity=".2"
     d="m12 30.4v1c0 0.887 0.713 1.6 1.6 1.6h28.801c0.886 0 1.599-0.713 1.599-1.6v-1c0 0.887-0.713 1.6-1.6 1.6h-28.8c-0.887 0-1.6-0.713-1.6-1.6z"
     id="path8" />
  <path
     style="fill:#4c566a;fill-opacity:1"
     d="M 4,20.9 4,42.4 C 4,43.287 4.7132,44 5.5996,44 l 28.801,0 c 0.886,0 1.599,-0.713 1.599,-1.6 l 0,-21.5 -32,0 z"
     id="path10" />
  <path
     style="fill:#5e687c;fill-opacity:1"
     d="M 5.5996,16 C 4.7132,16 4,16.713 4,17.6 l 0,3.4 32,0 0,-3.4 C 36,16.713 35.287,16 34.4,16 L 5.6,16 Z"
     id="path12" />
  <path
     opacity=".2"
     d="m4 42.4v1c0 0.887 0.7132 1.6 1.5996 1.6h28.8c0.887 0 1.6-0.713 1.6-1.6v-1c0 0.887-0.713 1.6-1.6 1.6h-28.8c-0.8868 0-1.6-0.713-1.6-1.6z"
     id="path14" />
</svg>
