<?xml version="1.0" encoding="UTF-8" standalone="no"?>
<svg
   xmlns:dc="http://purl.org/dc/elements/1.1/"
   xmlns:cc="http://creativecommons.org/ns#"
   xmlns:rdf="http://www.w3.org/1999/02/22-rdf-syntax-ns#"
   xmlns:svg="http://www.w3.org/2000/svg"
   xmlns="http://www.w3.org/2000/svg"
   xmlns:sodipodi="http://sodipodi.sourceforge.net/DTD/sodipodi-0.dtd"
   xmlns:inkscape="http://www.inkscape.org/namespaces/inkscape"
   width="48"
   height="48"
   version="1"
   id="svg20"
   sodipodi:docname="gnome-panel-launcher.svg"
   inkscape:version="0.92.5 (2060ec1f9f, 2020-04-08)">
  <metadata
     id="metadata26">
    <rdf:RDF>
      <cc:Work
         rdf:about="">
        <dc:format>image/svg+xml</dc:format>
        <dc:type
           rdf:resource="http://purl.org/dc/dcmitype/StillImage" />
      </cc:Work>
    </rdf:RDF>
  </metadata>
  <defs
     id="defs24" />
  <sodipodi:namedview
     pagecolor="#ffffff"
     bordercolor="#666666"
     borderopacity="1"
     objecttolerance="10"
     gridtolerance="10"
     guidetolerance="10"
     inkscape:pageopacity="0"
     inkscape:pageshadow="2"
     inkscape:window-width="640"
     inkscape:window-height="480"
     id="namedview22"
     showgrid="false"
     inkscape:zoom="9.8333333"
     inkscape:cx="24"
     inkscape:cy="24"
     inkscape:current-layer="svg20" />
  <rect
     width="40"
     height="40"
     x="4"
     y="3.9999998"
     rx="20"
     ry="20"
     id="rect2"
     style="fill:#4c566a;fill-opacity:1" />
  <path
     fill="#fff"
     opacity=".2"
     d="m24 4c-11.08 0-20 8.92-20 20 0 0.168-0.004 0.333 0 0.5 0.2644-10.846 9.088-19.5 20-19.5s19.736 8.654 20 19.5c0.004-0.167 0-0.332 0-0.5 0-11.08-8.92-20-20-20z"
     id="path4" />
  <g
     opacity=".2"
     transform="matrix(.99942 0 0 .99942 12 14)"
     id="g10">
    <g
       id="g8">
      <path
         d="m24.013 0.001s-3.601-0.101-7.2 1.7c-1.1 0.5-2.3 1.3-3.3 2.3-1.617 1.617-4.129 4.594-6.107 7h-4.393l-2 3 3.392 0.917c0.01 0.121 0.042 0.292 0.136 0.523l-0.527 1.159s-0.2 0.4 1.3 2c1.6 1.601 2.1 1.4 2.1 1.4l1.243-0.564c0.186 0.058 0.324 0.078 0.414 0.078l0.943 3.486 3-2v-4.527c2.423-1.959 5.396-4.421 7-5.973 1-1 1.8-2.2 2.399-3.3 1.699-3.599 1.6-7.199 1.6-7.199zm-7 9c-1.101 0-2-0.9-2-2 0-1.101 0.899-2 2-2 1.1 0 2 0.899 2 2 0 1.1-0.901 2-2 2zm-10.5 12c0.2 0.101 0.3 0.2 0.5 0.3-0.2 0.2-0.4 0.5-0.601 0.7-2.301 2.3-6.399 2-6.399 2s-0.3-4.101 2-6.399c0.2-0.201 0.5-0.399 0.7-0.601 0.1 0.2 0.199 0.3 0.3 0.5-1.5 1.899-1.3 4.8-1.3 4.8s2.899 0.2 4.8-1.3z"
         id="path6" />
    </g>
  </g>
  <g
     fill="#fff"
     transform="matrix(.99942 0 0 .99942 12 13)"
     id="g16">
    <g
       id="g14">
      <path
         d="m24.013 0.001s-3.601-0.101-7.2 1.7c-1.1 0.5-2.3 1.3-3.3 2.3-1.617 1.617-4.129 4.594-6.107 7h-4.393l-2 3 3.392 0.917c0.01 0.121 0.042 0.292 0.136 0.523l-0.527 1.159s-0.2 0.4 1.3 2c1.6 1.601 2.1 1.4 2.1 1.4l1.243-0.564c0.186 0.058 0.324 0.078 0.414 0.078l0.943 3.486 3-2v-4.527c2.423-1.959 5.396-4.421 7-5.973 1-1 1.8-2.2 2.399-3.3 1.699-3.599 1.6-7.199 1.6-7.199zm-7 9c-1.101 0-2-0.9-2-2 0-1.101 0.899-2 2-2 1.1 0 2 0.899 2 2 0 1.1-0.901 2-2 2zm-10.5 12c0.2 0.101 0.3 0.2 0.5 0.3-0.2 0.2-0.4 0.5-0.601 0.7-2.301 2.3-6.399 2-6.399 2s-0.3-4.101 2-6.399c0.2-0.201 0.5-0.399 0.7-0.601 0.1 0.2 0.199 0.3 0.3 0.5-1.5 1.899-1.3 4.8-1.3 4.8s2.899 0.2 4.8-1.3z"
         id="path12" />
    </g>
  </g>
  <path
     opacity=".2"
     d="m4.0117 24.5c-0.0041 0.167-0.0117 0.332-0.0117 0.5 0 11.08 8.92 20 20 20s20-8.92 20-20c0-0.168-0.008-0.333-0.012-0.5-0.264 10.846-9.076 19.5-19.988 19.5s-19.724-8.654-19.988-19.5z"
     id="path18" />
</svg>
