<?xml version="1.0" encoding="UTF-8" standalone="no"?>
<svg
   xmlns:dc="http://purl.org/dc/elements/1.1/"
   xmlns:cc="http://creativecommons.org/ns#"
   xmlns:rdf="http://www.w3.org/1999/02/22-rdf-syntax-ns#"
   xmlns:svg="http://www.w3.org/2000/svg"
   xmlns="http://www.w3.org/2000/svg"
   xmlns:sodipodi="http://sodipodi.sourceforge.net/DTD/sodipodi-0.dtd"
   xmlns:inkscape="http://www.inkscape.org/namespaces/inkscape"
   width="48"
   height="48"
   version="1"
   id="svg26"
   sodipodi:docname="xfce4-splash.svg"
   inkscape:version="0.92.5 (2060ec1f9f, 2020-04-08)">
  <metadata
     id="metadata32">
    <rdf:RDF>
      <cc:Work
         rdf:about="">
        <dc:format>image/svg+xml</dc:format>
        <dc:type
           rdf:resource="http://purl.org/dc/dcmitype/StillImage" />
      </cc:Work>
    </rdf:RDF>
  </metadata>
  <defs
     id="defs30" />
  <sodipodi:namedview
     pagecolor="#ffffff"
     bordercolor="#666666"
     borderopacity="1"
     objecttolerance="10"
     gridtolerance="10"
     guidetolerance="10"
     inkscape:pageopacity="0"
     inkscape:pageshadow="2"
     inkscape:window-width="783"
     inkscape:window-height="480"
     id="namedview28"
     showgrid="false"
     inkscape:zoom="4.9166667"
     inkscape:cx="-1.1186441"
     inkscape:cy="24"
     inkscape:window-x="0"
     inkscape:window-y="28"
     inkscape:window-maximized="0"
     inkscape:current-layer="svg26" />
  <path
     fill="#8a5ce7"
     d="m6 6c-1.108 0-2 0.892-2 2v32c0 1.108 0.892 2 2 2h36c1.108 0 2-0.892 2-2v-32c0-1.108-0.892-2-2-2h-36z"
     id="path2"
     style="fill:#4c566a;fill-opacity:1" />
  <path
     fill="#fff"
     style="opacity:0.1"
     d="m6 6c-1.108 0-2 0.892-2 2v2c0-1.108 0.892-3 2-3h36c1.108 0 2 1.892 2 3v-2c0-1.108-0.892-2-2-2z"
     id="path4" />
  <path
     opacity=".2"
     d="m4 40v1c0 1.108 0.892 2 2 2h36c1.108 0 2-0.892 2-2v-1c0 1.108-0.892 2-2 2h-36c-1.108 0-2-0.892-2-2z"
     id="path6" />
  <circle
     style="opacity:0.6;fill:#ffffff"
     cx="-24"
     cy="14"
     r="2"
     transform="scale(-1,1)"
     id="circle8" />
  <circle
     style="fill:#ffffff"
     cx="-24"
     cy="34"
     r="2"
     transform="scale(-1,1)"
     id="circle10" />
  <circle
     style="opacity:0.8;fill:#ffffff"
     cx="24"
     cy="14"
     r="2"
     transform="matrix(0,1,1,0,0,0)"
     id="circle12" />
  <circle
     style="opacity:0.4;fill:#ffffff"
     cx="24"
     cy="34"
     r="2"
     transform="matrix(0,1,1,0,0,0)"
     id="circle14" />
  <circle
     style="opacity:0.9;fill:#ffffff"
     cx="33.941"
     cy="-10"
     r="2"
     transform="matrix(0.70710678,0.70710678,0.70710678,-0.70710678,0,0)"
     id="circle16" />
  <circle
     style="opacity:0.5;fill:#ffffff"
     cx="33.941"
     cy="10"
     r="2"
     transform="matrix(0.70710678,0.70710678,0.70710678,-0.70710678,0,0)"
     id="circle18" />
  <circle
     style="opacity:0.3;fill:#ffffff"
     cx="0"
     cy="-43.941"
     r="2"
     transform="rotate(135)"
     id="circle20" />
  <circle
     style="opacity:0.7;fill:#ffffff"
     cx="0"
     cy="-23.941"
     r="2"
     transform="rotate(135)"
     id="circle22" />
  <path
     style="opacity:0.2"
     d="M 22.064453 14.496094 A 2 2 0 0 0 22 15 A 2 2 0 0 0 24 17 A 2 2 0 0 0 26 15 A 2 2 0 0 0 25.935547 14.503906 A 2 2 0 0 1 24 16 A 2 2 0 0 1 22.064453 14.496094 z M 18.863281 17.427734 A 2 2 0 0 1 18.34375 18.34375 A 2 2 0 0 1 15.515625 18.34375 A 2 2 0 0 1 14.996094 17.431641 A 2 2 0 0 0 15.515625 19.34375 A 2 2 0 0 0 18.34375 19.34375 A 2 2 0 0 0 18.863281 17.427734 z M 33.003906 17.427734 A 2 2 0 0 1 32.484375 18.34375 A 2 2 0 0 1 29.65625 18.34375 A 2 2 0 0 1 29.136719 17.431641 A 2 2 0 0 0 29.65625 19.34375 A 2 2 0 0 0 32.484375 19.34375 A 2 2 0 0 0 33.003906 17.427734 z M 12.064453 24.496094 A 2 2 0 0 0 12 25 A 2 2 0 0 0 14 27 A 2 2 0 0 0 16 25 A 2 2 0 0 0 15.935547 24.503906 A 2 2 0 0 1 14 26 A 2 2 0 0 1 12.064453 24.496094 z M 32.064453 24.496094 A 2 2 0 0 0 32 25 A 2 2 0 0 0 34 27 A 2 2 0 0 0 36 25 A 2 2 0 0 0 35.935547 24.503906 A 2 2 0 0 1 34 26 A 2 2 0 0 1 32.064453 24.496094 z M 18.863281 31.568359 A 2 2 0 0 1 18.34375 32.484375 A 2 2 0 0 1 15.515625 32.484375 A 2 2 0 0 1 14.996094 31.572266 A 2 2 0 0 0 15.515625 33.484375 A 2 2 0 0 0 18.34375 33.484375 A 2 2 0 0 0 18.863281 31.568359 z M 33.003906 31.568359 A 2 2 0 0 1 32.484375 32.484375 A 2 2 0 0 1 29.65625 32.484375 A 2 2 0 0 1 29.136719 31.572266 A 2 2 0 0 0 29.65625 33.484375 A 2 2 0 0 0 32.484375 33.484375 A 2 2 0 0 0 33.003906 31.568359 z M 22.064453 34.496094 A 2 2 0 0 0 22 35 A 2 2 0 0 0 24 37 A 2 2 0 0 0 26 35 A 2 2 0 0 0 25.935547 34.503906 A 2 2 0 0 1 24 36 A 2 2 0 0 1 22.064453 34.496094 z"
     id="path24" />
</svg>
