<?xml version="1.0" encoding="UTF-8" standalone="no"?>
<svg
   xmlns:dc="http://purl.org/dc/elements/1.1/"
   xmlns:cc="http://creativecommons.org/ns#"
   xmlns:rdf="http://www.w3.org/1999/02/22-rdf-syntax-ns#"
   xmlns:svg="http://www.w3.org/2000/svg"
   xmlns="http://www.w3.org/2000/svg"
   xmlns:sodipodi="http://sodipodi.sourceforge.net/DTD/sodipodi-0.dtd"
   xmlns:inkscape="http://www.inkscape.org/namespaces/inkscape"
   width="48"
   height="48"
   version="1.1"
   id="svg28"
   sodipodi:docname="preferences-ubuntu-panel.svg"
   inkscape:version="0.92.5 (2060ec1f9f, 2020-04-08)">
  <metadata
     id="metadata34">
    <rdf:RDF>
      <cc:Work
         rdf:about="">
        <dc:format>image/svg+xml</dc:format>
        <dc:type
           rdf:resource="http://purl.org/dc/dcmitype/StillImage" />
      </cc:Work>
    </rdf:RDF>
  </metadata>
  <defs
     id="defs32" />
  <sodipodi:namedview
     pagecolor="#ffffff"
     bordercolor="#666666"
     borderopacity="1"
     objecttolerance="10"
     gridtolerance="10"
     guidetolerance="10"
     inkscape:pageopacity="0"
     inkscape:pageshadow="2"
     inkscape:window-width="765"
     inkscape:window-height="480"
     id="namedview30"
     showgrid="false"
     inkscape:zoom="4.9166667"
     inkscape:cx="24"
     inkscape:cy="24"
     inkscape:window-x="0"
     inkscape:window-y="28"
     inkscape:window-maximized="0"
     inkscape:current-layer="svg28" />
  <path
     style="fill:#4c566a;fill-opacity:1"
     d="M 6 6 C 4.892 6 4 6.892 4 8 L 4 38 L 4 40 C 4 41.108 4.892 42 6 42 L 42 42 C 43.108 42 44 41.108 44 40 L 44 38 L 44 8 C 44 6.892 43.108 6 42 6 L 6 6 z"
     id="path2" />
  <path
     style="opacity:0.2"
     d="M 6 6 C 4.892 6 4 6.892 4 8 L 4 38 L 4 40 C 4 41.108 4.892 42 6 42 L 14 42 L 14 6 L 6 6 z"
     id="path4" />
  <path
     fill="#fff"
     opacity=".1"
     d="m6 6c-1.108 0-2 0.892-2 2v1c0-1.108 0.892-2 2-2h36c1.108 0 2 0.892 2 2v-1c0-1.108-0.892-2-2-2z"
     id="path6" />
  <g
     opacity=".2"
     transform="translate(2 -1002.4)"
     id="g16">
    <rect
       width="4"
       height="4"
       x="5"
       y="1012.4"
       rx=".5"
       ry=".5"
       id="rect8" />
    <rect
       width="4"
       height="4"
       x="5"
       y="1018.4"
       rx=".5"
       ry=".5"
       id="rect10" />
    <rect
       width="4"
       height="4"
       x="5"
       y="1024.4"
       rx=".5"
       ry=".5"
       id="rect12" />
    <rect
       width="4"
       height="4"
       x="5"
       y="1030.4"
       rx=".5"
       ry=".5"
       id="rect14" />
  </g>
  <rect
     fill="#fff"
     width="4"
     height="4"
     x="7"
     y="9"
     rx=".5"
     ry=".5"
     id="rect18" />
  <rect
     fill="#fff"
     width="4"
     height="4"
     x="7"
     y="15"
     rx=".5"
     ry=".5"
     id="rect20" />
  <rect
     fill="#fff"
     width="4"
     height="4"
     x="7"
     y="21"
     rx=".5"
     ry=".5"
     id="rect22" />
  <rect
     fill="#fff"
     width="4"
     height="4"
     x="7"
     y="27"
     rx=".5"
     ry=".5"
     id="rect24" />
  <path
     opacity=".2"
     d="m4 40v1c0 1.108 0.892 2 2 2h36c1.108 0 2-0.892 2-2v-1c0 1.108-0.892 2-2 2h-36c-1.108 0-2-0.892-2-2z"
     id="path26" />
</svg>
