<?xml version="1.0" encoding="UTF-8" standalone="no"?>
<svg
   xmlns:dc="http://purl.org/dc/elements/1.1/"
   xmlns:cc="http://creativecommons.org/ns#"
   xmlns:rdf="http://www.w3.org/1999/02/22-rdf-syntax-ns#"
   xmlns:svg="http://www.w3.org/2000/svg"
   xmlns="http://www.w3.org/2000/svg"
   xmlns:sodipodi="http://sodipodi.sourceforge.net/DTD/sodipodi-0.dtd"
   xmlns:inkscape="http://www.inkscape.org/namespaces/inkscape"
   width="48"
   height="48"
   version="1"
   id="svg20"
   sodipodi:docname="yadpush.svg"
   inkscape:version="0.92.5 (2060ec1f9f, 2020-04-08)">
  <metadata
     id="metadata26">
    <rdf:RDF>
      <cc:Work
         rdf:about="">
        <dc:format>image/svg+xml</dc:format>
        <dc:type
           rdf:resource="http://purl.org/dc/dcmitype/StillImage" />
      </cc:Work>
    </rdf:RDF>
  </metadata>
  <defs
     id="defs24" />
  <sodipodi:namedview
     pagecolor="#ffffff"
     bordercolor="#666666"
     borderopacity="1"
     objecttolerance="10"
     gridtolerance="10"
     guidetolerance="10"
     inkscape:pageopacity="0"
     inkscape:pageshadow="2"
     inkscape:window-width="783"
     inkscape:window-height="480"
     id="namedview22"
     showgrid="false"
     inkscape:zoom="4.9166667"
     inkscape:cx="-1.1186441"
     inkscape:cy="24"
     inkscape:window-x="0"
     inkscape:window-y="28"
     inkscape:window-maximized="0"
     inkscape:current-layer="svg20" />
  <rect
     fill="#4ab367"
     width="40"
     height="40"
     x="4"
     y="4"
     rx="20"
     ry="20"
     id="rect2"
     style="fill:#4c566a;fill-opacity:1" />
  <path
     fill="#fff"
     opacity=".2"
     d="m24 4c-11.08 0-20 8.92-20 20 0 0.168-0.004 0.333 0 0.5 0.2644-10.846 9.088-19.5 20-19.5s19.736 8.654 20 19.5c0.004-0.167 0-0.332 0-0.5 0-11.08-8.92-20-20-20z"
     id="path4" />
  <path
     opacity=".2"
     d="m4.0117 24.5c-0.0041 0.167-0.0117 0.332-0.0117 0.5 0 11.08 8.92 20 20 20s20-8.92 20-20c0-0.168-0.008-0.333-0.012-0.5-0.264 10.846-9.076 19.5-19.988 19.5s-19.724-8.654-19.988-19.5z"
     id="path6" />
  <g
     opacity=".2"
     transform="translate(0 .99996)"
     id="g12">
    <path
       d="m12 16h4c0.551 0 1 0.396 1 0.886v14.225c0 0.49-0.449 0.889-1 0.889h-4c-0.551 0-1-0.399-1-0.889v-14.225c0-0.49 0.449-0.886 1-0.886"
       id="path8" />
    <path
       d="m19.944 16c-0.522 0-0.944 0.396-0.944 0.885v14.222c0 0.48978 0.42167 0.88889 0.94378 0.88889 2.8427 0 5.6835 0.0036 8.5281 0.0036 4.709 0.001 8.528-3.581 8.528-7.999 0-4.4178-3.8187-8-8.5281-8h-8.5281z"
       id="path10" />
  </g>
  <g
     fill="#f9f9f9"
     transform="translate(0,-2.2e-5)"
     id="g18">
    <path
       d="m12 16h4c0.551 0 1 0.396 1 0.886v14.225c0 0.49-0.449 0.889-1 0.889h-4c-0.551 0-1-0.399-1-0.889v-14.225c0-0.49 0.449-0.886 1-0.886"
       id="path14" />
    <path
       d="m19.944 16c-0.522 0-0.944 0.396-0.944 0.885v14.222c0 0.48978 0.42167 0.88889 0.94378 0.88889 2.8427 0 5.6835 0.0036 8.5281 0.0036 4.709 0.001 8.528-3.581 8.528-7.999 0-4.4178-3.8187-8-8.5281-8h-8.5281z"
       id="path16" />
  </g>
</svg>
