<?xml version="1.0" encoding="UTF-8" standalone="no"?>
<svg
   xmlns:dc="http://purl.org/dc/elements/1.1/"
   xmlns:cc="http://creativecommons.org/ns#"
   xmlns:rdf="http://www.w3.org/1999/02/22-rdf-syntax-ns#"
   xmlns:svg="http://www.w3.org/2000/svg"
   xmlns="http://www.w3.org/2000/svg"
   xmlns:sodipodi="http://sodipodi.sourceforge.net/DTD/sodipodi-0.dtd"
   xmlns:inkscape="http://www.inkscape.org/namespaces/inkscape"
   width="48"
   height="48"
   version="1"
   id="svg14"
   sodipodi:docname="appimagekit-qnapi.svg"
   inkscape:version="0.92.5 (2060ec1f9f, 2020-04-08)">
  <metadata
     id="metadata20">
    <rdf:RDF>
      <cc:Work
         rdf:about="">
        <dc:format>image/svg+xml</dc:format>
        <dc:type
           rdf:resource="http://purl.org/dc/dcmitype/StillImage" />
      </cc:Work>
    </rdf:RDF>
  </metadata>
  <defs
     id="defs18" />
  <sodipodi:namedview
     pagecolor="#ffffff"
     bordercolor="#666666"
     borderopacity="1"
     objecttolerance="10"
     gridtolerance="10"
     guidetolerance="10"
     inkscape:pageopacity="0"
     inkscape:pageshadow="2"
     inkscape:window-width="783"
     inkscape:window-height="480"
     id="namedview16"
     showgrid="false"
     inkscape:zoom="4.9166667"
     inkscape:cx="24"
     inkscape:cy="24"
     inkscape:window-x="0"
     inkscape:window-y="28"
     inkscape:window-maximized="0"
     inkscape:current-layer="svg14" />
  <rect
     style="opacity:0.2"
     width="40"
     height="40"
     x="4"
     y="5"
     rx="12"
     ry="12"
     id="rect2" />
  <rect
     style="fill:#4c566a;fill-opacity:1"
     width="40"
     height="40"
     x="4"
     y="4"
     rx="12"
     ry="12"
     id="rect4" />
  <path
     style="opacity:0.1"
     d="m 24,11.00025 a 14,14 0 0 0 -14,14 14,14 0 0 0 14,14 14,14 0 0 0 7.228516,-2.029297 c 0.976757,1.090579 1.85296,2.243439 2.548828,3.373047 l 3.404297,-2.099609 c -0.80644,-1.309103 -1.776579,-2.596757 -2.853516,-3.814453 A 14,14 0 0 0 38,25.00025 a 14,14 0 0 0 -14,-14 z m 0,5 a 8,9 0 0 1 8,9 8,9 0 0 1 -1.755859,5.613281 c -0.05913,-0.04508 -0.116397,-0.09419 -0.175782,-0.138672 -2.814857,-2.108437 -5.927324,-3.631269 -9.121093,-3.382812 l 0.310546,3.986328 c 1.463365,-0.113841 3.663084,0.692381 5.851563,2.205078 A 8,9 0 0 1 24,34.00025 a 8,9 0 0 1 -8,-9 8,9 0 0 1 8,-9 z"
     id="path6" />
  <path
     style="fill:#ffffff;fill-opacity:1"
     d="M 24 10 A 14 14 0 0 0 10 24 A 14 14 0 0 0 24 38 A 14 14 0 0 0 38 24 A 14 14 0 0 0 24 10 z M 24 15 A 8 9 0 0 1 32 24 A 8 9 0 0 1 24 33 A 8 9 0 0 1 16 24 A 8 9 0 0 1 24 15 z"
     id="path8" />
  <path
     style="fill:#ffffff;opacity:0.2"
     d="M 16 4 C 9.352 4 4 9.352 4 16 L 4 17 C 4 10.352 9.352 5 16 5 L 32 5 C 38.648 5 44 10.352 44 17 L 44 16 C 44 9.352 38.648 4 32 4 L 16 4 z"
     id="path10" />
  <path
     style="fill:none;stroke:#ffffff;stroke-width:4;stroke-opacity:1"
     d="m 21.103327,28.084828 c 4.782002,-0.372012 11.133174,4.944518 14.376342,10.209186"
     id="path12" />
</svg>
