<?xml version="1.0" encoding="UTF-8" standalone="no"?>
<svg
   xmlns:dc="http://purl.org/dc/elements/1.1/"
   xmlns:cc="http://creativecommons.org/ns#"
   xmlns:rdf="http://www.w3.org/1999/02/22-rdf-syntax-ns#"
   xmlns:svg="http://www.w3.org/2000/svg"
   xmlns="http://www.w3.org/2000/svg"
   xmlns:sodipodi="http://sodipodi.sourceforge.net/DTD/sodipodi-0.dtd"
   xmlns:inkscape="http://www.inkscape.org/namespaces/inkscape"
   width="48"
   height="48"
   version="1"
   id="svg10"
   sodipodi:docname="qtqr.svg"
   inkscape:version="0.92.5 (2060ec1f9f, 2020-04-08)">
  <metadata
     id="metadata16">
    <rdf:RDF>
      <cc:Work
         rdf:about="">
        <dc:format>image/svg+xml</dc:format>
        <dc:type
           rdf:resource="http://purl.org/dc/dcmitype/StillImage" />
      </cc:Work>
    </rdf:RDF>
  </metadata>
  <defs
     id="defs14" />
  <sodipodi:namedview
     pagecolor="#ffffff"
     bordercolor="#666666"
     borderopacity="1"
     objecttolerance="10"
     gridtolerance="10"
     guidetolerance="10"
     inkscape:pageopacity="0"
     inkscape:pageshadow="2"
     inkscape:window-width="783"
     inkscape:window-height="480"
     id="namedview12"
     showgrid="false"
     inkscape:zoom="4.9166667"
     inkscape:cx="17.045102"
     inkscape:cy="30.937149"
     inkscape:window-x="0"
     inkscape:window-y="28"
     inkscape:window-maximized="0"
     inkscape:current-layer="svg10" />
  <rect
     fill="#c2352a"
     width="40"
     height="40"
     x="4"
     y="4"
     rx="2"
     ry="2"
     id="rect2"
     style="fill:#4c566a;fill-opacity:1" />
  <path
     fill="#fff"
     opacity=".2"
     d="m6 4c-1.108 0-2 0.892-2 2v1c0-1.108 0.892-2 2-2h36c1.108 0 2 0.892 2 2v-1c0-1.108-0.892-2-2-2h-36z"
     id="path4" />
  <path
     opacity=".2"
     d="m6 45c-1.108 0-2-0.892-2-2v-1c0 1.108 0.892 2 2 2h36c1.108 0 2-0.892 2-2v1c0 1.108-0.892 2-2 2h-36z"
     id="path6" />
  <path
     style="opacity:1;fill:#f3f4f7;fill-opacity:1;"
     d="M 40,8 V 20 H 28 V 8 Z M 24,8 v 2 H 22 V 8 Z m 0,2 h 2 v 4 h -2 v 2 h -2 v -4 h 2 z m 0,6 h 2 v 4 h -2 z m 0,4 v 2 h -2 v -2 z m -2,2 v 4 h -4 v -2 h 2 v -2 z m -4,2 h -4 v -2 h 4 z m -4,0 v 2 H 8 v -4 h 4 v 2 z m 8,2 h 4 v 4 h -2 v -2 h -2 z m 4,4 h 2 v 2 h -2 z m 0,2 v 2 2 h -2 v -2 h -2 v -2 z m -2,4 v 4 h -2 v -4 z m 2,0 h 4 v 4 h -4 z m 4,0 v -2 h 2 v 2 z m 2,0 h 2 v 4 h -2 z m 0,-2 v -2 h 4 v 2 z m 4,0 h 2 v 2 h 2 v 2 h -2 v 2 h -2 z m -6,0 h -2 v -2 h 2 z m -2,-4 v -2 h 2 v 2 z m 2,-2 v -2 h 4 v 4 h -2 v -2 z m 0,-2 h -4 v -2 h 2 v -2 h 2 z m -4,-2 h -2 v -2 h 2 z M 20,8 V 20 H 8 V 8 Z m 18,2 h -8 v 8 h 8 z m -20,0 h -8 v 8 h 8 z m 18,2 v 4 h -4 v -4 z m -20,0 v 4 h -4 v -4 z m 22,10 v 2 h 2 v 2 h -4 v -2 h -4 v -2 h 4 z m 2,6 v 4 h -2 v -2 h -2 v -2 h 2 z M 20,28 V 40 H 8 V 28 Z m -2,2 h -8 v 8 h 8 z m -2,2 v 4 h -4 v -4 z"
     id="path8" />
</svg>
