<?xml version="1.0" encoding="UTF-8" standalone="no"?>
<svg
   xmlns:dc="http://purl.org/dc/elements/1.1/"
   xmlns:cc="http://creativecommons.org/ns#"
   xmlns:rdf="http://www.w3.org/1999/02/22-rdf-syntax-ns#"
   xmlns:svg="http://www.w3.org/2000/svg"
   xmlns="http://www.w3.org/2000/svg"
   xmlns:sodipodi="http://sodipodi.sourceforge.net/DTD/sodipodi-0.dtd"
   xmlns:inkscape="http://www.inkscape.org/namespaces/inkscape"
   width="48"
   height="48"
   version="1.1"
   id="svg32"
   sodipodi:docname="appimagekit-qv2ray.svg"
   inkscape:version="0.92.5 (2060ec1f9f, 2020-04-08)">
  <metadata
     id="metadata38">
    <rdf:RDF>
      <cc:Work
         rdf:about="">
        <dc:format>image/svg+xml</dc:format>
        <dc:type
           rdf:resource="http://purl.org/dc/dcmitype/StillImage" />
      </cc:Work>
    </rdf:RDF>
  </metadata>
  <defs
     id="defs36" />
  <sodipodi:namedview
     pagecolor="#ffffff"
     bordercolor="#666666"
     borderopacity="1"
     objecttolerance="10"
     gridtolerance="10"
     guidetolerance="10"
     inkscape:pageopacity="0"
     inkscape:pageshadow="2"
     inkscape:window-width="783"
     inkscape:window-height="480"
     id="namedview34"
     showgrid="false"
     inkscape:zoom="13.906433"
     inkscape:cx="20.459153"
     inkscape:cy="28.411949"
     inkscape:window-x="0"
     inkscape:window-y="28"
     inkscape:window-maximized="0"
     inkscape:current-layer="svg32" />
  <rect
     x="4"
     y="5"
     width="40"
     height="40"
     rx="2"
     ry="2"
     style="opacity:.2"
     id="rect2" />
  <rect
     x="4"
     y="4"
     width="40"
     height="40"
     rx="2"
     ry="2"
     style="fill:#4c566a;fill-opacity:1"
     id="rect4" />
  <path
     d="M 12 15 C 10 15 8 17 8 19 C 8 21 8.8214888 23 10 23 C 11.815234 21.184766 12.912627 20.19778 14.267578 19.65625 C 12.758502 21.984922 12 25 12 25 C 12 25 13.527681 23.476391 17.910156 23.089844 L 16 25 C 16 25 16.733276 25.158028 17.947266 25.548828 C 17.808951 26.664346 17.163624 29.418188 14 31 C 17.902448 31 21.773797 29.31787 24.025391 28.134766 C 27.50782 29.955353 31.749814 32.749814 36 37 L 31.261719 25.941406 C 35.626795 27.856272 39 30 39 30 C 39 30 31.934444 22.945663 25.015625 19.232422 C 31.082664 19.993389 39 22.5 39 22.5 C 39 22.5 27 15 12 15 z "
     style="opacity:.1"
     id="path6" />
  <path
     d="m18 24s0 4-4 6c6 0 12-4 12-4z"
     style="fill:#ffffff;fill-opacity:1"
     id="path8" />
  <path
     d="m 18,24 c 0,0 0,4 -4,6 0.544508,0 1.084976,-0.0651 1.625,-0.125 C 17.966483,27.789082 18,25 18,25 l 6.8125,1.703124 C 25.540154,26.291902 26,26 26,26 Z"
     style="fill:#ffffff;opacity:.1"
     id="path10" />
  <path
     d="m18 24s-0.007865 0.617757-0.246094 1.480469c1.238236 0.390595 3.074851 1.070454 5.271485 2.148437 1.789909-0.859783 2.974609-1.628906 2.974609-1.628906l-8-2z"
     style="opacity:.2"
     id="path12" />
  <path
     d="m16 24s10 2 20 12l-6-14h-12z"
     style="fill:#ffffff;fill-opacity:1"
     id="path14" />
  <path
     d="m18 22-2 2s0.539088 0.1537 0.785156 0.214844l1.214844-1.214844h12l5.277344 12.3125c0.241172 0.23208 0.481344 0.446188 0.722656 0.6875l-6-14z"
     style="fill:#ffffff;opacity:.2"
     id="path16" />
  <path
     d="m18 22-1.240234 1.240234c0.927335-0.139996 1.976896-0.240234 3.240234-0.240234 3.755491 0 8.1616 1.544752 11.791016 3.181641l-1.546875-3.613282c-0.263492-0.191908-0.52829-0.379353-0.796875-0.568359h-11.447266z"
     style="opacity:.2"
     id="path18" />
  <path
     d="m12 24s2-8 6-8c8 0 21 13 21 13s-11-7-19-7c-6 0-8 2-8 2z"
     style="fill:#ffffff;fill-opacity:1"
     id="path20" />
  <path
     d="m 18,16 c -4,0 -6,8 -6,8 0,0 0.129302,-0.125706 0.394531,-0.304688 C 13.155059,21.429915 15.021281,17 18,17 23.704056,17 31.87738,23.558132 36.140624,27.351562 37.854202,28.287834 39,29 39,29 39,29 26,16 18,16 Z"
     style="fill:#ffffff;opacity:.2"
     id="path22" />
  <path
     d="M 18 16 C 15.988597 16 14.484342 18.021865 13.484375 20.033203 C 15.292582 19.004311 17.230225 19 22 19 C 23.527999 19 25.380682 19.229989 27.292969 19.568359 C 24.090868 17.550554 20.751507 16 18 16 z "
     style="opacity:.2"
     id="path24" />
  <path
     d="m10 22c-1.1785112 0-2-2-2-4s2-4 4-4c15 0 27 7.5 27 7.5s-11-3.5-17-3.5c-7.5 0-8 0-12 4z"
     style="fill:#ffffff;fill-opacity:1"
     id="path26" />
  <path
     d="m6 4c-1.108 0-2 0.892-2 2v1c0-1.108 0.892-2 2-2h36c1.108 0 2 0.892 2 2v-1c0-1.108-0.892-2-2-2z"
     style="fill:#ffffff;opacity:.1"
     id="path28" />
  <path
     d="m 12,14 c -2,0 -4,2 -4,4 0,0.184834 0.041022,0.359713 0.054688,0.542969 C 8.3266682,16.706923 10.153128,15 12,15 21.643883,15 29.997566,18.082907 34.769532,20.296875 37.129536,20.93779 39,21.5 39,21.5 39,21.5 27,14 12,14 Z"
     style="fill:#ffffff;opacity:.2"
     id="path30" />
</svg>
