<?xml version="1.0" encoding="UTF-8" standalone="no"?>
<svg
   xmlns:dc="http://purl.org/dc/elements/1.1/"
   xmlns:cc="http://creativecommons.org/ns#"
   xmlns:rdf="http://www.w3.org/1999/02/22-rdf-syntax-ns#"
   xmlns:svg="http://www.w3.org/2000/svg"
   xmlns="http://www.w3.org/2000/svg"
   xmlns:sodipodi="http://sodipodi.sourceforge.net/DTD/sodipodi-0.dtd"
   xmlns:inkscape="http://www.inkscape.org/namespaces/inkscape"
   width="48"
   height="48"
   version="1.1"
   id="svg12"
   sodipodi:docname="rancher-desktop.svg"
   inkscape:version="0.92.5 (2060ec1f9f, 2020-04-08)">
  <metadata
     id="metadata18">
    <rdf:RDF>
      <cc:Work
         rdf:about="">
        <dc:format>image/svg+xml</dc:format>
        <dc:type
           rdf:resource="http://purl.org/dc/dcmitype/StillImage" />
      </cc:Work>
    </rdf:RDF>
  </metadata>
  <defs
     id="defs16" />
  <sodipodi:namedview
     pagecolor="#ffffff"
     bordercolor="#666666"
     borderopacity="1"
     objecttolerance="10"
     gridtolerance="10"
     guidetolerance="10"
     inkscape:pageopacity="0"
     inkscape:pageshadow="2"
     inkscape:window-width="783"
     inkscape:window-height="480"
     id="namedview14"
     showgrid="false"
     inkscape:zoom="4.9166667"
     inkscape:cx="24"
     inkscape:cy="24"
     inkscape:window-x="0"
     inkscape:window-y="28"
     inkscape:window-maximized="0"
     inkscape:current-layer="svg12" />
  <rect
     style="opacity:0.2"
     width="40"
     height="34"
     x="4"
     y="8"
     rx="4"
     id="rect2" />
  <rect
     style="fill:#4c566a;fill-opacity:1"
     width="40"
     height="34"
     x="4"
     y="7"
     rx="4"
     id="rect4" />
  <path
     style="opacity:0.2"
     d="m 8,16 v 3.113281 C 8,21.267053 9.7329465,23 11.886719,23 H 14 V 20 H 11.886719 C 11.343055,20 11,19.656945 11,19.113281 V 16 Z m 11.886719,0 C 17.732947,16 16,17.732947 16,19.886719 V 26 29 H 32 V 26 19.886719 C 32,17.732947 30.267053,16 28.113281,16 Z M 37,16 v 3.113281 C 37,19.656945 36.656945,20 36.113281,20 H 34 v 3 h 2.113281 C 38.267053,23 40,21.267053 40,19.113281 V 16 Z m -17.113281,3 h 8.226562 C 28.656945,19 29,19.343055 29,19.886719 V 26 H 19 V 19.886719 C 19,19.343055 19.343055,19 19.886719,19 Z M 12,31 v 3 h 24 v -3 z"
     id="path6" />
  <path
     style="fill:#ffffff"
     d="m 8,15 v 3.113281 C 8,20.267053 9.7329465,22 11.886719,22 H 14 V 19 H 11.886719 C 11.343055,19 11,18.656945 11,18.113281 V 15 Z m 11.886719,0 C 17.732947,15 16,16.732947 16,18.886719 V 25 28 H 32 V 25 18.886719 C 32,16.732947 30.267053,15 28.113281,15 Z M 37,15 v 3.113281 C 37,18.656945 36.656945,19 36.113281,19 H 34 v 3 h 2.113281 C 38.267053,22 40,20.267053 40,18.113281 V 15 Z m -17.113281,3 h 8.226562 C 28.656945,18 29,18.343055 29,18.886719 V 25 H 19 V 18.886719 C 19,18.343055 19.343055,18 19.886719,18 Z M 12,30 v 3 h 24 v -3 z"
     id="path8" />
  <path
     style="opacity:0.2;fill:#ffffff"
     d="M 8 7 C 5.784 7 4 8.784 4 11 L 4 12 C 4 9.784 5.784 8 8 8 L 40 8 C 42.216 8 44 9.784 44 12 L 44 11 C 44 8.784 42.216 7 40 7 L 8 7 z"
     id="path10" />
</svg>
