<?xml version="1.0" encoding="UTF-8" standalone="no"?>
<svg
   xmlns:dc="http://purl.org/dc/elements/1.1/"
   xmlns:cc="http://creativecommons.org/ns#"
   xmlns:rdf="http://www.w3.org/1999/02/22-rdf-syntax-ns#"
   xmlns:svg="http://www.w3.org/2000/svg"
   xmlns="http://www.w3.org/2000/svg"
   xmlns:sodipodi="http://sodipodi.sourceforge.net/DTD/sodipodi-0.dtd"
   xmlns:inkscape="http://www.inkscape.org/namespaces/inkscape"
   width="48"
   height="48"
   version="1"
   id="svg14"
   sodipodi:docname="Ri-li.svg"
   inkscape:version="0.92.5 (2060ec1f9f, 2020-04-08)">
  <metadata
     id="metadata20">
    <rdf:RDF>
      <cc:Work
         rdf:about="">
        <dc:format>image/svg+xml</dc:format>
        <dc:type
           rdf:resource="http://purl.org/dc/dcmitype/StillImage" />
      </cc:Work>
    </rdf:RDF>
  </metadata>
  <defs
     id="defs18" />
  <sodipodi:namedview
     pagecolor="#ffffff"
     bordercolor="#666666"
     borderopacity="1"
     objecttolerance="10"
     gridtolerance="10"
     guidetolerance="10"
     inkscape:pageopacity="0"
     inkscape:pageshadow="2"
     inkscape:window-width="765"
     inkscape:window-height="480"
     id="namedview16"
     showgrid="false"
     inkscape:zoom="9.8333333"
     inkscape:cx="25.647986"
     inkscape:cy="16.759946"
     inkscape:window-x="0"
     inkscape:window-y="28"
     inkscape:window-maximized="0"
     inkscape:current-layer="svg14" />
  <rect
     style="fill:#4c566a;fill-opacity:1"
     width="40"
     height="40"
     x="4"
     y="4"
     rx="2"
     ry="2"
     id="rect2" />
  <path
     fill="#fff"
     opacity=".2"
     d="m6 4c-1.108 0-2 0.892-2 2v1c0-1.108 0.892-2 2-2h36c1.108 0 2 0.892 2 2v-1c0-1.108-0.892-2-2-2h-36z"
     id="path4" />
  <path
     opacity=".2"
     d="m6 45c-1.108 0-2-0.892-2-2v-1c0 1.108 0.892 2 2 2h36c1.108 0 2-0.892 2-2v1c0 1.108-0.892 2-2 2h-36z"
     id="path6" />
  <path
     style="opacity:0.2"
     d="M 12.427734,17 C 11.126853,17 10,18.105151 10,19.423828 v 9.152344 C 10,29.894849 11.126853,31 12.427734,31 H 24 v 14 h 4 V 29 A 2.0002,2.0002 0 0 0 26,27 H 14 V 21 H 34 V 23.427734 28.576172 45 h 4 V 28.576172 23.427734 19.423828 C 38,18.105151 36.873147,17 35.572266,17 Z"
     id="path8" />
  <path
     style="fill:#ffffff;fill-opacity:1"
     d="M 12.427734 16 C 11.126853 16 10 17.105151 10 18.423828 L 10 27.576172 C 10 28.894849 11.126853 30 12.427734 30 L 24 30 L 24 44 L 28 44 L 28 28 A 2.0002 2.0002 0 0 0 26 26 L 14 26 L 14 20 L 34 20 L 34 22.427734 L 34 27.576172 L 34 44 L 38 44 L 38 27.576172 L 38 22.427734 L 38 18.423828 C 38 17.105151 36.873147 16 35.572266 16 L 12.427734 16 z"
     id="path10" />
  <path
     style="opacity:0.2;fill:#ffffff"
     d="M 12.427734 16 C 11.126853 16 10 17.105151 10 18.423828 L 10 19.423828 C 10 18.105151 11.126853 17 12.427734 17 L 35.572266 17 C 36.873147 17 38 18.105151 38 19.423828 L 38 18.423828 C 38 17.105151 36.873147 16 35.572266 16 L 12.427734 16 z M 14 26 L 14 27 L 26 27 A 2.0002 2.0002 0 0 1 28 29 L 28 28 A 2.0002 2.0002 0 0 0 26 26 L 14 26 z"
     id="path12" />
</svg>
