<?xml version="1.0" encoding="UTF-8" standalone="no"?>
<svg
   xmlns:dc="http://purl.org/dc/elements/1.1/"
   xmlns:cc="http://creativecommons.org/ns#"
   xmlns:rdf="http://www.w3.org/1999/02/22-rdf-syntax-ns#"
   xmlns:svg="http://www.w3.org/2000/svg"
   xmlns="http://www.w3.org/2000/svg"
   xmlns:sodipodi="http://sodipodi.sourceforge.net/DTD/sodipodi-0.dtd"
   xmlns:inkscape="http://www.inkscape.org/namespaces/inkscape"
   height="48"
   width="48"
   version="1.1"
   id="svg14"
   sodipodi:docname="rogue-legacy.svg"
   inkscape:version="0.92.5 (2060ec1f9f, 2020-04-08)">
  <metadata
     id="metadata20">
    <rdf:RDF>
      <cc:Work
         rdf:about="">
        <dc:format>image/svg+xml</dc:format>
        <dc:type
           rdf:resource="http://purl.org/dc/dcmitype/StillImage" />
      </cc:Work>
    </rdf:RDF>
  </metadata>
  <defs
     id="defs18" />
  <sodipodi:namedview
     pagecolor="#ffffff"
     bordercolor="#666666"
     borderopacity="1"
     objecttolerance="10"
     gridtolerance="10"
     guidetolerance="10"
     inkscape:pageopacity="0"
     inkscape:pageshadow="2"
     inkscape:window-width="765"
     inkscape:window-height="480"
     id="namedview16"
     showgrid="false"
     inkscape:zoom="4.9166667"
     inkscape:cx="24"
     inkscape:cy="24"
     inkscape:window-x="0"
     inkscape:window-y="28"
     inkscape:window-maximized="0"
     inkscape:current-layer="svg14" />
  <path
     d="m30 15v-6s-1-4-6-4-16 13.999999-16 13.999999l6-1.999999s-2 8-10 8c0 2 6 2 6 2s20-4 20-12z"
     style="opacity:.2"
     id="path2" />
  <path
     d="m31 14c1-4 1.203031-5.1394098 0-7s-2-3-7-3-16 13.999999-16 13.999999l6-1.999999s-2 8-10 8c0 2 6 2 6 2s19.059715-4.23886 21-12z"
     style="fill:#ffffff;fill-opacity:1"
     id="path4" />
  <path
     style="opacity:.2;fill:#ffffff"
     d="m24 4c-5 0-16 14-16 14l1.1308594-0.376953c2.5623746-3.128432 10.655913-12.623047 14.869141-12.623047 5 0 5.796969 1.1394098 7 3 0.465446 0.7198523 0.717094 1.335494 0.796875 2.046875 0.092049-1.1944831-0.13128-2.0174753-0.796875-3.046875-1.203031-1.8605902-2-3-7-3zm-10 13l-0.392578 0.130859c-0.883186 2.195104-3.475684 6.869141-9.607422 6.869141 0 0.393408 0.2383509 0.707078 0.6113281 0.960938 7.4768229-0.405072 9.3886719-7.960938 9.3886719-7.960938z"
     id="path6" />
  <path
     style="opacity:.2"
     d="m30 13c-14 0-16 10-16 10v16c0 6 8 6 8 6h8v-10h-8v-8h8l2 4 2-4h8v8h-8v10s10 0 10-6v-16s-2-10-14-10z"
     id="path8" />
  <path
     style="fill:#4c566a;fill-opacity:1"
     d="m30 12c-14 0-16 10-16 10v16c0 6 8 6 8 6h8v-10h-8v-8h8l2 4 2-4h8v8h-8v10s10 0 10-6v-16s-2-10-14-10z"
     id="path10" />
  <path
     style="opacity:.2;fill:#ffffff"
     d="m30 12c-14 0-16 10-16 10v1s2-10 16-10c12 0 14 10 14 10v-1s-2-10-14-10zm-8 22v1h8v-1zm12 0v1h8v-1z"
     id="path12" />
</svg>
