<?xml version="1.0" encoding="UTF-8" standalone="no"?>
<svg
   xmlns:dc="http://purl.org/dc/elements/1.1/"
   xmlns:cc="http://creativecommons.org/ns#"
   xmlns:rdf="http://www.w3.org/1999/02/22-rdf-syntax-ns#"
   xmlns:svg="http://www.w3.org/2000/svg"
   xmlns="http://www.w3.org/2000/svg"
   xmlns:sodipodi="http://sodipodi.sourceforge.net/DTD/sodipodi-0.dtd"
   xmlns:inkscape="http://www.inkscape.org/namespaces/inkscape"
   width="48"
   height="48"
   version="1"
   id="svg12"
   sodipodi:docname="appimagekit-rpcs3.svg"
   inkscape:version="0.92.5 (2060ec1f9f, 2020-04-08)">
  <metadata
     id="metadata18">
    <rdf:RDF>
      <cc:Work
         rdf:about="">
        <dc:format>image/svg+xml</dc:format>
        <dc:type
           rdf:resource="http://purl.org/dc/dcmitype/StillImage" />
      </cc:Work>
    </rdf:RDF>
  </metadata>
  <defs
     id="defs16" />
  <sodipodi:namedview
     pagecolor="#ffffff"
     bordercolor="#666666"
     borderopacity="1"
     objecttolerance="10"
     gridtolerance="10"
     guidetolerance="10"
     inkscape:pageopacity="0"
     inkscape:pageshadow="2"
     inkscape:window-width="783"
     inkscape:window-height="480"
     id="namedview14"
     showgrid="false"
     inkscape:zoom="4.9166667"
     inkscape:cx="24"
     inkscape:cy="24"
     inkscape:window-x="0"
     inkscape:window-y="28"
     inkscape:window-maximized="0"
     inkscape:current-layer="svg12" />
  <rect
     style="opacity:0.2"
     width="40"
     height="40"
     x="4"
     y="5"
     rx="6"
     ry="6"
     id="rect2" />
  <rect
     style="fill:#4c566a;fill-opacity:1"
     width="40"
     height="40"
     x="4"
     y="4"
     rx="6"
     ry="6"
     id="rect4" />
  <path
     style="opacity:0.2;fill:none;stroke:#000000;stroke-width:4;stroke-linejoin:round"
     d="m 9,25 h 25.146341 c 0,0 2.853659,0 2.853659,4 0,4 -2.781923,4 -2.781923,4 H 9 M 9,17 h 25.146341 c 0,0 2.853659,0 2.853659,4 0,4 -2.781923,4 -2.781923,4 H 9"
     id="path6" />
  <path
     style="fill:none;stroke:#ffffff;stroke-width:4;stroke-linejoin:round"
     d="m 9,24 h 25.146341 c 0,0 2.853659,0 2.853659,4 0,4 -2.781923,4 -2.781923,4 H 9 M 9,16 h 25.146341 c 0,0 2.853659,0 2.853659,4 0,4 -2.781923,4 -2.781923,4 H 9"
     id="path8" />
  <path
     style="fill:#ffffff;opacity:0.1"
     d="M 10 4 C 6.676 4 4 6.676 4 10 L 4 11 C 4 7.676 6.676 5 10 5 L 38 5 C 41.324 5 44 7.676 44 11 L 44 10 C 44 6.676 41.324 4 38 4 L 10 4 z"
     id="path10" />
</svg>
