<?xml version="1.0" encoding="UTF-8" standalone="no"?>
<svg
   xmlns:dc="http://purl.org/dc/elements/1.1/"
   xmlns:cc="http://creativecommons.org/ns#"
   xmlns:rdf="http://www.w3.org/1999/02/22-rdf-syntax-ns#"
   xmlns:svg="http://www.w3.org/2000/svg"
   xmlns="http://www.w3.org/2000/svg"
   xmlns:sodipodi="http://sodipodi.sourceforge.net/DTD/sodipodi-0.dtd"
   xmlns:inkscape="http://www.inkscape.org/namespaces/inkscape"
   width="48"
   height="48"
   version="1"
   id="svg20"
   sodipodi:docname="rrootage.svg"
   inkscape:version="0.92.5 (2060ec1f9f, 2020-04-08)">
  <metadata
     id="metadata26">
    <rdf:RDF>
      <cc:Work
         rdf:about="">
        <dc:format>image/svg+xml</dc:format>
        <dc:type
           rdf:resource="http://purl.org/dc/dcmitype/StillImage" />
      </cc:Work>
    </rdf:RDF>
  </metadata>
  <defs
     id="defs24" />
  <sodipodi:namedview
     pagecolor="#ffffff"
     bordercolor="#666666"
     borderopacity="1"
     objecttolerance="10"
     gridtolerance="10"
     guidetolerance="10"
     inkscape:pageopacity="0"
     inkscape:pageshadow="2"
     inkscape:window-width="765"
     inkscape:window-height="480"
     id="namedview22"
     showgrid="false"
     inkscape:zoom="4.9166667"
     inkscape:cx="24"
     inkscape:cy="24"
     inkscape:window-x="0"
     inkscape:window-y="28"
     inkscape:window-maximized="0"
     inkscape:current-layer="svg20" />
  <rect
     style="fill:#4c566a;fill-opacity:1"
     width="40"
     height="40"
     x="4"
     y="4"
     rx="2"
     ry="2"
     id="rect2" />
  <path
     style="opacity:0.2"
     d="m 21,19 v 14 8 h 4 v -8 h 4.015625 l 6.152344,8 h 5.046875 L 33.65625,32.472656 A 7,7 0 0 0 38,26 7,7 0 0 0 31,19 h -6 z m 4,4 h 5 c 1.704233,0 3,1.295767 3,3 0,1.704233 -1.295767,3 -3,3 H 25 Z M 8,24 v 17 h 4 V 28 h 7 v -4 c -2.735653,-0.01111 -5.049971,0.747584 -7,2.173828 V 24 Z"
     id="path4" />
  <path
     style="opacity:0.1;fill:#ffffff"
     d="M 4,7 V 6 C 4,4.892 4.892,4 6,4 h 36 c 1.108,0 2,0.892 2,2 V 7 C 44,5.892 43.108,5 42,5 H 6 C 4.892,5 4,5.892 4,7 Z"
     id="path6" />
  <path
     style="opacity:0.2"
     d="m 4,42 v 1 c 0,1.108 0.892,2 2,2 h 36 c 1.108,0 2,-0.892 2,-2 v -1 c 0,1.108 -0.892,2 -2,2 H 6 C 4.892,44 4,43.108 4,42 Z"
     id="path8" />
  <path
     style="fill:#ffffff"
     d="M 31.585938,28.78125 28.414062,31.21875 35.167969,40 h 5.046875 z"
     id="path10" />
  <rect
     style="fill:#9c9c9c"
     width="4"
     height="17"
     x="8"
     y="23"
     id="rect12" />
  <path
     style="fill:#9c9c9c"
     d="m 19,23 v 4 h -9 v 0 c 2.304046,-2.606631 5.262936,-4.015179 9,-4 z"
     id="path14" />
  <path
     style="fill:#ffffff"
     d="m 21,18 v 14 h 10 a 7,7 0 0 0 7,-7 7,7 0 0 0 -7,-7 z m 4,4 h 5 c 1.704233,0 3,1.295767 3,3 0,1.704233 -1.295767,3 -3,3 h -5 z"
     id="path16" />
  <rect
     style="fill:#ffffff"
     width="4"
     height="22"
     x="21"
     y="18"
     id="rect18" />
</svg>
