<?xml version="1.0" encoding="UTF-8" standalone="no"?>
<svg
   xmlns:dc="http://purl.org/dc/elements/1.1/"
   xmlns:cc="http://creativecommons.org/ns#"
   xmlns:rdf="http://www.w3.org/1999/02/22-rdf-syntax-ns#"
   xmlns:svg="http://www.w3.org/2000/svg"
   xmlns="http://www.w3.org/2000/svg"
   xmlns:sodipodi="http://sodipodi.sourceforge.net/DTD/sodipodi-0.dtd"
   xmlns:inkscape="http://www.inkscape.org/namespaces/inkscape"
   width="48"
   height="48"
   version="1"
   id="svg40"
   sodipodi:docname="rust.svg"
   inkscape:version="0.92.5 (2060ec1f9f, 2020-04-08)">
  <metadata
     id="metadata46">
    <rdf:RDF>
      <cc:Work
         rdf:about="">
        <dc:format>image/svg+xml</dc:format>
        <dc:type
           rdf:resource="http://purl.org/dc/dcmitype/StillImage" />
      </cc:Work>
    </rdf:RDF>
  </metadata>
  <defs
     id="defs44" />
  <sodipodi:namedview
     pagecolor="#ffffff"
     bordercolor="#666666"
     borderopacity="1"
     objecttolerance="10"
     gridtolerance="10"
     guidetolerance="10"
     inkscape:pageopacity="0"
     inkscape:pageshadow="2"
     inkscape:window-width="765"
     inkscape:window-height="480"
     id="namedview42"
     showgrid="false"
     inkscape:zoom="4.9166667"
     inkscape:cx="24"
     inkscape:cy="24"
     inkscape:window-x="0"
     inkscape:window-y="28"
     inkscape:window-maximized="0"
     inkscape:current-layer="svg40" />
  <rect
     fill="#c2352a"
     width="40"
     height="40"
     x="4"
     y="4"
     rx="2"
     ry="2"
     id="rect2"
     style="fill:#4c566a;fill-opacity:1" />
  <path
     fill="#fff"
     opacity=".2"
     d="m6 4c-1.108 0-2 0.892-2 2v1c0-1.108 0.892-2 2-2h36c1.108 0 2 0.892 2 2v-1c0-1.108-0.892-2-2-2h-36z"
     id="path4" />
  <path
     opacity=".2"
     d="m6 45c-1.108 0-2-0.892-2-2v-1c0 1.108 0.892 2 2 2h36c1.108 0 2-0.892 2-2v1c0 1.108-0.892 2-2 2h-36z"
     id="path6" />
  <g
     opacity=".2"
     transform="translate(0,1)"
     id="g22">
    <rect
       width="2.121"
       height="2.121"
       x="34.3"
       y="-1.77"
       transform="rotate(45)"
       id="rect8" />
    <path
       d="m30 10-2 8h-5l-2-8z"
       id="path10" />
    <rect
       width="5"
       height="2"
       x="23"
       y="19"
       id="rect12" />
    <path
       d="m11 29 8-2v-5l-8-2z"
       id="path14" />
    <rect
       width="5"
       height="2"
       x="22"
       y="20"
       transform="matrix(0,1,1,0,0,0)"
       id="rect16" />
    <path
       d="m32.364 38-4.2426-7.0711 3.5355-3.5355 7.0711 4.2426z"
       id="path18" />
    <rect
       width="5"
       height="2"
       x="-3.02"
       y="-40.76"
       transform="rotate(135)"
       id="rect20" />
  </g>
  <g
     fill="#fff"
     id="g38">
    <rect
       width="2.121"
       height="2.121"
       x="34.3"
       y="-1.77"
       transform="rotate(45)"
       id="rect24" />
    <path
       d="m30 10-2 8h-5l-2-8z"
       id="path26" />
    <rect
       width="5"
       height="2"
       x="23"
       y="19"
       id="rect28" />
    <path
       d="m11 29 8-2v-5l-8-2z"
       id="path30" />
    <rect
       width="5"
       height="2"
       x="22"
       y="20"
       transform="matrix(0,1,1,0,0,0)"
       id="rect32" />
    <path
       d="m32.364 38-4.2426-7.0711 3.5355-3.5355 7.0711 4.2426z"
       id="path34" />
    <rect
       width="5"
       height="2"
       x="-3.02"
       y="-40.76"
       transform="rotate(135)"
       id="rect36" />
  </g>
</svg>
