<?xml version="1.0" encoding="UTF-8" standalone="no"?>
<svg
   xmlns:dc="http://purl.org/dc/elements/1.1/"
   xmlns:cc="http://creativecommons.org/ns#"
   xmlns:rdf="http://www.w3.org/1999/02/22-rdf-syntax-ns#"
   xmlns:svg="http://www.w3.org/2000/svg"
   xmlns="http://www.w3.org/2000/svg"
   xmlns:sodipodi="http://sodipodi.sourceforge.net/DTD/sodipodi-0.dtd"
   xmlns:inkscape="http://www.inkscape.org/namespaces/inkscape"
   width="48"
   height="48"
   version="1.1"
   id="svg30"
   sodipodi:docname="sc_ide.svg"
   inkscape:version="0.92.5 (2060ec1f9f, 2020-04-08)">
  <metadata
     id="metadata36">
    <rdf:RDF>
      <cc:Work
         rdf:about="">
        <dc:format>image/svg+xml</dc:format>
        <dc:type
           rdf:resource="http://purl.org/dc/dcmitype/StillImage" />
      </cc:Work>
    </rdf:RDF>
  </metadata>
  <defs
     id="defs34" />
  <sodipodi:namedview
     pagecolor="#ffffff"
     bordercolor="#666666"
     borderopacity="1"
     objecttolerance="10"
     gridtolerance="10"
     guidetolerance="10"
     inkscape:pageopacity="0"
     inkscape:pageshadow="2"
     inkscape:window-width="765"
     inkscape:window-height="480"
     id="namedview32"
     showgrid="false"
     inkscape:zoom="6.9532167"
     inkscape:cx="12.227152"
     inkscape:cy="38.23679"
     inkscape:window-x="0"
     inkscape:window-y="28"
     inkscape:window-maximized="0"
     inkscape:current-layer="svg30" />
  <circle
     style="opacity:0.2"
     cx="24"
     cy="25"
     r="20"
     id="circle2" />
  <circle
     style="fill:#4c566a;fill-opacity:1"
     cx="24"
     cy="24"
     r="20"
     id="circle4" />
  <circle
     style="opacity:0.2"
     cx="24"
     cy="25"
     r="16"
     id="circle6" />
  <path
     style="opacity:0.1;fill:#ffffff"
     d="M 24,4 A 20,20 0 0 0 4,24 20,20 0 0 0 4.0215,24.582 20,20 0 0 1 24,5 20,20 0 0 1 43.979,24.418 20,20 0 0 0 44,24 20,20 0 0 0 24,4 Z"
     id="path8" />
  <circle
     style="fill:#555f73;fill-opacity:1"
     cx="24"
     cy="24"
     r="16"
     id="circle10" />
  <circle
     style="opacity:0.2"
     cx="24"
     cy="25"
     r="12"
     id="circle12" />
  <circle
     style="fill:#5f697d;fill-opacity:1"
     cx="24"
     cy="24"
     r="12"
     id="circle14" />
  <circle
     style="opacity:0.2"
     cx="24"
     cy="25"
     r="8"
     id="circle16" />
  <circle
     style="fill:#737d91;fill-opacity:1"
     cx="24"
     cy="24"
     r="8"
     id="circle18" />
  <circle
     style="opacity:0.2"
     cx="24"
     cy="25"
     r="4"
     id="circle20" />
  <circle
     style="fill:#e4e4e4"
     cx="24"
     cy="24"
     r="4"
     id="circle22" />
  <path
     style="fill:#ffffff;opacity:0.1"
     d="M 24 8 A 16 16 0 0 0 8 24 A 16 16 0 0 0 8.0214844 24.580078 A 16 16 0 0 1 24 9 A 16 16 0 0 1 39.978516 24.419922 A 16 16 0 0 0 40 24 A 16 16 0 0 0 24 8 z"
     id="path24" />
  <path
     style="fill:#ffffff;opacity:0.1"
     d="M 24 12 A 12 12 0 0 0 12 24 A 12 12 0 0 0 12.019531 24.59375 A 12 12 0 0 1 24 13 A 12 12 0 0 1 35.980469 24.40625 A 12 12 0 0 0 36 24 A 12 12 0 0 0 24 12 z"
     id="path26" />
  <path
     style="fill:#ffffff;opacity:0.1"
     d="M 24 16 A 8 8 0 0 0 16 24 A 8 8 0 0 0 16.021484 24.576172 A 8 8 0 0 1 24 17 A 8 8 0 0 1 31.978516 24.423828 A 8 8 0 0 0 32 24 A 8 8 0 0 0 24 16 z"
     id="path28" />
</svg>
