<?xml version="1.0" encoding="UTF-8" standalone="no"?>
<svg
   xmlns:dc="http://purl.org/dc/elements/1.1/"
   xmlns:cc="http://creativecommons.org/ns#"
   xmlns:rdf="http://www.w3.org/1999/02/22-rdf-syntax-ns#"
   xmlns:svg="http://www.w3.org/2000/svg"
   xmlns="http://www.w3.org/2000/svg"
   xmlns:sodipodi="http://sodipodi.sourceforge.net/DTD/sodipodi-0.dtd"
   xmlns:inkscape="http://www.inkscape.org/namespaces/inkscape"
   width="48"
   height="48"
   version="1"
   id="svg20"
   sodipodi:docname="screencloud.svg"
   inkscape:version="0.92.5 (2060ec1f9f, 2020-04-08)">
  <metadata
     id="metadata26">
    <rdf:RDF>
      <cc:Work
         rdf:about="">
        <dc:format>image/svg+xml</dc:format>
        <dc:type
           rdf:resource="http://purl.org/dc/dcmitype/StillImage" />
      </cc:Work>
    </rdf:RDF>
  </metadata>
  <defs
     id="defs24" />
  <sodipodi:namedview
     pagecolor="#ffffff"
     bordercolor="#666666"
     borderopacity="1"
     objecttolerance="10"
     gridtolerance="10"
     guidetolerance="10"
     inkscape:pageopacity="0"
     inkscape:pageshadow="2"
     inkscape:window-width="765"
     inkscape:window-height="480"
     id="namedview22"
     showgrid="false"
     inkscape:zoom="4.9166667"
     inkscape:cx="24"
     inkscape:cy="24"
     inkscape:window-x="0"
     inkscape:window-y="28"
     inkscape:window-maximized="0"
     inkscape:current-layer="svg20" />
  <path
     fill="#569cde"
     d="m21 6a15 15 0 0 0 -15 15 15 15 0 0 0 0.502 3.816c-2.667 1.31-4.502 4.069-4.502 7.286v1.7969c0 4.487 3.5648 8.101 7.9922 8.101h28.016c4.427 0 7.992-3.614 7.992-8.102v-1.7969c0-3.4009-2.0487-6.2954-4.9668-7.5a9 9 0 0 0 1.967 -5.601 9 9 0 0 0 -9 -9 9 9 0 0 0 -2.459 0.346 15 15 0 0 0 -10.541 -4.346z"
     id="path2"
     style="fill:#4c566a;fill-opacity:1" />
  <path
     fill="#fff"
     opacity=".2"
     d="m21 6a15 15 0 0 0 -15 15 15 15 0 0 0 0.0215 0.402 15 15 0 0 1 14.978 -14.402 15 15 0 0 1 10.541 4.346 9 9 0 0 1 2.459 -0.346 9 9 0 0 1 8.979 8.562 9 9 0 0 0 0.021 -0.562 9 9 0 0 0 -9 -9 9 9 0 0 0 -2.459 0.346 15 15 0 0 0 -10.541 -4.346zm20.561 18.867a9 9 0 0 1 -0.528 0.735c2.918 1.204 4.967 4.099 4.967 7.5v-1c0-3.188-1.811-5.911-4.439-7.235zm-35.262 0.069c-2.5524 1.349-4.2988 4.035-4.2988 7.166v1c0-3.217 1.835-5.976 4.502-7.286a15 15 0 0 1 -0.2032 -0.88z"
     id="path4" />
  <path
     opacity=".2"
     d="m42.979 19.562a9 9 0 0 1 -1.9453 5.0391c0.18306 0.07556 0.35142 0.17705 0.52734 0.26563a9 9 0 0 0 1.439 -4.867 9 9 0 0 0 -0.021 -0.438zm-36.958 1.84a15 15 0 0 0 -0.0215 0.598 15 15 0 0 0 0.2988 2.936c0.069606-0.03679 0.13233-0.08437 0.20312-0.11914a15 15 0 0 1 -0.4804 -3.415zm-4.0215 12.496v1c0 4.488 3.5648 8.102 7.9922 8.102h28.016c4.427 0 7.992-3.614 7.992-8.102v-1c0 4.488-3.565 8.102-7.992 8.102h-28.016c-4.4272 0-7.992-3.614-7.992-8.102z"
     id="path6" />
  <path
     opacity=".2"
     d="m24 15a12 12 0 0 0 -12 12 12 12 0 0 0 12 12 12 12 0 0 0 12 -12 12 12 0 0 0 -12 -12zm0 3a9 9 0 0 1 9 9 9 9 0 0 1 -9 9 9 9 0 0 1 -9 -9 9 9 0 0 1 9 -9z"
     id="path8" />
  <path
     fill="#aaceee"
     d="m24 14a12 12 0 0 0 -12 12 12 12 0 0 0 12 12 12 12 0 0 0 12 -12 12 12 0 0 0 -12 -12zm0 3a9 9 0 0 1 9 9 9 9 0 0 1 -9 9 9 9 0 0 1 -9 -9 9 9 0 0 1 9 -9z"
     id="path10"
     style="fill:#7d879b;fill-opacity:1" />
  <path
     opacity=".2"
     d="m24 21a6 6 0 0 0 -6 6 6 6 0 0 0 6 6 6 6 0 0 0 6 -6 6 6 0 0 0 -6 -6z"
     id="path12" />
  <path
     fill="#fff"
     d="m24 20a6 6 0 0 0 -6 6 6 6 0 0 0 6 6 6 6 0 0 0 6 -6 6 6 0 0 0 -6 -6z"
     id="path14" />
  <circle
     opacity=".2"
     cx="15"
     cy="13"
     r="3"
     id="circle16" />
  <circle
     fill="#fff"
     cx="15"
     cy="12"
     r="3"
     id="circle18" />
</svg>
