<?xml version="1.0" encoding="UTF-8" standalone="no"?>
<svg
   xmlns:dc="http://purl.org/dc/elements/1.1/"
   xmlns:cc="http://creativecommons.org/ns#"
   xmlns:rdf="http://www.w3.org/1999/02/22-rdf-syntax-ns#"
   xmlns:svg="http://www.w3.org/2000/svg"
   xmlns="http://www.w3.org/2000/svg"
   xmlns:sodipodi="http://sodipodi.sourceforge.net/DTD/sodipodi-0.dtd"
   xmlns:inkscape="http://www.inkscape.org/namespaces/inkscape"
   width="48"
   height="48"
   version="1"
   id="svg12"
   sodipodi:docname="net.scribus.Scribus.svg"
   inkscape:version="0.92.5 (2060ec1f9f, 2020-04-08)">
  <metadata
     id="metadata18">
    <rdf:RDF>
      <cc:Work
         rdf:about="">
        <dc:format>image/svg+xml</dc:format>
        <dc:type
           rdf:resource="http://purl.org/dc/dcmitype/StillImage" />
      </cc:Work>
    </rdf:RDF>
  </metadata>
  <defs
     id="defs16" />
  <sodipodi:namedview
     pagecolor="#ffffff"
     bordercolor="#666666"
     borderopacity="1"
     objecttolerance="10"
     gridtolerance="10"
     guidetolerance="10"
     inkscape:pageopacity="0"
     inkscape:pageshadow="2"
     inkscape:window-width="765"
     inkscape:window-height="480"
     id="namedview14"
     showgrid="false"
     inkscape:zoom="4.9166667"
     inkscape:cx="24"
     inkscape:cy="24"
     inkscape:window-x="0"
     inkscape:window-y="28"
     inkscape:window-maximized="0"
     inkscape:current-layer="svg12" />
  <circle
     fill="#37a0f2"
     cx="24"
     cy="24"
     r="20"
     id="circle2"
     style="fill:#4c566a;fill-opacity:1" />
  <path
     fill="#fff"
     opacity=".2"
     d="m24 4c-11.079 0-19.998 8.92-19.998 20 0 0.16772-0.004 0.33329 0 0.5 0.2642-10.846 9.087-19.5 19.998-19.5s19.734 8.6536 19.998 19.5c0.004-0.16671 0-0.33228 0-0.5 0-11.08-8.919-20-19.998-20z"
     id="path4" />
  <path
     opacity=".2"
     d="m43.979 24.418a20 20 0 0 1 -19.979 19.582 20 20 0 0 1 -19.978 -19.418 20 20 0 0 0 -0.022 0.418 20 20 0 0 0 20 20 20 20 0 0 0 20 -20 20 20 0 0 0 -0.021 -0.582z"
     id="path6" />
  <path
     fill-rule="evenodd"
     opacity=".2"
     d="m26 13c-3.2691 5.5297-5.8614 10.465-7.5357 15.997-0.887 2.961-1.687 6.0278-2.464 9.0028 1.266 0.107 1.0227-0.0088 1.9997 0.000231 0.719-1.609 2.1553-3.14 3.1533-4.257 2.4772-2.5775 4.8367-3.7311 7.8467-4.7432 0.044-3.034-0.1767-6.0428 1.0533-8.7038 0.504-1.106 1.2947-2.2922 1.9467-3.2962 0-3-3-6-6-4z"
     id="path8" />
  <path
     fill="#fff"
     fill-rule="evenodd"
     d="m26 12c-3.2691 5.5297-5.8614 10.465-7.5357 15.997-0.887 2.961-1.687 6.0278-2.464 9.0028 1.266 0.107 1.0227-0.0088 1.9997 0.000231 0.719-1.609 2.1553-3.14 3.1533-4.257 2.477-2.577 4.837-3.731 7.847-4.743 0.044-3.034-0.177-6.043 1.053-8.704 0.504-1.106 1.295-2.292 1.947-3.296 0-3-3-6-6-4z"
     id="path10" />
</svg>
