<?xml version="1.0" encoding="UTF-8" standalone="no"?>
<svg
   xmlns:dc="http://purl.org/dc/elements/1.1/"
   xmlns:cc="http://creativecommons.org/ns#"
   xmlns:rdf="http://www.w3.org/1999/02/22-rdf-syntax-ns#"
   xmlns:svg="http://www.w3.org/2000/svg"
   xmlns="http://www.w3.org/2000/svg"
   xmlns:sodipodi="http://sodipodi.sourceforge.net/DTD/sodipodi-0.dtd"
   xmlns:inkscape="http://www.inkscape.org/namespaces/inkscape"
   width="48"
   height="48"
   version="1.1"
   id="svg14"
   sodipodi:docname="selinux.svg"
   inkscape:version="0.92.5 (2060ec1f9f, 2020-04-08)">
  <metadata
     id="metadata20">
    <rdf:RDF>
      <cc:Work
         rdf:about="">
        <dc:format>image/svg+xml</dc:format>
        <dc:type
           rdf:resource="http://purl.org/dc/dcmitype/StillImage" />
      </cc:Work>
    </rdf:RDF>
  </metadata>
  <defs
     id="defs18" />
  <sodipodi:namedview
     pagecolor="#ffffff"
     bordercolor="#666666"
     borderopacity="1"
     objecttolerance="10"
     gridtolerance="10"
     guidetolerance="10"
     inkscape:pageopacity="0"
     inkscape:pageshadow="2"
     inkscape:window-width="765"
     inkscape:window-height="480"
     id="namedview16"
     showgrid="false"
     inkscape:zoom="4.9166667"
     inkscape:cx="24"
     inkscape:cy="24"
     inkscape:window-x="0"
     inkscape:window-y="28"
     inkscape:window-maximized="0"
     inkscape:current-layer="g12" />
  <g
     transform="translate(0 -1004.4)"
     id="g12">
    <circle
       opacity=".2"
       cx="24"
       cy="1029.4"
       r="20"
       id="circle2" />
    <circle
       fill="#4f4f4f"
       cx="24"
       cy="1028.4"
       r="20"
       id="circle4"
       style="fill:#4c566a;fill-opacity:1" />
    <path
       opacity=".2"
       d="m18 1019.4v2h3v2h-5v5h-2v-3h-2v8h2v-3h2v3l4 4h9l2-2 2 0.016v0.9844h2l1-1v-8l-1-1h-2v1h-0.75l-4-4h-5.25v-2h3v-2zm0 6h9l4 4h3v4h-4l-2 2h-6.75l-3.25-3.25z"
       id="path6" />
    <path
       fill="#ffa92c"
       d="m18 1018.4v2h3v2h-5v5h-2v-3h-2v8h2v-3h2v3l4 4h9l2-2 2 0.016v0.9844h2l1-1v-8l-1-1h-2v1h-0.75l-4-4h-5.25v-2h3v-2zm0 6h9l4 4h3v4h-4l-2 2h-6.75l-3.25-3.25z"
       id="path8"
       style="fill:#ffffff;fill-opacity:1" />
    <path
       fill="#fff"
       opacity=".1"
       transform="translate(0 1004.4)"
       d="m24 4a20 20 0 0 0 -20 20 20 20 0 0 0 0.0215 0.582 20 20 0 0 1 19.978 -19.582 20 20 0 0 1 19.979 19.418 20 20 0 0 0 0.021 -0.418 20 20 0 0 0 -20 -20z"
       id="path10" />
  </g>
</svg>
