<?xml version="1.0" encoding="UTF-8" standalone="no"?>
<svg
   xmlns:dc="http://purl.org/dc/elements/1.1/"
   xmlns:cc="http://creativecommons.org/ns#"
   xmlns:rdf="http://www.w3.org/1999/02/22-rdf-syntax-ns#"
   xmlns:svg="http://www.w3.org/2000/svg"
   xmlns="http://www.w3.org/2000/svg"
   xmlns:sodipodi="http://sodipodi.sourceforge.net/DTD/sodipodi-0.dtd"
   xmlns:inkscape="http://www.inkscape.org/namespaces/inkscape"
   width="48"
   height="48"
   version="1"
   id="svg30"
   sodipodi:docname="semaphor.svg"
   inkscape:version="0.92.5 (2060ec1f9f, 2020-04-08)">
  <metadata
     id="metadata36">
    <rdf:RDF>
      <cc:Work
         rdf:about="">
        <dc:format>image/svg+xml</dc:format>
        <dc:type
           rdf:resource="http://purl.org/dc/dcmitype/StillImage" />
      </cc:Work>
    </rdf:RDF>
  </metadata>
  <defs
     id="defs34" />
  <sodipodi:namedview
     pagecolor="#ffffff"
     bordercolor="#666666"
     borderopacity="1"
     objecttolerance="10"
     gridtolerance="10"
     guidetolerance="10"
     inkscape:pageopacity="0"
     inkscape:pageshadow="2"
     inkscape:window-width="765"
     inkscape:window-height="480"
     id="namedview32"
     showgrid="false"
     inkscape:zoom="4.9166667"
     inkscape:cx="24"
     inkscape:cy="24"
     inkscape:window-x="0"
     inkscape:window-y="28"
     inkscape:window-maximized="0"
     inkscape:current-layer="svg30" />
  <circle
     style="opacity:0.2"
     cx="24"
     cy="25"
     r="20"
     id="circle2" />
  <circle
     style="fill:#4c566a;fill-opacity:1"
     cx="24"
     cy="24"
     r="20"
     id="circle4" />
  <path
     style="opacity:0.2"
     d="M 14,30 H 24 V 40 Z"
     id="path6" />
  <path
     style="fill:#ffffff;fill-opacity:1"
     d="M 14,29 H 24 V 39 Z"
     id="path8" />
  <path
     style="fill:#ffffff;opacity:0.2"
     d="M 14 29 L 15 30 L 24 30 L 24 29 L 14 29 z"
     id="path10" />
  <path
     style="opacity:0.2"
     d="M 14,20 H 24 V 30 Z"
     id="path12" />
  <path
     style="fill:#ffffff;fill-opacity:1"
     d="M 14,19 H 24 V 29 Z"
     id="path14" />
  <path
     style="opacity:0.2"
     d="M 14,20 H 24 V 10 Z"
     id="path16" />
  <path
     style="fill:#ffffff;fill-opacity:1"
     d="M 14,19 H 24 V 9 Z"
     id="path18" />
  <path
     style="opacity:0.2"
     d="M 34,20 H 24 V 10 Z"
     id="path20" />
  <path
     style="fill:#ffffff;fill-opacity:1"
     d="M 34,19 H 24 V 9 Z"
     id="path22" />
  <path
     style="opacity:0.1;fill:#ffffff"
     d="M 24 4 A 20 20 0 0 0 4 24 A 20 20 0 0 0 4.0214844 24.582031 A 20 20 0 0 1 24 5 A 20 20 0 0 1 43.978516 24.417969 A 20 20 0 0 0 44 24 A 20 20 0 0 0 24 4 z"
     id="path24" />
  <path
     style="fill:#ffffff;opacity:0.2"
     d="M 24 9 L 14 19 L 15 19 L 24 10 L 24 9 z"
     id="path26" />
  <path
     style="fill:#9bbafd;opacity:0.1;fill-opacity:1"
     d="M 24 9 L 24 10 L 33 19 L 34 19 L 24 9 z"
     id="path28" />
</svg>
