<?xml version="1.0" encoding="UTF-8" standalone="no"?>
<svg
   xmlns:dc="http://purl.org/dc/elements/1.1/"
   xmlns:cc="http://creativecommons.org/ns#"
   xmlns:rdf="http://www.w3.org/1999/02/22-rdf-syntax-ns#"
   xmlns:svg="http://www.w3.org/2000/svg"
   xmlns="http://www.w3.org/2000/svg"
   xmlns:sodipodi="http://sodipodi.sourceforge.net/DTD/sodipodi-0.dtd"
   xmlns:inkscape="http://www.inkscape.org/namespaces/inkscape"
   width="48"
   height="48"
   version="1.1"
   id="svg12"
   sodipodi:docname="sharik.svg"
   inkscape:version="0.92.5 (2060ec1f9f, 2020-04-08)">
  <metadata
     id="metadata18">
    <rdf:RDF>
      <cc:Work
         rdf:about="">
        <dc:format>image/svg+xml</dc:format>
        <dc:type
           rdf:resource="http://purl.org/dc/dcmitype/StillImage" />
      </cc:Work>
    </rdf:RDF>
  </metadata>
  <defs
     id="defs16" />
  <sodipodi:namedview
     pagecolor="#ffffff"
     bordercolor="#666666"
     borderopacity="1"
     objecttolerance="10"
     gridtolerance="10"
     guidetolerance="10"
     inkscape:pageopacity="0"
     inkscape:pageshadow="2"
     inkscape:window-width="783"
     inkscape:window-height="480"
     id="namedview14"
     showgrid="false"
     inkscape:zoom="6.9532167"
     inkscape:cx="10.737963"
     inkscape:cy="12.092201"
     inkscape:window-x="0"
     inkscape:window-y="28"
     inkscape:window-maximized="0"
     inkscape:current-layer="svg12" />
  <circle
     style="opacity:0.2"
     cx="24"
     cy="25"
     r="20"
     id="circle2" />
  <circle
     style="fill:#4c566a;fill-opacity:1"
     cx="24"
     cy="24"
     r="20"
     id="circle4" />
  <path
     style="opacity:0.1"
     d="M 10.344751,33.30786 C 26.676002,27.882916 26.882942,27.675976 32.307885,11.344743 26.142766,7.5763143 17.991792,8.3493768 12.670609,13.670601 7.349382,18.991854 6.576322,27.142828 10.344751,33.30786 Z m 8.899478,6.95918 c 7.53182,-12.341647 7.681102,-12.491016 20.022749,-20.022837 1.721869,5.49954 0.410545,11.737062 -3.937571,16.085178 -4.348116,4.348117 -10.585638,5.659441 -16.085178,3.937659 z"
     id="path6" />
  <path
     fill="#673ab7"
     d="M 10.344751,32.30786 C 26.676002,26.882916 26.882942,26.675976 32.307885,10.344743 26.142766,6.5763139 17.991792,7.3493764 12.670609,12.670601 7.349382,17.991854 6.576322,26.142828 10.344751,32.30786 Z m 8.899478,6.95918 c 7.53182,-12.341647 7.681102,-12.491016 20.022749,-20.022837 1.721869,5.49954 0.410545,11.737062 -3.937571,16.085178 -4.348116,4.348117 -10.585638,5.659441 -16.085178,3.937659 z"
     id="path8"
     style="fill:#ffffff;fill-opacity:1" />
  <path
     style="opacity:0.2;fill:#ffffff"
     d="M 24,4 A 20,20 0 0 0 4,24 20,20 0 0 0 4.0215,24.582 20,20 0 0 1 24,5 20,20 0 0 1 43.979,24.418 20,20 0 0 0 44,24 20,20 0 0 0 24,4 Z"
     id="path10" />
</svg>
