<?xml version="1.0" encoding="UTF-8" standalone="no"?>
<svg
   xmlns:dc="http://purl.org/dc/elements/1.1/"
   xmlns:cc="http://creativecommons.org/ns#"
   xmlns:rdf="http://www.w3.org/1999/02/22-rdf-syntax-ns#"
   xmlns:svg="http://www.w3.org/2000/svg"
   xmlns="http://www.w3.org/2000/svg"
   xmlns:sodipodi="http://sodipodi.sourceforge.net/DTD/sodipodi-0.dtd"
   xmlns:inkscape="http://www.inkscape.org/namespaces/inkscape"
   width="48"
   height="48"
   version="1"
   id="svg18"
   sodipodi:docname="slack.svg"
   inkscape:version="0.92.5 (2060ec1f9f, 2020-04-08)">
  <metadata
     id="metadata24">
    <rdf:RDF>
      <cc:Work
         rdf:about="">
        <dc:format>image/svg+xml</dc:format>
        <dc:type
           rdf:resource="http://purl.org/dc/dcmitype/StillImage" />
      </cc:Work>
    </rdf:RDF>
  </metadata>
  <defs
     id="defs22" />
  <sodipodi:namedview
     pagecolor="#ffffff"
     bordercolor="#666666"
     borderopacity="1"
     objecttolerance="10"
     gridtolerance="10"
     guidetolerance="10"
     inkscape:pageopacity="0"
     inkscape:pageshadow="2"
     inkscape:window-width="783"
     inkscape:window-height="480"
     id="namedview20"
     showgrid="false"
     inkscape:zoom="4.9166667"
     inkscape:cx="24"
     inkscape:cy="24"
     inkscape:window-x="0"
     inkscape:window-y="28"
     inkscape:window-maximized="0"
     inkscape:current-layer="svg18" />
  <circle
     style="opacity:0.2"
     cx="24"
     cy="25"
     r="20"
     id="circle2" />
  <circle
     style="fill:#4c566a;fill-opacity:1"
     cx="24"
     cy="24"
     r="20"
     id="circle4" />
  <path
     style="opacity:0.2;fill:#ffffff"
     d="M 24 4 A 20 20 0 0 0 4 24 A 20 20 0 0 0 4.0214844 24.582031 A 20 20 0 0 1 24 5 A 20 20 0 0 1 43.978516 24.417969 A 20 20 0 0 0 44 24 A 20 20 0 0 0 24 4 z"
     id="path6" />
  <path
     style="opacity:0.2"
     d="M 23,21 A 3,3 0 0 0 20,18 H 12 A 3,3 0 0 0 9,21 3,3 0 0 0 12,24 H 20 A 3,3 0 0 0 23,21 Z M 20,10 A 3,3 0 0 0 17,13 3,3 0 0 0 20,16 H 23 V 13 A 3,3 0 0 0 20,10 Z M 39,29 A 3,3 0 0 0 36,26 H 28 A 3,3 0 0 0 25,29 3,3 0 0 0 28,32 H 36 A 3,3 0 0 0 39,29 Z M 28,40 A 3,3 0 0 0 31,37 3,3 0 0 0 28,34 H 25 V 37 A 3,3 0 0 0 28,40 Z M 20,26 A 3,3 0 0 0 17,29 V 37 A 3,3 0 0 0 20,40 3,3 0 0 0 23,37 V 29 A 3,3 0 0 0 20,26 Z M 12,32 A 3,3 0 0 1 9,29 3,3 0 0 1 12,26 H 15 V 29 A 3,3 0 0 1 12,32 Z M 28,10 A 3,3 0 0 0 25,13 V 21 A 3,3 0 0 0 28,24 3,3 0 0 0 31,21 V 13 A 3,3 0 0 0 28,10 Z M 36,18 A 3,3 0 0 1 39,21 3,3 0 0 1 36,24 H 33 V 21 A 3,3 0 0 1 36,18 Z"
     id="path8" />
  <path
     style="fill:#ffffff;fill-opacity:1"
     d="M 28,9 A 3,3 0 0 0 25,12 V 20 A 3,3 0 0 0 28,23 3,3 0 0 0 31,20 V 12 A 3,3 0 0 0 28,9 Z M 36,17 A 3,3 0 0 1 39,20 3,3 0 0 1 36,23 H 33 V 20 A 3,3 0 0 1 36,17 Z"
     id="path10" />
  <path
     style="fill:#ffffff;fill-opacity:1"
     d="M 20,25 A 3,3 0 0 0 17,28 V 36 A 3,3 0 0 0 20,39 3,3 0 0 0 23,36 V 28 A 3,3 0 0 0 20,25 Z M 12,31 A 3,3 0 0 1 9,28 3,3 0 0 1 12,25 H 15 V 28 A 3,3 0 0 1 12,31 Z"
     id="path12" />
  <path
     style="fill:#ffffff;fill-opacity:1"
     d="M 39,28 A 3,3 0 0 0 36,25 H 28 A 3,3 0 0 0 25,28 3,3 0 0 0 28,31 H 36 A 3,3 0 0 0 39,28 Z M 28,39 A 3,3 0 0 0 31,36 3,3 0 0 0 28,33 H 25 V 36 A 3,3 0 0 0 28,39 Z"
     id="path14" />
  <path
     style="fill:#ffffff;fill-opacity:1"
     d="M 23,20 A 3,3 0 0 0 20,17 H 12 A 3,3 0 0 0 9,20 3,3 0 0 0 12,23 H 20 A 3,3 0 0 0 23,20 Z M 20,9 A 3,3 0 0 0 17,12 3,3 0 0 0 20,15 H 23 V 12 A 3,3 0 0 0 20,9 Z"
     id="path16" />
</svg>
