<?xml version="1.0" encoding="UTF-8" standalone="no"?>
<svg
   xmlns:dc="http://purl.org/dc/elements/1.1/"
   xmlns:cc="http://creativecommons.org/ns#"
   xmlns:rdf="http://www.w3.org/1999/02/22-rdf-syntax-ns#"
   xmlns:svg="http://www.w3.org/2000/svg"
   xmlns="http://www.w3.org/2000/svg"
   xmlns:sodipodi="http://sodipodi.sourceforge.net/DTD/sodipodi-0.dtd"
   xmlns:inkscape="http://www.inkscape.org/namespaces/inkscape"
   width="48"
   height="48"
   version="1.0"
   id="svg18"
   sodipodi:docname="sm.puri.Stream.svg"
   inkscape:version="0.92.5 (2060ec1f9f, 2020-04-08)">
  <metadata
     id="metadata24">
    <rdf:RDF>
      <cc:Work
         rdf:about="">
        <dc:format>image/svg+xml</dc:format>
        <dc:type
           rdf:resource="http://purl.org/dc/dcmitype/StillImage" />
      </cc:Work>
    </rdf:RDF>
  </metadata>
  <defs
     id="defs22" />
  <sodipodi:namedview
     pagecolor="#ffffff"
     bordercolor="#666666"
     borderopacity="1"
     objecttolerance="10"
     gridtolerance="10"
     guidetolerance="10"
     inkscape:pageopacity="0"
     inkscape:pageshadow="2"
     inkscape:window-width="765"
     inkscape:window-height="480"
     id="namedview20"
     showgrid="false"
     inkscape:zoom="4.9166667"
     inkscape:cx="24"
     inkscape:cy="24"
     inkscape:window-x="0"
     inkscape:window-y="28"
     inkscape:window-maximized="0"
     inkscape:current-layer="svg18" />
  <rect
     style="opacity:0.2"
     width="42"
     height="33"
     x="3"
     y="8"
     rx="3"
     ry="3"
     id="rect2" />
  <rect
     style="fill:#4c566a;fill-opacity:1"
     width="42"
     height="33"
     x="3"
     y="7"
     rx="3"
     ry="3"
     id="rect4" />
  <path
     opacity=".2"
     d="m 30,19.999774 c 0,1.114567 -10.414841,7.523245 -11.32077,6.965959 -0.90564,-0.55728 -0.90564,-13.374745 1e-6,-13.931467 C 19.584871,12.476987 30,18.88566 30,20.000222 Z"
     id="path6" />
  <path
     fill="#ffffff"
     d="m 30,18.999774 c 0,1.114562 -10.414841,7.52324 -11.32077,6.965959 -0.90564,-0.55728 -0.90564,-13.374746 1e-6,-13.931467 C 19.584871,11.476985 30,17.885661 30,19.000222 Z"
     id="path8" />
  <rect
     style="opacity:0.5;fill:#ffffff"
     width="24"
     height="2"
     x="12"
     y="33"
     rx="1"
     ry="1"
     id="rect10" />
  <rect
     style="opacity:0.2"
     width="6"
     height="6"
     x="15"
     y="32"
     rx="3"
     ry="3"
     id="rect12" />
  <rect
     style="fill:#ffffff"
     width="6"
     height="6"
     x="15"
     y="31"
     rx="3"
     ry="3"
     id="rect14" />
  <path
     style="opacity:0.1;fill:#ffffff"
     d="M 6 7 C 4.338 7 3 8.338 3 10 L 3 11 C 3 9.338 4.338 8 6 8 L 42 8 C 43.662 8 45 9.338 45 11 L 45 10 C 45 8.338 43.662 7 42 7 L 6 7 z"
     id="path16" />
</svg>
