<?xml version="1.0" encoding="UTF-8" standalone="no"?>
<svg
   xmlns:dc="http://purl.org/dc/elements/1.1/"
   xmlns:cc="http://creativecommons.org/ns#"
   xmlns:rdf="http://www.w3.org/1999/02/22-rdf-syntax-ns#"
   xmlns:svg="http://www.w3.org/2000/svg"
   xmlns="http://www.w3.org/2000/svg"
   xmlns:sodipodi="http://sodipodi.sourceforge.net/DTD/sodipodi-0.dtd"
   xmlns:inkscape="http://www.inkscape.org/namespaces/inkscape"
   width="48"
   height="48"
   version="1"
   id="svg12"
   sodipodi:docname="appimagekit-somiibo.svg"
   inkscape:version="0.92.5 (2060ec1f9f, 2020-04-08)">
  <metadata
     id="metadata18">
    <rdf:RDF>
      <cc:Work
         rdf:about="">
        <dc:format>image/svg+xml</dc:format>
        <dc:type
           rdf:resource="http://purl.org/dc/dcmitype/StillImage" />
      </cc:Work>
    </rdf:RDF>
  </metadata>
  <defs
     id="defs16" />
  <sodipodi:namedview
     pagecolor="#ffffff"
     bordercolor="#666666"
     borderopacity="1"
     objecttolerance="10"
     gridtolerance="10"
     guidetolerance="10"
     inkscape:pageopacity="0"
     inkscape:pageshadow="2"
     inkscape:window-width="783"
     inkscape:window-height="480"
     id="namedview14"
     showgrid="false"
     inkscape:zoom="3.4766083"
     inkscape:cx="17.965493"
     inkscape:cy="20.802128"
     inkscape:window-x="0"
     inkscape:window-y="28"
     inkscape:window-maximized="0"
     inkscape:current-layer="svg12" />
  <circle
     style="opacity:0.2"
     cx="24"
     cy="25"
     r="20"
     id="circle2" />
  <circle
     style="fill:#4c566a;fill-opacity:1"
     cx="24"
     cy="24"
     r="20"
     id="circle4" />
  <path
     style="opacity:0.2;fill:#ffffff"
     d="M 24 4 A 20 20 0 0 0 4 24 A 20 20 0 0 0 4.0215 24.582 A 20 20 0 0 1 24 5 A 20 20 0 0 1 43.979 24.418 A 20 20 0 0 0 44 24 A 20 20 0 0 0 24 4 z"
     id="path6" />
  <path
     style="opacity:0.2"
     d="m 24,11 a 3,3 0 0 0 -3,3 3,3 0 0 0 2,2.824219 v 2.226562 A 10,10 0 0 0 14,29 10,10 0 0 0 24,39 10,10 0 0 0 34,29 10,10 0 0 0 29.537109,20.681641 l 1.480469,-1.851563 A 3,3 0 0 0 32,19 a 3,3 0 0 0 3,-3 3,3 0 0 0 -3,-3 3,3 0 0 0 -3,3 3,3 0 0 0 0.453125,1.582031 l -1.71875,2.148438 A 10,10 0 0 0 25,19.060547 V 16.826172 A 3,3 0 0 0 27,14 3,3 0 0 0 24,11 Z m 0,12 a 6,6 0 0 1 6,6 6,6 0 0 1 -6,6 6,6 0 0 1 -6,-6 6,6 0 0 1 6,-6 z m 0,2 a 4,4 0 0 0 -4,4 4,4 0 0 0 4,4 4,4 0 0 0 4,-4 A 4,4 0 0 0 26.8125,26.160156 2,2 0 0 1 27,27 2,2 0 0 1 25,29 2,2 0 0 1 23,27 2,2 0 0 1 24.580078,25.046875 4,4 0 0 0 24,25 Z"
     id="path8" />
  <path
     style="fill:#ffffff"
     d="M 24 10 A 3 3 0 0 0 21 13 A 3 3 0 0 0 23 15.824219 L 23 18.050781 A 10 10 0 0 0 14 28 A 10 10 0 0 0 24 38 A 10 10 0 0 0 34 28 A 10 10 0 0 0 29.537109 19.681641 L 31.017578 17.830078 A 3 3 0 0 0 32 18 A 3 3 0 0 0 35 15 A 3 3 0 0 0 32 12 A 3 3 0 0 0 29 15 A 3 3 0 0 0 29.453125 16.582031 L 27.734375 18.730469 A 10 10 0 0 0 25 18.060547 L 25 15.826172 A 3 3 0 0 0 27 13 A 3 3 0 0 0 24 10 z M 24 22 A 6 6 0 0 1 30 28 A 6 6 0 0 1 24 34 A 6 6 0 0 1 18 28 A 6 6 0 0 1 24 22 z M 24 24 A 4 4 0 0 0 20 28 A 4 4 0 0 0 24 32 A 4 4 0 0 0 28 28 A 4 4 0 0 0 26.8125 25.160156 A 2 2 0 0 1 27 26 A 2 2 0 0 1 25 28 A 2 2 0 0 1 23 26 A 2 2 0 0 1 24.580078 24.046875 A 4 4 0 0 0 24 24 z"
     id="path10" />
</svg>
