<?xml version="1.0" encoding="UTF-8" standalone="no"?>
<svg
   xmlns:dc="http://purl.org/dc/elements/1.1/"
   xmlns:cc="http://creativecommons.org/ns#"
   xmlns:rdf="http://www.w3.org/1999/02/22-rdf-syntax-ns#"
   xmlns:svg="http://www.w3.org/2000/svg"
   xmlns="http://www.w3.org/2000/svg"
   xmlns:sodipodi="http://sodipodi.sourceforge.net/DTD/sodipodi-0.dtd"
   xmlns:inkscape="http://www.inkscape.org/namespaces/inkscape"
   width="48"
   height="48"
   version="1"
   id="svg54"
   sodipodi:docname="soundnode.svg"
   inkscape:version="0.92.5 (2060ec1f9f, 2020-04-08)">
  <metadata
     id="metadata60">
    <rdf:RDF>
      <cc:Work
         rdf:about="">
        <dc:format>image/svg+xml</dc:format>
        <dc:type
           rdf:resource="http://purl.org/dc/dcmitype/StillImage" />
      </cc:Work>
    </rdf:RDF>
  </metadata>
  <defs
     id="defs58" />
  <sodipodi:namedview
     pagecolor="#ffffff"
     bordercolor="#666666"
     borderopacity="1"
     objecttolerance="10"
     gridtolerance="10"
     guidetolerance="10"
     inkscape:pageopacity="0"
     inkscape:pageshadow="2"
     inkscape:window-width="783"
     inkscape:window-height="480"
     id="namedview56"
     showgrid="false"
     inkscape:zoom="4.9166667"
     inkscape:cx="24"
     inkscape:cy="24"
     inkscape:window-x="0"
     inkscape:window-y="28"
     inkscape:window-maximized="0"
     inkscape:current-layer="svg54" />
  <rect
     fill="#86316b"
     width="40"
     height="40"
     x="4"
     y="4"
     rx="20"
     ry="20"
     id="rect2"
     style="fill:#4c566a;fill-opacity:1" />
  <path
     fill="#fff"
     opacity=".1"
     d="m24 4c-11.08 0-20 8.92-20 20 0 0.168 0.008 0.333 0.0117 0.5 0.2647-10.846 9.0763-19.5 19.988-19.5s19.724 8.6539 19.988 19.5c0.004-0.16686 0.0117-0.33213 0.0117-0.5 0-11.08-8.92-20-20-20z"
     id="path4" />
  <path
     opacity=".2"
     d="m4.0117 24.5c-0.0041 0.167-0.0117 0.332-0.0117 0.5 0 11.08 8.92 20 20 20s20-8.92 20-20c0-0.168-0.008-0.333-0.012-0.5-0.264 10.846-9.076 19.5-19.988 19.5s-19.724-8.654-19.988-19.5z"
     id="path6" />
  <path
     style="fill:none;stroke:#ffffff;opacity:0.6"
     d="m 18,18 12,-5 4,8 -4,12 -9,2 -8,-6 z"
     id="path8" />
  <path
     style="fill:none;stroke:#ffffff;opacity:0.6"
     d="M 25,28 30,13"
     id="path10" />
  <path
     style="fill:none;stroke:#ffffff;opacity:0.6"
     d="M 25,28 18,18"
     id="path12" />
  <path
     style="fill:none;stroke:#ffffff;opacity:0.6"
     d="M 25,28 13,29"
     id="path14" />
  <path
     style="fill:none;stroke:#ffffff;opacity:0.5"
     d="m 25,28 5,5"
     id="path16" />
  <path
     style="fill:none;stroke:#ffffff;opacity:0.6"
     d="m 25,28 -4,7"
     id="path18" />
  <path
     style="fill:none;stroke:#ffffff;opacity:0.6"
     d="m 25,28 9,-7"
     id="path20" />
  <g
     style="opacity:0.2"
     transform="translate(0,1)"
     id="g36">
    <circle
       cx="30"
       cy="13"
       r="2"
       id="circle22" />
    <circle
       cx="34"
       cy="21"
       r="2"
       id="circle24" />
    <circle
       cx="30"
       cy="33"
       r="2"
       id="circle26" />
    <circle
       cx="21"
       cy="35"
       r="2"
       id="circle28" />
    <circle
       cx="13"
       cy="29"
       r="2"
       id="circle30" />
    <circle
       cx="18"
       cy="18"
       r="2"
       id="circle32" />
    <circle
       cx="25"
       cy="28"
       r="2"
       id="circle34" />
  </g>
  <g
     id="g52">
    <circle
       style="fill:#ffffff"
       cx="30"
       cy="13"
       r="2"
       id="circle38" />
    <circle
       style="fill:#ffffff"
       cx="34"
       cy="21"
       r="2"
       id="circle40" />
    <circle
       style="fill:#ffffff"
       cx="30"
       cy="33"
       r="2"
       id="circle42" />
    <circle
       style="fill:#ffffff"
       cx="21"
       cy="35"
       r="2"
       id="circle44" />
    <circle
       style="fill:#ffffff"
       cx="13"
       cy="29"
       r="2"
       id="circle46" />
    <circle
       style="fill:#ffffff"
       cx="18"
       cy="18"
       r="2"
       id="circle48" />
    <circle
       style="fill:#ffffff"
       cx="25"
       cy="28"
       r="2"
       id="circle50" />
  </g>
</svg>
