<?xml version="1.0" encoding="UTF-8" standalone="no"?>
<svg
   xmlns:dc="http://purl.org/dc/elements/1.1/"
   xmlns:cc="http://creativecommons.org/ns#"
   xmlns:rdf="http://www.w3.org/1999/02/22-rdf-syntax-ns#"
   xmlns:svg="http://www.w3.org/2000/svg"
   xmlns="http://www.w3.org/2000/svg"
   xmlns:sodipodi="http://sodipodi.sourceforge.net/DTD/sodipodi-0.dtd"
   xmlns:inkscape="http://www.inkscape.org/namespaces/inkscape"
   width="48"
   height="48"
   version="1"
   id="svg12"
   sodipodi:docname="spideroak.svg"
   inkscape:version="0.92.5 (2060ec1f9f, 2020-04-08)">
  <metadata
     id="metadata18">
    <rdf:RDF>
      <cc:Work
         rdf:about="">
        <dc:format>image/svg+xml</dc:format>
        <dc:type
           rdf:resource="http://purl.org/dc/dcmitype/StillImage" />
      </cc:Work>
    </rdf:RDF>
  </metadata>
  <defs
     id="defs16" />
  <sodipodi:namedview
     pagecolor="#ffffff"
     bordercolor="#666666"
     borderopacity="1"
     objecttolerance="10"
     gridtolerance="10"
     guidetolerance="10"
     inkscape:pageopacity="0"
     inkscape:pageshadow="2"
     inkscape:window-width="765"
     inkscape:window-height="480"
     id="namedview14"
     showgrid="false"
     inkscape:zoom="4.9166667"
     inkscape:cx="-2.9491525"
     inkscape:cy="24"
     inkscape:window-x="0"
     inkscape:window-y="28"
     inkscape:window-maximized="0"
     inkscape:current-layer="svg12" />
  <rect
     fill="#f57635"
     width="40"
     height="40"
     x="4"
     y="4"
     rx="2"
     ry="2"
     id="rect2"
     style="fill:#4c566a;fill-opacity:1" />
  <path
     fill="#fff"
     opacity=".2"
     d="m6 4c-1.108 0-2 0.892-2 2v1c0-1.108 0.892-2 2-2h36c1.108 0 2 0.892 2 2v-1c0-1.108-0.892-2-2-2h-36z"
     id="path4" />
  <path
     opacity=".2"
     d="m6 45c-1.108 0-2-0.892-2-2v-1c0 1.108 0.892 2 2 2h36c1.108 0 2-0.892 2-2v1c0 1.108-0.892 2-2 2h-36z"
     id="path6" />
  <path
     opacity=".2"
     d="m26 15c-3.0388 0.004-5.8129 1.7205-7.1602 4.4316-0.568-0.295-1.199-0.45-1.84-0.452-2.2091 0-4 1.7835-4 3.9824 0.0012 0.13902 0.0096 0.27788 0.02539 0.41602-1.767 0.708-3.025 2.508-3.025 4.645 0 2.758 2.081 4.977 4.666 4.977h18.668c0.4167 0 0.81338-0.07726 1.1973-0.18555 2.5916-0.4924 4.4668-2.7469 4.4688-5.373-0.0021-2.8628-2.2198-5.2406-5.0879-5.4551 0.000133-0.000513 0.01563-0.01758 0.01563-0.01758-0.503-3.978-3.899-6.963-7.928-6.968zm-2 4 3 3 3 3h-4v6h-4v-6h-4l3-3 3-3z"
     id="path8" />
  <path
     fill="#fff"
     d="m26 14c-3.039 0.004-5.813 1.721-7.16 4.432-0.568-0.295-1.199-0.45-1.84-0.452-2.209 0-4 1.784-4 3.983 0.001 0.139 0.01 0.278 0.025 0.416-1.767 0.707-3.025 2.507-3.025 4.644 0 2.758 2.081 4.977 4.666 4.977h18.668c0.417 0 0.813-0.077 1.197-0.186 2.592-0.492 4.467-2.746 4.469-5.373-0.002-2.862-2.22-5.24-5.088-5.455l0.016-0.017c-0.503-3.979-3.899-6.964-7.928-6.969zm-2 4l3 3 3 3h-4v6h-4v-6h-4l3-3 3-3z"
     id="path10" />
</svg>
