<?xml version="1.0" encoding="UTF-8" standalone="no"?>
<svg
   xmlns:dc="http://purl.org/dc/elements/1.1/"
   xmlns:cc="http://creativecommons.org/ns#"
   xmlns:rdf="http://www.w3.org/1999/02/22-rdf-syntax-ns#"
   xmlns:svg="http://www.w3.org/2000/svg"
   xmlns="http://www.w3.org/2000/svg"
   xmlns:sodipodi="http://sodipodi.sourceforge.net/DTD/sodipodi-0.dtd"
   xmlns:inkscape="http://www.inkscape.org/namespaces/inkscape"
   width="48"
   height="48"
   version="1"
   id="svg20"
   sodipodi:docname="eu.tiliado.NuvolaAppSpotify.svg"
   inkscape:version="0.92.5 (2060ec1f9f, 2020-04-08)">
  <metadata
     id="metadata26">
    <rdf:RDF>
      <cc:Work
         rdf:about="">
        <dc:format>image/svg+xml</dc:format>
        <dc:type
           rdf:resource="http://purl.org/dc/dcmitype/StillImage" />
      </cc:Work>
    </rdf:RDF>
  </metadata>
  <defs
     id="defs24" />
  <sodipodi:namedview
     pagecolor="#ffffff"
     bordercolor="#666666"
     borderopacity="1"
     objecttolerance="10"
     gridtolerance="10"
     guidetolerance="10"
     inkscape:pageopacity="0"
     inkscape:pageshadow="2"
     inkscape:window-width="783"
     inkscape:window-height="480"
     id="namedview22"
     showgrid="false"
     inkscape:zoom="4.9166667"
     inkscape:cx="24"
     inkscape:cy="24"
     inkscape:window-x="0"
     inkscape:window-y="28"
     inkscape:window-maximized="0"
     inkscape:current-layer="svg20" />
  <path
     fill="#1ed760"
     d="M24,4L24,4c11,0,20,9,20,20l0,0c0,11-9,20-20,20l0,0C13,44,4,35,4,24l0,0C4,13,13,4,24,4z"
     id="path2"
     style="fill:#4c566a;fill-opacity:1" />
  <path
     fill="#ffffff"
     opacity=".2"
     d="M24,4C12.9,4,4,12.9,4,24c0,0.2,0,0.3,0,0.5C4.3,13.7,13.1,5,24,5s19.7,8.7,20,19.5c0-0.2,0-0.3,0-0.5 C44,12.9,35.1,4,24,4z"
     id="path4" />
  <path
     opacity=".2"
     d="M4,24.5c0,0.2,0,0.3,0,0.5c0,11.1,8.9,20,20,20s20-8.9,20-20c0-0.2,0-0.3,0-0.5C43.7,35.3,34.9,44,24,44 S4.3,35.3,4,24.5L4,24.5z"
     id="path6" />
  <path
     style="opacity:0.2;fill:none;stroke:#ffffff;stroke-width:4;stroke-linecap:round"
     d="M 12,19 C 19.463,17 31,18 37,22"
     id="path8" />
  <path
     style="fill:none;stroke:#ffffff;stroke-width:4;stroke-linecap:round;stroke-opacity:1"
     d="M 12,18 C 19.463,16 32,17 37,21"
     id="path10" />
  <path
     style="opacity:0.2;fill:none;stroke:#ffffff;stroke-width:3;stroke-linecap:round"
     d="M 12.5,25.5 C 21,23.5 29,24.5 34.5,28.5"
     id="path12" />
  <path
     style="fill:none;stroke:#ffffff;stroke-width:3;stroke-linecap:round;stroke-opacity:1"
     d="M 12.5,24.5 C 21,22.5 29,23.5 34.5,27.5"
     id="path14" />
  <path
     style="opacity:0.2;fill:none;stroke:#ffffff;stroke-width:3;stroke-linecap:round"
     d="M 13.5,31.5 C 20,30 26,30 32.5,33.5"
     id="path16" />
  <path
     style="fill:none;stroke:#ffffff;stroke-width:3;stroke-linecap:round;stroke-opacity:1"
     d="M 13.5,30.5 C 20,29 26,29 32.5,32.5"
     id="path18" />
</svg>
