<?xml version="1.0" encoding="UTF-8" standalone="no"?>
<svg
   xmlns:dc="http://purl.org/dc/elements/1.1/"
   xmlns:cc="http://creativecommons.org/ns#"
   xmlns:rdf="http://www.w3.org/1999/02/22-rdf-syntax-ns#"
   xmlns:svg="http://www.w3.org/2000/svg"
   xmlns="http://www.w3.org/2000/svg"
   xmlns:sodipodi="http://sodipodi.sourceforge.net/DTD/sodipodi-0.dtd"
   xmlns:inkscape="http://www.inkscape.org/namespaces/inkscape"
   width="48"
   height="48"
   version="1.1"
   id="svg8"
   sodipodi:docname="appimagekit-substance.svg"
   inkscape:version="0.92.5 (2060ec1f9f, 2020-04-08)">
  <metadata
     id="metadata14">
    <rdf:RDF>
      <cc:Work
         rdf:about="">
        <dc:format>image/svg+xml</dc:format>
        <dc:type
           rdf:resource="http://purl.org/dc/dcmitype/StillImage" />
      </cc:Work>
    </rdf:RDF>
  </metadata>
  <defs
     id="defs12" />
  <sodipodi:namedview
     pagecolor="#ffffff"
     bordercolor="#666666"
     borderopacity="1"
     objecttolerance="10"
     gridtolerance="10"
     guidetolerance="10"
     inkscape:pageopacity="0"
     inkscape:pageshadow="2"
     inkscape:window-width="783"
     inkscape:window-height="480"
     id="namedview10"
     showgrid="false"
     inkscape:zoom="4.9166667"
     inkscape:cx="24"
     inkscape:cy="24"
     inkscape:window-x="0"
     inkscape:window-y="28"
     inkscape:window-maximized="0"
     inkscape:current-layer="svg8" />
  <path
     style="opacity:0.2"
     d="M 24,4 6,15 V 23.5 L 32.182,32.152 24,37 14,31 V 29 L 6,26.5 V 35 L 24,46 42,35 V 26.5 L 15.818,17.848 24,13 34,19 V 21 L 42,23.5 V 15 Z"
     id="path2" />
  <path
     style="fill:#4c566a;fill-opacity:1"
     d="M 24,3 6,14 V 22.5 L 32.182,31.152 24,36 14,30 V 28 L 6,25.5 V 34 L 24,45 42,34 V 25.5 L 15.818,16.848 24,12 34,18 V 20 L 42,22.5 V 14 Z"
     id="path4" />
  <path
     style="fill:#ffffff;opacity:0.2"
     d="M 24 3 L 6 14 L 6 15 L 24 4 L 42 15 L 42 14 L 24 3 z M 16.902 17.205 L 15.818 17.848 L 42 26.5 L 42 25.5 L 16.902 17.205 z M 6 25.5 L 6 26.5 L 14 29 L 14 28 L 6 25.5 z M 14 30 L 14 31 L 24 37 L 32.182 32.152 L 31.098 31.795 L 24 36 L 14 30 z"
     id="path6" />
</svg>
