<?xml version="1.0" encoding="UTF-8" standalone="no"?>
<svg
   xmlns:dc="http://purl.org/dc/elements/1.1/"
   xmlns:cc="http://creativecommons.org/ns#"
   xmlns:rdf="http://www.w3.org/1999/02/22-rdf-syntax-ns#"
   xmlns:svg="http://www.w3.org/2000/svg"
   xmlns="http://www.w3.org/2000/svg"
   xmlns:sodipodi="http://sodipodi.sourceforge.net/DTD/sodipodi-0.dtd"
   xmlns:inkscape="http://www.inkscape.org/namespaces/inkscape"
   width="48"
   height="48"
   version="1"
   id="svg12"
   sodipodi:docname="appimagekit-superpaper.svg"
   inkscape:version="0.92.5 (2060ec1f9f, 2020-04-08)">
  <metadata
     id="metadata18">
    <rdf:RDF>
      <cc:Work
         rdf:about="">
        <dc:format>image/svg+xml</dc:format>
        <dc:type
           rdf:resource="http://purl.org/dc/dcmitype/StillImage" />
      </cc:Work>
    </rdf:RDF>
  </metadata>
  <defs
     id="defs16" />
  <sodipodi:namedview
     pagecolor="#ffffff"
     bordercolor="#666666"
     borderopacity="1"
     objecttolerance="10"
     gridtolerance="10"
     guidetolerance="10"
     inkscape:pageopacity="0"
     inkscape:pageshadow="2"
     inkscape:window-width="783"
     inkscape:window-height="480"
     id="namedview14"
     showgrid="false"
     inkscape:zoom="4.9166667"
     inkscape:cx="24"
     inkscape:cy="24"
     inkscape:window-x="0"
     inkscape:window-y="28"
     inkscape:window-maximized="0"
     inkscape:current-layer="svg12" />
  <rect
     style="opacity:0.2"
     width="40"
     height="40"
     x="-45"
     y="-44"
     rx="2"
     ry="2"
     transform="matrix(0,-1,-1,0,0,0)"
     id="rect2" />
  <rect
     style="fill:#4c566a;fill-opacity:1"
     width="40"
     height="40"
     x="-44"
     y="-44"
     rx="2"
     ry="2"
     transform="matrix(0,-1,-1,0,0,0)"
     id="rect4" />
  <path
     style="opacity:0.2"
     d="m 10,14 v 22 c 4.562779,-1.587172 9.292006,-2.97389 14,-3 4.620527,-0.02562 9.216931,1.278291 14,3 V 14 c -4.730024,1.679201 -9.202262,2.94594 -14,3 -4.531216,0.05106 -9.383498,-1.004177 -14,-3 z m 16.626953,7.232422 6.644531,9.193359 C 26.977436,28.639573 20.68272,28.237173 14.388672,30.599609 l 5.373047,-7.576171 2.861328,3.410156 z"
     id="path6" />
  <path
     style="fill:#ffffff"
     d="m 10,13 v 22 c 4.562779,-1.587172 9.292006,-2.97389 14,-3 4.620527,-0.02562 9.216931,1.278291 14,3 V 13 c -4.730024,1.679201 -9.202262,2.94594 -14,3 -4.531216,0.05106 -9.383498,-1.004177 -14,-3 z m 16.626953,7.232422 6.644531,9.193359 C 26.977436,27.639573 20.68272,27.237173 14.388672,29.599609 l 5.373047,-7.576171 2.861328,3.410156 z"
     id="path8" />
  <path
     style="fill:#ffffff;opacity:0.1"
     d="M 6 4 C 4.8920001 4 4 4.892 4 6 L 4 7 C 4 5.892 4.8920001 5 6 5 L 42 5 C 43.108 5 44 5.892 44 7 L 44 6 C 44 4.892 43.108 4 42 4 L 6 4 z"
     id="path10" />
</svg>
