<?xml version="1.0" encoding="UTF-8" standalone="no"?>
<svg
   xmlns:dc="http://purl.org/dc/elements/1.1/"
   xmlns:cc="http://creativecommons.org/ns#"
   xmlns:rdf="http://www.w3.org/1999/02/22-rdf-syntax-ns#"
   xmlns:svg="http://www.w3.org/2000/svg"
   xmlns="http://www.w3.org/2000/svg"
   xmlns:sodipodi="http://sodipodi.sourceforge.net/DTD/sodipodi-0.dtd"
   xmlns:inkscape="http://www.inkscape.org/namespaces/inkscape"
   width="48"
   height="48"
   version="1"
   id="svg26"
   sodipodi:docname="application-sweethome3d.svg"
   inkscape:version="0.92.5 (2060ec1f9f, 2020-04-08)">
  <metadata
     id="metadata32">
    <rdf:RDF>
      <cc:Work
         rdf:about="">
        <dc:format>image/svg+xml</dc:format>
        <dc:type
           rdf:resource="http://purl.org/dc/dcmitype/StillImage" />
      </cc:Work>
    </rdf:RDF>
  </metadata>
  <defs
     id="defs30" />
  <sodipodi:namedview
     pagecolor="#ffffff"
     bordercolor="#666666"
     borderopacity="1"
     objecttolerance="10"
     gridtolerance="10"
     guidetolerance="10"
     inkscape:pageopacity="0"
     inkscape:pageshadow="2"
     inkscape:window-width="640"
     inkscape:window-height="480"
     id="namedview28"
     showgrid="false"
     inkscape:zoom="4.9166667"
     inkscape:cx="8.7457627"
     inkscape:cy="24"
     inkscape:current-layer="svg26" />
  <path
     style="fill:#4c566a;fill-opacity:1"
     d="M 24.107422 4 L 24.107422 4.0019531 A 4.5656 4.5479 0 0 0 21.716797 4.6074219 L 8.2832031 12.333984 A 4.5656 4.5479 0 0 0 6 16.273438 L 6 31.726562 A 4.5656 4.5479 0 0 0 7.0644531 34.642578 L 24 21 L 40.931641 34.640625 A 4.5656 4.5479 0 0 0 42 31.726562 L 42 16.273438 A 4.5656 4.5479 0 0 0 39.716797 12.333984 L 26.283203 4.6074219 A 4.5656 4.5479 0 0 0 24.107422 4 z M 7.0644531 34.642578 A 4.5656 4.5479 0 0 0 7.375 34.976562 A 4.5656 4.5479 0 0 1 7.0644531 34.642578 z M 7.375 34.976562 A 4.5656 4.5479 0 0 0 7.7167969 35.277344 A 4.5656 4.5479 0 0 1 7.375 34.976562 z M 7.7167969 35.277344 A 4.5656 4.5479 0 0 0 8.0859375 35.542969 A 4.5656 4.5479 0 0 1 7.7167969 35.277344 z M 40.923828 34.650391 A 4.5656 4.5479 0 0 1 39.716797 35.664062 A 4.5656 4.5479 0 0 0 40.923828 34.650391 z M 23.4375 43.964844 A 4.5656 4.5479 0 0 0 24.347656 43.986328 A 4.5656 4.5479 0 0 1 23.4375 43.964844 z"
     id="path2" />
  <path
     style="opacity:0.1;fill:#ffffff"
     d="m 24.107,4.002 a 4.5656,4.5479 0 0 0 -2.39,0.6054 L 8.283,12.334 A 4.5656,4.5479 0 0 0 6,16.273 v 1 a 4.5656,4.5479 0 0 1 2.2832,-3.939 l 13.434,-7.7266 a 4.5656,4.5479 0 0 1 2.3906,-0.60547 4.5656,4.5479 0 0 1 2.1758,0.60547 l 13.434,7.7266 a 4.5656,4.5479 0 0 1 2.283,3.939 v -1 a 4.5656,4.5479 0 0 0 -2.283,-3.939 L 26.2836,4.6074 A 4.5656,4.5479 0 0 0 24.1076,4.002 Z"
     id="path4" />
  <path
     style="opacity:0.2"
     d="m 6,31.726 v 1 a 4.5656,4.5479 0 0 0 2.2832,3.9375 l 13.434,7.7266 a 4.5656,4.5479 0 0 0 4.5664,0 l 13.434,-7.727 a 4.5656,4.5479 0 0 0 2.283,-3.938 v -1 a 4.5656,4.5479 0 0 1 -2.2832,3.9375 l -13.434,7.7266 a 4.5656,4.5479 0 0 1 -4.5664,0 L 8.283,35.6622 A 4.5656,4.5479 0 0 1 6,31.7242 Z"
     id="path6" />
  <path
     style="opacity:0.3"
     d="M 24 4.0039062 A 4.5656 4.5479 0 0 0 21.716797 4.6074219 L 8.2832031 12.333984 A 4.5656 4.5479 0 0 0 6 16.273438 L 6 31.726562 A 4.5656 4.5479 0 0 0 7.0644531 34.642578 L 24 21 L 24 4.0039062 z M 7.0644531 34.642578 A 4.5656 4.5479 0 0 0 7.375 34.976562 A 4.5656 4.5479 0 0 1 7.0644531 34.642578 z M 7.375 34.976562 A 4.5656 4.5479 0 0 0 7.7167969 35.277344 A 4.5656 4.5479 0 0 1 7.375 34.976562 z M 7.7167969 35.277344 A 4.5656 4.5479 0 0 0 8.0859375 35.542969 A 4.5656 4.5479 0 0 1 7.7167969 35.277344 z"
     id="path8" />
  <path
     style="fill:#3c465a;fill-opacity:1"
     d="M 24,21 7.0644531,34.642578 a 4.5656,4.5479 0 0 0 1.21875,1.021484 l 13.4335939,7.726563 a 4.5656,4.5479 0 0 0 4.566406,0 l 13.433594,-7.726563 a 4.5656,4.5479 0 0 0 1.214844,-1.023437 z"
     id="path10" />
  <path
     style="opacity:0.1"
     transform="matrix(1.0584755,0,0,1,-0.97865138,0.57646751)"
     d="m 23.598706,12.423532 10.392304,6.000001 0,12 -10.392305,5.999999 -10.392305,-6 10e-7,-12 z"
     id="path12" />
  <path
     style="opacity:0.2;fill:#ffffff"
     d="M 24,21 7.0644531,34.642578 a 4.5656,4.5479 0 0 0 0.5566407,0.550781 L 24,22 40.376953,35.193359 a 4.5656,4.5479 0 0 0 0.554688,-0.552734 z"
     id="path14" />
  <path
     style="fill:#4c566a;fill-opacity:1"
     transform="matrix(1.0584755,0,0,1,-0.97865138,-0.42353249)"
     d="m 23.598706,12.423532 10.392304,6.000001 0,12 -10.392305,5.999999 -10.392305,-6 10e-7,-12 z"
     id="path16" />
  <path
     style="opacity:0.3"
     d="M 35,18 24,24 V 36 L 35,30 Z"
     id="path18" />
  <path
     style="opacity:0.1"
     d="m 13,18 v 12 l 11,6 V 24 Z"
     id="path20" />
  <path
     style="opacity:0.2;fill:#ffffff"
     d="M 24,12 13,18 13.916016,18.5 24,13 34.083984,18.5 35,18 Z"
     id="path22" />
  <path
     style="opacity:0.1"
     d="m 13,18 v 1 l 11,6 11,-6 v -1 l -11,6 z"
     id="path24" />
</svg>
