<?xml version="1.0" encoding="UTF-8" standalone="no"?>
<svg
   xmlns:dc="http://purl.org/dc/elements/1.1/"
   xmlns:cc="http://creativecommons.org/ns#"
   xmlns:rdf="http://www.w3.org/1999/02/22-rdf-syntax-ns#"
   xmlns:svg="http://www.w3.org/2000/svg"
   xmlns="http://www.w3.org/2000/svg"
   xmlns:sodipodi="http://sodipodi.sourceforge.net/DTD/sodipodi-0.dtd"
   xmlns:inkscape="http://www.inkscape.org/namespaces/inkscape"
   width="48"
   height="48"
   version="1.1"
   id="svg12"
   sodipodi:docname="synapse.svg"
   inkscape:version="0.92.5 (2060ec1f9f, 2020-04-08)">
  <metadata
     id="metadata18">
    <rdf:RDF>
      <cc:Work
         rdf:about="">
        <dc:format>image/svg+xml</dc:format>
        <dc:type
           rdf:resource="http://purl.org/dc/dcmitype/StillImage" />
      </cc:Work>
    </rdf:RDF>
  </metadata>
  <defs
     id="defs16" />
  <sodipodi:namedview
     pagecolor="#ffffff"
     bordercolor="#666666"
     borderopacity="1"
     objecttolerance="10"
     gridtolerance="10"
     guidetolerance="10"
     inkscape:pageopacity="0"
     inkscape:pageshadow="2"
     inkscape:window-width="783"
     inkscape:window-height="480"
     id="namedview14"
     showgrid="false"
     inkscape:zoom="4.9166667"
     inkscape:cx="-1.1186441"
     inkscape:cy="24"
     inkscape:window-x="0"
     inkscape:window-y="28"
     inkscape:window-maximized="0"
     inkscape:current-layer="svg12" />
  <rect
     fill="#20b293"
     width="40"
     height="40"
     x="4"
     y="4"
     rx="20"
     ry="20"
     id="rect2"
     style="fill:#4c566a;fill-opacity:1" />
  <path
     fill="#fff"
     opacity=".2"
     d="m24 4c-11.08 0-20 8.92-20 20 0 0.168-0.004 0.333 0 0.5 0.2644-10.846 9.088-19.5 20-19.5s19.736 8.654 20 19.5c0.004-0.167 0-0.332 0-0.5 0-11.08-8.92-20-20-20z"
     id="path4" />
  <path
     opacity=".2"
     d="m4.0117 24.5c-0.0041 0.167-0.0117 0.332-0.0117 0.5 0 11.08 8.92 20 20 20s20-8.92 20-20c0-0.168-0.008-0.333-0.012-0.5-0.264 10.846-9.076 19.5-19.988 19.5s-19.724-8.654-19.988-19.5z"
     id="path6" />
  <path
     style="opacity:0.2;fill:#030303"
     d="m 23,12 0,3.050781 A 10,10 0 0 0 14.212891,23 l 2.052734,0 A 8,8 0 0 1 24,17 a 8,8 0 0 1 7.740234,6 l 2.056641,0 A 10,10 0 0 0 25,15.060547 L 25,12 23,12 Z m 1,7 a 6,6 0 0 0 -6,6 6,6 0 0 0 0.08984,1 L 19,26 l 1.130859,0 7.736329,0 A 4,4 0 0 1 24,29 4,4 0 0 1 21.361328,28 l -2.550781,0 A 6,6 0 0 0 24,31 6,6 0 0 0 30,25 6,6 0 0 0 29.910156,24 L 29,24 27.869141,24 20.132812,24 A 4,4 0 0 1 24,21 a 4,4 0 0 1 2.638672,1 l 2.550781,0 A 6,6 0 0 0 24,19 Z m -9.796875,8 A 10,10 0 0 0 23,34.939453 L 23,38 l 2,0 0,-3.050781 A 10,10 0 0 0 33.787109,27 l -2.052734,0 A 8,8 0 0 1 24,33 8,8 0 0 1 16.259766,27 l -2.056641,0 z"
     id="path8" />
  <path
     style="fill:#ffffff"
     d="M 23 11 L 23 14.050781 A 10 10 0 0 0 14.212891 22 L 16.265625 22 A 8 8 0 0 1 24 16 A 8 8 0 0 1 31.740234 22 L 33.796875 22 A 10 10 0 0 0 25 14.060547 L 25 11 L 23 11 z M 24 18 A 6 6 0 0 0 18 24 A 6 6 0 0 0 18.089844 25 L 19 25 L 20.130859 25 L 27.867188 25 A 4 4 0 0 1 24 28 A 4 4 0 0 1 21.361328 27 L 18.810547 27 A 6 6 0 0 0 24 30 A 6 6 0 0 0 30 24 A 6 6 0 0 0 29.910156 23 L 29 23 L 27.869141 23 L 20.132812 23 A 4 4 0 0 1 24 20 A 4 4 0 0 1 26.638672 21 L 29.189453 21 A 6 6 0 0 0 24 18 z M 14.203125 26 A 10 10 0 0 0 23 33.939453 L 23 37 L 25 37 L 25 33.949219 A 10 10 0 0 0 33.787109 26 L 31.734375 26 A 8 8 0 0 1 24 32 A 8 8 0 0 1 16.259766 26 L 14.203125 26 z"
     id="path10" />
</svg>
