<?xml version="1.0" encoding="UTF-8" standalone="no"?>
<svg
   xmlns:dc="http://purl.org/dc/elements/1.1/"
   xmlns:cc="http://creativecommons.org/ns#"
   xmlns:rdf="http://www.w3.org/1999/02/22-rdf-syntax-ns#"
   xmlns:svg="http://www.w3.org/2000/svg"
   xmlns="http://www.w3.org/2000/svg"
   xmlns:sodipodi="http://sodipodi.sourceforge.net/DTD/sodipodi-0.dtd"
   xmlns:inkscape="http://www.inkscape.org/namespaces/inkscape"
   width="48"
   height="48"
   version="1.1"
   id="svg18"
   sodipodi:docname="synology-assistant.svg"
   inkscape:version="0.92.5 (2060ec1f9f, 2020-04-08)">
  <metadata
     id="metadata24">
    <rdf:RDF>
      <cc:Work
         rdf:about="">
        <dc:format>image/svg+xml</dc:format>
        <dc:type
           rdf:resource="http://purl.org/dc/dcmitype/StillImage" />
      </cc:Work>
    </rdf:RDF>
  </metadata>
  <defs
     id="defs22" />
  <sodipodi:namedview
     pagecolor="#ffffff"
     bordercolor="#666666"
     borderopacity="1"
     objecttolerance="10"
     gridtolerance="10"
     guidetolerance="10"
     inkscape:pageopacity="0"
     inkscape:pageshadow="2"
     inkscape:window-width="640"
     inkscape:window-height="480"
     id="namedview20"
     showgrid="false"
     inkscape:zoom="4.9166667"
     inkscape:cx="24"
     inkscape:cy="24"
     inkscape:current-layer="svg18" />
  <circle
     style="opacity:0.2"
     cx="24"
     cy="25"
     r="20"
     id="circle2" />
  <circle
     style="fill:#4c566a;fill-opacity:1"
     cx="24"
     cy="24"
     r="20"
     id="circle4" />
  <path
     style="opacity:0.1;fill:#ffffff"
     d="M 24,4 A 20,20 0 0 0 4,24 20,20 0 0 0 4.0215,24.582 20,20 0 0 1 24,5 20,20 0 0 1 43.979,24.418 20,20 0 0 0 44,24 20,20 0 0 0 24,4 Z"
     id="path6" />
  <path
     style="opacity:0.2"
     d="M 24,13 A 12,12 0 0 0 12,25 12,12 0 0 0 24,37 12,12 0 0 0 32.005859,33.919922 3,3 0 0 0 32,34 a 3,3 0 0 0 3,3 3,3 0 0 0 3,-3 3,3 0 0 0 -3,-3 3,3 0 0 0 -0.685547,0.08594 A 12,12 0 0 0 36,25 12,12 0 0 0 24,13 Z m 0,3 a 9,9 0 0 1 9,9 9,9 0 0 1 -9,9 9,9 0 0 1 -9,-9 9,9 0 0 1 9,-9 z m -2,3 v 4 h -4 v 4 h 4 v 4 h 4 v -4 h 4 v -4 h -4 v -4 z"
     id="path8" />
  <path
     style="fill:#ffffff"
     d="M 24,12 A 12,12 0 0 0 12,24 12,12 0 0 0 24,36 12,12 0 0 0 36,24 12,12 0 0 0 24,12 Z m 0,3 a 9,9 0 0 1 9,9 9,9 0 0 1 -9,9 9,9 0 0 1 -9,-9 9,9 0 0 1 9,-9 z"
     id="path10" />
  <rect
     style="fill:#ffffff"
     width="4"
     height="12"
     x="22"
     y="18"
     id="rect12" />
  <rect
     style="fill:#ffffff"
     width="4"
     height="12"
     x="22"
     y="-30"
     transform="rotate(90)"
     id="rect14" />
  <circle
     style="fill:#ffffff"
     cx="35"
     cy="33"
     r="3"
     id="circle16" />
</svg>
