<?xml version="1.0" encoding="UTF-8" standalone="no"?>
<svg
   xmlns:dc="http://purl.org/dc/elements/1.1/"
   xmlns:cc="http://creativecommons.org/ns#"
   xmlns:rdf="http://www.w3.org/1999/02/22-rdf-syntax-ns#"
   xmlns:svg="http://www.w3.org/2000/svg"
   xmlns="http://www.w3.org/2000/svg"
   xmlns:sodipodi="http://sodipodi.sourceforge.net/DTD/sodipodi-0.dtd"
   xmlns:inkscape="http://www.inkscape.org/namespaces/inkscape"
   width="48"
   height="48"
   version="1.1"
   id="svg24"
   sodipodi:docname="synology-cloud-station-drive.svg"
   inkscape:version="0.92.5 (2060ec1f9f, 2020-04-08)">
  <metadata
     id="metadata30">
    <rdf:RDF>
      <cc:Work
         rdf:about="">
        <dc:format>image/svg+xml</dc:format>
        <dc:type
           rdf:resource="http://purl.org/dc/dcmitype/StillImage" />
      </cc:Work>
    </rdf:RDF>
  </metadata>
  <defs
     id="defs28" />
  <sodipodi:namedview
     pagecolor="#ffffff"
     bordercolor="#666666"
     borderopacity="1"
     objecttolerance="10"
     gridtolerance="10"
     guidetolerance="10"
     inkscape:pageopacity="0"
     inkscape:pageshadow="2"
     inkscape:window-width="640"
     inkscape:window-height="480"
     id="namedview26"
     showgrid="false"
     inkscape:zoom="4.9166667"
     inkscape:cx="24"
     inkscape:cy="24"
     inkscape:current-layer="svg24" />
  <path
     style="opacity:.2"
     d="m28 10.000001a10 10 0 0 0 -9.144531 5.96875 7 7 0 0 0 -4.855469 -1.96875 7 7 0 0 0 -7 7 7 7 0 0 0 0.5996094 2.8125 9 9 0 0 0 -3.5996094 7.1875 9 9 0 0 0 8.5 8.974609v0.02539h0.5 20 0.5v-0.01758a11 11 0 0 0 10.5 -10.982419 11 11 0 0 0 -6.037109 -9.802734 10 10 0 0 0 -9.962891 -9.197266z"
     id="path2" />
  <circle
     style="fill:#4c566a;fill-opacity:1"
     cx="28"
     cy="19"
     r="10"
     id="circle4" />
  <circle
     style="fill:#4c566a;fill-opacity:1"
     cx="13"
     cy="30"
     r="9"
     id="circle6" />
  <circle
     style="fill:#4c566a;fill-opacity:1"
     cx="14"
     cy="20"
     r="7"
     id="circle8" />
  <circle
     style="fill:#4c566a;fill-opacity:1"
     cx="33"
     cy="28"
     r="11"
     id="circle10" />
  <rect
     style="fill:#4c566a;fill-opacity:1"
     width="21"
     height="20"
     x="12.5"
     y="19"
     id="rect12" />
  <path
     style="opacity:.2"
     d="m24 20a7 7 0 0 0 -6.921875 6h2.023437a5 5 0 0 1 4.898438 -4 5 5 0 0 1 3.994141 2.005859l-1.994141 1.994141h5v-5l-1.585938 1.585938a7 7 0 0 0 -5.414062 -2.585938zm-7 8v5l1.585938-1.585938a7 7 0 0 0 5.414062 2.585938 7 7 0 0 0 6.921875 -6h-2.023437a5 5 0 0 1 -4.898438 4 5 5 0 0 1 -3.994141 -2.005859l1.994141-1.994141h-2.894531-2.025391-0.080078z"
     id="path14" />
  <path
     style="fill:#ffffff"
     d="m24 19a7 7 0 0 0 -6.921875 6h2.023437a5 5 0 0 1 4.898438 -4 5 5 0 0 1 4.894531 4h2.025391a7 7 0 0 0 -6.919922 -6zm-6.919922 8a7 7 0 0 0 6.919922 6 7 7 0 0 0 6.921875 -6h-2.023437a5 5 0 0 1 -4.898438 4 5 5 0 0 1 -4.894531 -4h-2.025391z"
     id="path16" />
  <path
     style="fill:#ffffff"
     d="m31 25h-5l5-5z"
     id="path18" />
  <path
     style="fill:#ffffff"
     d="m17 27h5l-5 5z"
     id="path20" />
  <path
     style="opacity:.2;fill:#ffffff"
     d="m28 9a10 10 0 0 0 -9.144531 5.96875 7 7 0 0 0 -4.855469 -1.96875 7 7 0 0 0 -7 7 7 7 0 0 0 0.0234375 0.451172 7 7 0 0 1 6.9765625 -6.451172 7 7 0 0 1 4.855469 1.96875 10 10 0 0 1 9.144531 -5.96875 10 10 0 0 1 9.962891 9.197266 11 11 0 0 1 6.013671 9.341796 11 11 0 0 0 0.023438 -0.539062 11 11 0 0 0 -6.037109 -9.802734 10 10 0 0 0 -9.962891 -9.197266zm-20.685547 14.050781a9 9 0 0 0 -3.3144531 6.949219 9 9 0 0 0 0.0253906 0.486328 9 9 0 0 1 3.5742188 -6.673828 7 7 0 0 1 -0.2851563 -0.761719z"
     id="path22" />
</svg>
