<?xml version="1.0" encoding="UTF-8" standalone="no"?>
<svg
   xmlns:dc="http://purl.org/dc/elements/1.1/"
   xmlns:cc="http://creativecommons.org/ns#"
   xmlns:rdf="http://www.w3.org/1999/02/22-rdf-syntax-ns#"
   xmlns:svg="http://www.w3.org/2000/svg"
   xmlns="http://www.w3.org/2000/svg"
   xmlns:sodipodi="http://sodipodi.sourceforge.net/DTD/sodipodi-0.dtd"
   xmlns:inkscape="http://www.inkscape.org/namespaces/inkscape"
   width="48"
   height="48"
   version="1"
   id="svg12"
   sodipodi:docname="gnome-shutdown.svg"
   inkscape:version="0.92.5 (2060ec1f9f, 2020-04-08)">
  <metadata
     id="metadata18">
    <rdf:RDF>
      <cc:Work
         rdf:about="">
        <dc:format>image/svg+xml</dc:format>
        <dc:type
           rdf:resource="http://purl.org/dc/dcmitype/StillImage" />
      </cc:Work>
    </rdf:RDF>
  </metadata>
  <defs
     id="defs16" />
  <sodipodi:namedview
     pagecolor="#ffffff"
     bordercolor="#666666"
     borderopacity="1"
     objecttolerance="10"
     gridtolerance="10"
     guidetolerance="10"
     inkscape:pageopacity="0"
     inkscape:pageshadow="2"
     inkscape:window-width="640"
     inkscape:window-height="480"
     id="namedview14"
     showgrid="false"
     inkscape:zoom="4.9166667"
     inkscape:cx="-15.661017"
     inkscape:cy="24"
     inkscape:current-layer="svg12" />
  <circle
     style="opacity:0.2"
     cx="24"
     cy="25"
     r="20"
     id="circle2" />
  <circle
     style="fill:#4c566a;fill-opacity:1"
     cx="24"
     cy="24"
     r="20"
     id="circle4" />
  <path
     style="opacity:0.2;fill:#ffffff"
     d="M 24,4 A 20,20 0 0 0 4,24 20,20 0 0 0 4.0215,24.582 20,20 0 0 1 23.9995,5 20,20 0 0 1 43.9785,24.418 20,20 0 0 0 43.9995,24 a 20,20 0 0 0 -20,-20 z"
     id="path6" />
  <path
     style="opacity:0.2"
     d="M 23.970703,8.999807 A 2.0002,1.9932184 0 0 0 22,11.019338 v 11.958985 a 2.0002,1.9932184 0 1 0 4,0 V 11.019338 A 2.0002,1.9932184 0 0 0 23.970703,8.999807 Z m -6.712891,4.001953 a 2.0003216,2.0020443 0 0 0 -1.066406,0.353516 c -5.094853,3.426548 -7.367909,9.800278 -5.59375,15.68164 1.77416,5.881363 7.189922,9.930723 13.328125,9.962891 6.138203,0.03217 11.597995,-3.959821 13.433594,-9.822266 1.835598,-5.862446 -0.370966,-12.258523 -5.429687,-15.738281 a 2.0003216,2.0020443 0 1 0 -2.265626,3.296875 c 3.625243,2.493708 5.194355,7.042926 3.878907,11.244141 -1.315449,4.201216 -5.196872,7.038677 -9.595703,7.015625 -4.398833,-0.02305 -8.248112,-2.900463 -9.519532,-7.115235 -1.271419,-4.214773 0.343006,-8.747552 3.994141,-11.203125 A 2.0003216,2.0020443 0 0 0 17.257812,13.00176 Z"
     id="path8" />
  <path
     style="fill:#ffffff"
     d="M 23.970703,8 A 2.0002,1.9932184 0 0 0 22,10.019531 v 11.958985 a 2.0002,1.9932184 0 1 0 4,0 V 10.019531 A 2.0002,1.9932184 0 0 0 23.970703,8 Z m -6.712891,4.001953 a 2.0003216,2.0020443 0 0 0 -1.066406,0.353516 c -5.094853,3.426548 -7.367909,9.800278 -5.59375,15.68164 1.77416,5.881363 7.189922,9.930723 13.328125,9.962891 6.138203,0.03217 11.597995,-3.959821 13.433594,-9.822266 1.835598,-5.862446 -0.370966,-12.258523 -5.429687,-15.738281 a 2.0003216,2.0020443 0 1 0 -2.265626,3.296875 c 3.625243,2.493708 5.194355,7.042926 3.878907,11.244141 -1.315449,4.201216 -5.196872,7.038677 -9.595703,7.015625 -4.398833,-0.02305 -8.248112,-2.900463 -9.519532,-7.115235 -1.271419,-4.214773 0.343006,-8.747552 3.994141,-11.203125 a 2.0003216,2.0020443 0 0 0 -1.164063,-3.675781 z"
     id="path10" />
</svg>
