<?xml version="1.0" encoding="UTF-8" standalone="no"?>
<svg
   xmlns:dc="http://purl.org/dc/elements/1.1/"
   xmlns:cc="http://creativecommons.org/ns#"
   xmlns:rdf="http://www.w3.org/1999/02/22-rdf-syntax-ns#"
   xmlns:svg="http://www.w3.org/2000/svg"
   xmlns="http://www.w3.org/2000/svg"
   xmlns:sodipodi="http://sodipodi.sourceforge.net/DTD/sodipodi-0.dtd"
   xmlns:inkscape="http://www.inkscape.org/namespaces/inkscape"
   width="48"
   height="48"
   version="1"
   id="svg20"
   sodipodi:docname="taisei.svg"
   inkscape:version="0.92.5 (2060ec1f9f, 2020-04-08)">
  <metadata
     id="metadata26">
    <rdf:RDF>
      <cc:Work
         rdf:about="">
        <dc:format>image/svg+xml</dc:format>
        <dc:type
           rdf:resource="http://purl.org/dc/dcmitype/StillImage" />
      </cc:Work>
    </rdf:RDF>
  </metadata>
  <defs
     id="defs24" />
  <sodipodi:namedview
     pagecolor="#ffffff"
     bordercolor="#666666"
     borderopacity="1"
     objecttolerance="10"
     gridtolerance="10"
     guidetolerance="10"
     inkscape:pageopacity="0"
     inkscape:pageshadow="2"
     inkscape:window-width="783"
     inkscape:window-height="480"
     id="namedview22"
     showgrid="false"
     inkscape:zoom="4.9166667"
     inkscape:cx="24"
     inkscape:cy="24"
     inkscape:window-x="0"
     inkscape:window-y="28"
     inkscape:window-maximized="0"
     inkscape:current-layer="svg20" />
  <rect
     style="fill:#4c566a;fill-opacity:1"
     width="40"
     height="40"
     x="4"
     y="4"
     rx="20"
     ry="20"
     id="rect2" />
  <path
     fill="#fff"
     style="opacity:0.1"
     d="m24 4c-11.079 0-19.998 8.92-19.998 20 0 0.16772-0.004 0.33329 0 0.5 0.2642-10.846 9.087-19.5 19.998-19.5s19.734 8.6536 19.998 19.5c0.004-0.16671 0-0.33228 0-0.5 0-11.08-8.919-20-19.998-20z"
     id="path4" />
  <path
     opacity=".2"
     d="m4.0117 24.5c-0.0041 0.167-0.0117 0.332-0.0117 0.5 0 11.08 8.92 20 20 20s20-8.92 20-20c0-0.168-0.008-0.333-0.012-0.5-0.264 10.846-9.076 19.5-19.988 19.5s-19.724-8.654-19.988-19.5z"
     id="path6" />
  <path
     style="opacity:0.3;fill:#ffffff"
     d="M 25.326344,8.1000001 C 32.54712,7.1485396 35.175128,11.561345 38,14.10382 32.964908,13.255816 32.509004,7.130724 23.234577,11.064 15.832216,14.203336 17.002745,20.668764 15,25 L 11.422238,23.066372 C 13.22991,16.327316 18.980811,8.9361324 25.326344,8.1000001 Z"
     id="path8" />
  <path
     style="opacity:0.2"
     d="m 10.095377,23.987194 c -0.9780661,0.05348 -1.7891669,0.110631 -1.9915987,0.629067 -0.5768498,1.818777 1.4392067,1.549704 1.4392067,1.549704 l -0.6303765,-0.68676 c -0.3339286,-1.471466 6.0453115,1.361561 7.7606585,3.457973 4.775907,5.83688 5.149744,13.348682 15.417338,11.88574 1.584428,-0.225751 3.14895,-0.39523 4.643633,-1.764946 -2.045886,0.534331 -3.881156,0.568787 -5.508553,0.751016 -5.718,0.601542 -7.40165,-1.53701 -9.381796,-5.914162 -1.209552,-2.730794 -3.04313,-5.595654 -5.458929,-7.539043 l 0.137655,-2.265427 -1.006121,1.625236 c -1.586608,-1.065513 -3.395849,-1.72859 -5.421117,-1.728398 z"
     id="path10" />
  <path
     style="fill:#ffffff"
     d="m 10.095377,22.987184 c -0.9780661,0.05348 -1.7891669,0.110631 -1.9915987,0.629067 -0.5768498,1.818777 1.4392067,1.549704 1.4392067,1.549704 l -0.6303765,-0.68676 c -0.3339286,-1.471466 6.0453115,1.361561 7.7606585,3.457973 4.775907,5.83688 5.149744,13.348682 15.417338,11.88574 1.584428,-0.225751 3.14895,-0.39523 4.643633,-1.764946 -2.045886,0.534331 -3.881156,0.568787 -5.508553,0.751016 -5.718,0.601542 -7.40165,-1.53701 -9.381796,-5.914162 -1.209552,-2.730794 -3.04313,-5.595654 -5.458929,-7.539043 l 0.137655,-2.265427 -1.006121,1.625236 c -1.586608,-1.065513 -3.395849,-1.72859 -5.421117,-1.728398 z"
     id="path12" />
  <path
     style="opacity:0.2"
     d="m 27,16 v 1 c 0,1.251358 0.0089,1.923467 0.0098,3 H 25 v 2 h 2.015625 c 0.01262,4.187944 0.0504,7.426736 0.240234,9.230469 0.131501,1.249259 0.297611,2.089971 0.75586,2.777343 C 28.469967,34.695186 29.333333,35 30,35 h 1 V 33 H 30 C 29.666667,33 29.780033,33.05481 29.675781,32.898438 29.57153,32.742059 29.36264,32.145272 29.244141,31.019531 29.073133,29.394958 29.032907,26.180998 29.017578,22 H 31 V 20 H 29.011719 C 29.010282,18.921754 29,18.252992 29,17 v -1 z"
     id="path14" />
  <path
     style="fill:none;stroke:#ffffff;stroke-width:2;stroke-linecap:square;stroke-linejoin:round"
     d="m 28,16 c 0,15 0,17 2,17"
     id="path16" />
  <rect
     style="fill:#ffffff"
     width="6"
     height="2"
     x="25"
     y="19"
     id="rect18" />
</svg>
