<?xml version="1.0" encoding="UTF-8" standalone="no"?>
<svg
   xmlns:dc="http://purl.org/dc/elements/1.1/"
   xmlns:cc="http://creativecommons.org/ns#"
   xmlns:rdf="http://www.w3.org/1999/02/22-rdf-syntax-ns#"
   xmlns:svg="http://www.w3.org/2000/svg"
   xmlns="http://www.w3.org/2000/svg"
   xmlns:sodipodi="http://sodipodi.sourceforge.net/DTD/sodipodi-0.dtd"
   xmlns:inkscape="http://www.inkscape.org/namespaces/inkscape"
   width="48"
   height="48"
   version="1"
   id="svg14"
   sodipodi:docname="tamtam-app.svg"
   inkscape:version="0.92.5 (2060ec1f9f, 2020-04-08)">
  <metadata
     id="metadata20">
    <rdf:RDF>
      <cc:Work
         rdf:about="">
        <dc:format>image/svg+xml</dc:format>
        <dc:type
           rdf:resource="http://purl.org/dc/dcmitype/StillImage" />
      </cc:Work>
    </rdf:RDF>
  </metadata>
  <defs
     id="defs18" />
  <sodipodi:namedview
     pagecolor="#ffffff"
     bordercolor="#666666"
     borderopacity="1"
     objecttolerance="10"
     gridtolerance="10"
     guidetolerance="10"
     inkscape:pageopacity="0"
     inkscape:pageshadow="2"
     inkscape:window-width="783"
     inkscape:window-height="480"
     id="namedview16"
     showgrid="false"
     inkscape:zoom="4.9166667"
     inkscape:cx="24"
     inkscape:cy="24"
     inkscape:window-x="0"
     inkscape:window-y="28"
     inkscape:window-maximized="0"
     inkscape:current-layer="svg14" />
  <rect
     style="opacity:0.2"
     width="40"
     height="40"
     x="4"
     y="5"
     rx="20"
     ry="20"
     id="rect2" />
  <rect
     style="fill:#4c566a;fill-opacity:1"
     width="40"
     height="40"
     x="4"
     y="4"
     rx="20"
     ry="20"
     id="rect4" />
  <path
     style="opacity:0.1;fill:#ffffff"
     d="M 24,4 C 12.92,4 4,12.92 4,24 4,24.167874 4.00765,24.333141 4.011719,24.5 4.2763904,13.653863 13.087874,5 24,5 34.912126,5 43.72361,13.653863 43.988281,24.5 43.992353,24.333141 44,24.167874 44,24 44,12.92 35.08,4 24,4 Z"
     id="path6" />
  <path
     style="opacity:0.2"
     d="m 24,12.999927 a 12,12 0 0 0 -12,12 12,12 0 0 0 5,9.728516 v 1.269531 3.400391 a 0.50805035,0.60005726 0 0 0 0.761719,0.521484 l 2.492187,-1.701172 1.992188,-1.357422 A 12,12 0 0 0 24,36.999927 a 12,12 0 0 0 12,-12 12,12 0 0 0 -12,-12 z m -6,12 h 12 c 0,3.313708 -2.686292,6 -6,6 -3.313708,0 -6,-2.686292 -6,-6 z"
     id="path8" />
  <path
     style="fill:#ffffff"
     d="M 24,12 A 12,12 0 0 0 12,24 12,12 0 0 0 24,36 12,12 0 0 0 36,24 12,12 0 0 0 24,12 Z m -6,12 h 12 c 0,3.313708 -2.686292,6 -6,6 -3.313708,0 -6,-2.686292 -6,-6 z"
     id="path10" />
  <path
     style="fill:#ffffff"
     d="M 17.519906,31.000164 A 0.50805035,0.60005726 0 0 0 17,31.600161 v 3.398423 3.400766 a 0.50805035,0.60005726 0 0 0 0.761999,0.52031 l 2.492373,-1.701555 2.492373,-1.69921 a 0.50805035,0.60005726 0 0 0 0,-1.038277 l -2.492373,-1.69921 -2.492373,-1.701556 a 0.50805035,0.60005726 0 0 0 -0.242093,-0.07969 z"
     id="path12" />
</svg>
