<?xml version="1.0" encoding="UTF-8" standalone="no"?>
<svg
   xmlns:dc="http://purl.org/dc/elements/1.1/"
   xmlns:cc="http://creativecommons.org/ns#"
   xmlns:rdf="http://www.w3.org/1999/02/22-rdf-syntax-ns#"
   xmlns:svg="http://www.w3.org/2000/svg"
   xmlns="http://www.w3.org/2000/svg"
   xmlns:sodipodi="http://sodipodi.sourceforge.net/DTD/sodipodi-0.dtd"
   xmlns:inkscape="http://www.inkscape.org/namespaces/inkscape"
   width="48"
   height="48"
   version="1"
   id="svg16"
   sodipodi:docname="appimagekit-tandem.svg"
   inkscape:version="0.92.5 (2060ec1f9f, 2020-04-08)">
  <metadata
     id="metadata22">
    <rdf:RDF>
      <cc:Work
         rdf:about="">
        <dc:format>image/svg+xml</dc:format>
        <dc:type
           rdf:resource="http://purl.org/dc/dcmitype/StillImage" />
      </cc:Work>
    </rdf:RDF>
  </metadata>
  <defs
     id="defs20" />
  <sodipodi:namedview
     pagecolor="#ffffff"
     bordercolor="#666666"
     borderopacity="1"
     objecttolerance="10"
     gridtolerance="10"
     guidetolerance="10"
     inkscape:pageopacity="0"
     inkscape:pageshadow="2"
     inkscape:window-width="783"
     inkscape:window-height="480"
     id="namedview18"
     showgrid="false"
     inkscape:zoom="4.9166667"
     inkscape:cx="24"
     inkscape:cy="24"
     inkscape:window-x="0"
     inkscape:window-y="28"
     inkscape:window-maximized="0"
     inkscape:current-layer="svg16" />
  <path
     style="opacity:0.2"
     width="40"
     height="40"
     x="4"
     y="5"
     d="m 12,5 h 28 a 4,4 45 0 1 4,4 v 28 a 8,8 135 0 1 -8,8 H 8 A 4,4 45 0 1 4,41 V 13 a 8,8 135 0 1 8,-8 z"
     id="path2" />
  <path
     style="fill:#4c566a;fill-opacity:1"
     width="40"
     height="40"
     x="4"
     y="4"
     d="m 12,4 h 28 a 4,4 45 0 1 4,4 v 28 a 8,8 135 0 1 -8,8 H 8 A 4,4 45 0 1 4,40 V 12 a 8,8 135 0 1 8,-8 z"
     id="path4" />
  <path
     style="opacity:0.1;fill:#ffffff"
     d="m 12,4 a 8,8 0 0 0 -8,8 v 1 a 8,8 0 0 1 8,-8 h 28 a 4,4 0 0 1 4,4 V 8 A 4,4 0 0 0 40,4 Z"
     id="path6" />
  <path
     style="opacity:0.2"
     d="m 27,20 8,-6 v 16 l -8,6 z"
     id="path8" />
  <path
     style="opacity:0.2"
     d="m 12,20 8,-6 v 16 l -8,6 z"
     id="path10" />
  <path
     style="fill:#ffffff"
     d="m 27,19 8,-6 v 16 l -8,6 z"
     id="path12" />
  <path
     style="fill:#ffffff"
     d="m 12,19 8,-6 v 16 l -8,6 z"
     id="path14" />
</svg>
