<?xml version="1.0" encoding="UTF-8" standalone="no"?>
<svg
   xmlns:dc="http://purl.org/dc/elements/1.1/"
   xmlns:cc="http://creativecommons.org/ns#"
   xmlns:rdf="http://www.w3.org/1999/02/22-rdf-syntax-ns#"
   xmlns:svg="http://www.w3.org/2000/svg"
   xmlns="http://www.w3.org/2000/svg"
   xmlns:sodipodi="http://sodipodi.sourceforge.net/DTD/sodipodi-0.dtd"
   xmlns:inkscape="http://www.inkscape.org/namespaces/inkscape"
   width="48"
   height="48"
   version="1"
   id="svg12"
   sodipodi:docname="team-fortress2.svg"
   inkscape:version="0.92.5 (2060ec1f9f, 2020-04-08)">
  <metadata
     id="metadata18">
    <rdf:RDF>
      <cc:Work
         rdf:about="">
        <dc:format>image/svg+xml</dc:format>
        <dc:type
           rdf:resource="http://purl.org/dc/dcmitype/StillImage" />
      </cc:Work>
    </rdf:RDF>
  </metadata>
  <defs
     id="defs16" />
  <sodipodi:namedview
     pagecolor="#ffffff"
     bordercolor="#666666"
     borderopacity="1"
     objecttolerance="10"
     gridtolerance="10"
     guidetolerance="10"
     inkscape:pageopacity="0"
     inkscape:pageshadow="2"
     inkscape:window-width="783"
     inkscape:window-height="480"
     id="namedview14"
     showgrid="false"
     inkscape:zoom="4.9166667"
     inkscape:cx="24"
     inkscape:cy="24"
     inkscape:window-x="0"
     inkscape:window-y="28"
     inkscape:window-maximized="0"
     inkscape:current-layer="svg12" />
  <path
     fill="#d65c2f"
     d="m44 24a20 20 0 0 1 -20 20 20 20 0 0 1 -20 -20 20 20 0 0 1 20 -20 20 20 0 0 1 20 20z"
     id="path2"
     style="fill:#4c566a;fill-opacity:1" />
  <path
     fill="#fff"
     opacity=".2"
     d="m24 4a20 20 0 0 0 -20 20 20 20 0 0 0 0.0215 0.582 20 20 0 0 1 19.978 -19.582 20 20 0 0 1 19.978 19.418 20 20 0 0 0 0.022 -0.418 20 20 0 0 0 -20 -20z"
     id="path4" />
  <path
     opacity=".2"
     d="m43.979 24.418a20 20 0 0 1 -19.979 19.582 20 20 0 0 1 -19.978 -19.418 20 20 0 0 0 -0.022 0.418 20 20 0 0 0 20 20 20 20 0 0 0 20 -20 20 20 0 0 0 -0.021 -0.582z"
     id="path6" />
  <path
     opacity=".2"
     d="m30.045 10.178-2.3726 8.8546a7.0096 7.0096 0 0 1 3.3278 5.7694l8.8527 2.3721a16.022 16.022 0 0 0 -9.808 -16.996zm-3.871-1.0311a16.022 16.022 0 0 0 -16.996 9.8078l8.8546 2.3726a7.0096 7.0096 0 0 1 5.7694 -3.3278l2.372-8.8528zm-18.027 13.679a16.022 16.022 0 0 0 9.8079 16.996l2.3726-8.8546a7.0096 7.0096 0 0 1 -3.328 -5.769l-8.8528-2.372zm21.82 5.8466a7.0096 7.0096 0 0 1 -5.7694 3.3278l-2.3721 8.8527a16.022 16.022 0 0 0 16.996 -9.8079l-8.8546-2.3726z"
     id="path8" />
  <path
     fill="#fff"
     d="m30.045 9.1781-2.3726 8.8546a7.0096 7.0096 0 0 1 3.3278 5.7694l8.8527 2.3721a16.022 16.022 0 0 0 -9.808 -16.996zm-3.871-1.0311a16.022 16.022 0 0 0 -16.996 9.8078l8.8546 2.3726a7.0096 7.0096 0 0 1 5.7694 -3.3278l2.372-8.8528zm-18.027 13.679a16.022 16.022 0 0 0 9.8079 16.996l2.3726-8.8546a7.0096 7.0096 0 0 1 -3.328 -5.769l-8.8528-2.372zm21.82 5.8466a7.0096 7.0096 0 0 1 -5.7694 3.3278l-2.3721 8.8527a16.022 16.022 0 0 0 16.996 -9.8079l-8.8546-2.3726z"
     id="path10" />
</svg>
