<?xml version="1.0" encoding="UTF-8" standalone="no"?>
<svg
   xmlns:dc="http://purl.org/dc/elements/1.1/"
   xmlns:cc="http://creativecommons.org/ns#"
   xmlns:rdf="http://www.w3.org/1999/02/22-rdf-syntax-ns#"
   xmlns:svg="http://www.w3.org/2000/svg"
   xmlns="http://www.w3.org/2000/svg"
   xmlns:sodipodi="http://sodipodi.sourceforge.net/DTD/sodipodi-0.dtd"
   xmlns:inkscape="http://www.inkscape.org/namespaces/inkscape"
   width="48"
   height="48"
   version="1.1"
   id="svg34"
   sodipodi:docname="teams-for-linux.svg"
   inkscape:version="0.92.5 (2060ec1f9f, 2020-04-08)">
  <metadata
     id="metadata40">
    <rdf:RDF>
      <cc:Work
         rdf:about="">
        <dc:format>image/svg+xml</dc:format>
        <dc:type
           rdf:resource="http://purl.org/dc/dcmitype/StillImage" />
      </cc:Work>
    </rdf:RDF>
  </metadata>
  <defs
     id="defs38" />
  <sodipodi:namedview
     pagecolor="#ffffff"
     bordercolor="#666666"
     borderopacity="1"
     objecttolerance="10"
     gridtolerance="10"
     guidetolerance="10"
     inkscape:pageopacity="0"
     inkscape:pageshadow="2"
     inkscape:window-width="783"
     inkscape:window-height="480"
     id="namedview36"
     showgrid="false"
     inkscape:zoom="4.9166667"
     inkscape:cx="24"
     inkscape:cy="24"
     inkscape:window-x="0"
     inkscape:window-y="28"
     inkscape:window-maximized="0"
     inkscape:current-layer="svg34" />
  <path
     style="opacity:0.2"
     d="m 39,8 a 5,5 0 0 0 -5,5 5,5 0 0 0 5,5 5,5 0 0 0 5,-5 5,5 0 0 0 -5,-5 z M 33.5,20 C 32.669,20 32,20.669 32,21.5 V 22 31.136719 32 a 7,7 0 0 0 7,7 7,7 0 0 0 7,-7 V 31.136719 22 21.5 C 46,20.669 45.331,20 44.5,20 Z"
     id="path2" />
  <path
     style="opacity:0.2"
     d="m 25,4 a 7,7 0 0 0 -7,7 7,7 0 0 0 7,7 7,7 0 0 0 7,-7 7,7 0 0 0 -7,-7 z M 16.5,20 C 15.115,20 14,21.115 14,22.5 V 25 33.5 35 A 11,11 0 0 0 25,46 11,11 0 0 0 36,35 V 33.5 25 22.5 C 36,21.115 34.885,20 33.5,20 Z"
     id="path4" />
  <path
     style="fill:#5f697d;fill-opacity:1"
     d="M 33.5 19 C 32.669 19 32 19.669 32 20.5 L 32 21 L 32 30.136719 L 32 31 L 32.275391 31 L 45.724609 31 L 46 31 L 46 30.136719 L 46 21 L 46 20.5 C 46 19.669 45.331 19 44.5 19 L 33.5 19 z"
     id="path6" />
  <circle
     style="fill:#5f697d;fill-opacity:1"
     cx="39"
     cy="31"
     r="7"
     id="circle8" />
  <circle
     style="fill:#5f697d;fill-opacity:1"
     cx="39"
     cy="12"
     r="5"
     id="circle10" />
  <path
     style="opacity:0.1;fill:#ffffff"
     d="M 39 7 A 5 5 0 0 0 34 12 A 5 5 0 0 0 34.027344 12.515625 A 5 5 0 0 1 39 8 A 5 5 0 0 1 43.972656 12.484375 A 5 5 0 0 0 44 12 A 5 5 0 0 0 39 7 z M 33.5 19 C 32.669 19 32 19.669 32 20.5 L 32 21 L 32 21.5 C 32 20.669 32.669 20 33.5 20 L 44.5 20 C 45.331 20 46 20.669 46 21.5 L 46 21 L 46 20.5 C 46 19.669 45.331 19 44.5 19 L 33.5 19 z"
     id="path12" />
  <circle
     style="fill:#4c566a;fill-opacity:1"
     cx="25"
     cy="10"
     r="7"
     id="circle14" />
  <path
     style="fill:#4c566a;fill-opacity:1"
     d="M 16.5 19 C 15.115 19 14 20.115 14 21.5 L 14 24 L 14 32.5 L 14 34 L 14.507812 34 C 14.963265 34.604994 15.681048 35 16.5 35 L 33.5 35 C 34.318952 35 35.036735 34.604994 35.492188 34 L 36 34 L 36 32.5 L 36 24 L 36 21.5 C 36 20.115 34.885 19 33.5 19 L 16.5 19 z"
     id="path16" />
  <path
     style="opacity:0.2;fill:#ffffff"
     d="M 25 3 A 7 7 0 0 0 18 10 A 7 7 0 0 0 18.023438 10.458984 A 7 7 0 0 1 25 4 A 7 7 0 0 1 31.976562 10.541016 A 7 7 0 0 0 32 10 A 7 7 0 0 0 25 3 z M 16.5 19 C 15.115 19 14 20.115 14 21.5 L 14 22.5 C 14 21.115 15.115 20 16.5 20 L 33.5 20 C 34.885 20 36 21.115 36 22.5 L 36 21.5 C 36 20.115 34.885 19 33.5 19 L 16.5 19 z"
     id="path18" />
  <circle
     style="fill:#4c566a;fill-opacity:1"
     cx="25"
     cy="34"
     r="11"
     id="circle20" />
  <rect
     style="opacity:0.1"
     width="22"
     height="22"
     x="2"
     y="14"
     rx="1.5"
     ry="1.5"
     id="rect22" />
  <rect
     style="fill:#5f697d;fill-opacity:1"
     width="22"
     height="22"
     x="2"
     y="13"
     rx="1.5"
     ry="1.5"
     id="rect24" />
  <path
     style="opacity:0.2"
     d="m 7,18 v 4 h 4 v 10 h 4 V 22 h 4 v -4 z"
     id="path26" />
  <rect
     style="fill:#ffffff"
     width="12"
     height="4"
     x="7"
     y="17"
     id="rect28" />
  <rect
     style="fill:#ffffff"
     width="10"
     height="4"
     x="21"
     y="-15"
     transform="rotate(90)"
     id="rect30" />
  <path
     style="opacity:0.1;fill:#ffffff"
     d="M 3.5 13 C 2.669 13 2 13.669 2 14.5 L 2 15.5 C 2 14.669 2.669 14 3.5 14 L 22.5 14 C 23.331 14 24 14.669 24 15.5 L 24 14.5 C 24 13.669 23.331 13 22.5 13 L 3.5 13 z"
     id="path32" />
</svg>
