<?xml version="1.0" encoding="UTF-8" standalone="no"?>
<svg
   xmlns:dc="http://purl.org/dc/elements/1.1/"
   xmlns:cc="http://creativecommons.org/ns#"
   xmlns:rdf="http://www.w3.org/1999/02/22-rdf-syntax-ns#"
   xmlns:svg="http://www.w3.org/2000/svg"
   xmlns="http://www.w3.org/2000/svg"
   xmlns:sodipodi="http://sodipodi.sourceforge.net/DTD/sodipodi-0.dtd"
   xmlns:inkscape="http://www.inkscape.org/namespaces/inkscape"
   width="48"
   height="48"
   version="1"
   id="svg12"
   sodipodi:docname="brave-clhhggbfdinjmjhajaheehoeibfljjno-Default.svg"
   inkscape:version="0.92.5 (2060ec1f9f, 2020-04-08)">
  <metadata
     id="metadata18">
    <rdf:RDF>
      <cc:Work
         rdf:about="">
        <dc:format>image/svg+xml</dc:format>
        <dc:type
           rdf:resource="http://purl.org/dc/dcmitype/StillImage" />
      </cc:Work>
    </rdf:RDF>
  </metadata>
  <defs
     id="defs16" />
  <sodipodi:namedview
     pagecolor="#ffffff"
     bordercolor="#666666"
     borderopacity="1"
     objecttolerance="10"
     gridtolerance="10"
     guidetolerance="10"
     inkscape:pageopacity="0"
     inkscape:pageshadow="2"
     inkscape:window-width="640"
     inkscape:window-height="480"
     id="namedview14"
     showgrid="false"
     inkscape:zoom="4.9166667"
     inkscape:cx="24"
     inkscape:cy="24"
     inkscape:current-layer="svg12" />
  <circle
     style="opacity:0.2"
     cx="24.20339"
     cy="25.313559"
     r="20"
     id="circle2" />
  <circle
     cx="24.20339"
     cy="24.313559"
     r="20"
     id="circle4"
     style="fill:#4c566a;fill-opacity:1" />
  <path
     inkscape:connector-curvature="0"
     style="opacity:0.2;fill:#ffffff"
     d="m 24.20339,4.3135593 c -11.079,0 -19.9980002,8.9199997 -19.9980002,19.9999997 0,0.16772 -0.004,0.33329 0,0.5 0.2642,-10.846 9.0870002,-19.4999997 19.9980002,-19.4999997 10.911,0 19.734,8.6535997 19.998,19.4999997 0.004,-0.16671 0,-0.33228 0,-0.5 0,-11.08 -8.919,-19.9999997 -19.998,-19.9999997 z"
     id="path6" />
  <path
     inkscape:connector-curvature="0"
     style="opacity:0.2"
     d="m 31.28239,34.443559 c 0.38,-0.738 2.566,-13.352 2.879,-16.612 0.338,-3.232 -1.425,-2.631 -3.047,-2.085 -3.979,1.344 -16.562,6.791 -20.006,8.588 -0.847,0.352 -1.2140002,0.948 -0.597,1.465 0.531,0.437 2.475,1.039 4.042,1.344 1.337,0.404 2.375,0.017 3.333,-0.524 2.302,-1.365 9.163,-5.707 9.533,-5.949 0.369,-0.242 0.773,0.208 0.567,0.425 -0.207,0.217 -5.066,4.575 -6.662,6.545 -0.845,1.083 -0.819,1.662 0.049,2.345 1.948,1.527 7.152,5.009 7.926,5.22 0.988,0.268 1.566,0.046 1.983,-0.762 z"
     id="path8" />
  <path
     inkscape:connector-curvature="0"
     style="fill:#ffffff"
     d="m 31.28239,33.443559 c 0.38,-0.738 2.566,-13.352 2.879,-16.612 0.338,-3.232 -1.425,-2.631 -3.047,-2.085 -3.979,1.344 -16.562,6.791 -20.006,8.588 -0.847,0.352 -1.2140002,0.948 -0.597,1.465 0.531,0.437 2.475,1.039 4.042,1.344 1.337,0.404 2.375,0.017 3.333,-0.524 2.302,-1.365 9.163,-5.707 9.533,-5.949 0.369,-0.242 0.773,0.208 0.567,0.425 -0.207,0.217 -5.066,4.575 -6.662,6.545 -0.845,1.083 -0.819,1.662 0.049,2.345 1.948,1.527 7.152,5.009 7.926,5.22 0.988,0.268 1.566,0.046 1.983,-0.762 z"
     id="path10" />
</svg>
