<?xml version="1.0" encoding="UTF-8" standalone="no"?>
<svg
   xmlns:dc="http://purl.org/dc/elements/1.1/"
   xmlns:cc="http://creativecommons.org/ns#"
   xmlns:rdf="http://www.w3.org/1999/02/22-rdf-syntax-ns#"
   xmlns:svg="http://www.w3.org/2000/svg"
   xmlns="http://www.w3.org/2000/svg"
   xmlns:sodipodi="http://sodipodi.sourceforge.net/DTD/sodipodi-0.dtd"
   xmlns:inkscape="http://www.inkscape.org/namespaces/inkscape"
   height="48"
   width="48"
   version="1.1"
   id="svg18"
   sodipodi:docname="terratech.svg"
   inkscape:version="0.92.5 (2060ec1f9f, 2020-04-08)">
  <metadata
     id="metadata24">
    <rdf:RDF>
      <cc:Work
         rdf:about="">
        <dc:format>image/svg+xml</dc:format>
        <dc:type
           rdf:resource="http://purl.org/dc/dcmitype/StillImage" />
      </cc:Work>
    </rdf:RDF>
  </metadata>
  <defs
     id="defs22" />
  <sodipodi:namedview
     pagecolor="#ffffff"
     bordercolor="#666666"
     borderopacity="1"
     objecttolerance="10"
     gridtolerance="10"
     guidetolerance="10"
     inkscape:pageopacity="0"
     inkscape:pageshadow="2"
     inkscape:window-width="783"
     inkscape:window-height="480"
     id="namedview20"
     showgrid="false"
     inkscape:zoom="4.9166667"
     inkscape:cx="24"
     inkscape:cy="24"
     inkscape:window-x="0"
     inkscape:window-y="28"
     inkscape:window-maximized="0"
     inkscape:current-layer="svg18" />
  <path
     style="opacity:.2"
     d="m24 5-20 20 20 20 20-20z"
     id="path2" />
  <path
     style="fill:#5f697d;fill-opacity:1"
     d="m24 4-20 20 20 20 20-20z"
     id="path4" />
  <path
     style="opacity:.1;fill:#ffffff"
     d="m24 4l-20 20 0.5 0.5 19.5-19.5 19.5 19.5 0.5-0.5-20-20z"
     id="path6" />
  <rect
     style="opacity:.2"
     rx="2.909091"
     ry="2.909091"
     height="32"
     width="32"
     y="9"
     x="8"
     id="rect8" />
  <rect
     style="fill:#4c566a;fill-opacity:1"
     rx="2.909091"
     ry="2.909091"
     height="32"
     width="32"
     y="8"
     x="8"
     id="rect10" />
  <path
     style="opacity:.2"
     d="m17 22v-4h4l3 3 3-3h4v4l-3 3 3 3v4h-4l-3-3-3 3h-4v-4l3-3z"
     id="path12" />
  <path
     style="fill:#ffffff"
     d="m17 21v-4h4l3 3 3-3h4v4l-3 3 3 3v4h-4l-3-3-3 3h-4v-4l3-3z"
     id="path14" />
  <path
     style="opacity:.2;fill:#ffffff"
     d="m10.908203 8c-1.6116363 0-2.908203 1.2965667-2.908203 2.908203v1c0-1.611636 1.2965667-2.908203 2.908203-2.908203h26.183594c1.611636 0 2.908203 1.296567 2.908203 2.908203v-1c0-1.6116363-1.296567-2.908203-2.908203-2.908203h-26.183594z"
     id="path16" />
</svg>
