<?xml version="1.0" encoding="UTF-8" standalone="no"?>
<svg
   xmlns:dc="http://purl.org/dc/elements/1.1/"
   xmlns:cc="http://creativecommons.org/ns#"
   xmlns:rdf="http://www.w3.org/1999/02/22-rdf-syntax-ns#"
   xmlns:svg="http://www.w3.org/2000/svg"
   xmlns="http://www.w3.org/2000/svg"
   xmlns:sodipodi="http://sodipodi.sourceforge.net/DTD/sodipodi-0.dtd"
   xmlns:inkscape="http://www.inkscape.org/namespaces/inkscape"
   width="48"
   height="48"
   version="1"
   id="svg12"
   sodipodi:docname="texmaker.svg"
   inkscape:version="0.92.5 (2060ec1f9f, 2020-04-08)">
  <metadata
     id="metadata18">
    <rdf:RDF>
      <cc:Work
         rdf:about="">
        <dc:format>image/svg+xml</dc:format>
        <dc:type
           rdf:resource="http://purl.org/dc/dcmitype/StillImage" />
      </cc:Work>
    </rdf:RDF>
  </metadata>
  <defs
     id="defs16" />
  <sodipodi:namedview
     pagecolor="#ffffff"
     bordercolor="#666666"
     borderopacity="1"
     objecttolerance="10"
     gridtolerance="10"
     guidetolerance="10"
     inkscape:pageopacity="0"
     inkscape:pageshadow="2"
     inkscape:window-width="783"
     inkscape:window-height="480"
     id="namedview14"
     showgrid="false"
     inkscape:zoom="4.9166667"
     inkscape:cx="24"
     inkscape:cy="24"
     inkscape:window-x="0"
     inkscape:window-y="28"
     inkscape:window-maximized="0"
     inkscape:current-layer="svg12" />
  <path
     style="opacity:0.2"
     d="m 7,11 a 4.0004,4.0004 0 0 0 -4,4 v 4 a 4.0004,4.0004 0 0 0 3,3.869141 V 31 a 4.0004,4.0004 0 0 0 4,4 h 4 a 4.0004,4.0004 0 0 0 1,-0.132812 V 35 a 4.0004,4.0004 0 0 0 4,4 h 10 a 4.0004,4.0004 0 0 0 4,-4 h 1.333984 A 4.0004,4.0004 0 0 0 36,34.630859 4.0004,4.0004 0 0 0 37.666016,35 H 41 a 4.0004,4.0004 0 0 0 3.751953,-5.386719 l -2.466797,-6.673828 2.458985,-6.529297 A 4.0004,4.0004 0 0 0 41,11 H 37.666016 A 4.0004,4.0004 0 0 0 36,11.369141 4.0004,4.0004 0 0 0 34.333984,11 H 31 a 4.0004,4.0004 0 0 0 -3.996094,4 H 21 a 4.0004,4.0004 0 0 0 -4,-4 z"
     id="path2" />
  <path
     style="fill:#4c566a;fill-opacity:1"
     d="m 7,10 a 4.0004,4.0004 0 0 0 -4,4 v 4 a 4.0004,4.0004 0 0 0 3,3.869141 V 30 a 4.0004,4.0004 0 0 0 4,4 h 4 a 4.0004,4.0004 0 0 0 1,-0.132812 V 34 a 4.0004,4.0004 0 0 0 4,4 h 10 a 4.0004,4.0004 0 0 0 4,-4 h 1.333984 A 4.0004,4.0004 0 0 0 36,33.630859 4.0004,4.0004 0 0 0 37.666016,34 H 41 a 4.0004,4.0004 0 0 0 3.751953,-5.386719 l -2.466797,-6.673828 2.458985,-6.529297 A 4.0004,4.0004 0 0 0 41,10 H 37.666016 A 4.0004,4.0004 0 0 0 36,10.369141 4.0004,4.0004 0 0 0 34.333984,10 H 31 a 4.0004,4.0004 0 0 0 -3.996094,4 H 21 a 4.0004,4.0004 0 0 0 -4,-4 z"
     id="path4" />
  <path
     style="opacity:0.2"
     d="m 7,15 v 4 h 3 v 12 h 4 V 19 h 3 v -4 z m 24,0 2.984375,7.927734 L 31,31 h 3.333984 L 36,27 37.666016,31 H 41 L 38.015625,22.927734 41,15 H 37.666016 L 36,19 34.333984,15 Z m -12,4 v 16 h 10 v -4 h -6 v -2 h 6 v -4 h -6 v -2 h 6 v -4 z"
     id="path6" />
  <path
     style="fill:#ffffff"
     d="m 7,14 v 4 h 3 v 12 h 4 V 18 h 3 v -4 z m 24,0 2.984375,7.927734 L 31,30 h 3.333984 L 36,26 37.666016,30 H 41 L 38.015625,21.927734 41,14 H 37.666016 L 36,18 34.333984,14 Z m -12,4 v 16 h 10 v -4 h -6 v -2 h 6 v -4 h -6 v -2 h 6 v -4 z"
     id="path8" />
  <path
     style="opacity:0.1;fill:#ffffff"
     d="M 7 10 A 4.0004 4.0004 0 0 0 3 14 L 3 15 A 4.0004 4.0004 0 0 1 7 11 L 17 11 A 4.0004 4.0004 0 0 1 21 15 L 27.003906 15 A 4.0004 4.0004 0 0 1 31 11 L 34.333984 11 A 4.0004 4.0004 0 0 1 36 11.369141 A 4.0004 4.0004 0 0 1 37.666016 11 L 41 11 A 4.0004 4.0004 0 0 1 44.964844 14.494141 A 4.0004 4.0004 0 0 0 41 10 L 37.666016 10 A 4.0004 4.0004 0 0 0 36 10.369141 A 4.0004 4.0004 0 0 0 34.333984 10 L 31 10 A 4.0004 4.0004 0 0 0 27.003906 14 L 21 14 A 4.0004 4.0004 0 0 0 17 10 L 7 10 z M 42.472656 22.443359 L 42.285156 22.939453 L 44.751953 29.613281 A 4.0004 4.0004 0 0 1 44.966797 30.480469 A 4.0004 4.0004 0 0 0 44.751953 28.613281 L 42.472656 22.443359 z"
     id="path10" />
</svg>
