<?xml version="1.0" encoding="UTF-8" standalone="no"?>
<svg
   xmlns:dc="http://purl.org/dc/elements/1.1/"
   xmlns:cc="http://creativecommons.org/ns#"
   xmlns:rdf="http://www.w3.org/1999/02/22-rdf-syntax-ns#"
   xmlns:svg="http://www.w3.org/2000/svg"
   xmlns="http://www.w3.org/2000/svg"
   xmlns:sodipodi="http://sodipodi.sourceforge.net/DTD/sodipodi-0.dtd"
   xmlns:inkscape="http://www.inkscape.org/namespaces/inkscape"
   width="48"
   height="48"
   version="1"
   id="svg12"
   sodipodi:docname="chrome-emefpkhgihlhfddcjfghpndaeliajgjj-Default.svg"
   inkscape:version="0.92.5 (2060ec1f9f, 2020-04-08)">
  <metadata
     id="metadata18">
    <rdf:RDF>
      <cc:Work
         rdf:about="">
        <dc:format>image/svg+xml</dc:format>
        <dc:type
           rdf:resource="http://purl.org/dc/dcmitype/StillImage" />
      </cc:Work>
    </rdf:RDF>
  </metadata>
  <defs
     id="defs16" />
  <sodipodi:namedview
     pagecolor="#ffffff"
     bordercolor="#666666"
     borderopacity="1"
     objecttolerance="10"
     gridtolerance="10"
     guidetolerance="10"
     inkscape:pageopacity="0"
     inkscape:pageshadow="2"
     inkscape:window-width="783"
     inkscape:window-height="480"
     id="namedview14"
     showgrid="false"
     inkscape:zoom="4.9166667"
     inkscape:cx="24"
     inkscape:cy="24"
     inkscape:window-x="0"
     inkscape:window-y="28"
     inkscape:window-maximized="0"
     inkscape:current-layer="svg12" />
  <rect
     style="opacity:0.2"
     width="40"
     height="40"
     x="4"
     y="5"
     rx="2"
     ry="2"
     id="rect2" />
  <rect
     style="fill:#4c566a;fill-opacity:1"
     width="40"
     height="40"
     x="4"
     y="4"
     rx="2"
     ry="2"
     id="rect4" />
  <path
     style="opacity:0.1"
     d="m 12,15.5 -6,6 6,6 6,-6 z m 6,6 6,6 6,-6 -6,-6 z m 12,0 6,6 6,-6 -6,-6 z m -6,6 -6,6 6,6 6,-6 z"
     id="path6" />
  <path
     style="fill:#fefefe;fill-opacity:1"
     d="m 12,14.5 -6,6 6,6 6,-6 z m 6,6 6,6 6,-6 -6,-6 z m 12,0 6,6 6,-6 -6,-6 z m -6,6 -6,6 6,6 6,-6 z"
     id="path8" />
  <path
     style="fill:#ffffff;opacity:0.2"
     d="M 6 4 C 4.8920001 4 4 4.8920001 4 6 L 4 7 C 4 5.8920001 4.8920001 5 6 5 L 42 5 C 43.108 5 44 5.8920001 44 7 L 44 6 C 44 4.8920001 43.108 4 42 4 L 6 4 z"
     id="path10" />
</svg>
