<?xml version="1.0" encoding="UTF-8" standalone="no"?>
<svg
   xmlns:dc="http://purl.org/dc/elements/1.1/"
   xmlns:cc="http://creativecommons.org/ns#"
   xmlns:rdf="http://www.w3.org/1999/02/22-rdf-syntax-ns#"
   xmlns:svg="http://www.w3.org/2000/svg"
   xmlns="http://www.w3.org/2000/svg"
   xmlns:sodipodi="http://sodipodi.sourceforge.net/DTD/sodipodi-0.dtd"
   xmlns:inkscape="http://www.inkscape.org/namespaces/inkscape"
   width="48"
   height="48"
   version="1.1"
   id="svg40"
   sodipodi:docname="cs-sources.svg"
   inkscape:version="0.92.5 (2060ec1f9f, 2020-04-08)">
  <metadata
     id="metadata46">
    <rdf:RDF>
      <cc:Work
         rdf:about="">
        <dc:format>image/svg+xml</dc:format>
        <dc:type
           rdf:resource="http://purl.org/dc/dcmitype/StillImage" />
      </cc:Work>
    </rdf:RDF>
  </metadata>
  <defs
     id="defs44" />
  <sodipodi:namedview
     pagecolor="#ffffff"
     bordercolor="#666666"
     borderopacity="1"
     objecttolerance="10"
     gridtolerance="10"
     guidetolerance="10"
     inkscape:pageopacity="0"
     inkscape:pageshadow="2"
     inkscape:window-width="783"
     inkscape:window-height="480"
     id="namedview42"
     showgrid="false"
     inkscape:zoom="4.9166667"
     inkscape:cx="24"
     inkscape:cy="24"
     inkscape:window-x="0"
     inkscape:window-y="28"
     inkscape:window-maximized="0"
     inkscape:current-layer="svg40" />
  <rect
     style="opacity:0.2"
     width="40"
     height="12"
     x="4"
     y="33"
     rx="2"
     ry="2.4"
     id="rect2" />
  <path
     style="fill:#5f697d;fill-opacity:1"
     d="m 14,4 h 20 c 3.324,0 6,2.676 6,6 v 25 c 0,3.324 -2.676,6 -6,6 H 14 C 10.676,41 8,38.324 8,35 V 10 C 8,6.676 10.676,4 14,4 Z"
     id="path4" />
  <path
     style="fill:#ffffff;fill-opacity:1"
     transform="matrix(1.5842361,0,0,0.91465914,-1.3477776,-3.8584483)"
     d="m 10.950248,26.084524 5.049752,0 5.049752,0 -2.524876,4.373214 L 16,34.830952 13.475124,30.457738 Z"
     id="path6" />
  <rect
     style="opacity:0.8;fill:#ffffff;fill-opacity:1"
     width="4"
     height="4"
     x="20"
     y="8"
     id="rect8" />
  <rect
     style="opacity:0.2;fill:#ffffff;fill-opacity:1"
     width="4"
     height="4"
     x="24"
     y="8"
     id="rect10" />
  <rect
     style="opacity:0.4;fill:#ffffff;fill-opacity:1"
     width="4"
     height="4"
     x="20"
     y="12"
     id="rect12" />
  <rect
     style="opacity:0.9;fill:#ffffff;fill-opacity:1"
     width="4"
     height="4"
     x="24"
     y="12"
     id="rect14" />
  <rect
     style="fill:#ffffff;fill-opacity:1"
     width="4"
     height="4"
     x="20"
     y="16"
     id="rect16" />
  <rect
     style="opacity:0.6;fill:#ffffff;fill-opacity:1"
     width="4"
     height="4"
     x="24"
     y="16"
     id="rect18" />
  <path
     style="opacity:0.1"
     d="m 16,21 4,4 4,4 4,-4 4,-4 h -1 l -3,3 -4,4 -4,-4 -3,-3 z"
     id="path20" />
  <rect
     style="fill:#4c566a;fill-opacity:1"
     width="40"
     height="12"
     x="4"
     y="32"
     rx="2"
     ry="2.4"
     id="rect22" />
  <rect
     style="opacity:0.2"
     width="12"
     height="1"
     x="11"
     y="39"
     id="rect24" />
  <circle
     style="opacity:0.2"
     cx="10"
     cy="39"
     r="3"
     id="circle26" />
  <circle
     style="fill:#ffffff"
     cx="10"
     cy="38"
     r="3"
     id="circle28" />
  <rect
     style="fill:#ffffff"
     width="16"
     height="2"
     x="10"
     y="37"
     id="rect30" />
  <path
     style="opacity:0.3"
     d="M 38 35 A 3 3 0 0 0 35.179688 37 L 26 37 L 26 39 L 35.179688 39 A 3 3 0 0 0 38 41 A 3 3 0 0 0 41 38 A 3 3 0 0 0 38 35 z"
     id="path32" />
  <circle
     style="opacity:0.2"
     cx="24"
     cy="39"
     r="3"
     id="circle34" />
  <circle
     style="fill:#ffffff"
     cx="24"
     cy="38"
     r="3"
     id="circle36" />
  <path
     style="opacity:0.2;fill:#ffffff"
     d="M 14 4 C 10.676 4 8 6.676 8 10 L 8 11 C 8 7.676 10.676 5 14 5 L 34 5 C 37.324 5 40 7.676 40 11 L 40 10 C 40 6.676 37.324 4 34 4 L 14 4 z"
     id="path38" />
</svg>
