<?xml version="1.0" encoding="UTF-8" standalone="no"?>
<svg
   xmlns:dc="http://purl.org/dc/elements/1.1/"
   xmlns:cc="http://creativecommons.org/ns#"
   xmlns:rdf="http://www.w3.org/1999/02/22-rdf-syntax-ns#"
   xmlns:svg="http://www.w3.org/2000/svg"
   xmlns="http://www.w3.org/2000/svg"
   xmlns:sodipodi="http://sodipodi.sourceforge.net/DTD/sodipodi-0.dtd"
   xmlns:inkscape="http://www.inkscape.org/namespaces/inkscape"
   width="48"
   height="48"
   version="1"
   id="svg26"
   sodipodi:docname="mintstick.svg"
   inkscape:version="0.92.5 (2060ec1f9f, 2020-04-08)">
  <metadata
     id="metadata32">
    <rdf:RDF>
      <cc:Work
         rdf:about="">
        <dc:format>image/svg+xml</dc:format>
        <dc:type
           rdf:resource="http://purl.org/dc/dcmitype/StillImage" />
      </cc:Work>
    </rdf:RDF>
  </metadata>
  <defs
     id="defs30" />
  <sodipodi:namedview
     pagecolor="#ffffff"
     bordercolor="#666666"
     borderopacity="1"
     objecttolerance="10"
     gridtolerance="10"
     guidetolerance="10"
     inkscape:pageopacity="0"
     inkscape:pageshadow="2"
     inkscape:window-width="765"
     inkscape:window-height="480"
     id="namedview28"
     showgrid="false"
     inkscape:zoom="4.9166667"
     inkscape:cx="28.614073"
     inkscape:cy="39.438337"
     inkscape:window-x="0"
     inkscape:window-y="28"
     inkscape:window-maximized="0"
     inkscape:current-layer="svg26" />
  <path
     fill="#b7b7b7"
     d="m9 6h30v14h-30z"
     id="path2"
     style="fill:#7d879b;fill-opacity:1" />
  <rect
     fill="#4f4f4f"
     width="40"
     height="24"
     x="4"
     y="18"
     rx="2"
     ry="2"
     id="rect4"
     style="fill:#4c566a;fill-opacity:1" />
  <rect
     style="opacity:.4"
     width="24"
     height="4"
     x="12"
     y="23"
     id="rect6" />
  <rect
     style="opacity:.4"
     width="20"
     height="4"
     x="14"
     y="29"
     id="rect8" />
  <rect
     style="opacity:.4"
     width="16"
     height="4"
     x="16"
     y="35"
     id="rect10" />
  <path
     fill="#fff"
     opacity=".2"
     d="m9 6v1h30v-1h-30z"
     id="path12" />
  <path
     opacity=".2"
     d="m4 40v1c0 1.108 0.892 2 2 2h36c1.108 0 2-0.892 2-2v-1c0 1.108-0.892 2-2 2h-36c-1.108 0-2-0.892-2-2z"
     id="path14" />
  <circle
     opacity=".2"
     cx="36"
     cy="37"
     r="11"
     id="circle16" />
  <circle
     fill="#3cd240"
     cx="36"
     cy="36"
     r="11"
     id="circle18"
     style="fill:#5f697d;fill-opacity:1" />
  <path
     style="fill:#ffffff"
     d="m31.5 38 4.5 5 4.5-5h-2.5v-9h-4v9z"
     id="path20" />
  <rect
     style="opacity:.5"
     width="6"
     height="4"
     x="12"
     y="9"
     id="rect22" />
  <rect
     style="opacity:.5"
     width="6"
     height="4"
     x="30"
     y="9"
     id="rect24" />
</svg>
