<?xml version="1.0" encoding="UTF-8" standalone="no"?>
<svg
   xmlns:dc="http://purl.org/dc/elements/1.1/"
   xmlns:cc="http://creativecommons.org/ns#"
   xmlns:rdf="http://www.w3.org/1999/02/22-rdf-syntax-ns#"
   xmlns:svg="http://www.w3.org/2000/svg"
   xmlns="http://www.w3.org/2000/svg"
   xmlns:sodipodi="http://sodipodi.sourceforge.net/DTD/sodipodi-0.dtd"
   xmlns:inkscape="http://www.inkscape.org/namespaces/inkscape"
   width="48"
   height="48"
   version="1"
   id="svg16"
   sodipodi:docname="gkrellm.svg"
   inkscape:version="0.92.5 (2060ec1f9f, 2020-04-08)">
  <metadata
     id="metadata22">
    <rdf:RDF>
      <cc:Work
         rdf:about="">
        <dc:format>image/svg+xml</dc:format>
        <dc:type
           rdf:resource="http://purl.org/dc/dcmitype/StillImage" />
      </cc:Work>
    </rdf:RDF>
  </metadata>
  <defs
     id="defs20" />
  <sodipodi:namedview
     pagecolor="#ffffff"
     bordercolor="#666666"
     borderopacity="1"
     objecttolerance="10"
     gridtolerance="10"
     guidetolerance="10"
     inkscape:pageopacity="0"
     inkscape:pageshadow="2"
     inkscape:window-width="783"
     inkscape:window-height="480"
     id="namedview18"
     showgrid="false"
     inkscape:zoom="2.4583333"
     inkscape:cx="10.215936"
     inkscape:cy="38.349417"
     inkscape:current-layer="svg16"
     inkscape:window-x="0"
     inkscape:window-y="28"
     inkscape:window-maximized="0" />
  <rect
     style="opacity:0.2"
     width="40"
     height="40"
     x="4"
     y="5"
     rx="12"
     ry="12"
     id="rect2" />
  <rect
     style="fill:#4c566a;fill-opacity:1"
     width="40"
     height="40"
     x="4"
     y="4"
     rx="12"
     ry="12"
     id="rect4" />
  <path
     style="opacity:0.1;fill:#ffffff"
     d="M 16 4 C 9.352 4 4 9.352 4 16 L 4 17 C 4 10.352 9.352 5 16 5 L 32 5 C 38.648 5 44 10.352 44 17 L 44 16 C 44 9.352 38.648 4 32 4 L 16 4 z"
     id="path8" />
  <path
     style="opacity:0.2;fill:none;stroke:#000000;stroke-width:4;stroke-linejoin:round"
     d="m 4,25.000451 h 6 l 5,-10 4,18 7,-22 5,26 6,-12 h 7"
     id="path10" />
  <path
     style="fill:none;stroke:#ffffff;stroke-width:4;stroke-linejoin:round;stroke-opacity:1"
     d="m 4,24 h 6 l 5,-10 4,18 7,-22 5,26 6,-12 h 7"
     id="path12" />
  <path
     style="fill:#ffffff;opacity:0.2"
     d="M 26.117188 8.0039062 A 2.0002 2.0002 0 0 0 24.09375 9.3945312 L 19.34375 24.324219 L 16.953125 13.566406 A 2.0002 2.0002 0 0 0 13.210938 13.105469 L 8.7636719 22 L 4 22 L 4 23 L 8.7636719 23 L 13.210938 14.105469 A 2.0002 2.0002 0 0 1 16.953125 14.566406 L 19.34375 25.324219 L 24.09375 10.394531 A 2.0002 2.0002 0 0 1 26.117188 9.0039062 A 2.0002 2.0002 0 0 1 27.964844 10.623047 L 31.849609 30.826172 L 35.210938 24.105469 A 2.0002 2.0002 0 0 1 37 23 L 44 23 L 44 22 L 37 22 A 2.0002 2.0002 0 0 0 35.210938 23.105469 L 31.849609 29.826172 L 27.964844 9.6230469 A 2.0002 2.0002 0 0 0 26.117188 8.0039062 z"
     id="path14" />
</svg>
