<?xml version="1.0" encoding="UTF-8" standalone="no"?>
<svg
   xmlns:dc="http://purl.org/dc/elements/1.1/"
   xmlns:cc="http://creativecommons.org/ns#"
   xmlns:rdf="http://www.w3.org/1999/02/22-rdf-syntax-ns#"
   xmlns:svg="http://www.w3.org/2000/svg"
   xmlns="http://www.w3.org/2000/svg"
   xmlns:sodipodi="http://sodipodi.sourceforge.net/DTD/sodipodi-0.dtd"
   xmlns:inkscape="http://www.inkscape.org/namespaces/inkscape"
   width="48"
   height="48"
   version="1.1"
   id="svg17"
   sodipodi:docname="veyon-master.svg"
   inkscape:version="0.92.5 (2060ec1f9f, 2020-04-08)">
  <metadata
     id="metadata23">
    <rdf:RDF>
      <cc:Work
         rdf:about="">
        <dc:format>image/svg+xml</dc:format>
        <dc:type
           rdf:resource="http://purl.org/dc/dcmitype/StillImage" />
      </cc:Work>
    </rdf:RDF>
  </metadata>
  <defs
     id="defs21" />
  <sodipodi:namedview
     pagecolor="#ffffff"
     bordercolor="#666666"
     borderopacity="1"
     objecttolerance="10"
     gridtolerance="10"
     guidetolerance="10"
     inkscape:pageopacity="0"
     inkscape:pageshadow="2"
     inkscape:window-width="783"
     inkscape:window-height="480"
     id="namedview19"
     showgrid="false"
     inkscape:zoom="2.4583333"
     inkscape:cx="22.98688"
     inkscape:cy="8.1701066"
     inkscape:window-x="0"
     inkscape:window-y="28"
     inkscape:window-maximized="0"
     inkscape:current-layer="g15" />
  <g
     transform="translate(-34.289643,-50.041152)"
     id="g15">
    <ellipse
       id="ellipse841"
       style="opacity:0.2"
       cx="58.29"
       cy="75.041"
       rx="20"
       ry="20" />
    <ellipse
       style="fill:#4c566a;fill-opacity:1"
       cx="58.29"
       cy="74.041"
       rx="20"
       ry="20"
       id="ellipse3" />
    <ellipse
       id="ellipse843"
       style="opacity:0.2"
       cx="58.29"
       cy="75.041"
       rx="17"
       ry="17" />
    <ellipse
       style="fill:#ffffff"
       cx="58.29"
       cy="74.041"
       rx="17"
       ry="17"
       id="ellipse6" />
    <path
       style="fill:#4c566a;fill-opacity:1"
       d="m 75.289642,74.041153 c 0,0 -7.61116,6.999999 -16.999997,6.999999 -9.388841,0 -17,-6.999999 -17,-6.999999 0,0 7.611159,-7.000001 17,-7.000001 9.388837,0 16.999997,7.000001 16.999997,7.000001 z"
       id="path8" />
    <circle
       style="opacity:0.2"
       cx="58.29"
       cy="75.041"
       r="4"
       id="circle10" />
    <circle
       style="fill:#ffffff"
       cx="58.29"
       cy="74.041"
       r="4"
       id="circle12" />
    <path
       id="ellipse847"
       style="opacity:0.1;fill:#ffffff"
       transform="translate(34.289643,50.041152)"
       d="M 24 4 A 20 20.000002 0 0 0 4 24 A 20 20.000002 0 0 0 4.0214844 24.582031 A 20 20.000002 0 0 1 24 5 A 20 20.000002 0 0 1 43.978516 24.417969 A 20 20.000002 0 0 0 44 24 A 20 20.000002 0 0 0 24 4 z" />
  </g>
</svg>
