<?xml version="1.0" encoding="UTF-8" standalone="no"?>
<svg
   xmlns:dc="http://purl.org/dc/elements/1.1/"
   xmlns:cc="http://creativecommons.org/ns#"
   xmlns:rdf="http://www.w3.org/1999/02/22-rdf-syntax-ns#"
   xmlns:svg="http://www.w3.org/2000/svg"
   xmlns="http://www.w3.org/2000/svg"
   xmlns:sodipodi="http://sodipodi.sourceforge.net/DTD/sodipodi-0.dtd"
   xmlns:inkscape="http://www.inkscape.org/namespaces/inkscape"
   width="48"
   height="48"
   version="1.1"
   id="svg12"
   sodipodi:docname="vimeo.svg"
   inkscape:version="0.92.5 (2060ec1f9f, 2020-04-08)">
  <metadata
     id="metadata18">
    <rdf:RDF>
      <cc:Work
         rdf:about="">
        <dc:format>image/svg+xml</dc:format>
        <dc:type
           rdf:resource="http://purl.org/dc/dcmitype/StillImage" />
      </cc:Work>
    </rdf:RDF>
  </metadata>
  <defs
     id="defs16" />
  <sodipodi:namedview
     pagecolor="#ffffff"
     bordercolor="#666666"
     borderopacity="1"
     objecttolerance="10"
     gridtolerance="10"
     guidetolerance="10"
     inkscape:pageopacity="0"
     inkscape:pageshadow="2"
     inkscape:window-width="783"
     inkscape:window-height="480"
     id="namedview14"
     showgrid="false"
     inkscape:zoom="4.9166667"
     inkscape:cx="-1.1186441"
     inkscape:cy="24"
     inkscape:window-x="0"
     inkscape:window-y="28"
     inkscape:window-maximized="0"
     inkscape:current-layer="svg12" />
  <rect
     x="4"
     y="5"
     width="40"
     height="40"
     rx="4"
     ry="4"
     style="opacity:.2"
     id="rect2" />
  <rect
     x="4"
     y="4"
     width="40"
     height="40"
     rx="4"
     ry="4"
     style="fill:#4c566a;fill-opacity:1"
     id="rect4" />
  <path
     d="m9 20 2 2 2-2s5 18 9 18c9 0 16-18 16-18s0-7-5-7c-4 0-8 7-8 7s3-1 4 0-2 10-4 10c-3-2-3-16-7-16-3 0-9 6-9 6z"
     style="opacity:.2"
     id="path6" />
  <path
     d="m9 19 2 2 2-2s5 18 9 18c9 0 16-18 16-18s0-7-5-7c-4 0-8 7-8 7s3-1 4 0-2 10-4 10c-3-2-3-16-7-16-3 0-9 6-9 6z"
     style="fill:#ffffff"
     id="path8" />
  <path
     d="m8 4c-2.216 0-4 1.784-4 4v1c0-2.216 1.784-4 4-4h32c2.216 0 4 1.784 4 4v-1c0-2.216-1.784-4-4-4h-32z"
     style="fill:#ffffff;opacity:.2"
     id="path10" />
</svg>
