<?xml version="1.0" encoding="UTF-8" standalone="no"?>
<svg
   xmlns:dc="http://purl.org/dc/elements/1.1/"
   xmlns:cc="http://creativecommons.org/ns#"
   xmlns:rdf="http://www.w3.org/1999/02/22-rdf-syntax-ns#"
   xmlns:svg="http://www.w3.org/2000/svg"
   xmlns="http://www.w3.org/2000/svg"
   xmlns:sodipodi="http://sodipodi.sourceforge.net/DTD/sodipodi-0.dtd"
   xmlns:inkscape="http://www.inkscape.org/namespaces/inkscape"
   width="48"
   height="48"
   version="1"
   id="svg14"
   sodipodi:docname="vlc.svg"
   inkscape:version="0.92.5 (2060ec1f9f, 2020-04-08)">
  <metadata
     id="metadata20">
    <rdf:RDF>
      <cc:Work
         rdf:about="">
        <dc:format>image/svg+xml</dc:format>
        <dc:type
           rdf:resource="http://purl.org/dc/dcmitype/StillImage" />
      </cc:Work>
    </rdf:RDF>
  </metadata>
  <defs
     id="defs18" />
  <sodipodi:namedview
     pagecolor="#ffffff"
     bordercolor="#666666"
     borderopacity="1"
     objecttolerance="10"
     gridtolerance="10"
     guidetolerance="10"
     inkscape:pageopacity="0"
     inkscape:pageshadow="2"
     inkscape:window-width="783"
     inkscape:window-height="480"
     id="namedview16"
     showgrid="false"
     inkscape:zoom="4.9166667"
     inkscape:cx="24"
     inkscape:cy="24"
     inkscape:window-x="0"
     inkscape:window-y="28"
     inkscape:window-maximized="0"
     inkscape:current-layer="svg14" />
  <path
     fill="#f80"
     fill-rule="evenodd"
     d="m11 27.01c-0.80715 0.00019-1.5351 0.48548-1.8457 1.2305l-5 12c-0.54888 1.3173 0.41866 2.7691 1.8457 2.7695h36c1.427-0.00045 2.3946-1.4523 1.8457-2.7695l-5-12c-0.31061-0.74499-1.0386-1.2303-1.8457-1.2305z"
     id="path2"
     style="fill:#4c566a;fill-opacity:1" />
  <path
     fill="#fff"
     fill-rule="evenodd"
     opacity=".2"
     d="m11 27.01c-0.80715 0.00019-1.5351 0.48548-1.8457 1.2305l-5 12c-0.17942 0.43058-0.1839 0.87144-0.0762 1.2754 0.0238-0.0919 0.0382-0.1843 0.0762-0.27539l5-12c0.31061-0.74499 1.0386-1.2303 1.8457-1.2305h26c0.80715 0.00019 1.5351 0.48548 1.8457 1.2305l5 12c0.038 0.0911 0.0524 0.18353 0.0762 0.27539 0.10772-0.40395 0.10324-0.84481-0.0762-1.2754l-5-12c-0.31061-0.74499-1.0386-1.2303-1.8457-1.2305h-26z"
     id="path4" />
  <path
     fill="#f80"
     fill-rule="evenodd"
     d="m24.004 2.9903c-0.90847-0.0102-1.8349 0.14409-2.75 0.51172-0.56706 0.22807-0.99872 0.70289-1.1719 1.2891l-1.8398 6.2188c3.1749 12.011 8.7671 2.222 11.516 0l-1.84-6.2189c-0.183-0.6205-0.656-1.1138-1.268-1.3242-0.847-0.2918-1.738-0.4665-2.646-0.4766zm-8.1289 16.02-2.2192 7.4998c1.0542 9.1805 11.899 5.0735 20.613-0.25536l-2.1436-7.2445c-5.5 2.1875-8.0297-3.2366-16.25 0z"
     id="path6"
     style="fill:#4c566a;fill-opacity:1" />
  <path
     fill="#fff"
     fill-rule="evenodd"
     d="m18.242 11.01-2.3672 8c6.125 2.75 10.75 2.1875 16.25 0l-2.3672-8c-2.7578 2-8.7578 2-11.516 0zm-2.3672 8-3.793 12.814c-0.24392 0.82546 0.0676 1.7144 0.77344 2.207 3.0824 2.1494 7.0856 3.0148 11.07 2.9766 3.9848-0.0382 7.9819-0.98512 11.121-2.9121 0.77037-0.47327 1.1275-1.4045 0.87109-2.2715l-1.6484-5.5703c-8.7057 5.2729-18.459 1.5189-20.613 0.25586l2.2188-7.5z"
     id="path8" />
  <path
     fill="#fff"
     opacity=".2"
     d="m23.85 2.9942c-2.1235 0-3.5352 0.64768-3.5352 1.502 0 0.15945 0.0823 0.32406 0.20117 0.48633 0.45122-0.58505 1.667-0.98828 3.334-0.98828 1.6728 0 3.1923 0.51343 3.7676 1.1484 0.15609-0.16582 0.25391-0.32775 0.2539-0.46875-0.00002-0.85427-1.898-1.6797-4.0215-1.6797z"
     id="path10" />
  <path
     fill-rule="evenodd"
     opacity=".2"
     d="m4.0801 41.502c-0.3236 1.238 0.5901 2.498 1.9199 2.498h36c1.2487-0.00039 2.1454-1.1111 1.9824-2.2715-0.0097-0.06889-0.03936-0.13784-0.05664-0.20703-0.229 0.821-0.974 1.468-1.926 1.468h-36c-0.9583 0-1.6961-0.659-1.9199-1.488z"
     id="path12" />
</svg>
