<?xml version="1.0" encoding="UTF-8" standalone="no"?>
<svg
   xmlns:dc="http://purl.org/dc/elements/1.1/"
   xmlns:cc="http://creativecommons.org/ns#"
   xmlns:rdf="http://www.w3.org/1999/02/22-rdf-syntax-ns#"
   xmlns:svg="http://www.w3.org/2000/svg"
   xmlns="http://www.w3.org/2000/svg"
   xmlns:sodipodi="http://sodipodi.sourceforge.net/DTD/sodipodi-0.dtd"
   xmlns:inkscape="http://www.inkscape.org/namespaces/inkscape"
   width="48"
   height="48"
   version="1"
   id="svg12"
   sodipodi:docname="warpinator.svg"
   inkscape:version="0.92.5 (2060ec1f9f, 2020-04-08)">
  <metadata
     id="metadata18">
    <rdf:RDF>
      <cc:Work
         rdf:about="">
        <dc:format>image/svg+xml</dc:format>
        <dc:type
           rdf:resource="http://purl.org/dc/dcmitype/StillImage" />
      </cc:Work>
    </rdf:RDF>
  </metadata>
  <defs
     id="defs16" />
  <sodipodi:namedview
     pagecolor="#ffffff"
     bordercolor="#666666"
     borderopacity="1"
     objecttolerance="10"
     gridtolerance="10"
     guidetolerance="10"
     inkscape:pageopacity="0"
     inkscape:pageshadow="2"
     inkscape:window-width="783"
     inkscape:window-height="480"
     id="namedview14"
     showgrid="false"
     inkscape:zoom="4.9166667"
     inkscape:cx="-1.1186441"
     inkscape:cy="24"
     inkscape:window-x="0"
     inkscape:window-y="28"
     inkscape:window-maximized="0"
     inkscape:current-layer="svg12" />
  <rect
     style="opacity:0.2"
     width="40"
     height="40"
     x="4"
     y="5"
     rx="12"
     ry="12"
     id="rect2" />
  <rect
     style="fill:#4c566a;fill-opacity:1"
     width="40"
     height="40"
     x="4"
     y="4"
     rx="12"
     ry="12"
     id="rect4" />
  <path
     style="fill:#ffffff;opacity:0.1"
     d="M 16 4 C 9.352 4 4 9.352 4 16 L 4 17 C 4 10.352 9.352 5 16 5 L 32 5 C 38.648 5 44 10.352 44 17 L 44 16 C 44 9.352 38.648 4 32 4 L 16 4 z"
     id="path6" />
  <path
     style="opacity:0.2"
     d="m 34,12 a 3,3 0 0 0 -3,3 3,3 0 0 0 0.195312,1.0625 l -4.335937,5.298828 A 5,5 0 0 0 25,21 5,5 0 0 0 20.015625,25.703125 l -7.443359,1.0625 A 2,2 0 0 0 11,26 a 2,2 0 0 0 -2,2 2,2 0 0 0 2,2 2,2 0 0 0 1.853516,-1.253906 l 7.443359,-1.0625 A 5,5 0 0 0 25,31 5,5 0 0 0 30,26 5,5 0 0 0 29.179688,23.259766 l 4.33789,-5.302735 A 3,3 0 0 0 34,18 3,3 0 0 0 37,15 3,3 0 0 0 34,12 Z m -16,2 a 2,2 0 0 0 -2,2 2,2 0 0 0 2,2 2,2 0 0 0 2,-2 2,2 0 0 0 -2,-2 z m 16,0 a 1,1 0 0 1 1,1 1,1 0 0 1 -1,1 1,1 0 0 1 -1,-1 1,1 0 0 1 1,-1 z m -13.904297,3.685547 -1.207031,0.892578 0.808594,1.154297 1.207031,-0.892578 z m 1.208985,1.728515 -1.207032,0.892579 1.064453,1.521484 1.208985,-0.892578 z M 25,23 a 3,3 0 0 1 3,3 3,3 0 0 1 -3,3 3,3 0 0 1 -3,-3 3,3 0 0 1 3,-3 z m -14,4 a 1,1 0 0 1 1,1 1,1 0 0 1 -1,1 1,1 0 0 1 -1,-1 1,1 0 0 1 1,-1 z m 18.472656,2.410156 -1.0625,1.0625 1.371094,1.371094 1.0625,-1.0625 z m -7.283203,1.59375 -0.988281,2.470703 1.417969,0.498047 0.988281,-2.470703 z m 9.148438,0.271485 -1.0625,1.0625 1.585937,1.585937 1.0625,-1.0625 z M 34.5,33 A 2.5,2.5 0 0 0 32,35.5 2.5,2.5 0 0 0 34.5,38 2.5,2.5 0 0 0 37,35.5 2.5,2.5 0 0 0 34.5,33 Z M 21,34 a 2,2 0 0 0 -2,2 2,2 0 0 0 2,2 2,2 0 0 0 2,-2 2,2 0 0 0 -2,-2 z"
     id="path8" />
  <path
     style="fill:#ffffff"
     d="m 34,11 a 3,3 0 0 0 -3,3 3,3 0 0 0 0.195312,1.0625 l -4.335937,5.298828 A 5,5 0 0 0 25,20 5,5 0 0 0 20.015625,24.703125 l -7.443359,1.0625 A 2,2 0 0 0 11,25 a 2,2 0 0 0 -2,2 2,2 0 0 0 2,2 2,2 0 0 0 1.853516,-1.253906 l 7.443359,-1.0625 A 5,5 0 0 0 25,30 5,5 0 0 0 30,25 5,5 0 0 0 29.179688,22.259766 l 4.33789,-5.302735 A 3,3 0 0 0 34,17 3,3 0 0 0 37,14 3,3 0 0 0 34,11 Z m -16,2 a 2,2 0 0 0 -2,2 2,2 0 0 0 2,2 2,2 0 0 0 2,-2 2,2 0 0 0 -2,-2 z m 16,0 a 1,1 0 0 1 1,1 1,1 0 0 1 -1,1 1,1 0 0 1 -1,-1 1,1 0 0 1 1,-1 z m -13.904297,3.685547 -1.207031,0.892578 0.808594,1.154297 1.207031,-0.892578 z m 1.208985,1.728515 -1.207032,0.892579 1.064453,1.521484 1.208985,-0.892578 z M 25,22 a 3,3 0 0 1 3,3 3,3 0 0 1 -3,3 3,3 0 0 1 -3,-3 3,3 0 0 1 3,-3 z m -14,4 a 1,1 0 0 1 1,1 1,1 0 0 1 -1,1 1,1 0 0 1 -1,-1 1,1 0 0 1 1,-1 z m 18.472656,2.410156 -1.0625,1.0625 1.371094,1.371094 1.0625,-1.0625 z m -7.283203,1.59375 -0.988281,2.470703 1.417969,0.498047 0.988281,-2.470703 z m 9.148438,0.271485 -1.0625,1.0625 1.585937,1.585937 1.0625,-1.0625 z M 34.5,32 A 2.5,2.5 0 0 0 32,34.5 2.5,2.5 0 0 0 34.5,37 2.5,2.5 0 0 0 37,34.5 2.5,2.5 0 0 0 34.5,32 Z M 21,33 a 2,2 0 0 0 -2,2 2,2 0 0 0 2,2 2,2 0 0 0 2,-2 2,2 0 0 0 -2,-2 z"
     id="path10" />
</svg>
