<?xml version="1.0" encoding="UTF-8" standalone="no"?>
<svg
   xmlns:dc="http://purl.org/dc/elements/1.1/"
   xmlns:cc="http://creativecommons.org/ns#"
   xmlns:rdf="http://www.w3.org/1999/02/22-rdf-syntax-ns#"
   xmlns:svg="http://www.w3.org/2000/svg"
   xmlns="http://www.w3.org/2000/svg"
   xmlns:sodipodi="http://sodipodi.sourceforge.net/DTD/sodipodi-0.dtd"
   xmlns:inkscape="http://www.inkscape.org/namespaces/inkscape"
   width="48"
   height="48"
   version="1"
   id="svg12"
   sodipodi:docname="webby.svg"
   inkscape:version="0.92.5 (2060ec1f9f, 2020-04-08)">
  <metadata
     id="metadata18">
    <rdf:RDF>
      <cc:Work
         rdf:about="">
        <dc:format>image/svg+xml</dc:format>
        <dc:type
           rdf:resource="http://purl.org/dc/dcmitype/StillImage" />
      </cc:Work>
    </rdf:RDF>
  </metadata>
  <defs
     id="defs16" />
  <sodipodi:namedview
     pagecolor="#ffffff"
     bordercolor="#666666"
     borderopacity="1"
     objecttolerance="10"
     gridtolerance="10"
     guidetolerance="10"
     inkscape:pageopacity="0"
     inkscape:pageshadow="2"
     inkscape:window-width="783"
     inkscape:window-height="480"
     id="namedview14"
     showgrid="false"
     inkscape:zoom="4.9166667"
     inkscape:cx="-1.1186441"
     inkscape:cy="24"
     inkscape:window-x="0"
     inkscape:window-y="28"
     inkscape:window-maximized="0"
     inkscape:current-layer="svg12" />
  <rect
     fill="#97407c"
     width="40"
     height="40"
     x="4"
     y="4"
     rx="2"
     ry="2"
     id="rect2"
     style="fill:#4c566a;fill-opacity:1" />
  <path
     fill="#fff"
     opacity=".2"
     d="m6 4c-1.108 0-2 0.892-2 2v1c0-1.108 0.892-2 2-2h36c1.108 0 2 0.892 2 2v-1c0-1.108-0.892-2-2-2h-36z"
     id="path4" />
  <path
     opacity=".2"
     d="m6 45c-1.108 0-2-0.892-2-2v-1c0 1.108 0.892 2 2 2h36c1.108 0 2-0.892 2-2v1c0 1.108-0.892 2-2 2h-36z"
     id="path6" />
  <path
     fill-rule="evenodd"
     opacity=".2"
     d="m11.029 11.972a2.0002 2.0002 0 0 0 -1.959 2.553l6 22a2.0002 2.0002 0 0 0 3.7715 0.25586l5.158-12.149 5.158 12.149a2.0002 2.0002 0 0 0 3.771 -0.256l6-22a2.0003 2.0003 0 1 0 -3.86 -1.051l-4.482 16.436-4.746-11.178a2.0002 2.0002 0 0 0 -3.6836 0l-4.746 11.178-4.482-16.436a2.0002 2.0002 0 0 0 -1.9004 -1.502z"
     id="path8" />
  <path
     fill="none"
     stroke="#fff"
     stroke-linecap="round"
     stroke-linejoin="round"
     stroke-width="4"
     opacity=".99"
     d="m11 13 6 22 7-16.486 7 16.486 6-22"
     id="path10" />
</svg>
