<?xml version="1.0" encoding="UTF-8" standalone="no"?>
<svg
   xmlns:dc="http://purl.org/dc/elements/1.1/"
   xmlns:cc="http://creativecommons.org/ns#"
   xmlns:rdf="http://www.w3.org/1999/02/22-rdf-syntax-ns#"
   xmlns:svg="http://www.w3.org/2000/svg"
   xmlns="http://www.w3.org/2000/svg"
   xmlns:sodipodi="http://sodipodi.sourceforge.net/DTD/sodipodi-0.dtd"
   xmlns:inkscape="http://www.inkscape.org/namespaces/inkscape"
   width="48"
   height="48"
   version="1.1"
   id="svg16"
   sodipodi:docname="wemeet.svg"
   inkscape:version="0.92.5 (2060ec1f9f, 2020-04-08)">
  <metadata
     id="metadata22">
    <rdf:RDF>
      <cc:Work
         rdf:about="">
        <dc:format>image/svg+xml</dc:format>
        <dc:type
           rdf:resource="http://purl.org/dc/dcmitype/StillImage" />
      </cc:Work>
    </rdf:RDF>
  </metadata>
  <defs
     id="defs20" />
  <sodipodi:namedview
     pagecolor="#ffffff"
     bordercolor="#666666"
     borderopacity="1"
     objecttolerance="10"
     gridtolerance="10"
     guidetolerance="10"
     inkscape:pageopacity="0"
     inkscape:pageshadow="2"
     inkscape:window-width="783"
     inkscape:window-height="480"
     id="namedview18"
     showgrid="false"
     inkscape:zoom="4.9166667"
     inkscape:cx="-1.1186441"
     inkscape:cy="24"
     inkscape:window-x="0"
     inkscape:window-y="28"
     inkscape:window-maximized="0"
     inkscape:current-layer="svg16" />
  <rect
     style="opacity:0.2"
     width="40"
     height="40"
     x="4"
     y="5"
     rx="12"
     ry="12"
     id="rect2" />
  <rect
     style="fill:#4c566a;fill-opacity:1"
     width="40"
     height="40"
     x="4"
     y="4"
     rx="12"
     ry="12"
     id="rect4" />
  <path
     style="opacity:0.2"
     d="m 19.007812,17.5 -5.019531,5.005859 -3.265625,3.228516 c -0.9647864,0.965881 -0.9647864,2.52826 0,3.494141 l 3.265625,3.257812 5.019531,-4.992187 5.003907,5.005859 5.009765,-4.988281 4.990235,4.978515 3.265625,-3.255859 c 0.964272,-0.964298 0.964272,-2.525936 0,-3.490234 L 34.011719,22.515625 29.021484,17.5 24.015625,22.496094 Z"
     id="path6" />
  <path
     fill-opacity=".9"
     style="fill:#ffffff"
     d="m 13.98852,21.506204 -3.26493,3.228908 c -0.9647867,0.965881 -0.9647867,2.528226 0,3.494107 l 3.26493,3.256823 5.018661,-4.992245 3.180976,-4.955024 L 19.007181,16.5 Z"
     id="path8" />
  <path
     style="fill:#5f697d;fill-opacity:1"
     d="m 19.007181,26.493797 5.881538,0.42804 L 24.016517,21.4969 19.007181,16.5 Z"
     id="path10" />
  <path
     style="fill:#ffffff"
     d="M 19.007181,26.493797 24.011852,31.5 l 5.009335,-4.987592 4.990678,4.978286 3.264931,-3.256824 c 0.964272,-0.964298 0.964272,-2.525154 0,-3.489452 L 34.011865,21.515509 29.021187,16.5 Z"
     id="path12" />
  <path
     style="fill:#ffffff;opacity:0.2"
     d="M 16 4 C 9.3520005 4 4 9.3520005 4 16 L 4 17 C 4 10.352001 9.3520005 5 16 5 L 32 5 C 38.647999 5 44 10.352001 44 17 L 44 16 C 44 9.3520005 38.647999 4 32 4 L 16 4 z"
     id="path14" />
</svg>
