<?xml version="1.0" encoding="UTF-8" standalone="no"?>
<svg
   xmlns:dc="http://purl.org/dc/elements/1.1/"
   xmlns:cc="http://creativecommons.org/ns#"
   xmlns:rdf="http://www.w3.org/1999/02/22-rdf-syntax-ns#"
   xmlns:svg="http://www.w3.org/2000/svg"
   xmlns="http://www.w3.org/2000/svg"
   xmlns:sodipodi="http://sodipodi.sourceforge.net/DTD/sodipodi-0.dtd"
   xmlns:inkscape="http://www.inkscape.org/namespaces/inkscape"
   width="48"
   height="48"
   version="1.1"
   id="svg18"
   sodipodi:docname="bottles_wine-uninstaller.svg"
   inkscape:version="0.92.5 (2060ec1f9f, 2020-04-08)">
  <metadata
     id="metadata24">
    <rdf:RDF>
      <cc:Work
         rdf:about="">
        <dc:format>image/svg+xml</dc:format>
        <dc:type
           rdf:resource="http://purl.org/dc/dcmitype/StillImage" />
      </cc:Work>
    </rdf:RDF>
  </metadata>
  <defs
     id="defs22" />
  <sodipodi:namedview
     pagecolor="#ffffff"
     bordercolor="#666666"
     borderopacity="1"
     objecttolerance="10"
     gridtolerance="10"
     guidetolerance="10"
     inkscape:pageopacity="0"
     inkscape:pageshadow="2"
     inkscape:window-width="783"
     inkscape:window-height="480"
     id="namedview20"
     showgrid="false"
     inkscape:zoom="4.9166667"
     inkscape:cx="14.084914"
     inkscape:cy="28.168677"
     inkscape:window-x="0"
     inkscape:window-y="28"
     inkscape:window-maximized="0"
     inkscape:current-layer="svg18" />
  <circle
     style="opacity:0.2"
     cx="24"
     cy="25"
     r="20"
     id="circle2" />
  <circle
     style="fill:#4c566a;fill-opacity:1"
     cx="24"
     cy="24"
     r="20"
     id="circle4" />
  <path
     style="opacity:0.2"
     d="m 24.620456,11.000015 c -0.790067,-0.0018 -1.398122,0.128315 -1.649187,0.40626 -0.39832,0.440963 -1.315661,3.728775 -2.4601,8.754116 -0.825686,3.616203 -0.25155,5.725027 0.312642,6.85368 0.721306,1.442955 1.28274,2.310013 0.142643,5.189578 -0.825704,2.085496 -1.667904,2.085296 -2.450331,2.184528 -1.885615,-0.453239 -3.309879,-0.468761 -3.495726,0.04102 -0.254229,0.697348 1.897647,2.509621 4.802961,3.555844 2.905312,1.046222 5.471025,1.330174 5.725253,0.632828 0.186456,-0.511447 -0.923112,-1.406856 -2.673088,-2.261773 -0.768233,-0.791214 -1.458364,-1.342394 -0.849994,-3.79306 1.190147,-4.794212 3.005181,-3.147513 5.144911,-6.127101 1.815051,-2.52747 2.296289,-4.467345 3.347222,-7.429866 1.113495,-3.138876 1.601825,-4.592077 1.457692,-4.879023 -0.970778,-1.932662 -4.984699,-3.121571 -7.354898,-3.127028 z m -2.714122,6.384919 c 1.147075,1.254617 2.194364,1.578505 3.138975,1.615753 2.33096,0.09191 4.03669,-2.156409 5.073734,-0.812999 -0.499066,1.638422 -3.506669,11.559331 -7.515128,9.787343 -3.320528,-1.446788 -1.398508,-8.825097 -0.697581,-10.590097 z"
     id="path6" />
  <path
     style="fill:#ffffff"
     d="m 24.620456,9.999328 c -0.790067,-0.00182 -1.398122,0.128315 -1.649187,0.40626 -0.39832,0.440963 -1.315661,3.728775 -2.4601,8.754116 -0.825686,3.616203 -0.25155,5.725027 0.312642,6.85368 0.721306,1.442955 1.28274,2.310013 0.142643,5.189578 -0.825704,2.085496 -1.667904,2.085296 -2.450331,2.184528 -1.885615,-0.453239 -3.309879,-0.468761 -3.495726,0.04102 -0.254229,0.697348 1.897647,2.509621 4.802961,3.555844 2.905312,1.046222 5.471025,1.330174 5.725253,0.632828 0.186456,-0.511447 -0.923112,-1.406856 -2.673088,-2.261773 -0.768233,-0.791214 -1.458364,-1.342394 -0.849994,-3.79306 1.190147,-4.794212 3.005181,-3.147513 5.144911,-6.127101 1.815051,-2.52747 2.296289,-4.467345 3.347222,-7.429866 1.113495,-3.138876 1.601825,-4.592077 1.457692,-4.879023 -0.970778,-1.932662 -4.984699,-3.121571 -7.354898,-3.127028 z m -2.714122,6.384919 c 1.147075,1.254617 2.194364,1.578505 3.138975,1.615753 2.33096,0.09191 4.03669,-2.156409 5.073734,-0.812999 -0.499066,1.638422 -3.506669,11.559331 -7.515128,9.787343 -3.320528,-1.446788 -1.398508,-8.825097 -0.697581,-10.590097 z"
     id="path8" />
  <path
     style="opacity:0.1;fill:#ffffff"
     d="M 24 4 A 20 20 0 0 0 4 24 A 20 20 0 0 0 4.0058594 24.511719 A 20 20 0 0 1 24 5 A 20 20 0 0 1 43.994141 24.488281 A 20 20 0 0 0 44 24 A 20 20 0 0 0 24 4 z"
     id="path10" />
  <circle
     style="opacity:0.2"
     cx="35"
     cy="36"
     r="11"
     id="circle12" />
  <circle
     style="fill:#5f697d;fill-opacity:1"
     cx="35"
     cy="35"
     r="11"
     id="circle14" />
  <path
     fill="#ffffff"
     d="m 39.67483,30.323826 c -0.431728,-0.431768 -1.126815,-0.431768 -1.55861,0 l -3.117136,3.117421 -3.117136,-3.117421 c -0.431728,-0.431768 -1.126899,-0.431768 -1.55861,0 -0.431728,0.431767 -0.431728,1.126918 0,1.558752 L 33.440474,35 30.323338,38.117422 c -0.431728,0.431767 -0.431728,1.127002 0,1.558752 0.431728,0.431768 1.126898,0.431768 1.55861,10e-7 l 3.118053,-3.118338 3.117135,3.117422 c 0.431729,0.431767 1.126899,0.431767 1.55861,0 0.431728,-0.431767 0.431728,-1.127001 0,-1.558752 l -3.117136,-3.117422 3.117136,-3.117422 c 0.431728,-0.431767 0.431728,-1.127002 0,-1.558752 z"
     id="path16" />
</svg>
