<?xml version="1.0" encoding="UTF-8" standalone="no"?>
<svg
   xmlns:dc="http://purl.org/dc/elements/1.1/"
   xmlns:cc="http://creativecommons.org/ns#"
   xmlns:rdf="http://www.w3.org/1999/02/22-rdf-syntax-ns#"
   xmlns:svg="http://www.w3.org/2000/svg"
   xmlns="http://www.w3.org/2000/svg"
   xmlns:sodipodi="http://sodipodi.sourceforge.net/DTD/sodipodi-0.dtd"
   xmlns:inkscape="http://www.inkscape.org/namespaces/inkscape"
   width="48"
   height="48"
   version="1"
   id="svg40"
   sodipodi:docname="winefile.svg"
   inkscape:version="0.92.5 (2060ec1f9f, 2020-04-08)">
  <metadata
     id="metadata46">
    <rdf:RDF>
      <cc:Work
         rdf:about="">
        <dc:format>image/svg+xml</dc:format>
        <dc:type
           rdf:resource="http://purl.org/dc/dcmitype/StillImage" />
      </cc:Work>
    </rdf:RDF>
  </metadata>
  <defs
     id="defs44" />
  <sodipodi:namedview
     pagecolor="#ffffff"
     bordercolor="#666666"
     borderopacity="1"
     objecttolerance="10"
     gridtolerance="10"
     guidetolerance="10"
     inkscape:pageopacity="0"
     inkscape:pageshadow="2"
     inkscape:window-width="783"
     inkscape:window-height="480"
     id="namedview42"
     showgrid="false"
     inkscape:zoom="4.9166667"
     inkscape:cx="28.13017"
     inkscape:cy="45.17754"
     inkscape:window-x="0"
     inkscape:window-y="28"
     inkscape:window-maximized="0"
     inkscape:current-layer="g38" />
  <rect
     style="fill:#727c90;fill-opacity:1"
     width="36"
     height="24"
     x="6"
     y="4"
     rx="1.5"
     ry="1.5"
     id="rect2" />
  <rect
     style="opacity:0.1"
     width="36"
     height="24"
     x="6"
     y="7"
     rx="1.5"
     ry="1.5"
     id="rect4" />
  <rect
     style="fill:#697387;fill-opacity:1"
     width="36"
     height="24"
     x="6"
     y="8"
     rx="1.5"
     ry="1.5"
     id="rect6" />
  <rect
     style="opacity:0.1"
     width="36"
     height="24"
     x="6"
     y="11"
     rx="1.5"
     ry="1.5"
     id="rect8" />
  <rect
     style="fill:#5f697d;fill-opacity:1"
     width="36"
     height="24"
     x="6"
     y="12"
     rx="1.5"
     ry="1.5"
     id="rect10" />
  <rect
     style="opacity:0.2"
     width="40"
     height="28"
     x="4"
     y="17"
     rx="2"
     ry="2"
     id="rect12" />
  <rect
     style="fill:#4c566a;fill-opacity:1"
     width="40"
     height="28"
     x="4"
     y="16"
     rx="2"
     ry="2"
     id="rect14" />
  <rect
     style="opacity:0.2"
     width="14"
     height="4"
     x="17"
     y="28"
     rx="1"
     ry="1"
     id="rect16" />
  <rect
     style="fill:#ececec"
     width="14"
     height="4"
     x="17"
     y="27"
     rx="1"
     ry="1"
     id="rect18" />
  <path
     style="fill:#ffffff;opacity:0.1"
     d="M 7.5 4 C 6.669 4 6 4.669 6 5.5 L 6 6.5 C 6 5.669 6.669 5 7.5 5 L 40.5 5 C 41.331 5 42 5.669 42 6.5 L 42 5.5 C 42 4.669 41.331 4 40.5 4 L 7.5 4 z"
     id="path20" />
  <path
     style="opacity:0.1;fill:#ffffff"
     d="M 7.5,8 C 6.669,8 6,8.669 6,9.5 V 10.5 C 6,9.669 6.669,9 7.5,9 H 40.5 C 41.331,9 42,9.669 42,10.5 V 9.5 C 42,8.669 41.331,8 40.5,8 Z"
     id="path22" />
  <path
     style="opacity:0.1;fill:#ffffff"
     d="M 7.5,12 C 6.669,12 6,12.669 6,13.5 V 14.5 C 6,13.669 6.669,13 7.5,13 H 40.5 C 41.331,13 42,13.669 42,14.5 V 13.5 C 42,12.669 41.331,12 40.5,12 Z"
     id="path24" />
  <g
     id="g38">
    <circle
       style="opacity:0.2"
       cx="36"
       cy="36"
       r="12"
       id="circle26" />
    <circle
       style="fill:#5f697d;fill-opacity:1"
       cx="36"
       cy="35"
       r="12"
       id="circle28" />
    <rect
       style="fill:#ffffff"
       width="5"
       height="5"
       x="30"
       y="29"
       rx=".5"
       ry=".5"
       id="rect30" />
    <rect
       style="fill:#ffffff"
       width="5"
       height="5"
       x="37"
       y="29"
       rx=".5"
       ry=".5"
       id="rect32" />
    <rect
       style="fill:#ffffff"
       width="5"
       height="5"
       x="37"
       y="36"
       rx=".5"
       ry=".5"
       id="rect34" />
    <rect
       style="fill:#ffffff"
       width="5"
       height="5"
       x="30"
       y="36"
       rx=".5"
       ry=".5"
       id="rect36" />
  </g>
</svg>
