<?xml version="1.0" encoding="UTF-8" standalone="no"?>
<svg
   xmlns:dc="http://purl.org/dc/elements/1.1/"
   xmlns:cc="http://creativecommons.org/ns#"
   xmlns:rdf="http://www.w3.org/1999/02/22-rdf-syntax-ns#"
   xmlns:svg="http://www.w3.org/2000/svg"
   xmlns="http://www.w3.org/2000/svg"
   xmlns:sodipodi="http://sodipodi.sourceforge.net/DTD/sodipodi-0.dtd"
   xmlns:inkscape="http://www.inkscape.org/namespaces/inkscape"
   width="48"
   height="48"
   version="1.1"
   id="svg14"
   sodipodi:docname="wolfram-language.svg"
   inkscape:version="0.92.5 (2060ec1f9f, 2020-04-08)">
  <metadata
     id="metadata20">
    <rdf:RDF>
      <cc:Work
         rdf:about="">
        <dc:format>image/svg+xml</dc:format>
        <dc:type
           rdf:resource="http://purl.org/dc/dcmitype/StillImage" />
      </cc:Work>
    </rdf:RDF>
  </metadata>
  <defs
     id="defs18" />
  <sodipodi:namedview
     pagecolor="#ffffff"
     bordercolor="#666666"
     borderopacity="1"
     objecttolerance="10"
     gridtolerance="10"
     guidetolerance="10"
     inkscape:pageopacity="0"
     inkscape:pageshadow="2"
     inkscape:window-width="783"
     inkscape:window-height="480"
     id="namedview16"
     showgrid="false"
     inkscape:zoom="4.9166667"
     inkscape:cx="24"
     inkscape:cy="24"
     inkscape:window-x="0"
     inkscape:window-y="28"
     inkscape:window-maximized="0"
     inkscape:current-layer="g12" />
  <g
     transform="matrix(2,0,0,2,2,2)"
     id="g12">
    <circle
       cx="11"
       cy="11.5"
       r="10"
       style="opacity:.2"
       id="circle2" />
    <circle
       cx="11"
       cy="11"
       r="10"
       style="fill:#4c566a;fill-opacity:1"
       id="circle4" />
    <path
       d="M 11,1 A 10,10 0 0 0 1,11 10,10 0 0 0 1.0098,11.293 10,10 0 0 1 11,1.5 10,10 0 0 1 20.99,11.207 10,10 0 0 0 21,11 10,10 0 0 0 11,1 Z"
       style="fill:#ffffff;opacity:.2"
       id="path6" />
    <path
       d="m10 3.5c-1.1183764 1.5061282-2.4872877 3-2.9999996 5-1.2142886 1.1811169-2.4060414 3.618387-3 6-0.030373 0.121789-0.05798 0.299718-0.087891 0.433594a8 8.5 0 0 0 7.0878906 4.566406 8 8.5 0 0 0 4.13672-1.234375l-3.13672-3.765625h5.000001l1-1-6.000001-4v-5l-1.5 2zm1 7c1 0 1.357287 0.346011 2 1h-2z"
       style="opacity:.2"
       id="path8" />
    <path
       d="m10 3c-1.1183768 1.5061282-2.4872881 3-3 5-1.2142886 1.1811169-2.4060414 3.618387-3 6-0.030373 0.121789-0.05798 0.299718-0.087891 0.433594a8 8.5 0 0 0 7.087891 4.566406 8 8.5 0 0 0 4.136719-1.234375l-3.136719-3.765625h5l1-1-6-4v-5l-1.5 2zm1 7c1 0 1.357287 0.346011 2 1h-2z"
       style="fill:#ffffff"
       id="path10" />
  </g>
</svg>
