<?xml version="1.0" encoding="UTF-8" standalone="no"?>
<svg
   xmlns:dc="http://purl.org/dc/elements/1.1/"
   xmlns:cc="http://creativecommons.org/ns#"
   xmlns:rdf="http://www.w3.org/1999/02/22-rdf-syntax-ns#"
   xmlns:svg="http://www.w3.org/2000/svg"
   xmlns="http://www.w3.org/2000/svg"
   xmlns:sodipodi="http://sodipodi.sourceforge.net/DTD/sodipodi-0.dtd"
   xmlns:inkscape="http://www.inkscape.org/namespaces/inkscape"
   width="48"
   height="48"
   version="1"
   id="svg20"
   sodipodi:docname="wootility.svg"
   inkscape:version="0.92.5 (2060ec1f9f, 2020-04-08)">
  <metadata
     id="metadata26">
    <rdf:RDF>
      <cc:Work
         rdf:about="">
        <dc:format>image/svg+xml</dc:format>
        <dc:type
           rdf:resource="http://purl.org/dc/dcmitype/StillImage" />
      </cc:Work>
    </rdf:RDF>
  </metadata>
  <defs
     id="defs24" />
  <sodipodi:namedview
     pagecolor="#ffffff"
     bordercolor="#666666"
     borderopacity="1"
     objecttolerance="10"
     gridtolerance="10"
     guidetolerance="10"
     inkscape:pageopacity="0"
     inkscape:pageshadow="2"
     inkscape:window-width="783"
     inkscape:window-height="480"
     id="namedview22"
     showgrid="false"
     inkscape:zoom="6.9532167"
     inkscape:cx="25.552304"
     inkscape:cy="32.598012"
     inkscape:window-x="0"
     inkscape:window-y="28"
     inkscape:window-maximized="0"
     inkscape:current-layer="svg20" />
  <rect
     style="opacity:0.2"
     width="44"
     height="30"
     x="2"
     y="10"
     rx="2"
     ry="2.143"
     id="rect2" />
  <rect
     style="fill:#4c566a;fill-opacity:1"
     width="44"
     height="30"
     x="2"
     y="9"
     rx="2"
     ry="2.143"
     id="rect4" />
  <rect
     style="fill:#414b5f;fill-opacity:1"
     width="36"
     height="22"
     x="6"
     y="13"
     id="rect6" />
  <path
     style="opacity:0.2"
     d="M 9.5,18 12,32 h 6 3 6 3 6 l 2.5,-14 h -6 l -1.427734,8 H 27 v -8 h -6 v 8 H 16.927734 L 15.5,18 Z"
     id="path8" />
  <path
     style="fill:#f9f9f9;fill-opacity:1"
     d="M 9.5 17 L 12 31 L 18 31 L 21 31 L 27 31 L 30 31 L 36 31 L 38.5 17 L 32.5 17 L 31.072266 25 L 27 25 L 27 17 L 21 17 L 21 25 L 16.927734 25 L 15.5 17 L 9.5 17 z"
     id="path10" />
  <path
     style="fill:#ffffff;opacity:0.2"
     d="M 4 9 C 2.892 9 2 9.9554353 2 11.142578 L 2 12.142578 C 2 10.955435 2.892 10 4 10 L 44 10 C 45.108 10 46 10.955435 46 12.142578 L 46 11.142578 C 46 9.9554353 45.108 9 44 9 L 4 9 z"
     id="path12" />
  <path
     style="opacity:0.2;fill:#ffffff"
     d="M 9.5 17 L 9.6777344 18 L 15.5 18 L 16.927734 26 L 21 26 L 21 25 L 16.927734 25 L 15.5 17 L 9.5 17 z M 21 17 L 21 18 L 27 18 L 27 17 L 21 17 z M 32.5 17 L 31.072266 25 L 27 25 L 27 26 L 31.072266 26 L 32.5 18 L 38.322266 18 L 38.5 17 L 32.5 17 z"
     id="path14" />
  <rect
     style="opacity:0.2"
     width="36"
     height="1"
     x="6"
     y="13"
     id="rect16" />
  <rect
     style="opacity:0.2;fill:#ffffff"
     width="36"
     height="1"
     x="6"
     y="35"
     id="rect18" />
</svg>
