<?xml version="1.0" encoding="UTF-8" standalone="no"?>
<svg
   xmlns:dc="http://purl.org/dc/elements/1.1/"
   xmlns:cc="http://creativecommons.org/ns#"
   xmlns:rdf="http://www.w3.org/1999/02/22-rdf-syntax-ns#"
   xmlns:svg="http://www.w3.org/2000/svg"
   xmlns="http://www.w3.org/2000/svg"
   xmlns:sodipodi="http://sodipodi.sourceforge.net/DTD/sodipodi-0.dtd"
   xmlns:inkscape="http://www.inkscape.org/namespaces/inkscape"
   width="48"
   height="48"
   version="1"
   id="svg26"
   sodipodi:docname="workflowy.svg"
   inkscape:version="0.92.5 (2060ec1f9f, 2020-04-08)">
  <metadata
     id="metadata32">
    <rdf:RDF>
      <cc:Work
         rdf:about="">
        <dc:format>image/svg+xml</dc:format>
        <dc:type
           rdf:resource="http://purl.org/dc/dcmitype/StillImage" />
      </cc:Work>
    </rdf:RDF>
  </metadata>
  <defs
     id="defs30" />
  <sodipodi:namedview
     pagecolor="#ffffff"
     bordercolor="#666666"
     borderopacity="1"
     objecttolerance="10"
     gridtolerance="10"
     guidetolerance="10"
     inkscape:pageopacity="0"
     inkscape:pageshadow="2"
     inkscape:window-width="783"
     inkscape:window-height="480"
     id="namedview28"
     showgrid="false"
     inkscape:zoom="4.9166667"
     inkscape:cx="24"
     inkscape:cy="24"
     inkscape:window-x="0"
     inkscape:window-y="28"
     inkscape:window-maximized="0"
     inkscape:current-layer="svg26" />
  <rect
     style="fill:#4c566a;fill-opacity:1"
     width="40"
     height="40"
     x="4"
     y="4"
     rx="2"
     ry="2"
     id="rect2" />
  <path
     style="opacity:0.1;fill:#ffffff"
     d="M 6,4 C 4.892,4 4,4.892 4,6 V 7 C 4,5.892 4.892,5 6,5 h 36 c 1.108,0 2,0.892 2,2 V 6 C 44,4.892 43.108,4 42,4 Z"
     id="path4" />
  <path
     style="opacity:0.2"
     d="m 4,42 v 1 c 0,1.108 0.892,2 2,2 h 36 c 1.108,0 2,-0.892 2,-2 v -1 c 0,1.108 -0.892,2 -2,2 H 6 C 4.892,44 4,43.108 4,42 Z"
     id="path6" />
  <rect
     style="opacity:0.4;fill:#ffffff"
     width="13"
     height="4"
     x="23"
     y="22"
     rx="2"
     ry="2"
     id="rect8" />
  <rect
     style="opacity:0.4;fill:#ffffff"
     width="22"
     height="4"
     x="14"
     y="30"
     rx="2"
     ry="2"
     id="rect10" />
  <rect
     style="opacity:0.4;fill:#ffffff"
     width="22"
     height="4"
     x="14"
     y="14"
     rx="2"
     ry="2"
     id="rect12" />
  <circle
     style="opacity:0.2"
     cx="16"
     cy="17"
     r="4"
     id="circle14" />
  <circle
     style="fill:#ffffff"
     cx="16"
     cy="16"
     r="4"
     id="circle16" />
  <circle
     style="opacity:0.2"
     cx="16"
     cy="33"
     r="4"
     id="circle18" />
  <circle
     style="fill:#ffffff"
     cx="16"
     cy="32"
     r="4"
     id="circle20" />
  <circle
     style="opacity:0.2"
     cx="22"
     cy="25"
     r="4"
     id="circle22" />
  <circle
     style="fill:#ffffff"
     cx="22"
     cy="24"
     r="4"
     id="circle24" />
</svg>
