<?xml version="1.0" encoding="UTF-8" standalone="no"?>
<svg
   xmlns:dc="http://purl.org/dc/elements/1.1/"
   xmlns:cc="http://creativecommons.org/ns#"
   xmlns:rdf="http://www.w3.org/1999/02/22-rdf-syntax-ns#"
   xmlns:svg="http://www.w3.org/2000/svg"
   xmlns="http://www.w3.org/2000/svg"
   xmlns:sodipodi="http://sodipodi.sourceforge.net/DTD/sodipodi-0.dtd"
   xmlns:inkscape="http://www.inkscape.org/namespaces/inkscape"
   width="48"
   height="48"
   version="1.1"
   id="svg34"
   sodipodi:docname="Worker.svg"
   inkscape:version="0.92.5 (2060ec1f9f, 2020-04-08)">
  <metadata
     id="metadata40">
    <rdf:RDF>
      <cc:Work
         rdf:about="">
        <dc:format>image/svg+xml</dc:format>
        <dc:type
           rdf:resource="http://purl.org/dc/dcmitype/StillImage" />
      </cc:Work>
    </rdf:RDF>
  </metadata>
  <defs
     id="defs38" />
  <sodipodi:namedview
     pagecolor="#ffffff"
     bordercolor="#666666"
     borderopacity="1"
     objecttolerance="10"
     gridtolerance="10"
     guidetolerance="10"
     inkscape:pageopacity="0"
     inkscape:pageshadow="2"
     inkscape:window-width="783"
     inkscape:window-height="480"
     id="namedview36"
     showgrid="false"
     inkscape:zoom="4.9166667"
     inkscape:cx="23.47429"
     inkscape:cy="28.417184"
     inkscape:window-x="0"
     inkscape:window-y="28"
     inkscape:window-maximized="0"
     inkscape:current-layer="svg34" />
  <rect
     style="opacity:0.2"
     width="40"
     height="40"
     x="4"
     y="5"
     ry="4"
     id="rect2" />
  <path
     style="fill:#4c566a;fill-opacity:1"
     d="M 4,9.9 V 40 c 0,2.216 1.784,4 4,4 h 32 c 2.216,0 4,-1.784 4,-4 V 9.9 Z"
     id="path4" />
  <path
     style="opacity:0.1"
     d="M 6,13 V 35 H 24 42 V 13 H 24 Z m 0,24 v 2 h 12 v -2 z m 14,0 v 2 h 6 v -2 z m 8,0 v 2 h 6 v -2 z m 8,0 v 2 h 6 V 37 Z M 6,41 v 2 h 12 v -2 z m 14,0 v 2 h 6 v -2 z m 8,0 v 2 h 6 v -2 z m 8,0 v 2 h 6 v -2 z"
     id="path6" />
  <path
     style="opacity:0.1"
     d="M 8,5 C 5.784,5 4,6.784 4,9 v 2 H 44 V 9 C 44,6.784 42.216,5 40,5 Z"
     id="path8" />
  <path
     style="fill:#5f697d;fill-opacity:1"
     d="M 8,4 C 5.784,4 4,5.784 4,8 v 2 H 44 V 8 C 44,5.784 42.216,4 40,4 Z"
     id="path10" />
  <rect
     style="fill:#5f697d;fill-opacity:1"
     width="36"
     height="22"
     x="6"
     y="12"
     id="rect12" />
  <rect
     style="fill:#5f697d;fill-opacity:1"
     width="18"
     height="22"
     x="24"
     y="12"
     id="rect14" />
  <rect
     style="fill:#e6e6e6"
     width="12"
     height="2"
     x="6"
     y="36"
     id="rect16" />
  <rect
     style="fill:#e6e6e6"
     width="6"
     height="2"
     x="20"
     y="36"
     id="rect18" />
  <rect
     style="fill:#ffffff;fill-opacity:1"
     width="6"
     height="2"
     x="28"
     y="36"
     id="rect20" />
  <rect
     style="fill:#e6e6e6"
     width="6"
     height="2"
     x="36"
     y="36"
     id="rect22" />
  <rect
     style="fill:#ffffff;fill-opacity:1"
     width="12"
     height="2"
     x="6"
     y="40"
     id="rect24" />
  <rect
     style="fill:#e6e6e6"
     width="6"
     height="2"
     x="20"
     y="40"
     id="rect26" />
  <rect
     style="fill:#e6e6e6"
     width="6"
     height="2"
     x="28"
     y="40"
     id="rect28" />
  <rect
     style="fill:#ffffff;fill-opacity:1"
     width="6"
     height="2"
     x="36"
     y="40"
     id="rect30" />
  <path
     style="opacity:0.2;fill:#ffffff"
     d="M 8 4 C 5.784 4 4 5.784 4 8 L 4 9 C 4 6.784 5.784 5 8 5 L 40 5 C 42.216 5 44 6.784 44 9 L 44 8 C 44 5.784 42.216 4 40 4 L 8 4 z"
     id="path32" />
</svg>
