<?xml version="1.0" encoding="UTF-8" standalone="no"?>
<svg
   xmlns:dc="http://purl.org/dc/elements/1.1/"
   xmlns:cc="http://creativecommons.org/ns#"
   xmlns:rdf="http://www.w3.org/1999/02/22-rdf-syntax-ns#"
   xmlns:svg="http://www.w3.org/2000/svg"
   xmlns="http://www.w3.org/2000/svg"
   xmlns:sodipodi="http://sodipodi.sourceforge.net/DTD/sodipodi-0.dtd"
   xmlns:inkscape="http://www.inkscape.org/namespaces/inkscape"
   width="48"
   height="48"
   version="1"
   id="svg26"
   sodipodi:docname="workrave.svg"
   inkscape:version="0.92.5 (2060ec1f9f, 2020-04-08)">
  <metadata
     id="metadata32">
    <rdf:RDF>
      <cc:Work
         rdf:about="">
        <dc:format>image/svg+xml</dc:format>
        <dc:type
           rdf:resource="http://purl.org/dc/dcmitype/StillImage" />
      </cc:Work>
    </rdf:RDF>
  </metadata>
  <defs
     id="defs30" />
  <sodipodi:namedview
     pagecolor="#ffffff"
     bordercolor="#666666"
     borderopacity="1"
     objecttolerance="10"
     gridtolerance="10"
     guidetolerance="10"
     inkscape:pageopacity="0"
     inkscape:pageshadow="2"
     inkscape:window-width="783"
     inkscape:window-height="480"
     id="namedview28"
     showgrid="false"
     inkscape:zoom="4.9166667"
     inkscape:cx="24"
     inkscape:cy="24"
     inkscape:window-x="0"
     inkscape:window-y="28"
     inkscape:window-maximized="0"
     inkscape:current-layer="svg26" />
  <path
     fill="#e4e4e4"
     d="m24 4c-2.769 0-5.269 1.1136-7.076 2.9199-2.554 0.0015-5.109 0.9803-7.0666 2.9375-1.9572 1.9576-2.936 4.5126-2.9375 7.0666-1.8063 1.807-2.9199 4.307-2.9199 7.076s1.1136 5.269 2.9199 7.076c0.0015 2.554 0.9803 5.109 2.9375 7.067 1.9576 1.957 4.5126 2.936 7.0666 2.937 1.807 1.806 4.307 2.92 7.076 2.92s5.269-1.114 7.076-2.92c2.554-0.001 5.109-0.98 7.067-2.937 1.957-1.958 2.936-4.513 2.937-7.067 1.806-1.807 2.92-4.307 2.92-7.076s-1.114-5.269-2.92-7.076c-0.001-2.554-0.98-5.109-2.937-7.0666-1.958-1.9572-4.513-2.936-7.067-2.9375-1.807-1.8063-4.307-2.9199-7.076-2.9199z"
     id="path2"
     style="fill:#4c566a;fill-opacity:1" />
  <rect
     fill="#d09e73"
     width="5.855"
     height="11.709"
     x="-31.21"
     y="1.22"
     rx="2.927"
     ry="2.927"
     transform="matrix(-.70711 -.70711 -.70711 .70711 0 0)"
     id="rect4"
     style="fill:#ffffff;fill-opacity:1" />
  <path
     fill="#fff"
     opacity=".2"
     d="m24 4c-2.769 0-5.269 1.1136-7.076 2.9199-2.554 0.0015-5.109 0.9803-7.0666 2.9375-1.9572 1.9576-2.936 4.5126-2.9375 7.0666-1.8063 1.807-2.9199 4.307-2.9199 7.076 0 0.169 0.0172 0.333 0.0254 0.5 0.126-2.568 1.1983-4.879 2.8945-6.576 0.0015-2.554 0.9803-5.109 2.9375-7.067 1.9576-1.9568 4.5126-2.9356 7.0666-2.9371 1.807-1.8063 4.307-2.9199 7.076-2.9199s5.269 1.1136 7.076 2.9199c2.554 0.0015 5.109 0.9803 7.067 2.9371 1.957 1.958 2.936 4.513 2.937 7.067 1.696 1.697 2.769 4.008 2.895 6.576 0.008-0.167 0.025-0.331 0.025-0.5 0-2.769-1.114-5.269-2.92-7.076-0.001-2.554-0.98-5.109-2.937-7.0666-1.958-1.9572-4.513-2.936-7.067-2.9375-1.807-1.8063-4.307-2.9199-7.076-2.9199z"
     id="path6" />
  <path
     opacity=".2"
     d="m4.0254 24.5c-0.0082 0.167-0.0254 0.331-0.0254 0.5 0 2.769 1.1136 5.2688 2.9199 7.0762 0.00149 2.5542 0.98031 5.1092 2.9375 7.0664s4.5122 2.936 7.0664 2.9375c1.807 1.806 4.307 2.92 7.076 2.92s5.2688-1.1136 7.0762-2.9199c2.5542-0.0015 5.1092-0.98031 7.0664-2.9375s2.936-4.5122 2.9375-7.0664c1.806-1.807 2.92-4.307 2.92-7.076 0-0.16879-0.01721-0.33331-0.02539-0.5-0.12601 2.5679-1.1983 4.879-2.8945 6.5762-0.0015 2.5542-0.98031 5.1092-2.9375 7.0664s-4.5122 2.936-7.0664 2.9375c-1.807 1.806-4.307 2.92-7.076 2.92s-5.2688-1.1136-7.0762-2.9199c-2.5542-0.0015-5.1092-0.98031-7.0664-2.9375s-2.936-4.5122-2.9375-7.0664c-1.6963-1.697-2.7686-4.008-2.8946-6.576z"
     id="path8" />
  <circle
     fill="#d09e73"
     cx="24"
     cy="24"
     r="9"
     id="circle10"
     style="fill:#ffffff;fill-opacity:1" />
  <rect
     fill="#d09e73"
     width="5.855"
     height="11.709"
     x="2.73"
     y="35.16"
     rx="2.927"
     ry="2.927"
     transform="rotate(-45)"
     id="rect12"
     style="fill:#ffffff;fill-opacity:1" />
  <g
     opacity=".2"
     transform="translate(0,1)"
     id="g18">
    <circle
       cx="20"
       cy="22"
       r="2"
       id="circle14" />
    <circle
       cx="28"
       cy="22"
       r="2"
       id="circle16" />
  </g>
  <g
     fill="#4d4d4d"
     id="g24">
    <circle
       cx="20"
       cy="22"
       r="2"
       id="circle20" />
    <circle
       cx="28"
       cy="22"
       r="2"
       id="circle22" />
  </g>
</svg>
