<?xml version="1.0" encoding="UTF-8" standalone="no"?>
<svg
   xmlns:dc="http://purl.org/dc/elements/1.1/"
   xmlns:cc="http://creativecommons.org/ns#"
   xmlns:rdf="http://www.w3.org/1999/02/22-rdf-syntax-ns#"
   xmlns:svg="http://www.w3.org/2000/svg"
   xmlns="http://www.w3.org/2000/svg"
   xmlns:sodipodi="http://sodipodi.sourceforge.net/DTD/sodipodi-0.dtd"
   xmlns:inkscape="http://www.inkscape.org/namespaces/inkscape"
   width="48"
   height="48"
   version="1"
   id="svg20"
   sodipodi:docname="wpa_gui.svg"
   inkscape:version="0.92.5 (2060ec1f9f, 2020-04-08)">
  <metadata
     id="metadata26">
    <rdf:RDF>
      <cc:Work
         rdf:about="">
        <dc:format>image/svg+xml</dc:format>
        <dc:type
           rdf:resource="http://purl.org/dc/dcmitype/StillImage" />
      </cc:Work>
    </rdf:RDF>
  </metadata>
  <defs
     id="defs24" />
  <sodipodi:namedview
     pagecolor="#ffffff"
     bordercolor="#666666"
     borderopacity="1"
     objecttolerance="10"
     gridtolerance="10"
     guidetolerance="10"
     inkscape:pageopacity="0"
     inkscape:pageshadow="2"
     inkscape:window-width="783"
     inkscape:window-height="480"
     id="namedview22"
     showgrid="false"
     inkscape:zoom="4.9166667"
     inkscape:cx="24"
     inkscape:cy="24"
     inkscape:window-x="0"
     inkscape:window-y="28"
     inkscape:window-maximized="0"
     inkscape:current-layer="svg20" />
  <rect
     style="opacity:0.2"
     width="40"
     height="40"
     x="4"
     y="5"
     rx="12"
     ry="12"
     id="rect2" />
  <rect
     style="fill:#4c566a;fill-opacity:1"
     width="40"
     height="40"
     x="4"
     y="4"
     rx="12"
     ry="12"
     id="rect4" />
  <path
     style="opacity:0.2;fill:none;stroke:#000000;stroke-width:4;stroke-linecap:round;stroke-linejoin:round"
     d="M 16.938732,35.915436 A 13,13 0 0 1 11.527318,21.33538 13,13 0 0 1 23.965966,12.000422 13,13 0 0 1 36.453321,21.270125 13,13 0 0 1 31.118322,35.878314"
     id="path6" />
  <path
     style="fill:#ffffff;opacity:0.1"
     d="M 16 4 C 9.352 4 4 9.352 4 16 L 4 17 C 4 10.352 9.352 5 16 5 L 32 5 C 38.648 5 44 10.352 44 17 L 44 16 C 44 9.352 38.648 4 32 4 L 16 4 z"
     id="path8" />
  <path
     style="fill:none;stroke:#fefefe;stroke-width:4;stroke-linecap:round;stroke-linejoin:round;stroke-opacity:1"
     d="M 16.938732,34.915058 A 13,13 0 0 1 11.527318,20.335002 13,13 0 0 1 23.965966,11.000045 13,13 0 0 1 36.453321,20.269747 13,13 0 0 1 31.118322,34.877936"
     id="path10" />
  <path
     style="opacity:0.2;fill:none;stroke:#000000;stroke-width:4;stroke-linecap:round;stroke-linejoin:round"
     d="m 20.075527,30.7968 a 7,7 0 0 1 -2.772334,-7.83426 7,7 0 0 1 6.666264,-4.962096 7,7 0 0 1 6.709311,4.903734 7,7 0 0 1 -2.703862,7.858154"
     id="path12" />
  <path
     style="fill:none;stroke:#fdfdfd;stroke-width:4;stroke-linecap:round;stroke-linejoin:round;stroke-opacity:1"
     d="m 20.075527,29.796422 a 7,7 0 0 1 -2.772334,-7.83426 7,7 0 0 1 6.666264,-4.962095 7,7 0 0 1 6.709311,4.903733 7,7 0 0 1 -2.703862,7.858155"
     id="path14" />
  <circle
     style="opacity:0.2"
     cx="24"
     cy="25"
     r="3"
     id="circle16" />
  <circle
     style="fill:#ffffff"
     cx="24"
     cy="24"
     r="3"
     id="circle18" />
</svg>
