<?xml version="1.0" encoding="UTF-8" standalone="no"?>
<svg
   xmlns:dc="http://purl.org/dc/elements/1.1/"
   xmlns:cc="http://creativecommons.org/ns#"
   xmlns:rdf="http://www.w3.org/1999/02/22-rdf-syntax-ns#"
   xmlns:svg="http://www.w3.org/2000/svg"
   xmlns="http://www.w3.org/2000/svg"
   xmlns:sodipodi="http://sodipodi.sourceforge.net/DTD/sodipodi-0.dtd"
   xmlns:inkscape="http://www.inkscape.org/namespaces/inkscape"
   width="48"
   height="48"
   version="1.1"
   id="svg12"
   sodipodi:docname="x-rebirth.svg"
   inkscape:version="0.92.5 (2060ec1f9f, 2020-04-08)">
  <metadata
     id="metadata18">
    <rdf:RDF>
      <cc:Work
         rdf:about="">
        <dc:format>image/svg+xml</dc:format>
        <dc:type
           rdf:resource="http://purl.org/dc/dcmitype/StillImage" />
      </cc:Work>
    </rdf:RDF>
  </metadata>
  <defs
     id="defs16" />
  <sodipodi:namedview
     pagecolor="#ffffff"
     bordercolor="#666666"
     borderopacity="1"
     objecttolerance="10"
     gridtolerance="10"
     guidetolerance="10"
     inkscape:pageopacity="0"
     inkscape:pageshadow="2"
     inkscape:window-width="783"
     inkscape:window-height="480"
     id="namedview14"
     showgrid="false"
     inkscape:zoom="4.9166667"
     inkscape:cx="-1.1186441"
     inkscape:cy="24"
     inkscape:window-x="0"
     inkscape:window-y="28"
     inkscape:window-maximized="0"
     inkscape:current-layer="svg12" />
  <rect
     style="opacity:0.2"
     width="40"
     height="40"
     x="4"
     y="5"
     rx="3"
     ry="3"
     id="rect2" />
  <rect
     style="fill:#4c566a;fill-opacity:1"
     width="40"
     height="40"
     x="4"
     y="4"
     rx="3"
     ry="3"
     id="rect4" />
  <path
     style="opacity:0.2;fill:#ffffff"
     d="M 7,4 C 5.338,4 4,5.3379999 4,7 V 8 C 4,6.3379999 5.338,5 7,5 h 34 c 1.662,0 3,1.3379999 3,3 V 7 C 44,5.3379999 42.662,4 41,4 Z"
     id="path6" />
  <path
     style="opacity:0.1"
     d="m 13.6,13 h 8.8 l 3.2,5 4,-5 H 40 L 29.6,25 36,37 H 26.4 L 23.199999,32.2 19.2,37 H 7.9999998 L 19.2,24.2 Z"
     id="path8" />
  <path
     style="fill:#ffffff;fill-opacity:1"
     d="m 13.6,12 h 8.8 l 3.2,5 4,-5 H 40 L 29.6,24 36,36 H 26.4 L 23.199999,31.2 19.2,36 H 7.9999998 L 19.2,23.2 Z"
     id="path10" />
</svg>
