<?xml version="1.0" encoding="UTF-8" standalone="no"?>
<svg
   xmlns:dc="http://purl.org/dc/elements/1.1/"
   xmlns:cc="http://creativecommons.org/ns#"
   xmlns:rdf="http://www.w3.org/1999/02/22-rdf-syntax-ns#"
   xmlns:svg="http://www.w3.org/2000/svg"
   xmlns="http://www.w3.org/2000/svg"
   xmlns:sodipodi="http://sodipodi.sourceforge.net/DTD/sodipodi-0.dtd"
   xmlns:inkscape="http://www.inkscape.org/namespaces/inkscape"
   width="48"
   height="48"
   version="1"
   id="svg20"
   sodipodi:docname="xchat-gnome.svg"
   inkscape:version="0.92.5 (2060ec1f9f, 2020-04-08)">
  <metadata
     id="metadata26">
    <rdf:RDF>
      <cc:Work
         rdf:about="">
        <dc:format>image/svg+xml</dc:format>
        <dc:type
           rdf:resource="http://purl.org/dc/dcmitype/StillImage" />
      </cc:Work>
    </rdf:RDF>
  </metadata>
  <defs
     id="defs24" />
  <sodipodi:namedview
     pagecolor="#ffffff"
     bordercolor="#666666"
     borderopacity="1"
     objecttolerance="10"
     gridtolerance="10"
     guidetolerance="10"
     inkscape:pageopacity="0"
     inkscape:pageshadow="2"
     inkscape:window-width="783"
     inkscape:window-height="480"
     id="namedview22"
     showgrid="false"
     inkscape:zoom="4.9166667"
     inkscape:cx="24"
     inkscape:cy="24"
     inkscape:window-x="0"
     inkscape:window-y="28"
     inkscape:window-maximized="0"
     inkscape:current-layer="svg20" />
  <path
     fill="#0286c2"
     d="m44 6-4 4v18c0 1.108-0.892 2-2 2h-20c-1.108 0-2-0.892-2-2v-20c0-1.108 0.892-2 2-2h26z"
     id="path2" />
  <path
     fill="#feea3a"
     d="m44 6-4 4v18c0 1.108-0.892 2-2 2h-20c-1.108 0-2-0.892-2-2v-20c0-1.108 0.892-2 2-2h26z"
     id="path4"
     style="fill:#5f697d;fill-opacity:1" />
  <path
     opacity=".2"
     d="m43 7-3 3v1l4-4h-1zm-27 21v1c0 1.108 0.892 2 2 2h20c1.108 0 2-0.892 2-2v-1c0 1.108-0.892 2-2 2h-20c-1.108 0-2-0.892-2-2z"
     id="path6" />
  <path
     fill="#fe9700"
     d="m4 18 4 4v18c0 1.108 0.892 2 2 2h20c1.108 0 2-0.892 2-2v-20c0-1.108-0.892-2-2-2h-26z"
     id="path8"
     style="fill:#4c566a;fill-opacity:1" />
  <path
     fill="#fff"
     opacity=".1"
     d="m18 6c-1.108 0-2 0.892-2 2v0.5c0-1.108 0.892-2 2-2h25.5l0.5-0.5h-26z"
     id="path10" />
  <path
     fill="#fff"
     opacity=".1"
     d="m4 18 0.5 0.5h25.5c1.108 0 2 0.892 2 2v-0.5c0-1.108-0.892-2-2-2h-26z"
     id="path12" />
  <path
     opacity=".2"
     d="m17.411 23-0.706 4h-2.705v2h2.3526l-0.7053 4h-2.647v2h2.2947l-0.70531 4h2l0.70531-4h4l-0.70531 4h2l0.70531-4h2.7053v-2h-2.3526l0.7053-4h2.6474v-2h-2.2947l0.70531-4h-2l-0.70531 4h-4l0.70531-4zm0.94203 6h4l-0.7053 4h-4z"
     id="path14" />
  <path
     fill="#fff"
     d="m17.411 22-0.706 4h-2.705v2h2.3526l-0.7053 4h-2.647v2h2.2947l-0.70531 4h2l0.70531-4h4l-0.70531 4h2l0.70531-4h2.7053v-2h-2.3526l0.7053-4h2.6474v-2h-2.2947l0.70531-4h-2l-0.70531 4h-4l0.70531-4zm0.94203 6h4l-0.7053 4h-4z"
     id="path16" />
  <path
     opacity=".2"
     d="m4 19 4 4v-1l-3-3h-1zm4 21v1c0 1.108 0.892 2 2 2h20c1.108 0 2-0.892 2-2v-1c0 1.108-0.892 2-2 2h-20c-1.108 0-2-0.892-2-2z"
     id="path18" />
</svg>
