<?xml version="1.0" encoding="UTF-8" standalone="no"?>
<svg
   xmlns:dc="http://purl.org/dc/elements/1.1/"
   xmlns:cc="http://creativecommons.org/ns#"
   xmlns:rdf="http://www.w3.org/1999/02/22-rdf-syntax-ns#"
   xmlns:svg="http://www.w3.org/2000/svg"
   xmlns="http://www.w3.org/2000/svg"
   xmlns:sodipodi="http://sodipodi.sourceforge.net/DTD/sodipodi-0.dtd"
   xmlns:inkscape="http://www.inkscape.org/namespaces/inkscape"
   width="48"
   height="48"
   version="1"
   id="svg42"
   sodipodi:docname="xcos.svg"
   inkscape:version="0.92.5 (2060ec1f9f, 2020-04-08)">
  <metadata
     id="metadata48">
    <rdf:RDF>
      <cc:Work
         rdf:about="">
        <dc:format>image/svg+xml</dc:format>
        <dc:type
           rdf:resource="http://purl.org/dc/dcmitype/StillImage" />
      </cc:Work>
    </rdf:RDF>
  </metadata>
  <defs
     id="defs46" />
  <sodipodi:namedview
     pagecolor="#ffffff"
     bordercolor="#666666"
     borderopacity="1"
     objecttolerance="10"
     gridtolerance="10"
     guidetolerance="10"
     inkscape:pageopacity="0"
     inkscape:pageshadow="2"
     inkscape:window-width="783"
     inkscape:window-height="480"
     id="namedview44"
     showgrid="false"
     inkscape:zoom="6.9532167"
     inkscape:cx="23.975989"
     inkscape:cy="15.42064"
     inkscape:window-x="0"
     inkscape:window-y="28"
     inkscape:window-maximized="0"
     inkscape:current-layer="svg42" />
  <rect
     style="fill:#4c566a;fill-opacity:1"
     width="40"
     height="32"
     x="-44"
     y="8"
     rx="2"
     ry="2"
     transform="scale(-1,1)"
     id="rect2" />
  <path
     style="opacity:0.2;fill:#ffffff"
     d="M 6,8 C 4.892,8 4,8.892 4,10 v 1 C 4,9.892 4.892,9 6,9 h 36 c 1.108,0 2,0.892 2,2 V 10 C 44,8.892 43.108,8 42,8 Z"
     id="path4" />
  <path
     style="opacity:0.2"
     d="m 4,38 v 1 c 0,1.108 0.892,2 2,2 h 36 c 1.108,0 2,-0.892 2,-2 v -1 c 0,1.108 -0.892,2 -2,2 H 6 C 4.892,40 4,39.108 4,38 Z"
     id="path6" />
  <circle
     style="opacity:0.2"
     cx="39"
     cy="30"
     r="2"
     id="circle8" />
  <circle
     style="opacity:0.2"
     cx="33"
     cy="30"
     r="2"
     id="circle10" />
  <circle
     style="fill:#ffffff"
     cx="39"
     cy="29"
     r="2"
     id="circle12" />
  <circle
     style="fill:#ffffff"
     cx="33"
     cy="29"
     r="2"
     id="circle14" />
  <rect
     style="fill:#5f697d;fill-opacity:1"
     width="20"
     height="20"
     x="8"
     y="14"
     rx="1"
     ry="1"
     id="rect16" />
  <circle
     style="opacity:0.2"
     cx="39"
     cy="36"
     r="2"
     id="circle18" />
  <circle
     style="opacity:0.2"
     cx="33"
     cy="36"
     r="2"
     id="circle20" />
  <circle
     style="fill:#5f697d;fill-opacity:1"
     cx="39"
     cy="35"
     r="2"
     id="circle22" />
  <circle
     style="fill:#ffffff"
     cx="33"
     cy="35"
     r="2"
     id="circle24" />
  <circle
     style="opacity:0.2"
     cx="39"
     cy="24"
     r="2"
     id="circle26" />
  <circle
     style="opacity:0.2"
     cx="33"
     cy="24"
     r="2"
     id="circle28" />
  <circle
     style="fill:#ffffff"
     cx="39"
     cy="23"
     r="2"
     id="circle30" />
  <circle
     style="fill:#ffffff"
     cx="33"
     cy="23"
     r="2"
     id="circle32" />
  <path
     style="opacity:0.2;fill:none;stroke:#000000;stroke-width:2;stroke-linejoin:round"
     d="m 9,25.000414 h 4 l 2,-4 2,11 3,-14 2,7 h 5"
     id="path34" />
  <path
     style="fill:none;stroke:#ffffff;stroke-width:2;stroke-linejoin:round"
     d="m 9,24 h 4 l 2,-4 2,11 3,-14 2,7 h 5"
     id="path36" />
  <circle
     style="opacity:0.2;stroke:#000000;stroke-width:0;stroke-linecap:round;stroke-linejoin:round"
     cx="36"
     cy="16"
     r="4"
     id="circle38" />
  <circle
     style="fill:#ffffff;stroke:#000000;stroke-width:0;stroke-linecap:round;stroke-linejoin:round"
     cx="36"
     cy="15"
     r="4"
     id="circle40" />
</svg>
