<?xml version="1.0" encoding="UTF-8" standalone="no"?>
<svg
   xmlns:dc="http://purl.org/dc/elements/1.1/"
   xmlns:cc="http://creativecommons.org/ns#"
   xmlns:rdf="http://www.w3.org/1999/02/22-rdf-syntax-ns#"
   xmlns:svg="http://www.w3.org/2000/svg"
   xmlns="http://www.w3.org/2000/svg"
   xmlns:sodipodi="http://sodipodi.sourceforge.net/DTD/sodipodi-0.dtd"
   xmlns:inkscape="http://www.inkscape.org/namespaces/inkscape"
   width="48"
   height="48"
   version="1"
   id="svg12"
   sodipodi:docname="kdeneur.svg"
   inkscape:version="0.92.5 (2060ec1f9f, 2020-04-08)">
  <metadata
     id="metadata18">
    <rdf:RDF>
      <cc:Work
         rdf:about="">
        <dc:format>image/svg+xml</dc:format>
        <dc:type
           rdf:resource="http://purl.org/dc/dcmitype/StillImage" />
      </cc:Work>
    </rdf:RDF>
  </metadata>
  <defs
     id="defs16" />
  <sodipodi:namedview
     pagecolor="#ffffff"
     bordercolor="#666666"
     borderopacity="1"
     objecttolerance="10"
     gridtolerance="10"
     guidetolerance="10"
     inkscape:pageopacity="0"
     inkscape:pageshadow="2"
     inkscape:window-width="640"
     inkscape:window-height="480"
     id="namedview14"
     showgrid="false"
     inkscape:zoom="19.666667"
     inkscape:cx="34.222687"
     inkscape:cy="23.544402"
     inkscape:current-layer="svg12" />
  <rect
     width="40"
     height="40"
     x="3.9491527"
     y="4.0508471"
     rx="2"
     ry="2"
     id="rect2"
     style="fill:#4c566a;fill-opacity:1" />
  <path
     fill="#fff"
     opacity=".2"
     d="m4 7v-1c0-1.108 0.892-2 2-2h36c1.108 0 2 0.892 2 2v1c0-1.108-0.892-2-2-2h-36c-1.108 0-2 0.892-2 2z"
     id="path4" />
  <path
     opacity=".2"
     d="m4 42v1c0 1.108 0.892 2 2 2h36c1.108 0 2-0.892 2-2v-1c0 1.108-0.892 2-2 2h-36c-1.108 0-2-0.892-2-2z"
     id="path6" />
  <path
     fill-rule="evenodd"
     opacity=".2"
     style="image-rendering:optimizeQuality;shape-rendering:geometricPrecision"
     d="m29.404 13-4.703 5.6841c-2.587 3.125-4.705 5.7461-4.705 5.8221s2.214 2.918 4.918 6.3161l4.916 6.178h5.15c4.099 0 5.123-0.037 5.012-0.184-0.279-0.369-9.3749-11.824-9.5799-12.064-0.191-0.224 0.221-0.77201 4.336-5.7421 2.502-3.022 4.639-5.6111 4.748-5.7521 0.189-0.244-0.07-0.258-4.945-0.258h-5.147zm-20.595 0.332c-0.0376 0.038 1.9734 2.535 4.4704 5.5471 2.497 3.012 4.557 5.5221 4.576 5.5781 0.02 0.056-1.994 2.652-4.476 5.7701-2.482 3.117-4.7095 5.9171-4.9474 6.2201l-0.4316 0.553h10.316l2.413-3.025c1.674-2.099 2.372-3.078 2.279-3.202-0.074-0.097-1.223-1.551-2.555-3.228l-2.422-3.049 2.535-3.057c1.395-1.681 2.522-3.068 2.506-3.084-0.119-0.114-14.21-5.0771-14.263-5.0231z"
     id="path8" />
  <path
     fill="#fff"
     fill-rule="evenodd"
     style="image-rendering:optimizeQuality;shape-rendering:geometricPrecision"
     d="m29.404 12-4.703 5.6841c-2.587 3.125-4.705 5.7461-4.705 5.8221s2.214 2.918 4.918 6.3161l4.916 6.1781h5.15c4.099 0 5.123-0.037 5.012-0.184-0.279-0.369-9.3749-11.824-9.5799-12.064-0.191-0.224 0.221-0.77201 4.336-5.7421 2.502-3.022 4.639-5.6111 4.748-5.7521 0.189-0.244-0.07-0.258-4.945-0.258h-5.147zm-20.595 0.332c-0.0376 0.038 1.9734 2.535 4.4704 5.5471 2.497 3.012 4.557 5.5221 4.576 5.5781 0.02 0.056-1.994 2.652-4.476 5.7701-2.482 3.117-4.7095 5.9171-4.9474 6.2201l-0.4316 0.55301h10.316l2.413-3.025c1.674-2.099 2.372-3.078 2.279-3.202-0.074-0.097-1.223-1.551-2.555-3.228l-2.422-3.049 2.535-3.057c1.395-1.681 2.522-3.068 2.506-3.084-0.119-0.114-14.21-5.0771-14.263-5.0231z"
     id="path10" />
</svg>
