<?xml version="1.0" encoding="UTF-8" standalone="no"?>
<svg
   xmlns:dc="http://purl.org/dc/elements/1.1/"
   xmlns:cc="http://creativecommons.org/ns#"
   xmlns:rdf="http://www.w3.org/1999/02/22-rdf-syntax-ns#"
   xmlns:svg="http://www.w3.org/2000/svg"
   xmlns="http://www.w3.org/2000/svg"
   xmlns:sodipodi="http://sodipodi.sourceforge.net/DTD/sodipodi-0.dtd"
   xmlns:inkscape="http://www.inkscape.org/namespaces/inkscape"
   width="48"
   height="48"
   version="1"
   id="svg14"
   sodipodi:docname="yaourtgui.svg"
   inkscape:version="0.92.5 (2060ec1f9f, 2020-04-08)">
  <metadata
     id="metadata20">
    <rdf:RDF>
      <cc:Work
         rdf:about="">
        <dc:format>image/svg+xml</dc:format>
        <dc:type
           rdf:resource="http://purl.org/dc/dcmitype/StillImage" />
      </cc:Work>
    </rdf:RDF>
  </metadata>
  <defs
     id="defs18" />
  <sodipodi:namedview
     pagecolor="#ffffff"
     bordercolor="#666666"
     borderopacity="1"
     objecttolerance="10"
     gridtolerance="10"
     guidetolerance="10"
     inkscape:pageopacity="0"
     inkscape:pageshadow="2"
     inkscape:window-width="783"
     inkscape:window-height="480"
     id="namedview16"
     showgrid="false"
     inkscape:zoom="4.9166667"
     inkscape:cx="24"
     inkscape:cy="24"
     inkscape:window-x="0"
     inkscape:window-y="28"
     inkscape:window-maximized="0"
     inkscape:current-layer="svg14" />
  <rect
     fill="#228cc9"
     width="40"
     height="40"
     x="4"
     y="4"
     rx="20"
     ry="20"
     id="rect2"
     style="fill:#4c566a;fill-opacity:1" />
  <path
     fill="#fff"
     opacity=".2"
     d="m24 4c-11.08 0-20 8.92-20 20 0 0.168 0.008 0.333 0.0117 0.5 0.2647-10.846 9.0763-19.5 19.988-19.5s19.724 8.6539 19.988 19.5c0.004-0.16686 0.0117-0.33213 0.0117-0.5 0-11.08-8.92-20-20-20z"
     id="path4" />
  <path
     opacity=".2"
     d="m4.0117 24.5c-0.0041 0.167-0.0117 0.332-0.0117 0.5 0 11.08 8.92 20 20 20s20-8.92 20-20c0-0.16787-0.0076-0.33314-0.01172-0.5-0.264 10.846-9.076 19.5-19.988 19.5s-19.724-8.654-19.988-19.5z"
     id="path6" />
  <path
     style="opacity:0.2"
     d="m 12.96875,12.968782 a 3.0003,3.0003 0 0 0 -2.089844,5.152344 L 21,28.24222 v 9.757812 a 3.0003,3.0003 0 0 0 0.01172,0.298828 3.0003,3.0003 0 0 0 0.208984,0.873047 3.0003,3.0003 0 0 0 0.457031,0.771484 3.0003,3.0003 0 0 0 0.666016,0.59961 3.0003,3.0003 0 0 0 0.257812,0.154297 3.0003,3.0003 0 0 0 0.554688,0.224609 3.0003,3.0003 0 0 0 0.589844,0.109375 3.0003,3.0003 0 0 0 0.894531,-0.05859 3.0003,3.0003 0 0 0 0.837891,-0.318359 3.0003,3.0003 0 0 0 0.251953,-0.162109 3.0003,3.0003 0 0 0 0.236328,-0.183594 3.0003,3.0003 0 0 0 0.582031,-0.683594 3.0003,3.0003 0 0 0 0.144531,-0.261719 3.0003,3.0003 0 0 0 0.119141,-0.27539 3.0003,3.0003 0 0 0 0.08984,-0.28711 A 3.0003,3.0003 0 0 0 27,38.000032 V 28.24222 L 37.121094,18.121126 A 3.0003,3.0003 0 1 0 32.878906,13.878938 L 24,22.757844 15.121094,13.878938 A 3.0003,3.0003 0 0 0 12.96875,12.968782 Z"
     id="path8" />
  <path
     style="fill:none;stroke:#fefefe;stroke-width:6;stroke-linecap:round;stroke-linejoin:round;stroke-opacity:1"
     d="M 35,15 24,26 V 37 M 13,15 24,26 v 11"
     id="path10" />
  <path
     style="opacity:0.2;fill:#ffffff"
     d="M 34.972656 11.957031 A 3.0003 3.0003 0 0 0 32.878906 12.878906 L 24 21.757812 L 15.121094 12.878906 A 3.0003 3.0003 0 0 0 12.96875 11.96875 A 3.0003 3.0003 0 0 0 10.013672 15.458984 A 3.0003 3.0003 0 0 1 12.96875 12.96875 A 3.0003 3.0003 0 0 1 15.121094 13.878906 L 24 22.757812 L 32.878906 13.878906 A 3.0003 3.0003 0 0 1 37.998047 15.458984 A 3.0003 3.0003 0 0 0 34.972656 11.957031 z"
     id="path12" />
</svg>
