<?xml version="1.0" encoding="UTF-8" standalone="no"?>
<svg
   xmlns:dc="http://purl.org/dc/elements/1.1/"
   xmlns:cc="http://creativecommons.org/ns#"
   xmlns:rdf="http://www.w3.org/1999/02/22-rdf-syntax-ns#"
   xmlns:svg="http://www.w3.org/2000/svg"
   xmlns="http://www.w3.org/2000/svg"
   xmlns:sodipodi="http://sodipodi.sourceforge.net/DTD/sodipodi-0.dtd"
   xmlns:inkscape="http://www.inkscape.org/namespaces/inkscape"
   width="48"
   height="48"
   version="1.1"
   id="svg16"
   sodipodi:docname="application-x-yarock.svg"
   inkscape:version="0.92.5 (2060ec1f9f, 2020-04-08)">
  <metadata
     id="metadata22">
    <rdf:RDF>
      <cc:Work
         rdf:about="">
        <dc:format>image/svg+xml</dc:format>
        <dc:type
           rdf:resource="http://purl.org/dc/dcmitype/StillImage" />
      </cc:Work>
    </rdf:RDF>
  </metadata>
  <defs
     id="defs20" />
  <sodipodi:namedview
     pagecolor="#ffffff"
     bordercolor="#666666"
     borderopacity="1"
     objecttolerance="10"
     gridtolerance="10"
     guidetolerance="10"
     inkscape:pageopacity="0"
     inkscape:pageshadow="2"
     inkscape:window-width="783"
     inkscape:window-height="480"
     id="namedview18"
     showgrid="false"
     inkscape:zoom="4.9166667"
     inkscape:cx="3.6610169"
     inkscape:cy="24"
     inkscape:window-x="0"
     inkscape:window-y="28"
     inkscape:window-maximized="0"
     inkscape:current-layer="svg16" />
  <circle
     style="opacity:0.2"
     cx="24"
     cy="25"
     r="20"
     id="circle2" />
  <circle
     style="fill:#5f697d;fill-opacity:1"
     cx="24"
     cy="24"
     r="20"
     id="circle4" />
  <path
     style="opacity:0.2;fill:#ffffff"
     d="M 24,4 A 20,20 0 0 0 4,24 20,20 0 0 0 4.0215,24.582 20,20 0 0 1 24,5 20,20 0 0 1 43.979,24.418 20,20 0 0 0 44,24 20,20 0 0 0 24,4 Z"
     id="path6" />
  <circle
     style="opacity:0.1"
     cx="24"
     cy="25"
     r="16"
     id="circle8" />
  <circle
     style="fill:#4c566a;fill-opacity:1"
     cx="24"
     cy="24"
     r="16"
     id="circle10" />
  <path
     style="opacity:0.2;fill-rule:evenodd"
     d="M 19.110386,16.000598 A 2.060952,2.0799253 0 0 0 17,18.077608 l 0,6.920205 0.0013,6.920205 a 2.060952,2.0799253 0 0 0 3.091119,1.803504 l 5.93806,-3.462133 5.93806,-3.459426 a 2.060952,2.0799253 0 0 0 0.0013,-3.602947 L 26.03044,19.738944 20.09238,16.278165 A 2.060952,2.0799253 0 0 0 19.518162,16.05205 2.060952,2.0799253 0 0 0 19.110304,16.0006 Z"
     id="path12" />
  <path
     style="fill:#ffffff;fill-rule:evenodd"
     d="M 19.110386,15.000598 A 2.060952,2.0799253 0 0 0 17,17.077608 l 0,6.920205 0.0013,6.920205 a 2.060952,2.0799253 0 0 0 3.091119,1.803504 l 5.93806,-3.462133 5.93806,-3.459426 a 2.060952,2.0799253 0 0 0 0.0013,-3.602947 L 26.03044,18.738944 20.09238,15.278165 A 2.060952,2.0799253 0 0 0 19.518162,15.05205 2.060952,2.0799253 0 0 0 19.110304,15.0006 Z"
     id="path14" />
</svg>
