<?xml version="1.0" encoding="UTF-8" standalone="no"?>
<svg
   xmlns:dc="http://purl.org/dc/elements/1.1/"
   xmlns:cc="http://creativecommons.org/ns#"
   xmlns:rdf="http://www.w3.org/1999/02/22-rdf-syntax-ns#"
   xmlns:svg="http://www.w3.org/2000/svg"
   xmlns="http://www.w3.org/2000/svg"
   xmlns:sodipodi="http://sodipodi.sourceforge.net/DTD/sodipodi-0.dtd"
   xmlns:inkscape="http://www.inkscape.org/namespaces/inkscape"
   width="48"
   height="48"
   version="1.1"
   id="svg14"
   sodipodi:docname="youdao-dict.svg"
   inkscape:version="0.92.5 (2060ec1f9f, 2020-04-08)">
  <metadata
     id="metadata20">
    <rdf:RDF>
      <cc:Work
         rdf:about="">
        <dc:format>image/svg+xml</dc:format>
        <dc:type
           rdf:resource="http://purl.org/dc/dcmitype/StillImage" />
      </cc:Work>
    </rdf:RDF>
  </metadata>
  <defs
     id="defs18" />
  <sodipodi:namedview
     pagecolor="#ffffff"
     bordercolor="#666666"
     borderopacity="1"
     objecttolerance="10"
     gridtolerance="10"
     guidetolerance="10"
     inkscape:pageopacity="0"
     inkscape:pageshadow="2"
     inkscape:window-width="783"
     inkscape:window-height="480"
     id="namedview16"
     showgrid="false"
     inkscape:zoom="4.9166667"
     inkscape:cx="24"
     inkscape:cy="24"
     inkscape:window-x="0"
     inkscape:window-y="28"
     inkscape:window-maximized="0"
     inkscape:current-layer="svg14" />
  <rect
     x="4"
     y="5"
     width="40"
     height="40"
     rx="8"
     ry="8"
     style="opacity:.2"
     id="rect2" />
  <rect
     x="4"
     y="4"
     width="40"
     height="40"
     rx="8"
     ry="8"
     style="fill:#4c566a;fill-opacity:1"
     id="rect4" />
  <path
     d="m18 10a9 9 0 0 0-9 9 9 9 0 0 0 9 9 9 9 0 0 0 4.035156-0.964844l4.964844 4.964844 4-4-4.960938-4.960938a9 9 0 0 0 0.960938-4.039062 9 9 0 0 0-9-9zm13 0-4 4 2 2v-2l6 4s-2 4-2 14l-2 2c-10 0-14 2-14 2l-4-6h2l-2-2-4 4 6 8s6-2 18-2l4-4c0-12 2-18 2-18zm-13 4a5 5 0 0 1 5 5 5 5 0 0 1-5 5 5 5 0 0 1-5-5 5 5 0 0 1 5-5z"
     style="opacity:.2"
     id="path6" />
  <path
     d="m31 9-4 4 2 2v-2l6 4s-2 4-2 14l-2 2c-10 0-14 2-14 2l-4-6h2l-2-2-4 4 6 8s6-2 18-2l4-4c0-12 2-18 2-18z"
     style="fill:#ffffff"
     id="path8" />
  <path
     d="m18 9a9 9 0 0 0-9 9 9 9 0 0 0 9 9 9 9 0 0 0 4.035156-0.964844l4.964844 4.964844 4-4-4.960938-4.960938a9 9 0 0 0 0.960938-4.039062 9 9 0 0 0-9-9zm0 4a5 5 0 0 1 5 5 5 5 0 0 1-5 5 5 5 0 0 1-5-5 5 5 0 0 1 5-5z"
     style="fill:#ffffff"
     id="path10" />
  <path
     d="m12 4c-4.432 0-8 3.568-8 8v1c0-4.432 3.568-8 8-8h24c4.432 0 8 3.568 8 8v-1c0-4.432-3.568-8-8-8z"
     style="fill:#ffffff;opacity:.2"
     id="path12" />
</svg>
