<?xml version="1.0" encoding="UTF-8" standalone="no"?>
<svg
   xmlns:dc="http://purl.org/dc/elements/1.1/"
   xmlns:cc="http://creativecommons.org/ns#"
   xmlns:rdf="http://www.w3.org/1999/02/22-rdf-syntax-ns#"
   xmlns:svg="http://www.w3.org/2000/svg"
   xmlns="http://www.w3.org/2000/svg"
   xmlns:sodipodi="http://sodipodi.sourceforge.net/DTD/sodipodi-0.dtd"
   xmlns:inkscape="http://www.inkscape.org/namespaces/inkscape"
   width="48"
   height="48"
   version="1.1"
   id="svg12"
   sodipodi:docname="your-freedom.svg"
   inkscape:version="0.92.5 (2060ec1f9f, 2020-04-08)">
  <metadata
     id="metadata18">
    <rdf:RDF>
      <cc:Work
         rdf:about="">
        <dc:format>image/svg+xml</dc:format>
        <dc:type
           rdf:resource="http://purl.org/dc/dcmitype/StillImage" />
      </cc:Work>
    </rdf:RDF>
  </metadata>
  <defs
     id="defs16" />
  <sodipodi:namedview
     pagecolor="#ffffff"
     bordercolor="#666666"
     borderopacity="1"
     objecttolerance="10"
     gridtolerance="10"
     guidetolerance="10"
     inkscape:pageopacity="0"
     inkscape:pageshadow="2"
     inkscape:window-width="783"
     inkscape:window-height="480"
     id="namedview14"
     showgrid="false"
     inkscape:zoom="4.9166667"
     inkscape:cx="24"
     inkscape:cy="24"
     inkscape:window-x="0"
     inkscape:window-y="28"
     inkscape:window-maximized="0"
     inkscape:current-layer="svg12" />
  <path
     style="opacity:0.2"
     d="m 22.347656,5 -1.552734,5.794922 11.591797,3.105469 1.552734,-5.7949222 z M 32.386719,13.900391 29.414062,25 H 8 V 45 H 40 V 25 h -4.376953 l 2.558594,-9.546875 z M 20.794922,10.794922 15,9.2421875 12.929688,16.96875 l 5.794921,1.554688 z"
     id="path2" />
  <path
     style="fill:#555f73;fill-opacity:1"
     d="M 22.347656 4 L 20.794922 9.7949219 L 32.386719 12.900391 L 33.939453 7.1054688 L 22.347656 4 z M 32.386719 12.900391 L 29.28125 24.492188 L 35.076172 26.044922 L 38.181641 14.453125 L 32.386719 12.900391 z M 20.794922 9.7949219 L 15 8.2421875 L 12.929688 15.96875 L 18.724609 17.523438 L 20.794922 9.7949219 z"
     id="path4" />
  <path
     style="opacity:0.1;fill:#ffffff"
     d="M 22.347656 4 L 20.794922 9.7949219 L 21.044922 9.8613281 L 22.347656 5 L 33.689453 8.0390625 L 33.939453 7.1054688 L 22.347656 4 z M 20.794922 9.7949219 L 15 8.2421875 L 12.929688 15.96875 L 13.179688 16.035156 L 15 9.2421875 L 20.544922 10.728516 L 20.794922 9.7949219 z M 32.636719 12.966797 L 32.386719 13.900391 L 37.931641 15.386719 L 38.181641 14.453125 L 32.636719 12.966797 z M 32.386719 13.900391 L 32.136719 13.833984 L 29.28125 24.492188 L 29.53125 24.558594 L 32.386719 13.900391 z"
     id="path6" />
  <rect
     style="fill:#4c566a;fill-opacity:1"
     width="32"
     height="20"
     x="8"
     y="24"
     id="rect8" />
  <rect
     style="opacity:0.2;fill:#ffffff"
     width="32"
     height="1"
     x="8"
     y="24"
     id="rect10" />
</svg>
