<?xml version="1.0" encoding="UTF-8" standalone="no"?>
<svg
   xmlns:dc="http://purl.org/dc/elements/1.1/"
   xmlns:cc="http://creativecommons.org/ns#"
   xmlns:rdf="http://www.w3.org/1999/02/22-rdf-syntax-ns#"
   xmlns:svg="http://www.w3.org/2000/svg"
   xmlns="http://www.w3.org/2000/svg"
   xmlns:sodipodi="http://sodipodi.sourceforge.net/DTD/sodipodi-0.dtd"
   xmlns:inkscape="http://www.inkscape.org/namespaces/inkscape"
   width="48"
   height="48"
   version="1.1"
   id="svg28"
   sodipodi:docname="yubioath.svg"
   inkscape:version="0.92.5 (2060ec1f9f, 2020-04-08)">
  <metadata
     id="metadata34">
    <rdf:RDF>
      <cc:Work
         rdf:about="">
        <dc:format>image/svg+xml</dc:format>
        <dc:type
           rdf:resource="http://purl.org/dc/dcmitype/StillImage" />
      </cc:Work>
    </rdf:RDF>
  </metadata>
  <defs
     id="defs32" />
  <sodipodi:namedview
     pagecolor="#ffffff"
     bordercolor="#666666"
     borderopacity="1"
     objecttolerance="10"
     gridtolerance="10"
     guidetolerance="10"
     inkscape:pageopacity="0"
     inkscape:pageshadow="2"
     inkscape:window-width="783"
     inkscape:window-height="480"
     id="namedview30"
     showgrid="false"
     inkscape:zoom="3.4766083"
     inkscape:cx="35.746959"
     inkscape:cy="24.765236"
     inkscape:window-x="0"
     inkscape:window-y="28"
     inkscape:window-maximized="0"
     inkscape:current-layer="svg28" />
  <path
     style="fill:#4c566a;fill-opacity:1"
     d="m24 4a20 20 0 0 0 -20 20 20 20 0 0 0 20 20 20 20 0 0 0 20 -20 20 20 0 0 0 -20 -20z"
     id="path2" />
  <path
     opacity=".2"
     d="m4.0215 24.418a20 20 0 0 0 -0.0215 0.582 20 20 0 0 0 20 20 20 20 0 0 0 20 -20 20 20 0 0 0 -0.021 -0.418 20 20 0 0 1 -19.979 19.418 20 20 0 0 1 -19.978 -19.582z"
     id="path4" />
  <path
     fill="#ffffff"
     opacity=".2"
     d="m24 4a20 20 0 0 0 -20 20 20 20 0 0 0 0.0215 0.418 20 20 0 0 1 19.978 -19.418 20 20 0 0 1 19.979 19.582 20 20 0 0 0 0.021 -0.582 20 20 0 0 0 -20 -20z"
     id="path6" />
  <path
     style="opacity:.2;stroke-linejoin:round;stroke:#000000;stroke-linecap:round;stroke-width:4;fill:none"
     d="m17 16.000029 8 9"
     id="path8" />
  <path
     style="opacity:.2;stroke-linejoin:round;stroke:#000000;stroke-linecap:round;stroke-width:4;fill:none"
     d="m19 35.000029 14-19"
     id="path10" />
  <g
     transform="translate(0,1.000029)"
     id="g16">
    <path
       style="stroke-linejoin:round;stroke:#ffffff;stroke-linecap:round;fill:none;stroke-width:4"
       d="m19 33 14-19"
       id="path12" />
    <path
       style="stroke-linejoin:round;stroke:#ffffff;stroke-linecap:round;fill:none;stroke-width:4"
       d="m17 14 8 9"
       id="path14" />
  </g>
  <circle
     style="opacity:.2"
     cx="36"
     cy="36"
     r="11"
     id="circle18" />
  <circle
     style="fill:#5f697d;fill-opacity:1"
     cx="36"
     cy="35"
     r="11"
     id="circle20" />
  <path
     style="fill:#ffffff"
     d="m33 30a5 5 0 0 0 -5 5 5 5 0 0 0 5 5 5 5 0 0 0 5 -5 5 5 0 0 0 -5 -5zm0 2a3 3 0 0 1 3 3 3 3 0 0 1 -3 3 3 3 0 0 1 -3 -3 3 3 0 0 1 3 -3z"
     id="path22" />
  <rect
     style="fill:#ffffff"
     width="8"
     height="2"
     x="36"
     y="34"
     id="rect24" />
  <rect
     style="fill:#ffffff"
     width="2"
     height="2"
     x="41"
     y="36"
     id="rect26" />
</svg>
