<?xml version="1.0" encoding="UTF-8" standalone="no"?>
<svg
   xmlns:dc="http://purl.org/dc/elements/1.1/"
   xmlns:cc="http://creativecommons.org/ns#"
   xmlns:rdf="http://www.w3.org/1999/02/22-rdf-syntax-ns#"
   xmlns:svg="http://www.w3.org/2000/svg"
   xmlns="http://www.w3.org/2000/svg"
   xmlns:sodipodi="http://sodipodi.sourceforge.net/DTD/sodipodi-0.dtd"
   xmlns:inkscape="http://www.inkscape.org/namespaces/inkscape"
   width="48"
   height="48"
   version="1.1"
   id="svg14"
   sodipodi:docname="zaproxy.svg"
   inkscape:version="0.92.5 (2060ec1f9f, 2020-04-08)">
  <metadata
     id="metadata20">
    <rdf:RDF>
      <cc:Work
         rdf:about="">
        <dc:format>image/svg+xml</dc:format>
        <dc:type
           rdf:resource="http://purl.org/dc/dcmitype/StillImage" />
      </cc:Work>
    </rdf:RDF>
  </metadata>
  <defs
     id="defs18" />
  <sodipodi:namedview
     pagecolor="#ffffff"
     bordercolor="#666666"
     borderopacity="1"
     objecttolerance="10"
     gridtolerance="10"
     guidetolerance="10"
     inkscape:pageopacity="0"
     inkscape:pageshadow="2"
     inkscape:window-width="783"
     inkscape:window-height="480"
     id="namedview16"
     showgrid="false"
     inkscape:zoom="4.9166667"
     inkscape:cx="-1.1186441"
     inkscape:cy="24"
     inkscape:window-x="0"
     inkscape:window-y="28"
     inkscape:window-maximized="0"
     inkscape:current-layer="g12" />
  <g
     transform="matrix(2,0,0,2,2,2)"
     id="g12">
    <circle
       cx="11.5"
       cy="12"
       r="9.5"
       style="opacity:.2"
       id="circle2" />
    <circle
       cx="11.5"
       cy="11.5"
       r="9.5"
       style="fill:#4c566a;fill-opacity:1"
       id="circle4" />
    <path
       d="m1 3.5 9-2 5 5-3 1 4 4-2 1 7 9-14-8 2-1-6-4 3-1z"
       style="opacity:.2"
       id="path6" />
    <path
       d="M 11.5,2 A 9.5,9.5 0 0 0 2,11.5 9.5,9.5 0 0 0 2.0097656,11.792969 9.5,9.5 0 0 1 11.5,2.5 9.5,9.5 0 0 1 20.990234,11.707031 9.5,9.5 0 0 0 21,11.5 9.5,9.5 0 0 0 11.5,2 Z"
       style="fill:#ffffff;opacity:.2"
       id="path8" />
    <path
       d="m1 3 9-2 5 5-3 1 4 4-2 1 7 9-14-8 2-1-6-4 3-1z"
       style="fill:#ffffff"
       id="path10" />
  </g>
</svg>
