<?xml version="1.0" encoding="UTF-8" standalone="no"?>
<svg
   xmlns:dc="http://purl.org/dc/elements/1.1/"
   xmlns:cc="http://creativecommons.org/ns#"
   xmlns:rdf="http://www.w3.org/1999/02/22-rdf-syntax-ns#"
   xmlns:svg="http://www.w3.org/2000/svg"
   xmlns="http://www.w3.org/2000/svg"
   xmlns:sodipodi="http://sodipodi.sourceforge.net/DTD/sodipodi-0.dtd"
   xmlns:inkscape="http://www.inkscape.org/namespaces/inkscape"
   width="48"
   height="48"
   version="1"
   id="svg14"
   sodipodi:docname="zeal.svg"
   inkscape:version="0.92.5 (2060ec1f9f, 2020-04-08)">
  <metadata
     id="metadata20">
    <rdf:RDF>
      <cc:Work
         rdf:about="">
        <dc:format>image/svg+xml</dc:format>
        <dc:type
           rdf:resource="http://purl.org/dc/dcmitype/StillImage" />
      </cc:Work>
    </rdf:RDF>
  </metadata>
  <defs
     id="defs18" />
  <sodipodi:namedview
     pagecolor="#ffffff"
     bordercolor="#666666"
     borderopacity="1"
     objecttolerance="10"
     gridtolerance="10"
     guidetolerance="10"
     inkscape:pageopacity="0"
     inkscape:pageshadow="2"
     inkscape:window-width="783"
     inkscape:window-height="480"
     id="namedview16"
     showgrid="false"
     inkscape:zoom="4.9166667"
     inkscape:cx="-1.1186441"
     inkscape:cy="24"
     inkscape:window-x="0"
     inkscape:window-y="28"
     inkscape:window-maximized="0"
     inkscape:current-layer="svg14" />
  <path
     style="opacity:0.2"
     d="M 9.125,5 C 7.94775,5 7,5.892 7,7 l 0,36 c 0,1.108 0.94775,2 2.125,2 L 14,45 38.875,45 C 40.05225,45 41,44.108 41,43 L 41,7 C 41,5.892 40.05225,5 38.875,5 L 23.978516,5 14,5 9.125,5 Z"
     id="path2" />
  <path
     style="fill:#5f697d;fill-opacity:1"
     d="M 9.125,4 C 7.94775,4 7,4.892 7,6 l 0,36 c 0,1.108 0.94775,2 2.125,2 L 14,44 14,4 Z"
     id="path4" />
  <path
     style="fill:#4c566a;fill-opacity:1"
     d="m 14,4 0,40 24.875,0 C 40.05225,44 41,43.108 41,42 L 41,6 C 41,4.892 40.05225,4 38.875,4 L 23.977687,4 Z"
     id="path6" />
  <path
     style="opacity:0.2;fill:none;stroke:#000000;stroke-width:2;stroke-linecap:round;stroke-linejoin:round"
     d="m 19,14.9999 16,0 -16,20 16,0"
     id="path8" />
  <path
     style="fill:none;stroke:#ffffff;stroke-width:2;stroke-linecap:round;stroke-linejoin:round"
     d="m 19,14 16,0 -16,20 16,0"
     id="path10" />
  <path
     style="fill:#ffffff;opacity:0.1"
     d="M 9.125 4 C 7.94775 4 7 4.892 7 6 L 7 7 C 7 5.892 7.94775 5 9.125 5 L 14 5 L 23.978516 5 L 38.875 5 C 40.05225 5 41 5.892 41 7 L 41 6 C 41 4.892 40.05225 4 38.875 4 L 23.978516 4 L 14 4 L 9.125 4 z"
     id="path12" />
</svg>
