<?xml version="1.0" encoding="UTF-8" standalone="no"?>
<svg
   xmlns:dc="http://purl.org/dc/elements/1.1/"
   xmlns:cc="http://creativecommons.org/ns#"
   xmlns:rdf="http://www.w3.org/1999/02/22-rdf-syntax-ns#"
   xmlns:svg="http://www.w3.org/2000/svg"
   xmlns="http://www.w3.org/2000/svg"
   xmlns:sodipodi="http://sodipodi.sourceforge.net/DTD/sodipodi-0.dtd"
   xmlns:inkscape="http://www.inkscape.org/namespaces/inkscape"
   width="48"
   height="48"
   version="1.1"
   id="svg28"
   sodipodi:docname="zen-bound-2.svg"
   inkscape:version="0.92.5 (2060ec1f9f, 2020-04-08)">
  <metadata
     id="metadata34">
    <rdf:RDF>
      <cc:Work
         rdf:about="">
        <dc:format>image/svg+xml</dc:format>
        <dc:type
           rdf:resource="http://purl.org/dc/dcmitype/StillImage" />
      </cc:Work>
    </rdf:RDF>
  </metadata>
  <defs
     id="defs32" />
  <sodipodi:namedview
     pagecolor="#ffffff"
     bordercolor="#666666"
     borderopacity="1"
     objecttolerance="10"
     gridtolerance="10"
     guidetolerance="10"
     inkscape:pageopacity="0"
     inkscape:pageshadow="2"
     inkscape:window-width="765"
     inkscape:window-height="480"
     id="namedview30"
     showgrid="false"
     inkscape:zoom="4.9166667"
     inkscape:cx="24"
     inkscape:cy="24"
     inkscape:window-x="0"
     inkscape:window-y="28"
     inkscape:window-maximized="0"
     inkscape:current-layer="g26" />
  <g
     transform="matrix(2,0,0,2,2,2)"
     id="g26">
    <path
       d="m2 4.5-1 2 1 5 4 2 4-2v-2l-4-1zm18 0-4 4-4 1v2l4 2 4-2 1-5zm-10 11-3 2 1 2 3 1 3-1 1-2-3-2z"
       style="opacity:.2"
       id="path2" />
    <path
       d="m2 4-1 2 1 5 4 2 4-2v-2l-4-1zm18 0-4 4-4 1v2l4 2 4-2 1-5zm-10 11-3 2 1 2 3 1 3-1 1-2-3-2z"
       style="fill:#4c566a;fill-opacity:1"
       id="path4" />
    <path
       d="M 2,4 1,6 1.0722656,6.3574219 2,4.5 l 4,4 4,1 V 9 L 6,8 Z m 18,0 -4,4 -4,1 v 0.5 l 4,-1 4,-4 0.927734,1.8574219 L 21,6 Z M 10,15 7,17 7.1875,17.375 10,15.5 h 2 L 14.8125,17.375 15,17 12,15 Z"
       style="fill:#ffffff;opacity:.1"
       id="path6" />
    <path
       d="m11 2.5-2 2 1 2-2 3v4l3 5 3-5v-4l-2-3 1-2z"
       style="opacity:.2"
       id="path8" />
    <path
       d="m11 2-2 2 1 2-2 3v4l3 5 3-5v-4l-2-3 1-2z"
       style="fill:#5f697d;fill-opacity:1"
       id="path10" />
    <path
       d="M 11,2 9,4 9.1660156,4.3339844 11,2.5 12.833984,4.3339844 13,4 Z M 9.8574219,6.2148438 8,9 v 0.5 l 2,-3 z m 2.2851561,0 L 12,6.5 l 2,3 V 9 Z"
       style="fill:#ffffff;opacity:.2"
       id="path12" />
    <path
       d="m13.972656 7.4921875a1.0001 1.0001 0 0 0-0.613281 0.2402344l-6 5.0000001a1.0001 1.0001 0 1 0 1.28125 1.535156l6-4.9999999a1.0001 1.0001 0 0 0-0.667969-1.7753906z"
       style="opacity:.2"
       id="path18" />
    <path
       d="m14 8-6 5"
       style="fill:none;stroke-linecap:round;stroke-linejoin:round;stroke-width:2;stroke:#fffefd;stroke-opacity:1"
       id="path20" />
    <path
       d="m7.9980469 7.4902344a1.0001 1.0001 0 0 0-0.6386719 1.7773437l6 4.9999999a1.0001 1.0001 0 1 0 1.28125-1.535156l-6-5.0000001a1.0001 1.0001 0 0 0-0.6425781-0.2421875z"
       style="opacity:.2"
       id="path22" />
    <path
       d="m8 8 6 5"
       style="fill:none;stroke-linecap:round;stroke-linejoin:round;stroke-width:2;stroke:#ffffff;stroke-opacity:1"
       id="path24" />
  </g>
</svg>
