<?xml version="1.0" encoding="UTF-8" standalone="no"?>
<svg
   xmlns:dc="http://purl.org/dc/elements/1.1/"
   xmlns:cc="http://creativecommons.org/ns#"
   xmlns:rdf="http://www.w3.org/1999/02/22-rdf-syntax-ns#"
   xmlns:svg="http://www.w3.org/2000/svg"
   xmlns="http://www.w3.org/2000/svg"
   xmlns:sodipodi="http://sodipodi.sourceforge.net/DTD/sodipodi-0.dtd"
   xmlns:inkscape="http://www.inkscape.org/namespaces/inkscape"
   width="48"
   height="48"
   version="1"
   id="svg12"
   sodipodi:docname="appimagekit-zettlr.svg"
   inkscape:version="0.92.5 (2060ec1f9f, 2020-04-08)">
  <metadata
     id="metadata18">
    <rdf:RDF>
      <cc:Work
         rdf:about="">
        <dc:format>image/svg+xml</dc:format>
        <dc:type
           rdf:resource="http://purl.org/dc/dcmitype/StillImage" />
      </cc:Work>
    </rdf:RDF>
  </metadata>
  <defs
     id="defs16" />
  <sodipodi:namedview
     pagecolor="#ffffff"
     bordercolor="#666666"
     borderopacity="1"
     objecttolerance="10"
     gridtolerance="10"
     guidetolerance="10"
     inkscape:pageopacity="0"
     inkscape:pageshadow="2"
     inkscape:window-width="783"
     inkscape:window-height="480"
     id="namedview14"
     showgrid="false"
     inkscape:zoom="4.9166667"
     inkscape:cx="24"
     inkscape:cy="24"
     inkscape:window-x="0"
     inkscape:window-y="28"
     inkscape:window-maximized="0"
     inkscape:current-layer="svg12" />
  <rect
     style="opacity:0.2"
     width="40"
     height="40"
     x="4"
     y="5"
     rx="2"
     ry="2"
     id="rect2" />
  <rect
     style="fill:#4c566a;fill-opacity:1"
     width="40"
     height="40"
     x="4"
     y="4"
     rx="2"
     ry="2"
     id="rect4" />
  <path
     fill="#fff"
     style="opacity:0.2"
     d="m6 4c-1.108 0-2 0.892-2 2v1c0-1.108 0.892-2 2-2h36c1.108 0 2 0.892 2 2v-1c0-1.108-0.892-2-2-2h-36z"
     id="path6" />
  <path
     style="opacity:0.2"
     d="m 24.494992,39 c 0.4442,-0.953418 1.465016,-1.761763 1.768903,-2.824946 0.373442,-0.98708 0.253398,-2.392283 -0.7419,-2.969518 -0.353725,-0.301984 -0.892051,-0.102689 -1.327611,-0.182452 -2.203235,-0.07711 -4.643108,0.04226 -6.427398,-1.486619 -1.808023,-1.601474 -1.972532,-4.17973 -1.611434,-6.413798 0.765629,-3.840416 3.471203,-6.923826 6.370064,-9.400017 0.408509,-0.368071 1.716002,-1.772848 0.454651,-1.661033 C 21.065278,13.975907 17,14 17,14 v -3 h 13 v 3 c -3.27359,2.081256 -6.260483,4.769821 -8.04899,8.296789 -0.852978,1.669937 -1.228908,3.464224 -0.46002,5.229882 0.508208,1.036954 1.982465,1.473737 3.079746,1.436414 1.316569,0.147827 2.720211,-0.105503 3.96833,0.411635 1.726403,0.747513 2.62507,2.723944 2.436149,4.540608 C 30.900725,35.604792 30.030289,37.728706 28.959084,39 Z"
     id="path8" />
  <path
     style="fill:#ffffff"
     d="m 24.494992,38 c 0.4442,-0.953418 1.465016,-1.761763 1.768903,-2.824946 0.373442,-0.98708 0.253398,-2.392283 -0.7419,-2.969518 -0.353725,-0.301984 -0.892051,-0.102689 -1.327611,-0.182452 -2.203235,-0.07711 -4.643108,0.04226 -6.427398,-1.486619 -1.808023,-1.601474 -1.972532,-4.17973 -1.611434,-6.413798 0.765629,-3.840416 3.471203,-6.923826 6.370064,-9.400017 0.408509,-0.368071 1.716002,-1.772848 0.454651,-1.661033 C 21.065278,12.975907 17,13 17,13 v -3 h 13 v 3 c -3.27359,2.081256 -6.260483,4.769821 -8.04899,8.296789 -0.852978,1.669937 -1.228908,3.464224 -0.46002,5.229882 0.508208,1.036954 1.982465,1.473737 3.079746,1.436414 1.316569,0.147827 2.720211,-0.105503 3.96833,0.411635 1.726403,0.747513 2.62507,2.723944 2.436149,4.540608 C 30.900725,34.604792 30.030289,36.728706 28.959084,38 Z"
     id="path10" />
</svg>
