<?xml version="1.0" encoding="UTF-8" standalone="no"?>
<svg
   xmlns:dc="http://purl.org/dc/elements/1.1/"
   xmlns:cc="http://creativecommons.org/ns#"
   xmlns:rdf="http://www.w3.org/1999/02/22-rdf-syntax-ns#"
   xmlns:svg="http://www.w3.org/2000/svg"
   xmlns="http://www.w3.org/2000/svg"
   xmlns:sodipodi="http://sodipodi.sourceforge.net/DTD/sodipodi-0.dtd"
   xmlns:inkscape="http://www.inkscape.org/namespaces/inkscape"
   width="48"
   height="48"
   version="1.1"
   id="svg16"
   sodipodi:docname="lutris_zombie-panic-source.svg"
   inkscape:version="0.92.5 (2060ec1f9f, 2020-04-08)">
  <metadata
     id="metadata22">
    <rdf:RDF>
      <cc:Work
         rdf:about="">
        <dc:format>image/svg+xml</dc:format>
        <dc:type
           rdf:resource="http://purl.org/dc/dcmitype/StillImage" />
      </cc:Work>
    </rdf:RDF>
  </metadata>
  <defs
     id="defs20" />
  <sodipodi:namedview
     pagecolor="#ffffff"
     bordercolor="#666666"
     borderopacity="1"
     objecttolerance="10"
     gridtolerance="10"
     guidetolerance="10"
     inkscape:pageopacity="0"
     inkscape:pageshadow="2"
     inkscape:window-width="783"
     inkscape:window-height="480"
     id="namedview18"
     showgrid="false"
     inkscape:zoom="4.9166667"
     inkscape:cx="24"
     inkscape:cy="24"
     inkscape:window-x="0"
     inkscape:window-y="28"
     inkscape:window-maximized="0"
     inkscape:current-layer="svg16" />
  <circle
     cx="24"
     cy="25"
     r="20"
     style="opacity:.2"
     id="circle2" />
  <circle
     cx="24"
     cy="24"
     r="20"
     style="fill:#4c566a;fill-opacity:1"
     id="circle4" />
  <path
     d="M 24,4 A 20,20 0 0 0 4,24 20,20 0 0 0 4.0215,24.582 20,20 0 0 1 24,5 20,20 0 0 1 43.979,24.418 20,20 0 0 0 44,24 20,20 0 0 0 24,4 Z"
     style="fill:#ffffff;opacity:.2"
     id="path6" />
  <path
     d="m24.003906 17.999464a7 7 0 0 0-7 7 7 7 0 0 0 7 7 7 7 0 0 0 7-7 7 7 0 0 0-7-7zm0 2a5 5 0 0 1 5 5 5 5 0 0 1-5 5 5 5 0 0 1-5-5 5 5 0 0 1 5-5z"
     style="opacity:.2"
     id="path8" />
  <path
     d="m24.003906 17a7 7 0 0 0-7 7 7 7 0 0 0 7 7 7 7 0 0 0 7-7 7 7 0 0 0-7-7zm0 2a5 5 0 0 1 5 5 5 5 0 0 1-5 5 5 5 0 0 1-5-5 5 5 0 0 1 5-5z"
     style="fill:#ffffff"
     id="path10" />
  <path
     d="m23.580078 11.015089c-4.783152 0.225497-8.547548 4.156353-8.574219 8.939453-0.854441 0.423463-1.661404 0.973905-2.373047 1.685547-3.3415427 3.349618-3.5191841 8.714271-0.40625 12.277344-1.946379-2.385787-1.770721-5.857733 0.40625-8.035157 2.343146-2.343146 6.141229-2.343144 8.484375 0 2.343146 2.343148 2.343146 6.14123 0 8.484376-2.226914 2.226439-5.795425 2.352889-8.173828 0.289062 3.109831 2.829812 7.684665 3.086819 11.056641 0.830078 3.371975 2.256741 7.946809 1.999734 11.05664-0.830078-2.378403 2.063827-5.946914 1.937378-8.173828-0.289062-2.343146-2.343146-2.343146-6.141229 0-8.484376 2.343146-2.343144 6.141229-2.343146 8.484375 0 2.176971 2.177424 2.352629 5.64937 0.40625 8.035157 3.112935-3.563073 2.935293-8.927726-0.40625-12.277344-0.709394-0.709394-1.513828-1.258608-2.365234-1.681641-0.02702-4.712777-3.685727-8.610368-8.392578-8.927734 3.063304 0.310709 5.394212 2.889729 5.394531 5.96875 0 3.313708-2.686292 6-6 6s-6-2.686292-6-6c3.34e-4 -3.148997 2.435041-5.761936 5.576172-5.984375zm0.423828 12.984375 1.5 1.5-1.5 1.5-1.5-1.5z"
     style="opacity:.2"
     id="path12" />
  <path
     d="m23.580078 10.015625c-4.783152 0.225497-8.547548 4.156353-8.574219 8.939453-0.854441 0.423463-1.661404 0.973905-2.373047 1.685547-3.3415427 3.349618-3.5191841 8.714271-0.40625 12.277344-1.946379-2.385787-1.770721-5.857733 0.40625-8.035157 2.343146-2.343146 6.141229-2.343144 8.484375 0 2.343146 2.343148 2.343146 6.14123 0 8.484376-2.226914 2.226439-5.795425 2.352889-8.173828 0.289062 3.109831 2.829812 7.684665 3.086819 11.056641 0.830078 3.371975 2.256741 7.946809 1.999734 11.05664-0.830078-2.378403 2.063827-5.946914 1.937378-8.173828-0.289062-2.343146-2.343146-2.343146-6.141229 0-8.484376 2.343146-2.343144 6.141229-2.343146 8.484375 0 2.176971 2.177424 2.352629 5.64937 0.40625 8.035157 3.112935-3.563073 2.935293-8.927726-0.40625-12.277344-0.709394-0.709394-1.513828-1.258608-2.365234-1.681641-0.02702-4.712777-3.685727-8.610368-8.392578-8.927734 3.063304 0.310709 5.394212 2.889729 5.394531 5.96875 0 3.313708-2.686292 6-6 6s-6-2.686292-6-6c3.34e-4 -3.148997 2.435041-5.761936 5.576172-5.984375zm0.423828 12.984375 1.5 1.5-1.5 1.5-1.5-1.5z"
     style="fill:#ffffff"
     id="path14" />
</svg>
