<?xml version="1.0" encoding="UTF-8" standalone="no"?>
<svg
   xmlns:dc="http://purl.org/dc/elements/1.1/"
   xmlns:cc="http://creativecommons.org/ns#"
   xmlns:rdf="http://www.w3.org/1999/02/22-rdf-syntax-ns#"
   xmlns:svg="http://www.w3.org/2000/svg"
   xmlns="http://www.w3.org/2000/svg"
   xmlns:sodipodi="http://sodipodi.sourceforge.net/DTD/sodipodi-0.dtd"
   xmlns:inkscape="http://www.inkscape.org/namespaces/inkscape"
   width="48"
   height="48"
   version="1.1"
   id="svg12"
   sodipodi:docname="application-x-zoom.svg"
   inkscape:version="0.92.5 (2060ec1f9f, 2020-04-08)">
  <metadata
     id="metadata18">
    <rdf:RDF>
      <cc:Work
         rdf:about="">
        <dc:format>image/svg+xml</dc:format>
        <dc:type
           rdf:resource="http://purl.org/dc/dcmitype/StillImage" />
      </cc:Work>
    </rdf:RDF>
  </metadata>
  <defs
     id="defs16" />
  <sodipodi:namedview
     pagecolor="#ffffff"
     bordercolor="#666666"
     borderopacity="1"
     objecttolerance="10"
     gridtolerance="10"
     guidetolerance="10"
     inkscape:pageopacity="0"
     inkscape:pageshadow="2"
     inkscape:window-width="783"
     inkscape:window-height="480"
     id="namedview14"
     showgrid="false"
     inkscape:zoom="4.9166667"
     inkscape:cx="24"
     inkscape:cy="24"
     inkscape:window-x="0"
     inkscape:window-y="28"
     inkscape:window-maximized="0"
     inkscape:current-layer="svg12" />
  <rect
     style="opacity:0.2"
     width="40"
     height="40"
     x="4"
     y="5"
     rx="12"
     ry="12"
     id="rect2" />
  <rect
     style="fill:#4c566a;fill-opacity:1"
     width="40"
     height="40"
     x="4"
     y="4"
     rx="12"
     ry="12"
     id="rect4" />
  <path
     style="opacity:0.2;fill:#ffffff"
     d="M 16,4 C 9.352,4 4,9.352 4,16 v 1 C 4,10.352 9.352,5 16,5 h 16 c 6.648,0 12,5.352 12,12 V 16 C 44,9.352 38.648,4 32,4 Z"
     id="path6" />
  <path
     style="opacity:0.2"
     d="m 13.500057,17.999747 c -0.831032,0 -1.500057,0.669 -1.500057,1.5 v 2.5 3 3 c 0,2.216 1.784067,4 4.000151,4 h 5.000189 5.000188 2.500094 c 0.831032,0 1.500057,-0.669 1.500057,-1.5 v -2.5 -3 -3 c 0,-2.216 -1.784067,-4 -4.000151,-4 H 21.00034 16.000151 Z m 22.547725,0.002 c -0.318631,-0.022 -0.681883,0.123944 -1.027383,0.445313 -1.214999,1.130136 -2.638913,2.082865 -3.634902,3.433593 -0.410154,0.556237 -0.381552,1.293759 -0.38478,1.986329 -0.0018,0.379995 0.0021,0.757818 0,1.132812 0.0021,0.374994 -0.0018,0.752818 0,1.132812 0.0032,0.692569 -0.02537,1.430092 0.38478,1.986329 0.995989,1.350728 2.419903,2.303457 3.634902,3.433593 0.3455,0.321369 0.708752,0.467313 1.027383,0.445313 0.531051,-0.03667 0.939489,-0.5399 0.939489,-1.472656 0,-1.826065 0.02864,-3.674305 0,-5.525391 0.02864,-1.851086 0,-3.699326 0,-5.525391 0,-0.932756 -0.408438,-1.435986 -0.939489,-1.472656 z"
     id="path8" />
  <path
     style="fill:#ffffff"
     d="m 13.500057,16.999953 c -0.831032,0 -1.500057,0.669 -1.500057,1.5 v 2.5 3 3 c 0,2.216 1.784067,4 4.000151,4 h 5.000189 5.000188 2.500094 c 0.831032,0 1.500057,-0.669 1.500057,-1.5 v -2.5 -3 -3 c 0,-2.216 -1.784067,-4 -4.000151,-4 H 21.00034 16.000151 Z m 22.547725,0.002 c -0.318631,-0.022 -0.681883,0.123944 -1.027383,0.445313 -1.214999,1.130136 -2.638913,2.082865 -3.634902,3.433593 -0.410154,0.556237 -0.381552,1.293759 -0.38478,1.986329 -0.0018,0.379995 0.0021,0.757818 0,1.132812 0.0021,0.374994 -0.0018,0.752818 0,1.132812 0.0032,0.692569 -0.02537,1.430092 0.38478,1.986329 0.995989,1.350728 2.419903,2.303457 3.634902,3.433593 0.3455,0.321369 0.708752,0.467313 1.027383,0.445313 0.531051,-0.03667 0.939489,-0.5399 0.939489,-1.472656 0,-1.826065 0.02864,-3.674305 0,-5.525391 0.02864,-1.851086 0,-3.699326 0,-5.525391 0,-0.932756 -0.408438,-1.435986 -0.939489,-1.472656 z"
     id="path10" />
</svg>
