<?xml version="1.0" encoding="UTF-8" standalone="no"?>
<svg
   xmlns:dc="http://purl.org/dc/elements/1.1/"
   xmlns:cc="http://creativecommons.org/ns#"
   xmlns:rdf="http://www.w3.org/1999/02/22-rdf-syntax-ns#"
   xmlns:svg="http://www.w3.org/2000/svg"
   xmlns="http://www.w3.org/2000/svg"
   xmlns:sodipodi="http://sodipodi.sourceforge.net/DTD/sodipodi-0.dtd"
   xmlns:inkscape="http://www.inkscape.org/namespaces/inkscape"
   width="16"
   height="16"
   version="1.1"
   id="svg6"
   sodipodi:docname="channel-insecure-symbolic.svg"
   inkscape:version="0.92.5 (2060ec1f9f, 2020-04-08)">
  <metadata
     id="metadata12">
    <rdf:RDF>
      <cc:Work
         rdf:about="">
        <dc:format>image/svg+xml</dc:format>
        <dc:type
           rdf:resource="http://purl.org/dc/dcmitype/StillImage" />
      </cc:Work>
    </rdf:RDF>
  </metadata>
  <defs
     id="defs10" />
  <sodipodi:namedview
     pagecolor="#ffffff"
     bordercolor="#666666"
     borderopacity="1"
     objecttolerance="10"
     gridtolerance="10"
     guidetolerance="10"
     inkscape:pageopacity="0"
     inkscape:pageshadow="2"
     inkscape:window-width="765"
     inkscape:window-height="480"
     id="namedview8"
     showgrid="false"
     inkscape:zoom="14.75"
     inkscape:cx="13.322873"
     inkscape:cy="7.3574974"
     inkscape:current-layer="svg6"
     inkscape:window-x="0"
     inkscape:window-y="28"
     inkscape:window-maximized="0" />
  <path
     style="fill:#dfdfdf;opacity:.35"
     d="M 8 1 C 5.784 1 4 2.784 4 5 L 4 7 L 3 7 C 2.446 7 2 7.446 2 8 L 2 14 C 2 14.554 2.446 15 3 15 L 9 15 L 9 14 A 1.0001 1.0001 0 0 1 9.5859375 13.414062 A 1.0001 1.0001 0 0 1 9.2578125 13.125 L 9.0078125 11.125 A 1.0001 1.0001 0 0 1 9 11 L 9 7 L 6 7 L 6 5 C 6 3.892 6.892 3 8 3 C 9.108 3 10 3.892 10 5 L 10 6 L 12 6 L 12 5 C 12 2.784 10.216 1 8 1 z M 13 7 L 13 11 A 1.0001 1.0001 0 0 1 12.992188 11.125 L 12.742188 13.125 A 1.0001 1.0001 0 0 1 12.414062 13.414062 A 1.0001 1.0001 0 0 1 13 14 L 13 15 C 13.554 15 14 14.554 14 14 L 14 8 C 14 7.446 13.554 7 13 7 z"
     id="path2" />
  <path
     style="fill:#dfdfdf;fill-opacity:1"
     class="error"
     d="m 10,7 v 4 l 0.25,2 h 1.5 L 12,11 V 7 Z m 0,7 v 2 h 2 v -2 z"
     id="path4" />
</svg>
