<?xml version="1.0" encoding="UTF-8" standalone="no"?>
<svg
   xmlns:osb="http://www.openswatchbook.org/uri/2009/osb"
   xmlns:dc="http://purl.org/dc/elements/1.1/"
   xmlns:cc="http://creativecommons.org/ns#"
   xmlns:rdf="http://www.w3.org/1999/02/22-rdf-syntax-ns#"
   xmlns:svg="http://www.w3.org/2000/svg"
   xmlns="http://www.w3.org/2000/svg"
   width="16"
   version="1.1"
   style="enable-background:new"
   id="svg7384"
   height="16">
  <metadata
     id="metadata90">
    <rdf:RDF>
      <cc:Work
         rdf:about="">
        <dc:format>image/svg+xml</dc:format>
        <dc:type
           rdf:resource="http://purl.org/dc/dcmitype/StillImage" />
        <dc:title>Moka Symbolic Icon Theme</dc:title>
      </cc:Work>
    </rdf:RDF>
  </metadata>
  <title
     id="title8473">Moka Symbolic Icon Theme</title>
  <defs
     id="defs7386">
    <linearGradient
       osb:paint="solid"
       id="linearGradient5606">
      <stop
         style="stop-color:#000000;stop-opacity:1;"
         offset="0"
         id="stop5608" />
    </linearGradient>
    <filter
       style="color-interpolation-filters:sRGB"
       id="filter7554">
      <feBlend
         mode="darken"
         in2="BackgroundImage"
         id="feBlend7556" />
    </filter>
  </defs>
  <path
     id="path15651-4-7"
     d="M 7.912903,3.5 C 6.1939704,4.7241287 3.5,5.4756093 3.5,5.4756093 4.1967763,11.128045 7.9999991,12.5 7.9999991,12.5 c 0,0 3.7451569,-1.426828 4.5000009,-7.1067083 0,0 -3.2516149,-1.1250003 -4.587097,-1.8932917 z"
     style="display:block;overflow:visible;visibility:visible;opacity:1;fill:#bebebe;fill-opacity:1;fill-rule:nonzero;stroke:none;stroke-width:1.00000012;stroke-linecap:round;stroke-linejoin:round;stroke-miterlimit:4;stroke-dasharray:none;stroke-dashoffset:0;stroke-opacity:1;marker:none;enable-background:new" />
  <g
     transform="translate(-519.00021,368.01034)"
     style="display:inline;filter:url(#filter7554)"
     id="layer10" />
  <g
     transform="translate(-278.00001,-248.98966)"
     style="display:inline"
     id="layer1" />
  <g
     transform="translate(-519.00021,368.01034)"
     style="display:inline"
     id="layer14" />
  <g
     transform="translate(-519.00021,368.01034)"
     style="display:inline"
     id="layer15" />
  <g
     transform="translate(-519.00021,368.01034)"
     style="display:inline"
     id="g71291" />
  <g
     transform="translate(-278.00001,-98.98966)"
     style="display:inline"
     id="layer2" />
  <g
     transform="translate(-278.00001,-98.98966)"
     style="display:inline"
     id="g6058" />
  <g
     transform="translate(-519.00021,368.01034)"
     style="display:inline"
     id="layer12" />
  <path
     style="display:block;overflow:visible;visibility:visible;fill:#bebebe;fill-opacity:1;fill-rule:nonzero;stroke:none;stroke-width:1.00000012;stroke-linecap:round;stroke-linejoin:round;stroke-miterlimit:4;stroke-dasharray:none;stroke-dashoffset:0;stroke-opacity:1;marker:none;enable-background:new"
     d="M 7.844483,2e-7 C 4.788185,2.1762288 0,3.5111609 0,3.5111609 1.238882,13.559938 8,16 8,16 c 0,0 6.657874,-2.536363 8,-12.6339284 0,0 -5.781008,-2.0002199 -8.155517,-3.3660714 z m 0.04574,2.2857143 c 1.69608,0.9756114 5.825041,2.4040178 5.825041,2.4040178 -0.95866,7.2125377 -5.715265,9.0245537 -5.715265,9.0245537 0,0 -4.830352,-1.74194 -5.715266,-8.9196429 0,0 3.42242,-0.9544829 5.60549,-2.5089286 z"
     id="path15651-4" />
</svg>
