<?xml version="1.0" encoding="UTF-8" standalone="no"?>
<svg
   xmlns:dc="http://purl.org/dc/elements/1.1/"
   xmlns:cc="http://creativecommons.org/ns#"
   xmlns:rdf="http://www.w3.org/1999/02/22-rdf-syntax-ns#"
   xmlns:svg="http://www.w3.org/2000/svg"
   xmlns="http://www.w3.org/2000/svg"
   xmlns:sodipodi="http://sodipodi.sourceforge.net/DTD/sodipodi-0.dtd"
   xmlns:inkscape="http://www.inkscape.org/namespaces/inkscape"
   width="16"
   height="16"
   version="1.1"
   id="svg6"
   sodipodi:docname="network-vpn-error-symbolic.svg"
   inkscape:version="0.92.5 (2060ec1f9f, 2020-04-08)">
  <metadata
     id="metadata12">
    <rdf:RDF>
      <cc:Work
         rdf:about="">
        <dc:format>image/svg+xml</dc:format>
        <dc:type
           rdf:resource="http://purl.org/dc/dcmitype/StillImage" />
      </cc:Work>
    </rdf:RDF>
  </metadata>
  <defs
     id="defs10" />
  <sodipodi:namedview
     pagecolor="#ffffff"
     bordercolor="#666666"
     borderopacity="1"
     objecttolerance="10"
     gridtolerance="10"
     guidetolerance="10"
     inkscape:pageopacity="0"
     inkscape:pageshadow="2"
     inkscape:window-width="765"
     inkscape:window-height="480"
     id="namedview8"
     showgrid="false"
     inkscape:zoom="14.75"
     inkscape:cx="11.981253"
     inkscape:cy="3.5799765"
     inkscape:current-layer="svg6"
     inkscape:window-x="0"
     inkscape:window-y="28"
     inkscape:window-maximized="0" />
  <path
     style="opacity:.35;fill:#dfdfdf"
     d="M 8 0 A 3 3 0 0 0 5 3 L 5 5 L 4 5 C 3.446 5 3 5.4460001 3 6 L 3 10 C 3 10.554 3.446 11 4 11 L 12 11 C 12.554 11 13 10.554 13 10 L 13 6 C 13 5.4460001 12.554 5 12 5 L 11 5 L 11 3 A 3 3 0 0 0 8 0 z M 8 2 C 8.575974 2 9 2.424026 9 3 L 9 5 L 7 5 L 7 3 C 7 2.424026 7.424026 2 8 2 z M 7 12 L 7 13 L 5 13 L 5 14 L 5 16 L 11 16 L 11 14 L 11 13 L 9 13 L 9 12 L 7 12 z M 1 14 C 0.446 14 0 14.446 0 15 C 0 15.554 0.446 16 1 16 L 4 16 L 4 14 L 1 14 z M 12 14 L 12 16 L 13 16 L 13 14 L 12 14 z"
     id="path2" />
  <path
     style="fill:#dfdfdf;fill-opacity:1"
     class="error"
     d="m 14,7.0000006 v 4.0000004 l 0.25,2 h 1.5 l 0.25,-2 V 7.0000006 Z M 14,14 v 2 h 2 v -2 z"
     id="path4" />
</svg>
