<?xml version="1.0" encoding="UTF-8" standalone="no"?>
<svg
   xmlns:dc="http://purl.org/dc/elements/1.1/"
   xmlns:cc="http://creativecommons.org/ns#"
   xmlns:rdf="http://www.w3.org/1999/02/22-rdf-syntax-ns#"
   xmlns:svg="http://www.w3.org/2000/svg"
   xmlns="http://www.w3.org/2000/svg"
   xmlns:sodipodi="http://sodipodi.sourceforge.net/DTD/sodipodi-0.dtd"
   xmlns:inkscape="http://www.inkscape.org/namespaces/inkscape"
   width="16"
   height="16"
   version="1.1"
   id="svg6"
   sodipodi:docname="network-wired-error-symbolic.svg"
   inkscape:version="0.92.5 (2060ec1f9f, 2020-04-08)">
  <metadata
     id="metadata12">
    <rdf:RDF>
      <cc:Work
         rdf:about="">
        <dc:format>image/svg+xml</dc:format>
        <dc:type
           rdf:resource="http://purl.org/dc/dcmitype/StillImage" />
      </cc:Work>
    </rdf:RDF>
  </metadata>
  <defs
     id="defs10" />
  <sodipodi:namedview
     pagecolor="#ffffff"
     bordercolor="#666666"
     borderopacity="1"
     objecttolerance="10"
     gridtolerance="10"
     guidetolerance="10"
     inkscape:pageopacity="0"
     inkscape:pageshadow="2"
     inkscape:window-width="765"
     inkscape:window-height="480"
     id="namedview8"
     showgrid="false"
     inkscape:zoom="10.429825"
     inkscape:cx="8.8322058"
     inkscape:cy="6.4809353"
     inkscape:current-layer="svg6"
     inkscape:window-x="0"
     inkscape:window-y="28"
     inkscape:window-maximized="0" />
  <path
     style="fill:#dfdfdf"
     d="M 1 1 C 1 1 0 1 0 2 L 0 12 C 0 13 1 13 1 13 L 3 13 L 4 14 L 11 14 L 11 11 L 10 12 L 5 12 L 4 11 L 2 11 L 2 3 L 3 3 L 3 5 L 4 5 L 4 3 L 5 3 L 5 5 L 6 5 L 6 3 L 7 3 L 7 5 L 8 5 L 8 3 L 9 3 L 9 5 L 10 5 L 10 3 L 11 3 L 11 5 L 12 5 L 12 3 L 13 3 L 13 5 L 15 5 L 15 2 C 15 1 14 1 14 1 L 1 1 z"
     id="path2" />
  <path
     style="fill:#dfdfdf;fill-opacity:1"
     class="error"
     d="m 12,6 v 4 l 0.25,2 h 1.5 L 14,10 V 6 Z m 0,7 v 2 h 2 v -2 z"
     id="path4" />
</svg>
