<?xml version="1.0" encoding="UTF-8" standalone="no"?>
<svg
   xmlns:dc="http://purl.org/dc/elements/1.1/"
   xmlns:cc="http://creativecommons.org/ns#"
   xmlns:rdf="http://www.w3.org/1999/02/22-rdf-syntax-ns#"
   xmlns:svg="http://www.w3.org/2000/svg"
   xmlns="http://www.w3.org/2000/svg"
   xmlns:sodipodi="http://sodipodi.sourceforge.net/DTD/sodipodi-0.dtd"
   xmlns:inkscape="http://www.inkscape.org/namespaces/inkscape"
   width="24"
   height="24"
   version="1.1"
   id="svg20"
   sodipodi:docname="computer-fail.svg"
   inkscape:version="0.92.5 (2060ec1f9f, 2020-04-08)">
  <metadata
     id="metadata26">
    <rdf:RDF>
      <cc:Work
         rdf:about="">
        <dc:format>image/svg+xml</dc:format>
        <dc:type
           rdf:resource="http://purl.org/dc/dcmitype/StillImage" />
      </cc:Work>
    </rdf:RDF>
  </metadata>
  <defs
     id="defs24" />
  <sodipodi:namedview
     pagecolor="#ffffff"
     bordercolor="#666666"
     borderopacity="1"
     objecttolerance="10"
     gridtolerance="10"
     guidetolerance="10"
     inkscape:pageopacity="0"
     inkscape:pageshadow="2"
     inkscape:window-width="783"
     inkscape:window-height="480"
     id="namedview22"
     showgrid="false"
     inkscape:zoom="13.906433"
     inkscape:cx="16.327596"
     inkscape:cy="15.388392"
     inkscape:window-x="0"
     inkscape:window-y="28"
     inkscape:window-maximized="0"
     inkscape:current-layer="svg20" />
  <rect
     style="opacity:0.2"
     width="16"
     height="12"
     x="-21.5"
     y="-18"
     rx="1"
     ry="1"
     transform="matrix(0,-1,-1,0,0,0)"
     id="rect2" />
  <rect
     style="fill:#4c566a;fill-opacity:1"
     width="16"
     height="12"
     x="-21"
     y="-18"
     rx="1"
     ry="1"
     transform="matrix(0,-1,-1,0,0,0)"
     id="rect4" />
  <rect
     style="opacity:0.2"
     width="16"
     height="20"
     x="-19.5"
     y="-22"
     rx="1"
     ry="1"
     transform="matrix(0,-1,-1,0,0,0)"
     id="rect6" />
  <rect
     style="fill:#4c566a;fill-opacity:1"
     width="16"
     height="20"
     x="-19"
     y="-22"
     rx="1"
     ry="1"
     transform="matrix(0,-1,-1,0,0,0)"
     id="rect8" />
  <rect
     style="fill:#5f697d;fill-opacity:1"
     width="12"
     height="16"
     x="-17"
     y="-20"
     rx="0"
     ry="0"
     transform="matrix(0,-1,-1,0,0,0)"
     id="rect10" />
  <path
     style="opacity:0.2"
     d="m 9,8.5 v 2 h 1 v -2 z m 5,0 v 2 h 1 v -2 z m -5,4 v 1 h 1 4 1 v -1 h -1 -4 z m 6,1 v 1 h 1 v -1 z m -6,0 H 8 v 1 h 1 z"
     id="path12" />
  <path
     style="fill:#ffffff"
     d="m 9,8 v 2 h 1 V 8 Z m 5,0 v 2 h 1 V 8 Z m -5,4 v 1 h 1 4 1 v -1 h -1 -4 z m 6,1 v 1 h 1 V 13 Z M 9,13 H 8 v 1 h 1 z"
     id="path14" />
  <path
     style="opacity:0.1;fill:#ffffff"
     d="M 3,3 C 2.446,3 2,3.446 2,4 l 0,0.5 c 0,-0.554 0.446,-1 1,-1 l 18,0 c 0.554,0 1,0.446 1,1 L 22,4 C 22,3.446 21.554,3 21,3 L 3,3 Z"
     id="path16" />
  <rect
     style="opacity:0.1;fill:#ffffff"
     width="16"
     height=".5"
     x="4"
     y="17"
     id="rect18" />
</svg>
