<?xml version="1.0" encoding="UTF-8" standalone="no"?>
<svg
   xmlns:dc="http://purl.org/dc/elements/1.1/"
   xmlns:cc="http://creativecommons.org/ns#"
   xmlns:rdf="http://www.w3.org/1999/02/22-rdf-syntax-ns#"
   xmlns:svg="http://www.w3.org/2000/svg"
   xmlns="http://www.w3.org/2000/svg"
   xmlns:sodipodi="http://sodipodi.sourceforge.net/DTD/sodipodi-0.dtd"
   xmlns:inkscape="http://www.inkscape.org/namespaces/inkscape"
   width="24"
   height="24"
   version="1"
   id="svg14"
   sodipodi:docname="image-missing.svg"
   inkscape:version="0.92.5 (2060ec1f9f, 2020-04-08)">
  <metadata
     id="metadata20">
    <rdf:RDF>
      <cc:Work
         rdf:about="">
        <dc:format>image/svg+xml</dc:format>
        <dc:type
           rdf:resource="http://purl.org/dc/dcmitype/StillImage" />
      </cc:Work>
    </rdf:RDF>
  </metadata>
  <defs
     id="defs18" />
  <sodipodi:namedview
     pagecolor="#ffffff"
     bordercolor="#666666"
     borderopacity="1"
     objecttolerance="10"
     gridtolerance="10"
     guidetolerance="10"
     inkscape:pageopacity="0"
     inkscape:pageshadow="2"
     inkscape:window-width="783"
     inkscape:window-height="480"
     id="namedview16"
     showgrid="false"
     inkscape:zoom="9.8333333"
     inkscape:cx="12"
     inkscape:cy="12"
     inkscape:window-x="0"
     inkscape:window-y="28"
     inkscape:window-maximized="0"
     inkscape:current-layer="svg14" />
  <path
     style="opacity:0.2"
     d="M 3,3.5 C 2.446,3.5 2,3.946 2,4.5 V 20.5 C 2,21.054 2.446,21.5 3,21.5 H 14 L 22,13.5 V 4.5 C 22,3.946 21.554,3.5 21,3.5 Z"
     id="path2" />
  <path
     style="fill:#4c566a;fill-opacity:1"
     d="M 3,3 C 2.446,3 2,3.446 2,4 V 20 C 2,20.554 2.446,21 3,21 H 14 L 22,13 V 4 C 22,3.446 21.554,3 21,3 Z"
     id="path4" />
  <path
     style="opacity:1;fill:#d5d8df;fill-opacity:1"
     d="M 7.6084,10 12,16 15,13 18,15.077 17.47,15.548 15.546,18 H 3.9996 V 14 Z"
     id="path6" />
  <path
     style="fill:#5f697d;fill-opacity:1"
     d="M 22,13 H 15 C 14.448,13 14,13.448 14,14 V 21 Z"
     id="path8" />
  <path
     style="opacity:0.2;fill:#ffffff"
     d="M 15,13 C 14.448,13 14,13.448 14,14 V 14.5 C 14,13.948 14.448,13.5 15,13.5 H 21.5 L 22,13 Z"
     id="path10" />
  <path
     style="opacity:0.2;fill:#ffffff"
     d="M 3,3 C 2.446,3 2,3.446 2,4 V 4.5 C 2,3.946 2.446,3.5 3,3.5 H 21 C 21.554,3.5 22,3.946 22,4.5 V 4 C 22,3.446 21.554,3 21,3 Z"
     id="path12" />
</svg>
