<?xml version="1.0" encoding="UTF-8" standalone="no"?>
<svg
   xmlns:dc="http://purl.org/dc/elements/1.1/"
   xmlns:cc="http://creativecommons.org/ns#"
   xmlns:rdf="http://www.w3.org/1999/02/22-rdf-syntax-ns#"
   xmlns:svg="http://www.w3.org/2000/svg"
   xmlns="http://www.w3.org/2000/svg"
   xmlns:sodipodi="http://sodipodi.sourceforge.net/DTD/sodipodi-0.dtd"
   xmlns:inkscape="http://www.inkscape.org/namespaces/inkscape"
   width="16"
   height="16"
   version="1.1"
   id="svg4"
   sodipodi:docname="address-book-new-symbolic.svg"
   inkscape:version="0.92.5 (2060ec1f9f, 2020-04-08)">
  <metadata
     id="metadata10">
    <rdf:RDF>
      <cc:Work
         rdf:about="">
        <dc:format>image/svg+xml</dc:format>
        <dc:type
           rdf:resource="http://purl.org/dc/dcmitype/StillImage" />
      </cc:Work>
    </rdf:RDF>
  </metadata>
  <defs
     id="defs8" />
  <sodipodi:namedview
     pagecolor="#ffffff"
     bordercolor="#666666"
     borderopacity="1"
     objecttolerance="10"
     gridtolerance="10"
     guidetolerance="10"
     inkscape:pageopacity="0"
     inkscape:pageshadow="2"
     inkscape:window-width="640"
     inkscape:window-height="480"
     id="namedview6"
     showgrid="false"
     inkscape:zoom="14.75"
     inkscape:cx="8"
     inkscape:cy="8"
     inkscape:current-layer="svg4" />
  <path
     style="fill:#dfdfdf;fill-opacity:1"
     d="M 3,1 C 1.89,1 1,1.89 1,3 V 13 C 1,14.11 1.89,15 3,15 H 13 C 14.11,15 15,14.11 15,13 V 3 C 15,1.89 14.11,1 13,1 Z M 8,4 C 10.21,4 12,5.79 12,8 V 8.5 C 12,9.33 11.33,10 10.5,10 10.06,10 9.64,9.8 9.35,9.46 9,9.79 8.52,10 8,10 6.9,10 6,9.1 6,8 6,6.9 6.9,6 8,6 9.1,6 10,6.9 10,8 V 8.5 C 10,8.78 10.22,9 10.5,9 10.78,9 11,8.78 11,8.5 V 8 C 11,6.34 9.66,5 8,5 6.34,5 5,6.34 5,8 5,9.66 6.34,11 8,11 H 10.5 C 10.5,11 11,11 11,11.5 10.97,12 10.5,12 10.5,12 H 8 C 5.79,12 4,10.21 4,8 4,5.79 5.79,4 8,4 Z M 8,7 C 7.45,7 7,7.45 7,8 7,8.55 7.45,9 8,9 8.55,9 9,8.55 9,8 9,7.45 8.55,7 8,7 Z"
     id="path2" />
  <path
     id="path7"
     d="M 3,1 C 1.89,1 1,1.89 1,3 V 13 C 1,14.11 1.89,15 3,15 H 13 C 14.11,15 15,14.11 15,13 V 3 C 15,1.89 14.11,1 13,1 Z M 8,4 C 10.21,4 12,5.79 12,8 V 8.5 C 12,9.33 11.33,10 10.5,10 10.06,10 9.64,9.8 9.35,9.46 9,9.79 8.52,10 8,10 6.9,10 6,9.1 6,8 6,6.9 6.9,6 8,6 9.1,6 10,6.9 10,8 V 8.5 C 10,8.78 10.22,9 10.5,9 10.78,9 11,8.78 11,8.5 V 8 C 11,6.34 9.66,5 8,5 6.34,5 5,6.34 5,8 5,9.66 6.34,11 8,11 H 10.5 C 10.5,11 11,11 11,11.5 10.97,12 10.5,12 10.5,12 H 8 C 5.79,12 4,10.21 4,8 4,5.79 5.79,4 8,4 Z M 8,7 C 7.45,7 7,7.45 7,8 7,8.55 7.45,9 8,9 8.55,9 9,8.55 9,8 9,7.45 8.55,7 8,7 Z"
     style="fill:#dfdfdf;fill-opacity:1" />
</svg>
