<?xml version="1.0" encoding="UTF-8" standalone="no"?>
<svg
   xmlns:dc="http://purl.org/dc/elements/1.1/"
   xmlns:cc="http://creativecommons.org/ns#"
   xmlns:rdf="http://www.w3.org/1999/02/22-rdf-syntax-ns#"
   xmlns:svg="http://www.w3.org/2000/svg"
   xmlns="http://www.w3.org/2000/svg"
   xmlns:sodipodi="http://sodipodi.sourceforge.net/DTD/sodipodi-0.dtd"
   xmlns:inkscape="http://www.inkscape.org/namespaces/inkscape"
   width="16"
   height="16"
   version="1.1"
   id="svg4"
   sodipodi:docname="contact-new-symbolic.svg"
   inkscape:version="0.92.5 (2060ec1f9f, 2020-04-08)">
  <metadata
     id="metadata10">
    <rdf:RDF>
      <cc:Work
         rdf:about="">
        <dc:format>image/svg+xml</dc:format>
        <dc:type
           rdf:resource="http://purl.org/dc/dcmitype/StillImage" />
      </cc:Work>
    </rdf:RDF>
  </metadata>
  <defs
     id="defs8" />
  <sodipodi:namedview
     pagecolor="#ffffff"
     bordercolor="#666666"
     borderopacity="1"
     objecttolerance="10"
     gridtolerance="10"
     guidetolerance="10"
     inkscape:pageopacity="0"
     inkscape:pageshadow="2"
     inkscape:window-width="640"
     inkscape:window-height="480"
     id="namedview6"
     showgrid="false"
     inkscape:zoom="14.75"
     inkscape:cx="8"
     inkscape:cy="8"
     inkscape:current-layer="svg4" />
  <path
     style="fill:#dfdfdf;fill-opacity:1"
     d="M 3,1.01 C 1.89,1.01 1,1.902 1,3.01 V 13.01 C 1,14.118 1.89,15.01 3,15.01 H 13 C 14.11,15.01 15,14.118 15,13.01 V 3.01 C 15,1.902 14.11,1.01 13,1.01 Z M 8,4.01 C 9.1,4.01 10,4.905 10,6.01 10,7.115 9.1,8.01 8,8.01 6.9,8.01 6,7.115 6,6.01 6,4.905 6.9,4.01 8,4.01 Z M 8,9.01 C 12,9.008 12,11.678 12,11.678 V 12.01 H 4 V 11.678 C 4,11.678 4,9.012 8,9.01 Z"
     id="path2" />
</svg>
