<?xml version="1.0" encoding="UTF-8" standalone="no"?>
<!-- Created with Inkscape (http://www.inkscape.org/) -->

<svg
   xmlns:dc="http://purl.org/dc/elements/1.1/"
   xmlns:cc="http://creativecommons.org/ns#"
   xmlns:rdf="http://www.w3.org/1999/02/22-rdf-syntax-ns#"
   xmlns:svg="http://www.w3.org/2000/svg"
   xmlns="http://www.w3.org/2000/svg"
   xmlns:sodipodi="http://sodipodi.sourceforge.net/DTD/sodipodi-0.dtd"
   xmlns:inkscape="http://www.inkscape.org/namespaces/inkscape"
   id="svg7384"
   height="16"
   width="16"
   version="1.1"
   inkscape:version="0.92.5 (2060ec1f9f, 2020-04-08)"
   sodipodi:docname="screensaver-unlock-symbolic.svg">
  <defs
     id="defs7667" />
  <sodipodi:namedview
     pagecolor="#ffffff"
     bordercolor="#666666"
     borderopacity="1"
     objecttolerance="10"
     gridtolerance="10"
     guidetolerance="10"
     inkscape:pageopacity="0"
     inkscape:pageshadow="2"
     inkscape:window-width="1914"
     inkscape:window-height="1026"
     id="namedview7665"
     showgrid="false"
     inkscape:zoom="22.627417"
     inkscape:cx="3.6055031"
     inkscape:cy="7.4687089"
     inkscape:window-x="0"
     inkscape:window-y="28"
     inkscape:window-maximized="1"
     inkscape:current-layer="svg7384" />
  <metadata
     id="metadata90">
    <rdf:RDF>
      <cc:Work
         rdf:about="">
        <dc:format>image/svg+xml</dc:format>
        <dc:type
           rdf:resource="http://purl.org/dc/dcmitype/StillImage" />
        <dc:title>Gnome Symbolic Icon Theme</dc:title>
      </cc:Work>
    </rdf:RDF>
  </metadata>
  <title
     id="title9167">Gnome Symbolic Icon Theme</title>
  <path
     style="color:#bebebe;fill:#dfdfdf;fill-opacity:1"
     d="M 7 1 C 5.3553 1 4 2.3553 4 4 L 4 4.0136719 L 6 4.0136719 L 6 4 C 6 3.4287 6.4287 3 7 3 L 9 3 C 9.5713 3 10 3.4287 10 4 L 10 5.78125 L 6 5.78125 L 6 5.7773438 L 4 5.7773438 L 4 5.78125 L 3 5.78125 L 3 5.7792969 C 2.446 5.7792969 2 6.3597452 2 7.0800781 L 2 7.7714844 L 2 14.880859 L 14 14.880859 L 14 7.7714844 L 14 7.0820312 C 14 6.3616952 13.554 5.78125 13 5.78125 L 12 5.78125 L 12 4 C 12 2.3553 10.6447 1 9 1 L 7 1 z M 8 7.8730469 A 1.5 1.5 0 0 1 9.5 9.3730469 A 1.5 1.5 0 0 1 8.5 10.785156 L 8.5 12.5 L 7.5 12.5 L 7.5 10.787109 A 1.5 1.5 0 0 1 6.5 9.3730469 A 1.5 1.5 0 0 1 8 7.8730469 z "
     id="rect4063" />
  <path
     inkscape:connector-curvature="0"
     d="m 18.434103,6.2601619 1.375,0 1.125,1.0938 1.09,-1.09 1.41,0 0,1.4688 -1.0938,1.0625 1.09,1.06 0,1.4100001 -1.44,0 -1.06,-1.06 -1.06,1.06 -1.44,0 0,-1.4062001 1.0625,-1.0625 -1.06,-1.06 0,-1.47 z"
     style="color:#bebebe;fill:#dfdfdf;fill-opacity:1"
     id="path3761-2-3-5-4-8-9-8-9-9-0" />
</svg>
