<svg xmlns="http://www.w3.org/2000/svg" width="24" height="24" version="1.1" viewBox="0 0 24 24">
 <defs>
  <linearGradient id="linearGradient4202" x1="1" x2="8" y1="8" y2="1" gradientUnits="userSpaceOnUse">
   <stop offset="0" stop-color="#3296c8"/>
   <stop offset=".313" stop-color="#3499cc"/>
   <stop offset=".563" stop-color="#54a9d4"/>
   <stop offset=".75" stop-color="#65b2d9"/>
   <stop offset="1" stop-color="#71b8db"/>
  </linearGradient>
  <linearGradient id="linearGradient4204" x1="1" x2="8" y1="8" y2="15" gradientUnits="userSpaceOnUse">
   <stop offset="0" stop-color="#3091c2"/>
   <stop offset=".313" stop-color="#3091c2"/>
   <stop offset=".563" stop-color="#3295c6"/>
   <stop offset=".75" stop-color="#41a0cf"/>
   <stop offset="1" stop-color="#41a0cf"/>
  </linearGradient>
  <linearGradient id="linearGradient4206" x1="15" x2="8" y1="8" y2="1" gradientUnits="userSpaceOnUse">
   <stop offset="0" stop-color="#dfeff7"/>
   <stop offset=".313" stop-color="#d4e9f4"/>
   <stop offset=".563" stop-color="#baddee"/>
   <stop offset=".75" stop-color="#97cbe5"/>
   <stop offset="1" stop-color="#74b9dc"/>
  </linearGradient>
  <linearGradient id="linearGradient4208" x1="15" x2="8" y1="8" y2="15" gradientUnits="userSpaceOnUse">
   <stop offset="0" stop-color="#e4f1f8"/>
   <stop offset=".313" stop-color="#eff7fb"/>
   <stop offset=".563" stop-color="#f4f9fc"/>
   <stop offset=".75" stop-color="#afd7eb"/>
   <stop offset="1" stop-color="#75badd"/>
  </linearGradient>
 </defs>
 <g transform="translate(4,4)">
  <g transform="rotate(15,8,8)">
   <path style="fill:url(#linearGradient4206)" d="M 8,1 V 8 H 15 A 7,7 0 0 0 8,1 Z"/>
   <path style="fill:url(#linearGradient4202)" d="M 8,1 A 7,7 0 0 0 1,8 H 8 Z"/>
   <path style="fill:url(#linearGradient4208)" d="M 8,8 V 15 A 7,7 0 0 0 15,8 Z"/>
   <path style="fill:url(#linearGradient4204)" d="M 1,8 A 7,7 0 0 0 8,15 V 8 Z"/>
  </g>
  <g style="opacity:0.7">
   <path style="fill:url(#linearGradient4206)" d="M 8,1 V 8 H 15 A 7,7 0 0 0 8,1 Z"/>
   <path style="fill:url(#linearGradient4202)" d="M 8,1 A 7,7 0 0 0 1,8 H 8 Z"/>
   <path style="fill:url(#linearGradient4208)" d="M 8,8 V 15 A 7,7 0 0 0 15,8 Z"/>
   <path style="fill:url(#linearGradient4204)" d="M 1,8 A 7,7 0 0 0 8,15 V 8 Z"/>
  </g>
  <g style="opacity:0.35" transform="rotate(45,8,8)">
   <path style="fill:url(#linearGradient4206)" d="M 8,1 V 8 H 15 A 7,7 0 0 0 8,1 Z"/>
   <path style="fill:url(#linearGradient4202)" d="M 8,1 A 7,7 0 0 0 1,8 H 8 Z"/>
   <path style="fill:url(#linearGradient4208)" d="M 8,8 V 15 A 7,7 0 0 0 15,8 Z"/>
   <path style="fill:url(#linearGradient4204)" d="M 1,8 A 7,7 0 0 0 8,15 V 8 Z"/>
  </g>
  <g style="opacity:0.3" transform="rotate(60,8,8)">
   <path style="fill:url(#linearGradient4206)" d="M 8,1 V 8 H 15 A 7,7 0 0 0 8,1 Z"/>
   <path style="fill:url(#linearGradient4202)" d="M 8,1 A 7,7 0 0 0 1,8 H 8 Z"/>
   <path style="fill:url(#linearGradient4208)" d="M 8,8 V 15 A 7,7 0 0 0 15,8 Z"/>
   <path style="fill:url(#linearGradient4204)" d="M 1,8 A 7,7 0 0 0 8,15 V 8 Z"/>
  </g>
 </g>
</svg>
