<svg xmlns="http://www.w3.org/2000/svg" width="24" height="24" version="1.1">
 <defs>
  <style id="current-color-scheme" type="text/css">
   .ColorScheme-Text { color:#ffffff; } .ColorScheme-Highlight { color:#82c1e0; } .ColorScheme-NeutralText { color:#bcddee; } .ColorScheme-PositiveText { color:#a4d1e8; } .ColorScheme-NegativeText { color:#5daed7; }
  </style>
 </defs>
 <g transform="translate(4,4)">
  <path style="fill:currentColor" class="ColorScheme-Text" d="M 12,8 C 12,8 12,7 13,7 14,7 14,8 14,8 Z M 8,2 V 4 A 4,4 0 0 0 4,8 4,4 0 0 0 8,12 4,4 0 0 0 12,8 H 14 A 6,6 0 0 1 8,14 6,6 0 0 1 2,8 6,6 0 0 1 8,2 Z M 8,0 V 6 L 12,3 Z"/>
 </g>
</svg>
