<svg xmlns="http://www.w3.org/2000/svg" width="24" height="24" version="1.1">
 <defs>
  <style id="current-color-scheme" type="text/css">
   .ColorScheme-Text { color:#ffffff; } .ColorScheme-Highlight { color:#82c1e0; } .ColorScheme-NeutralText { color:#bcddee; } .ColorScheme-PositiveText { color:#a4d1e8; } .ColorScheme-NegativeText { color:#5daed7; }
  </style>
 </defs>
 <g transform="translate(4,4)">
  <path style="fill:currentColor" class="ColorScheme-Text" d="M 2,1 0,7 V 14 H 1 V 16 H 3 V 14 H 13 V 16 H 15 V 14 H 16 V 7 L 14,1 Z M 3.441406,3 H 12.558594 L 13.558594,6 H 2.443359 Z M 3.5,9 A 1.5,1.5 0 0 1 5,10.5 1.5,1.5 0 0 1 3.5,12 1.5,1.5 0 0 1 2,10.5 1.5,1.5 0 0 1 3.5,9 Z M 12.5,9 A 1.5,1.5 0 0 1 14,10.5 1.5,1.5 0 0 1 12.5,12 1.5,1.5 0 0 1 11,10.5 1.5,1.5 0 0 1 12.5,9 Z"/>
 </g>
</svg>
