<?xml version="1.0" encoding="UTF-8" standalone="no"?>
<svg
   xmlns:dc="http://purl.org/dc/elements/1.1/"
   xmlns:cc="http://creativecommons.org/ns#"
   xmlns:rdf="http://www.w3.org/1999/02/22-rdf-syntax-ns#"
   xmlns:svg="http://www.w3.org/2000/svg"
   xmlns="http://www.w3.org/2000/svg"
   xmlns:sodipodi="http://sodipodi.sourceforge.net/DTD/sodipodi-0.dtd"
   xmlns:inkscape="http://www.inkscape.org/namespaces/inkscape"
   width="16"
   height="16"
   version="1.1"
   id="svg11"
   sodipodi:docname="bauh-update-tray.svg"
   inkscape:version="0.92.5 (2060ec1f9f, 2020-04-08)">
  <metadata
     id="metadata15">
    <rdf:RDF>
      <cc:Work
         rdf:about="">
        <dc:format>image/svg+xml</dc:format>
        <dc:type
           rdf:resource="http://purl.org/dc/dcmitype/StillImage" />
      </cc:Work>
    </rdf:RDF>
  </metadata>
  <sodipodi:namedview
     pagecolor="#ffffff"
     bordercolor="#666666"
     borderopacity="1"
     objecttolerance="10"
     gridtolerance="10"
     guidetolerance="10"
     inkscape:pageopacity="0"
     inkscape:pageshadow="2"
     inkscape:window-width="640"
     inkscape:window-height="480"
     id="namedview13"
     showgrid="false"
     inkscape:zoom="14.75"
     inkscape:cx="-18.440678"
     inkscape:cy="8"
     inkscape:current-layer="svg11" />
  <defs
     id="defs3">
    <style
       id="current-color-scheme"
       type="text/css">
   .ColorScheme-Text { color:#dfdfdf; } .ColorScheme-Highlight { color:#4285f4; } .ColorScheme-NeutralText { color:#ff9800; } .ColorScheme-PositiveText { color:#4caf50; } .ColorScheme-NegativeText { color:#f44336; }
  </style>
  </defs>
  <path
     style="fill:currentColor"
     class="ColorScheme-Text"
     d="m 31.973689,-27.033178 c -4.4183,0 -8,3.5817 -8,8 0,4.418 3.5817,8 8,8 4.418,0 8,-3.582 8,-8 0,-4.4183 -3.582,-8 -8,-8 z m -1,3 h 2 v 5 h 3 l -4,5 -4,-5 h 3 z"
     id="path5" />
  <path
     style="fill:currentColor"
     class="ColorScheme-Text"
     d="M 3.1015625,2.9867421 1.8886719,3.6859609 C 1.7072932,3.7959973 1.5472053,3.9375824 1.4160156,4.1039296 c -0.00261,0.0026 -0.00521,0.0052 -0.00781,0.00781 -0.058438,0.064977 -0.11197,0.1341859 -0.1601562,0.2070313 -0.03772,0.072528 -0.07035,0.1475885 -0.097656,0.2246094 -0.029353,0.058409 -0.055435,0.1184048 -0.078125,0.1796874 6.484e-4,0.0013 0.0013,0.00261 0.00195,0.00391 C 1.0264951,4.8860938 1.0015096,5.051151 1,5.217211 v 6.009765 c 3.392e-4,0.631858 0.3391034,1.215642 0.8886719,1.53125 l 5.2226561,3.003907 c 0.549812,0.316604 1.227532,0.316604 1.777344,0 l 5.222656,-3.003907 C 14.660897,12.442618 14.999661,11.858833 15,11.226976 V 5.217211 C 14.999679,5.049279 14.975346,4.8822137 14.927734,4.7211171 14.799452,4.284311 14.507041,3.913504 14.111328,3.6859609 l -1.21289,-0.6992188 c 7.82e-4,0.00383 -4.28e-4,0.00786 0,0.011719 A 5,5 0 0 1 13,4.000414 a 5,5 0 0 1 -5,5 5,5 0 0 1 -5,-5 5,5 0 0 1 0.099609,-0.9375 C 3.096489,3.036957 3.096499,3.011501 3.101559,2.986742 Z"
     id="path7" />
  <path
     style="fill:#457697;fill-opacity:1"
     class="ColorScheme-Highlight"
     d="m 8,4.14e-4 c -2.2160002,0 -4,1.784 -4,4 0,2.216 1.7839998,4 4,4 2.216,0 4,-1.784 4,-4 0,-2.216 -1.784,-4 -4,-4 z m 0,1 c 1.656854,0 3,1.3431458 3,3 h 0.8 l -1.3,1.5 -1.3,-1.5 H 10 c 0,-1.1045695 -0.895431,-2 -2,-2 -1.104569,0 -2,0.8954305 -2,2 0,1.10457 0.895431,2 2,2 v 1 c -1.656854,0 -3,-1.343146 -3,-3 0,-1.6568542 1.343146,-3 3,-3 z"
     id="path9" />
</svg>
