<?xml version="1.0" encoding="UTF-8" standalone="no"?>
<svg
   xmlns:dc="http://purl.org/dc/elements/1.1/"
   xmlns:cc="http://creativecommons.org/ns#"
   xmlns:rdf="http://www.w3.org/1999/02/22-rdf-syntax-ns#"
   xmlns:svg="http://www.w3.org/2000/svg"
   xmlns="http://www.w3.org/2000/svg"
   xmlns:sodipodi="http://sodipodi.sourceforge.net/DTD/sodipodi-0.dtd"
   xmlns:inkscape="http://www.inkscape.org/namespaces/inkscape"
   width="16"
   height="16"
   version="1"
   id="svg9"
   sodipodi:docname="indicator-feedindicator-attention.svg"
   inkscape:version="0.92.5 (2060ec1f9f, 2020-04-08)">
  <metadata
     id="metadata13">
    <rdf:RDF>
      <cc:Work
         rdf:about="">
        <dc:format>image/svg+xml</dc:format>
        <dc:type
           rdf:resource="http://purl.org/dc/dcmitype/StillImage" />
      </cc:Work>
    </rdf:RDF>
  </metadata>
  <sodipodi:namedview
     pagecolor="#ffffff"
     bordercolor="#666666"
     borderopacity="1"
     objecttolerance="10"
     gridtolerance="10"
     guidetolerance="10"
     inkscape:pageopacity="0"
     inkscape:pageshadow="2"
     inkscape:window-width="640"
     inkscape:window-height="480"
     id="namedview11"
     showgrid="false"
     inkscape:zoom="14.75"
     inkscape:cx="-5.220339"
     inkscape:cy="8"
     inkscape:current-layer="svg9" />
  <defs
     id="defs3">
    <style
       id="current-color-scheme"
       type="text/css">
   .ColorScheme-Text { color:#dfdfdf; } .ColorScheme-Highlight { color:#4285f4; } .ColorScheme-NeutralText { color:#ff9800; } .ColorScheme-PositiveText { color:#4caf50; } .ColorScheme-NegativeText { color:#f44336; }
  </style>
  </defs>
  <path
     style="fill:currentColor"
     class="ColorScheme-Text"
     d="M 1 1 L 1 3 C 2.1666667 3 5.3734978 3.7051371 8.0546875 5.5703125 C 10.735877 7.4354879 13 10.333333 13 15 L 15 15 C 15 9.6666667 12.264123 6.0645121 9.1953125 3.9296875 C 6.1265022 1.7948629 2.8333333 1 1 1 z M 1 6 L 1 8 C 4.5 8 8 10.533333 8 15 L 10 15 C 10 9.4666667 5.5 6 1 6 z"
     id="path5" />
  <path
     style="fill:#457697;fill-opacity:1"
     class="ColorScheme-Highlight"
     d="m 3,11 c -1.1069652,0 -2,0.895993 -2,2 0,1.104908 0.8930348,2 2,2 1.1043547,0 2,-0.895092 2,-2 -7.201e-4,-1.104007 -0.8956453,-2 -2,-2 z"
     id="path7" />
</svg>
