<?xml version="1.0" encoding="UTF-8" standalone="no"?>
<svg
   xmlns:dc="http://purl.org/dc/elements/1.1/"
   xmlns:cc="http://creativecommons.org/ns#"
   xmlns:rdf="http://www.w3.org/1999/02/22-rdf-syntax-ns#"
   xmlns:svg="http://www.w3.org/2000/svg"
   xmlns="http://www.w3.org/2000/svg"
   xmlns:sodipodi="http://sodipodi.sourceforge.net/DTD/sodipodi-0.dtd"
   xmlns:inkscape="http://www.inkscape.org/namespaces/inkscape"
   width="16"
   height="16"
   version="1.1"
   id="svg11"
   sodipodi:docname="gpm-keyboard-040.svg"
   inkscape:version="0.92.5 (2060ec1f9f, 2020-04-08)">
  <metadata
     id="metadata15">
    <rdf:RDF>
      <cc:Work
         rdf:about="">
        <dc:format>image/svg+xml</dc:format>
        <dc:type
           rdf:resource="http://purl.org/dc/dcmitype/StillImage" />
      </cc:Work>
    </rdf:RDF>
  </metadata>
  <sodipodi:namedview
     pagecolor="#ffffff"
     bordercolor="#666666"
     borderopacity="1"
     objecttolerance="10"
     gridtolerance="10"
     guidetolerance="10"
     inkscape:pageopacity="0"
     inkscape:pageshadow="2"
     inkscape:window-width="640"
     inkscape:window-height="480"
     id="namedview13"
     showgrid="false"
     inkscape:zoom="14.75"
     inkscape:cx="-18.440678"
     inkscape:cy="8"
     inkscape:current-layer="svg11" />
  <defs
     id="defs3">
    <style
       id="current-color-scheme"
       type="text/css">
   .ColorScheme-Text { color:#dfdfdf; } .ColorScheme-Highlight { color:#4285f4; } .ColorScheme-NeutralText { color:#ff9800; } .ColorScheme-PositiveText { color:#4caf50; } .ColorScheme-NegativeText { color:#f44336; }
  </style>
  </defs>
  <path
     style="opacity:.35;fill:currentColor"
     class="ColorScheme-NeutralText"
     d="M 2.5,1 C 2.22,1 2,1.22 2,1.5 V 2 H 0 V 2 14.5 C 0,14.78 0.22,15 0.5,15 H 6.5 C 6.78,15 7,14.78 7,14.5 V 2 H 6.5 5 V 1.5 C 5,1.22 4.78,1 4.5,1 Z"
     id="path5" />
  <path
     style="fill:#ebcb8b;fill-opacity:1"
     class="ColorScheme-NeutralText"
     d="M 0,11 V 14.5 C 0,14.78 0.22,15 0.5,15 H 6.5 C 6.78,15 7,14.78 7,14.5 V 11 Z"
     id="path7" />
  <path
     style="fill:#dfdfdf;fill-rule:evenodd;fill-opacity:1"
     class="ColorScheme-NeutralText"
     d="M 10,2 C 9.45,2 9,2.45 9,3 V 14 C 9,14.55 9.45,15 10,15 H 15 C 15.55,15 16,14.55 16,14 V 3 C 16,2.45 15.55,2 15,2 Z M 10,4 H 11 V 5 H 10 Z M 12,4 H 13 V 5 H 12 Z M 14,5 H 15 V 12 H 14 Z M 10,6 H 11 V 7 H 10 Z M 12,6 H 13 V 7 H 12 Z M 10,8 H 11 V 9 H 10 Z M 12,8 H 13 V 9 H 12 Z M 10,10 H 11 V 11 H 10 Z M 12,10 H 13 V 11 H 12 Z M 10,12 H 11 V 13 H 10 Z M 12,12 H 13 V 13 H 12 Z"
     id="path9" />
</svg>
