<?xml version="1.0" encoding="UTF-8" standalone="no"?>
<svg
   xmlns:dc="http://purl.org/dc/elements/1.1/"
   xmlns:cc="http://creativecommons.org/ns#"
   xmlns:rdf="http://www.w3.org/1999/02/22-rdf-syntax-ns#"
   xmlns:svg="http://www.w3.org/2000/svg"
   xmlns="http://www.w3.org/2000/svg"
   xmlns:sodipodi="http://sodipodi.sourceforge.net/DTD/sodipodi-0.dtd"
   xmlns:inkscape="http://www.inkscape.org/namespaces/inkscape"
   width="16"
   height="16"
   version="1.1"
   id="svg9"
   sodipodi:docname="scc-error.svg"
   inkscape:version="0.92.5 (2060ec1f9f, 2020-04-08)">
  <metadata
     id="metadata13">
    <rdf:RDF>
      <cc:Work
         rdf:about="">
        <dc:format>image/svg+xml</dc:format>
        <dc:type
           rdf:resource="http://purl.org/dc/dcmitype/StillImage" />
      </cc:Work>
    </rdf:RDF>
  </metadata>
  <sodipodi:namedview
     pagecolor="#ffffff"
     bordercolor="#666666"
     borderopacity="1"
     objecttolerance="10"
     gridtolerance="10"
     guidetolerance="10"
     inkscape:pageopacity="0"
     inkscape:pageshadow="2"
     inkscape:window-width="640"
     inkscape:window-height="480"
     id="namedview11"
     showgrid="false"
     inkscape:zoom="14.75"
     inkscape:cx="-5.220339"
     inkscape:cy="8"
     inkscape:current-layer="svg9" />
  <defs
     id="defs3">
    <style
       id="current-color-scheme"
       type="text/css">
   .ColorScheme-Text { color:#dfdfdf; } .ColorScheme-Highlight { color:#4285f4; } .ColorScheme-NeutralText { color:#ff9800; } .ColorScheme-PositiveText { color:#4caf50; } .ColorScheme-NegativeText { color:#f44336; }
  </style>
  </defs>
  <path
     style="opacity:.35;fill:currentColor"
     class="ColorScheme-Text"
     d="M 4,2 C 1.784,2 0,3.8111038 0,6.0605469 L 0.0078125,8 C 0.0069725,8.0308589 0,8.0586803 0,8.0898438 c 0,0.026494 0.0073125,0.051732 0.0078125,0.078125 l 0.02148438,5.1582032 c -0.25174003,1.504365 1.18653122,2.456012 2.39453122,0.810547 L 4.5527344,11 h 6.8945316 l 2.128906,3.136719 c 1.208,1.645465 2.645531,0.693818 2.394531,-0.810547 l 0.02149,-5.1582032 C 15.993169,8.141576 16,8.1163374 16,8.0898438 c 0,-0.024464 -0.0068,-0.04595 -0.0078,-0.070313 L 16,6.0605469 C 16,3.8111038 14.216,2 12,2 Z m 2,1 h 0.7070312 c 0.265199,5.1e-5 0.5195196,0.1054325 0.7070313,0.2929688 L 8,3.8789062 8.5859375,3.2929688 C 8.7734492,3.1054325 9.0277698,3.000051 9.2929688,3 H 10 c 0.552262,5.52e-5 0.999945,0.4477381 1,1 v 0.7070312 c -5.1e-5,0.265199 -0.105433,0.5195196 -0.292969,0.7070313 L 10.121094,6 10.707031,6.5859375 C 10.894567,6.7734492 10.999949,7.0277698 11,7.2929688 V 8 c -5.5e-5,0.5522619 -0.447738,0.9999448 -1,1 H 9.2929688 C 9.0277698,8.999949 8.7734492,8.8945675 8.5859375,8.7070312 L 8,8.1210938 7.4140625,8.7070312 C 7.2265508,8.8945675 6.9722302,8.999949 6.7070312,9 H 6 C 5.4477381,8.9999448 5.0000552,8.5522619 5,8 V 7.2929688 C 5.000051,7.0277698 5.1054325,6.7734492 5.2929688,6.5859375 L 5.8789062,6 5.2929688,5.4140625 C 5.1054325,5.2265508 5.000051,4.9722302 5,4.7070312 V 4 C 5.0000552,3.4477381 5.4477381,3.0000552 6,3 Z"
     id="path5" />
  <path
     style="fill:#bf616a;fill-opacity:1"
     class="ColorScheme-NegativeText"
     d="M 6,4 V 4.7070312 L 7.2929688,6 6,7.2929688 V 8 H 6.7070312 L 8,6.7070312 9.2929688,8 H 10 V 7.2929688 L 8.7070312,6 10,4.7070312 V 4 H 9.2929688 L 8,5.2929688 6.7070312,4 Z"
     id="path7" />
</svg>
