<?xml version="1.0" encoding="UTF-8" standalone="no"?>
<svg
   xmlns:dc="http://purl.org/dc/elements/1.1/"
   xmlns:cc="http://creativecommons.org/ns#"
   xmlns:rdf="http://www.w3.org/1999/02/22-rdf-syntax-ns#"
   xmlns:svg="http://www.w3.org/2000/svg"
   xmlns="http://www.w3.org/2000/svg"
   xmlns:sodipodi="http://sodipodi.sourceforge.net/DTD/sodipodi-0.dtd"
   xmlns:inkscape="http://www.inkscape.org/namespaces/inkscape"
   width="16"
   height="16"
   version="1.1"
   id="svg9"
   sodipodi:docname="slack-indicator-unread.svg"
   inkscape:version="0.92.5 (2060ec1f9f, 2020-04-08)">
  <metadata
     id="metadata13">
    <rdf:RDF>
      <cc:Work
         rdf:about="">
        <dc:format>image/svg+xml</dc:format>
        <dc:type
           rdf:resource="http://purl.org/dc/dcmitype/StillImage" />
      </cc:Work>
    </rdf:RDF>
  </metadata>
  <sodipodi:namedview
     pagecolor="#ffffff"
     bordercolor="#666666"
     borderopacity="1"
     objecttolerance="10"
     gridtolerance="10"
     guidetolerance="10"
     inkscape:pageopacity="0"
     inkscape:pageshadow="2"
     inkscape:window-width="640"
     inkscape:window-height="480"
     id="namedview11"
     showgrid="false"
     inkscape:zoom="14.75"
     inkscape:cx="-5.220339"
     inkscape:cy="8"
     inkscape:current-layer="svg9" />
  <defs
     id="defs3">
    <style
       id="current-color-scheme"
       type="text/css">
   .ColorScheme-Text { color:#dfdfdf; } .ColorScheme-Highlight { color:#4285f4; } .ColorScheme-NeutralText { color:#ff9800; } .ColorScheme-PositiveText { color:#4caf50; } .ColorScheme-NegativeText { color:#f44336; }
  </style>
  </defs>
  <circle
     style="fill:#457697;fill-opacity:1"
     class="ColorScheme-Highlight"
     cx="13"
     cy="2"
     r="2"
     id="circle5" />
  <path
     style="fill:currentColor"
     class="ColorScheme-Text"
     d="M 5.5,0 A 1.5,1.5 0 0 0 4,1.5 1.5,1.5 0 0 0 5.5,3 H 7 V 1.5 A 1.5,1.5 0 0 0 5.5,0 Z M 9.5,0 A 1.5,1.5 0 0 0 8,1.5 V 5.5 A 1.5,1.5 0 0 0 9.5,7 1.5,1.5 0 0 0 11,5.5 V 4.2324 A 3,3 0 0 1 10,2 3,3 0 0 1 10.484,0.37109 1.5,1.5 0 0 0 9.5,0 Z M 1.5,4 A 1.5,1.5 0 0 0 0,5.5 1.5,1.5 0 0 0 1.5,7 H 5.5 A 1.5,1.5 0 0 0 7,5.5 1.5,1.5 0 0 0 5.5,4 Z M 14.631,4.5156 A 3,3 0 0 1 13,5 3,3 0 0 1 12.141,4.873 1.5,1.5 0 0 0 12,5.5 V 7 H 13.5 A 1.5,1.5 0 0 0 15,5.5 1.5,1.5 0 0 0 14.631,4.5156 Z M 1.5,8 A 1.5,1.5 0 0 0 0,9.5 1.5,1.5 0 0 0 1.5,11 1.5,1.5 0 0 0 3,9.5 V 8 Z M 5.5,8 A 1.5,1.5 0 0 0 4,9.5 V 13.5 A 1.5,1.5 0 0 0 5.5,15 1.5,1.5 0 0 0 7,13.5 V 9.5 A 1.5,1.5 0 0 0 5.5,8 Z M 9.5,8 A 1.5,1.5 0 0 0 8,9.5 1.5,1.5 0 0 0 9.5,11 H 13.5 A 1.5,1.5 0 0 0 15,9.5 1.5,1.5 0 0 0 13.5,8 Z M 8,12 V 13.5 A 1.5,1.5 0 0 0 9.5,15 1.5,1.5 0 0 0 11,13.5 1.5,1.5 0 0 0 9.5,12 Z"
     id="path7" />
</svg>
