<svg xmlns="http://www.w3.org/2000/svg" width="16" height="16" version="1.1">
 <defs>
  <style id="current-color-scheme" type="text/css">
   .ColorScheme-Text { color:#cfefd8; } .ColorScheme-Highlight { color:#3fbd61; } .ColorScheme-NeutralText { color:#73d08c; } .ColorScheme-PositiveText { color:#5dc97a; } .ColorScheme-NegativeText { color:#339b4f; }
  </style>
 </defs>
 <path style="fill:currentColor" class="ColorScheme-Text" d="M 6,1 A 2,2 0 0 0 4,3 2,2 0 0 0 6,5 2,2 0 0 0 8,3 2,2 0 0 0 6,1 Z M 6,6 A 2,2 0 0 0 4,8 2,2 0 0 0 6,10 2,2 0 0 0 8,8 2,2 0 0 0 6,6 Z m 5,0 a 2,2 0 0 0 -2,2 2,2 0 0 0 2,2 2,2 0 0 0 2,-2 2,2 0 0 0 -2,-2 z m -5,5 a 2,2 0 0 0 -2,2 2,2 0 0 0 2,2 2,2 0 0 0 2,-2 2,2 0 0 0 -2,-2 z"/>
</svg>
