<?xml version="1.0" encoding="UTF-8" standalone="no"?>
<svg
   xmlns:dc="http://purl.org/dc/elements/1.1/"
   xmlns:cc="http://creativecommons.org/ns#"
   xmlns:rdf="http://www.w3.org/1999/02/22-rdf-syntax-ns#"
   xmlns:svg="http://www.w3.org/2000/svg"
   xmlns="http://www.w3.org/2000/svg"
   xmlns:sodipodi="http://sodipodi.sourceforge.net/DTD/sodipodi-0.dtd"
   xmlns:inkscape="http://www.inkscape.org/namespaces/inkscape"
   width="48"
   height="48"
   version="1"
   id="svg16"
   sodipodi:docname="folder-grey-books.svg"
   inkscape:version="0.92.5 (2060ec1f9f, 2020-04-08)">
  <metadata
     id="metadata22">
    <rdf:RDF>
      <cc:Work
         rdf:about="">
        <dc:format>image/svg+xml</dc:format>
        <dc:type
           rdf:resource="http://purl.org/dc/dcmitype/StillImage" />
        <dc:title></dc:title>
      </cc:Work>
    </rdf:RDF>
  </metadata>
  <defs
     id="defs20" />
  <sodipodi:namedview
     pagecolor="#000000"
     bordercolor="#666666"
     borderopacity="1"
     objecttolerance="10"
     gridtolerance="10"
     guidetolerance="10"
     inkscape:pageopacity="0"
     inkscape:pageshadow="2"
     inkscape:window-width="640"
     inkscape:window-height="480"
     id="namedview18"
     showgrid="false"
     inkscape:pagecheckerboard="true"
     inkscape:zoom="13.906433"
     inkscape:cx="30.180161"
     inkscape:cy="24"
     inkscape:current-layer="svg16" />
  <rect
     style="opacity:0.2"
     width="40"
     height="26"
     x="4"
     y="17"
     rx="2"
     ry="2"
     id="rect2" />
  <path
     style="fill:#4c566a;fill-opacity:1"
     d="M 4,34 C 4,35.108 4.892,36 6,36 H 42 C 43.108,36 44,35.108 44,34 V 12 C 44,10.892 43.108,10 42,10 H 24 C 21,10 20,6 17,6 H 6 C 4.892,6 4,6.892 4,8"
     id="path4" />
  <rect
     style="opacity:0.2"
     width="40"
     height="26"
     x="4"
     y="15"
     rx="2"
     ry="2"
     id="rect6" />
  <rect
     style="fill:#9ea2aa;fill-opacity:0.78431374"
     width="36"
     height="16"
     x="6"
     y="13"
     rx="2"
     ry="2"
     id="rect8" />
  <rect
     style="fill:#4c566a;fill-opacity:1"
     width="40"
     height="26"
     x="4"
     y="16"
     rx="2"
     ry="2"
     id="rect10" />
  <path
     style="opacity:0.1;fill:#ffffff"
     d="M 6,6 C 4.892,6 4,6.892 4,8 V 9 C 4,7.892 4.892,7 6,7 H 17 C 20,7 21,11 24,11 H 42 C 43.108,11 44,11.892 44,13 V 12 C 44,10.892 43.108,10 42,10 H 24 C 21,10 20,6 17,6 Z"
     id="path12" />
  <path
     style="fill:#9ea2aa;fill-opacity:0.78431374"
     d="m19 23c-2 0-3 1-3 1v7s1-1 3-1 4 2 4 2v-7s-2-2-4-2zm10 0c-2 0-4 2-4 2v7s2-2 4-2 3 1 3 1v-7s-1-1-3-1zm-10 8c-2 0-3 1-3 1v2s1-1 3-1 4 2 4 2v-2s-2-2-4-2zm10 0c-2 0-4.005064 1.992688-4 2v2s2-2 4-2 3 1 3 1v-2s-1-1-3-1z"
     id="path14" />
</svg>
