<?xml version="1.0" encoding="UTF-8" standalone="no"?>
<svg
   xmlns:dc="http://purl.org/dc/elements/1.1/"
   xmlns:cc="http://creativecommons.org/ns#"
   xmlns:rdf="http://www.w3.org/1999/02/22-rdf-syntax-ns#"
   xmlns:svg="http://www.w3.org/2000/svg"
   xmlns="http://www.w3.org/2000/svg"
   xmlns:sodipodi="http://sodipodi.sourceforge.net/DTD/sodipodi-0.dtd"
   xmlns:inkscape="http://www.inkscape.org/namespaces/inkscape"
   width="48"
   height="48"
   version="1"
   id="svg28"
   sodipodi:docname="folder-grey-syncthing.svg"
   inkscape:version="0.92.5 (2060ec1f9f, 2020-04-08)">
  <metadata
     id="metadata34">
    <rdf:RDF>
      <cc:Work
         rdf:about="">
        <dc:format>image/svg+xml</dc:format>
        <dc:type
           rdf:resource="http://purl.org/dc/dcmitype/StillImage" />
      </cc:Work>
    </rdf:RDF>
  </metadata>
  <defs
     id="defs32" />
  <sodipodi:namedview
     pagecolor="#ffffff"
     bordercolor="#666666"
     borderopacity="1"
     objecttolerance="10"
     gridtolerance="10"
     guidetolerance="10"
     inkscape:pageopacity="0"
     inkscape:pageshadow="2"
     inkscape:window-width="640"
     inkscape:window-height="480"
     id="namedview30"
     showgrid="false"
     inkscape:zoom="9.8333333"
     inkscape:cx="12.813559"
     inkscape:cy="24"
     inkscape:current-layer="svg28" />
  <rect
     style="opacity:0.2"
     width="40"
     height="26"
     x="4"
     y="17"
     rx="2"
     ry="2"
     id="rect2" />
  <path
     style="fill:#4c566a;fill-opacity:1"
     d="M 4,34 C 4,35.108 4.892,36 6,36 H 42 C 43.108,36 44,35.108 44,34 V 12 C 44,10.892 43.108,10 42,10 H 24 C 21,10 20,6 17,6 H 6 C 4.892,6 4,6.892 4,8"
     id="path4" />
  <rect
     style="opacity:0.2"
     width="40"
     height="26"
     x="4"
     y="15"
     rx="2"
     ry="2"
     id="rect6" />
  <rect
     style="fill:#9ea2aa;fill-opacity:0.78431374"
     width="36"
     height="16"
     x="6"
     y="13"
     rx="2"
     ry="2"
     id="rect8" />
  <rect
     style="fill:#4c566a;fill-opacity:1"
     width="40"
     height="26"
     x="4"
     y="16"
     rx="2"
     ry="2"
     id="rect10" />
  <path
     style="fill:#9ea2aa;fill-opacity:0.78431374"
     d="M 24 21 C 19.581722 21.000001 16 24.581722 16 29 C 16 33.418278 19.581722 36.999999 24 37 C 28.418278 37 32 33.418278 32 29 C 32 24.581722 28.418278 21 24 21 z M 24 22 C 27.865993 22 31 25.134006 31 29 C 31 32.865993 27.865993 36 24 36 C 20.134006 35.999999 17 32.865993 17 29 C 17 25.134006 20.134006 22.000001 24 22 z"
     id="path12" />
  <path
     style="opacity:0.1;fill:#ffffff"
     d="M 6,6 C 4.892,6 4,6.892 4,8 V 9 C 4,7.892 4.892,7 6,7 H 17 C 20,7 21,11 24,11 H 42 C 43.108,11 44,11.892 44,13 V 12 C 44,10.892 43.108,10 42,10 H 24 C 21,10 20,6 17,6 Z"
     id="path14" />
  <path
     fill="none"
     stroke-width="1.143"
     style="stroke:#9ea2aa;fill:none;fill-opacity:0.78431374;stroke-opacity:0.78431374"
     d="m 17,31 9,-2 5,-3"
     id="path16" />
  <path
     fill="none"
     stroke-width="1.143"
     style="stroke:#9ea2aa;stroke-opacity:0.78431374"
     d="M 30,34 26,29"
     id="path18" />
  <circle
     style="fill:#9ea2aa;fill-opacity:0.78431374"
     cx="30"
     cy="34"
     r="2"
     id="circle20" />
  <circle
     style="fill:#9ea2aa;fill-opacity:0.78431374"
     cx="31"
     cy="26"
     r="2"
     id="circle22" />
  <circle
     style="fill:#9ea2aa;fill-opacity:0.78431374"
     cx="26"
     cy="29"
     r="2"
     id="circle24" />
  <circle
     style="fill:#9ea2aa;fill-opacity:0.78431374"
     cx="17"
     cy="31"
     r="2"
     id="circle26" />
</svg>
