<?xml version="1.0" encoding="UTF-8" standalone="no"?>
<svg
   xmlns:dc="http://purl.org/dc/elements/1.1/"
   xmlns:cc="http://creativecommons.org/ns#"
   xmlns:rdf="http://www.w3.org/1999/02/22-rdf-syntax-ns#"
   xmlns:svg="http://www.w3.org/2000/svg"
   xmlns="http://www.w3.org/2000/svg"
   xmlns:sodipodi="http://sodipodi.sourceforge.net/DTD/sodipodi-0.dtd"
   xmlns:inkscape="http://www.inkscape.org/namespaces/inkscape"
   width="48"
   height="48"
   version="1"
   id="svg16"
   sodipodi:docname="folder-backup.svg"
   inkscape:version="0.92.5 (2060ec1f9f, 2020-04-08)">
  <metadata
     id="metadata22">
    <rdf:RDF>
      <cc:Work
         rdf:about="">
        <dc:format>image/svg+xml</dc:format>
        <dc:type
           rdf:resource="http://purl.org/dc/dcmitype/StillImage" />
      </cc:Work>
    </rdf:RDF>
  </metadata>
  <defs
     id="defs20" />
  <sodipodi:namedview
     pagecolor="#ffffff"
     bordercolor="#666666"
     borderopacity="1"
     objecttolerance="10"
     gridtolerance="10"
     guidetolerance="10"
     inkscape:pageopacity="0"
     inkscape:pageshadow="2"
     inkscape:window-width="640"
     inkscape:window-height="480"
     id="namedview18"
     showgrid="false"
     inkscape:zoom="4.9166667"
     inkscape:cx="-15.661017"
     inkscape:cy="24"
     inkscape:current-layer="svg16" />
  <rect
     style="opacity:0.2"
     width="40"
     height="26"
     x="4"
     y="17"
     rx="2"
     ry="2"
     id="rect2" />
  <path
     style="fill:#4c566a;fill-opacity:1"
     d="M 4,34 C 4,35.108 4.892,36 6,36 H 42 C 43.108,36 44,35.108 44,34 V 12 C 44,10.892 43.108,10 42,10 H 24 C 21,10 20,6 17,6 H 6 C 4.892,6 4,6.892 4,8"
     id="path4" />
  <rect
     style="opacity:0.2"
     width="40"
     height="26"
     x="4"
     y="15"
     rx="2"
     ry="2"
     id="rect6" />
  <rect
     style="fill:#9ea2aa;fill-opacity:0.78431374"
     width="36"
     height="16"
     x="6"
     y="13"
     rx="2"
     ry="2"
     id="rect8" />
  <rect
     style="fill:#4c566a;fill-opacity:1"
     width="40"
     height="26"
     x="4"
     y="16"
     rx="2"
     ry="2"
     id="rect10" />
  <path
     style="opacity:0.1;fill:#ffffff"
     d="M 6,6 C 4.892,6 4,6.892 4,8 V 9 C 4,7.892 4.892,7 6,7 H 17 C 20,7 21,11 24,11 H 42 C 43.108,11 44,11.892 44,13 V 12 C 44,10.892 43.108,10 42,10 H 24 C 21,10 20,6 17,6 Z"
     id="path12" />
  <path
     style="fill:#9ea2aa;fill-opacity:0.78431374"
     d="m24.464794 22.015626c-0.75501-0.05084-1.52681 0.02146-2.28711 0.226563-3.0412 0.820392-5.166593 3.58253-5.177734 6.732421a1.0001 1.0001 0 0 0 0.002 0.02539h-1.00195l2 2 2-2h-1a1.0001 1.0001 0 0 0 0 -0.01758c0.008-2.258041 1.517139-4.222437 3.697266-4.810547 2.180126-0.58811 4.472713 0.351145 5.615234 2.298828 1.142521 1.947684 0.842814 4.405532-0.734375 6.021485-1.53625 1.574006-4.08172 1.748333-6.09375 0.632812a1.0001221 1.0001221 0 1 0 -0.96875 1.75c2.717652 1.506737 6.253078 1.309813 8.494141-0.986328 2.200122-2.254196 2.62112-5.712738 1.027343-8.429688-1.195332-2.037712-3.307237-3.290847-5.572265-3.443359zm-0.480469 2.970703a1.0001 1.0001 0 0 0 -0.984375 1.013672v2.863281a1.0001 1.0001 0 0 0 0.06445 0.498047 1.0001 1.0001 0 0 0 0.332031 0.449219l1.896485 1.896484a1.0001 1.0001 0 1 0 1.414062 -1.414062l-1.707031-1.707031v-2.585938a1.0001 1.0001 0 0 0 -1.015625 -1.013672z"
     id="path14" />
</svg>
