<?xml version="1.0" encoding="UTF-8" standalone="no"?>
<svg
   xmlns:dc="http://purl.org/dc/elements/1.1/"
   xmlns:cc="http://creativecommons.org/ns#"
   xmlns:rdf="http://www.w3.org/1999/02/22-rdf-syntax-ns#"
   xmlns:svg="http://www.w3.org/2000/svg"
   xmlns="http://www.w3.org/2000/svg"
   xmlns:sodipodi="http://sodipodi.sourceforge.net/DTD/sodipodi-0.dtd"
   xmlns:inkscape="http://www.inkscape.org/namespaces/inkscape"
   width="48"
   height="48"
   version="1"
   id="svg16"
   sodipodi:docname="folder-grey-development.svg"
   inkscape:version="0.92.5 (2060ec1f9f, 2020-04-08)">
  <metadata
     id="metadata22">
    <rdf:RDF>
      <cc:Work
         rdf:about="">
        <dc:format>image/svg+xml</dc:format>
        <dc:type
           rdf:resource="http://purl.org/dc/dcmitype/StillImage" />
      </cc:Work>
    </rdf:RDF>
  </metadata>
  <defs
     id="defs20" />
  <sodipodi:namedview
     pagecolor="#ffffff"
     bordercolor="#666666"
     borderopacity="1"
     objecttolerance="10"
     gridtolerance="10"
     guidetolerance="10"
     inkscape:pageopacity="0"
     inkscape:pageshadow="2"
     inkscape:window-width="640"
     inkscape:window-height="480"
     id="namedview18"
     showgrid="false"
     inkscape:zoom="4.9166667"
     inkscape:cx="-15.661017"
     inkscape:cy="24"
     inkscape:current-layer="svg16" />
  <rect
     style="opacity:0.2"
     width="40"
     height="26"
     x="4"
     y="17"
     rx="2"
     ry="2"
     id="rect2" />
  <path
     style="fill:#4c566a;fill-opacity:1"
     d="M 4,34 C 4,35.108 4.892,36 6,36 H 42 C 43.108,36 44,35.108 44,34 V 12 C 44,10.892 43.108,10 42,10 H 24 C 21,10 20,6 17,6 H 6 C 4.892,6 4,6.892 4,8"
     id="path4" />
  <rect
     style="opacity:0.2"
     width="40"
     height="26"
     x="4"
     y="15"
     rx="2"
     ry="2"
     id="rect6" />
  <rect
     style="fill:#9ea2aa;fill-opacity:0.78431374"
     width="36"
     height="16"
     x="6"
     y="13"
     rx="2"
     ry="2"
     id="rect8" />
  <rect
     style="fill:#4c566a;fill-opacity:1"
     width="40"
     height="26"
     x="4"
     y="16"
     rx="2"
     ry="2"
     id="rect10" />
  <path
     style="opacity:0.1;fill:#ffffff"
     d="M 6,6 C 4.892,6 4,6.892 4,8 V 9 C 4,7.892 4.892,7 6,7 H 17 C 20,7 21,11 24,11 H 42 C 43.108,11 44,11.892 44,13 V 12 C 44,10.892 43.108,10 42,10 H 24 C 21,10 20,6 17,6 Z"
     id="path12" />
  <path
     style="fill:#9ea2aa;fill-opacity:0.78431374"
     d="M 22.251,22 22.096,23.845 C 21.512,24.061 20.968,24.376 20.489,24.774 L 18.812,23.984 17.062,27.016 18.583,28.072 C 18.529,28.378 18.501,28.689 18.499,29 18.499,29.312 18.526,29.624 18.579,29.932 L 17.062,30.984 18.812,34.015 20.484,33.228 C 20.965,33.625 21.51,33.938 22.095,34.152 L 22.25,36 H 25.75 L 25.905,34.156 C 26.489,33.94 27.033,33.625 27.512,33.227 L 29.188,34.016 30.938,30.984 29.416,29.928 C 29.47,29.622 29.499,29.312 29.501,29.001 29.501,28.689 29.473,28.377 29.42,28.069 L 30.938,27.016 29.188,23.985 27.516,24.772 C 27.035,24.375 26.49,24.063 25.905,23.849 L 25.751,22 Z M 24.001,27.001 C 25.106,27.001 26.001,27.896 26.001,29.001 26.001,30.106 25.106,31.001 24.001,31.001 22.896,31.001 22.001,30.106 22.001,29.001 22.001,27.896 22.896,27.001 24.001,27.001 Z"
     id="path14" />
</svg>
