<?xml version="1.0" encoding="UTF-8" standalone="no"?>
<svg
   xmlns:dc="http://purl.org/dc/elements/1.1/"
   xmlns:cc="http://creativecommons.org/ns#"
   xmlns:rdf="http://www.w3.org/1999/02/22-rdf-syntax-ns#"
   xmlns:svg="http://www.w3.org/2000/svg"
   xmlns="http://www.w3.org/2000/svg"
   xmlns:sodipodi="http://sodipodi.sourceforge.net/DTD/sodipodi-0.dtd"
   xmlns:inkscape="http://www.inkscape.org/namespaces/inkscape"
   width="48"
   height="48"
   version="1"
   id="svg20"
   sodipodi:docname="folder-kde.svg"
   inkscape:version="0.92.5 (2060ec1f9f, 2020-04-08)">
  <metadata
     id="metadata26">
    <rdf:RDF>
      <cc:Work
         rdf:about="">
        <dc:format>image/svg+xml</dc:format>
        <dc:type
           rdf:resource="http://purl.org/dc/dcmitype/StillImage" />
      </cc:Work>
    </rdf:RDF>
  </metadata>
  <defs
     id="defs24" />
  <sodipodi:namedview
     pagecolor="#ffffff"
     bordercolor="#666666"
     borderopacity="1"
     objecttolerance="10"
     gridtolerance="10"
     guidetolerance="10"
     inkscape:pageopacity="0"
     inkscape:pageshadow="2"
     inkscape:window-width="640"
     inkscape:window-height="480"
     id="namedview22"
     showgrid="false"
     inkscape:zoom="4.9166667"
     inkscape:cx="-15.661017"
     inkscape:cy="24"
     inkscape:current-layer="svg20" />
  <rect
     style="opacity:0.2"
     width="40"
     height="26"
     x="4"
     y="17"
     rx="2"
     ry="2"
     id="rect2" />
  <path
     style="fill:#4c566a;fill-opacity:1"
     d="M 4,34 C 4,35.108 4.892,36 6,36 H 42 C 43.108,36 44,35.108 44,34 V 12 C 44,10.892 43.108,10 42,10 H 24 C 21,10 20,6 17,6 H 6 C 4.892,6 4,6.892 4,8"
     id="path4" />
  <rect
     style="opacity:0.2"
     width="40"
     height="26"
     x="4"
     y="15"
     rx="2"
     ry="2"
     id="rect6" />
  <rect
     style="fill:#9ea2aa;fill-opacity:0.78431374"
     width="36"
     height="16"
     x="6"
     y="13"
     rx="2"
     ry="2"
     id="rect8" />
  <rect
     style="fill:#4c566a;fill-opacity:1"
     width="40"
     height="26"
     x="4"
     y="16"
     rx="2"
     ry="2"
     id="rect10" />
  <path
     style="opacity:0.1;fill:#ffffff"
     d="M 6,6 C 4.892,6 4,6.892 4,8 V 9 C 4,7.892 4.892,7 6,7 H 17 C 20,7 21,11 24,11 H 42 C 43.108,11 44,11.892 44,13 V 12 C 44,10.892 43.108,10 42,10 H 24 C 21,10 20,6 17,6 Z"
     id="path12" />
  <g
     transform="translate(16,21)"
     id="g18"
     style="fill:#9ea2aa;fill-opacity:0.78431374">
    <path
       style="fill:#9ea2aa;fill-opacity:0.78431374"
       d="m9.0056 1.00002-2.0056 0.3989v8.5128l1.9944-0.3116v-3.6l2.8056 4 2.1886-1.00012-2.9886-3.39988 3.0114-3.6-2.2114-1.00014-2.8056 4.20014v-4.20014z"
       id="path14" />
    <path
       style="fill:#9ea2aa;fill-opacity:0.78431374"
       d="m4.28125 4.2011719c-0.0246 3e-3 -0.051712 0.00874-0.070312 0.027344l-0.8535161 0.847656c-0.035792 0.0357-0.039984 0.089612-0.013672 0.1328125l0.9082031 1.4882812c-0.213336 0.346448-0.3789944 0.72368-0.4902343 1.125l-1.6738281 0.3457032c-0.05084 0.0104-0.0878906 0.0593281-0.0878906 0.1113281v1.1972656c0 0.0507 0.038572 0.093769 0.087891 0.1054687l1.6230469 0.390625c0.102124 0.4515198 0.2747303 0.8766718 0.5039063 1.2636718l-0.9453126 1.429688c-0.02868 0.0435-0.023316 0.101771 0.013672 0.138672l0.8535157 0.847656c0.036 0.0357 0.091566 0.03977 0.1347656 0.01367l1.4765625-0.890625c0.36468 0.217976 0.7624668 0.384786 1.1855469 0.490234l0.3457031 1.646484c0.0107995 0.050802 0.0530682 0.087893 0.1054682 0.087893h1.2070313c0.0504 0 0.093469-0.03313 0.1054687-0.08203l0.4101563-1.658203c0.42644-0.110472 0.8235331-0.288804 1.1894531-0.513672l1.482422 0.964844c0.0438 0.0282 0.101472 0.02263 0.138672-0.01367l0.849609-0.845704c0.036-0.0357 0.04398-0.09186 0.01758-0.134765l-0.580078-0.947266-0.189453 0.05859c-0.0276 0.0084-0.05802-0.0036-0.07422-0.02734 0 0-0.179449-0.244084-0.322265-0.4375-0.05957-0.09064-0.550829-0.687764-0.890625-1.121093a3 3 0 0 1-2.728517 1.757809 3 3 0 0 1-3-3 3 3 0 0 1 1.4003906-2.5351562v-1.5898438c-0.22315 0.082948-0.3698787 0.1843413-0.5742187 0.3007812l-1.4765625-0.9589843c-0.0219-0.0144-0.044059-0.018025-0.068359-0.015625z"
       id="path16" />
  </g>
</svg>
