<svg xmlns="http://www.w3.org/2000/svg" width="18" height="18" version="1.1">
 <defs>
  <style id="current-color-scheme" type="text/css">
   .ColorScheme-Text { color:#ffffff; } .ColorScheme-Highlight { color:#82c1e0; } .ColorScheme-NeutralText { color:#bcddee; } .ColorScheme-PositiveText { color:#a4d1e8; } .ColorScheme-NegativeText { color:#5daed7; }
  </style>
 </defs>
 <path style="opacity:.35;fill:currentColor" class="ColorScheme-Text" d="M 9,4 A 5,5 0 0 0 4,9 5,5 0 0 0 9,14 5,5 0 0 0 14,9 5,5 0 0 0 9,4 Z"/>
 <path style="opacity:0.7;fill:currentColor" class="ColorScheme-Text" d="M 9,4 A 5,5 0 0 0 4,9 5,5 0 0 0 9,14 5,5 0 0 0 14,9 5,5 0 0 0 9,4 Z M 9,5 A 4,4 0 0 1 13,9 4,4 0 0 1 9,13 4,4 0 0 1 5,9 4,4 0 0 1 9,5 Z"/>
</svg>
