<?xml version="1.0" encoding="UTF-8" standalone="no"?>
<svg
   xmlns:dc="http://purl.org/dc/elements/1.1/"
   xmlns:cc="http://creativecommons.org/ns#"
   xmlns:rdf="http://www.w3.org/1999/02/22-rdf-syntax-ns#"
   xmlns:svg="http://www.w3.org/2000/svg"
   xmlns="http://www.w3.org/2000/svg"
   xmlns:sodipodi="http://sodipodi.sourceforge.net/DTD/sodipodi-0.dtd"
   xmlns:inkscape="http://www.inkscape.org/namespaces/inkscape"
   width="84"
   height="84"
   version="1"
   id="svg56"
   sodipodi:docname="dcc_nav_keyboard.svg"
   inkscape:version="0.92.5 (2060ec1f9f, 2020-04-08)">
  <metadata
     id="metadata62">
    <rdf:RDF>
      <cc:Work
         rdf:about="">
        <dc:format>image/svg+xml</dc:format>
        <dc:type
           rdf:resource="http://purl.org/dc/dcmitype/StillImage" />
      </cc:Work>
    </rdf:RDF>
  </metadata>
  <defs
     id="defs60" />
  <sodipodi:namedview
     pagecolor="#ffffff"
     bordercolor="#666666"
     borderopacity="1"
     objecttolerance="10"
     gridtolerance="10"
     guidetolerance="10"
     inkscape:pageopacity="0"
     inkscape:pageshadow="2"
     inkscape:window-width="783"
     inkscape:window-height="480"
     id="namedview58"
     showgrid="false"
     inkscape:zoom="2.8095238"
     inkscape:cx="42"
     inkscape:cy="42"
     inkscape:window-x="0"
     inkscape:window-y="28"
     inkscape:window-maximized="0"
     inkscape:current-layer="svg56" />
  <path
     opacity=".2"
     d="m 2,65 v 2 c 0,2.216 1.784,4 4,4 h 72 c 2.216,0 4,-1.784 4,-4 v -2 c 0,2.216 -1.784,4 -4,4 H 6 C 3.784,69 2,67.216 2,65 Z"
     id="path2" />
  <rect
     fill="#4f4f4f"
     width="56"
     height="80"
     x="-70"
     y="-82"
     rx="4"
     ry="4"
     transform="matrix(0,-1,-1,0,0,0)"
     id="rect4"
     style="fill:#4c566a;fill-opacity:1" />
  <path
     opacity=".2"
     d="m 22,47 a 4,4 0 0 1 -4,4 4,4 0 0 1 -4,-4 4,4 0 0 1 4,-4 4,4 0 0 1 4,4 z"
     id="path6" />
  <path
     opacity=".2"
     d="m 34,47 a 4,4 0 0 1 -4,4 4,4 0 0 1 -4,-4 4,4 0 0 1 4,-4 4,4 0 0 1 4,4 z"
     id="path8" />
  <path
     opacity=".2"
     d="m 46,47 a 4,4 0 0 1 -4,4 4,4 0 0 1 -4,-4 4,4 0 0 1 4,-4 4,4 0 0 1 4,4 z"
     id="path10" />
  <path
     opacity=".2"
     d="m 58,47 a 4,4 0 0 1 -4,4 4,4 0 0 1 -4,-4 4,4 0 0 1 4,-4 4,4 0 0 1 4,4 z"
     id="path12" />
  <path
     opacity=".2"
     d="m 70,47 a 4,4 0 0 1 -4,4 4,4 0 0 1 -4,-4 4,4 0 0 1 4,-4 4,4 0 0 1 4,4 z"
     id="path14" />
  <path
     opacity=".2"
     d="m 64,31 a 4,4 0 0 1 -4,4 4,4 0 0 1 -4,-4 4,4 0 0 1 4,-4 4,4 0 0 1 4,4 z"
     id="path16" />
  <path
     opacity=".2"
     d="m 28,31 a 4,4 0 0 1 -4,4 4,4 0 0 1 -4,-4 4,4 0 0 1 4,-4 4,4 0 0 1 4,4 z"
     id="path18" />
  <path
     opacity=".2"
     d="m 16,31 a 4,4 0 0 1 -4,4 4,4 0 0 1 -4,-4 4,4 0 0 1 4,-4 4,4 0 0 1 4,4 z"
     id="path20" />
  <path
     opacity=".2"
     d="m 40,31 a 4,4 0 0 1 -4,4 4,4 0 0 1 -4,-4 4,4 0 0 1 4,-4 4,4 0 0 1 4,4 z"
     id="path22" />
  <path
     opacity=".2"
     d="m 52,31 a 4,4 0 0 1 -4,4 4,4 0 0 1 -4,-4 4,4 0 0 1 4,-4 4,4 0 0 1 4,4 z"
     id="path24" />
  <path
     opacity=".2"
     d="m 76,31 a 4,4 0 0 1 -4,4 4,4 0 0 1 -4,-4 4,4 0 0 1 4,-4 4,4 0 0 1 4,4 z"
     id="path26" />
  <rect
     opacity=".2"
     width="60"
     height="8"
     x="12"
     y="57"
     rx="2"
     ry="2"
     id="rect28" />
  <rect
     fill="#e4e4e4"
     width="60"
     height="8"
     x="12"
     y="56"
     rx="2"
     ry="2"
     id="rect30" />
  <path
     fill="#e4e4e4"
     d="m 22,46 a 4,4 0 0 1 -4,4 4,4 0 0 1 -4,-4 4,4 0 0 1 4,-4 4,4 0 0 1 4,4 z"
     id="path32" />
  <path
     fill="#e4e4e4"
     d="m 34,46 a 4,4 0 0 1 -4,4 4,4 0 0 1 -4,-4 4,4 0 0 1 4,-4 4,4 0 0 1 4,4 z"
     id="path34" />
  <path
     fill="#e4e4e4"
     d="m 46,46 a 4,4 0 0 1 -4,4 4,4 0 0 1 -4,-4 4,4 0 0 1 4,-4 4,4 0 0 1 4,4 z"
     id="path36" />
  <path
     fill="#e4e4e4"
     d="m 58,46 a 4,4 0 0 1 -4,4 4,4 0 0 1 -4,-4 4,4 0 0 1 4,-4 4,4 0 0 1 4,4 z"
     id="path38" />
  <path
     fill="#e4e4e4"
     d="m 70,46 a 4,4 0 0 1 -4,4 4,4 0 0 1 -4,-4 4,4 0 0 1 4,-4 4,4 0 0 1 4,4 z"
     id="path40" />
  <path
     fill="#e4e4e4"
     d="m 64,30 a 4,4 0 0 1 -4,4 4,4 0 0 1 -4,-4 4,4 0 0 1 4,-4 4,4 0 0 1 4,4 z"
     id="path42" />
  <path
     fill="#e4e4e4"
     d="m 28,30 a 4,4 0 0 1 -4,4 4,4 0 0 1 -4,-4 4,4 0 0 1 4,-4 4,4 0 0 1 4,4 z"
     id="path44" />
  <path
     fill="#e4e4e4"
     d="m 16,30 a 4,4 0 0 1 -4,4 4,4 0 0 1 -4,-4 4,4 0 0 1 4,-4 4,4 0 0 1 4,4 z"
     id="path46" />
  <path
     fill="#e4e4e4"
     d="m 40,30 a 4,4 0 0 1 -4,4 4,4 0 0 1 -4,-4 4,4 0 0 1 4,-4 4,4 0 0 1 4,4 z"
     id="path48" />
  <path
     fill="#e4e4e4"
     d="m 52,30 a 4,4 0 0 1 -4,4 4,4 0 0 1 -4,-4 4,4 0 0 1 4,-4 4,4 0 0 1 4,4 z"
     id="path50" />
  <path
     fill="#e4e4e4"
     d="m 76,30 a 4,4 0 0 1 -4,4 4,4 0 0 1 -4,-4 4,4 0 0 1 4,-4 4,4 0 0 1 4,4 z"
     id="path52" />
  <path
     style="fill:#ffffff;opacity:0.1"
     d="M 6 14 C 3.784 14 2 15.784 2 18 L 2 19 C 2 16.784 3.784 15 6 15 L 78 15 C 80.216 15 82 16.784 82 19 L 82 18 C 82 15.784 80.216 14 78 14 L 6 14 z"
     id="path54" />
</svg>
