<?xml version="1.0" encoding="UTF-8" standalone="no"?>
<svg
   xmlns:dc="http://purl.org/dc/elements/1.1/"
   xmlns:cc="http://creativecommons.org/ns#"
   xmlns:rdf="http://www.w3.org/1999/02/22-rdf-syntax-ns#"
   xmlns:svg="http://www.w3.org/2000/svg"
   xmlns="http://www.w3.org/2000/svg"
   xmlns:sodipodi="http://sodipodi.sourceforge.net/DTD/sodipodi-0.dtd"
   xmlns:inkscape="http://www.inkscape.org/namespaces/inkscape"
   width="84"
   height="84"
   version="1.1"
   id="svg28"
   sodipodi:docname="dcc_nav_datetime.svg"
   inkscape:version="0.92.5 (2060ec1f9f, 2020-04-08)">
  <metadata
     id="metadata34">
    <rdf:RDF>
      <cc:Work
         rdf:about="">
        <dc:format>image/svg+xml</dc:format>
        <dc:type
           rdf:resource="http://purl.org/dc/dcmitype/StillImage" />
      </cc:Work>
    </rdf:RDF>
  </metadata>
  <defs
     id="defs32" />
  <sodipodi:namedview
     pagecolor="#ffffff"
     bordercolor="#666666"
     borderopacity="1"
     objecttolerance="10"
     gridtolerance="10"
     guidetolerance="10"
     inkscape:pageopacity="0"
     inkscape:pageshadow="2"
     inkscape:window-width="783"
     inkscape:window-height="480"
     id="namedview30"
     showgrid="false"
     inkscape:zoom="2.8095238"
     inkscape:cx="42"
     inkscape:cy="42"
     inkscape:window-x="0"
     inkscape:window-y="28"
     inkscape:window-maximized="0"
     inkscape:current-layer="svg28" />
  <path
     style="opacity:0.2"
     d="M 42,3.0000008 C 19.929386,3.0000008 2,20.92938 2,43 2,65.07062 19.929386,83.000006 42,83 64.070614,83 82.00002,65.07062 82,43 82,20.92938 64.070614,3.0000008 42,3.0000008 Z"
     id="path2" />
  <path
     style="fill:#5f697d;fill-opacity:1"
     d="M 42,2.0000008 C 19.929386,2.0000008 2,19.92938 2,42 2,64.07062 19.929386,82.000006 42,82 64.070614,82 82.00002,64.07062 82,42 82,19.92938 64.070614,2.0000008 42,2.0000008 Z"
     id="path4" />
  <path
     style="opacity:0.2;fill:#ffffff"
     d="M 42 2 C 19.929386 2 2 19.92938 2 42 C 2 42.17504 2.0065947 42.348032 2.0117188 42.521484 C 2.2698172 20.671838 20.089854 3 42 3 C 63.910146 3 81.730183 20.671838 81.988281 42.521484 C 81.993404 42.348032 82 42.17504 82 42 C 82 19.92938 64.070614 2 42 2 z"
     id="path6" />
  <path
     style="opacity:0.2"
     d="M 42.000002,11 C 24.343504,11 10,25.343502 10,42.999998 10,60.656496 24.343504,75.000004 42.000002,75 59.656496,75 74.000012,60.656496 74,42.999998 74,25.343502 59.656496,11 42.000002,11 Z"
     id="path8" />
  <path
     style="fill:#4c566a;fill-opacity:1"
     d="M 42.000002,10 C 24.343504,10 10,24.343502 10,41.999998 10,59.656496 24.343504,74.000004 42.000002,74 59.656496,74 74.000012,59.656496 74,41.999998 74,24.343502 59.656496,10 42.000002,10 Z"
     id="path10" />
  <path
     style="font-variation-settings:normal;inline-size:0;opacity:0.1;stop-color:#000000"
     d="m 52.925782,20.999688 a 3,3 0 0 0 -2.523438,1.496094 l -11,19 a 3,3 0 0 0 -0.300782,0.714844 l -21.996094,11 a 2,2 0 0 0 -0.89453,2.683594 2,2 0 0 0 2.683594,0.89453 l 22,-11 a 3,3 0 0 0 3.703124,-1.285156 l 11,-19 a 3,3 0 0 0 -1.09375,-4.101562 3,3 0 0 0 -1.578124,-0.402344 z"
     id="path12" />
  <path
     style="font-variation-settings:normal;inline-size:0;fill:#ffffff;stop-color:#000000;fill-opacity:1"
     d="m 42.679688,41.265624 -1.359376,1.468752 23.488282,21.679686 c 0.46715,-0.475312 0.90676,-0.976894 1.34375,-1.480468 z"
     id="path14" />
  <path
     style="fill:none;stroke:#ffffff;stroke-width:4;stroke-linecap:round;stroke-linejoin:round;stroke-opacity:1"
     d="M 18,54 42,42"
     id="path16" />
  <path
     style="fill:none;stroke:#efefef;stroke-width:6;stroke-linecap:round;stroke-linejoin:round;stroke-opacity:1"
     d="M 42,42 53,23"
     id="path18" />
  <circle
     style="opacity:0.1"
     cx="42"
     cy="43"
     r="6"
     id="circle20" />
  <circle
     style="fill:#4f4f4f"
     cx="42"
     cy="42"
     r="6"
     id="circle22" />
  <circle
     style="opacity:0.1"
     cx="42"
     cy="43"
     r="4"
     id="circle24" />
  <circle
     style="fill:#ffffff"
     cx="42"
     cy="42"
     r="4"
     id="circle26" />
</svg>
