<?xml version="1.0" encoding="UTF-8" standalone="no"?>
<svg
   xmlns:dc="http://purl.org/dc/elements/1.1/"
   xmlns:cc="http://creativecommons.org/ns#"
   xmlns:rdf="http://www.w3.org/1999/02/22-rdf-syntax-ns#"
   xmlns:svg="http://www.w3.org/2000/svg"
   xmlns="http://www.w3.org/2000/svg"
   xmlns:sodipodi="http://sodipodi.sourceforge.net/DTD/sodipodi-0.dtd"
   xmlns:inkscape="http://www.inkscape.org/namespaces/inkscape"
   width="84"
   height="84"
   version="1"
   id="svg24"
   sodipodi:docname="dcc_nav_network.svg"
   inkscape:version="0.92.5 (2060ec1f9f, 2020-04-08)">
  <metadata
     id="metadata30">
    <rdf:RDF>
      <cc:Work
         rdf:about="">
        <dc:format>image/svg+xml</dc:format>
        <dc:type
           rdf:resource="http://purl.org/dc/dcmitype/StillImage" />
      </cc:Work>
    </rdf:RDF>
  </metadata>
  <defs
     id="defs28" />
  <sodipodi:namedview
     pagecolor="#ffffff"
     bordercolor="#666666"
     borderopacity="1"
     objecttolerance="10"
     gridtolerance="10"
     guidetolerance="10"
     inkscape:pageopacity="0"
     inkscape:pageshadow="2"
     inkscape:window-width="954"
     inkscape:window-height="500"
     id="namedview26"
     showgrid="false"
     inkscape:zoom="2.8095238"
     inkscape:cx="29.542373"
     inkscape:cy="42"
     inkscape:window-x="0"
     inkscape:window-y="28"
     inkscape:window-maximized="0"
     inkscape:current-layer="svg24" />
  <path
     style="opacity:0.2"
     d="M 26,77 18,69 H 8 C 4.676,69 2,66.324 2,63 V 15 C 2,11.676 4.676,9 8,9 h 68 c 3.324,0 6,2.676 6,6 v 48 c 0,3.324 -2.676,6 -6,6 H 66 l -8,8 z"
     id="path2" />
  <path
     style="fill:#4c566a;fill-opacity:1"
     d="M 26,76 18,68 H 8 C 4.676,68 2,65.324 2,62 V 14 C 2,10.676 4.676,8 8,8 h 68 c 3.324,0 6,2.676 6,6 v 48 c 0,3.324 -2.676,6 -6,6 H 66 l -8,8 z"
     id="path4" />
  <path
     style="opacity:0.6"
     d="M 34,64 25,56 H 14 V 20 H 70 V 56 H 58 l -8,8 z"
     id="path6" />
  <g
     style="fill:#fffefd;fill-opacity:1"
     transform="matrix(2,0,0,-2,-6,-6)"
     id="g18">
    <rect
       width="2"
       height="3"
       x="15"
       y="-16"
       id="rect8"
       style="fill:#fffefd;fill-opacity:1" />
    <rect
       width="2"
       height="3"
       x="19"
       y="-16"
       id="rect10"
       style="fill:#fffefd;fill-opacity:1" />
    <rect
       width="2"
       height="3"
       x="23"
       y="-16"
       id="rect12"
       style="fill:#fffefd;fill-opacity:1" />
    <rect
       width="2"
       height="3"
       x="27"
       y="-16"
       id="rect14"
       style="fill:#fffefd;fill-opacity:1" />
    <rect
       width="2"
       height="3"
       x="31"
       y="-16"
       id="rect16"
       style="fill:#fffefd;fill-opacity:1" />
  </g>
  <path
     style="opacity:0.2;fill:#ffffff"
     d="M 8 8 C 4.676 8 2 10.676 2 14 L 2 15 C 2 11.676 4.676 9 8 9 L 76 9 C 79.324 9 82 11.676 82 15 L 82 14 C 82 10.676 79.324 8 76 8 L 8 8 z"
     id="path20" />
  <path
     style="opacity:0.2;fill:#ffffff"
     d="M 14 56 L 14 57 L 25 57 L 34 65 L 50 65 L 58 57 L 70 57 L 70 56 L 58 56 L 50 64 L 34 64 L 25 56 L 14 56 z"
     id="path22" />
</svg>
