<?xml version="1.0" encoding="UTF-8" standalone="no"?>
<svg
   xmlns:dc="http://purl.org/dc/elements/1.1/"
   xmlns:cc="http://creativecommons.org/ns#"
   xmlns:rdf="http://www.w3.org/1999/02/22-rdf-syntax-ns#"
   xmlns:svg="http://www.w3.org/2000/svg"
   xmlns="http://www.w3.org/2000/svg"
   xmlns:sodipodi="http://sodipodi.sourceforge.net/DTD/sodipodi-0.dtd"
   xmlns:inkscape="http://www.inkscape.org/namespaces/inkscape"
   width="84"
   height="84"
   version="1"
   id="svg10"
   sodipodi:docname="dcc_nav_power.svg"
   inkscape:version="0.92.5 (2060ec1f9f, 2020-04-08)">
  <metadata
     id="metadata16">
    <rdf:RDF>
      <cc:Work
         rdf:about="">
        <dc:format>image/svg+xml</dc:format>
        <dc:type
           rdf:resource="http://purl.org/dc/dcmitype/StillImage" />
      </cc:Work>
    </rdf:RDF>
  </metadata>
  <defs
     id="defs14" />
  <sodipodi:namedview
     pagecolor="#ffffff"
     bordercolor="#666666"
     borderopacity="1"
     objecttolerance="10"
     gridtolerance="10"
     guidetolerance="10"
     inkscape:pageopacity="0"
     inkscape:pageshadow="2"
     inkscape:window-width="783"
     inkscape:window-height="480"
     id="namedview12"
     showgrid="false"
     inkscape:zoom="2.8095238"
     inkscape:cx="42"
     inkscape:cy="42"
     inkscape:window-x="0"
     inkscape:window-y="28"
     inkscape:window-maximized="0"
     inkscape:current-layer="svg10" />
  <path
     opacity=".2"
     d="m 2.0234002,42 c -0.0082,0.334 -0.0234,0.664 -0.0234,1 C 2.0000002,65.16 19.84,83 42,83 64.16,83 82,65.16 82,43 82,42.664 81.984,42.334 81.976,42 81.448,63.692 63.824,81 42,81 20.176,81 2.5520002,63.692 2.0240002,42 Z"
     id="path2" />
  <path
     fill="#fecd38"
     d="M 42,2 C 19.84,2 2.0000002,19.84 2.0000002,42 2.0000002,64.16 19.84,82 42,82 64.16,82 82,64.16 82,42 82,19.84 64.16,2 42,2 Z"
     id="path4"
     style="fill:#4c566a;fill-opacity:1" />
  <path
     style="fill:#ffffff;opacity:0.2"
     d="M 42 2 C 19.84197 2 2.0039063 19.84 2.0039062 42 C 2.0039062 42.336 1.9959062 42.666 2.0039062 43 C 2.0039063 20.84 19.84197 3 42 3 C 64.15803 3 81.996094 20.84 81.996094 43 C 82.004094 42.666 81.996094 42.336 81.996094 42 C 81.996094 19.84 64.15803 2 42 2 z"
     id="path6" />
  <path
     fill="#3f3f3f"
     d="M 42,18 V 36 H 60 L 42,66 V 48 H 24 Z"
     id="path8"
     style="fill:#ffffff;fill-opacity:1" />
</svg>
