<?xml version="1.0" encoding="UTF-8" standalone="no"?>
<svg
   xmlns:dc="http://purl.org/dc/elements/1.1/"
   xmlns:cc="http://creativecommons.org/ns#"
   xmlns:rdf="http://www.w3.org/1999/02/22-rdf-syntax-ns#"
   xmlns:svg="http://www.w3.org/2000/svg"
   xmlns="http://www.w3.org/2000/svg"
   xmlns:sodipodi="http://sodipodi.sourceforge.net/DTD/sodipodi-0.dtd"
   xmlns:inkscape="http://www.inkscape.org/namespaces/inkscape"
   width="84"
   height="84"
   version="1.1"
   id="svg12"
   sodipodi:docname="dcc_nav_notification.svg"
   inkscape:version="0.92.5 (2060ec1f9f, 2020-04-08)">
  <metadata
     id="metadata18">
    <rdf:RDF>
      <cc:Work
         rdf:about="">
        <dc:format>image/svg+xml</dc:format>
        <dc:type
           rdf:resource="http://purl.org/dc/dcmitype/StillImage" />
      </cc:Work>
    </rdf:RDF>
  </metadata>
  <defs
     id="defs16" />
  <sodipodi:namedview
     pagecolor="#ffffff"
     bordercolor="#666666"
     borderopacity="1"
     objecttolerance="10"
     gridtolerance="10"
     guidetolerance="10"
     inkscape:pageopacity="0"
     inkscape:pageshadow="2"
     inkscape:window-width="783"
     inkscape:window-height="480"
     id="namedview14"
     showgrid="false"
     inkscape:zoom="2.8095238"
     inkscape:cx="42"
     inkscape:cy="42"
     inkscape:window-x="0"
     inkscape:window-y="28"
     inkscape:window-maximized="0"
     inkscape:current-layer="svg12" />
  <path
     opacity=".2"
     d="M 28.00028,72.999818 C 30.068327,77.633923 35.522451,81 42.000598,81 48.478746,81 53.93287,77.633923 56.000917,72.999818 H 54.81289 c -2.578059,3.564081 -7.316167,6.000137 -12.812292,6.000137 -5.496125,0 -10.234233,-2.436056 -12.812291,-6.000137 z"
     id="path2" />
  <path
     style="fill:#4c566a;fill-opacity:1"
     d="m 28.00028,71.999773 c 2.068447,4.633505 7.522571,8.000182 14.000318,8.000182 6.477748,0 11.931872,-3.366677 14.000319,-8.000182 z"
     id="path4" />
  <path
     opacity=".2"
     d="m 2.1714925,68.639719 c -0.6414146,2.772063 0.9124208,4.360099 7.4337691,4.360099 H 74.394735 c 6.522149,0 8.076184,-1.588036 7.434169,-4.360099 -0.562012,1.524034 -2.682061,2.360054 -7.434169,2.360054 H 9.6052616 c -4.7521081,0 -6.8733563,-0.83602 -7.4349691,-2.360054 z"
     id="path6" />
  <path
     style="fill:#4c566a;fill-opacity:1"
     d="m 11.629708,43.151116 c 0,16.626378 -20.2464609,28.848657 -2.0246464,28.848657 H 74.394535 c 18.222415,0 -2.024046,-12.222279 -2.024046,-28.848657 0,-18.546422 -8.098184,-39.1528905 -30.370691,-39.1528905 -22.272506,0 -30.37069,20.6064685 -30.37069,39.1528905 z"
     id="path8" />
  <path
     style="opacity:0.2;fill:#ffffff"
     d="M 42 3.9980469 C 19.727494 3.9980469 11.626953 24.603969 11.626953 43.150391 C 11.627919 55.022124 1.3255637 64.641539 2.0546875 69.175781 C 2.6865766 64.316395 11.627853 55.213602 11.626953 44.152344 C 11.626953 25.605922 19.727494 4.9980469 42 4.9980469 L 42.001953 4.9980469 C 64.27446 4.9980469 72.375 25.605922 72.375 44.152344 C 72.375 55.213602 81.315449 64.316395 81.947266 69.175781 C 82.676298 64.641539 72.375 55.022124 72.375 43.150391 C 72.375 24.603969 64.27446 3.9980469 42.001953 3.9980469 L 42 3.9980469 z"
     id="path10" />
</svg>
