<?xml version="1.0" encoding="UTF-8" standalone="no"?>
<svg
   xmlns:dc="http://purl.org/dc/elements/1.1/"
   xmlns:cc="http://creativecommons.org/ns#"
   xmlns:rdf="http://www.w3.org/1999/02/22-rdf-syntax-ns#"
   xmlns:svg="http://www.w3.org/2000/svg"
   xmlns="http://www.w3.org/2000/svg"
   xmlns:sodipodi="http://sodipodi.sourceforge.net/DTD/sodipodi-0.dtd"
   xmlns:inkscape="http://www.inkscape.org/namespaces/inkscape"
   width="84"
   height="84"
   version="1"
   id="svg16"
   sodipodi:docname="dcc_nav_systeminfo.svg"
   inkscape:version="0.92.5 (2060ec1f9f, 2020-04-08)">
  <metadata
     id="metadata22">
    <rdf:RDF>
      <cc:Work
         rdf:about="">
        <dc:format>image/svg+xml</dc:format>
        <dc:type
           rdf:resource="http://purl.org/dc/dcmitype/StillImage" />
      </cc:Work>
    </rdf:RDF>
  </metadata>
  <defs
     id="defs20" />
  <sodipodi:namedview
     pagecolor="#ffffff"
     bordercolor="#666666"
     borderopacity="1"
     objecttolerance="10"
     gridtolerance="10"
     guidetolerance="10"
     inkscape:pageopacity="0"
     inkscape:pageshadow="2"
     inkscape:window-width="783"
     inkscape:window-height="480"
     id="namedview18"
     showgrid="false"
     inkscape:zoom="2.8095238"
     inkscape:cx="42"
     inkscape:cy="42"
     inkscape:window-x="0"
     inkscape:window-y="28"
     inkscape:window-maximized="0"
     inkscape:current-layer="svg16" />
  <path
     opacity=".2"
     d="M 6,83 C 3.784,83 2,81.216 2,79 v -2 c 0,2.216 1.784,4 4,4 h 72 c 2.216,0 4,-1.784 4,-4 v 2 c 0,2.216 -1.784,4 -4,4 z"
     id="path2" />
  <rect
     fill="#37a0f2"
     width="80"
     height="80"
     x="2"
     y="2"
     rx="4"
     ry="4"
     id="rect4"
     style="fill:#4c566a;fill-opacity:1" />
  <g
     opacity=".2"
     transform="matrix(4,0,0,-4,-2170,-1345)"
     id="g8">
    <path
       d="m 552,-354 v 10 h 2 v -10 z m 0,12 v 2 h 2 v -2 z"
       id="path6" />
  </g>
  <g
     fill="#ffffff"
     transform="matrix(4,0,0,-4,-2170,-1346)"
     id="g12">
    <path
       d="m 552,-354 v 10 h 2 v -10 z m 0,12 v 2 h 2 v -2 z"
       id="path10" />
  </g>
  <path
     style="fill:#ffffff;opacity:0.2"
     d="M 6 2 C 3.784 2 2 3.784 2 6 L 2 7 C 2 4.784 3.784 3 6 3 L 78 3 C 80.216 3 82 4.784 82 7 L 82 6 C 82 3.784 80.216 2 78 2 L 6 2 z"
     id="path14" />
</svg>
