<?xml version="1.0" encoding="UTF-8" standalone="no"?>
<svg
   xmlns:dc="http://purl.org/dc/elements/1.1/"
   xmlns:cc="http://creativecommons.org/ns#"
   xmlns:rdf="http://www.w3.org/1999/02/22-rdf-syntax-ns#"
   xmlns:svg="http://www.w3.org/2000/svg"
   xmlns="http://www.w3.org/2000/svg"
   xmlns:sodipodi="http://sodipodi.sourceforge.net/DTD/sodipodi-0.dtd"
   xmlns:inkscape="http://www.inkscape.org/namespaces/inkscape"
   width="84"
   height="84"
   version="1.1"
   id="svg16"
   sodipodi:docname="dcc_nav_display.svg"
   inkscape:version="0.92.5 (2060ec1f9f, 2020-04-08)">
  <metadata
     id="metadata22">
    <rdf:RDF>
      <cc:Work
         rdf:about="">
        <dc:format>image/svg+xml</dc:format>
        <dc:type
           rdf:resource="http://purl.org/dc/dcmitype/StillImage" />
      </cc:Work>
    </rdf:RDF>
  </metadata>
  <defs
     id="defs20" />
  <sodipodi:namedview
     pagecolor="#ffffff"
     bordercolor="#666666"
     borderopacity="1"
     objecttolerance="10"
     gridtolerance="10"
     guidetolerance="10"
     inkscape:pageopacity="0"
     inkscape:pageshadow="2"
     inkscape:window-width="783"
     inkscape:window-height="480"
     id="namedview18"
     showgrid="false"
     inkscape:zoom="2.8095238"
     inkscape:cx="42"
     inkscape:cy="42"
     inkscape:window-x="0"
     inkscape:window-y="28"
     inkscape:window-maximized="0"
     inkscape:current-layer="svg16" />
  <rect
     style="opacity:0.2"
     width="48"
     height="64"
     x="18"
     y="15"
     rx="4"
     ry="4"
     id="rect2" />
  <rect
     style="fill:#8e8e8e"
     width="48"
     height="64"
     x="18"
     y="14"
     rx="4"
     ry="4"
     id="rect4" />
  <rect
     style="opacity:0.2"
     width="80"
     height="64"
     x="2"
     y="7"
     rx="4"
     ry="4"
     id="rect6" />
  <path
     style="fill:#5f697d;fill-opacity:1"
     d="m 2,62 v 4 c 0,2.216 1.784,4 4,4 h 72 c 2.216,0 4,-1.784 4,-4 v -4 z"
     id="path8" />
  <path
     style="fill:#4c566a;fill-opacity:1"
     d="M 6,6 C 3.784,6 2,7.784 2,10 V 62 H 82 V 10 C 82,7.784 80.216,6 78,6 Z"
     id="path10" />
  <path
     style="opacity:0.1;fill:#ffffff"
     d="M 6 6 C 3.784 6 2 7.784 2 10 L 2 11 C 2 8.784 3.784 7 6 7 L 78 7 C 80.216 7 82 8.784 82 11 L 82 10 C 82 7.784 80.216 6 78 6 L 6 6 z"
     id="path12" />
  <rect
     style="opacity:0.1;fill:#ffffff"
     width="80"
     height="1"
     x="2"
     y="62"
     id="rect14" />
</svg>
