<?xml version="1.0" encoding="UTF-8" standalone="no"?>
<svg
   xmlns:dc="http://purl.org/dc/elements/1.1/"
   xmlns:cc="http://creativecommons.org/ns#"
   xmlns:rdf="http://www.w3.org/1999/02/22-rdf-syntax-ns#"
   xmlns:svg="http://www.w3.org/2000/svg"
   xmlns="http://www.w3.org/2000/svg"
   xmlns:sodipodi="http://sodipodi.sourceforge.net/DTD/sodipodi-0.dtd"
   xmlns:inkscape="http://www.inkscape.org/namespaces/inkscape"
   width="84"
   height="84"
   version="1.1"
   id="svg16"
   sodipodi:docname="dcc_nav_cloudsync.svg"
   inkscape:version="0.92.5 (2060ec1f9f, 2020-04-08)">
  <metadata
     id="metadata22">
    <rdf:RDF>
      <cc:Work
         rdf:about="">
        <dc:format>image/svg+xml</dc:format>
        <dc:type
           rdf:resource="http://purl.org/dc/dcmitype/StillImage" />
      </cc:Work>
    </rdf:RDF>
  </metadata>
  <defs
     id="defs20" />
  <sodipodi:namedview
     pagecolor="#ffffff"
     bordercolor="#666666"
     borderopacity="1"
     objecttolerance="10"
     gridtolerance="10"
     guidetolerance="10"
     inkscape:pageopacity="0"
     inkscape:pageshadow="2"
     inkscape:window-width="783"
     inkscape:window-height="480"
     id="namedview18"
     showgrid="false"
     inkscape:zoom="2.8095238"
     inkscape:cx="42"
     inkscape:cy="42"
     inkscape:window-x="0"
     inkscape:window-y="28"
     inkscape:window-maximized="0"
     inkscape:current-layer="svg16" />
  <path
     style="opacity:0.2"
     d="M 50,13.000002 A 20,20 0 0 0 31.710938,24.937502 14,14 0 0 0 22,21.000002 a 14,14 0 0 0 -13.9999998,14 14,14 0 0 0 1.1992188,5.625 18,18 0 0 0 -7.1992188,14.375 A 18,18 0 0 0 19,72.94922 V 73 h 1 40 1 V 72.96484 A 22,22 0 0 0 82,51.000002 22,22 0 0 0 69.925782,31.394534 20,20 0 0 0 50,13.000002 Z"
     id="path2" />
  <circle
     style="fill:#4c566a;fill-opacity:1"
     cx="50"
     cy="32"
     r="20"
     id="circle4" />
  <circle
     style="fill:#4c566a;fill-opacity:1"
     cx="20"
     cy="54"
     r="18"
     id="circle6" />
  <circle
     style="fill:#4c566a;fill-opacity:1"
     cx="22"
     cy="34"
     r="14"
     id="circle8" />
  <circle
     style="fill:#4c566a;fill-opacity:1"
     cx="60"
     cy="50"
     r="22"
     id="circle10" />
  <rect
     style="fill:#4c566a;fill-opacity:1"
     width="42"
     height="40"
     x="19"
     y="32"
     id="rect12" />
  <path
     style="fill:#ffffff;opacity:0.2"
     d="M 50,12 C 42.082486,12.006867 34.914362,16.683761 31.71875,23.927734 29.110044,21.409318 25.625984,20.001271 22,20 14.268014,20 8,26.268014 8,34 c 0.015045,0.172198 0.033277,0.344102 0.054687,0.515625 C 8.3150165,26.994591 14.474503,21.024893 22,21 c 3.625984,0.0013 7.110044,1.409318 9.71875,3.927734 C 34.914362,17.683761 42.082486,13.006867 50,13 c 10.414004,0.0022 19.08355,7.995427 19.929688,18.375 7.22978,3.675279 11.851104,11.030218 12.02539,19.138672 C 81.972058,50.342629 81.987033,50.171394 82,50 81.997496,41.706082 77.330744,34.118455 69.929688,30.375 69.08355,19.995427 60.414004,12.00218 50,12 Z M 8.953125,39.880859 C 4.5916807,43.270979 2.028399,48.476025 2,54 c 0.014003,0.16493 0.030281,0.32966 0.048828,0.494141 C 2.2106407,49.033976 4.8432096,43.942714 9.2050781,40.654297 9.11362,40.398979 9.0296002,40.141058 8.953125,39.880859 Z"
     id="path14" />
</svg>
