<svg xmlns="http://www.w3.org/2000/svg" width="22" height="22" version="1.1">
 <defs>
  <style id="current-color-scheme" type="text/css">
   .ColorScheme-Text { color:#ffffff; } .ColorScheme-Highlight { color:#82c1e0; } .ColorScheme-NeutralText { color:#bcddee; } .ColorScheme-PositiveText { color:#a4d1e8; } .ColorScheme-NegativeText { color:#5daed7; }
  </style>
 </defs>
 <g transform="translate(3,3)">
  <path style="fill:currentColor" class="ColorScheme-Text" d="M 1 2 C 0.446 2 0 2.446 0 3 L 0 4 L 16 4 L 16 3 C 16 2.446 15.554 2 15 2 L 1 2 z M 0 6 L 0 12 C 0 12.554 0.446 13 1 13 L 15 13 C 15.554 13 16 12.554 16 12 L 16 6 L 0 6 z M 1 11 L 5 11 L 5 12 L 1 12 L 1 11 z M 6 11 L 8 11 L 8 12 L 6 12 L 6 11 z"/>
 </g>
</svg>
