<?xml version="1.0" encoding="UTF-8" standalone="no"?>
<svg xmlns="http://www.w3.org/2000/svg" width="48" height="48" version="1">

<!-- Inserted by Color Manager -->
<rect fill="#000000" x="0" y="0" width="48" height="48" rx="24.0" ry="24.0"/>
<!-- Inserted by Color Manager -->

<ellipse style="opacity:1;fill:#ffffff;fill-opacity:1;fill-rule:evenodd;stroke:none;stroke-width:1.69949102;stroke-linecap:round;stroke-linejoin:round;stroke-miterlimit:4;stroke-dasharray:none;stroke-opacity:1;paint-order:normal" cx="23.978405" cy="24.247948" rx="6.3492336" ry="6.2025518" />

<path style="opacity:1;fill:#a544c9;fill-opacity:1;fill-rule:evenodd;stroke:#000000;stroke-width:0;stroke-linecap:round;stroke-linejoin:round;stroke-miterlimit:4;stroke-dasharray:none;stroke-opacity:1;paint-order:normal"
d="m 11.563912,13.336559 c 0,-0.01694 0.184349,-0.397927 0.409665,-0.846631 1.644536,-3.2750056 3.988548,-5.9255238 6.24252,-7.0587985 2.107491,-1.0596256 3.930014,-0.8995644 5.809815,0.5102412 0.633338,0.4749888 1.792807,1.5394643 1.737303,1.594969 -0.01945,0.01945 -0.618043,0.153116 -1.330204,0.2970352 -3.911133,0.7903914 -7.320928,2.5493031 -8.997212,4.6411281 l -0.436223,0.544362 -0.99758,0.05964 c -0.548669,0.0328 -1.321693,0.111215 -1.717832,0.17425 -0.396138,0.06303 -0.720252,0.100747 -0.720252,0.0838 z"/>

<path style="opacity:1;fill:#a544c9;fill-opacity:1;fill-rule:evenodd;stroke:#000000;stroke-width:0;stroke-linecap:round;stroke-linejoin:round;stroke-miterlimit:4;stroke-dasharray:none;stroke-opacity:1;paint-order:normal"
d="m 9.9767435,25.167288 c -0.6683131,-2.185207 -0.6410026,-4.630574 0.084997,-7.610556 0.385207,-1.581144 1.070511,-3.494018 1.274308,-3.556954 0.267824,-0.08271 1.725628,-0.28859 2.259436,-0.319094 0.327381,-0.01871 0.701331,-0.04739 0.830998,-0.06373 l 0.23576,-0.02971 -0.197804,0.391585 c -0.272484,0.539425 -0.479488,1.169484 -0.588229,1.790397 -0.185189,1.05743 -0.07361,3.097749 0.254777,4.658866 l 0.145634,0.692322 -0.417949,0.368174 c -1.16445,1.025772 -2.494103,2.53145 -3.272513,3.705742 -0.212309,0.320284 -0.394347,0.582334 -0.404531,0.582334 -0.01018,0 -0.102381,-0.274219 -0.204881,-0.609375 z"/>

<path style="opacity:1;fill:#a544c9;fill-opacity:1;fill-rule:evenodd;stroke:#000000;stroke-width:0;stroke-linecap:round;stroke-linejoin:round;stroke-miterlimit:4;stroke-dasharray:none;stroke-opacity:1;paint-order:normal"
d="M 15.596973,30.157339 C 14.311192,29.69102 12.900632,28.975531 12.174584,28.421376 11.609999,27.990457 11.236529,27.58109 10.8003,26.914999 l -0.339187,-0.517914 0.483227,-0.725617 c 0.73666,-1.106173 1.391919,-1.892204 2.48156,-2.976811 l 0.992842,-0.988256 0.275285,0.809455 c 0.328961,0.967284 0.837579,2.123181 1.265117,2.875135 l 0.311398,0.547686 -0.03298,1.215868 c -0.02976,1.097064 0.05701,2.912841 0.150887,3.157476 0.05057,0.131775 -0.06262,0.109655 -0.791475,-0.154682 z"/>

<path style="opacity:1;fill:#a544c9;fill-opacity:1;fill-rule:evenodd;stroke:#000000;stroke-width:0;stroke-linecap:round;stroke-linejoin:round;stroke-miterlimit:4;stroke-dasharray:none;stroke-opacity:1;paint-order:normal"
d="m 19.690723,31.081517 c -0.574509,-0.05439 -2.067666,-0.313435 -2.477431,-0.429806 -0.205354,-0.05832 -0.231218,-0.09027 -0.266429,-0.329193 -0.101107,-0.686038 -0.159305,-1.6033 -0.160777,-2.534021 l -0.0016,-1.019416 0.551503,0.738166 c 0.917202,1.227641 1.873365,2.226851 3.231141,3.376609 l 0.311106,0.263443 -0.3125,-0.0063 c -0.171875,-0.0034 -0.565625,-0.03023 -0.875,-0.05952 z"/>

<path style="opacity:1;fill:#03a9f4;fill-opacity:1;fill-rule:evenodd;stroke:#000000;stroke-width:0;stroke-linecap:round;stroke-linejoin:round;stroke-miterlimit:4;stroke-dasharray:none;stroke-opacity:1;paint-order:normal"
d="M 16.177215,24.619526 C 15.854558,23.988378 15.416986,22.922655 15.153913,22.12723 l -0.249897,-0.755583 0.205854,-0.173595 c 0.565929,-0.477243 2.880368,-1.923958 2.956358,-1.847967 0.01408,0.01408 -0.04646,0.1791 -0.134528,0.366713 -0.536748,1.143418 -1.053045,2.756496 -1.309441,4.091115 -0.08585,0.446875 -0.177868,0.896875 -0.204485,1 l -0.0484,0.1875 z"/>

<path style="opacity:1;fill:#03a9f4;fill-opacity:1;fill-rule:evenodd;stroke:#000000;stroke-width:0;stroke-linecap:round;stroke-linejoin:round;stroke-miterlimit:4;stroke-dasharray:none;stroke-opacity:1;paint-order:normal"
d="m 14.640782,20.164194 c -0.216166,-1.127637 -0.309213,-2.248779 -0.275957,-3.325031 0.03748,-1.213014 0.134642,-1.627612 0.61194,-2.611258 l 0.311767,-0.642509 0.294845,0.031 c 0.162166,0.01705 0.562034,0.04731 0.888596,0.06724 1.348658,0.08232 3.502235,0.529265 4.646532,0.964326 l 0.17316,0.06584 -0.526898,0.609554 c -0.657108,0.76019 -1.477372,1.885823 -1.883424,2.584586 l -0.30938,0.532404 -0.563956,0.277532 c -0.750387,0.369279 -1.866109,1.04055 -2.605906,1.567836 -0.330617,0.235646 -0.613445,0.428447 -0.628506,0.428447 -0.01506,0 -0.07483,-0.247486 -0.132813,-0.549969 z"/>

<path style="opacity:1;fill:#03a9f4;fill-opacity:1;fill-rule:evenodd;stroke:#000000;stroke-width:0;stroke-linecap:round;stroke-linejoin:round;stroke-miterlimit:4;stroke-dasharray:none;stroke-opacity:1;paint-order:normal"
d="m 21.065723,14.051235 c -1.485513,-0.513264 -3.825129,-0.962072 -5.015242,-0.962072 -0.185157,0 -0.328508,-0.02828 -0.328508,-0.06481 0,-0.111487 1.258451,-1.329455 1.75,-1.693704 2.061551,-1.5276572 5.009615,-2.6590201 8.207255,-3.1496555 0.800286,-0.1227932 0.685251,-0.1830462 1.430743,0.7493916 0.450463,0.5634266 1.299502,1.7785259 1.299502,1.8597799 0,0.01807 -0.231116,0.05302 -0.513592,0.07766 -0.706653,0.06164 -1.568095,0.290741 -2.191239,0.582756 -0.989285,0.463594 -2.318793,1.374612 -3.430433,2.350633 -0.297833,0.261498 -0.550958,0.473317 -0.5625,0.470709 -0.01154,-0.0026 -0.302236,-0.101917 -0.645986,-0.220688 z"/>

<path style="opacity:1;fill:#03a9f4;fill-opacity:1;fill-rule:evenodd;stroke:#000000;stroke-width:0;stroke-linecap:round;stroke-linejoin:round;stroke-miterlimit:4;stroke-dasharray:none;stroke-opacity:1;paint-order:normal"
d="M 38.359927,16.40318 C 35.803294,13.460875 32.323469,11.24882 29.705101,10.901481 29.177241,10.831458 29.076706,10.766875 28.84003,10.345767 28.692741,10.083701 28.264074,9.4704469 27.887438,8.9829806 27.510802,8.4955143 27.202645,8.0624141 27.202645,8.0205356 c 0,-0.1609633 5.188546,0.062461 6.0625,0.2610574 4.116574,0.9354469 6.36329,2.827449 6.535012,5.50326 0.05476,0.853226 -0.241,3.136461 -0.455844,3.519099 -0.04636,0.08258 -0.454251,-0.290665 -0.984386,-0.900772 z"/>

<path style="opacity:1;fill:#009688;fill-opacity:1;fill-rule:evenodd;stroke:#000000;stroke-width:0;stroke-linecap:round;stroke-linejoin:round;stroke-miterlimit:4;stroke-dasharray:none;stroke-opacity:1;paint-order:normal"
d="m 19.702645,17.772578 c 0,-0.129724 1.069359,-1.569694 1.646228,-2.216767 l 0.541272,-0.607142 1.0625,0.492201 c 0.584375,0.27071 1.34375,0.669418 1.6875,0.886017 l 0.625,0.393817 -0.454942,0.0024 c -0.704412,0.0037 -2.42067,0.350351 -3.752096,0.7579 -1.298154,0.397365 -1.355462,0.409694 -1.355462,0.291599 z"/>

<path style="opacity:1;fill:#009688;fill-opacity:1;fill-rule:evenodd;stroke:#000000;stroke-width:0;stroke-linecap:round;stroke-linejoin:round;stroke-miterlimit:4;stroke-dasharray:none;stroke-opacity:1;paint-order:normal"
d="m 29.640145,16.903409 c -0.48125,-0.08982 -1.459508,-0.20352 -2.173906,-0.252679 -1.289472,-0.08873 -1.306433,-0.0941 -2.335046,-0.739888 -0.569876,-0.35778 -1.405681,-0.811498 -1.857344,-1.008264 -0.451662,-0.196765 -0.821204,-0.396339 -0.821204,-0.443496 0,-0.139767 2.255145,-1.801389 3,-2.210441 0.88907,-0.488251 1.880883,-0.773187 2.691328,-0.773187 h 0.645954 l 0.566721,1.21875 c 0.856858,1.842699 1.6243,4.426646 1.303661,4.389377 -0.07984,-0.0093 -0.538914,-0.09036 -1.020164,-0.180172 z"/>

<path style="opacity:1;fill:#009688;fill-opacity:1;fill-rule:evenodd;stroke:#000000;stroke-width:0;stroke-linecap:round;stroke-linejoin:round;stroke-miterlimit:4;stroke-dasharray:none;stroke-opacity:1;paint-order:normal"
d="m 37.545804,20.993694 c -0.48935,-0.828402 -1.826812,-1.884546 -3.257902,-2.572643 -0.768766,-0.369639 -1.712593,-0.7693 -2.097393,-0.888136 l -0.699635,-0.216066 -0.377769,-1.523505 c -0.207772,-0.837927 -0.636882,-2.134858 -0.953577,-2.882068 -0.316695,-0.74721 -0.559197,-1.375175 -0.538894,-1.395478 0.0203,-0.0203 0.452698,0.07831 0.960879,0.21913 2.509122,0.695313 5.488924,2.866415 7.928162,5.776507 l 0.606421,0.72348 -0.46189,1.15152 c -0.25404,0.633335 -0.559678,1.334774 -0.679194,1.558752 l -0.217304,0.407233 z"/>

<path style="opacity:1;fill:#009688;fill-opacity:1;fill-rule:evenodd;stroke:#000000;stroke-width:0;stroke-linecap:round;stroke-linejoin:round;stroke-miterlimit:4;stroke-dasharray:none;stroke-opacity:1;paint-order:normal"
d="m 37.510369,33.888054 c 0.316074,-0.796334 0.840728,-2.567365 1.088761,-3.675241 0.249362,-1.113813 0.290775,-1.639788 0.289338,-3.674859 -0.0016,-2.319247 -0.01056,-2.400518 -0.380289,-3.462021 l -0.378611,-1.087021 0.370756,-0.725479 c 0.203916,-0.399014 0.522502,-1.11135 0.70797,-1.582969 l 0.337212,-0.857489 0.725467,1.169989 c 3.650855,5.887878 3.728158,11.082147 0.192971,12.966382 -0.755397,0.402623 -2.039006,0.913362 -2.683359,1.067689 -0.312013,0.07473 -0.347746,0.05635 -0.270216,-0.138981 z"/>

<path style="opacity:1;fill:#ffc107;fill-opacity:1;fill-rule:evenodd;stroke:#000000;stroke-width:0;stroke-linecap:round;stroke-linejoin:round;stroke-miterlimit:4;stroke-dasharray:none;stroke-opacity:1;paint-order:normal"
d="m 26.015145,43.48367 c -0.984756,-0.239474 -2.721012,-1.385699 -3.678039,-2.428133 l -0.30304,-0.330083 h 0.368676 c 0.503293,0 3.152019,-0.656859 4.299903,-1.066334 2.221896,-0.792601 4.78303,-2.444617 5.75,-3.708941 l 0.4375,-0.572037 1.116936,-0.08754 c 0.614314,-0.04815 1.387751,-0.130352 1.71875,-0.182676 0.330998,-0.05232 0.601814,-0.06597 0.601814,-0.03033 0,0.172724 -1.243104,2.337788 -1.915044,3.335356 -0.917242,1.361744 -3.113436,3.581629 -4.141391,4.186067 -1.459879,0.858408 -3.025649,1.183863 -4.256065,0.884649 z"/>

<path style="opacity:1;fill:#ffc107;fill-opacity:1;fill-rule:evenodd;stroke:#000000;stroke-width:0;stroke-linecap:round;stroke-linejoin:round;stroke-miterlimit:4;stroke-dasharray:none;stroke-opacity:1;paint-order:normal"
d="m 33.638968,34.022033 c 0.619176,-1.542606 0.688773,-3.155455 0.244736,-5.671579 l -0.187506,-1.0625 1.409473,-1.439695 c 0.775211,-0.791832 1.662599,-1.816613 1.971974,-2.277291 0.309375,-0.460678 0.597275,-0.839378 0.639778,-0.841555 0.152501,-0.0078 0.493138,1.493062 0.599101,2.639688 0.119374,1.29175 -0.0053,3.193416 -0.303216,4.624851 -0.230454,1.107302 -0.322832,1.425271 -0.890199,3.064096 l -0.439711,1.270094 -0.771627,0.129895 c -0.424394,0.07144 -1.175686,0.167736 -1.669538,0.213986 l -0.897912,0.08409 z"/>

<path style="opacity:1;fill:#ffc107;fill-opacity:1;fill-rule:evenodd;stroke:#000000;stroke-width:0;stroke-linecap:round;stroke-linejoin:round;stroke-miterlimit:4;stroke-dasharray:none;stroke-opacity:1;paint-order:normal"
d="M 33.226028,25.754533 C 33.068304,25.291665 32.66646,24.350454 32.333041,23.662954 l -0.606217,-1.25 -0.05493,-2.208972 -0.05493,-2.208973 0.886593,0.315512 c 1.61055,0.573145 2.822466,1.289312 3.784935,2.236661 1.122327,1.104696 1.194836,1.342251 0.652878,2.138986 -0.637923,0.937813 -1.764513,2.276456 -2.634909,3.130865 l -0.793656,0.77908 z"/>

<path style="opacity:1;fill:#ffc107;fill-opacity:1;fill-rule:evenodd;stroke:#000000;stroke-width:0;stroke-linecap:round;stroke-linejoin:round;stroke-miterlimit:4;stroke-dasharray:none;stroke-opacity:1;paint-order:normal"
d="m 30.278442,20.425722 c -0.405186,-0.529416 -1.273158,-1.466056 -1.928825,-2.081421 -0.655668,-0.615366 -1.111652,-1.117749 -1.013298,-1.116407 0.366494,0.005 2.817556,0.368295 3.178381,0.471096 0.3383,0.09638 0.384049,0.172402 0.472628,0.785338 0.05394,0.373244 0.08226,1.179328 0.06294,1.791297 l -0.03513,1.112672 z"/>

<path style="opacity:1;fill:#fb8300;fill-opacity:1;fill-rule:evenodd;stroke:#000000;stroke-width:0;stroke-linecap:round;stroke-linejoin:round;stroke-miterlimit:4;stroke-dasharray:none;stroke-opacity:1;paint-order:normal"
d="m 30.67122,34.584702 c -0.850781,-0.09983 -3.813898,-0.787904 -3.941186,-0.915193 -0.02604,-0.02604 0.299311,-0.460037 0.722993,-0.964447 0.423683,-0.504409 1.02298,-1.322291 1.331771,-1.817514 0.505982,-0.811469 0.654046,-0.950358 1.499009,-1.406125 0.515665,-0.278146 1.361276,-0.790357 1.879136,-1.138247 0.51786,-0.34789 0.956624,-0.615134 0.97503,-0.593875 0.07877,0.09097 0.316155,1.747782 0.39091,2.728295 0.100168,1.313848 -0.09812,2.569599 -0.552334,3.497858 -0.320597,0.655194 -0.359899,0.688333 -0.836404,0.705221 -0.275,0.0097 -0.936017,-0.03344 -1.468925,-0.09597 z"/>

<path style="opacity:1;fill:#fb8300;fill-opacity:1;fill-rule:evenodd;stroke:#000000;stroke-width:0;stroke-linecap:round;stroke-linejoin:round;stroke-miterlimit:4;stroke-dasharray:none;stroke-opacity:1;paint-order:normal"
d="m 30.197473,28.194204 c 0.442868,-0.976964 0.828365,-2.237617 1.122891,-3.67208 l 0.227736,-1.10917 0.433745,0.943699 c 0.443735,0.965435 1.031618,2.610556 0.952398,2.665174 -0.02425,0.01672 -0.269098,0.201141 -0.544098,0.409819 -0.49305,0.374142 -2.379624,1.543808 -2.490033,1.543808 -0.03123,0 0.102579,-0.351563 0.297361,-0.78125 z"/>

<path style="opacity:1;fill:#fb8300;fill-opacity:1;fill-rule:evenodd;stroke:#000000;stroke-width:0;stroke-linecap:round;stroke-linejoin:round;stroke-miterlimit:4;stroke-dasharray:none;stroke-opacity:1;paint-order:normal"
d="m 21.054958,39.702884 c -0.243116,-0.296962 -0.676226,-0.87449 -0.962468,-1.283396 -0.58338,-0.833379 -0.567709,-0.869608 0.424013,-0.980278 0.344497,-0.03844 0.940518,-0.18744 1.324493,-0.331103 0.845174,-0.31622 2.667244,-1.505119 3.622622,-2.363758 l 0.698474,-0.627748 1.133502,0.355372 c 1.169826,0.36676 3.113345,0.746838 3.897828,0.762266 0.245697,0.0048 0.54343,0.04715 0.661627,0.09404 0.193798,0.07688 0.184168,0.124524 -0.09805,0.485138 -0.452618,0.578338 -2.083253,1.770358 -3.24185,2.369843 -1.672456,0.865367 -4.442395,1.723029 -6.384079,1.976714 -0.63167,0.08253 -0.635759,0.08079 -1.076108,-0.457087 z"/>

<path style="opacity:1;fill:#fa3e30;fill-opacity:1;fill-rule:evenodd;stroke:#000000;stroke-width:0;stroke-linecap:round;stroke-linejoin:round;stroke-miterlimit:4;stroke-dasharray:none;stroke-opacity:1;paint-order:normal"
d="m 18.969617,36.598313 c -0.404018,-0.664354 -1.270227,-2.951327 -1.578534,-4.167658 -0.159304,-0.628486 -0.280935,-1.151097 -0.270291,-1.161359 0.01064,-0.01026 0.413103,0.05906 0.894353,0.154042 0.48125,0.09498 1.49375,0.208896 2.25,0.253134 1.324733,0.07749 1.404234,0.09863 2.174676,0.57828 0.439822,0.273815 1.308303,0.754362 1.929957,1.067883 l 1.130282,0.570036 -0.554958,0.48164 c -0.949959,0.824455 -2.608448,1.87896 -3.411387,2.169037 -0.422713,0.152714 -1.117768,0.317659 -1.544565,0.366547 -0.775705,0.08885 -0.776085,0.08874 -1.019533,-0.311582 z"/>

<path style="opacity:1;fill:#fb8300;fill-opacity:1;fill-rule:evenodd;stroke:#000000;stroke-width:0;stroke-linecap:round;stroke-linejoin:round;stroke-miterlimit:4;stroke-dasharray:none;stroke-opacity:1;paint-order:normal"
d="M 16.515145,40.336361 C 14.340504,40.132803 12.228317,39.513817 10.848829,38.675822 9.8934853,38.095482 8.8957895,37.025393 8.4771307,36.132034 8.1771385,35.491893 8.1405259,35.26887 8.1436157,34.100454 8.1457627,33.288575 8.2336636,32.413 8.3740694,31.804922 l 0.2269829,-0.983032 0.3819054,0.483032 c 0.2100479,0.265667 1.0063437,1.102295 1.7695463,1.859173 2.428352,2.408227 5.199978,4.00786 7.390313,4.265291 0.569273,0.06691 0.660444,0.121961 0.904647,0.546272 0.149364,0.259527 0.583548,0.885963 0.964852,1.392081 l 0.69328,0.920215 -0.720226,0.08018 c -0.95882,0.106746 -2.10222,0.09628 -3.470225,-0.03178 z"/>

<path style="opacity:1;fill:#fa3e30;fill-opacity:1;fill-rule:evenodd;stroke:#000000;stroke-width:0;stroke-linecap:round;stroke-linejoin:round;stroke-miterlimit:4;stroke-dasharray:none;stroke-opacity:1;paint-order:normal"
d="M 17.265145,36.616475 C 14.825458,35.913298 11.873592,33.778216 9.641966,31.102637 L 8.8186975,30.11559 9.2027077,29.139272 C 9.4139133,28.602297 9.715715,27.917358 9.8733783,27.617186 l 0.2866607,-0.545768 0.457621,0.623405 c 0.251691,0.342872 0.753465,0.85059 1.115053,1.128261 0.753863,0.578909 2.531131,1.490306 3.719932,1.90761 0.446875,0.156867 0.852914,0.319337 0.902309,0.361045 0.04939,0.04171 0.253143,0.722566 0.452774,1.513019 0.294533,1.166219 0.774064,2.493222 1.477779,4.089446 0.08884,0.201509 -0.10197,0.186974 -1.020362,-0.07773 z"/>

<path style="opacity:1;fill:#fa3e30;fill-opacity:1;fill-rule:evenodd;stroke:#000000;stroke-width:0;stroke-linecap:round;stroke-linejoin:round;stroke-miterlimit:4;stroke-dasharray:none;stroke-opacity:1;paint-order:normal"
d="M 7.7030172,28.464188 C 5.9513577,25.733505 4.8276449,22.509764 4.8276449,20.215233 c 0,-2.266532 1.0710289,-4.1 2.9054219,-4.973722 0.7869757,-0.374837 2.6200572,-1.032245 2.6882122,-0.964089 0.02014,0.02014 -0.162336,0.631166 -0.405497,1.357842 -0.7079992,2.115823 -0.9491029,3.431751 -1.0258726,5.59914 -0.07439,2.10021 0.105129,3.483703 0.5970219,4.601043 0.2393522,0.543691 0.2392672,0.550339 -0.01225,0.957301 -0.1393015,0.225395 -0.4690015,0.925036 -0.7326667,1.554758 l -0.4793911,1.14495 z"/>

<path style="opacity:1;fill:#fa3e30;fill-opacity:1;fill-rule:evenodd;stroke:#000000;stroke-width:0;stroke-linecap:round;stroke-linejoin:round;stroke-miterlimit:4;stroke-dasharray:none;stroke-opacity:1;paint-order:normal"
d="m 24.299334,32.580338 c -0.806196,-0.419797 -1.435689,-0.812007 -1.398873,-0.871576 0.03682,-0.05957 0.26572,-0.108308 0.508676,-0.108308 0.639563,0 2.706153,-0.441751 3.784152,-0.808894 0.510479,-0.173859 0.978134,-0.316106 1.039234,-0.316106 0.153582,0 -0.777812,1.307531 -1.542733,2.165753 -0.347678,0.390086 -0.697955,0.707706 -0.778394,0.705823 -0.08044,-0.0019 -0.805866,-0.346895 -1.612062,-0.766692 z"/>

</svg>
