<?xml version="1.0" encoding="UTF-8" standalone="no"?>
<svg
   xmlns:dc="http://purl.org/dc/elements/1.1/"
   xmlns:cc="http://creativecommons.org/ns#"
   xmlns:rdf="http://www.w3.org/1999/02/22-rdf-syntax-ns#"
   xmlns:svg="http://www.w3.org/2000/svg"
   xmlns="http://www.w3.org/2000/svg"
   xmlns:sodipodi="http://sodipodi.sourceforge.net/DTD/sodipodi-0.dtd"
   xmlns:inkscape="http://www.inkscape.org/namespaces/inkscape"
   width="48"
   height="48"
   version="1.1"
   id="svg12"
   sodipodi:docname="0ad.svg"
   inkscape:version="0.92.5 (2060ec1f9f, 2020-04-08)">
  <metadata
     id="metadata18">
    <rdf:RDF>
      <cc:Work
         rdf:about="">
        <dc:format>image/svg+xml</dc:format>
        <dc:type
           rdf:resource="http://purl.org/dc/dcmitype/StillImage" />
      </cc:Work>
    </rdf:RDF>
  </metadata>
  <defs
     id="defs16" />
  <sodipodi:namedview
     pagecolor="#ffffff"
     bordercolor="#666666"
     borderopacity="1"
     objecttolerance="10"
     gridtolerance="10"
     guidetolerance="10"
     inkscape:pageopacity="0"
     inkscape:pageshadow="2"
     inkscape:window-width="640"
     inkscape:window-height="480"
     id="namedview14"
     showgrid="false"
     inkscape:zoom="4.9166667"
     inkscape:cx="24"
     inkscape:cy="24"
     inkscape:current-layer="svg12" />
  <path
     inkscape:connector-curvature="0"
     d="M 24,3.7966102 A 20,20 0 0 0 4,23.79661 a 20,20 0 0 0 20,20 20,20 0 0 0 20,-20 A 20,20 0 0 0 24,3.7966102 Z"
     id="path2"
     style="fill:#4c566a;fill-opacity:1" />
  <path
     fill="#fff"
     opacity=".2"
     d="m24 4a20 20 0 0 0 -19.859 17.852 20 19 0 0 1 19.859 -16.852 20 19 0 0 1 19.922 17.447 20 20 0 0 0 -19.922 -18.447zm19.922 18.447a20 20 0 0 1 0.078 1.553 20 19 0 0 0 -0.078 -1.553zm-39.781-0.595a20 19 0 0 0 -0.0488 0.392 20 20 0 0 1 0.0488 -0.392zm-0.0488 0.392a20 20 0 0 0 -0.0918 1.756 20 19 0 0 1 0.0918 -1.756z"
     id="path4" />
  <path
     opacity=".2"
     d="m24 45a20 20 0 0 1 -19.859 -17.852 20 19 0 0 0 19.859 16.852 20 19 0 0 0 19.922 -17.447 20 20 0 0 1 -19.922 18.447zm19.922-18.447a20 20 0 0 0 0.078 -1.553 20 19 0 0 1 -0.078 1.553zm-39.781 0.595a20 19 0 0 1 -0.0488 -0.392 20 20 0 0 0 0.0488 0.392zm-0.0488-0.392a20 20 0 0 1 -0.0918 -1.756 20 19 0 0 0 0.0918 1.756z"
     id="path6" />
  <path
     opacity=".2"
     d="m26 9.1402v13.859h13.854a16 16 0 0 0 -13.854 -13.859zm-4 0.00586a16 16 0 0 0 -13.859 13.854h13.859v-13.854zm-13.854 17.854a16 16 0 0 0 13.854 13.859v-13.859h-13.854zm17.854 0v13.854a16 16 0 0 0 13.859 -13.854h-13.859z"
     id="path8" />
  <path
     fill="#ffffff"
     d="m26 8.1406v13.859h13.854a16 16 0 0 0 -13.854 -13.859zm-4 0.0059a16 16 0 0 0 -13.859 13.854h13.859v-13.854zm-13.854 17.854a16 16 0 0 0 13.854 13.859v-13.859h-13.854zm17.854 0v13.854a16 16 0 0 0 13.859 -13.854h-13.859z"
     id="path10" />
</svg>
