<?xml version="1.0" encoding="UTF-8" standalone="no"?>
<svg
   xmlns:dc="http://purl.org/dc/elements/1.1/"
   xmlns:cc="http://creativecommons.org/ns#"
   xmlns:rdf="http://www.w3.org/1999/02/22-rdf-syntax-ns#"
   xmlns:svg="http://www.w3.org/2000/svg"
   xmlns="http://www.w3.org/2000/svg"
   xmlns:sodipodi="http://sodipodi.sourceforge.net/DTD/sodipodi-0.dtd"
   xmlns:inkscape="http://www.inkscape.org/namespaces/inkscape"
   width="48"
   height="48"
   version="1.1"
   id="svg18"
   sodipodi:docname="1password.svg"
   inkscape:version="0.92.5 (2060ec1f9f, 2020-04-08)">
  <metadata
     id="metadata24">
    <rdf:RDF>
      <cc:Work
         rdf:about="">
        <dc:format>image/svg+xml</dc:format>
        <dc:type
           rdf:resource="http://purl.org/dc/dcmitype/StillImage" />
      </cc:Work>
    </rdf:RDF>
  </metadata>
  <defs
     id="defs22" />
  <sodipodi:namedview
     pagecolor="#ffffff"
     bordercolor="#666666"
     borderopacity="1"
     objecttolerance="10"
     gridtolerance="10"
     guidetolerance="10"
     inkscape:pageopacity="0"
     inkscape:pageshadow="2"
     inkscape:window-width="954"
     inkscape:window-height="500"
     id="namedview20"
     showgrid="false"
     inkscape:zoom="4.9166667"
     inkscape:cx="24"
     inkscape:cy="24"
     inkscape:window-x="0"
     inkscape:window-y="554"
     inkscape:window-maximized="0"
     inkscape:current-layer="svg18" />
  <circle
     style="opacity:.2"
     cx="24"
     cy="25"
     r="20"
     id="circle2" />
  <circle
     style="fill:#4c566a;fill-opacity:1"
     cx="24"
     cy="24"
     r="20"
     id="circle4" />
  <circle
     style="opacity:0.2"
     cx="24"
     cy="24"
     r="6"
     id="circle6" />
  <path
     style="opacity:.2;fill:#ffffff"
     d="m24 4a20 20 0 0 0 -20 20 20 20 0 0 0 0.0196 0.586 20 20 0 0 1 19.9804 -19.586 20 20 0 0 1 19.98 19.414 20 20 0 0 0 0.02 -0.414 20 20 0 0 0 -20 -20z"
     id="path8" />
  <path
     style="opacity:0.1"
     d="m 22,16 c -0.554,0 -1,0.446 -1,1 v 4.052734 c 0,0 1.083984,0.952682 1.083984,1.595704 C 22.083984,23.291459 21,24.244141 21,24.244141 V 33 c 0,0.554 0.446,1 1,1 h 4 c 0.554,0 1,-0.446 1,-1 v -4.037109 l -0.0098,-0.01367 c 0,0 -1.130676,-0.993413 -1.130859,-1.664063 -1.83e-4,-0.671189 1.130859,-1.666015 1.130859,-1.666015 L 27,25.605469 V 17 c 0,-0.554 -0.446,-1 -1,-1 z"
     id="path10" />
  <path
     style="fill:#f2f3f4;fill-opacity:1"
     d="m 22,15 c -0.554,0 -1,0.446 -1,1 v 4.052734 c 0,0 1.083984,0.952682 1.083984,1.595704 C 22.083984,22.291459 21,23.244141 21,23.244141 V 32 c 0,0.554 0.446,1 1,1 h 4 c 0.554,0 1,-0.446 1,-1 v -4.037109 l -0.0098,-0.01367 c 0,0 -1.130676,-0.993413 -1.130859,-1.664063 -1.83e-4,-0.671189 1.130859,-1.666015 1.130859,-1.666015 L 27,24.605469 V 16 c 0,-0.554 -0.446,-1 -1,-1 z"
     id="path12" />
  <path
     style="opacity:0.1"
     d="M 24,9 C 15.187133,9 8,16.187133 8,25 8,33.812867 15.187133,41 24,41 32.812867,41 40,33.812867 40,25 40,16.187133 32.812867,9 24,9 Z m 0,4 c 6.651106,0 12,5.348894 12,12 0,6.651106 -5.348894,12 -12,12 -6.651106,0 -12,-5.348894 -12,-12 0,-6.651106 5.348894,-12 12,-12 z"
     id="path14" />
  <path
     style="fill:#5f697d;fill-opacity:1"
     d="M 24,8 C 15.187133,8 8,15.187133 8,24 8,32.812867 15.187133,40 24,40 32.812867,40 40,32.812867 40,24 40,15.187133 32.812867,8 24,8 Z m 0,4 c 6.651106,0 12,5.348894 12,12 0,6.651106 -5.348894,12 -12,12 -6.651106,0 -12,-5.348894 -12,-12 0,-6.651106 5.348894,-12 12,-12 z"
     id="path16" />
</svg>
