<?xml version="1.0" encoding="UTF-8" standalone="no"?>
<svg
   xmlns:dc="http://purl.org/dc/elements/1.1/"
   xmlns:cc="http://creativecommons.org/ns#"
   xmlns:rdf="http://www.w3.org/1999/02/22-rdf-syntax-ns#"
   xmlns:svg="http://www.w3.org/2000/svg"
   xmlns="http://www.w3.org/2000/svg"
   xmlns:sodipodi="http://sodipodi.sourceforge.net/DTD/sodipodi-0.dtd"
   xmlns:inkscape="http://www.inkscape.org/namespaces/inkscape"
   width="48"
   height="48"
   version="1.1"
   id="svg24"
   sodipodi:docname="2064-read-only-memories.svg"
   inkscape:version="0.92.5 (2060ec1f9f, 2020-04-08)">
  <metadata
     id="metadata30">
    <rdf:RDF>
      <cc:Work
         rdf:about="">
        <dc:format>image/svg+xml</dc:format>
        <dc:type
           rdf:resource="http://purl.org/dc/dcmitype/StillImage" />
      </cc:Work>
    </rdf:RDF>
  </metadata>
  <defs
     id="defs28" />
  <sodipodi:namedview
     pagecolor="#ffffff"
     bordercolor="#666666"
     borderopacity="1"
     objecttolerance="10"
     gridtolerance="10"
     guidetolerance="10"
     inkscape:pageopacity="0"
     inkscape:pageshadow="2"
     inkscape:window-width="640"
     inkscape:window-height="480"
     id="namedview26"
     showgrid="false"
     inkscape:zoom="4.9166667"
     inkscape:cx="-15.661017"
     inkscape:cy="24"
     inkscape:current-layer="svg24" />
  <circle
     cx="24"
     cy="25"
     r="20"
     style="opacity:.2"
     id="circle2" />
  <circle
     cx="24"
     cy="24"
     r="20"
     style="fill:#4c566a;fill-opacity:1"
     id="circle4" />
  <path
     d="M 24,4 A 20,20 0 0 0 4,24 20,20 0 0 0 4.0215,24.582 20,20 0 0 1 24,5 20,20 0 0 1 43.979,24.418 20,20 0 0 0 44,24 20,20 0 0 0 24,4 Z"
     style="fill:#ffffff;opacity:.2"
     id="path6" />
  <path
     d="m24 4.9492188a20 20 0 0 0-1 0.035156v3.964844a1.0001 1.0001 0 1 0 2 0v-3.9492188a20 20 0 0 0-1-0.050781zm7.949219 1.65625a8 6 0 0 1-7.949219 5.3437502 8 6 0 0 1-7.939453-5.3300783 20 20 0 0 0-1.861328 0.9238281 10 8 0 0 0 9.800781 6.4062502 10 8 0 0 0 9.794922-6.4238283 20 20 0 0 0-1.845703-0.9199219z"
     style="opacity:.2"
     id="path8" />
  <path
     d="M 24 4 A 20 20 0 0 0 23 4.0351562 L 23 8 A 1.0001 1.0001 0 1 0 25 8 L 25 4.0507812 A 20 20 0 0 0 24 4 z M 31.949219 5.65625 A 8 6 0 0 1 24 11 A 8 6 0 0 1 16.060547 5.6699219 A 20 20 0 0 0 14.199219 6.59375 A 10 8 0 0 0 24 13 A 10 8 0 0 0 33.794922 6.5761719 A 20 20 0 0 0 31.949219 5.65625 z "
     style="fill:#ffffff"
     id="path10" />
  <path
     d="m16.984375 16.986328a1.0001 1.0001 0 0 0-0.984375 1.013672v7a1.0001 1.0001 0 1 0 2 0v-7a1.0001 1.0001 0 0 0-1.015625-1.013672zm14 0a1.0001 1.0001 0 0 0-0.984375 1.013672v7a1.0001 1.0001 0 1 0 2 0v-7a1.0001 1.0001 0 0 0-1.015625-1.013672zm-20.984375 10.013672a1.0001 1.0001 0 1 0 0 2h5a1.0001 1.0001 0 1 0 0-2h-5zm23 0a1.0001 1.0001 0 1 0 0 2h5a1.0001 1.0001 0 1 0 0-2h-5zm-3 3a1.0001 1.0001 0 1 0 0 2h-12a1.0001 1.0001 0 1 0 0 2h13a1.0001 1.0001 0 0 0 0.707031-0.292969c0.735703-0.735702 0.826515-1.770455 0.617188-2.398437-0.209328-0.627982-0.617188-1.015625-0.617188-1.015625a1.0001 1.0001 0 0 0-0.707031-0.292969h-1z"
     style="opacity:.2"
     id="path12" />
  <path
     d="m17 17v7"
     style="fill:none;stroke-linecap:round;stroke-linejoin:round;stroke-width:2;stroke:#ffffff"
     id="path14" />
  <path
     d="m31 17v7"
     style="fill:none;stroke-linecap:round;stroke-linejoin:round;stroke-width:2;stroke:#ffffff"
     id="path16" />
  <path
     d="m33 27h5"
     style="fill:none;stroke-linecap:round;stroke-linejoin:round;stroke-width:2;stroke:#5f697d;stroke-opacity:1"
     id="path18" />
  <path
     d="m10 27h5"
     style="fill:none;stroke-linecap:round;stroke-linejoin:round;stroke-width:2;stroke:#5f697d;stroke-opacity:1"
     id="path20" />
  <path
     d="m18 32h13c1-1 0-2 0-2h-1"
     style="fill:none;stroke-linecap:round;stroke-linejoin:round;stroke-width:2;stroke:#ffffff"
     id="path22" />
</svg>
