<?xml version="1.0" encoding="UTF-8" standalone="no"?>
<svg
   xmlns:dc="http://purl.org/dc/elements/1.1/"
   xmlns:cc="http://creativecommons.org/ns#"
   xmlns:rdf="http://www.w3.org/1999/02/22-rdf-syntax-ns#"
   xmlns:svg="http://www.w3.org/2000/svg"
   xmlns="http://www.w3.org/2000/svg"
   xmlns:sodipodi="http://sodipodi.sourceforge.net/DTD/sodipodi-0.dtd"
   xmlns:inkscape="http://www.inkscape.org/namespaces/inkscape"
   height="48"
   width="48"
   version="1.1"
   id="svg14"
   sodipodi:docname="3D-Coat.svg"
   inkscape:version="0.92.5 (2060ec1f9f, 2020-04-08)">
  <metadata
     id="metadata20">
    <rdf:RDF>
      <cc:Work
         rdf:about="">
        <dc:format>image/svg+xml</dc:format>
        <dc:type
           rdf:resource="http://purl.org/dc/dcmitype/StillImage" />
      </cc:Work>
    </rdf:RDF>
  </metadata>
  <defs
     id="defs18" />
  <sodipodi:namedview
     pagecolor="#ffffff"
     bordercolor="#666666"
     borderopacity="1"
     objecttolerance="10"
     gridtolerance="10"
     guidetolerance="10"
     inkscape:pageopacity="0"
     inkscape:pageshadow="2"
     inkscape:window-width="640"
     inkscape:window-height="480"
     id="namedview16"
     showgrid="false"
     inkscape:zoom="4.9166667"
     inkscape:cx="24"
     inkscape:cy="24"
     inkscape:current-layer="g12" />
  <g
     transform="matrix(2 0 0 2 .0019 -.004)"
     id="g12">
    <circle
       style="opacity:.2"
       cx="12"
       r="10"
       cy="12.5"
       id="circle2" />
    <circle
       style="fill:#4c566a;fill-opacity:1"
       cx="12"
       r="10"
       cy="12"
       id="circle4" />
    <path
       style="opacity:.2;fill:#ffffff"
       d="m12 2a10 10 0 0 0 -10 10 10 10 0 0 0 0.0098 0.293 10 10 0 0 1 9.9902 -9.793 10 10 0 0 1 9.99 9.707 10 10 0 0 0 0.01 -0.207 10 10 0 0 0 -10 -10z"
       id="path6" />
    <path
       d="m8 9.5c-1 0-1 1-1 1s-0.0001608 2-1.5507812 2c-0.8690732 0-1.2116239-0.625463-1.3515626-1.177734-0.0615434 0.389633-0.0941845 0.783285-0.0976562 1.177734 0 4.418278 3.581722 8 8 8s8-3.581722 8-8c0 0-0.000874-1-0.445312-1-0.444441 0-0.554688 1-0.554688 1v2s-0.000404 1-0.433594 1c-0.56681 0-0.566406-1-0.566406-1v-2s0-1-0.455078-1c-0.544922 0-0.544922 1-0.544922 1v1s0 1-1 1-1-1-1-1v-2s-0.000742-2-1.476562-2c-1.475819 0-1.523438 2-1.523438 2v3s-0.000794 2-1.515625 2c-1.5148305 0-1.484375-2-1.484375-2v-4s0-1-1-1z"
       style="opacity:.2"
       id="path8" />
    <path
       d="m8 9c-1 0-1 1-1 1s-0.0001608 2-1.5507812 2c-0.8690732 0-1.2116239-0.625463-1.3515626-1.177734-0.0615434 0.389633-0.0941845 0.783285-0.0976562 1.177734 0 4.418278 3.581722 8 8 8s8-3.581722 8-8c0 0-0.000874-1-0.445312-1-0.444441 0-0.554688 1-0.554688 1v2s-0.000404 1-0.433594 1c-0.56681 0-0.566406-1-0.566406-1v-2s0-1-0.455078-1c-0.544922 0-0.544922 1-0.544922 1v1s0 1-1 1-1-1-1-1v-2s-0.000742-2-1.476562-2c-1.475819 0-1.523438 2-1.523438 2v3s-0.000794 2-1.515625 2c-1.5148305 0-1.484375-2-1.484375-2v-4s0-1-1-1z"
       style="fill:#ffffff"
       id="path10" />
  </g>
</svg>
