<?xml version="1.0" encoding="UTF-8" standalone="no"?>
<svg
   xmlns:dc="http://purl.org/dc/elements/1.1/"
   xmlns:cc="http://creativecommons.org/ns#"
   xmlns:rdf="http://www.w3.org/1999/02/22-rdf-syntax-ns#"
   xmlns:svg="http://www.w3.org/2000/svg"
   xmlns="http://www.w3.org/2000/svg"
   xmlns:sodipodi="http://sodipodi.sourceforge.net/DTD/sodipodi-0.dtd"
   xmlns:inkscape="http://www.inkscape.org/namespaces/inkscape"
   width="48"
   height="48"
   version="1"
   id="svg20"
   sodipodi:docname="4kyoutubetomp3.svg"
   inkscape:version="0.92.5 (2060ec1f9f, 2020-04-08)">
  <metadata
     id="metadata26">
    <rdf:RDF>
      <cc:Work
         rdf:about="">
        <dc:format>image/svg+xml</dc:format>
        <dc:type
           rdf:resource="http://purl.org/dc/dcmitype/StillImage" />
      </cc:Work>
    </rdf:RDF>
  </metadata>
  <defs
     id="defs24" />
  <sodipodi:namedview
     pagecolor="#ffffff"
     bordercolor="#666666"
     borderopacity="1"
     objecttolerance="10"
     gridtolerance="10"
     guidetolerance="10"
     inkscape:pageopacity="0"
     inkscape:pageshadow="2"
     inkscape:window-width="783"
     inkscape:window-height="480"
     id="namedview22"
     showgrid="false"
     inkscape:zoom="2.4583333"
     inkscape:cx="20.238975"
     inkscape:cy="45.361962"
     inkscape:window-x="0"
     inkscape:window-y="28"
     inkscape:window-maximized="0"
     inkscape:current-layer="svg20" />
  <path
     style="opacity:0.2"
     d="m 26.5,10 a 10.5,10.5 0 0 0 -8.949219,5.023438 7,7 0 0 0 -6.478515,6.02539 A 9,9 0 0 0 3,30 9,9 0 0 0 12,39 H 36 A 9,9 0 0 0 45,30 9,9 0 0 0 36.980469,21.064453 10.5,10.5 0 0 0 37,20.5 10.5,10.5 0 0 0 26.5,10 Z"
     id="path2" />
  <circle
     style="fill:#4c566a;fill-opacity:1"
     cx="-36"
     cy="29"
     r="9"
     transform="scale(-1,1)"
     id="circle4" />
  <circle
     style="fill:#4c566a;fill-opacity:1"
     cx="-26.5"
     cy="19.5"
     r="10.5"
     transform="scale(-1,1)"
     id="circle6" />
  <circle
     style="fill:#4c566a;fill-opacity:1"
     cx="-18"
     cy="21"
     r="7"
     transform="scale(-1,1)"
     id="circle8" />
  <circle
     style="fill:#4c566a;fill-opacity:1"
     cx="-12"
     cy="29"
     r="9"
     transform="scale(-1,1)"
     id="circle10" />
  <rect
     style="fill:#4c566a;fill-opacity:1"
     width="24"
     height="12"
     x="-36"
     y="26"
     transform="scale(-1,1)"
     id="rect12" />
  <path
     style="fill:#ffffff;opacity:0.2"
     d="M 26.5 9 A 10.5 10.5 0 0 0 17.550781 14.023438 A 7 7 0 0 0 11.072266 20.048828 A 9 9 0 0 0 3 29 A 9 9 0 0 0 3.0214844 29.416016 A 9 9 0 0 1 11.072266 21.048828 A 7 7 0 0 1 17.550781 15.023438 A 10.5 10.5 0 0 1 26.5 10 A 10.5 10.5 0 0 1 37 20.5 A 10.5 10.5 0 0 1 36.980469 21.064453 A 9 9 0 0 1 44.978516 29.585938 A 9 9 0 0 0 45 29 A 9 9 0 0 0 36.980469 20.064453 A 10.5 10.5 0 0 0 37 19.5 A 10.5 10.5 0 0 0 26.5 9 z M 20.970703 29.417969 A 9 9 0 0 1 20.978516 29.578125 A 9 9 0 0 0 20.984375 29.425781 A 10.5 10.5 0 0 1 20.970703 29.417969 z"
     id="path14" />
  <path
     style="opacity:0.2"
     d="M 18.994204,20.0003 V 29.176 C 18.673757,29.06094 18.336071,29.001421 17.995653,29 16.3412,29 15,30.343146 15,32 c 0,1.656854 1.3412,3 2.995653,3 1.654453,0 2.995652,-1.343146 2.995652,-3 V 23.5 L 28.979712,21 v 6.1758 c -0.320447,-0.11506 -0.658133,-0.174579 -0.998551,-0.176 -1.654453,0 -2.995652,1.343146 -2.995652,3 0,1.656854 1.341199,3 2.995652,3 1.654453,0 3.22963,-1.359798 2.995653,-3 V 15.9999 l -11.98261,4 z"
     id="path16" />
  <path
     style="fill:#ffffff"
     d="M 18.994204,19.0003 V 28.176 C 18.673757,28.06094 18.336071,28.001421 17.995653,28 16.3412,28 15,29.343146 15,31 c 0,1.656854 1.3412,3 2.995653,3 1.654453,0 2.995652,-1.343146 2.995652,-3 V 22.5 L 28.979712,20 v 6.1758 c -0.320447,-0.11506 -0.658133,-0.174579 -0.998551,-0.176 -1.654453,0 -2.995652,1.343146 -2.995652,3 0,1.656854 1.341199,3 2.995652,3 1.654453,0 3.22963,-1.359798 2.995653,-3 V 14.9999 l -11.98261,4 z"
     id="path18" />
</svg>
