<?xml version="1.0" encoding="UTF-8" standalone="no"?>
<svg
   xmlns:dc="http://purl.org/dc/elements/1.1/"
   xmlns:cc="http://creativecommons.org/ns#"
   xmlns:rdf="http://www.w3.org/1999/02/22-rdf-syntax-ns#"
   xmlns:svg="http://www.w3.org/2000/svg"
   xmlns="http://www.w3.org/2000/svg"
   xmlns:sodipodi="http://sodipodi.sourceforge.net/DTD/sodipodi-0.dtd"
   xmlns:inkscape="http://www.inkscape.org/namespaces/inkscape"
   width="48"
   height="48"
   version="1"
   id="svg30"
   sodipodi:docname="7kaa.svg"
   inkscape:version="0.92.5 (2060ec1f9f, 2020-04-08)">
  <metadata
     id="metadata36">
    <rdf:RDF>
      <cc:Work
         rdf:about="">
        <dc:format>image/svg+xml</dc:format>
        <dc:type
           rdf:resource="http://purl.org/dc/dcmitype/StillImage" />
      </cc:Work>
    </rdf:RDF>
  </metadata>
  <defs
     id="defs34" />
  <sodipodi:namedview
     pagecolor="#ffffff"
     bordercolor="#666666"
     borderopacity="1"
     objecttolerance="10"
     gridtolerance="10"
     guidetolerance="10"
     inkscape:pageopacity="0"
     inkscape:pageshadow="2"
     inkscape:window-width="783"
     inkscape:window-height="480"
     id="namedview32"
     showgrid="false"
     inkscape:zoom="4.9166667"
     inkscape:cx="24"
     inkscape:cy="24"
     inkscape:window-x="0"
     inkscape:window-y="28"
     inkscape:window-maximized="0"
     inkscape:current-layer="svg30" />
  <rect
     style="opacity:0.2"
     width="40"
     height="16"
     x="4"
     y="29"
     rx="4"
     ry="4"
     id="rect2" />
  <rect
     style="fill:#4c566a;fill-opacity:1"
     width="40"
     height="16"
     x="4"
     y="28"
     rx="4"
     ry="4"
     id="rect4" />
  <path
     style="fill:#ffffff;opacity:0.1"
     d="M 8 28 C 5.784 28 4 29.784 4 32 L 4 33 C 4 30.784 5.784 29 8 29 L 40 29 C 42.216 29 44 30.784 44 33 L 44 32 C 44 29.784 42.216 28 40 28 L 8 28 z"
     id="path6" />
  <path
     style="fill:#5f697d;fill-opacity:1"
     d="M 18.869141,3.9648438 17.714844,7.3808594 15.003906,5 14.054688,7.8027344 12.003906,6 10.994141,8.984375 9.0019531,8 8.7832031,11.375 6.0019531,10 5.7714844,13.570312 3,13.015625 3.7070312,16.550781 8,28.046875 40,28 44.292969,16.550781 45,13.015625 42.228516,13.570312 41.998047,10 39.216797,11.375 38.998047,8 37.005859,8.984375 35.996094,6 33.945312,7.8027344 32.996094,5 30.285156,7.3808594 29.130859,3.9648438 26.419922,6.3457031 26.007812,7.8828125 V 7 l -2,-3 L 24,4.0117188 23.992188,4 l -2,3 v 0.8828125 l -0.41211,-1.5371094 z"
     id="path8" />
  <g
     style="fill:#ffffff;opacity:0.1"
     id="g12">
    <path
       style="fill:#ffffff"
       d="M 18.869141 3.9648438 L 17.714844 7.3808594 L 15.003906 5 L 14.054688 7.8027344 L 12.003906 6 L 10.994141 8.984375 L 9.0019531 8 L 8.7832031 11.375 L 6.0019531 10 L 5.7714844 13.570312 L 3 13.015625 L 3.2089844 14.056641 L 5.7714844 14.570312 L 6.0019531 11 L 8.7832031 12.375 L 9.0019531 9 L 10.994141 9.984375 L 12.003906 7 L 14.054688 8.8027344 L 15.003906 6 L 17.714844 8.3808594 L 18.869141 4.9648438 L 21.580078 7.3457031 L 21.992188 8.8828125 L 21.992188 8 L 23.992188 5 L 24 5.0117188 L 24.007812 5 L 26.007812 8 L 26.007812 8.8828125 L 26.419922 7.3457031 L 29.130859 4.9648438 L 30.285156 8.3808594 L 32.996094 6 L 33.945312 8.8027344 L 35.996094 7 L 37.005859 9.984375 L 38.998047 9 L 39.216797 12.375 L 41.998047 11 L 42.228516 14.570312 L 44.791016 14.056641 L 45 13.015625 L 42.228516 13.570312 L 41.998047 10 L 39.216797 11.375 L 38.998047 8 L 37.005859 8.984375 L 35.996094 6 L 33.945312 7.8027344 L 32.996094 5 L 30.285156 7.3808594 L 29.130859 3.9648438 L 26.419922 6.3457031 L 26.007812 7.8828125 L 26.007812 7 L 24.007812 4 L 24 4.0117188 L 23.992188 4 L 21.992188 7 L 21.992188 7.8828125 L 21.580078 6.3457031 L 18.869141 3.9648438 z"
       id="path10" />
  </g>
  <path
     style="opacity:0.2"
     d="m 27.971188,19.970215 a 2.0002,2.0002 0 0 0 -1.970703,2.029297 v 5.705078 a 2.0002,2.0002 0 0 0 0,0.53125 v 1.509766 a 2.0002,2.0002 0 0 0 0,0.52539 v 5.728516 a 2.0002,2.0002 0 1 0 4,0 v -2.677734 l 3.494141,3.99414 a 2.0007768,2.0007768 0 1 0 3.011718,-2.634765 l -4.972656,-5.681641 4.972656,-5.683594 a 2.0007768,2.0007768 0 1 0 -3.011718,-2.634765 l -3.494141,3.99414 v -2.675781 a 2.0002,2.0002 0 0 0 -2.029297,-2.029297 z m -15.970703,0.0293 a 2.0002,2.0002 0 1 0 0,4 h 4.697266 c -2.601892,3.557219 -3.697266,7.0347 -3.697266,12 a 2.0002,2.0002 0 1 0 4,0 c 0,-5.89174 1.024578,-7.99478 5.445312,-12.617188 a 2.0002,2.0002 0 0 0 -1.445312,-3.382812 z"
     id="path14" />
  <path
     style="fill:none;stroke:#ffffff;stroke-width:4;stroke-linecap:round;stroke-linejoin:round;stroke-opacity:1"
     d="m 12.00097,20.999512 h 9 c -4.567858,4.776242 -6,7.80026 -6,14"
     id="path16" />
  <path
     style="fill:none;stroke:#ffffff;stroke-width:4;stroke-linecap:round;stroke-linejoin:round;stroke-opacity:1"
     d="m 28.000485,20.999512 v 14"
     id="path18" />
  <path
     style="fill:none;stroke:#ffffff;stroke-width:4;stroke-linecap:round;stroke-linejoin:round;stroke-opacity:1"
     d="m 35.000485,20.999512 -7,8.000485"
     id="path20" />
  <path
     style="fill:none;stroke:#ffffff;stroke-width:4;stroke-linecap:round;stroke-linejoin:round;stroke-opacity:1"
     d="m 35.000485,34.999512 -7,-7.999515"
     id="path22" />
  <path
     style="opacity:0.2"
     transform="matrix(0.76714123,0,0,0.77509108,4.3829158,0.89963584)"
     d="M 25.571673,22.062393 15.143345,4.0000003 36,3.9999997 Z"
     id="path24" />
  <path
     style="fill:#eaecf0;fill-opacity:1"
     transform="matrix(0.76714123,0,0,0.77509108,4.3829158,-0.10036416)"
     d="M 25.571673,22.062393 15.143345,4.0000003 36,3.9999997 Z"
     id="path26" />
  <path
     style="opacity:0.1;fill:#ffffff"
     d="M 16 3 L 16.572266 4 L 31.427734 4 L 32 3 L 16 3 z"
     id="path28" />
</svg>
