<?xml version="1.0" encoding="UTF-8" standalone="no"?>
<svg
   xmlns:dc="http://purl.org/dc/elements/1.1/"
   xmlns:cc="http://creativecommons.org/ns#"
   xmlns:rdf="http://www.w3.org/1999/02/22-rdf-syntax-ns#"
   xmlns:svg="http://www.w3.org/2000/svg"
   xmlns="http://www.w3.org/2000/svg"
   xmlns:sodipodi="http://sodipodi.sourceforge.net/DTD/sodipodi-0.dtd"
   xmlns:inkscape="http://www.inkscape.org/namespaces/inkscape"
   width="48"
   height="48"
   version="1.1"
   id="svg18"
   sodipodi:docname="8bitmmo.svg"
   inkscape:version="0.92.5 (2060ec1f9f, 2020-04-08)">
  <metadata
     id="metadata24">
    <rdf:RDF>
      <cc:Work
         rdf:about="">
        <dc:format>image/svg+xml</dc:format>
        <dc:type
           rdf:resource="http://purl.org/dc/dcmitype/StillImage" />
      </cc:Work>
    </rdf:RDF>
  </metadata>
  <defs
     id="defs22" />
  <sodipodi:namedview
     pagecolor="#ffffff"
     bordercolor="#666666"
     borderopacity="1"
     objecttolerance="10"
     gridtolerance="10"
     guidetolerance="10"
     inkscape:pageopacity="0"
     inkscape:pageshadow="2"
     inkscape:window-width="640"
     inkscape:window-height="480"
     id="namedview20"
     showgrid="false"
     inkscape:zoom="4.9166667"
     inkscape:cx="24"
     inkscape:cy="24"
     inkscape:current-layer="svg18" />
  <rect
     x="4"
     y="5"
     width="40"
     height="40"
     rx="3"
     ry="3"
     style="opacity:.2"
     id="rect2" />
  <rect
     x="4"
     y="4"
     width="40"
     height="40"
     rx="3"
     ry="3"
     style="fill:#4c566a;fill-opacity:1"
     id="rect4" />
  <path
     d="m10 15v20h3v3h-3v3h-3v4h34c0.773297 0 1.469123-0.29821 2-0.775391v-2.224609h-3v-4h-3v-3h3v-20z"
     style="opacity:.2"
     id="path6" />
  <path
     d="m10 14v20h3v3h-3v3h-3v4h34c0.773297 0 1.469123-0.29821 2-0.775391v-2.224609h-3v-4h-3v-3h3v-20h-30z"
     style="fill:#3f3f3f"
     id="path8" />
  <path
     d="m13 18v17h24v-16.965518zm3 4h6v3h-6zm12 0h6v3h-6zm-15 16v4h2v3h19v-4h3v-3z"
     style="opacity:.2"
     id="path10" />
  <path
     d="m13 17v17h24v-16.965518zm3 4h6v3h-6zm12 0h6v3h-6zm-15 16v4h2v3h19v-4h3v-3z"
     style="fill:#ffffff"
     id="path12" />
  <path
     d="m10 14v1h30v-1h-30zm0 23v1h3v-1h-3zm27 0v1h3v-1h-3zm-30 3v1h3v-1h-3zm33 1v1h3v-1h-3z"
     style="fill:#ffffff;opacity:.1"
     id="path14" />
  <path
     d="m7 4c-1.662 0-3 1.338-3 3v1c0-1.662 1.338-3 3-3h34c1.662 0 3 1.338 3 3v-1c0-1.662-1.338-3-3-3h-34z"
     style="fill:#ffffff;opacity:.2"
     id="path16" />
</svg>
