<?xml version="1.0" encoding="UTF-8" standalone="no"?>
<svg
   xmlns:dc="http://purl.org/dc/elements/1.1/"
   xmlns:cc="http://creativecommons.org/ns#"
   xmlns:rdf="http://www.w3.org/1999/02/22-rdf-syntax-ns#"
   xmlns:svg="http://www.w3.org/2000/svg"
   xmlns="http://www.w3.org/2000/svg"
   xmlns:sodipodi="http://sodipodi.sourceforge.net/DTD/sodipodi-0.dtd"
   xmlns:inkscape="http://www.inkscape.org/namespaces/inkscape"
   width="48"
   height="48"
   version="1.1"
   id="svg24"
   sodipodi:docname="aaaaxy.svg"
   inkscape:version="0.92.5 (2060ec1f9f, 2020-04-08)">
  <metadata
     id="metadata30">
    <rdf:RDF>
      <cc:Work
         rdf:about="">
        <dc:format>image/svg+xml</dc:format>
        <dc:type
           rdf:resource="http://purl.org/dc/dcmitype/StillImage" />
      </cc:Work>
    </rdf:RDF>
  </metadata>
  <defs
     id="defs28" />
  <sodipodi:namedview
     pagecolor="#ffffff"
     bordercolor="#666666"
     borderopacity="1"
     objecttolerance="10"
     gridtolerance="10"
     guidetolerance="10"
     inkscape:pageopacity="0"
     inkscape:pageshadow="2"
     inkscape:window-width="783"
     inkscape:window-height="480"
     id="namedview26"
     showgrid="false"
     inkscape:zoom="9.8333333"
     inkscape:cx="28.680872"
     inkscape:cy="16.043848"
     inkscape:window-x="0"
     inkscape:window-y="28"
     inkscape:window-maximized="0"
     inkscape:current-layer="svg24" />
  <rect
     style="opacity:.2"
     width="40"
     height="40"
     x="4"
     y="5"
     rx="3"
     ry="3"
     id="rect2" />
  <rect
     style="fill:#4c566a;fill-opacity:1"
     width="40"
     height="40"
     x="4"
     y="4"
     rx="3"
     ry="3"
     id="rect4" />
  <path
     style="fill:#ffffff;opacity:.1"
     d="m7 4c-1.662 0-3 1.3379999-3 3v1c0-1.6620001 1.338-3 3-3h34c1.662 0 3 1.3379999 3 3v-1c0-1.6620001-1.338-3-3-3h-34z"
     id="path6" />
  <path
     style="opacity:0.2"
     d="m 7,8 v 30 h 2 v 2 h 2 v 2 h 26 v -2 h 2 v -2 h 2 V 8 Z"
     id="path8" />
  <path
     style="fill:#5f697d;fill-opacity:1"
     d="m 7,7 v 30 h 2 v 2 h 2 v 2 h 26 v -2 h 2 v -2 h 2 V 7 Z"
     id="path10" />
  <path
     style="opacity:0.2"
     d="m 16,10 v 3 h -3 v 2 h -3 v 3 H 8 v 15 h 2 v 3 h 3 v 2 h 3 v 2 h 16 v -2 h 3 v -2 h 3 v -3 h 2 V 18 h -2 v -3 h -3 v -2 h -3 v -3 z"
     id="path12" />
  <path
     style="fill:#4c566a;fill-opacity:1"
     d="m 16,9 v 3 h -3 v 2 h -3 v 3 H 8 v 15 h 2 v 3 h 3 v 2 h 3 v 2 h 16 v -2 h 3 v -2 h 3 v -3 h 2 V 17 H 38 V 14 H 35 V 12 H 32 V 9 Z"
     id="path14" />
  <path
     style="opacity:0.2"
     d="m 19,13 v 2 h -2 v 3 h -3 v 2 h -2 v 10 h 2 v 2 h 3 v 3 h 2 v 2 h 10 v -2 h 2 v -3 h 3 v -2 h 2 V 20 h -2 v -2 h -3 v -3 h -2 v -2 z"
     id="path16" />
  <path
     style="fill:#e0e3e9;fill-opacity:1"
     d="m 19,12 v 2 h -2 v 3 h -3 v 2 h -2 v 10 h 2 v 2 h 3 v 3 h 2 v 2 h 10 v -2 h 2 v -3 h 3 v -2 h 2 V 19 h -2 v -2 h -3 v -3 h -2 v -2 z"
     id="path18" />
  <path
     style="opacity:0.2"
     d="m 21,15 v 3 h -2 v 2 h -3 v 3 h -2 v 2 h 5 v -2 h 2 v 12 h 6 V 23 h 2 v 2 h 5 v -2 h -2 v -3 h -3 v -2 h -2 v -3 z"
     id="path20" />
  <path
     style="fill:#4c566a;fill-opacity:1"
     d="m 21,14 v 3 h -2 v 2 h -3 v 3 h -2 v 2 h 5 v -2 h 2 v 12 h 6 V 22 h 2 v 2 h 5 v -2 h -2 v -3 h -3 v -2 h -2 v -3 z"
     id="path22" />
</svg>
