<?xml version="1.0" encoding="UTF-8" standalone="no"?>
<svg
   xmlns:dc="http://purl.org/dc/elements/1.1/"
   xmlns:cc="http://creativecommons.org/ns#"
   xmlns:rdf="http://www.w3.org/1999/02/22-rdf-syntax-ns#"
   xmlns:svg="http://www.w3.org/2000/svg"
   xmlns="http://www.w3.org/2000/svg"
   xmlns:sodipodi="http://sodipodi.sourceforge.net/DTD/sodipodi-0.dtd"
   xmlns:inkscape="http://www.inkscape.org/namespaces/inkscape"
   width="48"
   height="48"
   version="1.1"
   id="svg28"
   sodipodi:docname="abe.svg"
   inkscape:version="0.92.5 (2060ec1f9f, 2020-04-08)">
  <metadata
     id="metadata34">
    <rdf:RDF>
      <cc:Work
         rdf:about="">
        <dc:format>image/svg+xml</dc:format>
        <dc:type
           rdf:resource="http://purl.org/dc/dcmitype/StillImage" />
      </cc:Work>
    </rdf:RDF>
  </metadata>
  <defs
     id="defs32" />
  <sodipodi:namedview
     pagecolor="#ffffff"
     bordercolor="#666666"
     borderopacity="1"
     objecttolerance="10"
     gridtolerance="10"
     guidetolerance="10"
     inkscape:pageopacity="0"
     inkscape:pageshadow="2"
     inkscape:window-width="783"
     inkscape:window-height="480"
     id="namedview30"
     showgrid="false"
     inkscape:zoom="4.9166667"
     inkscape:cx="24"
     inkscape:cy="24"
     inkscape:window-x="0"
     inkscape:window-y="28"
     inkscape:window-maximized="0"
     inkscape:current-layer="svg28" />
  <path
     d="m23.957363 4a17.961627 12 0 0 0-17.961627 12 17.961627 12 0 0 0 0.2533649 2h35.397034a17.961627 12 0 0 0 0.272856-2 17.961627 12 0 0 0-17.961628-12z"
     style="fill:#5f697d;fill-opacity:1"
     id="path2" />
  <path
     d="m9.9872089 21v12c0 6 5.9872091 12 5.9872091 12h15.965891s3.991472-6 3.991472-10h5.98721l-5.98721-12-11.974418-4z"
     style="opacity:.2"
     id="path4" />
  <path
     d="m9.9872089 20v12c0 6 5.9872091 12 5.9872091 12h15.965891s3.991472-6 3.991472-10h5.98721l-5.98721-12-11.974418-4z"
     style="fill:#4c566a;fill-opacity:1"
     id="path6" />
  <path
     d="m23.957363 19-13.970154 2v12c0 2.704824 1.2244711 5.380018 2.5609351 7.535156 0.8304-0.637248 4.474449-3.5732 8.918447-8.035156 2.489938-2.5 4.665798-3.112204 6.482245-5.5v-6.667968z"
     style="opacity:.1"
     id="path8" />
  <path
     d="m23.957363 18-13.970154 2v12c0 2.704824 1.2244711 5.380018 2.5609351 7.535156 0.8304-0.637248 4.474449-3.5732 8.918447-8.035156 2.489938-2.5 4.665798-3.112204 6.482245-5.5v-6.667968z"
     style="fill:#ffffff;fill-opacity:1"
     id="path10" />
  <ellipse
     cx="32.938179"
     cy="28"
     rx="2.9936047"
     ry="3"
     style="opacity:.1"
     id="ellipse12" />
  <path
     d="m6.9936049 16.9997a2.9939039 3.0003 0 1 0 0 6h33.927517a2.9939039 3.0003 0 1 0 0-6z"
     style="opacity:.2"
     id="path14" />
  <path
     d="m6.9936049 19h33.927517"
     style="fill:none;stroke-linecap:round;stroke-linejoin:round;stroke-width:5.9936008;stroke:#4c566a;stroke-opacity:1"
     id="path16" />
  <ellipse
     cx="32.938179"
     cy="27"
     rx="2.9936047"
     ry="3"
     style="fill:#ffffff;fill-opacity:1"
     id="ellipse18" />
  <path
     d="m18.925145 24.941406a4.9898398 5.0005 0 0 0-4.104512 7.828126l2.046409 3.08203c1.360471-1.222588 2.885554-2.63064 4.599549-4.351562 1.032083-1.036254 1.994716-1.73045 2.915647-2.378906l-1.255133-1.890626a4.9898398 5.0005 0 0 0-4.20196-2.289062z"
     style="opacity:.2"
     id="path20" />
  <path
     d="m23.954964 36.5-4.979875-7.5"
     style="fill:none;stroke-linecap:round;stroke-linejoin:round;stroke-width:9.9893351;stroke:#4c566a;stroke-opacity:1"
     id="path22" />
  <path
     d="M 23.957363,4 A 17.961627,12 0 0 0 5.9957363,16 17.961627,12 0 0 0 6.0269197,16.425782 17.961627,12 0 0 1 23.957363,5 17.961627,12 0 0 1 41.883909,16.542968 17.961627,12 0 0 0 41.918991,16 17.961627,12 0 0 0 23.957363,4 Z"
     style="fill:#ffffff;opacity:.1"
     id="path24" />
  <path
     d="m6.9936049 16a2.9939039 3.0003 0 0 0-2.9897071 3.492188 2.9939039 3.0003 0 0 1 2.9897071-2.492188h33.927517a2.9939039 3.0003 0 0 1 2.989707 2.507812 2.9939039 3.0003 0 0 0-2.989707-3.507812z"
     style="fill:#ffffff;opacity:.2"
     id="path26" />
</svg>
