<?xml version="1.0" encoding="UTF-8" standalone="no"?>
<svg
   xmlns:dc="http://purl.org/dc/elements/1.1/"
   xmlns:cc="http://creativecommons.org/ns#"
   xmlns:rdf="http://www.w3.org/1999/02/22-rdf-syntax-ns#"
   xmlns:svg="http://www.w3.org/2000/svg"
   xmlns="http://www.w3.org/2000/svg"
   xmlns:sodipodi="http://sodipodi.sourceforge.net/DTD/sodipodi-0.dtd"
   xmlns:inkscape="http://www.inkscape.org/namespaces/inkscape"
   width="48"
   height="48"
   version="1"
   id="svg24"
   sodipodi:docname="accessories-camera.svg"
   inkscape:version="0.92.5 (2060ec1f9f, 2020-04-08)">
  <metadata
     id="metadata30">
    <rdf:RDF>
      <cc:Work
         rdf:about="">
        <dc:format>image/svg+xml</dc:format>
        <dc:type
           rdf:resource="http://purl.org/dc/dcmitype/StillImage" />
      </cc:Work>
    </rdf:RDF>
  </metadata>
  <defs
     id="defs28" />
  <sodipodi:namedview
     pagecolor="#ffffff"
     bordercolor="#666666"
     borderopacity="1"
     objecttolerance="10"
     gridtolerance="10"
     guidetolerance="10"
     inkscape:pageopacity="0"
     inkscape:pageshadow="2"
     inkscape:window-width="783"
     inkscape:window-height="480"
     id="namedview26"
     showgrid="false"
     inkscape:zoom="4.9166667"
     inkscape:cx="24"
     inkscape:cy="24"
     inkscape:window-x="0"
     inkscape:window-y="28"
     inkscape:window-maximized="0"
     inkscape:current-layer="svg24" />
  <path
     style="opacity:0.2"
     d="m 24,36 c 0,0 12,3 12,5 v 2 c 0,1.108 -0.892,2 -2,2 H 14 c -1.108,0 -2,-0.892 -2,-2 v -2 c 0,-2 12,-5 12,-5 z"
     id="path2" />
  <path
     style="fill:#4c566a;fill-opacity:1"
     d="m 24,35 c 0,0 12,3 12,5 v 2 c 0,1.108 -0.892,2 -2,2 H 14 c -1.108,0 -2,-0.892 -2,-2 v -2 c 0,-2 12,-5 12,-5 z"
     id="path4" />
  <circle
     style="opacity:0.2"
     cx="24"
     cy="23"
     r="18"
     id="circle6" />
  <circle
     style="fill:#4c566a;fill-opacity:1"
     cx="24"
     cy="22"
     r="18"
     id="circle8" />
  <circle
     style="fill:#2f2f2f"
     cx="24"
     cy="-22"
     r="13"
     transform="scale(1,-1)"
     id="circle10" />
  <circle
     style="opacity:0.2"
     cx="24"
     cy="-23"
     r="10"
     transform="scale(1,-1)"
     id="circle12" />
  <circle
     style="fill:#414b5f;fill-opacity:1"
     cx="24"
     cy="-22"
     r="10"
     transform="scale(1,-1)"
     id="circle14" />
  <circle
     style="opacity:0.2"
     cx="24"
     cy="23"
     r="6"
     id="circle16" />
  <circle
     style="fill:#ffffff;fill-opacity:1"
     cx="24"
     cy="22"
     r="6"
     id="circle18" />
  <path
     style="opacity:0.2;fill:#ffffff"
     d="m 24,16.000001 a 6,6 0 0 0 -6,6 6,6 0 0 0 0.02148,0.494141 A 6,6 0 0 1 24,17.000001 6,6 0 0 1 29.978516,22.50586 6,6 0 0 0 30,22.000001 a 6,6 0 0 0 -6,-6 z"
     id="path20" />
  <path
     style="opacity:0.1;fill:#ffffff"
     d="M 23.910156 4 A 18 18 0 0 0 6 22 A 18 18 0 0 0 6.0078125 22.503906 A 18 18 0 0 1 24 5 A 18 18 0 0 1 41.992188 22.496094 A 18 18 0 0 0 42 22 A 18 18 0 0 0 24 4 A 18 18 0 0 0 23.910156 4 z"
     id="path22" />
</svg>
