<?xml version="1.0" encoding="UTF-8" standalone="no"?>
<svg
   xmlns:dc="http://purl.org/dc/elements/1.1/"
   xmlns:cc="http://creativecommons.org/ns#"
   xmlns:rdf="http://www.w3.org/1999/02/22-rdf-syntax-ns#"
   xmlns:svg="http://www.w3.org/2000/svg"
   xmlns="http://www.w3.org/2000/svg"
   xmlns:sodipodi="http://sodipodi.sourceforge.net/DTD/sodipodi-0.dtd"
   xmlns:inkscape="http://www.inkscape.org/namespaces/inkscape"
   width="48"
   height="48"
   version="1"
   id="svg12"
   sodipodi:docname="aarddict.svg"
   inkscape:version="0.92.5 (2060ec1f9f, 2020-04-08)">
  <metadata
     id="metadata18">
    <rdf:RDF>
      <cc:Work
         rdf:about="">
        <dc:format>image/svg+xml</dc:format>
        <dc:type
           rdf:resource="http://purl.org/dc/dcmitype/StillImage" />
      </cc:Work>
    </rdf:RDF>
  </metadata>
  <defs
     id="defs16" />
  <sodipodi:namedview
     pagecolor="#ffffff"
     bordercolor="#666666"
     borderopacity="1"
     objecttolerance="10"
     gridtolerance="10"
     guidetolerance="10"
     inkscape:pageopacity="0"
     inkscape:pageshadow="2"
     inkscape:window-width="783"
     inkscape:window-height="480"
     id="namedview14"
     showgrid="false"
     inkscape:zoom="3.4766083"
     inkscape:cx="30.705856"
     inkscape:cy="19.472742"
     inkscape:window-x="0"
     inkscape:window-y="28"
     inkscape:window-maximized="0"
     inkscape:current-layer="svg12" />
  <rect
     fill="#e4e4e4"
     width="40"
     height="40"
     x="4"
     y="4"
     rx="2"
     ry="2"
     id="rect2"
     style="fill:#4c566a;fill-opacity:1" />
  <path
     opacity=".1"
     transform="matrix(0,-1,-1,0,0,0)"
     d="m-42-44h36c1.108 0 2 0.892 2 2v18h-40v-18c0-1.108 0.892-2 2-2z"
     id="path4" />
  <path
     fill="#fff"
     opacity=".2"
     d="m6 4c-1.108 0-2 0.892-2 2v1c0-1.108 0.892-2 2-2h36c1.108 0 2 0.892 2 2v-1c0-1.108-0.892-2-2-2h-36z"
     id="path6" />
  <path
     opacity=".2"
     d="m6 45c-1.108 0-2-0.892-2-2v-1c0 1.108 0.892 2 2 2h36c1.108 0 2-0.892 2-2v1c0 1.108-0.892 2-2 2h-36z"
     id="path8" />
  <path
     fill="#c2352a"
     d="m20 3c-1 0-1 1.0286-1 1.0286v16.971l2.5-1.543 2.5 1.543v-16.971c0-1.029-1-1.029-1-1.029z"
     id="path10"
     style="fill:#ffffff;fill-opacity:1" />
</svg>
