<?xml version="1.0" encoding="UTF-8" standalone="no"?>
<svg
   xmlns:dc="http://purl.org/dc/elements/1.1/"
   xmlns:cc="http://creativecommons.org/ns#"
   xmlns:rdf="http://www.w3.org/1999/02/22-rdf-syntax-ns#"
   xmlns:svg="http://www.w3.org/2000/svg"
   xmlns="http://www.w3.org/2000/svg"
   xmlns:sodipodi="http://sodipodi.sourceforge.net/DTD/sodipodi-0.dtd"
   xmlns:inkscape="http://www.inkscape.org/namespaces/inkscape"
   width="48"
   height="48"
   version="1.1"
   id="svg22"
   sodipodi:docname="acreloaded.svg"
   inkscape:version="0.92.5 (2060ec1f9f, 2020-04-08)">
  <metadata
     id="metadata28">
    <rdf:RDF>
      <cc:Work
         rdf:about="">
        <dc:format>image/svg+xml</dc:format>
        <dc:type
           rdf:resource="http://purl.org/dc/dcmitype/StillImage" />
      </cc:Work>
    </rdf:RDF>
  </metadata>
  <defs
     id="defs26" />
  <sodipodi:namedview
     pagecolor="#ffffff"
     bordercolor="#666666"
     borderopacity="1"
     objecttolerance="10"
     gridtolerance="10"
     guidetolerance="10"
     inkscape:pageopacity="0"
     inkscape:pageshadow="2"
     inkscape:window-width="783"
     inkscape:window-height="480"
     id="namedview24"
     showgrid="false"
     inkscape:zoom="4.9166667"
     inkscape:cx="24"
     inkscape:cy="24"
     inkscape:window-x="0"
     inkscape:window-y="28"
     inkscape:window-maximized="0"
     inkscape:current-layer="svg22" />
  <path
     style="opacity:0.2"
     d="M 24.095228,4.0011238 A 4.0976173,4.0389188 0 0 0 21.950596,4.5406443 L 7.0486035,13.021525 a 4.0976173,4.0389188 0 0 0 -2.0486037,3.497417 v 16.961763 a 4.0976173,4.0389188 0 0 0 2.0486037,3.497417 l 14.9019925,8.480882 a 4.0976173,4.0389188 0 0 0 4.097207,0 L 40.951395,36.978122 A 4.0976173,4.0389188 0 0 0 43,33.480705 V 16.518942 A 4.0976173,4.0389188 0 0 0 40.951395,13.021525 L 26.047803,4.5406443 A 4.0976173,4.0389188 0 0 0 24.095228,4.0011238 Z"
     id="path2" />
  <path
     style="fill:#4c566a;fill-opacity:1"
     d="M 24.095228,3.0011236 A 4.0976173,4.0389188 0 0 0 21.950596,3.5406441 L 7.0486035,12.021525 a 4.0976173,4.0389188 0 0 0 -2.0486037,3.497417 v 16.961763 a 4.0976173,4.0389188 0 0 0 2.0486037,3.497417 l 14.9019925,8.480882 a 4.0976173,4.0389188 0 0 0 4.097207,0 L 40.951395,35.978122 A 4.0976173,4.0389188 0 0 0 43,32.480705 V 15.518942 A 4.0976173,4.0389188 0 0 0 40.951395,12.021525 L 26.047803,3.5406441 A 4.0976173,4.0389188 0 0 0 24.095228,3.0011236 Z"
     id="path4" />
  <path
     style="opacity:0.3;fill:#ffffff"
     d="M 24.095703 3.0019531 A 4.0976173 4.0389188 0 0 0 21.951172 3.5410156 L 7.0488281 12.021484 A 4.0976173 4.0389188 0 0 0 5.3125 13.986328 L 24 23 L 42.689453 13.984375 A 4.0976173 4.0389188 0 0 0 40.951172 12.021484 L 26.046875 3.5410156 A 4.0976173 4.0389188 0 0 0 24.095703 3.0019531 z"
     id="path6" />
  <path
     style="opacity:0.2;fill:#ffffff"
     d="M 24.095703 3.0019531 A 4.0976173 4.0389188 0 0 0 21.951172 3.5410156 L 7.0488281 12.021484 A 4.0976173 4.0389188 0 0 0 5 15.519531 L 5 16.519531 A 4.0976173 4.0389188 0 0 1 7.0488281 13.021484 L 21.951172 4.5410156 A 4.0976173 4.0389188 0 0 1 24.095703 4.0019531 A 4.0976173 4.0389188 0 0 1 26.046875 4.5410156 L 40.951172 13.021484 A 4.0976173 4.0389188 0 0 1 43 16.519531 L 43 15.519531 A 4.0976173 4.0389188 0 0 0 40.951172 12.021484 L 26.046875 3.5410156 A 4.0976173 4.0389188 0 0 0 24.095703 3.0019531 z"
     id="path8" />
  <path
     style="fill:#ffffff;opacity:0.15"
     d="M 40.951172 12.021484 A 4.0976173 4.0389188 0 0 1 41.142578 12.138672 A 4.0976173 4.0389188 0 0 0 40.951172 12.021484 z M 41.197266 12.177734 A 4.0976173 4.0389188 0 0 1 41.46875 12.373047 A 4.0976173 4.0389188 0 0 0 41.197266 12.177734 z M 41.578125 12.466797 A 4.0976173 4.0389188 0 0 1 41.775391 12.642578 A 4.0976173 4.0389188 0 0 0 41.578125 12.466797 z M 41.837891 12.707031 A 4.0976173 4.0389188 0 0 1 42.060547 12.949219 A 4.0976173 4.0389188 0 0 0 41.837891 12.707031 z M 42.060547 12.949219 A 4.0976173 4.0389188 0 0 1 42.513672 13.615234 A 4.0976173 4.0389188 0 0 0 42.060547 12.949219 z M 42.529297 13.648438 A 4.0976173 4.0389188 0 0 1 42.689453 13.984375 A 4.0976173 4.0389188 0 0 0 42.529297 13.648438 z M 42.689453 13.984375 L 24 23 L 24 44.996094 A 4.0976173 4.0389188 0 0 0 26.046875 44.458984 L 40.951172 35.978516 A 4.0976173 4.0389188 0 0 0 43 32.480469 L 43 15.519531 A 4.0976173 4.0389188 0 0 0 42.689453 13.984375 z"
     id="path10" />
  <path
     style="opacity:0.1"
     d="M 42.248047,14.197266 24,23 5.7539062,14.199219 A 4.0976173,4.0389188 0 0 0 5.3125,14.986328 L 24,24 42.689453,14.984375 a 4.0976173,4.0389188 0 0 0 -0.441406,-0.787109 z"
     id="path12" />
  <rect
     style="opacity:0.2"
     width="20"
     height="20"
     x="26"
     y="27"
     rx="2"
     ry="2"
     id="rect14" />
  <rect
     style="fill:#4b5569;fill-opacity:1"
     width="20"
     height="20"
     x="26"
     y="26"
     rx="2"
     ry="2"
     id="rect16" />
  <rect
     style="fill:#ffffff"
     width="4"
     height="14"
     x="34"
     y="29"
     id="rect18" />
  <rect
     style="fill:#ffffff"
     width="4"
     height="14"
     x="34"
     y="-43"
     transform="rotate(90)"
     id="rect20" />
</svg>
