<?xml version="1.0" encoding="UTF-8" standalone="no"?>
<svg
   xmlns:dc="http://purl.org/dc/elements/1.1/"
   xmlns:cc="http://creativecommons.org/ns#"
   xmlns:rdf="http://www.w3.org/1999/02/22-rdf-syntax-ns#"
   xmlns:svg="http://www.w3.org/2000/svg"
   xmlns="http://www.w3.org/2000/svg"
   xmlns:sodipodi="http://sodipodi.sourceforge.net/DTD/sodipodi-0.dtd"
   xmlns:inkscape="http://www.inkscape.org/namespaces/inkscape"
   width="48"
   height="48"
   version="1.1"
   id="svg16"
   sodipodi:docname="actiona.svg"
   inkscape:version="0.92.5 (2060ec1f9f, 2020-04-08)">
  <metadata
     id="metadata22">
    <rdf:RDF>
      <cc:Work
         rdf:about="">
        <dc:format>image/svg+xml</dc:format>
        <dc:type
           rdf:resource="http://purl.org/dc/dcmitype/StillImage" />
      </cc:Work>
    </rdf:RDF>
  </metadata>
  <defs
     id="defs20" />
  <sodipodi:namedview
     pagecolor="#ffffff"
     bordercolor="#666666"
     borderopacity="1"
     objecttolerance="10"
     gridtolerance="10"
     guidetolerance="10"
     inkscape:pageopacity="0"
     inkscape:pageshadow="2"
     inkscape:window-width="794"
     inkscape:window-height="846"
     id="namedview18"
     showgrid="false"
     inkscape:zoom="4.9166667"
     inkscape:cx="24"
     inkscape:cy="24"
     inkscape:window-x="0"
     inkscape:window-y="28"
     inkscape:window-maximized="0"
     inkscape:current-layer="g14" />
  <g
     transform="matrix(2,0,0,2,2,2)"
     id="g14">
    <path
       d="m2 21.5h4l5-11 5 11h4l-7-15h-4z"
       style="opacity:.2"
       id="path2" />
    <path
       d="m2 21h4l5-11 5 11h4l-7-15h-4z"
       style="fill:#5f697d;fill-opacity:1"
       id="path4" />
    <path
       d="M 9,6 2,21 H 2.2324219 L 9,6.5 h 4 L 19.767578,21 H 20 L 13,6 Z"
       style="fill:#ffffff;opacity:.1"
       id="path6" />
    <path
       d="m5 1.5c-2.216 0-4 1.784-4 4v8c0 2.216 1.784 4 4 4h12c2.216 0 4-1.784 4-4v-8c0-2.216-1.784-4-4-4h-3v4h1c1.108 0 2 0.892 2 2v4c0 1.108-0.892 2-2 2h-8c-1.108 0-2-0.892-2-2v-4c0-1.108 0.892-2 2-2h1v-4z"
       style="opacity:.2"
       id="path8" />
    <path
       d="m5 1c-2.216 0-4 1.784-4 4v8c0 2.216 1.784 4 4 4h12c2.216 0 4-1.784 4-4v-8c0-2.216-1.784-4-4-4h-3v4h1c1.108 0 2 0.892 2 2v4c0 1.108-0.892 2-2 2h-8c-1.108 0-2-0.892-2-2v-4c0-1.108 0.892-2 2-2h1v-4z"
       style="fill:#4c566a;fill-opacity:1"
       id="path10" />
    <path
       d="m5 1c-2.216 0-4 1.784-4 4v0.5c0-2.216 1.784-4 4-4h3v-0.5zm9 0v0.5h3c2.216 0 4 1.784 4 4v-0.5c0-2.216-1.784-4-4-4zm-9 10v0.5c0 1.108 0.892 2 2 2h8c1.108 0 2-0.892 2-2v-0.5c0 1.108-0.892 2-2 2h-8c-1.108 0-2-0.892-2-2z"
       style="fill:#ffffff;opacity:.2"
       id="path12" />
  </g>
</svg>
