<?xml version="1.0" encoding="UTF-8" standalone="no"?>
<svg
   xmlns:dc="http://purl.org/dc/elements/1.1/"
   xmlns:cc="http://creativecommons.org/ns#"
   xmlns:rdf="http://www.w3.org/1999/02/22-rdf-syntax-ns#"
   xmlns:svg="http://www.w3.org/2000/svg"
   xmlns="http://www.w3.org/2000/svg"
   xmlns:sodipodi="http://sodipodi.sourceforge.net/DTD/sodipodi-0.dtd"
   xmlns:inkscape="http://www.inkscape.org/namespaces/inkscape"
   height="48"
   width="48"
   version="1.1"
   id="svg22"
   sodipodi:docname="AdobeFuse.svg"
   inkscape:version="0.92.5 (2060ec1f9f, 2020-04-08)">
  <metadata
     id="metadata28">
    <rdf:RDF>
      <cc:Work
         rdf:about="">
        <dc:format>image/svg+xml</dc:format>
        <dc:type
           rdf:resource="http://purl.org/dc/dcmitype/StillImage" />
      </cc:Work>
    </rdf:RDF>
  </metadata>
  <defs
     id="defs26" />
  <sodipodi:namedview
     pagecolor="#ffffff"
     bordercolor="#666666"
     borderopacity="1"
     objecttolerance="10"
     gridtolerance="10"
     guidetolerance="10"
     inkscape:pageopacity="0"
     inkscape:pageshadow="2"
     inkscape:window-width="783"
     inkscape:window-height="480"
     id="namedview24"
     showgrid="false"
     inkscape:zoom="4.9166667"
     inkscape:cx="24"
     inkscape:cy="24"
     inkscape:window-x="0"
     inkscape:window-y="28"
     inkscape:window-maximized="0"
     inkscape:current-layer="svg22" />
  <rect
     style="fill:#4c566a;fill-opacity:1"
     rx="2"
     ry="2"
     height="40"
     width="40"
     y="4"
     x="4"
     id="rect2" />
  <path
     style="opacity:.1;fill:#ffffff"
     d="m6 4c-1.108 0-2 0.892-2 2v1c0-1.108 0.892-2 2-2h36c1.108 0 2 0.892 2 2v-1c0-1.108-0.892-2-2-2z"
     id="path4" />
  <path
     style="opacity:.2"
     d="m4 42v1c0 1.108 0.892 2 2 2h36c1.108 0 2-0.892 2-2v-1c0 1.108-0.892 2-2 2h-36c-1.108 0-2-0.892-2-2z"
     id="path6" />
  <g
     style="opacity:.2"
     transform="matrix(.16831 0 0 .16951 -1.2902 .30495)"
     id="g10">
    <path
       d="m162.15 175.18c5.109 3.135 14.876 11.799 23.094 11.799 8.396 0 15.525-4.236 15.525-8.849 0-4.619-2.8343-10.288-13.241-13.796-18.439-6.279-25.559-13.795-25.375-24.315 0-16.991 14.238-29.731 36.328-29.731 10.407 0 17.61 3.1313 23.084 5.8993v17.698c-4.019-2.218-14.504-5.8993-22.17-5.8993-6.758 0-13.479 4.463-13.479 9.076 0 5.9349 6.3605 6.464 17.313 10.344 16.976 5.908 24.096 14.584 24.277 27.879 0 16.805-12.954 30.168-38.701 29.357-8.835-0.278-19.901-2.1752-26.656-5.8642-0.00019-6.7093-0.00014-16.888 0.001-23.597z"
       id="path8" />
  </g>
  <g
     style="fill:#ffffff;fill-opacity:1"
     id="g16">
    <g
       style="fill:#ffffff;fill-opacity:1"
       transform="matrix(.16831 0 0 .16951 -1.2902 -.69505)"
       id="g14">
      <path
         style="fill:#ffffff;fill-opacity:1"
         d="m162.15 175.18c5.109 3.135 14.876 11.799 23.094 11.799 8.396 0 15.525-4.236 15.525-8.849 0-4.619-2.8343-10.288-13.241-13.796-18.439-6.279-25.559-13.795-25.375-24.315 0-16.991 14.238-29.731 36.328-29.731 10.407 0 17.61 3.1313 23.084 5.8993v17.698c-4.019-2.218-14.504-5.8993-22.17-5.8993-6.758 0-13.479 4.463-13.479 9.076 0 5.9349 6.3605 6.464 17.313 10.344 16.976 5.908 24.096 14.584 24.277 27.879 0 16.805-12.954 30.168-38.701 29.357-8.835-0.278-19.901-2.1752-26.656-5.8642-0.00019-6.7093-0.00014-16.888 0.001-23.597z"
         id="path12" />
    </g>
  </g>
  <path
     style="opacity:.2"
     d="m11 15v20h4v-6h8v-3.007812h-8v-7.992188h9l-1-3h-8z"
     id="path18" />
  <path
     style="fill:#ffffff;fill-opacity:1"
     d="m11 14v20h4v-6h8v-3.007812h-8v-7.992188h9l-1-3h-8-4z"
     id="path20" />
</svg>
