<?xml version="1.0" encoding="UTF-8" standalone="no"?>
<svg
   xmlns:dc="http://purl.org/dc/elements/1.1/"
   xmlns:cc="http://creativecommons.org/ns#"
   xmlns:rdf="http://www.w3.org/1999/02/22-rdf-syntax-ns#"
   xmlns:svg="http://www.w3.org/2000/svg"
   xmlns="http://www.w3.org/2000/svg"
   xmlns:sodipodi="http://sodipodi.sourceforge.net/DTD/sodipodi-0.dtd"
   xmlns:inkscape="http://www.inkscape.org/namespaces/inkscape"
   width="48"
   height="48"
   version="1.1"
   id="svg16"
   sodipodi:docname="AdobeSpeedgrade.svg"
   inkscape:version="0.92.5 (2060ec1f9f, 2020-04-08)">
  <metadata
     id="metadata22">
    <rdf:RDF>
      <cc:Work
         rdf:about="">
        <dc:format>image/svg+xml</dc:format>
        <dc:type
           rdf:resource="http://purl.org/dc/dcmitype/StillImage" />
      </cc:Work>
    </rdf:RDF>
  </metadata>
  <defs
     id="defs20" />
  <sodipodi:namedview
     pagecolor="#ffffff"
     bordercolor="#666666"
     borderopacity="1"
     objecttolerance="10"
     gridtolerance="10"
     guidetolerance="10"
     inkscape:pageopacity="0"
     inkscape:pageshadow="2"
     inkscape:window-width="783"
     inkscape:window-height="480"
     id="namedview18"
     showgrid="false"
     inkscape:zoom="4.9166667"
     inkscape:cx="24"
     inkscape:cy="24"
     inkscape:window-x="0"
     inkscape:window-y="28"
     inkscape:window-maximized="0"
     inkscape:current-layer="svg16" />
  <rect
     x="4"
     y="4"
     width="40"
     height="40"
     rx="2"
     ry="2"
     style="fill:#4c566a;fill-opacity:1"
     id="rect2" />
  <path
     d="m6 4c-1.108 0-2 0.892-2 2v1c0-1.108 0.892-2 2-2h36c1.108 0 2 0.892 2 2v-1c0-1.108-0.892-2-2-2z"
     style="fill:#ffffff;opacity:.1"
     id="path4" />
  <path
     d="m4 42v1c0 1.108 0.892 2 2 2h36c1.108 0 2-0.892 2-2v-1c0 1.108-0.892 2-2 2h-36c-1.108 0-2-0.892-2-2z"
     style="opacity:.2"
     id="path6" />
  <path
     d="m24 21v-4s-2-2-6-2-6 3.171573-6 6c0 6 8 6 8 8 0 0.94281-1.057191 2-2 2-2 0-7-2-7-2v4s3 2 7 2 6-2 6-6c0-6-8-6-8-8 0-0.942809 0.727607-2 2-2 4 0 6 2 6 2z"
     style="opacity:.2"
     id="path8" />
  <path
     d="m24 20v-4s-2-2-6-2-6 3.171573-6 6c0 6 8 6 8 8 0 0.94281-1.057191 2-2 2-2 0-7-2-7-2v4s3 2 7 2 6-2 6-6c0-6-8-6-8-8 0-0.942809 0.727607-2 2-2 4 0 6 2 6 2z"
     style="fill:#ffffff;fill-opacity:1"
     id="path10" />
  <path
     d="m31.0002 19.0822c-2.761424 0-5 2.686292-5 6s2.238576 6 5 6c0.335987-0.0012 0.671013-0.04312 1-0.125v2.125s0 2-2 2c-1.490684 0-4-2-4-2v4s2.000138 2.023485 4 2c6.9998-0.0822 6.9998-6.0822 6.9998-6.0822v-14l-4.9998 0.0822v0.125c-0.328987-0.08188-0.664013-0.123758-1-0.125zm1 4c1.104569 0 2 0.895431 2 2s-0.895431 2-2 2-2-0.895431-2-2 0.895431-2 2-2z"
     style="opacity:.2"
     id="path12" />
  <path
     d="m31.0002 18.0822c-2.761424 0-5 2.686292-5 6s2.238576 6 5 6c0.335987-0.0012 0.671013-0.04312 1-0.125v2.125s0 2-2 2c-1.490684 0-4-2-4-2v4s2.000138 2.023485 4 2c6.9998-0.0822 6.9998-6.0822 6.9998-6.0822v-14l-4.9998 0.0822v0.125c-0.328987-0.08188-0.664013-0.123758-1-0.125zm1 4c1.104569 0 2 0.895431 2 2s-0.895431 2-2 2-2-0.895431-2-2 0.895431-2 2-2z"
     style="fill:#fbfeff;fill-opacity:1"
     id="path14" />
</svg>
