<?xml version="1.0" encoding="UTF-8" standalone="no"?>
<svg
   xmlns:dc="http://purl.org/dc/elements/1.1/"
   xmlns:cc="http://creativecommons.org/ns#"
   xmlns:rdf="http://www.w3.org/1999/02/22-rdf-syntax-ns#"
   xmlns:svg="http://www.w3.org/2000/svg"
   xmlns="http://www.w3.org/2000/svg"
   xmlns:sodipodi="http://sodipodi.sourceforge.net/DTD/sodipodi-0.dtd"
   xmlns:inkscape="http://www.inkscape.org/namespaces/inkscape"
   width="48"
   height="48"
   version="1.1"
   id="svg16"
   sodipodi:docname="AdobeEdgeAnimate.svg"
   inkscape:version="0.92.5 (2060ec1f9f, 2020-04-08)">
  <metadata
     id="metadata22">
    <rdf:RDF>
      <cc:Work
         rdf:about="">
        <dc:format>image/svg+xml</dc:format>
        <dc:type
           rdf:resource="http://purl.org/dc/dcmitype/StillImage" />
      </cc:Work>
    </rdf:RDF>
  </metadata>
  <defs
     id="defs20" />
  <sodipodi:namedview
     pagecolor="#ffffff"
     bordercolor="#666666"
     borderopacity="1"
     objecttolerance="10"
     gridtolerance="10"
     guidetolerance="10"
     inkscape:pageopacity="0"
     inkscape:pageshadow="2"
     inkscape:window-width="783"
     inkscape:window-height="480"
     id="namedview18"
     showgrid="false"
     inkscape:zoom="4.9166667"
     inkscape:cx="24"
     inkscape:cy="24"
     inkscape:window-x="0"
     inkscape:window-y="28"
     inkscape:window-maximized="0"
     inkscape:current-layer="g14" />
  <g
     id="g14">
    <path
       d="m4 42v1c0 1.108 0.892 2 2 2h36c1.108 0 2-0.892 2-2v-1c0 1.108-0.892 2-2 2h-36c-1.108 0-2-0.892-2-2z"
       style="opacity:.2"
       id="path2" />
    <rect
       x="4"
       y="4"
       width="40"
       height="40"
       rx="2"
       ry="2"
       style="fill:#4c566a;fill-opacity:1"
       id="rect4" />
    <path
       d="m6 4c-1.108 0-2 0.892-2 2v1c0-1.108 0.892-2 2-2h36c1.108 0 2 0.892 2 2v-1c0-1.108-0.892-2-2-2z"
       style="fill:#ffffff;opacity:.1"
       id="path6" />
    <path
       d="m15 15-4 20h4l0.800781-6h3l1.199219 6h4l-5-20zm18 4c-4 0-7 1-7 1v15h3v-13h3s2 0 2 2v11h3v-12s0-4-4-4zm-16 1 1.199219 6h-2z"
       style="opacity:.2"
       id="path8" />
    <path
       d="m15 14-4 20h4l0.800781-6h3l1.199219 6h4l-5-20zm2 5 1.199219 6h-2z"
       style="fill:#ffffff;fill-opacity:1"
       id="path10" />
    <path
       d="m37 34v-12s0-4-4-4-7 1-7 1v15h3v-13h3s2 0 2 2v11z"
       style="fill:#ffffff;fill-opacity:1"
       id="path12" />
  </g>
</svg>
