<?xml version="1.0" encoding="UTF-8" standalone="no"?>
<svg
   xmlns:dc="http://purl.org/dc/elements/1.1/"
   xmlns:cc="http://creativecommons.org/ns#"
   xmlns:rdf="http://www.w3.org/1999/02/22-rdf-syntax-ns#"
   xmlns:svg="http://www.w3.org/2000/svg"
   xmlns="http://www.w3.org/2000/svg"
   xmlns:sodipodi="http://sodipodi.sourceforge.net/DTD/sodipodi-0.dtd"
   xmlns:inkscape="http://www.inkscape.org/namespaces/inkscape"
   width="48"
   height="48"
   version="1"
   id="svg18"
   sodipodi:docname="advanced-rest-client.svg"
   inkscape:version="0.92.5 (2060ec1f9f, 2020-04-08)">
  <metadata
     id="metadata24">
    <rdf:RDF>
      <cc:Work
         rdf:about="">
        <dc:format>image/svg+xml</dc:format>
        <dc:type
           rdf:resource="http://purl.org/dc/dcmitype/StillImage" />
      </cc:Work>
    </rdf:RDF>
  </metadata>
  <defs
     id="defs22" />
  <sodipodi:namedview
     pagecolor="#ffffff"
     bordercolor="#666666"
     borderopacity="1"
     objecttolerance="10"
     gridtolerance="10"
     guidetolerance="10"
     inkscape:pageopacity="0"
     inkscape:pageshadow="2"
     inkscape:window-width="640"
     inkscape:window-height="480"
     id="namedview20"
     showgrid="false"
     inkscape:zoom="4.9166667"
     inkscape:cx="-55.322034"
     inkscape:cy="24"
     inkscape:current-layer="svg18" />
  <rect
     style="opacity:0.2"
     width="40"
     height="40"
     x="4"
     y="5"
     rx="3"
     ry="3"
     id="rect2" />
  <rect
     style="fill:#4c566a;fill-opacity:1"
     width="40"
     height="40"
     x="4"
     y="4"
     rx="3"
     ry="3"
     id="rect4" />
  <path
     style="opacity:0.2"
     d="m 17,12 -5,6 -5,6 h 5 V 38 H 22 V 24 h 5 l -5,-6 z m 14,4 v 9 h -4 l 3.5,4 3.5,4 3.5,-4 3.5,-4 h -4 v -9 z"
     id="path6" />
  <path
     style="opacity:0.2;fill:#ffffff"
     d="M 7,4 C 5.338,4 4,5.338 4,7 V 8 C 4,6.338 5.338,5 7,5 h 34 c 1.662,0 3,1.338 3,3 V 7 C 44,5.338 42.662,4 41,4 Z"
     id="path8" />
  <rect
     style="fill:#ffffff"
     width="10"
     height="16"
     x="12"
     y="21"
     id="rect10" />
  <path
     style="fill:#ffffff"
     transform="matrix(1.3720843,0,0,0.95060788,-2.9540809,0.94233934)"
     d="m 14.542897,10.580241 3.644091,6.311751 3.644091,6.311751 -7.288182,0 -7.2881818,-1e-6 3.6440908,-6.31175 z"
     id="path12" />
  <rect
     style="fill:#ffffff;fill-opacity:1"
     width="6"
     height="11"
     x="31"
     y="-26"
     transform="scale(1,-1)"
     id="rect14" />
  <path
     style="fill:#ffffff;fill-opacity:1"
     transform="matrix(0.96045902,0,0,-0.63373859,20.032143,38.705107)"
     d="m 14.542897,10.580241 3.644091,6.311751 3.644091,6.311751 -7.288182,0 -7.2881818,-1e-6 3.6440908,-6.31175 z"
     id="path16" />
</svg>
