<?xml version="1.0" encoding="UTF-8" standalone="no"?>
<svg
   xmlns:dc="http://purl.org/dc/elements/1.1/"
   xmlns:cc="http://creativecommons.org/ns#"
   xmlns:rdf="http://www.w3.org/1999/02/22-rdf-syntax-ns#"
   xmlns:svg="http://www.w3.org/2000/svg"
   xmlns="http://www.w3.org/2000/svg"
   xmlns:sodipodi="http://sodipodi.sourceforge.net/DTD/sodipodi-0.dtd"
   xmlns:inkscape="http://www.inkscape.org/namespaces/inkscape"
   width="48"
   height="48"
   version="1"
   id="svg22"
   sodipodi:docname="aegisub.svg"
   inkscape:version="0.92.5 (2060ec1f9f, 2020-04-08)">
  <metadata
     id="metadata28">
    <rdf:RDF>
      <cc:Work
         rdf:about="">
        <dc:format>image/svg+xml</dc:format>
        <dc:type
           rdf:resource="http://purl.org/dc/dcmitype/StillImage" />
      </cc:Work>
    </rdf:RDF>
  </metadata>
  <defs
     id="defs26" />
  <sodipodi:namedview
     pagecolor="#ffffff"
     bordercolor="#666666"
     borderopacity="1"
     objecttolerance="10"
     gridtolerance="10"
     guidetolerance="10"
     inkscape:pageopacity="0"
     inkscape:pageshadow="2"
     inkscape:window-width="783"
     inkscape:window-height="480"
     id="namedview24"
     showgrid="false"
     inkscape:zoom="4.9166667"
     inkscape:cx="24"
     inkscape:cy="24"
     inkscape:window-x="0"
     inkscape:window-y="28"
     inkscape:window-maximized="0"
     inkscape:current-layer="svg22" />
  <path
     style="opacity:0.2"
     d="M 13.630008,6.6222498 A 4.7736627,4.8172081 10.871574 0 0 11.77976,8.4427157 L 3.643905,22.626222 a 4.7736627,4.8172081 10.871574 0 0 -0.008,4.816134 l 8.089072,14.156826 a 4.7736627,4.8172081 10.871574 0 0 4.131445,2.400811 l 16.224612,-0.02723 a 4.7736627,4.8172081 10.871574 0 0 4.139467,-2.414851 l 8.135644,-14.183874 a 4.7736627,4.8172081 10.871574 0 0 0.0079,-4.816134 L 36.275073,8.4010788 A 4.7736627,4.8172081 10.871574 0 0 32.143238,6.0000073 l -16.224403,0.027597 a 4.7736627,4.8172081 10.871574 0 0 -2.28958,0.5945966 z"
     id="path2" />
  <path
     style="fill:#4c566a;fill-opacity:1"
     d="M 13.630008,5.6222496 A 4.7736627,4.8172081 10.871574 0 0 11.77976,7.4427155 L 3.643905,21.626222 a 4.7736627,4.8172081 10.871574 0 0 -0.008,4.816134 l 8.089072,14.156826 a 4.7736627,4.8172081 10.871574 0 0 4.131445,2.400811 l 16.224612,-0.02723 a 4.7736627,4.8172081 10.871574 0 0 4.139467,-2.414851 l 8.135644,-14.183874 a 4.7736627,4.8172081 10.871574 0 0 0.0079,-4.816134 L 36.275073,7.4010786 A 4.7736627,4.8172081 10.871574 0 0 32.143238,5.0000071 l -16.224403,0.027597 a 4.7736627,4.8172081 10.871574 0 0 -2.28958,0.5945966 z"
     id="path4" />
  <path
     style="opacity:0.2"
     d="M 14.357422,5.3007812 A 4.7736627,4.8172081 10.871574 0 0 13.628906,5.6230469 4.7736627,4.8172081 10.871574 0 0 11.779297,7.4433594 L 3.6445312,21.626953 a 4.7736627,4.8172081 10.871574 0 0 -0.00781,4.814453 L 11.724609,40.599609 A 4.7736627,4.8172081 10.871574 0 0 15.855469,43 l 16.224609,-0.02734 a 4.7736627,4.8172081 10.871574 0 0 3.269531,-1.314453 L 14.357422,5.3007812 Z"
     id="path6" />
  <path
     style="opacity:0.2"
     d="M 33.955078,5.3652344 13,41.658203 c 0,0 -0.13409,0.207015 -0.164062,0.251953 A 4.7736627,4.8172081 10.871574 0 0 15.855469,43 l 16.224609,-0.02734 a 4.7736627,4.8172081 10.871574 0 0 4.140625,-2.414062 L 44.355469,26.375 a 4.7736627,4.8172081 10.871574 0 0 0.0078,-4.816406 L 36.275391,7.4003906 A 4.7736627,4.8172081 10.871574 0 0 33.955078,5.3652344 Z"
     id="path8" />
  <path
     style="opacity:0.2"
     d="m 3.0039062,24 a 4.7736627,4.8172081 10.871574 0 0 0.6328126,2.441406 L 11.724609,40.599609 A 4.7736627,4.8172081 10.871574 0 0 15.855469,43 l 16.224609,-0.02734 a 4.7736627,4.8172081 10.871574 0 0 4.140625,-2.414062 L 44.355469,26.375 A 4.7736627,4.8172081 10.871574 0 0 44.996094,24 L 3.0039062,24 Z"
     id="path10" />
  <path
     style="opacity:0.2"
     d="M 24,16 C 15,16 8,23 8,25.164062 8,28 15,34 24,34 33,34 40,27 40,25.164062 40,23 33,16 24,16 Z"
     id="path12" />
  <path
     style="fill:#ffffff"
     d="M 24,15 C 15,15 8,22 8,24.164062 8,27 15,33 24,33 33,33 40,26 40,24.164062 40,22 33,15 24,15 Z"
     id="path14" />
  <circle
     style="fill:#4c566a;fill-opacity:1"
     cx="24"
     cy="24"
     r="8"
     id="circle16" />
  <circle
     style="fill:#3f3f3f"
     cx="24"
     cy="24"
     r="4"
     id="circle18" />
  <path
     style="opacity:0.2;fill:#ffffff"
     d="M 32.142578,5 15.917969,5.0273438 A 4.7736627,4.8172081 10.871574 0 0 13.628906,5.6230469 4.7736627,4.8172081 10.871574 0 0 11.779297,7.4433594 L 3.6445312,21.626953 A 4.7736627,4.8172081 10.871574 0 0 3.0292969,24.537109 4.7736627,4.8172081 10.871574 0 1 3.6445312,22.626953 L 11.779297,8.4433594 A 4.7736627,4.8172081 10.871574 0 1 13.628906,6.6230469 4.7736627,4.8172081 10.871574 0 1 15.917969,6.0273438 L 32.142578,6 a 4.7736627,4.8172081 10.871574 0 1 4.132813,2.4003906 l 8.08789,14.1582034 a 4.7736627,4.8172081 10.871574 0 1 0.607422,1.904297 4.7736627,4.8172081 10.871574 0 0 -0.607422,-2.904297 L 36.275391,7.4003906 A 4.7736627,4.8172081 10.871574 0 0 32.142578,5 Z"
     id="path20" />
</svg>
