<?xml version="1.0" encoding="UTF-8" standalone="no"?>
<svg
   xmlns:dc="http://purl.org/dc/elements/1.1/"
   xmlns:cc="http://creativecommons.org/ns#"
   xmlns:rdf="http://www.w3.org/1999/02/22-rdf-syntax-ns#"
   xmlns:svg="http://www.w3.org/2000/svg"
   xmlns="http://www.w3.org/2000/svg"
   xmlns:sodipodi="http://sodipodi.sourceforge.net/DTD/sodipodi-0.dtd"
   xmlns:inkscape="http://www.inkscape.org/namespaces/inkscape"
   width="48"
   height="48"
   version="1.1"
   id="svg24"
   sodipodi:docname="agave.svg"
   inkscape:version="0.92.5 (2060ec1f9f, 2020-04-08)">
  <metadata
     id="metadata30">
    <rdf:RDF>
      <cc:Work
         rdf:about="">
        <dc:format>image/svg+xml</dc:format>
        <dc:type
           rdf:resource="http://purl.org/dc/dcmitype/StillImage" />
      </cc:Work>
    </rdf:RDF>
  </metadata>
  <defs
     id="defs28" />
  <sodipodi:namedview
     pagecolor="#ffffff"
     bordercolor="#666666"
     borderopacity="1"
     objecttolerance="10"
     gridtolerance="10"
     guidetolerance="10"
     inkscape:pageopacity="0"
     inkscape:pageshadow="2"
     inkscape:window-width="783"
     inkscape:window-height="480"
     id="namedview26"
     showgrid="false"
     inkscape:zoom="4.9166667"
     inkscape:cx="24"
     inkscape:cy="24"
     inkscape:window-x="0"
     inkscape:window-y="28"
     inkscape:window-maximized="0"
     inkscape:current-layer="svg24" />
  <path
     opacity=".2"
     d="m18.898 28.254c5.6955 3.2884 6.271 5.8093 5.1018 7.8344s-3.6402 2.7873-9.3357-0.50108c-5.6952-3.288-12.136-9.939-12.664-12.2 2.2217-0.67277 11.203 1.5789 16.898 4.8673z"
     id="path2" />
  <path
     fill="#80ffb3"
     d="m18.898 27.254c5.6955 3.2884 6.271 5.8093 5.1018 7.8344s-3.6402 2.7873-9.3357-0.50108c-5.6952-3.288-12.136-9.94-12.664-12.2 2.2217-0.673 11.203 1.579 16.898 4.867z"
     id="path4"
     style="fill:#737d91;fill-opacity:1" />
  <path
     opacity=".2"
     d="m23.499 26.753c3.2883 5.6956 2.5262 8.1666 0.50108 9.3358s-4.5462 0.5937-7.8344-5.1019c-3.2883-5.6954-5.5402-14.676-4.8673-16.898 2.2605 0.52818 8.9124 6.9688 12.201 12.664z"
     id="path6" />
  <path
     fill="#2aff80"
     d="m23.499 25.753c3.2883 5.6956 2.5262 8.1666 0.50108 9.3358s-4.5462 0.5937-7.8344-5.1019c-3.2883-5.6954-5.5402-14.676-4.8673-16.898 2.2605 0.52818 8.9124 6.9688 12.201 12.664z"
     id="path8"
     style="fill:#697387;fill-opacity:1" />
  <path
     opacity=".2"
     d="m33.336 35.588c-5.6955 3.2883-8.1666 2.5262-9.3357 0.50108s-0.59371-4.5462 5.1018-7.8344c5.6955-3.2883 14.676-5.5402 16.898-4.8673-0.5282 2.2605-6.9688 8.9124-12.664 12.201z"
     id="path10" />
  <path
     opacity=".2"
     d="m28.234 27.753c0 6.5766-1.8956 8.3355-4.2339 8.3355s-4.2339-1.7589-4.2339-8.3355 2.5403-15.48 4.2339-17.068c1.6936 1.5877 4.2339 10.491 4.2339 17.068z"
     id="path12" />
  <path
     fill="#00d455"
     d="m28.234 26.753c0 6.5766-1.8956 8.3355-4.2339 8.3355s-4.2339-1.7589-4.2339-8.3355 2.5403-15.48 4.2339-17.068c1.6936 1.5877 4.2339 10.491 4.2339 17.068z"
     id="path14"
     style="fill:#5f697d;fill-opacity:1" />
  <path
     fill="#0a4"
     d="m31.834 29.987c-3.2883 5.6956-5.8094 6.271-7.8344 5.1019-2.025-1.1692-2.7872-3.6402 0.50108-9.3358 3.2883-5.6954 9.9401-12.136 12.201-12.664 0.67281 2.2217-1.579 11.203-4.8673 16.898z"
     id="path16" />
  <path
     opacity=".2"
     d="m31.834 30.987c-3.2883 5.6956-5.8094 6.271-7.8344 5.1019-2.025-1.1692-2.7872-3.6402 0.50108-9.3358 3.2883-5.6954 9.9401-12.136 12.201-12.664 0.67281 2.2217-1.579 11.203-4.8673 16.898z"
     id="path18" />
  <path
     fill="#0a4"
     d="m31.834 29.987c-3.2883 5.6956-5.8094 6.271-7.8344 5.1019-2.025-1.1692-2.7872-3.6402 0.50108-9.3358 3.2883-5.6954 9.9401-12.136 12.201-12.664 0.67281 2.2217-1.579 11.203-4.8673 16.898z"
     id="path20"
     style="fill:#555f73;fill-opacity:1" />
  <path
     fill="#008033"
     d="m33.336 34.587c-5.6955 3.2883-8.1666 2.5262-9.3357 0.50108s-0.59371-4.5462 5.1018-7.8344c5.6955-3.2883 14.676-5.5402 16.898-4.8673-0.5282 2.2605-6.9688 8.9124-12.664 12.201z"
     id="path22"
     style="fill:#4c566a;fill-opacity:1" />
</svg>
