<?xml version="1.0" encoding="UTF-8" standalone="no"?>
<svg
   xmlns:dc="http://purl.org/dc/elements/1.1/"
   xmlns:cc="http://creativecommons.org/ns#"
   xmlns:rdf="http://www.w3.org/1999/02/22-rdf-syntax-ns#"
   xmlns:svg="http://www.w3.org/2000/svg"
   xmlns="http://www.w3.org/2000/svg"
   xmlns:sodipodi="http://sodipodi.sourceforge.net/DTD/sodipodi-0.dtd"
   xmlns:inkscape="http://www.inkscape.org/namespaces/inkscape"
   width="48"
   height="48"
   version="1.1"
   id="svg12"
   sodipodi:docname="agordejo.svg"
   inkscape:version="0.92.5 (2060ec1f9f, 2020-04-08)">
  <metadata
     id="metadata18">
    <rdf:RDF>
      <cc:Work
         rdf:about="">
        <dc:format>image/svg+xml</dc:format>
        <dc:type
           rdf:resource="http://purl.org/dc/dcmitype/StillImage" />
      </cc:Work>
    </rdf:RDF>
  </metadata>
  <defs
     id="defs16" />
  <sodipodi:namedview
     pagecolor="#ffffff"
     bordercolor="#666666"
     borderopacity="1"
     objecttolerance="10"
     gridtolerance="10"
     guidetolerance="10"
     inkscape:pageopacity="0"
     inkscape:pageshadow="2"
     inkscape:window-width="640"
     inkscape:window-height="480"
     id="namedview14"
     showgrid="false"
     inkscape:zoom="4.9166667"
     inkscape:cx="24"
     inkscape:cy="24"
     inkscape:current-layer="svg12" />
  <path
     d="m16 5c-0.957501 3.234e-4 -1.780477 0.6791756-1.962891 1.6191406l-6.9999996 36c-0.3209602 1.652605 1.418652 2.938303 2.9042968 2.146484l14.058594-7.498047 14.058594 7.498047c1.485645 0.79182 3.225257-0.493879 2.904297-2.146484l-7-36c-0.182414-0.939965-1.00539-1.6188172-1.962891-1.6191406z"
     style="opacity:.2"
     id="path2" />
  <path
     d="m16 4c-0.957501 3.234e-4 -1.780477 0.6791756-1.962891 1.6191406l-6.9999996 36c-0.3209602 1.652605 1.418652 2.938303 2.9042968 2.146484l14.058594-7.498047 14.058594 7.498047c1.485645 0.79182 3.225257-0.493879 2.904297-2.146484l-7-36c-0.182414-0.939965-1.00539-1.6188172-1.962891-1.6191406z"
     style="fill:#4c566a;fill-opacity:1"
     id="path4" />
  <path
     d="m24 32 5-9-5-9-5 9z"
     style="opacity:.2"
     id="path6" />
  <path
     d="m24 31 5-9-5-9-5 9z"
     style="fill:#ffffff"
     id="path8" />
  <path
     d="m16 4c-0.957501 3.234e-4 -1.780477 0.6791756-1.962891 1.6191406l-6.9999996 36c-0.0575076 0.296103-0.0302309 0.573231 0.03125 0.835937l6.9687496-35.835937c0.182414-0.939965 1.00539-1.6188172 1.962891-1.6191406h16c0.957501 3.234e-4 1.780477 0.6791756 1.962891 1.6191406l6.96875 35.835937c0.061481-0.262706 0.088757-0.539834 0.03125-0.835937l-7-36c-0.182414-0.939965-1.00539-1.6188172-1.962891-1.6191406h-16z"
     style="fill:#ffffff;opacity:.1"
     id="path10" />
</svg>
