<?xml version="1.0" encoding="UTF-8" standalone="no"?>
<svg
   xmlns:dc="http://purl.org/dc/elements/1.1/"
   xmlns:cc="http://creativecommons.org/ns#"
   xmlns:rdf="http://www.w3.org/1999/02/22-rdf-syntax-ns#"
   xmlns:svg="http://www.w3.org/2000/svg"
   xmlns="http://www.w3.org/2000/svg"
   xmlns:sodipodi="http://sodipodi.sourceforge.net/DTD/sodipodi-0.dtd"
   xmlns:inkscape="http://www.inkscape.org/namespaces/inkscape"
   height="48"
   width="48"
   version="1.1"
   id="svg12"
   sodipodi:docname="air.svg"
   inkscape:version="0.92.5 (2060ec1f9f, 2020-04-08)">
  <metadata
     id="metadata18">
    <rdf:RDF>
      <cc:Work
         rdf:about="">
        <dc:format>image/svg+xml</dc:format>
        <dc:type
           rdf:resource="http://purl.org/dc/dcmitype/StillImage" />
      </cc:Work>
    </rdf:RDF>
  </metadata>
  <defs
     id="defs16" />
  <sodipodi:namedview
     pagecolor="#ffffff"
     bordercolor="#666666"
     borderopacity="1"
     objecttolerance="10"
     gridtolerance="10"
     guidetolerance="10"
     inkscape:pageopacity="0"
     inkscape:pageshadow="2"
     inkscape:window-width="640"
     inkscape:window-height="480"
     id="namedview14"
     showgrid="false"
     inkscape:zoom="4.9166667"
     inkscape:cx="24"
     inkscape:cy="24"
     inkscape:current-layer="svg12" />
  <rect
     style="fill:#4c566a;fill-opacity:1"
     rx="2"
     ry="2"
     height="40"
     width="40"
     y="4"
     x="4"
     id="rect2" />
  <path
     style="opacity:.2;fill:#ffffff"
     d="m6 4c-1.108 0-2 0.892-2 2v1c0-1.108 0.892-2 2-2h36c1.108 0 2 0.892 2 2v-1c0-1.108-0.892-2-2-2z"
     id="path4" />
  <path
     style="opacity:.2"
     d="m6 45c-1.108 0-2-0.892-2-2v-1c0 1.108 0.892 2 2 2h36c1.108 0 2-0.892 2-2v1c0 1.108-0.892 2-2 2z"
     id="path6" />
  <path
     style="opacity:.2"
     d="m28 12c-3 0-4 2-4 2s-1 4-3 6-3 3-6 4c-0.948683 0.316228-4 2-4 4 0 3 0 6 4 6 3 0 4-1 9 0 2.941742 0.588348 5 4 7 4s4-1 4-1 2-1 2-3c0-3-5-6-5-10v-9s-1-3-4-3zm-2.5 10a4.5 4.5 0 0 1 4.5 4.5 4.5 4.5 0 0 1 -4.5 4.5 4.5 4.5 0 0 1 -4.5 -4.5 4.5 4.5 0 0 1 4.5 -4.5z"
     id="path8" />
  <path
     style="fill:#ffffff"
     d="m28 11c-3 0-4 2-4 2s-1 4-3 6-3 3-6 4c-0.948683 0.316228-4 2-4 4 0 3 0 6 4 6 3 0 4-1 9 0 2.941742 0.588348 5 4 7 4s4-1 4-1 2-1 2-3c0-3-5-6-5-10v-9s-1-3-4-3zm-2.5 10a4.5 4.5 0 0 1 4.5 4.5 4.5 4.5 0 0 1 -4.5 4.5 4.5 4.5 0 0 1 -4.5 -4.5 4.5 4.5 0 0 1 4.5 -4.5z"
     id="path10" />
</svg>
