<?xml version="1.0" encoding="UTF-8" standalone="no"?>
<svg
   xmlns:dc="http://purl.org/dc/elements/1.1/"
   xmlns:cc="http://creativecommons.org/ns#"
   xmlns:rdf="http://www.w3.org/1999/02/22-rdf-syntax-ns#"
   xmlns:svg="http://www.w3.org/2000/svg"
   xmlns="http://www.w3.org/2000/svg"
   xmlns:sodipodi="http://sodipodi.sourceforge.net/DTD/sodipodi-0.dtd"
   xmlns:inkscape="http://www.inkscape.org/namespaces/inkscape"
   width="48"
   height="48"
   version="1.1"
   id="svg24"
   sodipodi:docname="airstrike.svg"
   inkscape:version="0.92.5 (2060ec1f9f, 2020-04-08)">
  <metadata
     id="metadata30">
    <rdf:RDF>
      <cc:Work
         rdf:about="">
        <dc:format>image/svg+xml</dc:format>
        <dc:type
           rdf:resource="http://purl.org/dc/dcmitype/StillImage" />
      </cc:Work>
    </rdf:RDF>
  </metadata>
  <defs
     id="defs28" />
  <sodipodi:namedview
     pagecolor="#ffffff"
     bordercolor="#666666"
     borderopacity="1"
     objecttolerance="10"
     gridtolerance="10"
     guidetolerance="10"
     inkscape:pageopacity="0"
     inkscape:pageshadow="2"
     inkscape:window-width="783"
     inkscape:window-height="480"
     id="namedview26"
     showgrid="false"
     inkscape:zoom="4.9166667"
     inkscape:cx="24"
     inkscape:cy="24"
     inkscape:window-x="0"
     inkscape:window-y="28"
     inkscape:window-maximized="0"
     inkscape:current-layer="g22" />
  <g
     transform="matrix(2,0,0,2,2,2)"
     id="g22">
    <path
       d="m8 17.5h6l-1 4h-4z"
       style="opacity:.2"
       id="path2" />
    <path
       d="m12.50005 17.5v-4"
       style="fill:none;stroke-linecap:round;stroke-linejoin:round;stroke-width:1px;stroke:#e4e4e4"
       id="path4" />
    <path
       d="m9.5 17.5v-4"
       style="fill:none;stroke-linecap:round;stroke-linejoin:round;stroke-width:1px;stroke:#e4e4e4"
       id="path6" />
    <circle
       cx="11"
       cy="8.5"
       r="7"
       style="opacity:.2"
       id="circle8" />
    <circle
       cx="11"
       cy="8"
       r="7"
       style="fill:#4c566a;fill-opacity:1"
       id="circle10" />
    <path
       d="m8 17h6l-1 4h-4z"
       style="fill:#5f697d;fill-opacity:1"
       id="path12" />
    <path
       d="m11 15s-2-3-2-7 2-7 2-7-5 2-5 7 5 7 5 7z"
       style="fill:#e4e4e4"
       id="path14" />
    <path
       d="m11 15s2-3 2-7-2-7-2-7 5 2 5 7-5 7-5 7z"
       style="fill:#e4e4e4"
       id="path16" />
    <path
       d="M 11,1 A 7,7 0 0 0 4,8 7,7 0 0 0 4.0097656,8.2929688 7,7 0 0 1 11,1.5 7,7 0 0 1 17.990234,8.2070312 7,7 0 0 0 18,8 7,7 0 0 0 11,1 Z"
       style="fill:#ffffff;opacity:.2"
       id="path18" />
    <path
       d="m8 17 0.125 0.5h5.75l0.125-0.5z"
       style="fill:#ffffff;opacity:.1"
       id="path20" />
  </g>
</svg>
