<?xml version="1.0" encoding="UTF-8" standalone="no"?>
<svg
   xmlns:dc="http://purl.org/dc/elements/1.1/"
   xmlns:cc="http://creativecommons.org/ns#"
   xmlns:rdf="http://www.w3.org/1999/02/22-rdf-syntax-ns#"
   xmlns:svg="http://www.w3.org/2000/svg"
   xmlns="http://www.w3.org/2000/svg"
   xmlns:sodipodi="http://sodipodi.sourceforge.net/DTD/sodipodi-0.dtd"
   xmlns:inkscape="http://www.inkscape.org/namespaces/inkscape"
   width="48"
   height="48"
   version="1.1"
   id="svg24"
   sodipodi:docname="akira.svg"
   inkscape:version="0.92.5 (2060ec1f9f, 2020-04-08)">
  <metadata
     id="metadata30">
    <rdf:RDF>
      <cc:Work
         rdf:about="">
        <dc:format>image/svg+xml</dc:format>
        <dc:type
           rdf:resource="http://purl.org/dc/dcmitype/StillImage" />
      </cc:Work>
    </rdf:RDF>
  </metadata>
  <defs
     id="defs28" />
  <sodipodi:namedview
     pagecolor="#ffffff"
     bordercolor="#666666"
     borderopacity="1"
     objecttolerance="10"
     gridtolerance="10"
     guidetolerance="10"
     inkscape:pageopacity="0"
     inkscape:pageshadow="2"
     inkscape:window-width="783"
     inkscape:window-height="480"
     id="namedview26"
     showgrid="false"
     inkscape:zoom="6.9532167"
     inkscape:cx="22.659244"
     inkscape:cy="33.979489"
     inkscape:window-x="0"
     inkscape:window-y="28"
     inkscape:window-maximized="0"
     inkscape:current-layer="svg24" />
  <path
     style="opacity:0.2"
     d="M 24,5 A 20,20 0 0 0 4,25 20,20 0 0 0 24,45 20,20 0 0 0 44,25 20,20 0 0 0 24,5 Z"
     id="path2" />
  <path
     style="fill:#4c566a;fill-opacity:1"
     d="m24 4a20 20 0 0 0 -20 20 20 20 0 0 0 20 20 20 20 0 0 0 20 -20 20 20 0 0 0 -20 -20z"
     id="path4" />
  <path
     style="opacity:0.2;fill-rule:evenodd"
     d="M 22.620206,13.135935 C 22.650107,13.054295 22.703812,13 22.764993,13 c 0.04544,0 0.08695,0.0303 0.117443,0.07948 L 24,14 h 1 l 0.834834,-0.920503 c 0.03049,-0.04918 0.072,-0.07948 0.117639,-0.07948 0.06118,0 0.114689,0.05429 0.144591,0.135934 l -3.77e-4,-0.002 9.236277,22.964691 c 0.05016,0.112328 0.0301,0.147542 -0.100525,0.06138 l -13.584038,-8.210209 -8.330374,8.310112 c 0,0 9.294507,-23.103184 9.302179,-23.124036 z"
     id="path6" />
  <path
     fill="#ffffff"
     style="opacity:0.1"
     d="m24 4a20 20 0 0 0 -19.859 17.852 20 19 0 0 1 19.859 -16.852 20 19 0 0 1 19.922 17.447 20 20 0 0 0 -19.922 -18.447zm19.922 18.447a20 20 0 0 1 0.078 1.553 20 19 0 0 0 -0.078 -1.553zm-39.781-0.595a20 19 0 0 0 -0.0488 0.392 20 20 0 0 1 0.0488 -0.392zm-0.0488 0.392a20 20 0 0 0 -0.0918 1.756 20 19 0 0 1 0.0918 -1.756z"
     id="path8" />
  <path
     style="fill:#5f697d;fill-rule:evenodd;fill-opacity:1"
     d="m 17.546559,23.767507 c 0,-0.158218 0.270885,-0.286507 0.611607,-0.286507 0.01771,0 0.03521,1.91e-4 0.05272,9.63e-4 0.01397,5.63e-4 0.466033,0 0.466033,0 l -0.813641,2.129079 -0.910427,-0.345411 c 0,0 0.593706,-1.339896 0.593706,-1.498114 z"
     id="path10" />
  <path
     style="fill:#5f697d;fill-rule:evenodd;fill-opacity:1"
     d="m 22.751419,12 c 0,0 0.913864,0.726717 1.248581,1 h 1 c 0.277423,-0.348105 0.966047,-1 0.966047,-1 0,0 6.602406,16.225048 9.366917,23.098642 0.05016,0.112328 0.0301,0.147542 -0.100525,0.06138 l -13.584038,-8.210209 -8.330374,8.310112 z"
     id="path12" />
  <path
     style="opacity:0.2;fill-rule:evenodd"
     d="m 18.158166,25.009235 h 14.471039 c 0.09541,-3.65e-4 0.0899,0.03032 -9.93e-4,0.0871 L 12.760125,36.962293 c -0.12059,0.07149 -0.148131,0.04078 -0.08675,-0.0875 l 4.873188,-12.171128 c 0,0 -0.04544,0.277549 0.611607,0.30557 z"
     id="path14" />
  <path
     style="fill:#697387;fill-rule:evenodd;fill-opacity:1"
     d="m 18.158166,24.009235 h 14.471039 c 0.09541,-3.65e-4 0.0899,0.03032 -9.93e-4,0.0871 L 12.760125,35.962293 c -0.12059,0.07149 -0.148131,0.04078 -0.08675,-0.0875 l 4.873188,-12.171128 c 0,0 -0.04544,0.277549 0.611607,0.30557 z"
     id="path16" />
  <path
     style="opacity:0.2;fill-rule:evenodd"
     d="m 25.966047,13 h -3.214628 l 1.586757,2 z"
     id="path18" />
  <path
     style="fill:#697387;fill-rule:evenodd;fill-opacity:1"
     d="m 25.966047,12 h -3.214628 l 1.586757,2 z"
     id="path20" />
  <path
     style="fill:#ffffff;fill-rule:evenodd;opacity:0.2"
     d="M 17.546875 23.703125 L 12.673828 35.875 C 12.612447 36.00328 12.639176 36.034381 12.759766 35.962891 L 13.126953 35.744141 L 17.546875 24.703125 C 17.546875 24.703125 17.501156 24.981745 18.158203 25.009766 L 31.097656 25.009766 L 32.628906 24.095703 C 32.719799 24.038923 32.724316 24.009401 32.628906 24.009766 L 18.158203 24.009766 C 17.501156 23.981745 17.546875 23.703125 17.546875 23.703125 z"
     id="path22" />
</svg>
