<?xml version="1.0" encoding="UTF-8" standalone="no"?>
<svg
   xmlns:dc="http://purl.org/dc/elements/1.1/"
   xmlns:cc="http://creativecommons.org/ns#"
   xmlns:rdf="http://www.w3.org/1999/02/22-rdf-syntax-ns#"
   xmlns:svg="http://www.w3.org/2000/svg"
   xmlns="http://www.w3.org/2000/svg"
   xmlns:sodipodi="http://sodipodi.sourceforge.net/DTD/sodipodi-0.dtd"
   xmlns:inkscape="http://www.inkscape.org/namespaces/inkscape"
   width="48"
   height="48"
   version="1"
   id="svg12"
   sodipodi:docname="akregator.svg"
   inkscape:version="0.92.5 (2060ec1f9f, 2020-04-08)">
  <metadata
     id="metadata18">
    <rdf:RDF>
      <cc:Work
         rdf:about="">
        <dc:format>image/svg+xml</dc:format>
        <dc:type
           rdf:resource="http://purl.org/dc/dcmitype/StillImage" />
      </cc:Work>
    </rdf:RDF>
  </metadata>
  <defs
     id="defs16" />
  <sodipodi:namedview
     pagecolor="#ffffff"
     bordercolor="#666666"
     borderopacity="1"
     objecttolerance="10"
     gridtolerance="10"
     guidetolerance="10"
     inkscape:pageopacity="0"
     inkscape:pageshadow="2"
     inkscape:window-width="640"
     inkscape:window-height="480"
     id="namedview14"
     showgrid="false"
     inkscape:zoom="4.9166667"
     inkscape:cx="24"
     inkscape:cy="24"
     inkscape:current-layer="svg12" />
  <path
     inkscape:connector-curvature="0"
     d="m 44.20339,37.5 c 0,-20 -14,-34 -34,-34 -3.0000002,0 -6.0000002,3 -6.0000002,6 v 28 c 0,3 3,6 6.0000002,6 h 28 c 3,0 6,-3 6,-6 z"
     id="path2"
     style="fill:#4c566a;fill-opacity:1" />
  <path
     inkscape:connector-curvature="0"
     style="opacity:0.2"
     d="m 10.20339,16.5 c 0,1 1,2 2,2 9.9411,-10e-6 18,8.0589 18,18 0,1 0.90694,2 2,2 1,0 2,-1 2,-2 0,-12.15 -9.8497,-22 -22,-22 -1,0 -2,1 -2,2 z m 0,8 c 0,1 1,2 2,2 5.5229,-6e-6 10,4.4771 10,10 0,1 1,2 2,2 1,0 2,-1 2,-2 0,-7.732 -6.268,-14 -14,-14 -1,0 -2,1 -2,2 z m 4,6 c -2.2091,0 -4,1.7909 -4,4 0,2.209 1.791,4 4,4 2.2091,0 4,-1.7909 4,-4 0,-2.2091 -1.7909,-4 -4,-4 z"
     id="path4" />
  <path
     inkscape:connector-curvature="0"
     style="fill:#ffffff"
     d="m 10.20339,15.5 c 0,1 1,2 2,2 9.9411,-10e-6 18,8.0589 18,18 0,1 0.90694,2 2,2 1,0 2,-1 2,-2 0,-12.15 -9.8497,-22 -22,-22 -1,0 -2,1 -2,2 z m 0,8 c 0,1 1,2 2,2 5.5229,-6e-6 10,4.4771 10,10 0,1 1,2 2,2 1,0 2,-1 2,-2 0,-7.732 -6.268,-14 -14,-14 -1,0 -2,1 -2,2 z m 4,6 c -2.2091,0 -4,1.7909 -4,4 0,2.209 1.791,4 4,4 2.2091,0 4,-1.7909 4,-4 0,-2.2091 -1.7909,-4 -4,-4 z"
     id="path6" />
  <path
     inkscape:connector-curvature="0"
     style="opacity:0.1;fill:#ffffff"
     d="m 10.20339,3.5 c -3.0000002,0 -6.0000002,3 -6.0000002,6 v 1 c 0,-3 3,-6 6.0000002,-6 19.752,0 33.642,13.659 33.984,33.262 0.005,-0.087 0.016,-0.175 0.016,-0.262 0,-20 -14,-34 -34,-34 z"
     id="path8" />
  <path
     inkscape:connector-curvature="0"
     style="opacity:0.2"
     d="m 4.2033898,37.5 v 1 c 0,3 3,6 6.0000002,6 h 28 c 3,0 6,-3 6,-6 0,-0.248 -0.011,-0.492 -0.016,-0.738 -0.167,2.91 -3.071,5.738 -5.984,5.738 h -28 c -3.0000002,0 -6.0000002,-3 -6.0000002,-6 z"
     id="path10" />
</svg>
