<?xml version="1.0" encoding="UTF-8" standalone="no"?>
<svg
   xmlns:dc="http://purl.org/dc/elements/1.1/"
   xmlns:cc="http://creativecommons.org/ns#"
   xmlns:rdf="http://www.w3.org/1999/02/22-rdf-syntax-ns#"
   xmlns:svg="http://www.w3.org/2000/svg"
   xmlns="http://www.w3.org/2000/svg"
   xmlns:sodipodi="http://sodipodi.sourceforge.net/DTD/sodipodi-0.dtd"
   xmlns:inkscape="http://www.inkscape.org/namespaces/inkscape"
   width="48"
   height="48"
   version="1"
   id="svg30"
   sodipodi:docname="Alacritty.svg"
   inkscape:version="0.92.5 (2060ec1f9f, 2020-04-08)">
  <metadata
     id="metadata36">
    <rdf:RDF>
      <cc:Work
         rdf:about="">
        <dc:format>image/svg+xml</dc:format>
        <dc:type
           rdf:resource="http://purl.org/dc/dcmitype/StillImage" />
      </cc:Work>
    </rdf:RDF>
  </metadata>
  <defs
     id="defs34" />
  <sodipodi:namedview
     pagecolor="#ffffff"
     bordercolor="#666666"
     borderopacity="1"
     objecttolerance="10"
     gridtolerance="10"
     guidetolerance="10"
     inkscape:pageopacity="0"
     inkscape:pageshadow="2"
     inkscape:window-width="783"
     inkscape:window-height="480"
     id="namedview32"
     showgrid="false"
     inkscape:zoom="3.4766083"
     inkscape:cx="22.394106"
     inkscape:cy="27.698957"
     inkscape:window-x="0"
     inkscape:window-y="28"
     inkscape:window-maximized="0"
     inkscape:current-layer="svg30" />
  <rect
     style="opacity:0.2"
     width="40"
     height="34"
     x="4"
     y="9"
     rx="2.129"
     ry="2.155"
     id="rect2" />
  <rect
     style="fill:#4c566a;fill-opacity:1"
     width="36"
     height="4"
     x="6"
     y="6"
     rx="1.281"
     ry="1.386"
     id="rect4" />
  <path
     style="fill:#ffffff;fill-rule:evenodd;opacity:0.2"
     d="M 7.28125 6 C 6.5714977 6 6 6.6170909 6 7.3847656 L 6 8.3847656 C 6 7.6170909 6.5714977 7 7.28125 7 L 40.71875 7 C 41.428502 7 42 7.6170909 42 8.3847656 L 42 7.3847656 C 42 6.6170909 41.428502 6 40.71875 6 L 7.28125 6 z"
     id="path6" />
  <rect
     style="fill:#5f697d;fill-opacity:1"
     width="40"
     height="34"
     x="4"
     y="8"
     rx="2.129"
     ry="2.155"
     id="rect8" />
  <rect
     style="fill:#4c566a;fill-opacity:1"
     width="32"
     height="26"
     x="8"
     y="12"
     rx="0"
     ry="0"
     id="rect10" />
  <path
     style="opacity:0.2"
     d="m 21.973685,14.000332 h 4.052629 l 8.973686,22 H 31.236841 L 24,19.197401 16.763159,36.000332 H 13 Z"
     id="path12" />
  <path
     style="opacity:0.2"
     d="m 22.182062,28.175277 -0.570387,1.382001 c 1.53269,4.719616 1.53269,4.719616 2.388325,8.836722 0.855635,-4.117106 0.855635,-4.117106 2.388325,-8.836722 L 25.817938,28.175277 24,23.770564 Z"
     id="path14" />
  <path
     style="fill:#fdfeff;fill-opacity:1"
     d="m 22.182062,27.174945 -0.570387,1.382001 c 1.53269,4.719616 1.53269,4.719616 2.388325,8.836722 0.855635,-4.117106 0.855635,-4.117106 2.388325,-8.836722 L 25.817938,27.174945 24,22.770232 Z"
     id="path16" />
  <path
     style="fill:#fffbf6;fill-opacity:1"
     d="m 21.973685,13 h 4.052629 L 35,35 H 31.236841 L 24,18.197069 16.763159,35 H 13 Z"
     id="path18" />
  <rect
     style="opacity:0.2"
     width="32"
     height="1"
     x="8"
     y="12"
     id="rect20" />
  <rect
     style="opacity:0.2;fill:#ffffff"
     width="32"
     height="1"
     x="8"
     y="38"
     id="rect22" />
  <path
     style="opacity:0.2;fill:#ffffff;fill-rule:evenodd"
     d="M 6.1289062 8 C 4.9493085 8 4 8.9621398 4 10.15625 L 4 11.15625 C 4 9.9621398 4.9493085 9 6.1289062 9 L 41.871094 9 C 43.050692 9 44 9.9621398 44 11.15625 L 44 10.15625 C 44 8.9621398 43.050692 8 41.871094 8 L 6.1289062 8 z"
     id="path24" />
  <path
     style="fill:#ffffff;opacity:0.2"
     d="M 24 22.769531 L 22.181641 27.175781 L 21.611328 28.556641 C 21.688511 28.794309 21.723255 28.904281 21.792969 29.119141 L 22.181641 28.175781 L 24 23.771484 L 25.818359 28.175781 L 26.207031 29.119141 C 26.276745 28.904281 26.311489 28.794309 26.388672 28.556641 L 25.818359 27.175781 L 24 22.769531 z"
     id="path26" />
  <path
     style="fill:#ffffff;opacity:0.2"
     d="M 21.974609 13 L 13 35 L 13.408203 35 L 21.974609 14 L 26.025391 14 L 34.591797 35 L 35 35 L 26.025391 13 L 21.974609 13 z"
     id="path28" />
</svg>
