<?xml version="1.0" encoding="UTF-8" standalone="no"?>
<svg
   xmlns:dc="http://purl.org/dc/elements/1.1/"
   xmlns:cc="http://creativecommons.org/ns#"
   xmlns:rdf="http://www.w3.org/1999/02/22-rdf-syntax-ns#"
   xmlns:svg="http://www.w3.org/2000/svg"
   xmlns="http://www.w3.org/2000/svg"
   xmlns:sodipodi="http://sodipodi.sourceforge.net/DTD/sodipodi-0.dtd"
   xmlns:inkscape="http://www.inkscape.org/namespaces/inkscape"
   width="48"
   height="48"
   version="1"
   id="svg20"
   sodipodi:docname="alien-arena.svg"
   inkscape:version="0.92.5 (2060ec1f9f, 2020-04-08)">
  <metadata
     id="metadata26">
    <rdf:RDF>
      <cc:Work
         rdf:about="">
        <dc:format>image/svg+xml</dc:format>
        <dc:type
           rdf:resource="http://purl.org/dc/dcmitype/StillImage" />
      </cc:Work>
    </rdf:RDF>
  </metadata>
  <defs
     id="defs24" />
  <sodipodi:namedview
     pagecolor="#ffffff"
     bordercolor="#666666"
     borderopacity="1"
     objecttolerance="10"
     gridtolerance="10"
     guidetolerance="10"
     inkscape:pageopacity="0"
     inkscape:pageshadow="2"
     inkscape:window-width="783"
     inkscape:window-height="480"
     id="namedview22"
     showgrid="false"
     inkscape:zoom="4.9166667"
     inkscape:cx="24"
     inkscape:cy="24"
     inkscape:window-x="0"
     inkscape:window-y="28"
     inkscape:window-maximized="0"
     inkscape:current-layer="svg20" />
  <rect
     fill="#45b449"
     width="40"
     height="40"
     x="4"
     y="4"
     rx="20"
     ry="20"
     id="rect2"
     style="fill:#4c566a;fill-opacity:1" />
  <path
     fill="#fff"
     opacity=".2"
     d="m24 4c-11.08 0-20 8.92-20 20 0 0.168 0.008 0.333 0.0117 0.5 0.2647-10.846 9.0763-19.5 19.988-19.5s19.724 8.6539 19.988 19.5c0.004-0.16686 0.0117-0.33213 0.0117-0.5 0-11.08-8.92-20-20-20z"
     id="path4" />
  <path
     opacity=".2"
     d="m4.0117 24.5c-0.0041 0.167-0.0117 0.332-0.0117 0.5 0 11.08 8.92 20 20 20s20-8.92 20-20c0-0.168-0.008-0.333-0.012-0.5-0.264 10.846-9.076 19.5-19.988 19.5s-19.724-8.654-19.988-19.5z"
     id="path6" />
  <circle
     fill="#393939"
     cx="24"
     cy="33"
     r="7"
     id="circle8"
     style="fill:#ffffff;fill-opacity:1" />
  <circle
     fill="#393939"
     cx="24"
     cy="23"
     r="13"
     id="circle10"
     style="fill:#ffffff;fill-opacity:1" />
  <path
     opacity=".2"
     d="m14.141 25.141c2.0815-0.43989 4.3367 0.14796 5.9532 1.7644 1.6165 1.6165 2.2044 3.8717 1.7644 5.9532-2.0815 0.43988-4.3367-0.14796-5.9532-1.7644-1.6165-1.6165-2.2043-3.8717-1.7644-5.9532z"
     id="path12" />
  <path
     fill="#df574d"
     d="m14.141 24.141c2.0815-0.43989 4.3367 0.14796 5.9532 1.7644 1.6165 1.6165 2.2044 3.8717 1.7644 5.9532-2.0815 0.43988-4.3367-0.14796-5.9532-1.7644-1.6165-1.6165-2.2043-3.8717-1.7644-5.9532z"
     id="path14"
     style="fill:#4c566a;fill-opacity:1" />
  <path
     opacity=".2"
     d="m33.859 25.141c-2.0815-0.43989-4.3367 0.14796-5.9532 1.7644-1.6165 1.6165-2.2044 3.8717-1.7644 5.9532 2.0815 0.43988 4.3367-0.14796 5.9532-1.7644 1.6165-1.6165 2.2043-3.8717 1.7644-5.9532z"
     id="path16" />
  <path
     fill="#df574d"
     d="m33.859 24.141c-2.0815-0.43989-4.3367 0.14796-5.9532 1.7644-1.6165 1.6165-2.2044 3.8717-1.7644 5.9532 2.0815 0.43988 4.3367-0.14796 5.9532-1.7644 1.6165-1.6165 2.2043-3.8717 1.7644-5.9532z"
     id="path18"
     style="fill:#4c566a;fill-opacity:1" />
</svg>
