<?xml version="1.0" encoding="UTF-8" standalone="no"?>
<svg
   xmlns:dc="http://purl.org/dc/elements/1.1/"
   xmlns:cc="http://creativecommons.org/ns#"
   xmlns:rdf="http://www.w3.org/1999/02/22-rdf-syntax-ns#"
   xmlns:svg="http://www.w3.org/2000/svg"
   xmlns="http://www.w3.org/2000/svg"
   xmlns:sodipodi="http://sodipodi.sourceforge.net/DTD/sodipodi-0.dtd"
   xmlns:inkscape="http://www.inkscape.org/namespaces/inkscape"
   width="48"
   height="48"
   version="1.1"
   id="svg12"
   sodipodi:docname="alien-swarm.svg"
   inkscape:version="0.92.5 (2060ec1f9f, 2020-04-08)">
  <metadata
     id="metadata18">
    <rdf:RDF>
      <cc:Work
         rdf:about="">
        <dc:format>image/svg+xml</dc:format>
        <dc:type
           rdf:resource="http://purl.org/dc/dcmitype/StillImage" />
      </cc:Work>
    </rdf:RDF>
  </metadata>
  <defs
     id="defs16" />
  <sodipodi:namedview
     pagecolor="#ffffff"
     bordercolor="#666666"
     borderopacity="1"
     objecttolerance="10"
     gridtolerance="10"
     guidetolerance="10"
     inkscape:pageopacity="0"
     inkscape:pageshadow="2"
     inkscape:window-width="783"
     inkscape:window-height="480"
     id="namedview14"
     showgrid="false"
     inkscape:zoom="4.9166667"
     inkscape:cx="24"
     inkscape:cy="24"
     inkscape:window-x="0"
     inkscape:window-y="28"
     inkscape:window-maximized="0"
     inkscape:current-layer="svg12" />
  <rect
     x="4"
     y="3.9980471"
     width="40"
     height="40"
     rx="2"
     ry="2"
     style="fill:#4c566a;fill-opacity:1"
     id="rect2" />
  <path
     d="m6 3.9980466c-1.108 0-2 0.892-2 2v1c0-1.108 0.892-2 2-2h36c1.108 0 2 0.892 2 2v-1c0-1.108-0.892-2-2-2z"
     style="fill:#ffffff;opacity:.1"
     id="path4" />
  <path
     d="m6 44.998047c-1.108 0-2-0.892-2-2v-1c0 1.108 0.892 2 2 2h36c1.108 0 2-0.892 2-2v1c0 1.108-0.892 2-2 2z"
     style="opacity:.2"
     id="path6" />
  <path
     d="m14 34 4.034847-12-1.008712 1 2.017423-7 1.008712-1-0.504356-1 0.820897-3.345602s0.901318-2.654398 1.802636-2.654398c2.703955 0 4.506591 3.547932 4.506591 3.547932l-0.901318 1.787068 1.802636-0.893534 2.703956 4.46767-0.901318 3.574137 1.802636-0.893535s1.696336 5.297837 1.802637 8.041807c0.08152 2.104529-0.229516 4.256736-0.901319 6.254739-1.802636 5.361205-4.972696 8.113716-4.972696 8.113716l1.367424-5.433114-1.367424-1.566886h2.017423l-2.017423-2 2.268742-0.900784-2.268742-2.099216 2.017423-1-2.017423-1 1.367424-1.261989v-0.893534h-2.703956l3.353955-2.844477-3.353955 1.057409 0.901318-1.787068h-1.802636l1.802636-2.680603-2.703954 1.211796 1.121745-2.801534-1.008712-1-5.043559 18-1.008711 1v-2l-2.017424 3 0.504356-2-1.008711 1 0.504355-2-1.008711 1v-2z"
     style="opacity:.2"
     id="path8" />
  <path
     d="m14 33 4.034847-12-1.008712 1 2.017423-7 1.008712-1-0.504356-1 0.820897-3.3456025s0.901318-2.6543975 1.802636-2.6543975c2.703955 0 4.506591 3.547932 4.506591 3.547932l-0.901318 1.787068 1.802636-0.893534 2.703956 4.46767-0.901318 3.574137 1.802636-0.893535s1.696336 5.297837 1.802637 8.041807c0.08152 2.104529-0.229516 4.256736-0.901319 6.254739-1.802636 5.361205-4.972696 8.113716-4.972696 8.113716l1.367424-5.433114-1.367424-1.566886h2.017423l-2.017423-2 2.268742-0.900784-2.268742-2.099216 2.017423-1-2.017423-1 1.367424-1.261989v-0.893534h-2.703956l3.353955-2.844477-3.353955 1.057409 0.901318-1.787068h-1.802636l1.802636-2.680603-2.703954 1.211796 1.121745-2.801534-1.008712-1-5.043559 18-1.008711 1v-2l-2.017424 3 0.504356-2-1.008711 1 0.504355-2-1.008711 1v-2z"
     style="fill:#ffffff;fill-opacity:1"
     id="path10" />
</svg>
