<?xml version="1.0" encoding="UTF-8" standalone="no"?>
<svg
   xmlns:dc="http://purl.org/dc/elements/1.1/"
   xmlns:cc="http://creativecommons.org/ns#"
   xmlns:rdf="http://www.w3.org/1999/02/22-rdf-syntax-ns#"
   xmlns:svg="http://www.w3.org/2000/svg"
   xmlns="http://www.w3.org/2000/svg"
   xmlns:sodipodi="http://sodipodi.sourceforge.net/DTD/sodipodi-0.dtd"
   xmlns:inkscape="http://www.inkscape.org/namespaces/inkscape"
   width="48"
   height="48"
   version="1"
   id="svg16"
   sodipodi:docname="alienfx.svg"
   inkscape:version="0.92.5 (2060ec1f9f, 2020-04-08)">
  <metadata
     id="metadata22">
    <rdf:RDF>
      <cc:Work
         rdf:about="">
        <dc:format>image/svg+xml</dc:format>
        <dc:type
           rdf:resource="http://purl.org/dc/dcmitype/StillImage" />
      </cc:Work>
    </rdf:RDF>
  </metadata>
  <defs
     id="defs20" />
  <sodipodi:namedview
     pagecolor="#ffffff"
     bordercolor="#666666"
     borderopacity="1"
     objecttolerance="10"
     gridtolerance="10"
     guidetolerance="10"
     inkscape:pageopacity="0"
     inkscape:pageshadow="2"
     inkscape:window-width="783"
     inkscape:window-height="480"
     id="namedview18"
     showgrid="false"
     inkscape:zoom="4.9166667"
     inkscape:cx="14.675669"
     inkscape:cy="23.995165"
     inkscape:window-x="0"
     inkscape:window-y="28"
     inkscape:window-maximized="0"
     inkscape:current-layer="svg16" />
  <path
     style="opacity:0.2"
     d="M 38,19 C 38,33 30,45 24,45 18,45 10,33 10,19 10,11.268014 16.268014,5 24,5 c 7.731986,0 14,6.268014 14,14 z"
     id="path2" />
  <path
     style="fill:#4c566a;fill-opacity:1"
     d="M 38,18 C 38,32 30,44 24,44 18,44 10,32 10,18 10,10.268014 16.268014,4 24,4 c 7.731986,0 14,6.268014 14,14 z"
     id="path4" />
  <path
     style="opacity:0.2"
     d="m 21.988628,33.874672 c 0.146108,-0.374787 -1.149819,-3.636806 -1.925409,-4.846528 -1.448475,-2.259358 -3.427682,-3.581475 -5.904675,-3.944281 -1.181802,-0.173167 -1.212518,-0.151727 -1.131672,0.789613 0.174685,2.033857 0.792757,3.482951 2.149019,5.038373 1.459109,1.673416 3.761889,2.831352 6.081124,3.057959 0.568136,0.05518 0.678473,0.04099 0.731613,-0.09514 z"
     id="path6" />
  <path
     style="fill:#ffffff"
     d="m 21.988628,32.874672 c 0.146108,-0.374787 -1.149819,-3.636806 -1.925409,-4.846528 -1.448475,-2.259358 -3.427682,-3.581475 -5.904675,-3.944281 -1.181802,-0.173167 -1.212518,-0.151727 -1.131672,0.789613 0.174685,2.033857 0.792757,3.482951 2.149019,5.038373 1.459109,1.673416 3.761889,2.831352 6.081124,3.057959 0.568136,0.05518 0.678473,0.04099 0.731613,-0.09514 z"
     id="path8" />
  <path
     style="opacity:0.2"
     d="m 26.011372,33.874672 c -0.146107,-0.374787 1.14982,-3.636806 1.925409,-4.846528 1.448476,-2.259358 3.427683,-3.581475 5.904675,-3.944281 1.181802,-0.173167 1.212518,-0.151727 1.131672,0.789613 -0.174684,2.033857 -0.792757,3.482951 -2.149019,5.038373 -1.459109,1.673416 -3.761889,2.831352 -6.081124,3.057959 -0.568136,0.05518 -0.678472,0.04099 -0.731613,-0.09514 z"
     id="path10" />
  <path
     style="fill:#ffffff"
     d="m 26.011372,32.874672 c -0.146107,-0.374787 1.14982,-3.636806 1.925409,-4.846528 1.448476,-2.259358 3.427683,-3.581475 5.904675,-3.944281 1.181802,-0.173167 1.212518,-0.151727 1.131672,0.789613 -0.174684,2.033857 -0.792757,3.482951 -2.149019,5.038373 -1.459109,1.673416 -3.761889,2.831352 -6.081124,3.057959 -0.568136,0.05518 -0.678472,0.04099 -0.731613,-0.09514 z"
     id="path12" />
  <path
     style="opacity:0.1;fill:#ffffff"
     d="M 24 4 C 16.268014 4 10 10.268014 10 18 C 10 18.197886 10.018316 18.390832 10.021484 18.587891 C 10.241455 11.048284 16.407133 5 24 5 C 31.592867 5 37.758545 11.048284 37.978516 18.587891 C 37.981684 18.390832 38 18.197886 38 18 C 38 10.268014 31.731986 4 24 4 z"
     id="path14" />
</svg>
