<?xml version="1.0" encoding="UTF-8" standalone="no"?>
<svg
   xmlns:dc="http://purl.org/dc/elements/1.1/"
   xmlns:cc="http://creativecommons.org/ns#"
   xmlns:rdf="http://www.w3.org/1999/02/22-rdf-syntax-ns#"
   xmlns:svg="http://www.w3.org/2000/svg"
   xmlns="http://www.w3.org/2000/svg"
   xmlns:sodipodi="http://sodipodi.sourceforge.net/DTD/sodipodi-0.dtd"
   xmlns:inkscape="http://www.inkscape.org/namespaces/inkscape"
   width="48"
   height="48"
   version="1"
   id="svg20"
   sodipodi:docname="altus.svg"
   inkscape:version="0.92.5 (2060ec1f9f, 2020-04-08)">
  <metadata
     id="metadata26">
    <rdf:RDF>
      <cc:Work
         rdf:about="">
        <dc:format>image/svg+xml</dc:format>
        <dc:type
           rdf:resource="http://purl.org/dc/dcmitype/StillImage" />
      </cc:Work>
    </rdf:RDF>
  </metadata>
  <defs
     id="defs24" />
  <sodipodi:namedview
     pagecolor="#ffffff"
     bordercolor="#666666"
     borderopacity="1"
     objecttolerance="10"
     gridtolerance="10"
     guidetolerance="10"
     inkscape:pageopacity="0"
     inkscape:pageshadow="2"
     inkscape:window-width="783"
     inkscape:window-height="480"
     id="namedview22"
     showgrid="false"
     inkscape:zoom="4.9166667"
     inkscape:cx="24"
     inkscape:cy="24"
     inkscape:window-x="0"
     inkscape:window-y="28"
     inkscape:window-maximized="0"
     inkscape:current-layer="svg20" />
  <path
     style="opacity:0.2"
     d="M 24.154,44.9999 24.156,44.996 C 35.163,44.9121 44,36.0279 44,25 44,13.92 35.08,4.9999998 24,4.9999998 13.32,4.9999998 4.649,13.289 4.037,23.811 L 4,23.846 V 41 c 0,2.216 1.784,4 4,4 h 16.154 z"
     id="path2" />
  <path
     style="fill:#4c566a;fill-opacity:1"
     d="M 24.154,43.9999 24.156,43.996 C 35.163,43.9121 44,35.0279 44,24 44,12.92 35.08,3.9999998 24,3.9999998 13.32,3.9999998 4.649,12.289 4.037,22.811 L 4,22.846 V 40 c 0,2.216 1.784,4 4,4 h 16.154 z"
     id="path4" />
  <path
     style="opacity:0.2"
     d="m 13.5,13.5 8,13 L 23.001953,34 31,28.5 31.966797,25.527344 35,26 33.115234,22 H 27.25 L 23.5,15.5 Z m 8,13 -3.5,14 5.5,-4 z"
     id="path6" />
  <path
     style="fill:#ffffff"
     d="m 27.206,21 h 5.909825 L 31,27.5 Z"
     id="path8" />
  <path
     style="fill:#697387;fill-opacity:1"
     d="M 33.115825,21 35,25 31.910968,24.518 Z"
     id="path10" />
  <path
     style="fill:#ffffff"
     d="m 21.5,25.5 9.5,2 -7.998368,5.5 z"
     id="path12" />
  <path
     style="opacity:0.1;fill:#ffffff"
     d="M 24,4 C 13.32,4 4.6491094,12.288547 4.0371094,22.810547 L 4,22.845703 v 1 l 0.037109,-0.03516 C 4.6491094,13.288547 13.32,5 24,5 34.912126,5 43.72361,13.653863 43.988281,24.5 43.992346,24.333296 44,24.167719 44,24 44,12.92 35.08,4 24,4 Z"
     id="path14" />
  <path
     style="fill:#697387;fill-opacity:1"
     d="m 21.5,25.5 2,10 -5.5,4 z"
     id="path16" />
  <path
     style="fill:#697387;fill-opacity:1"
     d="m 13.5,12.5 10,2 7.5,13 -9.5,-2 z"
     id="path18" />
</svg>
