<?xml version="1.0" encoding="UTF-8" standalone="no"?>
<svg
   xmlns:dc="http://purl.org/dc/elements/1.1/"
   xmlns:cc="http://creativecommons.org/ns#"
   xmlns:rdf="http://www.w3.org/1999/02/22-rdf-syntax-ns#"
   xmlns:svg="http://www.w3.org/2000/svg"
   xmlns="http://www.w3.org/2000/svg"
   xmlns:sodipodi="http://sodipodi.sourceforge.net/DTD/sodipodi-0.dtd"
   xmlns:inkscape="http://www.inkscape.org/namespaces/inkscape"
   width="48"
   height="48"
   version="1.1"
   id="svg18"
   sodipodi:docname="Alva.svg"
   inkscape:version="0.92.5 (2060ec1f9f, 2020-04-08)">
  <metadata
     id="metadata24">
    <rdf:RDF>
      <cc:Work
         rdf:about="">
        <dc:format>image/svg+xml</dc:format>
        <dc:type
           rdf:resource="http://purl.org/dc/dcmitype/StillImage" />
      </cc:Work>
    </rdf:RDF>
  </metadata>
  <defs
     id="defs22" />
  <sodipodi:namedview
     pagecolor="#ffffff"
     bordercolor="#666666"
     borderopacity="1"
     objecttolerance="10"
     gridtolerance="10"
     guidetolerance="10"
     inkscape:pageopacity="0"
     inkscape:pageshadow="2"
     inkscape:window-width="783"
     inkscape:window-height="480"
     id="namedview20"
     showgrid="false"
     inkscape:zoom="4.9166667"
     inkscape:cx="24"
     inkscape:cy="24"
     inkscape:window-x="0"
     inkscape:window-y="28"
     inkscape:window-maximized="0"
     inkscape:current-layer="svg18" />
  <circle
     style="opacity:0.2"
     cx="24"
     cy="25"
     r="20"
     id="circle2" />
  <circle
     style="fill:#4c566a;fill-opacity:1"
     cx="24"
     cy="24"
     r="20"
     id="circle4" />
  <path
     style="opacity:0.1;fill-rule:evenodd"
     d="m 32.499334,23 c 0.403148,0 0.643118,0.476036 0.407947,0.816062 L 21.907084,39.782698 C 21.619121,40.190729 21,39.986714 21,39.481532 V 23.514896 C 21,23.23316 21.225571,23 21.499137,23 Z"
     id="path6" />
  <path
     style="opacity:0.2;fill:#ffffff"
     d="M 24,4 A 20,20 0 0 0 4,24 20,20 0 0 0 4.0215,24.582 20,20 0 0 1 24,5 20,20 0 0 1 43.979,24.418 20,20 0 0 0 44,24 20,20 0 0 0 24,4 Z"
     id="path8" />
  <path
     style="fill:#fff2f7;fill-rule:evenodd;fill-opacity:1"
     d="m 32.499334,22 c 0.403148,0 0.643118,0.476036 0.407947,0.816062 L 21.907084,38.782698 C 21.619121,39.190729 21,38.986714 21,38.481532 V 22.514896 C 21,22.23316 21.225571,22 21.499137,22 Z"
     id="path10" />
  <path
     style="opacity:0.1;fill-rule:evenodd"
     d="m 25.496094,11 a 0.48001246,0.48571429 0 0 0 -0.398438,0.21875 L 14.095703,27.183594 C 13.855697,27.523593 14.094836,28 14.498047,28 H 25.5 C 25.773607,28 26,27.766089 26,27.484375 V 11.519531 C 26,11.19896 25.750501,11 25.496094,11 Z M 24,16.335938 V 26 h -6.660156 z"
     id="path12" />
  <path
     style="fill:#697387;fill-rule:evenodd;fill-opacity:1"
     d="M 25.496094 10 A 0.48001246 0.48571429 0 0 0 25.097656 10.21875 L 14.095703 26.183594 C 13.855697 26.523593 14.094836 27 14.498047 27 L 25.5 27 C 25.773607 27 26 26.766089 26 26.484375 L 26 10.519531 C 26 10.19896 25.750501 10 25.496094 10 z M 24 15.335938 L 24 25 L 17.339844 25 L 24 15.335938 z"
     id="path14" />
  <path
     style="fill:#697387;fill-rule:evenodd;fill-opacity:1"
     d="M 24 22 L 24 25 L 21 25 L 21 27 L 25.5 27 C 25.773607 27 26 26.766089 26 26.484375 L 26 22 L 24 22 z"
     id="path16" />
</svg>
