<?xml version="1.0" encoding="UTF-8" standalone="no"?>
<svg
   xmlns:dc="http://purl.org/dc/elements/1.1/"
   xmlns:cc="http://creativecommons.org/ns#"
   xmlns:rdf="http://www.w3.org/1999/02/22-rdf-syntax-ns#"
   xmlns:svg="http://www.w3.org/2000/svg"
   xmlns="http://www.w3.org/2000/svg"
   xmlns:sodipodi="http://sodipodi.sourceforge.net/DTD/sodipodi-0.dtd"
   xmlns:inkscape="http://www.inkscape.org/namespaces/inkscape"
   width="48"
   height="48"
   version="1.1"
   id="svg14"
   sodipodi:docname="american-truck-simulator.svg"
   inkscape:version="0.92.5 (2060ec1f9f, 2020-04-08)">
  <metadata
     id="metadata20">
    <rdf:RDF>
      <cc:Work
         rdf:about="">
        <dc:format>image/svg+xml</dc:format>
        <dc:type
           rdf:resource="http://purl.org/dc/dcmitype/StillImage" />
      </cc:Work>
    </rdf:RDF>
  </metadata>
  <defs
     id="defs18" />
  <sodipodi:namedview
     pagecolor="#ffffff"
     bordercolor="#666666"
     borderopacity="1"
     objecttolerance="10"
     gridtolerance="10"
     guidetolerance="10"
     inkscape:pageopacity="0"
     inkscape:pageshadow="2"
     inkscape:window-width="783"
     inkscape:window-height="480"
     id="namedview16"
     showgrid="false"
     inkscape:zoom="13.906433"
     inkscape:cx="33.59467"
     inkscape:cy="14.085003"
     inkscape:window-x="0"
     inkscape:window-y="28"
     inkscape:window-maximized="0"
     inkscape:current-layer="svg14" />
  <circle
     cx="24"
     cy="25"
     r="20"
     style="opacity:.2"
     id="circle2" />
  <circle
     cx="24"
     cy="24"
     r="20"
     style="fill:#4c566a;fill-opacity:1"
     id="circle4" />
  <path
     d="M 24,4 A 20,20 0 0 0 4,24 20,20 0 0 0 4.0215,24.582 20,20 0 0 1 24,5 20,20 0 0 1 43.979,24.418 20,20 0 0 0 44,24 20,20 0 0 0 24,4 Z"
     style="fill:#ffffff;opacity:.2"
     id="path6" />
  <circle
     cx="24"
     cy="24"
     r="13"
     style="fill:#5f697d;fill-opacity:1"
     id="circle8" />
  <path
     d="m24 11a14 14 0 0 0-14 14 14 14 0 0 0 14 14 14 14 0 0 0 14-14 14 14 0 0 0-14-14zm0 2a12 12 0 0 1 3.703125 0.591797l-1.703125 3.408203-2 4-2-4-1.699219-3.400391a12 12 0 0 1 3.699219-0.599609zm-5.449219 1.308594 1.207031 3.621094 1.414063 4.242187-4.242187-1.414063-3.609376-1.203124a12 12 0 0 1 2.31836-3.16211 12 12 0 0 1 2.912109-2.083984zm10.894531 0.01172a12 12 0 0 1 3.16211 2.31836 12 12 0 0 1 2.083984 2.912109l-3.621094 1.207031-4.242187 1.414063 1.414063-4.242187zm-16.853515 6.976561 3.408203 1.703125 4 2-4 2-3.400391 1.699219a12 12 0 0 1-0.599609-3.699219 12 12 0 0 1 0.591797-3.703125zm22.808594 0.0039a12 12 0 0 1 0.599609 3.699225 12 12 0 0 1-0.591797 3.703125l-3.408203-1.703125-4-2 4-2zm-11.400391 0.699225a1 1 0 0 1 1 1 1 1 0 0 1-1 1 1 1 0 0 1-1-1 1 1 0 0 1 1-1zm-2 2a1 1 0 0 1 1 1 1 1 0 0 1-1 1 1 1 0 0 1-1-1 1 1 0 0 1 1-1zm4 0a1 1 0 0 1 1 1 1 1 0 0 1-1 1 1 1 0 0 1-1-1 1 1 0 0 1 1-1zm-2 2a1 1 0 0 1 1 1 1 1 0 0 1-1 1 1 1 0 0 1-1-1 1 1 0 0 1 1-1zm-2.828125 1.828125-1.414063 4.242187-1.203124 3.609376a12 12 0 0 1-3.16211-2.31836 12 12 0 0 1-2.083984-2.912109l3.621094-1.207031zm5.65625 0 4.242187 1.414063 3.609376 1.203124a12 12 0 0 1-2.31836 3.16211 12 12 0 0 1-2.912109 2.083984l-1.207031-3.621094zm-2.828125 1.171875 2 4 1.699219 3.400391a12 12 0 0 1-3.699219 0.599609 12 12 0 0 1-3.703125-0.591797l1.703125-3.408203z"
     style="opacity:.2"
     id="path10" />
  <path
     d="m24 10a14 14 0 0 0-14 14 14 14 0 0 0 14 14 14 14 0 0 0 14-14 14 14 0 0 0-14-14zm0 2a12 12 0 0 1 3.703125 0.591797l-1.703125 3.408203-2 4-2-4-1.699219-3.400391a12 12 0 0 1 3.699219-0.599609zm-5.449219 1.308594 1.207031 3.621094 1.414063 4.242187-4.242187-1.414063-3.609376-1.203124a12 12 0 0 1 2.31836-3.16211 12 12 0 0 1 2.912109-2.083984zm10.894531 0.01172a12 12 0 0 1 3.16211 2.31836 12 12 0 0 1 2.083984 2.912109l-3.621094 1.207031-4.242187 1.414063 1.414063-4.242187zm-16.853515 6.976561 3.408203 1.703125 4 2-4 2-3.400391 1.699219a12 12 0 0 1-0.599609-3.699219 12 12 0 0 1 0.591797-3.703125zm22.808594 0.0039a12 12 0 0 1 0.599609 3.699225 12 12 0 0 1-0.591797 3.703125l-3.408203-1.703125-4-2 4-2zm-11.400391 0.699225a1 1 0 0 1 1 1 1 1 0 0 1-1 1 1 1 0 0 1-1-1 1 1 0 0 1 1-1zm-2 2a1 1 0 0 1 1 1 1 1 0 0 1-1 1 1 1 0 0 1-1-1 1 1 0 0 1 1-1zm4 0a1 1 0 0 1 1 1 1 1 0 0 1-1 1 1 1 0 0 1-1-1 1 1 0 0 1 1-1zm-2 2a1 1 0 0 1 1 1 1 1 0 0 1-1 1 1 1 0 0 1-1-1 1 1 0 0 1 1-1zm-2.828125 1.828125-1.414063 4.242187-1.203124 3.609376a12 12 0 0 1-3.16211-2.31836 12 12 0 0 1-2.083984-2.912109l3.621094-1.207031zm5.65625 0 4.242187 1.414063 3.609376 1.203124a12 12 0 0 1-2.31836 3.16211 12 12 0 0 1-2.912109 2.083984l-1.207031-3.621094zm-2.828125 1.171875 2 4 1.699219 3.400391a12 12 0 0 1-3.699219 0.599609 12 12 0 0 1-3.703125-0.591797l1.703125-3.408203z"
     style="fill:#ffffff"
     id="path12" />
</svg>
