<?xml version="1.0" encoding="UTF-8" standalone="no"?>
<svg
   xmlns:dc="http://purl.org/dc/elements/1.1/"
   xmlns:cc="http://creativecommons.org/ns#"
   xmlns:rdf="http://www.w3.org/1999/02/22-rdf-syntax-ns#"
   xmlns:svg="http://www.w3.org/2000/svg"
   xmlns="http://www.w3.org/2000/svg"
   xmlns:sodipodi="http://sodipodi.sourceforge.net/DTD/sodipodi-0.dtd"
   xmlns:inkscape="http://www.inkscape.org/namespaces/inkscape"
   width="48"
   height="48"
   version="1.1"
   id="svg14"
   sodipodi:docname="amsynth.svg"
   inkscape:version="0.92.5 (2060ec1f9f, 2020-04-08)">
  <metadata
     id="metadata20">
    <rdf:RDF>
      <cc:Work
         rdf:about="">
        <dc:format>image/svg+xml</dc:format>
        <dc:type
           rdf:resource="http://purl.org/dc/dcmitype/StillImage" />
      </cc:Work>
    </rdf:RDF>
  </metadata>
  <defs
     id="defs18" />
  <sodipodi:namedview
     pagecolor="#ffffff"
     bordercolor="#666666"
     borderopacity="1"
     objecttolerance="10"
     gridtolerance="10"
     guidetolerance="10"
     inkscape:pageopacity="0"
     inkscape:pageshadow="2"
     inkscape:window-width="783"
     inkscape:window-height="480"
     id="namedview16"
     showgrid="false"
     inkscape:zoom="4.9166667"
     inkscape:cx="24"
     inkscape:cy="24"
     inkscape:window-x="0"
     inkscape:window-y="28"
     inkscape:window-maximized="0"
     inkscape:current-layer="g12" />
  <g
     transform="matrix(2,0,0,2,2,2)"
     id="g12">
    <rect
       x="1"
       y="1.5"
       width="20"
       height="20"
       ry="4"
       style="opacity:.2"
       id="rect2" />
    <rect
       x="1"
       y="1"
       width="20"
       height="20"
       ry="4"
       style="fill:#4c566a;fill-opacity:1"
       id="rect4" />
    <path
       d="m4 3.5v16h4v-12h3v12h7v-4h-3v-12z"
       style="opacity:.1"
       id="path6" />
    <path
       d="m4 3v16h4v-12h3v12h7v-4h-3v-12z"
       style="fill:#ffffff;fill-opacity:1"
       id="path8" />
    <path
       d="m5 1c-2.216 0-4 1.784-4 4v0.5c0-2.216 1.784-4 4-4h12c2.216 0 4 1.784 4 4v-0.5c0-2.216-1.784-4-4-4z"
       style="fill:#ffffff;opacity:.2"
       id="path10" />
  </g>
</svg>
