<?xml version="1.0" encoding="UTF-8" standalone="no"?>
<svg
   xmlns:dc="http://purl.org/dc/elements/1.1/"
   xmlns:cc="http://creativecommons.org/ns#"
   xmlns:rdf="http://www.w3.org/1999/02/22-rdf-syntax-ns#"
   xmlns:svg="http://www.w3.org/2000/svg"
   xmlns="http://www.w3.org/2000/svg"
   xmlns:sodipodi="http://sodipodi.sourceforge.net/DTD/sodipodi-0.dtd"
   xmlns:inkscape="http://www.inkscape.org/namespaces/inkscape"
   width="48"
   height="48"
   version="1"
   id="svg22"
   sodipodi:docname="android-sdk.svg"
   inkscape:version="0.92.5 (2060ec1f9f, 2020-04-08)">
  <metadata
     id="metadata28">
    <rdf:RDF>
      <cc:Work
         rdf:about="">
        <dc:format>image/svg+xml</dc:format>
        <dc:type
           rdf:resource="http://purl.org/dc/dcmitype/StillImage" />
      </cc:Work>
    </rdf:RDF>
  </metadata>
  <defs
     id="defs26" />
  <sodipodi:namedview
     pagecolor="#ffffff"
     bordercolor="#666666"
     borderopacity="1"
     objecttolerance="10"
     gridtolerance="10"
     guidetolerance="10"
     inkscape:pageopacity="0"
     inkscape:pageshadow="2"
     inkscape:window-width="783"
     inkscape:window-height="480"
     id="namedview24"
     showgrid="false"
     inkscape:zoom="9.8333333"
     inkscape:cx="22.567202"
     inkscape:cy="24.173666"
     inkscape:window-x="0"
     inkscape:window-y="28"
     inkscape:window-maximized="0"
     inkscape:current-layer="svg22" />
  <rect
     style="opacity:0.2"
     width="40"
     height="40"
     x="4"
     y="5"
     rx="20"
     ry="20"
     id="rect2" />
  <rect
     style="fill:#4c566a;fill-opacity:1"
     width="40"
     height="40"
     x="4"
     y="4"
     rx="20"
     ry="20"
     id="rect4" />
  <path
     style="opacity:0.2"
     d="m 14.937337,16.988281 a 1.0001,1.0001 0 0 0 -0.794922,1.525391 l 2.027344,3.378906 C 13.865029,23.858551 12.30675,26.667072 12.00179,29.845703 11.94667,31.000662 13.165853,31 13.165853,31 h 21.638672 c 0,0 1.254153,-2.52e-4 1.193359,-1.212891 -0.318231,-3.156451 -1.873062,-5.944478 -4.166016,-7.898437 l 2.025391,-3.375 a 1.0001,1.0001 0 0 0 -0.824219,-1.525391 1.0001,1.0001 0 0 0 -0.890625,0.498047 l -1.9375,3.230469 C 28.391814,19.631192 26.271677,19 24.00179,19 c -2.271513,0 -4.39142,0.631553 -6.205078,1.71875 l -1.939453,-3.232422 a 1.0001,1.0001 0 0 0 -0.820313,-0.498047 1.0001,1.0001 0 0 0 -0.09961,0 z M 18.499837,25 a 1.5,1.5 0 0 1 1.5,1.5 1.5,1.5 0 0 1 -1.5,1.5 1.5,1.5 0 0 1 -1.5,-1.5 1.5,1.5 0 0 1 1.5,-1.5 z m 11,0 a 1.5,1.5 0 0 1 1.5,1.5 1.5,1.5 0 0 1 -1.5,1.5 1.5,1.5 0 0 1 -1.5,-1.5 1.5,1.5 0 0 1 1.5,-1.5 z"
     id="path6" />
  <path
     style="fill:none;stroke:#ffffff;stroke-width:2;stroke-linecap:round;stroke-opacity:1"
     d="m 17.399837,21 -2.4,-4"
     id="path8" />
  <path
     style="fill:none;stroke:#ffffff;stroke-width:2;stroke-linecap:round;stroke-opacity:1"
     d="m 30.599837,21 2.4,-4"
     id="path10" />
  <path
     style="fill:#ffffff;fill-opacity:1"
     d="m 24.00179,18 c -6.266914,0 -11.416147,4.760143 -12,10.845703 C 11.94667,30.000662 13.165853,30 13.165853,30 h 21.638672 c 0,0 1.254153,-2.52e-4 1.193359,-1.212891 C 35.387129,22.729181 30.24889,18 24.00179,18 Z"
     id="path12" />
  <path
     style="opacity:0.2"
     d="M 18.5,25 A 1.5,1.5 0 0 0 17,26.5 1.5,1.5 0 0 0 18.5,28 1.5,1.5 0 0 0 20,26.5 1.5,1.5 0 0 0 18.5,25 Z m 11,0 A 1.5,1.5 0 0 0 28,26.5 1.5,1.5 0 0 0 29.5,28 1.5,1.5 0 0 0 31,26.5 1.5,1.5 0 0 0 29.5,25 Z"
     id="path14" />
  <path
     style="fill:#4c566a;fill-opacity:1"
     d="m 18.499837,24 a 1.5,1.5 0 0 1 1.5,1.5 1.5,1.5 0 0 1 -1.5,1.5 1.5,1.5 0 0 1 -1.5,-1.5 1.5,1.5 0 0 1 1.5,-1.5 z"
     id="path16" />
  <path
     style="fill:#4c566a;fill-opacity:1"
     d="m 29.499837,24 a 1.5,1.5 0 0 1 1.5,1.5 1.5,1.5 0 0 1 -1.5,1.5 1.5,1.5 0 0 1 -1.5,-1.5 1.5,1.5 0 0 1 1.5,-1.5 z"
     id="path18" />
  <path
     style="fill:#ffffff;opacity:0.1"
     d="M 24 4 C 12.92 4 4 12.92 4 24 C 4 24.167874 4.007647 24.333141 4.0117188 24.5 C 4.2763904 13.653863 13.087874 5 24 5 C 34.912126 5 43.72361 13.653863 43.988281 24.5 C 43.992353 24.333141 44 24.167874 44 24 C 44 12.92 35.08 4 24 4 z"
     id="path20" />
</svg>
