<?xml version="1.0" encoding="UTF-8" standalone="no"?>
<svg
   xmlns:dc="http://purl.org/dc/elements/1.1/"
   xmlns:cc="http://creativecommons.org/ns#"
   xmlns:rdf="http://www.w3.org/1999/02/22-rdf-syntax-ns#"
   xmlns:svg="http://www.w3.org/2000/svg"
   xmlns="http://www.w3.org/2000/svg"
   xmlns:sodipodi="http://sodipodi.sourceforge.net/DTD/sodipodi-0.dtd"
   xmlns:inkscape="http://www.inkscape.org/namespaces/inkscape"
   width="48"
   height="48"
   version="1.1"
   id="svg20"
   sodipodi:docname="appimagekit-android-messages-desktop.svg"
   inkscape:version="0.92.5 (2060ec1f9f, 2020-04-08)">
  <metadata
     id="metadata26">
    <rdf:RDF>
      <cc:Work
         rdf:about="">
        <dc:format>image/svg+xml</dc:format>
        <dc:type
           rdf:resource="http://purl.org/dc/dcmitype/StillImage" />
      </cc:Work>
    </rdf:RDF>
  </metadata>
  <defs
     id="defs24" />
  <sodipodi:namedview
     pagecolor="#ffffff"
     bordercolor="#666666"
     borderopacity="1"
     objecttolerance="10"
     gridtolerance="10"
     guidetolerance="10"
     inkscape:pageopacity="0"
     inkscape:pageshadow="2"
     inkscape:window-width="783"
     inkscape:window-height="480"
     id="namedview22"
     showgrid="false"
     inkscape:zoom="6.9532167"
     inkscape:cx="19.635824"
     inkscape:cy="27.499626"
     inkscape:window-x="0"
     inkscape:window-y="28"
     inkscape:window-maximized="0"
     inkscape:current-layer="svg20" />
  <circle
     style="opacity:0.2"
     cx="24"
     cy="25"
     r="20"
     id="circle2" />
  <circle
     style="fill:#4c566a;fill-opacity:1"
     cx="24"
     cy="24"
     r="20"
     id="circle4" />
  <path
     style="opacity:0.2"
     d="m 12.267578,17 a 1.265414,1.1166608 0 0 0 -1.097656,1.675781 L 14,22.998047 V 30 c 0,2.216 1.784,4 4,4 h 13 c 2.216,0 4,-1.784 4,-4 v -9 c 0,-2.216 -1.784,-4 -4,-4 H 23.736328 18 Z"
     id="path6" />
  <path
     style="opacity:0.2;fill:#ffffff"
     d="M 24,4 A 20,20 0 0 0 4,24 20,20 0 0 0 4.0215,24.582 20,20 0 0 1 24,5 20,20 0 0 1 43.979,24.418 20,20 0 0 0 44,24 20,20 0 0 0 24,4 Z"
     id="path8" />
  <rect
     style="fill:#ffffff"
     width="21"
     height="17"
     x="14"
     y="16"
     rx="4"
     ry="4"
     id="rect10" />
  <path
     style="fill:#ffffff"
     d="m 12.266666,16.000001 a 1.265414,1.1166608 0 0 0 -1.097242,1.674824 l 2.86914,4.383329 2.866667,4.383326 a 1.265414,1.1166608 0 0 0 2.19201,0 l 2.866667,-4.383326 2.866668,-4.383329 a 1.265414,1.1166608 0 0 0 -1.09477,-1.674824 h -5.735805 z"
     id="path12" />
  <rect
     style="fill:#4c566a;fill-opacity:1"
     width="15"
     height="2"
     x="17"
     y="19"
     rx="1"
     ry="1"
     id="rect14" />
  <rect
     style="fill:#4c566a;fill-opacity:1"
     width="15"
     height="2"
     x="17"
     y="23"
     rx="1"
     ry="1"
     id="rect16" />
  <rect
     style="fill:#4c566a;fill-opacity:1"
     width="11"
     height="2"
     x="17"
     y="27"
     rx="1"
     ry="1"
     id="rect18" />
</svg>
