<?xml version="1.0" encoding="UTF-8" standalone="no"?>
<svg
   xmlns:dc="http://purl.org/dc/elements/1.1/"
   xmlns:cc="http://creativecommons.org/ns#"
   xmlns:rdf="http://www.w3.org/1999/02/22-rdf-syntax-ns#"
   xmlns:svg="http://www.w3.org/2000/svg"
   xmlns="http://www.w3.org/2000/svg"
   xmlns:sodipodi="http://sodipodi.sourceforge.net/DTD/sodipodi-0.dtd"
   xmlns:inkscape="http://www.inkscape.org/namespaces/inkscape"
   width="48"
   height="48"
   version="1"
   id="svg10"
   sodipodi:docname="apk-icon-editor.svg"
   inkscape:version="0.92.5 (2060ec1f9f, 2020-04-08)">
  <metadata
     id="metadata16">
    <rdf:RDF>
      <cc:Work
         rdf:about="">
        <dc:format>image/svg+xml</dc:format>
        <dc:type
           rdf:resource="http://purl.org/dc/dcmitype/StillImage" />
      </cc:Work>
    </rdf:RDF>
  </metadata>
  <defs
     id="defs14" />
  <sodipodi:namedview
     pagecolor="#ffffff"
     bordercolor="#666666"
     borderopacity="1"
     objecttolerance="10"
     gridtolerance="10"
     guidetolerance="10"
     inkscape:pageopacity="0"
     inkscape:pageshadow="2"
     inkscape:window-width="783"
     inkscape:window-height="480"
     id="namedview12"
     showgrid="false"
     inkscape:zoom="4.9166667"
     inkscape:cx="24"
     inkscape:cy="24"
     inkscape:window-x="0"
     inkscape:window-y="28"
     inkscape:window-maximized="0"
     inkscape:current-layer="svg10" />
  <path
     style="opacity:0.2"
     d="M 44,43 V 7 C 44,5.892 43.108,5 42,5 H 6 C 4.892,5 4,5.892 4,7 v 36 c 0,1.108 0.892,2 2,2 h 36 c 1.108,0 2,-0.892 2,-2 z"
     id="path2" />
  <path
     style="fill:#4c566a;fill-opacity:1"
     d="M 44,42 V 6 C 44,4.892 43.108,4 42,4 H 6 C 4.892,4 4,4.892 4,6 v 36 c 0,1.108 0.892,2 2,2 h 36 c 1.108,0 2,-0.892 2,-2 z"
     id="path4" />
  <path
     style="opacity:0.2;fill:#ffffff"
     d="M 6,4 C 4.892,4 4,4.892 4,6 V 7 C 4,5.892 4.892,5 6,5 h 36 c 1.108,0 2,0.892 2,2 V 6 C 44,4.892 43.108,4 42,4 Z"
     id="path6" />
  <path
     style="opacity:1;fill:#ffffff;fill-opacity:1"
     d="m 10,10 v 4 h 4 v -4 z m 6,0 v 4 h 4 v -4 z m 6,0 v 4 h 4 v -4 z m 6,0 v 4 h 4 v -4 z m 6,0 v 4 h 4 v -4 z m -24,6 v 4 h 4 v -4 z m 6,0 v 4 h 4 v -4 z m 6,0 v 4 h 4 v -4 z m 6,0 v 4 h 4 v -4 z m 6,0 v 4 h 4 v -4 z m -24,6 v 4 h 4 v -4 z m 6,0 v 4 h 4 v -4 z m 6,0 v 4 h 4 v -4 z m 6,0 v 4 h 4 v -4 z m 6,0 v 4 h 4 v -4 z m -24,6 v 4 h 4 v -4 z m 6,0 v 4 h 4 v -4 z m 6,0 v 4 h 4 v -4 z m 6,0 v 4 h 4 v -4 z m 6,0 v 4 h 4 v -4 z m -24,6 v 4 h 4 v -4 z m 6,0 v 4 h 4 v -4 z m 6,0 v 4 h 4 v -4 z m 6,0 v 4 h 4 v -4 z m 6,0 v 4 h 4 v -4 z"
     id="path8" />
</svg>
