<?xml version="1.0" encoding="UTF-8" standalone="no"?>
<svg
   xmlns:dc="http://purl.org/dc/elements/1.1/"
   xmlns:cc="http://creativecommons.org/ns#"
   xmlns:rdf="http://www.w3.org/1999/02/22-rdf-syntax-ns#"
   xmlns:svg="http://www.w3.org/2000/svg"
   xmlns="http://www.w3.org/2000/svg"
   xmlns:sodipodi="http://sodipodi.sourceforge.net/DTD/sodipodi-0.dtd"
   xmlns:inkscape="http://www.inkscape.org/namespaces/inkscape"
   width="48"
   height="48"
   version="1.1"
   id="svg34"
   sodipodi:docname="apktool.svg"
   inkscape:version="0.92.5 (2060ec1f9f, 2020-04-08)">
  <metadata
     id="metadata40">
    <rdf:RDF>
      <cc:Work
         rdf:about="">
        <dc:format>image/svg+xml</dc:format>
        <dc:type
           rdf:resource="http://purl.org/dc/dcmitype/StillImage" />
      </cc:Work>
    </rdf:RDF>
  </metadata>
  <defs
     id="defs38" />
  <sodipodi:namedview
     pagecolor="#ffffff"
     bordercolor="#666666"
     borderopacity="1"
     objecttolerance="10"
     gridtolerance="10"
     guidetolerance="10"
     inkscape:pageopacity="0"
     inkscape:pageshadow="2"
     inkscape:window-width="783"
     inkscape:window-height="480"
     id="namedview36"
     showgrid="false"
     inkscape:zoom="4.9166667"
     inkscape:cx="25.016949"
     inkscape:cy="24"
     inkscape:window-x="0"
     inkscape:window-y="28"
     inkscape:window-maximized="0"
     inkscape:current-layer="g32" />
  <g
     transform="matrix(2,0,0,2,2,2)"
     id="g32">
    <path
       d="m1 11.5v2h3v8h17v-2h-3v-8h-10z"
       style="opacity:.2"
       id="path2" />
    <path
       d="m1 11v2h3v8h2v-8h2v-2z"
       style="fill:#697387;fill-opacity:1"
       id="path4" />
    <path
       d="m6 13v8h5v-10h-3v2z"
       style="fill:#5f697d;fill-opacity:1"
       id="path6" />
    <path
       d="m11 11v10h5v-10z"
       style="fill:#555f73;fill-opacity:1"
       id="path8" />
    <path
       d="m16 11v10h5v-2h-3v-8z"
       style="fill:#4c566a;fill-opacity:1"
       id="path10" />
    <path
       d="m1 1.5v10h20v-2.5l-2.5-2.5 2.5-2.5v-2.5h-13z"
       style="opacity:.2"
       id="path12" />
    <path
       d="m1 11h7v-10h-7z"
       style="fill:#697387;fill-opacity:1"
       id="path14" />
    <path
       d="m8 11h4.25v-2.5h3.75v-7.5h-8z"
       style="fill:#5f697d;fill-opacity:1"
       id="path16" />
    <path
       d="m12.25 8.5v2.5h8.75v-2.5l-2.5-2.5 2.5-2.5v-2.5h-5v7.5z"
       style="fill:#4c566a;fill-opacity:1"
       id="path18" />
    <path
       d="m4 3.5v4h1v-4zm8 0v4h1v-4zm-8 5v3h1v-3z"
       style="opacity:.2"
       id="path20" />
    <path
       d="m4 3v4h1v-4zm8 0v4h1v-4zm-8 5v3h1v-3z"
       style="fill:#ffffff"
       id="path22" />
    <path
       d="m8 14.5v4h1v-4zm5 0v4h1v-4z"
       style="opacity:.2"
       id="path24" />
    <rect
       x="8"
       y="14"
       width="1"
       height="4"
       style="fill:#ffffff"
       id="rect26" />
    <rect
       x="13"
       y="14"
       width="1"
       height="4"
       style="fill:#ffffff"
       id="rect28" />
    <path
       d="m1 1v0.5h20v-0.5h-13zm17.75 5.25-0.25 0.25 2.5 2.5v-0.5z"
       style="fill:#ffffff;opacity:.2"
       id="path30" />
  </g>
</svg>
