<?xml version="1.0" encoding="UTF-8" standalone="no"?>
<svg
   xmlns:dc="http://purl.org/dc/elements/1.1/"
   xmlns:cc="http://creativecommons.org/ns#"
   xmlns:rdf="http://www.w3.org/1999/02/22-rdf-syntax-ns#"
   xmlns:svg="http://www.w3.org/2000/svg"
   xmlns="http://www.w3.org/2000/svg"
   xmlns:sodipodi="http://sodipodi.sourceforge.net/DTD/sodipodi-0.dtd"
   xmlns:inkscape="http://www.inkscape.org/namespaces/inkscape"
   width="48"
   height="48"
   version="1.1"
   id="svg20"
   sodipodi:docname="apollo-studio.svg"
   inkscape:version="0.92.5 (2060ec1f9f, 2020-04-08)">
  <metadata
     id="metadata26">
    <rdf:RDF>
      <cc:Work
         rdf:about="">
        <dc:format>image/svg+xml</dc:format>
        <dc:type
           rdf:resource="http://purl.org/dc/dcmitype/StillImage" />
      </cc:Work>
    </rdf:RDF>
  </metadata>
  <defs
     id="defs24" />
  <sodipodi:namedview
     pagecolor="#ffffff"
     bordercolor="#666666"
     borderopacity="1"
     objecttolerance="10"
     gridtolerance="10"
     guidetolerance="10"
     inkscape:pageopacity="0"
     inkscape:pageshadow="2"
     inkscape:window-width="783"
     inkscape:window-height="480"
     id="namedview22"
     showgrid="false"
     inkscape:zoom="4.9166667"
     inkscape:cx="-1.1186441"
     inkscape:cy="24"
     inkscape:window-x="0"
     inkscape:window-y="28"
     inkscape:window-maximized="0"
     inkscape:current-layer="svg20" />
  <rect
     style="opacity:.2"
     width="40"
     height="40"
     x="4"
     y="5"
     rx="3"
     ry="3"
     id="rect2" />
  <rect
     style="fill:#4c566a;fill-opacity:1"
     width="40"
     height="40"
     x="4"
     y="4"
     rx="3"
     ry="3"
     id="rect4" />
  <path
     style="opacity:0.2"
     d="M 25.263672,10.626953 13.5,31 h 4.556641 L 27.634766,14.517578 Z M 28.193359,18.589844 26,22.419922 35.572266,39 h 4.380859 z m -3.695312,5.580078 -1.210938,2.08789 A 3,3 0 0 0 21.5,29 a 3,3 0 0 0 0.01563,0.308594 L 20.535156,31 h 1.728516 A 3,3 0 0 0 24.5,32 3,3 0 0 0 26.734375,31 h 1.726563 L 27.482422,29.314453 A 3,3 0 0 0 27.5,29 3,3 0 0 0 25.707031,26.253906 Z M 10.535156,33 8.3496094,37 H 31.875 l -2.183594,-4 z"
     id="path6" />
  <path
     style="fill:#ffffff;opacity:.1"
     d="m7 4c-1.662 0-3 1.3379999-3 3v1c0-1.6620001 1.338-3 3-3h34c1.662 0 3 1.3379999 3 3v-1c0-1.6620001-1.338-3-3-3h-34z"
     id="path8" />
  <path
     style="fill:#ffffff"
     d="m 29.690891,32 2.184782,4 H 8.3498407 l 2.1847823,-4 z"
     id="path10" />
  <path
     style="fill:#ffffff"
     d="M 35.572232,37.999999 26,21.42057 l 2.193637,-3.831591 11.759965,20.41102 z"
     id="path12" />
  <circle
     style="fill:#ffffff"
     cx="24.5"
     cy="28"
     r="3"
     id="circle14" />
  <path
     style="fill:#ffffff"
     d="M 20.534367,30 24.4975,23.16992 28.460633,30 Z"
     id="path16" />
  <path
     style="fill:#ffffff"
     d="M 18.056493,30 H 13.5 l 11.762916,-20.373968 2.371711,3.892077 z"
     id="path18" />
</svg>
