<?xml version="1.0" encoding="UTF-8" standalone="no"?>
<svg
   xmlns:dc="http://purl.org/dc/elements/1.1/"
   xmlns:cc="http://creativecommons.org/ns#"
   xmlns:rdf="http://www.w3.org/1999/02/22-rdf-syntax-ns#"
   xmlns:svg="http://www.w3.org/2000/svg"
   xmlns="http://www.w3.org/2000/svg"
   xmlns:sodipodi="http://sodipodi.sourceforge.net/DTD/sodipodi-0.dtd"
   xmlns:inkscape="http://www.inkscape.org/namespaces/inkscape"
   height="48"
   width="48"
   version="1.1"
   id="svg24"
   sodipodi:docname="appimagekit-app-outlet.svg"
   inkscape:version="0.92.5 (2060ec1f9f, 2020-04-08)">
  <metadata
     id="metadata30">
    <rdf:RDF>
      <cc:Work
         rdf:about="">
        <dc:format>image/svg+xml</dc:format>
        <dc:type
           rdf:resource="http://purl.org/dc/dcmitype/StillImage" />
      </cc:Work>
    </rdf:RDF>
  </metadata>
  <defs
     id="defs28" />
  <sodipodi:namedview
     pagecolor="#ffffff"
     bordercolor="#666666"
     borderopacity="1"
     objecttolerance="10"
     gridtolerance="10"
     guidetolerance="10"
     inkscape:pageopacity="0"
     inkscape:pageshadow="2"
     inkscape:window-width="783"
     inkscape:window-height="480"
     id="namedview26"
     showgrid="false"
     inkscape:zoom="4.9166667"
     inkscape:cx="16.881356"
     inkscape:cy="24"
     inkscape:window-x="0"
     inkscape:window-y="28"
     inkscape:window-maximized="0"
     inkscape:current-layer="svg24" />
  <rect
     style="opacity:.2"
     rx="2"
     ry="2"
     height="40"
     width="40"
     y="5"
     x="4"
     id="rect2" />
  <rect
     style="fill:#4c566a;fill-opacity:1"
     rx="2"
     ry="2"
     height="40"
     width="40"
     y="4"
     x="4"
     id="rect4" />
  <path
     d="m10 11-2 26s0 2 2 2h28c2 0 2-2 2-2l-2-26z"
     style="opacity:.2"
     id="path6" />
  <path
     d="m10 10-2 26s0 2 2 2h28c2 0 2-2 2-2l-2-26z"
     style="fill:#ffffff;fill-opacity:1"
     id="path8" />
  <path
     d="m17 15a3 3 0 0 0 -3 3 3 3 0 0 0 3 3 3 3 0 0 0 3 -3 3 3 0 0 0 -3 -3zm14 0a3 3 0 0 0 -3 3 3 3 0 0 0 3 3 3 3 0 0 0 3 -3 3 3 0 0 0 -3 -3z"
     style="opacity:.2"
     id="path10" />
  <circle
     cx="17"
     cy="17"
     r="3"
     style="fill:#cccccc"
     id="circle12" />
  <circle
     cx="31"
     cy="17"
     r="3"
     style="fill:#cccccc"
     id="circle14" />
  <path
     d="m16.984375 17a0.99940346 0.99940346 0 0 0 -0.976563 1.113281s0.252416 2.608738 1.316407 5.265625c0.531995 1.328444 1.264953 2.691988 2.34375 3.769532 1.078796 1.077542 2.554943 1.851562 4.332031 1.851562s3.253234-0.77402 4.332032-1.851562c1.078796-1.077544 1.811754-2.441088 2.34375-3.769532 1.06399-2.656887 1.316406-5.265625 1.316406-5.265625a0.99940346 0.99940346 0 1 0 -1.988282 -0.199218s-0.247816 2.385929-1.183594 4.722655c-0.467888 1.168364-1.106356 2.302594-1.902344 3.097658-0.795986 0.795062-1.695404 1.265624-2.917968 1.265624s-2.121982-0.470562-2.917969-1.265624c-0.795986-0.795064-1.434454-1.929294-1.902343-3.097658-0.935779-2.336727-1.183594-4.722656-1.183594-4.722656a0.99940346 0.99940346 0 0 0 -1.011719 -0.914062z"
     style="opacity:.2"
     id="path16" />
  <path
     d="m17 17s1 10 7 10 7-10 7-10"
     style="stroke-linejoin:round;stroke:#4c566a;stroke-linecap:round;stroke-width:2px;fill:none;stroke-opacity:1"
     id="path18" />
  <path
     style="opacity:.2;fill:#ffffff"
     d="m6 4c-1.108 0-2 0.892-2 2v1c0-1.108 0.892-2 2-2h36c1.108 0 2 0.892 2 2v-1c0-1.108-0.892-2-2-2z"
     id="path20" />
  <path
     style="opacity:.2;fill:#ffffff"
     d="m10 10-2 26s0.00764 0.1547 0.046874 0.367188l1.953126-25.367188h28l1.953124 25.367188c0.039236-0.212482 0.046876-0.367188 0.046876-0.367188l-2-26z"
     id="path22" />
</svg>
