<?xml version="1.0" encoding="UTF-8" standalone="no"?>
<svg
   xmlns:dc="http://purl.org/dc/elements/1.1/"
   xmlns:cc="http://creativecommons.org/ns#"
   xmlns:rdf="http://www.w3.org/1999/02/22-rdf-syntax-ns#"
   xmlns:svg="http://www.w3.org/2000/svg"
   xmlns="http://www.w3.org/2000/svg"
   xmlns:sodipodi="http://sodipodi.sourceforge.net/DTD/sodipodi-0.dtd"
   xmlns:inkscape="http://www.inkscape.org/namespaces/inkscape"
   width="48"
   height="48"
   version="1.1"
   id="svg12"
   sodipodi:docname="apple-music.svg"
   inkscape:version="0.92.5 (2060ec1f9f, 2020-04-08)">
  <metadata
     id="metadata18">
    <rdf:RDF>
      <cc:Work
         rdf:about="">
        <dc:format>image/svg+xml</dc:format>
        <dc:type
           rdf:resource="http://purl.org/dc/dcmitype/StillImage" />
      </cc:Work>
    </rdf:RDF>
  </metadata>
  <defs
     id="defs16" />
  <sodipodi:namedview
     pagecolor="#ffffff"
     bordercolor="#666666"
     borderopacity="1"
     objecttolerance="10"
     gridtolerance="10"
     guidetolerance="10"
     inkscape:pageopacity="0"
     inkscape:pageshadow="2"
     inkscape:window-width="783"
     inkscape:window-height="480"
     id="namedview14"
     showgrid="false"
     inkscape:zoom="4.9166667"
     inkscape:cx="24"
     inkscape:cy="24"
     inkscape:window-x="0"
     inkscape:window-y="28"
     inkscape:window-maximized="0"
     inkscape:current-layer="svg12" />
  <rect
     x="4"
     y="5"
     width="40"
     height="40"
     rx="6"
     style="opacity:.2"
     id="rect2" />
  <rect
     x="4"
     y="4"
     width="40"
     height="40"
     rx="6"
     style="fill:#4c566a;fill-opacity:1"
     id="rect4" />
  <path
     d="m33.765625 12.306641c-0.100823 0.0014-0.205438 0.01332-0.3125 0.03711l-14.90625 3.3125c-0.856493 0.190331-1.546875 1.050348-1.546875 1.927733v11.673828a4.5 4.5 0 0 0-1.5-0.257812 4.5 4.5 0 0 0-4.5 4.5 4.5 4.5 0 0 0 4.5 4.5 4.5 4.5 0 0 0 4.5-4.5v-13.166016l12-2.667968v8.591796a4.5 4.5 0 0 0-1.5-0.257812 4.5 4.5 0 0 0-4.5 4.5 4.5 4.5 0 0 0 4.5 4.5 4.5 4.5 0 0 0 4.5-4.5v-16.916016c0-0.767712-0.528613-1.286985-1.234375-1.277343z"
     style="opacity:.2"
     id="path6" />
  <path
     d="m33.765625 11.307132c-0.100823 0.0014-0.205438 0.01332-0.3125 0.03711l-14.90625 3.3125c-0.856493 0.190331-1.546875 1.050348-1.546875 1.927733v11.673828a4.5 4.5 0 0 0-1.5-0.257812 4.5 4.5 0 0 0-4.5 4.5 4.5 4.5 0 0 0 4.5 4.5 4.5 4.5 0 0 0 4.5-4.5v-13.166016l12-2.667968v8.591796a4.5 4.5 0 0 0-1.5-0.257812 4.5 4.5 0 0 0-4.5 4.5 4.5 4.5 0 0 0 4.5 4.5 4.5 4.5 0 0 0 4.5-4.5v-16.916016c0-0.767712-0.528613-1.286985-1.234375-1.277343z"
     style="fill:#ffffff"
     id="path8" />
  <path
     d="m10 4c-3.324 0-6 2.676-6 6v1c0-3.324 2.676-6 6-6h28c3.324 0 6 2.676 6 6v-1c0-3.324-2.676-6-6-6z"
     style="fill:#ffffff;opacity:.2"
     id="path10" />
</svg>
