<?xml version="1.0" encoding="UTF-8" standalone="no"?>
<svg
   xmlns:dc="http://purl.org/dc/elements/1.1/"
   xmlns:cc="http://creativecommons.org/ns#"
   xmlns:rdf="http://www.w3.org/1999/02/22-rdf-syntax-ns#"
   xmlns:svg="http://www.w3.org/2000/svg"
   xmlns="http://www.w3.org/2000/svg"
   xmlns:sodipodi="http://sodipodi.sourceforge.net/DTD/sodipodi-0.dtd"
   xmlns:inkscape="http://www.inkscape.org/namespaces/inkscape"
   width="48"
   height="48"
   version="1.1"
   id="svg28"
   sodipodi:docname="applications-accessories.svg"
   inkscape:version="0.92.5 (2060ec1f9f, 2020-04-08)">
  <metadata
     id="metadata34">
    <rdf:RDF>
      <cc:Work
         rdf:about="">
        <dc:format>image/svg+xml</dc:format>
        <dc:type
           rdf:resource="http://purl.org/dc/dcmitype/StillImage" />
      </cc:Work>
    </rdf:RDF>
  </metadata>
  <defs
     id="defs32" />
  <sodipodi:namedview
     pagecolor="#ffffff"
     bordercolor="#666666"
     borderopacity="1"
     objecttolerance="10"
     gridtolerance="10"
     guidetolerance="10"
     inkscape:pageopacity="0"
     inkscape:pageshadow="2"
     inkscape:window-width="783"
     inkscape:window-height="480"
     id="namedview30"
     showgrid="false"
     inkscape:zoom="4.9166667"
     inkscape:cx="24"
     inkscape:cy="24"
     inkscape:window-x="0"
     inkscape:window-y="28"
     inkscape:window-maximized="0"
     inkscape:current-layer="svg28" />
  <path
     style="opacity:0.2"
     d="m 5,6.00007 v 30 c 0,2 2,2 2,2 h 37 z m 7,13.85742 12.75,11.14258 H 12 Z"
     id="path2" />
  <path
     style="fill:#4c566a;fill-opacity:1"
     d="m 5,5.00007 v 30 c 0,2 2,2 2,2 h 37 z m 7,13.85742 12.75,11.14258 H 12 Z"
     id="path4" />
  <path
     style="opacity:0.2;fill:#ffffff"
     d="m 5,5.00007 v 1 l 37.78125,31 H 44 Z m 7,25 v 1 h 12.75 l -1.14453,-1 z"
     id="path6" />
  <path
     style="opacity:0.2;fill-rule:evenodd"
     d="m 24.51172,18.04297 12,22 L 36.75586,44 33,41.95703 l -12,-22 z"
     id="path8" />
  <path
     style="fill:#a2a2a2;fill-rule:evenodd"
     d="m 24.51172,17.04297 12,22 L 36.75586,43 33,40.95703 l -12,-22 z"
     id="path10" />
  <path
     style="opacity:0.2"
     d="m 21.24414,18.04297 -12,22 L 9,44 12.75586,41.95703 14.4043,38.93555 A 19,19 0 0 0 23,41 19,19 0 0 0 42,22 H 38 A 15,15 0 0 1 23,37 15,15 0 0 1 16.32812,35.4082 l 8.42774,-15.45117 z"
     id="path12" />
  <path
     style="fill:#e4e4e4"
     d="m 21.24414,17.04297 -12,22 L 9,43 12.75586,40.95703 14.4043,37.93555 A 19,19 0 0 0 23,40 19,19 0 0 0 42,21 H 38 A 15,15 0 0 1 23,36 15,15 0 0 1 16.32812,34.4082 l 8.42774,-15.45117 z"
     id="path14" />
  <path
     style="opacity:0.2"
     d="m 21,10 v 4 h -2 c -2,0 -2,2 -2,2 v 8 l 4,4 c 1.32864,1.0738 2.76745,1.24915 4,0 l 4,-4 v -8 c 0,-2 -2,-2 -2,-2 h -2 v -4 z"
     id="path16" />
  <path
     style="opacity:0.2;fill:#ffffff"
     d="m 21.24414,17.04297 -12,22 L 9,43 l 0.0644,-0.0352 0.17969,-2.92187 12,-22 3.0918,1.68555 0.41992,-0.77149 -3.51172,-1.91406 z M 38,21 A 15,15 0 0 1 23,36 15,15 0 0 1 16.76367,34.60938 L 16.32812,35.4082 A 15,15 0 0 0 23,37 15,15 0 0 0 38,22 h 3.96484 a 19,19 0 0 0 0.0352,-1 h -4 z"
     id="path18" />
  <path
     style="fill:#5f697d;fill-opacity:1"
     d="m 21,9 v 4 h -2 c -2,0 -2,2 -2,2 v 8 l 4,4 c 1.32864,1.0738 2.76745,1.24915 4,0 l 4,-4 v -8 c 0,-2 -2,-2 -2,-2 H 25 V 9 Z"
     id="path20" />
  <circle
     style="opacity:0.2"
     cx="23"
     cy="20"
     r="2"
     id="circle22" />
  <circle
     style="fill:#ffffff"
     cx="23"
     cy="19"
     r="2"
     id="circle24" />
  <path
     style="opacity:0.1;fill:#ffffff"
     d="m 21,9 v 1 h 4 V 9 Z m -2,4 c -2,0 -2,2 -2,2 v 1 c 0,0 0,-2 2,-2 h 2 v -1 z m 6,0 v 1 h 2 c 0,0 2,0 2,2 v -1 c 0,-2 -2,-2 -2,-2 z"
     id="path26" />
</svg>
