<?xml version="1.0" encoding="UTF-8" standalone="no"?>
<svg
   xmlns:dc="http://purl.org/dc/elements/1.1/"
   xmlns:cc="http://creativecommons.org/ns#"
   xmlns:rdf="http://www.w3.org/1999/02/22-rdf-syntax-ns#"
   xmlns:svg="http://www.w3.org/2000/svg"
   xmlns="http://www.w3.org/2000/svg"
   xmlns:sodipodi="http://sodipodi.sourceforge.net/DTD/sodipodi-0.dtd"
   xmlns:inkscape="http://www.inkscape.org/namespaces/inkscape"
   width="48"
   height="48"
   version="1"
   id="svg20"
   sodipodi:docname="applications-all.svg"
   inkscape:version="0.92.5 (2060ec1f9f, 2020-04-08)">
  <metadata
     id="metadata26">
    <rdf:RDF>
      <cc:Work
         rdf:about="">
        <dc:format>image/svg+xml</dc:format>
        <dc:type
           rdf:resource="http://purl.org/dc/dcmitype/StillImage" />
      </cc:Work>
    </rdf:RDF>
  </metadata>
  <defs
     id="defs24" />
  <sodipodi:namedview
     pagecolor="#ffffff"
     bordercolor="#666666"
     borderopacity="1"
     objecttolerance="10"
     gridtolerance="10"
     guidetolerance="10"
     inkscape:pageopacity="0"
     inkscape:pageshadow="2"
     inkscape:window-width="783"
     inkscape:window-height="480"
     id="namedview22"
     showgrid="false"
     inkscape:zoom="4.9166667"
     inkscape:cx="-1.1186441"
     inkscape:cy="24"
     inkscape:window-x="0"
     inkscape:window-y="28"
     inkscape:window-maximized="0"
     inkscape:current-layer="svg20" />
  <rect
     style="opacity:0.2"
     width="40"
     height="40"
     x="4"
     y="5"
     rx="4"
     ry="4.286"
     id="rect2" />
  <rect
     style="fill:#4c566a;fill-opacity:1"
     width="40"
     height="40"
     x="4"
     y="4"
     rx="4"
     ry="4.286"
     id="rect4" />
  <rect
     style="opacity:0.2"
     width="12"
     height="12"
     x="10"
     y="11"
     rx="3"
     ry="3"
     id="rect6" />
  <rect
     style="fill:#ffffff"
     width="12"
     height="12"
     x="10"
     y="10"
     rx="3"
     ry="3"
     id="rect8" />
  <rect
     style="opacity:0.3"
     width="12"
     height="12"
     x="26"
     y="10"
     rx="3"
     ry="3"
     id="rect10" />
  <rect
     style="opacity:0.3"
     width="12"
     height="12"
     x="10"
     y="26"
     rx="3"
     ry="3"
     id="rect12" />
  <rect
     style="opacity:0.2"
     width="12"
     height="12"
     x="26"
     y="27"
     rx="3"
     ry="3"
     id="rect14" />
  <rect
     style="fill:#ffffff"
     width="12"
     height="12"
     x="26"
     y="26"
     rx="3"
     ry="3"
     id="rect16" />
  <path
     style="fill:#ffffff;opacity:0.1"
     d="M 8 4 C 5.784 4 4 5.9108706 4 8.2851562 L 4 9.2851562 C 4 6.9108706 5.784 5 8 5 L 40 5 C 42.216 5 44 6.9108706 44 9.2851562 L 44 8.2851562 C 44 5.9108706 42.216 4 40 4 L 8 4 z"
     id="path18" />
</svg>
