<?xml version="1.0" encoding="UTF-8" standalone="no"?>
<svg
   xmlns:dc="http://purl.org/dc/elements/1.1/"
   xmlns:cc="http://creativecommons.org/ns#"
   xmlns:rdf="http://www.w3.org/1999/02/22-rdf-syntax-ns#"
   xmlns:svg="http://www.w3.org/2000/svg"
   xmlns="http://www.w3.org/2000/svg"
   xmlns:sodipodi="http://sodipodi.sourceforge.net/DTD/sodipodi-0.dtd"
   xmlns:inkscape="http://www.inkscape.org/namespaces/inkscape"
   width="48"
   height="48"
   version="1.1"
   id="svg16"
   sodipodi:docname="applications-development.svg"
   inkscape:version="0.92.5 (2060ec1f9f, 2020-04-08)">
  <metadata
     id="metadata22">
    <rdf:RDF>
      <cc:Work
         rdf:about="">
        <dc:format>image/svg+xml</dc:format>
        <dc:type
           rdf:resource="http://purl.org/dc/dcmitype/StillImage" />
      </cc:Work>
    </rdf:RDF>
  </metadata>
  <defs
     id="defs20" />
  <sodipodi:namedview
     pagecolor="#ffffff"
     bordercolor="#666666"
     borderopacity="1"
     objecttolerance="10"
     gridtolerance="10"
     guidetolerance="10"
     inkscape:pageopacity="0"
     inkscape:pageshadow="2"
     inkscape:window-width="783"
     inkscape:window-height="480"
     id="namedview18"
     showgrid="false"
     inkscape:zoom="4.9166667"
     inkscape:cx="-1.1186441"
     inkscape:cy="24"
     inkscape:window-x="0"
     inkscape:window-y="28"
     inkscape:window-maximized="0"
     inkscape:current-layer="svg16" />
  <circle
     style="opacity:0.2"
     cx="24"
     cy="25"
     r="20"
     id="circle2" />
  <circle
     style="fill:#4c566a;fill-opacity:1"
     cx="24"
     cy="24"
     r="20"
     id="circle4" />
  <path
     style="opacity:0.1;fill:#ffffff"
     d="M 24 4 A 20 20 0 0 0 4 24 A 20 20 0 0 0 4.0351562 24.5 A 20 20 0 0 1 24 5 A 20 20 0 0 1 43.982422 24.25 A 20 20 0 0 0 44 24 A 20 20 0 0 0 24 4 z"
     id="path6" />
  <path
     style="fill:#ffffff"
     d="m 16.525281,22.123669 c -0.333147,-0.219667 -0.222098,-0.878671 0.407181,-1.464452 0.888395,-0.915283 1.835853,-0.951893 2.279866,-0.475946 C 19.397409,20.329716 19.989671,21.03 19.989671,21.03 L 22.829,18.22 22.151592,17.373943 C 21.300215,16.531882 22.188612,15.68008 22.188612,15.68008 24.594679,13.336956 27.962987,13 27.962987,13 l 0.03702,-0.468493 c -6.774004,-1.720731 -9.327953,1.208173 -10.253361,2.123456 -0.851381,0.84206 -1.739589,1.720549 -1.961871,1.9404 -0.481214,0.475947 0,1.830565 -0.703312,2.599402 -0.333149,0.329502 -0.777345,0.475947 -1.110493,0.475947 z"
     id="path8" />
  <rect
     style="fill:#ffffff"
     width="3.105"
     height="5.176"
     x="-6.59"
     y="22.95"
     rx="1.035"
     transform="rotate(-45)"
     id="rect10" />
  <path
     style="fill:none;stroke:#ffffff;stroke-width:4;stroke-linecap:round;stroke-linejoin:round;opacity:0.5"
     d="M 20,18 33,33"
     id="path12" />
  <path
     style="opacity:0.2"
     d="M 26.699219 13.251953 C 25.499009 13.564551 23.665787 14.241975 22.189453 15.679688 C 22.189453 15.679688 21.503734 16.338529 21.917969 17.070312 C 22.036574 16.834897 22.189453 16.679688 22.189453 16.679688 C 24.59552 14.336564 27.962891 14 27.962891 14 L 28 13.53125 C 27.54562 13.415828 27.116463 13.327513 26.699219 13.251953 z M 18.529297 19.884766 C 18.064833 19.859918 17.486887 20.088104 16.931641 20.660156 C 16.684062 20.890621 16.519384 21.131597 16.427734 21.353516 L 16.695312 21.623047 C 16.742976 21.67071 16.783854 21.72172 16.820312 21.775391 C 16.856652 21.736975 16.890844 21.698133 16.931641 21.660156 C 17.820036 20.744873 18.768878 20.707647 19.212891 21.183594 C 19.259161 21.220204 19.330558 21.290708 19.412109 21.376953 C 19.415009 21.380053 19.418875 21.383519 19.421875 21.386719 L 31.488281 35.310547 A 2 2 0 0 0 34.310547 35.511719 A 2 2 0 0 0 34.935547 33.494141 A 2 2 0 0 1 34.310547 34.511719 A 2 2 0 0 1 31.488281 34.310547 L 19.421875 20.386719 C 19.418875 20.383519 19.415009 20.380053 19.412109 20.376953 C 19.330558 20.290708 19.259161 20.220204 19.212891 20.183594 C 19.046386 20.005114 18.807975 19.899674 18.529297 19.884766 z M 12.134766 21.390625 C 11.915824 21.784658 11.9695 22.287859 12.304688 22.623047 L 14.5 24.818359 C 14.905504 25.223863 15.559339 25.223864 15.964844 24.818359 L 16.695312 24.085938 C 17.030335 23.750915 17.083792 23.248952 16.865234 22.855469 C 16.819385 22.937688 16.765366 23.015884 16.695312 23.085938 L 15.964844 23.818359 C 15.559339 24.223864 14.905504 24.223863 14.5 23.818359 L 12.304688 21.623047 C 12.234371 21.55273 12.180696 21.473286 12.134766 21.390625 z"
     id="path14" />
</svg>
