<?xml version="1.0" encoding="UTF-8" standalone="no"?>
<svg
   xmlns:dc="http://purl.org/dc/elements/1.1/"
   xmlns:cc="http://creativecommons.org/ns#"
   xmlns:rdf="http://www.w3.org/1999/02/22-rdf-syntax-ns#"
   xmlns:svg="http://www.w3.org/2000/svg"
   xmlns="http://www.w3.org/2000/svg"
   xmlns:sodipodi="http://sodipodi.sourceforge.net/DTD/sodipodi-0.dtd"
   xmlns:inkscape="http://www.inkscape.org/namespaces/inkscape"
   width="48"
   height="48"
   version="1.1"
   id="svg14"
   sodipodi:docname="asciiportal.svg"
   inkscape:version="0.92.5 (2060ec1f9f, 2020-04-08)">
  <metadata
     id="metadata20">
    <rdf:RDF>
      <cc:Work
         rdf:about="">
        <dc:format>image/svg+xml</dc:format>
        <dc:type
           rdf:resource="http://purl.org/dc/dcmitype/StillImage" />
      </cc:Work>
    </rdf:RDF>
  </metadata>
  <defs
     id="defs18" />
  <sodipodi:namedview
     pagecolor="#ffffff"
     bordercolor="#666666"
     borderopacity="1"
     objecttolerance="10"
     gridtolerance="10"
     guidetolerance="10"
     inkscape:pageopacity="0"
     inkscape:pageshadow="2"
     inkscape:window-width="783"
     inkscape:window-height="480"
     id="namedview16"
     showgrid="false"
     inkscape:zoom="4.9166667"
     inkscape:cx="-1.1186441"
     inkscape:cy="24"
     inkscape:window-x="0"
     inkscape:window-y="28"
     inkscape:window-maximized="0"
     inkscape:current-layer="g12" />
  <g
     transform="matrix(2,0,0,2,2,2)"
     id="g12">
    <path
       style="opacity:0.2"
       d="m 9,1.5 v 1 H 7 v 1 H 5 v 1 H 4 v 1 H 3 v 1 H 2 v 2 H 1 v 6 h 1 v 2 h 1 v 1 h 1 v 1 h 1 v 1 h 2 v 1 h 2 v 1 h 4 v -1 h 2 v -1 h 2 v -1 h 1 v -1 h 1 v -1 h 1 v -2 h 1 v -6 h -1 v -2 h -1 v -1 h -1 v -1 h -1 v -1 h -2 v -1 h -2 v -1 z"
       id="path2" />
    <path
       style="fill:#4c566a;fill-opacity:1"
       d="M 9,1 V 2 H 7 V 3 H 5 V 4 H 4 V 5 H 3 V 6 H 2 V 8 H 1 v 6 h 1 v 2 h 1 v 1 h 1 v 1 h 1 v 1 h 2 v 1 h 2 v 1 h 4 v -1 h 2 v -1 h 2 v -1 h 1 v -1 h 1 v -1 h 1 v -2 h 1 V 8 H 20 V 6 H 19 V 5 H 18 V 4 H 17 V 3 H 15 V 2 H 13 V 1 Z"
       id="path4" />
    <path
       style="opacity:0.2;fill:#ffffff"
       d="m 9,1 v 0.5 h 4 V 1 Z M 7,2 V 2.5 H 9 V 2 Z m 6,0 v 0.5 h 2 V 2 Z M 5,3 V 3.5 H 7 V 3 Z m 10,0 v 0.5 h 2 V 3 Z M 4,4 V 4.5 H 5 V 4 Z m 13,0 v 0.5 h 1 V 4 Z M 3,5 V 5.5 H 4 V 5 Z m 15,0 v 0.5 h 1 V 5 Z M 2,6 V 6.5 H 3 V 6 Z m 17,0 v 0.5 h 1 V 6 Z M 1,8 V 8.5 H 2 V 8 Z m 19,0 v 0.5 h 1 V 8 Z"
       id="path6" />
    <path
       style="opacity:0.2"
       d="m 13,2 v 5.5 h -1 v -1 H 10 9 v 1 1 H 8 1 v 1 h 6 v 1 H 6 v 2 1 h 1 1 v 1 h 1 v 1 4.5 1 h 1 v -4.5 h 2 1 v -1 -1 h 1 6 V 14 h 1 v -0.5 h -6 v -1 h 1 v -2 -1 H 15 14 V 8.5 2 Z m 3,7.5 h 1 v -1 h -1 z m 1,-1 h 1 v -1 h -1 z m 1,-1 h 1 v -1 h -1 z m -5,9 v 1 h 1 v -1 z m 1,1 v 1 h 1 v -1 z m 1,1 V 19 h 1 v -0.5 z m -9,-5 H 5 v 1 h 1 z m -1,1 H 4 v 1 h 1 z m -1,1 H 3 v 0.5 0.5 h 1 z m 5,-9 v -1 H 8 v 1 z m -1,-1 v -1 H 7 v 1 z m -1,-1 v -1 H 6 v 1 z"
       id="path8" />
    <path
       style="fill:#ffffff"
       d="M 13,1 V 7 H 12 V 6 H 10 9 V 7 8 H 8 1 v 1 h 6 v 1 H 6 v 2 1 h 1 1 v 1 h 1 v 1 6 h 1 v -5 h 2 1 v -1 -1 h 1 7 v -1 h -6 v -1 h 1 V 10 9 H 15 14 V 8 1 Z m 3,8 h 1 V 8 h -1 z m 1,-1 h 1 V 7 h -1 z m 1,-1 h 1 V 6 h -1 z m -5,9 v 1 h 1 v -1 z m 1,1 v 1 h 1 v -1 z m 1,1 v 1 h 1 V 18 Z M 6,13 H 5 v 1 H 6 Z M 5,14 H 4 v 1 H 5 Z M 4,15 H 3 v 1 H 4 Z M 9,6 V 5 H 8 V 6 Z M 8,5 V 4 H 7 V 5 Z M 7,4 V 3 H 6 v 1 z"
       id="path10" />
  </g>
</svg>
