<?xml version="1.0" encoding="UTF-8" standalone="no"?>
<svg
   xmlns:dc="http://purl.org/dc/elements/1.1/"
   xmlns:cc="http://creativecommons.org/ns#"
   xmlns:rdf="http://www.w3.org/1999/02/22-rdf-syntax-ns#"
   xmlns:svg="http://www.w3.org/2000/svg"
   xmlns="http://www.w3.org/2000/svg"
   xmlns:sodipodi="http://sodipodi.sourceforge.net/DTD/sodipodi-0.dtd"
   xmlns:inkscape="http://www.inkscape.org/namespaces/inkscape"
   width="48"
   height="48"
   version="1"
   id="svg38"
   sodipodi:docname="libresprite.svg"
   inkscape:version="0.92.5 (2060ec1f9f, 2020-04-08)">
  <metadata
     id="metadata44">
    <rdf:RDF>
      <cc:Work
         rdf:about="">
        <dc:format>image/svg+xml</dc:format>
        <dc:type
           rdf:resource="http://purl.org/dc/dcmitype/StillImage" />
      </cc:Work>
    </rdf:RDF>
  </metadata>
  <defs
     id="defs42" />
  <sodipodi:namedview
     pagecolor="#ffffff"
     bordercolor="#666666"
     borderopacity="1"
     objecttolerance="10"
     gridtolerance="10"
     guidetolerance="10"
     inkscape:pageopacity="0"
     inkscape:pageshadow="2"
     inkscape:window-width="783"
     inkscape:window-height="480"
     id="namedview40"
     showgrid="false"
     inkscape:zoom="4.9166667"
     inkscape:cx="22.439063"
     inkscape:cy="21.362521"
     inkscape:window-x="0"
     inkscape:window-y="28"
     inkscape:window-maximized="0"
     inkscape:current-layer="svg38" />
  <path
     style="opacity:0.2"
     d="m 3,42 v 1 h 3 v -1 z m 39,0 v 1 H 42 45 V 42 H 42 Z M 6,45 v 1 h 3 30 3 V 45 H 39 9 Z"
     id="path2" />
  <rect
     style="fill:#4c566a;fill-opacity:1"
     width="36"
     height="36"
     x="6"
     y="6"
     id="rect4" />
  <path
     style="fill:#ffffff;fill-opacity:1"
     d="m9 3v3h30v-3zm30 3v3h3v-3zm3 3v30h3v-30zm0 30h-3v3h3zm-3 3h-30v3h30zm-30 0v-3h-3v3zm-3-3v-30h-3v30zm0-30h3v-3h-3zm9 6v12h3v-12zm15 0v12h3v-12z"
     id="path6" />
  <path
     style="fill:#5f697d;fill-opacity:1"
     d="m6 33v6h3v3h30v-3h3v-6h-3v3h-30v-3z"
     id="path8" />
  <rect
     style="opacity:.2"
     width="3"
     height="1"
     x="3"
     y="9"
     id="rect10" />
  <rect
     style="opacity:.2"
     width="3"
     height="1"
     x="6"
     y="6"
     id="rect12" />
  <rect
     style="opacity:.2"
     width="3"
     height="1"
     x="39"
     y="6"
     id="rect14" />
  <rect
     style="opacity:.2"
     width="3"
     height="1"
     x="42"
     y="9"
     id="rect16" />
  <rect
     style="opacity:.2"
     width="3"
     height="1"
     x="6"
     y="32.99"
     id="rect18" />
  <rect
     style="opacity:.2"
     width="3"
     height="1"
     x="6"
     y="39"
     id="rect20" />
  <rect
     style="opacity:.2"
     width="3"
     height="1"
     x="39"
     y="32.99"
     id="rect22" />
  <rect
     style="opacity:.2"
     width="3"
     height="1"
     x="39"
     y="39"
     id="rect24" />
  <rect
     style="opacity:.2"
     width="30"
     height="1"
     x="9"
     y="36"
     id="rect26" />
  <rect
     style="opacity:.2"
     width="30"
     height="1"
     x="9"
     y="42"
     id="rect28" />
  <path
     style="opacity:0.1"
     d="m15 28v-1h3v1zm15 0v-1h3v1z"
     id="path30" />
  <path
     style="fill:#4c566a;fill-opacity:1"
     d="m6 3v3h3v-3zm0 3h-3v3h3zm33-3v3h3v-3zm3 3v3h3v-3zm-39 33v3h3v-3zm3 3v3h3v-3zm36-3v3h3v-3zm0 3h-3v3h3z"
     id="path32" />
  <path
     style="opacity:0.1;fill:#ffffff"
     d="m 6,3 v 1 h 3 30 3 V 3 H 39 9 Z M 3,6 V 7 H 6 V 6 Z M 42,6 V 7 H 42 45 V 6 h -3 z"
     id="path34" />
  <path
     style="opacity:0.1;fill:#ffffff"
     d="M 3 39 L 3 40 L 6 40 L 6 39 L 3 39 z M 42 39 L 42 40 L 45 40 L 45 39 L 42 39 z M 6 42 L 6 43 L 9 43 L 9 42 L 6 42 z M 39 42 L 39 43 L 42 43 L 42 42 L 39 42 z"
     id="path36" />
</svg>
