<?xml version="1.0" encoding="UTF-8" standalone="no"?>
<svg
   xmlns:dc="http://purl.org/dc/elements/1.1/"
   xmlns:cc="http://creativecommons.org/ns#"
   xmlns:rdf="http://www.w3.org/1999/02/22-rdf-syntax-ns#"
   xmlns:svg="http://www.w3.org/2000/svg"
   xmlns="http://www.w3.org/2000/svg"
   xmlns:sodipodi="http://sodipodi.sourceforge.net/DTD/sodipodi-0.dtd"
   xmlns:inkscape="http://www.inkscape.org/namespaces/inkscape"
   width="48"
   height="48"
   version="1.1"
   id="svg20"
   sodipodi:docname="appimagekit-athens.svg"
   inkscape:version="0.92.5 (2060ec1f9f, 2020-04-08)">
  <metadata
     id="metadata26">
    <rdf:RDF>
      <cc:Work
         rdf:about="">
        <dc:format>image/svg+xml</dc:format>
        <dc:type
           rdf:resource="http://purl.org/dc/dcmitype/StillImage" />
      </cc:Work>
    </rdf:RDF>
  </metadata>
  <defs
     id="defs24" />
  <sodipodi:namedview
     pagecolor="#ffffff"
     bordercolor="#666666"
     borderopacity="1"
     objecttolerance="10"
     gridtolerance="10"
     guidetolerance="10"
     inkscape:pageopacity="0"
     inkscape:pageshadow="2"
     inkscape:window-width="783"
     inkscape:window-height="480"
     id="namedview22"
     showgrid="false"
     inkscape:zoom="4.9166667"
     inkscape:cx="24"
     inkscape:cy="24"
     inkscape:window-x="0"
     inkscape:window-y="28"
     inkscape:window-maximized="0"
     inkscape:current-layer="svg20" />
  <rect
     style="opacity:0.2"
     width="40"
     height="40"
     x="4"
     y="5"
     ry="3"
     id="rect2" />
  <rect
     style="fill:#4c566a;fill-opacity:1"
     width="40"
     height="40"
     x="4"
     y="4"
     ry="3"
     id="rect4" />
  <path
     style="opacity:0.1"
     d="m 12,13 v 2 20 2 h 2 2 V 35 H 14 V 15 h 2 v -2 h -2 z m 20,0 v 2 h 2 v 20 h -2 v 2 h 2 2 V 35 15 13 H 34 Z M 6,15 v 2 16 2 h 2 2 V 33 H 8 V 17 h 2 V 15 H 8 Z m 32,0 v 2 h 2 v 16 h -2 v 2 h 2 2 V 33 17 15 h -2 z m -14.640625,0.994141 c -0.244072,-7.12e-4 -0.488349,1.66e-4 -0.732422,0.0059 -1.701835,4.893683 -3.42107,10.07239 -5.109375,15 H 16 v 2 H 16.699219 20.5 21 v -2 h -1.673828 c 0.313854,-1.004889 0.656963,-1.999958 0.986328,-3 h 6.195312 l 0.501954,1.447266 C 27.157641,29.965908 27.390387,30.481028 27.552734,31 H 26 V 31.828125 33 h 5 1 v -2 h -1.292969 c -1.719193,-4.931458 -3.456043,-10.078392 -5.152343,-15 -0.732218,0.01708 -1.463096,-0.0037 -2.195313,-0.0059 z m 0.03125,2.796875 c 0.05159,-0.05635 0.670938,1.634281 1.376953,3.755859 l 1.283203,3.857422 h -2.626953 c -2.049304,0 -2.613622,-0.03324 -2.570312,-0.152344 0.0305,-0.08395 0.593585,-1.77458 1.25,-3.755859 0.656416,-1.98128 1.235569,-3.648738 1.287109,-3.705078 z"
     id="path6" />
  <path
     style="fill:#ffffff;fill-opacity:1"
     d="M 23.359375 14.994141 C 23.115303 14.993429 22.871026 14.994307 22.626953 15 C 20.925118 19.893683 19.205883 25.07239 17.517578 30 L 16 30 L 16 32 L 16.699219 32 L 20.5 32 L 21 32 L 21 30 L 19.326172 30 C 19.640026 28.995111 19.983135 28.000042 20.3125 27 L 26.507812 27 L 27.009766 28.447266 C 27.157641 28.965908 27.390387 29.481028 27.552734 30 L 26 30 L 26 30.828125 L 26 32 L 31 32 L 32 32 L 32 30 L 30.707031 30 C 28.987838 25.068542 27.250988 19.921608 25.554688 15 C 24.82247 15.017078 24.091592 14.996275 23.359375 14.994141 z M 23.390625 17.791016 C 23.442213 17.734669 24.061563 19.425297 24.767578 21.546875 L 26.050781 25.404297 L 23.423828 25.404297 C 21.374524 25.404297 20.810206 25.371055 20.853516 25.251953 C 20.884018 25.168001 21.447101 23.477373 22.103516 21.496094 C 22.759932 19.514814 23.339085 17.847356 23.390625 17.791016 z"
     id="path8" />
  <path
     style="opacity:0.2;fill:#ffffff"
     d="M 7 4 C 5.338 4 4 5.338 4 7 L 4 8 C 4 6.338 5.338 5 7 5 L 41 5 C 42.662 5 44 6.338 44 8 L 44 7 C 44 5.338 42.662 4 41 4 L 7 4 z"
     id="path10" />
  <path
     style="fill:#ffffff;fill-opacity:1"
     d="M 12 12 L 12 14 L 12 34 L 12 36 L 14 36 L 16 36 L 16 34 L 14 34 L 14 14 L 16 14 L 16 12 L 14 12 L 12 12 z"
     id="path12" />
  <path
     style="fill:#898989"
     d="M 6 14 L 6 16 L 6 32 L 6 34 L 8 34 L 10 34 L 10 32 L 8 32 L 8 16 L 10 16 L 10 14 L 8 14 L 6 14 z"
     id="path14" />
  <path
     style="fill:#ffffff;fill-opacity:1"
     d="m 36,12 v 2 20 2 h -2 -2 v -2 h 2 V 14 h -2 v -2 h 2 z"
     id="path16" />
  <path
     style="fill:#898989"
     d="m 42,14 v 2 16 2 h -2 -2 v -2 h 2 V 16 h -2 v -2 h 2 z"
     id="path18" />
</svg>
