<?xml version="1.0" encoding="UTF-8" standalone="no"?>
<svg
   xmlns:dc="http://purl.org/dc/elements/1.1/"
   xmlns:cc="http://creativecommons.org/ns#"
   xmlns:rdf="http://www.w3.org/1999/02/22-rdf-syntax-ns#"
   xmlns:svg="http://www.w3.org/2000/svg"
   xmlns="http://www.w3.org/2000/svg"
   xmlns:sodipodi="http://sodipodi.sourceforge.net/DTD/sodipodi-0.dtd"
   xmlns:inkscape="http://www.inkscape.org/namespaces/inkscape"
   width="48"
   height="48"
   version="1"
   id="svg12"
   sodipodi:docname="atunes.svg"
   inkscape:version="0.92.5 (2060ec1f9f, 2020-04-08)">
  <metadata
     id="metadata18">
    <rdf:RDF>
      <cc:Work
         rdf:about="">
        <dc:format>image/svg+xml</dc:format>
        <dc:type
           rdf:resource="http://purl.org/dc/dcmitype/StillImage" />
      </cc:Work>
    </rdf:RDF>
  </metadata>
  <defs
     id="defs16" />
  <sodipodi:namedview
     pagecolor="#ffffff"
     bordercolor="#666666"
     borderopacity="1"
     objecttolerance="10"
     gridtolerance="10"
     guidetolerance="10"
     inkscape:pageopacity="0"
     inkscape:pageshadow="2"
     inkscape:window-width="783"
     inkscape:window-height="480"
     id="namedview14"
     showgrid="false"
     inkscape:zoom="4.9166667"
     inkscape:cx="-1.1186441"
     inkscape:cy="24"
     inkscape:window-x="0"
     inkscape:window-y="28"
     inkscape:window-maximized="0"
     inkscape:current-layer="svg12" />
  <path
     fill="#e4e4e4"
     d="m24 4c-11.08 0-20 8.92-20 20s8.92 20 20 20 20-8.92 20-20-8.92-20-20-20z"
     id="path2"
     style="fill:#4c566a;fill-opacity:1" />
  <path
     fill="#fff"
     opacity=".2"
     d="m24 4c11.07 0 19.982 8.92 19.982 20 0 0.16787-0.008 0.33314-0.01169 0.5-0.264-10.846-9.068-19.5-19.97-19.5s-19.706 8.654-19.97 19.5c-0.004-0.16686-0.011689-0.33213-0.011689-0.5 0-11.08 8.9119-20 19.982-20z"
     id="path4" />
  <path
     opacity=".2"
     d="m4.0118 24.5c-0.0041 0.167-0.0117 0.332-0.0117 0.5 0 11.08 8.92 20 20 20s20-8.92 20-20c0-0.168-0.008-0.333-0.012-0.5-0.264 10.846-9.076 19.5-19.988 19.5s-19.724-8.654-19.988-19.5z"
     id="path6" />
  <path
     opacity=".1"
     d="m26 13c7 0 7 8.333 7 11-1-1-7-8-7-2.666 0 3.782 0.024 7.5973 0 11.363-0.106 2.957-2.542 5.3-5.5 5.303-3.038 0-5.5-2.462-5.5-5.5s2.462-5.5 5.5-5.5c0.508 0.002 1.012 0.07384 1.5 0.21484v-12.215c0-2 2-2 4-2z"
     id="path8" />
  <path
     fill="#3c8cf8"
     d="m26 12c7 0 7 8.333 7 11-1-1-7-8-7-2.666 0 3.782 0.024 7.5973 0 11.363-0.106 2.957-2.542 5.3-5.5 5.303-3.038 0-5.5-2.462-5.5-5.5s2.462-5.5 5.5-5.5c0.508 0.002 1.012 0.07384 1.5 0.21484v-12.215c0-2 2-2 4-2z"
     id="path10"
     style="fill:#fbfcff;fill-opacity:1" />
</svg>
