<?xml version="1.0" encoding="UTF-8" standalone="no"?>
<svg
   xmlns:dc="http://purl.org/dc/elements/1.1/"
   xmlns:cc="http://creativecommons.org/ns#"
   xmlns:rdf="http://www.w3.org/1999/02/22-rdf-syntax-ns#"
   xmlns:svg="http://www.w3.org/2000/svg"
   xmlns="http://www.w3.org/2000/svg"
   xmlns:sodipodi="http://sodipodi.sourceforge.net/DTD/sodipodi-0.dtd"
   xmlns:inkscape="http://www.inkscape.org/namespaces/inkscape"
   width="48"
   height="48"
   version="1"
   id="svg24"
   sodipodi:docname="audience.svg"
   inkscape:version="0.92.5 (2060ec1f9f, 2020-04-08)">
  <metadata
     id="metadata30">
    <rdf:RDF>
      <cc:Work
         rdf:about="">
        <dc:format>image/svg+xml</dc:format>
        <dc:type
           rdf:resource="http://purl.org/dc/dcmitype/StillImage" />
      </cc:Work>
    </rdf:RDF>
  </metadata>
  <defs
     id="defs28" />
  <sodipodi:namedview
     pagecolor="#ffffff"
     bordercolor="#666666"
     borderopacity="1"
     objecttolerance="10"
     gridtolerance="10"
     guidetolerance="10"
     inkscape:pageopacity="0"
     inkscape:pageshadow="2"
     inkscape:window-width="783"
     inkscape:window-height="480"
     id="namedview26"
     showgrid="false"
     inkscape:zoom="6.9532167"
     inkscape:cx="20.104894"
     inkscape:cy="19.75076"
     inkscape:window-x="0"
     inkscape:window-y="28"
     inkscape:window-maximized="0"
     inkscape:current-layer="svg24" />
  <path
     fill="#c2352a"
     d="m7 6c-1.662 0-3 1.338-3 3v25h40v-25c0-1.662-1.338-3-3-3z"
     id="path2"
     style="fill:#4c566a;fill-opacity:1" />
  <path
     fill="#fff"
     opacity=".2"
     d="m7 6c-1.662 0-3 1.338-3 3v1c0-1.662 1.338-3 3-3h34c1.662 0 3 1.338 3 3v-1c0-1.662-1.338-3-3-3h-34z"
     id="path4" />
  <path
     style="fill:#cccccc"
     d="m4 34v5c0 1.662 1.338 3 3 3h34c1.662 0 3-1.338 3-3v-5z"
     id="path6" />
  <rect
     fill="#999"
     width="13"
     height="2"
     x="28"
     y="37"
     rx="1"
     ry=".928"
     id="rect8" />
  <rect
     fill="#c2352a"
     width="21"
     height="2"
     x="7"
     y="37"
     rx="1"
     ry="1"
     id="rect10"
     style="fill:#4c566a;fill-opacity:1" />
  <circle
     opacity=".2"
     cx="28"
     cy="39"
     r="2"
     id="circle12" />
  <circle
     style="fill:#ffffff"
     cx="28"
     cy="38"
     r="2"
     id="circle14" />
  <rect
     fill="#fff"
     style="opacity:.2"
     width="40"
     height="1"
     x="4"
     y="34"
     id="rect16" />
  <path
     opacity=".2"
     d="m18.59 14c-0.54357-0.01-0.63707 0.6466-0.59214 1.1206 4e-3 4.4362-7e-3 8.873 5e-3 13.309 0.0478 0.5304 0.65436 0.74232 0.99922 0.41339 3.6857-2.2712 9.0468-4.5268 12.727-6.8078 0.40157-0.31396 0.24777-1.0451-0.20045-1.1971-3.6858-2.2622-9.0332-4.5368-12.722-6.7913-0.0689-0.0308-0.14295-0.0467-0.21704-0.0468z"
     id="path18" />
  <path
     style="fill:#ffffff"
     d="m18.59 13c-0.54357-0.01-0.63707 0.6466-0.59214 1.1206 4e-3 4.4362-7e-3 8.873 5e-3 13.309 0.0478 0.5304 0.65436 0.74232 0.99922 0.41339 3.6857-2.2712 9.0468-4.5268 12.727-6.8078 0.40157-0.31396 0.24777-1.0451-0.20045-1.1971-3.6858-2.2622-9.0332-4.5368-12.722-6.7913-0.0689-0.0308-0.14295-0.0467-0.21704-0.0468z"
     id="path20" />
  <path
     opacity=".2"
     d="m4 39v1c0 1.662 1.338 3 3 3h34c1.662 0 3-1.338 3-3v-1c0 1.662-1.338 3-3 3h-34c-1.662 0-3-1.338-3-3z"
     id="path22" />
</svg>
