<?xml version="1.0" encoding="UTF-8" standalone="no"?>
<svg
   xmlns:dc="http://purl.org/dc/elements/1.1/"
   xmlns:cc="http://creativecommons.org/ns#"
   xmlns:rdf="http://www.w3.org/1999/02/22-rdf-syntax-ns#"
   xmlns:svg="http://www.w3.org/2000/svg"
   xmlns="http://www.w3.org/2000/svg"
   xmlns:sodipodi="http://sodipodi.sourceforge.net/DTD/sodipodi-0.dtd"
   xmlns:inkscape="http://www.inkscape.org/namespaces/inkscape"
   width="48"
   height="48"
   version="1.1"
   id="svg26"
   sodipodi:docname="aurees.svg"
   inkscape:version="0.92.5 (2060ec1f9f, 2020-04-08)">
  <metadata
     id="metadata32">
    <rdf:RDF>
      <cc:Work
         rdf:about="">
        <dc:format>image/svg+xml</dc:format>
        <dc:type
           rdf:resource="http://purl.org/dc/dcmitype/StillImage" />
      </cc:Work>
    </rdf:RDF>
  </metadata>
  <defs
     id="defs30" />
  <sodipodi:namedview
     pagecolor="#ffffff"
     bordercolor="#666666"
     borderopacity="1"
     objecttolerance="10"
     gridtolerance="10"
     guidetolerance="10"
     inkscape:pageopacity="0"
     inkscape:pageshadow="2"
     inkscape:window-width="783"
     inkscape:window-height="480"
     id="namedview28"
     showgrid="false"
     inkscape:zoom="9.8333333"
     inkscape:cx="21.195561"
     inkscape:cy="38.200613"
     inkscape:window-x="0"
     inkscape:window-y="28"
     inkscape:window-maximized="0"
     inkscape:current-layer="svg26" />
  <circle
     style="opacity:0.2"
     cx="24"
     cy="25"
     r="17"
     id="circle2" />
  <circle
     style="fill:#ffffff"
     cx="24"
     cy="24"
     r="17"
     id="circle4" />
  <path
     style="opacity:0.2"
     d="M 26,5.0996094 V 12.171875 A 13,13 0 0 1 37,25 13,13 0 0 1 36.027344,29.917969 l 6.083984,3.513672 A 20,20 0 0 0 44,25 20,20 0 0 0 26,5.0996094 Z"
     id="path6" />
  <path
     style="fill:#4c566a;fill-opacity:1"
     d="M 26,4.0996094 V 11.171875 A 13,13 0 0 1 37,24 13,13 0 0 1 36.027344,28.917969 l 6.083984,3.513672 A 20,20 0 0 0 44,24 20,20 0 0 0 26,4.0996094 Z"
     id="path8" />
  <path
     style="opacity:0.2"
     d="M 22,5.1210938 A 20,20 0 0 0 4,25 20,20 0 0 0 5.8945312,33.441406 L 11.980469,29.927734 A 13,13 0 0 1 11,25 13,13 0 0 1 22,12.164062 Z"
     id="path10" />
  <path
     style="fill:#4c566a;fill-opacity:1"
     d="M 22,4.1210938 A 20,20 0 0 0 4,24 20,20 0 0 0 5.8945312,32.441406 L 11.980469,28.927734 A 13,13 0 0 1 11,24 13,13 0 0 1 22,11.164062 Z"
     id="path12" />
  <path
     style="opacity:0.2"
     d="M 33.964844,33.347656 A 13,13 0 0 1 24,38 13,13 0 0 1 14.054688,33.349609 l -6.1152349,3.53125 A 20,20 0 0 0 24,45 20,20 0 0 0 40.066406,36.871094 Z"
     id="path14" />
  <path
     style="fill:#4c566a;fill-opacity:1"
     d="M 33.964844,32.347656 A 13,13 0 0 1 24,37 13,13 0 0 1 14.054688,32.349609 l -6.1152349,3.53125 A 20,20 0 0 0 24,44 20,20 0 0 0 40.066406,35.871094 Z"
     id="path16" />
  <path
     style="opacity:0.1;fill:none;stroke:#000000;stroke-width:4;stroke-linecap:round;stroke-linejoin:round"
     d="m 16,27.00012 6,5 8,-13"
     id="path18" />
  <path
     style="fill:none;stroke:#3f3f3f;stroke-width:4;stroke-linecap:round;stroke-linejoin:round"
     d="m 16,26 6,5 8,-13"
     id="path20" />
  <path
     style="fill:#ffffff;opacity:0.2"
     d="M 26 4.0996094 L 26 5.0996094 A 20 20 0 0 1 43.986328 24.708984 A 20 20 0 0 0 44 24 A 20 20 0 0 0 26 4.0996094 z M 36.976562 24.470703 A 13 13 0 0 1 36.027344 28.917969 L 36.324219 29.089844 A 13 13 0 0 0 37 25 A 13 13 0 0 0 36.976562 24.470703 z"
     id="path22" />
  <path
     style="fill:#ffffff;opacity:0.2"
     d="M 22 4.1210938 A 20 20 0 0 0 4 24 A 20 20 0 0 0 4.0214844 24.408203 A 20 20 0 0 1 22 5.1210938 L 22 4.1210938 z M 11.023438 24.527344 A 13 13 0 0 0 11 25 A 13 13 0 0 0 11.685547 29.097656 L 11.980469 28.927734 A 13 13 0 0 1 11.023438 24.527344 z"
     id="path24" />
</svg>
