<?xml version="1.0" encoding="UTF-8" standalone="no"?>
<svg
   xmlns:dc="http://purl.org/dc/elements/1.1/"
   xmlns:cc="http://creativecommons.org/ns#"
   xmlns:rdf="http://www.w3.org/1999/02/22-rdf-syntax-ns#"
   xmlns:svg="http://www.w3.org/2000/svg"
   xmlns="http://www.w3.org/2000/svg"
   xmlns:sodipodi="http://sodipodi.sourceforge.net/DTD/sodipodi-0.dtd"
   xmlns:inkscape="http://www.inkscape.org/namespaces/inkscape"
   width="48"
   height="48"
   version="1.1"
   id="svg14"
   sodipodi:docname="azardi.svg"
   inkscape:version="0.92.5 (2060ec1f9f, 2020-04-08)">
  <metadata
     id="metadata20">
    <rdf:RDF>
      <cc:Work
         rdf:about="">
        <dc:format>image/svg+xml</dc:format>
        <dc:type
           rdf:resource="http://purl.org/dc/dcmitype/StillImage" />
      </cc:Work>
    </rdf:RDF>
  </metadata>
  <defs
     id="defs18" />
  <sodipodi:namedview
     pagecolor="#ffffff"
     bordercolor="#666666"
     borderopacity="1"
     objecttolerance="10"
     gridtolerance="10"
     guidetolerance="10"
     inkscape:pageopacity="0"
     inkscape:pageshadow="2"
     inkscape:window-width="783"
     inkscape:window-height="480"
     id="namedview16"
     showgrid="false"
     inkscape:zoom="4.9166667"
     inkscape:cx="-1.1186441"
     inkscape:cy="24"
     inkscape:window-x="0"
     inkscape:window-y="28"
     inkscape:window-maximized="0"
     inkscape:current-layer="svg14" />
  <rect
     style="opacity:0.2"
     width="36"
     height="36"
     x="6"
     y="7"
     rx="1.8"
     ry="1.8"
     id="rect2" />
  <rect
     style="fill:#4c566a;fill-opacity:1"
     width="36"
     height="36"
     x="6"
     y="6"
     rx="1.8"
     ry="1.8"
     id="rect4" />
  <path
     style="opacity:0.2"
     d="M 11.894531,12 2,38 H 8.9238281 L 10.623047,33 H 21.394531 L 23,37.773438 V 38 H 23.076172 30 45 V 33 H 31.466797 L 45,16.056641 V 12 H 23 v 5 H 36.544922 L 26.697266,29.320312 20.105469,12 Z M 16.009766,18.095703 19.658203,28 h -7.316406 z"
     id="path6" />
  <path
     style="fill:#ffffff"
     d="M 21.39425,32 H 10.623642 L 8.9239617,37 H 2 l 9.89393,-26 h 8.21214 L 30,37 h -6.923962 z m -9.053036,-5 h 7.317572 l -3.649839,-9.90489 z"
     id="path8" />
  <path
     style="fill:#ffffff"
     d="m 23,11 h 22 v 4.057602 L 31.466,32 H 45 v 5 H 23 V 32.942397 L 36.544967,16 H 23 Z"
     id="path10" />
  <path
     style="fill:#ffffff;opacity:0.2"
     d="M 7.8007812 6 C 6.8035813 6 6 6.8035813 6 7.8007812 L 6 8.8007812 C 6 7.8035813 6.8035813 7 7.8007812 7 L 40.199219 7 C 41.196419 7 42 7.8035813 42 8.8007812 L 42 7.8007812 C 42 6.8035813 41.196419 6 40.199219 6 L 7.8007812 6 z"
     id="path12" />
</svg>
