<?xml version="1.0" encoding="UTF-8" standalone="no"?>
<svg
   xmlns:dc="http://purl.org/dc/elements/1.1/"
   xmlns:cc="http://creativecommons.org/ns#"
   xmlns:rdf="http://www.w3.org/1999/02/22-rdf-syntax-ns#"
   xmlns:svg="http://www.w3.org/2000/svg"
   xmlns="http://www.w3.org/2000/svg"
   xmlns:sodipodi="http://sodipodi.sourceforge.net/DTD/sodipodi-0.dtd"
   xmlns:inkscape="http://www.inkscape.org/namespaces/inkscape"
   width="48"
   height="48"
   version="1.1"
   id="svg18"
   sodipodi:docname="backdoor-factory.svg"
   inkscape:version="0.92.5 (2060ec1f9f, 2020-04-08)">
  <metadata
     id="metadata24">
    <rdf:RDF>
      <cc:Work
         rdf:about="">
        <dc:format>image/svg+xml</dc:format>
        <dc:type
           rdf:resource="http://purl.org/dc/dcmitype/StillImage" />
      </cc:Work>
    </rdf:RDF>
  </metadata>
  <defs
     id="defs22" />
  <sodipodi:namedview
     pagecolor="#ffffff"
     bordercolor="#666666"
     borderopacity="1"
     objecttolerance="10"
     gridtolerance="10"
     guidetolerance="10"
     inkscape:pageopacity="0"
     inkscape:pageshadow="2"
     inkscape:window-width="783"
     inkscape:window-height="480"
     id="namedview20"
     showgrid="false"
     inkscape:zoom="1.7383042"
     inkscape:cx="19.49471"
     inkscape:cy="79.661076"
     inkscape:window-x="0"
     inkscape:window-y="28"
     inkscape:window-maximized="0"
     inkscape:current-layer="g16" />
  <g
     transform="matrix(2,0,0,1.9999812,2.0000001,2.000404)"
     id="g16">
    <rect
       x="4"
       y="1.5"
       width="14"
       height="18"
       rx="1"
       ry="1"
       style="opacity:.2"
       id="rect2" />
    <rect
       x="4"
       y="1"
       width="14"
       height="18"
       rx="1"
       ry="1"
       style="fill:#4f4f4f"
       id="rect4" />
    <path
       d="m5.0195312 1.5001926c-0.5598733-0.0108795-1.0195809 0.4400008-1.0195312 0.9999541v15.999265c-1.243e-4 0.468844 0.3254964 0.874837 0.7832031 0.976517l8.9999999 1.999908c0.624596 0.138622 1.216938-0.336751 1.216797-0.976517v-15.999265c1.24e-4 -0.4688446-0.325496-0.8748368-0.783203-0.9765177l-9.0000001-1.9999081c-0.0648144-0.0143392-0.1308956-0.0221901-0.1972657-0.0234364z"
       style="opacity:.2"
       id="path6" />
    <path
       d="m5.0195312 1.0001929c-0.5598733-0.01087946-1.0195809 0.4400008-1.0195312 0.9999541v15.999265c-1.243e-4 0.468844 0.3254964 0.874837 0.7832031 0.976517l8.9999999 1.999908c0.624596 0.138622 1.216938-0.336751 1.216797-0.976517v-15.999265c1.24e-4 -0.4688446-0.325496-0.8748368-0.783203-0.9765177l-9.0000001-1.9999081c-0.0648144-0.0143392-0.1308956-0.0221901-0.1972657-0.0234364z"
       style="fill:#4c566a;fill-opacity:1"
       id="path8" />
    <circle
       cx="12"
       cy="12.5"
       r="1"
       style="opacity:.2"
       id="circle10" />
    <circle
       cx="12"
       cy="12"
       r="1"
       style="fill:#ffffff"
       id="circle12" />
    <path
       d="M 5.0195312,1 C 4.4596579,0.98912054 3.9999503,1.4400468 4,2 v 0.5 c -4.97e-5,-0.5599812 0.4596579,-1.01088 1.0195312,-1 0.06637,0.00125 0.1324513,0.0091 0.1972657,0.023437 l 9.0000001,2 C 14.674504,3.6251234 15.000124,4.031132 15,4.5 V 4 C 15.000124,3.5311555 14.674504,3.1251183 14.216797,3.0234375 l -9.0000001,-2 C 5.1519825,1.0090983 5.0859014,1.0012463 5.0195312,1 Z"
       style="fill:#ffffff;opacity:.2"
       id="path14" />
  </g>
</svg>
