<?xml version="1.0" encoding="UTF-8" standalone="no"?>
<svg
   xmlns:dc="http://purl.org/dc/elements/1.1/"
   xmlns:cc="http://creativecommons.org/ns#"
   xmlns:rdf="http://www.w3.org/1999/02/22-rdf-syntax-ns#"
   xmlns:svg="http://www.w3.org/2000/svg"
   xmlns="http://www.w3.org/2000/svg"
   xmlns:sodipodi="http://sodipodi.sourceforge.net/DTD/sodipodi-0.dtd"
   xmlns:inkscape="http://www.inkscape.org/namespaces/inkscape"
   height="48"
   width="48"
   version="1.1"
   id="svg16"
   sodipodi:docname="baiji-manga-viewer.svg"
   inkscape:version="0.92.5 (2060ec1f9f, 2020-04-08)">
  <metadata
     id="metadata22">
    <rdf:RDF>
      <cc:Work
         rdf:about="">
        <dc:format>image/svg+xml</dc:format>
        <dc:type
           rdf:resource="http://purl.org/dc/dcmitype/StillImage" />
      </cc:Work>
    </rdf:RDF>
  </metadata>
  <defs
     id="defs20" />
  <sodipodi:namedview
     pagecolor="#ffffff"
     bordercolor="#666666"
     borderopacity="1"
     objecttolerance="10"
     gridtolerance="10"
     guidetolerance="10"
     inkscape:pageopacity="0"
     inkscape:pageshadow="2"
     inkscape:window-width="640"
     inkscape:window-height="480"
     id="namedview18"
     showgrid="false"
     inkscape:zoom="4.9166667"
     inkscape:cx="-15.661017"
     inkscape:cy="24"
     inkscape:current-layer="svg16" />
  <circle
     cx="24"
     cy="25"
     r="20"
     style="opacity:.2"
     id="circle2" />
  <circle
     cx="24"
     cy="24"
     r="20"
     style="fill:#4c566a;fill-opacity:1"
     id="circle4" />
  <path
     style="opacity:.2"
     d="m24 5c-8.198159 0.0076413-15.561461 5.017659-18.578125 12.640625 4.578125 1.359375 6.578125 2.359375 18.578125 2.359375s14.213233-1.48883 18.664062-2.179688c-2.970368-7.722827-10.389695-12.81915-18.664062-12.820312z"
     id="path6" />
  <path
     style="fill:#5f697d;fill-opacity:1"
     d="m24 4c-8.198159 0.0076413-15.561461 5.0176593-18.578125 12.640625 4.578125 1.359375 6.578125 2.359375 18.578125 2.359375s14.213233-1.48883 18.664062-2.179688c-2.970368-7.7228269-10.389695-12.81915-18.664062-12.820312z"
     id="path8" />
  <path
     d="m24 4a20 20 0 0 0 -20 20 20 20 0 0 0 0.0215 0.582 20 20 0 0 1 19.9785 -19.582 20 20 0 0 1 19.979 19.418 20 20 0 0 0 0.021 -0.418 20 20 0 0 0 -20 -20z"
     style="opacity:.2;fill:#ffffff"
     id="path10" />
  <path
     style="opacity:.2"
     d="m24 13c-8 0-5 2-9 2 0 0-3-2-3 0 0 2.134375 4 5 4 5l5 4s3 2 3 4-2 3-3 3-2-1-2-1 2-2 2-4c0-1-3-3-3-3l-3 3-5 1s-1 2 1 4c1 1 4 1 4 1s4 4 8 4c9 0 10-9 10-9v-2s5-1 5-3-8-4-8-4-4-5-6-5zm-3 4a1 1 0 0 1 1 1 1 1 0 0 1 -1 1 1 1 0 0 1 -1 -1 1 1 0 0 1 1 -1z"
     id="path12" />
  <path
     style="fill:#ffffff"
     d="m24 12c-8 0-5 2-9 2 0 0-3-2-3 0 0 2.134375 4 5 4 5l5 4s3 2 3 4-2 3-3 3-2-1-2-1 2-2 2-4c0-1-3-3-3-3l-3 3-5 1s-1 2 1 4c1 1 4 1 4 1s4 4 8 4c9 0 10-9 10-9v-2s5-1 5-3-8-4-8-4-4-5-6-5zm-3 4a1 1 0 0 1 1 1 1 1 0 0 1 -1 1 1 1 0 0 1 -1 -1 1 1 0 0 1 1 -1z"
     id="path14" />
</svg>
