<?xml version="1.0" encoding="UTF-8" standalone="no"?>
<svg
   xmlns:dc="http://purl.org/dc/elements/1.1/"
   xmlns:cc="http://creativecommons.org/ns#"
   xmlns:rdf="http://www.w3.org/1999/02/22-rdf-syntax-ns#"
   xmlns:svg="http://www.w3.org/2000/svg"
   xmlns="http://www.w3.org/2000/svg"
   xmlns:sodipodi="http://sodipodi.sourceforge.net/DTD/sodipodi-0.dtd"
   xmlns:inkscape="http://www.inkscape.org/namespaces/inkscape"
   width="48"
   height="48"
   version="1"
   id="svg36"
   sodipodi:docname="bashtop.svg"
   inkscape:version="0.92.5 (2060ec1f9f, 2020-04-08)">
  <metadata
     id="metadata42">
    <rdf:RDF>
      <cc:Work
         rdf:about="">
        <dc:format>image/svg+xml</dc:format>
        <dc:type
           rdf:resource="http://purl.org/dc/dcmitype/StillImage" />
      </cc:Work>
    </rdf:RDF>
  </metadata>
  <defs
     id="defs40">
    <filter
       inkscape:collect="always"
       style="color-interpolation-filters:sRGB"
       id="filter877"
       x="-0.039"
       width="1.078"
       y="-0.0936"
       height="1.1872">
      <feGaussianBlur
         inkscape:collect="always"
         stdDeviation="0.195"
         id="feGaussianBlur879" />
    </filter>
    <filter
       inkscape:collect="always"
       style="color-interpolation-filters:sRGB"
       id="filter881"
       x="-0.117"
       width="1.234"
       y="-0.0936"
       height="1.1872">
      <feGaussianBlur
         inkscape:collect="always"
         stdDeviation="0.195"
         id="feGaussianBlur883" />
    </filter>
    <filter
       inkscape:collect="always"
       style="color-interpolation-filters:sRGB"
       id="filter885"
       x="-0.117"
       width="1.234"
       y="-0.0936"
       height="1.1872">
      <feGaussianBlur
         inkscape:collect="always"
         stdDeviation="0.195"
         id="feGaussianBlur887" />
    </filter>
    <filter
       inkscape:collect="always"
       style="color-interpolation-filters:sRGB"
       id="filter889"
       x="-0.039"
       width="1.078"
       y="-0.0936"
       height="1.1872">
      <feGaussianBlur
         inkscape:collect="always"
         stdDeviation="0.195"
         id="feGaussianBlur891" />
    </filter>
    <filter
       inkscape:collect="always"
       style="color-interpolation-filters:sRGB"
       id="filter893"
       x="-0.117"
       width="1.234"
       y="-0.0936"
       height="1.1872">
      <feGaussianBlur
         inkscape:collect="always"
         stdDeviation="0.195"
         id="feGaussianBlur895" />
    </filter>
    <filter
       inkscape:collect="always"
       style="color-interpolation-filters:sRGB"
       id="filter897"
       x="-0.117"
       width="1.234"
       y="-0.0936"
       height="1.1872">
      <feGaussianBlur
         inkscape:collect="always"
         stdDeviation="0.195"
         id="feGaussianBlur899" />
    </filter>
    <filter
       inkscape:collect="always"
       style="color-interpolation-filters:sRGB"
       id="filter901"
       x="-0.039"
       width="1.078"
       y="-0.0936"
       height="1.1872">
      <feGaussianBlur
         inkscape:collect="always"
         stdDeviation="0.195"
         id="feGaussianBlur903" />
    </filter>
  </defs>
  <sodipodi:namedview
     pagecolor="#ffffff"
     bordercolor="#666666"
     borderopacity="1"
     objecttolerance="10"
     gridtolerance="10"
     guidetolerance="10"
     inkscape:pageopacity="0"
     inkscape:pageshadow="2"
     inkscape:window-width="765"
     inkscape:window-height="480"
     id="namedview38"
     showgrid="false"
     inkscape:zoom="13.906433"
     inkscape:cx="22.39509"
     inkscape:cy="19.265243"
     inkscape:window-x="0"
     inkscape:window-y="28"
     inkscape:window-maximized="0"
     inkscape:current-layer="svg36" />
  <path
     opacity=".2"
     d="m4 40v1c0 1.108 0.892 2 2 2h36c1.108 0 2-0.892 2-2v-1c0 1.108-0.892 2-2 2h-36c-1.108 0-2-0.892-2-2z"
     id="path2" />
  <rect
     style="fill:#4c566a;fill-opacity:1"
     width="40"
     height="36"
     x="4"
     y="6"
     rx="2"
     ry="2"
     id="rect4" />
  <path
     style="opacity:.1;fill:#ffffff"
     d="m6 6c-1.108 0-2 0.892-2 2v1c0-1.108 0.892-2 2-2h36c1.108 0 2 0.892 2 2v-1c0-1.108-0.892-2-2-2h-36z"
     id="path6" />
  <rect
     style="fill:#ffffff;fill-opacity:1;filter:url(#filter877)"
     width="12"
     height="5"
     x="17"
     y="12"
     id="rect8" />
  <rect
     style="fill:#ffffff;fill-opacity:1;filter:url(#filter885)"
     width="4"
     height="5"
     x="17"
     y="17"
     id="rect10" />
  <rect
     style="fill:#ffffff;fill-opacity:1;filter:url(#filter881)"
     width="4"
     height="5"
     x="27"
     y="17"
     id="rect12" />
  <rect
     style="fill:#ffffff;fill-opacity:1;filter:url(#filter889)"
     width="12"
     height="5"
     x="17"
     y="22"
     id="rect14" />
  <rect
     style="fill:#ffffff;fill-opacity:1;filter:url(#filter893)"
     width="4"
     height="5"
     x="17"
     y="27"
     id="rect16" />
  <rect
     style="fill:#ffffff;fill-opacity:1;filter:url(#filter897)"
     width="4"
     height="5"
     x="27"
     y="27"
     id="rect18" />
  <rect
     style="fill:#ffffff;fill-opacity:1;filter:url(#filter901)"
     width="12"
     height="5"
     x="17"
     y="32"
     id="rect20" />
  <rect
     style="opacity:0.2"
     width="14"
     height="1"
     x="17"
     y="17"
     id="rect22" />
  <rect
     style="opacity:0.2"
     width="4"
     height="1"
     x="17"
     y="22"
     id="rect24" />
  <rect
     style="opacity:0.2"
     width="4"
     height="1"
     x="27"
     y="22"
     id="rect26" />
  <rect
     style="opacity:0.2"
     width="14"
     height="1"
     x="17"
     y="27"
     id="rect28" />
  <rect
     style="opacity:0.2"
     width="4"
     height="1"
     x="17"
     y="32"
     id="rect30" />
  <rect
     style="opacity:0.2"
     width="4"
     height="1"
     x="27"
     y="32"
     id="rect32" />
  <rect
     style="opacity:0.2"
     width="12"
     height="1"
     x="17"
     y="37"
     id="rect34" />
</svg>
