<?xml version="1.0" encoding="UTF-8" standalone="no"?>
<svg
   xmlns:dc="http://purl.org/dc/elements/1.1/"
   xmlns:cc="http://creativecommons.org/ns#"
   xmlns:rdf="http://www.w3.org/1999/02/22-rdf-syntax-ns#"
   xmlns:svg="http://www.w3.org/2000/svg"
   xmlns="http://www.w3.org/2000/svg"
   xmlns:sodipodi="http://sodipodi.sourceforge.net/DTD/sodipodi-0.dtd"
   xmlns:inkscape="http://www.inkscape.org/namespaces/inkscape"
   height="48"
   width="48"
   version="1.1"
   id="svg18"
   sodipodi:docname="besiege.svg"
   inkscape:version="0.92.5 (2060ec1f9f, 2020-04-08)">
  <metadata
     id="metadata24">
    <rdf:RDF>
      <cc:Work
         rdf:about="">
        <dc:format>image/svg+xml</dc:format>
        <dc:type
           rdf:resource="http://purl.org/dc/dcmitype/StillImage" />
      </cc:Work>
    </rdf:RDF>
  </metadata>
  <defs
     id="defs22" />
  <sodipodi:namedview
     pagecolor="#ffffff"
     bordercolor="#666666"
     borderopacity="1"
     objecttolerance="10"
     gridtolerance="10"
     guidetolerance="10"
     inkscape:pageopacity="0"
     inkscape:pageshadow="2"
     inkscape:window-width="783"
     inkscape:window-height="480"
     id="namedview20"
     showgrid="false"
     inkscape:zoom="4.9166667"
     inkscape:cx="24"
     inkscape:cy="24"
     inkscape:window-x="0"
     inkscape:window-y="28"
     inkscape:window-maximized="0"
     inkscape:current-layer="svg18" />
  <path
     style="opacity:.2"
     d="m8 5-4 3 4 3 1-1v-1h30v1l1 1 4-3-4-3-1 1v1h-30v-1z"
     id="path2" />
  <path
     style="fill:#4f4f4f"
     d="m8 4-4 3 4 3 1-1v-1h30v1l1 1 4-3-4-3-1 1v1h-30v-1z"
     id="path4" />
  <path
     style="opacity:.1;fill:#ffffff"
     d="m8 4l-4 3 0.6660156 0.5 3.3339844-2.5 1 1v-1l-1-1zm1 2v1h30v-1h-30zm30 0l1-1 3.333984 2.5 0.666016-0.5-4-3-1 1v1z"
     id="path6" />
  <path
     style="opacity:.2"
     d="m10 6h4v4h4v-4h4v4h4v-4h4v4h4v-4h4v31l-14 8-14-8z"
     id="path8" />
  <path
     style="fill:#4c566a;fill-opacity:1"
     d="m10 5h4v4h4v-4h4v4h4v-4h4v4h4v-4h4v31l-14 8-14-8z"
     id="path10" />
  <path
     style="opacity:.2"
     d="m18 14v4h12v-4h-2v2h-2v-2h-4v2h-2v-2zm2 5v2h8v-2zm0 3v15h3v-5s0-1 1-1 1 1 1 1v5h3v-15zm3 2h2v4h-2z"
     id="path12" />
  <path
     style="fill:#ffffff"
     d="m18 13v4h12v-4h-2v2h-2v-2h-4v2h-2v-2h-2zm2 5v2h8v-2h-8zm0 3v15h3v-5s0-1 1-1 1 1 1 1v5h3v-15h-8zm3 2h2v4h-2v-4z"
     id="path14" />
  <path
     style="opacity:.2;fill:#ffffff"
     d="m10 5v1h4v-1h-4zm8 0v1h4v-1h-4zm8 0v1h4v-1h-4zm8 0v1h4v-1h-4zm-20 4v1h4v-1h-4zm8 0v1h4v-1h-4zm8 0v1h4v-1h-4z"
     id="path16" />
</svg>
