<?xml version="1.0" encoding="UTF-8" standalone="no"?>
<svg
   xmlns:dc="http://purl.org/dc/elements/1.1/"
   xmlns:cc="http://creativecommons.org/ns#"
   xmlns:rdf="http://www.w3.org/1999/02/22-rdf-syntax-ns#"
   xmlns:svg="http://www.w3.org/2000/svg"
   xmlns="http://www.w3.org/2000/svg"
   xmlns:sodipodi="http://sodipodi.sourceforge.net/DTD/sodipodi-0.dtd"
   xmlns:inkscape="http://www.inkscape.org/namespaces/inkscape"
   width="48"
   height="48"
   version="1"
   id="svg12"
   sodipodi:docname="binance.svg"
   inkscape:version="0.92.5 (2060ec1f9f, 2020-04-08)">
  <metadata
     id="metadata18">
    <rdf:RDF>
      <cc:Work
         rdf:about="">
        <dc:format>image/svg+xml</dc:format>
        <dc:type
           rdf:resource="http://purl.org/dc/dcmitype/StillImage" />
      </cc:Work>
    </rdf:RDF>
  </metadata>
  <defs
     id="defs16" />
  <sodipodi:namedview
     pagecolor="#ffffff"
     bordercolor="#666666"
     borderopacity="1"
     objecttolerance="10"
     gridtolerance="10"
     guidetolerance="10"
     inkscape:pageopacity="0"
     inkscape:pageshadow="2"
     inkscape:window-width="783"
     inkscape:window-height="480"
     id="namedview14"
     showgrid="false"
     inkscape:zoom="4.9166667"
     inkscape:cx="24"
     inkscape:cy="24"
     inkscape:window-x="0"
     inkscape:window-y="28"
     inkscape:window-maximized="0"
     inkscape:current-layer="svg12" />
  <rect
     style="opacity:0.2"
     width="40"
     height="40"
     x="4"
     y="5"
     rx="12"
     ry="12"
     id="rect2" />
  <rect
     style="fill:#4c566a;fill-opacity:1"
     width="40"
     height="40"
     x="4"
     y="4"
     rx="12"
     ry="12"
     id="rect4" />
  <path
     style="opacity:0.1;fill:#ffffff"
     d="M 16,4 C 9.352,4 4,9.352 4,16 v 1 C 4,10.352 9.352,5 16,5 h 16 c 6.648,0 12,5.352 12,12 V 16 C 44,9.352 38.648,4 32,4 Z"
     id="path6" />
  <path
     style="opacity:0.2"
     d="M 16.310244,25 13.171513,28.144532 10,25 13.168782,21.828125 Z m 7.676099,-7.683595 5.408779,5.414064 3.168781,-3.171876 L 23.986342,11 15.40878,19.585937 18.57756,22.757813 Z M 34.803904,21.828125 31.662441,25 34.831222,28.171874 38,25 Z M 23.986343,32.683594 18.577561,27.242187 15.408782,30.414062 23.986343,39 32.563904,30.414062 29.395123,27.242187 Z m 0,-4.539062 3.168779,-3.171876 L 23.986343,21.828125 20.817562,25 Z"
     id="path8" />
  <path
     style="fill:#ffffff;fill-opacity:1"
     d="M 16.310243,24 13.171512,27.144532 10,24 13.168781,20.828125 Z m 7.676099,-7.683595 5.40878,5.414064 3.168781,-3.171876 L 23.986342,10 15.40878,18.585937 18.57756,21.757813 Z M 34.803903,20.828125 31.66244,24 34.83122,27.171874 38,24 Z M 23.986343,31.683594 18.57756,26.242187 15.408781,29.414062 23.986343,38 32.563904,29.414062 29.395122,26.242187 Z m 0,-4.539062 3.168779,-3.171876 L 23.986343,20.828125 20.817561,24 Z"
     id="path10" />
</svg>
