<?xml version="1.0" encoding="UTF-8" standalone="no"?>
<svg
   xmlns:dc="http://purl.org/dc/elements/1.1/"
   xmlns:cc="http://creativecommons.org/ns#"
   xmlns:rdf="http://www.w3.org/1999/02/22-rdf-syntax-ns#"
   xmlns:svg="http://www.w3.org/2000/svg"
   xmlns="http://www.w3.org/2000/svg"
   xmlns:sodipodi="http://sodipodi.sourceforge.net/DTD/sodipodi-0.dtd"
   xmlns:inkscape="http://www.inkscape.org/namespaces/inkscape"
   width="48"
   height="48"
   version="1.1"
   id="svg18"
   sodipodi:docname="bingwall.svg"
   inkscape:version="0.92.5 (2060ec1f9f, 2020-04-08)">
  <metadata
     id="metadata24">
    <rdf:RDF>
      <cc:Work
         rdf:about="">
        <dc:format>image/svg+xml</dc:format>
        <dc:type
           rdf:resource="http://purl.org/dc/dcmitype/StillImage" />
      </cc:Work>
    </rdf:RDF>
  </metadata>
  <defs
     id="defs22" />
  <sodipodi:namedview
     pagecolor="#ffffff"
     bordercolor="#666666"
     borderopacity="1"
     objecttolerance="10"
     gridtolerance="10"
     guidetolerance="10"
     inkscape:pageopacity="0"
     inkscape:pageshadow="2"
     inkscape:window-width="783"
     inkscape:window-height="480"
     id="namedview20"
     showgrid="false"
     inkscape:zoom="4.9166667"
     inkscape:cx="24"
     inkscape:cy="24"
     inkscape:window-x="0"
     inkscape:window-y="28"
     inkscape:window-maximized="0"
     inkscape:current-layer="g16" />
  <g
     transform="matrix(2,0,0,2,1.999,2.004)"
     id="g16">
    <circle
       cx="11"
       cy="11.5"
       r="10"
       style="opacity:.2"
       id="circle2" />
    <circle
       cx="11"
       cy="11"
       r="10"
       style="fill:#4c566a;fill-opacity:1"
       id="circle4" />
    <path
       d="M 11,1 A 10,10 0 0 0 1,11 10,10 0 0 0 1.0098,11.293 10,10 0 0 1 11,1.5 10,10 0 0 1 20.99,11.207 10,10 0 0 0 21,11 10,10 0 0 0 11,1 Z"
       style="fill:#ffffff;opacity:.2"
       id="path6" />
    <circle
       cx="7.5"
       cy="7"
       r="1.5"
       style="opacity:.1"
       id="circle8" />
    <circle
       cx="7.5"
       cy="6.5"
       r="1.5"
       style="fill:#ffffff;fill-opacity:1"
       id="circle10" />
    <path
       d="m13.015625 7.46875-2.083984 3.626953-1.4335941-2.6484374-4.3359375 8.0527344h12.671875zm-0.03125 2.0625 3.181641 5.96875h-2.84961l-1.824218-3.371094zm-3.484375 1.019531 2.679688 4.949219h-5.3437505z"
       style="opacity:.1"
       id="path12" />
    <path
       d="M 13.015625,6.96875 10.931641,10.595703 9.4980469,7.9472656 5.1621094,16 H 17.833984 Z M 12.984375,9.03125 16.166016,15 h -2.84961 L 11.492188,11.628906 Z M 9.5,10.050781 12.179688,15 H 6.8359375 Z"
       style="fill:#ffffff;fill-opacity:1"
       id="path14" />
  </g>
</svg>
