<?xml version="1.0" encoding="UTF-8" standalone="no"?>
<svg
   xmlns:dc="http://purl.org/dc/elements/1.1/"
   xmlns:cc="http://creativecommons.org/ns#"
   xmlns:rdf="http://www.w3.org/1999/02/22-rdf-syntax-ns#"
   xmlns:svg="http://www.w3.org/2000/svg"
   xmlns="http://www.w3.org/2000/svg"
   xmlns:sodipodi="http://sodipodi.sourceforge.net/DTD/sodipodi-0.dtd"
   xmlns:inkscape="http://www.inkscape.org/namespaces/inkscape"
   width="48"
   height="48"
   version="1"
   id="svg16"
   sodipodi:docname="bitmap2component.svg"
   inkscape:version="0.92.5 (2060ec1f9f, 2020-04-08)">
  <metadata
     id="metadata22">
    <rdf:RDF>
      <cc:Work
         rdf:about="">
        <dc:format>image/svg+xml</dc:format>
        <dc:type
           rdf:resource="http://purl.org/dc/dcmitype/StillImage" />
      </cc:Work>
    </rdf:RDF>
  </metadata>
  <defs
     id="defs20" />
  <sodipodi:namedview
     pagecolor="#ffffff"
     bordercolor="#666666"
     borderopacity="1"
     objecttolerance="10"
     gridtolerance="10"
     guidetolerance="10"
     inkscape:pageopacity="0"
     inkscape:pageshadow="2"
     inkscape:window-width="640"
     inkscape:window-height="480"
     id="namedview18"
     showgrid="false"
     inkscape:zoom="4.9166667"
     inkscape:cx="-15.661017"
     inkscape:cy="24"
     inkscape:current-layer="svg16" />
  <rect
     width="40"
     height="40"
     x="4.2033896"
     y="3.9067798"
     rx="2"
     ry="2"
     id="rect2"
     style="fill:#4c566a;fill-opacity:1" />
  <path
     inkscape:connector-curvature="0"
     style="opacity:0.2"
     d="M 44.20339,11.90678 V 6.9067797 c 0,-1.108 -0.892,-2 -2,-2 H 6.2033898 c -1.108,0 -2,0.892 -2,2 V 11.90678 Z"
     id="path4" />
  <path
     inkscape:connector-curvature="0"
     d="M 44.20339,10.90678 V 5.9067797 c 0,-1.108 -0.892,-2 -2,-2 H 6.2033898 c -1.108,0 -2,0.892 -2,2 V 10.90678 Z"
     id="path6"
     style="fill:#5f697d;fill-opacity:1" />
  <path
     inkscape:connector-curvature="0"
     style="opacity:0.2;fill:#ffffff"
     d="m 6.2033898,3.9067797 c -1.108,0 -2,0.892 -2,2 v 1 c 0,-1.108 0.892,-2 2,-2 H 42.20339 c 1.108,0 2,0.892 2,2 v -1 c 0,-1.108 -0.892,-2 -2,-2 z"
     id="path8" />
  <path
     inkscape:connector-curvature="0"
     style="opacity:0.2"
     d="m 6.2033898,44.90678 c -1.108,0 -2,-0.892 -2,-2 v -1 c 0,1.108 0.892,2 2,2 H 42.20339 c 1.108,0 2,-0.892 2,-2 v 1 c 0,1.108 -0.892,2 -2,2 z"
     id="path10" />
  <path
     inkscape:connector-curvature="0"
     style="opacity:0.2;fill-rule:evenodd"
     d="m 26.06639,29.07478 c 0,1.3673 0.03501,2.5046 -0.62515,3.7159 -0.53113,0.98425 -1.3753,1.5904 -2.3166,1.5904 -1.2853,0 -2.0315,-1.0233 -2.0315,-2.5356 0,-2.9847 2.5556,-3.5279 4.9742,-3.5279 v 0.75819 m 3.3758,8.5331 c -0.21905,0.20705 -0.53913,0.22306 -0.78919,0.08602 -1.1093,-0.96524 -1.3093,-1.4144 -1.9225,-2.3366 -1.836,1.962 -3.133,2.548 -5.517,2.548 -2.816,0 -5.011,-1.816 -5.011,-5.454 0,-2.8407 1.4734,-4.7782 3.5669,-5.7244 1.8134,-0.83621 4.353,-0.98425 6.2945,-1.2153 v -0.45311 c 0,-0.83221 0.06302,-1.8165 -0.4021,-2.5356 -0.4101,-0.64516 -1.1913,-0.91023 -1.8795,-0.91023 -1.2773,0 -2.4146,0.68417 -2.6916,2.1025 -0.05901,0.31608 -0.27707,0.62516 -0.58214,0.64116 l -3.247,-0.363 c -0.273,-0.066 -0.574,-0.298 -0.5,-0.735 0.75,-4.11 4.306,-5.353 7.486,-5.353 1.6294,0 3.7589,0.45311 5.0412,1.7424 1.6294,1.5904 1.4734,3.7119 1.4734,6.0215 v 5.4544 c 0,1.6414 0.64816,2.3596 1.2623,3.2468 0.21505,0.31308 0.26206,0.69517 -0.008,0.93023 -0.68416,0.60215 -1.8985,1.7034 -2.5666,2.3246 l -0.012,-0.012"
     id="path12" />
  <path
     inkscape:connector-curvature="0"
     style="fill:#ffffff;fill-rule:evenodd"
     d="m 26.06639,28.07478 c 0,1.3673 0.03501,2.5046 -0.62515,3.7159 -0.53113,0.98425 -1.3753,1.5904 -2.3166,1.5904 -1.2853,0 -2.0315,-1.0233 -2.0315,-2.5356 0,-2.9847 2.5556,-3.5279 4.9742,-3.5279 v 0.75819 m 3.3758,8.5331 c -0.21905,0.20705 -0.53913,0.22306 -0.78919,0.08602 -1.1093,-0.96524 -1.3093,-1.4144 -1.9225,-2.3366 -1.836,1.962 -3.133,2.548 -5.517,2.548 -2.816,0 -5.011,-1.816 -5.011,-5.454 0,-2.8407 1.4734,-4.7782 3.5669,-5.7244 1.8134,-0.83621 4.353,-0.98425 6.2945,-1.2153 v -0.45311 c 0,-0.83221 0.06302,-1.8165 -0.4021,-2.5356 -0.4101,-0.64516 -1.1913,-0.91023 -1.8795,-0.91023 -1.2773,0 -2.4146,0.68417 -2.6916,2.1025 -0.05901,0.31608 -0.27707,0.62516 -0.58214,0.64116 l -3.247,-0.363 c -0.273,-0.066 -0.574,-0.298 -0.5,-0.735 0.75,-4.11 4.306,-5.353 7.486,-5.353 1.6294,0 3.7589,0.45311 5.0412,1.7424 1.6294,1.5904 1.4734,3.7119 1.4734,6.0215 v 5.4544 c 0,1.6414 0.64816,2.3596 1.2623,3.2468 0.21505,0.31308 0.26206,0.69517 -0.008,0.93023 -0.68416,0.60215 -1.8985,1.7034 -2.5666,2.3246 l -0.012,-0.012"
     id="path14" />
</svg>
