<?xml version="1.0" encoding="UTF-8" standalone="no"?>
<svg
   xmlns:dc="http://purl.org/dc/elements/1.1/"
   xmlns:cc="http://creativecommons.org/ns#"
   xmlns:rdf="http://www.w3.org/1999/02/22-rdf-syntax-ns#"
   xmlns:svg="http://www.w3.org/2000/svg"
   xmlns="http://www.w3.org/2000/svg"
   xmlns:sodipodi="http://sodipodi.sourceforge.net/DTD/sodipodi-0.dtd"
   xmlns:inkscape="http://www.inkscape.org/namespaces/inkscape"
   width="48"
   height="48"
   version="1"
   id="svg12"
   sodipodi:docname="bitwarden.svg"
   inkscape:version="0.92.5 (2060ec1f9f, 2020-04-08)">
  <metadata
     id="metadata18">
    <rdf:RDF>
      <cc:Work
         rdf:about="">
        <dc:format>image/svg+xml</dc:format>
        <dc:type
           rdf:resource="http://purl.org/dc/dcmitype/StillImage" />
      </cc:Work>
    </rdf:RDF>
  </metadata>
  <defs
     id="defs16" />
  <sodipodi:namedview
     pagecolor="#ffffff"
     bordercolor="#666666"
     borderopacity="1"
     objecttolerance="10"
     gridtolerance="10"
     guidetolerance="10"
     inkscape:pageopacity="0"
     inkscape:pageshadow="2"
     inkscape:window-width="640"
     inkscape:window-height="480"
     id="namedview14"
     showgrid="false"
     inkscape:zoom="4.9166667"
     inkscape:cx="24"
     inkscape:cy="24"
     inkscape:current-layer="svg12" />
  <rect
     style="opacity:0.2"
     width="40"
     height="40"
     x="4"
     y="5"
     rx="2"
     ry="2"
     id="rect2" />
  <rect
     style="fill:#4c566a;fill-opacity:1"
     width="40"
     height="40"
     x="4"
     y="4"
     rx="2"
     ry="2"
     id="rect4" />
  <path
     style="opacity:0.1;fill:#ffffff"
     d="M 6,4 C 4.892,4 4,4.892 4,6 V 7 C 4,5.892 4.892,5 6,5 h 36 c 1.108,0 2,0.892 2,2 V 6 C 44,4.892 43.108,4 42,4 Z"
     id="path6" />
  <path
     style="opacity:0.2"
     d="M 24,11 C 24,11 12.853,11.005 12.57,11.174 11.969,11.531 12,11.091 12,19.426 12,27.884 11.988,27.713 12.645,29.354 13.399,31.24 14.614,32.835 16.609,34.568 18.284,36.022 20.27,37.337 22.484,38.455 23.233,38.833 23.62,39.006 24,39 24.38,39.006 24.767,38.833 25.516,38.455 27.73,37.337 29.716,36.022 31.391,34.568 33.386,32.835 34.601,31.24 35.355,29.354 36.012,27.713 36,27.884 36,19.426 36,11.091 36.031,11.531 35.43,11.174 35.147,11.005 24,11 24,11 Z M 24,15 H 32 V 26.5 C 32,26.5 31.983,27.01 31.641,27.867 31.147,29.102 30.452,30.086 28.768,31.549 27.455,32.689 25.812,33.751 24,34.695 Z"
     id="path8" />
  <path
     style="fill:#efefef"
     d="M 24,9.9998 C 24,9.9998 12.853,10.005 12.57,10.174 11.969,10.531 12,10.091 12,18.426 12,26.884 11.988,26.713 12.645,28.354 13.399,30.24 14.614,31.835 16.609,33.568 18.284,35.022 20.27,36.337 22.484,37.455 23.233,37.833 23.62,38.006 24,38 24.38,38.006 24.767,37.833 25.516,37.455 27.73,36.337 29.716,35.022 31.391,33.568 33.386,31.835 34.601,30.24 35.355,28.354 36.012,26.713 36,26.884 36,18.426 36,10.091 36.031,10.531 35.43,10.174 35.147,10.005 24,9.9998 24,9.9998 Z M 24,14 H 32 V 25.5 C 32,25.5 31.983,26.01 31.641,26.867 31.147,28.102 30.452,29.086 28.768,30.549 27.455,31.689 25.812,32.751 24,33.695 Z"
     id="path10" />
</svg>
