<?xml version="1.0" encoding="UTF-8" standalone="no"?>
<svg
   xmlns:dc="http://purl.org/dc/elements/1.1/"
   xmlns:cc="http://creativecommons.org/ns#"
   xmlns:rdf="http://www.w3.org/1999/02/22-rdf-syntax-ns#"
   xmlns:svg="http://www.w3.org/2000/svg"
   xmlns="http://www.w3.org/2000/svg"
   xmlns:sodipodi="http://sodipodi.sourceforge.net/DTD/sodipodi-0.dtd"
   xmlns:inkscape="http://www.inkscape.org/namespaces/inkscape"
   width="48"
   height="48"
   version="1"
   id="svg16"
   sodipodi:docname="boinc-manager.svg"
   inkscape:version="0.92.5 (2060ec1f9f, 2020-04-08)">
  <metadata
     id="metadata22">
    <rdf:RDF>
      <cc:Work
         rdf:about="">
        <dc:format>image/svg+xml</dc:format>
        <dc:type
           rdf:resource="http://purl.org/dc/dcmitype/StillImage" />
      </cc:Work>
    </rdf:RDF>
  </metadata>
  <defs
     id="defs20" />
  <sodipodi:namedview
     pagecolor="#ffffff"
     bordercolor="#666666"
     borderopacity="1"
     objecttolerance="10"
     gridtolerance="10"
     guidetolerance="10"
     inkscape:pageopacity="0"
     inkscape:pageshadow="2"
     inkscape:window-width="783"
     inkscape:window-height="480"
     id="namedview18"
     showgrid="false"
     inkscape:zoom="4.9166667"
     inkscape:cx="-1.1186441"
     inkscape:cy="24"
     inkscape:window-x="0"
     inkscape:window-y="28"
     inkscape:window-maximized="0"
     inkscape:current-layer="svg16" />
  <path
     opacity=".2"
     d="m4.0118 24.5c-0.0041 0.167-0.0117 0.332-0.0117 0.5 0 11.08 8.92 20 20 20s20-8.92 20-20c0-0.168-0.008-0.333-0.012-0.5-0.264 10.846-9.076 19.5-19.988 19.5s-19.724-8.654-19.988-19.5z"
     id="path2" />
  <path
     style="fill:#4c566a;fill-opacity:1"
     d="m24 4c-11.08 0-20 8.92-20 20s8.92 20 20 20 20-8.92 20-20-8.92-20-20-20z"
     id="path4" />
  <path
     style="opacity:0.2"
     d="M 35.681641 8.7675781 L 32.660156 14.001953 L 30.626953 17.523438 A 10 10 0 0 1 34 25 A 10 10 0 0 1 33.476562 28.162109 L 36.994141 30.193359 A 14 14 0 0 0 38 25 A 14 14 0 0 0 35.519531 17.050781 L 38.734375 11.482422 C 37.811877 10.476858 36.792121 9.5665625 35.681641 8.7675781 z M 10.482422 10.265625 C 9.4768578 11.188123 8.5665625 12.207879 7.7675781 13.318359 L 13.001953 16.339844 L 16.523438 18.373047 A 10 10 0 0 1 24 15 A 10 10 0 0 1 27.162109 15.523438 L 29.193359 12.005859 A 14 14 0 0 0 24 11 A 14 14 0 0 0 16.050781 13.480469 L 10.482422 10.265625 z M 11.005859 19.806641 A 14 14 0 0 0 10 25 A 14 14 0 0 0 12.480469 32.949219 L 9.6191406 37.904297 C 10.562547 38.88007 11.597216 39.765843 12.722656 40.533203 L 15.339844 35.998047 L 17.373047 32.476562 A 10 10 0 0 1 14 25 A 10 10 0 0 1 14.523438 21.837891 L 11.005859 19.806641 z M 31.476562 31.626953 A 10 10 0 0 1 24 35 A 10 10 0 0 1 20.837891 34.476562 L 18.806641 37.994141 A 14 14 0 0 0 24 39 A 14 14 0 0 0 31.949219 36.519531 L 36.84375 39.345703 C 37.900798 38.46108 38.855321 37.464165 39.708984 36.380859 L 34.998047 33.660156 L 31.476562 31.626953 z"
     id="path6" />
  <path
     style="fill:#ffffff;fill-opacity:1"
     d="M 35.681641 7.7675781 L 32.660156 13.001953 L 30.626953 16.523438 A 10 10 0 0 1 34 24 A 10 10 0 0 1 33.476562 27.162109 L 36.994141 29.193359 A 14 14 0 0 0 38 24 A 14 14 0 0 0 35.519531 16.050781 L 38.734375 10.482422 C 37.811877 9.4768579 36.792121 8.5665625 35.681641 7.7675781 z M 10.482422 9.265625 C 9.4768579 10.188123 8.5665625 11.207879 7.7675781 12.318359 L 13.001953 15.339844 L 16.523438 17.373047 A 10 10 0 0 1 24 14 A 10 10 0 0 1 27.162109 14.523438 L 29.193359 11.005859 A 14 14 0 0 0 24 10 A 14 14 0 0 0 16.050781 12.480469 L 10.482422 9.265625 z M 11.005859 18.806641 A 14 14 0 0 0 10 24 A 14 14 0 0 0 12.480469 31.949219 L 9.265625 37.517578 C 10.188123 38.523142 11.207879 39.433438 12.318359 40.232422 L 15.339844 34.998047 L 17.373047 31.476562 A 10 10 0 0 1 14 24 A 10 10 0 0 1 14.523438 20.837891 L 11.005859 18.806641 z M 31.476562 30.626953 A 10 10 0 0 1 24 34 A 10 10 0 0 1 20.837891 33.476562 L 18.806641 36.994141 A 14 14 0 0 0 24 38 A 14 14 0 0 0 31.949219 35.519531 L 37.517578 38.734375 C 38.523142 37.811877 39.433438 36.792121 40.232422 35.681641 L 34.998047 32.660156 L 31.476562 30.626953 z"
     id="path8" />
  <path
     fill="#fff"
     style="opacity:0.1"
     d="m24 4c11.07 0 19.982 8.92 19.982 20 0 0.16787-0.008 0.33314-0.01169 0.5-0.264-10.846-9.068-19.5-19.97-19.5s-19.706 8.654-19.97 19.5c-0.004-0.16686-0.011689-0.33213-0.011689-0.5 0-11.08 8.9119-20 19.982-20z"
     id="path10" />
  <circle
     style="opacity:0.2"
     cx="24"
     cy="25"
     r="6"
     id="circle12" />
  <circle
     style="fill:#ffffff;fill-opacity:1"
     cx="24"
     cy="24"
     r="6"
     id="circle14" />
</svg>
