<?xml version="1.0" encoding="UTF-8" standalone="no"?>
<svg
   xmlns:dc="http://purl.org/dc/elements/1.1/"
   xmlns:cc="http://creativecommons.org/ns#"
   xmlns:rdf="http://www.w3.org/1999/02/22-rdf-syntax-ns#"
   xmlns:svg="http://www.w3.org/2000/svg"
   xmlns="http://www.w3.org/2000/svg"
   xmlns:sodipodi="http://sodipodi.sourceforge.net/DTD/sodipodi-0.dtd"
   xmlns:inkscape="http://www.inkscape.org/namespaces/inkscape"
   width="48"
   height="48"
   version="1"
   id="svg44"
   sodipodi:docname="carla.svg"
   inkscape:version="0.92.5 (2060ec1f9f, 2020-04-08)">
  <metadata
     id="metadata50">
    <rdf:RDF>
      <cc:Work
         rdf:about="">
        <dc:format>image/svg+xml</dc:format>
        <dc:type
           rdf:resource="http://purl.org/dc/dcmitype/StillImage" />
      </cc:Work>
    </rdf:RDF>
  </metadata>
  <defs
     id="defs48" />
  <sodipodi:namedview
     pagecolor="#ffffff"
     bordercolor="#666666"
     borderopacity="1"
     objecttolerance="10"
     gridtolerance="10"
     guidetolerance="10"
     inkscape:pageopacity="0"
     inkscape:pageshadow="2"
     inkscape:window-width="783"
     inkscape:window-height="480"
     id="namedview46"
     showgrid="false"
     inkscape:zoom="4.9166667"
     inkscape:cx="24"
     inkscape:cy="24"
     inkscape:window-x="0"
     inkscape:window-y="28"
     inkscape:window-maximized="0"
     inkscape:current-layer="svg44" />
  <rect
     style="opacity:0.2"
     width="40"
     height="40"
     x="-45"
     y="-44"
     rx="2"
     ry="2"
     transform="matrix(0,-1,-1,0,0,0)"
     id="rect2" />
  <rect
     style="fill:#4c566a;fill-opacity:1"
     width="40"
     height="40"
     x="-44"
     y="-44"
     rx="2"
     ry="2"
     transform="matrix(0,-1,-1,0,0,0)"
     id="rect4" />
  <rect
     style="opacity:0.2"
     width="12"
     height="15"
     x="28"
     y="7"
     id="rect6" />
  <path
     style="opacity:0.2;fill:#ffffff"
     d="M 6,4 C 4.892,4 4,4.892 4,6 V 7 C 4,5.892 4.892,5 6,5 h 36 c 1.108,0 2,0.892 2,2 V 6 C 44,4.892 43.108,4 42,4 Z"
     id="path8" />
  <path
     style="opacity:0.2"
     d="M 44,42 V 24 H 4 v 18 c 0,1.108 0.892,2 2,2 h 36 c 1.108,0 2,-0.892 2,-2 z"
     id="path10" />
  <circle
     style="opacity:0.2"
     cx="14"
     cy="15"
     r="6"
     id="circle12" />
  <circle
     style="fill:#bbbbbb"
     cx="14"
     cy="14"
     r="6"
     id="circle14" />
  <rect
     style="fill:#ffffff;fill-opacity:1"
     width="6"
     height="3"
     x="28"
     y="7"
     id="rect16" />
  <rect
     style="fill:#ffffff;fill-opacity:1"
     width="8"
     height="3"
     x="28"
     y="11"
     id="rect18" />
  <rect
     style="fill:#ffffff;fill-opacity:1"
     width="4"
     height="3"
     x="28"
     y="15"
     id="rect20" />
  <rect
     style="fill:#ffffff;fill-opacity:1"
     width="10"
     height="3"
     x="28"
     y="19"
     id="rect22" />
  <rect
     style="opacity:0.2"
     width="12"
     height="15"
     x="28"
     y="27"
     id="rect24" />
  <circle
     style="opacity:0.2"
     cx="14"
     cy="35"
     r="6"
     id="circle26" />
  <circle
     style="fill:#bbbbbb"
     cx="14"
     cy="34"
     r="6"
     id="circle28" />
  <rect
     style="fill:#ffffff;fill-opacity:1"
     width="6"
     height="3"
     x="28"
     y="27"
     id="rect30" />
  <rect
     style="fill:#ffffff;fill-opacity:1"
     width="8"
     height="3"
     x="28"
     y="31"
     id="rect32" />
  <rect
     style="fill:#ffffff;fill-opacity:1"
     width="4"
     height="3"
     x="28"
     y="35"
     id="rect34" />
  <rect
     style="fill:#ffffff;fill-opacity:1"
     width="10"
     height="3"
     x="28"
     y="39"
     id="rect36" />
  <rect
     style="opacity:0.2"
     width="40"
     height="1"
     x="4"
     y="24"
     id="rect38" />
  <path
     style="opacity:0.2;fill:#ffffff"
     d="M 14,8 A 6,6 0 0 0 8,14 6,6 0 0 0 8.0253906,14.498047 6,6 0 0 1 14,9 6,6 0 0 1 19.974609,14.501953 6,6 0 0 0 20,14 6,6 0 0 0 14,8 Z"
     id="path40" />
  <path
     style="opacity:0.2;fill:#ffffff"
     d="M 14,28 A 6,6 0 0 0 8,34 6,6 0 0 0 8.0253906,34.498047 6,6 0 0 1 14,29 6,6 0 0 1 19.974609,34.501953 6,6 0 0 0 20,34 6,6 0 0 0 14,28 Z"
     id="path42" />
</svg>
