<?xml version="1.0" encoding="UTF-8" standalone="no"?>
<svg
   xmlns:dc="http://purl.org/dc/elements/1.1/"
   xmlns:cc="http://creativecommons.org/ns#"
   xmlns:rdf="http://www.w3.org/1999/02/22-rdf-syntax-ns#"
   xmlns:svg="http://www.w3.org/2000/svg"
   xmlns="http://www.w3.org/2000/svg"
   xmlns:sodipodi="http://sodipodi.sourceforge.net/DTD/sodipodi-0.dtd"
   xmlns:inkscape="http://www.inkscape.org/namespaces/inkscape"
   width="48"
   height="48"
   version="1.1"
   id="svg28"
   sodipodi:docname="celestia.svg"
   inkscape:version="0.92.5 (2060ec1f9f, 2020-04-08)">
  <metadata
     id="metadata34">
    <rdf:RDF>
      <cc:Work
         rdf:about="">
        <dc:format>image/svg+xml</dc:format>
        <dc:type
           rdf:resource="http://purl.org/dc/dcmitype/StillImage" />
      </cc:Work>
    </rdf:RDF>
  </metadata>
  <defs
     id="defs32" />
  <sodipodi:namedview
     pagecolor="#ffffff"
     bordercolor="#666666"
     borderopacity="1"
     objecttolerance="10"
     gridtolerance="10"
     guidetolerance="10"
     inkscape:pageopacity="0"
     inkscape:pageshadow="2"
     inkscape:window-width="783"
     inkscape:window-height="480"
     id="namedview30"
     showgrid="false"
     inkscape:zoom="4.9166667"
     inkscape:cx="26.831462"
     inkscape:cy="23.77236"
     inkscape:window-x="0"
     inkscape:window-y="28"
     inkscape:window-maximized="0"
     inkscape:current-layer="svg28" />
  <circle
     style="opacity:0.2"
     cx="24"
     cy="25"
     r="20"
     id="circle2" />
  <circle
     style="fill:#4c566a;fill-opacity:1"
     cx="24"
     cy="24"
     r="20"
     id="circle4" />
  <circle
     style="opacity:0.2"
     cx="37"
     cy="12"
     r="11"
     id="circle6" />
  <path
     style="opacity:0.1;fill:#ffffff"
     d="M 24,4 A 20,20 0 0 0 4,24 20,20 0 0 0 4.0215,24.582 20,20 0 0 1 24,5 20,20 0 0 1 43.979,24.418 20,20 0 0 0 44,24 20,20 0 0 0 24,4 Z"
     id="path8" />
  <circle
     style="opacity:0.2"
     cx="42"
     cy="34"
     r="5"
     id="circle10" />
  <circle
     style="fill:#4c566a;fill-opacity:1"
     cx="42"
     cy="33"
     r="5"
     id="circle12" />
  <circle
     style="fill:#5f697d;fill-opacity:1"
     cx="37"
     cy="11"
     r="11"
     id="circle14" />
  <circle
     style="opacity:0.2"
     cx="37"
     cy="12"
     r="7"
     id="circle16" />
  <circle
     style="fill:#737d91;fill-opacity:1"
     cx="37"
     cy="11"
     r="7"
     id="circle18" />
  <path
     style="opacity:0.1;fill:#ffffff"
     d="m 42,28 a 5,5 0 0 0 -5,5 5,5 0 0 0 0.02734,0.484375 A 5,5 0 0 1 42,29 5,5 0 0 1 46.972656,33.515625 5,5 0 0 0 47,33 5,5 0 0 0 42,28 Z"
     id="path20" />
  <circle
     style="opacity:0.2"
     cx="37"
     cy="12"
     r="3"
     id="circle22" />
  <circle
     style="fill:#ffffff"
     cx="37"
     cy="11"
     r="3"
     id="circle24" />
  <path
     style="opacity:0.2;fill:#ffffff"
     d="M 37,0 A 11,11 0 0 0 26,11 11,11 0 0 0 26.021484,11.585938 11,11 0 0 1 37,1 11,11 0 0 1 47.978516,11.414062 11,11 0 0 0 48,11 11,11 0 0 0 37,0 Z"
     id="path26" />
</svg>
