<?xml version="1.0" encoding="UTF-8" standalone="no"?>
<svg
   xmlns:dc="http://purl.org/dc/elements/1.1/"
   xmlns:cc="http://creativecommons.org/ns#"
   xmlns:rdf="http://www.w3.org/1999/02/22-rdf-syntax-ns#"
   xmlns:svg="http://www.w3.org/2000/svg"
   xmlns="http://www.w3.org/2000/svg"
   xmlns:sodipodi="http://sodipodi.sourceforge.net/DTD/sodipodi-0.dtd"
   xmlns:inkscape="http://www.inkscape.org/namespaces/inkscape"
   width="48"
   height="48"
   version="1"
   id="svg12"
   sodipodi:docname="cemu.svg"
   inkscape:version="0.92.5 (2060ec1f9f, 2020-04-08)">
  <metadata
     id="metadata18">
    <rdf:RDF>
      <cc:Work
         rdf:about="">
        <dc:format>image/svg+xml</dc:format>
        <dc:type
           rdf:resource="http://purl.org/dc/dcmitype/StillImage" />
      </cc:Work>
    </rdf:RDF>
  </metadata>
  <defs
     id="defs16" />
  <sodipodi:namedview
     pagecolor="#ffffff"
     bordercolor="#666666"
     borderopacity="1"
     objecttolerance="10"
     gridtolerance="10"
     guidetolerance="10"
     inkscape:pageopacity="0"
     inkscape:pageshadow="2"
     inkscape:window-width="783"
     inkscape:window-height="480"
     id="namedview14"
     showgrid="false"
     inkscape:zoom="4.9166667"
     inkscape:cx="24"
     inkscape:cy="24"
     inkscape:window-x="0"
     inkscape:window-y="28"
     inkscape:window-maximized="0"
     inkscape:current-layer="svg12" />
  <rect
     style="opacity:0.2"
     width="40"
     height="40"
     x="4"
     y="5"
     rx="12"
     ry="12"
     id="rect2" />
  <rect
     style="fill:#4c566a;fill-opacity:1"
     width="40"
     height="40"
     x="4"
     y="4"
     rx="12"
     ry="12"
     id="rect4" />
  <path
     style="opacity:0.2;fill:#ffffff"
     d="M 16,4 C 9.352,4 4,9.352 4,16 v 1 C 4,10.352 9.352,5 16,5 h 16 c 6.648,0 12,5.352 12,12 V 16 C 44,9.352 38.648,4 32,4 Z"
     id="path6" />
  <path
     style="opacity:0.2"
     d="m 17,24.877949 c 0.05254,3.074731 0.401987,6.527407 2.673946,9.046084 1.855757,1.990566 4.913489,2.545158 7.600328,1.619934 2.542632,-0.942163 4.067853,-3.207783 5.019107,-5.351894 L 36,31.500475 c -1.336273,2.966891 -3.719083,5.816659 -7.313525,6.921947 -2.895189,0.866108 -6.167177,0.725765 -9.020223,-0.204438 -3.467999,-1.190264 -5.814307,-4.040815 -6.757175,-7.082608 -1.135392,-3.688649 -1.147966,-7.608722 -0.366118,-11.351583 0.667258,-3.145631 2.596987,-6.3391 6.101478,-7.732346 2.946074,-1.187751 6.418147,-1.336554 9.536913,-0.611033 3.207889,0.777282 5.615034,3.063019 6.877424,5.655062 0.72615,0.705652 -0.170593,0.82216 -0.797914,1.02745 l -2.806714,0.937668 C 30.576738,16.545332 28.068271,14.126446 24.875772,14.055726 22.473897,13.908034 20.316869,14.773429 19.061185,16.618275 17.324562,19.031392 17.045199,22.111232 17,24.877949 Z"
     id="path8" />
  <path
     style="fill:#ffffff"
     d="m 17,23.877949 c 0.05254,3.074731 0.401987,6.527407 2.673946,9.046084 1.855757,1.990565 4.913489,2.545158 7.600328,1.619934 2.542632,-0.942163 4.067853,-3.207783 5.019107,-5.351894 L 36,30.500475 c -1.336273,2.966891 -3.719083,5.816659 -7.313525,6.921947 -2.895189,0.866108 -6.167177,0.725765 -9.020223,-0.204438 -3.467999,-1.190264 -5.814307,-4.040815 -6.757175,-7.082608 -1.135392,-3.688649 -1.147966,-7.608722 -0.366118,-11.351583 0.667258,-3.145631 2.596987,-6.3391 6.101478,-7.732346 2.946074,-1.1877508 6.418147,-1.3365542 9.536913,-0.611033 3.207889,0.777282 5.615034,3.063019 6.877424,5.655061 0.72615,0.705652 -0.170593,0.822161 -0.797914,1.027451 l -2.806714,0.937668 C 30.576738,15.545332 28.068271,13.126446 24.875772,13.055726 22.473897,12.908034 20.316869,13.773429 19.061185,15.618275 17.324562,18.031392 17.045199,21.111232 17,23.877949 Z"
     id="path10" />
</svg>
