<?xml version="1.0" encoding="UTF-8" standalone="no"?>
<svg
   xmlns:dc="http://purl.org/dc/elements/1.1/"
   xmlns:cc="http://creativecommons.org/ns#"
   xmlns:rdf="http://www.w3.org/1999/02/22-rdf-syntax-ns#"
   xmlns:svg="http://www.w3.org/2000/svg"
   xmlns="http://www.w3.org/2000/svg"
   xmlns:sodipodi="http://sodipodi.sourceforge.net/DTD/sodipodi-0.dtd"
   xmlns:inkscape="http://www.inkscape.org/namespaces/inkscape"
   width="48"
   height="48"
   version="1"
   id="svg36"
   sodipodi:docname="cervisia.svg"
   inkscape:version="0.92.5 (2060ec1f9f, 2020-04-08)">
  <metadata
     id="metadata42">
    <rdf:RDF>
      <cc:Work
         rdf:about="">
        <dc:format>image/svg+xml</dc:format>
        <dc:type
           rdf:resource="http://purl.org/dc/dcmitype/StillImage" />
      </cc:Work>
    </rdf:RDF>
  </metadata>
  <defs
     id="defs40" />
  <sodipodi:namedview
     pagecolor="#ffffff"
     bordercolor="#666666"
     borderopacity="1"
     objecttolerance="10"
     gridtolerance="10"
     guidetolerance="10"
     inkscape:pageopacity="0"
     inkscape:pageshadow="2"
     inkscape:window-width="783"
     inkscape:window-height="480"
     id="namedview38"
     showgrid="false"
     inkscape:zoom="4.9166667"
     inkscape:cx="12.171487"
     inkscape:cy="25.12805"
     inkscape:window-x="0"
     inkscape:window-y="28"
     inkscape:window-maximized="0"
     inkscape:current-layer="svg36" />
  <rect
     fill="#4f4f4f"
     width="40"
     height="40"
     x="4"
     y="4"
     rx="2"
     ry="2"
     id="rect2"
     style="fill:#4c566a;fill-opacity:1" />
  <g
     opacity=".2"
     transform="translate(0 .99999)"
     id="g16">
    <rect
       width="16"
       height="10"
       x="7"
       y="6"
       rx="2"
       ry="2"
       id="rect4" />
    <rect
       width="16"
       height="10"
       x="25"
       y="6"
       rx="2"
       ry="2"
       id="rect6" />
    <rect
       width="16"
       height="10"
       x="15"
       y="19"
       rx="2"
       ry="2"
       id="rect8" />
    <rect
       width="8"
       height="10"
       x="33"
       y="19"
       rx="2"
       ry="2"
       id="rect10" />
    <rect
       width="16"
       height="10"
       x="7"
       y="32"
       rx="2"
       ry="2"
       id="rect12" />
    <rect
       width="16"
       height="10"
       x="25"
       y="32"
       rx="2"
       ry="2"
       id="rect14" />
  </g>
  <path
     fill="#fff"
     opacity=".1"
     d="m6 4c-1.108 0-2 0.892-2 2v1c0-1.108 0.892-2 2-2h36c1.108 0 2 0.892 2 2v-1c0-1.108-0.892-2-2-2h-36z"
     id="path18" />
  <path
     opacity=".2"
     d="m6 45c-1.108 0-2-0.892-2-2v-1c0 1.108 0.892 2 2 2h36c1.108 0 2-0.892 2-2v1c0 1.108-0.892 2-2 2h-36z"
     id="path20" />
  <g
     fill="#ff6363"
     id="g34"
     style="fill:#ffffff;fill-opacity:1">
    <rect
       width="16"
       height="10"
       x="7"
       y="6"
       rx="2"
       ry="2"
       id="rect22"
       style="fill:#ffffff;fill-opacity:1" />
    <rect
       width="16"
       height="10"
       x="25"
       y="6"
       rx="2"
       ry="2"
       id="rect24"
       style="fill:#ffffff;fill-opacity:1" />
    <rect
       width="16"
       height="10"
       x="15"
       y="19"
       rx="2"
       ry="2"
       id="rect26"
       style="fill:#ffffff;fill-opacity:1" />
    <rect
       width="8"
       height="10"
       x="33"
       y="19"
       rx="2"
       ry="2"
       id="rect28"
       style="fill:#ffffff;fill-opacity:1" />
    <rect
       width="16"
       height="10"
       x="7"
       y="32"
       rx="2"
       ry="2"
       id="rect30"
       style="fill:#ffffff;fill-opacity:1" />
    <rect
       width="16"
       height="10"
       x="25"
       y="32"
       rx="2"
       ry="2"
       id="rect32"
       style="fill:#ffffff;fill-opacity:1" />
  </g>
</svg>
