<?xml version="1.0" encoding="UTF-8" standalone="no"?>
<svg
   xmlns:dc="http://purl.org/dc/elements/1.1/"
   xmlns:cc="http://creativecommons.org/ns#"
   xmlns:rdf="http://www.w3.org/1999/02/22-rdf-syntax-ns#"
   xmlns:svg="http://www.w3.org/2000/svg"
   xmlns="http://www.w3.org/2000/svg"
   xmlns:sodipodi="http://sodipodi.sourceforge.net/DTD/sodipodi-0.dtd"
   xmlns:inkscape="http://www.inkscape.org/namespaces/inkscape"
   width="48"
   height="48"
   version="1"
   id="svg34"
   sodipodi:docname="device_serial.svg"
   inkscape:version="0.92.5 (2060ec1f9f, 2020-04-08)">
  <metadata
     id="metadata40">
    <rdf:RDF>
      <cc:Work
         rdf:about="">
        <dc:format>image/svg+xml</dc:format>
        <dc:type
           rdf:resource="http://purl.org/dc/dcmitype/StillImage" />
      </cc:Work>
    </rdf:RDF>
  </metadata>
  <defs
     id="defs38" />
  <sodipodi:namedview
     pagecolor="#ffffff"
     bordercolor="#666666"
     borderopacity="1"
     objecttolerance="10"
     gridtolerance="10"
     guidetolerance="10"
     inkscape:pageopacity="0"
     inkscape:pageshadow="2"
     inkscape:window-width="783"
     inkscape:window-height="480"
     id="namedview36"
     showgrid="false"
     inkscape:zoom="4.9166667"
     inkscape:cx="24.861369"
     inkscape:cy="27.266637"
     inkscape:window-x="0"
     inkscape:window-y="28"
     inkscape:window-maximized="0"
     inkscape:current-layer="svg34" />
  <rect
     style="opacity:0.2"
     width="40"
     height="24"
     x="4"
     y="13"
     rx="2.5"
     ry="2.143"
     id="rect2" />
  <rect
     style="fill:#4c566a;fill-opacity:1"
     width="40"
     height="24"
     x="4"
     y="12"
     rx="2.5"
     ry="2.143"
     id="rect4" />
  <path
     style="opacity:0.2"
     d="m 12.017375,17 23.965249,0 c 1.106396,0 2.178995,0.907076 1.997105,2 l -1.997105,12 c -0.18189,1.092924 -0.890708,2 -1.997104,2 l -19.971041,0 c -1.106396,0 -1.815214,-0.907076 -1.997104,-2 L 10.020271,19 c -0.1818903,-1.092924 0.890708,-2 1.997104,-2 z"
     id="path6" />
  <rect
     style="opacity:0.2"
     width="8"
     height="8"
     x="2"
     y="21"
     rx="1.818"
     ry="1.716"
     id="rect8" />
  <rect
     style="fill:#b3b3b3"
     width="8"
     height="8"
     x="2"
     y="20"
     rx="1.818"
     ry="1.716"
     id="rect10" />
  <rect
     style="opacity:0.2"
     width="8"
     height="8"
     x="38"
     y="21"
     rx="1.818"
     ry="1.716"
     id="rect12" />
  <rect
     style="fill:#b3b3b3"
     width="8"
     height="8"
     x="38"
     y="20"
     rx="1.818"
     ry="1.716"
     id="rect14" />
  <circle
     style="opacity:0.5"
     cx="6"
     cy="24"
     r="2"
     id="circle16" />
  <circle
     style="opacity:0.5"
     cx="42"
     cy="24"
     r="2"
     id="circle18" />
  <path
     style="fill:#5f697d;fill-opacity:1"
     d="m 12.017375,16 23.965249,0 c 1.106396,0 2.178995,0.907076 1.997105,2 l -1.997105,12 c -0.18189,1.092924 -0.890708,2 -1.997104,2 l -19.971041,0 c -1.106396,0 -1.815214,-0.907076 -1.997104,-2 L 10.020271,18 c -0.1818903,-1.092924 0.890708,-2 1.997104,-2 z"
     id="path20" />
  <path
     style="opacity:0.1"
     d="m 15,20 a 2,2 0 0 0 -2,2 2,2 0 0 0 2,2 2,2 0 0 0 2,-2 2,2 0 0 0 -2,-2 z m 6,0 a 2,2 0 0 0 -2,2 2,2 0 0 0 2,2 2,2 0 0 0 2,-2 2,2 0 0 0 -2,-2 z m 6,0 a 2,2 0 0 0 -2,2 2,2 0 0 0 2,2 2,2 0 0 0 2,-2 2,2 0 0 0 -2,-2 z m 6,0 a 2,2 0 0 0 -2,2 2,2 0 0 0 2,2 2,2 0 0 0 2,-2 2,2 0 0 0 -2,-2 z m -15,6 a 2,2 0 0 0 -2,2 2,2 0 0 0 2,2 2,2 0 0 0 2,-2 2,2 0 0 0 -2,-2 z m 6,0 a 2,2 0 0 0 -2,2 2,2 0 0 0 2,2 2,2 0 0 0 2,-2 2,2 0 0 0 -2,-2 z m 6,0 a 2,2 0 0 0 -2,2 2,2 0 0 0 2,2 2,2 0 0 0 2,-2 2,2 0 0 0 -2,-2 z"
     id="path22" />
  <path
     style="fill:#4f4f4f"
     d="M 15 19 A 2 2 0 0 0 13 21 A 2 2 0 0 0 15 23 A 2 2 0 0 0 17 21 A 2 2 0 0 0 15 19 z M 21 19 A 2 2 0 0 0 19 21 A 2 2 0 0 0 21 23 A 2 2 0 0 0 23 21 A 2 2 0 0 0 21 19 z M 27 19 A 2 2 0 0 0 25 21 A 2 2 0 0 0 27 23 A 2 2 0 0 0 29 21 A 2 2 0 0 0 27 19 z M 33 19 A 2 2 0 0 0 31 21 A 2 2 0 0 0 33 23 A 2 2 0 0 0 35 21 A 2 2 0 0 0 33 19 z M 18 25 A 2 2 0 0 0 16 27 A 2 2 0 0 0 18 29 A 2 2 0 0 0 20 27 A 2 2 0 0 0 18 25 z M 24 25 A 2 2 0 0 0 22 27 A 2 2 0 0 0 24 29 A 2 2 0 0 0 26 27 A 2 2 0 0 0 24 25 z M 30 25 A 2 2 0 0 0 28 27 A 2 2 0 0 0 30 29 A 2 2 0 0 0 32 27 A 2 2 0 0 0 30 25 z"
     id="path24" />
  <path
     style="opacity:0.1;fill:#ffffff"
     d="M 6.5,12 C 5.115,12 4,12.955435 4,14.142578 l 0,1 C 4,13.955435 5.115,13 6.5,13 l 35,0 c 1.385,0 2.5,0.955435 2.5,2.142578 l 0,-1 C 44,12.955435 42.885,12 41.5,12 l -35,0 z"
     id="path26" />
  <path
     style="opacity:0.1;fill:#ffffff"
     d="M 3.8183594,20 C 2.8110333,20 2,20.766133 2,21.716797 l 0,1 C 2,21.766133 2.8110333,21 3.8183594,21 l 4.3632812,0 C 9.1889667,21 10,21.766133 10,22.716797 l 0,-1 C 10,20.766133 9.1889667,20 8.1816406,20 l -4.3632812,0 z"
     id="path28" />
  <path
     style="opacity:0.1;fill:#ffffff"
     d="M 39.818359,20 C 38.811033,20 38,20.766133 38,21.716797 l 0,1 C 38,21.766133 38.811033,21 39.818359,21 l 4.363282,0 C 45.188967,21 46,21.766133 46,22.716797 l 0,-1 C 46,20.766133 45.188967,20 44.181641,20 l -4.363282,0 z"
     id="path30" />
  <path
     style="opacity:0.1;fill:#ffffff"
     d="m 12.017578,16 c -1.106396,0 -2.179937,0.907076 -1.998047,2 l 0.05469,0.330078 C 10.310995,17.561522 11.149412,17 12.017578,17 l 23.964844,0 c 0.868166,0 1.706583,0.561522 1.943359,1.330078 L 37.980469,18 c 0.18189,-1.092924 -0.891651,-2 -1.998047,-2 l -23.964844,0 z"
     id="path32" />
</svg>
