<?xml version="1.0" encoding="UTF-8" standalone="no"?>
<svg
   xmlns:dc="http://purl.org/dc/elements/1.1/"
   xmlns:cc="http://creativecommons.org/ns#"
   xmlns:rdf="http://www.w3.org/1999/02/22-rdf-syntax-ns#"
   xmlns:svg="http://www.w3.org/2000/svg"
   xmlns="http://www.w3.org/2000/svg"
   xmlns:sodipodi="http://sodipodi.sourceforge.net/DTD/sodipodi-0.dtd"
   xmlns:inkscape="http://www.inkscape.org/namespaces/inkscape"
   width="48"
   height="48"
   version="1.1"
   id="svg24"
   sodipodi:docname="brave-ieailfmhaghpphfffooibmlghaeopach-Default.svg"
   inkscape:version="0.92.5 (2060ec1f9f, 2020-04-08)">
  <metadata
     id="metadata30">
    <rdf:RDF>
      <cc:Work
         rdf:about="">
        <dc:format>image/svg+xml</dc:format>
        <dc:type
           rdf:resource="http://purl.org/dc/dcmitype/StillImage" />
      </cc:Work>
    </rdf:RDF>
  </metadata>
  <defs
     id="defs28" />
  <sodipodi:namedview
     pagecolor="#ffffff"
     bordercolor="#666666"
     borderopacity="1"
     objecttolerance="10"
     gridtolerance="10"
     guidetolerance="10"
     inkscape:pageopacity="0"
     inkscape:pageshadow="2"
     inkscape:window-width="783"
     inkscape:window-height="480"
     id="namedview26"
     showgrid="false"
     inkscape:zoom="6.9532167"
     inkscape:cx="19.518134"
     inkscape:cy="23.159799"
     inkscape:window-x="0"
     inkscape:window-y="28"
     inkscape:window-maximized="0"
     inkscape:current-layer="svg24" />
  <circle
     style="opacity:0.2"
     cx="24"
     cy="25"
     r="20"
     id="circle2" />
  <circle
     style="fill:#4c566a;fill-opacity:1"
     cx="24"
     cy="24"
     r="20"
     id="circle4" />
  <path
     style="opacity:0.2"
     d="m 26.931533,37.678241 c 4.000943,-1.333118 7.135467,-3.616432 8.928878,-7.309786 0.800285,-1.684501 1.139021,-3.321993 1.139588,-5.508949 5.26e-4,-2.205041 -0.326042,-3.611753 -1.304237,-5.617335 -2.758186,-5.047758 -7.536887,-7.404794 -12.387816,-7.23347 -2.523386,0.08912 -3.84059,0.442311 -6.058595,1.585072 -2.078835,1.07106 -4.191246,3.209544 -5.146023,5.209543 -2.3468205,4.915959 -0.851154,9.74665 3.549001,11.462504 0.682234,0.266042 1.513084,0.37467 3.500329,0.457649 1.3198,0.02872 2.319751,-0.203167 3.204914,0.762335 0.802058,0.874849 0.825023,1.808879 0.07229,2.940727 -0.788654,1.185895 -0.721607,2.682712 0.389294,3.236867 1.051536,0.524542 2.639874,0.361951 4.11235,0.01485 10e-6,-3e-6 3e-5,-1.1e-5 3e-5,-1.1e-5 z"
     id="path6" />
  <path
     style="fill:#ffffff"
     d="m 26.931533,36.678241 c 4.000943,-1.333118 7.135467,-3.616432 8.928878,-7.309786 0.800285,-1.684501 1.139021,-3.321993 1.139588,-5.508949 5.26e-4,-2.205041 -0.326042,-3.611753 -1.304237,-5.617335 -2.758186,-5.047758 -7.536887,-7.404794 -12.387816,-7.23347 -2.523386,0.08912 -3.84059,0.442311 -6.058595,1.585072 -2.078835,1.07106 -4.191246,3.209544 -5.146023,5.209543 -2.3468205,4.915959 -0.851154,9.74665 3.549001,11.462504 0.682234,0.266042 1.513084,0.37467 3.500329,0.457649 1.3198,0.02872 2.319751,-0.203167 3.204914,0.762335 0.802058,0.874849 0.825023,1.808879 0.07229,2.940727 -0.788654,1.185895 -0.721607,2.682712 0.389294,3.236867 1.051536,0.524542 2.639874,0.361951 4.11235,0.01485 10e-6,-3e-6 3e-5,-1.1e-5 3e-5,-1.1e-5 z"
     id="path8" />
  <path
     style="opacity:0.2;fill:#ffffff"
     d="M 24,4 A 20,20 0 0 0 4,24 20,20 0 0 0 4.0215,24.582 20,20 0 0 1 24,5 20,20 0 0 1 43.979,24.418 20,20 0 0 0 44,24 20,20 0 0 0 24,4 Z"
     id="path10" />
  <circle
     style="fill:#4c566a;fill-opacity:1"
     cx="32"
     cy="21"
     r="2"
     id="circle12" />
  <circle
     style="fill:#4c566a;fill-opacity:1"
     cx="16"
     cy="21"
     r="2"
     id="circle14" />
  <circle
     style="fill:#4c566a;fill-opacity:1"
     cx="20"
     cy="16"
     r="2"
     id="circle16" />
  <circle
     style="fill:#4c566a;fill-opacity:1"
     cx="27"
     cy="16"
     r="2"
     id="circle18" />
  <path
     style="fill:#4c566a;fill-opacity:1"
     d="m 21,20.245058 c 1.257819,1.358742 2.758103,0.372799 3.62948,1.407326 0.46846,0.556171 0.359548,2.101332 0.359548,2.101332 l -0.870701,0.726358 C 20.730608,23.989586 21.130708,22.013209 21,20.245058 Z"
     id="path20" />
  <path
     style="fill:#5f697d;fill-opacity:1"
     d="m 24.750483,23.753716 c 0.395398,-0.165867 0.587473,0.03169 0.914933,0.208102 2.387096,1.403078 5.446395,4.879579 9.209945,9.646194 0.733286,1.050841 0.303326,1.8282 -0.739744,1.11837 C 30.529711,31.869859 27.111584,28.832786 24.196163,25.312366 24.024076,25.08489 23.8444,24.861928 23.93185,24.480074 Z"
     id="path22" />
</svg>
