<?xml version="1.0" encoding="UTF-8" standalone="no"?>
<svg
   xmlns:dc="http://purl.org/dc/elements/1.1/"
   xmlns:cc="http://creativecommons.org/ns#"
   xmlns:rdf="http://www.w3.org/1999/02/22-rdf-syntax-ns#"
   xmlns:svg="http://www.w3.org/2000/svg"
   xmlns="http://www.w3.org/2000/svg"
   xmlns:sodipodi="http://sodipodi.sourceforge.net/DTD/sodipodi-0.dtd"
   xmlns:inkscape="http://www.inkscape.org/namespaces/inkscape"
   width="48"
   height="48"
   version="1"
   id="svg12"
   sodipodi:docname="cinelerra.svg"
   inkscape:version="0.92.5 (2060ec1f9f, 2020-04-08)">
  <metadata
     id="metadata18">
    <rdf:RDF>
      <cc:Work
         rdf:about="">
        <dc:format>image/svg+xml</dc:format>
        <dc:type
           rdf:resource="http://purl.org/dc/dcmitype/StillImage" />
      </cc:Work>
    </rdf:RDF>
  </metadata>
  <defs
     id="defs16" />
  <sodipodi:namedview
     pagecolor="#ffffff"
     bordercolor="#666666"
     borderopacity="1"
     objecttolerance="10"
     gridtolerance="10"
     guidetolerance="10"
     inkscape:pageopacity="0"
     inkscape:pageshadow="2"
     inkscape:window-width="783"
     inkscape:window-height="480"
     id="namedview14"
     showgrid="false"
     inkscape:zoom="4.9166667"
     inkscape:cx="24"
     inkscape:cy="24"
     inkscape:window-x="0"
     inkscape:window-y="28"
     inkscape:window-maximized="0"
     inkscape:current-layer="svg12" />
  <rect
     style="opacity:0.2"
     width="40"
     height="40"
     x="4"
     y="-45"
     rx="2"
     ry="2"
     transform="scale(1,-1)"
     id="rect2" />
  <rect
     style="fill:#4c566a;fill-opacity:1"
     width="40"
     height="40"
     x="4"
     y="-44"
     rx="2"
     ry="2"
     transform="scale(1,-1)"
     id="rect4" />
  <path
     style="opacity:0.2"
     d="m 6,7 0,4 4,0 0,-4 -4,0 z m 8,0 0,4 4,0 0,-4 -4,0 z m 8,0 0,4 4,0 0,-4 -4,0 z m 8,0 0,4 4,0 0,-4 -4,0 z m 8,0 0,4 4,0 0,-4 -4,0 z M 8,15 8,35 22,35 22,15 8,15 Z m 18,0 0,20 14,0 0,-20 -14,0 z m -20,24 0,4 4,0 0,-4 -4,0 z m 8,0 0,4 4,0 0,-4 -4,0 z m 8,0 0,4 4,0 0,-4 -4,0 z m 8,0 0,4 4,0 0,-4 -4,0 z m 8,0 0,4 4,0 0,-4 -4,0 z"
     id="path6" />
  <path
     style="fill:#f8fbfd;fill-opacity:1"
     d="M 6 6 L 6 10 L 10 10 L 10 6 L 6 6 z M 14 6 L 14 10 L 18 10 L 18 6 L 14 6 z M 22 6 L 22 10 L 26 10 L 26 6 L 22 6 z M 30 6 L 30 10 L 34 10 L 34 6 L 30 6 z M 38 6 L 38 10 L 42 10 L 42 6 L 38 6 z M 8 14 L 8 34 L 22 34 L 22 14 L 8 14 z M 26 14 L 26 34 L 40 34 L 40 14 L 26 14 z M 6 38 L 6 42 L 10 42 L 10 38 L 6 38 z M 14 38 L 14 42 L 18 42 L 18 38 L 14 38 z M 22 38 L 22 42 L 26 42 L 26 38 L 22 38 z M 30 38 L 30 42 L 34 42 L 34 38 L 30 38 z M 38 38 L 38 42 L 42 42 L 42 38 L 38 38 z"
     id="path8" />
  <path
     style="fill:#ffffff;opacity:0.2"
     d="M 6 4 C 4.892 4 4 4.892 4 6 L 4 7 C 4 5.892 4.892 5 6 5 L 42 5 C 43.108 5 44 5.892 44 7 L 44 6 C 44 4.892 43.108 4 42 4 L 6 4 z"
     id="path10" />
</svg>
