<?xml version="1.0" encoding="UTF-8" standalone="no"?>
<svg
   xmlns:dc="http://purl.org/dc/elements/1.1/"
   xmlns:cc="http://creativecommons.org/ns#"
   xmlns:rdf="http://www.w3.org/1999/02/22-rdf-syntax-ns#"
   xmlns:svg="http://www.w3.org/2000/svg"
   xmlns="http://www.w3.org/2000/svg"
   xmlns:sodipodi="http://sodipodi.sourceforge.net/DTD/sodipodi-0.dtd"
   xmlns:inkscape="http://www.inkscape.org/namespaces/inkscape"
   width="48"
   height="48"
   version="1"
   id="svg20"
   sodipodi:docname="clamav.svg"
   inkscape:version="0.92.5 (2060ec1f9f, 2020-04-08)">
  <metadata
     id="metadata26">
    <rdf:RDF>
      <cc:Work
         rdf:about="">
        <dc:format>image/svg+xml</dc:format>
        <dc:type
           rdf:resource="http://purl.org/dc/dcmitype/StillImage" />
      </cc:Work>
    </rdf:RDF>
  </metadata>
  <defs
     id="defs24" />
  <sodipodi:namedview
     pagecolor="#ffffff"
     bordercolor="#666666"
     borderopacity="1"
     objecttolerance="10"
     gridtolerance="10"
     guidetolerance="10"
     inkscape:pageopacity="0"
     inkscape:pageshadow="2"
     inkscape:window-width="783"
     inkscape:window-height="480"
     id="namedview22"
     showgrid="false"
     inkscape:zoom="4.9166667"
     inkscape:cx="24"
     inkscape:cy="24"
     inkscape:window-x="0"
     inkscape:window-y="28"
     inkscape:window-maximized="0"
     inkscape:current-layer="svg20" />
  <path
     fill="#e03c3b"
     d="m38.781 3a15 15.386 0 0 1 -4.25 8.404c-2.959-2.1343-6.588-3.404-10.531-3.404-3.948 0-7.582 1.2725-10.543 3.412a15 15.386 0 0 1 -4.2382 -8.3124 15 15.386 0 0 0 -0.2188 2.5156 15 15.386 0 0 0 2.102 7.8188c-3.1566 3.239-5.102 7.665-5.102 12.566 0 9.972 8.028 18 18 18s18-8.028 18-18c0-4.901-1.945-9.327-5.102-12.566a15 15.386 0 0 0 2.102 -7.8188 15 15.386 0 0 0 -0.219 -2.6152z"
     id="path2"
     style="fill:#4c566a;fill-opacity:1" />
  <path
     style="opacity:0.2"
     d="m 23,29.996025 c -2,3.360272 -6.20732,5.109654 -9.551685,3.241553 C 10.10375,31.369173 9,27.267057 11,23.996026 Z"
     id="path4" />
  <path
     style="fill:#ffffff"
     d="m 23,29 c -2,3.360272 -6.20732,5.109654 -9.551685,3.241553 C 10.10375,30.373148 9,26.271032 11,23.000001 Z"
     id="path6" />
  <path
     style="fill:#2c2c2c"
     d="m 16.267578,25.632812 c -0.682857,2.019607 -0.0053,4.65698 1.716792,7.103672 0.0049,-10e-4 0.01563,0 0.01563,0 -1.018251,-1.921073 -1.008121,-4.155412 0.01563,-6.228672 z"
     id="path8" />
  <path
     fill="#fff"
     opacity=".2"
     d="m38.781 3a15 15.386 0 0 1 -4.25 8.404c-2.959-2.1343-6.588-3.404-10.531-3.404-3.948 0-7.582 1.2725-10.543 3.412a15 15.386 0 0 1 -4.2382 -8.3124 15 15.386 0 0 0 -0.2188 2.5156 15 15.386 0 0 0 0.0215 0.4239 15 15.386 0 0 1 0.1973 -1.9395 15 15.386 0 0 0 4.2382 8.3124c2.961-2.139 6.595-3.412 10.543-3.412 3.943 0 7.572 1.27 10.531 3.404a15 15.386 0 0 0 4.25 -8.404 15 15.386 0 0 1 0.199 2.2363 15 15.386 0 0 0 0.02 -0.6211 15 15.386 0 0 0 -0.219 -2.6152zm-1.556 10.801a15 15.386 0 0 1 -0.327 0.633c3.047 3.127 4.948 7.365 5.077 12.064 0.004-0.167 0.025-0.33 0.025-0.498 0-4.724-1.819-8.995-4.775-12.199zm-26.455 0.008c-2.9531 3.203-4.77 7.471-4.77 12.191 0 0.168 0.0209 0.331 0.0254 0.498 0.129-4.699 2.0291-8.937 5.0766-12.064a15 15.386 0 0 1 -0.332 -0.625z"
     id="path10" />
  <path
     opacity=".2"
     d="m9.0215 6.0388a15 15.386 0 0 0 -0.0215 0.5761 15 15.386 0 0 0 1.77 7.1938c0.113-0.123 0.215-0.256 0.332-0.375a15 15.386 0 0 1 -2.0805 -7.3952zm29.958 0.1972a15 15.386 0 0 1 -2.082 7.1977c0.115 0.117 0.216 0.246 0.327 0.367a15 15.386 0 0 0 1.775 -7.1858 15 15.386 0 0 0 -0.02 -0.3789zm-32.956 20.262c-0.0046 0.168-0.0254 0.333-0.0254 0.502 0 9.972 8.028 18 18 18s18-8.028 18-18c0-0.169-0.021-0.334-0.025-0.502-0.265 9.738-8.171 17.502-17.975 17.502s-17.71-7.764-17.975-17.502z"
     id="path12" />
  <path
     style="opacity:0.2"
     d="m 25,29.996025 c 2,3.360272 6.20732,5.109654 9.551685,3.241553 C 37.89625,31.369173 39,27.267057 37,23.996026 Z"
     id="path14" />
  <path
     style="fill:#ffffff"
     d="m 25,29 c 2,3.360272 6.20732,5.109654 9.551685,3.241553 C 37.89625,30.373148 39,26.271032 37,23.000001 Z"
     id="path16" />
  <path
     style="fill:#2c2c2c"
     d="m 31.732422,25.632812 c 0.682857,2.019607 0.0053,4.65698 -1.716792,7.103672 -0.0049,-10e-4 -0.01563,0 -0.01563,0 1.018251,-1.921073 1.008121,-4.155412 -0.01563,-6.228672 z"
     id="path18" />
</svg>
