<?xml version="1.0" encoding="UTF-8" standalone="no"?>
<svg
   xmlns:dc="http://purl.org/dc/elements/1.1/"
   xmlns:cc="http://creativecommons.org/ns#"
   xmlns:rdf="http://www.w3.org/1999/02/22-rdf-syntax-ns#"
   xmlns:svg="http://www.w3.org/2000/svg"
   xmlns="http://www.w3.org/2000/svg"
   xmlns:sodipodi="http://sodipodi.sourceforge.net/DTD/sodipodi-0.dtd"
   xmlns:inkscape="http://www.inkscape.org/namespaces/inkscape"
   width="48"
   height="48"
   version="1"
   id="svg26"
   sodipodi:docname="com.visualstudio.code.oss.svg"
   inkscape:version="0.92.5 (2060ec1f9f, 2020-04-08)">
  <metadata
     id="metadata32">
    <rdf:RDF>
      <cc:Work
         rdf:about="">
        <dc:format>image/svg+xml</dc:format>
        <dc:type
           rdf:resource="http://purl.org/dc/dcmitype/StillImage" />
      </cc:Work>
    </rdf:RDF>
  </metadata>
  <defs
     id="defs30" />
  <sodipodi:namedview
     pagecolor="#ffffff"
     bordercolor="#666666"
     borderopacity="1"
     objecttolerance="10"
     gridtolerance="10"
     guidetolerance="10"
     inkscape:pageopacity="0"
     inkscape:pageshadow="2"
     inkscape:window-width="783"
     inkscape:window-height="480"
     id="namedview28"
     showgrid="false"
     inkscape:zoom="4.9166667"
     inkscape:cx="24"
     inkscape:cy="24"
     inkscape:window-x="0"
     inkscape:window-y="28"
     inkscape:window-maximized="0"
     inkscape:current-layer="svg26" />
  <rect
     style="opacity:0.2"
     width="40"
     height="34"
     x="4"
     y="8"
     rx="2"
     ry="1.7"
     id="rect2" />
  <rect
     style="fill:#4c566a;fill-opacity:1"
     width="40"
     height="34"
     x="4"
     y="7"
     rx="2"
     ry="1.7"
     id="rect4" />
  <path
     style="opacity:0.1;fill:#ffffff"
     d="M 6,7 C 4.892,7 4,7.7574189 4,8.6992188 v 1 C 4,8.7574189 4.892,8 6,8 h 36 c 1.108,0 2,0.7574189 2,1.6992188 v -1 C 44,7.7574189 43.108,7 42,7 Z"
     id="path6" />
  <path
     style="opacity:0.2"
     d="M 6,7 C 4.892,7 4,7.7574189 4,8.6992188 V 39.300781 C 4,40.242581 4.892,41 6,41 H 17 V 7 Z"
     id="path8" />
  <rect
     style="opacity:0.2"
     width="4"
     height="40"
     x="15"
     y="5"
     rx="2"
     ry="2"
     id="rect10" />
  <path
     style="fill:none;stroke:#ffffff;stroke-width:4;stroke-linecap:round"
     d="M 17,6 V 42"
     id="path12" />
  <path
     style="opacity:0.2"
     d="m 23,10.9998 a 2.0002,2.0002 0 1 0 0,4 h 8 a 2.0002,2.0002 0 1 0 0,-4 z m 3,6 a 2.0002,2.0002 0 1 0 0,4 h 10 a 2.0002,2.0002 0 1 0 0,-4 z m 0,6 a 2.0002,2.0002 0 1 0 0,4 h 10 a 2.0002,2.0002 0 1 0 0,-4 z m 0,6 a 2.0002,2.0002 0 1 0 0,4 h 10 a 2.0002,2.0002 0 1 0 0,-4 z m -3,6 a 2.0002,2.0002 0 1 0 0,4 h 8 a 2.0002,2.0002 0 1 0 0,-4 z"
     id="path14" />
  <path
     style="fill:none;stroke:#ffffff;stroke-width:4;stroke-linecap:round"
     d="m 23,12 h 8"
     id="path16" />
  <path
     style="fill:none;stroke:#ffffff;stroke-width:4;stroke-linecap:round"
     d="M 26,18 H 36"
     id="path18" />
  <path
     style="fill:none;stroke:#ffffff;stroke-width:4;stroke-linecap:round"
     d="M 26,24 H 36"
     id="path20" />
  <path
     style="fill:none;stroke:#ffffff;stroke-width:4;stroke-linecap:round"
     d="M 26,30 H 36"
     id="path22" />
  <path
     style="fill:none;stroke:#ffffff;stroke-width:4;stroke-linecap:round"
     d="m 23,36 h 8"
     id="path24" />
</svg>
