<?xml version="1.0" encoding="UTF-8" standalone="no"?>
<svg
   xmlns:dc="http://purl.org/dc/elements/1.1/"
   xmlns:cc="http://creativecommons.org/ns#"
   xmlns:rdf="http://www.w3.org/1999/02/22-rdf-syntax-ns#"
   xmlns:svg="http://www.w3.org/2000/svg"
   xmlns="http://www.w3.org/2000/svg"
   xmlns:sodipodi="http://sodipodi.sourceforge.net/DTD/sodipodi-0.dtd"
   xmlns:inkscape="http://www.inkscape.org/namespaces/inkscape"
   width="48"
   height="48"
   version="1.1"
   id="svg34"
   sodipodi:docname="com.github.spheras.desktopfolder.svg"
   inkscape:version="0.92.5 (2060ec1f9f, 2020-04-08)">
  <metadata
     id="metadata40">
    <rdf:RDF>
      <cc:Work
         rdf:about="">
        <dc:format>image/svg+xml</dc:format>
        <dc:type
           rdf:resource="http://purl.org/dc/dcmitype/StillImage" />
      </cc:Work>
    </rdf:RDF>
  </metadata>
  <defs
     id="defs38" />
  <sodipodi:namedview
     pagecolor="#ffffff"
     bordercolor="#666666"
     borderopacity="1"
     objecttolerance="10"
     gridtolerance="10"
     guidetolerance="10"
     inkscape:pageopacity="0"
     inkscape:pageshadow="2"
     inkscape:window-width="783"
     inkscape:window-height="480"
     id="namedview36"
     showgrid="false"
     inkscape:zoom="4.9166667"
     inkscape:cx="24"
     inkscape:cy="24"
     inkscape:window-x="0"
     inkscape:window-y="28"
     inkscape:window-maximized="0"
     inkscape:current-layer="svg34" />
  <rect
     style="opacity:0.2"
     width="24"
     height="32"
     x="12"
     y="11"
     rx="2"
     ry="2"
     id="rect2" />
  <rect
     style="fill:#8e8e8e"
     width="24"
     height="32"
     x="12"
     y="10"
     rx="2"
     ry="2"
     id="rect4" />
  <rect
     style="opacity:0.2"
     width="40"
     height="32"
     x="4"
     y="7"
     rx="2"
     ry="2"
     id="rect6" />
  <path
     style="fill:#414b5f;fill-opacity:1"
     d="M 4 34 L 4 36 C 4 37.108 4.892 38 6 38 L 42 38 C 43.108 38 44 37.108 44 36 L 44 34 L 4 34 z"
     id="path8" />
  <path
     style="fill:#4c566a;fill-opacity:1"
     d="M 6,6 C 4.892,6 4,6.892 4,8 V 34 H 44 V 8 C 44,6.892 43.108,6 42,6 Z"
     id="path10" />
  <path
     style="fill:#ffffff;opacity:0.1"
     d="M 6 6 C 4.892 6 4 6.892 4 8 L 4 9 C 4 7.892 4.892 7 6 7 L 42 7 C 43.108 7 44 7.892 44 9 L 44 8 C 44 6.892 43.108 6 42 6 L 6 6 z"
     id="path12" />
  <rect
     style="opacity:0.2"
     width="40"
     height="1"
     x="4"
     y="34"
     id="rect14" />
  <rect
     style="opacity:0.2"
     width="12"
     height="20"
     x="10"
     y="11"
     rx="2"
     ry="2"
     id="rect16" />
  <rect
     style="fill:#5f697d;fill-opacity:1"
     width="12"
     height="20"
     x="10"
     y="10"
     rx="2"
     ry="2"
     id="rect18" />
  <rect
     style="opacity:0.2"
     width="12"
     height="8"
     x="26"
     y="11"
     rx="2"
     ry="2"
     id="rect20" />
  <rect
     style="fill:#5f697d;fill-opacity:1"
     width="12"
     height="8"
     x="26"
     y="10"
     rx="2"
     ry="2"
     id="rect22" />
  <rect
     style="opacity:0.2"
     width="12"
     height="8"
     x="26"
     y="23"
     rx="2"
     ry="2"
     id="rect24" />
  <rect
     style="fill:#5f697d;fill-opacity:1"
     width="12"
     height="8"
     x="26"
     y="22"
     rx="2"
     ry="2"
     id="rect26" />
  <path
     style="opacity:0.2;fill:#ffffff"
     d="m 12,9.999999 c -1.108,0 -2,0.892 -2,2 v 1 c 0,-1.108 0.892,-2 2,-2 h 8 c 1.108,0 2,0.892 2,2 v -1 c 0,-1.108 -0.892,-2 -2,-2 z"
     id="path28" />
  <path
     style="opacity:0.2;fill:#ffffff"
     d="m 28,9.999999 c -1.108,0 -2,0.892 -2,2 v 1 c 0,-1.108 0.892,-2 2,-2 h 8 c 1.108,0 2,0.892 2,2 v -1 c 0,-1.108 -0.892,-2 -2,-2 z"
     id="path30" />
  <path
     style="opacity:0.2;fill:#ffffff"
     d="m 28,21.999999 c -1.108,0 -2,0.892 -2,2 v 1 c 0,-1.108 0.892,-2 2,-2 h 8 c 1.108,0 2,0.892 2,2 v -1 c 0,-1.108 -0.892,-2 -2,-2 z"
     id="path32" />
</svg>
