<?xml version="1.0" encoding="UTF-8" standalone="no"?>
<svg
   xmlns:dc="http://purl.org/dc/elements/1.1/"
   xmlns:cc="http://creativecommons.org/ns#"
   xmlns:rdf="http://www.w3.org/1999/02/22-rdf-syntax-ns#"
   xmlns:svg="http://www.w3.org/2000/svg"
   xmlns="http://www.w3.org/2000/svg"
   xmlns:sodipodi="http://sodipodi.sourceforge.net/DTD/sodipodi-0.dtd"
   xmlns:inkscape="http://www.inkscape.org/namespaces/inkscape"
   width="48"
   height="48"
   version="1"
   id="svg22"
   sodipodi:docname="com.bixense.PasswordCalculator.svg"
   inkscape:version="0.92.5 (2060ec1f9f, 2020-04-08)">
  <metadata
     id="metadata28">
    <rdf:RDF>
      <cc:Work
         rdf:about="">
        <dc:format>image/svg+xml</dc:format>
        <dc:type
           rdf:resource="http://purl.org/dc/dcmitype/StillImage" />
      </cc:Work>
    </rdf:RDF>
  </metadata>
  <defs
     id="defs26" />
  <sodipodi:namedview
     pagecolor="#ffffff"
     bordercolor="#666666"
     borderopacity="1"
     objecttolerance="10"
     gridtolerance="10"
     guidetolerance="10"
     inkscape:pageopacity="0"
     inkscape:pageshadow="2"
     inkscape:window-width="783"
     inkscape:window-height="480"
     id="namedview24"
     showgrid="false"
     inkscape:zoom="4.9166667"
     inkscape:cx="24"
     inkscape:cy="24"
     inkscape:window-x="0"
     inkscape:window-y="28"
     inkscape:window-maximized="0"
     inkscape:current-layer="svg22" />
  <path
     style="opacity:0.2"
     d="M 16,17 12.464844,20.535156 22.929688,31 H 27 v 3 h 3 v 3 h 4 v 4 h 2 v 3.070312 L 36.929688,45 H 44 Z"
     id="path2" />
  <path
     style="fill:#5f697d;fill-opacity:1"
     d="M 16 16 L 12.464844 19.535156 L 22.929688 30 L 27 30 L 27 33 L 30 33 L 30 36 L 34 36 L 34 40 L 36 40 L 36 43.070312 L 36.929688 44 L 44 44 L 16 16 z"
     id="path4" />
  <path
     style="opacity:0.2"
     d="M 19.535156,13.464844 16,17 44,45 v -7.070312 z"
     id="path6" />
  <path
     style="fill:#4c566a;fill-opacity:1"
     d="M 19.535156 12.464844 L 16 16 L 44 44 L 44 36.929688 L 19.535156 12.464844 z"
     id="path8" />
  <path
     style="opacity:0.2;fill:#ffffff"
     d="M 19.535156 12.464844 L 16 16 L 16.5 16.5 L 19.535156 13.464844 L 44 37.929688 L 44 36.929688 L 19.535156 12.464844 z"
     id="path10" />
  <circle
     style="opacity:0.2"
     cx="16"
     cy="17"
     r="12"
     id="circle12" />
  <circle
     style="fill:#4c566a;fill-opacity:1"
     cx="16"
     cy="16"
     r="12"
     id="circle14" />
  <circle
     style="opacity:0.2"
     cx="13"
     cy="14"
     r="5"
     id="circle16" />
  <circle
     style="fill:#ffffff"
     cx="13"
     cy="13"
     r="5"
     id="circle18" />
  <path
     style="opacity:0.2;fill:#ffffff"
     d="M 16 4 A 12 12 0 0 0 4 16 A 12 12 0 0 0 4.0195312 16.59375 A 12 12 0 0 1 16 5 A 12 12 0 0 1 27.980469 16.40625 A 12 12 0 0 0 28 16 A 12 12 0 0 0 16 4 z"
     id="path20" />
</svg>
