<?xml version="1.0" encoding="UTF-8" standalone="no"?>
<svg
   xmlns:dc="http://purl.org/dc/elements/1.1/"
   xmlns:cc="http://creativecommons.org/ns#"
   xmlns:rdf="http://www.w3.org/1999/02/22-rdf-syntax-ns#"
   xmlns:svg="http://www.w3.org/2000/svg"
   xmlns="http://www.w3.org/2000/svg"
   xmlns:sodipodi="http://sodipodi.sourceforge.net/DTD/sodipodi-0.dtd"
   xmlns:inkscape="http://www.inkscape.org/namespaces/inkscape"
   width="48"
   height="48"
   version="1.1"
   id="svg18"
   sodipodi:docname="com.github.ronnydo.wammer.svg"
   inkscape:version="0.92.5 (2060ec1f9f, 2020-04-08)">
  <metadata
     id="metadata24">
    <rdf:RDF>
      <cc:Work
         rdf:about="">
        <dc:format>image/svg+xml</dc:format>
        <dc:type
           rdf:resource="http://purl.org/dc/dcmitype/StillImage" />
      </cc:Work>
    </rdf:RDF>
  </metadata>
  <defs
     id="defs22" />
  <sodipodi:namedview
     pagecolor="#ffffff"
     bordercolor="#666666"
     borderopacity="1"
     objecttolerance="10"
     gridtolerance="10"
     guidetolerance="10"
     inkscape:pageopacity="0"
     inkscape:pageshadow="2"
     inkscape:window-width="783"
     inkscape:window-height="480"
     id="namedview20"
     showgrid="false"
     inkscape:zoom="4.9166667"
     inkscape:cx="24"
     inkscape:cy="24"
     inkscape:window-x="0"
     inkscape:window-y="28"
     inkscape:window-maximized="0"
     inkscape:current-layer="svg18" />
  <path
     opacity=".2"
     d="m4.0215 24.418a20 20 0 0 0 -0.0215 0.582 20 20 0 0 0 20 20 20 20 0 0 0 20 -20 20 20 0 0 0 -0.021 -0.418 20 20 0 0 1 -19.979 19.418 20 20 0 0 1 -19.978 -19.582z"
     id="path2" />
  <path
     style="fill:#4c566a;fill-opacity:1"
     d="m24 4a20 20 0 0 0 -20 20 20 20 0 0 0 20 20 20 20 0 0 0 20 -20 20 20 0 0 0 -20 -20z"
     id="path4" />
  <path
     style="fill:#ffffff;fill-opacity:1"
     d="M 23,27 V 43.878906 A 10,20 0 0 0 24,44 10,20 0 0 0 25,43.900391 V 27 Z"
     id="path6" />
  <path
     fill="#ffffff"
     opacity=".2"
     d="m24 4a20 20 0 0 0 -20 20 20 20 0 0 0 0.0215 0.418 20 20 0 0 1 19.978 -19.418 20 20 0 0 1 19.979 19.582 20 20 0 0 0 0.021 -0.582 20 20 0 0 0 -20 -20z"
     id="path8" />
  <path
     style="opacity:0.2"
     d="m 30.257812,12.482844 -0.896484,1.796875 A 12,12 0 0 1 36,25.000422 12,12 0 0 1 29.365234,35.730891 l 0.888672,1.777343 A 14,14 0 0 0 38,25.000422 14,14 0 0 0 30.257812,12.482844 Z m -12.511718,0.0098 A 14,14 0 0 0 10,25.000422 14,14 0 0 0 17.742188,37.518 l 0.896484,-1.796875 A 12,12 0 0 1 12,25.000422 12,12 0 0 1 18.634766,14.269953 Z m 10.724609,3.566406 -0.896484,1.792968 A 8,8 0 0 1 32,25.000422 8,8 0 0 1 27.576172,32.152766 l 0.890625,1.78125 A 10,10 0 0 0 34,25.000422 10,10 0 0 0 28.470703,16.059016 Z m -8.9375,0.0078 A 10,10 0 0 0 14,25.000422 10,10 0 0 0 19.529297,33.941828 L 20.425781,32.14886 A 8,8 0 0 1 16,25.000422 8,8 0 0 1 20.423828,17.848078 Z"
     id="path10" />
  <path
     style="fill:#ffffff;fill-opacity:1"
     d="M 30.257812 11.482422 L 29.361328 13.279297 A 12 12 0 0 1 36 24 A 12 12 0 0 1 29.365234 34.730469 L 30.253906 36.507812 A 14 14 0 0 0 38 24 A 14 14 0 0 0 30.257812 11.482422 z M 17.746094 11.492188 A 14 14 0 0 0 10 24 A 14 14 0 0 0 17.742188 36.517578 L 18.638672 34.720703 A 12 12 0 0 1 12 24 A 12 12 0 0 1 18.634766 13.269531 L 17.746094 11.492188 z M 28.470703 15.058594 L 27.574219 16.851562 A 8 8 0 0 1 32 24 A 8 8 0 0 1 27.576172 31.152344 L 28.466797 32.933594 A 10 10 0 0 0 34 24 A 10 10 0 0 0 28.470703 15.058594 z M 19.533203 15.066406 A 10 10 0 0 0 14 24 A 10 10 0 0 0 19.529297 32.941406 L 20.425781 31.148438 A 8 8 0 0 1 16 24 A 8 8 0 0 1 20.423828 16.847656 L 19.533203 15.066406 z"
     id="path12" />
  <circle
     style="opacity:0.2"
     cx="24"
     cy="25"
     r="4"
     id="circle14" />
  <circle
     style="fill:#ffffff;fill-opacity:1"
     cx="24"
     cy="24"
     r="4"
     id="circle16" />
</svg>
