<?xml version="1.0" encoding="UTF-8" standalone="no"?>
<svg
   xmlns:dc="http://purl.org/dc/elements/1.1/"
   xmlns:cc="http://creativecommons.org/ns#"
   xmlns:rdf="http://www.w3.org/1999/02/22-rdf-syntax-ns#"
   xmlns:svg="http://www.w3.org/2000/svg"
   xmlns="http://www.w3.org/2000/svg"
   xmlns:sodipodi="http://sodipodi.sourceforge.net/DTD/sodipodi-0.dtd"
   xmlns:inkscape="http://www.inkscape.org/namespaces/inkscape"
   width="48"
   height="48"
   version="1.1"
   id="svg16"
   sodipodi:docname="com.github.zelikos.rannum.svg"
   inkscape:version="0.92.5 (2060ec1f9f, 2020-04-08)">
  <metadata
     id="metadata22">
    <rdf:RDF>
      <cc:Work
         rdf:about="">
        <dc:format>image/svg+xml</dc:format>
        <dc:type
           rdf:resource="http://purl.org/dc/dcmitype/StillImage" />
      </cc:Work>
    </rdf:RDF>
  </metadata>
  <defs
     id="defs20" />
  <sodipodi:namedview
     pagecolor="#ffffff"
     bordercolor="#666666"
     borderopacity="1"
     objecttolerance="10"
     gridtolerance="10"
     guidetolerance="10"
     inkscape:pageopacity="0"
     inkscape:pageshadow="2"
     inkscape:window-width="783"
     inkscape:window-height="480"
     id="namedview18"
     showgrid="false"
     inkscape:zoom="4.9166667"
     inkscape:cx="24"
     inkscape:cy="24"
     inkscape:window-x="0"
     inkscape:window-y="28"
     inkscape:window-maximized="0"
     inkscape:current-layer="svg16" />
  <path
     style="opacity:0.2"
     d="m 11,5 h 26 c 3.878,0 7,3.122 7,7 v 26 c 0,3.878 -3.122,7 -7,7 H 11 C 7.122,45 4,41.878 4,38 V 12 C 4,8.122 7.122,5 11,5 Z"
     id="path2" />
  <path
     style="fill:#4c566a;fill-opacity:1"
     d="m 11,4 h 26 c 3.878,0 7,3.122 7,7 v 26 c 0,3.878 -3.122,7 -7,7 H 11 C 7.122,44 4,40.878 4,37 V 11 C 4,7.122 7.122,4 11,4 Z"
     id="path4" />
  <path
     style="opacity:0.2"
     d="m 37,7 a 5,5 0 0 0 -5,5 5,5 0 0 0 5,5 5,5 0 0 0 5,-5 5,5 0 0 0 -5,-5 z M 24,20 a 5,5 0 0 0 -5,5 5,5 0 0 0 5,5 5,5 0 0 0 5,-5 5,5 0 0 0 -5,-5 z M 11,33 a 5,5 0 0 0 -5,5 5,5 0 0 0 5,5 5,5 0 0 0 5,-5 5,5 0 0 0 -5,-5 z"
     id="path6" />
  <circle
     style="fill:#ffffff"
     cx="24"
     cy="24"
     r="5"
     id="circle8" />
  <circle
     style="fill:#ffffff"
     cx="37"
     cy="11"
     r="5"
     id="circle10" />
  <circle
     style="fill:#ffffff"
     cx="11"
     cy="37"
     r="5"
     id="circle12" />
  <path
     style="opacity:0.1;fill:#ffffff"
     d="M 11 4 C 7.122 4 4 7.122 4 11 L 4 12 C 4 8.122 7.122 5 11 5 L 37 5 C 40.878 5 44 8.122 44 12 L 44 11 C 44 7.122 40.878 4 37 4 L 11 4 z"
     id="path14" />
</svg>
