<?xml version="1.0" encoding="UTF-8" standalone="no"?>
<svg
   xmlns:dc="http://purl.org/dc/elements/1.1/"
   xmlns:cc="http://creativecommons.org/ns#"
   xmlns:rdf="http://www.w3.org/1999/02/22-rdf-syntax-ns#"
   xmlns:svg="http://www.w3.org/2000/svg"
   xmlns="http://www.w3.org/2000/svg"
   xmlns:sodipodi="http://sodipodi.sourceforge.net/DTD/sodipodi-0.dtd"
   xmlns:inkscape="http://www.inkscape.org/namespaces/inkscape"
   width="48"
   height="48"
   version="1.1"
   id="svg12"
   sodipodi:docname="com.github.subhadeepjasu.enigma.svg"
   inkscape:version="0.92.5 (2060ec1f9f, 2020-04-08)">
  <metadata
     id="metadata18">
    <rdf:RDF>
      <cc:Work
         rdf:about="">
        <dc:format>image/svg+xml</dc:format>
        <dc:type
           rdf:resource="http://purl.org/dc/dcmitype/StillImage" />
      </cc:Work>
    </rdf:RDF>
  </metadata>
  <defs
     id="defs16" />
  <sodipodi:namedview
     pagecolor="#ffffff"
     bordercolor="#666666"
     borderopacity="1"
     objecttolerance="10"
     gridtolerance="10"
     guidetolerance="10"
     inkscape:pageopacity="0"
     inkscape:pageshadow="2"
     inkscape:window-width="783"
     inkscape:window-height="480"
     id="namedview14"
     showgrid="false"
     inkscape:zoom="4.9166667"
     inkscape:cx="24"
     inkscape:cy="24"
     inkscape:window-x="0"
     inkscape:window-y="28"
     inkscape:window-maximized="0"
     inkscape:current-layer="svg12" />
  <rect
     style="opacity:0.2"
     width="40"
     height="40"
     x="4"
     y="5"
     rx="8"
     ry="8"
     id="rect2" />
  <rect
     style="fill:#4c566a;fill-opacity:1"
     width="40"
     height="40"
     x="4"
     y="4"
     rx="8"
     ry="8"
     id="rect4" />
  <path
     style="opacity:0.2"
     d="M 17,19.235295 V 32.617648 C 21.160271,35.365179 26.435568,37.010273 31,39 V 34 C 25.990009,32.911685 22.016382,30.593172 22.01647,30.112746 22.016656,28.843137 22,27 22,27 h 6 v -4 h -6.01647 c 0,0 -0.03156,-1.363007 -0.03294,-2.014702 C 21.949845,20.598519 26.223337,17.451192 30,16 v -5 c -4.237703,2.178281 -9.30502,5.091912 -13,8.235295 z"
     id="path6" />
  <path
     style="fill:#ffffff"
     d="M 17,18.235295 V 31.617648 C 21.160271,34.365179 26.435568,36.010273 31,38 V 33 C 25.990009,31.911685 22.016382,29.593172 22.01647,29.112746 22.016656,27.843137 22,26 22,26 h 6 v -4 h -6.01647 c 0,0 -0.03156,-1.363007 -0.03294,-2.014702 C 21.949845,19.598519 26.223337,16.451192 30,15 v -5 c -4.237703,2.178281 -9.30502,5.091912 -13,8.235295 z"
     id="path8" />
  <path
     style="opacity:0.1;fill:#ffffff"
     d="M 12 4 C 7.568 4 4 7.568 4 12 L 4 13 C 4 8.568 7.568 5 12 5 L 36 5 C 40.432 5 44 8.568 44 13 L 44 12 C 44 7.568 40.432 4 36 4 L 12 4 z"
     id="path10" />
</svg>
