<?xml version="1.0" encoding="UTF-8" standalone="no"?>
<svg
   xmlns:dc="http://purl.org/dc/elements/1.1/"
   xmlns:cc="http://creativecommons.org/ns#"
   xmlns:rdf="http://www.w3.org/1999/02/22-rdf-syntax-ns#"
   xmlns:svg="http://www.w3.org/2000/svg"
   xmlns="http://www.w3.org/2000/svg"
   xmlns:sodipodi="http://sodipodi.sourceforge.net/DTD/sodipodi-0.dtd"
   xmlns:inkscape="http://www.inkscape.org/namespaces/inkscape"
   width="48"
   height="48"
   version="1.1"
   id="svg22"
   sodipodi:docname="com.github.artemanufrij.metronome.svg"
   inkscape:version="0.92.5 (2060ec1f9f, 2020-04-08)">
  <metadata
     id="metadata28">
    <rdf:RDF>
      <cc:Work
         rdf:about="">
        <dc:format>image/svg+xml</dc:format>
        <dc:type
           rdf:resource="http://purl.org/dc/dcmitype/StillImage" />
      </cc:Work>
    </rdf:RDF>
  </metadata>
  <defs
     id="defs26" />
  <sodipodi:namedview
     pagecolor="#ffffff"
     bordercolor="#666666"
     borderopacity="1"
     objecttolerance="10"
     gridtolerance="10"
     guidetolerance="10"
     inkscape:pageopacity="0"
     inkscape:pageshadow="2"
     inkscape:window-width="783"
     inkscape:window-height="480"
     id="namedview24"
     showgrid="false"
     inkscape:zoom="4.9166667"
     inkscape:cx="24"
     inkscape:cy="24"
     inkscape:window-x="0"
     inkscape:window-y="28"
     inkscape:window-maximized="0"
     inkscape:current-layer="g20" />
  <g
     transform="translate(0 -1004.4)"
     id="g20">
    <path
       fill="#62ad21"
       d="m43.954 1046.4-9.977-36c-0.29587-1.0676-0.88995-2-1.9954-2h-15.963c-1.1055 0-1.6995 0.9324-1.9954 2l-9.977 36c-0.29587 1.0676 0.88995 2 1.9954 2h35.917c1.1055 0 2.2913-0.9324 1.9954-2z"
       id="path2"
       style="fill:#4c566a;fill-opacity:1" />
    <path
       fill="#fff"
       opacity=".2"
       d="m16 1008.4c-1.108 0-1.7035 0.9324-2 2l-10 36c-0.078878 0.284-0.047109 0.5568 0.054687 0.8066l9.9453-35.8c0.29655-1.0676 0.892-2 2-2h16c1.108 0 1.7035 0.9324 2 2l9.9453 35.807c0.1018-0.2498 0.13357-0.5226 0.05469-0.8066l-10-36c-0.29655-1.0676-0.892-2-2-2h-16z"
       id="path4" />
    <circle
       opacity=".2"
       cx="24"
       cy="1040.4"
       r="5"
       id="circle6" />
    <circle
       fill="#fff"
       cx="24"
       cy="1039.4"
       r="5"
       id="circle8" />
    <rect
       opacity=".2"
       width="4"
       height="30"
       x="538.92"
       y="861.02"
       rx="1.924"
       ry="2.33"
       transform="rotate(30)"
       id="rect10" />
    <rect
       fill="#4f4f4f"
       width="4"
       height="30"
       x="538.42"
       y="860.16"
       rx="1.924"
       ry="2.33"
       transform="rotate(30)"
       id="rect12" />
    <path
       opacity=".2"
       d="m4.1006 1047.2-0.054561 0.1934c-0.29587 1.0676 0.88995 2 1.9954 2h35.917c1.1055 0 2.2913-0.9324 1.9954-2l-0.05457-0.1934c-0.28027 0.6895-1.1294 1.1934-1.9408 1.1934h-35.917c-0.81142 0-1.6606-0.5039-1.9408-1.1934z"
       id="path14" />
    <path
       opacity=".2"
       d="m29 1009.4-5 8-5-8z"
       id="path16" />
    <path
       fill="#fff"
       d="m29 1008.4-5 8-5-8z"
       id="path18" />
  </g>
</svg>
