<?xml version="1.0" encoding="UTF-8" standalone="no"?>
<svg
   xmlns:dc="http://purl.org/dc/elements/1.1/"
   xmlns:cc="http://creativecommons.org/ns#"
   xmlns:rdf="http://www.w3.org/1999/02/22-rdf-syntax-ns#"
   xmlns:svg="http://www.w3.org/2000/svg"
   xmlns="http://www.w3.org/2000/svg"
   xmlns:sodipodi="http://sodipodi.sourceforge.net/DTD/sodipodi-0.dtd"
   xmlns:inkscape="http://www.inkscape.org/namespaces/inkscape"
   width="48"
   height="48"
   version="1"
   id="svg34"
   sodipodi:docname="com.github.artemanufrij.graphui.svg"
   inkscape:version="0.92.5 (2060ec1f9f, 2020-04-08)">
  <metadata
     id="metadata40">
    <rdf:RDF>
      <cc:Work
         rdf:about="">
        <dc:format>image/svg+xml</dc:format>
        <dc:type
           rdf:resource="http://purl.org/dc/dcmitype/StillImage" />
      </cc:Work>
    </rdf:RDF>
  </metadata>
  <defs
     id="defs38" />
  <sodipodi:namedview
     pagecolor="#ffffff"
     bordercolor="#666666"
     borderopacity="1"
     objecttolerance="10"
     gridtolerance="10"
     guidetolerance="10"
     inkscape:pageopacity="0"
     inkscape:pageshadow="2"
     inkscape:window-width="783"
     inkscape:window-height="480"
     id="namedview36"
     showgrid="false"
     inkscape:zoom="4.9166667"
     inkscape:cx="24"
     inkscape:cy="24"
     inkscape:window-x="0"
     inkscape:window-y="28"
     inkscape:window-maximized="0"
     inkscape:current-layer="svg34" />
  <rect
     style="opacity:0.2"
     width="40"
     height="40"
     x="4"
     y="5"
     rx="2"
     ry="2"
     id="rect2" />
  <rect
     style="fill:#4c566a;fill-opacity:1"
     width="40"
     height="40"
     x="4"
     y="4"
     rx="2"
     ry="2"
     id="rect4" />
  <path
     style="opacity:0.6;fill:none;stroke:#ffffff;stroke-width:2"
     d="m 24,18.576793 v 4.648459"
     id="path6" />
  <path
     style="opacity:0.6;fill:none;stroke:#ffffff;stroke-width:2"
     d="m 28.648461,29.423199 3.098974,4.648461"
     id="path8" />
  <path
     style="opacity:0.6;fill:none;stroke:#ffffff;stroke-width:2"
     d="M 19.35154,29.423199 16.252565,34.07166"
     id="path10" />
  <path
     style="opacity:0.6;fill:none;stroke:#ffffff;stroke-width:2"
     d="m 11,34 c 0,0 0.899101,-9.111522 2.928336,-13.098977 C 15.317987,18.170353 20,14 20,14"
     id="path12" />
  <path
     style="opacity:0.6;fill:none;stroke:#ffffff;stroke-width:2"
     d="M 37,34 C 37,34 36.100899,24.888478 34.071664,20.901023 32.682013,18.170353 28,14 28,14"
     id="path14" />
  <path
     fill="#fff"
     style="opacity:0.1"
     d="m4 7v-1c0-1.108 0.892-2 2-2h36c1.108 0 2 0.892 2 2v1c0-1.108-0.892-2-2-2h-36c-1.108 0-2 0.892-2 2z"
     id="path16" />
  <path
     style="opacity:0.2"
     d="M 7.7974313,34 A 0.79769055,0.81851637 0 0 0 7,34.81825 v 6.3635 A 0.79769055,0.81851637 0 0 0 7.7974313,42 H 20.202569 A 0.79769055,0.81851637 0 0 0 21,41.18175 v -6.3635 A 0.79769055,0.81851637 0 0 0 20.202569,34 Z"
     id="path18" />
  <path
     style="fill:#ffffff"
     d="M 7.7974313,33 A 0.79769055,0.81851637 0 0 0 7,33.81825 v 6.3635 A 0.79769055,0.81851637 0 0 0 7.7974313,41 H 20.202569 A 0.79769055,0.81851637 0 0 0 21,40.18175 v -6.3635 A 0.79769055,0.81851637 0 0 0 20.202569,33 Z"
     id="path20" />
  <path
     style="opacity:0.2"
     d="m 24,8 c -3.304602,0 -6,2.695398 -6,6 0,3.304602 2.695398,6 6,6 3.304602,0 6,-2.695398 6,-6 0,-3.304602 -2.695398,-6 -6,-6 z"
     id="path22" />
  <path
     style="fill:#ffffff"
     d="M 24 7 C 20.695398 7 18 9.6953982 18 13 C 18 16.304602 20.695398 19 24 19 C 27.304602 19 30 16.304602 30 13 C 30 9.6953982 27.304602 7 24 7 z"
     id="path24" />
  <path
     style="opacity:0.2"
     d="M 17.797431,23 A 0.79769055,0.81851637 0 0 0 17,23.81825 v 6.3635 A 0.79769055,0.81851637 0 0 0 17.797431,31 H 30.202569 A 0.79769055,0.81851637 0 0 0 31,30.18175 v -6.3635 A 0.79769055,0.81851637 0 0 0 30.202569,23 Z"
     id="path26" />
  <path
     style="fill:#ffffff"
     d="M 17.797431,22 A 0.79769055,0.81851637 0 0 0 17,22.81825 v 6.3635 A 0.79769055,0.81851637 0 0 0 17.797431,30 H 30.202569 A 0.79769055,0.81851637 0 0 0 31,29.18175 v -6.3635 A 0.79769055,0.81851637 0 0 0 30.202569,22 Z"
     id="path28" />
  <path
     style="opacity:0.2"
     d="M 27.797431,34 A 0.79769055,0.81851637 0 0 0 27,34.81825 v 6.3635 A 0.79769055,0.81851637 0 0 0 27.797431,42 H 40.202569 A 0.79769055,0.81851637 0 0 0 41,41.18175 v -6.3635 A 0.79769055,0.81851637 0 0 0 40.202569,34 Z"
     id="path30" />
  <path
     style="fill:#ffffff"
     d="M 27.797431,33 A 0.79769055,0.81851637 0 0 0 27,33.81825 v 6.3635 A 0.79769055,0.81851637 0 0 0 27.797431,41 H 40.202569 A 0.79769055,0.81851637 0 0 0 41,40.18175 v -6.3635 A 0.79769055,0.81851637 0 0 0 40.202569,33 Z"
     id="path32" />
</svg>
