<?xml version="1.0" encoding="UTF-8" standalone="no"?>
<svg
   xmlns:dc="http://purl.org/dc/elements/1.1/"
   xmlns:cc="http://creativecommons.org/ns#"
   xmlns:rdf="http://www.w3.org/1999/02/22-rdf-syntax-ns#"
   xmlns:svg="http://www.w3.org/2000/svg"
   xmlns="http://www.w3.org/2000/svg"
   xmlns:sodipodi="http://sodipodi.sourceforge.net/DTD/sodipodi-0.dtd"
   xmlns:inkscape="http://www.inkscape.org/namespaces/inkscape"
   width="48"
   height="48"
   version="1"
   id="svg24"
   sodipodi:docname="com.github.kjlaw89.archetype.svg"
   inkscape:version="0.92.5 (2060ec1f9f, 2020-04-08)">
  <metadata
     id="metadata30">
    <rdf:RDF>
      <cc:Work
         rdf:about="">
        <dc:format>image/svg+xml</dc:format>
        <dc:type
           rdf:resource="http://purl.org/dc/dcmitype/StillImage" />
      </cc:Work>
    </rdf:RDF>
  </metadata>
  <defs
     id="defs28" />
  <sodipodi:namedview
     pagecolor="#ffffff"
     bordercolor="#666666"
     borderopacity="1"
     objecttolerance="10"
     gridtolerance="10"
     guidetolerance="10"
     inkscape:pageopacity="0"
     inkscape:pageshadow="2"
     inkscape:window-width="783"
     inkscape:window-height="480"
     id="namedview26"
     showgrid="false"
     inkscape:zoom="4.9166667"
     inkscape:cx="24"
     inkscape:cy="24"
     inkscape:window-x="0"
     inkscape:window-y="28"
     inkscape:window-maximized="0"
     inkscape:current-layer="svg24" />
  <rect
     style="opacity:0.2"
     width="40"
     height="40"
     x="4"
     y="5"
     rx="2"
     ry="2"
     id="rect2" />
  <rect
     style="fill:#4c566a;fill-opacity:1"
     width="40"
     height="40"
     x="4"
     y="4"
     rx="2"
     ry="2"
     id="rect4" />
  <path
     style="opacity:0.1;fill:#ffffff"
     d="M 6,4 C 4.892,4 4,4.892 4,6 V 7 C 4,5.892 4.892,5 6,5 h 36 c 1.108,0 2,0.892 2,2 V 6 C 44,4.892 43.108,4 42,4 Z"
     id="path6" />
  <path
     style="opacity:0.2"
     d="M 26.830078,13 13,37 h 3.425781 l 3.291016,-6 h 10.933594 l 0.972656,6 H 35 L 30.513672,13 Z M 28.052734,16.199219 30.117188,28 h -8.722657 z"
     id="path8" />
  <path
     style="fill:#ffffff"
     d="M 26.830078,12 13,36 h 3.425781 l 3.291016,-6 h 10.933594 l 0.972656,6 H 35 L 30.513672,12 Z M 28.052734,15.199219 30.117188,27 h -8.722657 z"
     id="path10" />
  <circle
     style="opacity:0.2"
     cx="9"
     cy="10"
     r="3"
     id="circle12" />
  <circle
     style="fill:#5f697d;fill-opacity:1"
     cx="9"
     cy="9"
     r="3"
     id="circle14" />
  <circle
     style="opacity:0.2"
     cx="16"
     cy="10"
     r="3"
     id="circle16" />
  <circle
     style="fill:#5f697d;fill-opacity:1"
     cx="16"
     cy="9"
     r="3"
     id="circle18" />
  <circle
     style="opacity:0.2"
     cx="23"
     cy="10"
     r="3"
     id="circle20" />
  <circle
     style="fill:#5f697d;fill-opacity:1"
     cx="23"
     cy="9"
     r="3"
     id="circle22" />
</svg>
