<?xml version="1.0" encoding="UTF-8" standalone="no"?>
<svg
   xmlns:dc="http://purl.org/dc/elements/1.1/"
   xmlns:cc="http://creativecommons.org/ns#"
   xmlns:rdf="http://www.w3.org/1999/02/22-rdf-syntax-ns#"
   xmlns:svg="http://www.w3.org/2000/svg"
   xmlns="http://www.w3.org/2000/svg"
   xmlns:sodipodi="http://sodipodi.sourceforge.net/DTD/sodipodi-0.dtd"
   xmlns:inkscape="http://www.inkscape.org/namespaces/inkscape"
   width="48"
   height="48"
   version="1.1"
   id="svg32"
   sodipodi:docname="com.github.unrud.VideoDownloader.svg"
   inkscape:version="0.92.5 (2060ec1f9f, 2020-04-08)">
  <metadata
     id="metadata38">
    <rdf:RDF>
      <cc:Work
         rdf:about="">
        <dc:format>image/svg+xml</dc:format>
        <dc:type
           rdf:resource="http://purl.org/dc/dcmitype/StillImage" />
      </cc:Work>
    </rdf:RDF>
  </metadata>
  <defs
     id="defs36" />
  <sodipodi:namedview
     pagecolor="#ffffff"
     bordercolor="#666666"
     borderopacity="1"
     objecttolerance="10"
     gridtolerance="10"
     guidetolerance="10"
     inkscape:pageopacity="0"
     inkscape:pageshadow="2"
     inkscape:window-width="783"
     inkscape:window-height="480"
     id="namedview34"
     showgrid="false"
     inkscape:zoom="4.9166667"
     inkscape:cx="24"
     inkscape:cy="24"
     inkscape:window-x="0"
     inkscape:window-y="28"
     inkscape:window-maximized="0"
     inkscape:current-layer="svg32" />
  <path
     style="opacity:0.2"
     d="m 4,8 v 33 h 3 v -3 h 3 v 3 h 29 v -3 h 3 v 3 h 3 V 8 h -3 v 3 H 39 V 8 H 10 v 3 H 7 V 8 Z m 3,6 h 3 v 3 H 7 Z m 32,0 h 3 v 3 H 39 Z M 7,20 h 3 v 3 H 7 Z m 32,0 h 3 v 3 H 39 Z M 7,26 h 3 v 3 H 7 Z m 32,0 h 3 v 3 H 39 Z M 7,32 h 3 v 3 H 7 Z m 32,0 h 3 v 3 h -3 z"
     id="path2" />
  <path
     style="fill:#4c566a;fill-opacity:1"
     d="m 4,7 v 33 h 3 v -3 h 3 v 3 h 29 v -3 h 3 v 3 h 3 V 7 h -3 v 3 H 39 V 7 H 10 v 3 H 7 V 7 Z m 3,6 h 3 v 3 H 7 Z m 32,0 h 3 v 3 H 39 Z M 7,19 h 3 v 3 H 7 Z m 32,0 h 3 v 3 H 39 Z M 7,25 h 3 v 3 H 7 Z m 32,0 h 3 v 3 H 39 Z M 7,31 h 3 v 3 H 7 Z m 32,0 h 3 v 3 h -3 z"
     id="path4" />
  <path
     style="opacity:0.2"
     d="M 24.5,35.25 16.25,27 h 16.5 z m 0,0"
     id="path6" />
  <path
     style="fill:#ffffff"
     d="M 24.5,34.25 16.25,26 h 16.5 z m 0,0"
     id="path8" />
  <path
     style="fill:#ffffff"
     d="m 20,22 h 9 v 6 h -9 z"
     id="path10" />
  <path
     style="fill:#ffffff;fill-opacity:0.68"
     d="m 20,22 h 3 v -3 h -3 z"
     id="path12" />
  <path
     style="fill:#ffffff"
     d="m 23,22 h 3 v -3 h -3 z"
     id="path14" />
  <path
     style="fill:#ffffff;fill-opacity:0.88"
     d="m 26,22 h 3 v -3 h -3 z"
     id="path16" />
  <path
     style="fill:#ffffff;fill-opacity:0.68"
     d="m 29,19 h -3 v -3 h 3 z"
     id="path18" />
  <path
     style="fill:#ffffff;fill-opacity:0.54"
     d="m 26,19 h -3 v -3 h 3 z"
     id="path20" />
  <path
     style="fill:#ffffff;fill-opacity:0.88"
     d="m 23,19 h -3 v -3 h 3 z"
     id="path22" />
  <path
     style="fill:#ffffff;fill-opacity:0.19"
     d="m 29,16 h -3 v -3 h 3 z"
     id="path24" />
  <path
     style="fill:#ffffff;fill-opacity:0.34"
     d="m 26,16 h -3 v -3 h 3 z"
     id="path26" />
  <path
     style="fill:#ffffff;fill-opacity:0.06"
     d="m 23,16 h -3 v -3 h 3 z"
     id="path28" />
  <path
     style="fill:#ffffff;opacity:0.2"
     d="M 4 7 L 4 8 L 7 8 L 7 7 L 4 7 z M 10 7 L 10 8 L 39 8 L 39 7 L 10 7 z M 42 7 L 42 8 L 45 8 L 45 7 L 42 7 z M 7 10 L 7 11 L 10 11 L 10 10 L 7 10 z M 39 10 L 39 11 L 42 11 L 42 10 L 39 10 z M 7 16 L 7 17 L 10 17 L 10 16 L 7 16 z M 39 16 L 39 17 L 42 17 L 42 16 L 39 16 z M 7 22 L 7 23 L 10 23 L 10 22 L 7 22 z M 39 22 L 39 23 L 42 23 L 42 22 L 39 22 z M 7 28 L 7 29 L 10 29 L 10 28 L 7 28 z M 39 28 L 39 29 L 42 29 L 42 28 L 39 28 z M 7 34 L 7 35 L 10 35 L 10 34 L 7 34 z M 39 34 L 39 35 L 42 35 L 42 34 L 39 34 z"
     id="path30" />
</svg>
