<?xml version="1.0" encoding="UTF-8" standalone="no"?>
<svg
   xmlns:dc="http://purl.org/dc/elements/1.1/"
   xmlns:cc="http://creativecommons.org/ns#"
   xmlns:rdf="http://www.w3.org/1999/02/22-rdf-syntax-ns#"
   xmlns:svg="http://www.w3.org/2000/svg"
   xmlns="http://www.w3.org/2000/svg"
   xmlns:sodipodi="http://sodipodi.sourceforge.net/DTD/sodipodi-0.dtd"
   xmlns:inkscape="http://www.inkscape.org/namespaces/inkscape"
   width="48"
   height="48"
   version="1.1"
   id="svg16"
   sodipodi:docname="com.ticktick.TickTick.svg"
   inkscape:version="0.92.5 (2060ec1f9f, 2020-04-08)">
  <metadata
     id="metadata22">
    <rdf:RDF>
      <cc:Work
         rdf:about="">
        <dc:format>image/svg+xml</dc:format>
        <dc:type
           rdf:resource="http://purl.org/dc/dcmitype/StillImage" />
      </cc:Work>
    </rdf:RDF>
  </metadata>
  <defs
     id="defs20" />
  <sodipodi:namedview
     pagecolor="#ffffff"
     bordercolor="#666666"
     borderopacity="1"
     objecttolerance="10"
     gridtolerance="10"
     guidetolerance="10"
     inkscape:pageopacity="0"
     inkscape:pageshadow="2"
     inkscape:window-width="783"
     inkscape:window-height="480"
     id="namedview18"
     showgrid="false"
     inkscape:zoom="4.9166667"
     inkscape:cx="24"
     inkscape:cy="24"
     inkscape:window-x="0"
     inkscape:window-y="28"
     inkscape:window-maximized="0"
     inkscape:current-layer="svg16" />
  <circle
     style="fill:#fafafa"
     cx="24"
     cy="24"
     r="18"
     id="circle2" />
  <path
     style="opacity:0.2"
     d="M 24,5 A 20,20 0 0 0 4,25 20,20 0 0 0 24,45 20,20 0 0 0 44,25 H 38 A 14,14 0 0 1 24,39 14,14 0 0 1 10,25 14,14 0 0 1 24,11 Z"
     id="path4" />
  <path
     style="fill:#4c566a;fill-opacity:1"
     d="M 24 4 A 20 20 0 0 0 4 24 A 20 20 0 0 0 24 44 A 20 20 0 0 0 44 24 L 38 24 A 14 14 0 0 1 24 38 A 14 14 0 0 1 10 24 A 14 14 0 0 1 24 10 L 24 4 z"
     id="path6" />
  <path
     style="fill:#ffffff;opacity:0.2"
     d="M 24 4 A 20 20 0 0 0 4 24 A 20 20 0 0 0 4.0351562 24.5 A 20 20 0 0 1 24 5 L 24 4 z M 38 24 A 14 14 0 0 1 24 38 A 14 14 0 0 1 10.042969 24.5 A 14 14 0 0 0 10 25 A 14 14 0 0 0 24 39 A 14 14 0 0 0 38 25 L 43.927734 25 A 20 20 0 0 0 44 24 L 38 24 z"
     id="path8" />
  <path
     style="opacity:0.2"
     d="m 41,8 -17,13 -5,-4 -4,4 9,8 21,-17 z"
     id="path10" />
  <path
     style="fill:#4c566a;fill-opacity:1"
     d="m 41,7 -17,13 -5,-4 -4,4 9,8 21,-17 z"
     id="path12" />
  <path
     style="fill:#ffffff;opacity:0.2"
     d="M 41 7 L 24 20 L 19 16 L 15 20 L 15.529297 20.470703 L 19 17 L 24 21 L 41 8 L 44.447266 11.447266 L 45 11 L 41 7 z"
     id="path14" />
</svg>
