<?xml version="1.0" encoding="UTF-8" standalone="no"?>
<svg
   xmlns:dc="http://purl.org/dc/elements/1.1/"
   xmlns:cc="http://creativecommons.org/ns#"
   xmlns:rdf="http://www.w3.org/1999/02/22-rdf-syntax-ns#"
   xmlns:svg="http://www.w3.org/2000/svg"
   xmlns="http://www.w3.org/2000/svg"
   xmlns:sodipodi="http://sodipodi.sourceforge.net/DTD/sodipodi-0.dtd"
   xmlns:inkscape="http://www.inkscape.org/namespaces/inkscape"
   width="48"
   height="48"
   version="1"
   id="svg12"
   sodipodi:docname="com.github.arshubham.cipher.svg"
   inkscape:version="0.92.5 (2060ec1f9f, 2020-04-08)">
  <metadata
     id="metadata18">
    <rdf:RDF>
      <cc:Work
         rdf:about="">
        <dc:format>image/svg+xml</dc:format>
        <dc:type
           rdf:resource="http://purl.org/dc/dcmitype/StillImage" />
      </cc:Work>
    </rdf:RDF>
  </metadata>
  <defs
     id="defs16" />
  <sodipodi:namedview
     pagecolor="#ffffff"
     bordercolor="#666666"
     borderopacity="1"
     objecttolerance="10"
     gridtolerance="10"
     guidetolerance="10"
     inkscape:pageopacity="0"
     inkscape:pageshadow="2"
     inkscape:window-width="783"
     inkscape:window-height="480"
     id="namedview14"
     showgrid="false"
     inkscape:zoom="4.9166667"
     inkscape:cx="24"
     inkscape:cy="24"
     inkscape:window-x="0"
     inkscape:window-y="28"
     inkscape:window-maximized="0"
     inkscape:current-layer="svg12" />
  <rect
     style="fill:#4c566a;fill-opacity:1"
     width="40"
     height="40"
     x="4"
     y="4"
     rx="2"
     ry="2"
     id="rect2" />
  <path
     style="opacity:0.2;fill:#ffffff"
     d="M 6,4 C 4.892,4 4,4.892 4,6 L 4,7 C 4,5.892 4.892,5 6,5 l 36,0 c 1.108,0 2,0.892 2,2 L 44,6 C 44,4.892 43.108,4 42,4 L 6,4 Z"
     id="path4" />
  <path
     style="opacity:0.2"
     d="M 6,45 C 4.892,45 4,44.108 4,43 l 0,-1 c 0,1.108 0.892,2 2,2 l 36,0 c 1.108,0 2,-0.892 2,-2 l 0,1 c 0,1.108 -0.892,2 -2,2 L 6,45 Z"
     id="path6" />
  <path
     style="opacity:0.2"
     d="M 24.000002,13.000001 C 19.937351,13.000001 17,15.732293 17,19.093751 l 0,2.906247 c -2.031304,0 -4,1.338012 -4,2.999985 l 0,9.000032 C 13,35.661984 14.635348,37 16.666652,37 l 14.666695,0 C 33.364654,37 35,35.661984 35,34.000015 l 0,-9.000032 c 0,-1.661973 -1.968693,-2.999985 -4,-2.999985 l 0,-2.906247 c 0,-3.361458 -2.937348,-6.09375 -6.999998,-6.09375 z m 0,2.999985 c 2.031345,0 3.999998,1.32711 3.999998,3.000027 l 0,2.999985 -8,0 0,-2.999985 c 0,-1.672917 1.968652,-3.000027 4.000002,-3.000027 z"
     id="path8" />
  <path
     style="fill:#ffffff"
     d="M 24.000002,12 C 19.937351,12 17,14.732292 17,18.09375 l 0,2.906247 c -2.031304,0 -4,1.338012 -4,2.999985 l 0,9.000032 c 0,1.661969 1.635348,2.999985 3.666652,2.999985 l 14.666695,0 C 33.364654,35.999999 35,34.661983 35,33.000014 l 0,-9.000032 c 0,-1.661973 -1.968693,-2.999985 -4,-2.999985 L 31,18.09375 C 31,14.732292 28.062652,12 24.000002,12 Z m 0,2.999985 c 2.031345,0 3.999998,1.32711 3.999998,3.000027 l 0,2.999985 -8,0 0,-2.999985 c 0,-1.672917 1.968652,-3.000027 4.000002,-3.000027 z"
     id="path10" />
</svg>
