<?xml version="1.0" encoding="UTF-8" standalone="no"?>
<svg
   xmlns:dc="http://purl.org/dc/elements/1.1/"
   xmlns:cc="http://creativecommons.org/ns#"
   xmlns:rdf="http://www.w3.org/1999/02/22-rdf-syntax-ns#"
   xmlns:svg="http://www.w3.org/2000/svg"
   xmlns="http://www.w3.org/2000/svg"
   xmlns:sodipodi="http://sodipodi.sourceforge.net/DTD/sodipodi-0.dtd"
   xmlns:inkscape="http://www.inkscape.org/namespaces/inkscape"
   width="48"
   height="48"
   version="1"
   id="svg16"
   sodipodi:docname="com.gitlab.bitseater.meteo.svg"
   inkscape:version="0.92.5 (2060ec1f9f, 2020-04-08)">
  <metadata
     id="metadata22">
    <rdf:RDF>
      <cc:Work
         rdf:about="">
        <dc:format>image/svg+xml</dc:format>
        <dc:type
           rdf:resource="http://purl.org/dc/dcmitype/StillImage" />
      </cc:Work>
    </rdf:RDF>
  </metadata>
  <defs
     id="defs20" />
  <sodipodi:namedview
     pagecolor="#ffffff"
     bordercolor="#666666"
     borderopacity="1"
     objecttolerance="10"
     gridtolerance="10"
     guidetolerance="10"
     inkscape:pageopacity="0"
     inkscape:pageshadow="2"
     inkscape:window-width="783"
     inkscape:window-height="480"
     id="namedview18"
     showgrid="false"
     inkscape:zoom="4.9166667"
     inkscape:cx="24"
     inkscape:cy="24"
     inkscape:window-x="0"
     inkscape:window-y="28"
     inkscape:window-maximized="0"
     inkscape:current-layer="svg16" />
  <rect
     style="opacity:0.2"
     width="40"
     height="40"
     x="4"
     y="5"
     rx="20"
     ry="20"
     id="rect2" />
  <rect
     style="fill:#4c566a;fill-opacity:1"
     width="40"
     height="40"
     x="4"
     y="4"
     rx="20"
     ry="20"
     id="rect4" />
  <path
     style="fill-rule:evenodd;fill:#ffffff;fill-opacity:1"
     d="M 24 10 C 21.784 10 20 11.784 20 14 L 20 24 C 20 24.027 20.006812 24.051125 20.007812 24.078125 A 8 8 0 0 0 16 31 A 8 8 0 0 0 24 39 A 8 8 0 0 0 32 31 A 8 8 0 0 0 27.992188 24.074219 C 27.993188 24.049219 28 24.025 28 24 L 28 14 C 28 11.784 26.216 10 24 10 z M 24 13 C 24.554 13 25 13.446 25 14 L 25 26 C 25 26.554 24.554 27 24 27 C 23.446 27 23 26.554 23 26 L 23 14 C 23 13.446 23.446 13 24 13 z"
     id="path6" />
  <path
     style="opacity:0.2"
     d="m 24,18 c -0.554,0 -1,0.446 -1,1 v 8.105469 A 5,5 0 0 0 19,32 a 5,5 0 0 0 5,5 5,5 0 0 0 5,-5 5,5 0 0 0 -4,-4.898438 V 19 c 0,-0.554 -0.446,-1 -1,-1 z"
     id="path8" />
  <rect
     style="fill:#b9c3d7;fill-opacity:1"
     width="2"
     height="14"
     x="23"
     y="18"
     rx="1"
     ry="1"
     id="rect10" />
  <circle
     style="fill:#b9c3d7;fill-opacity:1"
     cx="24"
     cy="31"
     r="5"
     id="circle12" />
  <path
     style="fill:#ffffff;opacity:0.1"
     d="M 24 4 C 12.92 4 4 12.92 4 24 C 4 24.167874 4.007647 24.333141 4.0117188 24.5 C 4.2763904 13.653863 13.087874 5 24 5 C 34.912126 5 43.72361 13.653863 43.988281 24.5 C 43.992353 24.333141 44 24.167874 44 24 C 44 12.92 35.08 4 24 4 z"
     id="path14" />
</svg>
