<?xml version="1.0" encoding="UTF-8" standalone="no"?>
<svg
   xmlns:dc="http://purl.org/dc/elements/1.1/"
   xmlns:cc="http://creativecommons.org/ns#"
   xmlns:rdf="http://www.w3.org/1999/02/22-rdf-syntax-ns#"
   xmlns:svg="http://www.w3.org/2000/svg"
   xmlns="http://www.w3.org/2000/svg"
   xmlns:sodipodi="http://sodipodi.sourceforge.net/DTD/sodipodi-0.dtd"
   xmlns:inkscape="http://www.inkscape.org/namespaces/inkscape"
   width="48"
   height="48"
   version="1.1"
   id="svg24"
   sodipodi:docname="appimagekit-cozydrive.svg"
   inkscape:version="0.92.5 (2060ec1f9f, 2020-04-08)">
  <metadata
     id="metadata30">
    <rdf:RDF>
      <cc:Work
         rdf:about="">
        <dc:format>image/svg+xml</dc:format>
        <dc:type
           rdf:resource="http://purl.org/dc/dcmitype/StillImage" />
      </cc:Work>
    </rdf:RDF>
  </metadata>
  <defs
     id="defs28" />
  <sodipodi:namedview
     pagecolor="#ffffff"
     bordercolor="#666666"
     borderopacity="1"
     objecttolerance="10"
     gridtolerance="10"
     guidetolerance="10"
     inkscape:pageopacity="0"
     inkscape:pageshadow="2"
     inkscape:window-width="783"
     inkscape:window-height="480"
     id="namedview26"
     showgrid="false"
     inkscape:zoom="4.9166667"
     inkscape:cx="24"
     inkscape:cy="24"
     inkscape:window-x="0"
     inkscape:window-y="28"
     inkscape:window-maximized="0"
     inkscape:current-layer="svg24" />
  <circle
     style="opacity:0.2"
     cx="24"
     cy="25"
     r="20"
     id="circle2" />
  <circle
     style="fill:#4c566a;fill-opacity:1"
     cx="24"
     cy="24"
     r="20"
     id="circle4" />
  <path
     style="opacity:0.2;fill:#ffffff"
     d="M 24,4 A 20,20 0 0 0 4,24 20,20 0 0 0 4.0215,24.582 20,20 0 0 1 24,5 20,20 0 0 1 43.979,24.418 20,20 0 0 0 44,24 20,20 0 0 0 24,4 Z"
     id="path6" />
  <path
     style="opacity:0.2"
     d="M 24,13 A 8,8 0 0 0 16.060547,20.066406 8,8 0 0 0 9,28 8,8 0 0 0 17,36 H 31 A 8,8 0 0 0 39,28 8,8 0 0 0 31.933594,20.060547 8,8 0 0 0 24,13 Z"
     id="path8" />
  <circle
     style="fill:#ffffff"
     cx="24"
     cy="20"
     r="8"
     id="circle10" />
  <circle
     style="fill:#ffffff"
     cx="17"
     cy="27"
     r="8"
     id="circle12" />
  <circle
     style="fill:#ffffff"
     cx="31"
     cy="27"
     r="8"
     id="circle14" />
  <rect
     style="fill:#ffffff"
     width="14"
     height="7.405"
     x="17"
     y="27.59"
     id="rect16" />
  <path
     style="fill:none;stroke:#4c566a;stroke-width:1px;stroke-opacity:1"
     d="m 20,26 c 0,0 1.580644,1.5 4,1.5 2.419356,0 4,-1.5 4,-1.5"
     id="path18" />
  <path
     style="fill:none;stroke:#4c566a;stroke-width:1px;stroke-linecap:round;stroke-linejoin:round;stroke-opacity:1"
     d="M 20.5,25.2 20.338,26.203 19.7,26.7"
     id="path20" />
  <path
     style="fill:none;stroke:#4c566a;stroke-width:1px;stroke-linecap:round;stroke-linejoin:round;stroke-opacity:1"
     d="m 27.783784,25.2 0.162,1.003 0.638,0.497"
     id="path22" />
</svg>
