<?xml version="1.0" encoding="UTF-8" standalone="no"?>
<svg
   xmlns:dc="http://purl.org/dc/elements/1.1/"
   xmlns:cc="http://creativecommons.org/ns#"
   xmlns:rdf="http://www.w3.org/1999/02/22-rdf-syntax-ns#"
   xmlns:svg="http://www.w3.org/2000/svg"
   xmlns="http://www.w3.org/2000/svg"
   xmlns:sodipodi="http://sodipodi.sourceforge.net/DTD/sodipodi-0.dtd"
   xmlns:inkscape="http://www.inkscape.org/namespaces/inkscape"
   width="48"
   height="48"
   version="1"
   id="svg34"
   sodipodi:docname="appimagekit-cryptr.svg"
   inkscape:version="0.92.5 (2060ec1f9f, 2020-04-08)">
  <metadata
     id="metadata40">
    <rdf:RDF>
      <cc:Work
         rdf:about="">
        <dc:format>image/svg+xml</dc:format>
        <dc:type
           rdf:resource="http://purl.org/dc/dcmitype/StillImage" />
      </cc:Work>
    </rdf:RDF>
  </metadata>
  <defs
     id="defs38" />
  <sodipodi:namedview
     pagecolor="#ffffff"
     bordercolor="#666666"
     borderopacity="1"
     objecttolerance="10"
     gridtolerance="10"
     guidetolerance="10"
     inkscape:pageopacity="0"
     inkscape:pageshadow="2"
     inkscape:window-width="783"
     inkscape:window-height="480"
     id="namedview36"
     showgrid="false"
     inkscape:zoom="4.9166667"
     inkscape:cx="24"
     inkscape:cy="24"
     inkscape:window-x="0"
     inkscape:window-y="28"
     inkscape:window-maximized="0"
     inkscape:current-layer="svg34" />
  <rect
     style="opacity:0.2"
     width="40"
     height="40"
     x="4"
     y="5"
     rx="12"
     ry="12"
     id="rect2" />
  <rect
     style="fill:#4c566a;fill-opacity:1"
     width="40"
     height="40"
     x="4"
     y="4"
     rx="12"
     ry="12"
     id="rect4" />
  <path
     style="opacity:0.1"
     d="M 17.5,7 A 1.5,1.5 0 0 0 16,8.5 1.5,1.5 0 0 0 17.5,10 1.5,1.5 0 0 0 19,8.5 1.5,1.5 0 0 0 17.5,7 Z m 14,0 A 1.5,1.5 0 0 0 30,8.5 1.5,1.5 0 0 0 31.5,10 1.5,1.5 0 0 0 33,8.5 1.5,1.5 0 0 0 31.5,7 Z M 12,12 c -0.554,0 -1,0.446 -1,1 v 24 c 0,0.554 0.446,1 1,1 h 24 c 0.554,0 1,-0.446 1,-1 V 13 c 0,-0.554 -0.446,-1 -1,-1 z M 7.5,16 A 1.5,1.5 0 0 0 6,17.5 1.5,1.5 0 0 0 7.5,19 1.5,1.5 0 0 0 9,17.5 1.5,1.5 0 0 0 7.5,16 Z m 33,1 A 1.5,1.5 0 0 0 39,18.5 1.5,1.5 0 0 0 40.5,20 1.5,1.5 0 0 0 42,18.5 1.5,1.5 0 0 0 40.5,17 Z M 7.5,30 A 1.5,1.5 0 0 0 6,31.5 1.5,1.5 0 0 0 7.5,33 1.5,1.5 0 0 0 9,31.5 1.5,1.5 0 0 0 7.5,30 Z m 33,1 A 1.5,1.5 0 0 0 39,32.5 1.5,1.5 0 0 0 40.5,34 1.5,1.5 0 0 0 42,32.5 1.5,1.5 0 0 0 40.5,31 Z m -24,9 A 1.5,1.5 0 0 0 15,41.5 1.5,1.5 0 0 0 16.5,43 1.5,1.5 0 0 0 18,41.5 1.5,1.5 0 0 0 16.5,40 Z m 14,0 A 1.5,1.5 0 0 0 29,41.5 1.5,1.5 0 0 0 30.5,43 1.5,1.5 0 0 0 32,41.5 1.5,1.5 0 0 0 30.5,40 Z"
     id="path6" />
  <path
     style="fill:#ffffff;opacity:0.2"
     d="M 16 4 C 9.352 4 4 9.352 4 16 L 4 17 C 4 10.352 9.352 5 16 5 L 32 5 C 38.648 5 44 10.352 44 17 L 44 16 C 44 9.352 38.648 4 32 4 L 16 4 z"
     id="path8" />
  <rect
     style="fill:#ffffff;fill-opacity:1"
     width="26"
     height="26"
     x="11"
     y="11"
     rx="1"
     ry="1"
     id="rect10" />
  <path
     style="opacity:0.2"
     d="m 24,18 a 4,4 0 0 0 -4,4 4,4 0 0 0 1.873047,3.380859 L 20,31 h 8 L 26.128906,25.384766 A 4,4 0 0 0 28,22 4,4 0 0 0 24,18 Z"
     id="path12" />
  <circle
     style="fill:#4c566a;fill-opacity:1"
     cx="24"
     cy="21"
     r="4"
     id="circle14" />
  <path
     style="fill:#4c566a;fill-opacity:1"
     transform="matrix(0.72744128,0,0,1.2599652,5.6029928,-8.0707074)"
     d="m 25.290024,20.691609 5.498725,9.524073 -10.997451,-1e-6 z"
     id="path16" />
  <circle
     style="fill:#ffffff;fill-opacity:1"
     cx="7.5"
     cy="16.5"
     r="1.5"
     id="circle18" />
  <circle
     style="fill:#ffffff;fill-opacity:1"
     cx="7.5"
     cy="30.5"
     r="1.5"
     id="circle20" />
  <circle
     style="fill:#ffffff;fill-opacity:1"
     cx="7.5"
     cy="-31.5"
     r="1.5"
     transform="rotate(90)"
     id="circle22" />
  <circle
     style="fill:#ffffff;fill-opacity:1"
     cx="7.5"
     cy="-17.5"
     r="1.5"
     transform="rotate(90)"
     id="circle24" />
  <circle
     style="fill:#ffffff;fill-opacity:1"
     cx="-40.5"
     cy="-31.5"
     r="1.5"
     transform="scale(-1)"
     id="circle26" />
  <circle
     style="fill:#ffffff;fill-opacity:1"
     cx="-40.5"
     cy="-17.5"
     r="1.5"
     transform="scale(-1)"
     id="circle28" />
  <circle
     style="fill:#ffffff;fill-opacity:1"
     cx="-40.5"
     cy="16.5"
     r="1.5"
     transform="rotate(-90)"
     id="circle30" />
  <circle
     style="fill:#ffffff;fill-opacity:1"
     cx="-40.5"
     cy="30.5"
     r="1.5"
     transform="rotate(-90)"
     id="circle32" />
</svg>
