<?xml version="1.0" encoding="UTF-8" standalone="no"?>
<svg
   xmlns:dc="http://purl.org/dc/elements/1.1/"
   xmlns:cc="http://creativecommons.org/ns#"
   xmlns:rdf="http://www.w3.org/1999/02/22-rdf-syntax-ns#"
   xmlns:svg="http://www.w3.org/2000/svg"
   xmlns="http://www.w3.org/2000/svg"
   xmlns:sodipodi="http://sodipodi.sourceforge.net/DTD/sodipodi-0.dtd"
   xmlns:inkscape="http://www.inkscape.org/namespaces/inkscape"
   width="48"
   height="48"
   version="1"
   id="svg12"
   sodipodi:docname="cutemaze.svg"
   inkscape:version="0.92.5 (2060ec1f9f, 2020-04-08)">
  <metadata
     id="metadata18">
    <rdf:RDF>
      <cc:Work
         rdf:about="">
        <dc:format>image/svg+xml</dc:format>
        <dc:type
           rdf:resource="http://purl.org/dc/dcmitype/StillImage" />
      </cc:Work>
    </rdf:RDF>
  </metadata>
  <defs
     id="defs16" />
  <sodipodi:namedview
     pagecolor="#ffffff"
     bordercolor="#666666"
     borderopacity="1"
     objecttolerance="10"
     gridtolerance="10"
     guidetolerance="10"
     inkscape:pageopacity="0"
     inkscape:pageshadow="2"
     inkscape:window-width="783"
     inkscape:window-height="480"
     id="namedview14"
     showgrid="false"
     inkscape:zoom="4.9166667"
     inkscape:cx="31.226752"
     inkscape:cy="26.391753"
     inkscape:window-x="0"
     inkscape:window-y="28"
     inkscape:window-maximized="0"
     inkscape:current-layer="svg12" />
  <path
     style="fill:#697387;fill-opacity:1"
     d="M 44,42 V 6 C 44,4.892 43.108,4 42,4 H 6 C 4.892,4 4,4.892 4,6 v 34.152918 l 1.0060362,1.897384 C 5.5250757,43.02921 5.14396,43.012656 6.2515091,43.044266 L 38,43 39.738431,44 H 42 c 1.108,0 2,-0.892 2,-2 z"
     id="path2" />
  <path
     style="opacity:0.2"
     d="m 4,42 v 1 c 0,1.108 0.892,2 2,2 h 36 c 1.108,0 2,-0.892 2,-2 v -1 c 0,1.108 -0.892,2 -2,2 H 6 C 4.892,44 4,43.108 4,42 Z"
     id="path4" />
  <path
     style="fill:#4c566a;fill-opacity:1"
     d="M 9,4 V 27 H 4 v 4 h 14 v 9 H 4 v 2 c 0,1.108 0.892,2 2,2 h 30 4 V 21 h 4 v -4 h -8 v 4 19 H 22 V 31 27 H 13 V 4 Z m 9,0 v 18 h 4 5 v 13 h 4 V 12 H 44 V 8 H 27 v 4 6 H 22 V 4 Z"
     id="path6" />
  <path
     style="opacity:0.2;fill:#ffffff"
     d="M 6 4 C 4.892 4 4 4.892 4 6 L 4 7 C 4 5.892 4.892 5 6 5 L 9 5 L 9 4 L 6 4 z M 13 4 L 13 5 L 18 5 L 18 4 L 13 4 z M 22 4 L 22 5 L 42 5 C 43.108 5 44 5.892 44 7 L 44 6 C 44 4.892 43.108 4 42 4 L 22 4 z"
     id="path8" />
  <path
     style="opacity:0.2"
     d="m 9,4 v 1 h 4 V 4 Z m 9,0 v 1 h 4 V 4 Z m 9,4 V 9 H 44 V 8 Z m 9,9 v 1 h 8 v -1 z m -14,1 v 1 h 5 V 18 Z M 4,27 v 1 h 5 v -1 z m 9,0 v 1 h 9 V 27 Z M 4,40 v 1 h 14 v -1 z m 18,0 v 1 h 14 v -1 z"
     id="path10" />
</svg>
