<?xml version="1.0" encoding="UTF-8" standalone="no"?>
<svg
   xmlns:dc="http://purl.org/dc/elements/1.1/"
   xmlns:cc="http://creativecommons.org/ns#"
   xmlns:rdf="http://www.w3.org/1999/02/22-rdf-syntax-ns#"
   xmlns:svg="http://www.w3.org/2000/svg"
   xmlns="http://www.w3.org/2000/svg"
   xmlns:sodipodi="http://sodipodi.sourceforge.net/DTD/sodipodi-0.dtd"
   xmlns:inkscape="http://www.inkscape.org/namespaces/inkscape"
   width="48"
   height="48"
   version="1"
   id="svg12"
   sodipodi:docname="cutegram.svg"
   inkscape:version="0.92.5 (2060ec1f9f, 2020-04-08)">
  <metadata
     id="metadata18">
    <rdf:RDF>
      <cc:Work
         rdf:about="">
        <dc:format>image/svg+xml</dc:format>
        <dc:type
           rdf:resource="http://purl.org/dc/dcmitype/StillImage" />
      </cc:Work>
    </rdf:RDF>
  </metadata>
  <defs
     id="defs16" />
  <sodipodi:namedview
     pagecolor="#ffffff"
     bordercolor="#666666"
     borderopacity="1"
     objecttolerance="10"
     gridtolerance="10"
     guidetolerance="10"
     inkscape:pageopacity="0"
     inkscape:pageshadow="2"
     inkscape:window-width="783"
     inkscape:window-height="480"
     id="namedview14"
     showgrid="false"
     inkscape:zoom="4.9166667"
     inkscape:cx="-1.1186441"
     inkscape:cy="24"
     inkscape:window-x="0"
     inkscape:window-y="28"
     inkscape:window-maximized="0"
     inkscape:current-layer="svg12" />
  <rect
     fill="#c2352a"
     width="40"
     height="40"
     x="4"
     y="4"
     rx="2"
     ry="2"
     id="rect2"
     style="fill:#4c566a;fill-opacity:1" />
  <path
     fill="#fff"
     opacity=".2"
     d="m6 4c-1.108 0-2 0.892-2 2v1c0-1.108 0.892-2 2-2h36c1.108 0 2 0.892 2 2v-1c0-1.108-0.892-2-2-2h-36z"
     id="path4" />
  <path
     opacity=".2"
     d="m6 45c-1.108 0-2-0.892-2-2v-1c0 1.108 0.892 2 2 2h36c1.108 0 2-0.892 2-2v1c0 1.108-0.892 2-2 2h-36z"
     id="path6" />
  <path
     opacity=".2"
     d="m25.249 35.834c-0.5291-0.32118-0.86649-0.87715-2.336-3.8494-0.81331-1.645-1.5875-3.1061-1.7204-3.2469-0.15-0.158-1.376-0.81-3.207-1.704-3.619-1.767-3.986-2.047-3.986-3.047 0-0.46704 0.22784-0.91347 0.58512-1.1465 0.12276-0.08 3.9059-1.4336 8.4069-3.0078 7.9085-2.766 8.2025-2.8611 8.7427-2.8282 0.46753 0.0285 0.60297 0.076 0.82757 0.29019 0.33674 0.32115 0.48821 0.76633 0.42267 1.2422-0.0705 0.51156-5.7484 16.55-5.9596 16.834-0.45032 0.60542-1.2144 0.80491-1.7764 0.46378z"
     id="path8" />
  <path
     fill="#fff"
     d="m25.249 34.834c-0.5291-0.32118-0.86649-0.87715-2.336-3.8494-0.81331-1.645-1.5875-3.1061-1.7204-3.2469-0.15-0.158-1.376-0.81-3.207-1.704-3.619-1.767-3.986-2.047-3.986-3.047 0-0.46704 0.22784-0.91347 0.58512-1.1465 0.12276-0.08 3.9059-1.4336 8.4069-3.0078 7.9085-2.766 8.2025-2.8611 8.7427-2.8282 0.46753 0.0285 0.60297 0.076 0.82757 0.29019 0.33674 0.32115 0.48821 0.76633 0.42267 1.2422-0.0705 0.51156-5.7484 16.55-5.9596 16.834-0.45032 0.60542-1.2144 0.80491-1.7764 0.46378z"
     id="path10" />
</svg>
