<?xml version="1.0" encoding="UTF-8" standalone="no"?>
<svg
   xmlns:dc="http://purl.org/dc/elements/1.1/"
   xmlns:cc="http://creativecommons.org/ns#"
   xmlns:rdf="http://www.w3.org/1999/02/22-rdf-syntax-ns#"
   xmlns:svg="http://www.w3.org/2000/svg"
   xmlns="http://www.w3.org/2000/svg"
   xmlns:sodipodi="http://sodipodi.sourceforge.net/DTD/sodipodi-0.dtd"
   xmlns:inkscape="http://www.inkscape.org/namespaces/inkscape"
   width="48"
   height="48"
   version="1.1"
   id="svg20"
   sodipodi:docname="appimagekit-cutter.svg"
   inkscape:version="0.92.5 (2060ec1f9f, 2020-04-08)">
  <metadata
     id="metadata26">
    <rdf:RDF>
      <cc:Work
         rdf:about="">
        <dc:format>image/svg+xml</dc:format>
        <dc:type
           rdf:resource="http://purl.org/dc/dcmitype/StillImage" />
      </cc:Work>
    </rdf:RDF>
  </metadata>
  <defs
     id="defs24" />
  <sodipodi:namedview
     pagecolor="#ffffff"
     bordercolor="#666666"
     borderopacity="1"
     objecttolerance="10"
     gridtolerance="10"
     guidetolerance="10"
     inkscape:pageopacity="0"
     inkscape:pageshadow="2"
     inkscape:window-width="783"
     inkscape:window-height="480"
     id="namedview22"
     showgrid="false"
     inkscape:zoom="4.9166667"
     inkscape:cx="24"
     inkscape:cy="24"
     inkscape:window-x="0"
     inkscape:window-y="28"
     inkscape:window-maximized="0"
     inkscape:current-layer="svg20" />
  <circle
     style="opacity:0.2"
     cx="24"
     cy="25"
     r="20"
     id="circle2" />
  <circle
     style="fill:#4c566a;fill-opacity:1"
     cx="24"
     cy="24"
     r="20"
     id="circle4" />
  <path
     style="opacity:0.1"
     d="M 24,8 A 17,17 0 0 0 7,25 17,17 0 0 0 24,42 17,17 0 0 0 36.025391,37 H 28.228516 L 22,24.904297 28.228516,13 h 7.798828 A 17,17 0 0 0 24,8 Z M 32,20 28.5,22.5 25,25 28.5,27.5 32,30 v -5 z m 0,5 3.5,2.5 3.5,2.5 v -5 -5 l -3.5,2.5 z"
     id="path6" />
  <path
     style="opacity:0.2;fill:#ffffff"
     d="M 24,4 A 20,20 0 0 0 4,24 20,20 0 0 0 4.0215,24.582 20,20 0 0 1 24,5 20,20 0 0 1 43.979,24.418 20,20 0 0 0 44,24 20,20 0 0 0 24,4 Z"
     id="path8" />
  <path
     style="fill:#ffffff;fill-opacity:1"
     d="M 24 7 A 17 17 0 0 0 7 24 A 17 17 0 0 0 24 41 A 17 17 0 0 0 36.025391 36 L 28.228516 36 L 22 23.904297 L 28.228516 12 L 36.027344 12 A 17 17 0 0 0 24 7 z"
     id="path10" />
  <path
     style="fill:#ffffff;fill-opacity:1"
     transform="matrix(0.86631044,0,0,1.0717812,4.0330263,-2.2741452)"
     d="m 24.20261,24.514467 4.040122,-2.332565 4.040122,-2.332566 0,4.665131 0,4.665131 -4.040122,-2.332565 z"
     id="path12" />
  <path
     style="fill:#ffffff;fill-opacity:1"
     transform="matrix(0.86631044,0,0,1.0717812,11.033026,-2.2741452)"
     d="m 24.20261,24.514467 4.040122,-2.332565 4.040122,-2.332566 0,4.665131 0,4.665131 -4.040122,-2.332565 z"
     id="path14" />
  <path
     style="opacity:0.2"
     d="m 15.91736,13 c -0.735242,1.54e-4 -1.410331,0.430176 -1.755037,1.117933 L 4.2345265,33.908897 C 3.5323463,35.310452 4.4913721,36.999561 5.9895624,37 H 22.010561 c 1.496287,-5.25e-4 2.455381,-1.685805 1.756901,-3.087153 L 18.998647,25 23.372067,16.095054 C 24.077959,14.693297 23.118999,13.000344 21.618896,13 Z"
     id="path16" />
  <path
     style="fill:#5f697d;fill-opacity:1"
     d="m 15.91736,12 c -0.735242,1.54e-4 -1.410331,0.430176 -1.755037,1.117933 L 4.2345265,32.908897 C 3.5323463,34.310452 4.4913721,35.999561 5.9895624,36 H 22.010561 c 1.496287,-5.25e-4 2.455381,-1.685805 1.756901,-3.087153 L 18.998647,24 23.372067,15.095054 C 24.077959,13.693297 23.118999,12.000344 21.618896,12 Z"
     id="path18" />
</svg>
