<?xml version="1.0" encoding="UTF-8" standalone="no"?>
<svg
   xmlns:dc="http://purl.org/dc/elements/1.1/"
   xmlns:cc="http://creativecommons.org/ns#"
   xmlns:rdf="http://www.w3.org/1999/02/22-rdf-syntax-ns#"
   xmlns:svg="http://www.w3.org/2000/svg"
   xmlns="http://www.w3.org/2000/svg"
   xmlns:sodipodi="http://sodipodi.sourceforge.net/DTD/sodipodi-0.dtd"
   xmlns:inkscape="http://www.inkscape.org/namespaces/inkscape"
   width="48"
   height="48"
   version="1.1"
   id="svg14"
   sodipodi:docname="deepin-movie.svg"
   inkscape:version="0.92.5 (2060ec1f9f, 2020-04-08)">
  <metadata
     id="metadata20">
    <rdf:RDF>
      <cc:Work
         rdf:about="">
        <dc:format>image/svg+xml</dc:format>
        <dc:type
           rdf:resource="http://purl.org/dc/dcmitype/StillImage" />
      </cc:Work>
    </rdf:RDF>
  </metadata>
  <defs
     id="defs18" />
  <sodipodi:namedview
     pagecolor="#ffffff"
     bordercolor="#666666"
     borderopacity="1"
     objecttolerance="10"
     gridtolerance="10"
     guidetolerance="10"
     inkscape:pageopacity="0"
     inkscape:pageshadow="2"
     inkscape:window-width="783"
     inkscape:window-height="480"
     id="namedview16"
     showgrid="false"
     inkscape:zoom="4.9166667"
     inkscape:cx="24"
     inkscape:cy="24"
     inkscape:window-x="0"
     inkscape:window-y="28"
     inkscape:window-maximized="0"
     inkscape:current-layer="svg14" />
  <rect
     style="opacity:0.2"
     width="40"
     height="40"
     x="4"
     y="5"
     rx="3"
     ry="3"
     id="rect2" />
  <rect
     style="fill:#4c566a;fill-opacity:1"
     width="40"
     height="40"
     x="4"
     y="4"
     rx="3"
     ry="3"
     id="rect4" />
  <path
     style="fill-rule:evenodd;opacity:0.3"
     d="M 8 8 L 8 12 L 12 12 L 12 8 L 8 8 z M 15 8 L 15 12 L 19 12 L 19 8 L 15 8 z M 22 8 L 22 12 L 26 12 L 26 8 L 22 8 z M 29 8 L 29 12 L 33 12 L 33 8 L 29 8 z M 36 8 L 36 12 L 40 12 L 40 8 L 36 8 z M 8 36 L 8 40 L 12 40 L 12 36 L 8 36 z M 15 36 L 15 40 L 19 40 L 19 36 L 15 36 z M 22 36 L 22 40 L 26 40 L 26 36 L 22 36 z M 29 36 L 29 40 L 33 40 L 33 36 L 29 36 z M 36 36 L 36 40 L 40 40 L 40 36 L 36 36 z"
     id="path6" />
  <path
     style="opacity:0.2;fill-rule:evenodd"
     d="m 20,30.491807 v -10.983684 0 c 0,-0.280626 0.225552,-0.508119 0.503785,-0.508119 0.092,0 0.182242,0.02541 0.260938,0.07347 l 8.992357,5.491841 v 0 c 0.238002,0.145353 0.314114,0.457784 0.170002,0.697833 -0.04212,0.07015 -0.100445,0.128984 -0.170002,0.171463 l -8.992357,5.491843 v 0 c -0.238001,0.145352 -0.547765,0.06859 -0.691879,-0.171464 -0.04765,-0.07938 -0.07284,-0.170395 -0.07284,-0.263187 z"
     id="path8" />
  <path
     style="fill:#ffffff;fill-rule:evenodd"
     d="m 20,29.491805 v -10.983684 0 c 0,-0.280626 0.225552,-0.508119 0.503785,-0.508119 0.092,0 0.182242,0.02541 0.260938,0.07347 l 8.992357,5.491841 v 0 c 0.238002,0.145353 0.314114,0.457784 0.170002,0.697833 -0.04212,0.07015 -0.100445,0.128984 -0.170002,0.171463 l -8.992357,5.491843 v 0 c -0.238001,0.145352 -0.547765,0.06859 -0.691879,-0.171464 -0.04765,-0.07938 -0.07284,-0.170395 -0.07284,-0.263187 z"
     id="path10" />
  <path
     style="fill:#ffffff;opacity:0.1"
     d="M 7 4 C 5.338 4 4 5.338 4 7 L 4 8 C 4 6.338 5.338 5 7 5 L 41 5 C 42.662 5 44 6.338 44 8 L 44 7 C 44 5.338 42.662 4 41 4 L 7 4 z"
     id="path12" />
</svg>
