<?xml version="1.0" encoding="UTF-8" standalone="no"?>
<svg
   xmlns:dc="http://purl.org/dc/elements/1.1/"
   xmlns:cc="http://creativecommons.org/ns#"
   xmlns:rdf="http://www.w3.org/1999/02/22-rdf-syntax-ns#"
   xmlns:svg="http://www.w3.org/2000/svg"
   xmlns="http://www.w3.org/2000/svg"
   xmlns:sodipodi="http://sodipodi.sourceforge.net/DTD/sodipodi-0.dtd"
   xmlns:inkscape="http://www.inkscape.org/namespaces/inkscape"
   width="48"
   height="48"
   version="1.1"
   id="svg68"
   sodipodi:docname="org.desmume.DeSmuME.svg"
   inkscape:version="0.92.5 (2060ec1f9f, 2020-04-08)">
  <metadata
     id="metadata74">
    <rdf:RDF>
      <cc:Work
         rdf:about="">
        <dc:format>image/svg+xml</dc:format>
        <dc:type
           rdf:resource="http://purl.org/dc/dcmitype/StillImage" />
      </cc:Work>
    </rdf:RDF>
  </metadata>
  <defs
     id="defs72" />
  <sodipodi:namedview
     pagecolor="#ffffff"
     bordercolor="#666666"
     borderopacity="1"
     objecttolerance="10"
     gridtolerance="10"
     guidetolerance="10"
     inkscape:pageopacity="0"
     inkscape:pageshadow="2"
     inkscape:window-width="783"
     inkscape:window-height="480"
     id="namedview70"
     showgrid="false"
     inkscape:zoom="6.9532167"
     inkscape:cx="25.533917"
     inkscape:cy="26.783315"
     inkscape:window-x="0"
     inkscape:window-y="28"
     inkscape:window-maximized="0"
     inkscape:current-layer="svg68" />
  <rect
     style="opacity:0.2"
     width="40"
     height="40"
     x="4"
     y="5"
     rx="2"
     ry="2"
     id="rect2" />
  <rect
     style="fill:#5f697d;fill-opacity:1"
     width="40"
     height="40"
     x="4"
     y="4"
     rx="2"
     ry="2"
     id="rect4" />
  <path
     style="fill:#4c566a;fill-opacity:1"
     transform="matrix(0,-1,-1,0,0,0)"
     d="M -41.999996,-44 H -23 v 40 h -18.999996 c -1.108,0 -2,-0.892 -2,-2 v -36 c 0,-1.108 0.892,-2 2,-2 z"
     id="path6" />
  <path
     style="fill:#374155;fill-opacity:1"
     d="M 12,7 H 36 V 20 H 12 M 12,7"
     id="path8" />
  <path
     style="fill:#374155;fill-opacity:1"
     d="M 16,28 H 32 V 41 H 16 m 0,-13"
     id="path10" />
  <g
     style="opacity:0.2"
     transform="translate(-4.0200005,18.07)"
     id="g16">
    <rect
       width="3"
       height="9"
       x="13.02"
       y="12.93"
       ry="0"
       id="rect12" />
    <rect
       width="3"
       height="9"
       x="15.93"
       y="-19.02"
       ry="0"
       transform="rotate(90)"
       id="rect14" />
  </g>
  <g
     style="fill:#f9f9f9;fill-opacity:1"
     transform="translate(-4.0200005,17.07)"
     id="g22">
    <rect
       width="3"
       height="9"
       x="13.02"
       y="12.93"
       ry="0"
       id="rect18"
       style="fill:#f9f9f9;fill-opacity:1" />
    <rect
       width="3"
       height="9"
       x="15.93"
       y="-19.02"
       ry="0"
       transform="rotate(90)"
       id="rect20"
       style="fill:#f9f9f9;fill-opacity:1" />
  </g>
  <g
     style="opacity:0.2"
     transform="translate(8.5359798,1.7821423)"
     id="g34">
    <circle
       cx="31.964"
       cy="33.718"
       r="1.5"
       id="circle24" />
    <g
       transform="translate(-4.5559803,16.287855)"
       id="g30">
      <circle
         cx="30.52"
         cy="17.43"
         r="1.5"
         id="circle26" />
      <circle
         cx="14.43"
         cy="-33.52"
         r="1.5"
         transform="rotate(90)"
         id="circle28" />
    </g>
    <circle
       cx="36.718"
       cy="-28.964"
       r="1.5"
       transform="rotate(90)"
       id="circle32" />
  </g>
  <g
     style="fill:#ffffff;fill-opacity:1"
     transform="translate(8.5359798,0.78214264)"
     id="g46">
    <circle
       style="fill:#ffffff;fill-opacity:1"
       cx="31.964"
       cy="33.718"
       r="1.5"
       id="circle36" />
    <g
       style="fill:#ffffff;fill-opacity:1"
       transform="translate(-4.5559803,16.287855)"
       id="g42">
      <circle
         style="fill:#ffffff;fill-opacity:1"
         cx="30.52"
         cy="17.43"
         r="1.5"
         id="circle38" />
      <circle
         style="fill:#ffffff;fill-opacity:1"
         cx="14.43"
         cy="-33.52"
         r="1.5"
         transform="rotate(90)"
         id="circle40" />
    </g>
    <circle
       style="fill:#ffffff;fill-opacity:1"
       cx="36.718"
       cy="-28.964"
       r="1.5"
       transform="rotate(90)"
       id="circle44" />
  </g>
  <g
     style="opacity:0.2"
     id="g54">
    <rect
       width="4"
       height="1"
       x="6"
       y="15"
       id="rect48" />
    <rect
       width="4"
       height="1"
       x="6"
       y="17"
       id="rect50" />
    <rect
       width="4"
       height="1"
       x="6"
       y="19"
       id="rect52" />
  </g>
  <g
     style="opacity:0.2"
     transform="translate(32)"
     id="g62">
    <rect
       width="4"
       height="1"
       x="6"
       y="15"
       id="rect56" />
    <rect
       width="4"
       height="1"
       x="6"
       y="17"
       id="rect58" />
    <rect
       width="4"
       height="1"
       x="6"
       y="19"
       id="rect60" />
  </g>
  <rect
     style="opacity:0.2"
     width="40"
     height="2"
     x="4"
     y="23"
     id="rect64" />
  <path
     style="fill:#ffffff;opacity:0.2"
     d="M 6 4 C 4.892 4 4 4.892 4 6 L 4 7 C 4 5.892 4.892 5 6 5 L 42 5 C 43.108 5 44 5.892 44 7 L 44 6 C 44 4.892 43.108 4 42 4 L 6 4 z"
     id="path66" />
</svg>
