<?xml version="1.0" encoding="UTF-8" standalone="no"?>
<svg
   xmlns:dc="http://purl.org/dc/elements/1.1/"
   xmlns:cc="http://creativecommons.org/ns#"
   xmlns:rdf="http://www.w3.org/1999/02/22-rdf-syntax-ns#"
   xmlns:svg="http://www.w3.org/2000/svg"
   xmlns="http://www.w3.org/2000/svg"
   xmlns:sodipodi="http://sodipodi.sourceforge.net/DTD/sodipodi-0.dtd"
   xmlns:inkscape="http://www.inkscape.org/namespaces/inkscape"
   width="48"
   height="48"
   version="1"
   id="svg10"
   sodipodi:docname="distributor-logo-lubuntu.svg"
   inkscape:version="0.92.5 (2060ec1f9f, 2020-04-08)">
  <metadata
     id="metadata16">
    <rdf:RDF>
      <cc:Work
         rdf:about="">
        <dc:format>image/svg+xml</dc:format>
        <dc:type
           rdf:resource="http://purl.org/dc/dcmitype/StillImage" />
      </cc:Work>
    </rdf:RDF>
  </metadata>
  <defs
     id="defs14" />
  <sodipodi:namedview
     pagecolor="#ffffff"
     bordercolor="#666666"
     borderopacity="1"
     objecttolerance="10"
     gridtolerance="10"
     guidetolerance="10"
     inkscape:pageopacity="0"
     inkscape:pageshadow="2"
     inkscape:window-width="640"
     inkscape:window-height="480"
     id="namedview12"
     showgrid="false"
     inkscape:zoom="4.9166667"
     inkscape:cx="24"
     inkscape:cy="24"
     inkscape:current-layer="svg10" />
  <circle
     style="opacity:0.2"
     cx="24"
     cy="25"
     r="20"
     id="circle2" />
  <circle
     style="fill:#4c566a;fill-opacity:1"
     cx="24"
     cy="24"
     r="20"
     id="circle4" />
  <path
     style="fill:#ffffff"
     d="M 28.949 9.2793 C 28.339 9.2593 24.97 10.25 23.99 11.5 C 21.268 11.692 11.136 18.481 4.0273 23.445 A 20 20 0 0 0 4 24 A 20 20 0 0 0 4.084 25.684 C 6.7298 24.718 9.3666 23.883 10.58 23.891 C 10.87 23.891 11.089 23.941 11.189 24.051 C 11.769 24.731 9.2993 28.03 6.7598 31.77 C 6.5241 32.116 6.2953 32.463 6.0605 32.812 A 20 20 0 0 0 6.7832 34.133 C 9.9902 30.146 13.481 25.927 14.551 25.77 C 14.611 25.75 14.671 25.769 14.721 25.789 C 14.908 26.021 11.663 31.251 8.4238 36.533 A 20 20 0 0 0 9.7773 38.049 C 11.185 36.101 12.625 34.103 14.061 32.119 C 17.881 26.849 21.26 21.921 22.91 21.881 C 22.96 21.881 23.011 21.881 23.061 21.891 C 27.751 21.918 32.304 32.723 35.033 40.668 A 20 20 0 0 0 36.449 39.65 C 35.047 30.687 32.129 17.935 26.48 14.16 C 27.14 13.72 27.189 11.48 27.189 11.48 L 28.949 9.2793 z"
     id="path6" />
  <path
     style="opacity:0.1;fill:#ffffff"
     d="M 24 4 A 20 20 0 0 0 4 24 A 20 20 0 0 0 4.0215 24.582 A 20 20 0 0 1 24 5 A 20 20 0 0 1 43.979 24.418 A 20 20 0 0 0 44 24 A 20 20 0 0 0 24 4 z"
     id="path8" />
</svg>
