<?xml version="1.0" encoding="UTF-8" standalone="no"?>
<svg
   xmlns:dc="http://purl.org/dc/elements/1.1/"
   xmlns:cc="http://creativecommons.org/ns#"
   xmlns:rdf="http://www.w3.org/1999/02/22-rdf-syntax-ns#"
   xmlns:svg="http://www.w3.org/2000/svg"
   xmlns="http://www.w3.org/2000/svg"
   xmlns:sodipodi="http://sodipodi.sourceforge.net/DTD/sodipodi-0.dtd"
   xmlns:inkscape="http://www.inkscape.org/namespaces/inkscape"
   height="48"
   width="48"
   version="1.1"
   id="svg10"
   sodipodi:docname="distributor-logo-artix.svg"
   inkscape:version="0.92.5 (2060ec1f9f, 2020-04-08)">
  <metadata
     id="metadata16">
    <rdf:RDF>
      <cc:Work
         rdf:about="">
        <dc:format>image/svg+xml</dc:format>
        <dc:type
           rdf:resource="http://purl.org/dc/dcmitype/StillImage" />
      </cc:Work>
    </rdf:RDF>
  </metadata>
  <defs
     id="defs14" />
  <sodipodi:namedview
     pagecolor="#ffffff"
     bordercolor="#666666"
     borderopacity="1"
     objecttolerance="10"
     gridtolerance="10"
     guidetolerance="10"
     inkscape:pageopacity="0"
     inkscape:pageshadow="2"
     inkscape:window-width="783"
     inkscape:window-height="480"
     id="namedview12"
     showgrid="false"
     inkscape:zoom="4.9166667"
     inkscape:cx="24"
     inkscape:cy="24"
     inkscape:window-x="0"
     inkscape:window-y="28"
     inkscape:window-maximized="0"
     inkscape:current-layer="g8" />
  <g
     transform="matrix(2,0,0,2,2,2)"
     id="g8">
    <path
       style="opacity:.2"
       d="m11 1.5-3.5917969 7.1855469 9.2968749 4.2265621zm-4.5761719 9.154297-5.4238281 10.845703 16-7zm11.775391 5.246094-4.976563 2.488281 7.777344 3.111328z"
       id="path2" />
    <path
       style="fill:#4c566a;fill-opacity:1"
       d="m11 1-3.5917969 7.1855469 9.2968749 4.2265621zm-4.5761719 9.154297-5.4238281 10.845703 16-7zm11.775391 5.246094-4.976563 2.488281 7.777344 3.111328z"
       id="path4" />
    <path
       style="opacity:.2;fill:#ffffff"
       d="m11 1-3.5917969 7.1855469 0.203125 0.0917969 3.3886719-6.7773438l5.380859 10.765625 0.324219 0.146484zm-4.5761719 9.154297-5.4238281 10.845703 0.3203125-0.140625 5.1035156-10.205078 9.9511719 3.619141 0.625-0.273438zm11.775391 5.246094-4.976563 2.488281 0.554688 0.222656 4.421875-2.210937l2.488281 4.974609 0.3125 0.125z"
       id="path6" />
  </g>
</svg>
