<?xml version="1.0" encoding="UTF-8" standalone="no"?>
<svg
   xmlns:dc="http://purl.org/dc/elements/1.1/"
   xmlns:cc="http://creativecommons.org/ns#"
   xmlns:rdf="http://www.w3.org/1999/02/22-rdf-syntax-ns#"
   xmlns:svg="http://www.w3.org/2000/svg"
   xmlns="http://www.w3.org/2000/svg"
   xmlns:sodipodi="http://sodipodi.sourceforge.net/DTD/sodipodi-0.dtd"
   xmlns:inkscape="http://www.inkscape.org/namespaces/inkscape"
   width="48"
   height="48"
   version="1.1"
   id="svg20"
   sodipodi:docname="distributor-logo-android.svg"
   inkscape:version="0.92.5 (2060ec1f9f, 2020-04-08)">
  <metadata
     id="metadata26">
    <rdf:RDF>
      <cc:Work
         rdf:about="">
        <dc:format>image/svg+xml</dc:format>
        <dc:type
           rdf:resource="http://purl.org/dc/dcmitype/StillImage" />
      </cc:Work>
    </rdf:RDF>
  </metadata>
  <defs
     id="defs24" />
  <sodipodi:namedview
     pagecolor="#ffffff"
     bordercolor="#666666"
     borderopacity="1"
     objecttolerance="10"
     gridtolerance="10"
     guidetolerance="10"
     inkscape:pageopacity="0"
     inkscape:pageshadow="2"
     inkscape:window-width="783"
     inkscape:window-height="480"
     id="namedview22"
     showgrid="false"
     inkscape:zoom="6.9532167"
     inkscape:cx="31.016975"
     inkscape:cy="37.708761"
     inkscape:window-x="0"
     inkscape:window-y="28"
     inkscape:window-maximized="0"
     inkscape:current-layer="svg20" />
  <path
     style="opacity:0.2"
     d="M 42.008786,35 H 5.94193 c 0,0 -2.0307707,0 -1.9389047,-1.924931 C 4.976113,22.932468 13.5596,15 24.004456,15 34.416291,15 42.978506,22.882389 43.99643,32.978935 44.097753,35 42.008786,35 42.008786,35 Z"
     id="path2" />
  <path
     style="fill:none;stroke:#5f697d;stroke-width:4;stroke-linecap:round;stroke-opacity:1"
     d="M 13,19 9,13"
     id="path4" />
  <path
     style="fill:none;stroke:#5f697d;stroke-width:4;stroke-linecap:round;stroke-opacity:1"
     d="m 35,19 4,-6"
     id="path6" />
  <path
     style="opacity:0.1;fill:#ffffff"
     d="M 8.9785156 10.976562 A 2.0002 2.0002 0 0 0 7.0488281 13.476562 A 2.0002 2.0002 0 0 1 8.9785156 11.976562 A 2.0002 2.0002 0 0 1 10.664062 12.890625 L 14.664062 18.890625 A 2.0002 2.0002 0 0 1 14.953125 19.525391 A 2.0002 2.0002 0 0 0 14.664062 17.890625 L 10.664062 11.890625 A 2.0002 2.0002 0 0 0 8.9785156 10.976562 z M 38.960938 10.976562 A 2.0002 2.0002 0 0 0 37.335938 11.890625 L 33.335938 17.890625 A 2.0002 2.0002 0 0 0 33.048828 19.523438 A 2.0002 2.0002 0 0 1 33.335938 18.890625 L 37.335938 12.890625 A 2.0002 2.0002 0 0 1 38.960938 11.976562 A 2.0002 2.0002 0 0 1 40.949219 13.476562 A 2.0002 2.0002 0 0 0 38.960938 10.976562 z"
     id="path8" />
  <path
     style="fill:#4c566a;fill-opacity:1"
     d="M 42.008786,34 H 5.94193 c 0,0 -2.0307707,0 -1.9389047,-1.924931 C 4.976113,21.932468 13.5596,14 24.004456,14 34.416291,14 42.978506,21.882389 43.99643,31.978935 44.097753,34 42.008786,34 42.008786,34 Z"
     id="path10" />
  <path
     style="opacity:0.2"
     d="m 14,25 a 2,2 0 0 0 -2,2 2,2 0 0 0 2,2 2,2 0 0 0 2,-2 2,2 0 0 0 -2,-2 z m 20,0 a 2,2 0 0 0 -2,2 2,2 0 0 0 2,2 2,2 0 0 0 2,-2 2,2 0 0 0 -2,-2 z"
     id="path12" />
  <circle
     style="fill:#ffffff"
     cx="14"
     cy="26"
     r="2"
     id="circle14" />
  <circle
     style="fill:#ffffff"
     cx="-34"
     cy="26"
     r="2"
     transform="scale(-1,1)"
     id="circle16" />
  <path
     style="opacity:0.2;fill:#ffffff"
     d="M 24.003906 14 C 13.55905 14 4.9769939 21.931618 4.0039062 32.074219 C 3.9927756 32.307447 4.0147905 32.511271 4.0585938 32.691406 C 5.2102424 22.735 13.69245 15 24.003906 15 C 34.291732 15 42.760787 22.699664 43.943359 32.623047 C 43.987123 32.434881 44.008284 32.221669 43.996094 31.978516 C 42.97817 21.88197 34.415741 14 24.003906 14 z"
     id="path18" />
</svg>
