<?xml version="1.0" encoding="UTF-8" standalone="no"?>
<svg
   xmlns:dc="http://purl.org/dc/elements/1.1/"
   xmlns:cc="http://creativecommons.org/ns#"
   xmlns:rdf="http://www.w3.org/1999/02/22-rdf-syntax-ns#"
   xmlns:svg="http://www.w3.org/2000/svg"
   xmlns="http://www.w3.org/2000/svg"
   xmlns:sodipodi="http://sodipodi.sourceforge.net/DTD/sodipodi-0.dtd"
   xmlns:inkscape="http://www.inkscape.org/namespaces/inkscape"
   width="48"
   height="48"
   version="1.1"
   id="svg20"
   sodipodi:docname="distributor-logo-ultimate-edition.svg"
   inkscape:version="0.92.5 (2060ec1f9f, 2020-04-08)">
  <metadata
     id="metadata26">
    <rdf:RDF>
      <cc:Work
         rdf:about="">
        <dc:format>image/svg+xml</dc:format>
        <dc:type
           rdf:resource="http://purl.org/dc/dcmitype/StillImage" />
      </cc:Work>
    </rdf:RDF>
  </metadata>
  <defs
     id="defs24" />
  <sodipodi:namedview
     pagecolor="#ffffff"
     bordercolor="#666666"
     borderopacity="1"
     objecttolerance="10"
     gridtolerance="10"
     guidetolerance="10"
     inkscape:pageopacity="0"
     inkscape:pageshadow="2"
     inkscape:window-width="640"
     inkscape:window-height="480"
     id="namedview22"
     showgrid="false"
     inkscape:zoom="4.9166667"
     inkscape:cx="24"
     inkscape:cy="24"
     inkscape:current-layer="svg20" />
  <circle
     cx="24"
     cy="25"
     r="20"
     style="opacity:.2"
     id="circle2" />
  <circle
     cx="24"
     cy="24"
     r="20"
     style="fill:#4c566a;fill-opacity:1"
     id="circle4" />
  <path
     d="m24 9.035156a16 16 0 0 0-12.789062 6.417969l3.265624 6.535157a10 10 0 0 1 9.523438-6.953126h12.488282a16 16 0 0 0-12.488282-6zm5.980468 8a10 10 0 0 1 4.019532 8 10 10 0 0 1-5.449218 8.902344l-3.53125 7.0625a16 16 0 0 0 14.980468-15.964844 16 16 0 0 0-2.167968-8zm-19.910156 0.140625a16 16 0 0 0-2.070312 7.859375 16 16 0 0 0 15.023438 15.953124l3.097656-6.191406a10 10 0 0 1-2.121094 0.238282 10 10 0 0 1-10-10z"
     style="opacity:.2"
     id="path6" />
  <path
     d="m24 8.035156a16 16 0 0 0-12.789062 6.417969l3.265624 6.535156a10 10 0 0 1 9.523438-6.953125h12.488282a16 16 0 0 0-12.488282-6zm5.980468 8a10 10 0 0 1 4.019532 8 10 10 0 0 1-5.449218 8.902344l-3.53125 7.0625a16 16 0 0 0 14.980468-15.964844 16 16 0 0 0-2.167968-8zm-19.910156 0.140625a16 16 0 0 0-2.070312 7.859375 16 16 0 0 0 15.023438 15.953124l3.097656-6.191406a10 10 0 0 1-2.121094 0.238282 10 10 0 0 1-10-10z"
     style="fill:#ffffff"
     id="path8" />
  <path
     d="m17 21v8s0 2 2 2h2c2 0 2-2 2-2v-8h-2v8h-2v-8z"
     style="opacity:.2"
     id="path10" />
  <path
     d="M 24,4 A 20,20 0 0 0 4,24 20,20 0 0 0 4.0196,24.586 20,20 0 0 1 24,5 20,20 0 0 1 43.98,24.414 20,20 0 0 0 44,24 20,20 0 0 0 24,4 Z"
     style="fill:#ffffff;opacity:.2"
     id="path12" />
  <path
     d="m25 31h6v-2h-4v-2h4v-2h-4v-2h4v-2h-6z"
     style="opacity:.2"
     id="path14" />
  <path
     d="m17 20v8s0 2 2 2h2c2 0 2-2 2-2v-8h-2v8h-2v-8z"
     style="fill:#ffffff"
     id="path16" />
  <path
     d="m25 30h6v-2h-4v-2h4v-2h-4v-2h4v-2h-6z"
     style="fill:#ffffff"
     id="path18" />
</svg>
