<?xml version="1.0" encoding="UTF-8" standalone="no"?>
<svg
   xmlns:dc="http://purl.org/dc/elements/1.1/"
   xmlns:cc="http://creativecommons.org/ns#"
   xmlns:rdf="http://www.w3.org/1999/02/22-rdf-syntax-ns#"
   xmlns:svg="http://www.w3.org/2000/svg"
   xmlns="http://www.w3.org/2000/svg"
   xmlns:sodipodi="http://sodipodi.sourceforge.net/DTD/sodipodi-0.dtd"
   xmlns:inkscape="http://www.inkscape.org/namespaces/inkscape"
   width="48"
   height="48"
   version="1"
   id="svg8"
   sodipodi:docname="distributor-logo-manjaro.svg"
   inkscape:version="0.92.5 (2060ec1f9f, 2020-04-08)">
  <metadata
     id="metadata14">
    <rdf:RDF>
      <cc:Work
         rdf:about="">
        <dc:format>image/svg+xml</dc:format>
        <dc:type
           rdf:resource="http://purl.org/dc/dcmitype/StillImage" />
      </cc:Work>
    </rdf:RDF>
  </metadata>
  <defs
     id="defs12" />
  <sodipodi:namedview
     pagecolor="#ffffff"
     bordercolor="#666666"
     borderopacity="1"
     objecttolerance="10"
     gridtolerance="10"
     guidetolerance="10"
     inkscape:pageopacity="0"
     inkscape:pageshadow="2"
     inkscape:window-width="640"
     inkscape:window-height="480"
     id="namedview10"
     showgrid="false"
     inkscape:zoom="4.9166667"
     inkscape:cx="24"
     inkscape:cy="24"
     inkscape:current-layer="svg8" />
  <path
     style="opacity:0.2"
     d="M 6,5 C 4.892,5 4,5.892 4,7 v 36 c 0,1.108 0.892,2 2,2 H 16 V 17 H 30 V 5 Z m 26,0 v 40 h 10 c 1.108,0 2,-0.892 2,-2 V 7 C 44,5.892 43.108,5 42,5 Z M 18,19 V 45 H 30 V 19 Z"
     id="path2" />
  <path
     style="fill:#4c566a;fill-opacity:1"
     d="M 6 4 C 4.892 4 4 4.892 4 6 L 4 42 C 4 43.108 4.892 44 6 44 L 16 44 L 16 16 L 30 16 L 30 4 L 6 4 z M 32 4 L 32 44 L 42 44 C 43.108 44 44 43.108 44 42 L 44 6 C 44 4.892 43.108 4 42 4 L 32 4 z M 18 18 L 18 44 L 30 44 L 30 18 L 18 18 z"
     id="path4" />
  <path
     style="opacity:0.2;fill:#ffffff"
     d="M 6 4 C 4.892 4 4 4.892 4 6 L 4 7 C 4 5.892 4.892 5 6 5 L 30 5 L 30 4 L 6 4 z M 32 4 L 32 5 L 42 5 C 43.108 5 44 5.892 44 7 L 44 6 C 44 4.892 43.108 4 42 4 L 32 4 z M 18 18 L 18 19 L 30 19 L 30 18 L 18 18 z"
     id="path6" />
</svg>
