<?xml version="1.0" encoding="UTF-8" standalone="no"?>
<svg
   xmlns:dc="http://purl.org/dc/elements/1.1/"
   xmlns:cc="http://creativecommons.org/ns#"
   xmlns:rdf="http://www.w3.org/1999/02/22-rdf-syntax-ns#"
   xmlns:svg="http://www.w3.org/2000/svg"
   xmlns="http://www.w3.org/2000/svg"
   xmlns:sodipodi="http://sodipodi.sourceforge.net/DTD/sodipodi-0.dtd"
   xmlns:inkscape="http://www.inkscape.org/namespaces/inkscape"
   height="48"
   width="48"
   version="1.1"
   id="svg12"
   sodipodi:docname="distributor-logo-archlabs.svg"
   inkscape:version="0.92.5 (2060ec1f9f, 2020-04-08)">
  <metadata
     id="metadata18">
    <rdf:RDF>
      <cc:Work
         rdf:about="">
        <dc:format>image/svg+xml</dc:format>
        <dc:type
           rdf:resource="http://purl.org/dc/dcmitype/StillImage" />
      </cc:Work>
    </rdf:RDF>
  </metadata>
  <defs
     id="defs16" />
  <sodipodi:namedview
     pagecolor="#ffffff"
     bordercolor="#666666"
     borderopacity="1"
     objecttolerance="10"
     gridtolerance="10"
     guidetolerance="10"
     inkscape:pageopacity="0"
     inkscape:pageshadow="2"
     inkscape:window-width="783"
     inkscape:window-height="480"
     id="namedview14"
     showgrid="false"
     inkscape:zoom="4.9166667"
     inkscape:cx="-1.1186441"
     inkscape:cy="24"
     inkscape:window-x="0"
     inkscape:window-y="28"
     inkscape:window-maximized="0"
     inkscape:current-layer="svg12" />
  <path
     style="opacity:.2"
     d="m24 5c-7 16-7 17-20 40 0 0 12-7 20-7s20 7 20 7c-13-23-13-24-20-40z"
     id="path2" />
  <path
     style="fill:#4c566a;fill-opacity:1"
     d="m24 4c-7 16-7 17-20 40 0 0 12-7 20-7s20 7 20 7c-13-23-13-24-20-40z"
     id="path4" />
  <path
     style="opacity:.1;fill:#ffffff"
     d="m24 4c-7 16-7 17-20 40 0 0 0.5808-0.314 0.8105-0.443 12.1075-21.468 12.3545-22.934 19.1895-38.557 6.835 15.623 7.082 17.089 19.189 38.557 0.23 0.129 0.811 0.443 0.811 0.443-13-23-13-24-20-40z"
     id="path6" />
  <path
     style="opacity:.2"
     d="m25 18s-6 4-6 9c0 2.281014 0.534169 4.663731 1.25 6.845703-0.152699-0.624071-0.25-1.24635-0.25-1.845703 0-3 3-5 3-5s3 2 3 5c0 2.349551-0.443901 4.458058-0.912109 6.054688 0.468225 0.03318 0.945402 0.0871 1.43164 0.158203 1.243529-2.246078 2.480469-5.228343 2.480469-8.212891 0-5-4-9-4-9z"
     id="path8" />
  <path
     style="fill:#ffffff"
     d="m25 17s-6 4-6 9c0 2.281014 0.534169 4.663731 1.25 6.845703-0.152699-0.624071-0.25-1.24635-0.25-1.845703 0-3 3-5 3-5s3 2 3 5c0 2.349551-0.443901 4.458058-0.912109 6.054688 0.468225 0.03318 0.945402 0.0871 1.43164 0.158203 1.243529-2.246078 2.480469-5.228343 2.480469-8.212891 0-5-4-9-4-9z"
     id="path10" />
</svg>
