<?xml version="1.0" encoding="UTF-8" standalone="no"?>
<svg
   xmlns:dc="http://purl.org/dc/elements/1.1/"
   xmlns:cc="http://creativecommons.org/ns#"
   xmlns:rdf="http://www.w3.org/1999/02/22-rdf-syntax-ns#"
   xmlns:svg="http://www.w3.org/2000/svg"
   xmlns="http://www.w3.org/2000/svg"
   xmlns:sodipodi="http://sodipodi.sourceforge.net/DTD/sodipodi-0.dtd"
   xmlns:inkscape="http://www.inkscape.org/namespaces/inkscape"
   width="48"
   height="48"
   version="1.1"
   id="svg12"
   sodipodi:docname="distributor-logo-fedora.svg"
   inkscape:version="0.92.5 (2060ec1f9f, 2020-04-08)">
  <metadata
     id="metadata18">
    <rdf:RDF>
      <cc:Work
         rdf:about="">
        <dc:format>image/svg+xml</dc:format>
        <dc:type
           rdf:resource="http://purl.org/dc/dcmitype/StillImage" />
      </cc:Work>
    </rdf:RDF>
  </metadata>
  <defs
     id="defs16" />
  <sodipodi:namedview
     pagecolor="#ffffff"
     bordercolor="#666666"
     borderopacity="1"
     objecttolerance="10"
     gridtolerance="10"
     guidetolerance="10"
     inkscape:pageopacity="0"
     inkscape:pageshadow="2"
     inkscape:window-width="640"
     inkscape:window-height="480"
     id="namedview14"
     showgrid="false"
     inkscape:zoom="4.9166667"
     inkscape:cx="24"
     inkscape:cy="24"
     inkscape:current-layer="svg12" />
  <path
     style="opacity:0.2"
     d="m 24.010559,5.0000003 c -11.044893,0 -19.9874861,8.9461897 -20.0070242,19.9910397 h -0.00353 v 15.475135 h 0.00353 C 4.0088355,42.971029 6.0413596,45 8.5480992,45 H 24.012513 C 35.059361,44.992931 44,36.047837 44,25.00896 44.000015,13.96411 35.047638,5.0179206 23.992975,5.0179206 Z"
     id="path2" />
  <path
     style="fill:#4c566a;fill-opacity:1"
     d="m 24.010559,4.0000003 c -11.044893,0 -19.9874861,8.9461897 -20.0070242,19.9910397 h -0.00353 v 15.475135 h 0.00353 C 4.0088355,41.971029 6.0413596,44 8.5480992,44 H 24.012513 C 35.059361,43.992931 44,35.047837 44,24.00896 44.000015,12.96411 35.047638,4.0179206 23.992975,4.0179206 Z"
     id="path4" />
  <path
     style="opacity:0.2"
     d="M 28.5,13 A 6.5,6.5 0 0 0 22,19.5 V 32 h -0.03516 A 3.5,3.5 0 0 1 18.5,35 3.5,3.5 0 0 1 15,31.5 3.5,3.5 0 0 1 18.5,28 H 20 V 24 H 18.5 A 7.5,7.5 0 0 0 18.462891,24 7.5,7.5 0 0 0 11,31.5 7.5,7.5 0 0 0 18.5,39 7.5,7.5 0 0 0 25.984375,32 H 26 V 31.537109 A 7.5,7.5 0 0 0 26,31.5 V 28 h 2 a 2,2 0 0 0 2,-2 2,2 0 0 0 -2,-2 H 26 V 19.5 A 2.5,2.5 0 0 1 28.5,17 2.5,2.5 0 0 1 31,19.5 V 20 a 2,2 0 0 0 2,2 2,2 0 0 0 2,-2 2,2 0 0 0 0,-0.04883 V 19 h -0.01953 A 6.5,6.5 0 0 0 28.5,13 Z"
     id="path6" />
  <path
     style="fill:#ffffff"
     d="M 28.5 12 A 6.5 6.5 0 0 0 22 18.5 L 22 31 L 21.964844 31 A 3.5 3.5 0 0 1 18.5 34 A 3.5 3.5 0 0 1 15 30.5 A 3.5 3.5 0 0 1 18.5 27 L 20 27 L 20 23 L 18.5 23 A 7.5 7.5 0 0 0 18.462891 23 A 7.5 7.5 0 0 0 11 30.5 A 7.5 7.5 0 0 0 18.5 38 A 7.5 7.5 0 0 0 25.984375 31 L 26 31 L 26 30.537109 A 7.5 7.5 0 0 0 26 30.5 L 26 27 L 28 27 A 2 2 0 0 0 30 25 A 2 2 0 0 0 28 23 L 26 23 L 26 18.5 A 2.5 2.5 0 0 1 28.5 16 A 2.5 2.5 0 0 1 31 18.5 L 31 19 A 2 2 0 0 0 33 21 A 2 2 0 0 0 35 19 A 2 2 0 0 0 35 18.951172 L 35 18 L 34.980469 18 A 6.5 6.5 0 0 0 28.5 12 z"
     id="path8" />
  <path
     style="fill:#ffffff;opacity:0.2"
     d="M 24.009766 4 C 12.964873 4 4.0234444 12.945384 4.0039062 23.990234 L 4 23.990234 L 4 24.990234 L 4.0039062 24.990234 C 4.0234444 13.945384 12.964873 5 24.009766 5 L 23.992188 5.0175781 C 34.879043 5.0175781 43.722185 13.696876 43.988281 24.509766 C 43.992393 24.342872 44 24.177652 44 24.009766 C 44.000015 12.964916 35.04685 4.0175781 23.992188 4.0175781 L 24.009766 4 z"
     id="path10" />
</svg>
