<?xml version="1.0" encoding="UTF-8" standalone="no"?>
<svg
   xmlns:dc="http://purl.org/dc/elements/1.1/"
   xmlns:cc="http://creativecommons.org/ns#"
   xmlns:rdf="http://www.w3.org/1999/02/22-rdf-syntax-ns#"
   xmlns:svg="http://www.w3.org/2000/svg"
   xmlns="http://www.w3.org/2000/svg"
   xmlns:sodipodi="http://sodipodi.sourceforge.net/DTD/sodipodi-0.dtd"
   xmlns:inkscape="http://www.inkscape.org/namespaces/inkscape"
   width="48"
   height="48"
   version="1.1"
   id="svg12"
   sodipodi:docname="rhel.svg"
   inkscape:version="0.92.5 (2060ec1f9f, 2020-04-08)">
  <metadata
     id="metadata18">
    <rdf:RDF>
      <cc:Work
         rdf:about="">
        <dc:format>image/svg+xml</dc:format>
        <dc:type
           rdf:resource="http://purl.org/dc/dcmitype/StillImage" />
      </cc:Work>
    </rdf:RDF>
  </metadata>
  <defs
     id="defs16" />
  <sodipodi:namedview
     pagecolor="#ffffff"
     bordercolor="#666666"
     borderopacity="1"
     objecttolerance="10"
     gridtolerance="10"
     guidetolerance="10"
     inkscape:pageopacity="0"
     inkscape:pageshadow="2"
     inkscape:window-width="765"
     inkscape:window-height="480"
     id="namedview14"
     showgrid="false"
     inkscape:zoom="4.9166667"
     inkscape:cx="-2.9491525"
     inkscape:cy="24"
     inkscape:window-x="0"
     inkscape:window-y="28"
     inkscape:window-maximized="0"
     inkscape:current-layer="svg12" />
  <path
     style="opacity:0.2"
     d="m 24.414062,8 c -1.331153,0 -1.726733,1.7121728 -3.345703,1.7121728 -1.547015,0 -2.699587,-1.2841297 -4.138671,-1.2841295 -1.403108,0 -2.300807,0.9264027 -2.984376,2.8529757 0,0 -1.943472,5.422695 -2.195312,6.207595 -0.03598,0.142707 -0.899251,1.962643 -0.863281,2.105352 C 7.0371671,19.772353 2,20.485508 2,24.873811 2,32.080618 19.232997,41 32.904297,41 43.373633,41 46,36.292084 46,32.617326 46,29.656114 43.444914,26.373968 38.839844,24.376042 L 38.335938,22.233889 36.609375,14.813828 C 36.213626,13.172674 35.890709,12.423393 32.976562,10.996302 30.745984,9.8546324 25.853148,8 24.414062,8 Z"
     id="path2" />
  <path
     style="fill:#4c566a;fill-opacity:1"
     d="m 24.414062,7 c -1.331153,0 -1.726733,1.7121728 -3.345703,1.7121728 -1.547015,0 -2.699587,-1.2841297 -4.138671,-1.2841295 -1.403108,0 -2.300807,0.9264027 -2.984376,2.8529757 0,0 -1.943472,5.422695 -2.195312,6.207595 -0.03598,0.142707 -0.899251,1.962643 -0.863281,2.105352 C 7.0371671,18.772353 2,19.485508 2,23.873811 2,31.080618 19.232997,40 32.904297,40 43.373633,40 46,35.292084 46,31.617326 46,28.656114 43.444914,25.373968 38.839844,23.376042 L 38.335938,21.233889 36.609375,13.813828 C 36.213626,12.172674 35.890709,11.423393 32.976562,9.996302 30.745984,8.8546324 25.853148,7 24.414062,7 Z"
     id="path4" />
  <path
     style="opacity:0.1"
     d="m 38.885977,24.624693 c 0.395748,1.906787 0.395748,2.086672 0.395748,2.338512 C 39.281725,30.201144 35.602617,32 30.817662,32 20.02453,32 10.426389,25.668029 10.426389,21.494685 c 0,-0.575634 0.107932,-1.151267 0.359772,-1.690924 l 0.86345,-2.086672 c -0.03598,0.143908 -0.07195,0.287817 -0.03598,0.431725 0,2.12265 8.48285,9.102208 19.743684,9.102208 2.878169,0 7.132911,-0.611611 7.132911,-4.029436 0,-0.25184 0,-0.539656 -0.07195,-0.791496 z"
     id="path6" />
  <path
     style="fill:#ffffff;opacity:0.2"
     d="M 24.414062 7 C 23.082909 7 22.687329 8.7128906 21.068359 8.7128906 C 19.521344 8.7128906 18.368772 7.4277342 16.929688 7.4277344 C 15.52658 7.4277344 14.628882 8.354677 13.945312 10.28125 C 13.945312 10.28125 12.00184 15.703381 11.75 16.488281 C 11.71402 16.630988 10.850749 18.451041 10.886719 18.59375 C 7.0371669 18.772137 2 19.484744 2 23.873047 C 2 24.036317 2.0196615 24.202283 2.0371094 24.367188 C 2.4194326 20.438086 7.1933515 19.764899 10.886719 19.59375 C 10.850749 19.451041 11.71402 17.630988 11.75 17.488281 C 12.00184 16.703381 13.945312 11.28125 13.945312 11.28125 C 14.628882 9.354677 15.52658 8.4277344 16.929688 8.4277344 C 18.368772 8.4277342 19.521344 9.7128906 21.068359 9.7128906 C 22.687329 9.7128906 23.082909 8 24.414062 8 C 25.853148 8 30.745984 9.8544241 32.976562 10.996094 C 35.890709 12.423185 36.213626 13.173299 36.609375 14.814453 L 38.335938 22.234375 L 38.839844 24.376953 C 43.207434 26.271848 45.727899 29.3204 45.976562 32.15625 C 45.98934 31.975039 46 31.794244 46 31.617188 C 46 28.655976 43.444914 25.374879 38.839844 23.376953 L 38.335938 21.234375 L 36.609375 13.814453 C 36.213626 12.173299 35.890709 11.423185 32.976562 9.9960938 C 30.745984 8.8544241 25.853148 7 24.414062 7 z"
     id="path8" />
  <path
     style="fill:#f4f4f4;fill-opacity:1"
     d="m 38.885977,23.624693 c 0.395748,1.906787 0.395748,2.086672 0.395748,2.338512 C 39.281725,29.201144 35.602617,31 30.817662,31 20.02453,31 10.426389,24.668029 10.426389,20.494685 c 0,-0.575634 0.107932,-1.151267 0.359772,-1.690924 l 0.86345,-2.086672 c -0.03598,0.143908 -0.07195,0.287817 -0.03598,0.431725 0,2.12265 8.48285,9.102208 19.743684,9.102208 2.878169,0 7.132911,-0.611611 7.132911,-4.029436 0,-0.25184 0,-0.539656 -0.07195,-0.791496 z"
     id="path10" />
</svg>
