<?xml version="1.0" encoding="UTF-8" standalone="no"?>
<svg
   xmlns:dc="http://purl.org/dc/elements/1.1/"
   xmlns:cc="http://creativecommons.org/ns#"
   xmlns:rdf="http://www.w3.org/1999/02/22-rdf-syntax-ns#"
   xmlns:svg="http://www.w3.org/2000/svg"
   xmlns="http://www.w3.org/2000/svg"
   xmlns:sodipodi="http://sodipodi.sourceforge.net/DTD/sodipodi-0.dtd"
   xmlns:inkscape="http://www.inkscape.org/namespaces/inkscape"
   width="48"
   height="48"
   version="1.1"
   id="svg36"
   sodipodi:docname="distributor-logo-ubuntu-studio.svg"
   inkscape:version="0.92.5 (2060ec1f9f, 2020-04-08)">
  <metadata
     id="metadata42">
    <rdf:RDF>
      <cc:Work
         rdf:about="">
        <dc:format>image/svg+xml</dc:format>
        <dc:type
           rdf:resource="http://purl.org/dc/dcmitype/StillImage" />
      </cc:Work>
    </rdf:RDF>
  </metadata>
  <defs
     id="defs40" />
  <sodipodi:namedview
     pagecolor="#ffffff"
     bordercolor="#666666"
     borderopacity="1"
     objecttolerance="10"
     gridtolerance="10"
     guidetolerance="10"
     inkscape:pageopacity="0"
     inkscape:pageshadow="2"
     inkscape:window-width="640"
     inkscape:window-height="480"
     id="namedview38"
     showgrid="false"
     inkscape:zoom="4.9166667"
     inkscape:cx="24"
     inkscape:cy="24"
     inkscape:current-layer="svg36" />
  <circle
     style="opacity:0.2"
     cx="24"
     cy="25"
     r="20"
     id="circle2" />
  <circle
     style="fill:#4c566a;fill-opacity:1"
     cx="24"
     cy="24"
     r="20"
     id="circle4" />
  <path
     style="opacity:0.2;fill:#ffffff"
     d="M 24 4 A 20 20 0 0 0 4 24 A 20 20 0 0 0 4.0215 24.582 A 20 20 0 0 1 24 5 A 20 20 0 0 1 43.979 24.418 A 20 20 0 0 0 44 24 A 20 20 0 0 0 24 4 z"
     id="path6" />
  <g
     style="opacity:0.2;fill:none;stroke:#000000;stroke-width:3;stroke-linecap:round"
     transform="translate(0,1)"
     id="g20">
    <circle
       cx="24"
       cy="24"
       r="4.5"
       id="circle8" />
    <path
       d="M 16.929,16.929 A 10,10 0 0 1 31.071,16.929 10,10 0 0 1 31.071,31.071 10,10 0 0 1 16.929,31.071"
       id="path10" />
    <path
       d="M 14.311,26.475 A 10,10 0 0 1 14.311,21.525"
       id="path12" />
    <path
       d="M 9.1614,28.48 A 15.5,15.5 0 0 1 9.1615,19.52"
       id="path14" />
    <path
       d="M 27.52,8.905 A 15.5,15.5 0 0 1 35.483,13.589"
       id="path16" />
    <path
       d="M 35.494,34.399 A 15.5,15.5 0 0 1 27.526,39.094"
       id="path18" />
  </g>
  <g
     style="fill:none;stroke:#ffffff;stroke-width:3;stroke-linecap:round"
     id="g34">
    <circle
       cx="24"
       cy="24"
       r="4.5"
       id="circle22" />
    <path
       d="M 16.929,16.929 A 10,10 0 0 1 27.827,14.761 10,10 0 0 1 34,24 10,10 0 0 1 27.827,33.239 10,10 0 0 1 16.929,31.071"
       id="path24" />
    <path
       d="M 14.311,26.475 A 10,10 0 0 1 14.311,21.525"
       id="path26" />
    <path
       d="M 9.1614,28.48 A 15.5,15.5 0 0 1 9.1615,19.52"
       id="path28" />
    <path
       d="M 27.52,8.905 A 15.5,15.5 0 0 1 35.483,13.589"
       id="path30" />
    <path
       d="M 35.494,34.399 A 15.5,15.5 0 0 1 27.526,39.094"
       id="path32" />
  </g>
</svg>
