<?xml version="1.0" encoding="UTF-8" standalone="no"?>
<svg
   xmlns:dc="http://purl.org/dc/elements/1.1/"
   xmlns:cc="http://creativecommons.org/ns#"
   xmlns:rdf="http://www.w3.org/1999/02/22-rdf-syntax-ns#"
   xmlns:svg="http://www.w3.org/2000/svg"
   xmlns="http://www.w3.org/2000/svg"
   xmlns:sodipodi="http://sodipodi.sourceforge.net/DTD/sodipodi-0.dtd"
   xmlns:inkscape="http://www.inkscape.org/namespaces/inkscape"
   width="48"
   height="48"
   version="1.1"
   id="svg14"
   sodipodi:docname="distributor-logo-devuan.svg"
   inkscape:version="0.92.5 (2060ec1f9f, 2020-04-08)">
  <metadata
     id="metadata20">
    <rdf:RDF>
      <cc:Work
         rdf:about="">
        <dc:format>image/svg+xml</dc:format>
        <dc:type
           rdf:resource="http://purl.org/dc/dcmitype/StillImage" />
      </cc:Work>
    </rdf:RDF>
  </metadata>
  <defs
     id="defs18" />
  <sodipodi:namedview
     pagecolor="#ffffff"
     bordercolor="#666666"
     borderopacity="1"
     objecttolerance="10"
     gridtolerance="10"
     guidetolerance="10"
     inkscape:pageopacity="0"
     inkscape:pageshadow="2"
     inkscape:window-width="640"
     inkscape:window-height="480"
     id="namedview16"
     showgrid="false"
     inkscape:zoom="4.9166667"
     inkscape:cx="24"
     inkscape:cy="24"
     inkscape:current-layer="svg14" />
  <circle
     cx="24"
     cy="25"
     r="20"
     style="opacity:.2"
     id="circle2" />
  <circle
     cx="24"
     cy="24"
     r="20"
     style="fill:#4c566a;fill-opacity:1"
     id="circle4" />
  <path
     d="M 24,4 A 20,20 0 0 0 4,24 20,20 0 0 0 4.0215,24.582 20,20 0 0 1 24,5 20,20 0 0 1 43.979,24.418 20,20 0 0 0 44,24 20,20 0 0 0 24,4 Z"
     style="fill:#ffffff;opacity:.1"
     id="path6" />
  <path
     d="m14 13c41.995324 10.02181 3 17.999999 3 17.999999-0.782653 0.125068-2.145272 0.703837-2.525345 1.323368-0.426959 0.695958-0.653818 1.674452-0.255112 2.335593 0.485156 0.804496 0.780457 0.916102 1.780457 1.341039h2s19.875471-6.41319 19.958369-12.441309c0.041632-3.027309-6.481696-8.056469-23.958369-10.55869z"
     style="opacity:.2"
     id="path8" />
  <g
     transform="matrix(.11960679 0 0 .11960679 -41.238919 -34.080105)"
     style="fill:#ffffff"
     id="g12">
    <path
       d="m461.83765 385.26329c351.11154 83.78964 25.08219 150.49312 25.08219 150.49312-6.54355 1.04566-17.93604 5.88459-21.11373 11.06432-3.56969 5.81872-5.46639 13.99964-2.13292 19.52726 4.05626 6.72618 6.52519 7.65928 14.88592 11.21207h16.72146s166.17343-53.61895 166.86652-104.01842c0.34807-25.31051-54.19171-67.35796-200.30944-88.27835z"
       style="fill:#ffffff"
       id="path10" />
  </g>
</svg>
