<?xml version="1.0" encoding="UTF-8" standalone="no"?>
<svg
   xmlns:dc="http://purl.org/dc/elements/1.1/"
   xmlns:cc="http://creativecommons.org/ns#"
   xmlns:rdf="http://www.w3.org/1999/02/22-rdf-syntax-ns#"
   xmlns:svg="http://www.w3.org/2000/svg"
   xmlns="http://www.w3.org/2000/svg"
   xmlns:sodipodi="http://sodipodi.sourceforge.net/DTD/sodipodi-0.dtd"
   xmlns:inkscape="http://www.inkscape.org/namespaces/inkscape"
   width="48"
   height="48"
   version="1"
   id="svg12"
   sodipodi:docname="rexloader.svg"
   inkscape:version="0.92.5 (2060ec1f9f, 2020-04-08)">
  <metadata
     id="metadata18">
    <rdf:RDF>
      <cc:Work
         rdf:about="">
        <dc:format>image/svg+xml</dc:format>
        <dc:type
           rdf:resource="http://purl.org/dc/dcmitype/StillImage" />
      </cc:Work>
    </rdf:RDF>
  </metadata>
  <defs
     id="defs16" />
  <sodipodi:namedview
     pagecolor="#ffffff"
     bordercolor="#666666"
     borderopacity="1"
     objecttolerance="10"
     gridtolerance="10"
     guidetolerance="10"
     inkscape:pageopacity="0"
     inkscape:pageshadow="2"
     inkscape:window-width="765"
     inkscape:window-height="480"
     id="namedview14"
     showgrid="false"
     inkscape:zoom="4.9166667"
     inkscape:cx="13.576528"
     inkscape:cy="25.830208"
     inkscape:window-x="0"
     inkscape:window-y="28"
     inkscape:window-maximized="0"
     inkscape:current-layer="svg12" />
  <path
     style="opacity:0.2;fill-rule:evenodd"
     d="M 5.5345836,27 C 5.3710971,26.999567 2.2660318,26.999058 5.3809578,29.783203 L 21.944244,44.183594 C 22.559329,44.718391 23.193843,44.989824 24,45 c 0.806157,-0.01018 1.440671,-0.281609 2.055756,-0.816406 L 42.619042,29.783203 C 45.733968,26.999058 42.628903,26.999567 42.465416,27 L 24,27 5.5345836,27 Z"
     id="path2" />
  <path
     style="fill:#4c566a;fill-opacity:1"
     d="m 13,4 c -0.831,0 -2,0.892 -2,2 l 0,21 13,0 13,0 0,-21 C 37,4.892 35.831,4 35,4 Z"
     id="path4" />
  <path
     style="fill:#4c566a;fill-rule:evenodd;fill-opacity:1"
     d="M 5.5345836,26 C 5.3710971,25.999567 2.2660318,25.999058 5.3809578,28.783203 L 21.944244,43.183594 C 22.559329,43.718391 23.193843,43.989824 24,44 c 0.806157,-0.01018 1.440671,-0.281609 2.055756,-0.816406 L 42.619042,28.783203 C 45.733968,25.999058 42.628903,25.999567 42.465416,26 L 24,26 5.5345836,26 Z"
     id="path6" />
  <path
     style="fill:#ffffff;opacity:0.1"
     d="M 13 4 C 12.169 4 11 4.892 11 6 L 11 7 C 11 5.892 12.169 5 13 5 L 35 5 C 35.831 5 37 5.892 37 7 L 37 6 C 37 4.892 35.831 4 35 4 L 13 4 z"
     id="path8" />
  <path
     style="opacity:0.2;fill:#ffffff;fill-rule:evenodd"
     d="M 5.5351562 26 C 5.4052175 25.999656 3.4262281 26.004636 4.1796875 27.402344 C 4.5633961 27.003491 5.4495992 26.999773 5.5351562 27 L 24 27 L 42.464844 27 C 42.550401 26.999773 43.436604 27.003491 43.820312 27.402344 C 44.573772 26.004636 42.594783 25.999656 42.464844 26 L 24 26 L 5.5351562 26 z"
     id="path10" />
</svg>
