<?xml version="1.0" encoding="UTF-8" standalone="no"?>
<svg
   xmlns:dc="http://purl.org/dc/elements/1.1/"
   xmlns:cc="http://creativecommons.org/ns#"
   xmlns:rdf="http://www.w3.org/1999/02/22-rdf-syntax-ns#"
   xmlns:svg="http://www.w3.org/2000/svg"
   xmlns="http://www.w3.org/2000/svg"
   xmlns:sodipodi="http://sodipodi.sourceforge.net/DTD/sodipodi-0.dtd"
   xmlns:inkscape="http://www.inkscape.org/namespaces/inkscape"
   width="48"
   height="48"
   version="1"
   id="svg16"
   sodipodi:docname="dropbox.svg"
   inkscape:version="0.92.5 (2060ec1f9f, 2020-04-08)">
  <metadata
     id="metadata22">
    <rdf:RDF>
      <cc:Work
         rdf:about="">
        <dc:format>image/svg+xml</dc:format>
        <dc:type
           rdf:resource="http://purl.org/dc/dcmitype/StillImage" />
      </cc:Work>
    </rdf:RDF>
  </metadata>
  <defs
     id="defs20" />
  <sodipodi:namedview
     pagecolor="#ffffff"
     bordercolor="#666666"
     borderopacity="1"
     objecttolerance="10"
     gridtolerance="10"
     guidetolerance="10"
     inkscape:pageopacity="0"
     inkscape:pageshadow="2"
     inkscape:window-width="783"
     inkscape:window-height="480"
     id="namedview18"
     showgrid="false"
     inkscape:zoom="6.9532167"
     inkscape:cx="24.581925"
     inkscape:cy="24.460151"
     inkscape:window-x="0"
     inkscape:window-y="28"
     inkscape:window-maximized="0"
     inkscape:current-layer="svg16" />
  <path
     style="opacity:0.2"
     d="m 24.011719,29.000039 a 1.7144571,1.600235 0 0 0 -0.785157,0.171883 l -6.639509,3.136084 -2.316964,-0.742221 A 1.7144571,1.600235 0 0 0 12,33.079917 l 0,4.320516 a 1.7144571,1.600235 0 0 0 0.806919,1.356313 l 10.285715,6.000282 a 1.7144571,1.600235 0 0 0 1.816406,0 L 35.194755,38.756746 A 1.7144571,1.600235 0 0 0 36,37.400433 l 0,-3.840805 a 1.7144571,1.600235 0 0 0 -2.626674,-1.354752 l -2.040737,1.198495 -6.35491,-4.117381 a 1.7144571,1.600235 0 0 0 -0.96596,-0.285951 z"
     id="path2" />
  <path
     style="fill:#4c566a;fill-opacity:1"
     d="m 24.011719,28.000039 a 1.7144571,1.600235 0 0 0 -0.785157,0.171883 l -6.639509,3.136084 -2.316964,-0.742221 A 1.7144571,1.600235 0 0 0 12,32.079917 l 0,4.320516 a 1.7144571,1.600235 0 0 0 0.806919,1.356313 l 10.285715,6.000282 a 1.7144571,1.600235 0 0 0 1.816406,0 L 35.194755,37.756746 A 1.7144571,1.600235 0 0 0 36,36.400433 l 0,-3.840805 a 1.7144571,1.600235 0 0 0 -2.626674,-1.354752 l -2.040737,1.198495 -6.35491,-4.117381 a 1.7144571,1.600235 0 0 0 -0.96596,-0.285951 z"
     id="path4" />
  <path
     style="opacity:0.2"
     d="M 16,8.0000003 4,15.5 12,22 4,28.5 16,36 24,29 32,36 44,28.5 36,22 44,15.5 32,8.0000003 24,15 16,8.0000003 Z"
     id="path6" />
  <path
     style="fill:#5f697d;fill-opacity:1"
     d="M 16 7 L 4 14.5 L 12 21 L 4 27.5 L 16 35 L 24 28 L 32 35 L 44 27.5 L 36 21 L 44 14.5 L 32 7 L 24 14 L 16 7 z"
     id="path8" />
  <path
     style="opacity:0.2"
     d="M 36,22 24,29 12,22 24,15 Z"
     id="path10" />
  <path
     style="fill:#ffffff"
     d="m36 21-12 7-12-7 12-7z"
     id="path12" />
  <path
     style="fill:#ffffff;opacity:0.2"
     d="M 16 7 L 4 14.5 L 4.6953125 15.064453 L 16 8 L 24 15 L 32 8 L 43.304688 15.064453 L 44 14.5 L 32 7 L 24 14 L 16 7 z M 11.384766 21.5 L 4 27.5 L 4.6953125 27.935547 L 12 22 L 11.384766 21.5 z M 36.615234 21.5 L 36 22 L 43.304688 27.935547 L 44 27.5 L 36.615234 21.5 z"
     id="path14" />
</svg>
