<?xml version="1.0" encoding="UTF-8" standalone="no"?>
<svg
   xmlns:dc="http://purl.org/dc/elements/1.1/"
   xmlns:cc="http://creativecommons.org/ns#"
   xmlns:rdf="http://www.w3.org/1999/02/22-rdf-syntax-ns#"
   xmlns:svg="http://www.w3.org/2000/svg"
   xmlns="http://www.w3.org/2000/svg"
   xmlns:sodipodi="http://sodipodi.sourceforge.net/DTD/sodipodi-0.dtd"
   xmlns:inkscape="http://www.inkscape.org/namespaces/inkscape"
   width="48"
   height="48"
   version="1.1"
   id="svg64"
   sodipodi:docname="appimagekit-duckstation-qt.svg"
   inkscape:version="0.92.5 (2060ec1f9f, 2020-04-08)">
  <metadata
     id="metadata70">
    <rdf:RDF>
      <cc:Work
         rdf:about="">
        <dc:format>image/svg+xml</dc:format>
        <dc:type
           rdf:resource="http://purl.org/dc/dcmitype/StillImage" />
      </cc:Work>
    </rdf:RDF>
  </metadata>
  <defs
     id="defs68" />
  <sodipodi:namedview
     pagecolor="#ffffff"
     bordercolor="#666666"
     borderopacity="1"
     objecttolerance="10"
     gridtolerance="10"
     guidetolerance="10"
     inkscape:pageopacity="0"
     inkscape:pageshadow="2"
     inkscape:window-width="954"
     inkscape:window-height="1026"
     id="namedview66"
     showgrid="false"
     inkscape:zoom="6.9532167"
     inkscape:cx="23.068652"
     inkscape:cy="15.361795"
     inkscape:window-x="0"
     inkscape:window-y="28"
     inkscape:window-maximized="0"
     inkscape:current-layer="svg64" />
  <path
     style="opacity:0.2;stroke-width:1.08498096"
     d="m 20.768132,12.17695 13.019772,7.516968 v 15.033938 l -13.019772,7.516967 -13.0197718,-7.516968 4e-7,-15.033937 z"
     id="path24"
     inkscape:connector-curvature="0" />
  <path
     style="fill:#4c566a;fill-opacity:1;stroke-width:1.08498096"
     d="m 20.768132,11.091969 13.019772,7.516968 v 15.033938 l -13.019772,7.516967 -13.0197718,-7.516968 4e-7,-15.033937 z"
     id="path26"
     inkscape:connector-curvature="0" />
  <path
     style="fill:#5f697d;fill-opacity:1;stroke-width:1.08498096"
     d="M 7.7483602,18.608078 V 33.643116 L 20.768132,41.159577 V 26.126656 Z"
     id="path28"
     inkscape:connector-curvature="0" />
  <path
     style="opacity:0.2;stroke-width:1.08498096"
     d="m 28.362999,6.6075289 10.849809,6.2641411 -1e-6,12.52828 -10.849808,6.26414 -10.84981,-6.264141 1e-6,-12.52828 z"
     id="path30"
     inkscape:connector-curvature="0" />
  <path
     style="fill:#4c566a;fill-opacity:1;stroke-width:1.08498096"
     d="M 20.768132,11.091616 7.7483602,18.608078 20.768132,26.126656 33.787904,18.608078 Z"
     id="path32"
     inkscape:connector-curvature="0" />
  <path
     style="opacity:0.2;stroke-width:1.08498096"
     d="m 12.088284,7.1840927 4.339924,2.5056563 v 5.011313 l -4.339924,2.505656 -4.3399238,-2.505656 1e-7,-5.0113132 z"
     id="path34"
     inkscape:connector-curvature="0" />
  <path
     style="fill:#4c566a;fill-opacity:1;stroke-width:1.08498096"
     d="m 12.088284,6.0991956 4.339924,2.5056562 v 5.0113122 l -4.339924,2.505656 -4.3399238,-2.505656 1e-7,-5.0113124 z"
     id="path36"
     inkscape:connector-curvature="0" />
  <path
     style="fill:#4c566a;fill-opacity:1;stroke-width:1.08498096"
     d="m 28.362999,5.5220679 10.849809,6.2641401 -1e-6,12.528281 -10.849808,6.264139 -10.84981,-6.264139 1e-6,-12.528282 z"
     id="path38"
     inkscape:connector-curvature="0" />
  <path
     style="opacity:0.2;stroke-width:1.08498096"
     d="m 37.042846,25.584941 -6.509885,1.084981 v 2.169962 l 6.509885,3.254942 6.509886,-3.254942 v -2.169962 z"
     id="path40"
     inkscape:connector-curvature="0" />
  <path
     style="fill:#ffffff;fill-opacity:1;stroke-width:0.97043645"
     d="m 37.042854,24.499959 v 6.509885 l -6.509887,-3.254943 -9e-6,-2.169961 z"
     id="path42"
     inkscape:connector-curvature="0" />
  <path
     style="fill:#f0f0f0;fill-opacity:1;stroke-width:1.08498096"
     d="m 37.042854,24.499959 v 6.509885 l 6.509886,-3.254943 1e-5,-2.169961 z"
     id="path44"
     inkscape:connector-curvature="0" />
  <rect
     style="fill:#f0f0f0;fill-opacity:1;stroke-width:1.08498096"
     width="7.2780523"
     height="7.2780523"
     x="45.675186"
     y="4.2613153"
     transform="matrix(0.89442719,0.44721359,-0.89442719,0.44721359,0,0)"
     id="rect46" />
  <path
     style="fill:#ffffff;fill-opacity:1;stroke-width:1.08498096"
     d="m 30.532961,21.028021 2.169962,-1.301978 v 2.929449 l -2.169962,1.301977 z"
     id="path48"
     inkscape:connector-curvature="0" />
  <path
     style="fill:#5f697d;fill-opacity:1;stroke-width:1.08498096"
     d="m 17.513189,11.785339 v 12.52814 l 10.84981,6.266189 V 18.049409 Z"
     id="path50"
     inkscape:connector-curvature="0" />
  <path
     style="fill:#4c566a;fill-opacity:1;stroke-width:1.08498096"
     d="m 28.362999,5.5212691 -10.84981,6.2640699 10.84981,6.26407 10.849809,-6.26407 z"
     id="path52"
     inkscape:connector-curvature="0" />
  <path
     style="fill:#ffffff;fill-opacity:1;stroke-width:1.08498096"
     d="m 34.872884,18.590068 2.169962,-1.301977 v 2.929449 l -2.169962,1.301977 z"
     id="path54"
     inkscape:connector-curvature="0" />
  <path
     style="fill:#5f697d;fill-opacity:1;stroke-width:1.08498096"
     d="m 7.7483602,8.6045646 v 5.0116794 l 4.3399238,2.504781 c 0,7.95e-4 0,-5.009561 0,-5.009561 z"
     id="path56"
     inkscape:connector-curvature="0" />
  <path
     style="fill:#4c566a;fill-opacity:1;stroke-width:1.08498096"
     d="M 12.088284,6.0997843 7.7483602,8.6045646 12.088284,11.111464 16.428208,8.6045646 Z"
     id="path58"
     inkscape:connector-curvature="0" />
  <path
     style="opacity:0.2;fill:#ffffff;stroke-width:1.08498096"
     d="m 28.362999,5.5212691 -10.84981,6.2640699 0.938763,0.54249 9.911047,-5.7215789 9.911047,5.7215789 0.938762,-0.54249 z"
     id="path60"
     inkscape:connector-curvature="0" />
  <path
     style="opacity:0.2;fill:#ffffff;stroke-width:1.08498096"
     d="M 12.088284,6.0997843 7.7483602,8.6045646 8.6871226,9.1470551 12.088284,7.1847653 15.489446,9.1470551 16.428208,8.6045646 Z"
     id="path62"
     inkscape:connector-curvature="0" />
</svg>
