<?xml version="1.0" encoding="UTF-8" standalone="no"?>
<svg
   xmlns:dc="http://purl.org/dc/elements/1.1/"
   xmlns:cc="http://creativecommons.org/ns#"
   xmlns:rdf="http://www.w3.org/1999/02/22-rdf-syntax-ns#"
   xmlns:svg="http://www.w3.org/2000/svg"
   xmlns="http://www.w3.org/2000/svg"
   xmlns:sodipodi="http://sodipodi.sourceforge.net/DTD/sodipodi-0.dtd"
   xmlns:inkscape="http://www.inkscape.org/namespaces/inkscape"
   width="48"
   height="48"
   version="1"
   id="svg22"
   sodipodi:docname="org.eclipse.Committers.svg"
   inkscape:version="0.92.5 (2060ec1f9f, 2020-04-08)">
  <metadata
     id="metadata28">
    <rdf:RDF>
      <cc:Work
         rdf:about="">
        <dc:format>image/svg+xml</dc:format>
        <dc:type
           rdf:resource="http://purl.org/dc/dcmitype/StillImage" />
      </cc:Work>
    </rdf:RDF>
  </metadata>
  <defs
     id="defs26" />
  <sodipodi:namedview
     pagecolor="#ffffff"
     bordercolor="#666666"
     borderopacity="1"
     objecttolerance="10"
     gridtolerance="10"
     guidetolerance="10"
     inkscape:pageopacity="0"
     inkscape:pageshadow="2"
     inkscape:window-width="765"
     inkscape:window-height="480"
     id="namedview24"
     showgrid="false"
     inkscape:zoom="6.9532167"
     inkscape:cx="21.470478"
     inkscape:cy="26.064862"
     inkscape:window-x="0"
     inkscape:window-y="28"
     inkscape:window-maximized="0"
     inkscape:current-layer="svg22" />
  <rect
     style="fill:#414b5f;fill-opacity:1"
     width="40"
     height="40"
     x="-44"
     y="-42"
     rx="20"
     ry="20"
     transform="matrix(0,-1,-1,0,0,0)"
     id="rect2" />
  <path
     style="opacity:0.1;fill:#ffffff"
     d="M 22.000283,4 C 10.921234,4 2.0019998,12.92 2.0019998,24 c 0,0.16772 -0.004,0.33329 0,0.5 C 2.2661771,13.654 11.08822,5 22.000283,5 c 10.911063,0 19.734305,8.6536 19.998283,19.5 0.004,-0.16671 0,-0.33228 0,-0.5 0,-11.08 -8.919234,-20 -19.998283,-20 z"
     id="path4" />
  <path
     style="opacity:0.2"
     d="M 2.011718,24.5 C 2.0076483,24.66686 2,24.83213 2,25 c 0,11.08 8.919234,20 19.998283,20 11.079049,0 19.998283,-8.92 19.998283,-20 0,-0.16787 -0.0076,-0.33314 -0.01172,-0.5 C 41.71987,35.346 32.909626,44 21.998563,44 11.0875,44 2.2762563,35.346 2.0122789,24.5 Z"
     id="path6" />
  <rect
     style="fill:#4c566a;fill-opacity:1"
     width="40"
     height="40"
     x="-44"
     y="-46"
     rx="20"
     ry="20"
     transform="matrix(0,-1,-1,0,0,0)"
     id="rect8" />
  <path
     style="opacity:0.2"
     d="M 12.341797 28 A 13.998798 14 0 0 0 25.998047 39 A 13.998798 14 0 0 0 39.660156 28 L 12.341797 28 z"
     id="path10" />
  <path
     style="opacity:0.1;fill:#ffffff"
     d="M 25.999939,4 C 14.920891,4 6.0016564,12.92 6.0016564,24 c 0,0.16772 -0.004,0.33329 0,0.5 C 6.2658337,13.654 15.087876,5 25.999939,5 c 10.911064,0 19.734306,8.6536 19.998283,19.5 0.004,-0.16671 0,-0.33228 0,-0.5 0,-11.08 -8.919234,-20 -19.998283,-20 z"
     id="path12" />
  <path
     style="opacity:0.2"
     d="M 25.998162,45 C 14.920098,45 6.0016562,36.08 6.0016562,25 c 0,-0.16772 -0.004,-0.33329 0,-0.5 C 6.26605,35.346 15.087768,44 25.998162,44 c 10.910393,0 19.732551,-8.6536 19.996506,-19.5 0.004,0.16671 0,0.33228 0,0.5 0,11.08 -8.918443,20 -19.996506,20 z"
     id="path14" />
  <path
     style="fill:#4c566a;fill-opacity:1"
     d="M 12.595703 28 A 13.998798 14 0 0 0 25.998047 38 A 13.998798 14 0 0 0 39.40625 28 L 12.595703 28 z"
     id="path16" />
  <path
     style="opacity:0.2"
     d="M 7.2749377,18 C 6.914129,18.969747 6.6046111,19.964769 6.396107,21 H 45.599773 C 45.391268,19.964769 45.08175,18.969747 44.720941,18 Z m -1.1756803,5 c -0.064724,0.657678 -0.099601,1.324747 -0.099601,2 0,0.335764 0.0092,0.668391 0.025389,1 H 45.970834 c 0.01619,-0.331609 0.02539,-0.664236 0.02539,-1 0,-0.675253 -0.03488,-1.342322 -0.0996,-2 z m 0.1230363,5 c 0.1533603,1.028276 0.3847872,2.029968 0.687441,3 H 45.086145 c 0.302653,-0.970032 0.53408,-1.971724 0.687441,-3 z"
     id="path18" />
  <path
     style="fill:#ffffff"
     d="M 7.2749377,17 C 6.914129,17.969747 6.6046111,18.964769 6.396107,20 H 45.599773 C 45.391268,18.964769 45.08175,17.969747 44.720941,17 Z m -1.1756803,5 c -0.064724,0.657678 -0.099601,1.324747 -0.099601,2 0,0.335764 0.0092,0.668391 0.025388,1 H 45.970833 c 0.01619,-0.331609 0.02539,-0.664236 0.02539,-1 0,-0.675253 -0.03488,-1.342322 -0.0996,-2 z m 0.1230363,5 c 0.1533603,1.028276 0.3847872,2.029968 0.687441,3 H 45.086145 c 0.302653,-0.970032 0.53408,-1.971724 0.687441,-3 z"
     id="path20" />
</svg>
