<?xml version="1.0" encoding="UTF-8" standalone="no"?>
<svg
   xmlns:dc="http://purl.org/dc/elements/1.1/"
   xmlns:cc="http://creativecommons.org/ns#"
   xmlns:rdf="http://www.w3.org/1999/02/22-rdf-syntax-ns#"
   xmlns:svg="http://www.w3.org/2000/svg"
   xmlns="http://www.w3.org/2000/svg"
   xmlns:sodipodi="http://sodipodi.sourceforge.net/DTD/sodipodi-0.dtd"
   xmlns:inkscape="http://www.inkscape.org/namespaces/inkscape"
   width="48"
   height="48"
   version="1.1"
   id="svg16"
   sodipodi:docname="appimagekit-edex-ui.svg"
   inkscape:version="0.92.5 (2060ec1f9f, 2020-04-08)">
  <metadata
     id="metadata22">
    <rdf:RDF>
      <cc:Work
         rdf:about="">
        <dc:format>image/svg+xml</dc:format>
        <dc:type
           rdf:resource="http://purl.org/dc/dcmitype/StillImage" />
      </cc:Work>
    </rdf:RDF>
  </metadata>
  <defs
     id="defs20" />
  <sodipodi:namedview
     pagecolor="#ffffff"
     bordercolor="#666666"
     borderopacity="1"
     objecttolerance="10"
     gridtolerance="10"
     guidetolerance="10"
     inkscape:pageopacity="0"
     inkscape:pageshadow="2"
     inkscape:window-width="640"
     inkscape:window-height="480"
     id="namedview18"
     showgrid="false"
     inkscape:zoom="4.9166667"
     inkscape:cx="24"
     inkscape:cy="24"
     inkscape:current-layer="svg16" />
  <path
     style="opacity:0.2"
     d="M 24,5 A 20,20 0 0 0 4,25 20,20 0 0 0 24,45 20,20 0 0 0 44,25 20,20 0 0 0 24,5 Z"
     id="path2" />
  <path
     style="fill:#4c566a;fill-opacity:1"
     d="m24 4a20 20 0 0 0 -20 20 20 20 0 0 0 20 20 20 20 0 0 0 20 -20 20 20 0 0 0 -20 -20z"
     id="path4" />
  <path
     fill="#ffffff"
     style="opacity:0.1"
     d="m24 4a20 20 0 0 0 -19.859 17.852 20 19 0 0 1 19.859 -16.852 20 19 0 0 1 19.922 17.447 20 20 0 0 0 -19.922 -18.447zm19.922 18.447a20 20 0 0 1 0.078 1.553 20 19 0 0 0 -0.078 -1.553zm-39.781-0.595a20 19 0 0 0 -0.0488 0.392 20 20 0 0 1 0.0488 -0.392zm-0.0488 0.392a20 20 0 0 0 -0.0918 1.756 20 19 0 0 1 0.0918 -1.756z"
     id="path6" />
  <path
     style="opacity:0.2;fill:none;stroke:#000000;stroke-width:3"
     d="m 28.5,27 2e-6,1.5 -2,2 h -5 l -2,-2 v -8 l 2,-2 h 5 l 2,2 0.04334,4 h -8.186726"
     id="path8" />
  <path
     style="fill:none;stroke:#eaeaeb;stroke-width:3"
     d="m 28.5,26 2e-6,1.5 -2,2 h -5 l -2,-2 v -8 l 2,-2 h 5 l 2,2 0.04334,4 h -8.186726"
     id="path10" />
  <path
     style="opacity:0.2;fill:none;stroke:#000000;stroke-width:2"
     d="M 13,14 V 36 H 35 V 14 Z"
     id="path12" />
  <path
     style="fill:none;stroke:#eaeaeb;stroke-width:2"
     d="M 13,13 V 35 H 35 V 13 Z"
     id="path14" />
</svg>
