<?xml version="1.0" encoding="UTF-8" standalone="no"?>
<svg
   xmlns:dc="http://purl.org/dc/elements/1.1/"
   xmlns:cc="http://creativecommons.org/ns#"
   xmlns:rdf="http://www.w3.org/1999/02/22-rdf-syntax-ns#"
   xmlns:svg="http://www.w3.org/2000/svg"
   xmlns="http://www.w3.org/2000/svg"
   xmlns:sodipodi="http://sodipodi.sourceforge.net/DTD/sodipodi-0.dtd"
   xmlns:inkscape="http://www.inkscape.org/namespaces/inkscape"
   width="48"
   height="48"
   version="1"
   id="svg12"
   sodipodi:docname="eiskaltdcpp.svg"
   inkscape:version="0.92.5 (2060ec1f9f, 2020-04-08)">
  <metadata
     id="metadata18">
    <rdf:RDF>
      <cc:Work
         rdf:about="">
        <dc:format>image/svg+xml</dc:format>
        <dc:type
           rdf:resource="http://purl.org/dc/dcmitype/StillImage" />
      </cc:Work>
    </rdf:RDF>
  </metadata>
  <defs
     id="defs16" />
  <sodipodi:namedview
     pagecolor="#ffffff"
     bordercolor="#666666"
     borderopacity="1"
     objecttolerance="10"
     gridtolerance="10"
     guidetolerance="10"
     inkscape:pageopacity="0"
     inkscape:pageshadow="2"
     inkscape:window-width="783"
     inkscape:window-height="480"
     id="namedview14"
     showgrid="false"
     inkscape:zoom="4.9166667"
     inkscape:cx="-1.1186441"
     inkscape:cy="24"
     inkscape:window-x="0"
     inkscape:window-y="28"
     inkscape:window-maximized="0"
     inkscape:current-layer="svg12" />
  <rect
     fill="#d53068"
     width="40"
     height="40"
     x="4"
     y="4"
     rx="20"
     ry="20"
     id="rect2"
     style="fill:#4c566a;fill-opacity:1" />
  <path
     opacity=".2"
     d="m28.811 14.076a4 4 0 0 0 -3.2754 1.9961 4 4 0 0 0 -0.38672 3.0684l-5.2949 3.0586a4 4 0 0 0 -2.854 -1.199 4 4 0 0 0 -4 4 4 4 0 0 0 4 4 4 4 0 0 0 2.8516 -1.1992l5.2949 3.0586a4 4 0 0 0 0.388 3.068 4 4 0 0 0 5.465 1.465 4 4 0 0 0 1.465 -5.465 4 4 0 0 0 -5.465 -1.463 4 4 0 0 0 -0.854 0.662l-5.296-3.057a4 4 0 0 0 0.15 -1.07 4 4 0 0 0 -0.146 -1.07l5.2949-3.0566a4 4 0 0 0 0.851 0.662 4 4 0 0 0 5.465 -1.463 4 4 0 0 0 -1.465 -5.465 4 4 0 0 0 -2.189 -0.531z"
     id="path4" />
  <path
     fill="#fff"
     d="m28.811 13.076a4 4 0 0 0 -3.2754 1.9961 4 4 0 0 0 -0.38672 3.0684l-5.2949 3.0586a4 4 0 0 0 -2.854 -1.199 4 4 0 0 0 -4 4 4 4 0 0 0 4 4 4 4 0 0 0 2.8516 -1.1992l5.2949 3.0586a4 4 0 0 0 0.388 3.068 4 4 0 0 0 5.465 1.465 4 4 0 0 0 1.465 -5.465 4 4 0 0 0 -5.465 -1.463 4 4 0 0 0 -0.854 0.662l-5.296-3.057a4 4 0 0 0 0.15 -1.07 4 4 0 0 0 -0.146 -1.07l5.2949-3.0566a4 4 0 0 0 0.851 0.662 4 4 0 0 0 5.465 -1.463 4 4 0 0 0 -1.465 -5.465 4 4 0 0 0 -2.189 -0.531z"
     id="path6" />
  <path
     fill="#fff"
     opacity=".2"
     d="m24 4c-11.08 0-20 8.92-20 20 0 0.168 0.008 0.333 0.0117 0.5 0.2647-10.846 9.0763-19.5 19.988-19.5s19.724 8.6539 19.988 19.5c0.004-0.16686 0.0117-0.33213 0.0117-0.5 0-11.08-8.92-20-20-20z"
     id="path8" />
  <path
     opacity=".2"
     d="m4.0117 24.5c-0.0041 0.167-0.0117 0.332-0.0117 0.5 0 11.08 8.92 20 20 20s20-8.92 20-20c0-0.168-0.008-0.333-0.012-0.5-0.264 10.846-9.076 19.5-19.988 19.5s-19.724-8.654-19.988-19.5z"
     id="path10" />
</svg>
