<?xml version="1.0" encoding="UTF-8" standalone="no"?>
<svg
   xmlns:dc="http://purl.org/dc/elements/1.1/"
   xmlns:cc="http://creativecommons.org/ns#"
   xmlns:rdf="http://www.w3.org/1999/02/22-rdf-syntax-ns#"
   xmlns:svg="http://www.w3.org/2000/svg"
   xmlns="http://www.w3.org/2000/svg"
   xmlns:sodipodi="http://sodipodi.sourceforge.net/DTD/sodipodi-0.dtd"
   xmlns:inkscape="http://www.inkscape.org/namespaces/inkscape"
   width="48"
   height="48"
   version="1"
   id="svg16"
   sodipodi:docname="appimagekit-electrum-axe.svg"
   inkscape:version="0.92.5 (2060ec1f9f, 2020-04-08)">
  <metadata
     id="metadata22">
    <rdf:RDF>
      <cc:Work
         rdf:about="">
        <dc:format>image/svg+xml</dc:format>
        <dc:type
           rdf:resource="http://purl.org/dc/dcmitype/StillImage" />
      </cc:Work>
    </rdf:RDF>
  </metadata>
  <defs
     id="defs20" />
  <sodipodi:namedview
     pagecolor="#ffffff"
     bordercolor="#666666"
     borderopacity="1"
     objecttolerance="10"
     gridtolerance="10"
     guidetolerance="10"
     inkscape:pageopacity="0"
     inkscape:pageshadow="2"
     inkscape:window-width="640"
     inkscape:window-height="480"
     id="namedview18"
     showgrid="false"
     inkscape:zoom="4.9166667"
     inkscape:cx="-15.661017"
     inkscape:cy="24"
     inkscape:current-layer="svg16" />
  <rect
     style="opacity:0.2"
     width="13.998"
     height="46.661"
     x="-6.29"
     y="-57.98"
     rx="3.5"
     ry="3.5"
     transform="rotate(135)"
     id="rect2" />
  <rect
     style="fill:#4c566a;fill-opacity:1"
     width="13.998"
     height="46.661"
     x="-7"
     y="-57.27"
     rx="3.5"
     ry="3.5"
     transform="rotate(135)"
     id="rect4" />
  <rect
     style="opacity:0.2"
     width="13.998"
     height="46.661"
     x="27.65"
     y="-22.62"
     rx="3.5"
     ry="3.5"
     transform="rotate(45)"
     id="rect6" />
  <rect
     style="fill:#4c566a;fill-opacity:1"
     width="13.998"
     height="46.661"
     x="26.94"
     y="-23.33"
     rx="3.5"
     ry="3.5"
     transform="rotate(45)"
     id="rect8" />
  <path
     style="fill:#ffffff;fill-opacity:1"
     d="M 12.451172 4 C 12.309267 4 12.168415 4.0238029 12.027344 4.0410156 L 24 22 L 35.972656 4.0390625 C 35.831606 4.0218194 35.690712 4 35.548828 4 C 34.654253 4 33.759678 4.341884 33.074219 5.0273438 L 24 14.101562 L 14.925781 5.0273438 C 14.240322 4.341884 13.345734 4 12.451172 4 z"
     id="path10" />
  <path
     style="fill:#f9f9f9;fill-opacity:1"
     d="M 24 26 L 12.027344 43.960938 C 12.168394 43.978181 12.309288 44 12.451172 44 C 13.345747 44 14.240322 43.658116 14.925781 42.972656 L 24 33.898438 L 33.074219 42.972656 C 33.759678 43.658116 34.654253 44 35.548828 44 C 35.690712 44 35.831606 43.978181 35.972656 43.960938 L 24 26 z"
     id="path12" />
  <path
     style="opacity:0.1;fill:#ffffff"
     d="M 12.451172 4 C 11.55661 4 10.662022 4.341884 9.9765625 5.0273438 L 5.0273438 9.9765625 C 4.2136087 10.790298 3.8945945 11.897882 4.046875 12.951172 C 4.1511452 12.229958 4.4701593 11.533747 5.0273438 10.976562 L 9.9765625 6.0273438 C 10.662022 5.3418839 11.55661 5 12.451172 5 C 13.345734 5 14.240322 5.3418839 14.925781 6.0273438 L 24 15.101562 L 33.074219 6.0273438 C 34.445138 4.6564242 36.652518 4.6564242 38.023438 6.0273438 L 42.972656 10.976562 C 43.529841 11.533747 43.848855 12.229958 43.953125 12.951172 C 44.105406 11.897882 43.786392 10.790298 42.972656 9.9765625 L 38.023438 5.0273438 C 36.652518 3.6564242 34.445138 3.6564243 33.074219 5.0273438 L 24 14.101562 L 14.925781 5.0273438 C 14.240322 4.341884 13.345734 4 12.451172 4 z M 13.601562 24.5 L 5.0273438 33.074219 C 4.2136087 33.887954 3.8945945 34.995538 4.046875 36.048828 C 4.1511452 35.327615 4.4701593 34.631403 5.0273438 34.074219 L 14.101562 25 L 13.601562 24.5 z M 34.398438 24.5 L 33.898438 25 L 42.972656 34.074219 C 43.529841 34.631403 43.848855 35.327615 43.953125 36.048828 C 44.105406 34.995538 43.786392 33.887954 42.972656 33.074219 L 34.398438 24.5 z"
     id="path14" />
</svg>
