<?xml version="1.0" encoding="UTF-8" standalone="no"?>
<svg
   xmlns:dc="http://purl.org/dc/elements/1.1/"
   xmlns:cc="http://creativecommons.org/ns#"
   xmlns:rdf="http://www.w3.org/1999/02/22-rdf-syntax-ns#"
   xmlns:svg="http://www.w3.org/2000/svg"
   xmlns="http://www.w3.org/2000/svg"
   xmlns:sodipodi="http://sodipodi.sourceforge.net/DTD/sodipodi-0.dtd"
   xmlns:inkscape="http://www.inkscape.org/namespaces/inkscape"
   width="48"
   height="48"
   version="1"
   id="svg12"
   sodipodi:docname="element-desktop-nightly.svg"
   inkscape:version="0.92.5 (2060ec1f9f, 2020-04-08)">
  <metadata
     id="metadata18">
    <rdf:RDF>
      <cc:Work
         rdf:about="">
        <dc:format>image/svg+xml</dc:format>
        <dc:type
           rdf:resource="http://purl.org/dc/dcmitype/StillImage" />
      </cc:Work>
    </rdf:RDF>
  </metadata>
  <defs
     id="defs16" />
  <sodipodi:namedview
     pagecolor="#ffffff"
     bordercolor="#666666"
     borderopacity="1"
     objecttolerance="10"
     gridtolerance="10"
     guidetolerance="10"
     inkscape:pageopacity="0"
     inkscape:pageshadow="2"
     inkscape:window-width="783"
     inkscape:window-height="480"
     id="namedview14"
     showgrid="false"
     inkscape:zoom="4.9166667"
     inkscape:cx="24"
     inkscape:cy="24"
     inkscape:window-x="0"
     inkscape:window-y="28"
     inkscape:window-maximized="0"
     inkscape:current-layer="svg12" />
  <rect
     style="opacity:0.2"
     width="40"
     height="40"
     x="4"
     y="5"
     rx="12"
     ry="12"
     id="rect2" />
  <rect
     style="fill:#4c566a;fill-opacity:1"
     width="40"
     height="40"
     x="4"
     y="4"
     rx="12"
     ry="12"
     id="rect4" />
  <path
     style="fill:#ffffff;opacity:0.1"
     d="M 16 4 C 9.352 4 4 9.352 4 16 L 4 17 C 4 10.352 9.352 5 16 5 L 32 5 C 38.648 5 44 10.352 44 17 L 44 16 C 44 9.352 38.648 4 32 4 L 16 4 z"
     id="path6" />
  <path
     style="opacity:0.2"
     d="m 21.760091,11 c -0.927827,0 -1.679362,0.751524 -1.679362,1.679362 0,0.927838 0.751535,1.681641 1.679362,1.681641 4.329966,0 7.84082,3.508633 7.84082,7.838541 0,0.92785 0.751512,1.679362 1.679362,1.679362 0.92785,0 1.679363,-0.751512 1.679363,-1.679362 C 32.959636,16.013959 27.945641,11 21.760091,11 Z m -0.560547,5.040364 c -6.185585,1.2e-5 -11.1995444,5.013936 -11.1995442,11.199545 0,0.92785 0.7515232,1.679362 1.6793622,1.679362 0.927838,0 1.68164,-0.751512 1.68164,-1.679362 0,-4.329966 3.508633,-7.840821 7.838542,-7.840821 0.92785,0 1.679362,-0.751523 1.679362,-1.679362 0,-0.927838 -0.751512,-1.679362 -1.679362,-1.679362 z m 15.121094,5.040365 c -0.92785,0 -1.681641,0.751536 -1.681641,1.679362 0,4.329967 -3.508574,7.84082 -7.838541,7.84082 -0.92785,0 -1.679362,0.751512 -1.679362,1.679362 0,0.92785 0.751512,1.679363 1.679362,1.679363 C 32.986006,33.959636 38,28.945641 38,22.760091 38,21.832265 37.248488,21.080729 36.320638,21.080729 Z m -19.600912,5.040366 c -0.927839,0 -1.679362,0.751511 -1.679362,1.679361 0,6.18555 5.013935,11.199544 11.199545,11.199544 0.92785,0 1.679362,-0.751512 1.679362,-1.679362 0,-0.92785 -0.751512,-1.68164 -1.679362,-1.68164 -4.329967,0 -7.840821,-3.508575 -7.840821,-7.838542 0,-0.92785 -0.751524,-1.679361 -1.679362,-1.679361 z"
     id="path8" />
  <path
     style="fill:#ffffff"
     d="m 21.760091,10 c -0.927827,0 -1.679362,0.751524 -1.679362,1.679362 0,0.927838 0.751535,1.681641 1.679362,1.681641 4.329966,0 7.84082,3.508633 7.84082,7.838541 0,0.92785 0.751512,1.679362 1.679362,1.679362 0.92785,0 1.679363,-0.751512 1.679363,-1.679362 C 32.959636,15.013959 27.945641,10 21.760091,10 Z m -0.560547,5.040364 c -6.185585,1.2e-5 -11.1995444,5.013936 -11.1995442,11.199545 0,0.92785 0.7515232,1.679362 1.6793622,1.679362 0.927838,0 1.68164,-0.751512 1.68164,-1.679362 0,-4.329966 3.508633,-7.840821 7.838542,-7.840821 0.92785,0 1.679362,-0.751523 1.679362,-1.679362 0,-0.927838 -0.751512,-1.679362 -1.679362,-1.679362 z m 15.121094,5.040365 c -0.92785,0 -1.681641,0.751536 -1.681641,1.679362 0,4.329967 -3.508574,7.84082 -7.838541,7.84082 -0.92785,0 -1.679362,0.751512 -1.679362,1.679362 0,0.92785 0.751512,1.679363 1.679362,1.679363 C 32.986006,32.959636 38,27.945641 38,21.760091 38,20.832265 37.248488,20.080729 36.320638,20.080729 Z m -19.600912,5.040366 c -0.927839,0 -1.679362,0.751511 -1.679362,1.679361 0,6.18555 5.013935,11.199544 11.199545,11.199544 0.92785,0 1.679362,-0.751512 1.679362,-1.679362 0,-0.92785 -0.751512,-1.68164 -1.679362,-1.68164 -4.329967,0 -7.840821,-3.508575 -7.840821,-7.838542 0,-0.92785 -0.751524,-1.679361 -1.679362,-1.679361 z"
     id="path10" />
</svg>
