<?xml version="1.0" encoding="UTF-8" standalone="no"?>
<svg
   xmlns:dc="http://purl.org/dc/elements/1.1/"
   xmlns:cc="http://creativecommons.org/ns#"
   xmlns:rdf="http://www.w3.org/1999/02/22-rdf-syntax-ns#"
   xmlns:svg="http://www.w3.org/2000/svg"
   xmlns="http://www.w3.org/2000/svg"
   xmlns:sodipodi="http://sodipodi.sourceforge.net/DTD/sodipodi-0.dtd"
   xmlns:inkscape="http://www.inkscape.org/namespaces/inkscape"
   width="48"
   height="48"
   version="1.1"
   id="svg32"
   sodipodi:docname="elisa.svg"
   inkscape:version="0.92.5 (2060ec1f9f, 2020-04-08)">
  <metadata
     id="metadata38">
    <rdf:RDF>
      <cc:Work
         rdf:about="">
        <dc:format>image/svg+xml</dc:format>
        <dc:type
           rdf:resource="http://purl.org/dc/dcmitype/StillImage" />
      </cc:Work>
    </rdf:RDF>
  </metadata>
  <defs
     id="defs36" />
  <sodipodi:namedview
     pagecolor="#ffffff"
     bordercolor="#666666"
     borderopacity="1"
     objecttolerance="10"
     gridtolerance="10"
     guidetolerance="10"
     inkscape:pageopacity="0"
     inkscape:pageshadow="2"
     inkscape:window-width="640"
     inkscape:window-height="480"
     id="namedview34"
     showgrid="false"
     inkscape:zoom="19.666667"
     inkscape:cx="17.996617"
     inkscape:cy="20.027097"
     inkscape:current-layer="svg32"
     inkscape:pagecheckerboard="true" />
  <ellipse
     style="opacity:1;fill:#f3f4f6;fill-opacity:1;stroke:none;stroke-width:1.03572547;stroke-opacity:1"
     id="path21"
     cx="15"
     cy="24"
     rx="2.9570301"
     ry="2.9999995" />
  <ellipse
     style="opacity:1;fill:#f3f4f6;fill-opacity:1;stroke:none;stroke-width:1.04010487;stroke-opacity:1"
     id="path21-3"
     cx="33"
     cy="23.974577"
     rx="2.9570301"
     ry="3.0254233" />
  <path
     style="fill:#4c566a;fill-opacity:1"
     d="M 6.2773438,7 C 4.4617729,7 3,8.5794625 3,10.539062 V 37.460938 C 3,39.420537 4.4617728,41 6.2773438,41 H 41.722656 C 43.538227,41 45,39.420537 45,37.460938 V 10.539062 C 45,8.5794625 43.538227,7 41.722656,7 Z M 15,19.5 A 4.5,4.5 0 0 1 19.5,24 4.5,4.5 0 0 1 15,28.5 4.5,4.5 0 0 1 10.5,24 4.5,4.5 0 0 1 15,19.5 Z m 18,0 A 4.5,4.5 0 0 1 37.5,24 4.5,4.5 0 0 1 33,28.5 4.5,4.5 0 0 1 28.5,24 4.5,4.5 0 0 1 33,19.5 Z"
     id="path2" />
  <path
     style="fill:#4c566a;fill-opacity:1"
     d="m 6.9999981,41 3.9999989,-7 h 26.000001 l 3.999999,7 z"
     id="path4" />
  <path
     style="fill:#5f697d;fill-opacity:1"
     d="M 8.7050781 11 C 7.7599014 11 7 11.90535 7 13.03125 L 7 20 L 7 30.087891 C 7 31.147591 7.7599014 32 8.7050781 32 L 39.294922 32 C 40.240095 32 41 31.147591 41 30.087891 L 41 20 L 41 13.03125 C 41 11.90535 40.240095 11 39.294922 11 L 8.7050781 11 z M 15 20.5 A 3.5 3.5 0 0 1 18.5 24 A 3.5 3.5 0 0 1 15 27.5 A 3.5 3.5 0 0 1 11.5 24 A 3.5 3.5 0 0 1 15 20.5 z M 33 20.5 A 3.5 3.5 0 0 1 36.5 24 A 3.5 3.5 0 0 1 33 27.5 A 3.5 3.5 0 0 1 29.5 24 A 3.5 3.5 0 0 1 33 20.5 z"
     id="path6" />
  <circle
     style="opacity:0.4"
     cx="15"
     cy="37"
     r="2"
     id="circle8" />
  <circle
     style="opacity:0.4"
     cx="33"
     cy="37"
     r="2"
     id="circle10" />
  <path
     style="fill:#3f3f3f"
     d="m 14.818358,20 c -2.114944,0 -3.818359,1.7815 -3.818359,3.9941 v 0.012 c 0,2.2126 1.703415,3.9941 3.818359,3.9941 H 33.18164 c 2.114948,0 3.818359,-1.7815 3.818359,-3.9941 v -0.012 C 36.999999,21.7815 35.296588,20 33.18164,20 Z m 0.181641,1 a 3,3 0 0 1 3,3 3,3 0 0 1 -3,3 3,3 0 0 1 -3,-3 3,3 0 0 1 3,-3 z m 18,0 a 3,3 0 0 1 3,3 3,3 0 0 1 -3,3 3,3 0 0 1 -3,-3 3,3 0 0 1 3,-3 z"
     id="path12" />
  <path
     style="opacity:0.2;fill:#ffffff"
     d="M 8.7050781,11 C 7.7599014,11 7,11.90535 7,13.03125 v 1 C 7,12.90535 7.7599014,12 8.7050781,12 H 39.294922 C 40.240095,12 41,12.90535 41,14.03125 v -1 C 41,11.90535 40.240095,11 39.294922,11 Z"
     id="path14" />
  <rect
     style="fill:#222222;fill-opacity:1"
     width="10"
     height="4"
     x="19"
     y="22"
     id="rect16" />
  <path
     style="fill:#4c566a;fill-opacity:1"
     d="m 18.999998,21.9999 v 4 h 3.650393 A 6.0000001,6.0000001 0 0 0 22.999997,24 6.0000001,6.0000001 0 0 0 22.650391,21.9999 Z"
     id="path18" />
  <rect
     style="opacity:0.2"
     width="10"
     height="1"
     x="19"
     y="22"
     id="rect20" />
  <path
     style="opacity:0.2"
     d="m 15,21 a 3,3 0 0 0 -3,3 3,3 0 0 0 0.04297,0.4863 A 3,3 0 0 1 15,22 3,3 0 0 1 17.957031,24.5137 3,3 0 0 0 18.000001,24 a 3,3 0 0 0 -3,-3 z m 18,0 a 3,3 0 0 0 -3,3 3,3 0 0 0 0.04297,0.4863 A 3,3 0 0 1 33,22 3,3 0 0 1 35.957031,24.5137 3,3 0 0 0 36.000001,24 3,3 0 0 0 33,21 Z"
     id="path22" />
  <path
     style="opacity:0.1;fill:#ffffff"
     d="M 6.2773438,7 C 4.4617729,7 3,8.5794635 3,10.539062 v 1 C 3,9.5794625 4.4617729,8 6.2773438,8 H 41.722656 C 43.538227,8 45,9.5794625 45,11.539062 v -1 C 45,8.5794635 43.538227,7 41.722656,7 Z"
     id="path24" />
  <path
     style="opacity:0.1;fill:#ffffff"
     d="M 11,34 7,41 H 7.5722656 L 11,35 h 26 l 3.427734,6 H 41 l -4,-7 z"
     id="path26" />
  <path
     style="opacity:0.2"
     d="m 3,37.460938 v 1 C 3,40.420537 4.4617727,42 6.2773438,42 H 41.722656 C 43.538227,42 45,40.420537 45,38.460938 v -1 C 45,39.420537 43.538227,41 41.722656,41 H 6.2773438 C 4.4617727,41 3,39.420537 3,37.460938 Z"
     id="path28" />
  <path
     style="opacity:0.2"
     d="m 7,30.087891 v 1 C 7,32.147591 7.7599014,33 8.7050781,33 H 39.294922 C 40.240095,33 41,32.147591 41,31.087891 v -1 C 41,31.147591 40.240095,32 39.294922,32 H 8.7050781 C 7.7599014,32 7,31.147591 7,30.087891 Z"
     id="path30" />
</svg>
