<?xml version="1.0" encoding="UTF-8" standalone="no"?>
<svg
   xmlns:dc="http://purl.org/dc/elements/1.1/"
   xmlns:cc="http://creativecommons.org/ns#"
   xmlns:rdf="http://www.w3.org/1999/02/22-rdf-syntax-ns#"
   xmlns:svg="http://www.w3.org/2000/svg"
   xmlns="http://www.w3.org/2000/svg"
   xmlns:sodipodi="http://sodipodi.sourceforge.net/DTD/sodipodi-0.dtd"
   xmlns:inkscape="http://www.inkscape.org/namespaces/inkscape"
   width="48"
   height="48"
   version="1.1"
   id="svg12"
   sodipodi:docname="emulationstation.svg"
   inkscape:version="0.92.5 (2060ec1f9f, 2020-04-08)">
  <metadata
     id="metadata18">
    <rdf:RDF>
      <cc:Work
         rdf:about="">
        <dc:format>image/svg+xml</dc:format>
        <dc:type
           rdf:resource="http://purl.org/dc/dcmitype/StillImage" />
      </cc:Work>
    </rdf:RDF>
  </metadata>
  <defs
     id="defs16" />
  <sodipodi:namedview
     pagecolor="#ffffff"
     bordercolor="#666666"
     borderopacity="1"
     objecttolerance="10"
     gridtolerance="10"
     guidetolerance="10"
     inkscape:pageopacity="0"
     inkscape:pageshadow="2"
     inkscape:window-width="783"
     inkscape:window-height="480"
     id="namedview14"
     showgrid="false"
     inkscape:zoom="4.9166667"
     inkscape:cx="-1.1186441"
     inkscape:cy="24"
     inkscape:window-x="0"
     inkscape:window-y="28"
     inkscape:window-maximized="0"
     inkscape:current-layer="svg12" />
  <path
     style="opacity:0.2"
     d="M 10,9 C 9.4696021,9.0001021 8.960961,9.210865 8.5859375,9.5859375 l -4,4.0000005 C 4.2108651,13.960961 4.0001022,14.469602 4,15 v 24 c 1.104e-4,1.104524 0.8954762,1.99989 2,2 h 32 c 0.530398,-1.02e-4 1.039039,-0.210865 1.414062,-0.585938 l 4,-4 C 43.789135,36.039039 43.999898,35.530398 44,35 V 11 C 43.99989,9.8954762 43.104524,9.0001104 42,9 Z"
     id="path2" />
  <path
     style="fill:#4c566a;fill-opacity:1"
     d="M 10,8 C 9.4696021,8.0001021 8.960961,8.210865 8.5859375,8.5859375 l -4,4.0000005 C 4.2108651,12.960961 4.0001022,13.469602 4,14 v 24 c 1.104e-4,1.104524 0.8954762,1.99989 2,2 h 32 c 0.530398,-1.02e-4 1.039039,-0.210865 1.414062,-0.585938 l 4,-4 C 43.789135,35.039039 43.999898,34.530398 44,34 V 10 C 43.99989,8.8954762 43.104524,8.0001104 42,8 Z"
     id="path4" />
  <path
     style="opacity:0.1;fill:#ffffff"
     d="M 10 8 C 9.4696021 8.0001021 8.960961 8.210865 8.5859375 8.5859375 L 4.5859375 12.585938 C 4.2108651 12.960961 4.0001022 13.469602 4 14 L 4 15 C 4.0001022 14.469602 4.2108651 13.960961 4.5859375 13.585938 L 8.5859375 9.5859375 C 8.960961 9.210865 9.4696021 9.0001021 10 9 L 42 9 C 43.104524 9.0001104 43.99989 9.8954762 44 11 L 44 10 C 43.99989 8.8954762 43.104524 8.0001104 42 8 L 10 8 z"
     id="path6" />
  <path
     style="opacity:0.2"
     d="m 12,15 -4,4 v 12 l 4,4 h 12 l -4,-4 h -8 v -4 h 8 v -4 h -8 v -4 h 8 l 4,-4 z m 16,0 -4,4 v 4 l 4,4 h 8 v 4 H 24 l 4,4 h 8 l 4,-4 v -4 l -4,-4 h -8 v -4 h 8 l 4,-4 z"
     id="path8" />
  <path
     style="fill:#ffffff"
     d="M 12 14 L 8 18 L 8 30 L 12 34 L 24 34 L 20 30 L 12 30 L 12 26 L 20 26 L 20 22 L 12 22 L 12 18 L 20 18 L 24 14 L 12 14 z M 28 14 L 24 18 L 24 22 L 28 26 L 36 26 L 36 30 L 24 30 L 28 34 L 36 34 L 40 30 L 40 26 L 36 22 L 28 22 L 28 18 L 36 18 L 40 14 L 28 14 z"
     id="path10" />
</svg>
