<?xml version="1.0" encoding="UTF-8" standalone="no"?>
<svg
   xmlns:dc="http://purl.org/dc/elements/1.1/"
   xmlns:cc="http://creativecommons.org/ns#"
   xmlns:rdf="http://www.w3.org/1999/02/22-rdf-syntax-ns#"
   xmlns:svg="http://www.w3.org/2000/svg"
   xmlns="http://www.w3.org/2000/svg"
   xmlns:sodipodi="http://sodipodi.sourceforge.net/DTD/sodipodi-0.dtd"
   xmlns:inkscape="http://www.inkscape.org/namespaces/inkscape"
   width="48"
   height="48"
   version="1.1"
   id="svg20"
   sodipodi:docname="eversion.svg"
   inkscape:version="0.92.5 (2060ec1f9f, 2020-04-08)">
  <metadata
     id="metadata26">
    <rdf:RDF>
      <cc:Work
         rdf:about="">
        <dc:format>image/svg+xml</dc:format>
        <dc:type
           rdf:resource="http://purl.org/dc/dcmitype/StillImage" />
      </cc:Work>
    </rdf:RDF>
  </metadata>
  <defs
     id="defs24" />
  <sodipodi:namedview
     pagecolor="#ffffff"
     bordercolor="#666666"
     borderopacity="1"
     objecttolerance="10"
     gridtolerance="10"
     guidetolerance="10"
     inkscape:pageopacity="0"
     inkscape:pageshadow="2"
     inkscape:window-width="783"
     inkscape:window-height="480"
     id="namedview22"
     showgrid="false"
     inkscape:zoom="4.9166667"
     inkscape:cx="24"
     inkscape:cy="24"
     inkscape:window-x="0"
     inkscape:window-y="28"
     inkscape:window-maximized="0"
     inkscape:current-layer="svg20" />
  <path
     d="M 24,7 A 10,10 0 0 0 14.199219,15.011719 10,10 0 0 0 14,15 10,10 0 0 0 4,25 10,10 0 0 0 8.5195312,33.355468 7,7 0 0 0 8,36 7,7 0 0 0 15,43 7,7 0 0 0 20.574219,40.21875 8,8 0 0 0 24,41 8,8 0 0 0 27.421876,40.222656 7,7 0 0 0 33,43 7,7 0 0 0 40,36 7,7 0 0 0 39.476562,33.359376 10,10 0 0 0 44,25 10,10 0 0 0 34,15 10,10 0 0 0 33.789062,15.007812 10,10 0 0 0 24,7 Z"
     style="opacity:.2"
     id="path2" />
  <path
     d="M 24,6 A 10,10 0 0 0 14.199219,14.011719 10,10 0 0 0 14,14 10,10 0 0 0 4,24 10,10 0 0 0 8.5195312,32.355468 7,7 0 0 0 8,35 7,7 0 0 0 15,42 7,7 0 0 0 20.574219,39.21875 8,8 0 0 0 24,40 8,8 0 0 0 27.421876,39.222656 7,7 0 0 0 33,42 7,7 0 0 0 40,35 7,7 0 0 0 39.476562,32.359376 10,10 0 0 0 44,24 10,10 0 0 0 34,14 10,10 0 0 0 33.789062,14.007812 10,10 0 0 0 24,6 Z"
     style="fill:#4c566a;fill-opacity:1"
     id="path4" />
  <ellipse
     cx="19"
     cy="29"
     rx="5"
     ry="6"
     style="opacity:.2"
     id="ellipse6" />
  <ellipse
     cx="19"
     cy="28"
     rx="5"
     ry="6"
     style="fill:#ffffff"
     id="ellipse8" />
  <ellipse
     cx="29"
     cy="29"
     rx="5"
     ry="6"
     style="opacity:.2"
     id="ellipse10" />
  <ellipse
     cx="29"
     cy="28"
     rx="5"
     ry="6"
     style="fill:#ffffff"
     id="ellipse12" />
  <ellipse
     cx="28"
     cy="29"
     rx="2"
     ry="3"
     style="fill:#5f697d;fill-opacity:1"
     id="ellipse14" />
  <ellipse
     cx="20"
     cy="29"
     rx="2"
     ry="3"
     style="fill:#5f697d;fill-opacity:1"
     id="ellipse16" />
  <path
     d="M 24,6 A 10,10 0 0 0 14.199219,14.011719 10,10 0 0 0 14,14 10,10 0 0 0 4,24 10,10 0 0 0 4.0195312,24.394532 10,10 0 0 1 14,15 10,10 0 0 1 14.199219,15.011719 10,10 0 0 1 24,7 10,10 0 0 1 33.789062,15.007812 10,10 0 0 1 34,15 10,10 0 0 1 43.976562,24.515624 10,10 0 0 0 44,24 10,10 0 0 0 34,14 10,10 0 0 0 33.789062,14.007812 10,10 0 0 0 24,6 Z M 8.2539062,33.164062 A 7,7 0 0 0 8,35 a 7,7 0 0 0 0.023438,0.472656 7,7 0 0 1 0.4960936,-2.117188 10,10 0 0 1 -0.265625,-0.1914 z m 31.4882818,0 a 10,10 0 0 1 -0.265626,0.19532 7,7 0 0 1 0.5,2.191406 A 7,7 0 0 0 40,35 7,7 0 0 0 39.742188,33.164062 Z"
     style="fill:#ffffff;opacity:.2"
     id="path18" />
</svg>
