<?xml version="1.0" encoding="UTF-8" standalone="no"?>
<svg
   xmlns:dc="http://purl.org/dc/elements/1.1/"
   xmlns:cc="http://creativecommons.org/ns#"
   xmlns:rdf="http://www.w3.org/1999/02/22-rdf-syntax-ns#"
   xmlns:svg="http://www.w3.org/2000/svg"
   xmlns="http://www.w3.org/2000/svg"
   xmlns:sodipodi="http://sodipodi.sourceforge.net/DTD/sodipodi-0.dtd"
   xmlns:inkscape="http://www.inkscape.org/namespaces/inkscape"
   width="48"
   height="48"
   version="1"
   id="svg30"
   sodipodi:docname="evolution.svg"
   inkscape:version="0.92.5 (2060ec1f9f, 2020-04-08)">
  <metadata
     id="metadata36">
    <rdf:RDF>
      <cc:Work
         rdf:about="">
        <dc:format>image/svg+xml</dc:format>
        <dc:type
           rdf:resource="http://purl.org/dc/dcmitype/StillImage" />
      </cc:Work>
    </rdf:RDF>
  </metadata>
  <defs
     id="defs34" />
  <sodipodi:namedview
     pagecolor="#ffffff"
     bordercolor="#666666"
     borderopacity="1"
     objecttolerance="10"
     gridtolerance="10"
     guidetolerance="10"
     inkscape:pageopacity="0"
     inkscape:pageshadow="2"
     inkscape:window-width="783"
     inkscape:window-height="480"
     id="namedview32"
     showgrid="false"
     inkscape:zoom="6.9532167"
     inkscape:cx="28.293573"
     inkscape:cy="20.626686"
     inkscape:window-x="0"
     inkscape:window-y="28"
     inkscape:window-maximized="0"
     inkscape:current-layer="svg30" />
  <path
     style="opacity:0.2"
     d="M 7,20.177734 V 42 c 0,1.108 0.892,2 2,2 h 30 c 1.108,0 2,-0.892 2,-2 V 20.177734 L 24,35.591797 Z"
     id="path2" />
  <path
     style="fill:#4c566a;fill-opacity:1"
     d="M 24.075437,4.0003504 C 23.132292,3.9971974 22.185958,4.462434 21.23325,5.4051687 L 6.9999998,19.177293 24,37 v 0 L 41,19.177293 26.899563,5.4048184 C 25.958896,4.4743452 25.018583,4.0035033 24.075437,4 Z"
     id="path4" />
  <path
     style="fill:#ffffff;opacity:0.1"
     d="M 24.076172 4 C 23.133027 3.996847 22.18513 4.4615622 21.232422 5.4042969 L 7 19.177734 L 7.4960938 19.697266 L 21.232422 6.4042969 C 22.18513 5.4615622 23.133027 4.996847 24.076172 5 C 25.019318 5.0035033 25.959724 5.4738237 26.900391 6.4042969 L 40.505859 19.695312 L 41 19.177734 L 26.900391 5.4042969 C 25.959724 4.4738237 25.019318 4.0035033 24.076172 4 z"
     id="path6" />
  <rect
     style="fill:#ffffff"
     width="28"
     height="31"
     x="10"
     y="8"
     rx="3"
     ry="3"
     id="rect8" />
  <path
     style="fill:#4c566a;fill-opacity:1"
     d="M 7 19.177734 L 7 41 C 7 42.108 7.892 43 9 43 L 39 43 C 40.108 43 41 42.108 41 41 L 41 19.177734 L 24 34.591797 L 7 19.177734 z"
     id="path10" />
  <path
     style="fill:#4c566a;fill-opacity:1"
     d="M 24.076172 28 C 23.132937 27.997014 22.185484 28.457121 21.232422 29.388672 L 7.5976562 42.427734 C 7.9581174 42.781784 8.4524871 43 9 43 L 39 43 C 39.548503 43 40.043671 42.780965 40.404297 42.425781 L 26.900391 29.388672 C 25.959724 28.469066 25.019406 28.002986 24.076172 28 z"
     id="path12" />
  <path
     style="fill:#ffffff;opacity:0.2"
     d="M 24.076172 28 C 23.132937 27.997014 22.185484 28.457121 21.232422 29.388672 L 7.5976562 42.427734 C 7.7741636 42.601102 7.9836027 42.739335 8.2148438 42.837891 L 21.232422 30.388672 C 22.185484 29.457121 23.132937 28.997 24.076172 29 C 25.019406 29.002986 25.959724 29.469066 26.900391 30.388672 L 39.792969 42.835938 C 40.022285 42.737159 40.229149 42.598286 40.404297 42.425781 L 26.900391 29.388672 C 25.959724 28.469066 25.019406 28.002986 24.076172 28 z"
     id="path14" />
  <path
     style="opacity:0.2"
     d="M 44,36.000002 A 9.9999998,9.9999998 0 0 1 33.999999,46 9.9999998,9.9999998 0 0 1 24,36.000002 a 9.9999998,9.9999998 0 0 1 9.999999,-10 9.9999998,9.9999998 0 0 1 10.000001,10 z"
     id="path16" />
  <path
     style="fill:#c4c4c4;fill-opacity:1"
     d="M 44,35 A 9.9999998,9.9999998 0 0 1 33.999999,44.999998 9.9999998,9.9999998 0 0 1 24,35 9.9999998,9.9999998 0 0 1 33.999999,25 9.9999998,9.9999998 0 0 1 44,35 Z"
     id="path18" />
  <circle
     style="fill:#5f697d;fill-opacity:1"
     cx="34"
     cy="35"
     r="8"
     id="circle20" />
  <path
     style="fill:#ffffff;fill-rule:evenodd;stroke:#ffffff;stroke-width:0.5;stroke-linecap:round;stroke-opacity:1;fill-opacity:1"
     d="m 34,35 4.8,-4.7"
     id="path22" />
  <path
     style="fill:none;stroke:#fef7f7;stroke-width:0.40000001;stroke-linecap:round;stroke-opacity:1"
     d="m 34,35 -2.25374,5.795436"
     id="path24" />
  <path
     style="fill:none;stroke:#ffffff;stroke-width:1.5;stroke-linecap:round;stroke-linejoin:round;stroke-opacity:1"
     d="M 30.8,31.7 34,35"
     id="path26" />
  <circle
     style="fill:#42403c"
     cx="16.793"
     cy="45.815"
     r="2"
     transform="rotate(-24.040001)"
     overflow="visible"
     id="circle28" />
</svg>
