<?xml version="1.0" encoding="UTF-8" standalone="no"?>
<svg
   xmlns:dc="http://purl.org/dc/elements/1.1/"
   xmlns:cc="http://creativecommons.org/ns#"
   xmlns:rdf="http://www.w3.org/1999/02/22-rdf-syntax-ns#"
   xmlns:svg="http://www.w3.org/2000/svg"
   xmlns="http://www.w3.org/2000/svg"
   xmlns:sodipodi="http://sodipodi.sourceforge.net/DTD/sodipodi-0.dtd"
   xmlns:inkscape="http://www.inkscape.org/namespaces/inkscape"
   width="48"
   height="48"
   version="1.1"
   id="svg12"
   sodipodi:docname="exult.svg"
   inkscape:version="0.92.5 (2060ec1f9f, 2020-04-08)">
  <metadata
     id="metadata18">
    <rdf:RDF>
      <cc:Work
         rdf:about="">
        <dc:format>image/svg+xml</dc:format>
        <dc:type
           rdf:resource="http://purl.org/dc/dcmitype/StillImage" />
      </cc:Work>
    </rdf:RDF>
  </metadata>
  <defs
     id="defs16" />
  <sodipodi:namedview
     pagecolor="#ffffff"
     bordercolor="#666666"
     borderopacity="1"
     objecttolerance="10"
     gridtolerance="10"
     guidetolerance="10"
     inkscape:pageopacity="0"
     inkscape:pageshadow="2"
     inkscape:window-width="783"
     inkscape:window-height="480"
     id="namedview14"
     showgrid="false"
     inkscape:zoom="4.9166667"
     inkscape:cx="24"
     inkscape:cy="24"
     inkscape:window-x="0"
     inkscape:window-y="28"
     inkscape:window-maximized="0"
     inkscape:current-layer="svg12" />
  <path
     style="fill:#4c566a;fill-opacity:1"
     d="M 40,42 V 5.9999995 C 40,4.8919997 39.107999,4 38,4 H 9.9999997 C 8.8919992,4 7.9999995,4.8919997 7.9999995,5.9999995 V 42 c 0,1.108 0.8919997,2 2.0000002,2 H 38 c 1.107999,0 2,-0.892 2,-2 z"
     id="path2" />
  <path
     style="opacity:0.1;fill:#ffffff"
     d="m 9.9999998,4.0000002 c -1.1080005,0 -2.0000003,0.8919998 -2.0000003,1.9999995 V 7.0000002 C 7.9999995,5.8919997 8.8919993,5 9.9999998,5 H 38 c 1.107999,0 2,0.8919997 2,2.0000002 V 5.9999997 C 40,4.892 39.107999,4.0000002 38,4.0000002 Z"
     id="path4" />
  <path
     style="opacity:0.2"
     class="st0"
     d="m 24.001168,8.0000004 c 2.742426,0 6.31718,2.0621186 5.984582,7.5611016 C 29.72334,20.372713 26.993459,23 26.993459,23 h 7.722531 c 1.179102,0 -1.623718,2.902719 -2.735379,4 -1.945407,-1.453896 -5.985434,-1 -6.680222,-1 -0.227991,0 -0.913598,8.120171 1.143221,10.18229 1.371214,1.374746 1.671198,2.130337 0.985591,2.81771 l -3.428033,3 -3.428033,-3 C 19.887528,38.312627 20.187087,37.557036 21.558301,36.18229 23.615121,34.120171 22.929514,26 22.7317,26 c -0.69479,0 -4.764568,-0.426463 -6.709975,1 -1.11166,-1.097281 -3.969596,-4 -2.705206,-4 h 7.692358 c 0,0 -2.674143,-2.627287 -2.992291,-7.438898 -0.315953,-5.498983 3.242155,-7.5611016 5.984582,-7.5611016 z m -2.992291,7.5611016 c 0,2.749492 1.102467,5.438899 2.992291,5.438899 1.889824,0 2.992291,-2.689407 2.992291,-5.438899 C 26.993459,12.24183 25.372381,11 24.001168,11 c -1.371213,0 -2.992291,1.24183 -2.992291,4.561102 z"
     id="path6" />
  <path
     style="fill:#ebebeb"
     class="st0"
     d="m 24.001168,7.0000004 c 2.742426,0 6.31718,2.0621188 5.984582,7.5611016 C 29.72334,19.372713 26.993459,22 26.993459,22 h 7.722531 c 1.179102,0 -1.623718,2.902719 -2.735379,4 -1.945407,-1.453896 -5.985434,-1 -6.680222,-1 -0.227991,0 -0.913598,8.120171 1.143221,10.18229 1.371214,1.374746 1.671198,2.130337 0.985591,2.81771 l -3.428033,3 -3.428033,-3 C 19.887528,37.312627 20.187087,36.557036 21.558301,35.18229 23.615121,33.120171 22.929514,25 22.7317,25 c -0.69479,0 -4.764568,-0.426463 -6.709975,1 -1.11166,-1.097281 -3.969596,-4 -2.705206,-4 h 7.692358 c 0,0 -2.674143,-2.627287 -2.992291,-7.438898 -0.315953,-5.4989831 3.242155,-7.5611016 5.984582,-7.5611016 z m -2.992291,7.5611016 c 0,2.749492 1.102467,5.438899 2.992291,5.438899 1.889824,0 2.992291,-2.689407 2.992291,-5.438899 C 26.993459,11.24183 25.372381,10 24.001168,10 c -1.371213,0 -2.992291,1.24183 -2.992291,4.561102 z"
     id="path8" />
  <path
     style="opacity:0.2"
     d="m 7.9999995,42 v 1 c 0,1.108 0.8919998,2 2.0000003,2 H 38 c 1.107999,0 2,-0.892 2,-2 v -1 c 0,1.108 -0.892001,2 -2,2 H 9.9999998 C 8.8919993,44 7.9999995,43.108 7.9999995,42 Z"
     id="path10" />
</svg>
