<?xml version="1.0" encoding="UTF-8" standalone="no"?>
<svg
   xmlns:dc="http://purl.org/dc/elements/1.1/"
   xmlns:cc="http://creativecommons.org/ns#"
   xmlns:rdf="http://www.w3.org/1999/02/22-rdf-syntax-ns#"
   xmlns:svg="http://www.w3.org/2000/svg"
   xmlns="http://www.w3.org/2000/svg"
   xmlns:sodipodi="http://sodipodi.sourceforge.net/DTD/sodipodi-0.dtd"
   xmlns:inkscape="http://www.inkscape.org/namespaces/inkscape"
   width="48"
   height="48"
   version="1.1"
   id="svg14"
   sodipodi:docname="brave-boeajhmfdjldchidhphikilcgdacljfm-Default.svg"
   inkscape:version="0.92.5 (2060ec1f9f, 2020-04-08)">
  <metadata
     id="metadata20">
    <rdf:RDF>
      <cc:Work
         rdf:about="">
        <dc:format>image/svg+xml</dc:format>
        <dc:type
           rdf:resource="http://purl.org/dc/dcmitype/StillImage" />
      </cc:Work>
    </rdf:RDF>
  </metadata>
  <defs
     id="defs18" />
  <sodipodi:namedview
     pagecolor="#ffffff"
     bordercolor="#666666"
     borderopacity="1"
     objecttolerance="10"
     gridtolerance="10"
     guidetolerance="10"
     inkscape:pageopacity="0"
     inkscape:pageshadow="2"
     inkscape:window-width="640"
     inkscape:window-height="480"
     id="namedview16"
     showgrid="false"
     inkscape:zoom="4.9166667"
     inkscape:cx="24"
     inkscape:cy="24"
     inkscape:current-layer="g12" />
  <g
     transform="translate(0 -1004.4)"
     id="g12">
    <rect
       width="40"
       height="40"
       x="-1048.1034"
       y="-44"
       rx="3"
       ry="3"
       transform="matrix(0,-1,-1,0,0,0)"
       id="rect2"
       style="fill:#4c566a;fill-opacity:1" />
    <path
       inkscape:connector-curvature="0"
       style="opacity:0.2"
       d="m 32.781,1018.1034 c -2.9668,0.1094 -6.7812,1 -6.7812,8 v 4 h -4 v 6 h 4 v 12 h 6 v -12 h 5 l 1,-6 h -6 v -4 c 0,-2 2,-2 2,-2 h 4 v -6 h -4 c -0.375,0 -0.79492,-0.016 -1.2188,0 z"
       id="path4" />
    <path
       inkscape:connector-curvature="0"
       style="opacity:0.1;fill:#ffffff"
       d="m 7,1008.1034 c -1.662,0 -3,1.338 -3,3 v 1 c 0,-1.662 1.338,-3 3,-3 h 34 c 1.662,0 3,1.338 3,3 v -1 c 0,-1.662 -1.338,-3 -3,-3 z"
       id="path6" />
    <path
       inkscape:connector-curvature="0"
       style="fill:#ffffff"
       d="m 32.781,1017.1034 c -2.9668,0.1094 -6.7812,1 -6.7812,8 v 4 h -4 v 6 h 4 v 13 h 6 v -13 h 5 l 1,-6 h -6 v -4 c 0,-2 2,-2 2,-2 h 4 v -6 h -4 c -0.375,0 -0.79492,-0.016 -1.2188,0 z"
       id="path8" />
    <path
       inkscape:connector-curvature="0"
       style="opacity:0.2"
       d="m 4,1045.1034 v 1 c 0,1.662 1.338,3 3,3 h 34 c 1.662,0 3,-1.338 3,-3 v -1 c 0,1.662 -1.338,3 -3,3 H 7 c -1.662,0 -3,-1.338 -3,-3 z"
       id="path10" />
  </g>
</svg>
