<?xml version="1.0" encoding="UTF-8" standalone="no"?>
<svg
   xmlns:dc="http://purl.org/dc/elements/1.1/"
   xmlns:cc="http://creativecommons.org/ns#"
   xmlns:rdf="http://www.w3.org/1999/02/22-rdf-syntax-ns#"
   xmlns:svg="http://www.w3.org/2000/svg"
   xmlns="http://www.w3.org/2000/svg"
   xmlns:sodipodi="http://sodipodi.sourceforge.net/DTD/sodipodi-0.dtd"
   xmlns:inkscape="http://www.inkscape.org/namespaces/inkscape"
   width="48"
   height="48"
   version="1.1"
   id="svg12"
   sodipodi:docname="brave-bllmngcdibgbgjnginpehneeofhbmdjm-Default.svg"
   inkscape:version="0.92.5 (2060ec1f9f, 2020-04-08)">
  <metadata
     id="metadata18">
    <rdf:RDF>
      <cc:Work
         rdf:about="">
        <dc:format>image/svg+xml</dc:format>
        <dc:type
           rdf:resource="http://purl.org/dc/dcmitype/StillImage" />
      </cc:Work>
    </rdf:RDF>
  </metadata>
  <defs
     id="defs16" />
  <sodipodi:namedview
     pagecolor="#ffffff"
     bordercolor="#666666"
     borderopacity="1"
     objecttolerance="10"
     gridtolerance="10"
     guidetolerance="10"
     inkscape:pageopacity="0"
     inkscape:pageshadow="2"
     inkscape:window-width="640"
     inkscape:window-height="480"
     id="namedview14"
     showgrid="false"
     inkscape:zoom="4.9166667"
     inkscape:cx="24"
     inkscape:cy="24"
     inkscape:current-layer="svg12" />
  <path
     inkscape:connector-curvature="0"
     d="m 24.40099,4.1104185 c -0.56998,0.00422 -1.1395,0.031591 -1.707,0.082031 -0.4114,0.03259 -0.81493,0.085152 -1.2188,0.14062 -0.21405,0.027311 -0.42762,0.057914 -0.64062,0.091797 -0.57543,0.096959 -1.1403,0.21947 -1.6973,0.36133 -0.03648,0.00902 -0.07294,0.018131 -0.10938,0.027344 -8.442,2.1985 -14.6210003,9.4218995 -14.6210003,17.9959995 1.01e-4,0.06216 0.0051,0.12346 0.00586,0.18555 -0.0021,0.038 -0.0041,0.077 -0.0059,0.115 0.00988,5.887 3.089,11.41 8.0000003,15 v 6 l 5.3047,-3.1211 c 2.148,0.734 4.412,1.113 6.695,1.121 10.639,-0.012 19.406,-7.935 19.949,-18.029 0.01591,-0.22113 0.02754,-0.44286 0.03516,-0.66602 0.006,-0.102 0.012,-0.203 0.016,-0.305 -10e-4,-0.041 -0.002,-0.082 -0.004,-0.123 10e-4,-0.06 0.004,-0.118 0.004,-0.178 0,-9.684 -7.877,-17.6659995 -18.004,-18.6029995 -0.553,-0.0489 -1.108,-0.0757 -1.664,-0.0804 -0.112,-0.0017 -0.221,-0.0156 -0.334,-0.0156 z"
     id="path2"
     style="fill:#4c566a;fill-opacity:1" />
  <path
     inkscape:connector-curvature="0"
     style="opacity:0.2"
     d="m 26.40699,29.110418 -5,-6 -11,6 12,-12 5,6 11,-6 z"
     id="path4" />
  <path
     inkscape:connector-curvature="0"
     style="fill:#ffffff"
     d="m 26.40699,28.110418 -5,-6 -11,6 12,-12 5,6 11,-6 z"
     id="path6" />
  <path
     inkscape:connector-curvature="0"
     style="opacity:0.2;fill:#ffffff"
     d="m 24.40099,4.1104185 a 20,19 0 0 0 -1.707,0.082 c -0.411,0.0326 -0.815,0.0852 -1.219,0.1407 a 20,19 0 0 0 -0.64,0.0918 c -0.576,0.0969 -1.141,0.2194 -1.698,0.3613 a 20,19 0 0 0 -0.109,0.0273 c -8.442,2.1985 -14.6210003,9.4218995 -14.6210003,17.9959995 1e-4,0.062 0.0051,0.124 0.0059,0.186 a 20,19 0 0 0 -0.0059,0.115 20,19 0 0 0 0.0176,0.318 C 4.6056897,15.023518 10.71199,7.9795185 19.02759,5.8135185 a 20,19 0 0 1 0.109,-0.0272 c 0.557,-0.1419 1.122,-0.2644 1.698,-0.3613 a 20,19 0 0 1 0.64,-0.0918 c 0.404,-0.0555 0.808,-0.1081 1.219,-0.1407 a 20,19 0 0 1 1.707,-0.082 h 0.004 c 0.113,0 0.222,0.0139 0.334,0.0156 a 20,19 0 0 1 1.664,0.0801 c 10.003,0.9259 17.797,8.7282995 17.986,18.2519995 10e-4,-0.015 0.002,-0.029 0.002,-0.043 a 20,19 0 0 0 0.016,-0.305 20,19 0 0 0 -0.004,-0.123 c 0.001,-0.06 0.004,-0.118 0.004,-0.178 0,-9.684 -7.877,-17.6659995 -18.004,-18.6029995 a 20,19 0 0 0 -1.664,-0.0804 c -0.112,-0.0017 -0.221,-0.0156 -0.334,-0.0156 h -0.004 z"
     id="path8" />
  <path
     inkscape:connector-curvature="0"
     style="opacity:0.2"
     d="m 44.38899,23.458418 c -0.0076,0.20859 -0.01832,0.41617 -0.0332,0.62305 -0.543,10.094 -9.31,18.017 -19.949,18.029 -2.2828,-0.008 -4.5472,-0.38714 -6.6953,-1.1211 l -5.305,3.121 v 1 l 5.3047,-3.1211 c 2.148,0.734 4.412,1.113 6.695,1.121 10.639,-0.012 19.406,-7.935 19.949,-18.029 0.01591,-0.22113 0.02754,-0.44286 0.03516,-0.66602 0.006,-0.102 0.012,-0.203 0.016,-0.305 -0.001,-0.041 -0.003,-0.082 -0.004,-0.123 0.001,-0.06 0.004,-0.118 0.004,-0.178 0,-0.11854 -0.01523,-0.23354 -0.01758,-0.35156 z m -39.9680003,0.052 c -0.0017,0.101 -0.0137,0.199 -0.0137,0.299 1.01e-4,0.06216 0.0051,0.12346 0.00586,0.18555 -0.0021,0.038 -0.0041,0.077 -0.0059,0.115 0.00988,5.887 3.089,11.41 8.0000003,15 v -1 c -4.7993003,-3.509 -7.8408003,-8.864 -7.9863003,-14.6 z"
     id="path10" />
</svg>
