<?xml version="1.0" encoding="UTF-8" standalone="no"?>
<svg
   xmlns:dc="http://purl.org/dc/elements/1.1/"
   xmlns:cc="http://creativecommons.org/ns#"
   xmlns:rdf="http://www.w3.org/1999/02/22-rdf-syntax-ns#"
   xmlns:svg="http://www.w3.org/2000/svg"
   xmlns="http://www.w3.org/2000/svg"
   xmlns:sodipodi="http://sodipodi.sourceforge.net/DTD/sodipodi-0.dtd"
   xmlns:inkscape="http://www.inkscape.org/namespaces/inkscape"
   width="48"
   height="48"
   version="1"
   id="svg16"
   sodipodi:docname="preferences-desktop-filter.svg"
   inkscape:version="0.92.5 (2060ec1f9f, 2020-04-08)">
  <metadata
     id="metadata22">
    <rdf:RDF>
      <cc:Work
         rdf:about="">
        <dc:format>image/svg+xml</dc:format>
        <dc:type
           rdf:resource="http://purl.org/dc/dcmitype/StillImage" />
      </cc:Work>
    </rdf:RDF>
  </metadata>
  <defs
     id="defs20" />
  <sodipodi:namedview
     pagecolor="#ffffff"
     bordercolor="#666666"
     borderopacity="1"
     objecttolerance="10"
     gridtolerance="10"
     guidetolerance="10"
     inkscape:pageopacity="0"
     inkscape:pageshadow="2"
     inkscape:window-width="783"
     inkscape:window-height="480"
     id="namedview18"
     showgrid="false"
     inkscape:zoom="4.9166667"
     inkscape:cx="24"
     inkscape:cy="23.150822"
     inkscape:window-x="0"
     inkscape:window-y="28"
     inkscape:window-maximized="0"
     inkscape:current-layer="svg16" />
  <path
     style="opacity:0.2"
     d="M 30,22 H 18 v 15 l 12,8 z"
     id="path2" />
  <path
     style="opacity:0.2"
     transform="matrix(1,0,0,0.66851083,0,4.0404488)"
     d="M 4.9999999,4.4270815 24,4.4270821 43,4.4270807 33.499999,20.881563 24,37.336046 14.500001,20.881563 Z"
     id="path4" />
  <path
     style="fill:#4c566a;fill-opacity:1"
     transform="matrix(1,0,0,0.66851083,0,3.0404488)"
     d="M 4.9999999,4.4270815 24,4.4270821 43,4.4270807 33.499999,20.881563 24,37.336046 14.500001,20.881563 Z"
     id="path6" />
  <rect
     style="opacity:0.2"
     width="40"
     height="4"
     x="4"
     y="5"
     rx="2"
     ry="2"
     id="rect8" />
  <rect
     style="fill:#5f697d;fill-opacity:1"
     width="40"
     height="4"
     x="4"
     y="4"
     rx="2"
     ry="2"
     id="rect10" />
  <path
     style="fill:#4c566a;fill-opacity:1"
     d="M 30,21 H 18 v 15 l 12,8 z"
     id="path12" />
  <path
     style="opacity:0.2;fill:#ffffff"
     d="M 6 4 C 4.892 4 4 4.892 4 6 C 4 6.1738348 4.0290105 6.3394094 4.0703125 6.5 C 4.2922638 5.6370069 5.0658348 5 6 5 L 42 5 C 42.934165 5 43.707736 5.6370069 43.929688 6.5 C 43.970989 6.3394094 44 6.1738348 44 6 C 44 4.892 43.108 4 42 4 L 6 4 z"
     id="path14" />
</svg>
