<?xml version="1.0" encoding="UTF-8" standalone="no"?>
<svg
   xmlns:dc="http://purl.org/dc/elements/1.1/"
   xmlns:cc="http://creativecommons.org/ns#"
   xmlns:rdf="http://www.w3.org/1999/02/22-rdf-syntax-ns#"
   xmlns:svg="http://www.w3.org/2000/svg"
   xmlns="http://www.w3.org/2000/svg"
   xmlns:sodipodi="http://sodipodi.sourceforge.net/DTD/sodipodi-0.dtd"
   xmlns:inkscape="http://www.inkscape.org/namespaces/inkscape"
   width="48"
   height="48"
   version="1"
   id="svg12"
   sodipodi:docname="flightgear.svg"
   inkscape:version="0.92.5 (2060ec1f9f, 2020-04-08)">
  <metadata
     id="metadata18">
    <rdf:RDF>
      <cc:Work
         rdf:about="">
        <dc:format>image/svg+xml</dc:format>
        <dc:type
           rdf:resource="http://purl.org/dc/dcmitype/StillImage" />
      </cc:Work>
    </rdf:RDF>
  </metadata>
  <defs
     id="defs16" />
  <sodipodi:namedview
     pagecolor="#ffffff"
     bordercolor="#666666"
     borderopacity="1"
     objecttolerance="10"
     gridtolerance="10"
     guidetolerance="10"
     inkscape:pageopacity="0"
     inkscape:pageshadow="2"
     inkscape:window-width="783"
     inkscape:window-height="480"
     id="namedview14"
     showgrid="false"
     inkscape:zoom="27.812867"
     inkscape:cx="19.820589"
     inkscape:cy="24.12463"
     inkscape:window-x="0"
     inkscape:window-y="28"
     inkscape:window-maximized="0"
     inkscape:current-layer="svg12" />
  <rect
     style="opacity:0.2"
     width="40"
     height="40"
     x="4"
     y="5"
     rx="2"
     ry="2"
     id="rect2" />
  <rect
     style="fill:#4c566a;fill-opacity:1"
     width="40"
     height="40"
     x="4"
     y="4"
     rx="2"
     ry="2"
     id="rect4" />
  <path
     style="opacity:0.2;fill:#ffffff"
     d="m6 4c-1.108 0-2 0.892-2 2v1c0-1.108 0.892-2 2-2h36c1.108 0 2 0.892 2 2v-1c0-1.108-0.892-2-2-2h-36z"
     id="path6" />
  <path
     style="fill:#5f697d;fill-opacity:1"
     d="M 40,10.672 Q 40,12.665 36.587,16.078 L 31.09,21.576 34.366,38.663 34.388,38.8 Q 34.388,39.12 34.183,39.328 L 32.715,40.794 Q 32.51,40.999 32.19,40.999 31.707,40.999 31.524,40.588 L 25.248,27.416 19.636,33.027 Q 21.194,38.48 21.194,38.8 21.194,39.12 20.988,39.326 L 19.522,40.794 Q 19.316,40.999 18.995,40.999 18.583,40.999 18.354,40.631 L 14.803,34.218 8.3895,30.668 Q 8,30.462 8,30.026 8,29.706 8.2062,29.5 L 9.6722,28.011 Q 9.8784,27.805 10.199,27.805 10.52,27.805 15.971,29.363 L 21.583,23.751 8.4123,17.475 Q 8,17.292 8,16.81 8,16.49 8.2062,16.284 L 9.6722,14.818 Q 9.8784,14.612 10.199,14.612 10.291,14.612 10.336,14.635 L 27.424,17.91 32.921,12.413 Q 36.336,9 38.327,9 39.06,9 39.531,9.4694 40,9.9389 40,10.672 Z"
     id="path8" />
  <path
     style="fill:#ffffff"
     d="M 40,9.6724 Q 40,11.665 36.587,15.078 L 31.09,20.576 34.366,37.663 34.388,37.8 Q 34.388,38.12 34.183,38.328 L 32.715,39.794 Q 32.51,39.999 32.19,39.999 31.707,39.999 31.524,39.588 L 25.248,26.416 19.636,32.027 Q 21.194,37.48 21.194,37.8 21.194,38.12 20.988,38.326 L 19.522,39.794 Q 19.316,39.999 18.995,39.999 18.583,39.999 18.354,39.631 L 14.803,33.218 8.3895,29.668 Q 8,29.462 8,29.026 8,28.706 8.2062,28.5 L 9.6722,27.011 Q 9.8784,26.805 10.199,26.805 10.52,26.805 15.971,28.363 L 21.583,22.751 8.4123,16.475 Q 8,16.292 8,15.81 8,15.49 8.2062,15.284 L 9.6722,13.818 Q 9.8784,13.612 10.199,13.612 10.291,13.612 10.336,13.635 L 27.424,16.91 32.921,11.413 Q 36.336,8 38.327,8 39.06,8 39.531,8.4694 40,8.9389 40,9.6719 Z"
     id="path10" />
</svg>
