<?xml version="1.0" encoding="UTF-8" standalone="no"?>
<svg
   xmlns:dc="http://purl.org/dc/elements/1.1/"
   xmlns:cc="http://creativecommons.org/ns#"
   xmlns:rdf="http://www.w3.org/1999/02/22-rdf-syntax-ns#"
   xmlns:svg="http://www.w3.org/2000/svg"
   xmlns="http://www.w3.org/2000/svg"
   xmlns:sodipodi="http://sodipodi.sourceforge.net/DTD/sodipodi-0.dtd"
   xmlns:inkscape="http://www.inkscape.org/namespaces/inkscape"
   width="48"
   height="48"
   version="1.1"
   id="svg14"
   sodipodi:docname="steam_icon_302380.svg"
   inkscape:version="0.92.5 (2060ec1f9f, 2020-04-08)">
  <metadata
     id="metadata20">
    <rdf:RDF>
      <cc:Work
         rdf:about="">
        <dc:format>image/svg+xml</dc:format>
        <dc:type
           rdf:resource="http://purl.org/dc/dcmitype/StillImage" />
      </cc:Work>
    </rdf:RDF>
  </metadata>
  <defs
     id="defs18" />
  <sodipodi:namedview
     pagecolor="#ffffff"
     bordercolor="#666666"
     borderopacity="1"
     objecttolerance="10"
     gridtolerance="10"
     guidetolerance="10"
     inkscape:pageopacity="0"
     inkscape:pageshadow="2"
     inkscape:window-width="783"
     inkscape:window-height="480"
     id="namedview16"
     showgrid="false"
     inkscape:zoom="4.9166667"
     inkscape:cx="-13.830508"
     inkscape:cy="24"
     inkscape:window-x="0"
     inkscape:window-y="28"
     inkscape:window-maximized="0"
     inkscape:current-layer="g12" />
  <g
     id="g12">
    <rect
       x="4"
       y="5"
       width="40"
       height="40"
       rx="12"
       ry="12"
       style="opacity:.2"
       id="rect2" />
    <rect
       x="4"
       y="4"
       width="40"
       height="40"
       rx="12"
       ry="12"
       style="fill:#4c566a;fill-opacity:1"
       id="rect4" />
    <rect
       transform="matrix(0,-1,-1,0,0,0)"
       x="-39"
       y="-38"
       width="28"
       height="28"
       rx="14"
       ry="14"
       style="opacity:.2"
       id="rect6" />
    <rect
       transform="matrix(0,-1,-1,0,0,0)"
       x="-38"
       y="-38"
       width="28"
       height="28"
       rx="14"
       ry="14"
       style="fill:#fffdfd;fill-opacity:1"
       id="rect8" />
    <path
       d="m16 4c-6.648 0-12 5.352-12 12v1c0-6.648 5.352-12 12-12h16c6.648 0 12 5.352 12 12v-1c0-6.648-5.352-12-12-12z"
       style="fill:#ffffff;opacity:.1"
       id="path10" />
  </g>
</svg>
