<?xml version="1.0" encoding="UTF-8" standalone="no"?>
<svg
   xmlns:dc="http://purl.org/dc/elements/1.1/"
   xmlns:cc="http://creativecommons.org/ns#"
   xmlns:rdf="http://www.w3.org/1999/02/22-rdf-syntax-ns#"
   xmlns:svg="http://www.w3.org/2000/svg"
   xmlns="http://www.w3.org/2000/svg"
   xmlns:sodipodi="http://sodipodi.sourceforge.net/DTD/sodipodi-0.dtd"
   xmlns:inkscape="http://www.inkscape.org/namespaces/inkscape"
   width="48"
   height="48"
   version="1"
   id="svg28"
   sodipodi:docname="florence.svg"
   inkscape:version="0.92.5 (2060ec1f9f, 2020-04-08)">
  <metadata
     id="metadata34">
    <rdf:RDF>
      <cc:Work
         rdf:about="">
        <dc:format>image/svg+xml</dc:format>
        <dc:type
           rdf:resource="http://purl.org/dc/dcmitype/StillImage" />
      </cc:Work>
    </rdf:RDF>
  </metadata>
  <defs
     id="defs32" />
  <sodipodi:namedview
     pagecolor="#ffffff"
     bordercolor="#666666"
     borderopacity="1"
     objecttolerance="10"
     gridtolerance="10"
     guidetolerance="10"
     inkscape:pageopacity="0"
     inkscape:pageshadow="2"
     inkscape:window-width="783"
     inkscape:window-height="480"
     id="namedview30"
     showgrid="false"
     inkscape:zoom="4.9166667"
     inkscape:cx="24"
     inkscape:cy="24"
     inkscape:window-x="0"
     inkscape:window-y="28"
     inkscape:window-maximized="0"
     inkscape:current-layer="svg28" />
  <rect
     style="opacity:0.2"
     width="40"
     height="28"
     x="4"
     y="11"
     rx="3"
     ry="3"
     id="rect2" />
  <rect
     style="fill:#4c566a;fill-opacity:1"
     width="40"
     height="28"
     x="4"
     y="10"
     rx="3"
     ry="3"
     id="rect4" />
  <path
     style="opacity:0.2"
     d="m 10,15 v 4 h 4 v -4 z m 8,0 v 4 h 4 v -4 z m 8,0 v 4 h 4 v -4 z m 8,0 v 4 h 4 v -4 z m -24,8 v 4 h 4 v -4 z m 8,0 v 4 h 4 v -4 z m 8,0 v 4 h 4 v -4 z m 8,0 v 4 h 4 v -4 z m -24,8 v 4 h 28 v -4 z"
     id="path6" />
  <rect
     style="fill:#ffffff"
     width="4"
     height="4"
     x="10"
     y="14"
     id="rect8" />
  <rect
     style="fill:#ffffff"
     width="4"
     height="4"
     x="18"
     y="14"
     id="rect10" />
  <rect
     style="fill:#ffffff"
     width="4"
     height="4"
     x="26"
     y="14"
     id="rect12" />
  <rect
     style="fill:#ffffff"
     width="4"
     height="4"
     x="34"
     y="14"
     id="rect14" />
  <rect
     style="fill:#ffffff"
     width="4"
     height="4"
     x="10"
     y="22"
     id="rect16" />
  <rect
     style="fill:#ffffff"
     width="4"
     height="4"
     x="18"
     y="22"
     id="rect18" />
  <rect
     style="fill:#ffffff"
     width="4"
     height="4"
     x="26"
     y="22"
     id="rect20" />
  <rect
     style="fill:#ffffff"
     width="4"
     height="4"
     x="34"
     y="22"
     id="rect22" />
  <rect
     style="fill:#ffffff"
     width="28"
     height="4"
     x="10"
     y="30"
     id="rect24" />
  <path
     style="opacity:0.1;fill:#ffffff"
     d="M 7 10 C 5.338 10 4 11.338 4 13 L 4 14 C 4 12.338 5.338 11 7 11 L 41 11 C 42.662 11 44 12.338 44 14 L 44 13 C 44 11.338 42.662 10 41 10 L 7 10 z"
     id="path26" />
</svg>
