<?xml version="1.0" encoding="UTF-8" standalone="no"?>
<svg
   xmlns:dc="http://purl.org/dc/elements/1.1/"
   xmlns:cc="http://creativecommons.org/ns#"
   xmlns:rdf="http://www.w3.org/1999/02/22-rdf-syntax-ns#"
   xmlns:svg="http://www.w3.org/2000/svg"
   xmlns="http://www.w3.org/2000/svg"
   xmlns:sodipodi="http://sodipodi.sourceforge.net/DTD/sodipodi-0.dtd"
   xmlns:inkscape="http://www.inkscape.org/namespaces/inkscape"
   width="48"
   height="48"
   version="1"
   id="svg12"
   sodipodi:docname="foxitpdf.svg"
   inkscape:version="0.92.5 (2060ec1f9f, 2020-04-08)">
  <metadata
     id="metadata18">
    <rdf:RDF>
      <cc:Work
         rdf:about="">
        <dc:format>image/svg+xml</dc:format>
        <dc:type
           rdf:resource="http://purl.org/dc/dcmitype/StillImage" />
      </cc:Work>
    </rdf:RDF>
  </metadata>
  <defs
     id="defs16" />
  <sodipodi:namedview
     pagecolor="#ffffff"
     bordercolor="#666666"
     borderopacity="1"
     objecttolerance="10"
     gridtolerance="10"
     guidetolerance="10"
     inkscape:pageopacity="0"
     inkscape:pageshadow="2"
     inkscape:window-width="765"
     inkscape:window-height="480"
     id="namedview14"
     showgrid="false"
     inkscape:zoom="4.9166667"
     inkscape:cx="24"
     inkscape:cy="24"
     inkscape:window-x="0"
     inkscape:window-y="28"
     inkscape:window-maximized="0"
     inkscape:current-layer="svg12" />
  <rect
     fill="#f18d00"
     width="40"
     height="40"
     x="4"
     y="4"
     rx="20"
     ry="20"
     id="rect2"
     style="fill:#4c566a;fill-opacity:1" />
  <path
     fill="#fff"
     opacity=".2"
     d="m24 4c-11.08 0-20 8.92-20 20 0 0.168 0.008 0.333 0.0117 0.5 0.2647-10.846 9.0763-19.5 19.988-19.5s19.724 8.6539 19.988 19.5c0.004-0.16686 0.0117-0.33213 0.0117-0.5 0-11.08-8.92-20-20-20z"
     id="path4" />
  <path
     opacity=".2"
     d="m4.0117 24.5c-0.0041 0.167-0.0117 0.332-0.0117 0.5 0 11.08 8.92 20 20 20s20-8.92 20-20c0-0.168-0.008-0.333-0.012-0.5-0.264 10.846-9.076 19.5-19.988 19.5s-19.724-8.654-19.988-19.5z"
     id="path6" />
  <path
     fill-rule="evenodd"
     opacity=".2"
     d="m37.999 20.755c-2.624-11.091-12.701-10.998-18.786-8.103-6.403 3.236-11.039 11.531-8.511 18.476 3.909 10.477 18.298 10.32 23.166 0.577 1.584-3.712 1.621-5.711-0.868-9.71v3.9984l-2-2.9988s-1.2426 3.5421-2.5625 4.8818c-1.8369 1.8641-4.6085 0.47015-4.4375 1.1157 0.49097 1.856 4 2.9988 4 2.9988-10 3.5352-10.11-3.1571-10-4.998 0.31598-5.2982 4.9757-9.3034 10.587-9.0084 1.79 0.137 5.413 2.011 5.413 2.011-1.2879-2.9471-3.9221-4.2464-5-4.798 4.2258-1.3973 7.0811 3.0158 9 5.5558z"
     id="path8" />
  <path
     fill="#fff"
     fill-rule="evenodd"
     d="m37.999 19.755c-2.624-11.091-12.701-10.998-18.786-8.103-6.403 3.236-11.039 11.531-8.511 18.476 3.909 10.477 18.298 10.32 23.166 0.577 1.584-3.712 1.621-5.711-0.868-9.71v3.9984l-2-2.9988s-1.2426 3.5421-2.5625 4.8818c-1.8369 1.8641-4.6085 0.47015-4.4375 1.1157 0.49097 1.856 4 2.9988 4 2.9988-10 3.5352-10.11-3.1571-10-4.998 0.31598-5.2982 4.9757-9.3034 10.587-9.0084 1.79 0.137 5.413 2.011 5.413 2.011-1.2879-2.9471-3.9221-4.2464-5-4.798 4.2258-1.3973 7.0811 3.0158 9 5.5558z"
     id="path10" />
</svg>
