<?xml version="1.0" encoding="UTF-8" standalone="no"?>
<svg
   xmlns:dc="http://purl.org/dc/elements/1.1/"
   xmlns:cc="http://creativecommons.org/ns#"
   xmlns:rdf="http://www.w3.org/1999/02/22-rdf-syntax-ns#"
   xmlns:svg="http://www.w3.org/2000/svg"
   xmlns="http://www.w3.org/2000/svg"
   xmlns:sodipodi="http://sodipodi.sourceforge.net/DTD/sodipodi-0.dtd"
   xmlns:inkscape="http://www.inkscape.org/namespaces/inkscape"
   width="48"
   height="48"
   version="1.1"
   id="svg30"
   sodipodi:docname="appimagekit-freezer.svg"
   inkscape:version="0.92.5 (2060ec1f9f, 2020-04-08)">
  <metadata
     id="metadata36">
    <rdf:RDF>
      <cc:Work
         rdf:about="">
        <dc:format>image/svg+xml</dc:format>
        <dc:type
           rdf:resource="http://purl.org/dc/dcmitype/StillImage" />
      </cc:Work>
    </rdf:RDF>
  </metadata>
  <defs
     id="defs34" />
  <sodipodi:namedview
     pagecolor="#ffffff"
     bordercolor="#666666"
     borderopacity="1"
     objecttolerance="10"
     gridtolerance="10"
     guidetolerance="10"
     inkscape:pageopacity="0"
     inkscape:pageshadow="2"
     inkscape:window-width="783"
     inkscape:window-height="480"
     id="namedview32"
     showgrid="false"
     inkscape:zoom="4.9166667"
     inkscape:cx="24"
     inkscape:cy="24"
     inkscape:window-x="0"
     inkscape:window-y="28"
     inkscape:window-maximized="0"
     inkscape:current-layer="svg30" />
  <path
     style="opacity:0.2"
     d="M 10,37 V 40 C 10,41.309083 10.835311,42.406799 12,42.818359 V 43.5 C 12,44.331 12.669,45 13.5,45 H 16.5 C 17.331,45 18,44.331 18,43.5 V 43 H 30 V 43.5 C 30,44.331 30.669,45 31.5,45 H 34.5 C 35.331,45 36,44.331 36,43.5 V 42.818359 C 37.164689,42.406799 38,41.309083 38,40 V 37 Z"
     id="path2" />
  <path
     style="fill:#737d91;fill-opacity:1"
     d="M 13,4 C 11.338,4 10,5.338 10,7 V 11 H 38 V 7 C 38,5.338 36.662,4 35,4 Z"
     id="path4" />
  <path
     style="fill:#4c566a;fill-opacity:1"
     d="M 10,36 V 39 C 10,40.662 11.338,42 13,42 H 35 C 36.662,42 38,40.662 38,39 V 36 Z"
     id="path6" />
  <rect
     style="fill:#697387;fill-opacity:1"
     width="28"
     height="7"
     x="10"
     y="11"
     id="rect8" />
  <rect
     style="fill:#5f697d;fill-opacity:1"
     width="28"
     height="8"
     x="10"
     y="20.1"
     id="rect10" />
  <rect
     style="fill:#555f73;fill-opacity:1"
     width="28"
     height="8"
     x="10"
     y="28"
     id="rect12" />
  <rect
     style="opacity:0.1;fill:#ffffff"
     width="28"
     height="1"
     x="10"
     y="20"
     id="rect14" />
  <path
     style="opacity:0.2"
     d="M 14.984375,9.9860856 A 1.0001,1.0001 0 0 0 14,10.999758 V 15.999758 A 1.0001,1.0001 0 1 0 16,15.999758 V 10.999758 A 1.0001,1.0001 0 0 0 14.984375,9.9860856 Z M 14.984375,23.986086 A 1.0001,1.0001 0 0 0 14,24.999758 V 29.999758 A 1.0001,1.0001 0 1 0 16,29.999758 V 24.999758 A 1.0001,1.0001 0 0 0 14.984375,23.986086 Z"
     id="path16" />
  <path
     style="fill:none;stroke:#ffffff;stroke-width:2;stroke-linecap:round;stroke-linejoin:round"
     d="M 15,10 V 15"
     id="path18" />
  <path
     style="fill:none;stroke:#ffffff;stroke-width:2;stroke-linecap:round;stroke-linejoin:round"
     d="M 15,24 V 29"
     id="path20" />
  <rect
     style="fill:#4c566a;fill-opacity:1"
     width="6"
     height="6"
     x="12"
     y="38"
     rx="1.5"
     ry="1.5"
     id="rect22" />
  <rect
     style="fill:#4c566a;fill-opacity:1"
     width="6"
     height="6"
     x="30"
     y="38"
     rx="1.5"
     ry="1.5"
     id="rect24" />
  <path
     style="opacity:0.2;fill:#ffffff"
     d="M 13 4 C 11.338 4 10 5.338 10 7 L 10 8 C 10 6.338 11.338 5 13 5 L 35 5 C 36.662 5 38 6.338 38 8 L 38 7 C 38 5.338 36.662 4 35 4 L 13 4 z"
     id="path26" />
  <rect
     style="opacity:0.2"
     width="28"
     height="1"
     x="10"
     y="18"
     id="rect28" />
</svg>
