<?xml version="1.0" encoding="UTF-8" standalone="no"?>
<svg
   xmlns:dc="http://purl.org/dc/elements/1.1/"
   xmlns:cc="http://creativecommons.org/ns#"
   xmlns:rdf="http://www.w3.org/1999/02/22-rdf-syntax-ns#"
   xmlns:svg="http://www.w3.org/2000/svg"
   xmlns="http://www.w3.org/2000/svg"
   xmlns:sodipodi="http://sodipodi.sourceforge.net/DTD/sodipodi-0.dtd"
   xmlns:inkscape="http://www.inkscape.org/namespaces/inkscape"
   width="48"
   height="48"
   version="1.1"
   id="svg12"
   sodipodi:docname="gammy.svg"
   inkscape:version="0.92.5 (2060ec1f9f, 2020-04-08)">
  <metadata
     id="metadata18">
    <rdf:RDF>
      <cc:Work
         rdf:about="">
        <dc:format>image/svg+xml</dc:format>
        <dc:type
           rdf:resource="http://purl.org/dc/dcmitype/StillImage" />
      </cc:Work>
    </rdf:RDF>
  </metadata>
  <defs
     id="defs16" />
  <sodipodi:namedview
     pagecolor="#ffffff"
     bordercolor="#666666"
     borderopacity="1"
     objecttolerance="10"
     gridtolerance="10"
     guidetolerance="10"
     inkscape:pageopacity="0"
     inkscape:pageshadow="2"
     inkscape:window-width="783"
     inkscape:window-height="480"
     id="namedview14"
     showgrid="false"
     inkscape:zoom="4.9166667"
     inkscape:cx="24"
     inkscape:cy="24"
     inkscape:window-x="0"
     inkscape:window-y="28"
     inkscape:window-maximized="0"
     inkscape:current-layer="svg12" />
  <circle
     cx="24"
     cy="25"
     r="20"
     style="opacity:.2"
     id="circle2" />
  <circle
     cx="24"
     cy="24"
     r="20"
     style="fill:#4c566a;fill-opacity:1"
     id="circle4" />
  <path
     d="M 24,4 A 20,20 0 0 0 4,24 20,20 0 0 0 4.0215,24.582 20,20 0 0 1 24,5 20,20 0 0 1 43.979,24.418 20,20 0 0 0 44,24 20,20 0 0 0 24,4 Z"
     style="fill:#ffffff;opacity:.1"
     id="path6" />
  <path
     d="m23.696992 14.000365c-1.397668 0.04719-7.966267 4.856449-7.697049 9.467569 0.08064 1.381118 0.999972 4.028504 0.999972 4.028504s-3.020064 3.548356-2.999915 6.040801c0.01862 2.302937 1.525186 3.407148 3.999887 3.461934 2.133792 0.04723 3.912639-1.931417 3.999887-5.00144 0.0459-1.615092-2.548756-6.372928-2.548756-6.372928s7.397999-8.707112 10.54853-8.63139c1.373504 0.03301 2.030412 2.01761 1.999943 4.001152-0.0554 3.606163-2.005159 8.952376-5.99983 9.002591-0.942709 0.01185-2.124617-1.065778-1.999944-2.000576 0.0508-0.380872 0.487471-1.092985 0.999972-1.072309 0.580416 0.02342 0.992072-0.34725 0.999972-0.928267 0.0098-0.724062-0.528604-1.004989-0.999972-1.000288-1.679005 0.01674-2.118367 1.804518-1.999943 3.000864 0.139349 1.407736 1.585791 3.012717 2.999915 3.000864 4.965901-0.04163 8.946897-5.517358 8.999745-10.002879 0.04307-3.655742-2.741186-4.964519-4.999858-5.00144-2.707063-0.04425-6.800473 3.954477-10.999689 8.502447-0.804521-5.976158 5.899312-9.441936 4.900252-10.440505-0.04068-0.04066-0.109942-0.05785-0.203119-0.05471zm-6.331853 14.39477s2.753609 2.836103 2.637691 5.394114c-0.08269 1.824592-1.27797 2.266682-2.385744 2.290659-1.3244 0.02866-2.613314-1.121193-2.617114-2.685289-0.0045-1.844675 2.365167-4.999484 2.365167-4.999484z"
     style="opacity:.2"
     id="path8" />
  <path
     d="m23.696992 13.000365c-1.397668 0.04719-7.966267 4.856449-7.697049 9.467569 0.08064 1.381118 0.999972 4.028504 0.999972 4.028504s-3.020064 3.548356-2.999915 6.040801c0.01862 2.302937 1.525186 3.407148 3.999887 3.461934 2.133792 0.04723 3.912639-1.931417 3.999887-5.00144 0.0459-1.615092-2.548756-6.372928-2.548756-6.372928s7.397999-8.707112 10.54853-8.63139c1.373504 0.03301 2.030412 2.01761 1.999943 4.001152-0.0554 3.606163-2.005159 8.952376-5.99983 9.002591-0.942709 0.01185-2.124617-1.065778-1.999944-2.000576 0.0508-0.380872 0.487471-1.092985 0.999972-1.072309 0.580416 0.02342 0.992072-0.34725 0.999972-0.928267 0.0098-0.724062-0.528604-1.004989-0.999972-1.000288-1.679005 0.01674-2.118367 1.804518-1.999943 3.000864 0.139349 1.407736 1.585791 3.012717 2.999915 3.000864 4.965901-0.04163 8.946897-5.517358 8.999745-10.002879 0.04307-3.655742-2.741186-4.964519-4.999858-5.00144-2.707063-0.04425-6.800473 3.954477-10.999689 8.502447-0.804521-5.976158 5.899312-9.441936 4.900252-10.440505-0.04068-0.04066-0.109942-0.05785-0.203119-0.05471zm-6.331853 14.39477s2.753609 2.836103 2.637691 5.394114c-0.08269 1.824592-1.27797 2.266682-2.385744 2.290659-1.3244 0.02866-2.613314-1.121193-2.617114-2.685289-0.0045-1.844675 2.365167-4.999484 2.365167-4.999484z"
     style="fill:#ffffff"
     id="path10" />
</svg>
