<?xml version="1.0" encoding="UTF-8" standalone="no"?>
<svg
   xmlns:dc="http://purl.org/dc/elements/1.1/"
   xmlns:cc="http://creativecommons.org/ns#"
   xmlns:rdf="http://www.w3.org/1999/02/22-rdf-syntax-ns#"
   xmlns:svg="http://www.w3.org/2000/svg"
   xmlns="http://www.w3.org/2000/svg"
   xmlns:sodipodi="http://sodipodi.sourceforge.net/DTD/sodipodi-0.dtd"
   xmlns:inkscape="http://www.inkscape.org/namespaces/inkscape"
   width="48"
   height="48"
   version="1"
   id="svg12"
   sodipodi:docname="gear-up.svg"
   inkscape:version="0.92.5 (2060ec1f9f, 2020-04-08)">
  <metadata
     id="metadata18">
    <rdf:RDF>
      <cc:Work
         rdf:about="">
        <dc:format>image/svg+xml</dc:format>
        <dc:type
           rdf:resource="http://purl.org/dc/dcmitype/StillImage" />
      </cc:Work>
    </rdf:RDF>
  </metadata>
  <defs
     id="defs16" />
  <sodipodi:namedview
     pagecolor="#ffffff"
     bordercolor="#666666"
     borderopacity="1"
     objecttolerance="10"
     gridtolerance="10"
     guidetolerance="10"
     inkscape:pageopacity="0"
     inkscape:pageshadow="2"
     inkscape:window-width="765"
     inkscape:window-height="480"
     id="namedview14"
     showgrid="false"
     inkscape:zoom="4.9166667"
     inkscape:cx="-2.9491525"
     inkscape:cy="24"
     inkscape:window-x="0"
     inkscape:window-y="28"
     inkscape:window-maximized="0"
     inkscape:current-layer="svg12" />
  <rect
     style="fill:#4c566a;fill-opacity:1"
     width="40"
     height="40"
     x="4"
     y="4"
     rx="2"
     ry="2"
     id="rect2" />
  <path
     fill="#fff"
     style="opacity:0.1"
     d="m6 4c-1.108 0-2 0.892-2 2v1c0-1.108 0.892-2 2-2h36c1.108 0 2 0.892 2 2v-1c0-1.108-0.892-2-2-2h-36z"
     id="path4" />
  <path
     opacity=".2"
     d="m6 45c-1.108 0-2-0.892-2-2v-1c0 1.108 0.892 2 2 2h36c1.108 0 2-0.892 2-2v1c0 1.108-0.892 2-2 2h-36z"
     id="path6" />
  <path
     style="opacity:0.2"
     d="m 24.5,9 c -10,0 -14.374552,8.690506 -14.5,16 -0.1216074,7.08572 4,15 13,15 7,0 9,-4 9,-4 l 1,4 h 5 V 23 H 25 v 6 h 5 c 0,0 0,4 -6,4 -5,0 -7,-4.199415 -7,-8 0,-3.800585 2.5,-9 7.5,-9 5,0 6.5,4 6.5,4 h 7 C 38,20 36.5,9 24.5,9 Z"
     id="path8" />
  <path
     style="fill:#ffffff;fill-opacity:1"
     d="m 24.5,8 c -10,0 -14.374552,8.690506 -14.5,16 -0.1216074,7.08572 4,15 13,15 7,0 9,-4 9,-4 l 1,4 h 5 V 22 H 25 v 6 h 5 c 0,0 0,4 -6,4 -5,0 -7,-4.199415 -7,-8 0,-3.800585 2.5,-9 7.5,-9 5,0 6.5,4 6.5,4 h 7 C 38,19 36.5,8 24.5,8 Z"
     id="path10" />
</svg>
