<?xml version="1.0" encoding="UTF-8" standalone="no"?>
<svg
   xmlns:dc="http://purl.org/dc/elements/1.1/"
   xmlns:cc="http://creativecommons.org/ns#"
   xmlns:rdf="http://www.w3.org/1999/02/22-rdf-syntax-ns#"
   xmlns:svg="http://www.w3.org/2000/svg"
   xmlns="http://www.w3.org/2000/svg"
   xmlns:sodipodi="http://sodipodi.sourceforge.net/DTD/sodipodi-0.dtd"
   xmlns:inkscape="http://www.inkscape.org/namespaces/inkscape"
   width="48"
   height="48"
   version="1"
   id="svg48"
   sodipodi:docname="brave-bnbaboaihhkjoaolfnfoablhllahjnee-Default.svg"
   inkscape:version="0.92.5 (2060ec1f9f, 2020-04-08)">
  <metadata
     id="metadata54">
    <rdf:RDF>
      <cc:Work
         rdf:about="">
        <dc:format>image/svg+xml</dc:format>
        <dc:type
           rdf:resource="http://purl.org/dc/dcmitype/StillImage" />
      </cc:Work>
    </rdf:RDF>
  </metadata>
  <defs
     id="defs52" />
  <sodipodi:namedview
     pagecolor="#ffffff"
     bordercolor="#666666"
     borderopacity="1"
     objecttolerance="10"
     gridtolerance="10"
     guidetolerance="10"
     inkscape:pageopacity="0"
     inkscape:pageshadow="2"
     inkscape:window-width="783"
     inkscape:window-height="480"
     id="namedview50"
     showgrid="false"
     inkscape:zoom="4.9166667"
     inkscape:cx="24"
     inkscape:cy="24"
     inkscape:window-x="0"
     inkscape:window-y="28"
     inkscape:window-maximized="0"
     inkscape:current-layer="svg48" />
  <rect
     style="opacity:0.2"
     width="12"
     height="12"
     x="-46"
     y="-19"
     rx="6"
     ry="6"
     transform="matrix(0,-1,-1,0,0,0)"
     id="rect2" />
  <ellipse
     style="opacity:0.2"
     cx="10.168"
     cy="32.755"
     rx="19.833"
     ry="14.82"
     transform="matrix(0.84603999,-0.53311944,0.43955441,0.89821596,0,0)"
     id="ellipse4" />
  <ellipse
     style="fill:#4c566a;fill-opacity:1"
     cx="10.61"
     cy="31.904"
     rx="19.833"
     ry="14.82"
     transform="matrix(0.84603999,-0.53311944,0.43955441,0.89821596,0,0)"
     id="ellipse6" />
  <rect
     style="opacity:0.2"
     width="12"
     height="12"
     x="-28"
     y="-14"
     rx="6"
     ry="6"
     transform="matrix(0,-1,-1,0,0,0)"
     id="rect8" />
  <path
     style="opacity:0.1;fill:#ffffff"
     d="M 28.828125,6.0078125 A 14.632778,19.972025 50.459792 0 0 16.486328,9.6875 14.632778,19.972025 50.459792 0 0 5.0253906,28.34375 14.632778,19.972025 50.459792 0 1 16.486328,10.6875 14.632778,19.972025 50.459792 0 1 39.779297,13.425781 14.632778,19.972025 50.459792 0 1 40.974609,18.65625 14.632778,19.972025 50.459792 0 0 39.779297,12.425781 14.632778,19.972025 50.459792 0 0 28.828125,6.0078125 Z"
     id="path10" />
  <rect
     style="opacity:0.2"
     width="12"
     height="12"
     x="-16"
     y="-29"
     rx="6"
     ry="6"
     transform="matrix(0,-1,-1,0,0,0)"
     id="rect12" />
  <rect
     style="fill:#3e3e3e"
     width="12"
     height="12"
     x="-15"
     y="-29"
     rx="6"
     ry="6"
     transform="matrix(0,-1,-1,0,0,0)"
     id="rect14" />
  <rect
     style="opacity:0.2"
     width="8"
     height="8"
     x="-14"
     y="-27"
     rx="4"
     ry="4"
     transform="matrix(0,-1,-1,0,0,0)"
     id="rect16" />
  <rect
     style="fill:#f2f2ff;fill-opacity:1"
     width="8"
     height="8"
     x="-13"
     y="-27"
     rx="4"
     ry="4"
     transform="matrix(0,-1,-1,0,0,0)"
     id="rect18" />
  <rect
     style="opacity:0.2"
     width="12"
     height="12"
     x="-26"
     y="-46"
     rx="6"
     ry="6"
     transform="matrix(0,-1,-1,0,0,0)"
     id="rect20" />
  <rect
     style="fill:#3e3e3e"
     width="12"
     height="12"
     x="-25"
     y="-46"
     rx="6"
     ry="6"
     transform="matrix(0,-1,-1,0,0,0)"
     id="rect22" />
  <rect
     style="opacity:0.2"
     width="8"
     height="8"
     x="-24"
     y="-44"
     rx="4"
     ry="4"
     transform="matrix(0,-1,-1,0,0,0)"
     id="rect24" />
  <rect
     style="fill:#ffffff;fill-opacity:1"
     width="8"
     height="8"
     x="-23"
     y="-44"
     rx="4"
     ry="4"
     transform="matrix(0,-1,-1,0,0,0)"
     id="rect26" />
  <rect
     style="opacity:0.2"
     width="12"
     height="12"
     x="-42"
     y="-37"
     rx="6"
     ry="6"
     transform="matrix(0,-1,-1,0,0,0)"
     id="rect28" />
  <rect
     style="fill:#3e3e3e"
     width="12"
     height="12"
     x="-41"
     y="-37"
     rx="6"
     ry="6"
     transform="matrix(0,-1,-1,0,0,0)"
     id="rect30" />
  <rect
     style="opacity:0.2"
     width="8"
     height="8"
     x="-40"
     y="-35"
     rx="4"
     ry="4"
     transform="matrix(0,-1,-1,0,0,0)"
     id="rect32" />
  <rect
     style="fill:#ffffff;fill-opacity:1"
     width="8"
     height="8"
     x="-39"
     y="-35"
     rx="4"
     ry="4"
     transform="matrix(0,-1,-1,0,0,0)"
     id="rect34" />
  <rect
     style="fill:#3e3e3e"
     width="12"
     height="12"
     x="-45"
     y="-19"
     rx="6"
     ry="6"
     transform="matrix(0,-1,-1,0,0,0)"
     id="rect36" />
  <rect
     style="opacity:0.2"
     width="8"
     height="8"
     x="-44"
     y="-17"
     rx="4"
     ry="4"
     transform="matrix(0,-1,-1,0,0,0)"
     id="rect38" />
  <rect
     style="fill:#ffffff;fill-opacity:1"
     width="8"
     height="8"
     x="-43"
     y="-17"
     rx="4"
     ry="4"
     transform="matrix(0,-1,-1,0,0,0)"
     id="rect40" />
  <rect
     style="fill:#3e3e3e"
     width="12"
     height="12"
     x="-27"
     y="-14"
     rx="6"
     ry="6"
     transform="matrix(0,-1,-1,0,0,0)"
     id="rect42" />
  <rect
     style="opacity:0.2"
     width="8"
     height="8"
     x="-26"
     y="-12"
     rx="4"
     ry="4"
     transform="matrix(0,-1,-1,0,0,0)"
     id="rect44" />
  <rect
     style="fill:#ffffff;fill-opacity:1"
     width="8"
     height="8"
     x="-25"
     y="-12"
     rx="4"
     ry="4"
     transform="matrix(0,-1,-1,0,0,0)"
     id="rect46" />
</svg>
