<?xml version="1.0" encoding="UTF-8" standalone="no"?>
<svg
   xmlns:dc="http://purl.org/dc/elements/1.1/"
   xmlns:cc="http://creativecommons.org/ns#"
   xmlns:rdf="http://www.w3.org/1999/02/22-rdf-syntax-ns#"
   xmlns:svg="http://www.w3.org/2000/svg"
   xmlns="http://www.w3.org/2000/svg"
   xmlns:sodipodi="http://sodipodi.sourceforge.net/DTD/sodipodi-0.dtd"
   xmlns:inkscape="http://www.inkscape.org/namespaces/inkscape"
   width="48"
   height="48"
   version="1"
   id="svg14"
   sodipodi:docname="git.svg"
   inkscape:version="0.92.5 (2060ec1f9f, 2020-04-08)">
  <metadata
     id="metadata20">
    <rdf:RDF>
      <cc:Work
         rdf:about="">
        <dc:format>image/svg+xml</dc:format>
        <dc:type
           rdf:resource="http://purl.org/dc/dcmitype/StillImage" />
      </cc:Work>
    </rdf:RDF>
  </metadata>
  <defs
     id="defs18" />
  <sodipodi:namedview
     pagecolor="#ffffff"
     bordercolor="#666666"
     borderopacity="1"
     objecttolerance="10"
     gridtolerance="10"
     guidetolerance="10"
     inkscape:pageopacity="0"
     inkscape:pageshadow="2"
     inkscape:window-width="765"
     inkscape:window-height="480"
     id="namedview16"
     showgrid="false"
     inkscape:zoom="4.9166667"
     inkscape:cx="-2.9491525"
     inkscape:cy="24"
     inkscape:window-x="0"
     inkscape:window-y="28"
     inkscape:window-maximized="0"
     inkscape:current-layer="svg14" />
  <path
     style="opacity:0.2"
     d="m 23.99939,3.9999997 c -1.10005,0 -2.200835,0.4100214 -3.023149,1.2323158 L 4.2322781,21.978145 c -1.644629,1.644587 -1.642296,4.39682 0.0024,6.041409 L 20.978641,44.765383 c 1.644629,1.644589 4.399315,1.646922 6.043944,0.0024 L 43.766548,28.021955 c 1.644628,-1.644589 1.644629,-4.399178 0,-6.043766 L 27.022541,5.2323155 C 26.200227,4.4100212 25.099441,3.9999997 23.99939,3.9999997 Z"
     id="path2" />
  <path
     style="fill:#4c566a;fill-opacity:1"
     d="M 23.99939,3 C 22.89934,3 21.798555,3.4100214 20.976241,4.2323158 L 4.2322781,20.978145 c -1.644629,1.644587 -1.642296,4.39682 0.0024,6.041409 L 20.978641,43.765383 c 1.644629,1.644589 4.399315,1.646922 6.043944,0.0024 L 43.766548,27.021955 c 1.644628,-1.644589 1.644629,-4.399178 0,-6.043766 L 27.022541,4.2323158 C 26.200227,3.4100215 25.099441,3 23.99939,3 Z"
     id="path4" />
  <path
     style="fill:#3f3f3f;fill-rule:evenodd"
     d="M 15.3125 9.8984375 L 13.898438 11.3125 L 20 17.414062 L 20 32 L 22 32 L 22 19.414062 L 28.292969 25.707031 L 29.707031 24.292969 L 15.3125 9.8984375 z"
     id="path6" />
  <path
     style="opacity:0.2"
     d="m 21,14 a 4,4 0 0 0 -4,4 4,4 0 0 0 4,4 4,4 0 0 0 4,-4 4,4 0 0 0 -4,-4 z m 8,8 a 4,4 0 0 0 -4,4 4,4 0 0 0 4,4 4,4 0 0 0 4,-4 4,4 0 0 0 -4,-4 z m -8,7 a 4,4 0 0 0 -4,4 4,4 0 0 0 4,4 4,4 0 0 0 4,-4 4,4 0 0 0 -4,-4 z"
     id="path8" />
  <path
     style="fill:#ffffff"
     d="M 21 13 A 4 4 0 0 0 17 17 A 4 4 0 0 0 21 21 A 4 4 0 0 0 25 17 A 4 4 0 0 0 21 13 z M 29 21 A 4 4 0 0 0 25 25 A 4 4 0 0 0 29 29 A 4 4 0 0 0 33 25 A 4 4 0 0 0 29 21 z M 21 28 A 4 4 0 0 0 17 32 A 4 4 0 0 0 21 36 A 4 4 0 0 0 25 32 A 4 4 0 0 0 21 28 z"
     id="path10" />
  <path
     style="opacity:0.2;fill:#ffffff"
     d="M 24,3 C 22.89995,3 21.798876,3.4101275 20.976562,4.2324219 L 4.2324219,20.978516 C 3.2862751,21.924638 2.9037262,23.234678 3.046875,24.492188 3.1538236,23.568432 3.5371786,22.673741 4.2324219,21.978516 L 20.976562,5.2324219 C 21.798876,4.4101275 22.89995,4 24,4 c 1.100051,0 2.201124,0.4101276 3.023438,1.2324219 L 43.765625,21.978516 c 0.696999,0.696981 1.081282,1.594754 1.1875,2.521484 0.144413,-1.259969 -0.23987,-2.573878 -1.1875,-3.521484 L 27.023438,4.2324219 C 26.201124,3.4101276 25.100051,3 24,3 Z"
     id="path12" />
</svg>
