<?xml version="1.0" encoding="UTF-8" standalone="no"?>
<svg
   xmlns:dc="http://purl.org/dc/elements/1.1/"
   xmlns:cc="http://creativecommons.org/ns#"
   xmlns:rdf="http://www.w3.org/1999/02/22-rdf-syntax-ns#"
   xmlns:svg="http://www.w3.org/2000/svg"
   xmlns="http://www.w3.org/2000/svg"
   xmlns:sodipodi="http://sodipodi.sourceforge.net/DTD/sodipodi-0.dtd"
   xmlns:inkscape="http://www.inkscape.org/namespaces/inkscape"
   width="48"
   height="48"
   version="1.1"
   id="svg26"
   sodipodi:docname="gitahead.svg"
   inkscape:version="0.92.5 (2060ec1f9f, 2020-04-08)">
  <metadata
     id="metadata32">
    <rdf:RDF>
      <cc:Work
         rdf:about="">
        <dc:format>image/svg+xml</dc:format>
        <dc:type
           rdf:resource="http://purl.org/dc/dcmitype/StillImage" />
      </cc:Work>
    </rdf:RDF>
  </metadata>
  <defs
     id="defs30" />
  <sodipodi:namedview
     pagecolor="#ffffff"
     bordercolor="#666666"
     borderopacity="1"
     objecttolerance="10"
     gridtolerance="10"
     guidetolerance="10"
     inkscape:pageopacity="0"
     inkscape:pageshadow="2"
     inkscape:window-width="765"
     inkscape:window-height="480"
     id="namedview28"
     showgrid="false"
     inkscape:zoom="2.4583333"
     inkscape:cx="5.8968523"
     inkscape:cy="49.310573"
     inkscape:window-x="0"
     inkscape:window-y="28"
     inkscape:window-maximized="0"
     inkscape:current-layer="svg26" />
  <circle
     style="opacity:0.2"
     cx="24"
     cy="25"
     r="20"
     id="circle2" />
  <circle
     style="fill:#4c566a;fill-opacity:1"
     cx="24"
     cy="24"
     r="20"
     id="circle4" />
  <path
     style="opacity:0.1;fill:#ffffff"
     d="M 24,4 A 20,20 0 0 0 4,24 20,20 0 0 0 4.0215,24.582 20,20 0 0 1 24,5 20,20 0 0 1 43.979,24.418 20,20 0 0 0 44,24 20,20 0 0 0 24,4 Z"
     id="path6" />
  <path
     style="fill:none;stroke:#fdf9f6;stroke-width:1px;stroke-opacity:1"
     d="M 25,24 19.708029,29.751825 19.309887,32.605176 16.5,35.5"
     id="path8" />
  <path
     style="fill:none;stroke:#ffffff;stroke-width:1px;stroke-opacity:1"
     d="m 23,22 -6.211679,4.500332 H 13.669542 L 10.5,28.5"
     id="path10" />
  <path
     style="fill:none;stroke:#ffffff;stroke-width:1px;stroke-opacity:1"
     d="M 24,23 11.5,34.5"
     id="path12" />
  <circle
     style="fill:#ffffff;fill-opacity:1"
     cx="11.5"
     cy="34.5"
     r="1.5"
     id="circle14" />
  <circle
     style="fill:#ffffff;fill-opacity:1"
     cx="10.5"
     cy="28.5"
     r="1.5"
     id="circle16" />
  <circle
     style="fill:#ffffff;fill-opacity:1"
     cx="16.5"
     cy="35.5"
     r="1.5"
     id="circle18" />
  <path
     style="opacity:0.2"
     d="m 42.231901,6.0000716 a 1.7840464,1.7779311 0 0 0 -0.66895,0.1232622 L 12.129129,17.678731 a 1.7840464,1.7779311 0 0 0 0.466872,3.421828 c 3.074183,0.323267 6.813904,2.679567 9.663199,5.782907 2.849293,3.10334 4.736285,6.945719 4.794144,9.380078 a 1.7840464,1.7779311 0 0 0 3.398757,0.713532 L 43.83111,8.5330228 A 1.7840464,1.7779311 0 0 0 42.231901,6.0000716 Z"
     id="path20" />
  <path
     style="fill:#ffffff;fill-opacity:1"
     d="m 42.231901,5.000072 a 1.7840464,1.7779311 0 0 0 -0.66895,0.1232622 L 12.129129,16.678731 a 1.7840464,1.7779311 0 0 0 0.466872,3.421828 c 3.074183,0.323267 6.813904,2.679567 9.663199,5.782907 2.849293,3.10334 4.736285,6.945719 4.794144,9.380078 a 1.7840464,1.7779311 0 0 0 3.398757,0.713532 L 43.83111,7.5330232 A 1.7840464,1.7779311 0 0 0 42.231901,5.000072 Z"
     id="path22" />
  <path
     style="opacity:0.2;fill:#ffffff"
     d="M 42.232422 5 A 1.7840464 1.7779311 0 0 0 41.5625 5.1230469 L 12.128906 16.679688 A 1.7840464 1.7779311 0 0 0 11.072266 18.830078 A 1.7840464 1.7779311 0 0 1 12.128906 17.679688 L 41.5625 6.1230469 A 1.7840464 1.7779311 0 0 1 42.232422 6 A 1.7840464 1.7779311 0 0 1 43.925781 7.2753906 A 1.7840464 1.7779311 0 0 0 42.232422 5 z"
     id="path24" />
</svg>
