<?xml version="1.0" encoding="UTF-8" standalone="no"?>
<svg
   xmlns:dc="http://purl.org/dc/elements/1.1/"
   xmlns:cc="http://creativecommons.org/ns#"
   xmlns:rdf="http://www.w3.org/1999/02/22-rdf-syntax-ns#"
   xmlns:svg="http://www.w3.org/2000/svg"
   xmlns="http://www.w3.org/2000/svg"
   xmlns:sodipodi="http://sodipodi.sourceforge.net/DTD/sodipodi-0.dtd"
   xmlns:inkscape="http://www.inkscape.org/namespaces/inkscape"
   width="48"
   height="48"
   version="1"
   id="svg44"
   sodipodi:docname="application-x-glabels.svg"
   inkscape:version="0.92.5 (2060ec1f9f, 2020-04-08)">
  <metadata
     id="metadata50">
    <rdf:RDF>
      <cc:Work
         rdf:about="">
        <dc:format>image/svg+xml</dc:format>
        <dc:type
           rdf:resource="http://purl.org/dc/dcmitype/StillImage" />
      </cc:Work>
    </rdf:RDF>
  </metadata>
  <defs
     id="defs48" />
  <sodipodi:namedview
     pagecolor="#ffffff"
     bordercolor="#666666"
     borderopacity="1"
     objecttolerance="10"
     gridtolerance="10"
     guidetolerance="10"
     inkscape:pageopacity="0"
     inkscape:pageshadow="2"
     inkscape:window-width="954"
     inkscape:window-height="500"
     id="namedview46"
     showgrid="false"
     inkscape:zoom="9.8333333"
     inkscape:cx="15.195605"
     inkscape:cy="23.541815"
     inkscape:window-x="0"
     inkscape:window-y="28"
     inkscape:window-maximized="0"
     inkscape:current-layer="svg44" />
  <rect
     style="fill:#4c566a;fill-opacity:1"
     width="32"
     height="40"
     x="-40"
     y="4"
     rx="2"
     ry="2"
     transform="scale(-1,1)"
     id="rect2" />
  <path
     opacity=".2"
     d="m8 42v1c0 1.108 0.892 2 2 2h28c1.108 0 2-0.892 2-2v-1c0 1.108-0.892 2-2 2h-28c-1.108 0-2-0.892-2-2z"
     id="path4" />
  <path
     fill="#fff"
     opacity=".1"
     d="m10 4c-1.108 0-2 0.892-2 2v1c0-1.108 0.892-2 2-2h28c1.108 0 2 0.892 2 2v-1c0-1.108-0.892-2-2-2h-28z"
     id="path6" />
  <rect
     style="opacity:0.2"
     width="12"
     height="8"
     x="11"
     y="9"
     ry="2"
     id="rect8" />
  <rect
     style="fill:#5f697d;fill-opacity:1"
     width="12"
     height="8"
     x="11"
     y="8"
     ry="2"
     id="rect10" />
  <rect
     style="opacity:0.2"
     width="12"
     height="8"
     x="25"
     y="9"
     ry="2"
     id="rect12" />
  <rect
     style="fill:#5f697d;fill-opacity:1"
     width="12"
     height="8"
     x="25"
     y="8"
     ry="2"
     id="rect14" />
  <rect
     style="opacity:0.2"
     width="12"
     height="8"
     x="11"
     y="19"
     ry="2"
     id="rect16" />
  <rect
     style="fill:#5f697d;fill-opacity:1"
     width="12"
     height="8"
     x="11"
     y="18"
     ry="2"
     id="rect18" />
  <rect
     style="opacity:0.2"
     width="12"
     height="8"
     x="25"
     y="19"
     ry="2"
     id="rect20" />
  <rect
     style="fill:#5f697d;fill-opacity:1"
     width="12"
     height="8"
     x="25"
     y="18"
     ry="2"
     id="rect22" />
  <rect
     style="opacity:0.2"
     width="12"
     height="8"
     x="11"
     y="29"
     ry="2"
     id="rect24" />
  <rect
     style="fill:#5f697d;fill-opacity:1"
     width="12"
     height="8"
     x="11"
     y="28"
     ry="2"
     id="rect26" />
  <rect
     style="opacity:0.2"
     width="12"
     height="8"
     x="25"
     y="29"
     ry="2"
     id="rect28" />
  <rect
     style="fill:#5f697d;fill-opacity:1"
     width="12"
     height="8"
     x="25"
     y="28"
     ry="2"
     id="rect30" />
  <path
     style="opacity:1;fill:#ffffff;fill-opacity:1"
     d="M 14 9 L 14 10 L 20 10 L 20 9 L 14 9 z M 13 12 L 13 13 L 18 13 L 18 12 L 13 12 z M 13 14 L 13 15 L 21 15 L 21 14 L 13 14 z"
     id="path32" />
  <path
     style="opacity:1;fill:#ffffff;fill-opacity:1"
     d="m 28,9 0,1 6,0 0,-1 -6,0 z m -1,3 0,1 5,0 0,-1 -5,0 z m 0,2 0,1 8,0 0,-1 -8,0 z"
     id="path34" />
  <path
     style="opacity:1;fill:#ffffff;fill-opacity:1"
     d="m 14,19 0,1 6,0 0,-1 -6,0 z m -1,3 0,1 5,0 0,-1 -5,0 z m 0,2 0,1 8,0 0,-1 -8,0 z"
     id="path36" />
  <path
     style="opacity:1;fill:#ffffff;fill-opacity:1"
     d="m 28,19 0,1 6,0 0,-1 -6,0 z m -1,3 0,1 5,0 0,-1 -5,0 z m 0,2 0,1 8,0 0,-1 -8,0 z"
     id="path38" />
  <path
     style="opacity:1;fill:#ffffff;fill-opacity:1"
     d="m 14,29 0,1 6,0 0,-1 -6,0 z m -1,3 0,1 5,0 0,-1 -5,0 z m 0,2 0,1 8,0 0,-1 -8,0 z"
     id="path40" />
  <path
     style="opacity:1;fill:#ffffff;fill-opacity:1"
     d="m 28,29 0,1 6,0 0,-1 -6,0 z m -1,3 0,1 5,0 0,-1 -5,0 z m 0,2 0,1 8,0 0,-1 -8,0 z"
     id="path42" />
</svg>
