<?xml version="1.0" encoding="UTF-8" standalone="no"?>
<svg
   xmlns:dc="http://purl.org/dc/elements/1.1/"
   xmlns:cc="http://creativecommons.org/ns#"
   xmlns:rdf="http://www.w3.org/1999/02/22-rdf-syntax-ns#"
   xmlns:svg="http://www.w3.org/2000/svg"
   xmlns="http://www.w3.org/2000/svg"
   xmlns:sodipodi="http://sodipodi.sourceforge.net/DTD/sodipodi-0.dtd"
   xmlns:inkscape="http://www.inkscape.org/namespaces/inkscape"
   height="48"
   width="48"
   version="1.1"
   id="svg24"
   sodipodi:docname="gmtpicon.svg"
   inkscape:version="0.92.5 (2060ec1f9f, 2020-04-08)">
  <metadata
     id="metadata30">
    <rdf:RDF>
      <cc:Work
         rdf:about="">
        <dc:format>image/svg+xml</dc:format>
        <dc:type
           rdf:resource="http://purl.org/dc/dcmitype/StillImage" />
      </cc:Work>
    </rdf:RDF>
  </metadata>
  <defs
     id="defs28" />
  <sodipodi:namedview
     pagecolor="#ffffff"
     bordercolor="#666666"
     borderopacity="1"
     objecttolerance="10"
     gridtolerance="10"
     guidetolerance="10"
     inkscape:pageopacity="0"
     inkscape:pageshadow="2"
     inkscape:window-width="783"
     inkscape:window-height="480"
     id="namedview26"
     showgrid="false"
     inkscape:zoom="4.9166667"
     inkscape:cx="20.820728"
     inkscape:cy="24.95883"
     inkscape:window-x="0"
     inkscape:window-y="28"
     inkscape:window-maximized="0"
     inkscape:current-layer="g22" />
  <g
     transform="matrix(2,0,0,2,2,2)"
     id="g22">
    <rect
       style="opacity:.2"
       rx="1"
       ry="1"
       height="20"
       width="12"
       y="1.5"
       x="5"
       id="rect2" />
    <rect
       style="fill:#4c566a;fill-opacity:1"
       rx="1"
       ry="1"
       height="20"
       width="12"
       y="1"
       x="5"
       id="rect4" />
    <circle
       r="4"
       style="opacity:.2"
       cx="11"
       cy="16.5"
       id="circle6" />
    <circle
       r="4"
       style="fill:#5f697d;fill-opacity:1"
       cx="11"
       cy="16"
       id="circle8" />
    <circle
       r="3"
       style="fill:#ffffff;fill-opacity:1"
       cx="11"
       cy="16"
       id="circle10" />
    <circle
       r="2"
       style="fill:#4f4f4f"
       cx="11"
       cy="16"
       id="circle12" />
    <rect
       style="fill:#ffffff;fill-opacity:1"
       rx="1"
       ry="1"
       height="9"
       width="10"
       y="2"
       x="6"
       id="rect14" />
    <path
       style="opacity:.2;fill:#ffffff"
       d="m11 12a4 4 0 0 0 -4 4 4 4 0 0 0 0.00977 0.283203 4 4 0 0 1 3.99023 -3.783203 4 4 0 0 1 3.990234 3.710938 4 4 0 0 0 0.009766 -0.210938 4 4 0 0 0 -4 -4z"
       id="path16" />
    <path
       style="opacity:.1;fill:#ffffff"
       d="m6 1c-0.554 0-1 0.446-1 1v0.5c0-0.554 0.446-1 1-1h10c0.554 0 1 0.446 1 1v-0.5c0-0.554-0.446-1-1-1z"
       id="path18" />
    <path
       style="opacity:.2"
       d="m7 2c-0.554 0-1 0.446-1 1v0.5c0-0.554 0.446-1 1-1h8c0.554 0 1 0.446 1 1v-0.5c0-0.554-0.446-1-1-1z"
       id="path20" />
  </g>
</svg>
