<?xml version="1.0" encoding="UTF-8" standalone="no"?>
<svg
   xmlns:dc="http://purl.org/dc/elements/1.1/"
   xmlns:cc="http://creativecommons.org/ns#"
   xmlns:rdf="http://www.w3.org/1999/02/22-rdf-syntax-ns#"
   xmlns:svg="http://www.w3.org/2000/svg"
   xmlns="http://www.w3.org/2000/svg"
   xmlns:sodipodi="http://sodipodi.sourceforge.net/DTD/sodipodi-0.dtd"
   xmlns:inkscape="http://www.inkscape.org/namespaces/inkscape"
   width="48"
   height="48"
   version="1"
   id="svg28"
   sodipodi:docname="gnome-chess.svg"
   inkscape:version="0.92.5 (2060ec1f9f, 2020-04-08)">
  <metadata
     id="metadata34">
    <rdf:RDF>
      <cc:Work
         rdf:about="">
        <dc:format>image/svg+xml</dc:format>
        <dc:type
           rdf:resource="http://purl.org/dc/dcmitype/StillImage" />
      </cc:Work>
    </rdf:RDF>
  </metadata>
  <defs
     id="defs32" />
  <sodipodi:namedview
     pagecolor="#ffffff"
     bordercolor="#666666"
     borderopacity="1"
     objecttolerance="10"
     gridtolerance="10"
     guidetolerance="10"
     inkscape:pageopacity="0"
     inkscape:pageshadow="2"
     inkscape:window-width="783"
     inkscape:window-height="480"
     id="namedview30"
     showgrid="false"
     inkscape:zoom="4.9166667"
     inkscape:cx="21.854897"
     inkscape:cy="24.010771"
     inkscape:window-x="0"
     inkscape:window-y="28"
     inkscape:window-maximized="0"
     inkscape:current-layer="svg28" />
  <path
     style="opacity:0.2"
     d="M 15.0031,5 14.9969,8.4443449 6,15.519215 7.7480023,19.056651 12.021592,17.689993 c 0.68054,0.867914 1.715492,1.373902 2.81042,1.374015 1.881586,-0.0022 3.079404,-1.575 3.212988,-3.473671 v -0.0015 3.467804 c -0.0026,1.725524 -0.193689,3.358383 -1.853371,3.753831 -1.480834,0.352999 -1.951506,-0.106867 -3.730788,0.627056 -2.7040677,1.115596 -4.4701021,3.15385 -4.47047,6.108539 L 11,35 h 14 l 3.999974,-5.3776 V 18.463063 c 0,-5.91273 -4.736903,-10.4261259 -10.580015,-10.4261259 -0.06256,0.0026 -0.12512,0.00559 -0.187679,0.00931 C 18.24158,7.753192 18.21389,7.9606308 18.14985,7.6746752 17.795831,6.1118718 16.58771,5.0029789 15.0031,5 Z"
     id="path2" />
  <path
     style="fill:#4c566a;fill-opacity:1"
     d="M 15.0031,4 14.9969,7.4443449 6,14.519215 7.7480023,18.056651 12.021592,16.689993 c 0.68054,0.867914 1.715492,1.373902 2.81042,1.374015 1.881586,-0.0022 3.079404,-1.575 3.212988,-3.473671 v -0.0015 3.467804 c -0.0026,1.725524 -0.193689,3.358383 -1.853371,3.753831 -1.480834,0.352999 -1.951506,-0.106867 -3.730788,0.627056 -2.7040677,1.115596 -4.4701021,3.15385 -4.47047,6.108539 L 11,34 h 14 l 3.999974,-5.3776 V 17.463063 c 0,-5.91273 -4.736903,-10.4261259 -10.580015,-10.4261259 -0.06256,0.0026 -0.12512,0.00559 -0.187679,0.00931 C 18.24158,6.753192 18.21389,6.9606308 18.14985,6.6746752 17.795831,5.1118718 16.58771,4.0029789 15.0031,4 Z"
     id="path4" />
  <path
     style="fill:#ffffff;opacity:0.1"
     d="M 15.003906 4 L 14.996094 7.4453125 L 6 14.519531 L 6.3554688 15.240234 L 14.996094 8.4453125 L 15.003906 5 C 16.588516 5.0029789 17.796372 6.1110247 18.150391 7.6738281 C 18.214431 7.9597837 18.241722 7.7538199 18.232422 8.046875 C 18.294981 8.043155 18.357362 8.0397094 18.419922 8.0371094 C 24.263034 8.0371094 29 12.550161 29 18.462891 L 29 17.462891 C 29 11.550161 24.263034 7.0371094 18.419922 7.0371094 C 18.357362 7.0397094 18.294981 7.043155 18.232422 7.046875 C 18.241722 6.7538199 18.214431 6.9597837 18.150391 6.6738281 C 17.796372 5.1110247 16.588516 4.0029789 15.003906 4 z M 18.044922 18.056641 C 18.042322 19.782165 17.851088 21.415099 16.191406 21.810547 C 14.710572 22.163546 14.24022 21.703577 12.460938 22.4375 C 9.7568698 23.553096 7.9906023 25.592186 7.9902344 28.546875 L 8.0585938 28.669922 C 8.3767821 26.188088 10.034851 24.438411 12.460938 23.4375 C 14.24022 22.703577 14.710572 23.163546 16.191406 22.810547 C 17.851088 22.415099 18.042322 20.782165 18.044922 19.056641 L 18.044922 18.056641 z"
     id="path6" />
  <path
     style="opacity:0.2"
     d="M 10.053293,34 C 8.6265669,34 7,35.729821 7,37 h 23 c 0,-1.270179 -1.626567,-3 -3.053293,-3 z"
     id="path8" />
  <path
     style="fill:#4c566a;fill-opacity:1"
     d="M 10.053293,33 C 8.6265669,33 7,34.729821 7,36 h 23 c 0,-1.270179 -1.626567,-3 -3.053293,-3 z"
     id="path10" />
  <path
     style="fill:#ffffff;opacity:0.1"
     d="M 10.052734 33 C 8.6260083 33 7 34.70443 7 35.974609 L 7.2773438 35.974609 C 7.8012564 34.959021 8.9821001 34 10.052734 34 L 26.947266 34 C 28.018723 34 29.201309 34.976152 29.724609 36 L 30 36 C 30 34.729821 28.373992 33 26.947266 33 L 10.052734 33 z"
     id="path12" />
  <path
     style="fill:#cccccc"
     d="M 32,27 24,43 H 40 Z"
     id="path14" />
  <path
     style="opacity:0.2"
     d="M 24.655037,42 C 23.414406,42 22,43.729821 22,45 h 20 c 0,-1.270179 -1.414406,-3 -2.655037,-3 z"
     id="path16" />
  <path
     style="fill:#e4e4e4"
     d="M 24.655037,41 C 23.414406,41 22,42.729821 22,44 h 20 c 0,-1.270179 -1.414406,-3 -2.655037,-3 z"
     id="path18" />
  <circle
     style="opacity:0.2"
     cx="32"
     cy="25"
     r="7"
     id="circle20" />
  <circle
     style="fill:#e4e4e4"
     cx="32"
     cy="24"
     r="7"
     id="circle22" />
  <path
     style="fill:#ffffff;opacity:0.2"
     d="M 24.654297 41 C 23.413666 41 22 42.70443 22 43.974609 L 22.240234 43.974609 C 22.695797 42.958999 23.723292 42 24.654297 42 L 39.345703 42 C 40.277421 42 41.306687 42.976133 41.761719 44 L 42 44 C 42 42.729821 40.586334 41 39.345703 41 L 24.654297 41 z"
     id="path24" />
  <path
     style="opacity:0.2;fill:#ffffff"
     d="M 32 17 A 7 7 0 0 0 25 24 A 7 7 0 0 0 25.023438 24.541016 A 7 7 0 0 1 32 18 A 7 7 0 0 1 38.976562 24.458984 A 7 7 0 0 0 39 24 A 7 7 0 0 0 32 17 z"
     id="path26" />
</svg>
