<?xml version="1.0" encoding="UTF-8" standalone="no"?>
<svg
   xmlns:dc="http://purl.org/dc/elements/1.1/"
   xmlns:cc="http://creativecommons.org/ns#"
   xmlns:rdf="http://www.w3.org/1999/02/22-rdf-syntax-ns#"
   xmlns:svg="http://www.w3.org/2000/svg"
   xmlns="http://www.w3.org/2000/svg"
   xmlns:sodipodi="http://sodipodi.sourceforge.net/DTD/sodipodi-0.dtd"
   xmlns:inkscape="http://www.inkscape.org/namespaces/inkscape"
   width="48"
   height="48"
   version="1"
   id="svg28"
   sodipodi:docname="gnome-commander.svg"
   inkscape:version="0.92.5 (2060ec1f9f, 2020-04-08)">
  <metadata
     id="metadata34">
    <rdf:RDF>
      <cc:Work
         rdf:about="">
        <dc:format>image/svg+xml</dc:format>
        <dc:type
           rdf:resource="http://purl.org/dc/dcmitype/StillImage" />
      </cc:Work>
    </rdf:RDF>
  </metadata>
  <defs
     id="defs32" />
  <sodipodi:namedview
     pagecolor="#ffffff"
     bordercolor="#666666"
     borderopacity="1"
     objecttolerance="10"
     gridtolerance="10"
     guidetolerance="10"
     inkscape:pageopacity="0"
     inkscape:pageshadow="2"
     inkscape:window-width="783"
     inkscape:window-height="480"
     id="namedview30"
     showgrid="false"
     inkscape:zoom="4.9166667"
     inkscape:cx="24"
     inkscape:cy="24"
     inkscape:window-x="0"
     inkscape:window-y="28"
     inkscape:window-maximized="0"
     inkscape:current-layer="svg28" />
  <path
     fill="#e4e4e4"
     d="m44 40v-31c0-1.108-0.892-2-2-2h-36c-1.108 0-2 0.892-2 2v31c0 1.108 0.892 2 2 2h36c1.108 0 2-0.892 2-2z"
     id="path2"
     style="fill:#4c566a;fill-opacity:1" />
  <path
     fill="#636e73"
     d="m44 12v-4c0-1.108-0.892-2-2-2h-36c-1.108 0-2 0.892-2 2v4z"
     id="path4"
     style="fill:#5f697d;fill-opacity:1" />
  <path
     opacity=".15"
     d="m44 40v-28h-20v30h18c1.108 0 2-0.892 2-2z"
     id="path6" />
  <path
     fill="#fff"
     opacity=".1"
     d="m6 6c-1.108 0-2 0.892-2 2v1c0-1.108 0.892-2 2-2h36c1.108 0 2 0.892 2 2v-1c0-1.108-0.892-2-2-2h-36z"
     id="path8" />
  <path
     opacity=".2"
     d="m4 40v1c0 1.108 0.892 2 2 2h36c1.108 0 2-0.892 2-2v-1c0 1.108-0.892 2-2 2h-36c-1.108 0-2-0.892-2-2z"
     id="path10" />
  <g
     fill="#636e73"
     id="g18"
     style="fill:#ffffff;fill-opacity:1">
    <path
       d="m9 17v1h1v2h-4v-3h3z"
       id="path12"
       style="fill:#ffffff;fill-opacity:1" />
    <path
       d="m9 23v1h1v2h-4v-3h3z"
       id="path14"
       style="fill:#ffffff;fill-opacity:1" />
    <path
       d="m9 29v1h1v2h-4v-3h3z"
       id="path16"
       style="fill:#ffffff;fill-opacity:1" />
  </g>
  <g
     fill="#636e73"
     opacity=".8"
     id="g26"
     style="fill:#ffffff;fill-opacity:1">
    <path
       d="m29 17v1h1v2h-4v-3h3z"
       id="path20"
       style="fill:#ffffff;fill-opacity:1" />
    <path
       d="m29 23v1h1v2h-4v-3h3z"
       id="path22"
       style="fill:#ffffff;fill-opacity:1" />
    <path
       d="m29 29v1h1v2h-4v-3h3z"
       id="path24"
       style="fill:#ffffff;fill-opacity:1" />
  </g>
</svg>
