<?xml version="1.0" encoding="UTF-8" standalone="no"?>
<svg
   xmlns:dc="http://purl.org/dc/elements/1.1/"
   xmlns:cc="http://creativecommons.org/ns#"
   xmlns:rdf="http://www.w3.org/1999/02/22-rdf-syntax-ns#"
   xmlns:svg="http://www.w3.org/2000/svg"
   xmlns="http://www.w3.org/2000/svg"
   xmlns:xlink="http://www.w3.org/1999/xlink"
   xmlns:sodipodi="http://sodipodi.sourceforge.net/DTD/sodipodi-0.dtd"
   xmlns:inkscape="http://www.inkscape.org/namespaces/inkscape"
   width="64"
   height="64"
   version="1.1"
   id="svg14"
   sodipodi:docname="goa-account-fedora.svg"
   inkscape:version="0.92.5 (2060ec1f9f, 2020-04-08)">
  <metadata
     id="metadata20">
    <rdf:RDF>
      <cc:Work
         rdf:about="">
        <dc:format>image/svg+xml</dc:format>
        <dc:type
           rdf:resource="http://purl.org/dc/dcmitype/StillImage" />
      </cc:Work>
    </rdf:RDF>
  </metadata>
  <defs
     id="defs18" />
  <sodipodi:namedview
     pagecolor="#ffffff"
     bordercolor="#666666"
     borderopacity="1"
     objecttolerance="10"
     gridtolerance="10"
     guidetolerance="10"
     inkscape:pageopacity="0"
     inkscape:pageshadow="2"
     inkscape:window-width="765"
     inkscape:window-height="480"
     id="namedview16"
     showgrid="false"
     inkscape:zoom="3.6875"
     inkscape:cx="32"
     inkscape:cy="32"
     inkscape:window-x="0"
     inkscape:window-y="28"
     inkscape:window-maximized="0"
     inkscape:current-layer="g12" />
  <g
     transform="translate(1.978 1.979) scale(.22488)"
     id="g12">
    <path
       d="m266.63 133.51c0-73.525-59.604-133.13-133.13-133.13-73.491 0-133.07 59.554-133.12 133.04v103.02c0.04 16.685 13.571 30.191 30.266 30.191h102.91c73.5-0.029 133.07-59.613 133.07-133.12"
       fill="#294172"
       id="path2"
       style="fill:#4c566a;fill-opacity:1" />
    <path
       id="a"
       d="m77.126 142.1h47.845v47.844c0 26.41-21.434 47.845-47.845 47.845-26.41 0-47.844-21.434-47.844-47.845 0-26.41 21.434-47.844 47.844-47.844z"
       fill="none"
       stroke="#3c6eb4"
       stroke-width="29.21"
       style="stroke:#697387;stroke-opacity:1" />
    <use
       transform="rotate(180 124.86 142.14)"
       width="1"
       height="1"
       xlink:href="#a"
       id="use5" />
    <path
       id="b"
       d="M139.607 127.53v62.345c0 34.504-27.975 62.48-62.48 62.48-5.235 0-8.957-.59-13.803-1.857-7.066-1.85-12.84-7.643-12.842-14.381 0-8.146 5.912-14.07 14.75-14.07 4.206 0 5.733.807 11.895.807 18.191 0 32.947-14.735 32.98-32.926V161.27a4.654 4.654 0 0 0-4.66-4.648l-21.665-.004c-8.072 0-14.594-6.439-14.594-14.533-.004-8.144 6.59-14.556 14.749-14.556"
       fill="#fff" />
    <use
       transform="rotate(180 124.86 142.14)"
       width="1"
       height="1"
       xlink:href="#b"
       id="use8" />
  </g>
</svg>
