<?xml version="1.0" encoding="UTF-8" standalone="no"?>
<svg
   xmlns:dc="http://purl.org/dc/elements/1.1/"
   xmlns:cc="http://creativecommons.org/ns#"
   xmlns:rdf="http://www.w3.org/1999/02/22-rdf-syntax-ns#"
   xmlns:svg="http://www.w3.org/2000/svg"
   xmlns="http://www.w3.org/2000/svg"
   xmlns:sodipodi="http://sodipodi.sourceforge.net/DTD/sodipodi-0.dtd"
   xmlns:inkscape="http://www.inkscape.org/namespaces/inkscape"
   width="48"
   height="48"
   version="1.1"
   id="svg22"
   sodipodi:docname="anbox-com-android-vending.svg"
   inkscape:version="0.92.5 (2060ec1f9f, 2020-04-08)">
  <metadata
     id="metadata28">
    <rdf:RDF>
      <cc:Work
         rdf:about="">
        <dc:format>image/svg+xml</dc:format>
        <dc:type
           rdf:resource="http://purl.org/dc/dcmitype/StillImage" />
      </cc:Work>
    </rdf:RDF>
  </metadata>
  <defs
     id="defs26" />
  <sodipodi:namedview
     pagecolor="#ffffff"
     bordercolor="#666666"
     borderopacity="1"
     objecttolerance="10"
     gridtolerance="10"
     guidetolerance="10"
     inkscape:pageopacity="0"
     inkscape:pageshadow="2"
     inkscape:window-width="783"
     inkscape:window-height="480"
     id="namedview24"
     showgrid="false"
     inkscape:zoom="4.9166667"
     inkscape:cx="24"
     inkscape:cy="24"
     inkscape:window-x="0"
     inkscape:window-y="28"
     inkscape:window-maximized="0"
     inkscape:current-layer="svg22" />
  <path
     style="opacity:0.2"
     d="M 8.9471011,5.0006619 A 2.8796776,2.8318066 0 0 0 7.0624406,5.6393495 l -0.00195,-0.00195 a 2.8796776,2.8318066 0 0 0 -0.085932,0.076174 2.8796776,2.8318066 0 0 0 -0.00195,0.00195 2.8796776,2.8318066 0 0 0 -0.9726088,2.1172392 V 42.173452 a 2.8796776,2.8318066 0 0 0 1.0390046,2.168022 l -0.00195,0.002 a 2.8796776,2.8318066 0 0 0 0.029295,0.02148 2.8796776,2.8318066 0 0 0 0.1542883,0.117191 l 0.00195,-0.002 a 2.8796776,2.8318066 0 0 0 3.0955303,0.144535 l 15.120251,-8.586149 7.942917,-4.507923 -0.002,-0.002 7.181241,-4.074319 a 2.8796776,2.8318066 0 0 0 0,-4.904418 L 33.35785,18.461932 33.25434,18.403336 25.438369,13.965727 10.318118,5.3795774 A 2.8796776,2.8318066 0 0 0 8.9471011,5.0006619 Z"
     id="path2" />
  <path
     style="fill:#4c566a;fill-opacity:1"
     d="M 7.0605474,4.6375785 A 2.8798381,2.831737 0 0 0 5.9999597,6.831082 v 34.339955 a 2.8798381,2.831737 0 0 0 1.2211114,2.309204 L 26.887243,24.14231 v -0.318701 z"
     id="path4" />
  <path
     style="fill:#ffd530"
     d="m 33.256068,17.401799 -6.530888,6.42181 v 0.478101 l 6.451395,6.34361 7.385134,-4.192807 a 2.8798381,2.831737 0 0 0 0,-4.902907 z"
     id="path6" />
  <path
     style="fill:#ffffff;fill-opacity:1"
     d="M 26.72518,23.983009 7.0369558,43.34234 a 2.8798381,2.831737 0 0 0 3.2817702,0.280201 l 15.121577,-8.585014 7.941755,-4.508807 z"
     id="path8" />
  <path
     style="fill:#ffffff;fill-opacity:1"
     d="M 8.9478599,4.0006774 A 2.8798381,2.831737 0 0 0 6.9718235,4.7150786 L 26.72518,23.983009 33.358808,17.460199 25.440303,12.964592 10.318726,4.379578 A 2.8798381,2.831737 0 0 0 8.9478599,4.0006774 Z"
     id="path10" />
  <path
     style="opacity:0.1"
     d="M 26.724609 23.982422 L 7.0371094 43.341797 A 2.8798381 2.831737 0 0 0 7.6601562 43.728516 L 26.724609 24.982422 L 32.738281 30.894531 L 33.382812 30.529297 L 26.724609 23.982422 z"
     id="path12" />
  <path
     style="fill:#ffffff;opacity:0.2"
     d="M 8.9472656 4 A 2.8798381 2.831737 0 0 0 6.9726562 4.7148438 L 7.5800781 5.3066406 A 2.8798381 2.831737 0 0 1 8.9472656 5 A 2.8798381 2.831737 0 0 1 10.318359 5.3789062 L 25.439453 13.964844 L 32.714844 18.09375 L 33.359375 17.460938 L 25.439453 12.964844 L 10.318359 4.3789062 A 2.8798381 2.831737 0 0 0 8.9472656 4 z"
     id="path14" />
  <path
     style="fill:#ffffff;opacity:0.2"
     d="M 7.0605469 4.6367188 A 2.8798381 2.831737 0 0 0 6.9746094 4.7128906 A 2.8798381 2.831737 0 0 1 7.0625 4.6386719 L 7.0605469 4.6367188 z M 6.9726562 4.7148438 A 2.8798381 2.831737 0 0 0 6 6.8320312 L 6 7.8320312 A 2.8798381 2.831737 0 0 1 6.9726562 5.7148438 L 26.212891 24.484375 L 26.724609 23.982422 L 6.9726562 4.7148438 z M 26.724609 23.982422 L 26.886719 24.142578 L 26.886719 23.824219 L 26.724609 23.982422 z M 7.0605469 5.6367188 L 7.0625 5.6386719 A 2.8798381 2.831737 0 0 0 6.9746094 5.7128906 A 2.8798381 2.831737 0 0 1 7.0605469 5.6367188 z"
     id="path16" />
  <path
     style="fill:#5f697d;fill-opacity:1"
     d="M 33.359375 17.460938 L 26.724609 23.982422 L 33.380859 30.527344 L 40.5625 26.453125 A 2.8798381 2.831737 0 0 0 40.5625 21.548828 L 33.359375 17.460938 z"
     id="path18" />
  <path
     style="fill:#ffffff;opacity:0.2"
     d="M 33.359375 17.460938 L 26.724609 23.982422 L 27.232422 24.482422 L 33.359375 18.460938 L 40.5625 22.548828 A 2.8798381 2.831737 0 0 1 41.953125 24.498047 A 2.8798381 2.831737 0 0 0 40.5625 21.548828 L 33.359375 17.460938 z"
     id="path20" />
</svg>
