<?xml version="1.0" encoding="UTF-8" standalone="no"?>
<svg
   xmlns:dc="http://purl.org/dc/elements/1.1/"
   xmlns:cc="http://creativecommons.org/ns#"
   xmlns:rdf="http://www.w3.org/1999/02/22-rdf-syntax-ns#"
   xmlns:svg="http://www.w3.org/2000/svg"
   xmlns="http://www.w3.org/2000/svg"
   xmlns:sodipodi="http://sodipodi.sourceforge.net/DTD/sodipodi-0.dtd"
   xmlns:inkscape="http://www.inkscape.org/namespaces/inkscape"
   width="48"
   height="48"
   version="1.1"
   id="svg26"
   sodipodi:docname="google-webdesigner.svg"
   inkscape:version="0.92.5 (2060ec1f9f, 2020-04-08)">
  <metadata
     id="metadata32">
    <rdf:RDF>
      <cc:Work
         rdf:about="">
        <dc:format>image/svg+xml</dc:format>
        <dc:type
           rdf:resource="http://purl.org/dc/dcmitype/StillImage" />
      </cc:Work>
    </rdf:RDF>
  </metadata>
  <defs
     id="defs30" />
  <sodipodi:namedview
     pagecolor="#ffffff"
     bordercolor="#666666"
     borderopacity="1"
     objecttolerance="10"
     gridtolerance="10"
     guidetolerance="10"
     inkscape:pageopacity="0"
     inkscape:pageshadow="2"
     inkscape:window-width="783"
     inkscape:window-height="480"
     id="namedview28"
     showgrid="false"
     inkscape:zoom="4.9166667"
     inkscape:cx="24"
     inkscape:cy="24"
     inkscape:window-x="0"
     inkscape:window-y="28"
     inkscape:window-maximized="0"
     inkscape:current-layer="svg26" />
  <circle
     style="opacity:0.2"
     cx="29"
     cy="22"
     r="10"
     id="circle2" />
  <circle
     style="fill:#b7b7b7"
     cx="29"
     cy="21"
     r="10"
     id="circle4" />
  <path
     style="opacity:0.2"
     d="M 27.5,4 A 18.5,18.5 0 0 0 9,22.5 18.5,18.5 0 0 0 9.0175781,23 H 6 A 23,23 0 0 0 29,46 V 23 H 28 V 22 H 41.962891 A 14,14 0 0 0 42,21 14,14 0 0 0 28,7 V 4.0175781 A 18.5,18.5 0 0 0 27.5,4 Z"
     id="path6" />
  <path
     style="fill:#4c566a;fill-opacity:1"
     d="M 6 22 A 23 23 0 0 0 29 45 L 29 22 L 6 22 z"
     id="path8" />
  <path
     style="opacity:0.2;fill:#ffffff"
     d="M 6 22 A 23 23 0 0 0 6.0507812 23 L 29 23 L 29 22 L 6 22 z"
     id="path10" />
  <path
     style="fill:#555f73;fill-opacity:1"
     d="M 27.5 3 A 18.5 18.5 0 0 0 9 21.5 A 18.5 18.5 0 0 0 9.0175781 22 L 28 22 L 28 3.0175781 A 18.5 18.5 0 0 0 27.5 3 z"
     id="path12" />
  <path
     style="fill:#5f697d;fill-opacity:1"
     d="M 28 6 L 28 21 L 41.962891 21 A 14 14 0 0 0 42 20 A 14 14 0 0 0 28 6 z"
     id="path14" />
  <path
     style="opacity:0.2"
     d="M 28.5,15 A 8.5,8.5 0 0 0 20,23.5 8.5,8.5 0 0 0 28.5,32 8.5,8.5 0 0 0 29,31.982422 V 27 a 6,6 0 0 0 6,-6 6,6 0 0 0 -6,-6 6,6 0 0 0 -0.289062,0.0098 A 8.5,8.5 0 0 0 28.5,15 Z"
     id="path16" />
  <path
     style="fill:#ffffff"
     d="M 28.5 14 A 8.5 8.5 0 0 0 20 22.5 A 8.5 8.5 0 0 0 28.5 31 A 8.5 8.5 0 0 0 29 30.982422 L 29 14.025391 A 8.5 8.5 0 0 0 28.5 14 z"
     id="path18" />
  <circle
     style="fill:#ffffff"
     cx="29"
     cy="20"
     r="6"
     id="circle20" />
  <path
     style="opacity:0.2;fill:#ffffff"
     d="M 27.5 3 A 18.5 18.5 0 0 0 9 21.5 A 18.5 18.5 0 0 0 9.0175781 22 A 18.5 18.5 0 0 1 27.5 4 A 18.5 18.5 0 0 1 28 4.0175781 L 28 3.0175781 A 18.5 18.5 0 0 0 27.5 3 z"
     id="path22" />
  <path
     style="opacity:0.2;fill:#ffffff"
     d="M 28 6 L 28 7 A 14 14 0 0 1 41.978516 20.576172 A 14 14 0 0 0 42 20 A 14 14 0 0 0 28 6 z"
     id="path24" />
</svg>
