<?xml version="1.0" encoding="UTF-8" standalone="no"?>
<svg
   xmlns:dc="http://purl.org/dc/elements/1.1/"
   xmlns:cc="http://creativecommons.org/ns#"
   xmlns:rdf="http://www.w3.org/1999/02/22-rdf-syntax-ns#"
   xmlns:svg="http://www.w3.org/2000/svg"
   xmlns="http://www.w3.org/2000/svg"
   xmlns:sodipodi="http://sodipodi.sourceforge.net/DTD/sodipodi-0.dtd"
   xmlns:inkscape="http://www.inkscape.org/namespaces/inkscape"
   width="48"
   height="48"
   version="1"
   id="svg18"
   sodipodi:docname="gpk-log.svg"
   inkscape:version="0.92.5 (2060ec1f9f, 2020-04-08)">
  <metadata
     id="metadata24">
    <rdf:RDF>
      <cc:Work
         rdf:about="">
        <dc:format>image/svg+xml</dc:format>
        <dc:type
           rdf:resource="http://purl.org/dc/dcmitype/StillImage" />
      </cc:Work>
    </rdf:RDF>
  </metadata>
  <defs
     id="defs22" />
  <sodipodi:namedview
     pagecolor="#ffffff"
     bordercolor="#666666"
     borderopacity="1"
     objecttolerance="10"
     gridtolerance="10"
     guidetolerance="10"
     inkscape:pageopacity="0"
     inkscape:pageshadow="2"
     inkscape:window-width="640"
     inkscape:window-height="480"
     id="namedview20"
     showgrid="false"
     inkscape:zoom="4.9166667"
     inkscape:cx="-15.661017"
     inkscape:cy="24"
     inkscape:current-layer="svg18" />
  <path
     inkscape:connector-curvature="0"
     style="opacity:0.05"
     d="m 5.9237288,4.8305085 c -1.108,0 -2,0.892 -2,2 V 23.830508 H 43.923729 V 6.8305085 c 0,-1.108 -0.892,-2 -2,-2 z"
     id="path2" />
  <rect
     width="40"
     height="40"
     x="3.9237287"
     y="3.8305085"
     rx="2"
     ry="2"
     id="rect4"
     style="fill:#4c566a;fill-opacity:1" />
  <path
     inkscape:connector-curvature="0"
     d="m 21.923729,11.830508 c -0.554,0 -1,0.446 -1,1 v 16 h -4 l 7,9 7,-9 h -4 v -16 c 0,-0.554 -0.446,-1 -1,-1 z"
     id="path6"
     style="fill:#ffffff;fill-opacity:1" />
  <path
     inkscape:connector-curvature="0"
     style="opacity:0.2;fill:#ffffff"
     d="m 3.9237288,6.8305085 v -1 c 0,-1.108 0.892,-2 2,-2 H 41.923729 c 1.108,0 2,0.892 2,2 v 1 c 0,-1.108 -0.892,-2 -2,-2 H 5.9237288 c -1.108,0 -2,0.892 -2,2 z"
     id="path8" />
  <path
     inkscape:connector-curvature="0"
     style="opacity:0.2"
     d="m 3.9237288,41.830508 v 1 c 0,1.108 0.892,2 2,2 H 41.923729 c 1.108,0 2,-0.892 2,-2 v -1 c 0,1.108 -0.892,2 -2,2 H 5.9237288 c -1.108,0 -2,-0.892 -2,-2 z"
     id="path10" />
  <rect
     style="opacity:0.2"
     width="22"
     height="22"
     x="-47.830509"
     y="-46.923729"
     rx="1.179"
     ry="1.179"
     transform="matrix(0,-1,-1,0,0,0)"
     id="rect12" />
  <rect
     style="fill:#5f697d;fill-opacity:1"
     width="22"
     height="22"
     x="-46.830509"
     y="-46.923729"
     rx="1.179"
     ry="1.179"
     transform="matrix(0,-1,-1,0,0,0)"
     id="rect14" />
  <path
     inkscape:connector-curvature="0"
     style="fill:#3f3f3f"
     d="m 27.923729,27.830508 v 4 h 16 v -4 z m 0,6 v 4 h 16 v -4 z m 0,6 v 4 h 16 v -4 z"
     id="path16" />
</svg>
