<?xml version="1.0" encoding="UTF-8" standalone="no"?>
<svg
   xmlns:dc="http://purl.org/dc/elements/1.1/"
   xmlns:cc="http://creativecommons.org/ns#"
   xmlns:rdf="http://www.w3.org/1999/02/22-rdf-syntax-ns#"
   xmlns:svg="http://www.w3.org/2000/svg"
   xmlns="http://www.w3.org/2000/svg"
   xmlns:sodipodi="http://sodipodi.sourceforge.net/DTD/sodipodi-0.dtd"
   xmlns:inkscape="http://www.inkscape.org/namespaces/inkscape"
   width="48"
   height="48"
   version="1.1"
   id="svg16"
   sodipodi:docname="gst-debug-viewer.svg"
   inkscape:version="0.92.5 (2060ec1f9f, 2020-04-08)">
  <metadata
     id="metadata22">
    <rdf:RDF>
      <cc:Work
         rdf:about="">
        <dc:format>image/svg+xml</dc:format>
        <dc:type
           rdf:resource="http://purl.org/dc/dcmitype/StillImage" />
      </cc:Work>
    </rdf:RDF>
  </metadata>
  <defs
     id="defs20" />
  <sodipodi:namedview
     pagecolor="#ffffff"
     bordercolor="#666666"
     borderopacity="1"
     objecttolerance="10"
     gridtolerance="10"
     guidetolerance="10"
     inkscape:pageopacity="0"
     inkscape:pageshadow="2"
     inkscape:window-width="783"
     inkscape:window-height="480"
     id="namedview18"
     showgrid="false"
     inkscape:zoom="4.9166667"
     inkscape:cx="24"
     inkscape:cy="24"
     inkscape:window-x="0"
     inkscape:window-y="28"
     inkscape:window-maximized="0"
     inkscape:current-layer="svg16" />
  <rect
     style="fill:#4c566a;fill-opacity:1"
     width="40"
     height="40"
     x="4"
     y="4"
     rx="2"
     ry="2"
     id="rect2" />
  <path
     style="opacity:0.2"
     d="m 31,17.000373 c 0,0 -4.523452,1.937317 -6.910156,2.070312 C 21.232103,19.22993 18.750875,17.320138 15.892578,17.46717 12.64221,17.63437 11,20.387092 11,20.387092 c 0,0 2.444278,-0.751677 4.103516,-0.511719 2.518055,0.364161 5.978089,2.461027 9.042968,2.078125 C 29.82155,21.244501 30.600113,19.563308 31,17.000373 Z m 10,6 c 0,0 -4.523453,1.937316 -6.910156,2.070312 C 31.232103,25.229929 28.750875,23.320138 25.892578,23.46717 22.642209,23.634371 21,26.387092 21,26.387092 c 0,0 2.444278,-0.751677 4.103516,-0.511719 2.518054,0.364161 5.978087,2.461027 9.042968,2.078125 C 39.821548,27.244501 40.600113,25.563308 41,23.000373 Z m -14,6 c 0,0 -4.523453,1.937317 -6.910156,2.070312 -2.85774,0.159244 -5.338969,-1.750547 -8.197266,-1.603515 C 8.6422097,29.634371 7,32.387092 7,32.387092 c 0,0 2.4442774,-0.751677 4.103516,-0.511719 2.518054,0.364161 5.978088,2.461027 9.042968,2.078125 C 25.821549,33.244501 26.600112,31.563308 27,29.000373 Z"
     id="path4" />
  <path
     style="opacity:0.1;fill:#ffffff"
     d="M 6,4 C 4.892,4 4,4.892 4,6 V 7 C 4,5.892 4.892,5 6,5 h 36 c 1.108,0 2,0.892 2,2 V 6 C 44,4.892 43.108,4 42,4 Z"
     id="path6" />
  <path
     style="opacity:0.2"
     d="M 6,45 C 4.892,45 4,44.108 4,43 v -1 c 0,1.108 0.892,2 2,2 h 36 c 1.108,0 2,-0.892 2,-2 v 1 c 0,1.108 -0.892,2 -2,2 z"
     id="path8" />
  <path
     style="fill:#fff8f8;fill-opacity:1"
     d="m 15.892973,16.466122 c 2.858297,-0.147032 5.338732,1.762535 8.196473,1.603291 C 26.47615,17.936417 31,16 31,16 30.600113,18.562935 29.820744,20.244502 24.145678,20.953499 21.080799,21.336401 17.62173,19.239477 15.103675,18.875316 13.444437,18.635358 11,19.386552 11,19.386552 c 0,0 1.642605,-2.75323 4.892973,-2.92043 z"
     id="path10" />
  <path
     style="fill:#ffffff;fill-opacity:1"
     d="m 25.892974,22.466122 c 2.858297,-0.147032 5.338731,1.762535 8.196472,1.603291 C 36.476149,23.936416 41,22 41,22 40.600113,24.562935 39.820744,26.244502 34.14568,26.953499 31.080799,27.336401 27.621729,25.239477 25.103675,24.875316 23.444437,24.635358 21,25.386551 21,25.386551 c 0,0 1.642605,-2.753228 4.892974,-2.920429 z"
     id="path12" />
  <path
     style="fill:#f7fafe;fill-opacity:1"
     d="m 11.892973,28.466122 c 2.858297,-0.147032 5.338732,1.762535 8.196472,1.603291 C 22.476148,29.936417 27,28 27,28 c -0.399888,2.562935 -1.179256,4.244502 -6.854321,4.953499 -3.06488,0.382902 -6.52395,-1.714022 -9.042004,-2.078183 C 9.4444368,30.635358 7,31.386552 7,31.386552 c 0,0 1.6426046,-2.753229 4.892973,-2.92043 z"
     id="path14" />
</svg>
