<?xml version="1.0" encoding="UTF-8" standalone="no"?>
<svg
   xmlns:dc="http://purl.org/dc/elements/1.1/"
   xmlns:cc="http://creativecommons.org/ns#"
   xmlns:rdf="http://www.w3.org/1999/02/22-rdf-syntax-ns#"
   xmlns:svg="http://www.w3.org/2000/svg"
   xmlns="http://www.w3.org/2000/svg"
   xmlns:sodipodi="http://sodipodi.sourceforge.net/DTD/sodipodi-0.dtd"
   xmlns:inkscape="http://www.inkscape.org/namespaces/inkscape"
   width="48"
   height="48"
   version="1.1"
   id="svg32"
   sodipodi:docname="appimagekit-guiscrcpy.svg"
   inkscape:version="0.92.5 (2060ec1f9f, 2020-04-08)">
  <metadata
     id="metadata38">
    <rdf:RDF>
      <cc:Work
         rdf:about="">
        <dc:format>image/svg+xml</dc:format>
        <dc:type
           rdf:resource="http://purl.org/dc/dcmitype/StillImage" />
      </cc:Work>
    </rdf:RDF>
  </metadata>
  <defs
     id="defs36" />
  <sodipodi:namedview
     pagecolor="#ffffff"
     bordercolor="#666666"
     borderopacity="1"
     objecttolerance="10"
     gridtolerance="10"
     guidetolerance="10"
     inkscape:pageopacity="0"
     inkscape:pageshadow="2"
     inkscape:window-width="765"
     inkscape:window-height="480"
     id="namedview34"
     showgrid="false"
     inkscape:zoom="9.8333333"
     inkscape:cx="23.364208"
     inkscape:cy="21.44118"
     inkscape:window-x="0"
     inkscape:window-y="28"
     inkscape:window-maximized="0"
     inkscape:current-layer="svg32" />
  <circle
     style="opacity:0.2"
     cx="24"
     cy="25"
     r="20"
     id="circle2" />
  <circle
     style="fill:#5f697d;fill-opacity:1"
     cx="24"
     cy="24"
     r="20"
     id="circle4" />
  <circle
     style="opacity:0.2"
     cx="24"
     cy="25"
     r="16"
     id="circle6" />
  <circle
     style="fill:#4c566a;fill-opacity:1"
     cx="24"
     cy="24"
     r="16"
     id="circle8" />
  <path
     style="fill:#ffffff;opacity:0.2"
     d="M 24 8 A 16 16 0 0 0 8 24 A 16 16 0 0 0 8.0214844 24.580078 A 16 16 0 0 1 24 9 A 16 16 0 0 1 39.978516 24.419922 A 16 16 0 0 0 40 24 A 16 16 0 0 0 24 8 z"
     id="path10" />
  <path
     style="fill:#fdfdfd;fill-opacity:1;stroke-width:0.9535203"
     d="M 17.919922,12.542373 C 17.410796,12.542373 17,12.915869 17,13.378767 V 37.163606 C 17,37.626504 17.410796,38 17.919922,38 H 30.080078 C 30.589204,38 31,37.626504 31,37.163606 V 13.378767 c 0,-0.462898 -0.410796,-0.836394 -0.919922,-0.836394 z"
     id="path18"
     inkscape:connector-curvature="0" />
  <rect
     style="fill:#414b5f;fill-opacity:1"
     width="12"
     height="22"
     x="18"
     y="14"
     ry=".721"
     id="rect20" />
  <path
     style="opacity:0.1;fill:#ffffff"
     d="M 24,4.0000024 A 20.000001,20.000001 0 0 0 4.0000002,24.000002 20.000001,20.000001 0 0 0 4.0214846,24.582033 20.000001,20.000001 0 0 1 24,5.0000024 20.000001,20.000001 0 0 1 43.978516,24.417971 20.000001,20.000001 0 0 0 44,24.000002 20.000001,20.000001 0 0 0 24,4.0000024 Z"
     id="path28" />
  <path
     style="fill:#ffffff;fill-opacity:1"
     d="m 27.707031,29.072266 c -0.0499,0 -0.06764,0.0061 -0.101563,0.0332 -0.058,0.04634 -0.06468,0.05332 -0.179687,0.271484 -0.16063,0.304719 -0.212383,0.404172 -0.289063,0.546875 -0.03914,0.07283 -0.194271,0.365017 -0.34375,0.648438 -0.152007,0.288214 -0.277056,0.515625 -0.285156,0.515625 -0.01238,0 -0.05407,-0.02008 -0.199219,-0.09375 -0.05669,-0.02877 -0.388194,-0.156823 -0.505859,-0.195313 -0.173566,-0.05676 -0.255234,-0.08129 -0.390625,-0.115234 -0.0812,-0.02036 -0.179097,-0.04489 -0.216797,-0.05469 -0.0377,-0.0098 -0.07925,-0.01968 -0.09375,-0.02148 -0.06575,-0.0084 -0.26484,-0.04047 -0.3125,-0.05078 -0.04912,-0.01062 -0.168851,-0.02437 -0.384766,-0.04297 -0.117563,-0.01013 -0.800986,-0.01018 -0.916015,0 -0.0493,0.0043 -0.123463,0.01233 -0.164063,0.01563 -0.0406,0.0033 -0.108843,0.01048 -0.152344,0.01758 -0.0435,0.0072 -0.09689,0.01548 -0.117187,0.01758 -0.117052,0.0124 -0.42793,0.07775 -0.648437,0.136719 -0.212465,0.05683 -0.566146,0.181705 -0.738282,0.259765 -0.058,0.0263 -0.122288,0.0543 -0.142578,0.0625 -0.0203,0.0082 -0.05565,0.02509 -0.08008,0.03906 -0.02442,0.01397 -0.0532,0.02554 -0.0625,0.02344 -0.0096,-0.0021 -0.09662,-0.154847 -0.199219,-0.349609 -0.180945,-0.343463 -0.301737,-0.574827 -0.482422,-0.916015 -0.05199,-0.09817 -0.150116,-0.28154 -0.216797,-0.408204 -0.164843,-0.31314 -0.195243,-0.34609 -0.3125,-0.33789 -0.07671,0.0053 -0.131732,0.04409 -0.164062,0.113281 -0.04379,0.09375 -0.03944,0.151881 0.02344,0.269531 0.03944,0.07379 0.158342,0.295918 0.5625,1.060547 0.03013,0.057 0.09849,0.185772 0.152343,0.287109 0.257071,0.483776 0.254048,0.478511 0.242188,0.494141 -0.0063,0.0083 -0.07373,0.0563 -0.150391,0.105469 -0.144466,0.09266 -0.387954,0.266019 -0.498047,0.355469 -0.0348,0.02828 -0.08737,0.07176 -0.117187,0.0957 -0.258503,0.20735 -0.707621,0.678231 -0.927735,0.974609 -0.02313,0.03115 -0.06383,0.08746 -0.0918,0.125 -0.130748,0.175479 -0.349987,0.521586 -0.429687,0.677735 -0.01778,0.03483 -0.04979,0.09286 -0.07031,0.130859 -0.174383,0.322914 -0.387507,0.853554 -0.488281,1.214844 -0.01855,0.0665 -0.03757,0.13458 -0.04297,0.15039 -0.02435,0.07169 -0.101248,0.412847 -0.136718,0.609375 C 18.021901,35.811703 18.012476,35.907382 18,36 c 0.09426,0.235947 0.310102,0.397736 0.570312,0.433594 0.08835,0.01522 0.145431,0.01953 5.375,0.01953 4.2789,0 5.077779,-0.003 5.339844,-0.01172 0.27922,-0.02422 0.510467,-0.198538 0.607422,-0.449219 -0.0093,-0.07142 -0.01826,-0.160326 -0.02539,-0.195312 -0.0058,-0.0285 -0.02362,-0.124221 -0.04102,-0.212891 -0.159312,-0.812083 -0.482826,-1.628213 -0.910156,-2.292968 -0.133952,-0.208365 -0.169574,-0.258885 -0.246094,-0.361329 -0.0348,-0.0466 -0.07556,-0.10208 -0.0918,-0.125 -0.136075,-0.191976 -0.511552,-0.595579 -0.757812,-0.814453 -0.151735,-0.134868 -0.172651,-0.152704 -0.314453,-0.267578 -0.09279,-0.07518 -0.373801,-0.272463 -0.492188,-0.345703 -0.05299,-0.03278 -0.102575,-0.06717 -0.109375,-0.07617 -0.01,-0.01317 0.03386,-0.101758 0.222657,-0.457031 0.128975,-0.242696 0.244972,-0.462941 0.257812,-0.488281 0.01284,-0.02534 0.04897,-0.09403 0.08008,-0.152344 0.440741,-0.826124 0.445185,-0.83511 0.445313,-0.90625 1.45e-4,-0.124947 -0.08907,-0.224609 -0.203125,-0.224609 z M 21.183593,33.5 c 0.113198,0 0.187771,0.02204 0.275391,0.08398 0.09417,0.06658 0.159282,0.157061 0.201172,0.283203 0.02979,0.08971 0.02684,0.280352 -0.0059,0.363282 -0.06528,0.165576 -0.195032,0.295764 -0.330078,0.333984 v 0.002 c -0.0777,0.02188 -0.217316,0.02063 -0.285156,-0.002 -0.115074,-0.0383 -0.228399,-0.135617 -0.287109,-0.246094 -0.132227,-0.248824 -0.06472,-0.571663 0.154297,-0.732422 C 20.990697,33.523947 21.069389,33.5 21.183593,33.5 Z m 5.367188,0.01953 c 0.07235,-0.02827 0.243053,-0.02823 0.314453,0 0.07952,0.03144 0.134869,0.06992 0.199219,0.142578 0.151424,0.170969 0.187349,0.390312 0.09961,0.597657 -0.02105,0.04975 -0.05591,0.111691 -0.07617,0.138671 -0.04635,0.06176 -0.14793,0.13772 -0.21875,0.16211 -0.07856,0.02697 -0.230734,0.02872 -0.302734,0.0039 -0.226701,-0.07813 -0.371519,-0.305679 -0.355469,-0.558594 0.01462,-0.230517 0.137872,-0.407028 0.339844,-0.486328 z"
     id="path30"
     inkscape:connector-curvature="0" />
</svg>
