<?xml version="1.0" encoding="UTF-8" standalone="no"?>
<svg
   xmlns:dc="http://purl.org/dc/elements/1.1/"
   xmlns:cc="http://creativecommons.org/ns#"
   xmlns:rdf="http://www.w3.org/1999/02/22-rdf-syntax-ns#"
   xmlns:svg="http://www.w3.org/2000/svg"
   xmlns="http://www.w3.org/2000/svg"
   xmlns:sodipodi="http://sodipodi.sourceforge.net/DTD/sodipodi-0.dtd"
   xmlns:inkscape="http://www.inkscape.org/namespaces/inkscape"
   width="48"
   height="48"
   version="1"
   id="svg16"
   sodipodi:docname="harbour-pure-maps.svg"
   inkscape:version="0.92.5 (2060ec1f9f, 2020-04-08)">
  <metadata
     id="metadata22">
    <rdf:RDF>
      <cc:Work
         rdf:about="">
        <dc:format>image/svg+xml</dc:format>
        <dc:type
           rdf:resource="http://purl.org/dc/dcmitype/StillImage" />
      </cc:Work>
    </rdf:RDF>
  </metadata>
  <defs
     id="defs20" />
  <sodipodi:namedview
     pagecolor="#ffffff"
     bordercolor="#666666"
     borderopacity="1"
     objecttolerance="10"
     gridtolerance="10"
     guidetolerance="10"
     inkscape:pageopacity="0"
     inkscape:pageshadow="2"
     inkscape:window-width="783"
     inkscape:window-height="480"
     id="namedview18"
     showgrid="false"
     inkscape:zoom="4.9166667"
     inkscape:cx="24"
     inkscape:cy="24"
     inkscape:window-x="0"
     inkscape:window-y="28"
     inkscape:window-maximized="0"
     inkscape:current-layer="svg16" />
  <path
     style="fill:#c9c9c9"
     d="M 23.846,4 23.844,4.00391 C 12.837,4.08781 4,12.97201 4,23.99991 c 0,11.08 8.92,20 20,20 10.68,0 19.351,-8.289 19.963,-18.811 L 44,25.15391 v -17.154 c 0,-2.216 -1.784,-4 -4,-4 H 23.846 Z"
     id="path2" />
  <path
     style="opacity:0.2;fill:#ffffff"
     d="M 23.846,4 23.844,4.00391 C 12.837,4.08781 4,12.97201 4,23.99991 c 0,0.168 0.0076,0.333 0.0117,0.5 0.2632,-10.794 8.9923,-19.414 19.832,-19.496 l 0.002,-0.004 h 16.154 c 2.216,0 4,1.784 4,4 v -1 c 0,-2.216 -1.784,-4 -4,-4 h -16.154 z"
     id="path4" />
  <path
     style="opacity:0.2"
     d="M 4.0117,24.5 C 4.0077,24.667 4,24.832 4,25 4,36.08 12.92,45 24,45 34.68,45 43.351,36.711 43.963,26.189 L 44,26.154 v -1 l -0.03711,0.03516 c -0.612,10.522 -9.283,18.811 -19.963,18.811 -10.912,0 -19.724,-8.654 -19.988,-19.5 z"
     id="path6" />
  <path
     style="opacity:0.1;stroke:#ffffff;stroke-width:0;stroke-linecap:square;stroke-opacity:0"
     d="M 40,9.000492 C 26.731696,9.4580196 18.613266,8.4262865 12.548828,14.490726 c -6.0644399,6.064439 -6.0644551,15.896484 0,21.960938 6.064454,6.064455 15.896499,6.064441 21.960938,0 C 40.574206,30.387224 39.542473,22.268799 40,9.000492 Z"
     id="path8" />
  <path
     style="fill:#4c566a;stroke:#ffffff;stroke-width:0;stroke-linecap:square;stroke-opacity:0;fill-opacity:1"
     d="M 40 8 C 26.731696 8.4575276 18.613266 7.4257945 12.548828 13.490234 C 6.4843881 19.554673 6.4843729 29.386718 12.548828 35.451172 C 18.613282 41.515627 28.445327 41.515613 34.509766 35.451172 C 40.574206 29.386732 39.542473 21.268307 40 8 z"
     id="path10" />
  <path
     style="opacity:0.2;stroke:#ffffff;stroke-width:0;stroke-linecap:square;stroke-opacity:0"
     d="m 24,13.998845 c -2.815173,0 -5.629438,1.074752 -7.777344,3.222656 -4.29581,4.295808 -4.295809,11.260836 0,15.556641 4.295809,4.295811 11.258878,4.295811 15.554688,0 4.29581,-4.295805 4.295809,-11.260833 0,-15.556641 C 29.629439,15.073597 26.815174,13.998845 24,13.998845 Z m 0.08789,5 a 6.0000588,6.0000588 0 0 1 4.154297,1.757812 6.0000588,6.0000588 0 0 1 0,8.484376 6.0000588,6.0000588 0 0 1 -8.484376,0 6.0000588,6.0000588 0 0 1 0,-8.484376 6.0000588,6.0000588 0 0 1 4.330079,-1.757812 z"
     id="path12" />
  <path
     style="fill:#ffffff;stroke:#ffffff;stroke-width:0;stroke-linecap:square;stroke-opacity:0"
     d="M 24 13 C 21.184827 13 18.370562 14.074752 16.222656 16.222656 C 11.926846 20.518464 11.926847 27.483492 16.222656 31.779297 C 20.518465 36.075108 27.481534 36.075108 31.777344 31.779297 C 36.073154 27.483492 36.073153 20.518464 31.777344 16.222656 C 29.629439 14.074752 26.815174 13 24 13 z M 24.087891 18 A 6.0000588 6.0000588 0 0 1 28.242188 19.757812 A 6.0000588 6.0000588 0 0 1 28.242188 28.242188 A 6.0000588 6.0000588 0 0 1 19.757812 28.242188 A 6.0000588 6.0000588 0 0 1 19.757812 19.757812 A 6.0000588 6.0000588 0 0 1 24.087891 18 z"
     id="path14" />
</svg>
