<?xml version="1.0" encoding="UTF-8" standalone="no"?>
<svg
   xmlns:dc="http://purl.org/dc/elements/1.1/"
   xmlns:cc="http://creativecommons.org/ns#"
   xmlns:rdf="http://www.w3.org/1999/02/22-rdf-syntax-ns#"
   xmlns:svg="http://www.w3.org/2000/svg"
   xmlns="http://www.w3.org/2000/svg"
   xmlns:sodipodi="http://sodipodi.sourceforge.net/DTD/sodipodi-0.dtd"
   xmlns:inkscape="http://www.inkscape.org/namespaces/inkscape"
   width="48"
   height="48"
   version="1.1"
   id="svg12"
   sodipodi:docname="co.headsetapp.headset.svg"
   inkscape:version="0.92.5 (2060ec1f9f, 2020-04-08)">
  <metadata
     id="metadata18">
    <rdf:RDF>
      <cc:Work
         rdf:about="">
        <dc:format>image/svg+xml</dc:format>
        <dc:type
           rdf:resource="http://purl.org/dc/dcmitype/StillImage" />
      </cc:Work>
    </rdf:RDF>
  </metadata>
  <defs
     id="defs16" />
  <sodipodi:namedview
     pagecolor="#ffffff"
     bordercolor="#666666"
     borderopacity="1"
     objecttolerance="10"
     gridtolerance="10"
     guidetolerance="10"
     inkscape:pageopacity="0"
     inkscape:pageshadow="2"
     inkscape:window-width="783"
     inkscape:window-height="480"
     id="namedview14"
     showgrid="false"
     inkscape:zoom="4.9166667"
     inkscape:cx="24"
     inkscape:cy="24"
     inkscape:window-x="0"
     inkscape:window-y="28"
     inkscape:window-maximized="0"
     inkscape:current-layer="svg12" />
  <circle
     style="opacity:0.2"
     cx="24"
     cy="25"
     r="20"
     id="circle2" />
  <circle
     style="fill:#4c566a;fill-opacity:1"
     cx="24"
     cy="24"
     r="20"
     id="circle4" />
  <path
     style="opacity:0.2;fill:#ffffff"
     d="M 24,4 A 20,20 0 0 0 4,24 20,20 0 0 0 4.0215,24.582 20,20 0 0 1 24,5 20,20 0 0 1 43.979,24.418 20,20 0 0 0 44,24 20,20 0 0 0 24,4 Z"
     id="path6" />
  <path
     style="opacity:0.2;fill:none;stroke:#000000;stroke-width:2;stroke-linecap:round;stroke-linejoin:round"
     d="m 3,25.999998 h 4.0541479 c 0,0 0.521,2 1.1454463,2 0.840969,0 0.540543,-4.045904 1.549719,-4.044378 1.0091758,0.0015 0.3376798,5.220945 1.8866158,5.044378 1.548932,-0.176567 1.205785,-18 2.762543,-18 1.556762,0 1.085633,28.015633 3.032062,28 1.94643,-0.01562 0.529714,-25 2.290891,-25 1.761179,0 1.316352,22.01353 3.166819,22 1.850467,-0.01348 0.881653,-19 2.425649,-19 1.543996,0 0.630054,16.968646 2.762545,17 2.132492,0.03134 0.865298,-14 2.695167,-14 1.829868,0 0.747106,10.977007 2.627784,11 1.88068,0.02299 0.741889,-7.550562 2.021375,-7.638473 1.279485,-0.08792 0.933585,4.576731 2.156133,4.638473 1.222547,0.06175 1.01564,-3 1.617098,-3 0.601459,0 0.992328,2.5 1.6171,2.5 0.744484,0 1.6185,-1.5 1.6185,-1.5 H 45"
     id="path8" />
  <path
     style="fill:none;stroke:#ffffff;stroke-width:2;stroke-linecap:round;stroke-linejoin:round"
     d="m 3,25 h 4.0541479 c 0,0 0.521,2 1.1454463,2 0.840969,0 0.540543,-4.045904 1.549719,-4.044378 1.0091758,0.0015 0.3376798,5.220945 1.8866158,5.044378 1.548932,-0.176567 1.205785,-18 2.762543,-18 1.556762,0 1.085633,28.015633 3.032062,28 1.94643,-0.01562 0.529714,-25 2.290891,-25 1.761179,0 1.316352,22.01353 3.166819,22 1.850467,-0.01348 0.881653,-19 2.425649,-19 1.543996,0 0.630054,16.968646 2.762545,17 2.132492,0.03134 0.865298,-14 2.695167,-14 1.829868,0 0.747106,10.977007 2.627784,11 1.88068,0.02299 0.741889,-7.550562 2.021375,-7.638473 1.279485,-0.08792 0.933585,4.576731 2.156133,4.638473 1.222547,0.06175 1.01564,-3 1.617098,-3 0.601459,0 0.992328,2.5 1.6171,2.5 0.744484,0 1.6185,-1.5 1.6185,-1.5 H 45"
     id="path10" />
</svg>
