<?xml version="1.0" encoding="UTF-8" standalone="no"?>
<svg
   xmlns:dc="http://purl.org/dc/elements/1.1/"
   xmlns:cc="http://creativecommons.org/ns#"
   xmlns:rdf="http://www.w3.org/1999/02/22-rdf-syntax-ns#"
   xmlns:svg="http://www.w3.org/2000/svg"
   xmlns="http://www.w3.org/2000/svg"
   xmlns:sodipodi="http://sodipodi.sourceforge.net/DTD/sodipodi-0.dtd"
   xmlns:inkscape="http://www.inkscape.org/namespaces/inkscape"
   width="48"
   height="48"
   version="1"
   id="svg12"
   sodipodi:docname="hp-logo.svg"
   inkscape:version="0.92.5 (2060ec1f9f, 2020-04-08)">
  <metadata
     id="metadata18">
    <rdf:RDF>
      <cc:Work
         rdf:about="">
        <dc:format>image/svg+xml</dc:format>
        <dc:type
           rdf:resource="http://purl.org/dc/dcmitype/StillImage" />
      </cc:Work>
    </rdf:RDF>
  </metadata>
  <defs
     id="defs16" />
  <sodipodi:namedview
     pagecolor="#ffffff"
     bordercolor="#666666"
     borderopacity="1"
     objecttolerance="10"
     gridtolerance="10"
     guidetolerance="10"
     inkscape:pageopacity="0"
     inkscape:pageshadow="2"
     inkscape:window-width="640"
     inkscape:window-height="480"
     id="namedview14"
     showgrid="false"
     inkscape:zoom="4.9166667"
     inkscape:cx="24"
     inkscape:cy="24"
     inkscape:current-layer="svg12" />
  <rect
     width="40"
     height="40"
     x="4.4067798"
     y="3.9067798"
     rx="20"
     ry="20"
     id="rect2"
     style="fill:#4c566a;fill-opacity:1" />
  <path
     inkscape:connector-curvature="0"
     style="opacity:0.2"
     d="M 23.192495,4.9459537 C 21.510441,5.0458569 19.88739,5.3532667 18.34534,5.8404823 15.368245,14.351154 12.37815,23.683052 9.4070549,31.915314 c 0.2159869,0.06353 0.4291237,0.03739 0.6523611,0.04102 1.229639,-0.0073 2.464079,0.0036 3.697418,0 0.166985,0 0.146025,-0.241488 0.216807,-0.347671 1.481947,-4.182634 2.987495,-8.343867 4.476743,-12.5234 0.08893,-0.258638 0.187626,-0.535477 0.304699,-0.783225 0.773185,0.01452 1.535249,-0.01089 2.304774,0 -1.616252,4.533845 -3.226903,9.09439 -4.871255,13.613434 0.173335,0.06716 0.344811,0.03739 0.525406,0.04102 1.290441,-0.01089 2.576883,0.01815 3.867324,0 1.460146,-4.119132 2.969294,-8.230863 4.437641,-12.350394 0.31218,-0.840347 0.356652,-1.917361 -0.175785,-2.607483 -1.130036,-1.464847 -3.639016,-1.709155 -5.261868,-1.769557 1.183438,-3.351707 2.410777,-6.857719 3.611415,-10.2833283 z m 5.867387,10.8813473 c -0.03146,0.06797 -0.05241,0.235988 -0.08398,0.30274 -3.045297,8.543372 -6.627311,18.296583 -9.787412,27.070863 1.114336,0.29893 2.259972,0.521747 3.44351,0.62502 1.412945,-3.682717 3.182602,-7.793948 4.425941,-11.258359 1.612652,-0.03176 3.215903,-0.01512 4.832154,-0.04687 1.024533,-0.03539 2.571882,-0.651291 2.912193,-1.650453 1.361244,-3.832322 2.722587,-7.629243 4.041129,-11.479366 0.215987,-0.581709 0.348071,-1.219839 0.173836,-1.824258 -0.230508,-0.773185 -0.93475,-1.360444 -1.693454,-1.56645 -0.659751,-0.206007 -1.323042,-0.116344 -2.000064,-0.130865 -2.069966,-0.0036 -4.193834,-0.02119 -6.2639,-0.04297 z m 3.892724,2.427778 c 0.06556,0.0071 0.131344,0.0169 0.195317,0.0078 0.598949,0.01089 1.187937,-0.01452 1.783256,0 -1.389344,3.966626 -2.803489,7.935953 -4.172033,11.91438 -0.775904,0.05354 -1.57485,0.0036 -2.351675,0 1.414745,-3.942126 2.80859,-7.882952 4.218935,-11.832378 0.03176,-0.03539 0.08821,-0.07504 0.130864,-0.08594 v 0.0039 c 0.06398,-0.01951 0.129754,-0.01497 0.195316,-0.0078 z"
     id="path4" />
  <path
     inkscape:connector-curvature="0"
     style="fill:#ffffff"
     d="M 23.192495,3.946026 C 21.510441,4.0459292 19.88739,4.353339 18.34534,4.8405546 15.368245,13.351226 12.37815,22.683124 9.4070549,30.915387 c 0.2159869,0.06353 0.4291237,0.03739 0.6523611,0.04102 1.229639,-0.0073 2.464079,0.0036 3.697418,0 0.166985,0 0.146025,-0.241488 0.216807,-0.347671 1.481947,-4.182634 2.987495,-8.343866 4.476743,-12.5234 0.08893,-0.258638 0.187626,-0.535477 0.304699,-0.783225 0.773185,0.01452 1.535249,-0.01089 2.304774,0 -1.616252,4.533845 -3.226903,9.09439 -4.871255,13.613435 0.173335,0.06716 0.344811,0.03739 0.525406,0.04102 1.290441,-0.01089 2.576883,0.01815 3.867324,0 1.460146,-4.119131 2.969294,-8.230863 4.437641,-12.350394 0.31218,-0.840347 0.356652,-1.917361 -0.175785,-2.607483 -1.130036,-1.464847 -3.639016,-1.709155 -5.261868,-1.769557 1.183438,-3.351707 2.410777,-6.8577187 3.611415,-10.283328 z m 5.867387,10.881347 c -0.03146,0.06797 -0.05241,0.235988 -0.08398,0.30274 -3.1478,8.831182 -6.884419,18.989606 -10.119322,27.986893 1.099135,0.31519 2.231371,0.551867 3.400508,0.675801 1.457647,-3.908424 3.44991,-8.460469 4.800953,-12.22539 1.612652,-0.03176 3.215903,-0.01511 4.832154,-0.04687 1.024533,-0.03539 2.571882,-0.651291 2.912193,-1.650453 1.361244,-3.832322 2.722587,-7.629243 4.041129,-11.479366 0.215987,-0.581708 0.348071,-1.219839 0.173836,-1.824258 -0.230508,-0.773185 -0.93475,-1.360443 -1.693454,-1.56645 -0.659751,-0.206007 -1.323042,-0.116344 -2.000064,-0.130864 -2.069966,-0.0036 -4.193834,-0.02119 -6.2639,-0.04297 z m 3.892724,2.427778 c 0.06556,0.0071 0.131344,0.01689 0.195317,0.0078 0.598949,0.01089 1.187937,-0.01452 1.783256,0 -1.389344,3.966627 -2.803489,7.935953 -4.172033,11.91438 -0.775904,0.05354 -1.57485,0.0036 -2.351675,0 1.414745,-3.942126 2.80859,-7.882951 4.218935,-11.832377 0.03176,-0.03539 0.08821,-0.07504 0.130864,-0.08594 v 0.0039 c 0.06398,-0.01951 0.129754,-0.01496 0.195316,-0.0078 z"
     id="path6" />
  <path
     inkscape:connector-curvature="0"
     style="opacity:0.2;fill:#ffffff"
     d="m 24.40678,3.9067797 c -11.079,0 -19.9980003,8.9200003 -19.9980003,20.0000003 0,0.16772 -0.004,0.33329 0,0.5 0.2642,-10.846 9.0870003,-19.5000003 19.9980003,-19.5000003 10.911,0 19.734,8.6536003 19.998,19.5000003 0.004,-0.16671 0,-0.33228 0,-0.5 0,-11.08 -8.919,-20.0000003 -19.998,-20.0000003 z"
     id="path8" />
  <path
     inkscape:connector-curvature="0"
     style="opacity:0.2"
     d="m 4.4184797,24.40678 c -0.0041,0.167 -0.0117,0.332 -0.0117,0.5 0,11.08 8.9200003,20 20.0000003,20 11.08,0 20,-8.92 20,-20 0,-0.168 -0.008,-0.333 -0.012,-0.5 -0.264,10.846 -9.076,19.5 -19.988,19.5 -10.912,0 -19.7240003,-8.654 -19.9880003,-19.5 z"
     id="path10" />
</svg>
