<?xml version="1.0" encoding="UTF-8" standalone="no"?>
<svg
   xmlns:dc="http://purl.org/dc/elements/1.1/"
   xmlns:cc="http://creativecommons.org/ns#"
   xmlns:rdf="http://www.w3.org/1999/02/22-rdf-syntax-ns#"
   xmlns:svg="http://www.w3.org/2000/svg"
   xmlns="http://www.w3.org/2000/svg"
   xmlns:sodipodi="http://sodipodi.sourceforge.net/DTD/sodipodi-0.dtd"
   xmlns:inkscape="http://www.inkscape.org/namespaces/inkscape"
   width="48"
   height="48"
   version="1.1"
   id="svg24"
   sodipodi:docname="appimagekit-hw-probe.svg"
   inkscape:version="0.92.5 (2060ec1f9f, 2020-04-08)">
  <metadata
     id="metadata30">
    <rdf:RDF>
      <cc:Work
         rdf:about="">
        <dc:format>image/svg+xml</dc:format>
        <dc:type
           rdf:resource="http://purl.org/dc/dcmitype/StillImage" />
      </cc:Work>
    </rdf:RDF>
  </metadata>
  <defs
     id="defs28" />
  <sodipodi:namedview
     pagecolor="#ffffff"
     bordercolor="#666666"
     borderopacity="1"
     objecttolerance="10"
     gridtolerance="10"
     guidetolerance="10"
     inkscape:pageopacity="0"
     inkscape:pageshadow="2"
     inkscape:window-width="765"
     inkscape:window-height="480"
     id="namedview26"
     showgrid="false"
     inkscape:zoom="9.8333333"
     inkscape:cx="22.681458"
     inkscape:cy="34.136246"
     inkscape:window-x="0"
     inkscape:window-y="28"
     inkscape:window-maximized="0"
     inkscape:current-layer="svg24" />
  <circle
     style="opacity:0.2"
     cx="24"
     cy="25"
     r="20"
     id="circle2" />
  <path
     style="fill:#4c566a;fill-opacity:1"
     d="m 44,24 c 0,6.522117 -3.121928,12.315068 -7.952938,15.966007 -3.350668,2.5322 -6.53263,-2.444666 -11.056208,-2.444666 -10.390346,0 -19.8946333,-1.769348 -20.8954071,-11.607417 C 4.0323253,25.293409 4,24.655349 4,24 4,12.954305 12.954305,4 24,4 35.045695,4 44,12.954305 44,24 Z"
     id="path4" />
  <path
     style="opacity:0.2;fill:#ffffff"
     d="M 24,4 A 20,20 0 0 0 4,24 20,20 0 0 0 4.0215,24.582 20,20 0 0 1 24,5 20,20 0 0 1 43.979,24.418 20,20 0 0 0 44,24 20,20 0 0 0 24,4 Z"
     id="path6" />
  <path
     style="opacity:0.1;fill-rule:evenodd"
     d="m 22.949605,11.021687 c -0.645704,0.0071 -1.319898,0.05594 -2.02887,0.159965 -5.126616,0.752178 -8.411077,3.277279 -12.6191702,8.355857 -1.7097347,2.063409 -3.2207366,4.550423 -4.3015645,6.459553 0.037535,0.704876 0.1117827,1.407253 0.2224337,2.104203 2.9530835,-4.086669 11.174616,-10.028597 13.025596,-7.364742 2.119245,3.049931 -3.98564,6.688762 -3.166147,7.841 0.878095,1.234635 4.723936,-0.224891 8.293116,-0.481219 3.984702,-0.286167 6.101707,0.946798 8.763402,2.992696 -0.670339,-1.26487 -1.10997,-2.188736 -1.364979,-3.095774 -0.530062,-1.885403 0.884698,-4.038477 1.413803,-5.070294 0.840644,-1.63933 1.548601,-3.923233 2.798321,-5.156112 2.187258,-2.157788 6.005758,-3.274567 9.379556,-4.394102 1.055844,-0.350363 1.991771,-0.276164 3.092979,-0.517409 -1.022004,-0.570454 -2.297652,-0.781761 -3.3396,-0.797195 -5.554365,-0.08227 -8.939329,0.7594 -11.180871,0.515239 -2.842981,-0.309673 -5.501204,-1.590097 -8.988005,-1.551666 z"
     id="path8" />
  <path
     style="fill:#697387;fill-rule:evenodd;fill-opacity:1"
     d="M 16.359375 18.050781 C 13.084211 17.772877 6.9777532 22.276529 4.1972656 26.625 A 20 20 0 0 0 23.90625 43.996094 C 24.40868 43.993274 24.912381 43.980146 25.414062 43.949219 A 20 20 0 0 0 25.425781 43.947266 A 20 20 0 0 0 36.257812 39.791016 C 35.820027 36.930624 34.335124 33.76615 31.138672 30.089844 C 27.112479 25.385848 20.925646 18.812547 16.359375 18.050781 z"
     id="path10" />
  <path
     style="fill:#f4f4f4;fill-rule:evenodd;fill-opacity:1"
     d="m 22.949605,10.022164 c -0.645704,0.0071 -1.319898,0.05594 -2.02887,0.159965 -5.126616,0.752178 -8.411077,3.277279 -12.6191702,8.355857 -1.7097347,2.063409 -3.2207366,4.550423 -4.3015645,6.459553 0.037535,0.704876 0.1117827,1.407253 0.2224337,2.104203 C 7.1755175,23.015073 15.39705,17.073145 17.24803,19.737 c 2.119245,3.049931 -3.98564,6.688762 -3.166147,7.841 0.878095,1.234635 4.723936,-0.224891 8.293116,-0.481219 3.984702,-0.286167 6.101707,0.946798 8.763402,2.992696 -0.670339,-1.26487 -1.10997,-2.188736 -1.364979,-3.095774 -0.530062,-1.885403 0.884698,-4.038477 1.413803,-5.070294 0.840644,-1.63933 1.548601,-3.923233 2.798321,-5.156112 2.187258,-2.157788 6.005758,-3.274567 9.379556,-4.394102 1.055844,-0.350363 1.991771,-0.276164 3.092979,-0.517409 -1.022004,-0.570454 -2.297652,-0.781761 -3.3396,-0.797195 -5.554365,-0.08227 -8.939329,0.7594 -11.180871,0.515239 -2.842981,-0.309673 -5.501204,-1.590097 -8.988005,-1.551666 z"
     id="path12" />
  <ellipse
     style="opacity:1;fill:#0c0c0c;fill-opacity:1"
     cx="27.06"
     cy="10.319"
     rx="1.501"
     ry="1.499"
     transform="matrix(0.98003409,0.19882953,-0.19571032,0.98066175,0,0)"
     id="ellipse14" />
  <path
     style="fill:#ffffff;fill-rule:evenodd;fill-opacity:1"
     d="M 9.5351562 30.042969 C 8.6561319 30.027359 6.6606123 30.902186 5.4511719 31.455078 A 20 20 0 0 0 7.5136719 35.287109 C 8.2911119 32.694061 10.339778 30.88532 9.9199219 30.193359 C 9.8588459 30.092702 9.7247344 30.046335 9.5351562 30.042969 z"
     id="path16" />
  <path
     style="opacity:0.1;fill-rule:evenodd"
     d="m 34.786707,14.065628 c 2.39034,-0.666114 6.514276,-2.292654 9.521488,-2.672153 -0.553731,-0.103338 -1.555862,0.06684 -2.109665,0.12584 -2.969673,0.587955 -5.868333,1.772082 -7.411823,2.546315 z"
     id="path18" />
  <path
     style="opacity:0.1"
     d="M 23.087891 15.996094 A 1.5025854 1.49741 45.000141 0 0 23.029297 16.201172 A 1.5025854 1.49741 45.000141 0 0 24.207031 17.970703 A 1.5025854 1.49741 45.000141 0 0 25.970703 16.798828 A 1.5025854 1.49741 45.000141 0 0 25.912109 16.003906 A 1.5025854 1.49741 45.000141 0 1 24.207031 16.970703 A 1.5025854 1.49741 45.000141 0 1 23.087891 15.996094 z"
     id="path22" />
</svg>
