<?xml version="1.0" encoding="UTF-8" standalone="no"?>
<svg
   xmlns:dc="http://purl.org/dc/elements/1.1/"
   xmlns:cc="http://creativecommons.org/ns#"
   xmlns:rdf="http://www.w3.org/1999/02/22-rdf-syntax-ns#"
   xmlns:svg="http://www.w3.org/2000/svg"
   xmlns="http://www.w3.org/2000/svg"
   xmlns:sodipodi="http://sodipodi.sourceforge.net/DTD/sodipodi-0.dtd"
   xmlns:inkscape="http://www.inkscape.org/namespaces/inkscape"
   width="48"
   height="48"
   version="1"
   id="svg18"
   sodipodi:docname="appimagekit-hyper.svg"
   inkscape:version="0.92.5 (2060ec1f9f, 2020-04-08)">
  <metadata
     id="metadata24">
    <rdf:RDF>
      <cc:Work
         rdf:about="">
        <dc:format>image/svg+xml</dc:format>
        <dc:type
           rdf:resource="http://purl.org/dc/dcmitype/StillImage" />
      </cc:Work>
    </rdf:RDF>
  </metadata>
  <defs
     id="defs22" />
  <sodipodi:namedview
     pagecolor="#ffffff"
     bordercolor="#666666"
     borderopacity="1"
     objecttolerance="10"
     gridtolerance="10"
     guidetolerance="10"
     inkscape:pageopacity="0"
     inkscape:pageshadow="2"
     inkscape:window-width="783"
     inkscape:window-height="480"
     id="namedview20"
     showgrid="false"
     inkscape:zoom="4.9166667"
     inkscape:cx="24"
     inkscape:cy="24"
     inkscape:window-x="0"
     inkscape:window-y="28"
     inkscape:window-maximized="0"
     inkscape:current-layer="svg18" />
  <rect
     style="opacity:0.2"
     width="40"
     height="40"
     x="4"
     y="5"
     rx="12"
     ry="12"
     id="rect2" />
  <path
     style="fill:#4c566a;fill-opacity:1"
     d="m 16,4 h 16 c 6.648,0 12,5.352 12,12 v 8 H 4 V 16 C 4,9.352 9.352,4 16,4 Z"
     id="path4" />
  <path
     style="opacity:0.2;fill:#ffffff"
     d="M 16,4 C 9.352,4 4,9.352 4,16 v 1 C 4,10.352 9.352,5 16,5 h 16 c 6.648,0 12,5.352 12,12 V 16 C 44,9.352 38.648,4 32,4 Z"
     id="path6" />
  <path
     style="fill:#414b5f;fill-opacity:1"
     d="m 16,44 h 16 c 6.648,0 12,-5.352 12,-12 V 24 H 4 v 8 c 0,6.648 5.352,12 12,12 z"
     id="path8" />
  <path
     style="opacity:0.1"
     d="m 16,9 h 16 c 4.501189,0 8,3.498811 8,8 v 16 c 0,4.501189 -3.498811,8 -8,8 H 16 C 11.498811,41 8,37.501189 8,33 V 17 c 0,-4.501189 3.498811,-8 8,-8 z"
     id="path10" />
  <path
     style="fill:#5f697d;fill-opacity:1"
     d="m 16,8 h 16 c 4.501189,0 8,3.498811 8,8 v 16 c 0,4.501189 -3.498811,8 -8,8 H 16 C 11.498811,40 8,36.501189 8,32 V 16 c 0,-4.501189 3.498811,-8 8,-8 z"
     id="path12" />
  <path
     style="opacity:0.2"
     d="M 18.125,13 12,18.443359 14.625,19.857422 12.875,25 19,19.556641 16.375,18.142578 Z M 21,23 v 2 h 7 v -2 z"
     id="path14" />
  <path
     style="fill:#ffffff"
     d="M 18.125 12 L 12 17.443359 L 14.625 18.857422 L 12.875 24 L 19 18.556641 L 16.375 17.142578 L 18.125 12 z M 21 22 L 21 24 L 28 24 L 28 22 L 21 22 z"
     id="path16" />
</svg>
