<?xml version="1.0" encoding="UTF-8" standalone="no"?>
<svg
   xmlns:dc="http://purl.org/dc/elements/1.1/"
   xmlns:cc="http://creativecommons.org/ns#"
   xmlns:rdf="http://www.w3.org/1999/02/22-rdf-syntax-ns#"
   xmlns:svg="http://www.w3.org/2000/svg"
   xmlns="http://www.w3.org/2000/svg"
   xmlns:sodipodi="http://sodipodi.sourceforge.net/DTD/sodipodi-0.dtd"
   xmlns:inkscape="http://www.inkscape.org/namespaces/inkscape"
   width="48"
   height="48"
   version="1.1"
   id="svg8"
   sodipodi:docname="chrome-agedgfbdadefbodjkkkcpihgcmibpcff-Default.svg"
   inkscape:version="0.92.5 (2060ec1f9f, 2020-04-08)">
  <metadata
     id="metadata14">
    <rdf:RDF>
      <cc:Work
         rdf:about="">
        <dc:format>image/svg+xml</dc:format>
        <dc:type
           rdf:resource="http://purl.org/dc/dcmitype/StillImage" />
      </cc:Work>
    </rdf:RDF>
  </metadata>
  <defs
     id="defs12" />
  <sodipodi:namedview
     pagecolor="#ffffff"
     bordercolor="#666666"
     borderopacity="1"
     objecttolerance="10"
     gridtolerance="10"
     guidetolerance="10"
     inkscape:pageopacity="0"
     inkscape:pageshadow="2"
     inkscape:window-width="783"
     inkscape:window-height="480"
     id="namedview10"
     showgrid="false"
     inkscape:zoom="4.9166667"
     inkscape:cx="24"
     inkscape:cy="24"
     inkscape:window-x="0"
     inkscape:window-y="28"
     inkscape:window-maximized="0"
     inkscape:current-layer="svg8" />
  <path
     d="M 27,12 A 10.5,10.5 0 0 0 17.542968,17.964844 6,6 0 0 0 15,17.398438 6,6 0 0 0 9.058594,22.578124 8,8 0 0 0 4,30 8,8 0 0 0 12,38 H 36 V 37.96484 A 7.5,7.5 0 0 0 36.5,38 7.5,7.5 0 0 0 44,30.5 7.5,7.5 0 0 0 37.460938,23.0625 10.5,10.5 0 0 0 37.499998,22.5 10.5,10.5 0 0 0 27,12 Z"
     style="opacity:.2"
     id="path2" />
  <path
     d="M 27,11 A 10.5,10.5 0 0 0 17.542968,16.964844 6,6 0 0 0 15,16.398438 6,6 0 0 0 9.058594,21.578124 8,8 0 0 0 4,29 8,8 0 0 0 12,37 H 36 V 36.96484 A 7.5,7.5 0 0 0 36.5,37 7.5,7.5 0 0 0 44,29.5 7.5,7.5 0 0 0 37.460938,22.0625 10.5,10.5 0 0 0 37.499998,21.5 10.5,10.5 0 0 0 27,11 Z"
     style="fill:#4c566a;fill-opacity:1"
     id="path4" />
  <path
     d="M 27,11 A 10.5,10.5 0 0 0 17.542969,16.964844 6,6 0 0 0 15,16.398438 6,6 0 0 0 9.0585938,21.578125 8,8 0 0 0 4,29 8,8 0 0 0 4.0507812,29.505859 8,8 0 0 1 9.0585938,22.578125 6,6 0 0 1 15,17.398438 6,6 0 0 1 17.542969,17.964844 10.5,10.5 0 0 1 27,12 10.5,10.5 0 0 1 37.476562,21.826172 10.5,10.5 0 0 0 37.500002,21.5 10.5,10.5 0 0 0 27.000002,11 Z M 37.486328,22.068359 A 10.5,10.5 0 0 1 37.499998,22.5 10.5,10.5 0 0 1 37.460938,23.0625 7.5,7.5 0 0 1 43.945312,29.978516 7.5,7.5 0 0 0 44.000002,29.5 7.5,7.5 0 0 0 37.48633,22.068359 Z"
     style="fill:#ffffff;opacity:.2"
     id="path6" />
</svg>
