<?xml version="1.0" encoding="UTF-8" standalone="no"?>
<svg
   xmlns:dc="http://purl.org/dc/elements/1.1/"
   xmlns:cc="http://creativecommons.org/ns#"
   xmlns:rdf="http://www.w3.org/1999/02/22-rdf-syntax-ns#"
   xmlns:svg="http://www.w3.org/2000/svg"
   xmlns="http://www.w3.org/2000/svg"
   xmlns:sodipodi="http://sodipodi.sourceforge.net/DTD/sodipodi-0.dtd"
   xmlns:inkscape="http://www.inkscape.org/namespaces/inkscape"
   width="48"
   height="48"
   version="1"
   id="svg24"
   sodipodi:docname="im.srain.Srain.svg"
   inkscape:version="0.92.5 (2060ec1f9f, 2020-04-08)">
  <metadata
     id="metadata30">
    <rdf:RDF>
      <cc:Work
         rdf:about="">
        <dc:format>image/svg+xml</dc:format>
        <dc:type
           rdf:resource="http://purl.org/dc/dcmitype/StillImage" />
      </cc:Work>
    </rdf:RDF>
  </metadata>
  <defs
     id="defs28" />
  <sodipodi:namedview
     pagecolor="#ffffff"
     bordercolor="#666666"
     borderopacity="1"
     objecttolerance="10"
     gridtolerance="10"
     guidetolerance="10"
     inkscape:pageopacity="0"
     inkscape:pageshadow="2"
     inkscape:window-width="783"
     inkscape:window-height="480"
     id="namedview26"
     showgrid="false"
     inkscape:zoom="4.9166667"
     inkscape:cx="24"
     inkscape:cy="24"
     inkscape:window-x="0"
     inkscape:window-y="28"
     inkscape:window-maximized="0"
     inkscape:current-layer="svg24" />
  <path
     style="fill:#4c566a;fill-opacity:1"
     d="m23.846 4-0.002 0.0039c-11.007 0.0839-19.844 8.9681-19.844 19.996 0 11.08 8.92 20 20 20 10.68 0 19.351-8.289 19.963-18.811l0.037-0.035v-17.154c0-2.216-1.784-4-4-4h-16.154z"
     id="path2" />
  <path
     fill="#fff"
     opacity=".2"
     d="m23.846 4-0.002 0.0039c-11.007 0.0839-19.844 8.9681-19.844 19.996 0 0.168 0.0076 0.333 0.0117 0.5 0.2632-10.794 8.9923-19.414 19.832-19.496l0.002-0.004h16.154c2.216 0 4 1.784 4 4v-1c0-2.216-1.784-4-4-4h-16.154z"
     id="path4" />
  <path
     opacity=".2"
     d="m4.0117 24.5c-0.004 0.167-0.0117 0.332-0.0117 0.5 0 11.08 8.92 20 20 20 10.68 0 19.351-8.289 19.963-18.811l0.037-0.035v-1l-0.03711 0.03516c-0.612 10.522-9.283 18.811-19.963 18.811-10.912 0-19.724-8.654-19.988-19.5z"
     id="path6" />
  <path
     style="opacity:0.2"
     d="M 22.014688,13 18.335,36 h 3.035157 l 3.679687,-23 z"
     id="path8" />
  <path
     style="fill:#ffffff"
     d="M 22.014688,12 18.335,35 h 3.035157 l 3.679687,-23 z"
     id="path10" />
  <path
     style="opacity:0.2"
     d="M 27.014688,13 23.335,36 h 3.035157 l 3.679687,-23 z"
     id="path12" />
  <path
     style="fill:#ffffff"
     d="M 27.014688,12 23.335,35 h 3.035157 l 3.679687,-23 z"
     id="path14" />
  <path
     style="opacity:0.2"
     d="m 17.947285,19 -0.478516,3 h 13.865196 l 0.478515,-3 z"
     id="path16" />
  <path
     style="fill:#ffffff"
     d="m 17.947285,18 -0.478516,3 h 13.865196 l 0.478515,-3 z"
     id="path18" />
  <path
     style="opacity:0.2"
     d="m 16.667988,27 -0.480469,3 h 13.865196 l 0.480468,-3 z"
     id="path20" />
  <path
     style="fill:#ffffff"
     d="m 16.667988,26 -0.480469,3 h 13.865196 l 0.480468,-3 z"
     id="path22" />
</svg>
