<?xml version="1.0" encoding="UTF-8" standalone="no"?>
<svg
   xmlns:dc="http://purl.org/dc/elements/1.1/"
   xmlns:cc="http://creativecommons.org/ns#"
   xmlns:rdf="http://www.w3.org/1999/02/22-rdf-syntax-ns#"
   xmlns:svg="http://www.w3.org/2000/svg"
   xmlns="http://www.w3.org/2000/svg"
   xmlns:sodipodi="http://sodipodi.sourceforge.net/DTD/sodipodi-0.dtd"
   xmlns:inkscape="http://www.inkscape.org/namespaces/inkscape"
   width="48"
   height="48"
   version="1"
   id="svg32"
   sodipodi:docname="jack_mixer.svg"
   inkscape:version="0.92.5 (2060ec1f9f, 2020-04-08)">
  <metadata
     id="metadata38">
    <rdf:RDF>
      <cc:Work
         rdf:about="">
        <dc:format>image/svg+xml</dc:format>
        <dc:type
           rdf:resource="http://purl.org/dc/dcmitype/StillImage" />
      </cc:Work>
    </rdf:RDF>
  </metadata>
  <defs
     id="defs36" />
  <sodipodi:namedview
     pagecolor="#ffffff"
     bordercolor="#666666"
     borderopacity="1"
     objecttolerance="10"
     gridtolerance="10"
     guidetolerance="10"
     inkscape:pageopacity="0"
     inkscape:pageshadow="2"
     inkscape:window-width="783"
     inkscape:window-height="480"
     id="namedview34"
     showgrid="false"
     inkscape:zoom="4.9166667"
     inkscape:cx="24"
     inkscape:cy="24"
     inkscape:window-x="0"
     inkscape:window-y="28"
     inkscape:window-maximized="0"
     inkscape:current-layer="svg32" />
  <rect
     style="fill:#4c566a;fill-opacity:1"
     width="40"
     height="40"
     x="4"
     y="4"
     rx="2"
     ry="2"
     id="rect2" />
  <path
     fill="#fff"
     style="opacity:0.1"
     d="m6 4c-1.108 0-2 0.892-2 2v1c0-1.108 0.892-2 2-2h36c1.108 0 2 0.892 2 2v-1c0-1.108-0.892-2-2-2h-36z"
     id="path4" />
  <path
     opacity=".2"
     d="m6 45c-1.108 0-2-0.892-2-2v-1c0 1.108 0.892 2 2 2h36c1.108 0 2-0.892 2-2v1c0 1.108-0.892 2-2 2h-36z"
     id="path6" />
  <path
     style="opacity:0.2"
     d="m 14,13 c -1.108,0 -2,0.892 -2,2 v 20 c 0,1.108 0.892,2 2,2 1.108,0 2,-0.892 2,-2 V 15 c 0,-1.108 -0.892,-2 -2,-2 z"
     id="path8" />
  <path
     style="opacity:0.2"
     d="m 24,13 c -1.108,0 -2,0.892 -2,2 v 20 c 0,1.108 0.892,2 2,2 1.108,0 2,-0.892 2,-2 V 15 c 0,-1.108 -0.892,-2 -2,-2 z"
     id="path10" />
  <path
     style="opacity:0.2"
     d="m 34,13 c -1.108,0 -2,0.892 -2,2 v 20 c 0,1.108 0.892,2 2,2 1.108,0 2,-0.892 2,-2 V 15 c 0,-1.108 -0.892,-2 -2,-2 z"
     id="path12" />
  <path
     style="fill:#7d879b;fill-opacity:1"
     d="m 12,20 v 15 c 0,1.108 0.892,2 2,2 1.108,0 2,-0.892 2,-2 V 20 Z"
     id="path14" />
  <path
     style="fill:#7d879b;fill-opacity:1"
     d="m 32,20 v 15 c 0,1.108 0.892,2 2,2 1.108,0 2,-0.892 2,-2 V 20 Z"
     id="path16" />
  <path
     style="fill:#7d879b;fill-opacity:1"
     d="m 22,28 v 7 c 0,1.108 0.892,2 2,2 1.108,0 2,-0.892 2,-2 v -7 z"
     id="path18" />
  <rect
     style="opacity:0.1"
     width="10"
     height="6"
     x="9"
     y="19"
     rx="2"
     ry="2"
     id="rect20" />
  <rect
     style="fill:#ffffff;fill-opacity:1"
     width="10"
     height="6"
     x="9"
     y="18"
     rx="2"
     ry="2"
     id="rect22" />
  <rect
     style="opacity:0.1"
     width="10"
     height="6"
     x="19"
     y="27"
     rx="2"
     ry="2"
     id="rect24" />
  <rect
     style="fill:#ffffff;fill-opacity:1"
     width="10"
     height="6"
     x="19"
     y="26"
     rx="2"
     ry="2"
     id="rect26" />
  <rect
     style="opacity:0.1"
     width="10"
     height="6"
     x="29"
     y="19"
     rx="2"
     ry="2"
     id="rect28" />
  <rect
     style="fill:#ffffff;fill-opacity:1"
     width="10"
     height="6"
     x="29"
     y="18"
     rx="2"
     ry="2"
     id="rect30" />
</svg>
