<?xml version="1.0" encoding="UTF-8" standalone="no"?>
<svg
   xmlns:dc="http://purl.org/dc/elements/1.1/"
   xmlns:cc="http://creativecommons.org/ns#"
   xmlns:rdf="http://www.w3.org/1999/02/22-rdf-syntax-ns#"
   xmlns:svg="http://www.w3.org/2000/svg"
   xmlns="http://www.w3.org/2000/svg"
   xmlns:sodipodi="http://sodipodi.sourceforge.net/DTD/sodipodi-0.dtd"
   xmlns:inkscape="http://www.inkscape.org/namespaces/inkscape"
   width="48"
   height="48"
   version="1.1"
   id="svg12"
   sodipodi:docname="appimagekit-joplin.svg"
   inkscape:version="0.92.5 (2060ec1f9f, 2020-04-08)">
  <metadata
     id="metadata18">
    <rdf:RDF>
      <cc:Work
         rdf:about="">
        <dc:format>image/svg+xml</dc:format>
        <dc:type
           rdf:resource="http://purl.org/dc/dcmitype/StillImage" />
      </cc:Work>
    </rdf:RDF>
  </metadata>
  <defs
     id="defs16" />
  <sodipodi:namedview
     pagecolor="#ffffff"
     bordercolor="#666666"
     borderopacity="1"
     objecttolerance="10"
     gridtolerance="10"
     guidetolerance="10"
     inkscape:pageopacity="0"
     inkscape:pageshadow="2"
     inkscape:window-width="640"
     inkscape:window-height="480"
     id="namedview14"
     showgrid="false"
     inkscape:zoom="4.9166667"
     inkscape:cx="24"
     inkscape:cy="24"
     inkscape:current-layer="svg12" />
  <rect
     width="40"
     height="40"
     x="4"
     y="5"
     rx="12"
     ry="12"
     style="opacity:0.2"
     id="rect2" />
  <rect
     width="40"
     height="40"
     x="4"
     y="4"
     rx="12"
     ry="12"
     style="fill:#4c566a;fill-opacity:1"
     id="rect4" />
  <path
     d="m24 14v-4h11v4h-2s-1 0-1 1v18c0 2-1 7-9 7-7 0-10-5.544644-10-10.5 0-10 11-7 11-7v5.5s-1-1-3-1c-1.20185 0-3 1-3 3 0 2.603417 3 4 5 4 3 0 4-2 4-3v-16c0-1-1-1-1-1z"
     style="opacity:0.2"
     id="path6" />
  <path
     d="m24 13v-4h11v4h-2s-1 0-1 1v18c0 2-1 7-9 7-7 0-10-5.544644-10-10.5 0-10 11-7 11-7v5.5s-1-1-3-1c-1.20185 0-3 1-3 3 0 2.603417 3 4 5 4 3 0 4-2 4-3v-16c0-1-1-1-1-1z"
     style="fill:#ffffff"
     id="path8" />
  <path
     style="fill:#ffffff;opacity:0.1"
     d="M 16 4 C 9.352 4 4 9.352 4 16 L 4 17 C 4 10.352 9.352 5 16 5 L 32 5 C 38.648 5 44 10.352 44 17 L 44 16 C 44 9.352 38.648 4 32 4 L 16 4 z"
     id="path10" />
</svg>
