<?xml version="1.0" encoding="UTF-8" standalone="no"?>
<svg
   xmlns:dc="http://purl.org/dc/elements/1.1/"
   xmlns:cc="http://creativecommons.org/ns#"
   xmlns:rdf="http://www.w3.org/1999/02/22-rdf-syntax-ns#"
   xmlns:svg="http://www.w3.org/2000/svg"
   xmlns="http://www.w3.org/2000/svg"
   xmlns:sodipodi="http://sodipodi.sourceforge.net/DTD/sodipodi-0.dtd"
   xmlns:inkscape="http://www.inkscape.org/namespaces/inkscape"
   width="48"
   height="48"
   version="1"
   id="svg36"
   sodipodi:docname="cs-user-accounts.svg"
   inkscape:version="0.92.5 (2060ec1f9f, 2020-04-08)">
  <metadata
     id="metadata42">
    <rdf:RDF>
      <cc:Work
         rdf:about="">
        <dc:format>image/svg+xml</dc:format>
        <dc:type
           rdf:resource="http://purl.org/dc/dcmitype/StillImage" />
      </cc:Work>
    </rdf:RDF>
  </metadata>
  <defs
     id="defs40" />
  <sodipodi:namedview
     pagecolor="#ffffff"
     bordercolor="#666666"
     borderopacity="1"
     objecttolerance="10"
     gridtolerance="10"
     guidetolerance="10"
     inkscape:pageopacity="0"
     inkscape:pageshadow="2"
     inkscape:window-width="783"
     inkscape:window-height="480"
     id="namedview38"
     showgrid="false"
     inkscape:zoom="4.9166667"
     inkscape:cx="24"
     inkscape:cy="24"
     inkscape:window-x="0"
     inkscape:window-y="28"
     inkscape:window-maximized="0"
     inkscape:current-layer="svg36" />
  <rect
     fill="#816130"
     width="32"
     height="40"
     x="-40"
     y="-44"
     rx="2"
     ry="2"
     transform="matrix(0,-1,-1,0,0,0)"
     id="rect2"
     style="fill:#4c566a;fill-opacity:1" />
  <path
     fill="#fff"
     opacity=".1"
     d="m6 8c-1.108 0-2 0.892-2 2v1c0-1.108 0.892-2 2-2h36c1.108 0 2 0.892 2 2v-1c0-1.108-0.892-2-2-2z"
     id="path4" />
  <path
     opacity=".2"
     d="m4 38v1c0 1.108 0.892 2 2 2h36c1.108 0 2-0.892 2-2v-1c0 1.108-0.892 2-2 2h-36c-1.108 0-2-0.892-2-2z"
     id="path6" />
  <g
     opacity=".2"
     transform="translate(-1,1.0001)"
     id="g20">
    <g
       transform="translate(-6)"
       id="g12">
      <path
         d="m24 13c2.7614 0 5 2.2387 5 5s-2.2386 5-5 5-5-2.2387-5-5 2.2386-5 5-5z"
         id="path8" />
      <path
         d="m24 27c10-0.005 10 6.401 10 6.401v1.5989h-20v-1.5989s0-6.3957 10-6.4011z"
         id="path10" />
    </g>
    <g
       id="g18">
      <path
         d="m34 13c2.2092 0 4 1.7909 4 4s-1.7908 4-4 4c-2.2091 0-4-1.7909-4-4s1.7909-4 4-4z"
         id="path14" />
      <path
         d="m34 23c7-0.003 7 4.801 7 4.801v1.199h-14v-1.199s0-4.7968 7.0003-4.8008z"
         id="path16" />
    </g>
  </g>
  <g
     fill="#fff"
     transform="translate(-1,5e-5)"
     id="g34">
    <g
       transform="translate(-6)"
       id="g26">
      <path
         d="m24 13c2.7614 0 5 2.2387 5 5s-2.2386 5-5 5-5-2.2387-5-5 2.2386-5 5-5z"
         id="path22" />
      <path
         d="m24 27c10-0.005 10 6.401 10 6.401v1.5989h-20v-1.5989s0-6.3957 10-6.4011z"
         id="path24" />
    </g>
    <g
       id="g32">
      <path
         d="m34 13c2.2092 0 4 1.7909 4 4s-1.7908 4-4 4c-2.2091 0-4-1.7909-4-4s1.7909-4 4-4z"
         id="path28" />
      <path
         d="m34 23c7-0.003 7 4.801 7 4.801v1.199h-14v-1.199s0-4.7968 7.0003-4.8008z"
         id="path30" />
    </g>
  </g>
</svg>
