<?xml version="1.0" encoding="UTF-8" standalone="no"?>
<svg
   xmlns:dc="http://purl.org/dc/elements/1.1/"
   xmlns:cc="http://creativecommons.org/ns#"
   xmlns:rdf="http://www.w3.org/1999/02/22-rdf-syntax-ns#"
   xmlns:svg="http://www.w3.org/2000/svg"
   xmlns="http://www.w3.org/2000/svg"
   xmlns:sodipodi="http://sodipodi.sourceforge.net/DTD/sodipodi-0.dtd"
   xmlns:inkscape="http://www.inkscape.org/namespaces/inkscape"
   width="48"
   height="48"
   version="1"
   id="svg32"
   sodipodi:docname="xplayer.svg"
   inkscape:version="0.92.5 (2060ec1f9f, 2020-04-08)">
  <metadata
     id="metadata38">
    <rdf:RDF>
      <cc:Work
         rdf:about="">
        <dc:format>image/svg+xml</dc:format>
        <dc:type
           rdf:resource="http://purl.org/dc/dcmitype/StillImage" />
      </cc:Work>
    </rdf:RDF>
  </metadata>
  <defs
     id="defs36" />
  <sodipodi:namedview
     pagecolor="#ffffff"
     bordercolor="#666666"
     borderopacity="1"
     objecttolerance="10"
     gridtolerance="10"
     guidetolerance="10"
     inkscape:pageopacity="0"
     inkscape:pageshadow="2"
     inkscape:window-width="783"
     inkscape:window-height="480"
     id="namedview34"
     showgrid="false"
     inkscape:zoom="4.9166667"
     inkscape:cx="24"
     inkscape:cy="24"
     inkscape:window-x="0"
     inkscape:window-y="28"
     inkscape:window-maximized="0"
     inkscape:current-layer="svg32" />
  <path
     fill="#54402a"
     d="m44 40v-32c0-1.108-0.892-2-2-2h-36c-1.108 0-2 0.892-2 2v32c0 1.108 0.892 2 2 2h36c1.108 0 2-0.892 2-2z"
     id="path2"
     style="fill:#4c566a;fill-opacity:1" />
  <path
     style="opacity:0.2"
     d="m 18.765,19.999606 a 0.74998,0.77778 0 0 0 -0.765,0.778 l 0,12.444 a 0.74998,0.77778 0 0 0 1.122,0.67596 l 10.499,-6.2215 a 0.74998,0.77778 0 0 0 0,-1.3519 l -10.499,-6.222 a 0.74998,0.77778 0 0 0 -0.35696,-0.10188 z"
     id="path4" />
  <path
     style="fill:#d2d2d2"
     d="m18.765 19a0.74998 0.77778 0 0 0 -0.765 0.778v12.444a0.74998 0.77778 0 0 0 1.122 0.67596l10.499-6.2215a0.74998 0.77778 0 0 0 0 -1.3519l-10.499-6.222a0.74998 0.77778 0 0 0 -0.35696 -0.10188z"
     id="path6" />
  <g
     transform="translate(-144,-236)"
     id="g28">
    <path
       opacity=".2"
       d="m150 242c-1.108 0-2 0.892-2 2v6h40v-6c0-1.108-0.892-2-2-2z"
       id="path8" />
    <path
       opacity=".2"
       d="m150 242c-1.108 0-2 0.892-2 2v2h40v-2c0-1.108-0.892-2-2-2z"
       id="path10" />
    <path
       fill="#d2d2d2"
       d="m150 242c-1.108 0-2 0.892-2 2v6h9v-4l-4-4z"
       id="path12" />
    <path
       fill="#bebebe"
       fill-rule="evenodd"
       d="m163 246-4-4h5l4 4z"
       id="path14" />
    <path
       fill="#d2d2d2"
       fill-rule="evenodd"
       d="m163 246-4 4h5l4-4z"
       id="path16" />
    <path
       fill="#bebebe"
       fill-rule="evenodd"
       d="m173 246-4-4h5l4 4z"
       id="path18" />
    <path
       fill="#d2d2d2"
       fill-rule="evenodd"
       d="m173 246-4 4h5l4-4z"
       id="path20" />
    <path
       fill="#bebebe"
       fill-rule="evenodd"
       d="m183 246-4-4h5l4 4z"
       id="path22" />
    <path
       fill="#d2d2d2"
       fill-rule="evenodd"
       d="m183 246-4 4h5l4-4z"
       id="path24" />
    <path
       fill="#fff"
       opacity=".2"
       d="m150 242c-1.108 0-2 0.892-2 2v1c0-1.108 0.892-2 2-2h36c1.108 0 2 0.892 2 2v-1c0-1.108-0.892-2-2-2h-36z"
       id="path26" />
  </g>
  <path
     opacity=".2"
     d="m4 40v1c0 1.108 0.892 2 2 2h36c1.108 0 2-0.892 2-2v-1c0 1.108-0.892 2-2 2h-36c-1.108 0-2-0.892-2-2z"
     id="path30" />
</svg>
