<?xml version="1.0" encoding="UTF-8" standalone="no"?>
<svg
   xmlns:dc="http://purl.org/dc/elements/1.1/"
   xmlns:cc="http://creativecommons.org/ns#"
   xmlns:rdf="http://www.w3.org/1999/02/22-rdf-syntax-ns#"
   xmlns:svg="http://www.w3.org/2000/svg"
   xmlns="http://www.w3.org/2000/svg"
   xmlns:sodipodi="http://sodipodi.sourceforge.net/DTD/sodipodi-0.dtd"
   xmlns:inkscape="http://www.inkscape.org/namespaces/inkscape"
   width="48"
   height="48"
   version="1"
   id="svg24"
   sodipodi:docname="alarm-clock.svg"
   inkscape:version="0.92.5 (2060ec1f9f, 2020-04-08)">
  <metadata
     id="metadata30">
    <rdf:RDF>
      <cc:Work
         rdf:about="">
        <dc:format>image/svg+xml</dc:format>
        <dc:type
           rdf:resource="http://purl.org/dc/dcmitype/StillImage" />
      </cc:Work>
    </rdf:RDF>
  </metadata>
  <defs
     id="defs28" />
  <sodipodi:namedview
     pagecolor="#ffffff"
     bordercolor="#666666"
     borderopacity="1"
     objecttolerance="10"
     gridtolerance="10"
     guidetolerance="10"
     inkscape:pageopacity="0"
     inkscape:pageshadow="2"
     inkscape:window-width="1600"
     inkscape:window-height="849"
     id="namedview26"
     showgrid="false"
     inkscape:zoom="4.9166667"
     inkscape:cx="-13.825901"
     inkscape:cy="31.668039"
     inkscape:window-x="0"
     inkscape:window-y="28"
     inkscape:window-maximized="1"
     inkscape:current-layer="svg24" />
  <path
     fill="#4f4f4f"
     d="m16.939 32.684c-1.0714-0.0568-2.3 0.43472-3.2793 1.4141l-4.242 4.242c-1.567 1.567-1.8823 3.774-0.7071 4.949s3.3821 0.86 4.9491-0.707l4.2422-4.2422c1.5669-1.5669 1.8822-3.774 0.70703-4.9492-0.4407-0.4407-1.0271-0.67295-1.6699-0.70703zm13.439 0c-0.64283 0.03408-1.2273 0.26633-1.668 0.70703-1.1752 1.1752-0.85992 3.3823 0.70703 4.9492l4.2422 4.2422c1.5669 1.5669 3.774 1.8822 4.9492 0.70703s0.85992-3.3823-0.70703-4.9492l-4.2422-4.2422c-0.97934-0.97934-2.2099-1.4709-3.2812-1.4141z"
     id="path2" />
  <path
     opacity=".2"
     d="m19.27 35.78c-0.13987 0.87662-0.60118 1.7945-1.3672 2.5605l-4.2422 4.2422c-1.568 1.567-3.7749 1.882-4.9501 0.707-0.3739-0.374-0.5803-0.858-0.6601-1.387-0.14573 0.91599 0.059816 1.7864 0.66016 2.3867 1.1752 1.1752 3.3823 0.85992 4.9492-0.70703l4.2422-4.2422c1.068-1.068 1.5378-2.4272 1.3672-3.5605zm8.7812 0c-0.17058 1.1334 0.29916 2.4925 1.3672 3.5605l4.2422 4.2422c1.5669 1.5669 3.774 1.8822 4.9492 0.70703 0.60034-0.60034 0.80588-1.4707 0.66016-2.3867-0.0798 0.52909-0.28617 1.0127-0.66016 1.3867-1.1752 1.1752-3.3823 0.85992-4.9492-0.70703l-4.242-4.242c-0.766-0.766-1.227-1.684-1.367-2.561z"
     id="path4" />
  <path
     style="fill:#4c566a;fill-opacity:1"
     d="m8 4a7 7 0 0 0 -7 7 7 7 0 0 0 7 7 7 7 0 0 0 7 -7 7 7 0 0 0 -7 -7zm32 0a7 7 0 0 0 -7 7 7 7 0 0 0 7 7 7 7 0 0 0 7 -7 7 7 0 0 0 -7 -7z"
     id="path6" />
  <path
     fill="#fff"
     style="opacity:0.1"
     d="m8 4a7 7 0 0 0 -7 7 7 7 0 0 0 0.0234 0.459 7 7 0 0 1 6.9766 -6.459 7 7 0 0 1 6.977 6.541 7 7 0 0 0 0.023 -0.541 7 7 0 0 0 -7 -7zm32 0a7 7 0 0 0 -7 7 7 7 0 0 0 0.02344 0.45898 7 7 0 0 1 6.977 -6.459 7 7 0 0 1 6.977 6.541 7 7 0 0 0 0.023 -0.541 7 7 0 0 0 -7 -7z"
     id="path8" />
  <rect
     fill="#f54b3e"
     width="40"
     height="40"
     x="4"
     y="4"
     rx="20"
     ry="20"
     id="rect10"
     style="fill:#4c566a;fill-opacity:1" />
  <path
     fill="#fff"
     style="opacity:0.2"
     d="m24 4.0182c-11.07 0-19.982 8.9119-19.982 19.982 0 0.16757-0.004 0.33299 0 0.49955 0.2644-10.837 9.08-19.483 19.982-19.483s19.718 8.6458 19.982 19.482c0.004-0.16656 0-0.33198 0-0.49955 0-11.069-8.912-19.981-19.982-19.981z"
     id="path12" />
  <rect
     style="opacity:0.2"
     width="34"
     height="34"
     x="-42"
     y="-41"
     rx="17"
     ry="17"
     transform="matrix(0,-1,-1,0,0,0)"
     id="rect14" />
  <rect
     style="fill:#f9f9fa;fill-opacity:1;stroke-width:0.92821532"
     width="31.559322"
     height="31.559322"
     x="-39.779659"
     y="-39.779659"
     rx="15.779661"
     ry="15.779661"
     transform="matrix(0,-1,-1,0,0,0)"
     id="rect16" />
  <path
     style="opacity:1;fill:#242424;fill-opacity:1;stroke-width:0.92821532"
     d="m 24,9.1485543 c -1.025278,0 -1.856431,0.8311524 -1.856431,1.8564307 0,1.025279 0.831153,1.856431 1.856431,1.856431 1.025278,0 1.856431,-0.831152 1.856431,-1.856431 0,-1.0252783 -0.831153,-1.8564307 -1.856431,-1.8564307 z m 7.400342,8.3031757 c -0.119647,0.01501 -0.238566,0.05356 -0.349894,0.117841 l -7.713977,4.454346 c -1.052318,0.524024 -1.450815,1.895308 -1.0243,2.688561 l 2.804588,4.856814 c 0.513758,0.889852 1.643748,1.192301 2.534463,0.678033 0.890679,-0.514232 1.193585,-1.644584 0.679846,-2.534464 l -2.784646,-4.822368 6.432242,-3.712861 c 0.445339,-0.257117 0.59603,-0.823864 0.339016,-1.269045 -0.19276,-0.333865 -0.558397,-0.501882 -0.917338,-0.456857 z m -20.395357,4.691839 c -1.0252783,0 -1.8564307,0.831153 -1.8564307,1.856431 0,1.025278 0.8311524,1.856431 1.8564307,1.856431 1.025278,0 1.856431,-0.831153 1.856431,-1.856431 0,-1.025278 -0.831153,-1.856431 -1.856431,-1.856431 z m 25.99003,0 c -1.025278,0 -1.856431,0.831153 -1.856431,1.856431 0,1.025278 0.831153,1.856431 1.856431,1.856431 1.025278,0 1.856431,-0.831153 1.856431,-1.856431 0,-1.025278 -0.831153,-1.856431 -1.856431,-1.856431 z M 24,35.138584 c -1.025278,0 -1.856431,0.831153 -1.856431,1.856431 0,1.025278 0.831153,1.856431 1.856431,1.856431 1.025278,0 1.856431,-0.831153 1.856431,-1.856431 0,-1.025278 -0.831153,-1.856431 -1.856431,-1.856431 z"
     id="path18"
     inkscape:connector-curvature="0" />
  <path
     opacity=".2"
     d="m4.0117 24.5c-0.0041 0.167-0.0117 0.332-0.0117 0.5 0 11.08 8.92 20 20 20s20-8.92 20-20c0-0.16787-0.0076-0.33314-0.01172-0.5-0.264 10.846-9.076 19.5-19.988 19.5s-19.724-8.654-19.988-19.5z"
     id="path20" />
  <path
     style="opacity:0.2;fill:#ffffff"
     d="M 24 7 C 14.582 7 7 14.582 7 24 C 7 24.168936 7.0205447 24.332279 7.0253906 24.5 C 7.2907005 15.317436 14.750936 8 24 8 C 33.249064 8 40.7093 15.317436 40.974609 24.5 C 40.979455 24.332279 41 24.168936 41 24 C 41 14.582 33.418 7 24 7 z"
     id="path22" />
</svg>
