<?xml version="1.0" encoding="UTF-8" standalone="no"?>
<svg
   xmlns:dc="http://purl.org/dc/elements/1.1/"
   xmlns:cc="http://creativecommons.org/ns#"
   xmlns:rdf="http://www.w3.org/1999/02/22-rdf-syntax-ns#"
   xmlns:svg="http://www.w3.org/2000/svg"
   xmlns="http://www.w3.org/2000/svg"
   xmlns:sodipodi="http://sodipodi.sourceforge.net/DTD/sodipodi-0.dtd"
   xmlns:inkscape="http://www.inkscape.org/namespaces/inkscape"
   width="48"
   height="48"
   version="1"
   id="svg12"
   sodipodi:docname="kanagram.svg"
   inkscape:version="0.92.5 (2060ec1f9f, 2020-04-08)">
  <metadata
     id="metadata18">
    <rdf:RDF>
      <cc:Work
         rdf:about="">
        <dc:format>image/svg+xml</dc:format>
        <dc:type
           rdf:resource="http://purl.org/dc/dcmitype/StillImage" />
      </cc:Work>
    </rdf:RDF>
  </metadata>
  <defs
     id="defs16" />
  <sodipodi:namedview
     pagecolor="#ffffff"
     bordercolor="#666666"
     borderopacity="1"
     objecttolerance="10"
     gridtolerance="10"
     guidetolerance="10"
     inkscape:pageopacity="0"
     inkscape:pageshadow="2"
     inkscape:window-width="765"
     inkscape:window-height="480"
     id="namedview14"
     showgrid="false"
     inkscape:zoom="4.9166667"
     inkscape:cx="24"
     inkscape:cy="24"
     inkscape:window-x="0"
     inkscape:window-y="28"
     inkscape:window-maximized="0"
     inkscape:current-layer="svg12" />
  <rect
     fill="#6b664c"
     width="40"
     height="32"
     x="-44"
     y="8"
     rx="2"
     ry="2"
     transform="scale(-1,1)"
     id="rect2"
     style="fill:#4c566a;fill-opacity:1" />
  <path
     opacity=".2"
     d="m4 38v1c0 1.108 0.892 2 2 2h36c1.108 0 2-0.892 2-2v-1c0 1.108-0.892 2-2 2h-36c-1.108 0-2-0.892-2-2z"
     id="path4" />
  <path
     fill="#fff"
     opacity=".8"
     d="m10 18h3.6893v5.1105l5.319-5.11h4.283l-6.89 6.63 7.599 7.37h-4.619l-5.692-5.514v5.514h-3.689v-14z"
     id="path6" />
  <path
     fill="#fff"
     opacity=".8"
     d="m38 30.735q-1.4118 0.63267-2.9314 0.949-1.52 0.316-3.138 0.316-3.656 0-5.794-1.88-2.137-1.889-2.137-5.115 0-3.263 2.176-5.134 2.177-1.871 5.961-1.871 1.4608 0 2.7941 0.25307 1.3431 0.25307 2.5294 0.75016v2.7928q-1.2255-0.6417-2.4412-0.95804-1.2059-0.31633-2.4216-0.31633-2.2549 0-3.4804 1.1659-1.2157 1.1569-1.2157 3.317 0 2.142 1.1765 3.3079t3.3431 1.1659q0.58824 0 1.0882-0.06327 0.5098-0.07231 0.91176-0.21691v-2.621h-2.3039v-2.3318h5.8824v6.4893z"
     id="path8" />
  <path
     fill="#fff"
     opacity=".1"
     d="m6 8c-1.108 0-2 0.892-2 2v1c0-1.108 0.892-2 2-2h36c1.108 0 2 0.892 2 2v-1c0-1.108-0.892-2-2-2h-36z"
     id="path10" />
</svg>
