<?xml version="1.0" encoding="UTF-8" standalone="no"?>
<svg
   xmlns:dc="http://purl.org/dc/elements/1.1/"
   xmlns:cc="http://creativecommons.org/ns#"
   xmlns:rdf="http://www.w3.org/1999/02/22-rdf-syntax-ns#"
   xmlns:svg="http://www.w3.org/2000/svg"
   xmlns="http://www.w3.org/2000/svg"
   xmlns:sodipodi="http://sodipodi.sourceforge.net/DTD/sodipodi-0.dtd"
   xmlns:inkscape="http://www.inkscape.org/namespaces/inkscape"
   width="48"
   height="48"
   version="1"
   id="svg26"
   sodipodi:docname="kdenlive.svg"
   inkscape:version="0.92.5 (2060ec1f9f, 2020-04-08)">
  <metadata
     id="metadata32">
    <rdf:RDF>
      <cc:Work
         rdf:about="">
        <dc:format>image/svg+xml</dc:format>
        <dc:type
           rdf:resource="http://purl.org/dc/dcmitype/StillImage" />
      </cc:Work>
    </rdf:RDF>
  </metadata>
  <defs
     id="defs30" />
  <sodipodi:namedview
     pagecolor="#ffffff"
     bordercolor="#666666"
     borderopacity="1"
     objecttolerance="10"
     gridtolerance="10"
     guidetolerance="10"
     inkscape:pageopacity="0"
     inkscape:pageshadow="2"
     inkscape:window-width="640"
     inkscape:window-height="480"
     id="namedview28"
     showgrid="false"
     inkscape:zoom="13.906433"
     inkscape:cx="9.2286228"
     inkscape:cy="22.433117"
     inkscape:current-layer="svg26" />
  <path
     style="fill:#4c566a;fill-opacity:1"
     d="m44 40v-32c0-1.108-0.892-2-2-2h-36c-1.108 0-2 0.892-2 2v32c0 1.108 0.892 2 2 2h36c1.108 0 2-0.892 2-2z"
     id="path2" />
  <path
     opacity=".2"
     d="m4 40v1c0 1.108 0.892 2 2 2h36c1.108 0 2-0.892 2-2v-1c0 1.108-0.892 2-2 2h-36c-1.108 0-2-0.892-2-2z"
     id="path4" />
  <path
     fill="#fff"
     style="opacity:0.1"
     d="m6 6c-1.108 0-2 0.892-2 2v1c0-1.108 0.892-2 2-2h36c1.108 0 2 0.892 2 2v-1c0-1.108-0.892-2-2-2h-36z"
     id="path6" />
  <path
     style="fill:#5f697d;fill-opacity:1"
     d="m 23,6 0.03906,36 H 25 V 6 Z"
     id="path8" />
  <path
     style="opacity:0.2"
     d="M 30,5.9999999 H 23.999999 18 L 21,10 l 2.999999,4 3,-4 z"
     id="path10" />
  <path
     style="opacity:0.2;fill-rule:evenodd"
     d="m 18,14 v 2 h 3 v -2 z m -3,4 v 2 h 6 v -2 z m -5,4 v 2 h 11 v -2 z m -4,4 v 2 h 15 v -2 z m 4,4 v 2 h 11 v -2 z m 5,4 v 2 h 6 v -2 z"
     id="path12" />
  <path
     style="fill:#ffffff;fill-rule:evenodd;fill-opacity:1"
     d="m 18,13 v 2 h 3 v -2 z m -3,4 v 2 h 6 v -2 z m -5,4 v 2 h 11 v -2 z m -4,4 v 2 h 15 v -2 z m 4,4 v 2 h 11 v -2 z m 5,4 v 2 h 6 v -2 z"
     id="path14" />
  <path
     style="fill:#5f697d;fill-opacity:1"
     d="M 30,4.9999999 H 23.999999 18 l 3,4 L 23.999999,13 l 3,-4 z"
     id="path16" />
  <path
     style="opacity:0.2"
     d="m 30.036863,16.001386 c -0.491018,0.02978 -1.019738,0.515493 -1.018503,1.053686 L 29,32.945127 c 0,0.717646 0.938879,1.342107 1.475972,0.915778 l 10.119041,-7.972194 c 0.5406,-0.421061 0.539365,-1.408778 0,-1.831707 L 30.494741,16.139288 c -0.13483,-0.10564 -0.293802,-0.147733 -0.457547,-0.137902 z"
     id="path18" />
  <path
     style="fill:#f3f7fc;fill-opacity:1"
     d="m 30.036863,15.001386 c -0.491018,0.02978 -1.019738,0.515493 -1.018503,1.053686 L 29,31.945127 c 0,0.717646 0.938879,1.342107 1.475972,0.915778 l 10.119041,-7.972194 c 0.5406,-0.421061 0.539365,-1.408778 0,-1.831707 L 30.494741,15.139288 c -0.13483,-0.10564 -0.293802,-0.147733 -0.457547,-0.137902 z"
     id="path20" />
  <path
     style="opacity:0.1;fill:#ffffff;fill-rule:evenodd"
     d="M 18 13 L 18 14 L 21 14 L 21 13 L 18 13 z M 15 17 L 15 18 L 21 18 L 21 17 L 15 17 z M 10 21 L 10 22 L 21 22 L 21 21 L 10 21 z M 6 25 L 6 26 L 21 26 L 21 25 L 6 25 z M 10 29 L 10 30 L 21 30 L 21 29 L 10 29 z M 15 33 L 15 34 L 21 34 L 21 33 L 15 33 z"
     id="path22" />
  <path
     style="opacity:0.1;fill:#ffffff"
     d="M 30.037109 15.001953 C 29.546091 15.031733 29.016343 15.516495 29.017578 16.054688 L 29 31.945312 C 29 31.948028 29.001926 31.950412 29.001953 31.953125 L 29.017578 17.054688 C 29.016343 16.516495 29.546091 16.031733 30.037109 16.001953 C 30.200854 15.992122 30.359311 16.033032 30.494141 16.138672 L 40.595703 24.056641 C 40.733268 24.164508 40.834851 24.310081 40.902344 24.472656 C 41.098385 23.998688 40.997018 23.371321 40.595703 23.056641 L 30.494141 15.138672 C 30.359311 15.033032 30.200854 14.992122 30.037109 15.001953 z"
     id="path24" />
</svg>
