<?xml version="1.0" encoding="UTF-8" standalone="no"?>
<svg
   xmlns:dc="http://purl.org/dc/elements/1.1/"
   xmlns:cc="http://creativecommons.org/ns#"
   xmlns:rdf="http://www.w3.org/1999/02/22-rdf-syntax-ns#"
   xmlns:svg="http://www.w3.org/2000/svg"
   xmlns="http://www.w3.org/2000/svg"
   xmlns:sodipodi="http://sodipodi.sourceforge.net/DTD/sodipodi-0.dtd"
   xmlns:inkscape="http://www.inkscape.org/namespaces/inkscape"
   width="48"
   height="48"
   version="1"
   id="svg42"
   sodipodi:docname="kdesvn.svg"
   inkscape:version="0.92.5 (2060ec1f9f, 2020-04-08)">
  <metadata
     id="metadata48">
    <rdf:RDF>
      <cc:Work
         rdf:about="">
        <dc:format>image/svg+xml</dc:format>
        <dc:type
           rdf:resource="http://purl.org/dc/dcmitype/StillImage" />
      </cc:Work>
    </rdf:RDF>
  </metadata>
  <defs
     id="defs46" />
  <sodipodi:namedview
     pagecolor="#ffffff"
     bordercolor="#666666"
     borderopacity="1"
     objecttolerance="10"
     gridtolerance="10"
     guidetolerance="10"
     inkscape:pageopacity="0"
     inkscape:pageshadow="2"
     inkscape:window-width="765"
     inkscape:window-height="480"
     id="namedview44"
     showgrid="false"
     inkscape:zoom="4.9166667"
     inkscape:cx="24"
     inkscape:cy="24"
     inkscape:window-x="0"
     inkscape:window-y="28"
     inkscape:window-maximized="0"
     inkscape:current-layer="svg42" />
  <rect
     style="fill:#4c566a;fill-opacity:1"
     width="40"
     height="40"
     x="4"
     y="4"
     rx="2"
     ry="2"
     id="rect2" />
  <path
     fill="#fff"
     style="opacity:.2"
     d="m6 4c-1.108 0-2 0.892-2 2v1c0-1.108 0.892-2 2-2h36c1.108 0 2 0.892 2 2v-1c0-1.108-0.892-2-2-2h-36z"
     id="path4" />
  <path
     opacity=".2"
     d="m4 42v1c0 1.108 0.892 2 2 2h36c1.108 0 2-0.892 2-2v-1c0 1.108-0.892 2-2 2h-36c-1.108 0-2-0.892-2-2z"
     id="path6" />
  <path
     style="stroke-linejoin:round;stroke:#fcfcfc;stroke-width:2;fill:none;stroke-opacity:1"
     d="m11 24h20"
     id="path8" />
  <path
     style="stroke-linejoin:round;stroke:#ffffff;stroke-width:2;fill:none;stroke-opacity:1"
     d="m21 24 5-10"
     id="path10" />
  <path
     style="stroke-linejoin:round;stroke:#fcfcfc;stroke-width:2;fill:none;stroke-opacity:1"
     d="m21 24 5 10h10"
     id="path12" />
  <g
     style="opacity:.2"
     id="g26">
    <circle
       cx="11"
       cy="25"
       r="3"
       id="circle14" />
    <circle
       cx="21"
       cy="25"
       r="3"
       id="circle16" />
    <circle
       cx="31"
       cy="25"
       r="3"
       id="circle18" />
    <circle
       cx="26"
       cy="35"
       r="3"
       id="circle20" />
    <circle
       cx="36"
       cy="35"
       r="3"
       id="circle22" />
    <circle
       cx="26"
       cy="15"
       r="3"
       id="circle24" />
  </g>
  <g
     style="fill:#f5f5f5"
     transform="translate(0,-1)"
     id="g40">
    <circle
       style="fill:#ffffff"
       cx="11"
       cy="25"
       r="3"
       id="circle28" />
    <circle
       style="fill:#ffffff"
       cx="21"
       cy="25"
       r="3"
       id="circle30" />
    <circle
       style="fill:#ffffff"
       cx="31"
       cy="25"
       r="3"
       id="circle32" />
    <circle
       style="fill:#ffffff"
       cx="26"
       cy="35"
       r="3"
       id="circle34" />
    <circle
       style="fill:#ffffff"
       cx="36"
       cy="35"
       r="3"
       id="circle36" />
    <circle
       style="fill:#ffffff"
       cx="26"
       cy="15"
       r="3"
       id="circle38" />
  </g>
</svg>
