<?xml version="1.0" encoding="UTF-8" standalone="no"?>
<svg
   xmlns:dc="http://purl.org/dc/elements/1.1/"
   xmlns:cc="http://creativecommons.org/ns#"
   xmlns:rdf="http://www.w3.org/1999/02/22-rdf-syntax-ns#"
   xmlns:svg="http://www.w3.org/2000/svg"
   xmlns="http://www.w3.org/2000/svg"
   xmlns:sodipodi="http://sodipodi.sourceforge.net/DTD/sodipodi-0.dtd"
   xmlns:inkscape="http://www.inkscape.org/namespaces/inkscape"
   width="48"
   height="48"
   version="1"
   id="svg12"
   sodipodi:docname="mate-invest-applet.svg"
   inkscape:version="0.92.5 (2060ec1f9f, 2020-04-08)">
  <metadata
     id="metadata18">
    <rdf:RDF>
      <cc:Work
         rdf:about="">
        <dc:format>image/svg+xml</dc:format>
        <dc:type
           rdf:resource="http://purl.org/dc/dcmitype/StillImage" />
      </cc:Work>
    </rdf:RDF>
  </metadata>
  <defs
     id="defs16" />
  <sodipodi:namedview
     pagecolor="#ffffff"
     bordercolor="#666666"
     borderopacity="1"
     objecttolerance="10"
     gridtolerance="10"
     guidetolerance="10"
     inkscape:pageopacity="0"
     inkscape:pageshadow="2"
     inkscape:window-width="765"
     inkscape:window-height="480"
     id="namedview14"
     showgrid="false"
     inkscape:zoom="4.9166667"
     inkscape:cx="24"
     inkscape:cy="24"
     inkscape:window-x="0"
     inkscape:window-y="28"
     inkscape:window-maximized="0"
     inkscape:current-layer="svg12" />
  <circle
     fill="#578cff"
     cx="24"
     cy="24"
     r="20"
     id="circle2"
     style="fill:#4c566a;fill-opacity:1" />
  <path
     fill="#fff"
     opacity=".2"
     d="m24 4c-11.079 0-19.998 8.92-19.998 20 0 0.16772-0.004 0.33329 0 0.5 0.2642-10.846 9.087-19.5 19.998-19.5s19.734 8.6536 19.998 19.5c0.004-0.16671 0-0.33228 0-0.5 0-11.08-8.919-20-19.998-20z"
     id="path4" />
  <path
     opacity=".2"
     d="m43.979 24.418a20 20 0 0 1 -19.979 19.582 20 20 0 0 1 -19.978 -19.418 20 20 0 0 0 -0.022 0.418 20 20 0 0 0 20 20 20 20 0 0 0 20 -20 20 20 0 0 0 -0.021 -0.582z"
     id="path6" />
  <path
     opacity=".2"
     d="m26 12a13 13 0 0 0 -12.352 9h-2.648l-1 3h3.043a13 13 0 0 0 -0.043 1 13 13 0 0 0 0.049 1h-1.049l-1 3h2.639a13 13 0 0 0 12.361 9 13 13 0 0 0 10.24 -5h-4.256a10 10 0 0 1 -5.984 2 10 10 0 0 1 -9.152 -6h13.152l1-3h-14.939a10 10 0 0 1 -0.061 -1 10 10 0 0 1 0.051 -1h14.949l1-3h-15.16a10 10 0 0 1 9.16 -6 10 10 0 0 1 5.98 2h4.249a13 13 0 0 0 -10.229 -5z"
     id="path8" />
  <path
     fill="#ffff70"
     d="m26 11a13 13 0 0 0 -12.352 9h-2.648l-1 3h3.043a13 13 0 0 0 -0.043 1 13 13 0 0 0 0.049 1h-1.049l-1 3h2.639a13 13 0 0 0 12.361 9 13 13 0 0 0 10.24 -5h-4.256a10 10 0 0 1 -5.984 2 10 10 0 0 1 -9.152 -6h13.152l1-3h-14.939a10 10 0 0 1 -0.061 -1 10 10 0 0 1 0.051 -1h14.949l1-3h-15.16a10 10 0 0 1 9.16 -6 10 10 0 0 1 5.98 2h4.249a13 13 0 0 0 -10.229 -5z"
     id="path10"
     style="fill:#fffffb;fill-opacity:1" />
</svg>
