<?xml version="1.0" encoding="UTF-8" standalone="no"?>
<svg
   xmlns:dc="http://purl.org/dc/elements/1.1/"
   xmlns:cc="http://creativecommons.org/ns#"
   xmlns:rdf="http://www.w3.org/1999/02/22-rdf-syntax-ns#"
   xmlns:svg="http://www.w3.org/2000/svg"
   xmlns="http://www.w3.org/2000/svg"
   xmlns:sodipodi="http://sodipodi.sourceforge.net/DTD/sodipodi-0.dtd"
   xmlns:inkscape="http://www.inkscape.org/namespaces/inkscape"
   width="48"
   height="48"
   version="1"
   id="svg20"
   sodipodi:docname="kicad.svg"
   inkscape:version="0.92.5 (2060ec1f9f, 2020-04-08)">
  <metadata
     id="metadata26">
    <rdf:RDF>
      <cc:Work
         rdf:about="">
        <dc:format>image/svg+xml</dc:format>
        <dc:type
           rdf:resource="http://purl.org/dc/dcmitype/StillImage" />
      </cc:Work>
    </rdf:RDF>
  </metadata>
  <defs
     id="defs24" />
  <sodipodi:namedview
     pagecolor="#ffffff"
     bordercolor="#666666"
     borderopacity="1"
     objecttolerance="10"
     gridtolerance="10"
     guidetolerance="10"
     inkscape:pageopacity="0"
     inkscape:pageshadow="2"
     inkscape:window-width="765"
     inkscape:window-height="480"
     id="namedview22"
     showgrid="false"
     inkscape:zoom="4.9166667"
     inkscape:cx="33.214506"
     inkscape:cy="41.518504"
     inkscape:window-x="0"
     inkscape:window-y="28"
     inkscape:window-maximized="0"
     inkscape:current-layer="svg20" />
  <path
     style="fill:#4c566a;fill-opacity:1"
     d="M 6 4 C 4.892 4 4 4.892 4 6 L 4 42 C 4 43.108 4.892 44 6 44 L 42 44 C 43.108 44 44 43.108 44 42 L 44 14 A 10 10 0 0 0 34 4 L 6 4 z"
     id="path2" />
  <path
     opacity=".2"
     d="m6 45c-1.108 0-2-0.892-2-2v-1c0 1.108 0.892 2 2 2h36c1.108 0 2-0.892 2-2v1c0 1.108-0.892 2-2 2h-36z"
     id="path4" />
  <path
     opacity=".2"
     d="m8 10v30h6v-7l5 7h7l-10-15 10-15h-7l-5 7v-7z"
     id="path6" />
  <path
     opacity=".2"
     d="m32 20h6v20h-6z"
     id="path8" />
  <circle
     opacity=".2"
     cx="35"
     cy="14"
     r="4"
     id="circle10" />
  <path
     style="fill:#ffffff"
     d="m8 9v30h6v-7l5 7h7l-10-15 10-15h-7l-5 7v-7z"
     id="path12" />
  <path
     style="fill:#ffffff"
     d="m32 19h6v20h-6z"
     id="path14" />
  <circle
     fill="#f70"
     cx="35"
     cy="13"
     r="4"
     id="circle16"
     style="fill:#7d879b;fill-opacity:1" />
  <path
     style="fill:#ffffff;opacity:0.1"
     d="M 6 4 C 4.892 4 4 4.892 4 6 L 4 7 C 4 5.892 4.892 5 6 5 L 34 5 A 10 10 0 0 1 44 15 L 44 14 A 10 10 0 0 0 34 4 L 6 4 z"
     id="path18" />
</svg>
