<?xml version="1.0" encoding="UTF-8" standalone="no"?>
<svg
   xmlns:dc="http://purl.org/dc/elements/1.1/"
   xmlns:cc="http://creativecommons.org/ns#"
   xmlns:rdf="http://www.w3.org/1999/02/22-rdf-syntax-ns#"
   xmlns:svg="http://www.w3.org/2000/svg"
   xmlns="http://www.w3.org/2000/svg"
   xmlns:sodipodi="http://sodipodi.sourceforge.net/DTD/sodipodi-0.dtd"
   xmlns:inkscape="http://www.inkscape.org/namespaces/inkscape"
   width="48"
   height="48"
   version="1"
   id="svg16"
   sodipodi:docname="kcoloredit.svg"
   inkscape:version="0.92.5 (2060ec1f9f, 2020-04-08)">
  <metadata
     id="metadata22">
    <rdf:RDF>
      <cc:Work
         rdf:about="">
        <dc:format>image/svg+xml</dc:format>
        <dc:type
           rdf:resource="http://purl.org/dc/dcmitype/StillImage" />
      </cc:Work>
    </rdf:RDF>
  </metadata>
  <defs
     id="defs20" />
  <sodipodi:namedview
     pagecolor="#ffffff"
     bordercolor="#666666"
     borderopacity="1"
     objecttolerance="10"
     gridtolerance="10"
     guidetolerance="10"
     inkscape:pageopacity="0"
     inkscape:pageshadow="2"
     inkscape:window-width="765"
     inkscape:window-height="480"
     id="namedview18"
     showgrid="false"
     inkscape:zoom="6.9532167"
     inkscape:cx="27.39376"
     inkscape:cy="30.564502"
     inkscape:current-layer="svg16"
     inkscape:window-x="0"
     inkscape:window-y="28"
     inkscape:window-maximized="0" />
  <path
     inkscape:connector-curvature="0"
     d="m 24.203035,4.4071797 c -11.111,0 -20.0000002,8.8890003 -20.0000002,20.0000003 0,11.111 8.8889002,20 20.0000002,20 1.7778,0 3.3333,-1.5556 3.3333,-3.3333 0,-0.88889 -0.22222,-1.5556 -0.88889,-2.2222 -0.444,-0.667 -0.888,-1.334 -0.888,-2.223 0,-1.7778 1.5556,-3.3333 3.3333,-3.3333 h 4 c 6.222,0 11.111,-4.889 11.111,-11.111 0,-9.778 -8.889,-17.7780003 -20,-17.7780003 z"
     id="path2"
     style="fill:#4c566a;fill-opacity:1" />
  <path
     fill="#da8015"
     d="m11 24c-1.6 0-3-1.4-3-3s1.4-3 3-3 3 1.4 3 3-1.4 3-3 3z"
     id="path4"
     style="fill:#ffffff;fill-opacity:1" />
  <path
     fill="#327cc4"
     d="m18 15c-1.6 0-3-1.4-3-3s1.4-3 3-3 3 1.4 3 3-1.4 3-3 3z"
     id="path6"
     style="fill:#ffffff;fill-opacity:1" />
  <path
     fill="#4c9511"
     d="m29 15c-1.6 0-3-1.4-3-3s1.4-3 3-3 3 1.4 3 3-1.4 3-3 3z"
     id="path8"
     style="fill:#ffffff;fill-opacity:1" />
  <path
     fill="#d94d4d"
     d="m36 24c-1.6 0-3-1.4-3-3s1.4-3 3-3 3 1.4 3 3-1.4 3-3 3z"
     id="path10"
     style="fill:#ffffff;fill-opacity:1" />
  <path
     fill="#fff"
     opacity=".2"
     d="m24 4c-11.111 0-20 8.889-20 20 0 0.168 0.0077 0.333 0.0117 0.5 0.2628-10.876 9.0453-19.5 19.988-19.5 10.867 0 19.604 7.654 19.982 17.139 0.004-0.121 0.018-0.24 0.018-0.362 0-9.777-8.889-17.777-20-17.777zm1.613 32.686c-0.031 0.176-0.058 0.354-0.058 0.537 0 0.889 0.446 1.556 0.89 2.222 0.508 0.508 0.755 1.016 0.846 1.621 0.018-0.132 0.043-0.264 0.043-0.4 0-0.889-0.222-1.554-0.889-2.221-0.362-0.544-0.711-1.095-0.832-1.759z"
     id="path12" />
  <path
     opacity=".2"
     d="m43.982 22.139c-0.186 6.047-4.993 10.75-11.093 10.75h-4c-1.778 0-3.334 1.556-3.334 3.334 0 0.163 0.031 0.313 0.058 0.463 0.274-1.542 1.68-2.797 3.276-2.797h4c6.222 0 11.111-4.889 11.111-11.112 0-0.214-0.009-0.426-0.018-0.638zm-39.97 2.361c-0.004 0.167-0.0117 0.332-0.0117 0.5 0 11.111 8.889 20 20 20 1.778 0 3.334-1.556 3.334-3.334 0-0.213-0.015-0.409-0.043-0.6-0.213 1.604-1.649 2.934-3.291 2.934-10.943 0-19.726-8.624-19.988-19.5z"
     id="path14" />
</svg>
