<?xml version="1.0" encoding="UTF-8" standalone="no"?>
<svg
   xmlns:dc="http://purl.org/dc/elements/1.1/"
   xmlns:cc="http://creativecommons.org/ns#"
   xmlns:rdf="http://www.w3.org/1999/02/22-rdf-syntax-ns#"
   xmlns:svg="http://www.w3.org/2000/svg"
   xmlns="http://www.w3.org/2000/svg"
   xmlns:sodipodi="http://sodipodi.sourceforge.net/DTD/sodipodi-0.dtd"
   xmlns:inkscape="http://www.inkscape.org/namespaces/inkscape"
   width="48"
   height="48"
   version="1"
   id="svg20"
   sodipodi:docname="net.sourceforge.Hugin.svg"
   inkscape:version="0.92.5 (2060ec1f9f, 2020-04-08)">
  <metadata
     id="metadata26">
    <rdf:RDF>
      <cc:Work
         rdf:about="">
        <dc:format>image/svg+xml</dc:format>
        <dc:type
           rdf:resource="http://purl.org/dc/dcmitype/StillImage" />
      </cc:Work>
    </rdf:RDF>
  </metadata>
  <defs
     id="defs24" />
  <sodipodi:namedview
     pagecolor="#ffffff"
     bordercolor="#666666"
     borderopacity="1"
     objecttolerance="10"
     gridtolerance="10"
     guidetolerance="10"
     inkscape:pageopacity="0"
     inkscape:pageshadow="2"
     inkscape:window-width="783"
     inkscape:window-height="480"
     id="namedview22"
     showgrid="false"
     inkscape:zoom="4.9166667"
     inkscape:cx="24"
     inkscape:cy="24"
     inkscape:window-x="0"
     inkscape:window-y="28"
     inkscape:window-maximized="0"
     inkscape:current-layer="svg20" />
  <path
     style="opacity:0.2"
     d="m 4,40 v 1 c 0,1.108 0.892,2 2,2 h 36 c 1.108,0 2,-0.892 2,-2 v -1 c 0,1.108 -0.892,2 -2,2 H 6 C 4.892,42 4,41.108 4,40 Z"
     id="path2" />
  <path
     fill="#979af2"
     d="m44 38v-29c0-1.108-0.892-2-2-2h-36c-1.108 0-2 0.892-2 2v29c0 1.108 0.892 2 2 2h36c1.108 0 2-0.892 2-2z"
     id="path4"
     style="fill:#5f697d;fill-opacity:1" />
  <path
     fill-rule="evenodd"
     opacity=".2"
     d="m32 15c3.3137 0 6 2.6863 6 6s-2.6863 6-6 6-6-2.6863-6-6 2.6863-6 6-6z"
     id="path6" />
  <path
     fill="#fffa6a"
     fill-rule="evenodd"
     d="m32 14c3.3137 0 6 2.6863 6 6s-2.6863 6-6 6-6-2.6863-6-6 2.6863-6 6-6z"
     id="path8"
     style="fill:#ffffff;fill-opacity:1" />
  <path
     fill="#4f4f4f"
     d="m44 12v-4c0-1.108-0.892-2-2-2h-36c-1.108 0-2 0.892-2 2v4z"
     id="path10"
     style="fill:#4c566a;fill-opacity:1" />
  <path
     fill="#fff"
     opacity=".1"
     d="m6 6c-1.108 0-2 0.892-2 2v1c0-1.108 0.892-2 2-2h36c1.108 0 2 0.892 2 2v-1c0-1.108-0.892-2-2-2z"
     id="path12"
     style="fill:#4c566a;fill-opacity:1" />
  <path
     fill="#4891cc"
     d="m4 32v4h40v-4h-40z"
     id="path14"
     style="fill:#697387;fill-opacity:1" />
  <path
     fill="#4f4f4f"
     d="m44 36v4c0 1.108-0.892 2-2 2h-36c-1.108 0-2-0.892-2-2v-4z"
     id="path16"
     style="fill:#4c566a;fill-opacity:1" />
  <path
     fill="#4f4f4f"
     d="m4 32.143v-1.143s2.8845-1.9047 3.6955-2.0708c0.81097-0.16618 1.7687-0.0309 2.7529 0.15485 0.98427 0.18515 2.4537 0.43555 2.9123 0.4512 0.45862 0.016 1.2885-0.04 2.2528-0.0983 0.96428-0.0571 2.5609-0.10972 3.0589-0.104 0.498 0 1.7412 0.0686 3.0665 0.14948 1.3252 0.0811 3.1455 0.21669 3.5584 0.25463 0.41299 0.0377 0.89844 0.10743 1.4494 0.18343 0.5509 0.0754 1.5046 0.18937 1.8421 0.22069 0.33739 0.0308 1.1196 0.1384 2.0272 0.22194 0.90758 0.0834 2.36 0.112 2.7794 0.0811 0.41944-0.0309 1.2986-0.34148 2.2784-0.62777 0.97975-0.28617 2.0601-0.54823 2.8818-0.48343 0.82175 0.0651 5.4444 1.6669 5.4444 1.6669v1.1429h-35.142z"
     id="path18"
     style="fill:#4c566a;fill-opacity:1" />
</svg>
