<?xml version="1.0" encoding="UTF-8" standalone="no"?>
<svg
   xmlns:dc="http://purl.org/dc/elements/1.1/"
   xmlns:cc="http://creativecommons.org/ns#"
   xmlns:rdf="http://www.w3.org/1999/02/22-rdf-syntax-ns#"
   xmlns:svg="http://www.w3.org/2000/svg"
   xmlns="http://www.w3.org/2000/svg"
   xmlns:sodipodi="http://sodipodi.sourceforge.net/DTD/sodipodi-0.dtd"
   xmlns:inkscape="http://www.inkscape.org/namespaces/inkscape"
   width="48"
   height="48"
   version="1"
   id="svg18"
   sodipodi:docname="xfce4-pulseaudio-plugin.svg"
   inkscape:version="0.92.5 (2060ec1f9f, 2020-04-08)">
  <metadata
     id="metadata24">
    <rdf:RDF>
      <cc:Work
         rdf:about="">
        <dc:format>image/svg+xml</dc:format>
        <dc:type
           rdf:resource="http://purl.org/dc/dcmitype/StillImage" />
      </cc:Work>
    </rdf:RDF>
  </metadata>
  <defs
     id="defs22" />
  <sodipodi:namedview
     pagecolor="#ffffff"
     bordercolor="#666666"
     borderopacity="1"
     objecttolerance="10"
     gridtolerance="10"
     guidetolerance="10"
     inkscape:pageopacity="0"
     inkscape:pageshadow="2"
     inkscape:window-width="640"
     inkscape:window-height="480"
     id="namedview20"
     showgrid="false"
     inkscape:zoom="4.9166667"
     inkscape:cx="0.61016949"
     inkscape:cy="24"
     inkscape:current-layer="svg18" />
  <circle
     style="opacity:0.2"
     cx="24"
     cy="25"
     r="20"
     id="circle2" />
  <circle
     style="fill:#414b5f;fill-opacity:1"
     cx="24"
     cy="24"
     r="20"
     id="circle4" />
  <circle
     style="fill:#4c566a;fill-opacity:1"
     cx="24"
     cy="24"
     r="16"
     id="circle6" />
  <circle
     style="opacity:0.2"
     cx="24"
     cy="25"
     r="12"
     id="circle8" />
  <circle
     style="fill:#5f697d;fill-opacity:1"
     cx="24"
     cy="24"
     r="12"
     id="circle10" />
  <circle
     style="fill:#4f4f4f"
     cx="24"
     cy="24"
     r="6"
     id="circle12" />
  <path
     style="opacity:0.1;fill:#ffffff"
     d="M 24,4 A 20,20 0 0 0 4,24 20,20 0 0 0 4.0196,24.586 20,20 0 0 1 24,5 20,20 0 0 1 43.98,24.414 20,20 0 0 0 44,24 20,20 0 0 0 24,4 Z"
     id="path14" />
  <path
     style="opacity:0.2;fill:#ffffff"
     d="M 24,12 A 12,12 0 0 0 12,24 12,12 0 0 0 12.01954,24.429688 12,12 0 0 1 24,13 12,12 0 0 1 35.980468,24.570312 12,12 0 0 0 36,24 12,12 0 0 0 24,12 Z"
     id="path16" />
</svg>
