<?xml version="1.0" encoding="UTF-8" standalone="no"?>
<svg
   xmlns:dc="http://purl.org/dc/elements/1.1/"
   xmlns:cc="http://creativecommons.org/ns#"
   xmlns:rdf="http://www.w3.org/1999/02/22-rdf-syntax-ns#"
   xmlns:svg="http://www.w3.org/2000/svg"
   xmlns="http://www.w3.org/2000/svg"
   xmlns:sodipodi="http://sodipodi.sourceforge.net/DTD/sodipodi-0.dtd"
   xmlns:inkscape="http://www.inkscape.org/namespaces/inkscape"
   width="48"
   height="48"
   version="1.1"
   id="svg24"
   sodipodi:docname="komorebi-wallpaper-creator.svg"
   inkscape:version="0.92.5 (2060ec1f9f, 2020-04-08)">
  <metadata
     id="metadata30">
    <rdf:RDF>
      <cc:Work
         rdf:about="">
        <dc:format>image/svg+xml</dc:format>
        <dc:type
           rdf:resource="http://purl.org/dc/dcmitype/StillImage" />
      </cc:Work>
    </rdf:RDF>
  </metadata>
  <defs
     id="defs28" />
  <sodipodi:namedview
     pagecolor="#ffffff"
     bordercolor="#666666"
     borderopacity="1"
     objecttolerance="10"
     gridtolerance="10"
     guidetolerance="10"
     inkscape:pageopacity="0"
     inkscape:pageshadow="2"
     inkscape:window-width="783"
     inkscape:window-height="480"
     id="namedview26"
     showgrid="false"
     inkscape:zoom="4.9166667"
     inkscape:cx="24"
     inkscape:cy="24"
     inkscape:window-x="0"
     inkscape:window-y="28"
     inkscape:window-maximized="0"
     inkscape:current-layer="svg24" />
  <path
     style="opacity:0.2"
     d="M 6,14 39,9 44,39 12,47 Z"
     id="path2" />
  <path
     style="fill:#969696"
     d="M 6,13 39,8 44,38 12,46 Z"
     id="path4" />
  <path
     style="opacity:0.2"
     d="M 5,13 40,10 44,39 8,45 Z"
     id="path6" />
  <path
     style="fill:#a8a8a8"
     d="M 5,12 40,9 44,38 8,44 Z"
     id="path8" />
  <rect
     style="opacity:0.2"
     width="40"
     height="34"
     x="4"
     y="8"
     rx="2"
     ry="2"
     id="rect10" />
  <rect
     style="fill:#4c566a;fill-opacity:1"
     width="40"
     height="34"
     x="4"
     y="7"
     rx="2"
     ry="2"
     id="rect12" />
  <circle
     style="opacity:0.2"
     cx="35.5"
     cy="35.5"
     r="8.5"
     id="circle14" />
  <circle
     style="fill:#ffffff"
     cx="35.5"
     cy="34.5"
     r="8.5"
     id="circle16" />
  <circle
     style="opacity:0.2"
     cx="35.5"
     cy="35.5"
     r="6.5"
     id="circle18" />
  <circle
     style="fill:#5f697d;fill-opacity:1"
     cx="35.5"
     cy="34.5"
     r="6.5"
     id="circle20" />
  <path
     style="opacity:0.2;fill:#ffffff"
     d="M 6,7 C 4.892,7 4,7.892 4,9 V 10 C 4,8.892 4.892,8 6,8 H 42 C 43.108,8 44,8.892 44,10 V 9 C 44,7.892 43.108,7 42,7 Z"
     id="path22" />
</svg>
