<?xml version="1.0" encoding="UTF-8" standalone="no"?>
<svg
   xmlns:dc="http://purl.org/dc/elements/1.1/"
   xmlns:cc="http://creativecommons.org/ns#"
   xmlns:rdf="http://www.w3.org/1999/02/22-rdf-syntax-ns#"
   xmlns:svg="http://www.w3.org/2000/svg"
   xmlns="http://www.w3.org/2000/svg"
   xmlns:sodipodi="http://sodipodi.sourceforge.net/DTD/sodipodi-0.dtd"
   xmlns:inkscape="http://www.inkscape.org/namespaces/inkscape"
   width="48"
   height="48"
   version="1.1"
   id="svg12"
   sodipodi:docname="kontena-lens.svg"
   inkscape:version="0.92.5 (2060ec1f9f, 2020-04-08)">
  <metadata
     id="metadata18">
    <rdf:RDF>
      <cc:Work
         rdf:about="">
        <dc:format>image/svg+xml</dc:format>
        <dc:type
           rdf:resource="http://purl.org/dc/dcmitype/StillImage" />
      </cc:Work>
    </rdf:RDF>
  </metadata>
  <defs
     id="defs16" />
  <sodipodi:namedview
     pagecolor="#ffffff"
     bordercolor="#666666"
     borderopacity="1"
     objecttolerance="10"
     gridtolerance="10"
     guidetolerance="10"
     inkscape:pageopacity="0"
     inkscape:pageshadow="2"
     inkscape:window-width="765"
     inkscape:window-height="480"
     id="namedview14"
     showgrid="false"
     inkscape:zoom="4.9166667"
     inkscape:cx="-2.9491525"
     inkscape:cy="24"
     inkscape:window-x="0"
     inkscape:window-y="28"
     inkscape:window-maximized="0"
     inkscape:current-layer="svg12" />
  <rect
     style="opacity:.2"
     width="40"
     height="40"
     x="4"
     y="5"
     rx="2"
     ry="2"
     id="rect2" />
  <rect
     style="fill:#4c566a;fill-opacity:1"
     width="40"
     height="40"
     x="4"
     y="4"
     rx="2"
     ry="2"
     id="rect4" />
  <path
     style="opacity:0.2"
     d="m 10,11 v 7.007812 L 15.574219,25.017578 18.691406,11 Z M 20.738281,11 19.074219,18.427734 34.634766,11 Z M 38,11.609375 25.408203,17.669922 38,23.796875 Z M 10,21.212891 V 31 h 7.816406 z m 21.123047,1.5 L 34.945312,39 H 38 V 26.097656 Z M 30.570312,29.193359 22.896484,39 h 9.94336 z M 10,33 v 6 h 10.310547 l 4.720703,-6 z"
     id="path6" />
  <path
     style="fill:#ffffff;opacity:.2"
     d="m6 4c-1.108 0-2 0.892-2 2v1c0-1.108 0.892-2 2-2h36c1.108 0 2 0.892 2 2v-1c0-1.108-0.892-2-2-2h-36z"
     id="path8" />
  <path
     style="fill:#ffffff"
     d="M 10 10 L 10 17.007812 L 15.574219 24.017578 L 18.691406 10 L 10 10 z M 20.738281 10 L 19.074219 17.427734 L 34.634766 10 L 20.738281 10 z M 38 10.609375 L 25.408203 16.669922 L 38 22.796875 L 38 10.609375 z M 10 20.212891 L 10 30 L 17.816406 30 L 10 20.212891 z M 31.123047 21.712891 L 34.945312 38 L 38 38 L 38 25.097656 L 31.123047 21.712891 z M 30.570312 28.193359 L 22.896484 38 L 32.839844 38 L 30.570312 28.193359 z M 10 32 L 10 38 L 20.310547 38 L 25.03125 32 L 10 32 z"
     id="path10" />
</svg>
