<?xml version="1.0" encoding="UTF-8" standalone="no"?>
<svg
   xmlns:dc="http://purl.org/dc/elements/1.1/"
   xmlns:cc="http://creativecommons.org/ns#"
   xmlns:rdf="http://www.w3.org/1999/02/22-rdf-syntax-ns#"
   xmlns:svg="http://www.w3.org/2000/svg"
   xmlns="http://www.w3.org/2000/svg"
   xmlns:sodipodi="http://sodipodi.sourceforge.net/DTD/sodipodi-0.dtd"
   xmlns:inkscape="http://www.inkscape.org/namespaces/inkscape"
   width="48"
   height="48"
   version="1"
   id="svg16"
   sodipodi:docname="kontact-import-wizard.svg"
   inkscape:version="0.92.5 (2060ec1f9f, 2020-04-08)">
  <metadata
     id="metadata22">
    <rdf:RDF>
      <cc:Work
         rdf:about="">
        <dc:format>image/svg+xml</dc:format>
        <dc:type
           rdf:resource="http://purl.org/dc/dcmitype/StillImage" />
      </cc:Work>
    </rdf:RDF>
  </metadata>
  <defs
     id="defs20" />
  <sodipodi:namedview
     pagecolor="#ffffff"
     bordercolor="#666666"
     borderopacity="1"
     objecttolerance="10"
     gridtolerance="10"
     guidetolerance="10"
     inkscape:pageopacity="0"
     inkscape:pageshadow="2"
     inkscape:window-width="765"
     inkscape:window-height="480"
     id="namedview18"
     showgrid="false"
     inkscape:zoom="4.9166667"
     inkscape:cx="23.804938"
     inkscape:cy="20.663312"
     inkscape:window-x="0"
     inkscape:window-y="28"
     inkscape:window-maximized="0"
     inkscape:current-layer="svg16" />
  <path
     fill="#fe9700"
     d="m24 3-19.09 14.324c-0.0411 0.0267-0.0783 0.0583-0.11719 0.0879l-0.0234 0.0176v0.002c-0.4654 0.365-0.7694 0.927-0.7694 1.568v8c0 1.108 0.892 2 2 2h36c1.108 0 2-0.892 2-2v-8c0-0.65501-0.31697-1.2294-0.80078-1.5938l0.008-0.0117z"
     id="path2"
     style="fill:#4c566a;fill-opacity:1" />
  <path
     fill="#fff"
     opacity=".1"
     d="m24 3-19.09 14.324c-0.0411 0.0267-0.0783 0.0583-0.11719 0.0879l-0.0234 0.0176v0.002c-0.4654 0.365-0.7694 0.927-0.7694 1.568v1c0-0.64051 0.30392-1.2029 0.76953-1.5684v-0.002l0.0234-0.0176c0.0389-0.0296 0.0761-0.0612 0.11719-0.0879l19.09-14.324 19.207 14.395-0.008 0.0117c0.484 0.364 0.801 0.938 0.801 1.593v-1c0-0.65501-0.31697-1.2294-0.80078-1.5938l0.008-0.0117-19.207-14.394z"
     id="path4" />
  <rect
     fill="#ebebeb"
     width="32"
     height="26"
     x="8"
     y="7"
     rx="2"
     ry="2"
     id="rect6" />
  <path
     fill="#fec006"
     d="m4 19 38 26h-36c-1.108 0-2-0.892-2-2z"
     id="path8"
     style="fill:#5f697d;fill-opacity:1" />
  <path
     fill="#fecd38"
     d="m42 45c1.108 0 2-0.892 2-2v-24l-38 26z"
     id="path10"
     style="fill:#4c566a;fill-opacity:1" />
  <path
     fill="#848484"
     d="m24 11-7 9h4v7c0 0.554 0.446 1 1 1h4c0.554 0 1-0.446 1-1v-7h4z"
     id="path12" />
  <path
     opacity=".2"
     d="m4 43v1c0 1.108 0.892 2 2 2h36c1.108 0 2-0.892 2-2v-1c0 1.108-0.892 2-2 2h-36c-1.108 0-2-0.892-2-2z"
     id="path14" />
</svg>
