<?xml version="1.0" encoding="UTF-8" standalone="no"?>
<svg
   xmlns:dc="http://purl.org/dc/elements/1.1/"
   xmlns:cc="http://creativecommons.org/ns#"
   xmlns:rdf="http://www.w3.org/1999/02/22-rdf-syntax-ns#"
   xmlns:svg="http://www.w3.org/2000/svg"
   xmlns="http://www.w3.org/2000/svg"
   xmlns:sodipodi="http://sodipodi.sourceforge.net/DTD/sodipodi-0.dtd"
   xmlns:inkscape="http://www.inkscape.org/namespaces/inkscape"
   width="48"
   height="48"
   version="1.1"
   id="svg12"
   sodipodi:docname="kotatogram.svg"
   inkscape:version="0.92.5 (2060ec1f9f, 2020-04-08)">
  <metadata
     id="metadata18">
    <rdf:RDF>
      <cc:Work
         rdf:about="">
        <dc:format>image/svg+xml</dc:format>
        <dc:type
           rdf:resource="http://purl.org/dc/dcmitype/StillImage" />
      </cc:Work>
    </rdf:RDF>
  </metadata>
  <defs
     id="defs16" />
  <sodipodi:namedview
     pagecolor="#ffffff"
     bordercolor="#666666"
     borderopacity="1"
     objecttolerance="10"
     gridtolerance="10"
     guidetolerance="10"
     inkscape:pageopacity="0"
     inkscape:pageshadow="2"
     inkscape:window-width="765"
     inkscape:window-height="480"
     id="namedview14"
     showgrid="false"
     inkscape:zoom="4.9166667"
     inkscape:cx="24"
     inkscape:cy="24"
     inkscape:window-x="0"
     inkscape:window-y="28"
     inkscape:window-maximized="0"
     inkscape:current-layer="svg12" />
  <circle
     cx="24"
     cy="25"
     r="20"
     style="opacity:.2"
     id="circle2" />
  <circle
     cx="24"
     cy="24"
     r="20"
     style="fill:#4c566a;fill-opacity:1"
     id="circle4" />
  <path
     d="M 24,4 A 20,20 0 0 0 4,24 20,20 0 0 0 4.0196,24.586 20,20 0 0 1 24,5 20,20 0 0 1 43.98,24.414 20,20 0 0 0 44,24 20,20 0 0 0 24,4 Z"
     style="fill:#ffffff;opacity:.1"
     id="path6" />
  <path
     d="m24 17s-0.622656 1.344446-1 2c-3 5.211864-3 8-9 8-2 0-7-4-7-4s-0.06344 10 9 10c6 0 8-4 8-4s2 4 8 4c9.06344 0 9-10 9-10s-5 4-7 4c-6 0-6-2.788136-9-8-0.377344-0.655554-1-2-1-2z"
     style="opacity:.2"
     id="path8" />
  <path
     d="m24 16s-0.622656 1.344446-1 2c-3 5.211864-3 8-9 8-2 0-7-4-7-4s-0.06344 10 9 10c6 0 8-4 8-4s2 4 8 4c9.06344 0 9-10 9-10s-5 4-7 4c-6 0-6-2.788136-9-8-0.377344-0.655554-1-2-1-2z"
     style="fill:#ffffff;fill-opacity:1"
     id="path10" />
</svg>
