<?xml version="1.0" encoding="UTF-8" standalone="no"?>
<svg
   xmlns:dc="http://purl.org/dc/elements/1.1/"
   xmlns:cc="http://creativecommons.org/ns#"
   xmlns:rdf="http://www.w3.org/1999/02/22-rdf-syntax-ns#"
   xmlns:svg="http://www.w3.org/2000/svg"
   xmlns="http://www.w3.org/2000/svg"
   xmlns:sodipodi="http://sodipodi.sourceforge.net/DTD/sodipodi-0.dtd"
   xmlns:inkscape="http://www.inkscape.org/namespaces/inkscape"
   width="48"
   height="48"
   version="1"
   id="svg44"
   sodipodi:docname="appimagekit-ksnip.svg"
   inkscape:version="0.92.5 (2060ec1f9f, 2020-04-08)">
  <metadata
     id="metadata50">
    <rdf:RDF>
      <cc:Work
         rdf:about="">
        <dc:format>image/svg+xml</dc:format>
        <dc:type
           rdf:resource="http://purl.org/dc/dcmitype/StillImage" />
      </cc:Work>
    </rdf:RDF>
  </metadata>
  <defs
     id="defs48" />
  <sodipodi:namedview
     pagecolor="#ffffff"
     bordercolor="#666666"
     borderopacity="1"
     objecttolerance="10"
     gridtolerance="10"
     guidetolerance="10"
     inkscape:pageopacity="0"
     inkscape:pageshadow="2"
     inkscape:window-width="765"
     inkscape:window-height="480"
     id="namedview46"
     showgrid="false"
     inkscape:zoom="4.9166667"
     inkscape:cx="24"
     inkscape:cy="25.830508"
     inkscape:window-x="0"
     inkscape:window-y="28"
     inkscape:window-maximized="0"
     inkscape:current-layer="svg44" />
  <rect
     style="opacity:0.2"
     width="40"
     height="40"
     x="4"
     y="5"
     rx="3"
     ry="3"
     id="rect2" />
  <rect
     style="fill:#4c566a;fill-opacity:1"
     width="40"
     height="40"
     x="4"
     y="4"
     rx="3"
     ry="3"
     id="rect4" />
  <path
     style="opacity:0.2"
     d="M 40,41 32.001039,33.008506 V 41 Z"
     id="path6" />
  <path
     style="fill:#ffffff;fill-opacity:1"
     d="M 40,39.991494 32.001039,32 v 7.991494 z"
     id="path8" />
  <path
     style="opacity:0.2"
     d="m 32,25 8,-8 h -8 z"
     id="path10" />
  <path
     style="fill:#7d879b;fill-opacity:1"
     d="m 32,24 8,-8 h -8 z"
     id="path12" />
  <rect
     style="fill:#7d879b;fill-opacity:1"
     width="8"
     height="18"
     x="16"
     y="15"
     id="rect14" />
  <path
     style="opacity:0.1;fill:#ffffff"
     d="M 7,4 C 5.338,4 4,5.338 4,7 V 8 C 4,6.338 5.338,5 7,5 h 34 c 1.662,0 3,1.338 3,3 V 7 C 44,5.338 42.662,4 41,4 Z"
     id="path16" />
  <path
     style="opacity:0.2"
     d="M 8.0000001,9 24,25 V 9 Z"
     id="path18" />
  <path
     style="fill:#ffffff;fill-opacity:1"
     d="M 8.0000001,8 24,24 V 8 Z"
     id="path20" />
  <path
     style="opacity:0.2"
     d="M 24.000047,25 8.0000473,41 H 24.000047 Z"
     id="path22" />
  <path
     style="fill:#fefefe;fill-opacity:1"
     d="M 24.000047,24 8.0000473,40 H 24.000047 Z"
     id="path24" />
  <path
     style="fill:#fbfbfc;fill-opacity:1"
     d="m 40,32 -8,-8 v 8 z"
     id="path26" />
  <path
     style="opacity:0.2"
     d="M 32,33.00851 39.998959,41 v -7.99149 z"
     id="path28" />
  <path
     style="fill:#7d879b;fill-opacity:1"
     d="M 32,32.00851 39.998959,40 v -7.99149 z"
     id="path30" />
  <path
     style="opacity:0.2"
     d="m 32,17 -8,8 h 8 z"
     id="path32" />
  <path
     style="fill:#ffffff;fill-opacity:1"
     d="m 32,16 -8,8 h 8 z"
     id="path34" />
  <path
     style="opacity:0.2"
     d="m 40,9 -8,8 h 8 z"
     id="path36" />
  <path
     style="fill:#ffffff;fill-opacity:1"
     d="m 40,8 -8,8 h 8 z"
     id="path38" />
  <path
     style="opacity:0.2;fill:#ffffff"
     d="M 8 8 L 9 9 L 24 9 L 24 8 L 8 8 z M 40 8 L 32 16 L 33 16 L 40 9 L 40 8 z M 32 16 L 24 24 L 25 24 L 32 17 L 32 16 z M 23.5 24.5 L 8 40 L 9 40 L 24 25 L 23.5 24.5 z M 32 32.007812 L 33 33.007812 L 39.998047 33.007812 L 39.998047 32.007812 L 32 32.007812 z"
     id="path40" />
  <path
     style="opacity:0.1;fill:#ffffff"
     d="M 32 24 L 32 25 L 39 32 L 40 32 L 32 24 z"
     id="path42" />
</svg>
