<?xml version="1.0" encoding="UTF-8" standalone="no"?>
<svg
   xmlns:dc="http://purl.org/dc/elements/1.1/"
   xmlns:cc="http://creativecommons.org/ns#"
   xmlns:rdf="http://www.w3.org/1999/02/22-rdf-syntax-ns#"
   xmlns:svg="http://www.w3.org/2000/svg"
   xmlns="http://www.w3.org/2000/svg"
   xmlns:sodipodi="http://sodipodi.sourceforge.net/DTD/sodipodi-0.dtd"
   xmlns:inkscape="http://www.inkscape.org/namespaces/inkscape"
   width="48"
   height="48"
   version="1"
   id="svg44"
   sodipodi:docname="alarm-timer.svg"
   inkscape:version="0.92.5 (2060ec1f9f, 2020-04-08)">
  <metadata
     id="metadata50">
    <rdf:RDF>
      <cc:Work
         rdf:about="">
        <dc:format>image/svg+xml</dc:format>
        <dc:type
           rdf:resource="http://purl.org/dc/dcmitype/StillImage" />
      </cc:Work>
    </rdf:RDF>
  </metadata>
  <defs
     id="defs48" />
  <sodipodi:namedview
     pagecolor="#ffffff"
     bordercolor="#666666"
     borderopacity="1"
     objecttolerance="10"
     gridtolerance="10"
     guidetolerance="10"
     inkscape:pageopacity="0"
     inkscape:pageshadow="2"
     inkscape:window-width="783"
     inkscape:window-height="480"
     id="namedview46"
     showgrid="false"
     inkscape:zoom="9.8333333"
     inkscape:cx="16.170218"
     inkscape:cy="24.889764"
     inkscape:window-x="0"
     inkscape:window-y="28"
     inkscape:window-maximized="0"
     inkscape:current-layer="svg44" />
  <rect
     opacity=".2"
     width="12"
     height="12"
     x="-6.7"
     y="11.18"
     rx="2"
     ry="2"
     transform="rotate(-45)"
     id="rect2" />
  <rect
     fill="#048ede"
     width="12"
     height="12"
     x="-5.99"
     y="10.48"
     rx="2"
     ry="2"
     transform="rotate(-45)"
     id="rect4"
     style="fill:#4c566a;fill-opacity:1" />
  <path
     fill="#fff"
     opacity=".1"
     d="m11.658 3.9824c-0.51124 0-1.0223 0.19615-1.4141 0.58789l-5.6561 5.6567c-0.52079 0.52079-0.6872 1.2516-0.51562 1.9141 0.086649-0.33366 0.25327-0.6517 0.51562-0.91406l5.6561-5.6567c0.78347-0.78347 2.0446-0.78347 2.8281 0l5.6582 5.6562c0.2624 0.2624 0.42899 0.58034 0.51562 0.91406 0.1715-0.66238 0.0051-1.3933-0.51562-1.9141l-5.658-5.6557c-0.391-0.3917-0.903-0.5879-1.414-0.5879z"
     id="path6" />
  <rect
     opacity=".2"
     width="40"
     height="40"
     x="4"
     y="5"
     rx="20"
     ry="20"
     id="rect8" />
  <rect
     fill="#07aef5"
     width="40"
     height="40"
     x="4"
     y="4"
     rx="20"
     ry="20"
     id="rect10"
     style="fill:#4c566a;fill-opacity:1" />
  <path
     fill="#fff"
     opacity=".2"
     d="m24 4c-11.08 0-20 8.92-20 20 0 0.168 0.0076 0.333 0.0117 0.5 0.2647-10.846 9.0763-19.5 19.988-19.5s19.724 8.654 19.988 19.5c0.004-0.167 0.012-0.332 0.012-0.5 0-11.08-8.92-20-20-20z"
     id="path12" />
  <circle
     opacity=".2"
     cx="24"
     cy="25"
     r="15"
     id="circle14" />
  <circle
     fill="#ffffff"
     cx="24"
     cy="24"
     r="15"
     id="circle16" />
  <rect
     fill="#ff8b29"
     width="4"
     height="14"
     x="30.79"
     y="-3.22"
     rx="2"
     ry="2"
     transform="rotate(30)"
     id="rect18"
     style="fill:#4c566a;fill-opacity:1" />
  <g
     opacity=".1"
     transform="translate(0,1)"
     id="g28">
    <circle
       cx="24"
       cy="36"
       r="2"
       id="circle20" />
    <circle
       cx="24"
       cy="12"
       r="2"
       id="circle22" />
    <circle
       cx="24"
       cy="-12"
       r="2"
       transform="rotate(90)"
       id="circle24" />
    <circle
       cx="24"
       cy="-36"
       r="2"
       transform="rotate(90)"
       id="circle26" />
  </g>
  <ellipse
     opacity=".1"
     cx="24"
     cy="25"
     rx="3.999"
     ry="4"
     id="ellipse30" />
  <ellipse
     fill="#4d4d4d"
     cx="24"
     cy="24"
     rx="4"
     ry="4"
     id="ellipse32" />
  <g
     fill="#4d4d4d"
     id="g42">
    <circle
       cx="24"
       cy="36"
       r="2"
       id="circle34" />
    <circle
       cx="24"
       cy="12"
       r="2"
       id="circle36" />
    <circle
       cx="24"
       cy="-12"
       r="2"
       transform="rotate(90)"
       id="circle38" />
    <circle
       cx="24"
       cy="-36"
       r="2"
       transform="rotate(90)"
       id="circle40" />
  </g>
</svg>
