<?xml version="1.0" encoding="UTF-8" standalone="no"?>
<svg
   xmlns:dc="http://purl.org/dc/elements/1.1/"
   xmlns:cc="http://creativecommons.org/ns#"
   xmlns:rdf="http://www.w3.org/1999/02/22-rdf-syntax-ns#"
   xmlns:svg="http://www.w3.org/2000/svg"
   xmlns="http://www.w3.org/2000/svg"
   xmlns:sodipodi="http://sodipodi.sourceforge.net/DTD/sodipodi-0.dtd"
   xmlns:inkscape="http://www.inkscape.org/namespaces/inkscape"
   width="48"
   height="48"
   version="1.1"
   id="svg14"
   sodipodi:docname="appimagekit-leonflix.svg"
   inkscape:version="0.92.5 (2060ec1f9f, 2020-04-08)">
  <metadata
     id="metadata20">
    <rdf:RDF>
      <cc:Work
         rdf:about="">
        <dc:format>image/svg+xml</dc:format>
        <dc:type
           rdf:resource="http://purl.org/dc/dcmitype/StillImage" />
      </cc:Work>
    </rdf:RDF>
  </metadata>
  <defs
     id="defs18" />
  <sodipodi:namedview
     pagecolor="#ffffff"
     bordercolor="#666666"
     borderopacity="1"
     objecttolerance="10"
     gridtolerance="10"
     guidetolerance="10"
     inkscape:pageopacity="0"
     inkscape:pageshadow="2"
     inkscape:window-width="783"
     inkscape:window-height="480"
     id="namedview16"
     showgrid="false"
     inkscape:zoom="4.9166667"
     inkscape:cx="24"
     inkscape:cy="24"
     inkscape:window-x="0"
     inkscape:window-y="28"
     inkscape:window-maximized="0"
     inkscape:current-layer="svg14" />
  <path
     style="opacity:0.2"
     d="M 24,5 A 20,20 0 0 0 4,25 20,20 0 0 0 24,45 20,20 0 0 0 44,25 20,20 0 0 0 24,5 Z"
     id="path2" />
  <path
     style="fill:#4c566a;fill-opacity:1"
     d="m24 4a20 20 0 0 0 -20 20 20 20 0 0 0 20 20 20 20 0 0 0 20 -20 20 20 0 0 0 -20 -20z"
     id="path4" />
  <path
     fill="#ffffff"
     style="opacity:0.1"
     d="m24 4a20 20 0 0 0 -19.859 17.852 20 19 0 0 1 19.859 -16.852 20 19 0 0 1 19.922 17.447 20 20 0 0 0 -19.922 -18.447zm19.922 18.447a20 20 0 0 1 0.078 1.553 20 19 0 0 0 -0.078 -1.553zm-39.781-0.595a20 19 0 0 0 -0.0488 0.392 20 20 0 0 1 0.0488 -0.392zm-0.0488 0.392a20 20 0 0 0 -0.0918 1.756 20 19 0 0 1 0.0918 -1.756z"
     id="path6" />
  <path
     style="opacity:0.2"
     d="M 24,9 A 16,16 0 0 0 8,25 16,16 0 0 0 24,41 16,16 0 0 0 40,25 16,16 0 0 0 24,9 Z m 8.166016,8 H 35 v 3.017578 h -1.449219 c -0.524138,0 -0.888806,0.09516 -1.095703,0.28711 C 32.248182,20.489778 32,20.815097 32,21.28125 V 22 h 3 v 3 h -3 v 8 h -4 v -8 h -2 v -3 h 2 v -1.318359 c 0,-1.254499 0.193036,-2.180943 0.896484,-2.777344 C 29.599933,17.301042 30.690153,17 32.166016,17 Z M 14,19 h 4 v 11 h 6 v 3 H 14 Z"
     id="path8" />
  <path
     style="fill:#eef0f3;fill-opacity:1"
     d="M 24 8 A 16 16 0 0 0 8 24 A 16 16 0 0 0 24 40 A 16 16 0 0 0 40 24 A 16 16 0 0 0 24 8 z M 32.166016 16 L 35 16 L 35 19.017578 L 33.550781 19.017578 C 33.026643 19.017578 32.661975 19.112739 32.455078 19.304688 C 32.248182 19.489778 32 19.815097 32 20.28125 L 32 21 L 35 21 L 35 24 L 32 24 L 32 32 L 28 32 L 28 24 L 26 24 L 26 21 L 28 21 L 28 19.681641 C 28 18.427142 28.193036 17.500698 28.896484 16.904297 C 29.599933 16.301042 30.690153 16 32.166016 16 z M 14 18 L 18 18 L 18 29 L 24 29 L 24 32 L 14 32 L 14 18 z"
     id="path10" />
  <path
     style="fill:#ffffff;opacity:0.2"
     d="M 24 8 A 16 16 0 0 0 8 24 A 16 16 0 0 0 8.0214844 24.419922 A 16 16 0 0 1 24 9 A 16 16 0 0 1 39.978516 24.580078 A 16 16 0 0 0 40 24 A 16 16 0 0 0 24 8 z M 33.550781 19.017578 C 33.026643 19.017578 32.661975 19.112739 32.455078 19.304688 C 32.248182 19.489778 32 19.815097 32 20.28125 L 32 21 L 32.037109 21 C 32.110998 20.683552 32.293315 20.449402 32.455078 20.304688 C 32.661975 20.112738 33.026643 20.017578 33.550781 20.017578 L 35 20.017578 L 35 19.017578 L 33.550781 19.017578 z M 26 24 L 26 25 L 28 25 L 28 24 L 26 24 z M 32 24 L 32 25 L 35 25 L 35 24 L 32 24 z M 14 32 L 14 33 L 24 33 L 24 32 L 14 32 z M 28 32 L 28 33 L 32 33 L 32 32 L 28 32 z"
     id="path12" />
</svg>
