<?xml version="1.0" encoding="UTF-8" standalone="no"?>
<svg
   xmlns:dc="http://purl.org/dc/elements/1.1/"
   xmlns:cc="http://creativecommons.org/ns#"
   xmlns:rdf="http://www.w3.org/1999/02/22-rdf-syntax-ns#"
   xmlns:svg="http://www.w3.org/2000/svg"
   xmlns="http://www.w3.org/2000/svg"
   xmlns:sodipodi="http://sodipodi.sourceforge.net/DTD/sodipodi-0.dtd"
   xmlns:inkscape="http://www.inkscape.org/namespaces/inkscape"
   width="48"
   height="48"
   version="1"
   id="svg16"
   sodipodi:docname="preferences-desktop-gestures-touch.svg"
   inkscape:version="0.92.5 (2060ec1f9f, 2020-04-08)">
  <metadata
     id="metadata22">
    <rdf:RDF>
      <cc:Work
         rdf:about="">
        <dc:format>image/svg+xml</dc:format>
        <dc:type
           rdf:resource="http://purl.org/dc/dcmitype/StillImage" />
      </cc:Work>
    </rdf:RDF>
  </metadata>
  <defs
     id="defs20" />
  <sodipodi:namedview
     pagecolor="#ffffff"
     bordercolor="#666666"
     borderopacity="1"
     objecttolerance="10"
     gridtolerance="10"
     guidetolerance="10"
     inkscape:pageopacity="0"
     inkscape:pageshadow="2"
     inkscape:window-width="783"
     inkscape:window-height="480"
     id="namedview18"
     showgrid="false"
     inkscape:zoom="4.9166667"
     inkscape:cx="24"
     inkscape:cy="24"
     inkscape:window-x="0"
     inkscape:window-y="28"
     inkscape:window-maximized="0"
     inkscape:current-layer="svg16" />
  <path
     style="fill:#4c566a;fill-opacity:1"
     d="M 6,8 C 6,8 4,8 4,10 v 28 c 0,1.108 0.892,2 2,2 h 36 c 1.108,0 2,-0.892 2,-2 V 10 C 44,8.892 43.108,8 42,8 Z"
     id="path2" />
  <circle
     style="opacity:0.2"
     cx="26"
     cy="22"
     r="7"
     id="circle4" />
  <path
     style="opacity:0.2"
     d="m 4,38 v 1 c 0,1.108 0.892,2 2,2 h 36 c 1.108,0 2,-0.892 2,-2 v -1 c 0,1.108 -0.892,2 -2,2 H 6 C 4.892,40 4,39.108 4,38 Z"
     id="path6" />
  <path
     style="opacity:0.1;fill:#ffffff"
     d="M 6,8 C 4.892,8 4,8.892 4,10 v 1 C 4,9.892 4.892,9 6,9 h 36 c 1.108,0 2,0.892 2,2 V 10 C 44,8.892 43.108,8 42,8 Z"
     id="path8" />
  <path
     style="opacity:0.2"
     d="m 25.99519,23.000139 c -1,0 -2,1 -2,2 -0.01493,0.882755 -0.01272,2.725196 0.0039,5.443359 0.02657,4.345107 0.01869,5.709623 -0.0332,5.896485 -1.480503,-0.156116 -3.184116,-1.326225 -4.186015,-2.119383 -0.654835,-0.51972 -1.303502,-0.995321 -1.441406,-1.056641 -0.574871,-0.255636 -1.389686,-0.09382 -1.857422,0.369141 -0.323423,0.320118 -0.444177,0.603825 -0.472657,1.117187 -0.02176,0.392303 -0.0069,0.486208 0.113282,0.746094 0.07573,0.163725 0.211614,0.383502 0.302734,0.488281 0.09111,0.104779 1.338624,1.723473 2.771484,3.597657 2.653605,3.470914 4.756625,5.32774 5.211406,5.457273 0.278047,0.07933 13.478002,0.08107 13.765954,0.002 0.130737,-0.03592 0.318054,-0.15519 0.453125,-0.289062 0.189279,-0.187596 0.261174,-0.325611 0.408203,-0.779297 0.420957,-1.298941 0.841607,-3.275402 0.960612,-4.373094 0.05175,-1.275446 0.0243,-2.466257 0,-3.5 -0.02235,-0.950877 0.0016,-1.820864 10e-7,-2.999953 0,-1 -1,-2 -2,-2 -1,0 -2,1 -2,2 4.16e-4,-0.293083 0.0037,-0.812179 0,-1 0,-1 -1,-2 -2,-2 -0.825,0 -1.640813,0.682688 -1.904297,1.482422 -0.03237,0.01601 -0.06427,0.03066 -0.0957,0.04883 -5.7e-4,-0.127577 0.002,-0.43147 0,-0.53125 0,-1 -1,-2 -2,-2 -0.848586,0 -1.690213,0.72165 -1.927734,1.550781 -0.02005,0.02967 -0.06233,0.09994 -0.07227,0.103516 -0.03049,0.01099 0,-1.246704 0,-3.126953 0,-1.287952 0.0093,-2.052705 0,-2.527393 0,-1 -1,-2 -2,-2 z"
     id="path10" />
  <circle
     style="opacity:0.2;fill:#041218"
     cx="26"
     cy="22"
     r="4"
     id="circle12" />
  <path
     style="fill:#ebebeb"
     d="m 25.99519,22.000139 c -1,0 -2,1 -2,2 -0.01493,0.882755 -0.01272,2.725196 0.0039,5.443359 0.02657,4.345107 0.01869,5.709623 -0.0332,5.896485 -1.480503,-0.156116 -3.184116,-1.326225 -4.186015,-2.119383 -0.654835,-0.51972 -1.303502,-0.995321 -1.441406,-1.056641 -0.574871,-0.255636 -1.389686,-0.09382 -1.857422,0.369141 -0.323423,0.320118 -0.444177,0.603825 -0.472657,1.117187 -0.02176,0.392303 -0.0069,0.486208 0.113282,0.746094 0.07573,0.163725 0.211614,0.383502 0.302734,0.488281 0.09111,0.104779 1.338624,1.723473 2.771484,3.597657 2.653605,3.470914 4.756625,5.32774 5.211406,5.457273 0.278047,0.07933 13.478002,0.08107 13.765954,0.002 0.130737,-0.03592 0.318054,-0.15519 0.453125,-0.289062 0.189279,-0.187596 0.261174,-0.325611 0.408203,-0.779297 0.420957,-1.298941 0.841607,-3.275402 0.960612,-4.373094 0.05175,-1.275446 0.0243,-2.466257 0,-3.5 -0.02235,-0.950877 0.0016,-1.820864 10e-7,-2.999953 0,-1 -1,-2 -2,-2 -1,0 -2,1 -2,2 4.16e-4,-0.293083 0.0037,-0.812179 0,-1 0,-1 -1,-2 -2,-2 -0.825,0 -1.640813,0.682688 -1.904297,1.482422 -0.03237,0.01601 -0.06427,0.03066 -0.0957,0.04883 -5.7e-4,-0.127577 0.002,-0.43147 0,-0.53125 0,-1 -1,-2 -2,-2 -0.848586,0 -1.690213,0.72165 -1.927734,1.550781 -0.02005,0.02967 -0.06233,0.09994 -0.07227,0.103516 -0.03049,0.01099 0,-1.246704 0,-3.126953 0,-1.287952 0.0093,-2.052705 0,-2.527393 0,-1 -1,-2 -2,-2 z"
     id="path14" />
</svg>
