<?xml version="1.0" encoding="UTF-8" standalone="no"?>
<svg
   xmlns:dc="http://purl.org/dc/elements/1.1/"
   xmlns:cc="http://creativecommons.org/ns#"
   xmlns:rdf="http://www.w3.org/1999/02/22-rdf-syntax-ns#"
   xmlns:svg="http://www.w3.org/2000/svg"
   xmlns="http://www.w3.org/2000/svg"
   xmlns:sodipodi="http://sodipodi.sourceforge.net/DTD/sodipodi-0.dtd"
   xmlns:inkscape="http://www.inkscape.org/namespaces/inkscape"
   width="48"
   height="48"
   version="1"
   id="svg12"
   sodipodi:docname="linconnect-server.svg"
   inkscape:version="0.92.5 (2060ec1f9f, 2020-04-08)">
  <metadata
     id="metadata18">
    <rdf:RDF>
      <cc:Work
         rdf:about="">
        <dc:format>image/svg+xml</dc:format>
        <dc:type
           rdf:resource="http://purl.org/dc/dcmitype/StillImage" />
      </cc:Work>
    </rdf:RDF>
  </metadata>
  <defs
     id="defs16" />
  <sodipodi:namedview
     pagecolor="#ffffff"
     bordercolor="#666666"
     borderopacity="1"
     objecttolerance="10"
     gridtolerance="10"
     guidetolerance="10"
     inkscape:pageopacity="0"
     inkscape:pageshadow="2"
     inkscape:window-width="640"
     inkscape:window-height="480"
     id="namedview14"
     showgrid="false"
     inkscape:zoom="13.906433"
     inkscape:cx="24"
     inkscape:cy="6.7418006"
     inkscape:current-layer="svg12" />
  <rect
     width="40"
     height="40"
     x="4"
     y="4.1068053"
     rx="2"
     ry="2"
     id="rect2"
     style="fill:#4c566a;fill-opacity:1" />
  <path
     fill="#fff"
     opacity=".2"
     d="m6 4c-1.108 0-2 0.892-2 2v1c0-1.108 0.892-2 2-2h36c1.108 0 2 0.892 2 2v-1c0-1.108-0.892-2-2-2h-36z"
     id="path4" />
  <path
     opacity=".2"
     d="m6 45c-1.108 0-2-0.892-2-2v-1c0 1.108 0.892 2 2 2h36c1.108 0 2-0.892 2-2v1c0 1.108-0.892 2-2 2h-36z"
     id="path6" />
  <path
     opacity=".2"
     d="m15 14c-1.662 0-3 1.338-3 3v13h-3v6h30v-6h-3v-13c0-1.662-1.338-3-3-3h-18zm2 3h14c1.108 0 2 0.892 2 2v10c0 0.36693-0.10429 0.705-0.27539 1h-17.45c-0.171-0.295-0.275-0.633-0.275-1v-10c0-1.108 0.892-2 2-2z"
     id="path8" />
  <path
     fill="#fff"
     d="m15 13c-1.662 0-3 1.338-3 3v13h-3v6h30v-6h-3v-13c0-1.662-1.338-3-3-3h-18zm2 3h14c1.108 0 2 0.892 2 2v10c0 0.36693-0.10429 0.705-0.27539 1h-17.45c-0.171-0.295-0.275-0.633-0.275-1v-10c0-1.108 0.892-2 2-2z"
     id="path10" />
</svg>
