<?xml version="1.0" encoding="UTF-8" standalone="no"?>
<svg
   xmlns:dc="http://purl.org/dc/elements/1.1/"
   xmlns:cc="http://creativecommons.org/ns#"
   xmlns:rdf="http://www.w3.org/1999/02/22-rdf-syntax-ns#"
   xmlns:svg="http://www.w3.org/2000/svg"
   xmlns="http://www.w3.org/2000/svg"
   xmlns:sodipodi="http://sodipodi.sourceforge.net/DTD/sodipodi-0.dtd"
   xmlns:inkscape="http://www.inkscape.org/namespaces/inkscape"
   width="48"
   height="48"
   version="1"
   id="svg12"
   sodipodi:docname="liri.svg"
   inkscape:version="0.92.5 (2060ec1f9f, 2020-04-08)">
  <metadata
     id="metadata18">
    <rdf:RDF>
      <cc:Work
         rdf:about="">
        <dc:format>image/svg+xml</dc:format>
        <dc:type
           rdf:resource="http://purl.org/dc/dcmitype/StillImage" />
      </cc:Work>
    </rdf:RDF>
  </metadata>
  <defs
     id="defs16" />
  <sodipodi:namedview
     pagecolor="#ffffff"
     bordercolor="#666666"
     borderopacity="1"
     objecttolerance="10"
     gridtolerance="10"
     guidetolerance="10"
     inkscape:pageopacity="0"
     inkscape:pageshadow="2"
     inkscape:window-width="783"
     inkscape:window-height="480"
     id="namedview14"
     showgrid="false"
     inkscape:zoom="4.9166667"
     inkscape:cx="24"
     inkscape:cy="24"
     inkscape:window-x="0"
     inkscape:window-y="28"
     inkscape:window-maximized="0"
     inkscape:current-layer="svg12" />
  <path
     style="opacity:0.2"
     d="M 44,25 A 20,20 0 0 1 24,45 20,20 0 0 1 4,25 20,20 0 0 1 24,5 20,20 0 0 1 44,25 Z"
     id="path2" />
  <path
     style="fill:#4c566a;fill-opacity:1"
     d="M 44,24 A 20,20 0 0 1 24,44 20,20 0 0 1 4,24 20,20 0 0 1 24,4 20,20 0 0 1 44,24 Z"
     id="path4" />
  <path
     style="opacity:0.2;fill:#ffffff"
     d="M 24,4 A 20,20 0 0 0 4,24 20,20 0 0 0 4.0214844,24.582031 20,20 0 0 1 24,5 20,20 0 0 1 43.978516,24.417969 20,20 0 0 0 44,24 20,20 0 0 0 24,4 Z"
     id="path6" />
  <path
     style="opacity:0.2"
     d="M 35.013588,26.045764 V 19 l 2.986659,0.5 -3.41642,-3.478921 -5.196141,0.861843 -2.375997,4.752449 L 14,15 l 4,7 -8,-2 c 0,0 10.361073,9.546327 10.627197,9.709953 L 19.968802,30.47688 20.254778,31.48643 14.111986,35 h 7.985407 z"
     id="path8" />
  <path
     style="fill:#ffffff"
     d="M 35.013588,25.045764 V 18 l 2.986659,0.5 -3.41642,-3.478921 -5.196141,0.861843 -2.375997,4.752449 L 14,14 l 4,7 -8,-2 c 0,0 10.361073,9.546327 10.627197,9.709953 L 19.968802,29.47688 20.254778,30.48643 14.111986,34 h 7.985407 z"
     id="path10" />
</svg>
