<?xml version="1.0" encoding="UTF-8" standalone="no"?>
<svg
   xmlns:dc="http://purl.org/dc/elements/1.1/"
   xmlns:cc="http://creativecommons.org/ns#"
   xmlns:rdf="http://www.w3.org/1999/02/22-rdf-syntax-ns#"
   xmlns:svg="http://www.w3.org/2000/svg"
   xmlns="http://www.w3.org/2000/svg"
   xmlns:sodipodi="http://sodipodi.sourceforge.net/DTD/sodipodi-0.dtd"
   xmlns:inkscape="http://www.inkscape.org/namespaces/inkscape"
   width="48"
   height="48"
   version="1.1"
   id="svg14"
   sodipodi:docname="appimagekit-listen.moe-desktop-app.svg"
   inkscape:version="0.92.5 (2060ec1f9f, 2020-04-08)">
  <metadata
     id="metadata20">
    <rdf:RDF>
      <cc:Work
         rdf:about="">
        <dc:format>image/svg+xml</dc:format>
        <dc:type
           rdf:resource="http://purl.org/dc/dcmitype/StillImage" />
      </cc:Work>
    </rdf:RDF>
  </metadata>
  <defs
     id="defs18" />
  <sodipodi:namedview
     pagecolor="#ffffff"
     bordercolor="#666666"
     borderopacity="1"
     objecttolerance="10"
     gridtolerance="10"
     guidetolerance="10"
     inkscape:pageopacity="0"
     inkscape:pageshadow="2"
     inkscape:window-width="783"
     inkscape:window-height="480"
     id="namedview16"
     showgrid="false"
     inkscape:zoom="2.4583333"
     inkscape:cx="0.26471495"
     inkscape:cy="39.540847"
     inkscape:window-x="0"
     inkscape:window-y="28"
     inkscape:window-maximized="0"
     inkscape:current-layer="svg14" />
  <rect
     style="opacity:.2"
     width="40"
     height="40"
     x="4"
     y="5"
     rx="2"
     ry="2"
     id="rect2" />
  <rect
     style="fill:#4c566a;fill-opacity:1"
     width="40"
     height="40"
     x="4"
     y="4"
     rx="2"
     ry="2"
     id="rect4" />
  <path
     style="fill:#ffffff;opacity:.1"
     d="m6 4c-1.108 0-2 0.892-2 2v1c0-1.108 0.892-2 2-2h36c1.108 0 2 0.892 2 2v-1c0-1.108-0.892-2-2-2h-36z"
     id="path6" />
  <path
     style="opacity:0.2"
     d="M 14.5,15 C 14.223,15 14,15.223 14,15.5 v 2 10 c 0,0.277 0.223,0.5 0.5,0.5 h 2 C 16.777,28 17,27.777 17,27.5 V 18 h 4.5 c 0.277,0 0.5,-0.223 0.5,-0.5 v -2 C 22,15.223 21.777,15 21.5,15 h -5 z m 17,7 C 31.223,22 31,22.223 31,22.5 V 32 H 26.5 C 26.223,32 26,32.223 26,32.5 v 2 c 0,0.277 0.223,0.5 0.5,0.5 h 5 2 c 0.277,0 0.5,-0.223 0.5,-0.5 v -2 -10 C 34,22.223 33.777,22 33.5,22 Z"
     id="path8" />
  <path
     style="fill:#ffffff"
     d="M 14.5,14 C 14.223,14 14,14.223 14,14.5 v 2 10 c 0,0.277 0.223,0.5 0.5,0.5 h 2 C 16.777,27 17,26.777 17,26.5 V 17 h 4.5 c 0.277,0 0.5,-0.223 0.5,-0.5 v -2 C 22,14.223 21.777,14 21.5,14 h -5 z"
     id="path10" />
  <path
     style="fill:#a5afc3;fill-opacity:1"
     d="m 33.5,34 c 0.277,0 0.5,-0.223 0.5,-0.5 v -2 -10 C 34,21.223 33.777,21 33.5,21 h -2 C 31.223,21 31,21.223 31,21.5 V 31 H 26.5 C 26.223,31 26,31.223 26,31.5 v 2 c 0,0.277 0.223,0.5 0.5,0.5 h 5 z"
     id="path12" />
</svg>
