<?xml version="1.0" encoding="UTF-8" standalone="no"?>
<svg
   xmlns:dc="http://purl.org/dc/elements/1.1/"
   xmlns:cc="http://creativecommons.org/ns#"
   xmlns:rdf="http://www.w3.org/1999/02/22-rdf-syntax-ns#"
   xmlns:svg="http://www.w3.org/2000/svg"
   xmlns="http://www.w3.org/2000/svg"
   xmlns:sodipodi="http://sodipodi.sourceforge.net/DTD/sodipodi-0.dtd"
   xmlns:inkscape="http://www.inkscape.org/namespaces/inkscape"
   width="48"
   height="48"
   version="1"
   id="svg20"
   sodipodi:docname="litesoundsloc.svg"
   inkscape:version="0.92.5 (2060ec1f9f, 2020-04-08)">
  <metadata
     id="metadata26">
    <rdf:RDF>
      <cc:Work
         rdf:about="">
        <dc:format>image/svg+xml</dc:format>
        <dc:type
           rdf:resource="http://purl.org/dc/dcmitype/StillImage" />
      </cc:Work>
    </rdf:RDF>
  </metadata>
  <defs
     id="defs24" />
  <sodipodi:namedview
     pagecolor="#ffffff"
     bordercolor="#666666"
     borderopacity="1"
     objecttolerance="10"
     gridtolerance="10"
     guidetolerance="10"
     inkscape:pageopacity="0"
     inkscape:pageshadow="2"
     inkscape:window-width="783"
     inkscape:window-height="480"
     id="namedview22"
     showgrid="false"
     inkscape:zoom="4.9166667"
     inkscape:cx="24"
     inkscape:cy="24"
     inkscape:window-x="0"
     inkscape:window-y="28"
     inkscape:window-maximized="0"
     inkscape:current-layer="svg20" />
  <path
     style="opacity:0.2"
     d="m 24,4.999797 a 16,16 0 0 0 -16,16 v 6 h 4 v -6 a 12,12 0 0 1 12,-12 12,12 0 0 1 12,12 v 6 h 4 v -6 a 16,16 0 0 0 -16,-16 z"
     id="path2" />
  <path
     style="opacity:0.2"
     d="M 12.955078 19 A 1.0146967 1.1154525 0 0 0 12.693359 19.046875 L 4.7246094 21.673828 A 1.0146967 1.1154525 0 0 0 4 22.742188 L 4 33.255859 A 1.0146967 1.1154525 0 0 0 4.7246094 34.324219 L 12.693359 36.953125 A 1.0146967 1.1154525 0 0 0 14 35.884766 L 14 20.113281 A 1.0146967 1.1154525 0 0 0 12.955078 19 z M 35.044922 19 A 1.0146967 1.1154525 0 0 0 34 20.113281 L 34 35.884766 A 1.0146967 1.1154525 0 0 0 35.306641 36.953125 L 43.275391 34.324219 A 1.0146967 1.1154525 0 0 0 44 33.255859 L 44 22.742188 A 1.0146967 1.1154525 0 0 0 43.275391 21.673828 L 35.306641 19.046875 A 1.0146967 1.1154525 0 0 0 35.044922 19 z"
     id="path4" />
  <path
     style="fill:#4c566a;fill-opacity:1"
     d="M 24 4 A 16 16 0 0 0 8 20 L 8 26 L 12 26 L 12 20 A 12 12 0 0 1 24 8 A 12 12 0 0 1 36 20 L 36 26 L 40 26 L 40 20 A 16 16 0 0 0 24 4 z"
     id="path6" />
  <path
     style="fill:#4c566a;fill-opacity:1"
     d="M 12.955078 18 A 1.0146967 1.1154525 0 0 0 12.693359 18.046875 L 4.7246094 20.673828 A 1.0146967 1.1154525 0 0 0 4 21.742188 L 4 32.255859 A 1.0146967 1.1154525 0 0 0 4.7246094 33.324219 L 12.693359 35.953125 A 1.0146967 1.1154525 0 0 0 14 34.884766 L 14 19.113281 A 1.0146967 1.1154525 0 0 0 12.955078 18 z M 35.044922 18 A 1.0146967 1.1154525 0 0 0 34 19.113281 L 34 34.884766 A 1.0146967 1.1154525 0 0 0 35.306641 35.953125 L 43.275391 33.324219 A 1.0146967 1.1154525 0 0 0 44 32.255859 L 44 21.742188 A 1.0146967 1.1154525 0 0 0 43.275391 20.673828 L 35.306641 18.046875 A 1.0146967 1.1154525 0 0 0 35.044922 18 z"
     id="path8" />
  <path
     style="opacity:0.2"
     d="m 26.748047,9.9665939 -6,23.7988281 -4.0625,-11.289063 L 11,30.999797 l -0.03906,0.152344 4.353515,-3.626953 5.9375,16.507812 6,-23.798828 3.955078,10.990234 5.021485,-6.511718 v 0 l -3.435547,2.060547 z"
     id="path10" />
  <path
     style="fill:#ffffff;fill-opacity:1"
     d="m 26.748047,8.9667969 -6,23.7988281 -4.0625,-11.289063 L 11,30 l -0.03906,0.152344 4.353515,-3.626953 5.9375,16.507812 6,-23.798828 3.955078,10.990234 5.021485,-6.511718 v 0 l -3.435547,2.060547 z"
     id="path12" />
  <path
     style="opacity:0.1;fill:#ffffff"
     d="M 24 4 A 16 16 0 0 0 8 20 L 8 21 A 16 16 0 0 1 24 5 A 16 16 0 0 1 40 21 L 40 20 A 16 16 0 0 0 24 4 z"
     id="path14" />
  <path
     style="opacity:0.2;fill:#ffffff"
     d="M 12.955078 18 A 1.0146967 1.1154525 0 0 0 12.693359 18.046875 L 4.7246094 20.673828 A 1.0146967 1.1154525 0 0 0 4 21.742188 L 4 22.742188 A 1.0146967 1.1154525 0 0 1 4.7246094 21.673828 L 12.693359 19.046875 A 1.0146967 1.1154525 0 0 1 12.955078 19 A 1.0146967 1.1154525 0 0 1 14 20.113281 L 14 19.113281 A 1.0146967 1.1154525 0 0 0 12.955078 18 z M 35.044922 18 A 1.0146967 1.1154525 0 0 0 34 19.113281 L 34 20.113281 A 1.0146967 1.1154525 0 0 1 35.044922 19 A 1.0146967 1.1154525 0 0 1 35.306641 19.046875 L 43.275391 21.673828 A 1.0146967 1.1154525 0 0 1 44 22.742188 L 44 21.742188 A 1.0146967 1.1154525 0 0 0 43.275391 20.673828 L 35.306641 18.046875 A 1.0146967 1.1154525 0 0 0 35.044922 18 z"
     id="path16" />
  <path
     style="opacity:0.2;fill:#ffffff"
     d="M 26.748047 8.9667969 L 20.748047 32.765625 L 16.685547 21.476562 L 11 30 L 10.960938 30.152344 L 12.322266 29.019531 L 16.685547 22.476562 L 20.748047 33.765625 L 26.748047 9.9667969 L 32.792969 26.773438 L 34.792969 25.574219 L 36.228516 23.712891 L 32.792969 25.773438 L 26.748047 8.9667969 z"
     id="path18" />
</svg>
