<?xml version="1.0" encoding="UTF-8" standalone="no"?>
<svg
   xmlns:dc="http://purl.org/dc/elements/1.1/"
   xmlns:cc="http://creativecommons.org/ns#"
   xmlns:rdf="http://www.w3.org/1999/02/22-rdf-syntax-ns#"
   xmlns:svg="http://www.w3.org/2000/svg"
   xmlns="http://www.w3.org/2000/svg"
   xmlns:sodipodi="http://sodipodi.sourceforge.net/DTD/sodipodi-0.dtd"
   xmlns:inkscape="http://www.inkscape.org/namespaces/inkscape"
   width="48"
   height="48"
   version="1"
   id="svg18"
   sodipodi:docname="gnome-freecell.svg"
   inkscape:version="0.92.5 (2060ec1f9f, 2020-04-08)">
  <metadata
     id="metadata24">
    <rdf:RDF>
      <cc:Work
         rdf:about="">
        <dc:format>image/svg+xml</dc:format>
        <dc:type
           rdf:resource="http://purl.org/dc/dcmitype/StillImage" />
      </cc:Work>
    </rdf:RDF>
  </metadata>
  <defs
     id="defs22" />
  <sodipodi:namedview
     pagecolor="#ffffff"
     bordercolor="#666666"
     borderopacity="1"
     objecttolerance="10"
     gridtolerance="10"
     guidetolerance="10"
     inkscape:pageopacity="0"
     inkscape:pageshadow="2"
     inkscape:window-width="783"
     inkscape:window-height="480"
     id="namedview20"
     showgrid="false"
     inkscape:zoom="4.9166667"
     inkscape:cx="24"
     inkscape:cy="24"
     inkscape:window-x="0"
     inkscape:window-y="28"
     inkscape:window-maximized="0"
     inkscape:current-layer="svg18" />
  <rect
     fill="#e4e4e4"
     width="40"
     height="30"
     x="-44"
     y="-39"
     rx="2"
     ry="2"
     transform="matrix(0,-1,-1,0,0,0)"
     id="rect2"
     style="fill:#4c566a;fill-opacity:1" />
  <path
     fill="#fff"
     opacity=".2"
     d="m11 4c-1.108 0-2 0.892-2 2v1c0-1.108 0.892-2 2-2h26c1.108 0 2 0.892 2 2v-1c0-1.108-0.892-2-2-2h-26z"
     id="path4" />
  <path
     opacity=".2"
     d="m9 42v1c0 1.108 0.892 2 2 2h26c1.108 0 2-0.892 2-2v-1c0 1.108-0.892 2-2 2h-26c-1.108 0-2-0.892-2-2z"
     id="path6" />
  <rect
     fill="#e74c3c"
     width="4.61"
     height="4.61"
     x="18.55"
     y="-1.43"
     transform="matrix(.65079 .75926 -.65079 .75926 0 0)"
     id="rect8"
     style="fill:#ffffff;fill-opacity:1" />
  <path
     fill="#e74c3c"
     d="m14.356 11.907h-2.4193l-0.382 1.093h-1.555l2.222-6h1.8446l2.222 6h-1.555l-0.378-1.093zm-2.0335-1.1132h1.6437l-0.81983-2.3871-0.82384 2.3871z"
     id="path10"
     style="fill:#ffffff;fill-opacity:1" />
  <rect
     fill="#e74c3c"
     width="10.63"
     height="10.63"
     x="28.85"
     y="-7.59"
     transform="matrix(.65850 .75258 -.65850 .75258 0 0)"
     id="rect12"
     style="fill:#ffffff;fill-opacity:1" />
  <rect
     fill="#e74c3c"
     width="4.61"
     height="4.61"
     x="-49.94"
     y="3.84"
     transform="matrix(-.65079 -.75926 .65079 -.75926 0 0)"
     id="rect14"
     style="fill:#ffffff;fill-opacity:1" />
  <path
     fill="#e74c3c"
     d="m33.644 36.093h2.4193l0.382-1.093h1.555l-2.2224 6h-1.8446l-2.2224-6h1.5553l0.37776 1.0931zm2.0335 1.1132h-1.6437l0.81983 2.3871 0.82384-2.3871z"
     id="path16"
     style="fill:#ffffff;fill-opacity:1" />
</svg>
