<?xml version="1.0" encoding="UTF-8" standalone="no"?>
<svg
   xmlns:dc="http://purl.org/dc/elements/1.1/"
   xmlns:cc="http://creativecommons.org/ns#"
   xmlns:rdf="http://www.w3.org/1999/02/22-rdf-syntax-ns#"
   xmlns:svg="http://www.w3.org/2000/svg"
   xmlns="http://www.w3.org/2000/svg"
   xmlns:sodipodi="http://sodipodi.sourceforge.net/DTD/sodipodi-0.dtd"
   xmlns:inkscape="http://www.inkscape.org/namespaces/inkscape"
   width="48"
   height="48"
   version="1"
   id="svg12"
   sodipodi:docname="brave-apboafhkiegglekeafbckfjldecefkhn-Default.svg"
   inkscape:version="0.92.5 (2060ec1f9f, 2020-04-08)">
  <metadata
     id="metadata18">
    <rdf:RDF>
      <cc:Work
         rdf:about="">
        <dc:format>image/svg+xml</dc:format>
        <dc:type
           rdf:resource="http://purl.org/dc/dcmitype/StillImage" />
      </cc:Work>
    </rdf:RDF>
  </metadata>
  <defs
     id="defs16" />
  <sodipodi:namedview
     pagecolor="#ffffff"
     bordercolor="#666666"
     borderopacity="1"
     objecttolerance="10"
     gridtolerance="10"
     guidetolerance="10"
     inkscape:pageopacity="0"
     inkscape:pageshadow="2"
     inkscape:window-width="640"
     inkscape:window-height="480"
     id="namedview14"
     showgrid="false"
     inkscape:zoom="4.9166667"
     inkscape:cx="24"
     inkscape:cy="24"
     inkscape:current-layer="svg12" />
  <rect
     width="40"
     height="40"
     x="4.6101694"
     y="4.3135595"
     rx="2"
     ry="2"
     id="rect2"
     style="fill:#4c566a;fill-opacity:1" />
  <path
     inkscape:connector-curvature="0"
     style="opacity:0.2;fill:#ffffff"
     d="m 4.6101695,7.3135593 v -1 c 0,-1.108 0.892,-2 2,-2 H 42.610169 c 1.108,0 2,0.892 2,2 v 1 c 0,-1.108 -0.892,-2 -2,-2 H 6.6101695 c -1.108,0 -2,0.892 -2,2 z"
     id="path4" />
  <path
     inkscape:connector-curvature="0"
     style="opacity:0.2"
     d="m 4.6101695,42.313559 v 1 c 0,1.108 0.892,2 2,2 H 42.610169 c 1.108,0 2,-0.892 2,-2 v -1 c 0,1.108 -0.892,2 -2,2 H 6.6101695 c -1.108,0 -2,-0.892 -2,-2 z"
     id="path6" />
  <path
     inkscape:connector-curvature="0"
     style="opacity:0.2"
     d="m 34.610169,14.313559 a 4,4 0 0 0 -4,4 4,4 0 0 0 4,4 4,4 0 0 0 4,-4 4,4 0 0 0 -4,-4 z m -8.9062,0.07227 a 4,4 0 0 0 -0.2832,0.0039 4,4 0 0 0 -3.2754,1.9961 4,4 0 0 0 -0.38672,3.0684 l -5.2949,3.0586 a 4,4 0 0 0 -2.854,-1.199 4,4 0 0 0 -3.9999995,4 4,4 0 0 0 3.9999995,4 4,4 0 0 0 2.8516,-1.1992 l 5.2949,3.0586 a 4,4 0 0 0 0.388,3.068 4,4 0 0 0 5.465,1.465 4,4 0 0 0 1.465,-5.465 4,4 0 0 0 -5.465,-1.463 4,4 0 0 0 -0.855,0.662 l -5.295,-3.057 a 4,4 0 0 0 0.15,-1.07 4,4 0 0 0 -0.146,-1.07 l 5.2949,-3.0566 a 4,4 0 0 0 0.851,0.662 4,4 0 0 0 5.465,-1.463 4,4 0 0 0 -1.465,-5.465 4,4 0 0 0 -1.906,-0.535 z m 8.906,13.928 a 4,4 0 0 0 -4,4 4,4 0 0 0 4,4 4,4 0 0 0 4,-4 4,4 0 0 0 -4,-4 z"
     id="path8" />
  <path
     inkscape:connector-curvature="0"
     style="fill:#ffffff"
     d="m 34.610169,13.313559 a 4,4 0 0 0 -4,4 4,4 0 0 0 4,4 4,4 0 0 0 4,-4 4,4 0 0 0 -4,-4 z m -8.9062,0.07227 a 4,4 0 0 0 -0.2832,0.0039 4,4 0 0 0 -3.2754,1.9961 4,4 0 0 0 -0.38672,3.0684 l -5.2949,3.0586 a 4,4 0 0 0 -2.854,-1.199 4,4 0 0 0 -3.9999995,4 4,4 0 0 0 3.9999995,4 4,4 0 0 0 2.8516,-1.1992 l 5.2949,3.0586 a 4,4 0 0 0 0.388,3.068 4,4 0 0 0 5.465,1.465 4,4 0 0 0 1.465,-5.465 4,4 0 0 0 -5.465,-1.463 4,4 0 0 0 -0.855,0.662 l -5.295,-3.057 a 4,4 0 0 0 0.15,-1.07 4,4 0 0 0 -0.146,-1.07 l 5.2949,-3.0566 a 4,4 0 0 0 0.851,0.662 4,4 0 0 0 5.465,-1.463 4,4 0 0 0 -1.465,-5.465 4,4 0 0 0 -1.906,-0.535 z m 8.906,13.928 a 4,4 0 0 0 -4,4 4,4 0 0 0 4,4 4,4 0 0 0 4,-4 4,4 0 0 0 -4,-4 z"
     id="path10" />
</svg>
