<?xml version="1.0" encoding="UTF-8" standalone="no"?>
<svg
   xmlns:dc="http://purl.org/dc/elements/1.1/"
   xmlns:cc="http://creativecommons.org/ns#"
   xmlns:rdf="http://www.w3.org/1999/02/22-rdf-syntax-ns#"
   xmlns:svg="http://www.w3.org/2000/svg"
   xmlns="http://www.w3.org/2000/svg"
   xmlns:sodipodi="http://sodipodi.sourceforge.net/DTD/sodipodi-0.dtd"
   xmlns:inkscape="http://www.inkscape.org/namespaces/inkscape"
   width="48"
   height="48"
   version="1.1"
   id="svg12"
   sodipodi:docname="com.getmailspring.Mailspring.svg"
   inkscape:version="0.92.5 (2060ec1f9f, 2020-04-08)">
  <metadata
     id="metadata18">
    <rdf:RDF>
      <cc:Work
         rdf:about="">
        <dc:format>image/svg+xml</dc:format>
        <dc:type
           rdf:resource="http://purl.org/dc/dcmitype/StillImage" />
      </cc:Work>
    </rdf:RDF>
  </metadata>
  <defs
     id="defs16" />
  <sodipodi:namedview
     pagecolor="#ffffff"
     bordercolor="#666666"
     borderopacity="1"
     objecttolerance="10"
     gridtolerance="10"
     guidetolerance="10"
     inkscape:pageopacity="0"
     inkscape:pageshadow="2"
     inkscape:window-width="783"
     inkscape:window-height="480"
     id="namedview14"
     showgrid="false"
     inkscape:zoom="4.9166667"
     inkscape:cx="24"
     inkscape:cy="24"
     inkscape:window-x="0"
     inkscape:window-y="28"
     inkscape:window-maximized="0"
     inkscape:current-layer="svg12" />
  <path
     style="fill:#4c566a;fill-opacity:1"
     d="m24 4a20 20 0 0 0 -20 20 20 20 0 0 0 20 20 20 20 0 0 0 20 -20 20 20 0 0 0 -20 -20z"
     id="path2" />
  <path
     style="opacity:0.2"
     d="M 12,16 24,28 36,16 12,16 Z M 12,18.828125 12,34 19.585938,26.414062 12,18.828125 Z m 24,0 -7.585938,7.585937 L 36,34 36,18.828125 Z m -15,9 L 14.828125,34 33.171875,34 27,27.828125 25.414062,29.414062 a 2.0002,2.0002 0 0 1 -2.828124,0 L 21,27.828125 Z"
     id="path4" />
  <path
     opacity=".2"
     d="m4.0215 24.418a20 20 0 0 0 -0.0215 0.582 20 20 0 0 0 20 20 20 20 0 0 0 20 -20 20 20 0 0 0 -0.021 -0.418 20 20 0 0 1 -19.979 19.418 20 20 0 0 1 -19.978 -19.582z"
     id="path6" />
  <path
     fill="#ffffff"
     opacity=".2"
     d="m24 4a20 20 0 0 0 -20 20 20 20 0 0 0 0.0215 0.418 20 20 0 0 1 19.978 -19.418 20 20 0 0 1 19.979 19.582 20 20 0 0 0 0.021 -0.582 20 20 0 0 0 -20 -20z"
     id="path8" />
  <path
     style="fill:#ffffff"
     d="M 12 15 L 24 27 L 36 15 L 12 15 z M 12 17.828125 L 12 33 L 19.585938 25.414062 L 12 17.828125 z M 36 17.828125 L 28.414062 25.414062 L 36 33 L 36 17.828125 z M 21 26.828125 L 14.828125 33 L 33.171875 33 L 27 26.828125 L 25.414062 28.414062 A 2.0002 2.0002 0 0 1 22.585938 28.414062 L 21 26.828125 z"
     id="path10" />
</svg>
