<?xml version="1.0" encoding="UTF-8" standalone="no"?>
<svg
   xmlns:dc="http://purl.org/dc/elements/1.1/"
   xmlns:cc="http://creativecommons.org/ns#"
   xmlns:rdf="http://www.w3.org/1999/02/22-rdf-syntax-ns#"
   xmlns:svg="http://www.w3.org/2000/svg"
   xmlns="http://www.w3.org/2000/svg"
   xmlns:sodipodi="http://sodipodi.sourceforge.net/DTD/sodipodi-0.dtd"
   xmlns:inkscape="http://www.inkscape.org/namespaces/inkscape"
   width="48"
   height="48"
   version="1.1"
   id="svg28"
   sodipodi:docname="application-x-osm+xml.svg"
   inkscape:version="0.92.5 (2060ec1f9f, 2020-04-08)">
  <metadata
     id="metadata34">
    <rdf:RDF>
      <cc:Work
         rdf:about="">
        <dc:format>image/svg+xml</dc:format>
        <dc:type
           rdf:resource="http://purl.org/dc/dcmitype/StillImage" />
      </cc:Work>
    </rdf:RDF>
  </metadata>
  <defs
     id="defs32" />
  <sodipodi:namedview
     pagecolor="#ffffff"
     bordercolor="#666666"
     borderopacity="1"
     objecttolerance="10"
     gridtolerance="10"
     guidetolerance="10"
     inkscape:pageopacity="0"
     inkscape:pageshadow="2"
     inkscape:window-width="783"
     inkscape:window-height="480"
     id="namedview30"
     showgrid="false"
     inkscape:zoom="4.9166667"
     inkscape:cx="23.186441"
     inkscape:cy="25.830508"
     inkscape:current-layer="g16"
     inkscape:window-x="0"
     inkscape:window-y="28"
     inkscape:window-maximized="0" />
  <g
     transform="translate(1,-2.0005)"
     id="g26">
    <g
       transform="translate(1.1272382,0.18719032)"
       id="g16">
      <rect
         width="40"
         height="40"
         x="-46"
         y="-42"
         rx="2"
         ry="2"
         transform="matrix(0,-1,-1,0,0,0)"
         id="rect2"
         style="fill:#4c566a;fill-opacity:1" />
      <path
         style="opacity:0.1;fill:#ffffff"
         inkscape:connector-curvature="0"
         d="m 4.0001,6 c -1.108,0 -2,0.892 -2,2 v 1 c 0,-1.108 0.892,-2 2,-2 h 36 c 1.108,0 2,0.892 2,2 V 8 c 0,-1.108 -0.892,-2 -2,-2 z"
         id="path4" />
      <path
         inkscape:connector-curvature="0"
         d="m 4.0001,46 18,-18 18,18 z"
         id="path6"
         style="fill:#737d91;fill-opacity:1;fill-rule:evenodd" />
      <path
         inkscape:connector-curvature="0"
         d="M 42,44 24,26 42,8 Z"
         id="path8"
         style="fill:#4c566a;fill-opacity:1;fill-rule:evenodd" />
      <path
         inkscape:connector-curvature="0"
         d="m 23.768,24.2 -3.5352,3.5371 18.23,18.23 h 1.5371 c 1.108,0 2,-0.892 2,-2 v -1.5352 l -18.232,-18.232 z"
         id="path10"
         style="fill:#bcbcbc;fill-opacity:1;fill-rule:evenodd" />
      <path
         style="fill:#d3d3d3;fill-rule:evenodd;fill-opacity:1"
         inkscape:connector-curvature="0"
         d="M 38.465,6 2,42.4 v 1.535 c 0,1.108 0.892,2 2,2 h 1.5371 l 36.463,-36.4 V 7.9979 c 0,-1.108 -0.892,-2 -2,-2 h -1.5352 z"
         id="path12" />
      <path
         style="opacity:0.2"
         inkscape:connector-curvature="0"
         d="m 4.0001,47 c -1.108,0 -2,-0.892 -2,-2 v -1 c 0,1.108 0.892,2 2,2 h 36 c 1.108,0 2,-0.892 2,-2 v 1 c 0,1.108 -0.892,2 -2,2 z"
         id="path14" />
    </g>
    <path
       inkscape:connector-curvature="0"
       style="opacity:0.2"
       d="m 34.127238,4.1866903 c -6.6275,0 -12,5.2753 -12,11.7829997 0,0.4067 0.03408,0.7821 0.07488,1.1782 0.03288,0.3942 0.08592,0.7922 0.15,1.1783 1.374,8.2821 6.9752,14.148 11.775,18.861 4.8,-4.7131 10.401,-10.578 11.775,-18.861 0.06408,-0.3861 0.11712,-0.7841 0.15,-1.1783 0.04104,-0.3961 0.07488,-0.7715 0.07488,-1.1782 0,-6.5075997 -5.3726,-11.7829997 -12,-11.7829997 z"
       id="path18" />
    <path
       inkscape:connector-curvature="0"
       d="m 34.127238,3.1866903 c -6.6275,0 -12,5.2753 -12,11.7829997 0,0.4067 0.03408,0.7821 0.07488,1.1782 0.03288,0.3942 0.08592,0.7922 0.15,1.1783 1.374,8.2821 6.9752,14.148 11.775,18.861 4.8,-4.7131 10.401,-10.578 11.775,-18.861 0.06408,-0.3861 0.11712,-0.7841 0.15,-1.1783 0.04104,-0.3961 0.07488,-0.7715 0.07488,-1.1782 0,-6.5075997 -5.3726,-11.7829997 -12,-11.7829997 z"
       id="path20"
       style="fill:#fffdfd;fill-opacity:1" />
    <path
       inkscape:connector-curvature="0"
       style="opacity:0.2"
       d="m 34.127238,10.18669 c 2.7614,0 5,2.2386 5,5 0,2.7614 -2.2386,5 -5,5 -2.7614,0 -5,-2.2386 -5,-5 0,-2.7614 2.2386,-5 5,-5 z"
       id="path22" />
    <path
       inkscape:connector-curvature="0"
       d="m 34.127238,9.1866903 c 2.7614,0 5,2.2385997 5,4.9999997 0,2.7614 -2.2386,5 -5,5 -2.7614,0 -5,-2.2386 -5,-5 0,-2.7614 2.2386,-4.9999997 5,-4.9999997 z"
       id="path24"
       style="fill:#4c566a;fill-opacity:1" />
  </g>
</svg>
