<?xml version="1.0" encoding="UTF-8" standalone="no"?>
<svg
   xmlns:dc="http://purl.org/dc/elements/1.1/"
   xmlns:cc="http://creativecommons.org/ns#"
   xmlns:rdf="http://www.w3.org/1999/02/22-rdf-syntax-ns#"
   xmlns:svg="http://www.w3.org/2000/svg"
   xmlns="http://www.w3.org/2000/svg"
   xmlns:sodipodi="http://sodipodi.sourceforge.net/DTD/sodipodi-0.dtd"
   xmlns:inkscape="http://www.inkscape.org/namespaces/inkscape"
   width="48"
   height="48"
   version="1"
   id="svg32"
   sodipodi:docname="marktext.svg"
   inkscape:version="0.92.5 (2060ec1f9f, 2020-04-08)">
  <metadata
     id="metadata38">
    <rdf:RDF>
      <cc:Work
         rdf:about="">
        <dc:format>image/svg+xml</dc:format>
        <dc:type
           rdf:resource="http://purl.org/dc/dcmitype/StillImage" />
      </cc:Work>
    </rdf:RDF>
  </metadata>
  <defs
     id="defs36" />
  <sodipodi:namedview
     pagecolor="#ffffff"
     bordercolor="#666666"
     borderopacity="1"
     objecttolerance="10"
     gridtolerance="10"
     guidetolerance="10"
     inkscape:pageopacity="0"
     inkscape:pageshadow="2"
     inkscape:window-width="765"
     inkscape:window-height="480"
     id="namedview34"
     showgrid="false"
     inkscape:zoom="4.9166667"
     inkscape:cx="24"
     inkscape:cy="24"
     inkscape:window-x="0"
     inkscape:window-y="28"
     inkscape:window-maximized="0"
     inkscape:current-layer="svg32" />
  <rect
     opacity=".2"
     width="40"
     height="40"
     x="4"
     y="5"
     rx="20"
     ry="20"
     id="rect2" />
  <rect
     style="fill:#4c566a;fill-opacity:1"
     width="40"
     height="40"
     x="4"
     y="4"
     rx="20"
     ry="20"
     id="rect4" />
  <path
     style="opacity:0.2"
     d="m 11,20.000422 h 3 v 6.540241 l 1,0.528169 v 5.93159 l -4,-2.313883 z"
     id="path6" />
  <path
     style="fill:#ffffff;fill-opacity:1"
     d="m 11,19 h 3 v 6.540241 l 1,0.528169 V 32 l -4,-2.313883 z"
     id="path8" />
  <path
     fill="#fff"
     opacity=".1"
     d="m24 4c-11.08 0-20 8.92-20 20 0 0.168 0.0076 0.333 0.0117 0.5 0.2647-10.846 9.0763-19.5 19.988-19.5s19.724 8.654 19.988 19.5c0.004-0.167 0.012-0.332 0.012-0.5 0-11.08-8.92-20-20-20z"
     id="path10" />
  <path
     style="opacity:0.2"
     d="M 11,15.25425 28.400391,25.301125 23.986328,27.848 11,20.349953 Z"
     id="path12" />
  <path
     style="fill:#f0f0f0;fill-opacity:1"
     d="M 11,14.253906 28.400391,24.300781 23.986328,26.847656 11,19.349609 Z"
     id="path14" />
  <path
     style="opacity:0.2"
     d="m 17,28.000422 v 4.599609 l 7,4.041016 3.984375,-2.298828 z"
     id="path16" />
  <path
     style="opacity:0.2"
     d="M 31,28.000422 20.015625,34.342219 24,36.643 31,32.600031 Z"
     id="path18" />
  <path
     style="fill:#f0f0f0;fill-opacity:1"
     d="M 31,27 20.015625,33.341797 24,35.642578 31,31.599609 Z"
     id="path20" />
  <path
     style="fill:#ffffff;fill-opacity:1"
     d="m 17,27 v 4.599609 l 7,4.041016 3.984375,-2.298828 z"
     id="path22" />
  <path
     style="opacity:0.2"
     d="m 37,20.000422 h -3 v 6.540241 l -1,0.528169 v 5.93159 l 4,-2.313883 z"
     id="path24" />
  <path
     style="fill:#ffffff;fill-opacity:1"
     d="m 37,19 h -3 v 6.540241 L 33,26.06841 V 32 l 4,-2.313883 z"
     id="path26" />
  <path
     style="opacity:0.2"
     d="M 37,15.25425 19.599609,25.301125 24.013672,27.848 37,20.349953 Z"
     id="path28" />
  <path
     style="fill:#ffffff;fill-opacity:1"
     d="M 37 14.253906 L 19.599609 24.300781 L 24.013672 26.847656 L 37 19.349609 L 37 14.253906 z"
     id="path30" />
</svg>
