<?xml version="1.0" encoding="UTF-8" standalone="no"?>
<svg
   xmlns:dc="http://purl.org/dc/elements/1.1/"
   xmlns:cc="http://creativecommons.org/ns#"
   xmlns:rdf="http://www.w3.org/1999/02/22-rdf-syntax-ns#"
   xmlns:svg="http://www.w3.org/2000/svg"
   xmlns="http://www.w3.org/2000/svg"
   xmlns:sodipodi="http://sodipodi.sourceforge.net/DTD/sodipodi-0.dtd"
   xmlns:inkscape="http://www.inkscape.org/namespaces/inkscape"
   width="48"
   height="48"
   version="1.1"
   id="svg20"
   sodipodi:docname="mate-panel-separator.svg"
   inkscape:version="0.92.5 (2060ec1f9f, 2020-04-08)">
  <metadata
     id="metadata26">
    <rdf:RDF>
      <cc:Work
         rdf:about="">
        <dc:format>image/svg+xml</dc:format>
        <dc:type
           rdf:resource="http://purl.org/dc/dcmitype/StillImage" />
      </cc:Work>
    </rdf:RDF>
  </metadata>
  <defs
     id="defs24" />
  <sodipodi:namedview
     pagecolor="#ffffff"
     bordercolor="#666666"
     borderopacity="1"
     objecttolerance="10"
     gridtolerance="10"
     guidetolerance="10"
     inkscape:pageopacity="0"
     inkscape:pageshadow="2"
     inkscape:window-width="765"
     inkscape:window-height="480"
     id="namedview22"
     showgrid="false"
     inkscape:zoom="6.9532167"
     inkscape:cx="15.497421"
     inkscape:cy="25.415775"
     inkscape:window-x="0"
     inkscape:window-y="28"
     inkscape:window-maximized="0"
     inkscape:current-layer="svg20" />
  <rect
     style="opacity:0.2"
     width="40"
     height="40"
     x="4"
     y="5"
     rx="2"
     ry="2"
     id="rect2" />
  <rect
     style="fill:#4c566a;fill-opacity:1"
     width="40"
     height="40"
     x="4"
     y="4"
     rx="2"
     ry="2"
     id="rect4" />
  <rect
     style="opacity:0.2;fill:#ffffff"
     width="4"
     height="36"
     x="22"
     y="7"
     rx="1"
     ry="1"
     id="rect6" />
  <rect
     style="fill:#ffffff;fill-opacity:1"
     width="4"
     height="36"
     x="22"
     y="6"
     rx="1"
     ry="1"
     id="rect8" />
  <path
     style="opacity:0.2"
     d="M 13,27 V 30 L 6,25 13,20 V 23 H 18 V 27 Z"
     id="path10" />
  <path
     style="fill:#ffffff;fill-opacity:1"
     d="M 13,26 V 29 L 6,24 13,19 V 22 H 18 V 26 Z"
     id="path12" />
  <path
     style="opacity:0.2"
     d="M 35,27 V 30 L 42,25 35,20 V 23 H 30 V 27 Z"
     id="path14" />
  <path
     style="fill:#ffffff;fill-opacity:1"
     d="M 35,26 V 29 L 42,24 35,19 V 22 H 30 V 26 Z"
     id="path16" />
  <path
     style="opacity:0.2;fill:#ffffff"
     d="M 6 4 C 4.892 4 4 4.892 4 6 L 4 7 C 4 5.892 4.892 5 6 5 L 42 5 C 43.108 5 44 5.892 44 7 L 44 6 C 44 4.892 43.108 4 42 4 L 6 4 z"
     id="path18" />
</svg>
