<?xml version="1.0" encoding="UTF-8" standalone="no"?>
<svg
   xmlns:dc="http://purl.org/dc/elements/1.1/"
   xmlns:cc="http://creativecommons.org/ns#"
   xmlns:rdf="http://www.w3.org/1999/02/22-rdf-syntax-ns#"
   xmlns:svg="http://www.w3.org/2000/svg"
   xmlns="http://www.w3.org/2000/svg"
   xmlns:sodipodi="http://sodipodi.sourceforge.net/DTD/sodipodi-0.dtd"
   xmlns:inkscape="http://www.inkscape.org/namespaces/inkscape"
   width="48"
   height="48"
   version="1.1"
   id="svg12"
   sodipodi:docname="mate.svg"
   inkscape:version="0.92.5 (2060ec1f9f, 2020-04-08)">
  <metadata
     id="metadata18">
    <rdf:RDF>
      <cc:Work
         rdf:about="">
        <dc:format>image/svg+xml</dc:format>
        <dc:type
           rdf:resource="http://purl.org/dc/dcmitype/StillImage" />
      </cc:Work>
    </rdf:RDF>
  </metadata>
  <defs
     id="defs16" />
  <sodipodi:namedview
     pagecolor="#ffffff"
     bordercolor="#666666"
     borderopacity="1"
     objecttolerance="10"
     gridtolerance="10"
     guidetolerance="10"
     inkscape:pageopacity="0"
     inkscape:pageshadow="2"
     inkscape:window-width="783"
     inkscape:window-height="480"
     id="namedview14"
     showgrid="false"
     inkscape:zoom="4.9166667"
     inkscape:cx="24"
     inkscape:cy="24"
     inkscape:window-x="0"
     inkscape:window-y="28"
     inkscape:window-maximized="0"
     inkscape:current-layer="svg12" />
  <circle
     style="opacity:0.2"
     cx="24"
     cy="25"
     r="20"
     id="circle2" />
  <circle
     style="fill:#4c566a;fill-opacity:1"
     cx="24"
     cy="24"
     r="20"
     id="circle4" />
  <path
     style="opacity:0.2;fill:#ffffff"
     d="M 24,4 A 20,20 0 0 0 4,24 20,20 0 0 0 4.0215,24.582 20,20 0 0 1 24,5 20,20 0 0 1 43.979,24.418 20,20 0 0 0 44,24 20,20 0 0 0 24,4 Z"
     id="path6" />
  <path
     style="opacity:0.1"
     d="m 24,11 a 14,14 0 0 0 -11.310547,5.75 l 2.585938,1.550781 A 11,11 0 0 1 24,14 11,11 0 0 1 35,25 11,11 0 0 1 24,36 11,11 0 0 1 15.271484,31.693359 l -2.585937,1.552735 A 14,14 0 0 0 24,39 14,14 0 0 0 38,25 14,14 0 0 0 24,11 Z M 9.0117188,16 v 0.576172 L 9,34 24,24.996094 Z M 24,17 c -2.365209,2.53e-4 -4.609074,1.047104 -6.128906,2.859375 l 2.625,1.574219 C 21.43101,20.514935 22.689274,20.000127 24,20 c 2.761424,0 5,2.238576 5,5 0,2.761424 -2.238576,5 -5,5 -1.312909,-6.65e-4 -2.572877,-0.517701 -3.507812,-1.439453 l -2.625,1.574219 C 19.386778,31.950269 21.632469,32.99945 24,33 c 4.418278,0 8,-3.581722 8,-8 0,-4.418278 -3.581722,-8 -8,-8 z"
     id="path8" />
  <path
     style="fill:#ffffff;fill-opacity:1"
     d="M 24 10 A 14 14 0 0 0 12.689453 15.75 L 15.275391 17.300781 A 11 11 0 0 1 24 13 A 11 11 0 0 1 35 24 A 11 11 0 0 1 24 35 A 11 11 0 0 1 15.271484 30.693359 L 12.685547 32.246094 A 14 14 0 0 0 24 38 A 14 14 0 0 0 38 24 A 14 14 0 0 0 24 10 z M 9.0117188 15 L 9.0117188 15.576172 L 9 33 L 24 23.996094 L 9.0117188 15 z M 24 16 C 21.634791 16.000253 19.390926 17.047104 17.871094 18.859375 L 20.496094 20.433594 C 21.43101 19.514935 22.689274 19.000127 24 19 C 26.761424 19 29 21.238576 29 24 C 29 26.761424 26.761424 29 24 29 C 22.687091 28.999335 21.427123 28.482299 20.492188 27.560547 L 17.867188 29.134766 C 19.386778 30.950269 21.632469 31.99945 24 32 C 28.418278 32 32 28.418278 32 24 C 32 19.581722 28.418278 16 24 16 z"
     id="path10" />
</svg>
