<?xml version="1.0" encoding="UTF-8" standalone="no"?>
<svg
   xmlns:dc="http://purl.org/dc/elements/1.1/"
   xmlns:cc="http://creativecommons.org/ns#"
   xmlns:rdf="http://www.w3.org/1999/02/22-rdf-syntax-ns#"
   xmlns:svg="http://www.w3.org/2000/svg"
   xmlns="http://www.w3.org/2000/svg"
   xmlns:sodipodi="http://sodipodi.sourceforge.net/DTD/sodipodi-0.dtd"
   xmlns:inkscape="http://www.inkscape.org/namespaces/inkscape"
   width="48"
   height="48"
   version="1"
   id="svg40"
   sodipodi:docname="mintsources-ppa.svg"
   inkscape:version="0.92.5 (2060ec1f9f, 2020-04-08)">
  <metadata
     id="metadata46">
    <rdf:RDF>
      <cc:Work
         rdf:about="">
        <dc:format>image/svg+xml</dc:format>
        <dc:type
           rdf:resource="http://purl.org/dc/dcmitype/StillImage" />
      </cc:Work>
    </rdf:RDF>
  </metadata>
  <defs
     id="defs44" />
  <sodipodi:namedview
     pagecolor="#ffffff"
     bordercolor="#666666"
     borderopacity="1"
     objecttolerance="10"
     gridtolerance="10"
     guidetolerance="10"
     inkscape:pageopacity="0"
     inkscape:pageshadow="2"
     inkscape:window-width="765"
     inkscape:window-height="480"
     id="namedview42"
     showgrid="false"
     inkscape:zoom="4.9166667"
     inkscape:cx="24"
     inkscape:cy="24"
     inkscape:window-x="0"
     inkscape:window-y="28"
     inkscape:window-maximized="0"
     inkscape:current-layer="svg40" />
  <circle
     style="opacity:0.2"
     cx="24"
     cy="25"
     r="20"
     id="circle2" />
  <circle
     style="fill:#4c566a;fill-opacity:1"
     cx="24"
     cy="24"
     r="20"
     id="circle4" />
  <g
     style="opacity:0.1"
     transform="translate(0,1)"
     id="g20">
    <path
       d="m18 27.5 0.000002-7l6-3.5 6 3.5-0.000002 7-6 3.5-6-3.5z"
       id="path6" />
    <path
       d="m25 10v5.743l6 3.257 5-3z"
       id="path8" />
    <path
       d="m23 10v5.743l-6 3.257-5-3z"
       id="path10" />
    <path
       d="m36.974 17.474-4.974 2.871 0.18 6.825 5.098 2.83z"
       id="path12" />
    <path
       d="m11.304 17.474 4.9738 2.8716-0.17958 6.8245l-5.098 2.83z"
       id="path14" />
    <path
       d="m25 38v-5.743l6-3.257 5 3z"
       id="path16" />
    <path
       d="m23 38v-5.743l-6-3.257-5 3z"
       id="path18" />
  </g>
  <g
     id="g36"
     style="fill:#ffffff;fill-opacity:1">
    <path
       fill="#d6ac12"
       d="m18 27.5 0.000002-7l6-3.5 6 3.5-0.000002 7-6 3.5-6-3.5z"
       id="path22"
       style="fill:#ffffff;fill-opacity:1" />
    <path
       fill="#8fb635"
       d="m25 10v5.743l6 3.257 5-3z"
       id="path24"
       style="fill:#ffffff;fill-opacity:1" />
    <path
       fill="#3895bd"
       d="m23 10v5.743l-6 3.257-5-3z"
       id="path26"
       style="fill:#ffffff;fill-opacity:1" />
    <path
       fill="#d18c3b"
       d="m36.974 17.474-4.974 2.871 0.18 6.825 5.098 2.83z"
       id="path28"
       style="fill:#ffffff;fill-opacity:1" />
    <path
       fill="#3941bf"
       d="m11.304 17.474 4.9738 2.8716-0.17958 6.8245l-5.098 2.83z"
       id="path30"
       style="fill:#ffffff;fill-opacity:1" />
    <path
       fill="#a02c35"
       d="m25 38v-5.743l6-3.257 5 3z"
       id="path32"
       style="fill:#ffffff;fill-opacity:1" />
    <path
       fill="#bb3a84"
       d="m23 38v-5.743l-6-3.257-5 3z"
       id="path34"
       style="fill:#ffffff;fill-opacity:1" />
  </g>
  <path
     style="opacity:0.2;fill:#ffffff"
     d="M 24 4 A 20 20 0 0 0 4 24 A 20 20 0 0 0 4.0214844 24.582031 A 20 20 0 0 1 24 5 A 20 20 0 0 1 43.978516 24.417969 A 20 20 0 0 0 44 24 A 20 20 0 0 0 24 4 z"
     id="path38" />
</svg>
