<?xml version="1.0" encoding="UTF-8" standalone="no"?>
<svg
   xmlns:dc="http://purl.org/dc/elements/1.1/"
   xmlns:cc="http://creativecommons.org/ns#"
   xmlns:rdf="http://www.w3.org/1999/02/22-rdf-syntax-ns#"
   xmlns:svg="http://www.w3.org/2000/svg"
   xmlns="http://www.w3.org/2000/svg"
   xmlns:sodipodi="http://sodipodi.sourceforge.net/DTD/sodipodi-0.dtd"
   xmlns:inkscape="http://www.inkscape.org/namespaces/inkscape"
   width="48"
   height="48"
   version="1.1"
   id="svg26"
   sodipodi:docname="mkusb.svg"
   inkscape:version="0.92.5 (2060ec1f9f, 2020-04-08)">
  <metadata
     id="metadata32">
    <rdf:RDF>
      <cc:Work
         rdf:about="">
        <dc:format>image/svg+xml</dc:format>
        <dc:type
           rdf:resource="http://purl.org/dc/dcmitype/StillImage" />
      </cc:Work>
    </rdf:RDF>
  </metadata>
  <defs
     id="defs30" />
  <sodipodi:namedview
     pagecolor="#ffffff"
     bordercolor="#666666"
     borderopacity="1"
     objecttolerance="10"
     gridtolerance="10"
     guidetolerance="10"
     inkscape:pageopacity="0"
     inkscape:pageshadow="2"
     inkscape:window-width="765"
     inkscape:window-height="480"
     id="namedview28"
     showgrid="false"
     inkscape:zoom="4.9166667"
     inkscape:cx="24"
     inkscape:cy="24"
     inkscape:window-x="0"
     inkscape:window-y="28"
     inkscape:window-maximized="0"
     inkscape:current-layer="svg26" />
  <circle
     style="opacity:0.2"
     cx="24"
     cy="25"
     r="20"
     id="circle2" />
  <circle
     style="fill:#4c566a;fill-opacity:1"
     cx="24"
     cy="24"
     r="20"
     id="circle4" />
  <path
     style="opacity:0.2;fill:#ffffff"
     d="M 24,4 A 20,20 0 0 0 4,24 20,20 0 0 0 4.0215,24.582 20,20 0 0 1 24,5 20,20 0 0 1 43.979,24.418 20,20 0 0 0 44,24 20,20 0 0 0 24,4 Z"
     id="path6" />
  <path
     style="fill:#ffffff;fill-opacity:1"
     d="M 31.595703 11.982422 L 8.2851562 36.363281 A 20 20 0 0 0 11.064453 39.25 L 34.488281 14.748047 L 31.595703 11.982422 z"
     id="path8" />
  <path
     style="opacity:0.1"
     transform="matrix(0.84909765,0.49022676,-0.49022676,0.84909765,57.072935,31.200045)"
     d="M -28.541582,-8.4892456 -25.808671,1.7101161 -36.008033,-1.022795 Z"
     id="path10" />
  <path
     style="fill:none;stroke:#ffffff;stroke-width:4;stroke-opacity:1"
     d="m 15.332826,32.396993 c -0.181743,-0.533446 3.206121,-3.584729 2.838834,-5.415568 -1.003951,-5.004411 -2.62393,-6.158496 2.262681,-10.482621"
     id="path12" />
  <path
     style="fill:none;stroke:#ffffff;stroke-width:4;stroke-opacity:1"
     d="m 17.449491,28.987796 c 0.533447,0.181741 2.781545,-1.734849 4.478519,-1.63529 5.095363,0.298937 7.095546,2.222346 11.419671,-2.664273"
     id="path14" />
  <circle
     style="opacity:0.1"
     cx="20"
     cy="17"
     r="4"
     id="circle16" />
  <circle
     style="fill:#f9f9f9;fill-opacity:1"
     cx="20"
     cy="15.999"
     r="4"
     id="circle18" />
  <rect
     style="opacity:0.1"
     width="6.364"
     height="6.364"
     x="38.54"
     y="-10.25"
     transform="rotate(45)"
     id="rect20" />
  <rect
     style="fill:#f9f9f9;fill-opacity:1"
     width="6.364"
     height="6.364"
     x="37.83"
     y="-10.96"
     transform="rotate(45)"
     id="rect22" />
  <path
     style="fill:#f9f9f9;fill-opacity:1"
     transform="matrix(0.84909765,0.49022676,-0.49022676,0.84909765,57.072935,30.200046)"
     d="M -28.541582,-8.4892456 -25.808671,1.7101161 -36.008033,-1.022795 Z"
     id="path24" />
</svg>
