<?xml version="1.0" encoding="UTF-8" standalone="no"?>
<svg
   xmlns:dc="http://purl.org/dc/elements/1.1/"
   xmlns:cc="http://creativecommons.org/ns#"
   xmlns:rdf="http://www.w3.org/1999/02/22-rdf-syntax-ns#"
   xmlns:svg="http://www.w3.org/2000/svg"
   xmlns="http://www.w3.org/2000/svg"
   xmlns:sodipodi="http://sodipodi.sourceforge.net/DTD/sodipodi-0.dtd"
   xmlns:inkscape="http://www.inkscape.org/namespaces/inkscape"
   width="48"
   height="48"
   version="1.1"
   id="svg16"
   sodipodi:docname="monochroma.svg"
   inkscape:version="0.92.5 (2060ec1f9f, 2020-04-08)">
  <metadata
     id="metadata22">
    <rdf:RDF>
      <cc:Work
         rdf:about="">
        <dc:format>image/svg+xml</dc:format>
        <dc:type
           rdf:resource="http://purl.org/dc/dcmitype/StillImage" />
      </cc:Work>
    </rdf:RDF>
  </metadata>
  <defs
     id="defs20" />
  <sodipodi:namedview
     pagecolor="#ffffff"
     bordercolor="#666666"
     borderopacity="1"
     objecttolerance="10"
     gridtolerance="10"
     guidetolerance="10"
     inkscape:pageopacity="0"
     inkscape:pageshadow="2"
     inkscape:window-width="765"
     inkscape:window-height="480"
     id="namedview18"
     showgrid="false"
     inkscape:zoom="6.9532167"
     inkscape:cx="11.225721"
     inkscape:cy="25.713633"
     inkscape:window-x="0"
     inkscape:window-y="28"
     inkscape:window-maximized="0"
     inkscape:current-layer="svg16" />
  <path
     style="opacity:0.2"
     d="M 25.99966,5.0000006 C 14.953927,5.0000933 5.9997167,13.954607 6,25.000342 6.0000945,36.04581 14.954193,44.999908 25.99966,45 30.879127,44.9909 35.586935,43.19824 39.236667,39.959608 L 24.909328,25.848833 40.126831,10.860874 C 36.380275,7.1126914 31.299237,5.0047464 25.99966,5.0000006 Z"
     id="path2" />
  <path
     style="fill:#4c566a;fill-opacity:1"
     d="M 25.99966,4.0000006 C 14.953927,4.0000933 5.9997167,12.954607 6,24.000342 6.0000945,35.04581 14.954193,43.999908 25.99966,44 30.879127,43.9909 35.586935,42.19824 39.236667,38.959608 L 24.909328,24.848833 40.126831,9.8608739 C 36.380275,6.1126914 31.299237,4.0047464 25.99966,4.0000006 Z"
     id="path4" />
  <path
     style="opacity:0.1;fill:#ffffff"
     d="M 26 4 C 14.954267 4.0000927 5.9997167 12.954265 6 24 C 6.0000014 24.167668 6.0076148 24.33332 6.0117188 24.5 C 6.2776106 13.686019 15.121939 5.0000913 26 5 C 31.060523 5.0045317 35.907307 6.9459036 39.597656 10.382812 L 40.126953 9.8613281 C 36.380397 6.1131456 31.299577 4.0047458 26 4 z M 25.417969 25.349609 L 24.910156 25.849609 L 38.679688 39.410156 C 38.864113 39.257978 39.056911 39.118192 39.236328 38.958984 L 25.417969 25.349609 z"
     id="path6" />
  <circle
     style="opacity:0.2"
     cx="26"
     cy="25"
     r="11"
     id="circle8" />
  <circle
     style="fill:#ececec"
     cx="26"
     cy="24"
     r="11"
     id="circle10" />
  <circle
     style="opacity:0.1"
     cx="26"
     cy="25"
     r="4"
     id="circle12" />
  <circle
     style="fill:#4c566a;fill-opacity:1"
     cx="26"
     cy="24"
     r="4"
     id="circle14" />
</svg>
