<?xml version="1.0" encoding="UTF-8" standalone="no"?>
<svg
   xmlns:dc="http://purl.org/dc/elements/1.1/"
   xmlns:cc="http://creativecommons.org/ns#"
   xmlns:rdf="http://www.w3.org/1999/02/22-rdf-syntax-ns#"
   xmlns:svg="http://www.w3.org/2000/svg"
   xmlns="http://www.w3.org/2000/svg"
   xmlns:sodipodi="http://sodipodi.sourceforge.net/DTD/sodipodi-0.dtd"
   xmlns:inkscape="http://www.inkscape.org/namespaces/inkscape"
   width="48"
   height="48"
   version="1"
   id="svg20"
   sodipodi:docname="mpc-qt.svg"
   inkscape:version="0.92.5 (2060ec1f9f, 2020-04-08)">
  <metadata
     id="metadata26">
    <rdf:RDF>
      <cc:Work
         rdf:about="">
        <dc:format>image/svg+xml</dc:format>
        <dc:type
           rdf:resource="http://purl.org/dc/dcmitype/StillImage" />
      </cc:Work>
    </rdf:RDF>
  </metadata>
  <defs
     id="defs24" />
  <sodipodi:namedview
     pagecolor="#ffffff"
     bordercolor="#666666"
     borderopacity="1"
     objecttolerance="10"
     gridtolerance="10"
     guidetolerance="10"
     inkscape:pageopacity="0"
     inkscape:pageshadow="2"
     inkscape:window-width="765"
     inkscape:window-height="480"
     id="namedview22"
     showgrid="false"
     inkscape:zoom="4.9166667"
     inkscape:cx="24"
     inkscape:cy="24"
     inkscape:window-x="0"
     inkscape:window-y="28"
     inkscape:window-maximized="0"
     inkscape:current-layer="svg20" />
  <rect
     style="opacity:0.2"
     width="40"
     height="40"
     x="4"
     y="5"
     rx="12"
     ry="12"
     id="rect2" />
  <rect
     style="fill:#4c566a;fill-opacity:1"
     width="40"
     height="40"
     x="4"
     y="4"
     rx="12"
     ry="12"
     id="rect4" />
  <path
     style="opacity:0.2;fill-rule:evenodd"
     d="m 24,11 c -7.721622,0 -14,6.278378 -14,14 0,7.721622 6.278378,14 14,14 7.721622,0 14,-6.278378 14,-14 0,-7.721622 -6.278378,-14 -14,-14 z m 0,2 c 6.63757,0 12,5.36243 12,12 0,6.63757 -5.36243,12 -12,12 -6.63757,0 -12,-5.36243 -12,-12 0,-6.63757 5.36243,-12 12,-12 z m -6,6 v 5 h 2 v -5 z m 10,0 v 5 h 2 v -5 z m -8.640625,8.664062 -1.414063,1.414063 0.707032,0.707031 C 20.070316,31.203128 21.994684,32 24,32 c 2.005316,0 3.929684,-0.796872 5.347656,-2.214844 l 0.707032,-0.707031 -1.414063,-1.414063 -0.707031,0.707032 C 26.890151,29.414537 25.475651,30 24,30 22.524349,30 21.109849,29.414537 20.066406,28.371094 Z"
     id="path6" />
  <path
     style="fill:#d4d4d4;fill-rule:evenodd"
     d="M 24 10 C 16.278378 10 10 16.278378 10 24 C 10 31.721622 16.278378 38 24 38 C 31.721622 38 38 31.721622 38 24 C 38 16.278378 31.721622 10 24 10 z M 24 12 C 30.63757 12 36 17.36243 36 24 C 36 30.63757 30.63757 36 24 36 C 17.36243 36 12 30.63757 12 24 C 12 17.36243 17.36243 12 24 12 z"
     id="path8" />
  <path
     style="fill:none;stroke:#d4d4d4;stroke-width:2;stroke-linecap:square"
     d="M 28.640388,28.077888 A 6.5625,6.5625 0 0 1 24,30 6.5625,6.5625 0 0 1 19.359612,28.077888"
     id="path10" />
  <rect
     style="fill:#d4d4d4"
     width="2"
     height="5"
     x="18"
     y="18"
     id="rect12" />
  <rect
     style="fill:#d4d4d4"
     width="2"
     height="5"
     x="28"
     y="18"
     id="rect14" />
  <path
     style="opacity:0.2;fill:#ffffff;fill-rule:evenodd"
     d="M 24 10 C 16.278378 10 10 16.278378 10 24 C 10 24.168781 10.019442 24.332649 10.025391 24.5 C 10.291599 17.011133 16.447159 11 24 11 C 31.552841 11 37.708401 17.011133 37.974609 24.5 C 37.980558 24.332649 38 24.168781 38 24 C 38 16.278378 31.721622 10 24 10 z M 18 18 L 18 19 L 20 19 L 20 18 L 18 18 z M 28 18 L 28 19 L 30 19 L 30 18 L 28 18 z M 12.025391 24.5 C 12.018518 24.667123 12 24.83116 12 25 C 12 31.63757 17.36243 37 24 37 C 30.63757 37 36 31.63757 36 25 C 36 24.83116 35.981482 24.667123 35.974609 24.5 C 35.711317 30.902931 30.46873 36 24 36 C 17.53127 36 12.288683 30.902931 12.025391 24.5 z M 19.359375 26.664062 L 17.945312 28.078125 L 18.445312 28.578125 L 19.359375 27.664062 L 20.066406 28.371094 C 21.109849 29.414537 22.524349 30 24 30 C 25.475651 30 26.890151 29.414537 27.933594 28.371094 L 28.640625 27.664062 L 29.554688 28.578125 L 30.054688 28.078125 L 28.640625 26.664062 L 27.933594 27.371094 C 26.890151 28.414537 25.475651 29 24 29 C 22.524349 29 21.109849 28.414537 20.066406 27.371094 L 19.359375 26.664062 z"
     id="path16" />
  <path
     style="fill:#ffffff;opacity:0.1"
     d="M 16 4 C 9.352 4 4 9.352 4 16 L 4 17 C 4 10.352 9.352 5 16 5 L 32 5 C 38.648 5 44 10.352 44 17 L 44 16 C 44 9.352 38.648 4 32 4 L 16 4 z"
     id="path18" />
</svg>
