<?xml version="1.0" encoding="UTF-8" standalone="no"?>
<svg
   xmlns:dc="http://purl.org/dc/elements/1.1/"
   xmlns:cc="http://creativecommons.org/ns#"
   xmlns:rdf="http://www.w3.org/1999/02/22-rdf-syntax-ns#"
   xmlns:svg="http://www.w3.org/2000/svg"
   xmlns="http://www.w3.org/2000/svg"
   xmlns:sodipodi="http://sodipodi.sourceforge.net/DTD/sodipodi-0.dtd"
   xmlns:inkscape="http://www.inkscape.org/namespaces/inkscape"
   width="48"
   height="48"
   version="1"
   id="svg16"
   sodipodi:docname="mpv.svg"
   inkscape:version="0.92.5 (2060ec1f9f, 2020-04-08)">
  <metadata
     id="metadata22">
    <rdf:RDF>
      <cc:Work
         rdf:about="">
        <dc:format>image/svg+xml</dc:format>
        <dc:type
           rdf:resource="http://purl.org/dc/dcmitype/StillImage" />
      </cc:Work>
    </rdf:RDF>
  </metadata>
  <defs
     id="defs20" />
  <sodipodi:namedview
     pagecolor="#ffffff"
     bordercolor="#666666"
     borderopacity="1"
     objecttolerance="10"
     gridtolerance="10"
     guidetolerance="10"
     inkscape:pageopacity="0"
     inkscape:pageshadow="2"
     inkscape:window-width="765"
     inkscape:window-height="480"
     id="namedview18"
     showgrid="false"
     inkscape:zoom="3.4766083"
     inkscape:cx="8.2505026"
     inkscape:cy="33.632622"
     inkscape:window-x="0"
     inkscape:window-y="28"
     inkscape:window-maximized="0"
     inkscape:current-layer="svg16" />
  <circle
     style="opacity:.2"
     cx="24"
     cy="25"
     r="20"
     id="circle2" />
  <circle
     style="fill:#4c566a;fill-opacity:1"
     cx="24"
     cy="24"
     r="20"
     id="circle4" />
  <circle
     style="opacity:.3"
     cx="25.5"
     cy="22.5"
     r="14.5"
     id="circle6" />
  <circle
     style="opacity:.2"
     cx="24"
     cy="25"
     r="10"
     id="circle8" />
  <circle
     style="fill:#ffffff"
     cx="24"
     cy="24"
     r="10"
     id="circle10" />
  <path
     style="fill:#4c566a;fill-opacity:1"
     transform="matrix(1.010363 0 0 1 .56408064 -.65825653)"
     d="m27.154517 24.658257-3.464101 2-3.464102 1.999999v-4-3.999999l3.464102 2z"
     id="path12" />
  <path
     style="fill:#ffffff;opacity:.1"
     d="M 24 4 A 20 20 0 0 0 4 24 A 20 20 0 0 0 4.0214844 24.582031 A 20 20 0 0 1 24 5 A 20 20 0 0 1 43.978516 24.417969 A 20 20 0 0 0 44 24 A 20 20 0 0 0 24 4 z"
     id="path14" />
</svg>
