<?xml version="1.0" encoding="UTF-8" standalone="no"?>
<svg
   xmlns:dc="http://purl.org/dc/elements/1.1/"
   xmlns:cc="http://creativecommons.org/ns#"
   xmlns:rdf="http://www.w3.org/1999/02/22-rdf-syntax-ns#"
   xmlns:svg="http://www.w3.org/2000/svg"
   xmlns="http://www.w3.org/2000/svg"
   xmlns:sodipodi="http://sodipodi.sourceforge.net/DTD/sodipodi-0.dtd"
   xmlns:inkscape="http://www.inkscape.org/namespaces/inkscape"
   width="48"
   height="48"
   version="1"
   id="svg22"
   sodipodi:docname="x-content-audio-cdda.svg"
   inkscape:version="0.92.5 (2060ec1f9f, 2020-04-08)">
  <metadata
     id="metadata28">
    <rdf:RDF>
      <cc:Work
         rdf:about="">
        <dc:format>image/svg+xml</dc:format>
        <dc:type
           rdf:resource="http://purl.org/dc/dcmitype/StillImage" />
      </cc:Work>
    </rdf:RDF>
  </metadata>
  <defs
     id="defs26" />
  <sodipodi:namedview
     pagecolor="#ffffff"
     bordercolor="#666666"
     borderopacity="1"
     objecttolerance="10"
     gridtolerance="10"
     guidetolerance="10"
     inkscape:pageopacity="0"
     inkscape:pageshadow="2"
     inkscape:window-width="640"
     inkscape:window-height="480"
     id="namedview24"
     showgrid="false"
     inkscape:zoom="4.9166667"
     inkscape:cx="-15.661017"
     inkscape:cy="24"
     inkscape:current-layer="svg22" />
  <circle
     style="fill:#4c566a;fill-opacity:1"
     cx="24"
     cy="24"
     r="20"
     id="circle2" />
  <rect
     opacity=".2"
     width="30"
     height="30"
     x="-40"
     y="-39"
     rx="15"
     ry="15"
     transform="matrix(0,-1,-1,0,0,0)"
     id="rect4" />
  <rect
     style="fill:#323c50;fill-opacity:1"
     width="30"
     height="30"
     x="-39"
     y="-39"
     rx="15"
     ry="15"
     transform="matrix(0,-1,-1,0,0,0)"
     id="rect6" />
  <path
     fill="#fff"
     opacity=".1"
     d="m24 9c-8.31 0-15 6.69-15 15 0 0.18089 0.0209 0.35639 0.0272 0.53571 0.28258-8.0578 6.8437-14.464 14.973-14.464 8.1291 0 14.69 6.4065 14.973 14.464 0.006-0.17932 0.0272-0.35482 0.0272-0.53571 0-8.31-6.69-15-15-15z"
     id="path8" />
  <g
     opacity=".2"
     style="enable-background:new"
     transform="translate(-469 -165)"
     id="g12">
    <path
       d="m489 183v8.1875c-0.32-0.12-0.64-0.19-1-0.19-1.6568 0-3 1.3432-3 3s1.3432 3 3 3 3-1.3432 3-3v-7h6v4.1875c-0.32-0.12-0.64-0.19-1-0.19-1.6568 0-3 1.3432-3 3s1.3432 3 3 3 3-1.3432 3-3v-11h-1z"
       id="path10" />
  </g>
  <g
     style="enable-background:new;fill:#ffffff"
     transform="translate(-469 -166)"
     id="g16">
    <path
       style="fill:#ffffff"
       d="m489 183v8.1875c-0.32-0.12-0.64-0.19-1-0.19-1.6568 0-3 1.3432-3 3s1.3432 3 3 3 3-1.3432 3-3v-7h6v4.1875c-0.32-0.12-0.64-0.19-1-0.19-1.6568 0-3 1.3432-3 3s1.3432 3 3 3 3-1.3432 3-3v-11h-1z"
       id="path14" />
  </g>
  <path
     fill="#fff"
     style="opacity:0.2"
     d="m24 4a20 20 0 0 0 -20 20 20 20 0 0 0 0.0215 0.582 20 20 0 0 1 19.978 -19.582 20 20 0 0 1 19.979 19.418 20 20 0 0 0 0.021 -0.418 20 20 0 0 0 -20 -20z"
     id="path18" />
  <path
     opacity=".2"
     d="m43.979 24.418a20 20 0 0 1 -19.979 19.582 20 20 0 0 1 -19.978 -19.418 20 20 0 0 0 -0.022 0.418 20 20 0 0 0 20 20 20 20 0 0 0 20 -20 20 20 0 0 0 -0.021 -0.582z"
     id="path20" />
</svg>
