<?xml version="1.0" encoding="UTF-8" standalone="no"?>
<svg
   xmlns:dc="http://purl.org/dc/elements/1.1/"
   xmlns:cc="http://creativecommons.org/ns#"
   xmlns:rdf="http://www.w3.org/1999/02/22-rdf-syntax-ns#"
   xmlns:svg="http://www.w3.org/2000/svg"
   xmlns="http://www.w3.org/2000/svg"
   xmlns:sodipodi="http://sodipodi.sourceforge.net/DTD/sodipodi-0.dtd"
   xmlns:inkscape="http://www.inkscape.org/namespaces/inkscape"
   width="48"
   height="48"
   version="1.1"
   id="svg60"
   sodipodi:docname="mx-select-sound.svg"
   inkscape:version="0.92.5 (2060ec1f9f, 2020-04-08)">
  <metadata
     id="metadata66">
    <rdf:RDF>
      <cc:Work
         rdf:about="">
        <dc:format>image/svg+xml</dc:format>
        <dc:type
           rdf:resource="http://purl.org/dc/dcmitype/StillImage" />
      </cc:Work>
    </rdf:RDF>
  </metadata>
  <defs
     id="defs64" />
  <sodipodi:namedview
     pagecolor="#ffffff"
     bordercolor="#666666"
     borderopacity="1"
     objecttolerance="10"
     gridtolerance="10"
     guidetolerance="10"
     inkscape:pageopacity="0"
     inkscape:pageshadow="2"
     inkscape:window-width="783"
     inkscape:window-height="480"
     id="namedview62"
     showgrid="false"
     inkscape:zoom="4.9166667"
     inkscape:cx="24"
     inkscape:cy="24"
     inkscape:window-x="0"
     inkscape:window-y="28"
     inkscape:window-maximized="0"
     inkscape:current-layer="svg60" />
  <g
     id="g52">
    <path
       d="m11 12c-1.108 0-2 0.892-2 2v22c0 1.108 0.892 2 2 2h3v-4h10v4h19c1.108 0 2-0.892 2-2v-22c0-1.108-0.892-2-2-2z"
       style="opacity:.2"
       id="path2" />
    <path
       d="m11 11c-1.108 0-2 0.892-2 2v22c0 1.108 0.892 2 2 2h3v-4h10v4h19c1.108 0 2-0.892 2-2v-22c0-1.108-0.892-2-2-2z"
       style="fill:#4c566a;fill-opacity:1"
       id="path4" />
    <path
       d="m11 11c-1.108 0-2 0.892-2 2v1c0-1.108 0.892-2 2-2h32c1.108 0 2 0.892 2 2v-1c0-1.108-0.892-2-2-2z"
       style="fill:#ffffff;opacity:.2"
       id="path6" />
    <g
       style="opacity:.2"
       id="g14">
      <rect
         x="25"
         y="34"
         width="4"
         height="6"
         id="rect8" />
      <rect
         x="30"
         y="34"
         width="4"
         height="6"
         id="rect10" />
      <rect
         x="35"
         y="34"
         width="4"
         height="6"
         id="rect12" />
    </g>
    <rect
       x="25"
       y="33"
       width="4"
       height="6"
       style="fill:#f8c44e"
       id="rect16" />
    <rect
       x="30"
       y="33"
       width="4"
       height="6"
       style="fill:#f8c44e"
       id="rect18" />
    <rect
       x="35"
       y="33"
       width="4"
       height="6"
       style="fill:#f8c44e"
       id="rect20" />
    <rect
       x="40"
       y="34"
       width="4"
       height="6"
       style="opacity:.2"
       id="rect22" />
    <rect
       x="40"
       y="33"
       width="4"
       height="6"
       style="fill:#f8c44e"
       id="rect24" />
    <path
       d="m4 8h4v33"
       style="fill:none;opacity:.2;stroke-linecap:round;stroke-linejoin:round;stroke-width:4;stroke:#000000"
       id="path26" />
    <path
       d="m4 7h4v33"
       style="fill:none;stroke-linecap:round;stroke-linejoin:round;stroke-width:4;stroke:#b7b7b7"
       id="path28" />
    <rect
       x="22"
       y="17"
       width="10"
       height="10"
       rx="2"
       ry="2"
       style="fill:#4e4e4e"
       id="rect30" />
    <g
       style="fill:#b7b7b7"
       id="g48">
      <rect
         x="24"
         y="15"
         width="2"
         height="3"
         id="rect32" />
      <rect
         x="28"
         y="15"
         width="2"
         height="3"
         id="rect34" />
      <rect
         x="24"
         y="26"
         width="2"
         height="3"
         id="rect36" />
      <rect
         x="28"
         y="26"
         width="2"
         height="3"
         id="rect38" />
      <rect
         transform="rotate(90)"
         x="19"
         y="-34"
         width="2"
         height="3"
         id="rect40" />
      <rect
         transform="rotate(90)"
         x="23"
         y="-34"
         width="2"
         height="3"
         id="rect42" />
      <rect
         transform="rotate(90)"
         x="19"
         y="-23"
         width="2"
         height="3"
         id="rect44" />
      <rect
         transform="rotate(90)"
         x="23"
         y="-23"
         width="2"
         height="3"
         id="rect46" />
    </g>
    <path
       d="m4 5a2.0002 2.0002 0 0 0-1.9668 2.4883 2.0002 2.0002 0 0 1 1.9668-1.5176h4a2.0002 2.0002 0 0 1 2 2v-0.9707a2.0002 2.0002 0 0 0-2-2z"
       style="fill:#ffffff;opacity:.2"
       id="path50" />
  </g>
  <circle
     cx="35.141998"
     cy="36.792999"
     r="11"
     style="opacity:.2"
     id="circle54" />
  <circle
     cx="35.515999"
     cy="36.089001"
     r="11"
     style="fill:#5f697d;fill-opacity:1"
     id="circle56" />
  <path
     d="m32 30v7.050781a2.5 2.5 0 0 0-0.5-0.050781 2.5 2.5 0 0 0-2.5 2.5 2.5 2.5 0 0 0 2.5 2.5 2.5 2.5 0 0 0 2.5-2.5 2.5 2.5 0 0 0-2e-3 -0.0332h2e-3v-6.4668h5v4.050781a2.5 2.5 0 0 0-0.5-0.050781 2.5 2.5 0 0 0-2.5 2.5 2.5 2.5 0 0 0 2.5 2.5 2.5 2.5 0 0 0 2.5-2.5 2.5 2.5 0 0 0-2e-3 -0.07617h2e-3v-9.42383z"
     style="fill:#ffffff"
     id="path58" />
</svg>
