<?xml version="1.0" encoding="UTF-8" standalone="no"?>
<svg
   xmlns:dc="http://purl.org/dc/elements/1.1/"
   xmlns:cc="http://creativecommons.org/ns#"
   xmlns:rdf="http://www.w3.org/1999/02/22-rdf-syntax-ns#"
   xmlns:svg="http://www.w3.org/2000/svg"
   xmlns="http://www.w3.org/2000/svg"
   xmlns:sodipodi="http://sodipodi.sourceforge.net/DTD/sodipodi-0.dtd"
   xmlns:inkscape="http://www.inkscape.org/namespaces/inkscape"
   width="48"
   height="48"
   version="1.1"
   id="svg12"
   sodipodi:docname="mx-tools.svg"
   inkscape:version="0.92.5 (2060ec1f9f, 2020-04-08)">
  <metadata
     id="metadata18">
    <rdf:RDF>
      <cc:Work
         rdf:about="">
        <dc:format>image/svg+xml</dc:format>
        <dc:type
           rdf:resource="http://purl.org/dc/dcmitype/StillImage" />
      </cc:Work>
    </rdf:RDF>
  </metadata>
  <defs
     id="defs16" />
  <sodipodi:namedview
     pagecolor="#ffffff"
     bordercolor="#666666"
     borderopacity="1"
     objecttolerance="10"
     gridtolerance="10"
     guidetolerance="10"
     inkscape:pageopacity="0"
     inkscape:pageshadow="2"
     inkscape:window-width="765"
     inkscape:window-height="480"
     id="namedview14"
     showgrid="false"
     inkscape:zoom="4.9166667"
     inkscape:cx="24"
     inkscape:cy="24"
     inkscape:window-x="0"
     inkscape:window-y="28"
     inkscape:window-maximized="0"
     inkscape:current-layer="svg12" />
  <rect
     style="opacity:0.2"
     width="40"
     height="40"
     x="4"
     y="5"
     rx="2"
     ry="2"
     id="rect2" />
  <rect
     style="fill:#4c566a;fill-opacity:1"
     width="40"
     height="40"
     x="4"
     y="4"
     rx="2"
     ry="2"
     id="rect4" />
  <path
     style="fill:#ffffff;opacity:0.1"
     d="m4 7v-1c0-1.108 0.892-2 2-2h36c1.108 0 2 0.892 2 2v1c0-1.108-0.892-2-2-2h-36c-1.108 0-2 0.892-2 2z"
     id="path6" />
  <path
     style="opacity:0.2"
     d="M 16,12 A 6,6 0 0 0 14.262,12.262 L 18,16 V 18.125 20 H 15.889 14 L 10.26,16.26 A 6,6 0 0 0 10,18 6,6 0 0 0 16,24 6,6 0 0 0 18.816,23.295 L 23.334,28.377 21.244,30.605 18,27 8,39 H 40 L 33,31 31.117,32.883 26.217,27.369 32.188,21 H 35 V 22 L 37,24 41,20 39,18 H 38 V 17 L 33,13 H 28 C 28,13 31.333,13.667 32,15 L 31,20 31.098,20.098 25.273,26.309 20.924,21.416 A 6,6 0 0 0 22,18 6,6 0 0 0 16,12 Z M 24.277,29.437 29.117,34.883 27,37 22.193,31.66 Z"
     id="path8" />
  <path
     style="fill:#ffffff"
     d="M 16,11 A 6,6 0 0 0 14.262,11.262 L 18,15 V 17.125 19 H 15.889 14 L 10.26,15.26 A 6,6 0 0 0 10,17 6,6 0 0 0 16,23 6,6 0 0 0 18.816,22.295 L 23.334,27.377 21.244,29.605 18,26 8,38 H 40 L 33,30 31.117,31.883 26.217,26.369 32.188,20 H 35 V 21 L 37,23 41,19 39,17 H 38 V 16 L 33,12 H 28 C 28,12 31.333,12.667 32,14 L 31,19 31.098,19.098 25.273,25.309 20.924,20.416 A 6,6 0 0 0 22,17 6,6 0 0 0 16,11 Z M 24.277,28.437 29.117,33.883 27,36 22.193,30.66 Z"
     id="path10" />
</svg>
