<?xml version="1.0" encoding="UTF-8" standalone="no"?>
<svg
   xmlns:dc="http://purl.org/dc/elements/1.1/"
   xmlns:cc="http://creativecommons.org/ns#"
   xmlns:rdf="http://www.w3.org/1999/02/22-rdf-syntax-ns#"
   xmlns:svg="http://www.w3.org/2000/svg"
   xmlns="http://www.w3.org/2000/svg"
   xmlns:sodipodi="http://sodipodi.sourceforge.net/DTD/sodipodi-0.dtd"
   xmlns:inkscape="http://www.inkscape.org/namespaces/inkscape"
   width="48"
   height="48"
   version="1.1"
   id="svg18"
   sodipodi:docname="mx-user.svg"
   inkscape:version="0.92.5 (2060ec1f9f, 2020-04-08)">
  <metadata
     id="metadata24">
    <rdf:RDF>
      <cc:Work
         rdf:about="">
        <dc:format>image/svg+xml</dc:format>
        <dc:type
           rdf:resource="http://purl.org/dc/dcmitype/StillImage" />
      </cc:Work>
    </rdf:RDF>
  </metadata>
  <defs
     id="defs22" />
  <sodipodi:namedview
     pagecolor="#ffffff"
     bordercolor="#666666"
     borderopacity="1"
     objecttolerance="10"
     gridtolerance="10"
     guidetolerance="10"
     inkscape:pageopacity="0"
     inkscape:pageshadow="2"
     inkscape:window-width="783"
     inkscape:window-height="480"
     id="namedview20"
     showgrid="false"
     inkscape:zoom="4.9166667"
     inkscape:cx="24"
     inkscape:cy="24"
     inkscape:window-x="0"
     inkscape:window-y="28"
     inkscape:window-maximized="0"
     inkscape:current-layer="svg18" />
  <path
     d="m18.5 5a6.5 6.5 0 0 0-6.5 6.5 6.5 6.5 0 0 0 6.5 6.5 6.5 6.5 0 0 0 6.5-6.5 6.5 6.5 0 0 0-6.5-6.5zm-9.5 14c-2.77 0-5 2.23-5 5v15c0 1.108 0.892 2 2 2h25c1.108 0 2-0.892 2-2v-15c0-2.77-2.23-5-5-5z"
     style="opacity:.2"
     id="path2" />
  <path
     d="m18.5 4a6.5 6.5 0 0 0-6.5 6.5 6.5 6.5 0 0 0 6.5 6.5 6.5 6.5 0 0 0 6.5-6.5 6.5 6.5 0 0 0-6.5-6.5zm-9.5 14c-2.77 0-5 2.23-5 5v15c0 1.108 0.892 2 2 2h25c1.108 0 2-0.892 2-2v-15c0-2.77-2.23-5-5-5z"
     style="fill:#5f697d;fill-opacity:1"
     id="path4" />
  <path
     d="m29.5 10a6.5 6.5 0 0 0-6.5 6.5 6.5 6.5 0 0 0 6.5 6.5 6.5 6.5 0 0 0 6.5-6.5 6.5 6.5 0 0 0-6.5-6.5zm-9.5 14c-2.77 0-5 2.23-5 5v15c0 1.108 0.892 2 2 2h25c1.108 0 2-0.892 2-2v-15c0-2.77-2.23-5-5-5z"
     style="opacity:.2"
     id="path6" />
  <path
     d="m18.5 4a6.5 6.5 0 0 0-6.5 6.5 6.5 6.5 0 0 0 0.023438 0.470703 6.5 6.5 0 0 1 6.476562-5.970703 6.5 6.5 0 0 1 6.476562 6.029297 6.5 6.5 0 0 0 0.023438-0.529297 6.5 6.5 0 0 0-6.5-6.5zm-9.5 14c-2.77 0-5 2.23-5 5v1c0-2.77 2.23-5 5-5h19c2.77 0 5 2.23 5 5v-1c0-2.77-2.23-5-5-5h-9.5-9.5z"
     style="fill:#ffffff;opacity:.2"
     id="path8" />
  <path
     d="m29.5 9a6.5 6.5 0 0 0-6.5 6.5 6.5 6.5 0 0 0 6.5 6.5 6.5 6.5 0 0 0 6.5-6.5 6.5 6.5 0 0 0-6.5-6.5zm-9.5 14c-2.77 0-5 2.23-5 5v9 3 3c0 1.108 0.892 2 2 2h3 19 3c1.108 0 2-0.892 2-2v-3-3-9c0-2.77-2.23-5-5-5h-19z"
     style="fill:#4c566a;fill-opacity:1"
     id="path10" />
  <path
     d="m25 29-1 1 4.803 5.238-1.2307 1.477-0.5723-0.715-5 6h16l-4-4-0.391 0.391-2.935-3.202 4.326-5.189-1-1-4.285 5.143zm4.762 7.285 2.847 3.106-1.609 1.609-2.531-3.164z"
     style="opacity:.2"
     id="path12" />
  <path
     d="m25 28-1 1 4.803 5.238-1.2307 1.477-0.5723-0.715-5 6h16l-4-4-0.391 0.391-2.935-3.202 4.326-5.189-1-1-4.285 5.143zm4.762 7.285 2.847 3.106-1.609 1.609-2.531-3.164z"
     style="fill:#ffffff"
     id="path14" />
  <path
     d="m29.523438 8.970703a6.5 6.5 0 0 0-6.5 6.5 6.5 6.5 0 0 0 0.02344 0.470703 6.5 6.5 0 0 1 6.47656-5.970703 6.5 6.5 0 0 1 6.476562 6.029297 6.5 6.5 0 0 0 0.02344-0.529297 6.5 6.5 0 0 0-6.5-6.5zm-9.5 14c-2.77 0-5 2.23-5 5v1c0-2.77 2.23-5 5-5h19c2.77 0 5 2.23 5 5v-1c0-2.77-2.23-5-5-5h-9.5z"
     style="fill:#ffffff;opacity:.2"
     id="path16" />
</svg>
