<?xml version="1.0" encoding="UTF-8" standalone="no"?>
<svg
   xmlns:dc="http://purl.org/dc/elements/1.1/"
   xmlns:cc="http://creativecommons.org/ns#"
   xmlns:rdf="http://www.w3.org/1999/02/22-rdf-syntax-ns#"
   xmlns:svg="http://www.w3.org/2000/svg"
   xmlns="http://www.w3.org/2000/svg"
   xmlns:sodipodi="http://sodipodi.sourceforge.net/DTD/sodipodi-0.dtd"
   xmlns:inkscape="http://www.inkscape.org/namespaces/inkscape"
   width="48"
   height="48"
   version="1.1"
   id="svg24"
   sodipodi:docname="nautilus.svg"
   inkscape:version="0.92.5 (2060ec1f9f, 2020-04-08)">
  <metadata
     id="metadata30">
    <rdf:RDF>
      <cc:Work
         rdf:about="">
        <dc:format>image/svg+xml</dc:format>
        <dc:type
           rdf:resource="http://purl.org/dc/dcmitype/StillImage" />
      </cc:Work>
    </rdf:RDF>
  </metadata>
  <defs
     id="defs28" />
  <sodipodi:namedview
     pagecolor="#ffffff"
     bordercolor="#666666"
     borderopacity="1"
     objecttolerance="10"
     gridtolerance="10"
     guidetolerance="10"
     inkscape:pageopacity="0"
     inkscape:pageshadow="2"
     inkscape:window-width="765"
     inkscape:window-height="480"
     id="namedview26"
     showgrid="false"
     inkscape:zoom="4.9166667"
     inkscape:cx="24"
     inkscape:cy="24"
     inkscape:window-x="0"
     inkscape:window-y="28"
     inkscape:window-maximized="0"
     inkscape:current-layer="svg24" />
  <rect
     style="opacity:0.2"
     width="32"
     height="14"
     x="8"
     y="31"
     rx="3"
     ry="3"
     id="rect2" />
  <path
     style="fill:#4c566a;fill-opacity:1"
     d="M 11,4 C 9.338,4 8,5.338 8,7 v 4 3 8 H 40 V 14 11 7 C 40,5.338 38.662,4 37,4 Z"
     id="path4" />
  <path
     style="fill:#4c566a;fill-opacity:1"
     d="m 11,16 c -1.662,0 -3,1.338 -3,3 v 4 3 8 h 32 v -8 -3 -4 c 0,-1.662 -1.338,-3 -3,-3 z"
     id="path6" />
  <rect
     style="fill:#4c566a;fill-opacity:1"
     width="32"
     height="14"
     x="8"
     y="30"
     rx="3"
     ry="3"
     id="rect8" />
  <path
     style="opacity:0.2"
     d="m 21,11 c -0.554,0 -1,0.446 -1,1 0,0.554 0.446,1 1,1 h 6 c 0.554,0 1,-0.446 1,-1 0,-0.554 -0.446,-1 -1,-1 z m 0,12 c -0.554,0 -1,0.446 -1,1 0,0.554 0.446,1 1,1 h 6 c 0.554,0 1,-0.446 1,-1 0,-0.554 -0.446,-1 -1,-1 z m 0,14 c -0.554,0 -1,0.446 -1,1 0,0.554 0.446,1 1,1 h 6 c 0.554,0 1,-0.446 1,-1 0,-0.554 -0.446,-1 -1,-1 z"
     id="path10" />
  <rect
     style="fill:#ffffff"
     width="8"
     height="2"
     x="20"
     y="10"
     rx="1"
     ry="1"
     id="rect12" />
  <rect
     style="fill:#ffffff"
     width="8"
     height="2"
     x="20"
     y="22"
     rx="1"
     ry="1"
     id="rect14" />
  <rect
     style="fill:#ffffff"
     width="8"
     height="2"
     x="20"
     y="36"
     rx="1"
     ry="1"
     id="rect16" />
  <path
     style="opacity:0.1;fill:#ffffff"
     d="M 11,4 C 9.338,4 8,5.338 8,7 V 8 C 8,6.338 9.338,5 11,5 h 26 c 1.662,0 3,1.338 3,3 V 7 C 40,5.338 38.662,4 37,4 Z"
     id="path18" />
  <path
     style="opacity:0.1;fill:#ffffff"
     d="m 11,16 c -1.662,0 -3,1.338 -3,3 v 1 c 0,-1.662 1.338,-3 3,-3 h 26 c 1.662,0 3,1.338 3,3 v -1 c 0,-1.662 -1.338,-3 -3,-3 z"
     id="path20" />
  <path
     style="opacity:0.2;fill:#ffffff"
     d="m 11,30 c -1.662,0 -3,1.338 -3,3 v 1 c 0,-1.662 1.338,-3 3,-3 h 26 c 1.662,0 3,1.338 3,3 v -1 c 0,-1.662 -1.338,-3 -3,-3 z"
     id="path22" />
</svg>
