<?xml version="1.0" encoding="UTF-8" standalone="no"?>
<svg
   xmlns:dc="http://purl.org/dc/elements/1.1/"
   xmlns:cc="http://creativecommons.org/ns#"
   xmlns:rdf="http://www.w3.org/1999/02/22-rdf-syntax-ns#"
   xmlns:svg="http://www.w3.org/2000/svg"
   xmlns="http://www.w3.org/2000/svg"
   xmlns:sodipodi="http://sodipodi.sourceforge.net/DTD/sodipodi-0.dtd"
   xmlns:inkscape="http://www.inkscape.org/namespaces/inkscape"
   width="48"
   height="48"
   version="1"
   id="svg18"
   sodipodi:docname="nicotine-plus.svg"
   inkscape:version="0.92.5 (2060ec1f9f, 2020-04-08)">
  <metadata
     id="metadata24">
    <rdf:RDF>
      <cc:Work
         rdf:about="">
        <dc:format>image/svg+xml</dc:format>
        <dc:type
           rdf:resource="http://purl.org/dc/dcmitype/StillImage" />
      </cc:Work>
    </rdf:RDF>
  </metadata>
  <defs
     id="defs22" />
  <sodipodi:namedview
     pagecolor="#ffffff"
     bordercolor="#666666"
     borderopacity="1"
     objecttolerance="10"
     gridtolerance="10"
     guidetolerance="10"
     inkscape:pageopacity="0"
     inkscape:pageshadow="2"
     inkscape:window-width="765"
     inkscape:window-height="480"
     id="namedview20"
     showgrid="false"
     inkscape:zoom="4.9166667"
     inkscape:cx="24"
     inkscape:cy="24"
     inkscape:window-x="0"
     inkscape:window-y="28"
     inkscape:window-maximized="0"
     inkscape:current-layer="svg18" />
  <rect
     fill="#f2ad19"
     width="40"
     height="40"
     x="4"
     y="4"
     rx="2"
     ry="2"
     id="rect2"
     style="fill:#4c566a;fill-opacity:1" />
  <path
     fill="#fff"
     opacity=".2"
     d="m4 7v-1c0-1.108 0.892-2 2-2h36c1.108 0 2 0.892 2 2v1c0-1.108-0.892-2-2-2h-36c-1.108 0-2 0.892-2 2z"
     id="path4" />
  <path
     opacity=".2"
     d="m4 42v1c0 1.108 0.892 2 2 2h36c1.108 0 2-0.892 2-2v-1c0 1.108-0.892 2-2 2h-36c-1.108 0-2-0.892-2-2z"
     id="path6" />
  <path
     opacity=".2"
     d="m12.965 10.998c-0.625-0.003-1.277 0.002-1.965 0.002h-3v28h6v-21.947c1.1524 0.04246 2.0925 0.11161 2.625 0.24609 0.93311 0.23563 0.86333 0.14749 1.2539 1.0352 0.781 1.775 1.121 8.166 1.121 20.666h6c0-1.9349 0.0072-3.4631 0.01367-5.1094h4.9863v5h6v-5h5v-6h-5v-5h-6v5h-4.9941c-0.061-5.506-0.367-9.094-1.635-11.975-0.984-2.237-3.117-3.888-5.277-4.434-1.311-0.33-2.646-0.43-4.094-0.462v-0.02h-0.945c-0.03102-0.000163-0.05869-0.0018-0.08984-0.002z"
     id="path8" />
  <g
     id="g16">
    <rect
       fill="#ffffff"
       width="6"
       height="28"
       x="8"
       y="10"
       id="rect10" />
    <path
       fill="none"
       stroke="#ffffff"
       stroke-width="6"
       d="m11 13c11 0 11 0 11 25"
       id="path12" />
    <path
       fill="#ffffff"
       d="m30 21.891v5h-5v6h5v5h6v-5h5v-6h-5v-5h-6z"
       id="path14" />
  </g>
</svg>
