<?xml version="1.0" encoding="UTF-8" standalone="no"?>
<svg
   xmlns:dc="http://purl.org/dc/elements/1.1/"
   xmlns:cc="http://creativecommons.org/ns#"
   xmlns:rdf="http://www.w3.org/1999/02/22-rdf-syntax-ns#"
   xmlns:svg="http://www.w3.org/2000/svg"
   xmlns="http://www.w3.org/2000/svg"
   xmlns:sodipodi="http://sodipodi.sourceforge.net/DTD/sodipodi-0.dtd"
   xmlns:inkscape="http://www.inkscape.org/namespaces/inkscape"
   width="48"
   height="48"
   version="1.1"
   id="svg40"
   sodipodi:docname="nitrogen.svg"
   inkscape:version="0.92.5 (2060ec1f9f, 2020-04-08)">
  <metadata
     id="metadata46">
    <rdf:RDF>
      <cc:Work
         rdf:about="">
        <dc:format>image/svg+xml</dc:format>
        <dc:type
           rdf:resource="http://purl.org/dc/dcmitype/StillImage" />
      </cc:Work>
    </rdf:RDF>
  </metadata>
  <defs
     id="defs44" />
  <sodipodi:namedview
     pagecolor="#ffffff"
     bordercolor="#666666"
     borderopacity="1"
     objecttolerance="10"
     gridtolerance="10"
     guidetolerance="10"
     inkscape:pageopacity="0"
     inkscape:pageshadow="2"
     inkscape:window-width="765"
     inkscape:window-height="480"
     id="namedview42"
     showgrid="false"
     inkscape:zoom="19.666667"
     inkscape:cx="28.536749"
     inkscape:cy="35.544044"
     inkscape:window-x="0"
     inkscape:window-y="28"
     inkscape:window-maximized="0"
     inkscape:current-layer="svg40" />
  <circle
     style="opacity:0.2"
     cx="31"
     cy="25"
     r="13"
     id="circle2" />
  <circle
     style="fill:#5f697d;fill-opacity:1"
     cx="31"
     cy="24"
     r="13"
     id="circle4" />
  <path
     style="opacity:0.1;fill:#ffffff"
     d="M 31,11 A 13,13 0 0 0 18,24 13,13 0 0 0 18.021484,24.580078 13,13 0 0 1 31,12 13,13 0 0 1 43.978516,24.419922 13,13 0 0 0 44,24 13,13 0 0 0 31,11 Z"
     id="path6" />
  <circle
     style="fill:#4c566a;fill-opacity:1"
     cx="31"
     cy="24"
     r="10"
     id="circle8" />
  <circle
     style="fill:#5f697d;fill-opacity:1"
     cx="24"
     cy="17"
     r="13"
     id="circle10" />
  <path
     style="opacity:0.1;fill:#ffffff"
     d="M 24,4 A 13,13 0 0 0 11,17 13,13 0 0 0 11.021484,17.580078 13,13 0 0 1 24,5 13,13 0 0 1 36.978516,17.419922 13,13 0 0 0 37,17 13,13 0 0 0 24,4 Z"
     id="path12" />
  <circle
     style="fill:#4c566a;fill-opacity:1"
     cx="24"
     cy="17"
     r="10"
     id="circle14" />
  <circle
     style="opacity:0.2"
     cx="17"
     cy="25"
     r="13"
     id="circle16" />
  <circle
     style="fill:#5f697d;fill-opacity:1"
     cx="17"
     cy="24"
     r="13"
     id="circle18" />
  <path
     style="opacity:0.1;fill:#ffffff"
     d="M 17,11 A 13,13 0 0 0 4,24 13,13 0 0 0 4.021484,24.580078 13,13 0 0 1 17,12 13,13 0 0 1 29.978516,24.419922 13,13 0 0 0 30,24 13,13 0 0 0 17,11 Z"
     id="path20" />
  <circle
     style="fill:#4c566a;fill-opacity:1"
     cx="17"
     cy="24"
     r="10"
     id="circle22" />
  <circle
     style="opacity:0.2"
     cx="24"
     cy="32"
     r="13"
     id="circle24" />
  <circle
     style="fill:#5f697d;fill-opacity:1"
     cx="24"
     cy="31"
     r="13"
     id="circle26" />
  <path
     style="opacity:0.2;fill:#ffffff"
     d="M 24,18 A 13,13 0 0 0 11,31 13,13 0 0 0 11.021484,31.580078 13,13 0 0 1 24,19 13,13 0 0 1 36.978516,31.419922 13,13 0 0 0 37,31 13,13 0 0 0 24,18 Z"
     id="path28" />
  <circle
     style="fill:#4c566a;fill-opacity:1"
     cx="24"
     cy="31"
     r="10"
     id="circle30" />
  <circle
     style="opacity:0.2"
     cx="24"
     cy="25"
     r="13"
     id="circle32" />
  <circle
     style="fill:#5f697d;fill-opacity:1"
     cx="24"
     cy="24"
     r="13"
     id="circle34" />
  <path
     style="opacity:0.1;fill:#ffffff"
     d="M 24,11 A 13,13 0 0 0 11,24 13,13 0 0 0 11.021484,24.580078 13,13 0 0 1 24,12 13,13 0 0 1 36.978516,24.419922 13,13 0 0 0 37,24 13,13 0 0 0 24,11 Z"
     id="path36" />
  <circle
     style="fill:#4c566a;fill-opacity:1"
     cx="24"
     cy="24"
     r="10"
     id="circle38" />
</svg>
