<?xml version="1.0" encoding="UTF-8" standalone="no"?>
<svg
   xmlns:dc="http://purl.org/dc/elements/1.1/"
   xmlns:cc="http://creativecommons.org/ns#"
   xmlns:rdf="http://www.w3.org/1999/02/22-rdf-syntax-ns#"
   xmlns:svg="http://www.w3.org/2000/svg"
   xmlns="http://www.w3.org/2000/svg"
   xmlns:sodipodi="http://sodipodi.sourceforge.net/DTD/sodipodi-0.dtd"
   xmlns:inkscape="http://www.inkscape.org/namespaces/inkscape"
   width="48"
   height="48"
   version="1"
   id="svg26"
   sodipodi:docname="Notesnook.svg"
   inkscape:version="0.92.5 (2060ec1f9f, 2020-04-08)">
  <metadata
     id="metadata32">
    <rdf:RDF>
      <cc:Work
         rdf:about="">
        <dc:format>image/svg+xml</dc:format>
        <dc:type
           rdf:resource="http://purl.org/dc/dcmitype/StillImage" />
      </cc:Work>
    </rdf:RDF>
  </metadata>
  <defs
     id="defs30" />
  <sodipodi:namedview
     pagecolor="#ffffff"
     bordercolor="#666666"
     borderopacity="1"
     objecttolerance="10"
     gridtolerance="10"
     guidetolerance="10"
     inkscape:pageopacity="0"
     inkscape:pageshadow="2"
     inkscape:window-width="783"
     inkscape:window-height="480"
     id="namedview28"
     showgrid="false"
     inkscape:zoom="4.9166667"
     inkscape:cx="24"
     inkscape:cy="24"
     inkscape:window-x="0"
     inkscape:window-y="28"
     inkscape:window-maximized="0"
     inkscape:current-layer="svg26" />
  <rect
     style="opacity:0.2"
     width="40"
     height="40"
     x="4"
     y="5"
     rx="12"
     ry="12"
     id="rect2" />
  <rect
     style="fill:#e4e4e4"
     width="40"
     height="40"
     x="4"
     y="4"
     rx="12"
     ry="12"
     id="rect4" />
  <path
     style="fill:#5a6478;fill-opacity:1"
     d="m 24,44 h 8 c 6.648,0 12,-5.352 12,-12 V 16 C 44,9.352 38.648,4 32,4 h -8 z"
     id="path6" />
  <path
     style="fill:#4c566a;fill-opacity:1"
     d="M 24,44 V 4 H 16 C 9.352,4 4,9.352 4,16 v 16 c 0,6.648 5.352,12 12,12 z"
     id="path8" />
  <path
     style="opacity:0.2;fill:#ffffff"
     d="M 16,4 C 9.352,4 4,9.352 4,16 v 1 C 4,10.352 9.352,5 16,5 h 16 c 6.648,0 12,5.352 12,12 V 16 C 44,9.352 38.648,4 32,4 Z"
     id="path10" />
  <path
     style="fill:#5f697d;fill-opacity:1"
     d="M 24 35 L 6.5195312 39.371094 C 8.7114697 42.190926 12.135873 44 16 44 L 24 44 L 32 44 C 35.864127 44 39.28853 42.190926 41.480469 39.371094 L 24 35 z"
     id="path12" />
  <path
     style="opacity:0.05"
     d="M 24 35 L 6.5195312 39.371094 C 6.7418925 39.657152 6.9816152 39.928939 7.2285156 40.193359 L 24 36 L 40.771484 40.193359 C 41.018385 39.928939 41.258107 39.657152 41.480469 39.371094 L 24 35 z"
     id="path14" />
  <path
     style="fill:#ffffff;fill-opacity:1"
     d="m 21,20 -3,1 v 7 l -5,-6 -3,1 v 12 l 3,-1 v -7.25 l 5,6.25 3,-1 z"
     id="path16" />
  <path
     style="fill:#ffffff;opacity:0.1"
     d="M 21 20 L 18 21 L 18 22 L 21 21 L 21 20 z M 13 22 L 10 23 L 10 24 L 13 23 L 18 29 L 18 28 L 13 22 z"
     id="path18" />
  <path
     style="fill:#ffffff;fill-opacity:1"
     d="m 26,22 13,3 v 2 L 26,24 Z"
     id="path20" />
  <path
     style="fill:#ffffff;fill-opacity:1"
     d="m 26,26 13,3 v 2 L 26,28 Z"
     id="path22" />
  <path
     style="fill:#ffffff;fill-opacity:1"
     d="m 26,30 13,3 v 2 L 26,32 Z"
     id="path24" />
</svg>
