<?xml version="1.0" encoding="UTF-8" standalone="no"?>
<svg
   xmlns:dc="http://purl.org/dc/elements/1.1/"
   xmlns:cc="http://creativecommons.org/ns#"
   xmlns:rdf="http://www.w3.org/1999/02/22-rdf-syntax-ns#"
   xmlns:svg="http://www.w3.org/2000/svg"
   xmlns="http://www.w3.org/2000/svg"
   xmlns:sodipodi="http://sodipodi.sourceforge.net/DTD/sodipodi-0.dtd"
   xmlns:inkscape="http://www.inkscape.org/namespaces/inkscape"
   width="48"
   height="48"
   version="1"
   id="svg18"
   sodipodi:docname="Nvidiux.svg"
   inkscape:version="0.92.5 (2060ec1f9f, 2020-04-08)">
  <metadata
     id="metadata24">
    <rdf:RDF>
      <cc:Work
         rdf:about="">
        <dc:format>image/svg+xml</dc:format>
        <dc:type
           rdf:resource="http://purl.org/dc/dcmitype/StillImage" />
      </cc:Work>
    </rdf:RDF>
  </metadata>
  <defs
     id="defs22" />
  <sodipodi:namedview
     pagecolor="#ffffff"
     bordercolor="#666666"
     borderopacity="1"
     objecttolerance="10"
     gridtolerance="10"
     guidetolerance="10"
     inkscape:pageopacity="0"
     inkscape:pageshadow="2"
     inkscape:window-width="765"
     inkscape:window-height="480"
     id="namedview20"
     showgrid="false"
     inkscape:zoom="4.9166667"
     inkscape:cx="-2.9491525"
     inkscape:cy="24"
     inkscape:window-x="0"
     inkscape:window-y="28"
     inkscape:window-maximized="0"
     inkscape:current-layer="svg18" />
  <rect
     style="opacity:0.2"
     width="40"
     height="40"
     x="4"
     y="5"
     rx="2"
     ry="2"
     id="rect2" />
  <rect
     style="fill:#4c566a;fill-opacity:1"
     width="40"
     height="40"
     x="4"
     y="4"
     rx="2"
     ry="2"
     id="rect4" />
  <path
     style="opacity:0.2"
     d="M 38.5,15.000406 18.370484,35.702943 15.449654,27.709092 Z"
     id="path6" />
  <path
     style="opacity:0.4"
     d="M 18 7 C 12.932538 7.0123892 8.0110201 8.6979816 4 11.794922 L 4 13.125 C 7.3069987 11.08585 11.114854 10.004073 15 10 C 20.833461 10.007331 26.184303 12.428178 30.029297 16.386719 L 34.441406 13.953125 C 30.240644 9.6447418 24.390318 7.0076518 18 7 z M 37.505859 17.890625 L 33.796875 21.707031 C 34.547722 23.228417 35.131238 24.854704 35.501953 26.574219 L 40.662109 26.234375 C 40.157036 23.191059 39.051841 20.38203 37.505859 17.890625 z M 40.910156 28.224609 L 35.832031 28.556641 C 35.935053 29.363252 35.991137 30.175166 36 30.988281 L 40.972656 30.964844 C 40.988519 30.643459 40.997636 30.321771 41 30 C 40.9929 29.407266 40.962966 28.815027 40.910156 28.224609 z M 40.783203 32.964844 L 35.896484 32.988281 C 35.818514 33.78307 35.695264 34.572765 35.527344 35.353516 L 40.279297 35.666016 C 40.500948 34.776472 40.669217 33.874472 40.783203 32.964844 z M 35.007812 37.324219 C 34.720762 38.206116 34.375605 39.06803 33.974609 39.904297 L 38.119141 41.058594 C 38.729573 39.959717 39.24889 38.812646 39.671875 37.628906 L 35.007812 37.324219 z"
     id="path8" />
  <path
     style="fill:#e4e4e4"
     d="M 38.5,14 18.370484,34.702537 15.449654,26.708686 Z"
     id="path10" />
  <circle
     style="opacity:0.2"
     cx="17"
     cy="31"
     r="7"
     id="circle12" />
  <circle
     style="fill:#ffffff"
     cx="17"
     cy="30"
     r="7"
     id="circle14" />
  <path
     style="fill:#ffffff;opacity:0.2"
     d="M 6 4 C 4.892 4 4 4.892 4 6 L 4 7 C 4 5.892 4.892 5 6 5 L 42 5 C 43.108 5 44 5.892 44 7 L 44 6 C 44 4.892 43.108 4 42 4 L 6 4 z"
     id="path16" />
</svg>
