<?xml version="1.0" encoding="UTF-8" standalone="no"?>
<svg
   xmlns:dc="http://purl.org/dc/elements/1.1/"
   xmlns:cc="http://creativecommons.org/ns#"
   xmlns:rdf="http://www.w3.org/1999/02/22-rdf-syntax-ns#"
   xmlns:svg="http://www.w3.org/2000/svg"
   xmlns="http://www.w3.org/2000/svg"
   xmlns:sodipodi="http://sodipodi.sourceforge.net/DTD/sodipodi-0.dtd"
   xmlns:inkscape="http://www.inkscape.org/namespaces/inkscape"
   width="48"
   height="48"
   version="1"
   id="svg20"
   sodipodi:docname="octopi.svg"
   inkscape:version="0.92.5 (2060ec1f9f, 2020-04-08)">
  <metadata
     id="metadata26">
    <rdf:RDF>
      <cc:Work
         rdf:about="">
        <dc:format>image/svg+xml</dc:format>
        <dc:type
           rdf:resource="http://purl.org/dc/dcmitype/StillImage" />
      </cc:Work>
    </rdf:RDF>
  </metadata>
  <defs
     id="defs24" />
  <sodipodi:namedview
     pagecolor="#ffffff"
     bordercolor="#666666"
     borderopacity="1"
     objecttolerance="10"
     gridtolerance="10"
     guidetolerance="10"
     inkscape:pageopacity="0"
     inkscape:pageshadow="2"
     inkscape:window-width="783"
     inkscape:window-height="480"
     id="namedview22"
     showgrid="false"
     inkscape:zoom="4.9166667"
     inkscape:cx="24"
     inkscape:cy="24"
     inkscape:window-x="0"
     inkscape:window-y="28"
     inkscape:window-maximized="0"
     inkscape:current-layer="svg20" />
  <path
     fill="#3fc778"
     d="m21.647 5c-7.529 0-13.591 6.093-13.642 13.68h-0.00551v20.519c0 2.1052 1.4143 3.7999 3.5 3.7999 2.0856 0 3.5-0.89478 3.5-2.9999 0 2.1052 2.4144 2.9999 4.5 2.9999 2.4192 0.03292 4.4465-1.2359 4.5-2.9999 0 2.1052 2.4143 2.9999 4.5 2.9999 2.4192 0.03292 4.4465-1.2359 4.5-2.9999 0 2.1052 1.4144 2.9999 3.5 2.9999s3.5-1.6948 3.5-3.7999v-20.52h-0.0055c-0.05-7.586-6.112-13.679-13.641-13.679z"
     id="path2"
     style="fill:#4c566a;fill-opacity:1" />
  <rect
     opacity=".2"
     width="8"
     height="8"
     x="30"
     y="16"
     ry="4"
     id="rect4" />
  <rect
     fill="#ecf0f1"
     width="8"
     height="8"
     x="30"
     y="15"
     ry="4"
     id="rect6"
     style="fill:#ffffff;fill-opacity:1" />
  <rect
     fill="#494949"
     width="3"
     height="3"
     x="35"
     y="17"
     ry="1.5"
     id="rect8" />
  <rect
     opacity=".2"
     width="8"
     height="8"
     x="15"
     y="16"
     ry="4"
     id="rect10" />
  <rect
     fill="#ecf0f1"
     width="8"
     height="8"
     x="15"
     y="15"
     ry="4"
     id="rect12"
     style="fill:#ffffff;fill-opacity:1" />
  <rect
     fill="#494949"
     width="3"
     height="3"
     x="20"
     y="17"
     ry="1.5"
     id="rect14" />
  <path
     fill="#fff"
     opacity=".2"
     d="m21.646 5c-7.528 0-13.589 6.093-13.64 13.68h-0.006v1h0.0059c0.0507-7.587 6.1121-13.68 13.64-13.68h4.708c7.528 0 13.589 6.093 13.64 13.68h0.006v-1h-0.006c-0.051-7.587-6.112-13.68-13.64-13.68h-4.708z"
     id="path16" />
  <path
     opacity=".2"
     d="m8 39.199v1c0 2.1052 1.4144 3.8008 3.5 3.8008s3.5-0.89483 3.5-3c0 2.1052 2.4144 3 4.5 3 2.4192 0.03292 4.4465-1.236 4.5-3 0 2.1052 2.4144 3 4.5 3 2.4192 0.03292 4.4465-1.236 4.5-3 0 2.1052 1.4144 3 3.5 3s3.5-1.6956 3.5-3.8008v-1c0 2.1052-1.4144 3.8008-3.5 3.8008s-3.5-0.89483-3.5-3c-0.05351 1.764-2.0808 3.0329-4.5 3-2.0856 0-4.5-0.89483-4.5-3-0.05351 1.764-2.0808 3.0329-4.5 3-2.0856 0-4.5-0.89483-4.5-3 0 2.1052-1.4144 3-3.5 3s-3.5-1.6956-3.5-3.8008z"
     id="path18" />
</svg>
