<?xml version="1.0" encoding="UTF-8" standalone="no"?>
<svg
   xmlns:dc="http://purl.org/dc/elements/1.1/"
   xmlns:cc="http://creativecommons.org/ns#"
   xmlns:rdf="http://www.w3.org/1999/02/22-rdf-syntax-ns#"
   xmlns:svg="http://www.w3.org/2000/svg"
   xmlns="http://www.w3.org/2000/svg"
   xmlns:sodipodi="http://sodipodi.sourceforge.net/DTD/sodipodi-0.dtd"
   xmlns:inkscape="http://www.inkscape.org/namespaces/inkscape"
   width="48"
   height="48"
   version="1"
   id="svg12"
   sodipodi:docname="openoffice4-draw.svg"
   inkscape:version="0.92.5 (2060ec1f9f, 2020-04-08)">
  <metadata
     id="metadata18">
    <rdf:RDF>
      <cc:Work
         rdf:about="">
        <dc:format>image/svg+xml</dc:format>
        <dc:type
           rdf:resource="http://purl.org/dc/dcmitype/StillImage" />
      </cc:Work>
    </rdf:RDF>
  </metadata>
  <defs
     id="defs16" />
  <sodipodi:namedview
     pagecolor="#ffffff"
     bordercolor="#666666"
     borderopacity="1"
     objecttolerance="10"
     gridtolerance="10"
     guidetolerance="10"
     inkscape:pageopacity="0"
     inkscape:pageshadow="2"
     inkscape:window-width="765"
     inkscape:window-height="480"
     id="namedview14"
     showgrid="false"
     inkscape:zoom="4.9166667"
     inkscape:cx="24"
     inkscape:cy="24"
     inkscape:window-x="0"
     inkscape:window-y="28"
     inkscape:window-maximized="0"
     inkscape:current-layer="svg12" />
  <circle
     style="opacity:0.2"
     cx="24"
     cy="25"
     r="20"
     id="circle2" />
  <circle
     style="fill:#4c566a;fill-opacity:1"
     cx="24"
     cy="24"
     r="20"
     id="circle4" />
  <path
     style="opacity:0.2;fill:none;stroke:#000000;stroke-width:2;stroke-linecap:square"
     d="m 15.021849,26.085485 1.5386,0.034 c 3.0282,0.066 5.704451,0.420956 6.777551,2.086656 2.5037,3.8862 -2.255251,5.1464 -4.247651,2.4018 -1.8619,-3.0125 -1.2185,-9.771656 1.4641,-10.498456 4.8541,-1.1063 5.658,7.098656 8.6464,5.594556 2.3083,-1.1618 -1.4594,-6.342456 0.79882,-7.598556 0.96787,-0.5384 2.9925,1.344656 2.9925,1.344656"
     id="path6" />
  <path
     style="fill:none;stroke:#ffffff;stroke-width:2;stroke-linecap:square"
     d="m 15.021849,25.085 1.5386,0.034 c 3.0282,0.066 5.704451,0.420956 6.777551,2.086656 2.5037,3.8862 -2.255251,5.1464 -4.247651,2.4018 -1.8619,-3.0125 -1.2185,-9.771656 1.4641,-10.498456 4.8541,-1.1063 5.658,7.098656 8.6464,5.594556 2.3083,-1.1618 -1.4594,-6.342456 0.79882,-7.598556 0.96787,-0.5384 2.9925,1.344656 2.9925,1.344656"
     id="path8" />
  <path
     style="opacity:0.2;fill:#ffffff"
     d="M 24 4 A 20 20 0 0 0 4 24 A 20 20 0 0 0 4.0214844 24.582031 A 20 20 0 0 1 24 5 A 20 20 0 0 1 43.978516 24.417969 A 20 20 0 0 0 44 24 A 20 20 0 0 0 24 4 z"
     id="path10" />
</svg>
