<?xml version="1.0" encoding="UTF-8" standalone="no"?>
<svg
   xmlns:dc="http://purl.org/dc/elements/1.1/"
   xmlns:cc="http://creativecommons.org/ns#"
   xmlns:rdf="http://www.w3.org/1999/02/22-rdf-syntax-ns#"
   xmlns:svg="http://www.w3.org/2000/svg"
   xmlns="http://www.w3.org/2000/svg"
   xmlns:sodipodi="http://sodipodi.sourceforge.net/DTD/sodipodi-0.dtd"
   xmlns:inkscape="http://www.inkscape.org/namespaces/inkscape"
   width="48"
   height="48"
   version="1.1"
   id="svg12"
   sodipodi:docname="openlp.svg"
   inkscape:version="0.92.5 (2060ec1f9f, 2020-04-08)">
  <metadata
     id="metadata18">
    <rdf:RDF>
      <cc:Work
         rdf:about="">
        <dc:format>image/svg+xml</dc:format>
        <dc:type
           rdf:resource="http://purl.org/dc/dcmitype/StillImage" />
      </cc:Work>
    </rdf:RDF>
  </metadata>
  <defs
     id="defs16" />
  <sodipodi:namedview
     pagecolor="#ffffff"
     bordercolor="#666666"
     borderopacity="1"
     objecttolerance="10"
     gridtolerance="10"
     guidetolerance="10"
     inkscape:pageopacity="0"
     inkscape:pageshadow="2"
     inkscape:window-width="765"
     inkscape:window-height="480"
     id="namedview14"
     showgrid="false"
     inkscape:zoom="4.9166667"
     inkscape:cx="-2.9491525"
     inkscape:cy="24"
     inkscape:window-x="0"
     inkscape:window-y="28"
     inkscape:window-maximized="0"
     inkscape:current-layer="svg12" />
  <circle
     style="opacity:0.2"
     cx="24"
     cy="25"
     r="20"
     id="circle2" />
  <circle
     style="fill:#4c566a;fill-opacity:1"
     cx="24"
     cy="24"
     r="20"
     id="circle4" />
  <path
     style="opacity:0.2"
     d="M 14.548828,7.3923121 A 20,20 0 0 0 9.6386719,11.111062 L 37.388672,27.948953 7.6464844,13.507546 A 20,20 0 0 0 4.8847656,19.124734 L 38.287109,30.155984 4.2578125,21.964578 A 20,20 0 0 0 4,24.999734 20,20 0 0 0 4.2792969,28.298562 L 35.595703,31.404031 5.046875,31.306375 a 20,20 0 0 0 2.6289062,5.205078 L 36.179688,33.933328 9.4414062,38.693093 A 20,20 0 0 0 14.455078,42.572 l 27.375,-8.560547 a 20,20 0 0 0 1.453125,-3.78711 z"
     id="path6" />
  <path
     style="fill:#ffffff"
     d="M 14.548828 6.3925781 A 20 20 0 0 0 9.6386719 10.111328 L 37.388672 26.949219 L 7.6464844 12.507812 A 20 20 0 0 0 4.8847656 18.125 L 38.287109 29.15625 L 4.2578125 20.964844 A 20 20 0 0 0 4 24 A 20 20 0 0 0 4.2792969 27.298828 L 35.595703 30.404297 L 5.046875 30.306641 A 20 20 0 0 0 7.6757812 35.511719 L 36.179688 32.933594 L 9.4414062 37.693359 A 20 20 0 0 0 14.455078 41.572266 L 41.830078 33.011719 A 20 20 0 0 0 43.283203 29.224609 L 14.548828 6.3925781 z"
     id="path8" />
  <path
     style="opacity:0.1;fill:#ffffff"
     d="M 24,4 A 20,20 0 0 0 4,24 20,20 0 0 0 4.0215,24.582 20,20 0 0 1 24,5 20,20 0 0 1 43.979,24.418 20,20 0 0 0 44,24 20,20 0 0 0 24,4 Z"
     id="path10" />
</svg>
