<?xml version="1.0" encoding="UTF-8" standalone="no"?>
<svg
   xmlns:dc="http://purl.org/dc/elements/1.1/"
   xmlns:cc="http://creativecommons.org/ns#"
   xmlns:rdf="http://www.w3.org/1999/02/22-rdf-syntax-ns#"
   xmlns:svg="http://www.w3.org/2000/svg"
   xmlns="http://www.w3.org/2000/svg"
   xmlns:sodipodi="http://sodipodi.sourceforge.net/DTD/sodipodi-0.dtd"
   xmlns:inkscape="http://www.inkscape.org/namespaces/inkscape"
   width="48"
   height="48"
   version="1.1"
   id="svg20"
   sodipodi:docname="org.librepcb.LibrePCB.svg"
   inkscape:version="0.92.5 (2060ec1f9f, 2020-04-08)">
  <metadata
     id="metadata26">
    <rdf:RDF>
      <cc:Work
         rdf:about="">
        <dc:format>image/svg+xml</dc:format>
        <dc:type
           rdf:resource="http://purl.org/dc/dcmitype/StillImage" />
      </cc:Work>
    </rdf:RDF>
  </metadata>
  <defs
     id="defs24" />
  <sodipodi:namedview
     pagecolor="#ffffff"
     bordercolor="#666666"
     borderopacity="1"
     objecttolerance="10"
     gridtolerance="10"
     guidetolerance="10"
     inkscape:pageopacity="0"
     inkscape:pageshadow="2"
     inkscape:window-width="765"
     inkscape:window-height="480"
     id="namedview22"
     showgrid="false"
     inkscape:zoom="4.9166667"
     inkscape:cx="24"
     inkscape:cy="24"
     inkscape:window-x="0"
     inkscape:window-y="28"
     inkscape:window-maximized="0"
     inkscape:current-layer="g18" />
  <g
     transform="matrix(2,0,0,2,2,2)"
     id="g18">
    <circle
       cx="11"
       cy="11.5"
       r="10"
       style="opacity:.2"
       id="circle2" />
    <circle
       cx="11"
       cy="11"
       r="10"
       style="fill:#4c566a;fill-opacity:1"
       id="circle4" />
    <path
       d="M 11,1 A 10,10 0 0 0 1,11 10,10 0 0 0 1.0098,11.293 10,10 0 0 1 11,1.5 10,10 0 0 1 20.99,11.207 10,10 0 0 0 21,11 10,10 0 0 0 11,1 Z"
       style="fill:#ffffff;opacity:.2"
       id="path6" />
    <path
       d="m8 5.5v3h-3v1h3v1.5h-3v1h3v1.5h-3v1h3v3h1v-3h1.5v3h1v-3h1.5v3h1v-3h3v-1h-3v-1.5h3v-1h-3v-1.5h3v-1h-3v-3h-1v3h-1.5v-3h-1v3h-1.5v-3z"
       style="opacity:.2"
       id="path8" />
    <path
       d="m8 5v3h-3v1h3v1.5h-3v1h3v1.5h-3v1h3v3h1v-3h1.5v3h1v-3h1.5v3h1v-3h3v-1h-3v-1.5h3v-1h-3v-1.5h3v-1h-3v-3h-1v3h-1.5v-3h-1v3h-1.5v-3z"
       style="fill:#e4e4e4"
       id="path10" />
    <rect
       x="7"
       y="7.5"
       width="8"
       height="8"
       rx="1"
       ry="1"
       style="opacity:.1"
       id="rect12" />
    <rect
       x="7"
       y="7"
       width="8"
       height="8"
       rx="1"
       ry="1"
       style="fill:#5f697d;fill-opacity:1"
       id="rect14" />
    <circle
       cx="9"
       cy="9"
       r="1"
       style="fill:#ffffff"
       id="circle16" />
  </g>
</svg>
