<?xml version="1.0" encoding="UTF-8" standalone="no"?>
<svg
   xmlns:dc="http://purl.org/dc/elements/1.1/"
   xmlns:cc="http://creativecommons.org/ns#"
   xmlns:rdf="http://www.w3.org/1999/02/22-rdf-syntax-ns#"
   xmlns:svg="http://www.w3.org/2000/svg"
   xmlns="http://www.w3.org/2000/svg"
   xmlns:sodipodi="http://sodipodi.sourceforge.net/DTD/sodipodi-0.dtd"
   xmlns:inkscape="http://www.inkscape.org/namespaces/inkscape"
   width="48"
   height="48"
   version="1"
   id="svg12"
   sodipodi:docname="org.kde.activeWindowControl.svg"
   inkscape:version="0.92.5 (2060ec1f9f, 2020-04-08)">
  <metadata
     id="metadata18">
    <rdf:RDF>
      <cc:Work
         rdf:about="">
        <dc:format>image/svg+xml</dc:format>
        <dc:type
           rdf:resource="http://purl.org/dc/dcmitype/StillImage" />
      </cc:Work>
    </rdf:RDF>
  </metadata>
  <defs
     id="defs16" />
  <sodipodi:namedview
     pagecolor="#ffffff"
     bordercolor="#666666"
     borderopacity="1"
     objecttolerance="10"
     gridtolerance="10"
     guidetolerance="10"
     inkscape:pageopacity="0"
     inkscape:pageshadow="2"
     inkscape:window-width="765"
     inkscape:window-height="480"
     id="namedview14"
     showgrid="false"
     inkscape:zoom="4.9166667"
     inkscape:cx="-2.9491525"
     inkscape:cy="24"
     inkscape:window-x="0"
     inkscape:window-y="28"
     inkscape:window-maximized="0"
     inkscape:current-layer="svg12" />
  <rect
     fill="#f34235"
     width="40"
     height="40"
     x="4"
     y="4"
     rx="20"
     ry="20"
     id="rect2"
     style="fill:#4c566a;fill-opacity:1" />
  <path
     fill="#fff"
     opacity=".2"
     d="m24 4c-11.079 0-19.998 8.92-19.998 20 0 0.16772-0.004 0.33329 0 0.5 0.2642-10.846 9.087-19.5 19.998-19.5s19.734 8.6536 19.998 19.5c0.004-0.16671 0-0.33228 0-0.5 0-11.08-8.919-20-19.998-20z"
     id="path4" />
  <path
     opacity=".2"
     d="m4.0117 24.5c-0.0041 0.167-0.0117 0.332-0.0117 0.5 0 11.08 8.92 20 20 20s20-8.92 20-20c0-0.168-0.008-0.333-0.012-0.5-0.264 10.846-9.076 19.5-19.988 19.5s-19.724-8.654-19.988-19.5z"
     id="path6" />
  <path
     opacity=".2"
     d="m14.71 15.905c-1.1752 1.1752-0.85984 3.3828 0.70711 4.9497l4.2426 4.2426-4.2426 4.2426c-1.5669 1.5669-1.8823 3.7745-0.70711 4.9497s3.3828 0.85984 4.9497-0.70711l4.2426-4.2426 4.2426 4.2426c1.5669 1.5669 3.7745 1.8823 4.9497 0.70711s0.85984-3.3828-0.70711-4.9497l-4.2426-4.2426 4.2426-4.2426c1.5669-1.5669 1.8823-3.7745 0.70711-4.9497s-3.3828-0.85984-4.9497 0.70711l-4.2426 4.2426-4.2426-4.2426c-1.5669-1.5669-3.7745-1.8823-4.9497-0.70711z"
     id="path8" />
  <path
     fill="#fff"
     d="m14.71 14.905c-1.1752 1.1752-0.85984 3.3828 0.70711 4.9497l4.2426 4.2426-4.2426 4.2426c-1.5669 1.5669-1.8823 3.7745-0.70711 4.9497s3.3828 0.85984 4.9497-0.70711l4.2426-4.2426 4.2426 4.2426c1.5669 1.5669 3.7745 1.8823 4.9497 0.70711s0.85984-3.3828-0.70711-4.9497l-4.2426-4.2426 4.2426-4.2426c1.5669-1.5669 1.8823-3.7745 0.70711-4.9497s-3.3828-0.85984-4.9497 0.70711l-4.2426 4.2426-4.2426-4.2426c-1.5669-1.5669-3.7745-1.8823-4.9497-0.70711z"
     id="path10" />
</svg>
