<?xml version="1.0" encoding="UTF-8" standalone="no"?>
<svg
   xmlns:dc="http://purl.org/dc/elements/1.1/"
   xmlns:cc="http://creativecommons.org/ns#"
   xmlns:rdf="http://www.w3.org/1999/02/22-rdf-syntax-ns#"
   xmlns:svg="http://www.w3.org/2000/svg"
   xmlns="http://www.w3.org/2000/svg"
   xmlns:sodipodi="http://sodipodi.sourceforge.net/DTD/sodipodi-0.dtd"
   xmlns:inkscape="http://www.inkscape.org/namespaces/inkscape"
   width="48"
   height="48"
   version="1.1"
   id="svg12"
   sodipodi:docname="mintsources-keys.svg"
   inkscape:version="0.92.5 (2060ec1f9f, 2020-04-08)">
  <metadata
     id="metadata18">
    <rdf:RDF>
      <cc:Work
         rdf:about="">
        <dc:format>image/svg+xml</dc:format>
        <dc:type
           rdf:resource="http://purl.org/dc/dcmitype/StillImage" />
      </cc:Work>
    </rdf:RDF>
  </metadata>
  <defs
     id="defs16" />
  <sodipodi:namedview
     pagecolor="#ffffff"
     bordercolor="#666666"
     borderopacity="1"
     objecttolerance="10"
     gridtolerance="10"
     guidetolerance="10"
     inkscape:pageopacity="0"
     inkscape:pageshadow="2"
     inkscape:window-width="783"
     inkscape:window-height="480"
     id="namedview14"
     showgrid="false"
     inkscape:zoom="4.9166667"
     inkscape:cx="24"
     inkscape:cy="24"
     inkscape:window-x="0"
     inkscape:window-y="28"
     inkscape:window-maximized="0"
     inkscape:current-layer="svg12" />
  <path
     fill="#4bae4f"
     d="m15 13a11 11 0 0 0 -11 11 11 11 0 0 0 11 11 11 11 0 0 0 10.572 -8h8.4277v5.0273h6.9648v-5.0273h3.0352v-7h-18.754a11 11 0 0 0 -10.246 -7z"
     id="path2"
     style="fill:#4c566a;fill-opacity:1" />
  <circle
     opacity=".2"
     cx="15"
     cy="25"
     r="4"
     id="circle4" />
  <circle
     fill="#f9f9f9"
     cx="15"
     cy="24"
     r="4"
     id="circle6" />
  <path
     fill="#fff"
     opacity=".2"
     d="m15 13a11 11 0 0 0 -11 11 11 11 0 0 0 0.0215 0.4141 11 11 0 0 1 10.978 -10.414 11 11 0 0 1 10.246 7h18.754v-1h-18.754a11 11 0 0 0 -10.246 -7z"
     id="path8" />
  <path
     opacity=".2"
     d="m4.0215 24.414a11 11 0 0 0 -0.0215 0.586 11 11 0 0 0 11 11 11 11 0 0 0 10.572 -8h8.428v-1h-8.428a11 11 0 0 1 -10.572 8 11 11 0 0 1 -10.978 -10.586zm36.944 2.586v1h3.035v-1h-3.035zm-6.965 5.027v1h6.965v-1h-6.965z"
     id="path10" />
</svg>
