<?xml version="1.0" encoding="UTF-8" standalone="no"?>
<svg
   xmlns:dc="http://purl.org/dc/elements/1.1/"
   xmlns:cc="http://creativecommons.org/ns#"
   xmlns:rdf="http://www.w3.org/1999/02/22-rdf-syntax-ns#"
   xmlns:svg="http://www.w3.org/2000/svg"
   xmlns="http://www.w3.org/2000/svg"
   xmlns:sodipodi="http://sodipodi.sourceforge.net/DTD/sodipodi-0.dtd"
   xmlns:inkscape="http://www.inkscape.org/namespaces/inkscape"
   width="48"
   height="48"
   version="1.1"
   id="svg12"
   sodipodi:docname="peerunity.svg"
   inkscape:version="0.92.5 (2060ec1f9f, 2020-04-08)">
  <metadata
     id="metadata18">
    <rdf:RDF>
      <cc:Work
         rdf:about="">
        <dc:format>image/svg+xml</dc:format>
        <dc:type
           rdf:resource="http://purl.org/dc/dcmitype/StillImage" />
      </cc:Work>
    </rdf:RDF>
  </metadata>
  <defs
     id="defs16" />
  <sodipodi:namedview
     pagecolor="#ffffff"
     bordercolor="#666666"
     borderopacity="1"
     objecttolerance="10"
     gridtolerance="10"
     guidetolerance="10"
     inkscape:pageopacity="0"
     inkscape:pageshadow="2"
     inkscape:window-width="765"
     inkscape:window-height="480"
     id="namedview14"
     showgrid="false"
     inkscape:zoom="4.9166667"
     inkscape:cx="24"
     inkscape:cy="24"
     inkscape:window-x="0"
     inkscape:window-y="28"
     inkscape:window-maximized="0"
     inkscape:current-layer="svg12" />
  <path
     opacity=".2"
     d="m4.0215 24.418a20 20 0 0 0 -0.0215 0.582 20 20 0 0 0 20 20 20 20 0 0 0 20 -20 20 20 0 0 0 -0.021 -0.418 20 20 0 0 1 -19.979 19.418 20 20 0 0 1 -19.978 -19.582z"
     id="path2" />
  <circle
     style="fill:#4c566a;fill-opacity:1"
     cx="24"
     cy="24"
     r="20"
     id="circle4" />
  <path
     style="fill-rule:evenodd;opacity:0.2"
     d="m 15,15 c 14.511452,0.496991 20.107433,8.561698 17.29816,15.75911 -0.795965,2.002724 -1.641574,3.098876 -3.420202,4.24089 0.07245,-0.288568 0.147031,-0.578726 0.203326,-0.874106 C 30.133544,28.510728 28.752052,21.732319 19,18 26.758934,22.276081 28.703504,30 25.659419,34.816551 19.500966,35.712907 15,30.842888 15,25.232035 Z"
     id="path6" />
  <path
     style="fill:#ffffff;fill-rule:evenodd"
     d="m 15,14 c 14.511452,0.496991 20.107433,8.561698 17.29816,15.75911 -0.795965,2.002724 -1.641574,3.098876 -3.420202,4.24089 0.07245,-0.288568 0.147031,-0.578726 0.203326,-0.874106 C 30.133544,27.510728 28.752052,20.732319 19,17 26.758934,21.276081 28.703504,29 25.659419,33.816551 19.500966,34.712907 15,29.842888 15,24.232035 Z"
     id="path8" />
  <path
     fill="#ffffff"
     opacity=".2"
     d="m24 4a20 20 0 0 0 -20 20 20 20 0 0 0 0.0215 0.418 20 20 0 0 1 19.978 -19.418 20 20 0 0 1 19.979 19.582 20 20 0 0 0 0.021 -0.582 20 20 0 0 0 -20 -20z"
     id="path10" />
</svg>
