<?xml version="1.0" encoding="UTF-8" standalone="no"?>
<svg
   xmlns:dc="http://purl.org/dc/elements/1.1/"
   xmlns:cc="http://creativecommons.org/ns#"
   xmlns:rdf="http://www.w3.org/1999/02/22-rdf-syntax-ns#"
   xmlns:svg="http://www.w3.org/2000/svg"
   xmlns="http://www.w3.org/2000/svg"
   xmlns:sodipodi="http://sodipodi.sourceforge.net/DTD/sodipodi-0.dtd"
   xmlns:inkscape="http://www.inkscape.org/namespaces/inkscape"
   width="48"
   height="48"
   version="1.1"
   id="svg24"
   sodipodi:docname="kali-pipal.svg"
   inkscape:version="0.92.5 (2060ec1f9f, 2020-04-08)">
  <metadata
     id="metadata30">
    <rdf:RDF>
      <cc:Work
         rdf:about="">
        <dc:format>image/svg+xml</dc:format>
        <dc:type
           rdf:resource="http://purl.org/dc/dcmitype/StillImage" />
      </cc:Work>
    </rdf:RDF>
  </metadata>
  <defs
     id="defs28" />
  <sodipodi:namedview
     pagecolor="#ffffff"
     bordercolor="#666666"
     borderopacity="1"
     objecttolerance="10"
     gridtolerance="10"
     guidetolerance="10"
     inkscape:pageopacity="0"
     inkscape:pageshadow="2"
     inkscape:window-width="765"
     inkscape:window-height="480"
     id="namedview26"
     showgrid="false"
     inkscape:zoom="4.9166667"
     inkscape:cx="24"
     inkscape:cy="24"
     inkscape:window-x="0"
     inkscape:window-y="28"
     inkscape:window-maximized="0"
     inkscape:current-layer="g22" />
  <g
     transform="matrix(2,0,0,2,2,2)"
     id="g22">
    <path
       d="m11 16.5s4.012154-0.01212 6.000001-2c0.999999-1 0-6-1.000001-7-3-1-5-1-5-1s-2 0-5 1c-1 1-2 6-1 7 1.9878457 1.987846 6 2 6 2z"
       style="opacity:.2"
       id="path2" />
    <path
       d="m11 16s4.012154-0.01212 6.000001-2c0.999999-1 0-6-1.000001-7-3-1-5-1-5-1s-2 0-5 1c-1 1-2 6-1 7 1.9878457 1.987846 6 2 6 2z"
       style="fill:#4c566a;fill-opacity:1"
       id="path4" />
    <path
       d="m11 6s-2 0-5 1c-0.758828 0.758828-1.5135061 3.813793-1.3984375 5.683594 0.0223127-1.873933 0.7027628-4.4879193 1.3984375-5.183594 3-1 5-1 5-1s2 0 5 1c0.695675 0.6956747 1.376125 3.309661 1.398438 5.183594 0.115068-1.869801-0.639609-4.924766-1.398438-5.683594-3-1-5-1-5-1z"
       style="fill:#ffffff;opacity:.1"
       id="path6" />
    <rect
       x="7"
       y="10"
       width="8"
       height="6"
       rx=".99999958"
       ry="1.0000002"
       style="fill:#ffffff"
       id="rect8" />
    <path
       d="m2 17.75c0-2.25 3-2.25 3-2.25h12.000001s2.999999 0 2.999999 2.25c0 2.75-8 3.75-8 3.75h-2s-8-1-8-3.75z"
       style="opacity:.2"
       id="path10" />
    <path
       d="m2 17.25c0-2.25 3-2.25 3-2.25h12.000001s2.999999 0 2.999999 2.25c0 2.75-8 3.75-8 3.75h-2s-8-1-8-3.75z"
       style="fill:#4c566a;fill-opacity:1"
       id="path12" />
    <circle
       cx="11"
       cy="5.5"
       r="4"
       style="opacity:.2"
       id="circle14" />
    <circle
       cx="11"
       cy="5"
       r="4"
       style="fill:#4c566a;fill-opacity:1"
       id="circle16" />
    <path
       d="m 5,15 c 0,0 -3,0 -3,2.25 0,0.05485 0.023059,0.10474 0.029297,0.158203 C 2.3187175,15.502699 5,15.5 5,15.5 h 12 c 0,0 2.681283,0.0027 2.970703,1.908203 C 19.976941,17.35474 20,17.30485 20,17.25 20,15 17,15 17,15 Z"
       style="fill:#ffffff;opacity:.2"
       id="path18" />
    <path
       d="M 11,1 A 4,4 0 0 0 7,5 4,4 0 0 0 7.0097656,5.2832031 4,4 0 0 1 11,1.5 4,4 0 0 1 14.990234,5.2109375 4,4 0 0 0 15,5 4,4 0 0 0 11,1 Z"
       style="fill:#ffffff;opacity:.2"
       id="path20" />
  </g>
</svg>
