<?xml version="1.0" encoding="UTF-8" standalone="no"?>
<svg
   xmlns:dc="http://purl.org/dc/elements/1.1/"
   xmlns:cc="http://creativecommons.org/ns#"
   xmlns:rdf="http://www.w3.org/1999/02/22-rdf-syntax-ns#"
   xmlns:svg="http://www.w3.org/2000/svg"
   xmlns="http://www.w3.org/2000/svg"
   xmlns:sodipodi="http://sodipodi.sourceforge.net/DTD/sodipodi-0.dtd"
   xmlns:inkscape="http://www.inkscape.org/namespaces/inkscape"
   width="48"
   height="48"
   version="1.1"
   id="svg14"
   sodipodi:docname="appimagekit-pocket-casts-linux.svg"
   inkscape:version="0.92.5 (2060ec1f9f, 2020-04-08)">
  <metadata
     id="metadata20">
    <rdf:RDF>
      <cc:Work
         rdf:about="">
        <dc:format>image/svg+xml</dc:format>
        <dc:type
           rdf:resource="http://purl.org/dc/dcmitype/StillImage" />
      </cc:Work>
    </rdf:RDF>
  </metadata>
  <defs
     id="defs18" />
  <sodipodi:namedview
     pagecolor="#ffffff"
     bordercolor="#666666"
     borderopacity="1"
     objecttolerance="10"
     gridtolerance="10"
     guidetolerance="10"
     inkscape:pageopacity="0"
     inkscape:pageshadow="2"
     inkscape:window-width="640"
     inkscape:window-height="480"
     id="namedview16"
     showgrid="false"
     inkscape:zoom="4.9166667"
     inkscape:cx="24"
     inkscape:cy="24"
     inkscape:current-layer="svg14" />
  <circle
     style="opacity:0.2"
     cx="24"
     cy="25"
     r="20"
     id="circle2" />
  <circle
     style="fill:#4c566a;fill-opacity:1"
     cx="24"
     cy="24"
     r="20"
     id="circle4" />
  <path
     style="opacity:0.2;fill:#ffffff"
     d="M 24,4 A 20,20 0 0 0 4,24 20,20 0 0 0 4.0215,24.582 20,20 0 0 1 24,5 20,20 0 0 1 43.979,24.418 20,20 0 0 0 44,24 20,20 0 0 0 24,4 Z"
     id="path6" />
  <path
     style="opacity:0.2"
     d="M 24,9 A 16,16 0 0 0 8,25 16,16 0 0 0 24,41 V 37 A 12,12 0 0 1 12,25 12,12 0 0 1 24,13 12,12 0 0 1 36,25 h 4 A 16,16 0 0 0 24,9 Z m -0.0098,7 A 9,9 0 0 0 15,25 a 9,9 0 0 0 9,9 v -3 a 6,6 0 0 1 -6,-6 6,6 0 0 1 6,-6 6,6 0 0 1 6,6 h 3 a 9,9 0 0 0 -9,-9 9,9 0 0 0 -0.0098,0 z"
     id="path8" />
  <path
     style="fill:#ffffff"
     d="M 24 8 A 16 16 0 0 0 8 24 A 16 16 0 0 0 24 40 L 24 36 A 12 12 0 0 1 12 24 A 12 12 0 0 1 24 12 A 12 12 0 0 1 36 24 L 40 24 A 16 16 0 0 0 24 8 z"
     id="path10" />
  <path
     style="fill:#ffffff"
     d="M 23.990234 15 A 9 9 0 0 0 15 24 A 9 9 0 0 0 24 33 L 24 30 A 6 6 0 0 1 18 24 A 6 6 0 0 1 24 18 A 6 6 0 0 1 30 24 L 33 24 A 9 9 0 0 0 24 15 A 9 9 0 0 0 23.990234 15 z"
     id="path12" />
</svg>
