<?xml version="1.0" encoding="UTF-8" standalone="no"?>
<svg
   xmlns:dc="http://purl.org/dc/elements/1.1/"
   xmlns:cc="http://creativecommons.org/ns#"
   xmlns:rdf="http://www.w3.org/1999/02/22-rdf-syntax-ns#"
   xmlns:svg="http://www.w3.org/2000/svg"
   xmlns="http://www.w3.org/2000/svg"
   xmlns:sodipodi="http://sodipodi.sourceforge.net/DTD/sodipodi-0.dtd"
   xmlns:inkscape="http://www.inkscape.org/namespaces/inkscape"
   width="48"
   version="1.1"
   height="48"
   id="svg14"
   sodipodi:docname="pppoeconf.svg"
   inkscape:version="0.92.5 (2060ec1f9f, 2020-04-08)">
  <metadata
     id="metadata20">
    <rdf:RDF>
      <cc:Work
         rdf:about="">
        <dc:format>image/svg+xml</dc:format>
        <dc:type
           rdf:resource="http://purl.org/dc/dcmitype/StillImage" />
      </cc:Work>
    </rdf:RDF>
  </metadata>
  <defs
     id="defs18" />
  <sodipodi:namedview
     pagecolor="#ffffff"
     bordercolor="#666666"
     borderopacity="1"
     objecttolerance="10"
     gridtolerance="10"
     guidetolerance="10"
     inkscape:pageopacity="0"
     inkscape:pageshadow="2"
     inkscape:window-width="765"
     inkscape:window-height="480"
     id="namedview16"
     showgrid="false"
     inkscape:zoom="4.9166667"
     inkscape:cx="-2.9491525"
     inkscape:cy="24"
     inkscape:window-x="0"
     inkscape:window-y="28"
     inkscape:window-maximized="0"
     inkscape:current-layer="g12" />
  <g
     transform="matrix(2,0,0,2,0,-1)"
     id="g12">
    <path
       style="opacity:.2"
       d="m12 5.5c-7 0-10 2-10 4s1 3 1 3l4-2 1-2s1-1 4-1 4 1 4 1l1 2 4 2s1-1 1-3-3-4-10-4zm-2.5 3c-0.277 0-0.5 0.223-0.5 0.5v1.5h-1c0 4-3 5-3 6v2s0 2 2 2h10c2 0 2-2 2-2v-2c0-1-3-2-3-6h-1v-1.5c0-0.277-0.223-0.5-0.5-0.5s-0.5 0.223-0.5 0.5v1.5h-4v-1.5c0-0.277-0.223-0.5-0.5-0.5z"
       id="path2" />
    <path
       style="fill:#4c566a;fill-opacity:1"
       d="m12 5c-7 0-10 2-10 4s1 3 1 3l4-2 1-2s1-1 4-1 4 1 4 1l1 2 4 2s1-1 1-3-3-4-10-4zm-2.5 3c-0.277 0-0.5 0.223-0.5 0.5v1.5h-1c0 4-3 5-3 6v2s0 2 2 2h10c2 0 2-2 2-2v-2c0-1-3-2-3-6h-1v-1.5c0-0.277-0.223-0.5-0.5-0.5s-0.5 0.223-0.5 0.5v1.5h-4v-1.5c0-0.277-0.223-0.5-0.5-0.5z"
       id="path4" />
    <path
       style="opacity:.2"
       d="m12 12.5a3 3 0 0 0 -3 3 3 3 0 0 0 3 3 3 3 0 0 0 0.947266 -0.15625l-0.316407-0.949219a2 2 0 0 1 -0.630859 0.105469 2 2 0 0 1 -2 -2 2 2 0 0 1 2 -2 2 2 0 0 1 2 2 2 2 0 0 1 -0.337891 1.109375l0.832032 0.552734a3 3 0 0 0 0.505859 -1.662109 3 3 0 0 0 -3 -3z"
       id="path6" />
    <path
       style="fill:#ffffff"
       d="m12 12a3 3 0 0 0 -3 3 3 3 0 0 0 3 3 3 3 0 0 0 0.947266 -0.15625l-0.316407-0.949219a2 2 0 0 1 -0.630859 0.105469 2 2 0 0 1 -2 -2 2 2 0 0 1 2 -2 2 2 0 0 1 2 2 2 2 0 0 1 -0.337891 1.109375l0.832032 0.552734a3 3 0 0 0 0.505859 -1.662109 3 3 0 0 0 -3 -3z"
       id="path8" />
    <path
       style="opacity:.2;fill:#ffffff"
       d="m12 5c-7 0-10 2-10 4 0 0.1076189 0.0120988 0.2009064 0.0175781 0.3027344 0.1917451-1.9321842 3.2124659-3.8027344 9.9824219-3.8027344s9.790677 1.8705502 9.982422 3.8027344c0.005479-0.101828 0.017578-0.1951155 0.017578-0.3027344 0-2-3-4-10-4zm-2.5 3c-0.277 0-0.5 0.223-0.5 0.5v0.5c0-0.277 0.223-0.5 0.5-0.5s0.5 0.223 0.5 0.5v-0.5c0-0.277-0.223-0.5-0.5-0.5zm5 0c-0.277 0-0.5 0.223-0.5 0.5v0.5c0-0.277 0.223-0.5 0.5-0.5s0.5 0.223 0.5 0.5v-0.5c0-0.277-0.223-0.5-0.5-0.5zm-6.5 2c0 4-3 5-3 6v0.5c0-1 3-2 3-6h1v-0.5zm2 0v0.5h4v-0.5zm5 0v0.5h1c0 4 3 5 3 6v-0.5c0-1-3-2-3-6z"
       id="path10" />
  </g>
</svg>
