<?xml version="1.0" encoding="UTF-8" standalone="no"?>
<svg
   xmlns:dc="http://purl.org/dc/elements/1.1/"
   xmlns:cc="http://creativecommons.org/ns#"
   xmlns:rdf="http://www.w3.org/1999/02/22-rdf-syntax-ns#"
   xmlns:svg="http://www.w3.org/2000/svg"
   xmlns="http://www.w3.org/2000/svg"
   xmlns:sodipodi="http://sodipodi.sourceforge.net/DTD/sodipodi-0.dtd"
   xmlns:inkscape="http://www.inkscape.org/namespaces/inkscape"
   width="48"
   height="48"
   version="1"
   id="svg8"
   sodipodi:docname="application-vnd.openofficeorg.extension.svg"
   inkscape:version="0.92.5 (2060ec1f9f, 2020-04-08)">
  <metadata
     id="metadata14">
    <rdf:RDF>
      <cc:Work
         rdf:about="">
        <dc:format>image/svg+xml</dc:format>
        <dc:type
           rdf:resource="http://purl.org/dc/dcmitype/StillImage" />
      </cc:Work>
    </rdf:RDF>
  </metadata>
  <defs
     id="defs12" />
  <sodipodi:namedview
     pagecolor="#ffffff"
     bordercolor="#666666"
     borderopacity="1"
     objecttolerance="10"
     gridtolerance="10"
     guidetolerance="10"
     inkscape:pageopacity="0"
     inkscape:pageshadow="2"
     inkscape:window-width="640"
     inkscape:window-height="480"
     id="namedview10"
     showgrid="false"
     inkscape:zoom="4.9166667"
     inkscape:cx="-15.661017"
     inkscape:cy="24"
     inkscape:current-layer="svg8" />
  <path
     inkscape:connector-curvature="0"
     d="m 19.5,2.9999998 c -2.493,0 -4.5,2.007 -4.5,4.5000002 V 12 H 6.0000004 c -1.662,0 -3,1.338 -3,3 v 9 h 4.5 C 9.9930004,24 12,26.007 12,28.5 12,30.993 9.9930004,33 7.5000004,33 h -4.5 v 9 c 0,1.662 1.338,3 3,3 H 15 v -4.5 c 0,-2.493 2.007,-4.5 4.5,-4.5 2.493,0 4.5,2.007 4.5,4.5 V 45 h 9 c 1.662,0 3,-1.338 3,-3 v -9 h 4.5 C 42.993,33 45,30.993 45,28.5 45,26.007 42.993,24 40.5,24 H 36 v -9 c 0,-1.662 -1.338,-3 -3,-3 H 24 V 7.5 C 24,5.0069998 21.993,2.9999998 19.5,2.9999998 Z"
     id="path2"
     style="fill:#4c566a;fill-opacity:1" />
  <path
     fill="#fff"
     opacity=".1"
     d="m19.5 3c-2.493 0-4.5 2.007-4.5 4.5v1c0-2.493 2.007-4.5 4.5-4.5s4.5 2.007 4.5 4.5v-1c0-2.493-2.007-4.5-4.5-4.5zm-13.5 9c-1.662 0-3 1.338-3 3v1c0-1.662 1.338-3 3-3h9v-1h-9zm18 0v1h9c1.662 0 3 1.338 3 3v-1c0-1.662-1.338-3-3-3h-9zm12 12v1h4.5c2.3214 0 4.1987 1.7476 4.4492 4 0.019-0.166 0.051-0.328 0.051-0.5 0-2.493-2.007-4.5-4.5-4.5h-4.5zm-24.051 5c-0.25053 2.2524-2.1278 4-4.4492 4h-4.5v1h4.5c2.493 0 4.5-2.007 4.5-4.5 0-0.17157-0.0323-0.33353-0.0508-0.5z"
     id="path4" />
  <path
     opacity=".2"
     d="m3 24v1h4.5c2.3214 0 4.1987 1.7476 4.4492 4 0.019-0.166 0.051-0.328 0.051-0.5 0-2.493-2.007-4.5-4.5-4.5h-4.5zm41.949 5c-0.25 2.252-2.128 4-4.449 4h-4.5v1h4.5c2.493 0 4.5-2.007 4.5-4.5 0-0.172-0.032-0.334-0.051-0.5zm-25.449 7c-2.493 0-4.5 2.007-4.5 4.5v1c0-2.493 2.007-4.5 4.5-4.5s4.5 2.007 4.5 4.5v-1c0-2.493-2.007-4.5-4.5-4.5zm-16.5 6v1c0 1.662 1.338 3 3 3h9v-1h-9c-1.662 0-3-1.338-3-3zm33 0c0 1.662-1.338 3-3 3h-9v1h9c1.662 0 3-1.338 3-3v-1z"
     id="path6" />
</svg>
