<?xml version="1.0" encoding="UTF-8" standalone="no"?>
<svg
   xmlns:dc="http://purl.org/dc/elements/1.1/"
   xmlns:cc="http://creativecommons.org/ns#"
   xmlns:rdf="http://www.w3.org/1999/02/22-rdf-syntax-ns#"
   xmlns:svg="http://www.w3.org/2000/svg"
   xmlns="http://www.w3.org/2000/svg"
   xmlns:sodipodi="http://sodipodi.sourceforge.net/DTD/sodipodi-0.dtd"
   xmlns:inkscape="http://www.inkscape.org/namespaces/inkscape"
   width="48"
   height="48"
   version="1"
   id="svg22"
   sodipodi:docname="preferences-desktop-theme-windowdecorations.svg"
   inkscape:version="0.92.5 (2060ec1f9f, 2020-04-08)">
  <metadata
     id="metadata28">
    <rdf:RDF>
      <cc:Work
         rdf:about="">
        <dc:format>image/svg+xml</dc:format>
        <dc:type
           rdf:resource="http://purl.org/dc/dcmitype/StillImage" />
      </cc:Work>
    </rdf:RDF>
  </metadata>
  <defs
     id="defs26" />
  <sodipodi:namedview
     pagecolor="#ffffff"
     bordercolor="#666666"
     borderopacity="1"
     objecttolerance="10"
     gridtolerance="10"
     guidetolerance="10"
     inkscape:pageopacity="0"
     inkscape:pageshadow="2"
     inkscape:window-width="640"
     inkscape:window-height="480"
     id="namedview24"
     showgrid="false"
     inkscape:zoom="4.9166667"
     inkscape:cx="-15.661017"
     inkscape:cy="24"
     inkscape:current-layer="svg22" />
  <path
     style="opacity:0.2"
     d="M 4,12 V 42.714844 C 4,43.981987 5.0188705,45 6.2851562,45 H 44 V 12 Z"
     id="path2" />
  <path
     style="fill:#4c566a;fill-opacity:1"
     d="M 4,12.9 V 41.714844 C 4,42.981987 5.0188705,44 6.2851562,44 H 44 V 12.9 Z"
     id="path4" />
  <path
     style="fill:#636e73"
     d="M 6.2851562,4 C 5.0188705,4 4,5.0180134 4,6.2851562 V 14 H 44 V 4 Z"
     id="path6" />
  <path
     style="opacity:0.1;fill:#ffffff"
     d="M 6.2851562,4 C 5.0188705,4 4,5.0180134 4,6.2851562 v 1 C 4,6.0180132 5.0188705,5 6.2851562,5 H 44 V 4 Z"
     id="path8" />
  <circle
     style="opacity:0.2"
     cx="9"
     cy="10"
     r="3"
     id="circle10" />
  <circle
     style="fill:#ffffff"
     cx="9"
     cy="9"
     r="3"
     id="circle12" />
  <circle
     style="opacity:0.2"
     cx="17"
     cy="10"
     r="3"
     id="circle14" />
  <circle
     style="fill:#ffffff"
     cx="17"
     cy="9"
     r="3"
     id="circle16" />
  <circle
     style="opacity:0.2"
     cx="25"
     cy="10"
     r="3"
     id="circle18" />
  <circle
     style="fill:#ffffff"
     cx="25"
     cy="9"
     r="3"
     id="circle20" />
</svg>
