<?xml version="1.0" encoding="UTF-8" standalone="no"?>
<svg
   xmlns:dc="http://purl.org/dc/elements/1.1/"
   xmlns:cc="http://creativecommons.org/ns#"
   xmlns:rdf="http://www.w3.org/1999/02/22-rdf-syntax-ns#"
   xmlns:svg="http://www.w3.org/2000/svg"
   xmlns="http://www.w3.org/2000/svg"
   xmlns:sodipodi="http://sodipodi.sourceforge.net/DTD/sodipodi-0.dtd"
   xmlns:inkscape="http://www.inkscape.org/namespaces/inkscape"
   width="48"
   height="48"
   version="1"
   id="svg32"
   sodipodi:docname="icons.svg"
   inkscape:version="0.92.5 (2060ec1f9f, 2020-04-08)">
  <metadata
     id="metadata38">
    <rdf:RDF>
      <cc:Work
         rdf:about="">
        <dc:format>image/svg+xml</dc:format>
        <dc:type
           rdf:resource="http://purl.org/dc/dcmitype/StillImage" />
      </cc:Work>
    </rdf:RDF>
  </metadata>
  <defs
     id="defs36" />
  <sodipodi:namedview
     pagecolor="#ffffff"
     bordercolor="#666666"
     borderopacity="1"
     objecttolerance="10"
     gridtolerance="10"
     guidetolerance="10"
     inkscape:pageopacity="0"
     inkscape:pageshadow="2"
     inkscape:window-width="640"
     inkscape:window-height="480"
     id="namedview34"
     showgrid="false"
     inkscape:zoom="9.8333333"
     inkscape:cx="25.016949"
     inkscape:cy="19.932203"
     inkscape:current-layer="svg32" />
  <rect
     width="40"
     height="40"
     x="3.8983049"
     y="4.2033896"
     rx="2"
     ry="2"
     id="rect2"
     style="fill:#4c566a;fill-opacity:1" />
  <path
     fill="#fff"
     style="opacity:0.1"
     d="m6 4c-1.108 0-2 0.892-2 2v1c0-1.108 0.892-2 2-2h36c1.108 0 2 0.892 2 2v-1c0-1.108-0.892-2-2-2h-36z"
     id="path4" />
  <path
     opacity=".2"
     d="m6 45c-1.108 0-2-0.892-2-2v-1c0 1.108 0.892 2 2 2h36c1.108 0 2-0.892 2-2v1c0 1.108-0.892 2-2 2h-36z"
     id="path6" />
  <g
     opacity=".2"
     transform="translate(0 1)"
     id="g18">
    <rect
       width="8"
       height="8"
       x="8"
       y="8"
       rx="1"
       ry="1"
       id="rect8" />
    <rect
       width="8"
       height="8"
       x="8"
       y="19"
       rx="1"
       ry="1"
       id="rect10" />
    <rect
       width="8"
       height="8"
       x="8"
       y="30"
       rx="1"
       ry="1"
       id="rect12" />
    <rect
       width="8"
       height="8"
       x="19"
       y="8"
       rx="1"
       ry="1"
       id="rect14" />
    <rect
       width="8"
       height="8"
       x="19"
       y="19"
       rx="1"
       ry="1"
       id="rect16" />
  </g>
  <g
     fill="#ffffff"
     id="g30">
    <rect
       width="8"
       height="8"
       x="8"
       y="8"
       rx="1"
       ry="1"
       id="rect20" />
    <rect
       width="8"
       height="8"
       x="8"
       y="19"
       rx="1"
       ry="1"
       id="rect22" />
    <rect
       width="8"
       height="8"
       x="8"
       y="30"
       rx="1"
       ry="1"
       id="rect24" />
    <rect
       width="8"
       height="8"
       x="19"
       y="8"
       rx="1"
       ry="1"
       id="rect26" />
    <rect
       width="8"
       height="8"
       x="19"
       y="19"
       rx="1"
       ry="1"
       id="rect28" />
  </g>
</svg>
