<?xml version="1.0" encoding="UTF-8" standalone="no"?>
<svg
   xmlns:dc="http://purl.org/dc/elements/1.1/"
   xmlns:cc="http://creativecommons.org/ns#"
   xmlns:rdf="http://www.w3.org/1999/02/22-rdf-syntax-ns#"
   xmlns:svg="http://www.w3.org/2000/svg"
   xmlns="http://www.w3.org/2000/svg"
   xmlns:sodipodi="http://sodipodi.sourceforge.net/DTD/sodipodi-0.dtd"
   xmlns:inkscape="http://www.inkscape.org/namespaces/inkscape"
   width="48"
   height="48"
   version="1"
   id="svg29"
   sodipodi:docname="preferences-system-network-share-windows.svg"
   inkscape:version="0.92.5 (2060ec1f9f, 2020-04-08)">
  <metadata
     id="metadata33">
    <rdf:RDF>
      <cc:Work
         rdf:about="">
        <dc:format>image/svg+xml</dc:format>
        <dc:type
           rdf:resource="http://purl.org/dc/dcmitype/StillImage" />
      </cc:Work>
    </rdf:RDF>
  </metadata>
  <sodipodi:namedview
     pagecolor="#ffffff"
     bordercolor="#666666"
     borderopacity="1"
     objecttolerance="10"
     gridtolerance="10"
     guidetolerance="10"
     inkscape:pageopacity="0"
     inkscape:pageshadow="2"
     inkscape:window-width="765"
     inkscape:window-height="480"
     id="namedview31"
     showgrid="false"
     inkscape:zoom="4.9166667"
     inkscape:cx="24"
     inkscape:cy="24"
     inkscape:window-x="0"
     inkscape:window-y="28"
     inkscape:window-maximized="0"
     inkscape:current-layer="svg29" />
  <defs
     id="defs7">
    <linearGradient
       id="k"
       x1="16"
       x2="16"
       y1="28"
       y2="4"
       gradientTransform="matrix(1.7640507,0,0,1.7640507,30.187401,-6.9268829)"
       gradientUnits="userSpaceOnUse">
      <stop
         offset="0"
         stop-color="#eff0f1"
         id="stop2" />
      <stop
         offset="1"
         stop-color="#fcfcfc"
         id="stop4" />
    </linearGradient>
  </defs>
  <path
     style="opacity:0.2"
     d="M 7,5 C 5.338,5 4,6.338 4,8 v 12 c 0,1.662 1.338,3 3,3 h 12 c 1.662,0 3,-1.338 3,-3 V 8 C 22,6.338 20.662,5 19,5 Z m 22,0 c -1.662,0 -3,1.338 -3,3 v 12 c 0,1.662 1.338,3 3,3 h 12 c 1.662,0 3,-1.338 3,-3 V 8 C 44,6.338 42.662,5 41,5 Z M 7,27 c -1.662,0 -3,1.338 -3,3 v 12 c 0,1.662 1.338,3 3,3 h 12 c 1.662,0 3,-1.338 3,-3 V 30 c 0,-1.662 -1.338,-3 -3,-3 z m 22,0 c -1.662,0 -3,1.338 -3,3 v 12 c 0,1.662 1.338,3 3,3 h 12 c 1.662,0 3,-1.338 3,-3 V 30 c 0,-1.662 -1.338,-3 -3,-3 z"
     id="path9" />
  <rect
     style="fill:#4c566a;fill-opacity:1"
     width="18"
     height="18"
     x="4"
     y="4"
     rx="3"
     ry="3"
     id="rect11" />
  <rect
     style="fill:#4c566a;fill-opacity:1"
     width="18"
     height="18"
     x="26"
     y="4"
     rx="3"
     ry="3"
     id="rect13" />
  <rect
     style="fill:#4c566a;fill-opacity:1"
     width="18"
     height="18"
     x="4"
     y="26"
     rx="3"
     ry="3"
     id="rect15" />
  <rect
     style="fill:#4c566a;fill-opacity:1"
     width="18"
     height="18"
     x="26"
     y="26"
     rx="3"
     ry="3"
     id="rect17" />
  <path
     style="opacity:0.2;fill:#ffffff"
     d="M 7,4 C 5.338,4 4,5.338 4,7 V 8 C 4,6.338 5.338,5 7,5 h 12 c 1.662,0 3,1.338 3,3 V 7 C 22,5.338 20.662,4 19,4 Z m 22,0 c -1.662,0 -3,1.338 -3,3 v 1 c 0,-1.662 1.338,-3 3,-3 h 12 c 1.662,0 3,1.338 3,3 V 7 C 44,5.338 42.662,4 41,4 Z M 7,26 c -1.662,0 -3,1.338 -3,3 v 1 c 0,-1.662 1.338,-3 3,-3 h 12 c 1.662,0 3,1.338 3,3 v -1 c 0,-1.662 -1.338,-3 -3,-3 z m 22,0 c -1.662,0 -3,1.338 -3,3 v 1 c 0,-1.662 1.338,-3 3,-3 h 12 c 1.662,0 3,1.338 3,3 v -1 c 0,-1.662 -1.338,-3 -3,-3 z"
     id="path19" />
  <path
     style="opacity:0.2"
     d="M 32.410156,9.0000003 A 1.3771389,1.3819189 0 0 0 31,10.38086 V 12 H 13 a 2.0002,2.0002 0 0 0 -2,2 v 11 a 2.0002,2.0002 0 0 0 2,2 h 20 v 7 H 17 V 32.380859 A 1.3771389,1.3819189 0 0 0 15.589844,31 a 1.3771389,1.3819189 0 0 0 -0.65625,0.183594 l -3.123047,1.810547 -3.1210939,1.808593 a 1.3771389,1.3819189 0 0 0 0,2.394532 l 3.1210939,1.808593 3.123047,1.808594 A 1.3771389,1.3819189 0 0 0 17,39.619141 V 38 h 18 a 2.0002,2.0002 0 0 0 2,-2 V 25 A 2.0002,2.0002 0 0 0 35,23 H 15 v -7 h 16 v 1.619141 a 1.3771389,1.3819189 0 0 0 2.066406,1.195312 l 3.123047,-1.808594 3.121094,-1.808593 a 1.3771389,1.3819189 0 0 0 0,-2.394532 L 36.189453,10.994141 33.066406,9.1835941 a 1.3771389,1.3819189 0 0 0 -0.65625,-0.1835938 z"
     id="path21" />
  <path
     style="fill:none;stroke:#ffffff;stroke-width:4;stroke-linecap:round;stroke-linejoin:round"
     d="M 13,35 H 35 V 24 H 13 V 13 h 22 v 0 0 0 0"
     id="path23" />
  <path
     style="fill:#ffffff"
     d="M 32.409274,8.0003764 A 1.3771389,1.3819189 0 0 0 31,9.3803579 v 3.6181781 3.619977 a 1.3771389,1.3819189 0 0 0 2.065502,1.196464 l 3.123355,-1.809988 3.12156,-1.80819 a 1.3771389,1.3819189 0 0 0 0,-2.394727 L 36.188857,9.9938829 33.065502,8.1838941 A 1.3771389,1.3819189 0 0 0 32.409274,8.0003764 Z"
     id="path25" />
  <path
     style="fill:#ffffff"
     d="M 15.590726,30.000377 A 1.3771389,1.3819189 0 0 1 17,31.380358 v 3.618178 3.619977 a 1.3771389,1.3819189 0 0 1 -2.065502,1.196464 l -3.123355,-1.809988 -3.12156,-1.80819 a 1.3771389,1.3819189 0 0 1 0,-2.394727 l 3.12156,-1.808189 3.123355,-1.809989 a 1.3771389,1.3819189 0 0 1 0.656228,-0.183517 z"
     id="path27" />
</svg>
