<?xml version="1.0" encoding="UTF-8" standalone="no"?>
<svg
   xmlns:dc="http://purl.org/dc/elements/1.1/"
   xmlns:cc="http://creativecommons.org/ns#"
   xmlns:rdf="http://www.w3.org/1999/02/22-rdf-syntax-ns#"
   xmlns:svg="http://www.w3.org/2000/svg"
   xmlns="http://www.w3.org/2000/svg"
   xmlns:sodipodi="http://sodipodi.sourceforge.net/DTD/sodipodi-0.dtd"
   xmlns:inkscape="http://www.inkscape.org/namespaces/inkscape"
   width="48"
   height="48"
   version="1.1"
   id="svg34"
   sodipodi:docname="application-x-e-theme.svg"
   inkscape:version="0.92.5 (2060ec1f9f, 2020-04-08)">
  <metadata
     id="metadata40">
    <rdf:RDF>
      <cc:Work
         rdf:about="">
        <dc:format>image/svg+xml</dc:format>
        <dc:type
           rdf:resource="http://purl.org/dc/dcmitype/StillImage" />
      </cc:Work>
    </rdf:RDF>
  </metadata>
  <defs
     id="defs38" />
  <sodipodi:namedview
     pagecolor="#ffffff"
     bordercolor="#666666"
     borderopacity="1"
     objecttolerance="10"
     gridtolerance="10"
     guidetolerance="10"
     inkscape:pageopacity="0"
     inkscape:pageshadow="2"
     inkscape:window-width="783"
     inkscape:window-height="480"
     id="namedview36"
     showgrid="false"
     inkscape:zoom="6.9532167"
     inkscape:cx="32.227456"
     inkscape:cy="25.21568"
     inkscape:current-layer="svg34"
     inkscape:window-x="0"
     inkscape:window-y="28"
     inkscape:window-maximized="0" />
  <path
     inkscape:connector-curvature="0"
     d="m 6,5.9999997 c -1.108,0 -2,0.892 -2,2 V 38 H 44 V 7.9999997 c 0,-1.108 -0.892,-2 -2,-2 z"
     id="path2"
     style="fill:#4c566a;fill-opacity:1" />
  <path
     fill="#253951"
     d="m6 42c-1.108 0-2-0.892-2-2v-2h40v2c0 1.108-0.892 2-2 2z"
     id="path4"
     style="fill:#414b5f;fill-opacity:1" />
  <path
     fill="#fff"
     opacity=".1"
     d="m6 6c-1.108 0-2 0.892-2 2v1c0-1.108 0.892-2 2-2h36c1.108 0 2 0.892 2 2v-1c0-1.108-0.892-2-2-2z"
     id="path6" />
  <rect
     width="16"
     height="12"
     x="22.915255"
     y="10.864407"
     rx="1"
     ry="1"
     id="rect8"
     style="opacity:0.2" />
  <path
     d="m 22.915254,11.864407 v 9 c 0,0.554 0.446,1 1,1 h 14 c 0.554,0 1,-0.446 1,-1 v -9 z"
     id="path10"
     style="fill:#5f697d;fill-opacity:1"
     inkscape:connector-curvature="0" />
  <path
     d="m 23.915254,9.8644068 h 14 c 0.554,0 1,0.4460002 1,1.0000002 v 1 h -16 v -1 c 0,-0.554 0.446,-1.0000002 1,-1.0000002 z"
     id="path12"
     inkscape:connector-curvature="0"
     style="fill:#414b5f;fill-opacity:1" />
  <g
     opacity=".2"
     transform="translate(2 -1002.4)"
     id="g22">
    <rect
       width="4"
       height="4"
       x="5"
       y="1012.4"
       rx=".5"
       ry=".5"
       id="rect14" />
    <rect
       width="4"
       height="4"
       x="5"
       y="1018.4"
       rx=".5"
       ry=".5"
       id="rect16" />
    <rect
       width="4"
       height="4"
       x="5"
       y="1024.4"
       rx=".5"
       ry=".5"
       id="rect18" />
    <rect
       width="4"
       height="4"
       x="5"
       y="1030.4"
       rx=".5"
       ry=".5"
       id="rect20" />
  </g>
  <rect
     fill="#fff"
     width="4"
     height="4"
     x="7"
     y="9"
     rx=".5"
     ry=".5"
     id="rect24" />
  <rect
     fill="#fff"
     width="4"
     height="4"
     x="7"
     y="15"
     rx=".5"
     ry=".5"
     id="rect26" />
  <rect
     fill="#fff"
     width="4"
     height="4"
     x="7"
     y="21"
     rx=".5"
     ry=".5"
     id="rect28" />
  <rect
     fill="#fff"
     width="4"
     height="4"
     x="7"
     y="27"
     rx=".5"
     ry=".5"
     id="rect30" />
  <path
     opacity=".2"
     d="m4 40v1c0 1.108 0.892 2 2 2h36c1.108 0 2-0.892 2-2v-1c0 1.108-0.892 2-2 2h-36c-1.108 0-2-0.892-2-2z"
     id="path32" />
</svg>
