<?xml version="1.0" encoding="UTF-8" standalone="no"?>
<svg
   xmlns:dc="http://purl.org/dc/elements/1.1/"
   xmlns:cc="http://creativecommons.org/ns#"
   xmlns:rdf="http://www.w3.org/1999/02/22-rdf-syntax-ns#"
   xmlns:svg="http://www.w3.org/2000/svg"
   xmlns="http://www.w3.org/2000/svg"
   xmlns:sodipodi="http://sodipodi.sourceforge.net/DTD/sodipodi-0.dtd"
   xmlns:inkscape="http://www.inkscape.org/namespaces/inkscape"
   width="48"
   height="48"
   version="1"
   id="svg14"
   sodipodi:docname="preferences-system-notifications-rtl.svg"
   inkscape:version="0.92.5 (2060ec1f9f, 2020-04-08)">
  <metadata
     id="metadata20">
    <rdf:RDF>
      <cc:Work
         rdf:about="">
        <dc:format>image/svg+xml</dc:format>
        <dc:type
           rdf:resource="http://purl.org/dc/dcmitype/StillImage" />
      </cc:Work>
    </rdf:RDF>
  </metadata>
  <defs
     id="defs18" />
  <sodipodi:namedview
     pagecolor="#ffffff"
     bordercolor="#666666"
     borderopacity="1"
     objecttolerance="10"
     gridtolerance="10"
     guidetolerance="10"
     inkscape:pageopacity="0"
     inkscape:pageshadow="2"
     inkscape:window-width="783"
     inkscape:window-height="480"
     id="namedview16"
     showgrid="false"
     inkscape:zoom="3.4766083"
     inkscape:cx="28.583498"
     inkscape:cy="40.806002"
     inkscape:window-x="0"
     inkscape:window-y="28"
     inkscape:window-maximized="0"
     inkscape:current-layer="svg14" />
  <path
     fill="#4f4f4f"
     d="m 38,11 c 1.108,0 2,0.892 2,2 v 24 c 0,1.108 -0.892,2 -2,2 H 20 l -4,4 -4,-4 H 6 C 4.892,39 4,38.108 4,37 V 13 c 0,-1.108 0.892,-2 2,-2 z"
     id="path2"
     style="fill:#4c566a;fill-opacity:1" />
  <path
     fill="#ffffff"
     opacity=".1"
     d="m 38,11 c 1.108,0 2,0.892 2,2 v 1 c 0,-1.108 -0.892,-2 -2,-2 H 6 c -1.108,0 -2,0.892 -2,2 v -1 c 0,-1.108 0.892,-2 2,-2 z"
     id="path4" />
  <circle
     opacity=".2"
     cx="-32"
     cy="18"
     r="12"
     transform="scale(-1,1)"
     id="circle6" />
  <circle
     fill="#4daaf5"
     cx="-32"
     cy="17"
     r="12"
     transform="scale(-1,1)"
     id="circle8"
     style="fill:#5f697d;fill-opacity:1" />
  <path
     fill="#ffffff"
     d="M 33,10 V 20 H 31 V 10 Z m 0,12 v 2 h -2 v -2 z"
     id="path10" />
  <path
     opacity=".2"
     d="m 40,37 v 1 c 0,1.108 -0.892,2 -2,2 H 20 l -4,4 -4,-4 H 6 C 4.892,40 4,39.108 4,38 v -1 c 0,1.108 0.892,2 2,2 h 6 l 4,4 4,-4 h 18 c 1.108,0 2,-0.892 2,-2 z"
     id="path12" />
</svg>
