<?xml version="1.0" encoding="UTF-8" standalone="no"?>
<svg
   xmlns:dc="http://purl.org/dc/elements/1.1/"
   xmlns:cc="http://creativecommons.org/ns#"
   xmlns:rdf="http://www.w3.org/1999/02/22-rdf-syntax-ns#"
   xmlns:svg="http://www.w3.org/2000/svg"
   xmlns="http://www.w3.org/2000/svg"
   xmlns:sodipodi="http://sodipodi.sourceforge.net/DTD/sodipodi-0.dtd"
   xmlns:inkscape="http://www.inkscape.org/namespaces/inkscape"
   width="48"
   height="48"
   version="1"
   id="svg14"
   sodipodi:docname="preferences-system-parental-controls.svg"
   inkscape:version="0.92.5 (2060ec1f9f, 2020-04-08)">
  <metadata
     id="metadata20">
    <rdf:RDF>
      <cc:Work
         rdf:about="">
        <dc:format>image/svg+xml</dc:format>
        <dc:type
           rdf:resource="http://purl.org/dc/dcmitype/StillImage" />
      </cc:Work>
    </rdf:RDF>
  </metadata>
  <defs
     id="defs18" />
  <sodipodi:namedview
     pagecolor="#ffffff"
     bordercolor="#666666"
     borderopacity="1"
     objecttolerance="10"
     gridtolerance="10"
     guidetolerance="10"
     inkscape:pageopacity="0"
     inkscape:pageshadow="2"
     inkscape:window-width="765"
     inkscape:window-height="480"
     id="namedview16"
     showgrid="false"
     inkscape:zoom="4.9166667"
     inkscape:cx="24"
     inkscape:cy="24"
     inkscape:window-x="0"
     inkscape:window-y="28"
     inkscape:window-maximized="0"
     inkscape:current-layer="svg14" />
  <rect
     fill="#fecd38"
     width="40"
     height="40"
     x="4"
     y="4"
     rx="2"
     ry="2"
     id="rect2"
     style="fill:#4c566a;fill-opacity:1" />
  <path
     fill="#fff"
     opacity=".2"
     d="m6 4c-1.108 0-2 0.892-2 2v1c0-1.108 0.892-2 2-2h36c1.108 0 2 0.892 2 2v-1c0-1.108-0.892-2-2-2h-36z"
     id="path4" />
  <path
     opacity=".2"
     d="m6 45c-1.108 0-2-0.892-2-2v-1c0 1.108 0.892 2 2 2h36c1.108 0 2-0.892 2-2v1c0 1.108-0.892 2-2 2h-36z"
     id="path6" />
  <path
     fill="#333"
     d="m19.5 10c-1.933 0-3.5 1.567-3.5 3.5s1.567 3.5 3.5 3.5 3.5-1.567 3.5-3.5-1.567-3.5-3.5-3.5z"
     id="path8"
     style="fill:#ffffff;fill-opacity:1" />
  <path
     fill="#333"
     d="m16.733 18c-0.565 0-0.875 0.34-1.093 0.862l-3.5 7.1997c-0.77388 1.7452 1.8889 2.8554 2.584 1.0774 0.405-1.058 0.827-2.111 1.304-3.139v12.6c0 0.7756 0.6244 1.4 1.4 1.4h0.0056c0.7756 0 1.6122-0.62449 1.6005-1.4l-0.0056-6.6h0.969l0.0056 6.6c0.000658 0.7756 0.85493 1.4 1.6305 1.4 0.7756 0 1.4-0.6244 1.4-1.4l-0.0056-12.6h-0.05194l1.5641 3.1383c0.31228 0.79664 1.2598 1.1293 2.0016 0.70273l2.5408 1.4855c-0.01862 0.09128-0.05474 0.17648-0.05474 0.27343v7.7c0 0.3878 0.58466 0.7 0.97246 0.7s1.0626-0.31728 1-0.7v-3.3h1v3.3c0 0.3878 0.6122 0.7 1 0.7s1.0333-0.3122 1.0333-0.7v-7l1.7998 1.4949c0.65976 0.68708 1.6769-0.33009 0.98986-0.98986l-2.9947-2.5995c-0.13132-0.13132-0.30927-0.20503-0.49491-0.20507h-3.4116l-2.6776-1.3708c0.000127-0.1959-0.04088-0.38966-0.12026-0.56875l-3.502-7.197c-0.217-0.521-0.726-0.861-1.291-0.862z"
     id="path10"
     style="fill:#ffffff;fill-opacity:1" />
  <path
     fill="#333"
     d="m31.5 22c-1.376 0-2.5 1.124-2.5 2.5s1.124 2.5 2.5 2.5 2.5-1.124 2.5-2.5-1.124-2.5-2.5-2.5z"
     id="path12"
     style="fill:#ffffff;fill-opacity:1" />
</svg>
