<?xml version="1.0" encoding="UTF-8" standalone="no"?>
<svg
   xmlns:dc="http://purl.org/dc/elements/1.1/"
   xmlns:cc="http://creativecommons.org/ns#"
   xmlns:rdf="http://www.w3.org/1999/02/22-rdf-syntax-ns#"
   xmlns:svg="http://www.w3.org/2000/svg"
   xmlns="http://www.w3.org/2000/svg"
   xmlns:sodipodi="http://sodipodi.sourceforge.net/DTD/sodipodi-0.dtd"
   xmlns:inkscape="http://www.inkscape.org/namespaces/inkscape"
   width="48"
   height="48"
   version="1"
   id="svg12"
   sodipodi:docname="display-brightness.svg"
   inkscape:version="0.92.5 (2060ec1f9f, 2020-04-08)">
  <metadata
     id="metadata18">
    <rdf:RDF>
      <cc:Work
         rdf:about="">
        <dc:format>image/svg+xml</dc:format>
        <dc:type
           rdf:resource="http://purl.org/dc/dcmitype/StillImage" />
      </cc:Work>
    </rdf:RDF>
  </metadata>
  <defs
     id="defs16" />
  <sodipodi:namedview
     pagecolor="#ffffff"
     bordercolor="#666666"
     borderopacity="1"
     objecttolerance="10"
     gridtolerance="10"
     guidetolerance="10"
     inkscape:pageopacity="0"
     inkscape:pageshadow="2"
     inkscape:window-width="783"
     inkscape:window-height="480"
     id="namedview14"
     showgrid="false"
     inkscape:zoom="4.9166667"
     inkscape:cx="24"
     inkscape:cy="24"
     inkscape:window-x="0"
     inkscape:window-y="28"
     inkscape:window-maximized="0"
     inkscape:current-layer="svg12" />
  <path
     style="opacity:0.2"
     d="m 24,2.9998569 c -0.844671,0 -1.688707,0.3234725 -2.335938,0.9707031 l -4.029296,4.0292969 h -7.234375 c -1.8836003,0 -3.4003909,1.5167906 -3.4003909,3.4003911 v 7.234375 l -4.0292969,4.029296 c -1.2944613,1.294462 -1.2944613,3.377414 0,4.671876 l 4.0292969,4.029296 v 7.234375 c 0,1.8836 1.5167906,3.400391 3.4003909,3.400391 h 7.234375 l 4.029296,4.029297 c 1.294462,1.294461 3.377414,1.294461 4.671876,0 l 4.029296,-4.029297 h 7.234375 C 39.483209,41.999857 41,40.483066 41,38.599466 v -7.234375 l 4.029297,-4.029296 c 1.294461,-1.294462 1.294461,-3.377414 0,-4.671876 L 41,18.634623 V 11.400248 C 41,9.5166475 39.483209,7.9998569 37.599609,7.9998569 H 30.365234 L 26.335938,3.97056 C 25.688707,3.3233294 24.844671,2.9998569 24,2.9998569 Z"
     id="path2" />
  <path
     style="fill:#4c566a;fill-opacity:1"
     d="m 24,1.9999286 c -0.844671,0 -1.688707,0.3234725 -2.335938,0.9707031 l -4.029296,4.0292969 h -7.234375 c -1.8836003,0 -3.4003909,1.5167906 -3.4003909,3.4003914 v 7.234375 l -4.0292969,4.029296 c -1.2944613,1.294462 -1.2944613,3.377414 0,4.671876 l 4.0292969,4.029296 v 7.234375 c 0,1.8836 1.5167906,3.400391 3.4003909,3.400391 h 7.234375 l 4.029296,4.029297 c 1.294462,1.294461 3.377414,1.294461 4.671876,0 l 4.029296,-4.029297 h 7.234375 C 39.483209,40.999929 41,39.483138 41,37.599538 v -7.234375 l 4.029297,-4.029296 c 1.294461,-1.294462 1.294461,-3.377414 0,-4.671876 L 41,17.634695 V 10.40032 C 41,8.5167192 39.483209,6.9999286 37.599609,6.9999286 H 30.365234 L 26.335938,2.9706317 C 25.688707,2.3234011 24.844671,1.9999286 24,1.9999286 Z"
     id="path4" />
  <path
     style="opacity:0.2"
     d="M 24,13 A 12,12 0 0 0 12,25 12,12 0 0 0 24,37 Z"
     id="path6" />
  <path
     style="fill:#ffffff"
     d="M 24,12 A 12,12 0 0 0 12,24 12,12 0 0 0 24,36 Z"
     id="path8" />
  <path
     style="opacity:0.1;fill:#ffffff"
     d="M 24 2 C 23.155329 2 22.311294 2.3234725 21.664062 2.9707031 L 17.634766 7 L 10.400391 7 C 8.5167903 7 7 8.5167898 7 10.400391 L 7 11.400391 C 7 9.5167901 8.5167903 8 10.400391 8 L 17.634766 8 L 21.664062 3.9707031 C 22.311294 3.3234725 23.155329 3 24 3 C 24.844671 3 25.688707 3.3234725 26.335938 3.9707031 L 30.365234 8 L 37.599609 8 C 39.483209 8 41 9.5167901 41 11.400391 L 41 10.400391 C 41 8.5167898 39.483209 7 37.599609 7 L 30.365234 7 L 26.335938 2.9707031 C 25.688707 2.3234725 24.844671 2 24 2 z M 7 17.634766 L 2.9707031 21.664062 C 2.1952081 22.439558 1.8951451 23.497593 2.0488281 24.5 C 2.1516738 23.829183 2.4517368 23.183029 2.9707031 22.664062 L 7 18.634766 L 7 17.634766 z M 41 17.634766 L 41 18.634766 L 45.029297 22.664062 C 45.548263 23.183029 45.848326 23.829183 45.951172 24.5 C 46.104855 23.497593 45.804792 22.439558 45.029297 21.664062 L 41 17.634766 z"
     id="path10" />
</svg>
