<?xml version="1.0" encoding="UTF-8" standalone="no"?>
<svg
   xmlns:dc="http://purl.org/dc/elements/1.1/"
   xmlns:cc="http://creativecommons.org/ns#"
   xmlns:rdf="http://www.w3.org/1999/02/22-rdf-syntax-ns#"
   xmlns:svg="http://www.w3.org/2000/svg"
   xmlns="http://www.w3.org/2000/svg"
   xmlns:sodipodi="http://sodipodi.sourceforge.net/DTD/sodipodi-0.dtd"
   xmlns:inkscape="http://www.inkscape.org/namespaces/inkscape"
   width="48"
   height="48"
   version="1.1"
   id="svg24"
   sodipodi:docname="application-x-remote-connection.svg"
   inkscape:version="0.92.5 (2060ec1f9f, 2020-04-08)">
  <metadata
     id="metadata30">
    <rdf:RDF>
      <cc:Work
         rdf:about="">
        <dc:format>image/svg+xml</dc:format>
        <dc:type
           rdf:resource="http://purl.org/dc/dcmitype/StillImage" />
      </cc:Work>
    </rdf:RDF>
  </metadata>
  <defs
     id="defs28" />
  <sodipodi:namedview
     pagecolor="#ffffff"
     bordercolor="#666666"
     borderopacity="1"
     objecttolerance="10"
     gridtolerance="10"
     guidetolerance="10"
     inkscape:pageopacity="0"
     inkscape:pageshadow="2"
     inkscape:window-width="783"
     inkscape:window-height="480"
     id="namedview26"
     showgrid="false"
     inkscape:zoom="4.9166667"
     inkscape:cx="32.131351"
     inkscape:cy="30.870657"
     inkscape:window-x="0"
     inkscape:window-y="28"
     inkscape:window-maximized="0"
     inkscape:current-layer="svg24" />
  <rect
     style="opacity:0.2"
     width="24"
     height="32"
     x="12"
     y="11"
     rx="2"
     ry="2"
     id="rect2" />
  <rect
     style="fill:#8e8e8e"
     width="24"
     height="32"
     x="12"
     y="10"
     rx="2"
     ry="2"
     id="rect4" />
  <rect
     style="opacity:0.2"
     width="40"
     height="32"
     x="4"
     y="7"
     rx="2"
     ry="2"
     id="rect6" />
  <path
     style="fill:#5f697d;fill-opacity:1"
     d="M 4 34 L 4 36 C 4 37.108 4.892 38 6 38 L 42 38 C 43.108 38 44 37.108 44 36 L 44 34 L 4 34 z"
     id="path8" />
  <path
     style="fill:#4c566a;fill-opacity:1"
     d="M 6,6 C 4.892,6 4,6.892 4,8 V 34 H 44 V 8 C 44,6.892 43.108,6 42,6 Z"
     id="path10" />
  <path
     style="fill:#ffffff;opacity:0.2"
     d="M 6 6 C 4.892 6 4 6.892 4 8 L 4 9 C 4 7.892 4.892 7 6 7 L 42 7 C 43.108 7 44 7.892 44 9 L 44 8 C 44 6.892 43.108 6 42 6 L 6 6 z"
     id="path12" />
  <rect
     style="opacity:0.2"
     width="40"
     height="1"
     x="4"
     y="34"
     id="rect14" />
  <circle
     style="opacity:0.2"
     cx="36"
     cy="37"
     r="11"
     id="circle16" />
  <circle
     style="fill:#5f697d;fill-opacity:1"
     cx="36"
     cy="36"
     r="11"
     id="circle18" />
  <path
     style="fill:#ffffff"
     d="M 30.814752,33 29,34.74992 32.370494,38 29,41.25008 30.814752,43 36,38 Z"
     id="path20" />
  <path
     style="fill:#ffffff"
     d="M 40.185248,28 42,29.74992 38.629506,33 42,36.25008 40.185248,38 35,33 Z"
     id="path22" />
</svg>
