<?xml version="1.0" encoding="UTF-8" standalone="no"?>
<svg
   xmlns:dc="http://purl.org/dc/elements/1.1/"
   xmlns:cc="http://creativecommons.org/ns#"
   xmlns:rdf="http://www.w3.org/1999/02/22-rdf-syntax-ns#"
   xmlns:svg="http://www.w3.org/2000/svg"
   xmlns="http://www.w3.org/2000/svg"
   xmlns:sodipodi="http://sodipodi.sourceforge.net/DTD/sodipodi-0.dtd"
   xmlns:inkscape="http://www.inkscape.org/namespaces/inkscape"
   width="48"
   height="48"
   version="1"
   id="svg12"
   sodipodi:docname="preferences-system-search.svg"
   inkscape:version="0.92.5 (2060ec1f9f, 2020-04-08)">
  <metadata
     id="metadata18">
    <rdf:RDF>
      <cc:Work
         rdf:about="">
        <dc:format>image/svg+xml</dc:format>
        <dc:type
           rdf:resource="http://purl.org/dc/dcmitype/StillImage" />
      </cc:Work>
    </rdf:RDF>
  </metadata>
  <defs
     id="defs16" />
  <sodipodi:namedview
     pagecolor="#ffffff"
     bordercolor="#666666"
     borderopacity="1"
     objecttolerance="10"
     gridtolerance="10"
     guidetolerance="10"
     inkscape:pageopacity="0"
     inkscape:pageshadow="2"
     inkscape:window-width="640"
     inkscape:window-height="480"
     id="namedview14"
     showgrid="false"
     inkscape:zoom="9.8333333"
     inkscape:cx="20.949153"
     inkscape:cy="19.932203"
     inkscape:current-layer="svg12" />
  <rect
     width="40"
     height="40"
     x="4.0000005"
     y="4.2033896"
     rx="20"
     ry="20"
     id="rect2"
     style="fill:#4c566a;fill-opacity:1" />
  <path
     style="opacity:0.2"
     d="m 26,15.000284 a 8,8 0 0 0 -8,8 8,8 0 0 0 1.382812,4.496094 l -4.943359,4.943359 a 1.50015,1.50015 0 1 0 2.121094,2.121094 l 4.949219,-4.949219 A 8,8 0 0 0 26,31.000284 a 8,8 0 0 0 8,-8 8,8 0 0 0 -8,-8 z m 0,3 a 5,5 0 0 1 5,5 5,5 0 0 1 -5,5 5,5 0 0 1 -5,-5 5,5 0 0 1 5,-5 z"
     id="path4" />
  <path
     style="fill:#ffffff"
     d="M 26 14 A 8 8 0 0 0 18 22 A 8 8 0 0 0 19.382812 26.496094 L 14.439453 31.439453 A 1.50015 1.50015 0 1 0 16.560547 33.560547 L 21.509766 28.611328 A 8 8 0 0 0 26 30 A 8 8 0 0 0 34 22 A 8 8 0 0 0 26 14 z M 26 17 A 5 5 0 0 1 31 22 A 5 5 0 0 1 26 27 A 5 5 0 0 1 21 22 A 5 5 0 0 1 26 17 z"
     id="path6" />
  <path
     fill="#fff"
     opacity=".2"
     d="m24 4c-11.079 0-19.998 8.92-19.998 20 0 0.16772-0.004 0.33329 0 0.5 0.2642-10.846 9.087-19.5 19.998-19.5s19.734 8.6536 19.998 19.5c0.004-0.16671 0-0.33228 0-0.5 0-11.08-8.919-20-19.998-20z"
     id="path8" />
  <path
     opacity=".2"
     d="m4.0117 24.5c-0.0041 0.167-0.0117 0.332-0.0117 0.5 0 11.08 8.92 20 20 20s20-8.92 20-20c0-0.168-0.008-0.333-0.012-0.5-0.264 10.846-9.076 19.5-19.988 19.5s-19.724-8.654-19.988-19.5z"
     id="path10" />
</svg>
