<?xml version="1.0" encoding="UTF-8" standalone="no"?>
<svg
   xmlns:dc="http://purl.org/dc/elements/1.1/"
   xmlns:cc="http://creativecommons.org/ns#"
   xmlns:rdf="http://www.w3.org/1999/02/22-rdf-syntax-ns#"
   xmlns:svg="http://www.w3.org/2000/svg"
   xmlns="http://www.w3.org/2000/svg"
   xmlns:sodipodi="http://sodipodi.sourceforge.net/DTD/sodipodi-0.dtd"
   xmlns:inkscape="http://www.inkscape.org/namespaces/inkscape"
   width="48"
   height="48"
   version="1"
   id="svg14"
   sodipodi:docname="background.svg"
   inkscape:version="0.92.5 (2060ec1f9f, 2020-04-08)">
  <metadata
     id="metadata20">
    <rdf:RDF>
      <cc:Work
         rdf:about="">
        <dc:format>image/svg+xml</dc:format>
        <dc:type
           rdf:resource="http://purl.org/dc/dcmitype/StillImage" />
      </cc:Work>
    </rdf:RDF>
  </metadata>
  <defs
     id="defs18" />
  <sodipodi:namedview
     pagecolor="#ffffff"
     bordercolor="#666666"
     borderopacity="1"
     objecttolerance="10"
     gridtolerance="10"
     guidetolerance="10"
     inkscape:pageopacity="0"
     inkscape:pageshadow="2"
     inkscape:window-width="783"
     inkscape:window-height="480"
     id="namedview16"
     showgrid="false"
     inkscape:zoom="4.9166667"
     inkscape:cx="24"
     inkscape:cy="24"
     inkscape:window-x="0"
     inkscape:window-y="28"
     inkscape:window-maximized="0"
     inkscape:current-layer="svg14" />
  <path
     style="fill:#4c566a;fill-opacity:1"
     d="m44 24v-14c0-1.108-0.892-2-2-2h-36c-1.108 0-2 0.892-2 2v28c0 1.108 0.892 2 2 2h22z"
     id="path2" />
  <path
     style="opacity:0.2"
     d="m41 25.962v-14.962h-34v26h23.181z"
     id="path4" />
  <path
     fill="#fff"
     style="opacity:0.1"
     d="m6 8c-1.108 0-2 0.892-2 2v1c0-1.108 0.892-2 2-2h36c1.108 0 2 0.892 2 2v-1c0-1.108-0.892-2-2-2h-36z"
     id="path6" />
  <path
     style="fill:#5f697d;fill-opacity:1"
     d="m44 24h-14c-1.1046 0-2 0.89544-2 2v14z"
     id="path8" />
  <path
     fill="#fff"
     style="opacity:0.1"
     d="m30 24c-1.1046 0-2 0.89544-2 2v1c0-1.1046 0.89543-2 2-2h13l1-1h-14z"
     id="path10" />
  <path
     opacity=".2"
     d="m44 24-16 16h-22c-1.108 0-2-0.892-2-2v1c0 1.108 0.892 2 2 2h22l16-16v-1z"
     id="path12" />
</svg>
