<?xml version="1.0" encoding="UTF-8" standalone="no"?>
<svg
   xmlns:dc="http://purl.org/dc/elements/1.1/"
   xmlns:cc="http://creativecommons.org/ns#"
   xmlns:rdf="http://www.w3.org/1999/02/22-rdf-syntax-ns#"
   xmlns:svg="http://www.w3.org/2000/svg"
   xmlns="http://www.w3.org/2000/svg"
   xmlns:sodipodi="http://sodipodi.sourceforge.net/DTD/sodipodi-0.dtd"
   xmlns:inkscape="http://www.inkscape.org/namespaces/inkscape"
   width="48"
   height="48"
   version="1"
   id="svg20"
   sodipodi:docname="cs-tiling.svg"
   inkscape:version="0.92.5 (2060ec1f9f, 2020-04-08)">
  <metadata
     id="metadata26">
    <rdf:RDF>
      <cc:Work
         rdf:about="">
        <dc:format>image/svg+xml</dc:format>
        <dc:type
           rdf:resource="http://purl.org/dc/dcmitype/StillImage" />
      </cc:Work>
    </rdf:RDF>
  </metadata>
  <defs
     id="defs24" />
  <sodipodi:namedview
     pagecolor="#ffffff"
     bordercolor="#666666"
     borderopacity="1"
     objecttolerance="10"
     gridtolerance="10"
     guidetolerance="10"
     inkscape:pageopacity="0"
     inkscape:pageshadow="2"
     inkscape:window-width="783"
     inkscape:window-height="480"
     id="namedview22"
     showgrid="false"
     inkscape:zoom="4.9166667"
     inkscape:cx="24"
     inkscape:cy="24"
     inkscape:window-x="0"
     inkscape:window-y="28"
     inkscape:window-maximized="0"
     inkscape:current-layer="svg20" />
  <rect
     style="opacity:0.2"
     width="40"
     height="36"
     x="4"
     y="6"
     rx="2"
     ry="2"
     id="rect2" />
  <rect
     style="fill:#4c566a;fill-opacity:1"
     width="40"
     height="36"
     x="4"
     y="5"
     rx="2"
     ry="2"
     id="rect4" />
  <rect
     style="opacity:0.2;stroke-width:0.68619853"
     width="13.723971"
     height="10.292978"
     x="25.372396"
     y="15.177724"
     rx="0.68619853"
     ry="0.68619853"
     id="rect6" />
  <rect
     style="fill:#ebebeb;stroke-width:0.68619853"
     width="13.723971"
     height="10.292978"
     x="25.372396"
     y="14.491526"
     rx="0.68619853"
     ry="0.68619853"
     id="rect8" />
  <rect
     style="opacity:0.2;stroke-width:0.68619853"
     width="13.723971"
     height="10.292978"
     x="8.9036322"
     y="15.177724"
     rx="0.68619853"
     ry="0.68619853"
     id="rect10" />
  <rect
     style="fill:#ebebeb;stroke-width:0.68619853"
     width="13.723971"
     height="10.292978"
     x="8.9036322"
     y="14.491526"
     rx="0.68619853"
     ry="0.68619853"
     id="rect12" />
  <rect
     style="opacity:0.2;stroke-width:0.68619853"
     width="13.723971"
     height="10.292978"
     x="17.138014"
     y="28.215496"
     rx="0.68619853"
     ry="0.68619853"
     id="rect14" />
  <rect
     style="fill:#ebebeb;stroke-width:0.68619853"
     width="13.723971"
     height="10.292978"
     x="17.138014"
     y="27.529297"
     rx="0.68619853"
     ry="0.68619853"
     id="rect16" />
  <path
     style="opacity:0.2;fill:#ffffff"
     d="M 6 5 C 4.892 5 4 5.892 4 7 L 4 8 C 4 6.892 4.892 6 6 6 L 42 6 C 43.108 6 44 6.892 44 8 L 44 7 C 44 5.892 43.108 5 42 5 L 6 5 z"
     id="path18" />
</svg>
