<?xml version="1.0" encoding="UTF-8" standalone="no"?>
<svg
   xmlns:dc="http://purl.org/dc/elements/1.1/"
   xmlns:cc="http://creativecommons.org/ns#"
   xmlns:rdf="http://www.w3.org/1999/02/22-rdf-syntax-ns#"
   xmlns:svg="http://www.w3.org/2000/svg"
   xmlns="http://www.w3.org/2000/svg"
   xmlns:sodipodi="http://sodipodi.sourceforge.net/DTD/sodipodi-0.dtd"
   xmlns:inkscape="http://www.inkscape.org/namespaces/inkscape"
   width="48"
   height="48"
   version="1"
   id="svg22"
   sodipodi:docname="python.svg"
   inkscape:version="0.92.5 (2060ec1f9f, 2020-04-08)">
  <metadata
     id="metadata28">
    <rdf:RDF>
      <cc:Work
         rdf:about="">
        <dc:format>image/svg+xml</dc:format>
        <dc:type
           rdf:resource="http://purl.org/dc/dcmitype/StillImage" />
      </cc:Work>
    </rdf:RDF>
  </metadata>
  <defs
     id="defs26" />
  <sodipodi:namedview
     pagecolor="#ffffff"
     bordercolor="#666666"
     borderopacity="1"
     objecttolerance="10"
     gridtolerance="10"
     guidetolerance="10"
     inkscape:pageopacity="0"
     inkscape:pageshadow="2"
     inkscape:window-width="783"
     inkscape:window-height="480"
     id="namedview24"
     showgrid="false"
     inkscape:zoom="4.9166667"
     inkscape:cx="24"
     inkscape:cy="24"
     inkscape:window-x="0"
     inkscape:window-y="28"
     inkscape:window-maximized="0"
     inkscape:current-layer="svg22" />
  <path
     fill="#ffa923"
     d="m34 14v5c0 2.77-2.23 5-5 5h-10s-5 0-5 5v8.75c0 3.462 3.902 6.25 8.75 6.25h2.5c4.848 0 8.75-2.788 8.75-6.25v-1.75h-10v-2h13.75c3.462 0 6.25-3.902 6.25-8.75v-2.5c0-4.848-2.788-8.75-6.25-8.75h-3.75z"
     id="path2"
     style="fill:#697387;fill-opacity:1" />
  <path
     opacity=".2"
     d="m29 41a1 1 0 0 1 1 1 1 1 0 0 1 -1 1 1 1 0 0 1 -1 -1 1 1 0 0 1 1 -1z"
     id="path4" />
  <path
     fill="#fff"
     d="m29 40a1 1 0 0 1 1 1 1 1 0 0 1 -1 1 1 1 0 0 1 -1 -1 1 1 0 0 1 1 -1z"
     id="path6" />
  <path
     fill="#3084e0"
     d="m22.75 4c-4.848 0-8.75 2.7875-8.75 6.25v1.75h10v2h-13.75c-3.4625 0-6.25 3.902-6.25 8.75v2.5c0 4.848 2.7875 8.75 6.25 8.75h3.75v-5c0-2.77 2.23-5 5-5h10s5 0 5-5v-8.75c0-3.4625-3.902-6.25-8.75-6.25h-2.5z"
     id="path8"
     style="fill:#4c566a;fill-opacity:1" />
  <path
     opacity=".2"
     d="m19 7a1 1 0 0 1 1 1 1 1 0 0 1 -1 1 1 1 0 0 1 -1 -1 1 1 0 0 1 1 -1z"
     id="path10" />
  <path
     fill="#fff"
     d="m19 6a1 1 0 0 1 1 1 1 1 0 0 1 -1 1 1 1 0 0 1 -1 -1 1 1 0 0 1 1 -1z"
     id="path12" />
  <path
     fill="#fff"
     style="opacity:0.2"
     d="m22.75 4c-4.848 0-8.75 2.7875-8.75 6.25v1c0-3.4625 3.902-6.25 8.75-6.25h2.5c4.848 0 8.75 2.7875 8.75 6.25v-1c0-3.4625-3.902-6.25-8.75-6.25zm-12.5 10c-3.4625 0-6.25 3.902-6.25 8.75v1c0-4.848 2.7875-8.75 6.25-8.75h13.75v-1h-10z"
     id="path14" />
  <path
     style="opacity:0.2;fill:#ffffff"
     d="m 34,14 v 1 h 3.75 c 3.462,0 6.25,3.902 6.25,8.75 v -1 C 44,17.902 41.212,14 37.75,14 Z M 24,36 v 1 h 10 v -1 z"
     id="path16" />
  <path
     opacity=".2"
     d="m14 12v1h10v-1zm20 7c0 5-5 5-5 5h-10c-2.77 0-5 2.23-5 5v1c0-2.77 2.23-5 5-5h10s5 0 5-5zm-30 6.25v1c0 4.848 2.7875 8.75 6.25 8.75h3.75v-1h-3.75c-3.4625 0-6.25-3.902-6.25-8.75z"
     id="path18" />
  <path
     opacity=".2"
     d="m44 25.25c0 4.848-2.788 8.75-6.25 8.75h-13.75v1h13.75c3.462 0 6.25-3.902 6.25-8.75zm-30 12.5v1c0 3.4625 3.9025 6.25 8.75 6.25h2.5c4.848 0 8.75-2.788 8.75-6.25v-1c0 3.462-3.902 6.25-8.75 6.25h-2.5c-4.848 0-8.75-2.788-8.75-6.25z"
     id="path20" />
</svg>
