<?xml version="1.0" encoding="UTF-8" standalone="no"?>
<svg
   xmlns:dc="http://purl.org/dc/elements/1.1/"
   xmlns:cc="http://creativecommons.org/ns#"
   xmlns:rdf="http://www.w3.org/1999/02/22-rdf-syntax-ns#"
   xmlns:svg="http://www.w3.org/2000/svg"
   xmlns="http://www.w3.org/2000/svg"
   xmlns:sodipodi="http://sodipodi.sourceforge.net/DTD/sodipodi-0.dtd"
   xmlns:inkscape="http://www.inkscape.org/namespaces/inkscape"
   width="48"
   height="48"
   version="1"
   id="svg10"
   sodipodi:docname="org.qelectrotech.QElectroTech.svg"
   inkscape:version="0.92.5 (2060ec1f9f, 2020-04-08)">
  <metadata
     id="metadata16">
    <rdf:RDF>
      <cc:Work
         rdf:about="">
        <dc:format>image/svg+xml</dc:format>
        <dc:type
           rdf:resource="http://purl.org/dc/dcmitype/StillImage" />
      </cc:Work>
    </rdf:RDF>
  </metadata>
  <defs
     id="defs14" />
  <sodipodi:namedview
     pagecolor="#ffffff"
     bordercolor="#666666"
     borderopacity="1"
     objecttolerance="10"
     gridtolerance="10"
     guidetolerance="10"
     inkscape:pageopacity="0"
     inkscape:pageshadow="2"
     inkscape:window-width="765"
     inkscape:window-height="480"
     id="namedview12"
     showgrid="false"
     inkscape:zoom="4.9166667"
     inkscape:cx="24"
     inkscape:cy="24"
     inkscape:window-x="0"
     inkscape:window-y="28"
     inkscape:window-maximized="0"
     inkscape:current-layer="svg10" />
  <rect
     fill="#e4e4e4"
     width="40"
     height="40"
     x="4"
     y="4"
     rx="2"
     ry="2"
     id="rect2"
     style="fill:#4c566a;fill-opacity:1" />
  <path
     fill="#fff"
     opacity=".2"
     d="m6 4c-1.108 0-2 0.892-2 2v1c0-1.108 0.892-2 2-2h36c1.108 0 2 0.892 2 2v-1c0-1.108-0.892-2-2-2h-36z"
     id="path4" />
  <path
     opacity=".2"
     d="m6 45c-1.108 0-2-0.892-2-2v-1c0 1.108 0.892 2 2 2h36c1.108 0 2-0.892 2-2v1c0 1.108-0.892 2-2 2h-36z"
     id="path6" />
  <path
     fill="#474747"
     d="m24 14c-1.408 0-2.801 0.551-3.875 1.625-0.948 0.948-1.482 2.137-1.594 3.375h-6.531v13h11v1.5h1v-4h-1v1.5h-10v-11h5.531c0.112 1.238 0.646 2.427 1.594 3.375 2.148 2.148 5.602 2.148 7.75 0 0.948-0.948 1.482-2.137 1.594-3.375h5.531v11h-9v-3h-1v7h1v-3h10v-13h-6.531c-0.112-1.238-0.646-2.427-1.594-3.375-1.074-1.074-2.467-1.625-3.875-1.625zm0 1.031c0.983 0 1.963 0.316 2.781 0.969l-2.781 2.781-2.781-2.781c0.818-0.653 1.798-0.969 2.781-0.969zm-3.5 1.688 2.781 2.781-2.781 2.781c-1.305-1.636-1.305-3.927 0-5.563zm7 0c1.305 1.636 1.305 3.927 0 5.563l-2.781-2.781 2.781-2.781zm-3.5 3.5 2.781 2.781c-1.636 1.305-3.927 1.305-5.563 0l2.781-2.781z"
     id="path8"
     style="fill:#ffffff;fill-opacity:1" />
</svg>
