<?xml version="1.0" encoding="UTF-8" standalone="no"?>
<svg
   xmlns:dc="http://purl.org/dc/elements/1.1/"
   xmlns:cc="http://creativecommons.org/ns#"
   xmlns:rdf="http://www.w3.org/1999/02/22-rdf-syntax-ns#"
   xmlns:svg="http://www.w3.org/2000/svg"
   xmlns="http://www.w3.org/2000/svg"
   xmlns:sodipodi="http://sodipodi.sourceforge.net/DTD/sodipodi-0.dtd"
   xmlns:inkscape="http://www.inkscape.org/namespaces/inkscape"
   width="48"
   height="48"
   version="1"
   id="svg12"
   sodipodi:docname="appimagekit-QMPlay2.svg"
   inkscape:version="0.92.5 (2060ec1f9f, 2020-04-08)">
  <metadata
     id="metadata18">
    <rdf:RDF>
      <cc:Work
         rdf:about="">
        <dc:format>image/svg+xml</dc:format>
        <dc:type
           rdf:resource="http://purl.org/dc/dcmitype/StillImage" />
      </cc:Work>
    </rdf:RDF>
  </metadata>
  <defs
     id="defs16" />
  <sodipodi:namedview
     pagecolor="#ffffff"
     bordercolor="#666666"
     borderopacity="1"
     objecttolerance="10"
     gridtolerance="10"
     guidetolerance="10"
     inkscape:pageopacity="0"
     inkscape:pageshadow="2"
     inkscape:window-width="783"
     inkscape:window-height="480"
     id="namedview14"
     showgrid="false"
     inkscape:zoom="4.9166667"
     inkscape:cx="-1.1186441"
     inkscape:cy="24"
     inkscape:window-x="0"
     inkscape:window-y="28"
     inkscape:window-maximized="0"
     inkscape:current-layer="svg12" />
  <path
     fill="#4f4f4f"
     d="m7.6203 4.0008a3.5382 3.1388 0 0 0 -3.6203 3.1376v33.726a3.5382 3.1388 0 0 0 5.3072 2.716l16.462-8.43 16.462-8.431a3.5382 3.1388 0 0 0 0 -5.4364l-16.462-8.432-16.462-8.4308a3.5382 3.1388 0 0 0 -1.6867 -0.4194z"
     id="path2"
     style="fill:#4c566a;fill-opacity:1" />
  <path
     opacity=".2"
     d="m9 10.881v28.238l14.49-7.42 13.08-6.699-13.08-6.699-14.49-7.42z"
     id="path4" />
  <path
     fill="#00e382"
     d="m9 9.8809v28.238l14.49-7.42 13.08-6.699-13.08-6.699-14.49-7.4201z"
     id="path6"
     style="fill:#697387;fill-opacity:1" />
  <path
     fill="#fff"
     opacity=".1"
     d="m7.6211 4a3.5382 3.1388 0 0 0 -3.6211 3.1387v1a3.5382 3.1388 0 0 1 3.6211 -3.1387 3.5382 3.1388 0 0 1 1.6855 0.4199l16.463 8.4316 16.461 8.4316a3.5382 3.1388 0 0 1 1.7227 2.2148 3.5382 3.1388 0 0 0 -1.7227 -3.2148l-16.461-8.431-16.463-8.4321a3.5382 3.1388 0 0 0 -1.6859 -0.4199z"
     id="path8" />
  <path
     opacity=".2"
     d="m43.953 24.498a3.5382 3.1388 0 0 1 -1.7227 2.2207l-16.46 8.431-16.463 8.43a3.5382 3.1388 0 0 1 -5.307 -2.717v1a3.5382 3.1388 0 0 0 5.3066 2.7168l16.463-8.43 16.46-8.431a3.5382 3.1388 0 0 0 1.7227 -3.2207z"
     id="path10" />
</svg>
