<?xml version="1.0" encoding="UTF-8" standalone="no"?>
<svg
   xmlns:dc="http://purl.org/dc/elements/1.1/"
   xmlns:cc="http://creativecommons.org/ns#"
   xmlns:rdf="http://www.w3.org/1999/02/22-rdf-syntax-ns#"
   xmlns:svg="http://www.w3.org/2000/svg"
   xmlns="http://www.w3.org/2000/svg"
   xmlns:sodipodi="http://sodipodi.sourceforge.net/DTD/sodipodi-0.dtd"
   xmlns:inkscape="http://www.inkscape.org/namespaces/inkscape"
   width="48"
   height="48"
   version="1.1"
   id="svg12"
   sodipodi:docname="designer5.svg"
   inkscape:version="0.92.5 (2060ec1f9f, 2020-04-08)">
  <metadata
     id="metadata18">
    <rdf:RDF>
      <cc:Work
         rdf:about="">
        <dc:format>image/svg+xml</dc:format>
        <dc:type
           rdf:resource="http://purl.org/dc/dcmitype/StillImage" />
      </cc:Work>
    </rdf:RDF>
  </metadata>
  <defs
     id="defs16" />
  <sodipodi:namedview
     pagecolor="#ffffff"
     bordercolor="#666666"
     borderopacity="1"
     objecttolerance="10"
     gridtolerance="10"
     guidetolerance="10"
     inkscape:pageopacity="0"
     inkscape:pageshadow="2"
     inkscape:window-width="783"
     inkscape:window-height="480"
     id="namedview14"
     showgrid="false"
     inkscape:zoom="4.9166667"
     inkscape:cx="-1.1186441"
     inkscape:cy="24"
     inkscape:window-x="0"
     inkscape:window-y="28"
     inkscape:window-maximized="0"
     inkscape:current-layer="svg12" />
  <path
     style="opacity:.2"
     d="m8.7272727 8h34.272727s2 0 2 2v26l-5.727273 6h-34.272727s-2 0-2-2v-26z"
     id="path2" />
  <path
     style="fill:#4c566a;fill-opacity:1"
     d="m8.7272727 7h34.272727s2 0 2 2v26l-5.727273 6h-34.272727s-2 0-2-2v-26z"
     id="path4" />
  <path
     style="opacity:.2"
     d="m18.035156 15c-5.55862 0-7.035156 3-7.035156 9s1.450556 9 7.035156 9h1.585938l2.310547 4 2.677734-1-2.181641-4c2.07799-1 2.572266-4 2.572266-8 0-6-1.406224-9-6.964844-9zm10.992188 1v4h-2.027344v2h2.027344v6c0 4 0.90859 5 3.84375 5h2.193359l-0.128906-2h-1.474609c-1.350701 0-1.460938-1-1.460938-3v-6h3v-2h-3v-4zm-11.015625 2c3.229341 0 3.98829 2 3.988281 6 0 4-0.73447 6-3.988281 6-3.25381 0-4.011719-2-4.011719-6s0.782379-6 4.011719-6z"
     id="path6" />
  <path
     style="fill:#ffffff"
     d="m18.035156 14c-5.55862 0-7.035156 3-7.035156 9s1.450556 9 7.035156 9h1.585938l2.310547 4 2.677734-1-2.181641-4c2.07799-1 2.572266-4 2.572266-8 0-6-1.406224-9-6.964844-9zm10.992188 1v4h-2.027344v2h2.027344v6c0 4 0.90859 5 3.84375 5h2.193359l-0.128906-2h-1.474609c-1.350701 0-1.460938-1-1.460938-3v-6h3v-2h-3v-4zm-11.015625 2c3.229341 0 3.98829 2 3.988281 6 0 4-0.73447 6-3.988281 6-3.25381 0-4.011719-2-4.011719-6s0.782379-6 4.011719-6z"
     id="path8" />
  <path
     style="fill:#ffffff;opacity:.2"
     d="m8.7265625 7-5.7265625 6v1l5.7265625-6h34.273438s2 0 2 2v-1c0-2-2-2-2-2z"
     id="path10" />
</svg>
