<?xml version="1.0" encoding="UTF-8" standalone="no"?>
<svg
   xmlns:dc="http://purl.org/dc/elements/1.1/"
   xmlns:cc="http://creativecommons.org/ns#"
   xmlns:rdf="http://www.w3.org/1999/02/22-rdf-syntax-ns#"
   xmlns:svg="http://www.w3.org/2000/svg"
   xmlns="http://www.w3.org/2000/svg"
   xmlns:sodipodi="http://sodipodi.sourceforge.net/DTD/sodipodi-0.dtd"
   xmlns:inkscape="http://www.inkscape.org/namespaces/inkscape"
   width="48"
   height="48"
   version="1"
   id="svg12"
   sodipodi:docname="com.github.quaternion.svg"
   inkscape:version="0.92.5 (2060ec1f9f, 2020-04-08)">
  <metadata
     id="metadata18">
    <rdf:RDF>
      <cc:Work
         rdf:about="">
        <dc:format>image/svg+xml</dc:format>
        <dc:type
           rdf:resource="http://purl.org/dc/dcmitype/StillImage" />
      </cc:Work>
    </rdf:RDF>
  </metadata>
  <defs
     id="defs16" />
  <sodipodi:namedview
     pagecolor="#ffffff"
     bordercolor="#666666"
     borderopacity="1"
     objecttolerance="10"
     gridtolerance="10"
     guidetolerance="10"
     inkscape:pageopacity="0"
     inkscape:pageshadow="2"
     inkscape:window-width="783"
     inkscape:window-height="480"
     id="namedview14"
     showgrid="false"
     inkscape:zoom="4.9166667"
     inkscape:cx="24"
     inkscape:cy="24"
     inkscape:window-x="0"
     inkscape:window-y="28"
     inkscape:window-maximized="0"
     inkscape:current-layer="svg12" />
  <path
     style="opacity:0.2"
     d="M 24,5 A 20,20 0 0 0 4,25 20,20 0 0 0 24,45 h 18 c 1.108,0 2,-0.892 2,-2 V 25 A 20,20 0 0 0 24,5 Z"
     id="path2" />
  <path
     style="fill:#4c566a;fill-opacity:1"
     d="M 24 4 A 20 20 0 0 0 4 24 A 20 20 0 0 0 24 44 L 42 44 C 43.108 44 44 43.108 44 42 L 44 24 A 20 20 0 0 0 24 4 z"
     id="path4" />
  <path
     style="opacity:0.2"
     d="m 24.895035,10.101454 h -2.57e-4 c -4.710482,-0.2384275 -9.44183,1.804439 -12.47957,5.889836 -1.573784,2.118623 -2.4812844,4.515393 -2.7816013,6.950989 l 1.8926323,-0.279709 3.592972,-0.526392 2.994601,-2.294682 -6.09533,0.898816 c 0.417902,-1.276819 1.022832,-2.51403 1.870645,-3.654956 3.30378,-4.445326 8.894863,-6.128487 13.900647,-4.650282 l 1.744569,-1.331377 C 28.031278,10.5088 26.465203,10.177434 24.895035,10.097884 Z m 7.487393,2.803334 -5.13e-4,0.01116 -0.581629,1.822514 -0.958678,3.011526 0.556777,4.282432 1.914457,-6.006986 c 0.963274,0.93597 1.807358,2.023006 2.459646,3.285991 2.724752,5.274968 1.448275,11.513687 -2.728209,15.325958 l 0.008,0.05913 c -0.03076,0.02901 -0.06166,0.06136 -0.09272,0.09037 l 4.633227,5.365117 1.422501,-1.230182 -3.574995,-4.139621 c 3.82382,-4.391995 4.80864,-10.808893 1.965476,-16.313474 -1.211787,-2.346117 -2.966416,-4.217833 -5.023363,-5.558805 z M 9.3676793,27.252604 c 0.8876427,6.578118 6.1566967,11.902846 13.0630107,12.585885 2.627579,0.259849 5.157572,-0.193688 7.401651,-1.189794 l -1.212061,-1.477313 -0.0069,-5.58e-4 -2.385487,-2.906203 -3.598077,-1.493936 4.080439,4.96759 c -1.309793,0.298564 -2.68425,0.418391 -4.098696,0.278481 C 16.95452,37.457785 12.551878,33.334119 11.373866,28.088494 Z"
     id="path6" />
  <path
     style="fill:#ffffff"
     d="m 24.895035,9.1014539 h -2.57e-4 c -4.710482,-0.2384274 -9.44183,1.8044391 -12.47957,5.8898361 -1.573784,2.118623 -2.4812844,4.515393 -2.7816013,6.950989 l 1.8926323,-0.279709 3.592972,-0.526392 2.994601,-2.294682 -6.09533,0.898816 c 0.417902,-1.276819 1.022832,-2.51403 1.870645,-3.654956 3.30378,-4.445326 8.894863,-6.128487 13.900647,-4.650282 l 1.744569,-1.331377 C 28.031278,9.5087998 26.465203,9.1774338 24.895035,9.0978836 Z m 7.487393,2.8033341 -5.13e-4,0.01116 -0.581629,1.822514 -0.958678,3.011526 0.556777,4.282432 1.914457,-6.006986 c 0.963274,0.93597 1.807358,2.023006 2.459646,3.285991 2.724752,5.274968 1.448275,11.513687 -2.728209,15.325958 l 0.008,0.05913 c -0.03076,0.02901 -0.06166,0.06136 -0.09272,0.09037 l 4.633227,5.365117 1.422501,-1.230182 -3.574995,-4.139621 c 3.82382,-4.391995 4.80864,-10.808893 1.965476,-16.313474 -1.211787,-2.346117 -2.966416,-4.217833 -5.023363,-5.558805 z M 9.3676793,26.252604 c 0.8876427,6.578118 6.1566967,11.902846 13.0630107,12.585885 2.627579,0.259849 5.157572,-0.193688 7.401651,-1.189794 l -1.212061,-1.477313 -0.0069,-5.58e-4 -2.385487,-2.906203 -3.598077,-1.493936 4.080439,4.96759 c -1.309793,0.298564 -2.68425,0.418391 -4.098696,0.278481 C 16.95452,36.457785 12.551878,32.334119 11.373866,27.088494 Z"
     id="path8" />
  <path
     style="fill:#ffffff;opacity:0.2"
     d="M 24 4 A 20 20 0 0 0 4 24 A 20 20 0 0 0 4.0214844 24.417969 A 20 20 0 0 1 24 5 A 20 20 0 0 1 44 25 L 44 24 A 20 20 0 0 0 24 4 z"
     id="path10" />
</svg>
