<?xml version="1.0" encoding="UTF-8" standalone="no"?>
<svg
   xmlns:dc="http://purl.org/dc/elements/1.1/"
   xmlns:cc="http://creativecommons.org/ns#"
   xmlns:rdf="http://www.w3.org/1999/02/22-rdf-syntax-ns#"
   xmlns:svg="http://www.w3.org/2000/svg"
   xmlns="http://www.w3.org/2000/svg"
   xmlns:sodipodi="http://sodipodi.sourceforge.net/DTD/sodipodi-0.dtd"
   xmlns:inkscape="http://www.inkscape.org/namespaces/inkscape"
   width="48"
   height="48"
   version="1"
   id="svg22"
   sodipodi:docname="retext.svg"
   inkscape:version="0.92.5 (2060ec1f9f, 2020-04-08)">
  <metadata
     id="metadata28">
    <rdf:RDF>
      <cc:Work
         rdf:about="">
        <dc:format>image/svg+xml</dc:format>
        <dc:type
           rdf:resource="http://purl.org/dc/dcmitype/StillImage" />
      </cc:Work>
    </rdf:RDF>
  </metadata>
  <defs
     id="defs26" />
  <sodipodi:namedview
     pagecolor="#ffffff"
     bordercolor="#666666"
     borderopacity="1"
     objecttolerance="10"
     gridtolerance="10"
     guidetolerance="10"
     inkscape:pageopacity="0"
     inkscape:pageshadow="2"
     inkscape:window-width="1914"
     inkscape:window-height="1026"
     id="namedview24"
     showgrid="false"
     inkscape:zoom="6.9532167"
     inkscape:cx="-2.600466"
     inkscape:cy="21.098232"
     inkscape:window-x="0"
     inkscape:window-y="28"
     inkscape:window-maximized="1"
     inkscape:current-layer="svg22" />
  <path
     fill="#e4e4e4"
     d="m42 8h-36c-1.108 0-2 0.892-2 2v28c0 1.108 0.892 2 2 2h36c1.108 0 2-0.892 2-2v-28c0-1.108-0.892-2-2-2z"
     id="path2"
     style="fill:#4c566a;fill-opacity:1" />
  <path
     opacity=".15"
     d="m4 10c0-1.108 0.892-2 2-2h18v32h-18c-1.108 0-2-0.892-2-2z"
     id="path4" />
  <rect
     width="8"
     height="2"
     x="8.0134563"
     y="14.314549"
     id="rect6"
     style="opacity:1;fill:#dcdcdc;fill-opacity:1" />
  <rect
     width="12"
     height="2"
     x="8.0134563"
     y="18.31455"
     id="rect8"
     style="opacity:1;fill:#dcdcdc;fill-opacity:1" />
  <rect
     width="14"
     height="2"
     x="8.0134563"
     y="22.31455"
     id="rect10"
     style="opacity:1;fill:#dcdcdc;fill-opacity:1" />
  <rect
     width="10"
     height="2"
     x="8.0134563"
     y="26.31455"
     id="rect12"
     style="opacity:1;fill:#dcdcdc;fill-opacity:1" />
  <rect
     width="12"
     height="2"
     x="8.0134563"
     y="30.31455"
     id="rect14"
     style="opacity:1;fill:#dcdcdc;fill-opacity:1" />
  <path
     fill="#c2352a"
     d="m27 12v24h4v-10l4 10h6v-4h-2l-4-6h6v-14zm4 4h6v6h-6z"
     id="path16"
     style="fill:#ffffff;fill-opacity:1" />
  <path
     fill="#fff"
     opacity=".2"
     d="m6 8c-1.108 0-2 0.892-2 2v1c0-1.108 0.892-2 2-2h36c1.108 0 2 0.892 2 2v-1c0-1.108-0.892-2-2-2h-36z"
     id="path18" />
  <path
     opacity=".2"
     d="m4 38v1c0 1.108 0.892 2 2 2h36c1.108 0 2-0.892 2-2v-1c0 1.108-0.892 2-2 2h-36c-1.108 0-2-0.892-2-2z"
     id="path20" />
</svg>
