<?xml version="1.0" encoding="UTF-8" standalone="no"?>
<svg
   xmlns:dc="http://purl.org/dc/elements/1.1/"
   xmlns:cc="http://creativecommons.org/ns#"
   xmlns:rdf="http://www.w3.org/1999/02/22-rdf-syntax-ns#"
   xmlns:svg="http://www.w3.org/2000/svg"
   xmlns="http://www.w3.org/2000/svg"
   xmlns:sodipodi="http://sodipodi.sourceforge.net/DTD/sodipodi-0.dtd"
   xmlns:inkscape="http://www.inkscape.org/namespaces/inkscape"
   width="48"
   height="48"
   version="1.1"
   id="svg24"
   sodipodi:docname="appimagekit-retroshare.svg"
   inkscape:version="0.92.5 (2060ec1f9f, 2020-04-08)">
  <metadata
     id="metadata30">
    <rdf:RDF>
      <cc:Work
         rdf:about="">
        <dc:format>image/svg+xml</dc:format>
        <dc:type
           rdf:resource="http://purl.org/dc/dcmitype/StillImage" />
      </cc:Work>
    </rdf:RDF>
  </metadata>
  <defs
     id="defs28" />
  <sodipodi:namedview
     pagecolor="#ffffff"
     bordercolor="#666666"
     borderopacity="1"
     objecttolerance="10"
     gridtolerance="10"
     guidetolerance="10"
     inkscape:pageopacity="0"
     inkscape:pageshadow="2"
     inkscape:window-width="765"
     inkscape:window-height="480"
     id="namedview26"
     showgrid="false"
     inkscape:zoom="4.9166667"
     inkscape:cx="35.861054"
     inkscape:cy="28.446819"
     inkscape:window-x="0"
     inkscape:window-y="28"
     inkscape:window-maximized="0"
     inkscape:current-layer="svg24" />
  <circle
     style="opacity:0.2"
     cx="24"
     cy="25"
     r="20"
     id="circle2" />
  <circle
     style="fill:#4c566a;fill-opacity:1"
     cx="24"
     cy="24"
     r="20"
     id="circle4" />
  <path
     style="opacity:0.1;fill:#ffffff"
     d="M 24,4 A 20,20 0 0 0 4,24 20,20 0 0 0 4.0196,24.586 20,20 0 0 1 24,5 20,20 0 0 1 43.98,24.414 20,20 0 0 0 44,24 20,20 0 0 0 24,4 Z"
     id="path6" />
  <path
     style="fill:none;stroke:#737d91;stroke-width:4;stroke-opacity:1"
     d="M 28,39 9,20 35,13 Z"
     id="path8" />
  <circle
     style="opacity:0.2"
     cx="9"
     cy="21"
     r="7"
     id="circle10" />
  <circle
     style="fill:#ffffff;fill-opacity:1"
     cx="9"
     cy="20"
     r="7"
     id="circle12" />
  <circle
     style="opacity:0.2"
     cx="35"
     cy="14"
     r="7"
     id="circle14" />
  <circle
     style="fill:#ffffff;fill-opacity:1"
     cx="35"
     cy="13"
     r="7"
     id="circle16" />
  <circle
     style="opacity:0.2"
     cx="28"
     cy="40"
     r="7"
     id="circle18" />
  <circle
     style="fill:#ffffff;fill-opacity:1"
     cx="28"
     cy="39"
     r="7"
     id="circle20" />
  <path
     style="opacity:0.2;fill:#ffffff"
     d="M 35 6 A 7 7 0 0 0 28 13 A 7 7 0 0 0 28.023438 13.458984 A 7 7 0 0 1 35 7 A 7 7 0 0 1 41.976562 13.541016 A 7 7 0 0 0 42 13 A 7 7 0 0 0 35 6 z M 9 13 A 7 7 0 0 0 2 20 A 7 7 0 0 0 2.0234375 20.458984 A 7 7 0 0 1 9 14 A 7 7 0 0 1 15.976562 20.541016 A 7 7 0 0 0 16 20 A 7 7 0 0 0 9 13 z M 28 32 A 7 7 0 0 0 21 39 A 7 7 0 0 0 21.023438 39.458984 A 7 7 0 0 1 28 33 A 7 7 0 0 1 34.976562 39.541016 A 7 7 0 0 0 35 39 A 7 7 0 0 0 28 32 z"
     id="path22" />
</svg>
