<?xml version="1.0" encoding="UTF-8" standalone="no"?>
<svg
   xmlns:dc="http://purl.org/dc/elements/1.1/"
   xmlns:cc="http://creativecommons.org/ns#"
   xmlns:rdf="http://www.w3.org/1999/02/22-rdf-syntax-ns#"
   xmlns:svg="http://www.w3.org/2000/svg"
   xmlns="http://www.w3.org/2000/svg"
   xmlns:sodipodi="http://sodipodi.sourceforge.net/DTD/sodipodi-0.dtd"
   xmlns:inkscape="http://www.inkscape.org/namespaces/inkscape"
   width="48"
   height="48"
   version="1"
   id="svg20"
   sodipodi:docname="rhythmbox.svg"
   inkscape:version="0.92.5 (2060ec1f9f, 2020-04-08)">
  <metadata
     id="metadata26">
    <rdf:RDF>
      <cc:Work
         rdf:about="">
        <dc:format>image/svg+xml</dc:format>
        <dc:type
           rdf:resource="http://purl.org/dc/dcmitype/StillImage" />
      </cc:Work>
    </rdf:RDF>
  </metadata>
  <defs
     id="defs24" />
  <sodipodi:namedview
     pagecolor="#ffffff"
     bordercolor="#666666"
     borderopacity="1"
     objecttolerance="10"
     gridtolerance="10"
     guidetolerance="10"
     inkscape:pageopacity="0"
     inkscape:pageshadow="2"
     inkscape:window-width="783"
     inkscape:window-height="480"
     id="namedview22"
     showgrid="false"
     inkscape:zoom="4.9166667"
     inkscape:cx="24"
     inkscape:cy="24"
     inkscape:window-x="0"
     inkscape:window-y="28"
     inkscape:window-maximized="0"
     inkscape:current-layer="svg20" />
  <rect
     fill="#e4e4e4"
     width="32"
     height="40"
     x="-40"
     y="4"
     rx="2"
     ry="2"
     transform="scale(-1,1)"
     id="rect2"
     style="fill:#4c566a;fill-opacity:1" />
  <circle
     fill="#3f3f3f"
     cx="-28"
     cy="24"
     r="13"
     transform="rotate(-90)"
     id="circle4" />
  <circle
     style="opacity:0.2"
     cx="-29"
     cy="-24"
     r="10"
     transform="matrix(0,-1,-1,0,0,0)"
     id="circle6" />
  <circle
     style="fill:#ffffff;fill-opacity:1"
     cx="-28"
     cy="-24"
     r="10"
     transform="matrix(0,-1,-1,0,0,0)"
     id="circle8" />
  <circle
     fill="#3f3f3f"
     cx="-28"
     cy="-24"
     r="5"
     transform="matrix(0,-1,-1,0,0,0)"
     id="circle10" />
  <circle
     style="fill:#3f3f3f"
     cx="10"
     cy="-14"
     r="2"
     transform="rotate(90)"
     id="circle12" />
  <circle
     style="fill:#3f3f3f"
     cx="10"
     cy="-34"
     r="2"
     transform="rotate(90)"
     id="circle14" />
  <path
     opacity=".2"
     d="m8 42v1c0 1.108 0.892 2 2 2h28c1.108 0 2-0.892 2-2v-1c0 1.108-0.892 2-2 2h-28c-1.108 0-2-0.892-2-2z"
     id="path16" />
  <path
     fill="#fff"
     opacity=".1"
     d="m10 4c-1.108 0-2 0.892-2 2v1c0-1.108 0.892-2 2-2h28c1.108 0 2 0.892 2 2v-1c0-1.108-0.892-2-2-2h-28z"
     id="path18" />
</svg>
