<?xml version="1.0" encoding="UTF-8" standalone="no"?>
<svg
   xmlns:dc="http://purl.org/dc/elements/1.1/"
   xmlns:cc="http://creativecommons.org/ns#"
   xmlns:rdf="http://www.w3.org/1999/02/22-rdf-syntax-ns#"
   xmlns:svg="http://www.w3.org/2000/svg"
   xmlns="http://www.w3.org/2000/svg"
   xmlns:sodipodi="http://sodipodi.sourceforge.net/DTD/sodipodi-0.dtd"
   xmlns:inkscape="http://www.inkscape.org/namespaces/inkscape"
   width="48"
   height="48"
   version="1.1"
   id="svg14"
   sodipodi:docname="rlogo_icon.svg"
   inkscape:version="0.92.5 (2060ec1f9f, 2020-04-08)">
  <metadata
     id="metadata20">
    <rdf:RDF>
      <cc:Work
         rdf:about="">
        <dc:format>image/svg+xml</dc:format>
        <dc:type
           rdf:resource="http://purl.org/dc/dcmitype/StillImage" />
      </cc:Work>
    </rdf:RDF>
  </metadata>
  <defs
     id="defs18" />
  <sodipodi:namedview
     pagecolor="#ffffff"
     bordercolor="#666666"
     borderopacity="1"
     objecttolerance="10"
     gridtolerance="10"
     guidetolerance="10"
     inkscape:pageopacity="0"
     inkscape:pageshadow="2"
     inkscape:window-width="765"
     inkscape:window-height="480"
     id="namedview16"
     showgrid="false"
     inkscape:zoom="4.9166667"
     inkscape:cx="24"
     inkscape:cy="24"
     inkscape:window-x="0"
     inkscape:window-y="28"
     inkscape:window-maximized="0"
     inkscape:current-layer="g12" />
  <g
     transform="translate(0 -1004.4)"
     id="g12">
    <circle
       fill="#e4e4e4"
       cx="24"
       cy="1028.4"
       r="20"
       id="circle2"
       style="fill:#4c566a;fill-opacity:1" />
    <path
       fill="#fff"
       opacity=".2"
       d="m24 1008.4a20 20 0 0 0 -20 20 20 20 0 0 0 0.021484 0.582 20 20 0 0 1 19.979 -19.6 20 20 0 0 1 19.979 19.418 20 20 0 0 0 0.02148 -0.418 20 20 0 0 0 -20 -20z"
       id="path4" />
    <path
       opacity=".2"
       d="m43.979 1028.8a20 20 0 0 1 -19.979 19.6 20 20 0 0 1 -19.978 -19.5 20 20 0 0 0 -0.022 0.5 20 20 0 0 0 20 20 20 20 0 0 0 20 -20 20 20 0 0 0 -0.02148 -0.582z"
       id="path6" />
    <path
       opacity=".2"
       d="m24 1012.4a17 12 0 0 0 -17 12 17 12 0 0 0 17 12 17 12 0 0 0 17 -12 17 12 0 0 0 -17 -12zm2 4a13 8 0 0 1 13 8 13 8 0 0 1 -13 8 13 8 0 0 1 -13 -8 13 8 0 0 1 13 -8z"
       id="path8"
       style="fill:#697387;fill-opacity:1;opacity:1" />
    <path
       fill="#1e62b2"
       fill-rule="evenodd"
       d="m34 1030.4s0.55306-0.016 1.1046 0.2656c0.1914 0.097 0.52254 0.2932 0.76141 0.5495 0.23398 0.2511 0.34806 0.5056 0.34806 0.5056l3.786 6.7h-7c-1.1716-2.2427-2.1676-4.6656-3.6615-6.6628-0.29725-0.2431-0.54456-0.3372-0.83845-0.3372h-1.5004l0.000866 6.9961h-6.0004v-19.996h10.826c1.1736 0 6.1736 1 6.3471 6-0.17357 5-4.1736 6-4.1736 6zm-6.9996-8.0013v5.0013h3.9996s1 0 1-2.6952c0-2.3048-1-2.3035-1-2.3035z"
       id="path10"
       style="fill:#ffffff;fill-opacity:1" />
  </g>
</svg>
