<?xml version="1.0" encoding="UTF-8" standalone="no"?>
<svg
   xmlns:dc="http://purl.org/dc/elements/1.1/"
   xmlns:cc="http://creativecommons.org/ns#"
   xmlns:rdf="http://www.w3.org/1999/02/22-rdf-syntax-ns#"
   xmlns:svg="http://www.w3.org/2000/svg"
   xmlns="http://www.w3.org/2000/svg"
   xmlns:sodipodi="http://sodipodi.sourceforge.net/DTD/sodipodi-0.dtd"
   xmlns:inkscape="http://www.inkscape.org/namespaces/inkscape"
   width="48"
   height="48"
   version="1.1"
   id="svg20"
   sodipodi:docname="sanctum-2.svg"
   inkscape:version="0.92.5 (2060ec1f9f, 2020-04-08)">
  <metadata
     id="metadata26">
    <rdf:RDF>
      <cc:Work
         rdf:about="">
        <dc:format>image/svg+xml</dc:format>
        <dc:type
           rdf:resource="http://purl.org/dc/dcmitype/StillImage" />
      </cc:Work>
    </rdf:RDF>
  </metadata>
  <defs
     id="defs24" />
  <sodipodi:namedview
     pagecolor="#ffffff"
     bordercolor="#666666"
     borderopacity="1"
     objecttolerance="10"
     gridtolerance="10"
     guidetolerance="10"
     inkscape:pageopacity="0"
     inkscape:pageshadow="2"
     inkscape:window-width="765"
     inkscape:window-height="480"
     id="namedview22"
     showgrid="false"
     inkscape:zoom="4.9166667"
     inkscape:cx="24"
     inkscape:cy="24"
     inkscape:window-x="0"
     inkscape:window-y="28"
     inkscape:window-maximized="0"
     inkscape:current-layer="svg20" />
  <path
     style="opacity:0.2"
     d="m 24,5 0,20 20,0 A 20,20 0 0 0 24,5 Z m 0,20 -20,0 a 20,20 0 0 0 20,20 l 0,-20 z"
     id="path2" />
  <path
     style="fill:#e4e4e4"
     d="M 24 4 L 24 24 L 44 24 A 20 20 0 0 0 24 4 z M 24 24 L 4 24 A 20 20 0 0 0 24 44 L 24 24 z"
     id="path4" />
  <path
     style="fill:#ffffff;opacity:0.2"
     d="M 24 4 L 24 5 A 20 20 0 0 1 43.949219 24 L 44 24 A 20 20 0 0 0 24 4 z M 4 24 A 20 20 0 0 0 4.0507812 25 L 24 25 L 24 24 L 4 24 z"
     id="path6" />
  <circle
     style="opacity:0.2"
     cx="24"
     cy="25"
     r="16"
     id="circle8" />
  <circle
     style="fill:#5f697d;fill-opacity:1"
     cx="24"
     cy="24"
     r="16"
     id="circle10" />
  <circle
     style="fill:#4c566a;fill-opacity:1"
     cx="24"
     cy="24"
     r="12"
     id="circle12" />
  <path
     style="opacity:0.2;fill:none;stroke:#000000;stroke-width:4;stroke-linecap:round;stroke-linejoin:round"
     d="m 20,17.9998 8,0 0,7 -8,0 0,7 8,0"
     id="path14" />
  <path
     style="fill:none;stroke:#ffffff;stroke-width:4;stroke-linecap:round;stroke-linejoin:round;stroke-opacity:1"
     d="m 20,17 8,0 0,7 -8,0 0,7 8,0"
     id="path16" />
  <path
     style="opacity:0.2;fill:#ffffff;fill-rule:evenodd"
     d="M 20 15 A 2.0002 2.0002 0 0 0 18.037109 17.5 A 2.0002 2.0002 0 0 1 20 16 L 28 16 A 2.0002 2.0002 0 0 1 30 18 L 30 17 A 2.0002 2.0002 0 0 0 28 15 L 20 15 z M 20 22 A 2.0002 2.0002 0 0 0 18 24 L 18 25 A 2.0002 2.0002 0 0 1 20 23 L 26 23 L 26 22 L 20 22 z M 22 29 L 22 30 L 28 30 A 2.0002 2.0002 0 0 1 29.962891 31.5 A 2.0002 2.0002 0 0 0 28 29 L 22 29 z"
     id="path18" />
</svg>
