<?xml version="1.0" encoding="UTF-8" standalone="no"?>
<svg
   xmlns:dc="http://purl.org/dc/elements/1.1/"
   xmlns:cc="http://creativecommons.org/ns#"
   xmlns:rdf="http://www.w3.org/1999/02/22-rdf-syntax-ns#"
   xmlns:svg="http://www.w3.org/2000/svg"
   xmlns="http://www.w3.org/2000/svg"
   xmlns:sodipodi="http://sodipodi.sourceforge.net/DTD/sodipodi-0.dtd"
   xmlns:inkscape="http://www.inkscape.org/namespaces/inkscape"
   width="48"
   height="48"
   version="1"
   id="svg26"
   sodipodi:docname="scans2pdf.svg"
   inkscape:version="0.92.5 (2060ec1f9f, 2020-04-08)">
  <metadata
     id="metadata32">
    <rdf:RDF>
      <cc:Work
         rdf:about="">
        <dc:format>image/svg+xml</dc:format>
        <dc:type
           rdf:resource="http://purl.org/dc/dcmitype/StillImage" />
      </cc:Work>
    </rdf:RDF>
  </metadata>
  <defs
     id="defs30" />
  <sodipodi:namedview
     pagecolor="#ffffff"
     bordercolor="#666666"
     borderopacity="1"
     objecttolerance="10"
     gridtolerance="10"
     guidetolerance="10"
     inkscape:pageopacity="0"
     inkscape:pageshadow="2"
     inkscape:window-width="765"
     inkscape:window-height="480"
     id="namedview28"
     showgrid="false"
     inkscape:zoom="4.9166667"
     inkscape:cx="24"
     inkscape:cy="24"
     inkscape:window-x="0"
     inkscape:window-y="28"
     inkscape:window-maximized="0"
     inkscape:current-layer="svg26" />
  <rect
     style="opacity:0.2"
     width="40"
     height="32"
     x="-45"
     y="-40"
     rx="2"
     ry="2"
     transform="matrix(0,-1,-1,0,0,0)"
     id="rect2" />
  <rect
     style="fill:#4c566a;fill-opacity:1"
     width="40"
     height="32"
     x="-44"
     y="-40"
     rx="2"
     ry="2"
     transform="matrix(0,-1,-1,0,0,0)"
     id="rect4" />
  <path
     style="fill:#5f697d;fill-opacity:1"
     d="M 13 9 L 13 19.384766 L 23.384766 9 L 13 9 z"
     id="path6" />
  <path
     style="fill:#555f73;fill-opacity:1"
     d="M 23.384766 9 L 13 19.384766 L 13 29.882812 L 33.882812 9 L 23.384766 9 z"
     id="path8" />
  <path
     style="fill:#5f697d;fill-opacity:1"
     d="M 33.882812 9 L 13 29.882812 L 13 39 L 14.380859 39 L 35 18.380859 L 35 9 L 33.882812 9 z"
     id="path10" />
  <path
     style="fill:#555f73;fill-opacity:1"
     d="M 35 18.380859 L 14.380859 39 L 24.880859 39 L 35 28.880859 L 35 18.380859 z"
     id="path12" />
  <path
     style="fill:#5f697d;fill-opacity:1"
     d="M 35 28.880859 L 24.880859 39 L 35 39 L 35 28.880859 z"
     id="path14" />
  <path
     style="opacity:0.1;fill:#ffffff"
     d="M 10,4 C 8.892,4 8,4.892 8,6 L 8,7 C 8,5.892 8.892,5 10,5 l 28,0 c 1.108,0 2,0.892 2,2 L 40,6 C 40,4.892 39.108,4 38,4 L 10,4 Z"
     id="path16" />
  <rect
     style="opacity:0.2"
     width="40"
     height="4"
     x="4"
     y="17"
     rx="1"
     ry="1"
     id="rect18" />
  <rect
     style="fill:#ffffff;fill-opacity:1"
     width="40"
     height="4"
     x="4"
     y="16"
     rx="1"
     ry="1"
     id="rect20" />
  <rect
     style="opacity:0.2"
     width="1"
     height="22"
     x="-40"
     y="-35"
     rx="0"
     ry="0"
     transform="matrix(0,-1,-1,0,0,0)"
     id="rect22" />
  <rect
     style="opacity:0.2;fill:#ffffff"
     width="1"
     height="22"
     x="-10"
     y="-35"
     rx="0"
     ry="0"
     transform="matrix(0,-1,-1,0,0,0)"
     id="rect24" />
</svg>
