<?xml version="1.0" encoding="UTF-8" standalone="no"?>
<svg
   xmlns:dc="http://purl.org/dc/elements/1.1/"
   xmlns:cc="http://creativecommons.org/ns#"
   xmlns:rdf="http://www.w3.org/1999/02/22-rdf-syntax-ns#"
   xmlns:svg="http://www.w3.org/2000/svg"
   xmlns="http://www.w3.org/2000/svg"
   xmlns:sodipodi="http://sodipodi.sourceforge.net/DTD/sodipodi-0.dtd"
   xmlns:inkscape="http://www.inkscape.org/namespaces/inkscape"
   width="48"
   height="48"
   version="1"
   id="svg12"
   sodipodi:docname="scilab.svg"
   inkscape:version="0.92.5 (2060ec1f9f, 2020-04-08)">
  <metadata
     id="metadata18">
    <rdf:RDF>
      <cc:Work
         rdf:about="">
        <dc:format>image/svg+xml</dc:format>
        <dc:type
           rdf:resource="http://purl.org/dc/dcmitype/StillImage" />
      </cc:Work>
    </rdf:RDF>
  </metadata>
  <defs
     id="defs16" />
  <sodipodi:namedview
     pagecolor="#ffffff"
     bordercolor="#666666"
     borderopacity="1"
     objecttolerance="10"
     gridtolerance="10"
     guidetolerance="10"
     inkscape:pageopacity="0"
     inkscape:pageshadow="2"
     inkscape:window-width="765"
     inkscape:window-height="480"
     id="namedview14"
     showgrid="false"
     inkscape:zoom="4.9166667"
     inkscape:cx="-2.9491525"
     inkscape:cy="24"
     inkscape:window-x="0"
     inkscape:window-y="28"
     inkscape:window-maximized="0"
     inkscape:current-layer="svg12" />
  <circle
     fill="#e74c3c"
     cx="24"
     cy="24"
     r="20"
     id="circle2"
     style="fill:#4c566a;fill-opacity:1" />
  <path
     fill="#fff"
     opacity=".2"
     d="m24 4c-11.079 0-19.998 8.92-19.998 20 0 0.16772-0.004 0.33329 0 0.5 0.2642-10.846 9.087-19.5 19.998-19.5s19.734 8.6536 19.998 19.5c0.004-0.16671 0-0.33228 0-0.5 0-11.08-8.919-20-19.998-20z"
     id="path4" />
  <path
     opacity=".2"
     d="m43.979 24.418a20 20 0 0 1 -19.979 19.582 20 20 0 0 1 -19.978 -19.418 20 20 0 0 0 -0.022 0.418 20 20 0 0 0 20 20 20 20 0 0 0 20 -20 20 20 0 0 0 -0.021 -0.582z"
     id="path6" />
  <path
     opacity=".2"
     d="m8 25.477c0-7.8822 4.1807-11.946 6.6267-11.946 2.4461 0 2.8473 1.1772 2.8473 3.112 0 3.7554-4.5355 2.2129-4.5355 9.2606 0 2.3342 1.0492 5.2201 3.7796 5.2201 2.1907 0 2.9964-2.5458 4.1071-7.1023 1.843-6.85 3.708-12.021 10.003-12.021 6.116 0 9.172 5.017 9.172 12.9 0 7.8822-4.7351 12.9-7.1812 12.9-2.446 0-3.0739-0.95137-3.0739-2.8861 0-3.7554 5.1401-3.2168 5.1401-10.264 0-2.3342-1.0492-5.7722-3.7795-5.7722-2.1907 0-2.9649 0.14966-4.3087 5.1448-0.731 5.335-2.469 13.977-9.121 13.977-6.116 0-9.676-4.641-9.676-12.523z"
     id="path8" />
  <path
     fill="#fff"
     d="m8 24.477c0-7.8822 4.1807-11.946 6.6267-11.946 2.4461 0 2.8473 1.1772 2.8473 3.112 0 3.7554-4.5355 2.2129-4.5355 9.2606 0 2.3342 1.0492 5.2201 3.7796 5.2201 2.1907 0 2.9964-2.5458 4.1071-7.1023 1.843-6.85 3.708-12.021 10.003-12.021 6.116 0 9.172 5.017 9.172 12.9 0 7.8822-4.7351 12.9-7.1812 12.9-2.446 0-3.0739-0.95137-3.0739-2.8861 0-3.7554 5.1401-3.2168 5.1401-10.264 0-2.3342-1.0492-5.7722-3.7795-5.7722-2.1907 0-2.9649 0.14966-4.3087 5.1448-0.731 5.335-2.469 13.977-9.121 13.977-6.116 0-9.676-4.641-9.676-12.523z"
     id="path10" />
</svg>
