<?xml version="1.0" encoding="UTF-8" standalone="no"?>
<svg
   xmlns:dc="http://purl.org/dc/elements/1.1/"
   xmlns:cc="http://creativecommons.org/ns#"
   xmlns:rdf="http://www.w3.org/1999/02/22-rdf-syntax-ns#"
   xmlns:svg="http://www.w3.org/2000/svg"
   xmlns="http://www.w3.org/2000/svg"
   xmlns:sodipodi="http://sodipodi.sourceforge.net/DTD/sodipodi-0.dtd"
   xmlns:inkscape="http://www.inkscape.org/namespaces/inkscape"
   width="48"
   height="48"
   version="1"
   id="svg28"
   sodipodi:docname="seahorse.svg"
   inkscape:version="0.92.5 (2060ec1f9f, 2020-04-08)">
  <metadata
     id="metadata34">
    <rdf:RDF>
      <cc:Work
         rdf:about="">
        <dc:format>image/svg+xml</dc:format>
        <dc:type
           rdf:resource="http://purl.org/dc/dcmitype/StillImage" />
      </cc:Work>
    </rdf:RDF>
  </metadata>
  <defs
     id="defs32" />
  <sodipodi:namedview
     pagecolor="#ffffff"
     bordercolor="#666666"
     borderopacity="1"
     objecttolerance="10"
     gridtolerance="10"
     guidetolerance="10"
     inkscape:pageopacity="0"
     inkscape:pageshadow="2"
     inkscape:window-width="765"
     inkscape:window-height="480"
     id="namedview30"
     showgrid="false"
     inkscape:zoom="4.9166667"
     inkscape:cx="21.457627"
     inkscape:cy="24"
     inkscape:window-x="0"
     inkscape:window-y="28"
     inkscape:window-maximized="0"
     inkscape:current-layer="svg28" />
  <path
     style="opacity:0.3"
     d="M 5.1425781,7 C 3.4014353,7 2,8.379433 2,10.091797 V 12.1 H 46 V 10.091797 C 46,8.379433 44.598565,7 42.857422,7 Z M 2,18.9 V 37.908203 C 2,39.620567 3.4014353,41 5.1425781,41 H 42.857422 C 44.598565,41 46,39.620567 46,37.908203 V 18.9 Z"
     id="path2" />
  <path
     style="fill:#4c566a;fill-opacity:1"
     d="M 5.1425781,6 C 3.4014353,6 2,7.379433 2,9.091797 V 12.1 H 46 V 9.091797 C 46,7.379433 44.598565,6 42.857422,6 Z M 2,17.9 V 36.908203 C 2,38.620567 3.4014353,40 5.1425781,40 H 42.857422 C 44.598565,40 46,38.620567 46,36.908203 V 17.9 Z"
     id="path4" />
  <path
     style="opacity:0.2;fill:#ffffff"
     d="M 5.1425781,6 C 3.4014353,6 2,7.379433 2,9.091797 v 1 C 2,8.379433 3.4014353,7 5.1425781,7 H 42.857422 C 44.598565,7 46,8.379433 46,10.091797 v -1 C 46,7.379433 44.598565,6 42.857422,6 Z"
     id="path8" />
  <rect
     style="opacity:0.1"
     width="44"
     height="1"
     x="2"
     y="19"
     id="rect10" />
  <path
     style="opacity:0.2"
     d="m 9,22 -3,3 3,3 z m 1,0 v 6 h 1 v -6 z m 2,0 v 6 h 2 v -6 z m 3,0 v 6 h 1 v -6 z m 2,0 v 6 h 1 v -6 z m 2,0 v 6 h 2 v -6 z m 3,0 v 6 h 2 v -6 z m 3,0 v 6 h 1 v -6 z m 2,0 v 6 h 1 v -6 z m 2,0 v 6 h 1 v -6 z m 2,0 v 6 h 1 v -6 z m 2,0 v 6 h 2 v -6 z m 3,0 v 6 h 1 v -6 z m 2,0 v 6 h 2 v -6 z m 3,0 v 6 h 1 v -6 z"
     id="path12" />
  <rect
     style="fill:#3f3f3f"
     width="44"
     height="7"
     x="2"
     y="12"
     id="rect16" />
  <path
     style="opacity:0.2"
     d="M 16,4 C 9.9248678,4 5,8.9248678 5,15 c 0,4.662125 2.9052024,8.636893 7,10.238281 V 44.822266 L 13,46 h 2.75 l 3.255859,-3.535156 -0.75,-0.78711 0.75,-0.785156 -1.5,-1.570312 1.5,-1.572266 -0.75,-0.785156 0.75,-0.78711 -1.125,-1.177734 1.125,-1.177734 v -1.179688 l -0.75,-0.785156 0.75,-0.785156 V 29.033203 L 21,28.966797 V 24.789062 C 24.559247,22.967538 27,19.272898 27,15 27,8.9248678 22.075132,4 16,4 Z m 0,3.03125 c 1.656822,2e-7 2.999955,1.3361372 3,2.984375 C 18.999955,11.663863 17.656822,13 16,13 c -1.656822,0 -2.999955,-1.336137 -3,-2.984375 4.5e-5,-1.6482378 1.343178,-2.9843748 3,-2.984375 z"
     id="path18" />
  <path
     style="fill:#f0f0f0;fill-opacity:1"
     d="m 12,22.999993 8.999997,2e-6 3e-6,4.967265 -1.994999,0.06548 v 2.038684 l -0.75,0.785715 0.75,0.785715 v 1.178572 l -1.124999,1.178571 1.124999,1.178571 -0.75,0.785715 0.749997,0.785713 -1.499999,1.571428 1.500002,1.571429 -0.75,0.785714 0.75,0.785714 -3.254999,3.535715 L 13.000094,45 12,43.82142 Z"
     id="path20" />
  <path
     style="opacity:0.2"
     d="m 13.293556,25.226181 c 0.634908,-0.486057 1.718376,-0.134456 1.706221,0.553638 L 15.000001,44.999996 13.000094,45 V 25.779819 c -0.0037,-0.207393 0.102131,-0.407111 0.293462,-0.553638 z"
     id="path22" />
  <path
     style="fill:#f0f0f0;fill-opacity:1"
     d="M 16,3 C 9.9248678,3 5,7.9248678 5,14 5,20.075132 9.9248678,25 16,25 22.075132,25 27,20.075132 27,14 27,7.9248678 22.075132,3 16,3 Z m 0,3.031625 c 1.656822,2e-7 2.999955,1.3361372 3,2.984375 -4.5e-5,1.648238 -1.343178,2.984375 -3,2.984375 -1.656822,0 -2.999955,-1.336137 -3,-2.984375 4.5e-5,-1.6482378 1.343178,-2.9843748 3,-2.984375 z"
     id="path24" />
  <path
     style="opacity:0.2;fill:#ffffff"
     d="M 16 3 C 9.9248678 3 5 7.9248678 5 14 C 5 14.168757 5.0178711 14.333099 5.0253906 14.5 C 5.2885682 8.6585867 10.093625 4 16 4 C 21.906375 4 26.711432 8.6585867 26.974609 14.5 C 26.982129 14.333099 27 14.168757 27 14 C 27 7.9248678 22.075132 3 16 3 z M 13.050781 9.515625 C 13.02293 9.6789982 13.000005 9.8443639 13 10.015625 C 13.000045 11.663863 14.343178 13 16 13 C 17.656822 13 18.999955 11.663863 19 10.015625 C 18.999995 9.8443639 18.97707 9.6789982 18.949219 9.515625 C 18.70903 10.924576 17.484669 12 16 12 C 14.515331 12 13.29097 10.924576 13.050781 9.515625 z"
     id="path26" />
</svg>
