<?xml version="1.0" encoding="UTF-8" standalone="no"?>
<svg
   xmlns:dc="http://purl.org/dc/elements/1.1/"
   xmlns:cc="http://creativecommons.org/ns#"
   xmlns:rdf="http://www.w3.org/1999/02/22-rdf-syntax-ns#"
   xmlns:svg="http://www.w3.org/2000/svg"
   xmlns="http://www.w3.org/2000/svg"
   xmlns:sodipodi="http://sodipodi.sourceforge.net/DTD/sodipodi-0.dtd"
   xmlns:inkscape="http://www.inkscape.org/namespaces/inkscape"
   width="48"
   height="48"
   version="1"
   id="svg22"
   sodipodi:docname="security-high.svg"
   inkscape:version="0.92.5 (2060ec1f9f, 2020-04-08)">
  <metadata
     id="metadata28">
    <rdf:RDF>
      <cc:Work
         rdf:about="">
        <dc:format>image/svg+xml</dc:format>
        <dc:type
           rdf:resource="http://purl.org/dc/dcmitype/StillImage" />
      </cc:Work>
    </rdf:RDF>
  </metadata>
  <defs
     id="defs26" />
  <sodipodi:namedview
     pagecolor="#ffffff"
     bordercolor="#666666"
     borderopacity="1"
     objecttolerance="10"
     gridtolerance="10"
     guidetolerance="10"
     inkscape:pageopacity="0"
     inkscape:pageshadow="2"
     inkscape:window-width="765"
     inkscape:window-height="480"
     id="namedview24"
     showgrid="false"
     inkscape:zoom="4.9166667"
     inkscape:cx="24"
     inkscape:cy="24"
     inkscape:window-x="0"
     inkscape:window-y="28"
     inkscape:window-maximized="0"
     inkscape:current-layer="svg22" />
  <g
     style="opacity:0.2"
     transform="matrix(0.11631734,0,0,0.11343,6.2033863,1.9843744)"
     id="g4">
    <path
       d="m 153.00034,26.585781 c -3.08843,0 -6.18237,0.51471 -9.1349,1.556119 L 16.566632,73.029934 c -10.9028258,3.845169 -18.3151784,14.32115 -18.3151784,25.885431 0,49.504535 12.7255444,104.519855 35.0423344,153.636785 18.116448,39.87821 50.50828,94.45406 107.138492,123.62164 3.92272,2.01865 8.25938,3.05239 12.56806,3.05239 4.30867,0 8.64534,-1.03374 12.56805,-3.05239 56.62579,-29.17286 89.00424,-83.7503 107.12337,-123.62164 a 23.108569,23.10857 0 0 0 0.0155,0 c 22.3156,-49.12005 35.04233,-104.13858 35.04233,-153.636785 0,-11.564281 -7.41235,-22.040262 -18.31518,-25.885431 a 23.108569,23.10857 0 0 0 -0.0302,0 L 162.13524,28.1419 c -2.95561,-1.043801 -6.04293,-1.556119 -9.1349,-1.556119 z"
       id="path2" />
  </g>
  <g
     style="fill:#4c566a;fill-opacity:1"
     transform="matrix(0.11631734,0,0,0.11343,6.2033863,0.98437463)"
     id="g8">
    <path
       style="fill:#4c566a;fill-opacity:1"
       d="m 153.00034,26.585781 c -3.08843,0 -6.18237,0.51471 -9.1349,1.556119 L 16.566632,73.029934 c -10.9028258,3.845169 -18.3151784,14.32115 -18.3151784,25.885431 0,49.504535 12.7255444,104.519855 35.0423344,153.636785 18.116448,39.87821 50.50828,94.45406 107.138492,123.62164 3.92272,2.01865 8.25938,3.05239 12.56806,3.05239 4.30867,0 8.64534,-1.03374 12.56805,-3.05239 56.62579,-29.17286 89.00424,-83.7503 107.12337,-123.62164 a 23.108569,23.10857 0 0 0 0.0155,0 c 22.3156,-49.12005 35.04233,-104.13858 35.04233,-153.636785 0,-11.564281 -7.41235,-22.040262 -18.31518,-25.885431 a 23.108569,23.10857 0 0 0 -0.0302,0 L 162.13524,28.1419 c -2.95561,-1.043801 -6.04293,-1.556119 -9.1349,-1.556119 z"
       id="path6" />
  </g>
  <path
     style="opacity:0.2;fill:none;stroke:#000000;stroke-width:4;stroke-linecap:round;stroke-linejoin:round"
     d="m 16,25.000088 7,6 11,-14"
     id="path10" />
  <path
     style="fill:none;stroke:#ffffff;stroke-width:4;stroke-linecap:round;stroke-linejoin:round"
     d="m 16,24 7,6 11,-14"
     id="path12" />
  <g
     style="opacity:0.2;fill:#ffffff"
     transform="matrix(0.11631734,0,0,0.11343,6.2033863,0.98437463)"
     id="g16">
    <path
       style="fill:#ffffff"
       transform="matrix(8.5971705,0,0,8.8160099,-53.331569,-8.6782565)"
       d="M 24,4 C 23.640762,4 23.28093,4.057654 22.9375,4.1757812 L 8.1308594,9.2675781 C 6.8626717,9.7037356 6,10.893342 6,12.205078 c 0,5.6153 1.4803422,11.854448 4.076172,17.425781 2.107257,4.523386 5.875815,10.714959 12.46289,14.023438 C 22.995343,43.883272 23.498826,44 24,44 Z"
       id="path14" />
  </g>
  <g
     style="opacity:0.2;fill:#ffffff"
     transform="matrix(0.11631734,0,0,0.11343,6.2033863,0.98437463)"
     id="g20">
    <path
       style="fill:#ffffff"
       transform="matrix(8.5971705,0,0,8.8160099,-53.331569,-8.6782565)"
       d="m 24,4 c -0.359238,0 -0.71907,0.057654 -1.0625,0.1757812 L 8.1308594,9.2675781 C 6.8626717,9.7037356 6,10.893342 6,12.205078 c 0,0.234809 0.039772,0.483803 0.044922,0.720703 0.1149909,-1.195536 0.9108254,-2.254056 2.0859375,-2.658203 L 22.9375,5.1757812 C 23.28093,5.0576542 23.640762,5 24,5 c 0.35965,0 0.718711,0.057383 1.0625,0.1757812 l 14.802734,5.0917968 a 2.6879273,2.6212051 0 0 1 0.0039,0 c 1.175112,0.404147 1.970946,1.462667 2.085937,2.658203 C 41.960233,12.688799 42,12.439963 42,12.205078 42,10.893342 41.137329,9.7037356 39.869141,9.2675781 a 2.6879273,2.6212051 0 0 0 -0.0039,0 L 25.0625,4.1757812 C 24.718711,4.0573829 24.35965,4 24,4 Z"
       id="path18" />
  </g>
</svg>
