<?xml version="1.0" encoding="UTF-8" standalone="no"?>
<svg
   xmlns:dc="http://purl.org/dc/elements/1.1/"
   xmlns:cc="http://creativecommons.org/ns#"
   xmlns:rdf="http://www.w3.org/1999/02/22-rdf-syntax-ns#"
   xmlns:svg="http://www.w3.org/2000/svg"
   xmlns="http://www.w3.org/2000/svg"
   xmlns:sodipodi="http://sodipodi.sourceforge.net/DTD/sodipodi-0.dtd"
   xmlns:inkscape="http://www.inkscape.org/namespaces/inkscape"
   width="48"
   height="48"
   version="1"
   id="svg12"
   sodipodi:docname="chrome-nmgfcbigejokjgholnnnipegblickgnp-Default.svg"
   inkscape:version="0.92.5 (2060ec1f9f, 2020-04-08)">
  <metadata
     id="metadata18">
    <rdf:RDF>
      <cc:Work
         rdf:about="">
        <dc:format>image/svg+xml</dc:format>
        <dc:type
           rdf:resource="http://purl.org/dc/dcmitype/StillImage" />
      </cc:Work>
    </rdf:RDF>
  </metadata>
  <defs
     id="defs16" />
  <sodipodi:namedview
     pagecolor="#ffffff"
     bordercolor="#666666"
     borderopacity="1"
     objecttolerance="10"
     gridtolerance="10"
     guidetolerance="10"
     inkscape:pageopacity="0"
     inkscape:pageshadow="2"
     inkscape:window-width="783"
     inkscape:window-height="480"
     id="namedview14"
     showgrid="false"
     inkscape:zoom="4.9166667"
     inkscape:cx="-1.1186441"
     inkscape:cy="24"
     inkscape:window-x="0"
     inkscape:window-y="28"
     inkscape:window-maximized="0"
     inkscape:current-layer="svg12" />
  <path
     fill="#3e50b4"
     d="m7.6428 4.0014a3.5382 3.1385 0 0 0 -3.6428 3.1367v33.722a3.5382 3.1385 0 0 0 5.3082 2.7185l16.46-8.431 16.462-8.429a3.5382 3.1385 0 0 0 0 -5.4371l-16.462-8.429-16.46-8.4324a3.5382 3.1385 0 0 0 -1.6652 -0.4182z"
     id="path2"
     style="fill:#4c566a;fill-opacity:1" />
  <path
     opacity=".2"
     d="m23.361 16.001a1.5922 1.4123 0 0 1 1.639 1.411v15.175a1.5922 1.4123 0 0 1 -2.3887 1.2233l-7.407-3.794-7.4075-3.793a1.5922 1.4123 0 0 1 0 -2.4467l7.4077-3.793 7.407-3.7945a1.5922 1.4123 0 0 1 0.74946 -0.18821z"
     id="path4" />
  <path
     fill="#fff"
     d="m23.361 15.001a1.5922 1.4123 0 0 1 1.639 1.411v15.175a1.5922 1.4123 0 0 1 -2.3887 1.2233l-7.407-3.794-7.4075-3.793a1.5922 1.4123 0 0 1 0 -2.4467l7.4077-3.793 7.407-3.7945a1.5922 1.4123 0 0 1 0.74946 -0.18821z"
     id="path6" />
  <path
     fill="#fff"
     opacity=".1"
     d="m7.6426 4.002a3.5382 3.1385 0 0 0 -3.6426 3.1367v0.998a3.5382 3.1385 0 0 1 3.6426 -3.1347 3.5382 3.1385 0 0 1 1.666 0.4179l16.459 8.4321 16.462 8.429a3.5382 3.1385 0 0 1 1.7227 2.2148 3.5382 3.1385 0 0 0 -1.7227 -3.2148l-16.462-8.429-16.459-8.4321a3.5382 3.1385 0 0 0 -1.6664 -0.4179z"
     id="path8" />
  <path
     opacity=".2"
     d="m43.953 24.497a3.5382 3.1385 0 0 1 -1.7227 2.2227l-16.462 8.427-16.459 8.432a3.5382 3.1385 0 0 1 -5.309 -2.717v1a3.5382 3.1385 0 0 0 5.3086 2.7168l16.459-8.432 16.462-8.428a3.5382 3.1385 0 0 0 1.7227 -3.2227z"
     id="path10" />
</svg>
