<?xml version="1.0" encoding="UTF-8" standalone="no"?>
<svg
   xmlns:dc="http://purl.org/dc/elements/1.1/"
   xmlns:cc="http://creativecommons.org/ns#"
   xmlns:rdf="http://www.w3.org/1999/02/22-rdf-syntax-ns#"
   xmlns:svg="http://www.w3.org/2000/svg"
   xmlns="http://www.w3.org/2000/svg"
   xmlns:sodipodi="http://sodipodi.sourceforge.net/DTD/sodipodi-0.dtd"
   xmlns:inkscape="http://www.inkscape.org/namespaces/inkscape"
   width="48"
   height="48"
   version="1"
   id="svg12"
   sodipodi:docname="sirikali.svg"
   inkscape:version="0.92.5 (2060ec1f9f, 2020-04-08)">
  <metadata
     id="metadata18">
    <rdf:RDF>
      <cc:Work
         rdf:about="">
        <dc:format>image/svg+xml</dc:format>
        <dc:type
           rdf:resource="http://purl.org/dc/dcmitype/StillImage" />
      </cc:Work>
    </rdf:RDF>
  </metadata>
  <defs
     id="defs16" />
  <sodipodi:namedview
     pagecolor="#ffffff"
     bordercolor="#666666"
     borderopacity="1"
     objecttolerance="10"
     gridtolerance="10"
     guidetolerance="10"
     inkscape:pageopacity="0"
     inkscape:pageshadow="2"
     inkscape:window-width="783"
     inkscape:window-height="480"
     id="namedview14"
     showgrid="false"
     inkscape:zoom="4.9166667"
     inkscape:cx="-1.1186441"
     inkscape:cy="24"
     inkscape:window-x="0"
     inkscape:window-y="28"
     inkscape:window-maximized="0"
     inkscape:current-layer="svg12" />
  <rect
     style="fill:#4c566a;fill-opacity:1"
     width="40"
     height="40"
     x="4"
     y="4"
     rx="2"
     ry="2"
     id="rect2" />
  <path
     style="opacity:0.2;fill:#ffffff"
     d="M 6,4 C 4.892,4 4,4.892 4,6 L 4,7 C 4,5.892 4.892,5 6,5 l 36,0 c 1.108,0 2,0.892 2,2 L 44,6 C 44,4.892 43.108,4 42,4 L 6,4 Z"
     id="path4" />
  <path
     style="opacity:0.2"
     d="m 4,42 0,1 c 0,1.108 0.892,2 2,2 l 36,0 c 1.108,0 2,-0.892 2,-2 l 0,-1 c 0,1.108 -0.892,2 -2,2 L 6,44 C 4.892,44 4,43.108 4,42 Z"
     id="path6" />
  <path
     style="opacity:0.2"
     d="m 24,12 c -4.432,0 -7,3.503 -7,8 l 0,3 -1.599609,0 C 14.625391,23 14,23.625391 14,24.400391 l 0,12.199218 C 14,37.374609 14.625391,38 15.400391,38 l 17.199218,0 C 33.374609,38 34,37.374609 34,36.599609 L 34,24.400391 C 34,23.625391 33.374609,23 32.599609,23 L 31,23 31,20 c 0,-4.432 -2.568,-8 -7,-8 z m 0,3 c 2.77,0 4,2.23 4,5 l 0,3 -8,0 0,-3 c 0,-2.77 1.23,-5 4,-5 z m 0,11 a 3,3 0 0 1 3,3 3,3 0 0 1 -2.033203,2.835938 C 24.976248,31.891358 25,31.941803 25,32 l 0,3 c 0,0.554 -0.446,1 -1,1 -0.554,0 -1,-0.446 -1,-1 l 0,-3 c 0,-0.0582 0.02375,-0.108641 0.0332,-0.164062 A 3,3 0 0 1 21,29 3,3 0 0 1 24,26 Z"
     id="path8" />
  <path
     style="fill:#ffffff"
     d="M 24 11 C 19.568 11 17 14.503 17 19 L 17 22 L 15.400391 22 C 14.625391 22 14 22.625391 14 23.400391 L 14 35.599609 C 14 36.374609 14.625391 37 15.400391 37 L 32.599609 37 C 33.374609 37 34 36.374609 34 35.599609 L 34 23.400391 C 34 22.625391 33.374609 22 32.599609 22 L 31 22 L 31 19 C 31 14.568 28.432 11 24 11 z M 24 14 C 26.77 14 28 16.23 28 19 L 28 22 L 20 22 L 20 19 C 20 16.23 21.23 14 24 14 z M 24 25 A 3 3 0 0 1 27 28 A 3 3 0 0 1 24.966797 30.835938 C 24.976248 30.891358 25 30.941803 25 31 L 25 34 C 25 34.554 24.554 35 24 35 C 23.446 35 23 34.554 23 34 L 23 31 C 23 30.941803 23.023752 30.891359 23.033203 30.835938 A 3 3 0 0 1 21 28 A 3 3 0 0 1 24 25 z"
     id="path10" />
</svg>
