<?xml version="1.0" encoding="UTF-8" standalone="no"?>
<svg
   xmlns:dc="http://purl.org/dc/elements/1.1/"
   xmlns:cc="http://creativecommons.org/ns#"
   xmlns:rdf="http://www.w3.org/1999/02/22-rdf-syntax-ns#"
   xmlns:svg="http://www.w3.org/2000/svg"
   xmlns="http://www.w3.org/2000/svg"
   xmlns:sodipodi="http://sodipodi.sourceforge.net/DTD/sodipodi-0.dtd"
   xmlns:inkscape="http://www.inkscape.org/namespaces/inkscape"
   width="48"
   height="48"
   version="1"
   id="svg12"
   sodipodi:docname="skydrive.svg"
   inkscape:version="0.92.5 (2060ec1f9f, 2020-04-08)">
  <metadata
     id="metadata18">
    <rdf:RDF>
      <cc:Work
         rdf:about="">
        <dc:format>image/svg+xml</dc:format>
        <dc:type
           rdf:resource="http://purl.org/dc/dcmitype/StillImage" />
      </cc:Work>
    </rdf:RDF>
  </metadata>
  <defs
     id="defs16" />
  <sodipodi:namedview
     pagecolor="#ffffff"
     bordercolor="#666666"
     borderopacity="1"
     objecttolerance="10"
     gridtolerance="10"
     guidetolerance="10"
     inkscape:pageopacity="0"
     inkscape:pageshadow="2"
     inkscape:window-width="783"
     inkscape:window-height="480"
     id="namedview14"
     showgrid="false"
     inkscape:zoom="4.9166667"
     inkscape:cx="24"
     inkscape:cy="24"
     inkscape:window-x="0"
     inkscape:window-y="28"
     inkscape:window-maximized="0"
     inkscape:current-layer="svg12" />
  <path
     fill="#a1bde8"
     d="m20 8c-4.142 0-7.669 2.536-9.188 6.125-3.8552 0.573-6.812 3.86-6.812 7.875 0 4.4183 3.5817 8 8 8h17c3.866 0 7-3.134 7-7 0-3.5931-2.7016-6.5374-6.1875-6.9375-0.909-4.586-4.958-8.062-9.812-8.062z"
     id="path2"
     style="fill:#5f697d;fill-opacity:1" />
  <path
     fill="#fff"
     opacity=".1"
     d="m20 8c-4.142 0-7.669 2.536-9.188 6.125-3.8552 0.573-6.812 3.86-6.812 7.875 0 0.159 0.0143 0.314 0.0234 0.471 0.2474-3.771 3.1048-6.798 6.7886-7.346 1.519-3.589 5.046-6.125 9.188-6.125 4.8537 0 8.9034 3.4757 9.8125 8.0625 3.314 0.38037 5.9133 3.0614 6.1621 6.4121 0.01-0.158 0.025-0.315 0.025-0.475 0-3.593-2.702-6.537-6.188-6.938-0.909-4.586-4.958-8.062-9.812-8.062z"
     id="path4" />
  <path
     opacity=".2"
     d="m4.0234 22.471c-0.0115 0.175-0.0234 0.351-0.0234 0.529 0 4.4183 3.5817 8 8 8h17c3.866 0 7-3.134 7-7 0-0.17716-0.01248-0.35161-0.02539-0.52539-0.246 3.643-3.269 6.525-6.975 6.525h-17c-4.2595 0-7.7317-3.331-7.9766-7.529z"
     id="path6" />
  <path
     fill="#5481c5"
     d="m28 18c-4.1421 0-7.6694 2.5358-9.1875 6.125-3.855 0.573-6.812 3.86-6.812 7.875 0 4.4183 3.5817 8 8 8h17c3.866 0 7-3.134 7-7 0-3.5931-2.7016-6.5374-6.1875-6.9375-0.909-4.586-4.958-8.062-9.812-8.062z"
     id="path8"
     style="fill:#4c566a;fill-opacity:1" />
  <path
     opacity=".2"
     d="m12.023 32.471c-0.011 0.175-0.023 0.351-0.023 0.529 0 4.4183 3.5817 8 8 8h17c3.866 0 7-3.134 7-7 0-0.17716-0.01248-0.35161-0.02539-0.52539-0.246 3.643-3.269 6.525-6.975 6.525h-17c-4.2595 0-7.7317-3.3312-7.9766-7.5293z"
     id="path10" />
</svg>
