<?xml version="1.0" encoding="UTF-8" standalone="no"?>
<svg
   xmlns:dc="http://purl.org/dc/elements/1.1/"
   xmlns:cc="http://creativecommons.org/ns#"
   xmlns:rdf="http://www.w3.org/1999/02/22-rdf-syntax-ns#"
   xmlns:svg="http://www.w3.org/2000/svg"
   xmlns="http://www.w3.org/2000/svg"
   xmlns:sodipodi="http://sodipodi.sourceforge.net/DTD/sodipodi-0.dtd"
   xmlns:inkscape="http://www.inkscape.org/namespaces/inkscape"
   width="48"
   height="48"
   version="1"
   id="svg12"
   sodipodi:docname="slic3r.svg"
   inkscape:version="0.92.5 (2060ec1f9f, 2020-04-08)">
  <metadata
     id="metadata18">
    <rdf:RDF>
      <cc:Work
         rdf:about="">
        <dc:format>image/svg+xml</dc:format>
        <dc:type
           rdf:resource="http://purl.org/dc/dcmitype/StillImage" />
      </cc:Work>
    </rdf:RDF>
  </metadata>
  <defs
     id="defs16" />
  <sodipodi:namedview
     pagecolor="#ffffff"
     bordercolor="#666666"
     borderopacity="1"
     objecttolerance="10"
     gridtolerance="10"
     guidetolerance="10"
     inkscape:pageopacity="0"
     inkscape:pageshadow="2"
     inkscape:window-width="765"
     inkscape:window-height="480"
     id="namedview14"
     showgrid="false"
     inkscape:zoom="4.9166667"
     inkscape:cx="24"
     inkscape:cy="24"
     inkscape:window-x="0"
     inkscape:window-y="28"
     inkscape:window-maximized="0"
     inkscape:current-layer="svg12" />
  <path
     style="opacity:0.2"
     d="M 32.277344,16.722656 9.7226562,39.277344 C 12.653114,42.778354 17.056484,45 22,45 30.864,45 38,37.864 38,29 38,24.056484 35.778354,19.653114 32.277344,16.722656 Z"
     id="path2" />
  <path
     style="fill:#4c566a;fill-opacity:1"
     d="M 32.277344 15.722656 L 9.7226562 38.277344 C 12.653114 41.778354 17.056484 44 22 44 C 30.864 44 38 36.864 38 28 C 38 23.056484 35.778354 18.653114 32.277344 15.722656 z"
     id="path4" />
  <path
     style="opacity:0.2"
     d="m 26,5 c -8.864,0 -16,7.136 -16,16 0,4.943516 2.221646,9.346886 5.722656,12.277344 L 38.277344,10.722656 C 35.346886,7.221646 30.943516,5 26,5 Z"
     id="path6" />
  <path
     style="fill:#5f697d;fill-opacity:1"
     d="M 26 4 C 17.136 4 10 11.136 10 20 C 10 24.943516 12.221646 29.346886 15.722656 32.277344 L 38.277344 9.7226562 C 35.346886 6.221646 30.943516 4 26 4 z"
     id="path8" />
  <path
     style="opacity:0.2;fill:#ffffff"
     d="M 26 4 C 17.136 4 10 11.136 10 20 C 10 20.216474 10.009137 20.430207 10.017578 20.644531 C 10.207244 11.947705 17.25603 5 26 5 C 30.687958 5 34.873906 7.0128798 37.794922 10.205078 L 38.277344 9.7226562 C 35.346886 6.2216461 30.943516 4 26 4 z"
     id="path10" />
</svg>
