<?xml version="1.0" encoding="UTF-8" standalone="no"?>
<svg
   xmlns:dc="http://purl.org/dc/elements/1.1/"
   xmlns:cc="http://creativecommons.org/ns#"
   xmlns:rdf="http://www.w3.org/1999/02/22-rdf-syntax-ns#"
   xmlns:svg="http://www.w3.org/2000/svg"
   xmlns="http://www.w3.org/2000/svg"
   xmlns:sodipodi="http://sodipodi.sourceforge.net/DTD/sodipodi-0.dtd"
   xmlns:inkscape="http://www.inkscape.org/namespaces/inkscape"
   width="48"
   height="48"
   version="1"
   id="svg20"
   sodipodi:docname="slimjet.svg"
   inkscape:version="0.92.5 (2060ec1f9f, 2020-04-08)">
  <metadata
     id="metadata26">
    <rdf:RDF>
      <cc:Work
         rdf:about="">
        <dc:format>image/svg+xml</dc:format>
        <dc:type
           rdf:resource="http://purl.org/dc/dcmitype/StillImage" />
      </cc:Work>
    </rdf:RDF>
  </metadata>
  <defs
     id="defs24" />
  <sodipodi:namedview
     pagecolor="#ffffff"
     bordercolor="#666666"
     borderopacity="1"
     objecttolerance="10"
     gridtolerance="10"
     guidetolerance="10"
     inkscape:pageopacity="0"
     inkscape:pageshadow="2"
     inkscape:window-width="783"
     inkscape:window-height="480"
     id="namedview22"
     showgrid="false"
     inkscape:zoom="4.9166667"
     inkscape:cx="24"
     inkscape:cy="24"
     inkscape:window-x="0"
     inkscape:window-y="28"
     inkscape:window-maximized="0"
     inkscape:current-layer="svg20" />
  <rect
     fill="#37a0f2"
     width="40"
     height="40"
     x="4"
     y="4"
     rx="20"
     ry="20"
     id="rect2"
     style="fill:#4c566a;fill-opacity:1" />
  <path
     fill="#fff"
     opacity=".2"
     d="m24 4.0182c-11.07 0-19.982 8.9119-19.982 19.982 0 0.16757-0.004 0.33299 0 0.49955 0.2644-10.837 9.08-19.483 19.982-19.483s19.718 8.6458 19.982 19.482c0.004-0.16656 0-0.33198 0-0.49955 0-11.069-8.912-19.981-19.982-19.981z"
     id="path4" />
  <path
     opacity=".2"
     d="m4.0117 24.5c-0.0041 0.167-0.0117 0.332-0.0117 0.5 0 11.08 8.92 20 20 20s20-8.92 20-20c0-0.168-0.008-0.333-0.012-0.5-0.264 10.846-9.076 19.5-19.988 19.5s-19.724-8.654-19.988-19.5z"
     id="path6" />
  <g
     opacity=".2"
     transform="matrix(.031936 -.033415 -.032012 -.033495 21.698 40.315)"
     id="g12">
    <g
       id="g10">
      <path
         d="m452.77 4.923-154.96 95.257-306.8 37.61 212.64 56.54-94.32 123.97-106.83-12.85 106.13 43.4 43.51 105.87-12.89-106.56 124.84-94.71 56.11 212.74 37.4-306.25 95.16-155.02z"
         id="path8" />
    </g>
  </g>
  <g
     fill="#fff"
     transform="matrix(.031936 -.033415 -.032012 -.033495 21.698 39.315)"
     id="g18">
    <g
       id="g16">
      <path
         d="m452.77 4.923-154.96 95.257-306.8 37.61 212.64 56.54-94.32 123.97-106.83-12.85 106.13 43.4 43.51 105.87-12.89-106.56 124.84-94.71 56.11 212.74 37.4-306.25 95.16-155.02z"
         id="path14" />
    </g>
  </g>
</svg>
