<?xml version="1.0" encoding="UTF-8" standalone="no"?>
<svg
   xmlns:dc="http://purl.org/dc/elements/1.1/"
   xmlns:cc="http://creativecommons.org/ns#"
   xmlns:rdf="http://www.w3.org/1999/02/22-rdf-syntax-ns#"
   xmlns:svg="http://www.w3.org/2000/svg"
   xmlns="http://www.w3.org/2000/svg"
   xmlns:sodipodi="http://sodipodi.sourceforge.net/DTD/sodipodi-0.dtd"
   xmlns:inkscape="http://www.inkscape.org/namespaces/inkscape"
   width="48"
   height="48"
   version="1.1"
   id="svg18"
   sodipodi:docname="appimagekit-smplayer.svg"
   inkscape:version="0.92.5 (2060ec1f9f, 2020-04-08)">
  <metadata
     id="metadata24">
    <rdf:RDF>
      <cc:Work
         rdf:about="">
        <dc:format>image/svg+xml</dc:format>
        <dc:type
           rdf:resource="http://purl.org/dc/dcmitype/StillImage" />
      </cc:Work>
    </rdf:RDF>
  </metadata>
  <defs
     id="defs22" />
  <sodipodi:namedview
     pagecolor="#ffffff"
     bordercolor="#666666"
     borderopacity="1"
     objecttolerance="10"
     gridtolerance="10"
     guidetolerance="10"
     inkscape:pageopacity="0"
     inkscape:pageshadow="2"
     inkscape:window-width="765"
     inkscape:window-height="480"
     id="namedview20"
     showgrid="false"
     inkscape:zoom="4.9166667"
     inkscape:cx="24"
     inkscape:cy="24"
     inkscape:window-x="0"
     inkscape:window-y="28"
     inkscape:window-maximized="0"
     inkscape:current-layer="svg18" />
  <path
     fill="#4f4f4f"
     d="m38 24a14 14 0 0 1 -14 14 14 14 0 0 1 -14 -14 14 14 0 0 1 14 -14 14 14 0 0 1 14 14z"
     id="path2"
     style="fill:#ffffff;fill-opacity:1" />
  <path
     fill="#e4e4e4"
     d="m24 4c-11.08 0-20 8.92-20 20s8.92 20 20 20 20-8.92 20-20-8.92-20-20-20zm0 3a6 6 0 0 1 6 6 6 6 0 0 1 -6 6 6 6 0 0 1 -6 -6 6 6 0 0 1 6 -6zm-11 11a6 6 0 0 1 6 6 6 6 0 0 1 -6 6 6 6 0 0 1 -6 -6 6 6 0 0 1 6 -6zm22 0a6 6 0 0 1 6 6 6 6 0 0 1 -6 6 6 6 0 0 1 -6 -6 6 6 0 0 1 6 -6zm-11 11a6 6 0 0 1 6 6 6 6 0 0 1 -6 6 6 6 0 0 1 -6 -6 6 6 0 0 1 6 -6z"
     id="path4"
     style="fill:#4c566a;fill-opacity:1" />
  <path
     fill="#4f4f4f"
     d="m23.366 20.9a1 1 0 0 1 -0.366 1.366 1 1 0 0 1 -1.366 -0.366 1 1 0 0 1 0.366 -1.366 1 1 0 0 1 1.366 0.366z"
     id="path6" />
  <path
     fill="#4f4f4f"
     d="m26.366 26.1a1 1 0 0 1 -0.366 1.366 1 1 0 0 1 -1.366 -0.366 1 1 0 0 1 0.366 -1.366 1 1 0 0 1 1.366 0.366z"
     id="path8" />
  <path
     fill="#4f4f4f"
     d="m27.098 23.3a1 1 0 0 1 -1.366 -0.366 1 1 0 0 1 0.366 -1.366 1 1 0 0 1 1.366 0.366 1 1 0 0 1 -0.366 1.366z"
     id="path10" />
  <path
     fill="#4f4f4f"
     d="m21.902 26.3a1 1 0 0 1 -1.366 -0.366 1 1 0 0 1 0.366 -1.366 1 1 0 0 1 1.366 0.366 1 1 0 0 1 -0.366 1.366z"
     id="path12" />
  <path
     fill="#fff"
     opacity=".2"
     d="m24 4c-11.08 0-20 8.92-20 20 0 0.168 0.0076 0.333 0.0117 0.5 0.2647-10.846 9.0763-19.5 19.988-19.5s19.724 8.654 19.988 19.5c0.004-0.167 0.012-0.332 0.012-0.5 0-11.08-8.92-20-20-20zm-5.9746 9.498a6 6 0 0 0 -0.025 0.502 6 6 0 0 0 6 6 6 6 0 0 0 6 -6 6 6 0 0 0 -0.025 -0.498 6 6 0 0 1 -5.975 5.498 6 6 0 0 1 -5.975 -5.502zm-11 11a6 6 0 0 0 -0.0246 0.502 6 6 0 0 0 6 6 6 6 0 0 0 6 -6 6 6 0 0 0 -0.025 -0.498 6 6 0 0 1 -5.975 5.498 6 6 0 0 1 -5.9742 -5.502zm22 0a6 6 0 0 0 -0.025 0.502 6 6 0 0 0 6 6 6 6 0 0 0 6 -6 6 6 0 0 0 -0.025 -0.498 6 6 0 0 1 -5.975 5.498 6 6 0 0 1 -5.975 -5.502zm-11 11a6 6 0 0 0 -0.025 0.502 6 6 0 0 0 6 6 6 6 0 0 0 6 -6 6 6 0 0 0 -0.025 -0.498 6 6 0 0 1 -5.975 5.498 6 6 0 0 1 -5.975 -5.502z"
     id="path14" />
  <path
     opacity=".2"
     d="m24 7a6 6 0 0 0 -6 6 6 6 0 0 0 0.02539 0.4981 6 6 0 0 1 5.975 -5.498 6 6 0 0 1 5.975 5.502 6 6 0 0 0 0.025 -0.502 6 6 0 0 0 -6 -6zm-11 11a6 6 0 0 0 -6 6 6 6 0 0 0 0.0254 0.498 6 6 0 0 1 5.9746 -5.498 6 6 0 0 1 5.975 5.502 6 6 0 0 0 0.025 -0.502 6 6 0 0 0 -6 -6zm22 0a6 6 0 0 0 -6 6 6 6 0 0 0 0.02539 0.4981 6 6 0 0 1 5.975 -5.498 6 6 0 0 1 5.975 5.502 6 6 0 0 0 0.025 -0.502 6 6 0 0 0 -6 -6zm-30.988 6.5c-0.0041 0.167-0.0117 0.332-0.0117 0.5 0 11.08 8.92 20 20 20s20-8.92 20-20c0-0.1679-0.0076-0.3331-0.01172-0.5-0.264 10.846-9.076 19.5-19.988 19.5s-19.724-8.654-19.988-19.5zm19.988 4.5a6 6 0 0 0 -6 6 6 6 0 0 0 0.02539 0.4981 6 6 0 0 1 5.975 -5.498 6 6 0 0 1 5.975 5.502 6 6 0 0 0 0.025 -0.502 6 6 0 0 0 -6 -6z"
     id="path16" />
</svg>
