<?xml version="1.0" encoding="UTF-8" standalone="no"?>
<svg
   xmlns:dc="http://purl.org/dc/elements/1.1/"
   xmlns:cc="http://creativecommons.org/ns#"
   xmlns:rdf="http://www.w3.org/1999/02/22-rdf-syntax-ns#"
   xmlns:svg="http://www.w3.org/2000/svg"
   xmlns="http://www.w3.org/2000/svg"
   xmlns:sodipodi="http://sodipodi.sourceforge.net/DTD/sodipodi-0.dtd"
   xmlns:inkscape="http://www.inkscape.org/namespaces/inkscape"
   width="48"
   height="48"
   version="1"
   id="svg12"
   sodipodi:docname="solaar.svg"
   inkscape:version="0.92.5 (2060ec1f9f, 2020-04-08)">
  <metadata
     id="metadata18">
    <rdf:RDF>
      <cc:Work
         rdf:about="">
        <dc:format>image/svg+xml</dc:format>
        <dc:type
           rdf:resource="http://purl.org/dc/dcmitype/StillImage" />
      </cc:Work>
    </rdf:RDF>
  </metadata>
  <defs
     id="defs16" />
  <sodipodi:namedview
     pagecolor="#ffffff"
     bordercolor="#666666"
     borderopacity="1"
     objecttolerance="10"
     gridtolerance="10"
     guidetolerance="10"
     inkscape:pageopacity="0"
     inkscape:pageshadow="2"
     inkscape:window-width="765"
     inkscape:window-height="480"
     id="namedview14"
     showgrid="false"
     inkscape:zoom="4.9166667"
     inkscape:cx="24"
     inkscape:cy="24"
     inkscape:window-x="0"
     inkscape:window-y="28"
     inkscape:window-maximized="0"
     inkscape:current-layer="svg12" />
  <rect
     style="opacity:0.2"
     width="40"
     height="40"
     x="4"
     y="5"
     rx="12"
     ry="12"
     id="rect2" />
  <rect
     style="fill:#4c566a;fill-opacity:1"
     width="40"
     height="40"
     x="4"
     y="4"
     rx="12"
     ry="12"
     id="rect4" />
  <path
     style="opacity:0.2"
     d="m 18.732422,11.875 -3.464844,2 3.128906,5.417969 A 8,8 0 0 0 16.265625,23 L 10,23 l 0,4 6.259766,0 a 8,8 0 0 0 2.138672,3.701172 l -3.13086,5.423828 3.464844,2 3.130859,-5.423828 A 8,8 0 0 0 24,33 8,8 0 0 0 26.140625,32.708984 l 3.126953,5.416016 3.464844,-2 -3.128906,-5.417969 A 8,8 0 0 0 31.734375,27 L 38,27 l 0,-4 -6.259766,0 a 8,8 0 0 0 -2.138672,-3.701172 l 3.13086,-5.423828 -3.464844,-2 -3.130859,5.423828 A 8,8 0 0 0 24,17 8,8 0 0 0 21.859375,17.291016 L 18.732422,11.875 Z M 24,20 a 5,5 0 0 1 5,5 5,5 0 0 1 -5,5 5,5 0 0 1 -5,-5 5,5 0 0 1 5,-5 z"
     id="path6" />
  <path
     style="fill:#ffffff"
     d="M 18.732422 10.875 L 15.267578 12.875 L 18.396484 18.292969 A 8 8 0 0 0 16.265625 22 L 10 22 L 10 26 L 16.259766 26 A 8 8 0 0 0 18.398438 29.701172 L 15.267578 35.125 L 18.732422 37.125 L 21.863281 31.701172 A 8 8 0 0 0 24 32 A 8 8 0 0 0 26.140625 31.708984 L 29.267578 37.125 L 32.732422 35.125 L 29.603516 29.707031 A 8 8 0 0 0 31.734375 26 L 38 26 L 38 22 L 31.740234 22 A 8 8 0 0 0 29.601562 18.298828 L 32.732422 12.875 L 29.267578 10.875 L 26.136719 16.298828 A 8 8 0 0 0 24 16 A 8 8 0 0 0 21.859375 16.291016 L 18.732422 10.875 z M 24 19 A 5 5 0 0 1 29 24 A 5 5 0 0 1 24 29 A 5 5 0 0 1 19 24 A 5 5 0 0 1 24 19 z"
     id="path8" />
  <path
     style="fill:#ffffff;opacity:0.2"
     d="M 16 4 C 9.352 4 4 9.352 4 16 L 4 17 C 4 10.352 9.352 5 16 5 L 32 5 C 38.648 5 44 10.352 44 17 L 44 16 C 44 9.352 38.648 4 32 4 L 16 4 z"
     id="path10" />
</svg>
