<?xml version="1.0" encoding="UTF-8" standalone="no"?>
<svg
   xmlns:dc="http://purl.org/dc/elements/1.1/"
   xmlns:cc="http://creativecommons.org/ns#"
   xmlns:rdf="http://www.w3.org/1999/02/22-rdf-syntax-ns#"
   xmlns:svg="http://www.w3.org/2000/svg"
   xmlns="http://www.w3.org/2000/svg"
   xmlns:sodipodi="http://sodipodi.sourceforge.net/DTD/sodipodi-0.dtd"
   xmlns:inkscape="http://www.inkscape.org/namespaces/inkscape"
   width="48"
   height="48"
   version="1.1"
   id="svg26"
   sodipodi:docname="solarus-launcher.svg"
   inkscape:version="0.92.5 (2060ec1f9f, 2020-04-08)">
  <metadata
     id="metadata32">
    <rdf:RDF>
      <cc:Work
         rdf:about="">
        <dc:format>image/svg+xml</dc:format>
        <dc:type
           rdf:resource="http://purl.org/dc/dcmitype/StillImage" />
      </cc:Work>
    </rdf:RDF>
  </metadata>
  <defs
     id="defs30" />
  <sodipodi:namedview
     pagecolor="#ffffff"
     bordercolor="#666666"
     borderopacity="1"
     objecttolerance="10"
     gridtolerance="10"
     guidetolerance="10"
     inkscape:pageopacity="0"
     inkscape:pageshadow="2"
     inkscape:window-width="765"
     inkscape:window-height="480"
     id="namedview28"
     showgrid="false"
     inkscape:zoom="4.9166667"
     inkscape:cx="13.195576"
     inkscape:cy="30.907513"
     inkscape:window-x="0"
     inkscape:window-y="28"
     inkscape:window-maximized="0"
     inkscape:current-layer="svg26" />
  <path
     style="opacity:0.2"
     d="M 12,15 A 10,10 0 0 0 2,25 10,10 0 0 0 12,35 10,10 0 0 0 19.128906,32 h 9.732422 A 10,10 0 0 0 36,35 10,10 0 0 0 46,25 10,10 0 0 0 36,15 Z"
     id="path2" />
  <rect
     style="fill:#4c566a;fill-opacity:1"
     width="24"
     height="17"
     x="12"
     y="14"
     id="rect4" />
  <circle
     style="fill:#4c566a;fill-opacity:1"
     cx="12"
     cy="24"
     r="10"
     id="circle6" />
  <circle
     style="fill:#4c566a;fill-opacity:1"
     cx="36"
     cy="24"
     r="10"
     id="circle8" />
  <path
     style="opacity:0.2"
     d="m 11,19 c -0.554,0 -1,0.446 -1,1 v 3 H 7 c -0.554,0 -1,0.446 -1,1 v 2 c 0,0.554 0.446,1 1,1 h 3 v 3 c 0,0.554 0.446,1 1,1 h 2 c 0.554,0 1,-0.446 1,-1 v -3 h 3 c 0.554,0 1,-0.446 1,-1 v -2 c 0,-0.554 -0.446,-1 -1,-1 h -3 v -3 c 0,-0.554 -0.446,-1 -1,-1 z m 25,0 a 2,2 0 0 0 -2,2 2,2 0 0 0 2,2 2,2 0 0 0 2,-2 2,2 0 0 0 -2,-2 z m -4,4 a 2,2 0 0 0 -2,2 2,2 0 0 0 2,2 2,2 0 0 0 2,-2 2,2 0 0 0 -2,-2 z m 8,0 a 2,2 0 0 0 -2,2 2,2 0 0 0 2,2 2,2 0 0 0 2,-2 2,2 0 0 0 -2,-2 z m -4,4 a 2,2 0 0 0 -2,2 2,2 0 0 0 2,2 2,2 0 0 0 2,-2 2,2 0 0 0 -2,-2 z"
     id="path10" />
  <rect
     style="fill:#ffffff"
     width="4"
     height="12"
     x="10"
     y="18"
     rx="1"
     ry="1"
     id="rect12" />
  <rect
     style="fill:#ffffff"
     width="4"
     height="12"
     x="22"
     y="-18"
     rx="1"
     ry="1"
     transform="rotate(90)"
     id="rect14" />
  <circle
     style="fill:#ffffff"
     cx="36"
     cy="20"
     r="2"
     id="circle16" />
  <circle
     style="fill:#ffffff"
     cx="36"
     cy="28"
     r="2"
     id="circle18" />
  <circle
     style="fill:#ffffff"
     cx="24"
     cy="-40"
     r="2"
     transform="rotate(90)"
     id="circle20" />
  <circle
     style="fill:#ffffff"
     cx="24"
     cy="-32"
     r="2"
     transform="rotate(90)"
     id="circle22" />
  <path
     style="opacity:0.2;fill:#ffffff"
     d="M 12 14 A 10 10 0 0 0 2 24 A 10 10 0 0 0 2.0214844 24.414062 A 10 10 0 0 1 12 15 L 36 15 A 10 10 0 0 1 45.978516 24.585938 A 10 10 0 0 0 46 24 A 10 10 0 0 0 36 14 L 12 14 z"
     id="path24" />
</svg>
