<?xml version="1.0" encoding="UTF-8" standalone="no"?>
<svg
   xmlns:dc="http://purl.org/dc/elements/1.1/"
   xmlns:cc="http://creativecommons.org/ns#"
   xmlns:rdf="http://www.w3.org/1999/02/22-rdf-syntax-ns#"
   xmlns:svg="http://www.w3.org/2000/svg"
   xmlns="http://www.w3.org/2000/svg"
   xmlns:sodipodi="http://sodipodi.sourceforge.net/DTD/sodipodi-0.dtd"
   xmlns:inkscape="http://www.inkscape.org/namespaces/inkscape"
   width="48"
   height="48"
   version="1"
   id="svg16"
   sodipodi:docname="sound-recorder.svg"
   inkscape:version="0.92.5 (2060ec1f9f, 2020-04-08)">
  <metadata
     id="metadata22">
    <rdf:RDF>
      <cc:Work
         rdf:about="">
        <dc:format>image/svg+xml</dc:format>
        <dc:type
           rdf:resource="http://purl.org/dc/dcmitype/StillImage" />
      </cc:Work>
    </rdf:RDF>
  </metadata>
  <defs
     id="defs20" />
  <sodipodi:namedview
     pagecolor="#ffffff"
     bordercolor="#666666"
     borderopacity="1"
     objecttolerance="10"
     gridtolerance="10"
     guidetolerance="10"
     inkscape:pageopacity="0"
     inkscape:pageshadow="2"
     inkscape:window-width="783"
     inkscape:window-height="480"
     id="namedview18"
     showgrid="false"
     inkscape:zoom="4.9166667"
     inkscape:cx="24"
     inkscape:cy="24"
     inkscape:window-x="0"
     inkscape:window-y="28"
     inkscape:window-maximized="0"
     inkscape:current-layer="svg16" />
  <rect
     fill="#e05048"
     width="40"
     height="40"
     x="4"
     y="4"
     rx="20"
     ry="20"
     id="rect2"
     style="fill:#4c566a;fill-opacity:1" />
  <path
     fill="#fff"
     opacity=".2"
     d="m24 4c-11.08 0-20 8.92-20 20 0 0.168-0.004 0.333 0 0.5 0.2644-10.846 9.088-19.5 20-19.5s19.736 8.654 20 19.5c0.004-0.167 0-0.332 0-0.5 0-11.08-8.92-20-20-20z"
     id="path4" />
  <g
     opacity=".2"
     style="enable-background:new"
     transform="matrix(1.5,0,0,1.5,-505.5,637)"
     id="g8">
    <path
       transform="matrix(.66667 0 0 .66667 246.33 -530.67)"
       d="m160 173c-2.216 0-4 1.784-4 4v8c0 2.216 1.784 4 4 4s4-1.784 4-4v-8c0-2.216-1.784-4-4-4zm-8 10v2c0 4.135 3.0527 7.5163 7 7.9512v3.0488h2v-3.0488c3.9473-0.43487 7-3.8162 7-7.9512v-2h-2v2c0 3.324-2.676 6-6 6s-6-2.676-6-6v-2h-2z"
       id="path6" />
  </g>
  <g
     fill="#fff"
     style="enable-background:new"
     transform="matrix(1.5,0,0,1.5,-505.5,636)"
     id="g12">
    <path
       transform="matrix(.66667 0 0 .66667 246.33 -530.67)"
       d="m160 173c-2.216 0-4 1.784-4 4v8c0 2.216 1.784 4 4 4s4-1.784 4-4v-8c0-2.216-1.784-4-4-4zm-8 10v2c0 4.135 3.0527 7.5163 7 7.9512v3.0488h2v-3.0488c3.9473-0.43487 7-3.8162 7-7.9512v-2h-2v2c0 3.324-2.676 6-6 6s-6-2.676-6-6v-2h-2z"
       id="path10" />
  </g>
  <path
     opacity=".2"
     d="m4.0117 24.5c-0.0041 0.167-0.0117 0.332-0.0117 0.5 0 11.08 8.92 20 20 20s20-8.92 20-20c0-0.168-0.008-0.333-0.012-0.5-0.264 10.846-9.076 19.5-19.988 19.5s-19.724-8.654-19.988-19.5z"
     id="path14" />
</svg>
