<?xml version="1.0" encoding="UTF-8" standalone="no"?>
<svg
   xmlns:dc="http://purl.org/dc/elements/1.1/"
   xmlns:cc="http://creativecommons.org/ns#"
   xmlns:rdf="http://www.w3.org/1999/02/22-rdf-syntax-ns#"
   xmlns:svg="http://www.w3.org/2000/svg"
   xmlns="http://www.w3.org/2000/svg"
   xmlns:sodipodi="http://sodipodi.sourceforge.net/DTD/sodipodi-0.dtd"
   xmlns:inkscape="http://www.inkscape.org/namespaces/inkscape"
   width="48"
   height="48"
   version="1"
   id="svg18"
   sodipodi:docname="org.soundconverter.SoundConverter.svg"
   inkscape:version="0.92.5 (2060ec1f9f, 2020-04-08)">
  <metadata
     id="metadata24">
    <rdf:RDF>
      <cc:Work
         rdf:about="">
        <dc:format>image/svg+xml</dc:format>
        <dc:type
           rdf:resource="http://purl.org/dc/dcmitype/StillImage" />
      </cc:Work>
    </rdf:RDF>
  </metadata>
  <defs
     id="defs22" />
  <sodipodi:namedview
     pagecolor="#ffffff"
     bordercolor="#666666"
     borderopacity="1"
     objecttolerance="10"
     gridtolerance="10"
     guidetolerance="10"
     inkscape:pageopacity="0"
     inkscape:pageshadow="2"
     inkscape:window-width="783"
     inkscape:window-height="480"
     id="namedview20"
     showgrid="false"
     inkscape:zoom="4.9166667"
     inkscape:cx="24"
     inkscape:cy="24"
     inkscape:window-x="0"
     inkscape:window-y="28"
     inkscape:window-maximized="0"
     inkscape:current-layer="svg18" />
  <rect
     style="opacity:0.2"
     width="40"
     height="40"
     x="4"
     y="5"
     rx="12"
     ry="12"
     id="rect2" />
  <rect
     style="fill:#4c566a;fill-opacity:1"
     width="40"
     height="40"
     x="4"
     y="4"
     rx="12"
     ry="12"
     id="rect4" />
  <path
     opacity=".2"
     d="m24.026 12c2.735 0.006 5.5083 0.85839 7.6746 2.5456 1.5229 1.7544-1.3789 3.6333-2.6858 1.9226-3.9343-2.3806-9.4829-1.5424-12.443 2.0167-1.5749 1.7662-2.4622 4.1231-2.4518 6.4891h2.6l-4.16 6.24-4.16-6.24h2.6c-0.083-5.649 3.98-11.023 9.435-12.486 1.17-0.321 2.376-0.501 3.591-0.488zm11.414 6.76 4.16 6.24h-2.6c0.0737 5.7169-4.093 11.151-9.6433 12.537-3.7452 1.0459-7.9801 0.2827-11.058-2.1101-1.5705-1.7837 1.3716-3.6445 2.6907-1.9181 3.8119 2.3127 9.1499 1.5792 12.159-1.724 1.742-1.795 2.744-4.283 2.731-6.785h-2.6l4.16-6.24z"
     id="path6" />
  <path
     fill="#fff"
     d="m24.026 11c2.735 0.006 5.5083 0.85839 7.6746 2.5456 1.5229 1.7544-1.3789 3.6333-2.6858 1.9226-3.9343-2.3806-9.4829-1.5424-12.443 2.0167-1.5749 1.7662-2.4622 4.1231-2.4518 6.4891h2.6l-4.16 6.24-4.16-6.24h2.6c-0.083-5.649 3.98-11.023 9.435-12.486 1.17-0.321 2.376-0.501 3.591-0.488zm11.414 6.76 4.16 6.24h-2.6c0.0737 5.7169-4.093 11.151-9.6433 12.537-3.7452 1.0459-7.9801 0.2827-11.058-2.1101-1.5705-1.7837 1.3716-3.6445 2.6907-1.9181 3.8119 2.3127 9.1499 1.5792 12.159-1.724 1.742-1.795 2.744-4.283 2.731-6.785h-2.6l4.16-6.24z"
     id="path8" />
  <circle
     opacity=".2"
     cx="36"
     cy="37"
     r="11"
     id="circle10" />
  <circle
     fill="#8561c5"
     cx="36"
     cy="36"
     r="11"
     id="circle12"
     style="fill:#5f697d;fill-opacity:1" />
  <path
     fill="#fff"
     d="m32 29v8.1875c-0.316-0.114-0.644-0.188-1-0.188-1.6568 0-3 1.3432-3 3s1.3432 3 3 3 3-1.3432 3-3v-7h6v4.1875c-0.316-0.114-0.644-0.188-1-0.188-1.6568 0-3 1.3432-3 3s1.3432 3 3 3 3-1.3432 3-3v-11h-1z"
     id="path14" />
  <path
     style="fill:#ffffff;opacity:0.2"
     d="M 16 4 C 9.352 4 4 9.352 4 16 L 4 17 C 4 10.352 9.352 5 16 5 L 32 5 C 38.648 5 44 10.352 44 17 L 44 16 C 44 9.352 38.648 4 32 4 L 16 4 z"
     id="path16" />
</svg>
