<?xml version="1.0" encoding="UTF-8" standalone="no"?>
<svg
   xmlns:dc="http://purl.org/dc/elements/1.1/"
   xmlns:cc="http://creativecommons.org/ns#"
   xmlns:rdf="http://www.w3.org/1999/02/22-rdf-syntax-ns#"
   xmlns:svg="http://www.w3.org/2000/svg"
   xmlns="http://www.w3.org/2000/svg"
   xmlns:sodipodi="http://sodipodi.sourceforge.net/DTD/sodipodi-0.dtd"
   xmlns:inkscape="http://www.inkscape.org/namespaces/inkscape"
   width="48"
   height="48"
   version="1.1"
   id="svg20"
   sodipodi:docname="spotify-qt.svg"
   inkscape:version="0.92.5 (2060ec1f9f, 2020-04-08)">
  <metadata
     id="metadata26">
    <rdf:RDF>
      <cc:Work
         rdf:about="">
        <dc:format>image/svg+xml</dc:format>
        <dc:type
           rdf:resource="http://purl.org/dc/dcmitype/StillImage" />
      </cc:Work>
    </rdf:RDF>
  </metadata>
  <defs
     id="defs24" />
  <sodipodi:namedview
     pagecolor="#ffffff"
     bordercolor="#666666"
     borderopacity="1"
     objecttolerance="10"
     gridtolerance="10"
     guidetolerance="10"
     inkscape:pageopacity="0"
     inkscape:pageshadow="2"
     inkscape:window-width="765"
     inkscape:window-height="480"
     id="namedview22"
     showgrid="false"
     inkscape:zoom="4.9166667"
     inkscape:cx="-2.9491525"
     inkscape:cy="24"
     inkscape:window-x="0"
     inkscape:window-y="28"
     inkscape:window-maximized="0"
     inkscape:current-layer="svg20" />
  <path
     style="opacity:0.2"
     d="m17 5c-0.558739-5e-7 -1.092009 0.233703-1.470703 0.644531l-11.033203 11.966797c-0.340355 0.369345-0.529302 0.853217-0.529297 1.355469v24.066406c1.1e-4 1.104524 0.895476 1.99989 2 2h26.066406c0.495707 3.31e-4 0.973877-0.18342 1.341797-0.515625l11.031251-9.96875c0.419402-0.379477 0.658539-0.918777 0.658203-1.484375v-26.064453c-1.1e-4 -1.104524-0.895476-1.99989-2-2z"
     id="path2" />
  <path
     style="fill:#4c566a;fill-opacity:1"
     d="m17 4c-0.558739-5e-7 -1.092009 0.2337034-1.470703 0.6445312l-11.033203 11.966797c-0.3403545 0.369345-0.5293017 0.853217-0.5292969 1.355469v24.066406c1.104e-4 1.104524 0.8954762 1.99989 2 2h26.066406c0.495707 3.31e-4 0.973877-0.18342 1.341797-0.515625l11.03125-9.96875c0.419402-0.379477 0.658539-0.918777 0.658203-1.484375v-26.064453c-1.1e-4 -1.1045238-0.895476-1.9998896-2-2z"
     id="path4" />
  <path
     style="fill:#ffffff;opacity:0.2"
     d="m17 4c-0.558739 0-1.092009 0.2337035-1.470703 0.6445312l-11.033203 11.966797c-0.340355 0.369345-0.5293019 0.853217-0.5292969 1.355469v1c-5e-6 -0.502252 0.1889419-0.986124 0.5292969-1.355469l11.033203-11.966797c0.378694-0.4108277 0.911964-0.6445312 1.470703-0.6445312h26.064453c1.104524 1.104e-4 1.99989 0.8954762 2 2v-1c-1.1e-4 -1.1045238-0.895476-1.9998896-2-2h-26.064453z"
     id="path6" />
  <path
     style="opacity:0.2;fill:none;stroke:#ffffff;stroke-width:4;stroke-linecap:round"
     d="m 12,19 c 7.463,-2 19,-1 25,3"
     id="path8" />
  <path
     style="fill:none;stroke:#ffffff;stroke-width:4;stroke-linecap:round;stroke-opacity:1"
     d="m 12,18 c 7.463,-2 20,-1 25,3"
     id="path10" />
  <path
     style="opacity:0.2;fill:none;stroke:#ffffff;stroke-width:3;stroke-linecap:round"
     d="m 12.5,25.5 c 8.5,-2 16.5,-1 22,3"
     id="path12" />
  <path
     style="fill:none;stroke:#ffffff;stroke-width:3;stroke-linecap:round;stroke-opacity:1"
     d="m 12.5,24.5 c 8.5,-2 16.5,-1 22,3"
     id="path14" />
  <path
     style="opacity:0.2;fill:none;stroke:#ffffff;stroke-width:3;stroke-linecap:round"
     d="M 13.5,31.5 C 20,30 26,30 32.5,33.5"
     id="path16" />
  <path
     style="fill:none;stroke:#ffffff;stroke-width:3;stroke-linecap:round;stroke-opacity:1"
     d="M 13.5,30.5 C 20,29 26,29 32.5,32.5"
     id="path18" />
</svg>
