<?xml version="1.0" encoding="UTF-8" standalone="no"?>
<svg
   xmlns:dc="http://purl.org/dc/elements/1.1/"
   xmlns:cc="http://creativecommons.org/ns#"
   xmlns:rdf="http://www.w3.org/1999/02/22-rdf-syntax-ns#"
   xmlns:svg="http://www.w3.org/2000/svg"
   xmlns="http://www.w3.org/2000/svg"
   xmlns:sodipodi="http://sodipodi.sourceforge.net/DTD/sodipodi-0.dtd"
   xmlns:inkscape="http://www.inkscape.org/namespaces/inkscape"
   width="48"
   height="48"
   version="1.1"
   id="svg12"
   sodipodi:docname="statalogo_14.svg"
   inkscape:version="0.92.5 (2060ec1f9f, 2020-04-08)">
  <metadata
     id="metadata18">
    <rdf:RDF>
      <cc:Work
         rdf:about="">
        <dc:format>image/svg+xml</dc:format>
        <dc:type
           rdf:resource="http://purl.org/dc/dcmitype/StillImage" />
      </cc:Work>
    </rdf:RDF>
  </metadata>
  <defs
     id="defs16" />
  <sodipodi:namedview
     pagecolor="#ffffff"
     bordercolor="#666666"
     borderopacity="1"
     objecttolerance="10"
     gridtolerance="10"
     guidetolerance="10"
     inkscape:pageopacity="0"
     inkscape:pageshadow="2"
     inkscape:window-width="640"
     inkscape:window-height="480"
     id="namedview14"
     showgrid="false"
     inkscape:zoom="4.9166667"
     inkscape:cx="24"
     inkscape:cy="24"
     inkscape:current-layer="svg12" />
  <rect
     style="opacity:0.2"
     width="40"
     height="40"
     x="-45"
     y="-44"
     rx="3"
     ry="3"
     transform="matrix(0,-1,-1,0,0,0)"
     id="rect2" />
  <rect
     style="fill:#4c566a;fill-opacity:1"
     width="40"
     height="40"
     x="-44"
     y="-44"
     rx="3"
     ry="3"
     transform="matrix(0,-1,-1,0,0,0)"
     id="rect4" />
  <path
     style="opacity:0.2;fill:#ffffff"
     d="M 7,4 C 5.338,4 4,5.338 4,7 V 8 C 4,6.338 5.338,5 7,5 h 34 c 1.662,0 3,1.338 3,3 V 7 C 44,5.338 42.662,4 41,4 Z"
     id="path6" />
  <path
     style="fill:#ffffff"
     d="M 20 9 L 20 17 L 28 17 L 28 9 L 20 9 z M 31 9 L 31 17 L 39 17 L 39 9 L 31 9 z M 9 20 L 9 28 L 17 28 L 17 20 L 9 20 z M 20 20 L 20 28 L 28 28 L 28 20 L 20 20 z M 31 20 L 31 28 L 39 28 L 39 20 L 31 20 z M 9 31 L 9 39 L 17 39 L 17 31 L 9 31 z M 20 31 L 20 39 L 28 39 L 28 31 L 20 31 z"
     id="path8" />
  <path
     style="opacity:0.2"
     d="m 20,17 v 1 h 8 v -1 z m 11,0 v 1 h 8 V 17 Z M 9,28 v 1 h 8 v -1 z m 11,0 v 1 h 8 v -1 z m 11,0 v 1 h 8 V 28 Z M 9,39 v 1 h 8 v -1 z m 11,0 v 1 h 8 v -1 z"
     id="path10" />
</svg>
