<?xml version="1.0" encoding="UTF-8" standalone="no"?>
<svg
   xmlns:dc="http://purl.org/dc/elements/1.1/"
   xmlns:cc="http://creativecommons.org/ns#"
   xmlns:rdf="http://www.w3.org/1999/02/22-rdf-syntax-ns#"
   xmlns:svg="http://www.w3.org/2000/svg"
   xmlns="http://www.w3.org/2000/svg"
   xmlns:sodipodi="http://sodipodi.sourceforge.net/DTD/sodipodi-0.dtd"
   xmlns:inkscape="http://www.inkscape.org/namespaces/inkscape"
   width="48"
   height="48"
   version="1"
   id="svg16"
   sodipodi:docname="synaptic.svg"
   inkscape:version="0.92.5 (2060ec1f9f, 2020-04-08)">
  <metadata
     id="metadata22">
    <rdf:RDF>
      <cc:Work
         rdf:about="">
        <dc:format>image/svg+xml</dc:format>
        <dc:type
           rdf:resource="http://purl.org/dc/dcmitype/StillImage" />
      </cc:Work>
    </rdf:RDF>
  </metadata>
  <defs
     id="defs20" />
  <sodipodi:namedview
     pagecolor="#ffffff"
     bordercolor="#666666"
     borderopacity="1"
     objecttolerance="10"
     gridtolerance="10"
     guidetolerance="10"
     inkscape:pageopacity="0"
     inkscape:pageshadow="2"
     inkscape:window-width="783"
     inkscape:window-height="480"
     id="namedview18"
     showgrid="false"
     inkscape:zoom="3.4766083"
     inkscape:cx="1.1813854"
     inkscape:cy="25.19391"
     inkscape:window-x="0"
     inkscape:window-y="28"
     inkscape:window-maximized="0"
     inkscape:current-layer="svg16" />
  <circle
     style="opacity:0.2"
     cx="24"
     cy="25"
     r="20"
     id="circle2" />
  <circle
     style="fill:#4c566a;fill-opacity:1"
     cx="24"
     cy="24"
     r="20"
     id="circle4" />
  <path
     style="opacity:1;fill:#737d91;fill-opacity:1"
     d="M 24 10 A 14 14 0 0 0 10 24 A 14 14 0 0 0 10.162109 26 L 11.099609 26 L 14.212891 26 L 33.796875 26 A 10 10 0 0 1 24 34 A 10 10 0 0 1 16.011719 30 L 11.369141 30 A 14 14 0 0 0 24 38 A 14 14 0 0 0 38 24 A 14 14 0 0 0 37.837891 22 L 36.099609 22 L 33.787109 22 L 14.203125 22 A 10 10 0 0 1 24 14 A 10 10 0 0 1 31.988281 18 L 36.630859 18 A 14 14 0 0 0 24 10 z"
     id="path6" />
  <path
     style="opacity:0.2"
     d="m 21,17 v 8 h -4 l 7,8 7,-8 h -4 v -8 z"
     id="path8" />
  <rect
     style="fill:#ffffff"
     width="6"
     height="11"
     x="21"
     y="16"
     id="rect10" />
  <path
     style="fill:#ffffff"
     transform="matrix(0.97072535,-0.36980013,0.56044854,0.64051262,7.2964771,3.1393246)"
     d="M -6.6055512,28.755002 4.2111025,35 -6.6055513,41.244998 Z"
     id="path12" />
  <path
     style="opacity:0.2;fill:#ffffff"
     d="M 24 4 A 20 20 0 0 0 4 24 A 20 20 0 0 0 4.0214844 24.582031 A 20 20 0 0 1 24 5 A 20 20 0 0 1 43.978516 24.417969 A 20 20 0 0 0 44 24 A 20 20 0 0 0 24 4 z"
     id="path14" />
</svg>
