<?xml version="1.0" encoding="UTF-8" standalone="no"?>
<svg
   xmlns:dc="http://purl.org/dc/elements/1.1/"
   xmlns:cc="http://creativecommons.org/ns#"
   xmlns:rdf="http://www.w3.org/1999/02/22-rdf-syntax-ns#"
   xmlns:svg="http://www.w3.org/2000/svg"
   xmlns="http://www.w3.org/2000/svg"
   xmlns:sodipodi="http://sodipodi.sourceforge.net/DTD/sodipodi-0.dtd"
   xmlns:inkscape="http://www.inkscape.org/namespaces/inkscape"
   width="48"
   height="48"
   version="1.1"
   id="svg56"
   sodipodi:docname="system-keyboard-mx.svg"
   inkscape:version="0.92.5 (2060ec1f9f, 2020-04-08)">
  <metadata
     id="metadata62">
    <rdf:RDF>
      <cc:Work
         rdf:about="">
        <dc:format>image/svg+xml</dc:format>
        <dc:type
           rdf:resource="http://purl.org/dc/dcmitype/StillImage" />
      </cc:Work>
    </rdf:RDF>
  </metadata>
  <defs
     id="defs60" />
  <sodipodi:namedview
     pagecolor="#ffffff"
     bordercolor="#666666"
     borderopacity="1"
     objecttolerance="10"
     gridtolerance="10"
     guidetolerance="10"
     inkscape:pageopacity="0"
     inkscape:pageshadow="2"
     inkscape:window-width="783"
     inkscape:window-height="480"
     id="namedview58"
     showgrid="false"
     inkscape:zoom="4.9166667"
     inkscape:cx="-1.1186441"
     inkscape:cy="24"
     inkscape:window-x="0"
     inkscape:window-y="28"
     inkscape:window-maximized="0"
     inkscape:current-layer="svg56" />
  <rect
     x="4"
     y="10"
     width="40"
     height="28"
     rx="2"
     ry="2"
     style="fill:#4c566a;fill-opacity:1"
     id="rect2" />
  <path
     d="m6 10c-1.108 0-2 0.892-2 2v1c0-1.108 0.892-2 2-2h36c1.108 0 2 0.892 2 2v-1c0-1.108-0.892-2-2-2z"
     style="fill:#ffffff;opacity:.2"
     id="path4" />
  <path
     d="m4 36v1c0 1.108 0.892 2 2 2h36c1.108 0 2-0.892 2-2v-1c0 1.108-0.892 2-2 2h-36c-1.108 0-2-0.892-2-2z"
     style="opacity:.2"
     id="path6" />
  <circle
     cx="9"
     cy="19"
     r="2"
     style="opacity:.2"
     id="circle8" />
  <circle
     cx="15"
     cy="19"
     r="2"
     style="opacity:.2"
     id="circle10" />
  <circle
     cx="21"
     cy="19"
     r="2"
     style="opacity:.2"
     id="circle12" />
  <circle
     cx="27"
     cy="19"
     r="2"
     style="opacity:.2"
     id="circle14" />
  <circle
     cx="33"
     cy="19"
     r="2"
     style="opacity:.2"
     id="circle16" />
  <circle
     cx="39"
     cy="19"
     r="2"
     style="opacity:.2"
     id="circle18" />
  <circle
     cx="12"
     cy="27"
     r="2"
     style="opacity:.2"
     id="circle20" />
  <circle
     cx="18"
     cy="27"
     r="2"
     style="opacity:.2"
     id="circle22" />
  <circle
     cx="24"
     cy="27"
     r="2"
     style="opacity:.2"
     id="circle24" />
  <circle
     cx="30"
     cy="27"
     r="2"
     style="opacity:.2"
     id="circle26" />
  <circle
     cx="36"
     cy="27"
     r="2"
     style="opacity:.2"
     id="circle28" />
  <rect
     x="9"
     y="32"
     width="30"
     height="4"
     rx="1"
     ry="1"
     style="opacity:.2"
     id="rect30" />
  <circle
     cx="9"
     cy="18"
     r="2"
     style="fill:#ffffff"
     id="circle32" />
  <circle
     cx="15"
     cy="18"
     r="2"
     style="fill:#ffffff"
     id="circle34" />
  <circle
     cx="21"
     cy="18"
     r="2"
     style="fill:#ffffff"
     id="circle36" />
  <circle
     cx="27"
     cy="18"
     r="2"
     style="fill:#ffffff"
     id="circle38" />
  <circle
     cx="33"
     cy="18"
     r="2"
     style="fill:#ffffff"
     id="circle40" />
  <circle
     cx="39"
     cy="18"
     r="2"
     style="fill:#ffffff"
     id="circle42" />
  <circle
     cx="12"
     cy="26"
     r="2"
     style="fill:#ffffff"
     id="circle44" />
  <circle
     cx="18"
     cy="26"
     r="2"
     style="fill:#ffffff"
     id="circle46" />
  <circle
     cx="24"
     cy="26"
     r="2"
     style="fill:#ffffff"
     id="circle48" />
  <circle
     cx="30"
     cy="26"
     r="2"
     style="fill:#ffffff"
     id="circle50" />
  <circle
     cx="36"
     cy="26"
     r="2"
     style="fill:#ffffff"
     id="circle52" />
  <rect
     x="9"
     y="31"
     width="30"
     height="4"
     rx="1"
     ry="1"
     style="fill:#ffffff"
     id="rect54" />
</svg>
