<?xml version="1.0" encoding="UTF-8" standalone="no"?>
<svg
   xmlns:dc="http://purl.org/dc/elements/1.1/"
   xmlns:cc="http://creativecommons.org/ns#"
   xmlns:rdf="http://www.w3.org/1999/02/22-rdf-syntax-ns#"
   xmlns:svg="http://www.w3.org/2000/svg"
   xmlns="http://www.w3.org/2000/svg"
   xmlns:sodipodi="http://sodipodi.sourceforge.net/DTD/sodipodi-0.dtd"
   xmlns:inkscape="http://www.inkscape.org/namespaces/inkscape"
   width="48"
   height="48"
   version="1.1"
   id="svg16"
   sodipodi:docname="system76-driver.svg"
   inkscape:version="0.92.5 (2060ec1f9f, 2020-04-08)">
  <metadata
     id="metadata22">
    <rdf:RDF>
      <cc:Work
         rdf:about="">
        <dc:format>image/svg+xml</dc:format>
        <dc:type
           rdf:resource="http://purl.org/dc/dcmitype/StillImage" />
      </cc:Work>
    </rdf:RDF>
  </metadata>
  <defs
     id="defs20" />
  <sodipodi:namedview
     pagecolor="#ffffff"
     bordercolor="#666666"
     borderopacity="1"
     objecttolerance="10"
     gridtolerance="10"
     guidetolerance="10"
     inkscape:pageopacity="0"
     inkscape:pageshadow="2"
     inkscape:window-width="783"
     inkscape:window-height="480"
     id="namedview18"
     showgrid="false"
     inkscape:zoom="4.9166667"
     inkscape:cx="24"
     inkscape:cy="24"
     inkscape:window-x="0"
     inkscape:window-y="28"
     inkscape:window-maximized="0"
     inkscape:current-layer="svg16" />
  <circle
     style="opacity:0.2"
     cx="24"
     cy="25"
     r="20"
     id="circle2" />
  <circle
     style="fill:#4c566a;fill-opacity:1"
     cx="24"
     cy="24"
     r="20"
     id="circle4" />
  <path
     style="opacity:0.2"
     d="m 33.271484,7.2949219 -8.08789,15.2617191 c -0.09593,0.168788 -0.18743,0.33873 -0.271485,0.511718 l -0.04492,0.08398 0.0039,0.002 c -1.508202,3.18964 -1.024521,7.022476 1.324218,9.736328 2.573108,2.973096 6.795933,3.93038 10.400391,2.359375 3.604459,-1.571005 5.777916,-5.317804 5.351563,-9.226562 -0.426353,-3.908761 -3.356457,-7.098484 -7.214844,-7.855469 a 1.50015,1.50015 0 0 0 -0.296875,-0.03125 1.50015,1.50015 0 0 0 -0.28125,2.974609 c 2.582406,0.506648 4.52519,2.622161 4.810547,5.238281 0.285356,2.616121 -1.155907,5.098923 -3.56836,6.150391 -2.412452,1.051468 -5.211421,0.415665 -6.933593,-1.574219 -1.722172,-1.989883 -1.949257,-4.851281 -0.5625,-7.08789 A 1.50015,1.50015 0 0 0 28.044922,23.5625 L 35.818359,8.8925781 A 20,20 0 0 0 33.271484,7.2949219 Z M 7.5,17 a 1.50015,1.50015 0 0 0 -1.2480469,2.332031 l 3,4.5 A 1.50015,1.50015 0 1 0 11.748047,22.167969 L 10.302734,20 h 9.681641 L 9.7167969,38.994141 A 20,20 0 0 0 12.041016,41 L 23.820312,19.212891 A 1.50015,1.50015 0 0 0 22.5,17 Z M 26.242188,38 C 25.55482,38 25,38.664214 25,39.486328 v 0.02734 C 25,40.335786 25.55482,41 26.242188,41 h 9.722656 a 20,20 0 0 0 3.224609,-3 z"
     id="path6" />
  <path
     style="fill:#ffffff"
     d="M 33.271484 6.2949219 L 25.183594 21.556641 C 25.087665 21.725429 24.996164 21.895371 24.912109 22.068359 L 24.867188 22.152344 L 24.871094 22.154297 C 23.362892 25.343937 23.846573 29.176773 26.195312 31.890625 C 28.76842 34.863721 32.991245 35.821005 36.595703 34.25 C 40.200162 32.678995 42.373619 28.932196 41.947266 25.023438 C 41.520913 21.114677 38.590809 17.924954 34.732422 17.167969 A 1.50015 1.50015 0 0 0 34.435547 17.136719 A 1.50015 1.50015 0 0 0 34.154297 20.111328 C 36.736703 20.617976 38.679487 22.733489 38.964844 25.349609 C 39.2502 27.96573 37.808937 30.448532 35.396484 31.5 C 32.984032 32.551468 30.185063 31.915665 28.462891 29.925781 C 26.740719 27.935898 26.513634 25.0745 27.900391 22.837891 A 1.50015 1.50015 0 0 0 28.044922 22.5625 L 35.818359 7.8925781 A 20 20 0 0 0 33.271484 6.2949219 z M 7.5 16 A 1.50015 1.50015 0 0 0 6.2519531 18.332031 L 9.2519531 22.832031 A 1.50015 1.50015 0 1 0 11.748047 21.167969 L 10.302734 19 L 19.984375 19 L 9.7167969 37.994141 A 20 20 0 0 0 12.041016 40 L 23.820312 18.212891 A 1.50015 1.50015 0 0 0 22.5 16 L 7.5 16 z"
     id="path8" />
  <path
     style="fill:#5f697d;fill-opacity:1"
     d="M 26.242188 37 C 25.55482 37 25 37.664214 25 38.486328 L 25 38.513672 C 25 39.335786 25.55482 40 26.242188 40 L 35.964844 40 A 20 20 0 0 0 39.189453 37 L 26.242188 37 z"
     id="path10" />
  <path
     style="opacity:0.1;fill:#ffffff"
     d="M 24,4 A 20,20 0 0 0 4,24 20,20 0 0 0 4.0215,24.582 20,20 0 0 1 24,5 20,20 0 0 1 43.979,24.418 20,20 0 0 0 44,24 20,20 0 0 0 24,4 Z"
     id="path12" />
  <path
     style="fill:#ffffff;opacity:0.2"
     d="M 26.242188 37 C 25.55482 37 25 37.664214 25 38.486328 L 25 38.513672 C 25 38.68523 25.029734 38.846795 25.074219 39 C 25.242905 38.419041 25.698259 38 26.242188 38 L 38.230469 38 A 20 20 0 0 0 39.189453 37 L 26.242188 37 z"
     id="path14" />
</svg>
