<?xml version="1.0" encoding="UTF-8" standalone="no"?>
<svg
   xmlns:dc="http://purl.org/dc/elements/1.1/"
   xmlns:cc="http://creativecommons.org/ns#"
   xmlns:rdf="http://www.w3.org/1999/02/22-rdf-syntax-ns#"
   xmlns:svg="http://www.w3.org/2000/svg"
   xmlns="http://www.w3.org/2000/svg"
   xmlns:sodipodi="http://sodipodi.sourceforge.net/DTD/sodipodi-0.dtd"
   xmlns:inkscape="http://www.inkscape.org/namespaces/inkscape"
   width="48"
   height="48"
   version="1.1"
   id="svg22"
   sodipodi:docname="system-config-samba.svg"
   inkscape:version="0.92.5 (2060ec1f9f, 2020-04-08)">
  <metadata
     id="metadata28">
    <rdf:RDF>
      <cc:Work
         rdf:about="">
        <dc:format>image/svg+xml</dc:format>
        <dc:type
           rdf:resource="http://purl.org/dc/dcmitype/StillImage" />
      </cc:Work>
    </rdf:RDF>
  </metadata>
  <defs
     id="defs26" />
  <sodipodi:namedview
     pagecolor="#ffffff"
     bordercolor="#666666"
     borderopacity="1"
     objecttolerance="10"
     gridtolerance="10"
     guidetolerance="10"
     inkscape:pageopacity="0"
     inkscape:pageshadow="2"
     inkscape:window-width="783"
     inkscape:window-height="480"
     id="namedview24"
     showgrid="false"
     inkscape:zoom="4.9166667"
     inkscape:cx="-1.1186441"
     inkscape:cy="24"
     inkscape:window-x="0"
     inkscape:window-y="28"
     inkscape:window-maximized="0"
     inkscape:current-layer="svg22" />
  <path
     style="fill:#4c566a;fill-opacity:1"
     d="m24 4a20 20 0 0 0 -20 20 20 20 0 0 0 20 20 20 20 0 0 0 20 -20 20 20 0 0 0 -20 -20z"
     id="path2" />
  <path
     opacity=".2"
     d="m4.0215 24.418a20 20 0 0 0 -0.0215 0.582 20 20 0 0 0 20 20 20 20 0 0 0 20 -20 20 20 0 0 0 -0.021 -0.418 20 20 0 0 1 -19.979 19.418 20 20 0 0 1 -19.978 -19.582z"
     id="path4" />
  <path
     fill="#ffffff"
     opacity=".2"
     d="m24 4a20 20 0 0 0 -20 20 20 20 0 0 0 0.0215 0.418 20 20 0 0 1 19.978 -19.418 20 20 0 0 1 19.979 19.582 20 20 0 0 0 0.021 -0.582 20 20 0 0 0 -20 -20z"
     id="path6" />
  <path
     style="opacity:0.2"
     d="m 30,15 c -1.108,0 -2,0.892 -2,2 v 10 h -2.669922 a 1.3306253,0.99030344 0 0 0 -1.152344,1.486328 l 4.669922,6.017578 a 1.3306253,0.99030344 0 0 0 1.080078,0.494141 1.3306253,0.99030344 0 0 0 1.22461,-0.494141 l 4.669922,-6.017578 A 1.3306253,0.99030344 0 0 0 34.669922,27 H 32 V 17 c 0,-1.108 -0.892,-2 -2,-2 z m -12.072266,0.002 a 1.3306253,0.99030344 0 0 0 -1.080078,0.494141 l -4.669922,6.017578 A 1.3306253,0.99030344 0 0 0 13.330078,23 H 16 v 10 c 0,1.108 0.892,2 2,2 1.108,0 2,-0.892 2,-2 V 23 h 2.669922 a 1.3306253,0.99030344 0 0 0 1.152344,-1.486328 l -4.669922,-6.017578 a 1.3306253,0.99030344 0 0 0 -1.22461,-0.494141 z"
     id="path8" />
  <g
     transform="translate(-5e-7,-2)"
     id="g14">
    <rect
       style="fill:#ffffff"
       width="4"
       height="18"
       x="16"
       y="18"
       ry="2"
       id="rect10" />
    <path
       style="fill:#ffffff"
       d="m 17.928561,16.001419 a 1.3306253,0.99030344 0 0 0 -1.080712,0.493758 l -4.669403,6.019141 A 1.3306253,0.99030344 0 0 0 13.330597,24 h 9.338807 a 1.3306253,0.99030344 0 0 0 1.152151,-1.485682 l -4.669403,-6.019141 a 1.3306253,0.99030344 0 0 0 -1.223591,-0.493758 z"
       id="path12" />
  </g>
  <g
     transform="matrix(1,0,0,-1,12,50)"
     id="g20">
    <rect
       style="fill:#ffffff"
       width="4"
       height="18"
       x="16"
       y="18"
       ry="2"
       id="rect16" />
    <path
       style="fill:#ffffff"
       d="m 17.928561,16.001419 a 1.3306253,0.99030344 0 0 0 -1.080712,0.493758 l -4.669403,6.019141 A 1.3306253,0.99030344 0 0 0 13.330597,24 h 9.338807 a 1.3306253,0.99030344 0 0 0 1.152151,-1.485682 l -4.669403,-6.019141 a 1.3306253,0.99030344 0 0 0 -1.223591,-0.493758 z"
       id="path18" />
  </g>
</svg>
