<?xml version="1.0" encoding="UTF-8" standalone="no"?>
<svg
   xmlns:dc="http://purl.org/dc/elements/1.1/"
   xmlns:cc="http://creativecommons.org/ns#"
   xmlns:rdf="http://www.w3.org/1999/02/22-rdf-syntax-ns#"
   xmlns:svg="http://www.w3.org/2000/svg"
   xmlns="http://www.w3.org/2000/svg"
   xmlns:sodipodi="http://sodipodi.sourceforge.net/DTD/sodipodi-0.dtd"
   xmlns:inkscape="http://www.inkscape.org/namespaces/inkscape"
   width="48"
   height="48"
   version="1"
   id="svg12"
   sodipodi:docname="system-restart.svg"
   inkscape:version="0.92.5 (2060ec1f9f, 2020-04-08)">
  <metadata
     id="metadata18">
    <rdf:RDF>
      <cc:Work
         rdf:about="">
        <dc:format>image/svg+xml</dc:format>
        <dc:type
           rdf:resource="http://purl.org/dc/dcmitype/StillImage" />
      </cc:Work>
    </rdf:RDF>
  </metadata>
  <defs
     id="defs16" />
  <sodipodi:namedview
     pagecolor="#ffffff"
     bordercolor="#666666"
     borderopacity="1"
     objecttolerance="10"
     gridtolerance="10"
     guidetolerance="10"
     inkscape:pageopacity="0"
     inkscape:pageshadow="2"
     inkscape:window-width="640"
     inkscape:window-height="480"
     id="namedview14"
     showgrid="false"
     inkscape:zoom="4.9166667"
     inkscape:cx="-15.661017"
     inkscape:cy="24"
     inkscape:current-layer="svg12" />
  <circle
     style="opacity:0.2"
     cx="24"
     cy="25"
     r="20"
     id="circle2" />
  <circle
     style="fill:#4c566a;fill-opacity:1"
     cx="24"
     cy="24"
     r="20"
     id="circle4" />
  <path
     style="opacity:0.2;fill:#ffffff"
     d="M 24,4 A 20,20 0 0 0 4,24 20,20 0 0 0 4.0215,24.582 20,20 0 0 1 23.9995,5 20,20 0 0 1 43.9785,24.418 20,20 0 0 0 43.9995,24 a 20,20 0 0 0 -20,-20 z"
     id="path6" />
  <path
     style="opacity:0.2"
     d="m 24.029297,11.9998 a 2.0002855,2.0002 0 1 0 0,4 c 2.634229,0 5.132955,1.151299 6.84375,3.154297 1.402046,1.641514 2.142815,3.718003 2.142578,5.845703 H 29 l 3,4 3,4 3,-4 3,-4 H 37.009766 C 37.009258,21.927145 35.937665,18.925673 33.914062,16.556441 31.444873,13.665515 27.831277,11.9998 24.029297,11.9998 Z m -11.029297,5 -3,4 -3,4 h 3.990234 c 5.08e-4,3.072655 1.072101,6.074127 3.095704,8.443359 2.469189,2.890926 6.082785,4.556641 9.884765,4.556641 a 2.0002855,2.0002 0 1 0 0,-4 c -2.634229,0 -5.132955,-1.151299 -6.84375,-3.154297 C 15.724907,29.203989 14.984138,27.1275 14.984375,24.9998 H 19 l -3,-4 z"
     id="path8" />
  <path
     style="fill:#ffffff"
     d="m 24.029297,11 a 2.0002855,2.0002 0 1 0 0,4 c 2.634229,0 5.132955,1.151299 6.84375,3.154297 C 32.275093,19.795811 33.015862,21.8723 33.015625,24 H 29 l 3,4 3,4 3,-4 3,-4 H 37.009766 C 37.009258,20.927345 35.937665,17.925873 33.914062,15.556641 31.444873,12.665715 27.831277,11 24.029297,11 Z M 13,16 10,20 7,24 h 3.990234 c 5.08e-4,3.072655 1.072101,6.074127 3.095704,8.443359 C 16.555127,35.334285 20.168723,37 23.970703,37 a 2.0002855,2.0002 0 1 0 0,-4 C 21.336474,33 18.837748,31.848701 17.126953,29.845703 15.724907,28.204189 14.984138,26.1277 14.984375,24 H 19 l -3,-4 z"
     id="path10" />
</svg>
