<?xml version="1.0" encoding="UTF-8" standalone="no"?>
<svg
   xmlns:dc="http://purl.org/dc/elements/1.1/"
   xmlns:cc="http://creativecommons.org/ns#"
   xmlns:rdf="http://www.w3.org/1999/02/22-rdf-syntax-ns#"
   xmlns:svg="http://www.w3.org/2000/svg"
   xmlns="http://www.w3.org/2000/svg"
   xmlns:sodipodi="http://sodipodi.sourceforge.net/DTD/sodipodi-0.dtd"
   xmlns:inkscape="http://www.inkscape.org/namespaces/inkscape"
   width="48"
   height="48"
   version="1"
   id="svg20"
   sodipodi:docname="tabletop-simulator.svg"
   inkscape:version="0.92.5 (2060ec1f9f, 2020-04-08)">
  <metadata
     id="metadata26">
    <rdf:RDF>
      <cc:Work
         rdf:about="">
        <dc:format>image/svg+xml</dc:format>
        <dc:type
           rdf:resource="http://purl.org/dc/dcmitype/StillImage" />
      </cc:Work>
    </rdf:RDF>
  </metadata>
  <defs
     id="defs24" />
  <sodipodi:namedview
     pagecolor="#ffffff"
     bordercolor="#666666"
     borderopacity="1"
     objecttolerance="10"
     gridtolerance="10"
     guidetolerance="10"
     inkscape:pageopacity="0"
     inkscape:pageshadow="2"
     inkscape:window-width="783"
     inkscape:window-height="480"
     id="namedview22"
     showgrid="false"
     inkscape:zoom="4.9166667"
     inkscape:cx="27.19724"
     inkscape:cy="47.552951"
     inkscape:window-x="0"
     inkscape:window-y="28"
     inkscape:window-maximized="0"
     inkscape:current-layer="svg20" />
  <rect
     fill="#e4e4e4"
     width="40"
     height="30"
     x="-44"
     y="-39"
     rx="2"
     ry="2"
     transform="matrix(0,-1,-1,0,0,0)"
     id="rect2"
     style="fill:#4c566a;fill-opacity:1" />
  <path
     fill="#fff"
     opacity=".2"
     d="m11 4c-1.108 0-2 0.892-2 2v1c0-1.108 0.892-2 2-2h26c1.108 0 2 0.892 2 2v-1c0-1.108-0.892-2-2-2h-26z"
     id="path4" />
  <path
     opacity=".2"
     d="m9 42v1c0 1.108 0.892 2 2 2h26c1.108 0 2-0.892 2-2v-1c0 1.108-0.892 2-2 2h-26c-1.108 0-2-0.892-2-2z"
     id="path6" />
  <path
     style="fill:#ffffff;fill-opacity:1"
     d="m 15.003182,11.655318 h -2.4193 l -0.382,1.093 h -1.555 l 2.222,-6.0000001 h 1.8446 l 2.222,6.0000001 h -1.555 l -0.378,-1.093 z m -2.0335,-1.1132 h 1.6437 l -0.81983,-2.3871001 -0.82384,2.3871001 z"
     id="path8"
     inkscape:connector-curvature="0" />
  <rect
     style="opacity:0.2"
     width="20"
     height="20"
     x="26"
     y="27"
     rx="6"
     ry="6"
     id="rect10" />
  <path
     style="fill:#ffffff;fill-opacity:1"
     d="m 24,18 c 0,0 -7,4 -7,7 0,1.414214 1,3 3,3 2,0 3,-1 3,-1 0,2 -2,3 -2,3 h 6 c 0,0 -2,-1 -2,-3 0,0 1,1 3,1 2,0 3,-1.585786 3,-3 0,-3 -7,-7 -7,-7 z"
     id="path12" />
  <rect
     style="fill:#5f697d;fill-opacity:1"
     width="20"
     height="20"
     x="26"
     y="26"
     rx="6"
     ry="6"
     id="rect16" />
  <path
     style="fill:#ffffff"
     d="M 31 29 A 2 2 0 0 0 29 31 A 2 2 0 0 0 31 33 A 2 2 0 0 0 33 31 A 2 2 0 0 0 31 29 z M 41 29 A 2 2 0 0 0 39 31 A 2 2 0 0 0 41 33 A 2 2 0 0 0 43 31 A 2 2 0 0 0 41 29 z M 36 34 A 2 2 0 0 0 34 36 A 2 2 0 0 0 36 38 A 2 2 0 0 0 38 36 A 2 2 0 0 0 36 34 z M 31 39 A 2 2 0 0 0 29 41 A 2 2 0 0 0 31 43 A 2 2 0 0 0 33 41 A 2 2 0 0 0 31 39 z M 41 39 A 2 2 0 0 0 39 41 A 2 2 0 0 0 41 43 A 2 2 0 0 0 43 41 A 2 2 0 0 0 41 39 z"
     id="path18" />
</svg>
