<?xml version="1.0" encoding="UTF-8" standalone="no"?>
<svg
   xmlns:dc="http://purl.org/dc/elements/1.1/"
   xmlns:cc="http://creativecommons.org/ns#"
   xmlns:rdf="http://www.w3.org/1999/02/22-rdf-syntax-ns#"
   xmlns:svg="http://www.w3.org/2000/svg"
   xmlns="http://www.w3.org/2000/svg"
   xmlns:sodipodi="http://sodipodi.sourceforge.net/DTD/sodipodi-0.dtd"
   xmlns:inkscape="http://www.inkscape.org/namespaces/inkscape"
   width="48"
   height="48"
   version="1.1"
   id="svg24"
   sodipodi:docname="teeworlds.svg"
   inkscape:version="0.92.5 (2060ec1f9f, 2020-04-08)">
  <metadata
     id="metadata30">
    <rdf:RDF>
      <cc:Work
         rdf:about="">
        <dc:format>image/svg+xml</dc:format>
        <dc:type
           rdf:resource="http://purl.org/dc/dcmitype/StillImage" />
      </cc:Work>
    </rdf:RDF>
  </metadata>
  <defs
     id="defs28" />
  <sodipodi:namedview
     pagecolor="#ffffff"
     bordercolor="#666666"
     borderopacity="1"
     objecttolerance="10"
     gridtolerance="10"
     guidetolerance="10"
     inkscape:pageopacity="0"
     inkscape:pageshadow="2"
     inkscape:window-width="783"
     inkscape:window-height="480"
     id="namedview26"
     showgrid="false"
     inkscape:zoom="4.9166667"
     inkscape:cx="24"
     inkscape:cy="24"
     inkscape:window-x="0"
     inkscape:window-y="28"
     inkscape:window-maximized="0"
     inkscape:current-layer="svg24" />
  <path
     style="opacity:0.2"
     d="m 39.999998,39.065 c -0.0035,2.935 -0.707153,3.913694 -9.65137,3.913693 -2.542723,0 -5.637936,0.230388 -7.267468,-0.823985 C 21.5425,41.159133 22.097458,39.698041 22.097457,38.211096 22.097457,35.149385 25.004922,33 29.948571,33 c 4.94365,0 10.055118,3 10.051427,6.065 z"
     id="path2" />
  <path
     style="fill:#5f697d;fill-opacity:1"
     d="m 39.999998,38.065 c -0.0035,2.935 -0.707153,3.913694 -9.65137,3.913693 -2.542723,0 -5.637936,0.230388 -7.267468,-0.823985 C 21.5425,40.159133 22.097458,38.698041 22.097457,37.211096 22.097457,34.149385 25.004922,32 29.948571,32 c 4.94365,0 10.055118,3 10.051427,6.065 z"
     id="path4" />
  <path
     style="opacity:0.2"
     d="M 24,3.9999998 A 18,18 0 0 0 6,22 18,18 0 0 0 24,40 18,18 0 0 0 42,22 18,18 0 0 0 24,3.9999998 Z"
     id="path6" />
  <path
     style="fill:#4c566a;fill-opacity:1"
     d="M 24,2.9999998 A 18,18 0 0 0 6,21 18,18 0 0 0 24,39 18,18 0 0 0 42,21 18,18 0 0 0 24,2.9999998 Z"
     id="path8" />
  <ellipse
     style="opacity:0.1"
     cx="21"
     cy="19"
     rx="3"
     ry="4"
     id="ellipse10" />
  <path
     style="opacity:0.2"
     d="m 24.999998,39.065 c -0.0035,2.935 -0.707153,3.913694 -9.65137,3.913693 -2.542723,0 -5.6379357,0.230388 -7.2674684,-0.823985 C 6.5424996,41.159133 7.0974576,39.698041 7.0974574,38.211096 7.0974569,35.149385 10.004922,33 14.948571,33 c 4.94365,0 10.055118,3 10.051427,6.065 z"
     id="path12" />
  <path
     style="fill:#5f697d;fill-opacity:1"
     d="m 24.999998,38.065 c -0.0035,2.935 -0.707153,3.913694 -9.65137,3.913693 -2.542723,0 -5.6379357,0.230388 -7.2674684,-0.823985 C 6.5424996,40.159133 7.0974576,38.698041 7.0974574,37.211096 7.0974569,34.149385 10.004922,32 14.948571,32 c 4.94365,0 10.055118,3 10.051427,6.065 z"
     id="path14" />
  <ellipse
     style="fill:#ffffff;fill-opacity:1"
     cx="21"
     cy="18"
     rx="3"
     ry="4"
     id="ellipse16" />
  <ellipse
     style="opacity:0.1"
     cx="30"
     cy="19"
     rx="3"
     ry="4"
     id="ellipse18" />
  <ellipse
     style="fill:#ffffff;fill-opacity:1"
     cx="30"
     cy="18"
     rx="3"
     ry="4"
     id="ellipse20" />
  <path
     style="opacity:0.2;fill:#ffffff"
     d="M 24 3 A 18 18 0 0 0 6 21 A 18 18 0 0 0 6.0214844 21.414062 A 18 18 0 0 1 24 4 A 18 18 0 0 1 41.978516 21.585938 A 18 18 0 0 0 42 21 A 18 18 0 0 0 24 3 z"
     id="path22" />
</svg>
