<?xml version="1.0" encoding="UTF-8" standalone="no"?>
<svg
   xmlns:dc="http://purl.org/dc/elements/1.1/"
   xmlns:cc="http://creativecommons.org/ns#"
   xmlns:rdf="http://www.w3.org/1999/02/22-rdf-syntax-ns#"
   xmlns:svg="http://www.w3.org/2000/svg"
   xmlns="http://www.w3.org/2000/svg"
   xmlns:sodipodi="http://sodipodi.sourceforge.net/DTD/sodipodi-0.dtd"
   xmlns:inkscape="http://www.inkscape.org/namespaces/inkscape"
   width="48"
   height="48"
   version="1"
   id="svg54"
   sodipodi:docname="org.kde.thermalMonitor.svg"
   inkscape:version="0.92.5 (2060ec1f9f, 2020-04-08)">
  <metadata
     id="metadata60">
    <rdf:RDF>
      <cc:Work
         rdf:about="">
        <dc:format>image/svg+xml</dc:format>
        <dc:type
           rdf:resource="http://purl.org/dc/dcmitype/StillImage" />
      </cc:Work>
    </rdf:RDF>
  </metadata>
  <defs
     id="defs58" />
  <sodipodi:namedview
     pagecolor="#ffffff"
     bordercolor="#666666"
     borderopacity="1"
     objecttolerance="10"
     gridtolerance="10"
     guidetolerance="10"
     inkscape:pageopacity="0"
     inkscape:pageshadow="2"
     inkscape:window-width="783"
     inkscape:window-height="480"
     id="namedview56"
     showgrid="false"
     inkscape:zoom="4.9166667"
     inkscape:cx="-13.830508"
     inkscape:cy="24"
     inkscape:window-x="0"
     inkscape:window-y="28"
     inkscape:window-maximized="0"
     inkscape:current-layer="svg54" />
  <g
     fill="#8e8e8e"
     id="g40">
    <g
       id="g20">
      <rect
         width="2"
         height="40"
         x="27"
         y="-44"
         transform="rotate(90)"
         id="rect2" />
      <rect
         width="2"
         height="40"
         x="23"
         y="-44"
         transform="rotate(90)"
         id="rect4" />
      <rect
         width="2"
         height="40"
         x="19"
         y="-44"
         transform="rotate(90)"
         id="rect6" />
      <rect
         width="2"
         height="40"
         x="15"
         y="-44"
         transform="rotate(90)"
         id="rect8" />
      <rect
         width="2"
         height="40"
         x="31"
         y="-44"
         transform="rotate(90)"
         id="rect10" />
      <rect
         width="2"
         height="40"
         x="35"
         y="-44"
         transform="rotate(90)"
         id="rect12" />
      <rect
         width="2"
         height="40"
         x="39"
         y="-44"
         transform="rotate(90)"
         id="rect14" />
      <rect
         width="2"
         height="40"
         x="11"
         y="-44"
         transform="rotate(90)"
         id="rect16" />
      <rect
         width="2"
         height="40"
         x="7"
         y="-44"
         transform="rotate(90)"
         id="rect18" />
    </g>
    <rect
       width="2"
       height="40"
       x="23"
       y="4"
       id="rect22" />
    <rect
       width="2"
       height="40"
       x="19"
       y="4"
       id="rect24" />
    <rect
       width="2"
       height="40"
       x="15"
       y="4"
       id="rect26" />
    <rect
       width="2"
       height="40"
       x="11"
       y="4"
       id="rect28" />
    <rect
       width="2"
       height="40"
       x="27"
       y="4"
       id="rect30" />
    <rect
       width="2"
       height="40"
       x="31"
       y="4"
       id="rect32" />
    <rect
       width="2"
       height="40"
       x="35"
       y="4"
       id="rect34" />
    <rect
       width="2"
       height="40"
       x="7"
       y="4"
       id="rect36" />
    <rect
       width="2"
       height="40"
       x="39"
       y="4"
       id="rect38" />
  </g>
  <rect
     fill="#b7b7b7"
     width="36"
     height="36"
     x="-42"
     y="-42"
     rx="1.8"
     ry="2.25"
     transform="matrix(0,-1,-1,0,0,0)"
     id="rect42"
     style="fill:#4c566a;fill-opacity:1" />
  <path
     fill="#fff"
     opacity=".2"
     d="m8.25 6c-1.2465 0-2.25 0.8036-2.25 1.8008v1c0-0.9972 1.0035-1.8008 2.25-1.8008h31.5c1.246 0 2.25 0.8036 2.25 1.8008v-1c0-0.9972-1.004-1.8008-2.25-1.8008h-31.5z"
     id="path44" />
  <path
     opacity=".2"
     d="m6 40.199v1c0 0.997 1.0035 1.801 2.25 1.801h31.5c1.246 0 2.25-0.804 2.25-1.801v-1c0 0.997-1.004 1.801-2.25 1.801h-31.5c-1.2465 0-2.25-0.804-2.25-1.801z"
     id="path46" />
  <path
     style="fill-rule:evenodd;opacity:0.5"
     d="m 24.0001,9.99987 c -2.216,0 -4,1.784 -4,4 v 10 c 0,0.027 0.007,0.051 0.008,0.078 a 8,8 0 0 0 -4.008,6.922 8,8 0 0 0 8,8 8,8 0 0 0 8,-8 8,8 0 0 0 -4.008,-6.926 c 10e-4,-0.025 0.008,-0.049 0.008,-0.074 v -10 c 0,-2.216 -1.784,-4 -4,-4 z m 0,2 c 1.108,0 2,0.892 2,2 v 11.352 a 6,6 0 0 1 4,5.648 6,6 0 0 1 -6,6 6,6 0 0 1 -6,-6 6,6 0 0 1 4,-5.65 v -11.35 c 0,-1.108 0.892,-2 2,-2 z"
     id="path48" />
  <path
     style="opacity:0.2"
     d="M 22.0001,21.0004 V 26.35 c -2.395,0.846 -3.997,3.11 -4,5.65 0,3.3137 2.6863,6 6,6 3.3137,0 6,-2.6863 6,-6 -0.0036,-2.5396 -1.6056,-4.8019 -4,-5.6484 v -5.352 z"
     id="path50" />
  <path
     style="fill:#ffffff;fill-opacity:1"
     d="m 22.0001,19.99987 v 5.3496 c -2.395,0.846 -3.997,3.11 -4,5.65 0,3.3137 2.6863,6 6,6 3.3137,0 6,-2.6863 6,-6 -0.0036,-2.5396 -1.6056,-4.8019 -4,-5.6484 v -5.352 z"
     id="path52" />
</svg>
