<?xml version="1.0" encoding="UTF-8" standalone="no"?>
<svg
   xmlns:dc="http://purl.org/dc/elements/1.1/"
   xmlns:cc="http://creativecommons.org/ns#"
   xmlns:rdf="http://www.w3.org/1999/02/22-rdf-syntax-ns#"
   xmlns:svg="http://www.w3.org/2000/svg"
   xmlns="http://www.w3.org/2000/svg"
   xmlns:sodipodi="http://sodipodi.sourceforge.net/DTD/sodipodi-0.dtd"
   xmlns:inkscape="http://www.inkscape.org/namespaces/inkscape"
   width="48"
   height="48"
   version="1.1"
   id="svg12"
   sodipodi:docname="tilesetter.svg"
   inkscape:version="0.92.5 (2060ec1f9f, 2020-04-08)">
  <metadata
     id="metadata18">
    <rdf:RDF>
      <cc:Work
         rdf:about="">
        <dc:format>image/svg+xml</dc:format>
        <dc:type
           rdf:resource="http://purl.org/dc/dcmitype/StillImage" />
      </cc:Work>
    </rdf:RDF>
  </metadata>
  <defs
     id="defs16" />
  <sodipodi:namedview
     pagecolor="#ffffff"
     bordercolor="#666666"
     borderopacity="1"
     objecttolerance="10"
     gridtolerance="10"
     guidetolerance="10"
     inkscape:pageopacity="0"
     inkscape:pageshadow="2"
     inkscape:window-width="783"
     inkscape:window-height="480"
     id="namedview14"
     showgrid="false"
     inkscape:zoom="4.9166667"
     inkscape:cx="24"
     inkscape:cy="24"
     inkscape:window-x="0"
     inkscape:window-y="28"
     inkscape:window-maximized="0"
     inkscape:current-layer="svg12" />
  <rect
     style="opacity:0.2"
     width="40"
     height="32"
     x="4"
     y="9"
     rx="2"
     ry="2"
     id="rect2" />
  <rect
     style="fill:#4c566a;fill-opacity:1"
     width="40"
     height="32"
     x="4"
     y="8"
     rx="2"
     ry="2"
     id="rect4" />
  <path
     style="fill:#ffffff;opacity:0.1"
     d="M 6 8 C 4.892 8 4 8.892 4 10 L 4 11 C 4 9.892 4.892 9 6 9 L 42 9 C 43.108 9 44 9.892 44 11 L 44 10 C 44 8.892 43.108 8 42 8 L 6 8 z"
     id="path6" />
  <path
     style="opacity:0.2"
     d="M 8.5996,12 C 7.7132,12 7,12.713 7,13.6 V 18 L 12,24 V 17 H 25 L 19,12 Z M 25,17 H 31 V 38 H 36 V 17 H 41 V 13.6 C 41,12.713 40.287,12 39.4,12 H 31 Z M 12,24 7,30 V 36.4 C 7,37.287 7.7132,38 8.5996,38 H 19 L 25,33 H 12 Z"
     id="path8" />
  <path
     style="fill:#e4e4e4"
     d="M 8.5996,11 C 7.7132,11 7,11.713 7,12.6 V 17 L 12,23 V 16 H 25 L 19,11 Z M 25,16 H 31 V 37 H 36 V 16 H 41 V 12.6 C 41,11.713 40.287,11 39.4,11 H 31 Z M 12,23 7,29 V 35.4 C 7,36.287 7.7132,37 8.5996,37 H 19 L 25,32 H 12 Z"
     id="path10" />
</svg>
