<?xml version="1.0" encoding="UTF-8" standalone="no"?>
<svg
   xmlns:dc="http://purl.org/dc/elements/1.1/"
   xmlns:cc="http://creativecommons.org/ns#"
   xmlns:rdf="http://www.w3.org/1999/02/22-rdf-syntax-ns#"
   xmlns:svg="http://www.w3.org/2000/svg"
   xmlns="http://www.w3.org/2000/svg"
   xmlns:sodipodi="http://sodipodi.sourceforge.net/DTD/sodipodi-0.dtd"
   xmlns:inkscape="http://www.inkscape.org/namespaces/inkscape"
   width="48"
   height="48"
   version="1"
   id="svg26"
   sodipodi:docname="tilix.svg"
   inkscape:version="0.92.5 (2060ec1f9f, 2020-04-08)">
  <metadata
     id="metadata32">
    <rdf:RDF>
      <cc:Work
         rdf:about="">
        <dc:format>image/svg+xml</dc:format>
        <dc:type
           rdf:resource="http://purl.org/dc/dcmitype/StillImage" />
      </cc:Work>
    </rdf:RDF>
  </metadata>
  <defs
     id="defs30" />
  <sodipodi:namedview
     pagecolor="#ffffff"
     bordercolor="#666666"
     borderopacity="1"
     objecttolerance="10"
     gridtolerance="10"
     guidetolerance="10"
     inkscape:pageopacity="0"
     inkscape:pageshadow="2"
     inkscape:window-width="783"
     inkscape:window-height="480"
     id="namedview28"
     showgrid="false"
     inkscape:zoom="4.9166667"
     inkscape:cx="24"
     inkscape:cy="24"
     inkscape:window-x="0"
     inkscape:window-y="28"
     inkscape:window-maximized="0"
     inkscape:current-layer="svg26" />
  <rect
     style="opacity:0.2"
     width="40"
     height="36"
     x="4"
     y="7"
     rx="3"
     ry="3"
     id="rect2" />
  <path
     style="fill:#5f697d;fill-opacity:1"
     d="M 24,6 V 42 H 7 C 5.338,42 4,40.662 4,39 V 9 C 4,7.338 5.338,6 7,6 Z"
     id="path4" />
  <path
     style="fill:#4c566a;fill-opacity:1"
     d="M 24 6 L 24 42 L 41 42 C 42.662 42 44 40.662 44 39 L 44 9 C 44 7.338 42.662 6 41 6 L 24 6 z"
     id="path6" />
  <path
     style="opacity:0.2;fill:none;stroke:#000000;stroke-width:3;stroke-linecap:round;stroke-linejoin:round"
     d="m 8.5,11.499881 4,3.5 -4,3.5"
     id="path8" />
  <path
     style="fill:none;stroke:#ffffff;stroke-width:3;stroke-linecap:round;stroke-linejoin:round"
     d="m 8.5,10.5 4,3.5 -4,3.5"
     id="path10" />
  <path
     style="opacity:0.2;fill:none;stroke:#000000;stroke-width:3;stroke-linecap:round;stroke-linejoin:round"
     d="m 15.5,18.499881 h 4"
     id="path12" />
  <path
     style="fill:none;stroke:#ffffff;stroke-width:3;stroke-linecap:round;stroke-linejoin:round"
     d="m 15.5,17.5 h 4"
     id="path14" />
  <path
     style="opacity:0.2;fill:none;stroke:#000000;stroke-width:3;stroke-linecap:round;stroke-linejoin:round"
     d="m 28.500115,11.499881 4,3.5 -4,3.5"
     id="path16" />
  <path
     style="fill:#ffffff;opacity:0.1"
     d="M 7 6 C 5.338 6 4 7.338 4 9 L 4 10 C 4 8.338 5.338 7 7 7 L 41 7 C 42.662 7 44 8.338 44 10 L 44 9 C 44 7.338 42.662 6 41 6 L 7 6 z"
     id="path18" />
  <path
     style="opacity:0.2;fill:none;stroke:#000000;stroke-width:3;stroke-linecap:round;stroke-linejoin:round"
     d="m 35.500115,18.499881 h 4"
     id="path20" />
  <path
     style="fill:none;stroke:#ffffff;stroke-width:3;stroke-linecap:round;stroke-linejoin:round"
     d="m 28.500115,10.5 4,3.5 -4,3.5"
     id="path22" />
  <path
     style="fill:none;stroke:#ffffff;stroke-width:3;stroke-linecap:round;stroke-linejoin:round"
     d="m 35.500115,17.5 h 4"
     id="path24" />
</svg>
