<?xml version="1.0" encoding="UTF-8" standalone="no"?>
<svg
   xmlns:dc="http://purl.org/dc/elements/1.1/"
   xmlns:cc="http://creativecommons.org/ns#"
   xmlns:rdf="http://www.w3.org/1999/02/22-rdf-syntax-ns#"
   xmlns:svg="http://www.w3.org/2000/svg"
   xmlns="http://www.w3.org/2000/svg"
   xmlns:sodipodi="http://sodipodi.sourceforge.net/DTD/sodipodi-0.dtd"
   xmlns:inkscape="http://www.inkscape.org/namespaces/inkscape"
   width="48"
   height="48"
   version="1.1"
   id="svg16"
   sodipodi:docname="tlauncher.svg"
   inkscape:version="0.92.5 (2060ec1f9f, 2020-04-08)">
  <metadata
     id="metadata22">
    <rdf:RDF>
      <cc:Work
         rdf:about="">
        <dc:format>image/svg+xml</dc:format>
        <dc:type
           rdf:resource="http://purl.org/dc/dcmitype/StillImage" />
      </cc:Work>
    </rdf:RDF>
  </metadata>
  <defs
     id="defs20" />
  <sodipodi:namedview
     pagecolor="#ffffff"
     bordercolor="#666666"
     borderopacity="1"
     objecttolerance="10"
     gridtolerance="10"
     guidetolerance="10"
     inkscape:pageopacity="0"
     inkscape:pageshadow="2"
     inkscape:window-width="783"
     inkscape:window-height="480"
     id="namedview18"
     showgrid="false"
     inkscape:zoom="4.9166667"
     inkscape:cx="-1.1186441"
     inkscape:cy="24"
     inkscape:window-x="0"
     inkscape:window-y="28"
     inkscape:window-maximized="0"
     inkscape:current-layer="svg16" />
  <rect
     style="opacity:0.2"
     width="40"
     height="40"
     x="4"
     y="5"
     ry="3"
     id="rect2" />
  <rect
     style="fill:#4c566a;fill-opacity:1"
     width="40"
     height="40"
     x="4"
     y="4"
     ry="3"
     id="rect4" />
  <path
     style="opacity:0.2"
     d="m 11,17 v 4 h 4 v 12 h 4 V 21 h 4 v -4 z m 14,0 v 12 c 0,1.166665 0.624116,2.27961 1.550781,2.974609 C 27.477447,32.669609 28.666668,33 30,33 h 7 v -4 h -7 c -0.634336,0 -0.908113,-0.150583 -1,-0.212891 V 17 Z"
     id="path6" />
  <path
     style="opacity:0.2;fill:#ffffff"
     d="M 7 4 C 5.338 4 4 5.338 4 7 L 4 8 C 4 6.338 5.338 5 7 5 L 41 5 C 42.662 5 44 6.338 44 8 L 44 7 C 44 5.338 42.662 4 41 4 L 7 4 z"
     id="path8" />
  <rect
     style="fill:#ffffff"
     width="12"
     height="4"
     x="11"
     y="16"
     id="rect10" />
  <rect
     style="fill:#ffffff"
     width="12"
     height="4"
     x="20"
     y="-19"
     transform="rotate(90)"
     id="rect12" />
  <path
     style="fill:none;stroke:#fbfbfb;stroke-width:4"
     d="m 27,16 v 12 c 0,1 1,2 3,2 h 7"
     id="path14" />
</svg>
