<?xml version="1.0" encoding="UTF-8" standalone="no"?>
<svg
   xmlns:dc="http://purl.org/dc/elements/1.1/"
   xmlns:cc="http://creativecommons.org/ns#"
   xmlns:rdf="http://www.w3.org/1999/02/22-rdf-syntax-ns#"
   xmlns:svg="http://www.w3.org/2000/svg"
   xmlns="http://www.w3.org/2000/svg"
   xmlns:sodipodi="http://sodipodi.sourceforge.net/DTD/sodipodi-0.dtd"
   xmlns:inkscape="http://www.inkscape.org/namespaces/inkscape"
   width="48"
   height="48"
   version="1"
   id="svg18"
   sodipodi:docname="tor-browser.svg"
   inkscape:version="0.92.5 (2060ec1f9f, 2020-04-08)">
  <metadata
     id="metadata24">
    <rdf:RDF>
      <cc:Work
         rdf:about="">
        <dc:format>image/svg+xml</dc:format>
        <dc:type
           rdf:resource="http://purl.org/dc/dcmitype/StillImage" />
      </cc:Work>
    </rdf:RDF>
  </metadata>
  <defs
     id="defs22" />
  <sodipodi:namedview
     pagecolor="#ffffff"
     bordercolor="#666666"
     borderopacity="1"
     objecttolerance="10"
     gridtolerance="10"
     guidetolerance="10"
     inkscape:pageopacity="0"
     inkscape:pageshadow="2"
     inkscape:window-width="783"
     inkscape:window-height="480"
     id="namedview20"
     showgrid="false"
     inkscape:zoom="6.9532167"
     inkscape:cx="20.860184"
     inkscape:cy="27.563395"
     inkscape:window-x="0"
     inkscape:window-y="28"
     inkscape:window-maximized="0"
     inkscape:current-layer="svg18" />
  <circle
     style="opacity:0.2"
     cx="24"
     cy="25"
     r="20"
     id="circle2" />
  <circle
     style="fill:#4c566a;fill-opacity:1"
     cx="24"
     cy="24"
     r="20"
     id="circle4" />
  <path
     style="opacity:0.2"
     d="M 24,8 C 14.628926,8 7,15.628926 7,25 7,34.371074 14.628926,42 24,42 33.371074,42 41,34.371074 41,25 41,15.628926 33.371074,8 24,8 Z m 0,3 c 7.749753,0 14,6.250247 14,14 0,7.749753 -6.250247,14 -14,14 -7.749753,0 -14,-6.250247 -14,-14 0,-7.749753 6.250247,-14 14,-14 z m 0,3 c -6.057365,0 -11,4.942635 -11,11 0,6.057365 4.942635,11 11,11 6.057365,0 11,-4.942635 11,-11 0,-6.057365 -4.942635,-11 -11,-11 z m 0,3 c 4.436045,0 8,3.563955 8,8 0,4.436045 -3.563955,8 -8,8 -4.436045,0 -8,-3.563955 -8,-8 0,-4.436045 3.563955,-8 8,-8 z m 0,3 a 5,5 0 0 0 -5,5 5,5 0 0 0 5,5 5,5 0 0 0 5,-5 5,5 0 0 0 -5,-5 z"
     id="path6" />
  <circle
     style="fill:none;stroke:#ffffff;stroke-width:3;stroke-linecap:round;stroke-linejoin:round"
     cx="24"
     cy="24"
     r="15.5"
     id="circle8" />
  <circle
     style="fill:none;stroke:#ffffff;stroke-width:3;stroke-linecap:round;stroke-linejoin:round"
     cx="24"
     cy="24"
     r="9.5"
     id="circle10" />
  <circle
     style="fill:#ffffff"
     cx="24"
     cy="24"
     r="5"
     id="circle12" />
  <path
     style="fill:#4c566a;fill-opacity:1"
     d="M 24,43 C 12.954305,43 5,35.045695 5,24 5,12.954305 12.954305,5 24,5 Z"
     id="path14" />
  <path
     style="opacity:0.1;fill:#ffffff"
     d="M 24 4 A 20 20 0 0 0 4 24 A 20 20 0 0 0 4.0214844 24.582031 A 20 20 0 0 1 24 5 A 20 20 0 0 1 43.978516 24.417969 A 20 20 0 0 0 44 24 A 20 20 0 0 0 24 4 z"
     id="path16" />
</svg>
