<?xml version="1.0" encoding="UTF-8" standalone="no"?>
<svg
   xmlns:dc="http://purl.org/dc/elements/1.1/"
   xmlns:cc="http://creativecommons.org/ns#"
   xmlns:rdf="http://www.w3.org/1999/02/22-rdf-syntax-ns#"
   xmlns:svg="http://www.w3.org/2000/svg"
   xmlns="http://www.w3.org/2000/svg"
   xmlns:sodipodi="http://sodipodi.sourceforge.net/DTD/sodipodi-0.dtd"
   xmlns:inkscape="http://www.inkscape.org/namespaces/inkscape"
   width="48"
   height="48"
   version="1"
   id="svg26"
   sodipodi:docname="preferences-desktop-touchpad.svg"
   inkscape:version="0.92.5 (2060ec1f9f, 2020-04-08)">
  <metadata
     id="metadata32">
    <rdf:RDF>
      <cc:Work
         rdf:about="">
        <dc:format>image/svg+xml</dc:format>
        <dc:type
           rdf:resource="http://purl.org/dc/dcmitype/StillImage" />
      </cc:Work>
    </rdf:RDF>
  </metadata>
  <defs
     id="defs30" />
  <sodipodi:namedview
     pagecolor="#ffffff"
     bordercolor="#666666"
     borderopacity="1"
     objecttolerance="10"
     gridtolerance="10"
     guidetolerance="10"
     inkscape:pageopacity="0"
     inkscape:pageshadow="2"
     inkscape:window-width="765"
     inkscape:window-height="480"
     id="namedview28"
     showgrid="false"
     inkscape:zoom="4.9166667"
     inkscape:cx="24"
     inkscape:cy="24"
     inkscape:window-x="0"
     inkscape:window-y="28"
     inkscape:window-maximized="0"
     inkscape:current-layer="svg26" />
  <rect
     style="opacity:0.2"
     width="40"
     height="40"
     x="4"
     y="5"
     rx="2"
     ry="2"
     id="rect2" />
  <rect
     fill="#4f4f4f"
     width="40"
     height="40"
     x="4"
     y="4"
     rx="2"
     ry="2"
     id="rect4"
     style="fill:#4c566a;fill-opacity:1" />
  <g
     opacity=".35"
     id="g22">
    <rect
       width="18"
       height="10"
       x="5"
       y="32"
       rx="2"
       ry="2"
       id="rect6" />
    <rect
       width="18"
       height="10"
       x="25"
       y="32"
       rx="2"
       ry="2"
       id="rect8" />
    <rect
       width="6"
       height="1"
       x="37"
       y="10"
       id="rect10" />
    <rect
       width="6"
       height="1"
       x="37"
       y="13"
       id="rect12" />
    <rect
       width="6"
       height="1"
       x="37"
       y="16"
       id="rect14" />
    <rect
       width="6"
       height="1"
       x="37"
       y="19"
       id="rect16" />
    <rect
       width="6"
       height="1"
       x="37"
       y="22"
       id="rect18" />
    <rect
       width="6"
       height="1"
       x="37"
       y="25"
       id="rect20" />
  </g>
  <path
     style="fill:#ffffff;opacity:.1"
     d="m6 4c-1.108 0-2 0.892-2 2v1c0-1.108 0.892-2 2-2h36c1.108 0 2 0.892 2 2v-1c0-1.108-0.892-2-2-2h-36z"
     id="path24" />
</svg>
