<?xml version="1.0" encoding="UTF-8" standalone="no"?>
<svg
   xmlns:dc="http://purl.org/dc/elements/1.1/"
   xmlns:cc="http://creativecommons.org/ns#"
   xmlns:rdf="http://www.w3.org/1999/02/22-rdf-syntax-ns#"
   xmlns:svg="http://www.w3.org/2000/svg"
   xmlns="http://www.w3.org/2000/svg"
   xmlns:sodipodi="http://sodipodi.sourceforge.net/DTD/sodipodi-0.dtd"
   xmlns:inkscape="http://www.inkscape.org/namespaces/inkscape"
   width="48"
   height="48"
   version="1.1"
   id="svg12"
   sodipodi:docname="trackmania-nations-forever.svg"
   inkscape:version="0.92.5 (2060ec1f9f, 2020-04-08)">
  <metadata
     id="metadata18">
    <rdf:RDF>
      <cc:Work
         rdf:about="">
        <dc:format>image/svg+xml</dc:format>
        <dc:type
           rdf:resource="http://purl.org/dc/dcmitype/StillImage" />
      </cc:Work>
    </rdf:RDF>
  </metadata>
  <defs
     id="defs16" />
  <sodipodi:namedview
     pagecolor="#ffffff"
     bordercolor="#666666"
     borderopacity="1"
     objecttolerance="10"
     gridtolerance="10"
     guidetolerance="10"
     inkscape:pageopacity="0"
     inkscape:pageshadow="2"
     inkscape:window-width="783"
     inkscape:window-height="480"
     id="namedview14"
     showgrid="false"
     inkscape:zoom="4.9166667"
     inkscape:cx="24"
     inkscape:cy="24"
     inkscape:window-x="0"
     inkscape:window-y="28"
     inkscape:window-maximized="0"
     inkscape:current-layer="svg12" />
  <rect
     x="4"
     y="5"
     width="40"
     height="40"
     rx="2"
     ry="2"
     style="opacity:.2"
     id="rect2" />
  <rect
     x="4"
     y="4"
     width="40"
     height="40"
     rx="2"
     ry="2"
     style="fill:#4c566a;fill-opacity:1"
     id="rect4" />
  <path
     d="m6 4c-1.108 0-2 0.892-2 2v1c0-1.108 0.892-2 2-2h36c1.108 0 2 0.892 2 2v-1c0-1.108-0.892-2-2-2h-36z"
     style="fill:#ffffff;opacity:.2"
     id="path6" />
  <path
     d="m6 20v2h15v-2zm16 0v2h18v8h2v-10zm-16 3v2h5v5h2v-7zm8 0v7h2v-5h5v-2h-5zm8 0v7h2v-7zm3 0v7h2v-5h3v5h2v-7h-5zm8 0v7h2v-5h2v5h2v-7h-4z"
     style="opacity:.2"
     id="path8" />
  <path
     d="m6 19v2h15v-2h-15zm16 0v2h18v8h2v-10h-20zm-16 3v2h5v5h2v-7h-7zm8 0v7h2v-5h5v-2h-5-2zm8 0v7h2v-7h-2zm3 0v2 5h2v-5h3v5h2v-7h-5-2zm8 0v7h2v-5h2v5h2v-7h-4-2z"
     style="fill:#ffffff"
     id="path10" />
</svg>
