<?xml version="1.0" encoding="UTF-8" standalone="no"?>
<svg
   xmlns:dc="http://purl.org/dc/elements/1.1/"
   xmlns:cc="http://creativecommons.org/ns#"
   xmlns:rdf="http://www.w3.org/1999/02/22-rdf-syntax-ns#"
   xmlns:svg="http://www.w3.org/2000/svg"
   xmlns="http://www.w3.org/2000/svg"
   xmlns:sodipodi="http://sodipodi.sourceforge.net/DTD/sodipodi-0.dtd"
   xmlns:inkscape="http://www.inkscape.org/namespaces/inkscape"
   width="48"
   height="48"
   version="1.1"
   id="svg12"
   sodipodi:docname="tracktion-download-manager.svg"
   inkscape:version="0.92.5 (2060ec1f9f, 2020-04-08)">
  <metadata
     id="metadata18">
    <rdf:RDF>
      <cc:Work
         rdf:about="">
        <dc:format>image/svg+xml</dc:format>
        <dc:type
           rdf:resource="http://purl.org/dc/dcmitype/StillImage" />
      </cc:Work>
    </rdf:RDF>
  </metadata>
  <defs
     id="defs16" />
  <sodipodi:namedview
     pagecolor="#ffffff"
     bordercolor="#666666"
     borderopacity="1"
     objecttolerance="10"
     gridtolerance="10"
     guidetolerance="10"
     inkscape:pageopacity="0"
     inkscape:pageshadow="2"
     inkscape:window-width="783"
     inkscape:window-height="480"
     id="namedview14"
     showgrid="false"
     inkscape:zoom="4.9166667"
     inkscape:cx="24"
     inkscape:cy="24"
     inkscape:window-x="0"
     inkscape:window-y="28"
     inkscape:window-maximized="0"
     inkscape:current-layer="svg12" />
  <circle
     style="opacity:0.2"
     cx="24"
     cy="25"
     r="20"
     id="circle2" />
  <circle
     style="fill:#4c566a;fill-opacity:1"
     cx="24"
     cy="24"
     r="20"
     id="circle4" />
  <path
     style="opacity:0.1;fill:#ffffff"
     d="M 24,4 A 20,20 0 0 0 4,24 20,20 0 0 0 4.0215,24.582 20,20 0 0 1 24,5 20,20 0 0 1 43.979,24.418 20,20 0 0 0 44,24 20,20 0 0 0 24,4 Z"
     id="path6" />
  <path
     style="opacity:0.2"
     d="M 24,11 A 14,14 0 0 0 10,25 14,14 0 0 0 24,39 14,14 0 0 0 38,25 14,14 0 0 0 24,11 Z m -2,3 h 4 v 2.228516 a 9,9 0 0 1 2.787109,1.154296 l 1.576172,-1.576171 2.830078,2.830078 -1.576171,1.576172 A 9,9 0 0 1 32.771484,23 H 35 v 4 h -2.248047 a 9,9 0 0 1 -1.136719,2.785156 l 1.578125,1.578125 -2.830078,2.830078 -1.578125,-1.578125 A 9,9 0 0 1 26,33.751953 V 36 h -4 v -2.248047 a 9,9 0 0 1 -2.785156,-1.136719 l -1.578125,1.578125 -2.830078,-2.830078 1.578125,-1.578125 A 9,9 0 0 1 15.248047,27 H 13 v -4 h 2.248047 a 9,9 0 0 1 1.136719,-2.785156 l -1.578125,-1.578125 2.830078,-2.830078 1.578125,1.578125 A 9,9 0 0 1 22,16.248047 Z"
     id="path8" />
  <path
     style="fill:#ffffff"
     d="M 24 10 A 14 14 0 0 0 10 24 A 14 14 0 0 0 24 38 A 14 14 0 0 0 38 24 A 14 14 0 0 0 24 10 z M 22 13 L 26 13 L 26 15.228516 A 9 9 0 0 1 28.787109 16.382812 L 30.363281 14.806641 L 33.193359 17.636719 L 31.617188 19.212891 A 9 9 0 0 1 32.771484 22 L 35 22 L 35 26 L 32.751953 26 A 9 9 0 0 1 31.615234 28.785156 L 33.193359 30.363281 L 30.363281 33.193359 L 28.785156 31.615234 A 9 9 0 0 1 26 32.751953 L 26 35 L 22 35 L 22 32.751953 A 9 9 0 0 1 19.214844 31.615234 L 17.636719 33.193359 L 14.806641 30.363281 L 16.384766 28.785156 A 9 9 0 0 1 15.248047 26 L 13 26 L 13 22 L 15.248047 22 A 9 9 0 0 1 16.384766 19.214844 L 14.806641 17.636719 L 17.636719 14.806641 L 19.214844 16.384766 A 9 9 0 0 1 22 15.248047 L 22 13 z"
     id="path10" />
</svg>
