<?xml version="1.0" encoding="UTF-8" standalone="no"?>
<svg
   xmlns:dc="http://purl.org/dc/elements/1.1/"
   xmlns:cc="http://creativecommons.org/ns#"
   xmlns:rdf="http://www.w3.org/1999/02/22-rdf-syntax-ns#"
   xmlns:svg="http://www.w3.org/2000/svg"
   xmlns="http://www.w3.org/2000/svg"
   xmlns:sodipodi="http://sodipodi.sourceforge.net/DTD/sodipodi-0.dtd"
   xmlns:inkscape="http://www.inkscape.org/namespaces/inkscape"
   width="48"
   height="48"
   version="1.1"
   id="svg12"
   sodipodi:docname="usb.svg"
   inkscape:version="0.92.5 (2060ec1f9f, 2020-04-08)">
  <metadata
     id="metadata18">
    <rdf:RDF>
      <cc:Work
         rdf:about="">
        <dc:format>image/svg+xml</dc:format>
        <dc:type
           rdf:resource="http://purl.org/dc/dcmitype/StillImage" />
      </cc:Work>
    </rdf:RDF>
  </metadata>
  <defs
     id="defs16" />
  <sodipodi:namedview
     pagecolor="#ffffff"
     bordercolor="#666666"
     borderopacity="1"
     objecttolerance="10"
     gridtolerance="10"
     guidetolerance="10"
     inkscape:pageopacity="0"
     inkscape:pageshadow="2"
     inkscape:window-width="783"
     inkscape:window-height="480"
     id="namedview14"
     showgrid="false"
     inkscape:zoom="4.9166667"
     inkscape:cx="24"
     inkscape:cy="24"
     inkscape:window-x="0"
     inkscape:window-y="28"
     inkscape:window-maximized="0"
     inkscape:current-layer="svg12" />
  <rect
     style="opacity:0.2"
     width="40"
     height="40"
     x="4"
     y="5"
     rx="12"
     ry="12"
     id="rect2" />
  <rect
     style="fill:#4c566a;fill-opacity:1"
     width="40"
     height="40"
     x="4"
     y="4"
     rx="12"
     ry="12"
     id="rect4" />
  <path
     style="opacity:0.1;fill:#ffffff"
     d="M 16,4 C 9.352,4 4,9.352 4,16 v 1 C 4,10.352 9.352,5 16,5 h 16 c 6.648,0 12,5.352 12,12 V 16 C 44,9.352 38.648,4 32,4 Z"
     id="path6" />
  <path
     style="opacity:0.2"
     d="m 24,9 -5,8 h 3 v 10 h -6 v -2.539 c 1.24,-0.72 2,-2.041 2,-3.461 0,-2.2 -1.8,-4 -4,-4 -2.2,0 -4,1.8 -4,4 0,1.42 0.76,2.741 2,3.461 V 27 c 0,4 4,4 4,4 h 6 v 2.54 c -1.24,0.72 -2,2.04 -2,3.46 0,2.2 1.8,4 4,4 2.2,0 4,-1.8 4,-4 0,-1.42 -0.76,-2.74 -2,-3.46 V 31 h 6 c 0,0 4,0 4,-4 v -2 c 1.108,0 2,-0.892 2,-2 v -4 c 0,-1.108 -0.892,-2 -2,-2 h -4 c -1.108,0 -2,0.892 -2,2 v 4 c 0,1.108 0.892,2 2,2 v 2 H 26 V 17 h 3 z"
     id="path8" />
  <path
     style="fill:#ffffff"
     d="m 24,8 -5,8 h 3 v 10 h -6 v -2.539 c 1.24,-0.72 2,-2.041 2,-3.461 0,-2.2 -1.8,-4 -4,-4 -2.2,0 -4,1.8 -4,4 0,1.42 0.76,2.741 2,3.461 V 26 c 0,4 4,4 4,4 h 6 v 2.54 c -1.24,0.72 -2,2.04 -2,3.46 0,2.2 1.8,4 4,4 2.2,0 4,-1.8 4,-4 0,-1.42 -0.76,-2.74 -2,-3.46 V 30 h 6 c 0,0 4,0 4,-4 v -2 c 1.108,0 2,-0.892 2,-2 v -4 c 0,-1.108 -0.892,-2 -2,-2 h -4 c -1.108,0 -2,0.892 -2,2 v 4 c 0,1.108 0.892,2 2,2 v 2 H 26 V 16 h 3 z"
     id="path10" />
</svg>
