<?xml version="1.0" encoding="UTF-8" standalone="no"?>
<svg
   xmlns:dc="http://purl.org/dc/elements/1.1/"
   xmlns:cc="http://creativecommons.org/ns#"
   xmlns:rdf="http://www.w3.org/1999/02/22-rdf-syntax-ns#"
   xmlns:svg="http://www.w3.org/2000/svg"
   xmlns="http://www.w3.org/2000/svg"
   xmlns:sodipodi="http://sodipodi.sourceforge.net/DTD/sodipodi-0.dtd"
   xmlns:inkscape="http://www.inkscape.org/namespaces/inkscape"
   width="48"
   height="48"
   version="1"
   id="svg20"
   sodipodi:docname="konsole.svg"
   inkscape:version="0.92.5 (2060ec1f9f, 2020-04-08)">
  <metadata
     id="metadata26">
    <rdf:RDF>
      <cc:Work
         rdf:about="">
        <dc:format>image/svg+xml</dc:format>
        <dc:type
           rdf:resource="http://purl.org/dc/dcmitype/StillImage" />
      </cc:Work>
    </rdf:RDF>
  </metadata>
  <defs
     id="defs24" />
  <sodipodi:namedview
     pagecolor="#ffffff"
     bordercolor="#666666"
     borderopacity="1"
     objecttolerance="10"
     gridtolerance="10"
     guidetolerance="10"
     inkscape:pageopacity="0"
     inkscape:pageshadow="2"
     inkscape:window-width="640"
     inkscape:window-height="480"
     id="namedview22"
     showgrid="false"
     inkscape:zoom="4.9166667"
     inkscape:cx="24"
     inkscape:cy="24"
     inkscape:current-layer="svg20" />
  <rect
     style="opacity:0.2"
     width="40"
     height="36"
     x="4"
     y="7"
     rx="3"
     ry="3"
     id="rect2" />
  <rect
     style="fill:#4c566a;fill-opacity:1"
     width="40"
     height="36"
     x="4"
     y="6"
     rx="3"
     ry="3"
     id="rect4" />
  <path
     style="fill:#ffffff;opacity:0.1"
     d="M 7 6 C 5.338 6 4 7.338 4 9 L 4 10 C 4 8.338 5.338 7 7 7 L 41 7 C 42.662 7 44 8.338 44 10 L 44 9 C 44 7.338 42.662 6 41 6 L 7 6 z"
     id="path6" />
  <rect
     style="opacity:0.2"
     width="12"
     height="4"
     x="20"
     y="23"
     rx="1"
     ry="1"
     id="rect8" />
  <rect
     style="fill:#ffffff"
     width="12"
     height="4"
     x="20"
     y="22"
     rx="1"
     ry="1"
     id="rect10" />
  <rect
     style="opacity:0.2"
     width="12.245"
     height="4.082"
     x="-12.71"
     y="23.12"
     rx="1.02"
     ry="1.02"
     transform="matrix(0.72685813,-0.68678763,0.72685813,0.68678763,0,0)"
     id="rect12" />
  <rect
     style="fill:#a2a2a2"
     width="12.245"
     height="4.082"
     x="-11.98"
     y="22.39"
     rx="1.02"
     ry="1.02"
     transform="matrix(0.72685813,-0.68678763,0.72685813,0.68678763,0,0)"
     id="rect14" />
  <rect
     style="opacity:0.2"
     width="12.245"
     height="4.082"
     x="14.96"
     y="-4.55"
     rx="1.02"
     ry="1.02"
     transform="matrix(0.72685813,0.68678763,0.72685813,-0.68678763,0,0)"
     id="rect16" />
  <rect
     style="fill:#ffffff"
     width="12.245"
     height="4.082"
     x="14.23"
     y="-3.82"
     rx="1.02"
     ry="1.02"
     transform="matrix(0.72685813,0.68678763,0.72685813,-0.68678763,0,0)"
     id="rect18" />
</svg>
