<?xml version="1.0" encoding="UTF-8" standalone="no"?>
<svg
   xmlns:dc="http://purl.org/dc/elements/1.1/"
   xmlns:cc="http://creativecommons.org/ns#"
   xmlns:rdf="http://www.w3.org/1999/02/22-rdf-syntax-ns#"
   xmlns:svg="http://www.w3.org/2000/svg"
   xmlns="http://www.w3.org/2000/svg"
   xmlns:sodipodi="http://sodipodi.sourceforge.net/DTD/sodipodi-0.dtd"
   xmlns:inkscape="http://www.inkscape.org/namespaces/inkscape"
   width="48"
   height="48"
   version="1"
   id="svg22"
   sodipodi:docname="valheim.svg"
   inkscape:version="0.92.5 (2060ec1f9f, 2020-04-08)">
  <metadata
     id="metadata28">
    <rdf:RDF>
      <cc:Work
         rdf:about="">
        <dc:format>image/svg+xml</dc:format>
        <dc:type
           rdf:resource="http://purl.org/dc/dcmitype/StillImage" />
      </cc:Work>
    </rdf:RDF>
  </metadata>
  <defs
     id="defs26" />
  <sodipodi:namedview
     pagecolor="#ffffff"
     bordercolor="#666666"
     borderopacity="1"
     objecttolerance="10"
     gridtolerance="10"
     guidetolerance="10"
     inkscape:pageopacity="0"
     inkscape:pageshadow="2"
     inkscape:window-width="783"
     inkscape:window-height="480"
     id="namedview24"
     showgrid="false"
     inkscape:zoom="9.8333333"
     inkscape:cx="20.942292"
     inkscape:cy="33.767569"
     inkscape:window-x="0"
     inkscape:window-y="28"
     inkscape:window-maximized="0"
     inkscape:current-layer="svg22" />
  <rect
     style="opacity:0.2"
     width="40"
     height="40"
     x="4"
     y="5"
     rx="12"
     ry="12"
     id="rect2" />
  <rect
     style="fill:#4c566a;fill-opacity:1"
     width="40"
     height="40"
     x="4"
     y="4"
     rx="12"
     ry="12"
     id="rect4" />
  <path
     style="opacity:0.2"
     d="M 12 12 L 15 16 L 24 40 L 33 16 L 36 12 L 28 12 L 30 14 L 24 30 L 18 14 L 20 12 L 12 12 z"
     id="path6" />
  <path
     style="opacity:0.1;fill:#ffffff"
     d="M 16,4 C 9.352,4 4,9.352 4,16 v 1 C 4,10.352 9.352,5 16,5 h 16 c 6.648,0 12,5.352 12,12 V 16 C 44,9.352 38.648,4 32,4 Z"
     id="path8" />
  <path
     style="fill:#5f697d;fill-opacity:1"
     d="m 20,11 -2,2 6,16 v 6 L 15,13 Z"
     id="path10" />
  <path
     style="fill:#ffffff;fill-opacity:1"
     d="m 12,11 3,4 9,24 V 34 L 16,13 15,12 Z"
     id="path12" />
  <path
     style="fill:#ffffff;fill-opacity:1"
     d="m 12,11 4,2 4,-2 z"
     id="path14" />
  <path
     style="fill:#ffffff;fill-opacity:1"
     d="m 28,11 2,2 -6,16 v 6 l 9,-22 z"
     id="path16" />
  <path
     style="fill:#5f697d;fill-opacity:1"
     d="m 36,11 -3,4 -9,24 v -5 l 8,-21 1,-1 z"
     id="path18" />
  <path
     style="fill:#fcfbf9;fill-opacity:1"
     d="m 36,11 -4,2 -4,-2 z"
     id="path20" />
</svg>
