<?xml version="1.0" encoding="UTF-8" standalone="no"?>
<svg
   xmlns:dc="http://purl.org/dc/elements/1.1/"
   xmlns:cc="http://creativecommons.org/ns#"
   xmlns:rdf="http://www.w3.org/1999/02/22-rdf-syntax-ns#"
   xmlns:svg="http://www.w3.org/2000/svg"
   xmlns="http://www.w3.org/2000/svg"
   xmlns:sodipodi="http://sodipodi.sourceforge.net/DTD/sodipodi-0.dtd"
   xmlns:inkscape="http://www.inkscape.org/namespaces/inkscape"
   width="48"
   height="48"
   version="1"
   id="svg26"
   sodipodi:docname="vbam.svg"
   inkscape:version="0.92.5 (2060ec1f9f, 2020-04-08)">
  <metadata
     id="metadata32">
    <rdf:RDF>
      <cc:Work
         rdf:about="">
        <dc:format>image/svg+xml</dc:format>
        <dc:type
           rdf:resource="http://purl.org/dc/dcmitype/StillImage" />
      </cc:Work>
    </rdf:RDF>
  </metadata>
  <defs
     id="defs30" />
  <sodipodi:namedview
     pagecolor="#ffffff"
     bordercolor="#666666"
     borderopacity="1"
     objecttolerance="10"
     gridtolerance="10"
     guidetolerance="10"
     inkscape:pageopacity="0"
     inkscape:pageshadow="2"
     inkscape:window-width="783"
     inkscape:window-height="480"
     id="namedview28"
     showgrid="false"
     inkscape:zoom="6.9532167"
     inkscape:cx="31.087494"
     inkscape:cy="29.956211"
     inkscape:window-x="0"
     inkscape:window-y="28"
     inkscape:window-maximized="0"
     inkscape:current-layer="svg26" />
  <path
     style="opacity:0.2"
     d="m 17.99082,12 c -2.141948,0 -4.053815,0.672266 -5.368945,2 L 8.6,14 C 4.9436,14 2,17.065667 2,20.666667 l 0,8.666666 C 2,32.934333 4.9436,36 8.6,36 l 4.021875,0 c 1.31513,1.327701 3.226997,2 5.368945,2 l 12.01836,0 c 2.141948,0 4.053815,-0.672266 5.368945,-2 L 39.4,36 c 3.6564,0 6.6,-3.065667 6.6,-6.666667 l 0,-8.666666 C 46,17.065667 43.0564,14 39.4,14 l -4.021875,0 c -1.31513,-1.327701 -3.226997,-2 -5.368945,-2 z"
     id="path2" />
  <path
     style="fill:#4c566a;fill-opacity:1"
     d="m 17.99082,11 c -2.141948,0 -4.053815,0.672266 -5.368945,2 L 8.6,13 C 4.9436,13 2,16.065667 2,19.666667 l 0,8.666666 C 2,31.934333 4.9436,35 8.6,35 l 4.021875,0 c 1.31513,1.327701 3.226997,2 5.368945,2 l 12.01836,0 c 2.141948,0 4.053815,-0.672266 5.368945,-2 L 39.4,35 c 3.6564,0 6.6,-3.065667 6.6,-6.666667 l 0,-8.666666 C 46,16.065667 43.0564,13 39.4,13 l -4.021875,0 c -1.31513,-1.327701 -3.226997,-2 -5.368945,-2 z"
     id="path4" />
  <circle
     style="opacity:0.2"
     cx="42"
     cy="23"
     r="2"
     id="circle6" />
  <circle
     style="fill:#ffffff"
     cx="42"
     cy="22"
     r="2"
     id="circle8" />
  <circle
     style="opacity:0.2"
     cx="25"
     cy="-36"
     r="2"
     transform="matrix(0,1,-1,0,0,0)"
     id="circle10" />
  <circle
     style="fill:#ffffff"
     cx="24"
     cy="-36"
     r="2"
     transform="matrix(0,1,-1,0,0,0)"
     id="circle12" />
  <path
     style="opacity:0.2"
     d="m 8,20 c -0.554,0 -1,0.446 -1,1 l 0,2 -2,0 c -0.554,0 -1,0.446 -1,1 l 0,2 c 0,0.554 0.446,1 1,1 l 2,0 0,2 c 0,0.554 0.446,1 1,1 l 2,0 c 0.554,0 1,-0.446 1,-1 l 0,-2 2,0 c 0.554,0 1,-0.446 1,-1 l 0,-2 c 0,-0.554 -0.446,-1 -1,-1 l -2,0 0,-2 c 0,-0.554 -0.446,-1 -1,-1 l -2,0 z"
     id="path14" />
  <path
     style="fill:#ffffff"
     d="m 8,19 c -0.554,0 -1,0.446 -1,1 l 0,2 -2,0 c -0.554,0 -1,0.446 -1,1 l 0,2 c 0,0.554 0.446,1 1,1 l 2,0 0,2 c 0,0.554 0.446,1 1,1 l 2,0 c 0.554,0 1,-0.446 1,-1 l 0,-2 2,0 c 0.554,0 1,-0.446 1,-1 l 0,-2 c 0,-0.554 -0.446,-1 -1,-1 l -2,0 0,-2 c 0,-0.554 -0.446,-1 -1,-1 l -2,0 z"
     id="path16" />
  <path
     style="fill:#ffffff;opacity:0.1"
     d="M 17.990234 11 C 15.848286 11 13.936224 11.672266 12.621094 13 L 8.5996094 13 C 4.9432094 13 2 16.065016 2 19.666016 L 2 20.666016 C 2 17.065016 4.9432094 14 8.5996094 14 L 12.621094 14 C 13.936224 12.672266 15.848286 12 17.990234 12 L 30.009766 12 C 32.151714 12 34.063776 12.672299 35.378906 14 L 39.400391 14 C 43.056791 14 46 17.065016 46 20.666016 L 46 19.666016 C 46 16.065016 43.056791 13 39.400391 13 L 35.378906 13 C 34.063776 11.672299 32.151714 11 30.009766 11 L 17.990234 11 z"
     id="path18" />
  <rect
     style="fill:#f5f7fe;fill-opacity:1"
     width="16"
     height="16"
     x="16"
     y="16"
     id="rect20" />
  <circle
     style="opacity:0.2"
     cx="17"
     cy="-41"
     r="1"
     transform="matrix(0,1,-1,0,0,0)"
     id="circle22" />
  <circle
     style="fill:#ffffff;fill-opacity:1"
     cx="16"
     cy="-41"
     r="1"
     transform="matrix(0,1,-1,0,0,0)"
     id="circle24" />
</svg>
