<?xml version="1.0" encoding="UTF-8" standalone="no"?>
<svg
   xmlns:dc="http://purl.org/dc/elements/1.1/"
   xmlns:cc="http://creativecommons.org/ns#"
   xmlns:rdf="http://www.w3.org/1999/02/22-rdf-syntax-ns#"
   xmlns:svg="http://www.w3.org/2000/svg"
   xmlns="http://www.w3.org/2000/svg"
   xmlns:sodipodi="http://sodipodi.sourceforge.net/DTD/sodipodi-0.dtd"
   xmlns:inkscape="http://www.inkscape.org/namespaces/inkscape"
   width="48"
   height="48"
   version="1.1"
   id="svg14"
   sodipodi:docname="vdrift.svg"
   inkscape:version="0.92.5 (2060ec1f9f, 2020-04-08)">
  <metadata
     id="metadata20">
    <rdf:RDF>
      <cc:Work
         rdf:about="">
        <dc:format>image/svg+xml</dc:format>
        <dc:type
           rdf:resource="http://purl.org/dc/dcmitype/StillImage" />
      </cc:Work>
    </rdf:RDF>
  </metadata>
  <defs
     id="defs18" />
  <sodipodi:namedview
     pagecolor="#ffffff"
     bordercolor="#666666"
     borderopacity="1"
     objecttolerance="10"
     gridtolerance="10"
     guidetolerance="10"
     inkscape:pageopacity="0"
     inkscape:pageshadow="2"
     inkscape:window-width="783"
     inkscape:window-height="480"
     id="namedview16"
     showgrid="false"
     inkscape:zoom="4.9166667"
     inkscape:cx="24"
     inkscape:cy="24"
     inkscape:window-x="0"
     inkscape:window-y="28"
     inkscape:window-maximized="0"
     inkscape:current-layer="svg14" />
  <path
     style="opacity:0.2;fill-rule:evenodd"
     d="m 32.420317,42 c 0.853204,-8.5e-5 1.54484,-0.684545 1.544926,-1.528895 0,-6.937288 1.294,-11.563787 2.62215,-13.590106 0.752589,-1.148202 1.327572,-1.755394 2.232901,-2.185842 0.905328,-0.430447 2.295796,-0.697259 4.634779,-0.697259 0.853204,-8.5e-5 1.544841,-0.684546 1.544926,-1.528896 l 0,-12.940107 C 44.999914,8.684545 44.308277,8.000084 43.455073,8 35.03038,8 27.385216,11.692002 23.194512,18.085631 c -4.115417,6.278766 -5.194513,13.895748 -5.194513,22.385474 8.6e-5,0.844351 0.691723,1.528811 1.544927,1.528895 z"
     id="path2" />
  <path
     style="fill:#5f697d;fill-rule:evenodd;fill-opacity:1"
     d="m 32.420317,41 c 0.853204,-8.5e-5 1.54484,-0.684545 1.544926,-1.528895 0,-6.937288 1.294,-11.563787 2.62215,-13.590106 0.752589,-1.148202 1.327572,-1.755394 2.232901,-2.185842 0.905328,-0.430447 2.295796,-0.697259 4.634779,-0.697259 0.853204,-8.5e-5 1.544841,-0.684546 1.544926,-1.528896 l 0,-12.940107 C 44.999914,7.684545 44.308277,7.000084 43.455073,7 35.03038,7 27.385216,10.692002 23.194512,17.085631 c -4.115417,6.278766 -5.194513,13.895748 -5.194513,22.385474 8.6e-5,0.844351 0.691723,1.528811 1.544927,1.528895 z"
     id="path4" />
  <path
     style="fill:#ffffff;fill-rule:evenodd;opacity:0.1"
     d="M 43.455078 7 C 35.030385 7 27.386016 10.692308 23.195312 17.085938 C 19.079895 23.364704 18 30.980977 18 39.470703 C 18.000005 39.52083 18.010856 39.568297 18.015625 39.617188 C 18.088633 31.47367 19.219702 24.151406 23.195312 18.085938 C 27.386016 11.692308 35.030385 8 43.455078 8 C 44.308282 8.000084 44.999915 8.6849469 45 9.5292969 L 45 8.5292969 C 44.999915 7.6849469 44.308282 7.000084 43.455078 7 z"
     id="path6" />
  <path
     style="opacity:0.2"
     d="m 32.439308,42 a 1.5613757,1.5711343 0 0 0 1.404183,-2.256746 L 18.975314,8.88521 A 1.5613757,1.5711343 0 0 0 17.569607,8 L 4.559952,8 A 1.5613757,1.5711343 0 0 0 3.15577,10.255212 L 18.023946,41.114791 A 1.5613757,1.5711343 0 0 0 19.428129,42 l 13.011179,0 z"
     id="path8" />
  <path
     style="fill:#4c566a;fill-opacity:1"
     d="m 32.439308,41 a 1.5613757,1.5711343 0 0 0 1.404183,-2.256746 L 18.975314,7.88521 A 1.5613757,1.5711343 0 0 0 17.569607,7 L 4.559952,7 A 1.5613757,1.5711343 0 0 0 3.15577,9.255212 L 18.023946,40.114791 A 1.5613757,1.5711343 0 0 0 19.428129,41 l 13.011179,0 z"
     id="path10" />
  <path
     style="fill:#ffffff;opacity:0.2"
     d="M 4.5605469 7 A 1.5613757 1.5711343 0 0 0 3.0820312 9.0742188 A 1.5613757 1.5711343 0 0 1 4.5605469 8 L 17.570312 8 A 1.5613757 1.5711343 0 0 1 18.974609 8.8847656 L 33.84375 39.744141 A 1.5613757 1.5711343 0 0 1 33.917969 39.925781 A 1.5613757 1.5711343 0 0 0 33.84375 38.744141 L 18.974609 7.8847656 A 1.5613757 1.5711343 0 0 0 17.570312 7 L 4.5605469 7 z"
     id="path12" />
</svg>
