<?xml version="1.0" encoding="UTF-8" standalone="no"?>
<svg
   xmlns:dc="http://purl.org/dc/elements/1.1/"
   xmlns:cc="http://creativecommons.org/ns#"
   xmlns:rdf="http://www.w3.org/1999/02/22-rdf-syntax-ns#"
   xmlns:svg="http://www.w3.org/2000/svg"
   xmlns="http://www.w3.org/2000/svg"
   xmlns:sodipodi="http://sodipodi.sourceforge.net/DTD/sodipodi-0.dtd"
   xmlns:inkscape="http://www.inkscape.org/namespaces/inkscape"
   width="48"
   height="48"
   version="1"
   id="svg26"
   sodipodi:docname="com.ozmartians.VidCutter.svg"
   inkscape:version="0.92.5 (2060ec1f9f, 2020-04-08)">
  <metadata
     id="metadata32">
    <rdf:RDF>
      <cc:Work
         rdf:about="">
        <dc:format>image/svg+xml</dc:format>
        <dc:type
           rdf:resource="http://purl.org/dc/dcmitype/StillImage" />
      </cc:Work>
    </rdf:RDF>
  </metadata>
  <defs
     id="defs30" />
  <sodipodi:namedview
     pagecolor="#ffffff"
     bordercolor="#666666"
     borderopacity="1"
     objecttolerance="10"
     gridtolerance="10"
     guidetolerance="10"
     inkscape:pageopacity="0"
     inkscape:pageshadow="2"
     inkscape:window-width="783"
     inkscape:window-height="480"
     id="namedview28"
     showgrid="false"
     inkscape:zoom="4.9166667"
     inkscape:cx="24"
     inkscape:cy="24"
     inkscape:window-x="0"
     inkscape:window-y="28"
     inkscape:window-maximized="0"
     inkscape:current-layer="svg26" />
  <rect
     style="fill:#4c566a;fill-opacity:1"
     width="40"
     height="40"
     x="4"
     y="4"
     rx="2"
     ry="2"
     id="rect2" />
  <path
     style="opacity:0.1;fill:#ffffff"
     d="M 6,4 C 4.892,4 4,4.892 4,6 L 4,7 C 4,5.892 4.892,5 6,5 l 36,0 c 1.108,0 2,0.892 2,2 L 44,6 C 44,4.892 43.108,4 42,4 L 6,4 Z"
     id="path4" />
  <path
     style="opacity:0.2"
     d="M 6,45 C 4.892,45 4,44.108 4,43 l 0,-1 c 0,1.108 0.892,2 2,2 l 36,0 c 1.108,0 2,-0.892 2,-2 l 0,1 c 0,1.108 -0.892,2 -2,2 L 6,45 Z"
     id="path6" />
  <path
     style="opacity:0.2"
     d="m 6,7 0,4 4,0 0,-4 -4,0 z m 32,0 0,4 4,0 0,-4 -4,0 z m -32,8 0,4 4,0 0,-4 -4,0 z m 32,0 0,4 4,0 0,-4 -4,0 z m -32,8 0,4 4,0 0,-4 -4,0 z m 32,0 0,4 4,0 0,-4 -4,0 z m -32,8 0,4 4,0 0,-4 -4,0 z m 32,0 0,4 4,0 0,-4 -4,0 z m -32,8 0,4 4,0 0,-4 -4,0 z m 32,0 0,4 4,0 0,-4 -4,0 z"
     id="path8" />
  <path
     style="fill:#ffffff"
     d="m 6,6 0,4 4,0 0,-4 -4,0 z m 32,0 0,4 4,0 0,-4 -4,0 z m -32,8 0,4 4,0 0,-4 -4,0 z m 32,0 0,4 4,0 0,-4 -4,0 z m -32,8 0,4 4,0 0,-4 -4,0 z m 32,0 0,4 4,0 0,-4 -4,0 z m -32,8 0,4 4,0 0,-4 -4,0 z m 32,0 0,4 4,0 0,-4 -4,0 z m -32,8 0,4 4,0 0,-4 -4,0 z m 32,0 0,4 4,0 0,-4 -4,0 z"
     id="path10" />
  <rect
     style="opacity:0.2"
     width="20"
     height="14"
     x="14"
     y="9"
     id="rect12" />
  <rect
     style="fill:#ffffff"
     width="20"
     height="14"
     x="14"
     y="8"
     id="rect14" />
  <rect
     style="opacity:0.2"
     width="20"
     height="14"
     x="14"
     y="27"
     id="rect16" />
  <rect
     style="fill:#ffffff"
     width="20"
     height="14"
     x="14"
     y="26"
     id="rect18" />
  <circle
     style="opacity:0.2"
     cx="36"
     cy="37"
     r="11"
     id="circle20" />
  <circle
     style="fill:#5f697d;fill-opacity:1"
     cx="36"
     cy="36"
     r="11"
     id="circle22" />
  <path
     style="fill:#ffffff"
     d="m 32.5,29 c -1.3807,0 -2.5,1.1193 -2.5,2.5 0,1.3807 1.1193,2.5 2.5,2.5 0.44608,0 0.85618,-0.13902 1.2188,-0.34375 l 1.969,1.844 -1.969,1.844 c -0.363,-0.205 -0.773,-0.344 -1.219,-0.344 -1.381,0 -2.5,1.119 -2.5,2.5 0,1.3807 1.1193,2.5 2.5,2.5 1.3807,0 2.5,-1.1193 2.5,-2.5 0,-0.22916 -0.036,-0.44541 -0.0937,-0.65625 l 2.125,-2.0625 4.469,4.218 1.5,0 0,-1 -8.094,-7.844 c 0.0578,-0.21084 0.0937,-0.42709 0.0937,-0.65625 0,-1.3807 -1.1193,-2.5 -2.5,-2.5 z m 0,1.5 c 0.55228,0 1,0.44772 1,1 0,0.55228 -0.44772,1 -1,1 -0.55228,0 -1,-0.44772 -1,-1 0,-0.55228 0.44772,-1 1,-1 z M 41.5,30 37.562,33.719 38.875,35 43,31 43,30 Z m -9,8.5 c 0.55228,0 1,0.44772 1,1 0,0.55228 -0.44772,1 -1,1 -0.55228,0 -1,-0.44772 -1,-1 0,-0.55228 0.44772,-1 1,-1 z"
     id="path24" />
</svg>
