<?xml version="1.0" encoding="UTF-8" standalone="no"?>
<svg
   xmlns:dc="http://purl.org/dc/elements/1.1/"
   xmlns:cc="http://creativecommons.org/ns#"
   xmlns:rdf="http://www.w3.org/1999/02/22-rdf-syntax-ns#"
   xmlns:svg="http://www.w3.org/2000/svg"
   xmlns="http://www.w3.org/2000/svg"
   xmlns:sodipodi="http://sodipodi.sourceforge.net/DTD/sodipodi-0.dtd"
   xmlns:inkscape="http://www.inkscape.org/namespaces/inkscape"
   width="48"
   height="48"
   version="1"
   id="svg16"
   sodipodi:docname="virtualbox.svg"
   inkscape:version="0.92.5 (2060ec1f9f, 2020-04-08)">
  <metadata
     id="metadata22">
    <rdf:RDF>
      <cc:Work
         rdf:about="">
        <dc:format>image/svg+xml</dc:format>
        <dc:type
           rdf:resource="http://purl.org/dc/dcmitype/StillImage" />
      </cc:Work>
    </rdf:RDF>
  </metadata>
  <defs
     id="defs20" />
  <sodipodi:namedview
     pagecolor="#ffffff"
     bordercolor="#666666"
     borderopacity="1"
     objecttolerance="10"
     gridtolerance="10"
     guidetolerance="10"
     inkscape:pageopacity="0"
     inkscape:pageshadow="2"
     inkscape:window-width="783"
     inkscape:window-height="480"
     id="namedview18"
     showgrid="false"
     inkscape:zoom="4.9166667"
     inkscape:cx="24"
     inkscape:cy="24"
     inkscape:window-x="0"
     inkscape:window-y="28"
     inkscape:window-maximized="0"
     inkscape:current-layer="svg16" />
  <rect
     style="fill:#4c566a;fill-opacity:1"
     width="40"
     height="40"
     x="4"
     y="4"
     rx="2"
     ry="2"
     id="rect2" />
  <path
     style="fill:none;stroke:#ffffff;stroke-width:4;stroke-linecap:square;stroke-opacity:1"
     d="m 7,20 h 7 l 4,11.7 5,-14.7 3.5,8 3.5,-9 4,12 h 6"
     id="path4" />
  <path
     style="opacity:0.2"
     d="M 9.599609,8.9999998 C 8.713209,8.9999998 8,9.7132092 8,10.599609 V 19 h 7.429688 l 2.566406,7.503906 4.769531,-14.027344 3.625,8.28711 3.753906,-9.654297 L 35.441406,27 H 40 V 10.599609 C 40,9.7132092 39.286791,8.9999998 38.400391,8.9999998 Z m 20.25586,13.8886722 -3.246094,8.349609 -3.375,-7.716797 -5.230469,15.375 L 12.570312,23 H 8 V 39.400391 C 8,40.286791 8.713209,41 9.599609,41 H 38.400391 C 39.286791,41 40,40.286791 40,39.400391 V 31 h -7.441406 z"
     id="path6" />
  <path
     fill="#fff"
     style="opacity:0.1"
     d="m6 4c-1.108 0-2 0.892-2 2v1c0-1.108 0.892-2 2-2h36c1.108 0 2 0.892 2 2v-1c0-1.108-0.892-2-2-2h-36z"
     id="path8" />
  <path
     opacity=".2"
     d="m6 45c-1.108 0-2-0.892-2-2v-1c0 1.108 0.892 2 2 2h36c1.108 0 2-0.892 2-2v1c0 1.108-0.892 2-2 2h-36z"
     id="path10" />
  <path
     style="fill:#5f697d;fill-opacity:1"
     d="M 9.599609,7.9999998 C 8.713209,7.9999998 8,8.7132092 8,9.5996092 V 18 h 7.429688 l 2.566406,7.503906 4.769531,-14.027344 3.625,8.28711 3.753906,-9.654297 L 35.441406,26 H 40 V 9.5996092 c 0,-0.8864 -0.713209,-1.5996094 -1.599609,-1.5996094 z m 20.25586,13.8886722 -3.246094,8.349609 -3.375,-7.716797 -5.230469,15.375 L 12.570312,22 H 8 V 38.400391 C 8,39.286791 8.713209,40 9.599609,40 H 38.400391 C 39.286791,40 40,39.286791 40,38.400391 V 30 h -7.441406 z"
     id="path12" />
  <path
     style="fill:#ffffff;opacity:0.2"
     d="M 9.5996094 8 C 8.7132094 8 8 8.7132094 8 9.5996094 L 8 10.599609 C 8 9.7132096 8.7132094 9 9.5996094 9 L 38.400391 9 C 39.286791 9 40 9.7132096 40 10.599609 L 40 9.5996094 C 40 8.7132094 39.286791 8 38.400391 8 L 9.5996094 8 z M 29.855469 21.888672 L 26.609375 30.238281 L 23.234375 22.521484 L 18.003906 37.896484 L 12.570312 22 L 8 22 L 8 23 L 12.570312 23 L 18.003906 38.896484 L 23.234375 23.521484 L 26.609375 31.238281 L 29.855469 22.888672 L 32.558594 31 L 40 31 L 40 30 L 32.558594 30 L 29.855469 21.888672 z"
     id="path14" />
</svg>
