<?xml version="1.0" encoding="UTF-8" standalone="no"?>
<svg
   xmlns:dc="http://purl.org/dc/elements/1.1/"
   xmlns:cc="http://creativecommons.org/ns#"
   xmlns:rdf="http://www.w3.org/1999/02/22-rdf-syntax-ns#"
   xmlns:svg="http://www.w3.org/2000/svg"
   xmlns="http://www.w3.org/2000/svg"
   xmlns:sodipodi="http://sodipodi.sourceforge.net/DTD/sodipodi-0.dtd"
   xmlns:inkscape="http://www.inkscape.org/namespaces/inkscape"
   width="48"
   height="48"
   version="1"
   id="svg28"
   sodipodi:docname="visualvm.svg"
   inkscape:version="0.92.5 (2060ec1f9f, 2020-04-08)">
  <metadata
     id="metadata34">
    <rdf:RDF>
      <cc:Work
         rdf:about="">
        <dc:format>image/svg+xml</dc:format>
        <dc:type
           rdf:resource="http://purl.org/dc/dcmitype/StillImage" />
      </cc:Work>
    </rdf:RDF>
  </metadata>
  <defs
     id="defs32" />
  <sodipodi:namedview
     pagecolor="#ffffff"
     bordercolor="#666666"
     borderopacity="1"
     objecttolerance="10"
     gridtolerance="10"
     guidetolerance="10"
     inkscape:pageopacity="0"
     inkscape:pageshadow="2"
     inkscape:window-width="783"
     inkscape:window-height="480"
     id="namedview30"
     showgrid="false"
     inkscape:zoom="4.9166667"
     inkscape:cx="25.810474"
     inkscape:cy="25.254697"
     inkscape:window-x="0"
     inkscape:window-y="28"
     inkscape:window-maximized="0"
     inkscape:current-layer="svg28" />
  <path
     style="fill:#414b5f;fill-opacity:1"
     d="m 14.094282,8.5448735 -3.321693,0.8731013 c 0,0 1.897413,3.4598422 2.618057,6.5492612 1.118321,4.794266 1.090923,8.710801 1.090923,8.710801 L 18,23 c 0,0 -2.10206,-2.45074 -3.287046,-7.37767 -0.68878,-2.863807 -0.618672,-7.0774565 -0.618672,-7.0774565 z"
     id="path2" />
  <path
     style="fill:#414b5f;fill-opacity:1"
     d="m 29.892832,16.737598 c 0,0 -1.375875,3.587376 -3.009964,5.088302 -1.592823,1.463023 -5.188178,3.029345 -5.188178,3.029345 l 2.765417,2.549572 c 0,0 0.9742,-2.46365 2.97326,-4.146858 1.900654,-1.60035 5.844077,-3.041996 5.844077,-3.041996 z"
     id="path4" />
  <path
     style="fill:#414b5f;fill-opacity:1"
     d="m 20.097334,18.773021 c 0,0 0.451667,1.039999 0.09958,2.234277 -0.3288,1.115268 -1.684715,2.592348 -1.684715,2.592348 l 2.876537,0.478727 c 0,0 -0.270929,-1.466318 0.07557,-2.567567 0.380551,-1.209491 1.447655,-1.949461 1.447655,-1.949461 z"
     id="path6" />
  <path
     style="fill:#414b5f;fill-opacity:1"
     d="m 20.537485,36.976793 -3.526982,0.34982 c 0,0 1.626309,1.012821 1.794037,2.008649 0.131997,0.783683 0.205963,1.756057 0.205963,1.756057 l 1.669396,-0.411741 c 0,0 -0.494911,-0.893393 -0.774152,-1.555071 -0.420744,-0.99698 0.631738,-2.147714 0.631738,-2.147714 z"
     id="path8" />
  <path
     style="opacity:0.2"
     d="m 12,5 a 3,3 0 0 0 -3,3 3,3 0 0 0 3,3 3,3 0 0 0 3,-3 3,3 0 0 0 -3,-3 z m 22,7 a 5,5 0 0 0 -5,5 5,5 0 0 0 5,5 5,5 0 0 0 5,-5 5,5 0 0 0 -5,-5 z m -12,3 a 3,3 0 0 0 -3,3 3,3 0 0 0 3,3 3,3 0 0 0 3,-3 3,3 0 0 0 -3,-3 z m -4,8 a 8,8 0 0 0 -8,8 8,8 0 0 0 8,8 8,8 0 0 0 8,-8 8,8 0 0 0 -8,-8 z m 10.5,8 A 1.5,1.5 0 0 0 27,32.5 1.5,1.5 0 0 0 28.5,34 1.5,1.5 0 0 0 30,32.5 1.5,1.5 0 0 0 28.5,31 Z m 2.5,5 a 2,2 0 0 0 -2,2 2,2 0 0 0 2,2 2,2 0 0 0 2,-2 2,2 0 0 0 -2,-2 z m -11,5 a 2,2 0 0 0 -2,2 2,2 0 0 0 2,2 2,2 0 0 0 2,-2 2,2 0 0 0 -2,-2 z"
     id="path10" />
  <circle
     style="fill:#4c566a;fill-opacity:1"
     cx="18"
     cy="30"
     r="8"
     id="circle12" />
  <circle
     style="fill:#4c566a;fill-opacity:1"
     cx="34"
     cy="16"
     r="5"
     id="circle14" />
  <circle
     style="fill:#4c566a;fill-opacity:1"
     cx="12"
     cy="7"
     r="3"
     id="circle16" />
  <circle
     style="fill:#4c566a;fill-opacity:1"
     cx="22"
     cy="17"
     r="3"
     id="circle18" />
  <circle
     style="fill:#4c566a;fill-opacity:1"
     cx="20"
     cy="42"
     r="2"
     id="circle20" />
  <circle
     style="fill:#4c566a;fill-opacity:1"
     cx="31"
     cy="37"
     r="2"
     id="circle22" />
  <circle
     style="fill:#4c566a;fill-opacity:1"
     cx="28.5"
     cy="31.5"
     r="1.5"
     id="circle24" />
  <path
     style="opacity:0.2;fill:#ffffff"
     d="M 12 4 A 3 3 0 0 0 9 7 A 3 3 0 0 0 9.0429688 7.4863281 A 3 3 0 0 1 12 5 A 3 3 0 0 1 14.957031 7.5136719 A 3 3 0 0 0 15 7 A 3 3 0 0 0 12 4 z M 34 11 A 5 5 0 0 0 29 16 A 5 5 0 0 0 29.027344 16.515625 A 5 5 0 0 1 34 12 A 5 5 0 0 1 38.972656 16.484375 A 5 5 0 0 0 39 16 A 5 5 0 0 0 34 11 z M 22 14 A 3 3 0 0 0 19 17 A 3 3 0 0 0 19.042969 17.486328 A 3 3 0 0 1 22 15 A 3 3 0 0 1 24.957031 17.513672 A 3 3 0 0 0 25 17 A 3 3 0 0 0 22 14 z M 18 22 A 8 8 0 0 0 10 30 A 8 8 0 0 0 10.021484 30.423828 A 8 8 0 0 1 18 23 A 8 8 0 0 1 25.978516 30.576172 A 8 8 0 0 0 26 30 A 8 8 0 0 0 18 22 z M 28.5 30 A 1.5 1.5 0 0 0 27 31.5 A 1.5 1.5 0 0 0 27.087891 32 A 1.5 1.5 0 0 1 28.5 31 A 1.5 1.5 0 0 1 29.912109 32 A 1.5 1.5 0 0 0 30 31.5 A 1.5 1.5 0 0 0 28.5 30 z M 31 35 A 2 2 0 0 0 29 37 A 2 2 0 0 0 29.064453 37.496094 A 2 2 0 0 1 31 36 A 2 2 0 0 1 32.935547 37.503906 A 2 2 0 0 0 33 37 A 2 2 0 0 0 31 35 z M 20 40 A 2 2 0 0 0 18 42 A 2 2 0 0 0 18.064453 42.496094 A 2 2 0 0 1 20 41 A 2 2 0 0 1 21.935547 42.503906 A 2 2 0 0 0 22 42 A 2 2 0 0 0 20 40 z"
     id="path26" />
</svg>
