<?xml version="1.0" encoding="UTF-8" standalone="no"?>
<svg
   xmlns:dc="http://purl.org/dc/elements/1.1/"
   xmlns:cc="http://creativecommons.org/ns#"
   xmlns:rdf="http://www.w3.org/1999/02/22-rdf-syntax-ns#"
   xmlns:svg="http://www.w3.org/2000/svg"
   xmlns="http://www.w3.org/2000/svg"
   xmlns:sodipodi="http://sodipodi.sourceforge.net/DTD/sodipodi-0.dtd"
   xmlns:inkscape="http://www.inkscape.org/namespaces/inkscape"
   width="48"
   height="48"
   version="1"
   id="svg16"
   sodipodi:docname="vivaldi-beta.svg"
   inkscape:version="0.92.5 (2060ec1f9f, 2020-04-08)">
  <metadata
     id="metadata22">
    <rdf:RDF>
      <cc:Work
         rdf:about="">
        <dc:format>image/svg+xml</dc:format>
        <dc:type
           rdf:resource="http://purl.org/dc/dcmitype/StillImage" />
      </cc:Work>
    </rdf:RDF>
  </metadata>
  <defs
     id="defs20" />
  <sodipodi:namedview
     pagecolor="#ffffff"
     bordercolor="#666666"
     borderopacity="1"
     objecttolerance="10"
     gridtolerance="10"
     guidetolerance="10"
     inkscape:pageopacity="0"
     inkscape:pageshadow="2"
     inkscape:window-width="783"
     inkscape:window-height="480"
     id="namedview18"
     showgrid="false"
     inkscape:zoom="4.9166667"
     inkscape:cx="-1.1186441"
     inkscape:cy="24"
     inkscape:window-x="0"
     inkscape:window-y="28"
     inkscape:window-maximized="0"
     inkscape:current-layer="svg16" />
  <rect
     style="opacity:0.2"
     width="40"
     height="40"
     x="4"
     y="5"
     rx="12"
     ry="12"
     id="rect2" />
  <rect
     style="fill:#4c566a;fill-opacity:1"
     width="40"
     height="40"
     x="4"
     y="4"
     rx="12"
     ry="12"
     id="rect4" />
  <circle
     style="opacity:0.1"
     cx="24"
     cy="25"
     r="14"
     id="circle6" />
  <circle
     style="fill:#ffffff;fill-opacity:1"
     cx="24"
     cy="24"
     r="14"
     id="circle8" />
  <path
     style="opacity:0.2"
     d="m 30.794567,16.500047 c -0.36093,2.75e-4 -0.72638,0.07764 -1.0189,0.2283 -0.42747,0.22016 -0.85773,0.68653 -1.0486,1.1366 -0.20284,0.4783 -0.23197,1.3215 -0.06108,1.7697 0.07228,0.18953 0.19701,0.51519 0.27713,0.72368 0.18094,0.47085 0.24607,1.5065 0.13135,2.0882 -0.12917,0.65498 -0.53047,1.4116 -1.0009,1.8872 -1.4117,1.427 -3.546,1.452 -4.9481,0.05793 -0.48382,-0.48107 -0.55244,-0.59593 -2.7365,-4.5837 -0.741,-1.354 -1.406,-2.4876 -1.544,-2.6341 -0.434,-0.4699 -1.0375,-0.6379 -1.5901,-0.6407 -1.188,-0.01973 -2.0114,0.93136 -2.2068,1.9523 -0.14433,0.81702 -0.21072,0.67637 3.6269,7.6731 2.4223,4.416301 3.5736,6.452101 3.7624,6.652201 0.66871,0.70892 1.6214,0.88464 2.5129,0.4635 0.2344,-0.11074 0.49975,-0.30975 0.66925,-0.50194 0.33201,-0.37645 7.1978,-12.847001 7.3092,-13.276001 0.11676,-0.44961 0.08776,-1.0884 -0.06936,-1.5305 -0.19545,-0.5499 -0.73469,-1.1141 -1.2665,-1.3252 -0.23871,-0.09474 -0.51671,-0.14119 -0.79743,-0.14096 z"
     id="path10" />
  <path
     style="fill:#4c566a;fill-opacity:1"
     d="m 30.794567,15.500219 c -0.36093,2.75e-4 -0.72638,0.07764 -1.0189,0.2283 -0.42747,0.22016 -0.85773,0.68653 -1.0486,1.1366 -0.20284,0.4783 -0.23197,1.3215 -0.06108,1.7697 0.07228,0.18953 0.19701,0.51519 0.27713,0.72368 0.18094,0.47085 0.24607,1.5065 0.13135,2.0882 -0.12917,0.65498 -0.53047,1.4116 -1.0009,1.8872 -1.4117,1.427 -3.546,1.452 -4.9481,0.05793 -0.48382,-0.48107 -0.55244,-0.59593 -2.7365,-4.5837 -0.741,-1.354 -1.406,-2.4876 -1.544,-2.6341 -0.434,-0.4699 -1.0375,-0.6379 -1.5901,-0.6407 -1.188,-0.01973 -2.0114,0.93136 -2.2068,1.9523 -0.14433,0.81702 -0.21072,0.67637 3.6269,7.6731 2.4223,4.416301 3.5736,6.452101 3.7624,6.652201 0.66871,0.70892 1.6214,0.88464 2.5129,0.4635 0.2344,-0.11074 0.49975,-0.30975 0.66925,-0.50194 0.33201,-0.37645 7.1978,-12.847001 7.3092,-13.276001 0.11676,-0.44961 0.08776,-1.0884 -0.06936,-1.5305 -0.19545,-0.5499 -0.73469,-1.1141 -1.2665,-1.3252 -0.23871,-0.09474 -0.51671,-0.14119 -0.79743,-0.14096 z"
     id="path12" />
  <path
     style="fill:#ffffff;opacity:0.2"
     d="M 16 4 C 9.352 4 4 9.352 4 16 L 4 17 C 4 10.352 9.352 5 16 5 L 32 5 C 38.648 5 44 10.352 44 17 L 44 16 C 44 9.352 38.648 4 32 4 L 16 4 z"
     id="path14" />
</svg>
