<?xml version="1.0" encoding="UTF-8" standalone="no"?>
<svg
   xmlns:dc="http://purl.org/dc/elements/1.1/"
   xmlns:cc="http://creativecommons.org/ns#"
   xmlns:rdf="http://www.w3.org/1999/02/22-rdf-syntax-ns#"
   xmlns:svg="http://www.w3.org/2000/svg"
   xmlns="http://www.w3.org/2000/svg"
   xmlns:sodipodi="http://sodipodi.sourceforge.net/DTD/sodipodi-0.dtd"
   xmlns:inkscape="http://www.inkscape.org/namespaces/inkscape"
   width="48"
   height="48"
   version="1.1"
   id="svg28"
   sodipodi:docname="vmware-view.svg"
   inkscape:version="0.92.5 (2060ec1f9f, 2020-04-08)">
  <metadata
     id="metadata34">
    <rdf:RDF>
      <cc:Work
         rdf:about="">
        <dc:format>image/svg+xml</dc:format>
        <dc:type
           rdf:resource="http://purl.org/dc/dcmitype/StillImage" />
      </cc:Work>
    </rdf:RDF>
  </metadata>
  <defs
     id="defs32" />
  <sodipodi:namedview
     pagecolor="#ffffff"
     bordercolor="#666666"
     borderopacity="1"
     objecttolerance="10"
     gridtolerance="10"
     guidetolerance="10"
     inkscape:pageopacity="0"
     inkscape:pageshadow="2"
     inkscape:window-width="783"
     inkscape:window-height="480"
     id="namedview30"
     showgrid="false"
     inkscape:zoom="4.9166667"
     inkscape:cx="24"
     inkscape:cy="24"
     inkscape:window-x="0"
     inkscape:window-y="28"
     inkscape:window-maximized="0"
     inkscape:current-layer="svg28" />
  <circle
     style="opacity:0.2"
     cx="24"
     cy="25"
     r="20"
     id="circle2" />
  <circle
     style="fill:#4c566a;fill-opacity:1"
     cx="24"
     cy="24"
     r="20"
     id="circle4" />
  <path
     style="opacity:0.2"
     d="m 14,14 c -1.108,0 -2,0.892 -2,2 v 15 c 0,1.108 0.892,2 2,2 h 9 v 3 h -4 c -0.554,0 -1,0.446 -1,1 0,0.554 0.446,1 1,1 h 10 c 0.554,0 1,-0.446 1,-1 0,-0.554 -0.446,-1 -1,-1 h -4 v -3 h 9 c 1.108,0 2,-0.892 2,-2 V 16 c 0,-1.108 -0.892,-2 -2,-2 z m 0,2 H 34 V 31 H 14 Z m 8,2 v 3 h 4 v -3 z m -3,4 v 3 h 4 v -3 z m 6,0 v 3 h 4 v -3 z m -9,4 v 3 h 4 v -3 z m 6,0 v 3 h 4 v -3 z m 6,0 v 3 h 4 v -3 z"
     id="path6" />
  <path
     style="opacity:0.2;fill:#ffffff"
     d="M 24,4 A 20,20 0 0 0 4,24 20,20 0 0 0 4.0215,24.582 20,20 0 0 1 24,5 20,20 0 0 1 43.979,24.418 20,20 0 0 0 44,24 20,20 0 0 0 24,4 Z"
     id="path8" />
  <path
     style="fill:#ffffff"
     d="m 14,13 c -1.108,0 -2,0.892 -2,2 v 15 c 0,1.108 0.892,2 2,2 h 20 c 1.108,0 2,-0.892 2,-2 V 15 c 0,-1.108 -0.892,-2 -2,-2 z m 0,2 H 34 V 30 H 14 Z"
     id="path10" />
  <rect
     style="fill:#ffffff"
     width="2"
     height="5"
     x="23"
     y="31"
     id="rect12" />
  <rect
     style="fill:#ffffff"
     width="2"
     height="12"
     x="35"
     y="-30"
     rx="1"
     ry="1"
     transform="rotate(90)"
     id="rect14" />
  <rect
     style="fill:#ffffff"
     width="4"
     height="3"
     x="22"
     y="17"
     id="rect16" />
  <rect
     style="fill:#ffffff"
     width="4"
     height="3"
     x="22"
     y="25"
     id="rect18" />
  <rect
     style="fill:#ffffff"
     width="4"
     height="3"
     x="16"
     y="25"
     id="rect20" />
  <rect
     style="fill:#ffffff"
     width="4"
     height="3"
     x="28"
     y="25"
     id="rect22" />
  <rect
     style="fill:#ffffff"
     width="4"
     height="3"
     x="25"
     y="21"
     id="rect24" />
  <rect
     style="fill:#ffffff"
     width="4"
     height="3"
     x="19"
     y="21"
     id="rect26" />
</svg>
