<?xml version="1.0" encoding="UTF-8" standalone="no"?>
<svg
   xmlns:dc="http://purl.org/dc/elements/1.1/"
   xmlns:cc="http://creativecommons.org/ns#"
   xmlns:rdf="http://www.w3.org/1999/02/22-rdf-syntax-ns#"
   xmlns:svg="http://www.w3.org/2000/svg"
   xmlns="http://www.w3.org/2000/svg"
   xmlns:sodipodi="http://sodipodi.sourceforge.net/DTD/sodipodi-0.dtd"
   xmlns:inkscape="http://www.inkscape.org/namespaces/inkscape"
   width="48"
   height="48"
   version="1"
   id="svg12"
   sodipodi:docname="realvnc-vncviewer.svg"
   inkscape:version="0.92.5 (2060ec1f9f, 2020-04-08)">
  <metadata
     id="metadata18">
    <rdf:RDF>
      <cc:Work
         rdf:about="">
        <dc:format>image/svg+xml</dc:format>
        <dc:type
           rdf:resource="http://purl.org/dc/dcmitype/StillImage" />
      </cc:Work>
    </rdf:RDF>
  </metadata>
  <defs
     id="defs16" />
  <sodipodi:namedview
     pagecolor="#ffffff"
     bordercolor="#666666"
     borderopacity="1"
     objecttolerance="10"
     gridtolerance="10"
     guidetolerance="10"
     inkscape:pageopacity="0"
     inkscape:pageshadow="2"
     inkscape:window-width="783"
     inkscape:window-height="480"
     id="namedview14"
     showgrid="false"
     inkscape:zoom="4.9166667"
     inkscape:cx="-1.1186441"
     inkscape:cy="24"
     inkscape:window-x="0"
     inkscape:window-y="28"
     inkscape:window-maximized="0"
     inkscape:current-layer="svg12" />
  <rect
     style="fill:#4c566a;fill-opacity:1"
     width="40"
     height="40"
     x="4"
     y="4"
     rx="2"
     ry="2"
     id="rect2" />
  <path
     fill="#fff"
     style="opacity:0.2"
     d="m6 4c-1.108 0-2 0.892-2 2v1c0-1.108 0.892-2 2-2h36c1.108 0 2 0.892 2 2v-1c0-1.108-0.892-2-2-2h-36z"
     id="path4" />
  <path
     opacity=".2"
     d="m6 45c-1.108 0-2-0.892-2-2v-1c0 1.108 0.892 2 2 2h36c1.108 0 2-0.892 2-2v1c0 1.108-0.892 2-2 2h-36z"
     id="path6" />
  <path
     style="opacity:0.2"
     d="m 9.578125,14 6.476563,21.484375 c 0.0069,0.0127 0.0127,0.01691 0.01953,0.0293 C 16.30208,36.36767 17.074195,37 18,37 c 0.878425,0 1.616057,-0.569978 1.884766,-1.357422 0.0059,-0.01167 0.02028,-0.02577 0.02539,-0.03711 L 26.421875,14 H 24.333984 L 18,35.009766 11.666016,14 Z M 33,14 a 5,5 0 0 0 -5,5 v 5 h 2 v -2 -1 -2 c 0,-1.680544 1.319456,-3 3,-3 1.680544,0 3,1.319456 3,3 v 2 1 2 h 2 v -5 a 5,5 0 0 0 -5,-5 z m 0,13 a 5,5 0 0 0 -5,5 5,5 0 0 0 5,5 h 5 v -2 h -2 -1 -2 c -1.680544,0 -3,-1.319456 -3,-3 0,-1.680544 1.319456,-3 3,-3 h 2 1 2 v -2 z"
     id="path8" />
  <path
     style="fill:#ffffff"
     d="M 9.578125 13 L 16.054688 34.484375 C 16.061588 34.497075 16.067389 34.501282 16.074219 34.513672 C 16.30208 35.36767 17.074195 36 18 36 C 18.878425 36 19.616057 35.430022 19.884766 34.642578 C 19.890666 34.630908 19.905046 34.616809 19.910156 34.605469 L 26.421875 13 L 24.333984 13 L 18 34.009766 L 11.666016 13 L 9.578125 13 z M 33 13 A 5 5 0 0 0 28 18 L 28 23 L 30 23 L 30 21 L 30 20 L 30 18 C 30 16.319456 31.319456 15 33 15 C 34.680544 15 36 16.319456 36 18 L 36 20 L 36 21 L 36 23 L 38 23 L 38 18 A 5 5 0 0 0 33 13 z M 33 26 A 5 5 0 0 0 28 31 A 5 5 0 0 0 33 36 L 38 36 L 38 34 L 36 34 L 35 34 L 33 34 C 31.319456 34 30 32.680544 30 31 C 30 29.319456 31.319456 28 33 28 L 35 28 L 36 28 L 38 28 L 38 26 L 33 26 z"
     id="path10" />
</svg>
