<?xml version="1.0" encoding="UTF-8" standalone="no"?>
<svg
   xmlns:dc="http://purl.org/dc/elements/1.1/"
   xmlns:cc="http://creativecommons.org/ns#"
   xmlns:rdf="http://www.w3.org/1999/02/22-rdf-syntax-ns#"
   xmlns:svg="http://www.w3.org/2000/svg"
   xmlns="http://www.w3.org/2000/svg"
   xmlns:sodipodi="http://sodipodi.sourceforge.net/DTD/sodipodi-0.dtd"
   xmlns:inkscape="http://www.inkscape.org/namespaces/inkscape"
   width="48"
   height="48"
   version="1.1"
   id="svg12"
   sodipodi:docname="lutris_warframe.svg"
   inkscape:version="0.92.5 (2060ec1f9f, 2020-04-08)">
  <metadata
     id="metadata18">
    <rdf:RDF>
      <cc:Work
         rdf:about="">
        <dc:format>image/svg+xml</dc:format>
        <dc:type
           rdf:resource="http://purl.org/dc/dcmitype/StillImage" />
      </cc:Work>
    </rdf:RDF>
  </metadata>
  <defs
     id="defs16" />
  <sodipodi:namedview
     pagecolor="#ffffff"
     bordercolor="#666666"
     borderopacity="1"
     objecttolerance="10"
     gridtolerance="10"
     guidetolerance="10"
     inkscape:pageopacity="0"
     inkscape:pageshadow="2"
     inkscape:window-width="765"
     inkscape:window-height="480"
     id="namedview14"
     showgrid="false"
     inkscape:zoom="4.9166667"
     inkscape:cx="24"
     inkscape:cy="24"
     inkscape:window-x="0"
     inkscape:window-y="28"
     inkscape:window-maximized="0"
     inkscape:current-layer="svg12" />
  <rect
     x="4"
     y="5"
     width="40"
     height="40"
     rx="2"
     ry="2"
     style="opacity:.2"
     id="rect2" />
  <rect
     x="4"
     y="4"
     width="40"
     height="40"
     rx="2"
     ry="2"
     style="fill:#4c566a;fill-opacity:1"
     id="rect4" />
  <path
     d="m6 4c-1.108 0-2 0.892-2 2v1c0-1.108 0.892-2 2-2h36c1.108 0 2 0.892 2 2v-1c0-1.108-0.892-2-2-2z"
     style="fill:#ffffff;opacity:.2"
     id="path6" />
  <path
     d="m24 14s-4 6-10 8c0 5 3 9 3 9s-1-2-1-7c6-2 8-5 8-5s2 3 8 5c0 5-1 7-1 7s3-4 3-9c-6-2-10-8-10-8zm0 7s-3 3-7 5c0 4 2 6 2 6s-1-2-1-5c4-1 6-3 6-3s2 2 6 3c0 3-1 5-1 5s2-2 2-6c-4-2-7-5-7-5zm-12 3s-1 2-5 2c2 2 4 7.5 4 7.5l2 0.5s-1-1-3-6c2-1 3-2 3-2zm24 0-1 2s1 1 3 2c-2 5-3 6-3 6l2-0.5s2-5.5 4-7.5c-4 0-5-2-5-2zm-12 2s-1 1.5-5 3.5c0 2.5 2 4.5 2 4.5s-1-2-1-4c3-1 4-2 4-2s1 1 4 2c0 2-1 4-1 4s2-2 2-4.5c-4-2-5-3.5-5-3.5zm-10.5 2s-0.5 0.44528-1.5 0.5c1 1.5 2 4 2 4l1 0.5s-1.309137-2.63023-2-4h1zm21 0-0.5 1h1c-0.690863 1.36977-2 4-2 4l1-0.5s1-2.5 2-4c-1-0.054724-1.5-0.5-1.5-0.5z"
     style="opacity:.1"
     id="path8" />
  <path
     d="m24 13s-4 6-10 8c0 5 3 9 3 9s-1-2-1-7c6-2 8-5 8-5s2 3 8 5c0 5-1 7-1 7s3-4 3-9c-6-2-10-8-10-8zm0 7s-3 3-7 5c0 4 2 6 2 6s-1-2-1-5c4-1 6-3 6-3s2 2 6 3c0 3-1 5-1 5s2-2 2-6c-4-2-7-5-7-5zm-12 3s-1 2-5 2c2 2 4 7.5 4 7.5l2 0.5s-1-1-3-6c2-1 3-2 3-2l-1-2zm24 0-1 2s1 1 3 2c-2 5-3 6-3 6l2-0.5s2-5.5 4-7.5c-4 0-5-2-5-2zm-12 2s-1 1.5-5 3.5c0 2.5 2 4.5 2 4.5s-1-2-1-4c3-1 4-2 4-2s1 1 4 2c0 2-1 4-1 4s2-2 2-4.5c-4-2-5-3.5-5-3.5zm-10.5 2s-0.5 0.44528-1.5 0.5c1 1.5 2 4 2 4l1 0.5s-1.309137-2.63023-2-4h1l-0.5-1zm21 0-0.5 1h1c-0.690863 1.36977-2 4-2 4l1-0.5s1-2.5 2-4c-1-0.054724-1.5-0.5-1.5-0.5z"
     style="fill:#ffffff;fill-opacity:1"
     id="path10" />
</svg>
