<?xml version="1.0" encoding="UTF-8" standalone="no"?>
<svg
   xmlns:dc="http://purl.org/dc/elements/1.1/"
   xmlns:cc="http://creativecommons.org/ns#"
   xmlns:rdf="http://www.w3.org/1999/02/22-rdf-syntax-ns#"
   xmlns:svg="http://www.w3.org/2000/svg"
   xmlns="http://www.w3.org/2000/svg"
   xmlns:sodipodi="http://sodipodi.sourceforge.net/DTD/sodipodi-0.dtd"
   xmlns:inkscape="http://www.inkscape.org/namespaces/inkscape"
   width="48"
   height="48"
   version="1.1"
   id="svg26"
   sodipodi:docname="appimagekit-webcamoid.svg"
   inkscape:version="0.92.5 (2060ec1f9f, 2020-04-08)">
  <metadata
     id="metadata32">
    <rdf:RDF>
      <cc:Work
         rdf:about="">
        <dc:format>image/svg+xml</dc:format>
        <dc:type
           rdf:resource="http://purl.org/dc/dcmitype/StillImage" />
      </cc:Work>
    </rdf:RDF>
  </metadata>
  <defs
     id="defs30" />
  <sodipodi:namedview
     pagecolor="#ffffff"
     bordercolor="#666666"
     borderopacity="1"
     objecttolerance="10"
     gridtolerance="10"
     guidetolerance="10"
     inkscape:pageopacity="0"
     inkscape:pageshadow="2"
     inkscape:window-width="765"
     inkscape:window-height="480"
     id="namedview28"
     showgrid="false"
     inkscape:zoom="4.9166667"
     inkscape:cx="24"
     inkscape:cy="24"
     inkscape:window-x="0"
     inkscape:window-y="28"
     inkscape:window-maximized="0"
     inkscape:current-layer="g24" />
  <g
     transform="matrix(2,0,0,2,2,2)"
     id="g24">
    <path
       d="m11 14.500001c6 0 10 6.999999 10 6.999999s-5-1.999999-10-1.999999-10 1.999999-10 1.999999 4-6.999999 10-6.999999z"
       style="opacity:.2"
       id="path2" />
    <path
       d="m11 14c6 0 10 6.999999 10 6.999999s-5-1.999999-10-1.999999-10 1.999999-10 1.999999 4-6.999999 10-6.999999z"
       style="fill:#8c8c8c"
       id="path4" />
    <path
       d="M 11,14 C 5,14 1,21 1,21 1,21 1.2840173,20.898846 1.4316406,20.84375 2.413601,19.326232 5.9002459,14.5 11,14.5 c 5.099754,0 8.586399,4.826232 9.568359,6.34375 C 20.715983,20.898846 21,21 21,21 21,21 17,14 11,14 Z"
       style="fill:#ffffff;opacity:.1"
       id="path6" />
    <circle
       cx="11"
       cy="9.500001"
       r="8"
       style="opacity:.1"
       id="circle8" />
    <circle
       cx="11"
       cy="9"
       r="8"
       style="fill:#4c566a;fill-opacity:1"
       id="circle10" />
    <circle
       cx="11"
       cy="9.500001"
       r="5"
       style="opacity:.1"
       id="circle12" />
    <circle
       cx="11"
       cy="9"
       r="5"
       style="fill:#a6a6a6"
       id="circle14" />
    <circle
       cx="-11"
       cy="9"
       r="3"
       style="fill:#ffffff;fill-opacity:1"
       id="circle16"
       transform="scale(-1,1)" />
    <path
       d="M 11,6 A 3,3 0 0 0 8,9 3,3 0 0 0 8.0136719,9.2558594 3,3 0 0 1 11,6.5 3,3 0 0 1 13.986328,9.2441406 3,3 0 0 0 14,9 3,3 0 0 0 11,6 Z"
       style="opacity:.1"
       id="path18" />
    <path
       d="M 11,1 A 8,8 0 0 0 3,9 8,8 0 0 0 3.0097656,9.2929688 8,8 0 0 1 11,1.5 8,8 0 0 1 18.990234,9.2070312 8,8 0 0 0 19,9 8,8 0 0 0 11,1 Z"
       style="fill:#ffffff;opacity:.2"
       id="path20" />
    <path
       d="M 11,4 A 5,5 0 0 0 6,9 5,5 0 0 0 6.0097656,9.3027344 5,5 0 0 1 11,4.5 5,5 0 0 1 15.990234,9.1972656 5,5 0 0 0 16,9 5,5 0 0 0 11,4 Z"
       style="fill:#ffffff;opacity:.1"
       id="path22" />
  </g>
</svg>
