<?xml version="1.0" encoding="UTF-8" standalone="no"?>
<svg
   xmlns:dc="http://purl.org/dc/elements/1.1/"
   xmlns:cc="http://creativecommons.org/ns#"
   xmlns:rdf="http://www.w3.org/1999/02/22-rdf-syntax-ns#"
   xmlns:svg="http://www.w3.org/2000/svg"
   xmlns="http://www.w3.org/2000/svg"
   xmlns:sodipodi="http://sodipodi.sourceforge.net/DTD/sodipodi-0.dtd"
   xmlns:inkscape="http://www.inkscape.org/namespaces/inkscape"
   width="48"
   height="48"
   version="1"
   id="svg20"
   sodipodi:docname="nm-device-wireless.svg"
   inkscape:version="0.92.5 (2060ec1f9f, 2020-04-08)">
  <metadata
     id="metadata26">
    <rdf:RDF>
      <cc:Work
         rdf:about="">
        <dc:format>image/svg+xml</dc:format>
        <dc:type
           rdf:resource="http://purl.org/dc/dcmitype/StillImage" />
      </cc:Work>
    </rdf:RDF>
  </metadata>
  <defs
     id="defs24" />
  <sodipodi:namedview
     pagecolor="#ffffff"
     bordercolor="#666666"
     borderopacity="1"
     objecttolerance="10"
     gridtolerance="10"
     guidetolerance="10"
     inkscape:pageopacity="0"
     inkscape:pageshadow="2"
     inkscape:window-width="1914"
     inkscape:window-height="1026"
     id="namedview22"
     showgrid="false"
     inkscape:zoom="4.9166667"
     inkscape:cx="-34.589273"
     inkscape:cy="29.545234"
     inkscape:window-x="0"
     inkscape:window-y="28"
     inkscape:window-maximized="1"
     inkscape:current-layer="svg20" />
  <path
     fill="#4f4f4f"
     d="m24.082 9.0022c-7.9134 0-15.037 2.8117-20.945 7.1718l20.945 22.82 20.781-22.901c-5.885-4.312-12.929-7.0906-20.781-7.0906z"
     id="path2"
     style="fill:#ffffff;fill-opacity:1" />
  <path
     opacity=".2"
     transform="translate(-135.9 -238)"
     d="m159.9 252.99c-6.3037 0-12.154 2.0674-16.853 5.5589l16.941 18.441 16.765-18.441c-4.71-3.49-10.56-5.56-16.86-5.56z"
     id="path4" />
  <path
     fill="#797979"
     d="m24 14.994c-6.3037 0-12.154 2.0674-16.853 5.5589l16.941 18.441 16.765-18.442c-4.699-3.491-10.549-5.558-16.853-5.558z"
     id="path6"
     style="fill:#7d879b;fill-opacity:1" />
  <path
     opacity=".2"
     transform="translate(-135.9 -238)"
     d="m159.9 258.99c-4.7278 0-9.1156 1.5505-12.64 4.1692l12.706 13.831 12.574-13.831c-3.524-2.6186-7.9119-4.1692-12.64-4.1692z"
     id="path8" />
  <path
     fill="#e4e4e4"
     d="m24 20.994c-4.7278 0-9.1156 1.5505-12.64 4.1692l12.706 13.831 12.574-13.831c-3.524-2.619-7.912-4.169-12.64-4.169z"
     id="path10"
     style="fill:#4c566a;fill-opacity:1" />
  <path
     fill="#fff"
     opacity=".1"
     d="m24.082 9.0022c-7.9134 0-15.037 2.8118-20.945 7.1719l0.5625 0.61328c5.7976-4.131 12.714-6.7852 20.383-6.7852 7.6091 0 14.449 2.6224 20.221 6.707l0.56-0.617c-5.887-4.311-12.93-7.0896-20.783-7.0896z"
     id="path12" />
  <path
     fill="#fff"
     opacity=".1"
     d="m24.001 14.993c-6.3037 0-12.155 2.069-16.854 5.5606l0.56445 0.61328c4.6011-3.2483 10.231-5.1738 16.289-5.1738 6.0605 0 11.689 1.9275 16.291 5.1777l0.561-0.618c-4.698-3.492-10.547-5.561-16.851-5.561z"
     id="path14" />
  <path
     fill="#fff"
     opacity=".1"
     d="m24.001 20.993c-4.7278 0-9.1166 1.5513-12.641 4.1699l0.56445 0.61328c3.4249-2.3766 7.5935-3.7832 12.076-3.7832 4.4846 0 8.6524 1.4086 12.078 3.7871l0.561-0.617c-3.523-2.619-7.91-4.17-12.638-4.17z"
     id="path16" />
  <path
     opacity=".2"
     d="m44.307 16.717-20.225 22.287-20.385-22.209c-0.1843 0.131-0.378 0.25-0.5603 0.385l20.945 22.82 20.781-22.902c-0.1814-0.1329-0.37305-0.25091-0.55664-0.38086z"
     id="path18" />
</svg>
