<?xml version="1.0" encoding="UTF-8" standalone="no"?>
<svg
   xmlns:dc="http://purl.org/dc/elements/1.1/"
   xmlns:cc="http://creativecommons.org/ns#"
   xmlns:rdf="http://www.w3.org/1999/02/22-rdf-syntax-ns#"
   xmlns:svg="http://www.w3.org/2000/svg"
   xmlns="http://www.w3.org/2000/svg"
   xmlns:sodipodi="http://sodipodi.sourceforge.net/DTD/sodipodi-0.dtd"
   xmlns:inkscape="http://www.inkscape.org/namespaces/inkscape"
   width="48"
   height="48"
   version="1"
   id="svg34"
   sodipodi:docname="woeusbgui-icon.svg"
   inkscape:version="0.92.5 (2060ec1f9f, 2020-04-08)">
  <metadata
     id="metadata40">
    <rdf:RDF>
      <cc:Work
         rdf:about="">
        <dc:format>image/svg+xml</dc:format>
        <dc:type
           rdf:resource="http://purl.org/dc/dcmitype/StillImage" />
      </cc:Work>
    </rdf:RDF>
  </metadata>
  <defs
     id="defs38" />
  <sodipodi:namedview
     pagecolor="#ffffff"
     bordercolor="#666666"
     borderopacity="1"
     objecttolerance="10"
     gridtolerance="10"
     guidetolerance="10"
     inkscape:pageopacity="0"
     inkscape:pageshadow="2"
     inkscape:window-width="783"
     inkscape:window-height="480"
     id="namedview36"
     showgrid="false"
     inkscape:zoom="4.9166667"
     inkscape:cx="24"
     inkscape:cy="24"
     inkscape:window-x="0"
     inkscape:window-y="28"
     inkscape:window-maximized="0"
     inkscape:current-layer="g32" />
  <path
     fill="#b7b7b7"
     d="m9 6h30v14h-30z"
     id="path2"
     style="fill:#697387;fill-opacity:1" />
  <rect
     fill="#4f4f4f"
     width="40"
     height="24"
     x="4"
     y="18"
     rx="2"
     ry="2"
     id="rect4"
     style="fill:#4c566a;fill-opacity:1" />
  <rect
     style="opacity:0.4"
     width="24"
     height="4"
     x="12"
     y="23"
     id="rect6" />
  <rect
     style="opacity:0.4"
     width="20"
     height="4"
     x="14"
     y="29"
     id="rect8" />
  <rect
     style="opacity:0.4"
     width="16"
     height="4"
     x="16"
     y="35"
     id="rect10" />
  <path
     fill="#fff"
     opacity=".2"
     d="m9 6v1h30v-1h-30z"
     id="path12" />
  <path
     opacity=".2"
     d="m4 40v1c0 1.108 0.892 2 2 2h36c1.108 0 2-0.892 2-2v-1c0 1.108-0.892 2-2 2h-36c-1.108 0-2-0.892-2-2z"
     id="path14" />
  <rect
     style="opacity:0.5"
     width="6"
     height="4"
     x="12"
     y="9"
     id="rect16" />
  <rect
     style="opacity:0.5"
     width="6"
     height="4"
     x="30"
     y="9"
     id="rect18" />
  <g
     transform="translate(-1)"
     id="g32">
    <circle
       style="fill:#5f697d;fill-opacity:1"
       cx="36"
       cy="35"
       r="12"
       id="circle20" />
    <path
       style="opacity:0.2"
       d="M 47.98,35.406 A 12,12 0 0 1 36,47 12,12 0 0 1 24.02,35.594 12,12 0 0 0 24,36 12,12 0 0 0 36,48 12,12 0 0 0 48,36 12,12 0 0 0 47.98,35.406 Z"
       id="path22" />
    <path
       style="fill:#ffffff"
       d="m 30.357143,29 h 4.285714 C 34.840714,29 35,29.159286 35,29.357143 v 4.285714 C 35,33.840714 34.840714,34 34.642857,34 H 30.357143 C 30.159286,34 30,33.840714 30,33.642857 V 29.357143 C 30,29.159286 30.159286,29 30.357143,29 Z"
       id="path24" />
    <path
       style="fill:#ffffff"
       d="m 37.357143,29 h 4.285714 C 41.840714,29 42,29.159286 42,29.357143 v 4.285714 C 42,33.840714 41.840714,34 41.642857,34 H 37.357143 C 37.159286,34 37,33.840714 37,33.642857 V 29.357143 C 37,29.159286 37.159286,29 37.357143,29 Z"
       id="path26" />
    <path
       style="fill:#ffffff"
       d="m 30.357143,36 h 4.285714 C 34.840714,36 35,36.159286 35,36.357143 v 4.285714 C 35,40.840714 34.840714,41 34.642857,41 H 30.357143 C 30.159286,41 30,40.840714 30,40.642857 V 36.357143 C 30,36.159286 30.159286,36 30.357143,36 Z"
       id="path28" />
    <path
       style="fill:#ffffff"
       d="m 37.357143,36 h 4.285714 C 41.840714,36 42,36.159286 42,36.357143 v 4.285714 C 42,40.840714 41.840714,41 41.642857,41 H 37.357143 C 37.159286,41 37,40.840714 37,40.642857 V 36.357143 C 37,36.159286 37.159286,36 37.357143,36 Z"
       id="path30" />
  </g>
</svg>
