<?xml version="1.0" encoding="UTF-8" standalone="no"?>
<svg
   xmlns:dc="http://purl.org/dc/elements/1.1/"
   xmlns:cc="http://creativecommons.org/ns#"
   xmlns:rdf="http://www.w3.org/1999/02/22-rdf-syntax-ns#"
   xmlns:svg="http://www.w3.org/2000/svg"
   xmlns="http://www.w3.org/2000/svg"
   xmlns:sodipodi="http://sodipodi.sourceforge.net/DTD/sodipodi-0.dtd"
   xmlns:inkscape="http://www.inkscape.org/namespaces/inkscape"
   width="48"
   height="48"
   version="1.1"
   id="svg24"
   sodipodi:docname="words.svg"
   inkscape:version="0.92.5 (2060ec1f9f, 2020-04-08)">
  <metadata
     id="metadata30">
    <rdf:RDF>
      <cc:Work
         rdf:about="">
        <dc:format>image/svg+xml</dc:format>
        <dc:type
           rdf:resource="http://purl.org/dc/dcmitype/StillImage" />
      </cc:Work>
    </rdf:RDF>
  </metadata>
  <defs
     id="defs28" />
  <sodipodi:namedview
     pagecolor="#ffffff"
     bordercolor="#666666"
     borderopacity="1"
     objecttolerance="10"
     gridtolerance="10"
     guidetolerance="10"
     inkscape:pageopacity="0"
     inkscape:pageshadow="2"
     inkscape:window-width="783"
     inkscape:window-height="480"
     id="namedview26"
     showgrid="false"
     inkscape:zoom="4.9166667"
     inkscape:cx="21.577196"
     inkscape:cy="26.504182"
     inkscape:window-x="0"
     inkscape:window-y="28"
     inkscape:window-maximized="0"
     inkscape:current-layer="svg24" />
  <rect
     style="opacity:0.2"
     width="32"
     height="36"
     x="8"
     y="5"
     ry="4"
     id="rect2" />
  <rect
     style="fill:#4c566a;fill-opacity:1"
     width="32"
     height="36"
     x="8"
     y="4"
     ry="4"
     id="rect4" />
  <rect
     style="opacity:1;fill:#eff1f4;fill-opacity:1"
     width="24"
     height="2"
     x="12"
     y="8"
     id="rect6" />
  <rect
     style="opacity:1;fill:#eff1f4;fill-opacity:1"
     width="24"
     height="2"
     x="12"
     y="13"
     id="rect8" />
  <rect
     style="opacity:1;fill:#eff1f4;fill-opacity:1"
     width="24"
     height="2"
     x="12"
     y="18"
     id="rect10" />
  <rect
     style="opacity:1;fill:#eff1f4;fill-opacity:1"
     width="24"
     height="2"
     x="12"
     y="23"
     id="rect12" />
  <path
     style="opacity:0.1"
     d="m 18,9 a 2,2 0 0 0 -2,2 2,2 0 0 0 0.855469,1.636719 C 15.389,17.06 12.71,24.29 10,27 c 0,0 4,6 4,10 -0.831,0 -1.5,0.669 -1.5,1.5 0,0.831 0.669,1.5 1.5,1.5 v 5 h 10 v -5 c 0.831,0 1.5,-0.669 1.5,-1.5 C 25.5,37.669 24.831,37 24,37 24,33 28,27 28,27 25.29,24.29 22.613391,17.069672 21.150391,12.638672 A 2,2 0 0 0 22,11 2,2 0 0 0 20,9 v 18.269531 c 0.618,0.357 0.999,1.017469 1,1.730469 0,1.105 -0.895,2 -2,2 -1.105,0 -2,-0.895 -2,-2 0.001,-0.713 0.382,-1.371516 1,-1.728516 V 13 Z"
     id="path14" />
  <path
     style="fill:#ffffff;fill-opacity:1"
     d="m 18,8 a 2,2 0 0 0 -2,2 2,2 0 0 0 0.855469,1.636719 C 15.389,16.06 12.71,23.29 10,26 c 0,0 4,6 4,10 H 24 C 24,32 28,26 28,26 25.29,23.29 22.613,16.07 21.15,11.639 A 2,2 0 0 0 22,10 2,2 0 0 0 20,8 v 18.27 c 0.618,0.357 0.999,1.017 1,1.73 0,1.105 -0.895,2 -2,2 -1.105,0 -2,-0.895 -2,-2 0.001,-0.713 0.382,-1.372 1,-1.729 V 12 Z"
     id="path16" />
  <path
     style="fill:#5f697d;fill-opacity:1"
     d="m 14,36 h 10 c 0.831,0 1.5,0.669 1.5,1.5 0,0.831 -0.669,1.5 -1.5,1.5 H 14 c -0.831,0 -1.5,-0.669 -1.5,-1.5 0,-0.831 0.669,-1.5 1.5,-1.5"
     id="path18" />
  <rect
     style="fill:#5f697d;fill-opacity:1"
     width="10"
     height="5"
     x="14"
     y="39"
     rx="0"
     id="rect20" />
  <path
     style="fill:#ffffff;opacity:0.2"
     d="M 12 4 C 9.784 4 8 5.784 8 8 L 8 9 C 8 6.784 9.784 5 12 5 L 36 5 C 38.216 5 40 6.784 40 9 L 40 8 C 40 5.784 38.216 4 36 4 L 12 4 z"
     id="path22" />
</svg>
