<?xml version="1.0" encoding="UTF-8" standalone="no"?>
<svg
   xmlns:dc="http://purl.org/dc/elements/1.1/"
   xmlns:cc="http://creativecommons.org/ns#"
   xmlns:rdf="http://www.w3.org/1999/02/22-rdf-syntax-ns#"
   xmlns:svg="http://www.w3.org/2000/svg"
   xmlns="http://www.w3.org/2000/svg"
   xmlns:sodipodi="http://sodipodi.sourceforge.net/DTD/sodipodi-0.dtd"
   xmlns:inkscape="http://www.inkscape.org/namespaces/inkscape"
   width="48"
   height="48"
   version="1"
   id="svg16"
   sodipodi:docname="cs-workspaces.svg"
   inkscape:version="0.92.5 (2060ec1f9f, 2020-04-08)">
  <metadata
     id="metadata22">
    <rdf:RDF>
      <cc:Work
         rdf:about="">
        <dc:format>image/svg+xml</dc:format>
        <dc:type
           rdf:resource="http://purl.org/dc/dcmitype/StillImage" />
      </cc:Work>
    </rdf:RDF>
  </metadata>
  <defs
     id="defs20" />
  <sodipodi:namedview
     pagecolor="#ffffff"
     bordercolor="#666666"
     borderopacity="1"
     objecttolerance="10"
     gridtolerance="10"
     guidetolerance="10"
     inkscape:pageopacity="0"
     inkscape:pageshadow="2"
     inkscape:window-width="783"
     inkscape:window-height="480"
     id="namedview18"
     showgrid="false"
     inkscape:zoom="4.9166667"
     inkscape:cx="24"
     inkscape:cy="24"
     inkscape:window-x="0"
     inkscape:window-y="28"
     inkscape:window-maximized="0"
     inkscape:current-layer="svg16" />
  <path
     style="opacity:0.2"
     d="M 6,9 C 6,9 4,9 4,11 v 28 c 0,1.108 0.892,2 2,2 h 36 c 1.108,0 2,-0.892 2,-2 V 11 C 44,9.892 43.108,9 42,9 Z"
     id="path2" />
  <path
     style="fill:#4c566a;fill-opacity:1"
     d="m6 8s-2 0-2 2v28c0 1.108 0.892 2 2 2h36c1.108 0 2-0.892 2-2v-28c0-1.108-0.892-2-2-2h-36z"
     id="path4" />
  <path
     style="fill:#ffffff;opacity:0.1"
     d="m 24,40 h 18 c 1.108,0 2,-0.892 2,-2 V 10 C 44,8.892 43.108,8 42,8 H 24 Z"
     id="path6" />
  <path
     style="opacity:0.1;fill:#ffffff"
     d="M 6,8 C 6,8 4,8 4,10 V 24 H 44 V 10 C 44,8.892 43.108,8 42,8 Z"
     id="path8"
     inkscape:connector-curvature="0" />
  <path
     fill="#fff"
     opacity=".1"
     d="m6 8c-1.108 0-2 0.892-2 2v1c0-1.108 0.892-2 2-2h36c1.108 0 2 0.892 2 2v-1c0-1.108-0.892-2-2-2h-36z"
     id="path10" />
  <rect
     style="opacity:0.2"
     width="22"
     height="18"
     x="2"
     y="25"
     rx="1"
     ry="1"
     id="rect12" />
  <rect
     style="fill:#ebebeb"
     width="22"
     height="18"
     x="2"
     y="24"
     rx="1"
     ry="1"
     id="rect14" />
</svg>
