<?xml version="1.0" encoding="UTF-8" standalone="no"?>
<svg
   xmlns:dc="http://purl.org/dc/elements/1.1/"
   xmlns:cc="http://creativecommons.org/ns#"
   xmlns:rdf="http://www.w3.org/1999/02/22-rdf-syntax-ns#"
   xmlns:svg="http://www.w3.org/2000/svg"
   xmlns="http://www.w3.org/2000/svg"
   xmlns:sodipodi="http://sodipodi.sourceforge.net/DTD/sodipodi-0.dtd"
   xmlns:inkscape="http://www.inkscape.org/namespaces/inkscape"
   width="48"
   height="48"
   version="1"
   id="svg12"
   sodipodi:docname="wxcas.svg"
   inkscape:version="0.92.5 (2060ec1f9f, 2020-04-08)">
  <metadata
     id="metadata18">
    <rdf:RDF>
      <cc:Work
         rdf:about="">
        <dc:format>image/svg+xml</dc:format>
        <dc:type
           rdf:resource="http://purl.org/dc/dcmitype/StillImage" />
      </cc:Work>
    </rdf:RDF>
  </metadata>
  <defs
     id="defs16" />
  <sodipodi:namedview
     pagecolor="#ffffff"
     bordercolor="#666666"
     borderopacity="1"
     objecttolerance="10"
     gridtolerance="10"
     guidetolerance="10"
     inkscape:pageopacity="0"
     inkscape:pageshadow="2"
     inkscape:window-width="783"
     inkscape:window-height="480"
     id="namedview14"
     showgrid="false"
     inkscape:zoom="4.9166667"
     inkscape:cx="-1.1186441"
     inkscape:cy="24"
     inkscape:window-x="0"
     inkscape:window-y="28"
     inkscape:window-maximized="0"
     inkscape:current-layer="svg12" />
  <rect
     style="opacity:.2"
     width="38"
     height="34"
     x="5"
     y="10"
     rx="1.9"
     ry="1.889"
     id="rect2" />
  <path
     style="fill:#4c566a;fill-opacity:1"
     d="m6.9 4.9996641h34.2c1.0526 0 1.9 0.8424444 1.9 1.8888888v34.223003c0 1.046444-0.8474 1.888888-1.9 1.888888h-34.2c-1.0526 0-1.9-0.842444-1.9-1.888888v-34.223003c0-1.0464445 0.8474-1.8888889 1.9-1.8888889z"
     id="path4" />
  <path
     style="opacity:.2;stroke-linejoin:round;stroke:#000000;stroke-linecap:round;stroke-width:4;fill:none"
     d="m4 25.000499h14l4-10 4 20 4-10h14"
     id="path6" />
  <path
     style="stroke-linejoin:round;stroke:#ffffff;stroke-linecap:round;stroke-width:4;fill:none;stroke-opacity:1"
     d="m4 24h14l4-10 4 20 4-10h14"
     id="path8" />
  <path
     style="opacity:.1;fill:#ffffff"
     d="m6.9003906 4.9996641c-1.0526 0-1.9003906 0.8422275-1.9003906 1.8886719v1c0-1.0464444 0.8477906-1.8886719 1.9003906-1.8886719h34.199218c1.0526 0 1.900391 0.8422275 1.900391 1.8886719v-1c0-1.0464444-0.847791-1.8886719-1.900391-1.8886719z"
     id="path10" />
</svg>
