<?xml version="1.0" encoding="UTF-8" standalone="no"?>
<svg
   xmlns:dc="http://purl.org/dc/elements/1.1/"
   xmlns:cc="http://creativecommons.org/ns#"
   xmlns:rdf="http://www.w3.org/1999/02/22-rdf-syntax-ns#"
   xmlns:svg="http://www.w3.org/2000/svg"
   xmlns="http://www.w3.org/2000/svg"
   xmlns:sodipodi="http://sodipodi.sourceforge.net/DTD/sodipodi-0.dtd"
   xmlns:inkscape="http://www.inkscape.org/namespaces/inkscape"
   width="48"
   height="48"
   version="1"
   id="svg28"
   sodipodi:docname="wxglade.svg"
   inkscape:version="0.92.5 (2060ec1f9f, 2020-04-08)">
  <metadata
     id="metadata34">
    <rdf:RDF>
      <cc:Work
         rdf:about="">
        <dc:format>image/svg+xml</dc:format>
        <dc:type
           rdf:resource="http://purl.org/dc/dcmitype/StillImage" />
      </cc:Work>
    </rdf:RDF>
  </metadata>
  <defs
     id="defs32" />
  <sodipodi:namedview
     pagecolor="#ffffff"
     bordercolor="#666666"
     borderopacity="1"
     objecttolerance="10"
     gridtolerance="10"
     guidetolerance="10"
     inkscape:pageopacity="0"
     inkscape:pageshadow="2"
     inkscape:window-width="783"
     inkscape:window-height="480"
     id="namedview30"
     showgrid="false"
     inkscape:zoom="4.9166667"
     inkscape:cx="24"
     inkscape:cy="24"
     inkscape:window-x="0"
     inkscape:window-y="28"
     inkscape:window-maximized="0"
     inkscape:current-layer="svg28" />
  <path
     style="fill:#4c566a;fill-opacity:1"
     transform="matrix(0,-1,-1,0,0,0)"
     d="m -42,-44 h 36 c 1.108,0 2,0.892 2,2 v 28.339755 l -4.028021,3.9824867 c -0.7879151,0.7790082 -0.4583477,2.3589094 -1.3870403,2.9632224 L -13.58669,-4 H -42 c -1.108,0 -2,-0.892 -2,-2 v -36 c 0,-1.108 0.892,-2 2,-2 z"
     id="path2" />
  <path
     style="fill:#4c566a;fill-opacity:1"
     d="M 9.9404553,9.3415061 C 9.3278048,10.26472 6.6109632,8.9564894 6.1015762,9.9404553 L 4,14 H 44 V 6 C 44,4.892 43.108,4 42,4 H 13.485114 Z"
     id="path4" />
  <path
     style="fill:#555f73;fill-opacity:1"
     d="m 9.6777583,7.2399299 c -0.8865724,0.6645701 -2.5709418,1.0483133 -3.1383537,2 L 4,13.499124 V 42 c 0,1.108 0.892,2 2,2 h 8 V 4 Z"
     id="path6" />
  <path
     style="fill:#4c566a;fill-opacity:1"
     d="m 38,14 v 30 h 4 c 1.108,0 2,-0.892 2,-2 V 14 Z"
     id="path8" />
  <path
     style="fill:#ffffff;fill-opacity:1"
     d="M 6,4 C 4.892,4 4,4.892 4,6 v 8 H 14 V 4 Z"
     id="path10" />
  <path
     style="opacity:0.2;fill:#ffffff"
     d="M 4,7 V 6 C 4,4.892 4.892,4 6,4 h 36 c 1.108,0 2,0.892 2,2 V 7 C 44,5.892 43.108,5 42,5 H 6 C 4.892,5 4,5.892 4,7 Z"
     id="path12" />
  <path
     style="opacity:0.2"
     d="m 4,42 v 1 c 0,1.108 0.892,2 2,2 h 36 c 1.108,0 2,-0.892 2,-2 v -1 c 0,1.108 -0.892,2 -2,2 H 6 C 4.892,44 4,43.108 4,42 Z"
     id="path14" />
  <rect
     style="fill:#ffffff;fill-opacity:1"
     width="16"
     height="8"
     x="14"
     y="36"
     id="rect16" />
  <rect
     style="fill:#374155;fill-opacity:1"
     width="8"
     height="8"
     x="30"
     y="36"
     id="rect18" />
  <rect
     style="fill:#374155;fill-opacity:1"
     width="6"
     height="6"
     x="38"
     y="14"
     id="rect20" />
  <rect
     style="opacity:0.2"
     width="24"
     height="1"
     x="14"
     y="36"
     id="rect22" />
  <rect
     style="opacity:0.2;fill:#ffffff"
     width="6"
     height="1"
     x="38"
     y="20"
     id="rect24" />
  <rect
     style="opacity:0.2"
     width="40"
     height="1"
     x="4"
     y="14"
     id="rect26" />
</svg>
