<?xml version="1.0" encoding="UTF-8" standalone="no"?>
<svg
   xmlns:dc="http://purl.org/dc/elements/1.1/"
   xmlns:cc="http://creativecommons.org/ns#"
   xmlns:rdf="http://www.w3.org/1999/02/22-rdf-syntax-ns#"
   xmlns:svg="http://www.w3.org/2000/svg"
   xmlns="http://www.w3.org/2000/svg"
   xmlns:sodipodi="http://sodipodi.sourceforge.net/DTD/sodipodi-0.dtd"
   xmlns:inkscape="http://www.inkscape.org/namespaces/inkscape"
   width="48"
   height="48"
   version="1.1"
   id="svg30"
   sodipodi:docname="x-tile.svg"
   inkscape:version="0.92.5 (2060ec1f9f, 2020-04-08)">
  <metadata
     id="metadata36">
    <rdf:RDF>
      <cc:Work
         rdf:about="">
        <dc:format>image/svg+xml</dc:format>
        <dc:type
           rdf:resource="http://purl.org/dc/dcmitype/StillImage" />
      </cc:Work>
    </rdf:RDF>
  </metadata>
  <defs
     id="defs34" />
  <sodipodi:namedview
     pagecolor="#ffffff"
     bordercolor="#666666"
     borderopacity="1"
     objecttolerance="10"
     gridtolerance="10"
     guidetolerance="10"
     inkscape:pageopacity="0"
     inkscape:pageshadow="2"
     inkscape:window-width="765"
     inkscape:window-height="480"
     id="namedview32"
     showgrid="false"
     inkscape:zoom="4.9166667"
     inkscape:cx="22.803896"
     inkscape:cy="37.949974"
     inkscape:window-x="0"
     inkscape:window-y="28"
     inkscape:window-maximized="0"
     inkscape:current-layer="svg30" />
  <path
     style="fill:#5f697d;fill-opacity:1"
     d="m 7,24 c -1.662,0 -3,1.338 -3,3 v 2 h 20 v -2 c 0,-1.662 -1.338,-3 -3,-3 z"
     id="path2" />
  <path
     style="fill:#5f697d;fill-opacity:1"
     d="m 27,24 c -1.662,0 -3,1.338 -3,3 v 2 h 20 v -2 c 0,-1.662 -1.338,-3 -3,-3 z"
     id="path4" />
  <path
     style="opacity:0.2"
     d="m 4,10 v 12 c 0,1.662 1.338,3 3,3 h 14 c 1.662,0 3,-1.338 3,-3 0,1.662 1.338,3 3,3 h 14 c 1.662,0 3,-1.338 3,-3 V 10 H 24 Z m 0,20 v 12 c 0,1.662 1.338,3 3,3 h 14 c 1.662,0 3,-1.338 3,-3 0,1.662 1.338,3 3,3 h 14 c 1.662,0 3,-1.338 3,-3 V 30 H 24 Z"
     id="path6" />
  <path
     style="fill:#4c566a;fill-opacity:1"
     d="M 4 9 L 4 21 C 4 22.662 5.338 24 7 24 L 21 24 C 22.662 24 24 22.662 24 21 L 24 9 L 4 9 z"
     id="path8" />
  <path
     style="fill:#5f697d;fill-opacity:1"
     d="M 7 4 C 5.338 4 4 5.338 4 7 L 4 9 L 24 9 L 24 7 C 24 5.338 22.662 4 21 4 L 7 4 z"
     id="path10" />
  <path
     style="fill:#4c566a;fill-opacity:1"
     d="m 24,9 v 12 c 0,1.662 1.338,3 3,3 h 14 c 1.662,0 3,-1.338 3,-3 V 9 Z"
     id="path12" />
  <path
     style="fill:#5f697d;fill-opacity:1"
     d="M 27,4 C 25.338,4 24,5.338 24,7 V 9 H 44 V 7 C 44,5.338 42.662,4 41,4 Z"
     id="path14" />
  <path
     style="fill:#4c566a;fill-opacity:1"
     d="m 4,29 v 12 c 0,1.662 1.338,3 3,3 h 14 c 1.662,0 3,-1.338 3,-3 V 29 Z"
     id="path16" />
  <path
     style="fill:#4c566a;fill-opacity:1"
     d="m 24,29 v 12 c 0,1.662 1.338,3 3,3 h 14 c 1.662,0 3,-1.338 3,-3 V 29 Z"
     id="path18" />
  <rect
     style="opacity:0.1"
     width="40"
     height="1"
     x="4"
     y="29"
     id="rect20" />
  <path
     style="opacity:0.1"
     d="m 8,13 v 1.846154 l 4.393442,0.548856 8.786886,9.72973 -9.442622,9.629938 -3.7377058,0.399167 V 37 H 20 v -1.846155 l -3.344261,-0.349271 -0.327869,-0.598752 6.688524,-7.234928 6.098361,7.434511 -0.327869,0.399169 L 26,35.153845 V 37 H 40 V 35.153845 L 36.065575,34.754678 26.42623,24.076923 35.081967,15.345115 39,14.846154 V 13 H 27 v 1.846154 l 3.098362,0.299376 0.52459,0.648649 -5.967213,6.386694 L 19.147543,15.64449 19.47541,15.14553 23,14.846154 V 13 Z"
     id="path22" />
  <path
     style="fill:#f3f3f3;fill-opacity:1"
     d="m 8,12 v 1.846154 l 4.393442,0.548856 8.786886,9.72973 -9.442622,9.629938 -3.7377058,0.399167 V 36 H 20 v -1.846155 l -3.344261,-0.349271 -0.327869,-0.598752 6.688524,-7.234928 6.098361,7.434511 -0.327869,0.399169 L 26,34.153845 V 36 H 40 V 34.153845 L 36.065575,33.754678 26.42623,23.076923 35.081967,14.345115 39,13.846154 V 12 H 27 v 1.846154 l 3.098362,0.299376 0.52459,0.648649 -5.967213,6.386694 L 19.147543,14.64449 19.47541,14.14553 23,13.846154 V 12 Z"
     id="path24" />
  <rect
     style="opacity:0.1"
     width="40"
     height="1"
     x="4"
     y="9"
     id="rect26" />
  <path
     style="fill:#ffffff;opacity:0.2"
     d="M 7 4 C 5.338 4 4 5.338 4 7 L 4 8 C 4 6.338 5.338 5 7 5 L 21 5 C 22.662 5 24 6.338 24 8 C 24 6.338 25.338 5 27 5 L 41 5 C 42.662 5 44 6.338 44 8 L 44 7 C 44 5.338 42.662 4 41 4 L 27 4 C 25.338 4 24 5.338 24 7 C 24 5.338 22.662 4 21 4 L 7 4 z"
     id="path28" />
</svg>
