<?xml version="1.0" encoding="UTF-8" standalone="no"?>
<svg
   xmlns:dc="http://purl.org/dc/elements/1.1/"
   xmlns:cc="http://creativecommons.org/ns#"
   xmlns:rdf="http://www.w3.org/1999/02/22-rdf-syntax-ns#"
   xmlns:svg="http://www.w3.org/2000/svg"
   xmlns="http://www.w3.org/2000/svg"
   xmlns:sodipodi="http://sodipodi.sourceforge.net/DTD/sodipodi-0.dtd"
   xmlns:inkscape="http://www.inkscape.org/namespaces/inkscape"
   width="48"
   height="48"
   version="1"
   id="svg12"
   sodipodi:docname="xampp.svg"
   inkscape:version="0.92.5 (2060ec1f9f, 2020-04-08)">
  <metadata
     id="metadata18">
    <rdf:RDF>
      <cc:Work
         rdf:about="">
        <dc:format>image/svg+xml</dc:format>
        <dc:type
           rdf:resource="http://purl.org/dc/dcmitype/StillImage" />
      </cc:Work>
    </rdf:RDF>
  </metadata>
  <defs
     id="defs16" />
  <sodipodi:namedview
     pagecolor="#ffffff"
     bordercolor="#666666"
     borderopacity="1"
     objecttolerance="10"
     gridtolerance="10"
     guidetolerance="10"
     inkscape:pageopacity="0"
     inkscape:pageshadow="2"
     inkscape:window-width="783"
     inkscape:window-height="480"
     id="namedview14"
     showgrid="false"
     inkscape:zoom="4.9166667"
     inkscape:cx="-1.1186441"
     inkscape:cy="24"
     inkscape:window-x="0"
     inkscape:window-y="28"
     inkscape:window-maximized="0"
     inkscape:current-layer="svg12" />
  <rect
     fill="#fb7a24"
     width="40"
     height="40"
     x="4"
     y="4"
     rx="2"
     ry="2"
     id="rect2"
     style="fill:#4c566a;fill-opacity:1" />
  <path
     fill="#fff"
     opacity=".2"
     d="m4 7v-1c0-1.108 0.892-2 2-2h36c1.108 0 2 0.892 2 2v1c0-1.108-0.892-2-2-2h-36c-1.108 0-2 0.892-2 2z"
     id="path4" />
  <path
     opacity=".2"
     d="m4 42v1c0 1.108 0.892 2 2 2h36c1.108 0 2-0.892 2-2v-1c0 1.108-0.892 2-2 2h-36c-1.108 0-2-0.892-2-2z"
     id="path6" />
  <path
     opacity=".2"
     d="m17 11a7 7 0 0 0 -7 7 7 7 0 0 0 6.5645 6.9844c0.05966-0.09489 0.10813-0.18611 0.17383-0.2832 0.68592-1.0136 1.951-1.9183 3.1973-2.2812 1.247-0.363 2.48-0.42 4.065-0.42a3.0003 3.0003 0 0 1 0.43945 0.0332c0.98874 0.14623 1.4321 0.04025 1.5508-0.0039 0.11865-0.04416 0.08741 0.0063 0.27148-0.27148 0.36815-0.55548 0.93216-2.4934 1.9805-4.9395a3.0003 3.0003 0 0 1 2.7441 -1.8574 3.0003 3.0003 0 0 1 2.7715 4.2207c-0.79786 1.8617-1.1285 3.7811-2.4414 5.8027a7 7 0 0 0 6.683 -6.984 7 7 0 0 0 -7 -7 7 7 0 0 0 -6.9824 6.5234 7 7 0 0 0 -0.01758 0 7 7 0 0 0 -0.02344 0 7 7 0 0 0 -6.977 -6.523zm0 4a3 3 0 0 1 3 3 3 3 0 0 1 -3 3 3 3 0 0 1 -3 -3 3 3 0 0 1 3 -3zm14.301 10.01c-0.0136 0.02081-0.0233 0.04167-0.03711 0.0625-0.68064 1.027-1.7863 2.0634-3.1797 2.582-1.2909 0.48046-2.6837 0.53365-4.1719 0.34961-1.2575 0.0058-2.0048 0.10599-2.248 0.17188-0.06297 0.14144-0.59502 2.0073-1.916 5.0273a3.0003 3.0003 0 1 1 -5.4961 -2.4062c1.0581-2.419 1.1253-3.9059 2.2871-5.7734a7 7 0 0 0 -6.539 6.976 7 7 0 0 0 7 7 7 7 0 0 0 7 -7 7 7 0 0 0 -0.02344 -0.47852 7 7 0 0 0 0.02344 0.002 7 7 0 0 0 0.01758 0 7 7 0 0 0 -0.018 0.477 7 7 0 0 0 7 7 7 7 0 0 0 7 -7 7 7 0 0 0 -6.6992 -6.9902zm-0.301 3.99a3 3 0 0 1 3 3 3 3 0 0 1 -3 3 3 3 0 0 1 -3 -3 3 3 0 0 1 3 -3z"
     id="path8" />
  <path
     fill="#fff"
     d="m17 10a7 7 0 0 0 -7 7 7 7 0 0 0 6.5645 6.9844c0.05966-0.09489 0.10813-0.18611 0.17383-0.2832 0.68592-1.0136 1.951-1.9183 3.1973-2.2812 1.247-0.363 2.48-0.42 4.065-0.42a3.0003 3.0003 0 0 1 0.43945 0.0332c0.98874 0.14623 1.4321 0.04025 1.5508-0.0039 0.11865-0.04416 0.08741 0.0063 0.27148-0.27148 0.36815-0.55548 0.93216-2.4934 1.9805-4.9395a3.0003 3.0003 0 0 1 2.7441 -1.8574 3.0003 3.0003 0 0 1 2.7715 4.2207c-0.79786 1.8617-1.1285 3.7811-2.4414 5.8027a7 7 0 0 0 6.683 -6.984 7 7 0 0 0 -7 -7 7 7 0 0 0 -6.9824 6.5234 7 7 0 0 0 -0.01758 0 7 7 0 0 0 -0.02344 0 7 7 0 0 0 -6.977 -6.523zm0 4a3 3 0 0 1 3 3 3 3 0 0 1 -3 3 3 3 0 0 1 -3 -3 3 3 0 0 1 3 -3zm14.301 10.01c-0.0136 0.02081-0.0233 0.04167-0.03711 0.0625-0.68064 1.027-1.7863 2.0634-3.1797 2.582-1.2909 0.48046-2.6837 0.53365-4.1719 0.34961-1.2575 0.0058-2.0048 0.10599-2.248 0.17188-0.06297 0.14144-0.59502 2.0073-1.916 5.0273a3.0003 3.0003 0 1 1 -5.4961 -2.4062c1.0581-2.419 1.1253-3.9059 2.2871-5.7734a7 7 0 0 0 -6.539 6.976 7 7 0 0 0 7 7 7 7 0 0 0 7 -7 7 7 0 0 0 -0.02344 -0.47852 7 7 0 0 0 0.02344 0.002 7 7 0 0 0 0.01758 0 7 7 0 0 0 -0.018 0.477 7 7 0 0 0 7 7 7 7 0 0 0 7 -7 7 7 0 0 0 -6.6992 -6.9902zm-0.301 3.99a3 3 0 0 1 3 3 3 3 0 0 1 -3 3 3 3 0 0 1 -3 -3 3 3 0 0 1 3 -3z"
     id="path10" />
</svg>
