<?xml version="1.0" encoding="UTF-8" standalone="no"?>
<svg
   xmlns:dc="http://purl.org/dc/elements/1.1/"
   xmlns:cc="http://creativecommons.org/ns#"
   xmlns:rdf="http://www.w3.org/1999/02/22-rdf-syntax-ns#"
   xmlns:svg="http://www.w3.org/2000/svg"
   xmlns="http://www.w3.org/2000/svg"
   xmlns:sodipodi="http://sodipodi.sourceforge.net/DTD/sodipodi-0.dtd"
   xmlns:inkscape="http://www.inkscape.org/namespaces/inkscape"
   width="48"
   height="48"
   version="1.1"
   id="svg32"
   sodipodi:docname="xash3d.svg"
   inkscape:version="0.92.5 (2060ec1f9f, 2020-04-08)">
  <metadata
     id="metadata38">
    <rdf:RDF>
      <cc:Work
         rdf:about="">
        <dc:format>image/svg+xml</dc:format>
        <dc:type
           rdf:resource="http://purl.org/dc/dcmitype/StillImage" />
      </cc:Work>
    </rdf:RDF>
  </metadata>
  <defs
     id="defs36" />
  <sodipodi:namedview
     pagecolor="#ffffff"
     bordercolor="#666666"
     borderopacity="1"
     objecttolerance="10"
     gridtolerance="10"
     guidetolerance="10"
     inkscape:pageopacity="0"
     inkscape:pageshadow="2"
     inkscape:window-width="783"
     inkscape:window-height="480"
     id="namedview34"
     showgrid="false"
     inkscape:zoom="4.9166667"
     inkscape:cx="24"
     inkscape:cy="24"
     inkscape:window-x="0"
     inkscape:window-y="28"
     inkscape:window-maximized="0"
     inkscape:current-layer="svg32" />
  <circle
     style="opacity:0.2"
     cx="24"
     cy="25"
     r="20"
     id="circle2" />
  <path
     style="fill:#4c566a;fill-opacity:1"
     d="M 44,24 C 44,35.045695 35.045695,44 24,44 12.954305,44 4,35.045695 4,24 Z"
     id="path4" />
  <path
     style="fill:#4c566a;fill-opacity:1"
     d="M 44,24 H 4 C 4,12.954305 12.954305,4 24,4 35.045695,4 44,12.954305 44,24 Z"
     id="path6" />
  <circle
     style="opacity:0.2"
     cx="24"
     cy="25"
     r="16"
     id="circle8" />
  <circle
     style="fill:#ffffff;fill-opacity:1"
     cx="24"
     cy="24"
     r="16"
     id="circle10" />
  <path
     style="opacity:0.1"
     d="M 28,14 15,35 h 5 L 33,14 Z"
     id="path12" />
  <path
     style="fill:#4c566a;fill-opacity:1"
     d="M 28,13 15,34 h 5 L 33,13 Z"
     id="path14" />
  <path
     style="opacity:0.1;fill:#ffffff"
     d="M 24,4 A 20,20 0 0 0 4,24 20,20 0 0 0 4.0215,24.582 20,20 0 0 1 24,5 20,20 0 0 1 43.979,24.418 20,20 0 0 0 44,24 20,20 0 0 0 24,4 Z"
     id="path16" />
  <rect
     style="opacity:0.1"
     width="5"
     height="4"
     x="28"
     y="31"
     id="rect18" />
  <rect
     style="fill:#4c566a;fill-opacity:1"
     width="5"
     height="4"
     x="28"
     y="30"
     id="rect20" />
  <path
     style="opacity:0.1"
     d="M 20,14 16.600781,16.054688 28,35 30,31 Z"
     id="path22" />
  <path
     style="fill:#4c566a;fill-opacity:1"
     d="M 20,13 16.600781,15.054688 28,34 30,30 Z"
     id="path24" />
  <path
     style="opacity:0.1"
     d="m 15,14 h 5 l -2.25,4 H 15 Z"
     id="path26" />
  <path
     style="fill:#4c566a;fill-opacity:1"
     d="m 15,13 h 5 l -2.25,4 H 15 Z"
     id="path28" />
  <path
     style="fill:#ffffff;opacity:0.2"
     d="M 24 8 A 16 16 0 0 0 8 24 A 16 16 0 0 0 8.0214844 24.580078 A 16 16 0 0 1 24 9 A 16 16 0 0 1 39.978516 24.419922 A 16 16 0 0 0 40 24 A 16 16 0 0 0 24 8 z"
     id="path30" />
</svg>
