<?xml version="1.0" encoding="UTF-8" standalone="no"?>
<svg
   xmlns:dc="http://purl.org/dc/elements/1.1/"
   xmlns:cc="http://creativecommons.org/ns#"
   xmlns:rdf="http://www.w3.org/1999/02/22-rdf-syntax-ns#"
   xmlns:svg="http://www.w3.org/2000/svg"
   xmlns="http://www.w3.org/2000/svg"
   xmlns:sodipodi="http://sodipodi.sourceforge.net/DTD/sodipodi-0.dtd"
   xmlns:inkscape="http://www.inkscape.org/namespaces/inkscape"
   width="48"
   height="48"
   version="1.1"
   id="svg12"
   sodipodi:docname="app.xemu.xemu.svg"
   inkscape:version="0.92.5 (2060ec1f9f, 2020-04-08)">
  <metadata
     id="metadata18">
    <rdf:RDF>
      <cc:Work
         rdf:about="">
        <dc:format>image/svg+xml</dc:format>
        <dc:type
           rdf:resource="http://purl.org/dc/dcmitype/StillImage" />
      </cc:Work>
    </rdf:RDF>
  </metadata>
  <defs
     id="defs16" />
  <sodipodi:namedview
     pagecolor="#ffffff"
     bordercolor="#666666"
     borderopacity="1"
     objecttolerance="10"
     gridtolerance="10"
     guidetolerance="10"
     inkscape:pageopacity="0"
     inkscape:pageshadow="2"
     inkscape:window-width="783"
     inkscape:window-height="480"
     id="namedview14"
     showgrid="false"
     inkscape:zoom="4.9166667"
     inkscape:cx="-1.1186441"
     inkscape:cy="24"
     inkscape:window-x="0"
     inkscape:window-y="28"
     inkscape:window-maximized="0"
     inkscape:current-layer="svg12" />
  <circle
     style="opacity:0.2"
     cx="24"
     cy="25"
     r="20"
     id="circle2" />
  <circle
     style="fill:#4c566a;fill-opacity:1"
     cx="24"
     cy="24"
     r="20"
     id="circle4" />
  <path
     style="opacity:0.1;fill:#ffffff"
     d="M 24,4 A 20,20 0 0 0 4,24 20,20 0 0 0 4.0215,24.582 20,20 0 0 1 24,5 20,20 0 0 1 43.979,24.418 20,20 0 0 0 44,24 20,20 0 0 0 24,4 Z"
     id="path6" />
  <path
     style="opacity:0.2"
     d="m 29.581897,35 c -1.550801,-2.92331 -3.454285,-5.649713 -5.517241,-8.23276 -2.113054,2.645705 -4.231845,5.305293 -5.94828,8.23276 -1.221264,0 -2.442528,0 -3.663792,0 2.076239,-3.788915 4.831838,-7.139213 7.500002,-10.517235 C 19.553161,21.32184 17.153733,18.160925 14.754307,15 c 1.336208,0 2.672415,0 4.008623,0 1.795977,2.327587 3.591956,4.655175 5.387932,6.98276 1.652299,-2.327585 3.304599,-4.655173 4.956899,-6.98276 1.264366,0 2.528735,0 3.793101,0 -2.198271,3.08908 -4.396551,6.178165 -6.59483,9.267245 2.568839,3.465617 5.251659,6.88783 7.241384,10.732755 -1.32184,0 -2.643679,0 -3.965519,0 z"
     id="path8" />
  <path
     style="fill:#fbfefc;fill-opacity:1"
     d="m 29.581897,34 c -1.550801,-2.92331 -3.454285,-5.649713 -5.517241,-8.23276 -2.113054,2.645705 -4.231845,5.305293 -5.94828,8.23276 -1.221264,0 -2.442528,0 -3.663792,0 2.076239,-3.788915 4.831838,-7.139213 7.500002,-10.517235 C 19.553161,20.32184 17.153733,17.160925 14.754307,14 c 1.336208,0 2.672415,0 4.008623,0 1.795977,2.327587 3.591956,4.655175 5.387932,6.98276 1.652299,-2.327585 3.304599,-4.655173 4.956899,-6.98276 1.264366,0 2.528735,0 3.793101,0 -2.198271,3.08908 -4.396551,6.178165 -6.59483,9.267245 2.568839,3.465617 5.251659,6.88783 7.241384,10.732755 -1.32184,0 -2.643679,0 -3.965519,0 z"
     id="path10" />
</svg>
