<?xml version="1.0" encoding="UTF-8" standalone="no"?>
<svg
   xmlns:dc="http://purl.org/dc/elements/1.1/"
   xmlns:cc="http://creativecommons.org/ns#"
   xmlns:rdf="http://www.w3.org/1999/02/22-rdf-syntax-ns#"
   xmlns:svg="http://www.w3.org/2000/svg"
   xmlns="http://www.w3.org/2000/svg"
   xmlns:sodipodi="http://sodipodi.sourceforge.net/DTD/sodipodi-0.dtd"
   xmlns:inkscape="http://www.inkscape.org/namespaces/inkscape"
   width="48"
   height="48"
   version="1"
   id="svg52"
   sodipodi:docname="xfce4-cpugraph-plugin.svg"
   inkscape:version="0.92.5 (2060ec1f9f, 2020-04-08)">
  <metadata
     id="metadata58">
    <rdf:RDF>
      <cc:Work
         rdf:about="">
        <dc:format>image/svg+xml</dc:format>
        <dc:type
           rdf:resource="http://purl.org/dc/dcmitype/StillImage" />
      </cc:Work>
    </rdf:RDF>
  </metadata>
  <defs
     id="defs56" />
  <sodipodi:namedview
     pagecolor="#ffffff"
     bordercolor="#666666"
     borderopacity="1"
     objecttolerance="10"
     gridtolerance="10"
     guidetolerance="10"
     inkscape:pageopacity="0"
     inkscape:pageshadow="2"
     inkscape:window-width="765"
     inkscape:window-height="480"
     id="namedview54"
     showgrid="false"
     inkscape:zoom="4.9166667"
     inkscape:cx="12.012488"
     inkscape:cy="31.137031"
     inkscape:window-x="0"
     inkscape:window-y="28"
     inkscape:window-maximized="0"
     inkscape:current-layer="svg52" />
  <g
     fill="#8e8e8e"
     id="g40">
    <g
       id="g20">
      <rect
         width="2"
         height="40"
         x="27"
         y="-44"
         transform="rotate(90)"
         id="rect2" />
      <rect
         width="2"
         height="40"
         x="23"
         y="-44"
         transform="rotate(90)"
         id="rect4" />
      <rect
         width="2"
         height="40"
         x="19"
         y="-44"
         transform="rotate(90)"
         id="rect6" />
      <rect
         width="2"
         height="40"
         x="15"
         y="-44"
         transform="rotate(90)"
         id="rect8" />
      <rect
         width="2"
         height="40"
         x="31"
         y="-44"
         transform="rotate(90)"
         id="rect10" />
      <rect
         width="2"
         height="40"
         x="35"
         y="-44"
         transform="rotate(90)"
         id="rect12" />
      <rect
         width="2"
         height="40"
         x="39"
         y="-44"
         transform="rotate(90)"
         id="rect14" />
      <rect
         width="2"
         height="40"
         x="11"
         y="-44"
         transform="rotate(90)"
         id="rect16" />
      <rect
         width="2"
         height="40"
         x="7"
         y="-44"
         transform="rotate(90)"
         id="rect18" />
    </g>
    <rect
       width="2"
       height="40"
       x="23"
       y="4"
       id="rect22" />
    <rect
       width="2"
       height="40"
       x="19"
       y="4"
       id="rect24" />
    <rect
       width="2"
       height="40"
       x="15"
       y="4"
       id="rect26" />
    <rect
       width="2"
       height="40"
       x="11"
       y="4"
       id="rect28" />
    <rect
       width="2"
       height="40"
       x="27"
       y="4"
       id="rect30" />
    <rect
       width="2"
       height="40"
       x="31"
       y="4"
       id="rect32" />
    <rect
       width="2"
       height="40"
       x="35"
       y="4"
       id="rect34" />
    <rect
       width="2"
       height="40"
       x="7"
       y="4"
       id="rect36" />
    <rect
       width="2"
       height="40"
       x="39"
       y="4"
       id="rect38" />
  </g>
  <rect
     fill="#b7b7b7"
     width="36"
     height="36"
     x="-42"
     y="-42"
     rx="1.8"
     ry="2.25"
     transform="matrix(0,-1,-1,0,0,0)"
     id="rect42"
     style="fill:#4c566a;fill-opacity:1" />
  <path
     fill="#fff"
     opacity=".2"
     d="m8.25 6c-1.2465 0-2.25 0.8036-2.25 1.8008v1c0-0.9972 1.0035-1.8008 2.25-1.8008h31.5c1.246 0 2.25 0.8036 2.25 1.8008v-1c0-0.9972-1.004-1.8008-2.25-1.8008h-31.5z"
     id="path44" />
  <path
     opacity=".2"
     d="m6 40.199v1c0 0.997 1.0035 1.801 2.25 1.801h31.5c1.246 0 2.25-0.804 2.25-1.801v-1c0 0.997-1.004 1.801-2.25 1.801h-31.5c-1.2465 0-2.25-0.804-2.25-1.801z"
     id="path46" />
  <path
     style="opacity:0.1;fill:none;stroke:#000000;stroke-width:4;stroke-linecap:round;stroke-linejoin:round"
     d="m 4,24.000499 h 14 l 4,-10 4,20 4,-10 h 14"
     id="path48" />
  <path
     style="fill:none;stroke:#ffffff;stroke-width:4;stroke-linecap:round;stroke-linejoin:round;stroke-opacity:1"
     d="m 4,23 h 14 l 4,-10 4,20 4,-10 h 14"
     id="path50" />
</svg>
