<?xml version="1.0" encoding="UTF-8" standalone="no"?>
<svg
   xmlns:dc="http://purl.org/dc/elements/1.1/"
   xmlns:cc="http://creativecommons.org/ns#"
   xmlns:rdf="http://www.w3.org/1999/02/22-rdf-syntax-ns#"
   xmlns:svg="http://www.w3.org/2000/svg"
   xmlns="http://www.w3.org/2000/svg"
   xmlns:sodipodi="http://sodipodi.sourceforge.net/DTD/sodipodi-0.dtd"
   xmlns:inkscape="http://www.inkscape.org/namespaces/inkscape"
   width="48"
   height="48"
   version="1.1"
   id="svg18"
   sodipodi:docname="preferences-desktop-plasma-theme.svg"
   inkscape:version="0.92.5 (2060ec1f9f, 2020-04-08)">
  <metadata
     id="metadata24">
    <rdf:RDF>
      <cc:Work
         rdf:about="">
        <dc:format>image/svg+xml</dc:format>
        <dc:type
           rdf:resource="http://purl.org/dc/dcmitype/StillImage" />
      </cc:Work>
    </rdf:RDF>
  </metadata>
  <defs
     id="defs22" />
  <sodipodi:namedview
     pagecolor="#ffffff"
     bordercolor="#666666"
     borderopacity="1"
     objecttolerance="10"
     gridtolerance="10"
     guidetolerance="10"
     inkscape:pageopacity="0"
     inkscape:pageshadow="2"
     inkscape:window-width="640"
     inkscape:window-height="480"
     id="namedview20"
     showgrid="false"
     inkscape:zoom="4.9166667"
     inkscape:cx="73.830508"
     inkscape:cy="24"
     inkscape:current-layer="svg18" />
  <path
     fill="#253951"
     d="m6 42c-1.108 0-2-0.892-2-2v-6h40v6c0 1.108-0.892 2-2 2z"
     id="path4" />
  <path
     fill="#fff"
     opacity=".1"
     d="m6 6c-1.108 0-2 0.892-2 2v1c0-1.108 0.892-2 2-2h36c1.108 0 2 0.892 2 2v-1c0-1.108-0.892-2-2-2z"
     id="path6" />
  <rect
     fill="#fff"
     opacity=".2"
     width="18"
     height="6"
     x="5"
     y="35"
     rx="1.437"
     ry="1.544"
     id="rect8" />
  <rect
     fill="#fff"
     opacity=".2"
     width="18"
     height="6"
     x="24"
     y="35"
     rx="1.437"
     ry="1.544"
     id="rect10" />
  <rect
     fill="#fff"
     width="4"
     height="4"
     x="6"
     y="36"
     id="rect12" />
  <rect
     fill="#fff"
     width="4"
     height="4"
     x="25"
     y="36"
     id="rect14" />
  <path
     opacity=".2"
     d="m4 40v1c0 1.108 0.892 2 2 2h36c1.108 0 2-0.892 2-2v-1c0 1.108-0.892 2-2 2h-36c-1.108 0-2-0.892-2-2z"
     id="path16" />
  <path
     inkscape:connector-curvature="0"
     d="m 6,5.9999996 c -1.108,0 -2,0.892 -2,2 v 2 V 34 h 40 v -24.0000004 -2 c 0,-1.108 -0.892,-2 -2,-2 z"
     id="path2"
     style="fill:#4c566a;fill-opacity:1" />
</svg>
