<?xml version="1.0" encoding="UTF-8" standalone="no"?>
<svg
   xmlns:dc="http://purl.org/dc/elements/1.1/"
   xmlns:cc="http://creativecommons.org/ns#"
   xmlns:rdf="http://www.w3.org/1999/02/22-rdf-syntax-ns#"
   xmlns:svg="http://www.w3.org/2000/svg"
   xmlns="http://www.w3.org/2000/svg"
   xmlns:sodipodi="http://sodipodi.sourceforge.net/DTD/sodipodi-0.dtd"
   xmlns:inkscape="http://www.inkscape.org/namespaces/inkscape"
   width="48"
   height="48"
   version="1.1"
   id="svg22"
   sodipodi:docname="systemtray.svg"
   inkscape:version="0.92.5 (2060ec1f9f, 2020-04-08)">
  <metadata
     id="metadata28">
    <rdf:RDF>
      <cc:Work
         rdf:about="">
        <dc:format>image/svg+xml</dc:format>
        <dc:type
           rdf:resource="http://purl.org/dc/dcmitype/StillImage" />
      </cc:Work>
    </rdf:RDF>
  </metadata>
  <defs
     id="defs26" />
  <sodipodi:namedview
     pagecolor="#ffffff"
     bordercolor="#666666"
     borderopacity="1"
     objecttolerance="10"
     gridtolerance="10"
     guidetolerance="10"
     inkscape:pageopacity="0"
     inkscape:pageshadow="2"
     inkscape:window-width="640"
     inkscape:window-height="480"
     id="namedview24"
     showgrid="false"
     inkscape:zoom="4.9166667"
     inkscape:cx="-55.322034"
     inkscape:cy="24"
     inkscape:current-layer="svg22" />
  <path
     inkscape:connector-curvature="0"
     d="m 6,42.1 c -1.108,0 -2,-0.892 -2,-2 v -6 h 40 v 6 c 0,1.108 -0.892,2 -2,2 z"
     id="path4"
     style="fill:#5f697d;fill-opacity:1" />
  <path
     style="fill:#4c566a;fill-opacity:1"
     d="M 6,6 C 4.892,6 4,6.892 4,8 l 0,26.1 40,0 L 44,8 C 44,6.892 43.108,6 42,6 Z"
     id="path2" />
  <path
     fill="#fff"
     opacity=".1"
     d="m6 6c-1.108 0-2 0.892-2 2v1c0-1.108 0.892-2 2-2h36c1.108 0 2 0.892 2 2v-1c0-1.108-0.892-2-2-2z"
     id="path6" />
  <circle
     opacity=".2"
     cx="26"
     cy="39"
     r="2"
     id="circle8" />
  <circle
     opacity=".2"
     cx="32"
     cy="39"
     r="2"
     id="circle12" />
  <circle
     opacity=".2"
     cx="38"
     cy="39"
     r="2"
     id="circle16" />
  <path
     opacity=".2"
     d="m4 40v1c0 1.108 0.892 2 2 2h36c1.108 0 2-0.892 2-2v-1c0 1.108-0.892 2-2 2h-36c-1.108 0-2-0.892-2-2z"
     id="path20" />
  <circle
     fill="#fff"
     opacity=".72"
     cx="26"
     cy="38"
     r="2"
     id="circle10"
     style="fill:#ffffff;fill-opacity:1" />
  <circle
     fill="#fff"
     opacity=".72"
     cx="32"
     cy="38"
     r="2"
     id="circle14"
     style="fill:#ffffff;fill-opacity:1" />
  <circle
     fill="#fff"
     opacity=".72"
     cx="38"
     cy="38"
     r="2"
     id="circle18"
     style="fill:#ffffff;fill-opacity:1" />
</svg>
