<?xml version="1.0" encoding="UTF-8" standalone="no"?>
<svg
   xmlns:dc="http://purl.org/dc/elements/1.1/"
   xmlns:cc="http://creativecommons.org/ns#"
   xmlns:rdf="http://www.w3.org/1999/02/22-rdf-syntax-ns#"
   xmlns:svg="http://www.w3.org/2000/svg"
   xmlns="http://www.w3.org/2000/svg"
   xmlns:sodipodi="http://sodipodi.sourceforge.net/DTD/sodipodi-0.dtd"
   xmlns:inkscape="http://www.inkscape.org/namespaces/inkscape"
   width="48"
   height="48"
   version="1.1"
   id="svg18"
   sodipodi:docname="yaradio-yamusic.svg"
   inkscape:version="0.92.5 (2060ec1f9f, 2020-04-08)">
  <metadata
     id="metadata24">
    <rdf:RDF>
      <cc:Work
         rdf:about="">
        <dc:format>image/svg+xml</dc:format>
        <dc:type
           rdf:resource="http://purl.org/dc/dcmitype/StillImage" />
      </cc:Work>
    </rdf:RDF>
  </metadata>
  <defs
     id="defs22" />
  <sodipodi:namedview
     pagecolor="#ffffff"
     bordercolor="#666666"
     borderopacity="1"
     objecttolerance="10"
     gridtolerance="10"
     guidetolerance="10"
     inkscape:pageopacity="0"
     inkscape:pageshadow="2"
     inkscape:window-width="783"
     inkscape:window-height="480"
     id="namedview20"
     showgrid="false"
     inkscape:zoom="4.9166667"
     inkscape:cx="7.2474943"
     inkscape:cy="23.506193"
     inkscape:window-x="0"
     inkscape:window-y="28"
     inkscape:window-maximized="0"
     inkscape:current-layer="svg18" />
  <circle
     style="opacity:0.2"
     cx="24"
     cy="25"
     r="20"
     id="circle2" />
  <circle
     style="fill:#4c566a;fill-opacity:1"
     cx="24"
     cy="24"
     r="20"
     id="circle4" />
  <circle
     style="opacity:0.1"
     cx="24"
     cy="32"
     r="13"
     id="circle6" />
  <path
     style="opacity:0.2;fill:#ffffff"
     d="M 24,4 A 20,20 0 0 0 4,24 20,20 0 0 0 4.0215,24.582 20,20 0 0 1 24,5 20,20 0 0 1 43.979,24.418 20,20 0 0 0 44,24 20,20 0 0 0 24,4 Z"
     id="path8" />
  <circle
     style="fill:#ffffff;fill-opacity:1"
     cx="24"
     cy="31"
     r="13"
     id="circle10" />
  <circle
     style="opacity:0.1"
     cx="24"
     cy="38"
     r="7"
     id="circle12" />
  <circle
     style="fill:#4c566a;fill-opacity:1"
     cx="24"
     cy="37"
     r="7"
     id="circle14" />
  <path
     style="opacity:0.2;fill:#ffffff"
     d="M 24 30 A 7 7 0 0 0 17 37 A 7 7 0 0 0 17.035156 37.5 A 7 7 0 0 1 24 31 A 7 7 0 0 1 30.972656 37.390625 A 7 7 0 0 0 31 37 A 7 7 0 0 0 24 30 z"
     id="path16" />
</svg>
