<?xml version="1.0" encoding="UTF-8" standalone="no"?>
<svg
   xmlns:dc="http://purl.org/dc/elements/1.1/"
   xmlns:cc="http://creativecommons.org/ns#"
   xmlns:rdf="http://www.w3.org/1999/02/22-rdf-syntax-ns#"
   xmlns:svg="http://www.w3.org/2000/svg"
   xmlns="http://www.w3.org/2000/svg"
   xmlns:sodipodi="http://sodipodi.sourceforge.net/DTD/sodipodi-0.dtd"
   xmlns:inkscape="http://www.inkscape.org/namespaces/inkscape"
   width="48"
   height="48"
   version="1.1"
   id="svg198"
   sodipodi:docname="yast-hwinfo.svg"
   inkscape:version="0.92.5 (2060ec1f9f, 2020-04-08)">
  <metadata
     id="metadata204">
    <rdf:RDF>
      <cc:Work
         rdf:about="">
        <dc:format>image/svg+xml</dc:format>
        <dc:type
           rdf:resource="http://purl.org/dc/dcmitype/StillImage" />
      </cc:Work>
    </rdf:RDF>
  </metadata>
  <defs
     id="defs202" />
  <sodipodi:namedview
     pagecolor="#ffffff"
     bordercolor="#666666"
     borderopacity="1"
     objecttolerance="10"
     gridtolerance="10"
     guidetolerance="10"
     inkscape:pageopacity="0"
     inkscape:pageshadow="2"
     inkscape:window-width="765"
     inkscape:window-height="480"
     id="namedview200"
     showgrid="false"
     inkscape:zoom="6.9532167"
     inkscape:cx="20.233931"
     inkscape:cy="29.482119"
     inkscape:window-x="0"
     inkscape:window-y="28"
     inkscape:window-maximized="0"
     inkscape:current-layer="svg198" />
  <rect
     style="opacity:0.2"
     width="40"
     height="40"
     x="4"
     y="5"
     rx="2"
     ry="2"
     id="rect2" />
  <rect
     style="fill:#4c566a;fill-opacity:1"
     width="40"
     height="40"
     x="4"
     y="4"
     rx="2"
     ry="2"
     id="rect4" />
  <rect
     style="opacity:0.2"
     width="16"
     height="16"
     x="16"
     y="17"
     rx="4"
     ry="4"
     id="rect6" />
  <rect
     style="fill:#37474f"
     width="16"
     height="16"
     x="16"
     y="16"
     rx="4"
     ry="4"
     id="rect8" />
  <g
     style="opacity:0.2"
     transform="translate(0,1)"
     id="g100">
    <circle
       cx="11.5"
       cy="11.5"
       r="1.5"
       id="circle10" />
    <circle
       cx="16.5"
       cy="11.5"
       r="1.5"
       id="circle12" />
    <circle
       cx="21.5"
       cy="11.5"
       r="1.5"
       id="circle14" />
    <circle
       cx="11.5"
       cy="16.5"
       r="1.5"
       id="circle16" />
    <circle
       cx="11.5"
       cy="21.5"
       r="1.5"
       id="circle18" />
    <circle
       cx="26.5"
       cy="11.5"
       r="1.5"
       id="circle20" />
    <circle
       cx="31.5"
       cy="11.5"
       r="1.5"
       id="circle22" />
    <circle
       cx="36.5"
       cy="11.5"
       r="1.5"
       id="circle24" />
    <circle
       cx="36.5"
       cy="16.5"
       r="1.5"
       id="circle26" />
    <circle
       cx="36.5"
       cy="21.5"
       r="1.5"
       id="circle28" />
    <circle
       cx="36.5"
       cy="26.5"
       r="1.5"
       id="circle30" />
    <circle
       cx="36.5"
       cy="36.5"
       r="1.5"
       id="circle32" />
    <circle
       cx="31.5"
       cy="36.5"
       r="1.5"
       id="circle34" />
    <circle
       cx="26.5"
       cy="36.5"
       r="1.5"
       id="circle36" />
    <circle
       cx="26.5"
       cy="40.5"
       r="1.5"
       id="circle38" />
    <circle
       cx="21.5"
       cy="36.5"
       r="1.5"
       id="circle40" />
    <circle
       cx="16.5"
       cy="36.5"
       r="1.5"
       id="circle42" />
    <circle
       cx="11.5"
       cy="31.5"
       r="1.5"
       id="circle44" />
    <circle
       cx="11.5"
       cy="36.5"
       r="1.5"
       id="circle46" />
    <circle
       cx="11.5"
       cy="26.5"
       r="1.5"
       id="circle48" />
    <circle
       cx="36.5"
       cy="31.5"
       r="1.5"
       id="circle50" />
    <circle
       cx="40.5"
       cy="11.5"
       r="1.5"
       id="circle52" />
    <circle
       cx="40.5"
       cy="16.5"
       r="1.5"
       id="circle54" />
    <circle
       cx="40.5"
       cy="21.5"
       r="1.5"
       id="circle56" />
    <circle
       cx="40.5"
       cy="26.5"
       r="1.5"
       id="circle58" />
    <circle
       cx="40.5"
       cy="31.5"
       r="1.5"
       id="circle60" />
    <circle
       cx="40.5"
       cy="36.5"
       r="1.5"
       id="circle62" />
    <circle
       cx="40.5"
       cy="40.5"
       r="1.5"
       id="circle64" />
    <circle
       cx="36.5"
       cy="40.5"
       r="1.5"
       id="circle66" />
    <circle
       cx="31.5"
       cy="40.5"
       r="1.5"
       id="circle68" />
    <circle
       cx="21.5"
       cy="40.5"
       r="1.5"
       id="circle70" />
    <circle
       cx="16.5"
       cy="40.5"
       r="1.5"
       id="circle72" />
    <circle
       cx="7.5"
       cy="40.5"
       r="1.5"
       id="circle74" />
    <circle
       cx="7.5"
       cy="36.5"
       r="1.5"
       id="circle76" />
    <circle
       cx="7.5"
       cy="31.5"
       r="1.5"
       id="circle78" />
    <circle
       cx="7.5"
       cy="26.5"
       r="1.5"
       id="circle80" />
    <circle
       cx="7.5"
       cy="21.5"
       r="1.5"
       id="circle82" />
    <circle
       cx="7.5"
       cy="16.5"
       r="1.5"
       id="circle84" />
    <circle
       cx="7.5"
       cy="11.5"
       r="1.5"
       id="circle86" />
    <circle
       cx="16.5"
       cy="7.5"
       r="1.5"
       id="circle88" />
    <circle
       cx="21.5"
       cy="7.5"
       r="1.5"
       id="circle90" />
    <circle
       cx="26.5"
       cy="7.5"
       r="1.5"
       id="circle92" />
    <circle
       cx="31.5"
       cy="7.5"
       r="1.5"
       id="circle94" />
    <circle
       cx="36.5"
       cy="7.5"
       r="1.5"
       id="circle96" />
    <circle
       cx="40.5"
       cy="7.5"
       r="1.5"
       id="circle98" />
  </g>
  <g
     style="fill:#ffffff;fill-opacity:1"
     id="g192">
    <circle
       cx="11.5"
       cy="11.5"
       r="1.5"
       id="circle102"
       style="fill:#ffffff;fill-opacity:1" />
    <circle
       cx="16.5"
       cy="11.5"
       r="1.5"
       id="circle104"
       style="fill:#ffffff;fill-opacity:1" />
    <circle
       cx="21.5"
       cy="11.5"
       r="1.5"
       id="circle106"
       style="fill:#ffffff;fill-opacity:1" />
    <circle
       cx="11.5"
       cy="16.5"
       r="1.5"
       id="circle108"
       style="fill:#ffffff;fill-opacity:1" />
    <circle
       cx="11.5"
       cy="21.5"
       r="1.5"
       id="circle110"
       style="fill:#ffffff;fill-opacity:1" />
    <circle
       cx="26.5"
       cy="11.5"
       r="1.5"
       id="circle112"
       style="fill:#ffffff;fill-opacity:1" />
    <circle
       cx="31.5"
       cy="11.5"
       r="1.5"
       id="circle114"
       style="fill:#ffffff;fill-opacity:1" />
    <circle
       cx="36.5"
       cy="11.5"
       r="1.5"
       id="circle116"
       style="fill:#ffffff;fill-opacity:1" />
    <circle
       cx="36.5"
       cy="16.5"
       r="1.5"
       id="circle118"
       style="fill:#ffffff;fill-opacity:1" />
    <circle
       cx="36.5"
       cy="21.5"
       r="1.5"
       id="circle120"
       style="fill:#ffffff;fill-opacity:1" />
    <circle
       cx="36.5"
       cy="26.5"
       r="1.5"
       id="circle122"
       style="fill:#ffffff;fill-opacity:1" />
    <circle
       cx="36.5"
       cy="36.5"
       r="1.5"
       id="circle124"
       style="fill:#ffffff;fill-opacity:1" />
    <circle
       cx="31.5"
       cy="36.5"
       r="1.5"
       id="circle126"
       style="fill:#ffffff;fill-opacity:1" />
    <circle
       cx="26.5"
       cy="36.5"
       r="1.5"
       id="circle128"
       style="fill:#ffffff;fill-opacity:1" />
    <circle
       cx="26.5"
       cy="40.5"
       r="1.5"
       id="circle130"
       style="fill:#ffffff;fill-opacity:1" />
    <circle
       cx="21.5"
       cy="36.5"
       r="1.5"
       id="circle132"
       style="fill:#ffffff;fill-opacity:1" />
    <circle
       cx="16.5"
       cy="36.5"
       r="1.5"
       id="circle134"
       style="fill:#ffffff;fill-opacity:1" />
    <circle
       cx="11.5"
       cy="31.5"
       r="1.5"
       id="circle136"
       style="fill:#ffffff;fill-opacity:1" />
    <circle
       cx="11.5"
       cy="36.5"
       r="1.5"
       id="circle138"
       style="fill:#ffffff;fill-opacity:1" />
    <circle
       cx="11.5"
       cy="26.5"
       r="1.5"
       id="circle140"
       style="fill:#ffffff;fill-opacity:1" />
    <circle
       cx="36.5"
       cy="31.5"
       r="1.5"
       id="circle142"
       style="fill:#ffffff;fill-opacity:1" />
    <circle
       cx="40.5"
       cy="11.5"
       r="1.5"
       id="circle144"
       style="fill:#ffffff;fill-opacity:1" />
    <circle
       cx="40.5"
       cy="16.5"
       r="1.5"
       id="circle146"
       style="fill:#ffffff;fill-opacity:1" />
    <circle
       cx="40.5"
       cy="21.5"
       r="1.5"
       id="circle148"
       style="fill:#ffffff;fill-opacity:1" />
    <circle
       cx="40.5"
       cy="26.5"
       r="1.5"
       id="circle150"
       style="fill:#ffffff;fill-opacity:1" />
    <circle
       cx="40.5"
       cy="31.5"
       r="1.5"
       id="circle152"
       style="fill:#ffffff;fill-opacity:1" />
    <circle
       cx="40.5"
       cy="36.5"
       r="1.5"
       id="circle154"
       style="fill:#ffffff;fill-opacity:1" />
    <circle
       cx="40.5"
       cy="40.5"
       r="1.5"
       id="circle156"
       style="fill:#ffffff;fill-opacity:1" />
    <circle
       cx="36.5"
       cy="40.5"
       r="1.5"
       id="circle158"
       style="fill:#ffffff;fill-opacity:1" />
    <circle
       cx="31.5"
       cy="40.5"
       r="1.5"
       id="circle160"
       style="fill:#ffffff;fill-opacity:1" />
    <circle
       cx="21.5"
       cy="40.5"
       r="1.5"
       id="circle162"
       style="fill:#ffffff;fill-opacity:1" />
    <circle
       cx="16.5"
       cy="40.5"
       r="1.5"
       id="circle164"
       style="fill:#ffffff;fill-opacity:1" />
    <circle
       cx="7.5"
       cy="40.5"
       r="1.5"
       id="circle166"
       style="fill:#ffffff;fill-opacity:1" />
    <circle
       cx="7.5"
       cy="36.5"
       r="1.5"
       id="circle168"
       style="fill:#ffffff;fill-opacity:1" />
    <circle
       cx="7.5"
       cy="31.5"
       r="1.5"
       id="circle170"
       style="fill:#ffffff;fill-opacity:1" />
    <circle
       cx="7.5"
       cy="26.5"
       r="1.5"
       id="circle172"
       style="fill:#ffffff;fill-opacity:1" />
    <circle
       cx="7.5"
       cy="21.5"
       r="1.5"
       id="circle174"
       style="fill:#ffffff;fill-opacity:1" />
    <circle
       cx="7.5"
       cy="16.5"
       r="1.5"
       id="circle176"
       style="fill:#ffffff;fill-opacity:1" />
    <circle
       cx="7.5"
       cy="11.5"
       r="1.5"
       id="circle178"
       style="fill:#ffffff;fill-opacity:1" />
    <circle
       cx="16.5"
       cy="7.5"
       r="1.5"
       id="circle180"
       style="fill:#ffffff;fill-opacity:1" />
    <circle
       cx="21.5"
       cy="7.5"
       r="1.5"
       id="circle182"
       style="fill:#ffffff;fill-opacity:1" />
    <circle
       cx="26.5"
       cy="7.5"
       r="1.5"
       id="circle184"
       style="fill:#ffffff;fill-opacity:1" />
    <circle
       cx="31.5"
       cy="7.5"
       r="1.5"
       id="circle186"
       style="fill:#ffffff;fill-opacity:1" />
    <circle
       cx="36.5"
       cy="7.5"
       r="1.5"
       id="circle188"
       style="fill:#ffffff;fill-opacity:1" />
    <circle
       cx="40.5"
       cy="7.5"
       r="1.5"
       id="circle190"
       style="fill:#ffffff;fill-opacity:1" />
  </g>
  <path
     style="opacity:0.1;fill:#ffffff"
     d="M 20 16 C 17.784 16 16 17.784 16 20 L 16 21 C 16 18.784 17.784 17 20 17 L 28 17 C 30.216 17 32 18.784 32 21 L 32 20 C 32 17.784 30.216 16 28 16 L 20 16 z"
     id="path194" />
  <path
     style="opacity:0.1;fill:#ffffff"
     d="M 6 4 C 4.892 4 4 4.892 4 6 L 4 7 C 4 5.892 4.892 5 6 5 L 42 5 C 43.108 5 44 5.892 44 7 L 44 6 C 44 4.892 43.108 4 42 4 L 6 4 z"
     id="path196" />
</svg>
