<?xml version="1.0" encoding="UTF-8" standalone="no"?>
<svg
   xmlns:dc="http://purl.org/dc/elements/1.1/"
   xmlns:cc="http://creativecommons.org/ns#"
   xmlns:rdf="http://www.w3.org/1999/02/22-rdf-syntax-ns#"
   xmlns:svg="http://www.w3.org/2000/svg"
   xmlns="http://www.w3.org/2000/svg"
   xmlns:sodipodi="http://sodipodi.sourceforge.net/DTD/sodipodi-0.dtd"
   xmlns:inkscape="http://www.inkscape.org/namespaces/inkscape"
   width="48"
   height="48"
   version="1"
   id="svg28"
   sodipodi:docname="youtrack.svg"
   inkscape:version="0.92.5 (2060ec1f9f, 2020-04-08)">
  <metadata
     id="metadata34">
    <rdf:RDF>
      <cc:Work
         rdf:about="">
        <dc:format>image/svg+xml</dc:format>
        <dc:type
           rdf:resource="http://purl.org/dc/dcmitype/StillImage" />
      </cc:Work>
    </rdf:RDF>
  </metadata>
  <defs
     id="defs32" />
  <sodipodi:namedview
     pagecolor="#ffffff"
     bordercolor="#666666"
     borderopacity="1"
     objecttolerance="10"
     gridtolerance="10"
     guidetolerance="10"
     inkscape:pageopacity="0"
     inkscape:pageshadow="2"
     inkscape:window-width="765"
     inkscape:window-height="480"
     id="namedview30"
     showgrid="false"
     inkscape:zoom="4.9166667"
     inkscape:cx="24"
     inkscape:cy="24"
     inkscape:window-x="0"
     inkscape:window-y="28"
     inkscape:window-maximized="0"
     inkscape:current-layer="svg28" />
  <path
     style="fill:#4c566a;fill-opacity:1"
     d="m24 4h-18c-1.108 0-2 0.892-2 2v18h20z"
     id="path2" />
  <path
     style="fill:#4c566a;fill-opacity:1"
     d="m24 4h18c1.108 0 2 0.892 2 2v18h-20z"
     id="path4" />
  <path
     style="fill:#4c566a;fill-opacity:1"
     d="m24 44h-18c-1.108 0-2-0.892-2-2v-18h20z"
     id="path6" />
  <path
     style="fill:#4c566a;fill-opacity:1"
     d="m24 44h18c1.108 0 2-0.892 2-2v-18h-20z"
     id="path8" />
  <path
     fill="#fff"
     opacity=".2"
     d="m6 4c-1.108 0-2 0.892-2 2v1c0-1.108 0.892-2 2-2h36c1.108 0 2 0.892 2 2v-1c0-1.108-0.892-2-2-2h-36z"
     id="path10" />
  <path
     opacity=".2"
     d="m6 45c-1.108 0-2-0.892-2-2v-1c0 1.108 0.892 2 2 2h36c1.108 0 2-0.892 2-2v1c0 1.108-0.892 2-2 2h-36z"
     id="path12" />
  <rect
     style="fill:#374155;fill-opacity:1"
     width="28"
     height="28"
     x="10"
     y="10"
     id="rect14" />
  <path
     style="opacity:0.2;fill:none;stroke:#000000;stroke-width:2;stroke-linecap:round"
     d="m 16,32.9999 h 8"
     id="path16" />
  <path
     style="fill:none;stroke:#ffffff;stroke-width:2;stroke-linecap:round"
     d="m 16,32 h 8"
     id="path18" />
  <path
     style="opacity:0.2;fill:none;stroke:#000000;stroke-width:1.99999988;stroke-linecap:round"
     d="M 19,24.999902 V 20.9999 m 3,-3.999999 -3,3.999999 m -3,-3.999999 3,3.999999"
     id="path20" />
  <path
     style="fill:none;stroke:#ffffff;stroke-width:1.99999988;stroke-linecap:round"
     d="M 19,24.000002 V 20 M 22,16.000001 19,20 M 16,16.000001 19,20"
     id="path22" />
  <path
     style="opacity:0.2;fill:none;stroke:#000000;stroke-width:1.99999988;stroke-linecap:round"
     d="m 25.999998,16.9999 h 3.999999 M 28,24.999902 V 16.9999"
     id="path24" />
  <path
     style="fill:none;stroke:#ffffff;stroke-width:1.99999988;stroke-linecap:round"
     d="m 25.999998,16 h 3.999999 M 28,24.000002 V 16"
     id="path26" />
</svg>
