<?xml version="1.0" encoding="UTF-8" standalone="no"?>
<svg
   xmlns:dc="http://purl.org/dc/elements/1.1/"
   xmlns:cc="http://creativecommons.org/ns#"
   xmlns:rdf="http://www.w3.org/1999/02/22-rdf-syntax-ns#"
   xmlns:svg="http://www.w3.org/2000/svg"
   xmlns="http://www.w3.org/2000/svg"
   xmlns:sodipodi="http://sodipodi.sourceforge.net/DTD/sodipodi-0.dtd"
   xmlns:inkscape="http://www.inkscape.org/namespaces/inkscape"
   width="48"
   height="48"
   version="1.1"
   id="svg16"
   sodipodi:docname="yuzu.svg"
   inkscape:version="0.92.5 (2060ec1f9f, 2020-04-08)">
  <metadata
     id="metadata22">
    <rdf:RDF>
      <cc:Work
         rdf:about="">
        <dc:format>image/svg+xml</dc:format>
        <dc:type
           rdf:resource="http://purl.org/dc/dcmitype/StillImage" />
      </cc:Work>
    </rdf:RDF>
  </metadata>
  <defs
     id="defs20" />
  <sodipodi:namedview
     pagecolor="#ffffff"
     bordercolor="#666666"
     borderopacity="1"
     objecttolerance="10"
     gridtolerance="10"
     guidetolerance="10"
     inkscape:pageopacity="0"
     inkscape:pageshadow="2"
     inkscape:window-width="783"
     inkscape:window-height="480"
     id="namedview18"
     showgrid="false"
     inkscape:zoom="4.9166667"
     inkscape:cx="24"
     inkscape:cy="24"
     inkscape:window-x="0"
     inkscape:window-y="28"
     inkscape:window-maximized="0"
     inkscape:current-layer="svg16" />
  <circle
     style="opacity:0.2"
     cx="24"
     cy="25"
     r="20"
     id="circle2" />
  <circle
     style="fill:#4c566a;fill-opacity:1"
     cx="24"
     cy="24"
     r="20"
     id="circle4" />
  <path
     style="opacity:0.2;fill:#ffffff"
     d="M 24,4 A 20,20 0 0 0 4,24 20,20 0 0 0 4.0215,24.582 20,20 0 0 1 24,5 20,20 0 0 1 43.979,24.418 20,20 0 0 0 44,24 20,20 0 0 0 24,4 Z"
     id="path6" />
  <path
     style="opacity:0.1"
     d="m 27,16 c 6.627417,0 12,5.372583 12,12 0,6.627417 -5.372583,12 -12,12 H 25 V 39.818359 36.763672 19.234375 16.169922 16 Z m 1,3.066406 V 36.939453 C 32.553382,36.43037 35.997547,32.581751 36,28 35.9946,23.420487 32.55116,19.575238 28,19.066406 Z"
     id="path8" />
  <path
     style="fill:#ffffff;fill-opacity:1"
     d="m 27,15 c 6.627417,0 12,5.372583 12,12 0,6.627417 -5.372583,12 -12,12 H 25 V 38.818359 35.763672 18.234375 15.169922 15 Z m 1,3.066406 V 35.939453 C 32.553382,35.43037 35.997547,31.581751 36,27 35.9946,22.420487 32.55116,18.575238 28,18.066406 Z"
     id="path10" />
  <path
     style="opacity:0.1"
     d="m 21,10 c -6.627417,0 -12,5.372583 -12,12 0,6.627417 5.372583,12 12,12 h 2 V 33.818359 30.763672 13.234375 10.169922 10 Z m -1,3.066406 V 30.939453 C 15.446618,30.43037 12.002453,26.581751 12,22 c 0.0054,-4.579513 3.44884,-8.424762 8,-8.933594 z"
     id="path12" />
  <path
     style="fill:#ffffff;fill-opacity:1"
     d="M 21,9 C 14.372583,9 9,14.372583 9,21 c 0,6.627417 5.372583,12 12,12 h 2 V 32.818359 29.763672 12.234375 9.169922 9 Z m -1,3.066406 V 29.939453 C 15.446618,29.43037 12.002453,25.581751 12,21 c 0.0054,-4.579513 3.44884,-8.424762 8,-8.933594 z"
     id="path14" />
</svg>
