<?xml version="1.0" encoding="UTF-8" standalone="no"?>
<svg
   xmlns:dc="http://purl.org/dc/elements/1.1/"
   xmlns:cc="http://creativecommons.org/ns#"
   xmlns:rdf="http://www.w3.org/1999/02/22-rdf-syntax-ns#"
   xmlns:svg="http://www.w3.org/2000/svg"
   xmlns="http://www.w3.org/2000/svg"
   xmlns:sodipodi="http://sodipodi.sourceforge.net/DTD/sodipodi-0.dtd"
   xmlns:inkscape="http://www.inkscape.org/namespaces/inkscape"
   width="48"
   height="48"
   version="1.1"
   id="svg48"
   sodipodi:docname="zbstudio.svg"
   inkscape:version="0.92.5 (2060ec1f9f, 2020-04-08)">
  <metadata
     id="metadata54">
    <rdf:RDF>
      <cc:Work
         rdf:about="">
        <dc:format>image/svg+xml</dc:format>
        <dc:type
           rdf:resource="http://purl.org/dc/dcmitype/StillImage" />
      </cc:Work>
    </rdf:RDF>
  </metadata>
  <defs
     id="defs52" />
  <sodipodi:namedview
     pagecolor="#ffffff"
     bordercolor="#666666"
     borderopacity="1"
     objecttolerance="10"
     gridtolerance="10"
     guidetolerance="10"
     inkscape:pageopacity="0"
     inkscape:pageshadow="2"
     inkscape:window-width="765"
     inkscape:window-height="480"
     id="namedview50"
     showgrid="false"
     inkscape:zoom="4.9166667"
     inkscape:cx="20.274795"
     inkscape:cy="44.287672"
     inkscape:window-x="0"
     inkscape:window-y="28"
     inkscape:window-maximized="0"
     inkscape:current-layer="svg48" />
  <ellipse
     cx="8.0001469"
     cy="31"
     rx="3.9999757"
     ry="4"
     style="opacity:.2"
     id="ellipse2" />
  <path
     d="m6.0001163 30v-15"
     style="fill:none;stroke-linecap:round;stroke-linejoin:round;stroke-width:1.9999939px;stroke:#515153"
     id="path4" />
  <ellipse
     cx="8.0001469"
     cy="30"
     rx="3.9999757"
     ry="4"
     style="fill:#4c566a;fill-opacity:1"
     id="ellipse6" />
  <ellipse
     cx="39.99995"
     cy="31"
     rx="3.9999757"
     ry="4"
     style="opacity:.2"
     id="ellipse8" />
  <path
     d="m42.000116 30v-15"
     style="fill:none;stroke-linecap:round;stroke-linejoin:round;stroke-width:1.9999939px;stroke:#515153"
     id="path10" />
  <ellipse
     cx="39.99995"
     cy="30"
     rx="3.9999757"
     ry="4"
     style="fill:#4c566a;fill-opacity:1"
     id="ellipse12" />
  <path
     d="m39.999951 27c0-2-1.999988-4-3.999975-4h-23.999854c-1.999988 0-3.9999756 2-3.9999756 4v12s3.9999756 2 15.999903 2 15.999902-2 15.999902-2v-12z"
     style="opacity:.2"
     id="path14" />
  <path
     d="M 8.0001464,26 A 3.9999756,4 0 0 0 4.0001708,30 3.9999756,4 0 0 0 4.0353268,30.488282 3.9999756,4 0 0 1 8.0001464,27 3.9999756,4 0 0 1 11.964966,30.511718 3.9999756,4 0 0 0 12.000122,30 3.9999756,4 0 0 0 8.0001464,26 Z"
     style="fill:#ffffff;opacity:.1"
     id="path16" />
  <rect
     x="16.000097"
     y="8"
     width="15.999903"
     height="20"
     ry="2"
     style="fill:#4c566a;fill-opacity:1"
     id="rect18" />
  <rect
     x="18.000086"
     y="14"
     width="11.999927"
     height="10"
     style="fill:#3f3f3f"
     id="rect20" />
  <ellipse
     cx="24.00005"
     cy="20"
     rx="3.9999757"
     ry="4"
     style="fill:#697387;fill-opacity:1"
     id="ellipse22" />
  <path
     d="m39.999951 26a3.9999756 4 0 0 0-3.999975 4 3.9999756 4 0 0 0 0.03516 0.488282 3.9999756 4 0 0 1 3.964815-3.488282 3.9999756 4 0 0 1 3.96482 3.511718 3.9999756 4 0 0 0 0.035156-0.511718 3.9999756 4 0 0 0-3.999976-4z"
     style="fill:#ffffff;opacity:.1"
     id="path24" />
  <path
     d="m39.999951 26c0-2-1.999988-4-3.999975-4h-23.999854c-1.999988 0-3.9999756 2-3.9999756 4v12s3.9999756 2 15.999903 2 15.999902-2 15.999902-2v-12z"
     style="fill:#4c566a;fill-opacity:1"
     id="path26" />
  <ellipse
     cx="24.00005"
     cy="11"
     rx=".99999392"
     ry="1"
     style="fill:#ffffff"
     id="ellipse28" />
  <ellipse
     cx="18.000086"
     cy="33"
     rx="3.9999757"
     ry="4"
     style="opacity:.2"
     id="ellipse30" />
  <ellipse
     cx="18.000086"
     cy="32"
     rx="3.9999757"
     ry="4"
     style="fill:#ffffff"
     id="ellipse32" />
  <ellipse
     cx="30.000011"
     cy="33"
     rx="3.9999757"
     ry="4"
     style="opacity:.2"
     id="ellipse34" />
  <ellipse
     cx="30.000011"
     cy="32"
     rx="3.9999757"
     ry="4"
     style="fill:#ffffff"
     id="ellipse36" />
  <ellipse
     cx="24.00005"
     cy="20"
     rx="1.9999878"
     ry="2"
     style="fill:#ffffff"
     id="ellipse38" />
  <path
     d="m18.000085 8c-1.107993 0-1.999987 0.892-1.999987 2v1c0-1.108 0.891994-2 1.999987-2h11.999927c1.107993 0 1.999988 0.892 1.999988 2v-1c0-1.108-0.891995-2-1.999988-2z"
     style="fill:#ffffff;opacity:.1"
     id="path40" />
  <path
     d="m5.9844914 13.984375a1.0000939 1.0001 0 0 0-0.984369 1.015625v0.929688a1.0000939 1.0001 0 0 1 0.984369-0.945313 1.0000939 1.0001 0 0 1 1.0156188 1.015625v-1a1.0000939 1.0001 0 0 0-1.0156188-1.015625z"
     style="fill:#ffffff;opacity:.1"
     id="path42" />
  <path
     d="m41.984492 13.984375a1.0000939 1.0001 0 0 0-0.98437 1.015625v0.929688a1.0000939 1.0001 0 0 1 0.98437-0.945313 1.0000939 1.0001 0 0 1 1.015618 1.015625v-1a1.0000939 1.0001 0 0 0-1.015618-1.015625z"
     style="fill:#ffffff;opacity:.1"
     id="path44" />
  <path
     d="m12.000122 22c-1.999988 0-3.9999756 2-3.9999756 4v1c0-2 1.9999876-4 3.9999756-4h23.999854c1.999987 0 3.999975 2 3.999975 4v-1c0-2-1.999988-4-3.999975-4z"
     style="fill:#ffffff;opacity:.2"
     id="path46" />
</svg>
