<?xml version="1.0" encoding="UTF-8" standalone="no"?>
<svg
   xmlns:dc="http://purl.org/dc/elements/1.1/"
   xmlns:cc="http://creativecommons.org/ns#"
   xmlns:rdf="http://www.w3.org/1999/02/22-rdf-syntax-ns#"
   xmlns:svg="http://www.w3.org/2000/svg"
   xmlns="http://www.w3.org/2000/svg"
   xmlns:sodipodi="http://sodipodi.sourceforge.net/DTD/sodipodi-0.dtd"
   xmlns:inkscape="http://www.inkscape.org/namespaces/inkscape"
   width="48"
   height="48"
   version="1.1"
   id="svg18"
   sodipodi:docname="zenkit.svg"
   inkscape:version="0.92.5 (2060ec1f9f, 2020-04-08)">
  <metadata
     id="metadata24">
    <rdf:RDF>
      <cc:Work
         rdf:about="">
        <dc:format>image/svg+xml</dc:format>
        <dc:type
           rdf:resource="http://purl.org/dc/dcmitype/StillImage" />
      </cc:Work>
    </rdf:RDF>
  </metadata>
  <defs
     id="defs22" />
  <sodipodi:namedview
     pagecolor="#ffffff"
     bordercolor="#666666"
     borderopacity="1"
     objecttolerance="10"
     gridtolerance="10"
     guidetolerance="10"
     inkscape:pageopacity="0"
     inkscape:pageshadow="2"
     inkscape:window-width="783"
     inkscape:window-height="480"
     id="namedview20"
     showgrid="false"
     inkscape:zoom="4.9166667"
     inkscape:cx="24"
     inkscape:cy="24"
     inkscape:window-x="0"
     inkscape:window-y="28"
     inkscape:window-maximized="0"
     inkscape:current-layer="svg18" />
  <rect
     style="opacity:0.2"
     width="40"
     height="40"
     x="4"
     y="5"
     rx="8"
     ry="8"
     id="rect2" />
  <rect
     style="fill:#4c566a;fill-opacity:1"
     width="40"
     height="40"
     x="4"
     y="4"
     rx="8"
     ry="8"
     id="rect4" />
  <path
     style="opacity:0.2"
     d="m 24,11.000271 a 1.0001,1.0001 0 0 0 -0.792969,0.390625 l -10,13 a 1.0001,1.0001 0 0 0 -0.02148,1.191406 l 10,14 a 1.0001,1.0001 0 0 0 1.628906,0 l 10,-14 a 1.0001,1.0001 0 0 0 -0.02148,-1.191406 l -10,-13 A 1.0001,1.0001 0 0 0 24,11.000271 Z m 0,2.640625 0.03516,0.04492 3.771485,11.314453 h -7.613282 l 3.771485,-11.314453 z m -1.896484,2.464844 -2.964844,8.894531 h -3.876953 z m 3.792968,0 6.84375,8.894531 h -3.878906 z m -9.951172,9.894531 h 3.19336 l 2.794922,8.384766 z m 4.248047,0 h 7.613282 L 24.087891,37.154568 24,37.277615 23.912109,37.154568 Z m 8.667969,0 h 3.195313 l -5.990235,8.386719 z"
     id="path6" />
  <path
     style="fill:none;stroke:#ffffff;stroke-width:2;stroke-linecap:round;stroke-linejoin:round"
     d="M 24 11 L 14 24 L 24 38 L 34 24 L 24 11 z"
     id="path8" />
  <path
     style="fill:none;stroke:#ffffff;stroke-width:1px"
     d="M 24,38 19.5,24.5 24,11 v 0"
     id="path10" />
  <path
     style="fill:none;stroke:#ffffff;stroke-width:1px"
     d="M 24,38 28.5,24.5 24,11 v 0"
     id="path12" />
  <path
     style="fill:none;stroke:#ffffff;stroke-width:1px"
     d="M 14,24.5 H 34"
     id="path14" />
  <path
     style="opacity:0.2;fill:#ffffff"
     d="M 12 4 C 7.568 4 4 7.568 4 12 L 4 13 C 4 8.568 7.568 5 12 5 L 36 5 C 40.432 5 44 8.568 44 13 L 44 12 C 44 7.568 40.432 4 36 4 L 12 4 z"
     id="path16" />
</svg>
