<?xml version="1.0" encoding="UTF-8" standalone="no"?>
<svg
   xmlns:dc="http://purl.org/dc/elements/1.1/"
   xmlns:cc="http://creativecommons.org/ns#"
   xmlns:rdf="http://www.w3.org/1999/02/22-rdf-syntax-ns#"
   xmlns:svg="http://www.w3.org/2000/svg"
   xmlns="http://www.w3.org/2000/svg"
   xmlns:sodipodi="http://sodipodi.sourceforge.net/DTD/sodipodi-0.dtd"
   xmlns:inkscape="http://www.inkscape.org/namespaces/inkscape"
   width="48"
   height="48"
   version="1.1"
   id="svg16"
   sodipodi:docname="ZeroNet.svg"
   inkscape:version="0.92.5 (2060ec1f9f, 2020-04-08)">
  <metadata
     id="metadata22">
    <rdf:RDF>
      <cc:Work
         rdf:about="">
        <dc:format>image/svg+xml</dc:format>
        <dc:type
           rdf:resource="http://purl.org/dc/dcmitype/StillImage" />
      </cc:Work>
    </rdf:RDF>
  </metadata>
  <defs
     id="defs20" />
  <sodipodi:namedview
     pagecolor="#ffffff"
     bordercolor="#666666"
     borderopacity="1"
     objecttolerance="10"
     gridtolerance="10"
     guidetolerance="10"
     inkscape:pageopacity="0"
     inkscape:pageshadow="2"
     inkscape:window-width="783"
     inkscape:window-height="480"
     id="namedview18"
     showgrid="false"
     inkscape:zoom="4.9166667"
     inkscape:cx="27.235285"
     inkscape:cy="36.814109"
     inkscape:window-x="0"
     inkscape:window-y="28"
     inkscape:window-maximized="0"
     inkscape:current-layer="svg16" />
  <path
     style="opacity:0.2;fill-rule:evenodd"
     d="M 37.989387,21.587585 V 35.149268 C 38,37.17923 37.585722,37.171568 36.03064,38.087845 l -10.98319,6.471456 c -1.087727,0.610973 -1.152928,0.565699 -2.131022,-0.0061 l -12.905815,-7.545392 4.233383,-5.432135 9.74732,5.716611 L 31,32.98223 v -7.423666 z"
     id="path2" />
  <path
     style="opacity:0.2;fill-rule:evenodd"
     d="M 9.9999997,28.49 V 14.757025 C 10,12.796686 10.507239,12.745321 12.049686,11.83665 L 22.705954,5.5589348 c 1.375189,-0.7258127 1.340637,-0.7396233 2.483694,-0.071276 L 38,12.977893 34.616457,19.324056 24.005789,12.685623 17,16.991739 V 24.4193 Z"
     id="path4" />
  <path
     style="fill:#5f697d;fill-rule:evenodd;fill-opacity:1"
     d="M 9.9999997,27.490001 V 13.757026 C 10,11.796687 10.507239,11.745322 12.049686,10.836651 L 22.705954,4.5589353 C 24.081143,3.8331226 24.046591,3.819312 25.189648,4.4876592 L 38,11.977894 34.616457,18.324057 24.005789,11.685624 17,15.99174 v 7.427561 z"
     id="path6" />
  <path
     style="fill:#4c566a;fill-rule:evenodd;fill-opacity:1"
     d="M 37.989387,20.288 V 34.149269 C 38,36.179231 37.585722,36.171569 36.03064,37.087846 l -10.98319,6.471456 c -1.087727,0.610973 -1.152928,0.565699 -2.131022,-0.0061 L 10.010613,36.00781 14.243996,30.575675 23.991316,36.292286 31,31.982231 V 24.459 Z"
     id="path8" />
  <path
     style="opacity:0.2;fill-rule:evenodd"
     d="M 10,36.999999 38,20.310955 V 12.999999 L 9.9999997,29.683088 Z"
     id="path10" />
  <path
     style="fill:#ffffff;fill-rule:evenodd;opacity:0.2"
     d="M 24.035156 4 C 23.729014 4.0106358 23.392673 4.1956874 22.705078 4.5585938 L 12.048828 10.835938 C 10.506381 11.744609 10 11.797474 10 13.757812 L 10 14.755859 C 10 12.79552 10.506381 12.744609 12.048828 11.835938 L 22.705078 5.5585938 C 24.080267 4.8327811 24.046396 4.8199341 25.189453 5.4882812 L 37.59375 12.740234 L 38 11.978516 L 25.189453 4.4882812 C 24.617925 4.1541077 24.341299 3.9893642 24.035156 4 z"
     id="path12" />
  <path
     style="fill:#555f73;fill-rule:evenodd;fill-opacity:1"
     d="M 10,36 38,19.310956 V 12 L 10,28.483 Z"
     id="path14" />
</svg>
