<?xml version="1.0" encoding="UTF-8" standalone="no"?>
<svg
   xmlns:dc="http://purl.org/dc/elements/1.1/"
   xmlns:cc="http://creativecommons.org/ns#"
   xmlns:rdf="http://www.w3.org/1999/02/22-rdf-syntax-ns#"
   xmlns:svg="http://www.w3.org/2000/svg"
   xmlns="http://www.w3.org/2000/svg"
   xmlns:sodipodi="http://sodipodi.sourceforge.net/DTD/sodipodi-0.dtd"
   xmlns:inkscape="http://www.inkscape.org/namespaces/inkscape"
   width="48"
   height="48"
   version="1.1"
   id="svg16"
   sodipodi:docname="zerotier-gui.svg"
   inkscape:version="0.92.5 (2060ec1f9f, 2020-04-08)">
  <metadata
     id="metadata22">
    <rdf:RDF>
      <cc:Work
         rdf:about="">
        <dc:format>image/svg+xml</dc:format>
        <dc:type
           rdf:resource="http://purl.org/dc/dcmitype/StillImage" />
      </cc:Work>
    </rdf:RDF>
  </metadata>
  <defs
     id="defs20" />
  <sodipodi:namedview
     pagecolor="#ffffff"
     bordercolor="#666666"
     borderopacity="1"
     objecttolerance="10"
     gridtolerance="10"
     guidetolerance="10"
     inkscape:pageopacity="0"
     inkscape:pageshadow="2"
     inkscape:window-width="783"
     inkscape:window-height="480"
     id="namedview18"
     showgrid="false"
     inkscape:zoom="4.9166667"
     inkscape:cx="24"
     inkscape:cy="24"
     inkscape:window-x="0"
     inkscape:window-y="28"
     inkscape:window-maximized="0"
     inkscape:current-layer="svg16" />
  <rect
     style="opacity:0.2"
     width="40"
     height="40"
     x="4"
     y="5"
     rx="5"
     ry="5"
     id="rect2" />
  <rect
     style="fill:#4c566a;fill-opacity:1"
     width="40"
     height="40"
     x="4"
     y="4"
     rx="5"
     ry="5"
     id="rect4" />
  <path
     style="opacity:0.1"
     d="m 9,10 v 2 h 14 v 3.070312 A 11,11 0 0 0 13,26 11,11 0 0 0 23,36.929688 V 41 h 2 V 36.929688 A 11,11 0 0 0 35,26 11,11 0 0 0 25,15.046875 V 12 h 14 v -2 z m 16,7.056641 A 9,9 0 0 1 33,26 9,9 0 0 1 25,34.921875 Z m -2,0.02148 v 17.84375 A 9,9 0 0 1 15,26 9,9 0 0 1 23,17.078125 Z"
     id="path6" />
  <rect
     style="fill:#ffffff;fill-opacity:1"
     width="2"
     height="30"
     x="23"
     y="10"
     id="rect8" />
  <rect
     style="fill:#f5f5f5;fill-opacity:1"
     width="2"
     height="30"
     x="9"
     y="-39"
     transform="rotate(90)"
     id="rect10" />
  <path
     style="fill:#ffffff;fill-opacity:1"
     d="M 24 14 A 11 11 0 0 0 13 25 A 11 11 0 0 0 24 36 A 11 11 0 0 0 35 25 A 11 11 0 0 0 24 14 z M 24 16 A 9 9 0 0 1 33 25 A 9 9 0 0 1 24 34 A 9 9 0 0 1 15 25 A 9 9 0 0 1 24 16 z"
     id="path12" />
  <path
     style="opacity:0.2;fill:#ffffff"
     d="M 9 4 C 6.23 4 4 6.23 4 9 L 4 10 C 4 7.23 6.23 5 9 5 L 39 5 C 41.77 5 44 7.23 44 10 L 44 9 C 44 6.23 41.77 4 39 4 L 9 4 z"
     id="path14" />
</svg>
