<?xml version="1.0" encoding="UTF-8" standalone="no"?>
<svg
   xmlns:dc="http://purl.org/dc/elements/1.1/"
   xmlns:cc="http://creativecommons.org/ns#"
   xmlns:rdf="http://www.w3.org/1999/02/22-rdf-syntax-ns#"
   xmlns:svg="http://www.w3.org/2000/svg"
   xmlns="http://www.w3.org/2000/svg"
   xmlns:sodipodi="http://sodipodi.sourceforge.net/DTD/sodipodi-0.dtd"
   xmlns:inkscape="http://www.inkscape.org/namespaces/inkscape"
   width="48"
   height="48"
   version="1.1"
   id="svg12"
   sodipodi:docname="appimagekit-zmninjapro.svg"
   inkscape:version="0.92.5 (2060ec1f9f, 2020-04-08)">
  <metadata
     id="metadata18">
    <rdf:RDF>
      <cc:Work
         rdf:about="">
        <dc:format>image/svg+xml</dc:format>
        <dc:type
           rdf:resource="http://purl.org/dc/dcmitype/StillImage" />
      </cc:Work>
    </rdf:RDF>
  </metadata>
  <defs
     id="defs16" />
  <sodipodi:namedview
     pagecolor="#ffffff"
     bordercolor="#666666"
     borderopacity="1"
     objecttolerance="10"
     gridtolerance="10"
     guidetolerance="10"
     inkscape:pageopacity="0"
     inkscape:pageshadow="2"
     inkscape:window-width="783"
     inkscape:window-height="480"
     id="namedview14"
     showgrid="false"
     inkscape:zoom="4.9166667"
     inkscape:cx="24"
     inkscape:cy="24"
     inkscape:window-x="0"
     inkscape:window-y="28"
     inkscape:window-maximized="0"
     inkscape:current-layer="svg12" />
  <circle
     style="opacity:0.2"
     cx="24"
     cy="25"
     r="20"
     id="circle2" />
  <circle
     style="fill:#4c566a;fill-opacity:1"
     cx="24"
     cy="24"
     r="20"
     id="circle4" />
  <path
     style="opacity:0.1;fill:#ffffff"
     d="M 24,4 A 20,20 0 0 0 4,24 20,20 0 0 0 4.0215,24.582 20,20 0 0 1 24,5 20,20 0 0 1 43.979,24.418 20,20 0 0 0 44,24 20,20 0 0 0 24,4 Z"
     id="path6" />
  <path
     style="opacity:0.2"
     d="M 24.271484,9.0058754 A 16,16 0 0 0 20.816406,9.3203285 16,16 0 0 0 8.0429688,24.158219 L 38.373047,18.000016 A 16,16 0 0 0 24.271484,9.0058754 Z m 9.53125,12.0449216 -6.78125,1.376953 a 3.5,3.5 0 0 0 0.05859,0.498047 3.5,3.5 0 0 0 4.126953,2.732422 3.5,3.5 0 0 0 2.732422,-4.125 3.5,3.5 0 0 0 -0.136719,-0.482422 z m -14.158203,2.792969 -6.783203,1.376953 a 3.5,3.5 0 0 0 0.06055,0.498047 3.5,3.5 0 0 0 4.126953,2.734375 3.5,3.5 0 0 0 2.732422,-4.126953 3.5,3.5 0 0 0 -0.136719,-0.482422 z m 20.3125,1.998047 -30.3300779,6.158203 A 16,16 0 0 0 27.183594,40.679704 16,16 0 0 0 39.957031,25.841813 Z"
     id="path8" />
  <path
     style="fill:#ffffff"
     d="M 24.271484 8.0058594 A 16 16 0 0 0 20.816406 8.3203125 A 16 16 0 0 0 8.0429688 23.158203 L 38.373047 17 A 16 16 0 0 0 24.271484 8.0058594 z M 33.802734 20.050781 L 27.021484 21.427734 A 3.5 3.5 0 0 0 27.080078 21.925781 A 3.5 3.5 0 0 0 31.207031 24.658203 A 3.5 3.5 0 0 0 33.939453 20.533203 A 3.5 3.5 0 0 0 33.802734 20.050781 z M 19.644531 22.84375 L 12.861328 24.220703 A 3.5 3.5 0 0 0 12.921875 24.71875 A 3.5 3.5 0 0 0 17.048828 27.453125 A 3.5 3.5 0 0 0 19.78125 23.326172 A 3.5 3.5 0 0 0 19.644531 22.84375 z M 39.957031 24.841797 L 9.6269531 31 A 16 16 0 0 0 27.183594 39.679688 A 16 16 0 0 0 39.957031 24.841797 z"
     id="path10" />
</svg>
