<?xml version="1.0" encoding="UTF-8" standalone="no"?>
<svg
   xmlns:dc="http://purl.org/dc/elements/1.1/"
   xmlns:cc="http://creativecommons.org/ns#"
   xmlns:rdf="http://www.w3.org/1999/02/22-rdf-syntax-ns#"
   xmlns:svg="http://www.w3.org/2000/svg"
   xmlns="http://www.w3.org/2000/svg"
   xmlns:sodipodi="http://sodipodi.sourceforge.net/DTD/sodipodi-0.dtd"
   xmlns:inkscape="http://www.inkscape.org/namespaces/inkscape"
   width="48"
   height="48"
   version="1.1"
   id="svg28"
   sodipodi:docname="zsnes.svg"
   inkscape:version="0.92.5 (2060ec1f9f, 2020-04-08)">
  <metadata
     id="metadata34">
    <rdf:RDF>
      <cc:Work
         rdf:about="">
        <dc:format>image/svg+xml</dc:format>
        <dc:type
           rdf:resource="http://purl.org/dc/dcmitype/StillImage" />
      </cc:Work>
    </rdf:RDF>
  </metadata>
  <defs
     id="defs32" />
  <sodipodi:namedview
     pagecolor="#ffffff"
     bordercolor="#666666"
     borderopacity="1"
     objecttolerance="10"
     gridtolerance="10"
     guidetolerance="10"
     inkscape:pageopacity="0"
     inkscape:pageshadow="2"
     inkscape:window-width="765"
     inkscape:window-height="480"
     id="namedview30"
     showgrid="false"
     inkscape:zoom="4.9166667"
     inkscape:cx="24"
     inkscape:cy="24"
     inkscape:window-x="0"
     inkscape:window-y="28"
     inkscape:window-maximized="0"
     inkscape:current-layer="svg28" />
  <circle
     style="opacity:0.2"
     cx="27"
     cy="25"
     r="18"
     id="circle2" />
  <circle
     style="fill:#4c566a;fill-opacity:1"
     cx="27"
     cy="24"
     r="18"
     id="circle4" />
  <path
     style="fill:#ffffff;opacity:0.1"
     d="M 27 6 A 18 18 0 0 0 9 24 A 18 18 0 0 0 9.0351562 24.5 A 18 18 0 0 1 27 7 A 18 18 0 0 1 44.982422 24.253906 A 18 18 0 0 0 45 24 A 18 18 0 0 0 27 6 z"
     id="path6" />
  <ellipse
     style="opacity:0.2"
     cx="12"
     cy="28"
     rx="9"
     ry="5"
     id="ellipse8" />
  <ellipse
     style="fill:#ffffff;fill-opacity:1"
     cx="12"
     cy="27"
     rx="9"
     ry="5"
     id="ellipse10" />
  <ellipse
     style="opacity:0.2"
     cx="26"
     cy="36"
     rx="9"
     ry="5"
     id="ellipse12" />
  <ellipse
     style="fill:#ffffff;fill-opacity:1"
     cx="26"
     cy="35"
     rx="9"
     ry="5"
     id="ellipse14" />
  <path
     style="opacity:0.2"
     d="m 22,9 a 9,9 0 0 0 -9,9 9,9 0 0 0 0.0039,0.04102 9,9 0 0 1 0.666016,-0.04687 9,9 0 0 1 8.998047,8.957031 A 9,9 0 0 0 31,18 9,9 0 0 0 22,9 Z"
     id="path16" />
  <path
     style="fill:#ffffff;fill-opacity:1"
     d="m 22,8 a 9,9 0 0 0 -9,9 9,9 0 0 0 0.0039,0.04102 9,9 0 0 1 0.666016,-0.04687 9,9 0 0 1 8.998047,8.957031 A 9,9 0 0 0 31,17 9,9 0 0 0 22,8 Z"
     id="path18" />
  <path
     style="opacity:0.2"
     d="m 37,18 a 8,8 0 0 0 -8,8 8,8 0 0 0 0.0332,0.462891 8,8 0 0 1 7.0625,7.472656 A 8,8 0 0 0 37,34 8,8 0 0 0 45,26 8,8 0 0 0 37,18 Z"
     id="path20" />
  <path
     style="fill:#ffffff;fill-opacity:1"
     d="m 37,17 a 8,8 0 0 0 -8,8 8,8 0 0 0 0.0332,0.462891 8,8 0 0 1 7.0625,7.472656 A 8,8 0 0 0 37,33 8,8 0 0 0 45,25 8,8 0 0 0 37,17 Z"
     id="path22" />
  <path
     style="fill:#ffffff;opacity:0.2"
     d="M 37 17 A 8 8 0 0 0 29 25 A 8 8 0 0 0 29.033203 25.462891 A 8 8 0 0 1 29.039062 25.464844 A 8 8 0 0 1 37 18 A 8 8 0 0 1 44.972656 25.376953 A 8 8 0 0 0 45 25 A 8 8 0 0 0 37 17 z M 12 22 A 9 5 0 0 0 3 27 A 9 5 0 0 0 3.0585938 27.5 A 9 5 0 0 1 12 23 A 9 5 0 0 1 20.945312 27.466797 A 9 5 0 0 0 21 27 A 9 5 0 0 0 12 22 z M 26 30 A 9 5 0 0 0 17 35 A 9 5 0 0 0 17.058594 35.5 A 9 5 0 0 1 26 31 A 9 5 0 0 1 34.945312 35.466797 A 9 5 0 0 0 35 35 A 9 5 0 0 0 26 30 z"
     id="path24" />
  <path
     style="fill:#ffffff;opacity:0.1"
     d="M 22 8 A 9 9 0 0 0 13 17 A 9 9 0 0 0 13.003906 17.041016 A 9 9 0 0 1 13.068359 17.037109 A 9 9 0 0 1 22 9 A 9 9 0 0 1 30.972656 17.345703 A 9 9 0 0 0 31 17 A 9 9 0 0 0 22 8 z"
     id="path26" />
</svg>
