<?xml version="1.0" encoding="UTF-8" standalone="no"?>
<svg
   xmlns:dc="http://purl.org/dc/elements/1.1/"
   xmlns:cc="http://creativecommons.org/ns#"
   xmlns:rdf="http://www.w3.org/1999/02/22-rdf-syntax-ns#"
   xmlns:svg="http://www.w3.org/2000/svg"
   xmlns="http://www.w3.org/2000/svg"
   xmlns:sodipodi="http://sodipodi.sourceforge.net/DTD/sodipodi-0.dtd"
   xmlns:inkscape="http://www.inkscape.org/namespaces/inkscape"
   width="48"
   height="48"
   version="1.1"
   id="svg20"
   sodipodi:docname="zynaddsubfx.svg"
   inkscape:version="0.92.5 (2060ec1f9f, 2020-04-08)">
  <metadata
     id="metadata26">
    <rdf:RDF>
      <cc:Work
         rdf:about="">
        <dc:format>image/svg+xml</dc:format>
        <dc:type
           rdf:resource="http://purl.org/dc/dcmitype/StillImage" />
      </cc:Work>
    </rdf:RDF>
  </metadata>
  <defs
     id="defs24" />
  <sodipodi:namedview
     pagecolor="#ffffff"
     bordercolor="#666666"
     borderopacity="1"
     objecttolerance="10"
     gridtolerance="10"
     guidetolerance="10"
     inkscape:pageopacity="0"
     inkscape:pageshadow="2"
     inkscape:window-width="765"
     inkscape:window-height="480"
     id="namedview22"
     showgrid="false"
     inkscape:zoom="4.9166667"
     inkscape:cx="24"
     inkscape:cy="24"
     inkscape:window-x="0"
     inkscape:window-y="28"
     inkscape:window-maximized="0"
     inkscape:current-layer="svg20" />
  <path
     style="opacity:0.2"
     d="M 10.041016,6.0004318 A 6.0006,6.0006 0 0 0 6.4414062,16.83051 L 12.5625,21.340276 5.0078125,32.672307 a 6.0006,6.0006 0 0 0 4.5644531,9.3125 l 28.0000004,2 a 6.0006,6.0006 0 0 0 3.86914,-10.900391 l -6.666015,-4.666015 7.86914,-9.619141 A 6.0006,6.0006 0 0 0 38.638672,9.0336349 l -28,-3 a 6.0006,6.0006 0 0 0 -0.597656,-0.033203 z"
     id="path2" />
  <path
     style="fill:#4c566a;fill-opacity:1"
     d="M 10.041016,5 A 6.0006,6.0006 0 0 0 6.4414062,15.830078 L 12.5625,20.339844 5.0078125,31.671875 a 6.0006,6.0006 0 0 0 4.5644531,9.3125 l 28.0000004,2 a 6.0006,6.0006 0 0 0 3.86914,-10.900391 l -6.666015,-4.666015 7.86914,-9.619141 A 6.0006,6.0006 0 0 0 38.638672,8.0332031 l -28,-3 A 6.0006,6.0006 0 0 0 10.041016,5 Z"
     id="path4" />
  <path
     style="opacity:0.2"
     d="m 10,36.000432 8,-12 20,14 z"
     id="path6" />
  <path
     style="fill:#ffffff;fill-opacity:1"
     d="M 10,35 18,23 38,37 Z"
     id="path8" />
  <path
     style="opacity:0.2"
     d="m 10,12.000432 28,3 -9,11 z"
     id="path10" />
  <path
     style="fill:#ffffff;fill-opacity:1"
     d="m 10,11 28,3 -9,11 z"
     id="path12" />
  <path
     style="opacity:0.1;fill:#ffffff"
     d="M 10.041016 5 A 6.0006 6.0006 0 0 0 4.0273438 11.472656 A 6.0006 6.0006 0 0 1 10.041016 6 A 6.0006 6.0006 0 0 1 10.638672 6.0332031 L 38.638672 9.0332031 A 6.0006 6.0006 0 0 1 43.974609 14.535156 A 6.0006 6.0006 0 0 0 38.638672 8.0332031 L 10.638672 5.0332031 A 6.0006 6.0006 0 0 0 10.041016 5 z M 12.115234 21.009766 L 5.0078125 31.671875 A 6.0006 6.0006 0 0 0 4.0253906 35.457031 A 6.0006 6.0006 0 0 1 5.0078125 32.671875 L 12.5625 21.339844 L 12.115234 21.009766 z M 35.294922 27.78125 L 34.775391 28.417969 L 41.441406 33.083984 A 6.0006 6.0006 0 0 1 43.972656 37.486328 A 6.0006 6.0006 0 0 0 41.441406 32.083984 L 35.294922 27.78125 z"
     id="path14" />
  <path
     style="fill:#ffffff;opacity:0.1"
     d="M 18 23 L 10 35 L 10.636719 35.044922 L 18 24 L 36.408203 36.886719 L 38 37 L 18 23 z"
     id="path16" />
  <path
     style="fill:#ffffff;opacity:0.1"
     d="M 10 11 L 11.587891 12.169922 L 37.248047 14.919922 L 38 14 L 10 11 z"
     id="path18" />
</svg>
