<svg xmlns="http://www.w3.org/2000/svg" width="24" height="24" version="1.1">
 <defs>
  <style id="current-color-scheme" type="text/css">
   .ColorScheme-Text { color:#ffffff; } .ColorScheme-Highlight { color:#e8d0a3; } .ColorScheme-NeutralText { color:#f6eddc; } .ColorScheme-PositiveText { color:#f0e1c4; } .ColorScheme-NegativeText { color:#dfbd7e; }
  </style>
 </defs>
 <path style="fill:currentColor" class="ColorScheme-Text" d="m 4,5 v 14 h 8 8 V 9 H 12 V 5 Z M 5,7 H 7 V 9 H 5 Z m 4,0 h 2 V 9 H 9 Z m -4,4 h 2 v 2 H 5 Z m 4,0 h 2 v 2 H 9 Z m 4,0 h 2 v 2 h -2 z m 4,0 h 2 v 2 H 17 Z M 5,15 h 2 v 2 H 5 Z m 4,0 h 2 v 2 H 9 Z m 4,0 h 2 v 2 h -2 z m 4,0 h 2 v 2 h -2 z"/>
</svg>
