<?xml version="1.0" encoding="UTF-8" standalone="no"?>
<svg
   xmlns:dc="http://purl.org/dc/elements/1.1/"
   xmlns:cc="http://creativecommons.org/ns#"
   xmlns:rdf="http://www.w3.org/1999/02/22-rdf-syntax-ns#"
   xmlns:svg="http://www.w3.org/2000/svg"
   xmlns="http://www.w3.org/2000/svg"
   xmlns:sodipodi="http://sodipodi.sourceforge.net/DTD/sodipodi-0.dtd"
   xmlns:inkscape="http://www.inkscape.org/namespaces/inkscape"
   width="32"
   height="32"
   version="1"
   id="svg16"
   sodipodi:docname="changes-allow.svg"
   inkscape:version="0.92.5 (2060ec1f9f, 2020-04-08)">
  <metadata
     id="metadata22">
    <rdf:RDF>
      <cc:Work
         rdf:about="">
        <dc:format>image/svg+xml</dc:format>
        <dc:type
           rdf:resource="http://purl.org/dc/dcmitype/StillImage" />
      </cc:Work>
    </rdf:RDF>
  </metadata>
  <defs
     id="defs20" />
  <sodipodi:namedview
     pagecolor="#ffffff"
     bordercolor="#666666"
     borderopacity="1"
     objecttolerance="10"
     gridtolerance="10"
     guidetolerance="10"
     inkscape:pageopacity="0"
     inkscape:pageshadow="2"
     inkscape:window-width="783"
     inkscape:window-height="480"
     id="namedview18"
     showgrid="false"
     inkscape:zoom="5.2149125"
     inkscape:cx="6.3463106"
     inkscape:cy="21.841514"
     inkscape:window-x="0"
     inkscape:window-y="28"
     inkscape:window-maximized="0"
     inkscape:current-layer="svg16" />
  <path
     style="opacity:0.2"
     d="M 16,3 C 11.907,3 8.5584,6.0443 8.0684,10 H 11.1 C 11.561,7.7126 13.573,6 16,6 18.77,6 21,8.23 21,11 V 14 H 24 V 11 C 24,6.568 20.432,3 16,3 Z"
     id="path2" />
  <path
     style="fill:#d2d2d2"
     d="M 16,2 C 11.907,2 8.5584,5.0443 8.0684,9 H 11.1 C 11.561,6.7126 13.573,5 16,5 18.77,5 21,7.23 21,10 V 13 H 24 V 10 C 24,5.568 20.432,2 16,2 Z"
     id="path4" />
  <rect
     style="fill:#4c566a;fill-opacity:1"
     width="22"
     height="17"
     x="5"
     y="13"
     rx="1.4"
     ry="1.4"
     id="rect6" />
  <path
     style="opacity:0.2;fill:#ffffff"
     d="M 16,2 C 11.907,2 8.5584,5.0443 8.0684,9 H 8.2598 C 9.1444,5.5434 12.26,3 16,3 20.432,3 24,6.568 24,11 V 10 C 24,5.568 20.432,2 16,2 Z"
     id="path8" />
  <path
     style="opacity:0.1;fill:#ffffff"
     d="M 6.4004,13 C 5.6248,13 5,13.625 5,14.4 V 15.4 C 5,14.625 5.6248,14 6.4004,14 H 25.6 C 26.375,14 27,14.625 27,15.4 V 14.4 C 27,13.625 26.375,13 25.6,13 Z"
     id="path10" />
  <path
     style="opacity:0.2"
     d="M 5,28.6 V 29.6 C 5,30.375 5.6248,31 6.4004,31 H 25.6 C 26.375,31 27,30.375 27,29.6 V 28.6 C 27,29.375 26.375,30 25.6,30 H 6.4004 C 5.6252,30 5.0004,29.375 5.0004,28.6 Z"
     id="path14" />
</svg>
