<?xml version="1.0" encoding="UTF-8" standalone="no"?>
<svg
   xmlns:dc="http://purl.org/dc/elements/1.1/"
   xmlns:cc="http://creativecommons.org/ns#"
   xmlns:rdf="http://www.w3.org/1999/02/22-rdf-syntax-ns#"
   xmlns:svg="http://www.w3.org/2000/svg"
   xmlns="http://www.w3.org/2000/svg"
   xmlns:sodipodi="http://sodipodi.sourceforge.net/DTD/sodipodi-0.dtd"
   xmlns:inkscape="http://www.inkscape.org/namespaces/inkscape"
   width="32"
   height="32"
   version="1.1"
   id="svg24"
   sodipodi:docname="computer-fail.svg"
   inkscape:version="0.92.5 (2060ec1f9f, 2020-04-08)">
  <metadata
     id="metadata30">
    <rdf:RDF>
      <cc:Work
         rdf:about="">
        <dc:format>image/svg+xml</dc:format>
        <dc:type
           rdf:resource="http://purl.org/dc/dcmitype/StillImage" />
      </cc:Work>
    </rdf:RDF>
  </metadata>
  <defs
     id="defs28" />
  <sodipodi:namedview
     pagecolor="#ffffff"
     bordercolor="#666666"
     borderopacity="1"
     objecttolerance="10"
     gridtolerance="10"
     guidetolerance="10"
     inkscape:pageopacity="0"
     inkscape:pageshadow="2"
     inkscape:window-width="783"
     inkscape:window-height="480"
     id="namedview26"
     showgrid="false"
     inkscape:zoom="10.429825"
     inkscape:cx="23.466011"
     inkscape:cy="18.987101"
     inkscape:window-x="0"
     inkscape:window-y="28"
     inkscape:window-maximized="0"
     inkscape:current-layer="svg24" />
  <rect
     style="opacity:0.2"
     width="21"
     height="16"
     x="-28"
     y="-24"
     rx="1.25"
     ry="1.25"
     transform="matrix(0,-1,-1,0,0,0)"
     id="rect2" />
  <rect
     style="fill:#4c566a;fill-opacity:1"
     width="21"
     height="16"
     x="-27"
     y="-24"
     rx="1.25"
     ry="1.25"
     transform="matrix(0,-1,-1,0,0,0)"
     id="rect4" />
  <rect
     style="opacity:0.2"
     width="20"
     height="26"
     x="-25"
     y="-29"
     rx="1.25"
     ry="1.25"
     transform="matrix(0,-1,-1,0,0,0)"
     id="rect6" />
  <rect
     style="fill:#4c566a;fill-opacity:1"
     width="20"
     height="26"
     x="-24"
     y="-29"
     rx="1.25"
     ry="1.25"
     transform="matrix(0,-1,-1,0,0,0)"
     id="rect8" />
  <rect
     style="fill:#5f697d;fill-opacity:1"
     width="16"
     height="22"
     x="-22"
     y="-27"
     rx="0"
     ry="0"
     transform="matrix(0,-1,-1,0,0,0)"
     id="rect10" />
  <path
     style="opacity:0.1;fill:#ffffff"
     d="M 4.25,4 C 3.5575,4 3,4.5575 3,5.25 v 1 C 3,5.5575 3.5575,5 4.25,5 h 23.5 C 28.442,5 29,5.5575 29,6.25 v -1 C 29,4.5575 28.442,4 27.75,4 Z"
     id="path12" />
  <rect
     style="opacity:0.1;fill:#ffffff"
     width="22"
     height="1"
     x="5"
     y="22"
     id="rect14" />
  <g
     style="opacity:0.2;enable-background:new"
     transform="matrix(2,0,0,2,-970.0004,553)"
     id="g18">
    <path
       d="m 490.5002,-271.5 v 2 h 1 v -2 z m 4,0 v 2 h 1 v -2 z m -4,3.5 v 1 h 1 3 1 v -1 h -1 -3 z m 5,1 v 1 h 1 v -1 z m -5,0 h -1 v 1 h 1 z"
       id="path16" />
  </g>
  <g
     style="fill:#ffffff;enable-background:new"
     transform="matrix(2,0,0,2,-970.0004,552)"
     id="g22">
    <path
       style="fill:#ffffff"
       d="m 490.5002,-271.5 v 2 h 1 v -2 z m 4,0 v 2 h 1 v -2 z m -4,3.5 v 1 h 1 3 1 v -1 h -1 -3 z m 5,1 v 1 h 1 v -1 z m -5,0 h -1 v 1 h 1 z"
       id="path20" />
  </g>
</svg>
