<?xml version="1.0" encoding="UTF-8" standalone="no"?>
<svg
   xmlns:dc="http://purl.org/dc/elements/1.1/"
   xmlns:cc="http://creativecommons.org/ns#"
   xmlns:rdf="http://www.w3.org/1999/02/22-rdf-syntax-ns#"
   xmlns:svg="http://www.w3.org/2000/svg"
   xmlns="http://www.w3.org/2000/svg"
   xmlns:sodipodi="http://sodipodi.sourceforge.net/DTD/sodipodi-0.dtd"
   xmlns:inkscape="http://www.inkscape.org/namespaces/inkscape"
   width="32"
   height="32"
   version="1"
   id="svg14"
   sodipodi:docname="dialog-question.svg"
   inkscape:version="0.92.5 (2060ec1f9f, 2020-04-08)">
  <metadata
     id="metadata20">
    <rdf:RDF>
      <cc:Work
         rdf:about="">
        <dc:format>image/svg+xml</dc:format>
        <dc:type
           rdf:resource="http://purl.org/dc/dcmitype/StillImage" />
      </cc:Work>
    </rdf:RDF>
  </metadata>
  <defs
     id="defs18" />
  <sodipodi:namedview
     pagecolor="#ffffff"
     bordercolor="#666666"
     borderopacity="1"
     objecttolerance="10"
     gridtolerance="10"
     guidetolerance="10"
     inkscape:pageopacity="0"
     inkscape:pageshadow="2"
     inkscape:window-width="783"
     inkscape:window-height="480"
     id="namedview16"
     showgrid="false"
     inkscape:zoom="7.375"
     inkscape:cx="-10.440678"
     inkscape:cy="16"
     inkscape:window-x="0"
     inkscape:window-y="28"
     inkscape:window-maximized="0"
     inkscape:current-layer="svg14" />
  <path
     fill="#64db2d"
     fill-rule="evenodd"
     d="m15.963 2.0004c-0.66219 0.00938-1.295 0.27671-1.7633 0.74507l-11.454 11.454c-0.99476 0.9942-0.99476 2.6068 0 3.601l11.454 11.453c0.9942 0.99476 2.6067 0.99476 3.6009 0l11.453-11.454c0.99476-0.9942 0.99476-2.6068 0-3.601l-11.454-11.454c-0.486-0.4861-1.149-0.7549-1.837-0.7447z"
     id="path2"
     style="fill:#4c566a;fill-opacity:1" />
  <rect
     fill="none"
     width="22.4"
     height="22.4"
     x="4.8"
     y="4.8"
     id="rect4" />
  <path
     fill="#fff"
     fill-rule="evenodd"
     opacity=".2"
     d="m15.963 2c-0.662 0.0094-1.295 0.2777-1.764 0.7461l-11.453 11.453c-0.6252 0.625-0.8561 1.495-0.6952 2.301 0.095-0.476 0.3258-0.932 0.6953-1.301l11.453-11.453c0.469-0.4683 1.102-0.7366 1.764-0.746 0.688-0.0102 1.351 0.2595 1.838 0.7461l11.453 11.453c0.369 0.369 0.6 0.825 0.695 1.301 0.161-0.806-0.07-1.676-0.695-2.301l-11.453-11.453c-0.487-0.4865-1.15-0.7562-1.838-0.746z"
     id="path6" />
  <path
     fill-rule="evenodd"
     opacity=".2"
     d="m2.0508 16.5c-0.1609 0.806 0.07 1.674 0.6953 2.299l11.453 11.455c0.9942 0.99476 2.6074 0.99476 3.6016 0l11.453-11.455c0.62531-0.62496 0.85615-1.4924 0.69531-2.2988-0.09503 0.47646-0.32588 0.93155-0.69531 1.3008l-11.453 11.453c-0.9942 0.99476-2.6074 0.99476-3.6016 0l-11.453-11.453c-0.3693-0.369-0.6002-0.825-0.6952-1.301z"
     id="path8" />
  <path
     opacity=".2"
     d="m17 24h-2v-2h2zm2.07-7.0833-0.9 0.92c-0.72 0.73-1.17 1.33-1.17 2.83h-2v-0.5c0-1.1 0.45-2.1 1.17-2.83l1.24-1.26c0.37-0.36 0.59-0.86 0.59-1.41 0-1.1-0.9-2-2-2s-2 0.9-2 2h-2c0-2.21 1.79-4 4-4s4 1.79 4 4c0 0.88-0.36 1.68-0.93 2.25z"
     id="path10" />
  <path
     fill="#fff"
     d="m17 23h-2v-2h2zm2.07-7.0833-0.9 0.92c-0.72 0.73-1.17 1.33-1.17 2.83h-2v-0.5c0-1.1 0.45-2.1 1.17-2.83l1.24-1.26c0.37-0.36 0.59-0.86 0.59-1.41 0-1.1-0.9-2-2-2s-2 0.9-2 2h-2c0-2.21 1.79-4 4-4s4 1.79 4 4c0 0.88-0.36 1.68-0.93 2.25z"
     id="path12" />
</svg>
