<?xml version="1.0" encoding="UTF-8" standalone="no"?>
<svg
   xmlns:dc="http://purl.org/dc/elements/1.1/"
   xmlns:cc="http://creativecommons.org/ns#"
   xmlns:rdf="http://www.w3.org/1999/02/22-rdf-syntax-ns#"
   xmlns:svg="http://www.w3.org/2000/svg"
   xmlns="http://www.w3.org/2000/svg"
   xmlns:sodipodi="http://sodipodi.sourceforge.net/DTD/sodipodi-0.dtd"
   xmlns:inkscape="http://www.inkscape.org/namespaces/inkscape"
   width="32"
   height="32"
   version="1"
   id="svg14"
   sodipodi:docname="image-missing.svg"
   inkscape:version="0.92.5 (2060ec1f9f, 2020-04-08)">
  <metadata
     id="metadata20">
    <rdf:RDF>
      <cc:Work
         rdf:about="">
        <dc:format>image/svg+xml</dc:format>
        <dc:type
           rdf:resource="http://purl.org/dc/dcmitype/StillImage" />
      </cc:Work>
    </rdf:RDF>
  </metadata>
  <defs
     id="defs18" />
  <sodipodi:namedview
     pagecolor="#ffffff"
     bordercolor="#666666"
     borderopacity="1"
     objecttolerance="10"
     gridtolerance="10"
     guidetolerance="10"
     inkscape:pageopacity="0"
     inkscape:pageshadow="2"
     inkscape:window-width="960"
     inkscape:window-height="498"
     id="namedview16"
     showgrid="false"
     inkscape:zoom="7.375"
     inkscape:cx="16"
     inkscape:cy="16"
     inkscape:window-x="0"
     inkscape:window-y="28"
     inkscape:window-maximized="0"
     inkscape:current-layer="svg14" />
  <path
     style="opacity:0.2"
     d="M 3.4999,5 C 2.6689,5 1.9999,5.669 1.9999,6.5 V 27.5 C 1.9999,28.331 2.6689,29 3.4999,29 H 20 L 30,19 V 6.5 C 30,5.669 29.331,5 28.5,5 Z"
     id="path2" />
  <path
     style="fill:#4c566a;fill-opacity:1"
     d="M 3.4999,4 C 2.6689,4 1.9999,4.669 1.9999,5.5 V 26.5 C 1.9999,27.331 2.6689,28 3.4999,28 H 20 L 30,18 V 5.5 C 30,4.669 29.331,4 28.5,4 Z"
     id="path4" />
  <path
     style="opacity:1;fill:#ffffff;fill-opacity:1"
     d="M 11,13.125 17.625,20.625 21.875,16.5 26,20.625 23,24 H 6 V 19 Z"
     id="path6" />
  <path
     style="fill:#5f697d;fill-opacity:1"
     d="M 30,18 H 21.5 C 20.672,18 20,18.672 20,19.5 V 28 Z"
     id="path8" />
  <path
     style="opacity:0.2;fill:#ffffff"
     d="M 21.5,18 C 20.672,18 20,18.672 20,19.5 V 20.5 C 20,19.672 20.672,19 21.5,19 H 29 L 30,18 Z"
     id="path10" />
  <path
     style="opacity:0.2;fill:#ffffff"
     d="M 3.5,4 C 2.669,4 2,4.669 2,5.5 V 6.5 C 2,5.669 2.669,5 3.5,5 H 28.5 C 29.331,5 30,5.669 30,6.5 V 5.5 C 30,4.669 29.331,4 28.5,4 Z"
     id="path12" />
</svg>
