<?xml version="1.0" encoding="UTF-8" standalone="no"?>
<svg
   xmlns:dc="http://purl.org/dc/elements/1.1/"
   xmlns:cc="http://creativecommons.org/ns#"
   xmlns:rdf="http://www.w3.org/1999/02/22-rdf-syntax-ns#"
   xmlns:svg="http://www.w3.org/2000/svg"
   xmlns="http://www.w3.org/2000/svg"
   xmlns:sodipodi="http://sodipodi.sourceforge.net/DTD/sodipodi-0.dtd"
   xmlns:inkscape="http://www.inkscape.org/namespaces/inkscape"
   width="32"
   height="32"
   version="1.1"
   id="svg20"
   sodipodi:docname="state_running.svg"
   inkscape:version="0.92.5 (2060ec1f9f, 2020-04-08)">
  <metadata
     id="metadata26">
    <rdf:RDF>
      <cc:Work
         rdf:about="">
        <dc:format>image/svg+xml</dc:format>
        <dc:type
           rdf:resource="http://purl.org/dc/dcmitype/StillImage" />
      </cc:Work>
    </rdf:RDF>
  </metadata>
  <defs
     id="defs24" />
  <sodipodi:namedview
     pagecolor="#ffffff"
     bordercolor="#666666"
     borderopacity="1"
     objecttolerance="10"
     gridtolerance="10"
     guidetolerance="10"
     inkscape:pageopacity="0"
     inkscape:pageshadow="2"
     inkscape:window-width="783"
     inkscape:window-height="480"
     id="namedview22"
     showgrid="false"
     inkscape:zoom="14.75"
     inkscape:cx="9.783863"
     inkscape:cy="3.8570083"
     inkscape:window-x="0"
     inkscape:window-y="28"
     inkscape:window-maximized="0"
     inkscape:current-layer="svg20" />
  <rect
     style="opacity:0.2"
     width="16"
     height="21"
     x="8"
     y="8"
     rx="1.25"
     ry="1.25"
     id="rect2" />
  <rect
     style="fill:#4c566a;fill-opacity:1"
     width="16"
     height="21"
     x="8"
     y="7"
     rx="1.25"
     ry="1.25"
     id="rect4" />
  <rect
     style="opacity:0.2"
     width="26"
     height="20"
     x="3"
     y="6"
     rx="1.25"
     ry="1.25"
     id="rect6" />
  <rect
     style="fill:#4c566a;fill-opacity:1"
     width="26"
     height="20"
     x="3"
     y="5"
     rx="1.25"
     ry="1.25"
     id="rect8" />
  <rect
     style="fill:#5f697d;fill-opacity:1"
     width="22"
     height="16"
     x="5"
     y="7"
     rx="0"
     ry="0"
     id="rect10" />
  <rect
     style="opacity:0.1;fill:#ffffff"
     width="22"
     height="1"
     x="5"
     y="23"
     id="rect12" />
  <path
     style="fill:#ffffff;opacity:0.1"
     d="M 4.25 5 C 3.5575 5 3 5.5575 3 6.25 L 3 7.25 C 3 6.5575 3.5575 6 4.25 6 L 27.75 6 C 28.442 6 29 6.5575 29 7.25 L 29 6.25 C 29 5.5575 28.442 5 27.75 5 L 4.25 5 z"
     id="path14" />
  <path
     style="opacity:0.2"
     d="M 12,11 V 21 L 22,16 Z"
     id="path16" />
  <path
     style="fill:#f2fbff;fill-opacity:1"
     d="M 12,10 V 20 L 22,15 Z"
     id="path18" />
</svg>
