<?xml version="1.0" encoding="UTF-8" standalone="no"?>
<svg
   xmlns:dc="http://purl.org/dc/elements/1.1/"
   xmlns:cc="http://creativecommons.org/ns#"
   xmlns:rdf="http://www.w3.org/1999/02/22-rdf-syntax-ns#"
   xmlns:svg="http://www.w3.org/2000/svg"
   xmlns="http://www.w3.org/2000/svg"
   xmlns:sodipodi="http://sodipodi.sourceforge.net/DTD/sodipodi-0.dtd"
   xmlns:inkscape="http://www.inkscape.org/namespaces/inkscape"
   width="16"
   height="16"
   version="1.1"
   id="svg9"
   sodipodi:docname="battery-good-charging-symbolic.svg"
   inkscape:version="0.92.5 (2060ec1f9f, 2020-04-08)">
  <metadata
     id="metadata13">
    <rdf:RDF>
      <cc:Work
         rdf:about="">
        <dc:format>image/svg+xml</dc:format>
        <dc:type
           rdf:resource="http://purl.org/dc/dcmitype/StillImage" />
      </cc:Work>
    </rdf:RDF>
  </metadata>
  <sodipodi:namedview
     pagecolor="#ffffff"
     bordercolor="#666666"
     borderopacity="1"
     objecttolerance="10"
     gridtolerance="10"
     guidetolerance="10"
     inkscape:pageopacity="0"
     inkscape:pageshadow="2"
     inkscape:window-width="640"
     inkscape:window-height="480"
     id="namedview11"
     showgrid="false"
     inkscape:zoom="14.75"
     inkscape:cx="-18.440678"
     inkscape:cy="8"
     inkscape:current-layer="svg9" />
  <defs
     id="defs3">
    <style
       id="current-color-scheme"
       type="text/css">
   .ColorScheme-Text { color:#dfdfdf; } .ColorScheme-Highlight { color:#4285f4; } .ColorScheme-NeutralText { color:#ff9800; } .ColorScheme-PositiveText { color:#4caf50; } .ColorScheme-NegativeText { color:#f44336; }
  </style>
  </defs>
  <path
     style="opacity:.35;fill:currentColor"
     class="ColorScheme-PositiveText"
     d="M 6,1 V 2 H 3 V 14 C 3,14.55 3.446,15 4,15 H 12 C 12.554,15 13,14.55 13,14 V 2 H 10 V 1 Z M 8,5 V 8 H 11 L 8,13 V 10 H 5 Z"
     id="path5" />
  <path
     style="fill:#7bb286;fill-opacity:1"
     class="ColorScheme-PositiveText"
     d="M 3 5 L 3 14 C 3 14.55 3.446 15 4 15 L 12 15 C 12.554 15 13 14.55 13 14 L 13 5 L 8 5 L 8 8 L 11 8 L 8 13 L 8 10 L 5 10 L 8 5 L 3 5 z"
     id="path7" />
</svg>
