<?xml version="1.0" encoding="UTF-8" standalone="no"?>
<svg
   xmlns:dc="http://purl.org/dc/elements/1.1/"
   xmlns:cc="http://creativecommons.org/ns#"
   xmlns:rdf="http://www.w3.org/1999/02/22-rdf-syntax-ns#"
   xmlns:svg="http://www.w3.org/2000/svg"
   xmlns="http://www.w3.org/2000/svg"
   xmlns:sodipodi="http://sodipodi.sourceforge.net/DTD/sodipodi-0.dtd"
   xmlns:inkscape="http://www.inkscape.org/namespaces/inkscape"
   width="16"
   height="16"
   version="1"
   id="svg11"
   sodipodi:docname="firewall-applet-error.svg"
   inkscape:version="0.92.5 (2060ec1f9f, 2020-04-08)">
  <metadata
     id="metadata15">
    <rdf:RDF>
      <cc:Work
         rdf:about="">
        <dc:format>image/svg+xml</dc:format>
        <dc:type
           rdf:resource="http://purl.org/dc/dcmitype/StillImage" />
      </cc:Work>
    </rdf:RDF>
  </metadata>
  <sodipodi:namedview
     pagecolor="#ffffff"
     bordercolor="#666666"
     borderopacity="1"
     objecttolerance="10"
     gridtolerance="10"
     guidetolerance="10"
     inkscape:pageopacity="0"
     inkscape:pageshadow="2"
     inkscape:window-width="640"
     inkscape:window-height="480"
     id="namedview13"
     showgrid="false"
     inkscape:zoom="14.75"
     inkscape:cx="-5.220339"
     inkscape:cy="8"
     inkscape:current-layer="svg11" />
  <defs
     id="defs3">
    <style
       id="current-color-scheme"
       type="text/css">
   .ColorScheme-Text { color:#dfdfdf; } .ColorScheme-Highlight { color:#4285f4; } .ColorScheme-NeutralText { color:#ff9800; } .ColorScheme-PositiveText { color:#4caf50; } .ColorScheme-NegativeText { color:#f44336; }
  </style>
  </defs>
  <path
     style="fill:currentColor"
     class="ColorScheme-Text"
     d="M 7.9355469 1.0117188 L 2.1328125 3.0488281 C 2.0536125 3.0768274 2 3.4645676 2 3.5488281 C 2 12.000284 7.9692063 14.996635 8 15 C 8 15 14 12.000284 14 3.5488281 C 14 3.4645676 13.946045 3.0768274 13.867188 3.0488281 L 8.0644531 1.0117188 C 8.0215961 0.99658165 7.9784036 0.99658165 7.9355469 1.0117188 z M 8 3.109375 L 11.851562 4.4609375 C 11.544524 9.1886427 9.3588323 11.634014 8.0390625 12.599609 C 7.6051694 12.264987 7.083349 11.834815 6.5292969 11.166016 C 5.4009719 9.8040079 4.3706233 7.6036785 4.15625 4.4589844 L 8 3.109375 z"
     id="path5" />
  <path
     style="fill:none"
     class="ColorScheme-Text"
     d="m 7.9348571,1.0113528 -5.8026,1.7381468 C 2.0530571,2.7774989 2,3.1643274 2,3.2485879 2,5.3242142 2.5479714,7.7245455 3.5033428,9.8323711 4.2782857,11.542081 5.6718285,13.822278 7.9091428,14.978125 7.9382857,14.992125 7.9691428,15 8,15 c 0.030857,0 0.061714,-0.0079 0.09,-0.02187 2.238,-1.155847 3.631714,-3.436044 4.406571,-5.1457539 C 13.452286,7.7236705 14,5.3239518 14,3.2485879 14,3.1643274 13.946857,2.7774989 13.868,2.7494996 L 8.0651428,1.0113528 c -0.042857,-0.0151371 -0.087429,-0.0151371 -0.1302857,0 z"
     id="path7" />
  <path
     style="fill:#bf616a;fill-opacity:1"
     class="ColorScheme-NegativeText"
     d="m 7,4.0117188 0,4.0001406 2,0 0,-4.0001406 z m 1,4.9884218 c -0.5522847,0 -1,0.4477153 -1,1.0000004 0,0.552284 0.4477153,1 1,1 0.5522847,0 1,-0.447716 1,-1 C 9,9.4478559 8.5522847,9.0001406 8,9.0001406 Z"
     id="path9" />
</svg>
