<?xml version="1.0" encoding="UTF-8" standalone="no"?>
<svg
   xmlns:dc="http://purl.org/dc/elements/1.1/"
   xmlns:cc="http://creativecommons.org/ns#"
   xmlns:rdf="http://www.w3.org/1999/02/22-rdf-syntax-ns#"
   xmlns:svg="http://www.w3.org/2000/svg"
   xmlns="http://www.w3.org/2000/svg"
   xmlns:sodipodi="http://sodipodi.sourceforge.net/DTD/sodipodi-0.dtd"
   xmlns:inkscape="http://www.inkscape.org/namespaces/inkscape"
   width="16"
   height="16"
   version="1"
   id="svg7"
   sodipodi:docname="firewall-applet-panic.svg"
   inkscape:version="0.92.5 (2060ec1f9f, 2020-04-08)">
  <metadata
     id="metadata11">
    <rdf:RDF>
      <cc:Work
         rdf:about="">
        <dc:format>image/svg+xml</dc:format>
        <dc:type
           rdf:resource="http://purl.org/dc/dcmitype/StillImage" />
      </cc:Work>
    </rdf:RDF>
  </metadata>
  <sodipodi:namedview
     pagecolor="#ffffff"
     bordercolor="#666666"
     borderopacity="1"
     objecttolerance="10"
     gridtolerance="10"
     guidetolerance="10"
     inkscape:pageopacity="0"
     inkscape:pageshadow="2"
     inkscape:window-width="640"
     inkscape:window-height="480"
     id="namedview9"
     showgrid="false"
     inkscape:zoom="14.75"
     inkscape:cx="-5.220339"
     inkscape:cy="8"
     inkscape:current-layer="svg7" />
  <defs
     id="defs3">
    <style
       id="current-color-scheme"
       type="text/css">
   .ColorScheme-Text { color:#dfdfdf; } .ColorScheme-Highlight { color:#4285f4; } .ColorScheme-NeutralText { color:#ff9800; } .ColorScheme-PositiveText { color:#4caf50; } .ColorScheme-NegativeText { color:#f44336; }
  </style>
  </defs>
  <path
     style="fill:#bf616a;fill-opacity:1"
     class="ColorScheme-NegativeText"
     d="M 7.9355469,1.0117188 2.1328125,3.0488281 C 2.0536125,3.0768274 2,3.4645676 2,3.5488281 2,12.000284 7.9692063,14.996635 8,15 c 0,0 6,-2.999716 6,-11.4511719 0,-0.084261 -0.05396,-0.4720007 -0.132812,-0.5 L 8.0644531,1.0117188 c -0.042857,-0.0151372 -0.086049,-0.0151372 -0.1289062,0 z M 8,3.109375 11.851562,4.4609375 C 11.544524,9.1886427 9.3588323,11.634014 8.0390625,12.599609 7.6051694,12.264987 7.083349,11.834815 6.5292969,11.166016 5.4009719,9.8040075 4.3706233,7.6036785 4.15625,4.4589844 Z m -1,0.9023438 0,4.0001406 2,0 0,-4.0001406 z m 1,4.9884218 c -0.5522847,0 -1,0.4477153 -1,1.0000004 0,0.552284 0.4477153,1 1,1 0.5522847,0 1,-0.447716 1,-1 C 9,9.4478559 8.5522847,9.0001406 8,9.0001406 Z"
     id="path5" />
</svg>
