<?xml version="1.0" encoding="UTF-8" standalone="no"?>
<svg
   xmlns:dc="http://purl.org/dc/elements/1.1/"
   xmlns:cc="http://creativecommons.org/ns#"
   xmlns:rdf="http://www.w3.org/1999/02/22-rdf-syntax-ns#"
   xmlns:svg="http://www.w3.org/2000/svg"
   xmlns="http://www.w3.org/2000/svg"
   xmlns:sodipodi="http://sodipodi.sourceforge.net/DTD/sodipodi-0.dtd"
   xmlns:inkscape="http://www.inkscape.org/namespaces/inkscape"
   width="16"
   height="16"
   version="1.1"
   id="svg9"
   sodipodi:docname="gpm-brightness-kbd-invalid.svg"
   inkscape:version="0.92.5 (2060ec1f9f, 2020-04-08)">
  <metadata
     id="metadata13">
    <rdf:RDF>
      <cc:Work
         rdf:about="">
        <dc:format>image/svg+xml</dc:format>
        <dc:type
           rdf:resource="http://purl.org/dc/dcmitype/StillImage" />
      </cc:Work>
    </rdf:RDF>
  </metadata>
  <sodipodi:namedview
     pagecolor="#ffffff"
     bordercolor="#666666"
     borderopacity="1"
     objecttolerance="10"
     gridtolerance="10"
     guidetolerance="10"
     inkscape:pageopacity="0"
     inkscape:pageshadow="2"
     inkscape:window-width="640"
     inkscape:window-height="480"
     id="namedview11"
     showgrid="false"
     inkscape:zoom="14.75"
     inkscape:cx="-5.220339"
     inkscape:cy="8"
     inkscape:current-layer="svg9" />
  <defs
     id="defs3">
    <style
       id="current-color-scheme"
       type="text/css">
   .ColorScheme-Text { color:#dfdfdf; } .ColorScheme-Highlight { color:#4285f4; } .ColorScheme-NeutralText { color:#ff9800; } .ColorScheme-PositiveText { color:#4caf50; } .ColorScheme-NegativeText { color:#f44336; }
  </style>
  </defs>
  <path
     class="ColorScheme-Text"
     d="M 15,9 C 15,8.446 14.554,8 14,8 H 1 C 0.446,8 0,8.446 0,9 v 5 c 0,0.554 0.446,1 1,1 h 13 c 0.554,0 1,-0.446 1,-1 z m -3,0 v 1 H 11 V 9 Z m 0,2 v 1 h -1 v -1 z m -1,2 v 1 H 4.0000002 V 13 Z M 10,9 v 1 H 9 V 9 Z m 0,2 v 1 H 9 V 11 Z M 8,9 v 1 H 7 V 9 Z m 0,2 v 1 H 7 V 11 Z M 6.0000002,9 v 1 h -1 V 9 Z m 0,2 v 1 h -1 v -1 z m -2,-2 v 1 h -1 V 9 Z m 0,2 v 1 h -1 v -1 z"
     style="opacity:.35;fill:currentColor;fill-rule:evenodd"
     id="path5" />
  <path
     style="fill:#bf616a;fill-opacity:1"
     class="ColorScheme-NegativeText"
     d="M 7,1 V 5 H 9 V 1 Z M 7,6 V 7 H 9 V 6 Z"
     id="path7" />
</svg>
