<?xml version="1.0" encoding="UTF-8" standalone="no"?>
<svg
   xmlns:dc="http://purl.org/dc/elements/1.1/"
   xmlns:cc="http://creativecommons.org/ns#"
   xmlns:rdf="http://www.w3.org/1999/02/22-rdf-syntax-ns#"
   xmlns:svg="http://www.w3.org/2000/svg"
   xmlns="http://www.w3.org/2000/svg"
   xmlns:sodipodi="http://sodipodi.sourceforge.net/DTD/sodipodi-0.dtd"
   xmlns:inkscape="http://www.inkscape.org/namespaces/inkscape"
   width="16"
   height="16"
   version="1.1"
   id="svg9"
   sodipodi:docname="mntray-news.svg"
   inkscape:version="0.92.5 (2060ec1f9f, 2020-04-08)">
  <metadata
     id="metadata13">
    <rdf:RDF>
      <cc:Work
         rdf:about="">
        <dc:format>image/svg+xml</dc:format>
        <dc:type
           rdf:resource="http://purl.org/dc/dcmitype/StillImage" />
      </cc:Work>
    </rdf:RDF>
  </metadata>
  <sodipodi:namedview
     pagecolor="#ffffff"
     bordercolor="#666666"
     borderopacity="1"
     objecttolerance="10"
     gridtolerance="10"
     guidetolerance="10"
     inkscape:pageopacity="0"
     inkscape:pageshadow="2"
     inkscape:window-width="640"
     inkscape:window-height="480"
     id="namedview11"
     showgrid="false"
     inkscape:zoom="14.75"
     inkscape:cx="-5.220339"
     inkscape:cy="8"
     inkscape:current-layer="svg9" />
  <defs
     id="defs3">
    <style
       id="current-color-scheme"
       type="text/css">
   .ColorScheme-Text { color:#dfdfdf; } .ColorScheme-Highlight { color:#4285f4; } .ColorScheme-NeutralText { color:#ff9800; } .ColorScheme-PositiveText { color:#4caf50; } .ColorScheme-NegativeText { color:#f44336; }
  </style>
  </defs>
  <path
     style="fill:currentColor"
     class="ColorScheme-Text"
     d="M 10 4 L 10 8.5292969 C 10 9.329054 9.3290525 10 8.5292969 10 L 7 10 L 6 10 L 4 10 L 3 10 L 3 12.384766 C 3 12.76564 3.2967034 12.996081 3.6660156 13 L 10.236328 13 L 11.570312 15 L 12.904297 13 L 14.333984 13 C 14.703318 13 15 12.76564 15 12.384766 L 15 4.6875 C 15 4.3066251 14.703318 4 14.333984 4 L 10 4 z"
     id="path5" />
  <path
     style="fill:#457697;fill-opacity:1"
     class="ColorScheme-Highlight"
     d="M 1.46875,1 C 1.2086109,1 1,1.2086109 1,1.46875 V 8.529297 C 1,8.789437 1.2086109,9 1.46875,9 H 3 V 3 H 6 V 1 Z M 7,1 V 9 H 8.529297 C 8.789436,9 9,8.789437 9,8.529297 V 1.46875 C 9,1.2086109 8.789436,1 8.529297,1 Z M 4,4 V 9 H 6 V 4 Z"
     id="path7" />
</svg>
