<?xml version="1.0" encoding="UTF-8" standalone="no"?>
<svg
   xmlns:dc="http://purl.org/dc/elements/1.1/"
   xmlns:cc="http://creativecommons.org/ns#"
   xmlns:rdf="http://www.w3.org/1999/02/22-rdf-syntax-ns#"
   xmlns:svg="http://www.w3.org/2000/svg"
   xmlns="http://www.w3.org/2000/svg"
   xmlns:sodipodi="http://sodipodi.sourceforge.net/DTD/sodipodi-0.dtd"
   xmlns:inkscape="http://www.inkscape.org/namespaces/inkscape"
   width="16"
   height="16"
   version="1"
   id="svg7"
   sodipodi:docname="octopi-error.svg"
   inkscape:version="0.92.5 (2060ec1f9f, 2020-04-08)">
  <metadata
     id="metadata11">
    <rdf:RDF>
      <cc:Work
         rdf:about="">
        <dc:format>image/svg+xml</dc:format>
        <dc:type
           rdf:resource="http://purl.org/dc/dcmitype/StillImage" />
      </cc:Work>
    </rdf:RDF>
  </metadata>
  <sodipodi:namedview
     pagecolor="#ffffff"
     bordercolor="#666666"
     borderopacity="1"
     objecttolerance="10"
     gridtolerance="10"
     guidetolerance="10"
     inkscape:pageopacity="0"
     inkscape:pageshadow="2"
     inkscape:window-width="640"
     inkscape:window-height="480"
     id="namedview9"
     showgrid="false"
     inkscape:zoom="14.75"
     inkscape:cx="-5.220339"
     inkscape:cy="8"
     inkscape:current-layer="svg7" />
  <defs
     id="defs3">
    <style
       id="current-color-scheme"
       type="text/css">
   .ColorScheme-Text { color:#dfdfdf; } .ColorScheme-Highlight { color:#4285f4; } .ColorScheme-NeutralText { color:#ff9800; } .ColorScheme-PositiveText { color:#4caf50; } .ColorScheme-NegativeText { color:#f44336; }
  </style>
  </defs>
  <path
     style="fill:#bf616a;fill-opacity:1"
     class="ColorScheme-NegativeText"
     d="M 1,6.999 V 6.999 12 C 1,14 1,15 2.5,15 4,15 4,14 4,12 4,14 4,15 5.5,15 7,15 7,14 7,12 7,14 7,15 8.5,15 10,15 10,14 10,12 10,14 10,15 11.5,15 13,15 13,14 13,12 V 6.9982 H 12.998 C 13,3.999 12,0.9982 7,0.998 2,0.9978 1,3.999 1,6.9982 Z M 4.5,4.9993 C 5.331,4.9993 6,5.6683 6,6.4993 6,7.3305 5.331,7.9995 4.5,7.9995 3.669,7.9995 3,7.3305 3,6.4993 3,5.6683 3.669,4.9993 4.5,4.9993 Z M 10.5,4.9993 C 11.331,4.9993 12,5.6683 12,6.4993 12,7.3305 11.331,7.9995 10.5,7.9995 9.669,7.9995 9,7.3305 9,6.4993 9,5.6683 9.669,4.9993 10.5,4.9993 Z"
     id="path5" />
</svg>
