<?xml version="1.0" encoding="UTF-8" standalone="no"?>
<svg
   xmlns:dc="http://purl.org/dc/elements/1.1/"
   xmlns:cc="http://creativecommons.org/ns#"
   xmlns:rdf="http://www.w3.org/1999/02/22-rdf-syntax-ns#"
   xmlns:svg="http://www.w3.org/2000/svg"
   xmlns="http://www.w3.org/2000/svg"
   xmlns:sodipodi="http://sodipodi.sourceforge.net/DTD/sodipodi-0.dtd"
   xmlns:inkscape="http://www.inkscape.org/namespaces/inkscape"
   width="16"
   height="16"
   version="1.1"
   id="svg7"
   sodipodi:docname="process-syncing-error.svg"
   inkscape:version="0.92.5 (2060ec1f9f, 2020-04-08)">
  <metadata
     id="metadata11">
    <rdf:RDF>
      <cc:Work
         rdf:about="">
        <dc:format>image/svg+xml</dc:format>
        <dc:type
           rdf:resource="http://purl.org/dc/dcmitype/StillImage" />
      </cc:Work>
    </rdf:RDF>
  </metadata>
  <sodipodi:namedview
     pagecolor="#ffffff"
     bordercolor="#666666"
     borderopacity="1"
     objecttolerance="10"
     gridtolerance="10"
     guidetolerance="10"
     inkscape:pageopacity="0"
     inkscape:pageshadow="2"
     inkscape:window-width="640"
     inkscape:window-height="480"
     id="namedview9"
     showgrid="false"
     inkscape:zoom="14.75"
     inkscape:cx="-5.220339"
     inkscape:cy="8"
     inkscape:current-layer="svg7" />
  <defs
     id="defs3">
    <style
       id="current-color-scheme"
       type="text/css">
   .ColorScheme-Text { color:#dfdfdf; } .ColorScheme-Highlight { color:#4285f4; } .ColorScheme-NeutralText { color:#ff9800; } .ColorScheme-PositiveText { color:#4caf50; } .ColorScheme-NegativeText { color:#f44336; }
  </style>
  </defs>
  <path
     style="fill:#bf616a;fill-opacity:1"
     class="ColorScheme-NegativeText"
     d="M 2,1 C 1.446,1 1,1.446 1,2 V 4.2832 C 1.2965,4.1077 1.636,4 2,4 H 3 4 4.5859 L 6.293,2.293 C 6.4805,2.1054 6.7348,2.0001 7,2 H 8 C 8,1.446 7.554,1 7,1 Z M 7,3 5,5 H 4 3 2 C 1.446,5 1,5.446 1,6 V 7 8 10 11 13 C 1,14.108 1.892,15 3,15 H 13 C 14.108,15 15,14.108 15,13 V 11 10 4 C 15,3.446 14.554,3 14,3 Z M 7.9805,5.3203 A 0.44445,0.44445 0 0 1 8.0254,5.3203 0.44445,0.44445 0 0 1 8.4258,5.625 L 9.2227,8.0156 11.742,8.041 A 0.44445,0.44445 0 0 1 12.002,8.8418 L 9.9766,10.34 10.73,12.744 A 0.44445,0.44445 0 0 1 10.047,13.238 L 7.998,11.773 5.9453,13.234 A 0.44445,0.44445 0 0 1 5.2637,12.736 L 6.0234,10.334 4,8.834 A 0.44445,0.44445 0 0 1 4.2617,8.0312 L 6.7812,8.0117 7.582,5.625 A 0.44445,0.44445 0 0 1 7.9805,5.3203 Z"
     id="path5" />
</svg>
