<?xml version="1.0" encoding="UTF-8" standalone="no"?>
<svg
   xmlns:dc="http://purl.org/dc/elements/1.1/"
   xmlns:cc="http://creativecommons.org/ns#"
   xmlns:rdf="http://www.w3.org/1999/02/22-rdf-syntax-ns#"
   xmlns:svg="http://www.w3.org/2000/svg"
   xmlns="http://www.w3.org/2000/svg"
   xmlns:sodipodi="http://sodipodi.sourceforge.net/DTD/sodipodi-0.dtd"
   xmlns:inkscape="http://www.inkscape.org/namespaces/inkscape"
   width="16"
   height="16"
   version="1.1"
   id="svg7"
   sodipodi:docname="psensor_hot.svg"
   inkscape:version="0.92.5 (2060ec1f9f, 2020-04-08)">
  <metadata
     id="metadata11">
    <rdf:RDF>
      <cc:Work
         rdf:about="">
        <dc:format>image/svg+xml</dc:format>
        <dc:type
           rdf:resource="http://purl.org/dc/dcmitype/StillImage" />
      </cc:Work>
    </rdf:RDF>
  </metadata>
  <sodipodi:namedview
     pagecolor="#ffffff"
     bordercolor="#666666"
     borderopacity="1"
     objecttolerance="10"
     gridtolerance="10"
     guidetolerance="10"
     inkscape:pageopacity="0"
     inkscape:pageshadow="2"
     inkscape:window-width="640"
     inkscape:window-height="480"
     id="namedview9"
     showgrid="false"
     inkscape:zoom="14.75"
     inkscape:cx="-5.220339"
     inkscape:cy="8"
     inkscape:current-layer="svg7" />
  <defs
     id="defs3">
    <style
       id="current-color-scheme"
       type="text/css">
   .ColorScheme-Text { color:#dfdfdf; } .ColorScheme-Highlight { color:#4285f4; } .ColorScheme-NeutralText { color:#ff9800; } .ColorScheme-PositiveText { color:#4caf50; } .ColorScheme-NegativeText { color:#f44336; }
  </style>
  </defs>
  <path
     style="fill:#bf616a;fill-opacity:1"
     class="ColorScheme-NegativeText"
     d="M 8,0 C 6.338,0 5,1.338 5,3 V 7.008 C 3.7432,7.95 3.0025,9.429 3,11 3.0029,13.624 5.0343,15.8 7.652,15.982 7.768,15.993 7.884,15.999 8,16 10.761,16 13,13.761 13,11 12.998,9.429 12.257,7.95 11,7.008 V 3 C 11,1.338 9.662,0 8,0 Z M 8,2 C 8.589,2 9,2.4114 9,3 V 8.008 L 9.801,8.607 C 10.556,9.174 10.998,10.058 11,11.002 10.999,12.681 9.681,13.999 8.002,14 7.948,13.999 7.894,13.997 7.84,13.992 L 7.816,13.988 7.791,13.986 C 6.202,13.876 5.0027,12.593 5,11 5.0027,10.057 5.4448,9.173 6.1992,8.607 L 7,8.008 V 3 C 7,2.4114 7.411,2 8,2 Z"
     id="path5" />
</svg>
