<?xml version="1.0" encoding="UTF-8" standalone="no"?>
<svg
   xmlns:dc="http://purl.org/dc/elements/1.1/"
   xmlns:cc="http://creativecommons.org/ns#"
   xmlns:rdf="http://www.w3.org/1999/02/22-rdf-syntax-ns#"
   xmlns:svg="http://www.w3.org/2000/svg"
   xmlns="http://www.w3.org/2000/svg"
   xmlns:sodipodi="http://sodipodi.sourceforge.net/DTD/sodipodi-0.dtd"
   xmlns:inkscape="http://www.inkscape.org/namespaces/inkscape"
   width="16"
   height="16"
   version="1"
   id="svg7"
   sodipodi:docname="simplescreenrecorder-error.svg"
   inkscape:version="0.92.5 (2060ec1f9f, 2020-04-08)">
  <metadata
     id="metadata11">
    <rdf:RDF>
      <cc:Work
         rdf:about="">
        <dc:format>image/svg+xml</dc:format>
        <dc:type
           rdf:resource="http://purl.org/dc/dcmitype/StillImage" />
      </cc:Work>
    </rdf:RDF>
  </metadata>
  <sodipodi:namedview
     pagecolor="#ffffff"
     bordercolor="#666666"
     borderopacity="1"
     objecttolerance="10"
     gridtolerance="10"
     guidetolerance="10"
     inkscape:pageopacity="0"
     inkscape:pageshadow="2"
     inkscape:window-width="640"
     inkscape:window-height="480"
     id="namedview9"
     showgrid="false"
     inkscape:zoom="14.75"
     inkscape:cx="-5.220339"
     inkscape:cy="8"
     inkscape:current-layer="svg7" />
  <defs
     id="defs3">
    <style
       id="current-color-scheme"
       type="text/css">
   .ColorScheme-Text { color:#dfdfdf; } .ColorScheme-Highlight { color:#4285f4; } .ColorScheme-NeutralText { color:#ff9800; } .ColorScheme-PositiveText { color:#4caf50; } .ColorScheme-NegativeText { color:#f44336; }
  </style>
  </defs>
  <path
     style="fill:#bf616a;fill-opacity:1"
     class="ColorScheme-NegativeText"
     d="M 1.1816406 2 C 0.52694069 2 2.9605947e-16 2.5344186 0 3.1992188 L 0 12.800781 C 0 13.465781 0.52694067 14 1.1816406 14 L 10.818359 14 C 11.473359 14 12 13.465781 12 12.800781 L 12 10 L 16 12 L 16 4 L 12 6 L 12 3.1992188 C 12 2.5344186 11.473359 2 10.818359 2 L 1.1816406 2 z M 3.8789062 4.4648438 L 6 6.5859375 L 8.1210938 4.4648438 L 9.5351562 5.8789062 L 7.4140625 8 L 9.5351562 10.121094 L 8.1210938 11.535156 L 6 9.4140625 L 3.8789062 11.535156 L 2.4648438 10.121094 L 4.5859375 8 L 2.4648438 5.8789062 L 3.8789062 4.4648438 z"
     id="path5" />
</svg>
