<?xml version="1.0" encoding="UTF-8" standalone="no"?>
<svg
   xmlns:dc="http://purl.org/dc/elements/1.1/"
   xmlns:cc="http://creativecommons.org/ns#"
   xmlns:rdf="http://www.w3.org/1999/02/22-rdf-syntax-ns#"
   xmlns:svg="http://www.w3.org/2000/svg"
   xmlns="http://www.w3.org/2000/svg"
   xmlns:sodipodi="http://sodipodi.sourceforge.net/DTD/sodipodi-0.dtd"
   xmlns:inkscape="http://www.inkscape.org/namespaces/inkscape"
   width="16"
   height="16"
   version="1"
   id="svg11"
   sodipodi:docname="skype-status-disturb-notification.svg"
   inkscape:version="0.92.5 (2060ec1f9f, 2020-04-08)">
  <metadata
     id="metadata15">
    <rdf:RDF>
      <cc:Work
         rdf:about="">
        <dc:format>image/svg+xml</dc:format>
        <dc:type
           rdf:resource="http://purl.org/dc/dcmitype/StillImage" />
      </cc:Work>
    </rdf:RDF>
  </metadata>
  <sodipodi:namedview
     pagecolor="#ffffff"
     bordercolor="#666666"
     borderopacity="1"
     objecttolerance="10"
     gridtolerance="10"
     guidetolerance="10"
     inkscape:pageopacity="0"
     inkscape:pageshadow="2"
     inkscape:window-width="640"
     inkscape:window-height="480"
     id="namedview13"
     showgrid="false"
     inkscape:zoom="14.75"
     inkscape:cx="-5.220339"
     inkscape:cy="8"
     inkscape:current-layer="svg11" />
  <defs
     id="defs3">
    <style
       id="current-color-scheme"
       type="text/css">
   .ColorScheme-Text { color:#dfdfdf; } .ColorScheme-Highlight { color:#4285f4; } .ColorScheme-NeutralText { color:#ff9800; } .ColorScheme-PositiveText { color:#4caf50; } .ColorScheme-NegativeText { color:#f44336; }
  </style>
  </defs>
  <path
     style="fill:currentColor"
     class="ColorScheme-Text"
     d="M 4.5,1 C 2.5670034,1 1,2.5670034 1,4.5 1.0013473,5.4560274 1.3937103,6.3698943 2.0859375,7.0292969 2.0310192,7.3499992 2.0022786,7.6746374 2,8 c 0,3.313708 2.6862915,6 6,6 0.3252563,-9.88e-4 0.6498937,-0.02842 0.9707031,-0.08203 C 9.6307721,14.608757 10.544553,14.999672 11.5,15 13.432997,15 15,13.432997 15,11.5 14.998653,10.543972 14.606289,9.6301056 13.914062,8.9707031 13.96898,8.6500008 13.997721,8.3253626 14,8 14,4.6862915 11.313708,2 8,2 7.6747437,2.0009878 7.3501063,2.0284219 7.0292969,2.0820312 6.369228,1.391243 5.4554471,1.0003283 4.5,1 Z M 4,7 12,7 12,9 4,9 Z"
     id="path5" />
  <path
     style="fill:currentColor"
     class="ColorScheme-Text"
     d="M -25.069,-9.0812"
     id="path7" />
  <circle
     style="fill:#457697;fill-opacity:1"
     class="ColorScheme-Highlight"
     cx="14.5"
     cy="2.5"
     r="1.5"
     id="circle9" />
</svg>
