<?xml version="1.0" encoding="UTF-8" standalone="no"?>
<svg
   xmlns:dc="http://purl.org/dc/elements/1.1/"
   xmlns:cc="http://creativecommons.org/ns#"
   xmlns:rdf="http://www.w3.org/1999/02/22-rdf-syntax-ns#"
   xmlns:svg="http://www.w3.org/2000/svg"
   xmlns="http://www.w3.org/2000/svg"
   xmlns:sodipodi="http://sodipodi.sourceforge.net/DTD/sodipodi-0.dtd"
   xmlns:inkscape="http://www.inkscape.org/namespaces/inkscape"
   width="16"
   height="16"
   version="1.1"
   id="svg7"
   sodipodi:docname="system-shutdown-panel-restart.svg"
   inkscape:version="0.92.5 (2060ec1f9f, 2020-04-08)">
  <metadata
     id="metadata11">
    <rdf:RDF>
      <cc:Work
         rdf:about="">
        <dc:format>image/svg+xml</dc:format>
        <dc:type
           rdf:resource="http://purl.org/dc/dcmitype/StillImage" />
      </cc:Work>
    </rdf:RDF>
  </metadata>
  <sodipodi:namedview
     pagecolor="#ffffff"
     bordercolor="#666666"
     borderopacity="1"
     objecttolerance="10"
     gridtolerance="10"
     guidetolerance="10"
     inkscape:pageopacity="0"
     inkscape:pageshadow="2"
     inkscape:window-width="640"
     inkscape:window-height="480"
     id="namedview9"
     showgrid="false"
     inkscape:zoom="14.75"
     inkscape:cx="-5.220339"
     inkscape:cy="8"
     inkscape:current-layer="svg7" />
  <defs
     id="defs3">
    <style
       id="current-color-scheme"
       type="text/css">
   .ColorScheme-Text { color:#dfdfdf; } .ColorScheme-Highlight { color:#4285f4; } .ColorScheme-NeutralText { color:#ff9800; } .ColorScheme-PositiveText { color:#4caf50; } .ColorScheme-NegativeText { color:#f44336; }
  </style>
  </defs>
  <path
     style="fill:#bf616a;fill-opacity:1"
     class="ColorScheme-NegativeText"
     d="M 8,1 C 7.446,1 7,1.446 7,2 V 7.004 C 7,7.558 7.446,8.004 8,8.004 8.554,8.004 9,7.558 9,7.004 V 2 C 9,1.446 8.554,1 8,1 Z M 11.037,2.9883 A 1.0001,1.0001 0 0 0 10.844,3 1.0001,1.0001 0 0 0 10.406,4.8125 C 12.185,6.1429 12.549,8.628 11.219,10.406 9.888,12.185 7.372,12.518 5.5937,11.188 3.8152,9.857 3.4821,7.372 4.8125,5.5937 5.0291,5.3042 5.2764,5.0648 5.5625,4.8437 A 1.0032,1.0032 0 0 0 4.3437,3.25 C 3.9146,3.5816 3.5123,3.972 3.1875,4.4062 1.2097,7.05 1.7622,10.835 4.4062,12.813 7.05,14.79 10.835,14.238 12.813,11.594 14.79,8.95 14.238,5.1652 11.594,3.1875 A 1.0001,1.0001 0 0 0 11.037,2.9883 Z"
     id="path5" />
</svg>
