<?xml version="1.0" encoding="UTF-8" standalone="no"?>
<svg
   xmlns:dc="http://purl.org/dc/elements/1.1/"
   xmlns:cc="http://creativecommons.org/ns#"
   xmlns:rdf="http://www.w3.org/1999/02/22-rdf-syntax-ns#"
   xmlns:svg="http://www.w3.org/2000/svg"
   xmlns="http://www.w3.org/2000/svg"
   xmlns:sodipodi="http://sodipodi.sourceforge.net/DTD/sodipodi-0.dtd"
   xmlns:inkscape="http://www.inkscape.org/namespaces/inkscape"
   width="16"
   height="16"
   version="1.1"
   id="svg9"
   sodipodi:docname="uget-tray-downloading.svg"
   inkscape:version="0.92.5 (2060ec1f9f, 2020-04-08)">
  <metadata
     id="metadata13">
    <rdf:RDF>
      <cc:Work
         rdf:about="">
        <dc:format>image/svg+xml</dc:format>
        <dc:type
           rdf:resource="http://purl.org/dc/dcmitype/StillImage" />
      </cc:Work>
    </rdf:RDF>
  </metadata>
  <sodipodi:namedview
     pagecolor="#ffffff"
     bordercolor="#666666"
     borderopacity="1"
     objecttolerance="10"
     gridtolerance="10"
     guidetolerance="10"
     inkscape:pageopacity="0"
     inkscape:pageshadow="2"
     inkscape:window-width="640"
     inkscape:window-height="480"
     id="namedview11"
     showgrid="false"
     inkscape:zoom="14.75"
     inkscape:cx="-5.220339"
     inkscape:cy="8"
     inkscape:current-layer="svg9" />
  <defs
     id="defs3">
    <style
       id="current-color-scheme"
       type="text/css">
   .ColorScheme-Text { color:#dfdfdf; } .ColorScheme-Highlight { color:#4285f4; } .ColorScheme-NeutralText { color:#ff9800; } .ColorScheme-PositiveText { color:#4caf50; } .ColorScheme-NegativeText { color:#f44336; }
  </style>
  </defs>
  <path
     style="fill:currentColor"
     class="ColorScheme-Text"
     d="M 6.625,0.99996 C 6.625,0.99996 4.2981,1.017 4,3.625 V 4.5 10 H 2 V 4 H 1 V 9.75 C 1,11.5 2.75,11 2.75,11 H 4 V 12.375 C 4,15 6.625,15 6.625,15 H 11.375 C 14,15 14,12.375 14,12.375 V 7 H 11 V 9 H 12 L 9,13 6,9 H 7 V 4 H 11 V 5 H 14 V 3.625 C 14,3.625 14,0.99996 11.375,0.99996 Z"
     id="path5" />
  <path
     style="fill:#457697;fill-opacity:1"
     class="ColorScheme-Highlight"
     d="M 8 5 L 8 9 A 1.0001 1.0001 0 0 1 7.7480469 9.6621094 L 9 11.332031 L 10.251953 9.6640625 A 1.0001 1.0001 0 0 1 10 9 L 10 5 L 8 5 z"
     id="path7" />
</svg>
