<?xml version="1.0" encoding="UTF-8" standalone="no"?>
<svg
   xmlns:dc="http://purl.org/dc/elements/1.1/"
   xmlns:cc="http://creativecommons.org/ns#"
   xmlns:rdf="http://www.w3.org/1999/02/22-rdf-syntax-ns#"
   xmlns:svg="http://www.w3.org/2000/svg"
   xmlns="http://www.w3.org/2000/svg"
   xmlns:sodipodi="http://sodipodi.sourceforge.net/DTD/sodipodi-0.dtd"
   xmlns:inkscape="http://www.inkscape.org/namespaces/inkscape"
   width="16"
   height="16"
   version="1.1"
   id="svg9"
   sodipodi:docname="weather-none-available.svg"
   inkscape:version="0.92.5 (2060ec1f9f, 2020-04-08)">
  <metadata
     id="metadata13">
    <rdf:RDF>
      <cc:Work
         rdf:about="">
        <dc:format>image/svg+xml</dc:format>
        <dc:type
           rdf:resource="http://purl.org/dc/dcmitype/StillImage" />
      </cc:Work>
    </rdf:RDF>
  </metadata>
  <sodipodi:namedview
     pagecolor="#ffffff"
     bordercolor="#666666"
     borderopacity="1"
     objecttolerance="10"
     gridtolerance="10"
     guidetolerance="10"
     inkscape:pageopacity="0"
     inkscape:pageshadow="2"
     inkscape:window-width="640"
     inkscape:window-height="480"
     id="namedview11"
     showgrid="false"
     inkscape:zoom="14.75"
     inkscape:cx="-5.220339"
     inkscape:cy="8"
     inkscape:current-layer="svg9" />
  <defs
     id="defs3">
    <style
       id="current-color-scheme"
       type="text/css">
   .ColorScheme-Text { color:#dfdfdf; } .ColorScheme-Highlight { color:#4285f4; } .ColorScheme-NeutralText { color:#ff9800; } .ColorScheme-PositiveText { color:#4caf50; } .ColorScheme-NegativeText { color:#f44336; }
  </style>
  </defs>
  <path
     style="opacity:.35;fill:currentColor"
     class="ColorScheme-Text"
     d="M 8,1 C 5.9289,1 4.1653,2.2679 3.4062,4.0625 1.4784,4.3491 0,5.9924 0,8 0,10.209 1.7909,12 4,12 H 5 V 11 C 5.0001,10.735 5.1054,10.48 5.293,10.293 L 7,8.586 V 8 H 5 C 4.4477,8 4.0001,7.552 4,7 V 5 C 4.0001,4.4477 4.4477,4.0001 5,4 H 10 C 10.552,4.0001 11,4.4477 11,5 V 7 9 C 11,9.266 10.895,9.521 10.707,9.709 L 9,11.416 V 12 H 10 12.5 C 14.433,12 16,10.433 16,8.5 16,6.7035 14.649,5.2313 12.906,5.0312 12.452,2.7379 10.427,1 8,1 Z"
     id="path5" />
  <path
     style="fill:#457697;fill-opacity:1"
     class="ColorScheme-Highlight"
     d="M 5,5 V 7 H 8 V 9 L 6,11 V 13 H 8 V 11 L 10,9 V 7 5 Z M 6,14 V 16 H 8 V 14 Z"
     id="path7" />
</svg>
