<?xml version="1.0" encoding="UTF-8" standalone="no"?>
<svg
   xmlns:dc="http://purl.org/dc/elements/1.1/"
   xmlns:cc="http://creativecommons.org/ns#"
   xmlns:rdf="http://www.w3.org/1999/02/22-rdf-syntax-ns#"
   xmlns:svg="http://www.w3.org/2000/svg"
   xmlns="http://www.w3.org/2000/svg"
   xmlns:sodipodi="http://sodipodi.sourceforge.net/DTD/sodipodi-0.dtd"
   xmlns:inkscape="http://www.inkscape.org/namespaces/inkscape"
   width="24"
   height="24"
   version="1"
   id="svg20"
   sodipodi:docname="audio-speakers.svg"
   inkscape:version="0.92.5 (2060ec1f9f, 2020-04-08)">
  <metadata
     id="metadata26">
    <rdf:RDF>
      <cc:Work
         rdf:about="">
        <dc:format>image/svg+xml</dc:format>
        <dc:type
           rdf:resource="http://purl.org/dc/dcmitype/StillImage" />
      </cc:Work>
    </rdf:RDF>
  </metadata>
  <defs
     id="defs24" />
  <sodipodi:namedview
     pagecolor="#ffffff"
     bordercolor="#666666"
     borderopacity="1"
     objecttolerance="10"
     gridtolerance="10"
     guidetolerance="10"
     inkscape:pageopacity="0"
     inkscape:pageshadow="2"
     inkscape:window-width="783"
     inkscape:window-height="480"
     id="namedview22"
     showgrid="false"
     inkscape:zoom="19.666667"
     inkscape:cx="6.661017"
     inkscape:cy="9.9661017"
     inkscape:current-layer="svg20"
     inkscape:window-x="0"
     inkscape:window-y="28"
     inkscape:window-maximized="0" />
  <rect
     width="16"
     height="20"
     x="-20.050848"
     y="2.0677967"
     rx="1"
     ry="1"
     transform="scale(-1,1)"
     id="rect2"
     style="fill:#4c566a;fill-opacity:1" />
  <circle
     style="opacity:0.4"
     cx="-14"
     cy="12"
     r="7"
     transform="rotate(-90)"
     id="circle4" />
  <circle
     cx="-14.033897"
     cy="-11.898305"
     r="5"
     transform="matrix(0,-1,-1,0,0,0)"
     id="circle8"
     style="fill:#101216;fill-opacity:1" />
  <circle
     opacity=".2"
     cx="-14.5"
     cy="-12"
     r="5"
     transform="matrix(0,-1,-1,0,0,0)"
     id="circle6"
     style="fill:#4c566a;fill-opacity:1" />
  <circle
     style="fill:#c8c8c8;fill-opacity:1"
     cx="-14"
     cy="-12"
     r="2"
     transform="matrix(0,-1,-1,0,0,0)"
     id="circle10" />
  <circle
     style="opacity:1;fill:#bcbcbc;fill-opacity:1"
     cx="5"
     cy="-7.5"
     r="1"
     transform="rotate(90)"
     id="circle12" />
  <circle
     style="opacity:1;fill:#bcbcbc;fill-opacity:1"
     cx="5"
     cy="-16.5"
     r="1"
     transform="rotate(90)"
     id="circle14" />
  <path
     opacity=".2"
     d="m4 21v0.5c0 0.554 0.446 1 1 1h14c0.554 0 1-0.446 1-1v-0.5c0 0.554-0.446 1-1 1h-14c-0.554 0-1-0.446-1-1z"
     id="path16" />
  <path
     fill="#fff"
     opacity=".1"
     d="m5 2c-0.554 0-1 0.446-1 1v0.5c0-0.554 0.446-1 1-1h14c0.554 0 1 0.446 1 1v-0.5c0-0.554-0.446-1-1-1h-14z"
     id="path18" />
</svg>
