<?xml version="1.0" encoding="UTF-8" standalone="no"?>
<svg
   xmlns:dc="http://purl.org/dc/elements/1.1/"
   xmlns:cc="http://creativecommons.org/ns#"
   xmlns:rdf="http://www.w3.org/1999/02/22-rdf-syntax-ns#"
   xmlns:svg="http://www.w3.org/2000/svg"
   xmlns="http://www.w3.org/2000/svg"
   xmlns:sodipodi="http://sodipodi.sourceforge.net/DTD/sodipodi-0.dtd"
   xmlns:inkscape="http://www.inkscape.org/namespaces/inkscape"
   width="24"
   height="24"
   version="1"
   id="svg14"
   sodipodi:docname="audio-headphones.svg"
   inkscape:version="0.92.5 (2060ec1f9f, 2020-04-08)">
  <metadata
     id="metadata20">
    <rdf:RDF>
      <cc:Work
         rdf:about="">
        <dc:format>image/svg+xml</dc:format>
        <dc:type
           rdf:resource="http://purl.org/dc/dcmitype/StillImage" />
      </cc:Work>
    </rdf:RDF>
  </metadata>
  <defs
     id="defs18" />
  <sodipodi:namedview
     pagecolor="#ffffff"
     bordercolor="#666666"
     borderopacity="1"
     objecttolerance="10"
     gridtolerance="10"
     guidetolerance="10"
     inkscape:pageopacity="0"
     inkscape:pageshadow="2"
     inkscape:window-width="640"
     inkscape:window-height="480"
     id="namedview16"
     showgrid="false"
     inkscape:zoom="9.8333333"
     inkscape:cx="17.084746"
     inkscape:cy="12"
     inkscape:current-layer="svg14" />
  <path
     style="opacity:0.2"
     d="m 6.001,14.5 0,7 3,0 0,-7 -3,0 z m 9,0 0,7 3,0 0,-7 -3,0 z"
     id="path2" />
  <path
     style="opacity:0.2"
     d="m 12,2.5 c -4.986,0 -9,4.015 -9,9.0025 l 0,6.0015 c 0,0 0,3.00075 3,3.00075 l 0.001,0 0,-7.502 -0.001,0 0,-1.5004 c 0,-3.32485 2.676,-6.0015 6,-6.0015 3.324,0 6,2.6767 6,6.0015 l 0,0.99535 0.001,0 0,8.007 C 18.0065,20.5037 21,20.5007 21,17.5032 l 0,-6.0015 C 21,6.5142 16.986,2.4992 12,2.4992 Z"
     id="path4" />
  <path
     style="fill:#4c566a;fill-opacity:1"
     d="M 12,2 C 7.014,2 3,6.015 3,11.0025 l 0,6.0015 c 0,0 0,3.00075 3,3.00075 l 0.001,0 0,-7.502 -0.001,0 0,-1.5004 c 0,-3.32485 2.676,-6.0015 6,-6.0015 3.324,0 6,2.6767 6,6.0015 l 0,0.99535 0.001,0 0,8.007 C 18.0065,20.0037 21,20.0007 21,17.0032 l 0,-6.0015 C 21,6.0142 16.986,1.9992 12,1.9992 Z"
     id="path6" />
  <path
     style="opacity:0.1;fill:#ffffff"
     d="M 12,2 C 7.014,2 3,6.015 3,11.0025 l 0,0.49524 c 0,-4.9873 4.014,-9.0025 9,-9.0025 4.986,0 9,4.01505 9,9.0025 l 0,-0.495 c 0,-4.9875 -4.014,-9.0025 -9,-9.0025 z m -6,10.5025 0,0.49524 0.001,0 0,-0.49524 -0.001,0 z"
     id="path8" />
  <path
     style="fill:#687793;fill-opacity:1"
     d="m 6.001,14 0,7 3,0 0,-7 -3,0 z m 9,0 0,7 3,0 0,-7 -3,0 z"
     id="path10" />
  <path
     style="fill:#ffffff;opacity:0.1"
     d="M 6.0019531 14 L 6.0019531 14.5 L 9.0019531 14.5 L 9.0019531 14 L 6.0019531 14 z M 15.001953 14 L 15.001953 14.5 L 18.001953 14.5 L 18.001953 14 L 15.001953 14 z"
     id="path12" />
</svg>
