<?xml version="1.0" encoding="UTF-8" standalone="no"?>
<svg
   xmlns:dc="http://purl.org/dc/elements/1.1/"
   xmlns:cc="http://creativecommons.org/ns#"
   xmlns:rdf="http://www.w3.org/1999/02/22-rdf-syntax-ns#"
   xmlns:svg="http://www.w3.org/2000/svg"
   xmlns="http://www.w3.org/2000/svg"
   xmlns:sodipodi="http://sodipodi.sourceforge.net/DTD/sodipodi-0.dtd"
   xmlns:inkscape="http://www.inkscape.org/namespaces/inkscape"
   width="24"
   height="24"
   version="1.1"
   id="svg230"
   sodipodi:docname="cpu.svg"
   inkscape:version="0.92.5 (2060ec1f9f, 2020-04-08)">
  <metadata
     id="metadata236">
    <rdf:RDF>
      <cc:Work
         rdf:about="">
        <dc:format>image/svg+xml</dc:format>
        <dc:type
           rdf:resource="http://purl.org/dc/dcmitype/StillImage" />
      </cc:Work>
    </rdf:RDF>
  </metadata>
  <defs
     id="defs234" />
  <sodipodi:namedview
     pagecolor="#ffffff"
     bordercolor="#666666"
     borderopacity="1"
     objecttolerance="10"
     gridtolerance="10"
     guidetolerance="10"
     inkscape:pageopacity="0"
     inkscape:pageshadow="2"
     inkscape:window-width="783"
     inkscape:window-height="480"
     id="namedview232"
     showgrid="false"
     inkscape:zoom="19.666667"
     inkscape:cx="5.6862976"
     inkscape:cy="6.1983105"
     inkscape:current-layer="svg230"
     inkscape:window-x="0"
     inkscape:window-y="28"
     inkscape:window-maximized="0" />
  <rect
     style="opacity:0.2"
     width="20"
     height="20"
     x="2"
     y="2.5"
     rx="1"
     ry="1"
     id="rect2" />
  <rect
     style="fill:#4c566a;fill-opacity:1"
     width="20"
     height="20"
     x="2"
     y="2"
     rx="1"
     ry="1"
     id="rect4" />
  <rect
     style="opacity:0.2"
     width="8"
     height="8"
     x="8"
     y="8.5"
     rx="2"
     ry="2"
     id="rect6" />
  <rect
     style="fill:#37474f"
     width="8"
     height="8"
     x="8"
     y="8"
     rx="2"
     ry="2"
     id="rect8" />
  <path
     style="opacity:0.1;fill:#ffffff"
     d="M 10,8 C 8.892,8 8,8.892 8,10 V 10.5 C 8,9.392 8.892,8.5 10,8.5 H 14 C 15.108,8.5 16,9.392 16,10.5 V 10 C 16,8.892 15.108,8 14,8 Z"
     id="path10" />
  <path
     style="opacity:0.1;fill:#ffffff"
     d="M 3,2 C 2.446,2 2,2.446 2,3 V 3.5 C 2,2.946 2.446,2.5 3,2.5 H 21 C 21.554,2.5 22,2.946 22,3.5 V 3 C 22,2.446 21.554,2 21,2 Z"
     id="path12" />
  <g
     style="opacity:0.2"
     transform="translate(0,0.5)"
     id="g120">
    <rect
       width="1"
       height="1"
       x="7"
       y="5"
       id="rect14" />
    <rect
       width="1"
       height="1"
       x="9"
       y="5"
       id="rect16" />
    <rect
       width="1"
       height="1"
       x="12"
       y="5"
       id="rect18" />
    <rect
       width="1"
       height="1"
       x="14"
       y="5"
       id="rect20" />
    <rect
       width="1"
       height="1"
       x="16"
       y="5"
       id="rect22" />
    <rect
       width="1"
       height="1"
       x="18"
       y="5"
       id="rect24" />
    <rect
       width="1"
       height="1"
       x="5"
       y="5"
       id="rect26" />
    <rect
       width="1"
       height="1"
       x="18"
       y="7"
       id="rect28" />
    <rect
       width="1"
       height="1"
       x="18"
       y="9"
       id="rect30" />
    <rect
       width="1"
       height="1"
       x="18"
       y="14"
       id="rect32" />
    <rect
       width="1"
       height="1"
       x="18"
       y="16"
       id="rect34" />
    <rect
       width="1"
       height="1"
       x="18"
       y="18"
       id="rect36" />
    <rect
       width="1"
       height="1"
       x="16"
       y="18"
       id="rect38" />
    <rect
       width="1"
       height="1"
       x="14"
       y="18"
       id="rect40" />
    <rect
       width="1"
       height="1"
       x="11"
       y="18"
       id="rect42" />
    <rect
       width="1"
       height="1"
       x="9"
       y="18"
       id="rect44" />
    <rect
       width="1"
       height="1"
       x="7"
       y="18"
       id="rect46" />
    <rect
       width="1"
       height="1"
       x="5"
       y="18"
       id="rect48" />
    <rect
       width="1"
       height="1"
       x="5"
       y="16"
       id="rect50" />
    <rect
       width="1"
       height="1"
       x="5"
       y="14"
       id="rect52" />
    <rect
       width="1"
       height="1"
       x="5"
       y="11"
       id="rect54" />
    <rect
       width="1"
       height="1"
       x="5"
       y="7"
       id="rect56" />
    <rect
       width="1"
       height="1"
       x="5"
       y="9"
       id="rect58" />
    <rect
       width="1"
       height="1"
       x="18"
       y="12"
       id="rect60" />
    <rect
       width="1"
       height="1"
       x="20"
       y="7"
       id="rect62" />
    <rect
       width="1"
       height="1"
       x="20"
       y="5"
       id="rect64" />
    <rect
       width="1"
       height="1"
       x="20"
       y="3"
       id="rect66" />
    <rect
       width="1"
       height="1"
       x="18"
       y="3"
       id="rect68" />
    <rect
       width="1"
       height="1"
       x="16"
       y="3"
       id="rect70" />
    <rect
       width="1"
       height="1"
       x="14"
       y="3"
       id="rect72" />
    <rect
       width="1"
       height="1"
       x="12"
       y="3"
       id="rect74" />
    <rect
       width="1"
       height="1"
       x="9"
       y="3"
       id="rect76" />
    <rect
       width="1"
       height="1"
       x="7"
       y="3"
       id="rect78" />
    <rect
       width="1"
       height="1"
       x="20"
       y="9"
       id="rect80" />
    <rect
       width="1"
       height="1"
       x="20"
       y="12"
       id="rect82" />
    <rect
       width="1"
       height="1"
       x="20"
       y="14"
       id="rect84" />
    <rect
       width="1"
       height="1"
       x="20"
       y="16"
       id="rect86" />
    <rect
       width="1"
       height="1"
       x="20"
       y="18"
       id="rect88" />
    <rect
       width="1"
       height="1"
       x="20"
       y="20"
       id="rect90" />
    <rect
       width="1"
       height="1"
       x="18"
       y="20"
       id="rect92" />
    <rect
       width="1"
       height="1"
       x="16"
       y="20"
       id="rect94" />
    <rect
       width="1"
       height="1"
       x="14"
       y="20"
       id="rect96" />
    <rect
       width="1"
       height="1"
       x="11"
       y="20"
       id="rect98" />
    <rect
       width="1"
       height="1"
       x="9"
       y="20"
       id="rect100" />
    <rect
       width="1"
       height="1"
       x="7"
       y="20"
       id="rect102" />
    <rect
       width="1"
       height="1"
       x="3"
       y="20"
       id="rect104" />
    <rect
       width="1"
       height="1"
       x="3"
       y="18"
       id="rect106" />
    <rect
       width="1"
       height="1"
       x="3"
       y="16"
       id="rect108" />
    <rect
       width="1"
       height="1"
       x="3"
       y="14"
       id="rect110" />
    <rect
       width="1"
       height="1"
       x="3"
       y="11"
       id="rect112" />
    <rect
       width="1"
       height="1"
       x="3"
       y="9"
       id="rect114" />
    <rect
       width="1"
       height="1"
       x="3"
       y="7"
       id="rect116" />
    <rect
       width="1"
       height="1"
       x="3"
       y="5"
       id="rect118" />
  </g>
  <g
     style="fill:#fefcf9;fill-opacity:1"
     id="g228">
    <rect
       width="1"
       height="1"
       x="7"
       y="5"
       id="rect122"
       style="fill:#fefcf9;fill-opacity:1" />
    <rect
       width="1"
       height="1"
       x="9"
       y="5"
       id="rect124"
       style="fill:#fefcf9;fill-opacity:1" />
    <rect
       width="1"
       height="1"
       x="12"
       y="5"
       id="rect126"
       style="fill:#fefcf9;fill-opacity:1" />
    <rect
       width="1"
       height="1"
       x="14"
       y="5"
       id="rect128"
       style="fill:#fefcf9;fill-opacity:1" />
    <rect
       width="1"
       height="1"
       x="16"
       y="5"
       id="rect130"
       style="fill:#fefcf9;fill-opacity:1" />
    <rect
       width="1"
       height="1"
       x="18"
       y="5"
       id="rect132"
       style="fill:#fefcf9;fill-opacity:1" />
    <rect
       width="1"
       height="1"
       x="5"
       y="5"
       id="rect134"
       style="fill:#fefcf9;fill-opacity:1" />
    <rect
       width="1"
       height="1"
       x="18"
       y="7"
       id="rect136"
       style="fill:#fefcf9;fill-opacity:1" />
    <rect
       width="1"
       height="1"
       x="18"
       y="9"
       id="rect138"
       style="fill:#fefcf9;fill-opacity:1" />
    <rect
       width="1"
       height="1"
       x="18"
       y="14"
       id="rect140"
       style="fill:#fefcf9;fill-opacity:1" />
    <rect
       width="1"
       height="1"
       x="18"
       y="16"
       id="rect142"
       style="fill:#fefcf9;fill-opacity:1" />
    <rect
       width="1"
       height="1"
       x="18"
       y="18"
       id="rect144"
       style="fill:#fefcf9;fill-opacity:1" />
    <rect
       width="1"
       height="1"
       x="16"
       y="18"
       id="rect146"
       style="fill:#fefcf9;fill-opacity:1" />
    <rect
       width="1"
       height="1"
       x="14"
       y="18"
       id="rect148"
       style="fill:#fefcf9;fill-opacity:1" />
    <rect
       width="1"
       height="1"
       x="11"
       y="18"
       id="rect150"
       style="fill:#fefcf9;fill-opacity:1" />
    <rect
       width="1"
       height="1"
       x="9"
       y="18"
       id="rect152"
       style="fill:#fefcf9;fill-opacity:1" />
    <rect
       width="1"
       height="1"
       x="7"
       y="18"
       id="rect154"
       style="fill:#fefcf9;fill-opacity:1" />
    <rect
       width="1"
       height="1"
       x="5"
       y="18"
       id="rect156"
       style="fill:#fefcf9;fill-opacity:1" />
    <rect
       width="1"
       height="1"
       x="5"
       y="16"
       id="rect158"
       style="fill:#fefcf9;fill-opacity:1" />
    <rect
       width="1"
       height="1"
       x="5"
       y="14"
       id="rect160"
       style="fill:#fefcf9;fill-opacity:1" />
    <rect
       width="1"
       height="1"
       x="5"
       y="11"
       id="rect162"
       style="fill:#fefcf9;fill-opacity:1" />
    <rect
       width="1"
       height="1"
       x="5"
       y="7"
       id="rect164"
       style="fill:#fefcf9;fill-opacity:1" />
    <rect
       width="1"
       height="1"
       x="5"
       y="9"
       id="rect166"
       style="fill:#fefcf9;fill-opacity:1" />
    <rect
       width="1"
       height="1"
       x="18"
       y="12"
       id="rect168"
       style="fill:#fefcf9;fill-opacity:1" />
    <rect
       width="1"
       height="1"
       x="20"
       y="7"
       id="rect170"
       style="fill:#fefcf9;fill-opacity:1" />
    <rect
       width="1"
       height="1"
       x="20"
       y="5"
       id="rect172"
       style="fill:#fefcf9;fill-opacity:1" />
    <rect
       width="1"
       height="1"
       x="20"
       y="3"
       id="rect174"
       style="fill:#fefcf9;fill-opacity:1" />
    <rect
       width="1"
       height="1"
       x="18"
       y="3"
       id="rect176"
       style="fill:#fefcf9;fill-opacity:1" />
    <rect
       width="1"
       height="1"
       x="16"
       y="3"
       id="rect178"
       style="fill:#fefcf9;fill-opacity:1" />
    <rect
       width="1"
       height="1"
       x="14"
       y="3"
       id="rect180"
       style="fill:#fefcf9;fill-opacity:1" />
    <rect
       width="1"
       height="1"
       x="12"
       y="3"
       id="rect182"
       style="fill:#fefcf9;fill-opacity:1" />
    <rect
       width="1"
       height="1"
       x="9"
       y="3"
       id="rect184"
       style="fill:#fefcf9;fill-opacity:1" />
    <rect
       width="1"
       height="1"
       x="7"
       y="3"
       id="rect186"
       style="fill:#fefcf9;fill-opacity:1" />
    <rect
       width="1"
       height="1"
       x="20"
       y="9"
       id="rect188"
       style="fill:#fefcf9;fill-opacity:1" />
    <rect
       width="1"
       height="1"
       x="20"
       y="12"
       id="rect190"
       style="fill:#fefcf9;fill-opacity:1" />
    <rect
       width="1"
       height="1"
       x="20"
       y="14"
       id="rect192"
       style="fill:#fefcf9;fill-opacity:1" />
    <rect
       width="1"
       height="1"
       x="20"
       y="16"
       id="rect194"
       style="fill:#fefcf9;fill-opacity:1" />
    <rect
       width="1"
       height="1"
       x="20"
       y="18"
       id="rect196"
       style="fill:#fefcf9;fill-opacity:1" />
    <rect
       width="1"
       height="1"
       x="20"
       y="20"
       id="rect198"
       style="fill:#fefcf9;fill-opacity:1" />
    <rect
       width="1"
       height="1"
       x="18"
       y="20"
       id="rect200"
       style="fill:#fefcf9;fill-opacity:1" />
    <rect
       width="1"
       height="1"
       x="16"
       y="20"
       id="rect202"
       style="fill:#fefcf9;fill-opacity:1" />
    <rect
       width="1"
       height="1"
       x="14"
       y="20"
       id="rect204"
       style="fill:#fefcf9;fill-opacity:1" />
    <rect
       width="1"
       height="1"
       x="11"
       y="20"
       id="rect206"
       style="fill:#fefcf9;fill-opacity:1" />
    <rect
       width="1"
       height="1"
       x="9"
       y="20"
       id="rect208"
       style="fill:#fefcf9;fill-opacity:1" />
    <rect
       width="1"
       height="1"
       x="7"
       y="20"
       id="rect210"
       style="fill:#fefcf9;fill-opacity:1" />
    <rect
       width="1"
       height="1"
       x="3"
       y="20"
       id="rect212"
       style="fill:#fefcf9;fill-opacity:1" />
    <rect
       width="1"
       height="1"
       x="3"
       y="18"
       id="rect214"
       style="fill:#fefcf9;fill-opacity:1" />
    <rect
       width="1"
       height="1"
       x="3"
       y="16"
       id="rect216"
       style="fill:#fefcf9;fill-opacity:1" />
    <rect
       width="1"
       height="1"
       x="3"
       y="14"
       id="rect218"
       style="fill:#fefcf9;fill-opacity:1" />
    <rect
       width="1"
       height="1"
       x="3"
       y="11"
       id="rect220"
       style="fill:#fefcf9;fill-opacity:1" />
    <rect
       width="1"
       height="1"
       x="3"
       y="9"
       id="rect222"
       style="fill:#fefcf9;fill-opacity:1" />
    <rect
       width="1"
       height="1"
       x="3"
       y="7"
       id="rect224"
       style="fill:#fefcf9;fill-opacity:1" />
    <rect
       width="1"
       height="1"
       x="3"
       y="5"
       id="rect226"
       style="fill:#fefcf9;fill-opacity:1" />
  </g>
</svg>
