<?xml version="1.0" encoding="UTF-8" standalone="no"?>
<svg
   xmlns:dc="http://purl.org/dc/elements/1.1/"
   xmlns:cc="http://creativecommons.org/ns#"
   xmlns:rdf="http://www.w3.org/1999/02/22-rdf-syntax-ns#"
   xmlns:svg="http://www.w3.org/2000/svg"
   xmlns="http://www.w3.org/2000/svg"
   xmlns:sodipodi="http://sodipodi.sourceforge.net/DTD/sodipodi-0.dtd"
   xmlns:inkscape="http://www.inkscape.org/namespaces/inkscape"
   width="24"
   height="24"
   version="1"
   id="svg32"
   sodipodi:docname="hifi.svg"
   inkscape:version="0.92.5 (2060ec1f9f, 2020-04-08)">
  <metadata
     id="metadata38">
    <rdf:RDF>
      <cc:Work
         rdf:about="">
        <dc:format>image/svg+xml</dc:format>
        <dc:type
           rdf:resource="http://purl.org/dc/dcmitype/StillImage" />
      </cc:Work>
    </rdf:RDF>
  </metadata>
  <defs
     id="defs36" />
  <sodipodi:namedview
     pagecolor="#ffffff"
     bordercolor="#666666"
     borderopacity="1"
     objecttolerance="10"
     gridtolerance="10"
     guidetolerance="10"
     inkscape:pageopacity="0"
     inkscape:pageshadow="2"
     inkscape:window-width="640"
     inkscape:window-height="480"
     id="namedview34"
     showgrid="false"
     inkscape:zoom="9.8333333"
     inkscape:cx="-7.8305085"
     inkscape:cy="12"
     inkscape:current-layer="svg32" />
  <rect
     style="opacity:0.2"
     width="2"
     height="8"
     x="20.5"
     y="-16"
     rx="1"
     ry="1"
     transform="rotate(90)"
     id="rect2" />
  <rect
     style="fill:#959595"
     width="2"
     height="6"
     x="11"
     y="15"
     id="rect4" />
  <rect
     style="opacity:0.2"
     width="12"
     height="15"
     x="-18"
     y="2.5"
     rx=".75"
     ry=".75"
     transform="scale(-1,1)"
     id="rect6" />
  <rect
     style="fill:#4c566a;fill-opacity:1"
     width="12"
     height="15"
     x="-18"
     y="2"
     rx=".75"
     ry=".75"
     transform="scale(-1,1)"
     id="rect8" />
  <circle
     style="fill:#3f3f3f"
     cx="12"
     cy="8"
     r="4"
     id="circle10" />
  <circle
     style="opacity:0.2"
     cx="12"
     cy="8.5"
     r="3"
     id="circle12" />
  <circle
     style="fill:#636363"
     cx="12"
     cy="8"
     r="3"
     id="circle14" />
  <circle
     style="fill:#3f3f3f"
     cx="12"
     cy="8"
     r="1"
     id="circle16" />
  <rect
     style="fill:#4f4f4f"
     width="2"
     height="8"
     x="20"
     y="-16"
     rx="1"
     ry="1"
     transform="rotate(90)"
     id="rect18" />
  <path
     style="opacity:0.1;fill:#ffffff"
     d="M 6.75,2 C 6.3345,2 6,2.3345 6,2.75 v 0.5 C 6,2.8345 6.3345,2.5 6.75,2.5 h 10.5 C 17.6655,2.5 18,2.8345 18,3.25 V 2.75 C 18,2.3345 17.6655,2 17.25,2 Z"
     id="path20" />
  <circle
     style="opacity:0.4"
     cx="7.5"
     cy="3.5"
     r=".5"
     id="circle22" />
  <circle
     style="opacity:0.4"
     cx="16.5"
     cy="3.5"
     r=".5"
     id="circle24" />
  <circle
     style="opacity:0.4"
     cx="7.5"
     cy="15.5"
     r=".5"
     id="circle26" />
  <circle
     style="opacity:0.4"
     cx="16.5"
     cy="15.5"
     r=".5"
     id="circle28" />
  <path
     style="opacity:0.1;fill:#ffffff"
     d="M 12 5 A 3 3 0 0 0 9 8 A 3 3 0 0 0 9.0136719 8.2558594 A 3 3 0 0 1 12 5.5 A 3 3 0 0 1 14.986328 8.2441406 A 3 3 0 0 0 15 8 A 3 3 0 0 0 12 5 z"
     id="path30" />
</svg>
