<?xml version="1.0" encoding="UTF-8" standalone="no"?>
<svg
   xmlns:dc="http://purl.org/dc/elements/1.1/"
   xmlns:cc="http://creativecommons.org/ns#"
   xmlns:rdf="http://www.w3.org/1999/02/22-rdf-syntax-ns#"
   xmlns:svg="http://www.w3.org/2000/svg"
   xmlns="http://www.w3.org/2000/svg"
   xmlns:sodipodi="http://sodipodi.sourceforge.net/DTD/sodipodi-0.dtd"
   xmlns:inkscape="http://www.inkscape.org/namespaces/inkscape"
   width="24"
   height="24"
   version="1"
   id="svg14"
   sodipodi:docname="input-tablet.svg"
   inkscape:version="0.92.5 (2060ec1f9f, 2020-04-08)">
  <metadata
     id="metadata20">
    <rdf:RDF>
      <cc:Work
         rdf:about="">
        <dc:format>image/svg+xml</dc:format>
        <dc:type
           rdf:resource="http://purl.org/dc/dcmitype/StillImage" />
      </cc:Work>
    </rdf:RDF>
  </metadata>
  <defs
     id="defs18" />
  <sodipodi:namedview
     pagecolor="#ffffff"
     bordercolor="#666666"
     borderopacity="1"
     objecttolerance="10"
     gridtolerance="10"
     guidetolerance="10"
     inkscape:pageopacity="0"
     inkscape:pageshadow="2"
     inkscape:window-width="783"
     inkscape:window-height="480"
     id="namedview16"
     showgrid="false"
     inkscape:zoom="9.8333333"
     inkscape:cx="12.661017"
     inkscape:cy="12"
     inkscape:current-layer="svg14"
     inkscape:window-x="0"
     inkscape:window-y="28"
     inkscape:window-maximized="0" />
  <rect
     style="opacity:0.2"
     width="20"
     height="16"
     x="2"
     y="4.5"
     rx="1"
     ry="1"
     id="rect2" />
  <rect
     style="fill:#4c566a;fill-opacity:1"
     width="20"
     height="16"
     x="2"
     y="4"
     rx="1"
     ry="1"
     id="rect4" />
  <circle
     style="fill:#5f697d;fill-opacity:1;stroke-width:0.87057012"
     cx="18.313559"
     cy="18.008474"
     r="4.7881355"
     id="circle6" />
  <path
     style="fill:#ffffff;stroke-width:0.87057012"
     d="m 16.137134,18.950432 v 1.234643 h 1.234642 l 3.118383,-3.118383 -1.234468,-1.234468 z"
     id="path8"
     inkscape:connector-curvature="0" />
  <path
     style="fill:#ffffff;opacity:0.1"
     d="M 3 4 C 2.446 4 2 4.446 2 5 L 2 19 C 2 19.554 2.446 20 3 20 L 5 20 L 5 4 L 3 4 z"
     id="path10" />
  <path
     style="fill:#ffffff;opacity:0.1"
     d="M 3 4 C 2.446 4 2 4.446 2 5 L 2 5.5 C 2 4.946 2.446 4.5 3 4.5 L 21 4.5 C 21.554 4.5 22 4.946 22 5.5 L 22 5 C 22 4.446 21.554 4 21 4 L 3 4 z"
     id="path12" />
</svg>
