<?xml version="1.0" encoding="UTF-8" standalone="no"?>
<svg
   xmlns:dc="http://purl.org/dc/elements/1.1/"
   xmlns:cc="http://creativecommons.org/ns#"
   xmlns:rdf="http://www.w3.org/1999/02/22-rdf-syntax-ns#"
   xmlns:svg="http://www.w3.org/2000/svg"
   xmlns="http://www.w3.org/2000/svg"
   xmlns:sodipodi="http://sodipodi.sourceforge.net/DTD/sodipodi-0.dtd"
   xmlns:inkscape="http://www.inkscape.org/namespaces/inkscape"
   width="24"
   height="24"
   version="1"
   id="svg62"
   sodipodi:docname="input-dialpad.svg"
   inkscape:version="0.92.5 (2060ec1f9f, 2020-04-08)">
  <metadata
     id="metadata68">
    <rdf:RDF>
      <cc:Work
         rdf:about="">
        <dc:format>image/svg+xml</dc:format>
        <dc:type
           rdf:resource="http://purl.org/dc/dcmitype/StillImage" />
      </cc:Work>
    </rdf:RDF>
  </metadata>
  <defs
     id="defs66" />
  <sodipodi:namedview
     pagecolor="#ffffff"
     bordercolor="#666666"
     borderopacity="1"
     objecttolerance="10"
     gridtolerance="10"
     guidetolerance="10"
     inkscape:pageopacity="0"
     inkscape:pageshadow="2"
     inkscape:window-width="783"
     inkscape:window-height="480"
     id="namedview64"
     showgrid="false"
     inkscape:zoom="19.666667"
     inkscape:cx="10.527155"
     inkscape:cy="5.7584947"
     inkscape:current-layer="svg62"
     inkscape:window-x="0"
     inkscape:window-y="28"
     inkscape:window-maximized="0" />
  <rect
     style="opacity:0.2"
     width="15"
     height="19"
     x="4"
     y="2.5"
     rx="1"
     ry="1"
     id="rect2" />
  <rect
     style="fill:#4c566a;fill-opacity:1"
     width="15"
     height="19"
     x="4"
     y="2"
     rx="1"
     ry="1"
     id="rect4" />
  <g
     style="opacity:0.2"
     transform="translate(0,0.5)"
     id="g30">
    <rect
       width="3"
       height="3"
       x="10"
       y="8"
       rx=".5"
       ry=".5"
       id="rect6" />
    <rect
       width="3"
       height="3"
       x="14"
       y="8"
       rx=".5"
       ry=".5"
       id="rect8" />
    <rect
       width="3"
       height="3"
       x="6"
       y="8"
       rx=".5"
       ry=".5"
       id="rect10" />
    <rect
       width="3"
       height="3"
       x="10"
       y="4"
       rx=".5"
       ry=".5"
       id="rect12" />
    <rect
       width="3"
       height="3"
       x="14"
       y="4"
       rx=".5"
       ry=".5"
       id="rect14" />
    <rect
       width="3"
       height="3"
       x="6"
       y="4"
       rx=".5"
       ry=".5"
       id="rect16" />
    <rect
       width="3"
       height="3"
       x="10"
       y="12"
       rx=".5"
       ry=".5"
       id="rect18" />
    <rect
       width="3"
       height="3"
       x="14"
       y="12"
       rx=".5"
       ry=".5"
       id="rect20" />
    <rect
       width="3"
       height="3"
       x="6"
       y="12"
       rx=".5"
       ry=".5"
       id="rect22" />
    <rect
       width="3"
       height="3"
       x="10"
       y="16"
       rx=".5"
       ry=".5"
       id="rect24" />
    <rect
       width="3"
       height="3"
       x="14"
       y="16"
       rx=".5"
       ry=".5"
       id="rect26" />
    <rect
       width="3"
       height="3"
       x="6"
       y="16"
       rx=".5"
       ry=".5"
       id="rect28" />
  </g>
  <g
     style="fill:#949aa6;fill-opacity:1"
     id="g52">
    <rect
       width="3"
       height="3"
       x="10"
       y="8"
       rx=".5"
       ry=".5"
       id="rect32"
       style="fill:#949aa6;fill-opacity:1" />
    <rect
       width="3"
       height="3"
       x="14"
       y="8"
       rx=".5"
       ry=".5"
       id="rect34"
       style="fill:#949aa6;fill-opacity:1" />
    <rect
       width="3"
       height="3"
       x="6"
       y="8"
       rx=".5"
       ry=".5"
       id="rect36"
       style="fill:#949aa6;fill-opacity:1" />
    <rect
       width="3"
       height="3"
       x="10"
       y="4"
       rx=".5"
       ry=".5"
       id="rect38"
       style="fill:#949aa6;fill-opacity:1" />
    <rect
       width="3"
       height="3"
       x="14"
       y="4"
       rx=".5"
       ry=".5"
       id="rect40"
       style="fill:#949aa6;fill-opacity:1" />
    <rect
       width="3"
       height="3"
       x="6"
       y="4"
       rx=".5"
       ry=".5"
       id="rect42"
       style="fill:#949aa6;fill-opacity:1" />
    <rect
       width="3"
       height="3"
       x="10"
       y="12"
       rx=".5"
       ry=".5"
       id="rect44"
       style="fill:#949aa6;fill-opacity:1" />
    <rect
       width="3"
       height="3"
       x="14"
       y="12"
       rx=".5"
       ry=".5"
       id="rect46"
       style="fill:#949aa6;fill-opacity:1" />
    <rect
       width="3"
       height="3"
       x="6"
       y="12"
       rx=".5"
       ry=".5"
       id="rect48"
       style="fill:#949aa6;fill-opacity:1" />
    <rect
       width="3"
       height="3"
       x="10"
       y="16"
       rx=".5"
       ry=".5"
       id="rect50"
       style="fill:#949aa6;fill-opacity:1" />
  </g>
  <rect
     style="fill:#ffffff;fill-opacity:1"
     width="3"
     height="3"
     x="14"
     y="16"
     rx=".5"
     ry=".5"
     id="rect54" />
  <rect
     style="fill:#ffffff;fill-opacity:1"
     width="3"
     height="3"
     x="6"
     y="16"
     rx=".5"
     ry=".5"
     id="rect56" />
  <path
     style="fill:#ffffff;opacity:0.1"
     d="M 5 2 C 4.446 2 4 2.446 4 3 L 4 3.5 C 4 2.946 4.446 2.5 5 2.5 L 18 2.5 C 18.554 2.5 19 2.946 19 3.5 L 19 3 C 19 2.446 18.554 2 18 2 L 5 2 z"
     id="path58" />
  <path
     style="opacity:0.2;fill:#ffffff"
     d="M 6.5 4 C 6.223 4 6 4.223 6 4.5 L 6 5 C 6 4.723 6.223 4.5 6.5 4.5 L 8.5 4.5 C 8.777 4.5 9 4.723 9 5 L 9 4.5 C 9 4.223 8.777 4 8.5 4 L 6.5 4 z M 10.5 4 C 10.223 4 10 4.223 10 4.5 L 10 5 C 10 4.723 10.223 4.5 10.5 4.5 L 12.5 4.5 C 12.777 4.5 13 4.723 13 5 L 13 4.5 C 13 4.223 12.777 4 12.5 4 L 10.5 4 z M 14.5 4 C 14.223 4 14 4.223 14 4.5 L 14 5 C 14 4.723 14.223 4.5 14.5 4.5 L 16.5 4.5 C 16.777 4.5 17 4.723 17 5 L 17 4.5 C 17 4.223 16.777 4 16.5 4 L 14.5 4 z M 6.5 8 C 6.223 8 6 8.223 6 8.5 L 6 9 C 6 8.723 6.223 8.5 6.5 8.5 L 8.5 8.5 C 8.777 8.5 9 8.723 9 9 L 9 8.5 C 9 8.223 8.777 8 8.5 8 L 6.5 8 z M 10.5 8 C 10.223 8 10 8.223 10 8.5 L 10 9 C 10 8.723 10.223 8.5 10.5 8.5 L 12.5 8.5 C 12.777 8.5 13 8.723 13 9 L 13 8.5 C 13 8.223 12.777 8 12.5 8 L 10.5 8 z M 14.5 8 C 14.223 8 14 8.223 14 8.5 L 14 9 C 14 8.723 14.223 8.5 14.5 8.5 L 16.5 8.5 C 16.777 8.5 17 8.723 17 9 L 17 8.5 C 17 8.223 16.777 8 16.5 8 L 14.5 8 z M 6.5 12 C 6.223 12 6 12.223 6 12.5 L 6 13 C 6 12.723 6.223 12.5 6.5 12.5 L 8.5 12.5 C 8.777 12.5 9 12.723 9 13 L 9 12.5 C 9 12.223 8.777 12 8.5 12 L 6.5 12 z M 10.5 12 C 10.223 12 10 12.223 10 12.5 L 10 13 C 10 12.723 10.223 12.5 10.5 12.5 L 12.5 12.5 C 12.777 12.5 13 12.723 13 13 L 13 12.5 C 13 12.223 12.777 12 12.5 12 L 10.5 12 z M 14.5 12 C 14.223 12 14 12.223 14 12.5 L 14 13 C 14 12.723 14.223 12.5 14.5 12.5 L 16.5 12.5 C 16.777 12.5 17 12.723 17 13 L 17 12.5 C 17 12.223 16.777 12 16.5 12 L 14.5 12 z M 6.5 16 C 6.223 16 6 16.223 6 16.5 L 6 17 C 6 16.723 6.223 16.5 6.5 16.5 L 8.5 16.5 C 8.777 16.5 9 16.723 9 17 L 9 16.5 C 9 16.223 8.777 16 8.5 16 L 6.5 16 z M 10.5 16 C 10.223 16 10 16.223 10 16.5 L 10 17 C 10 16.723 10.223 16.5 10.5 16.5 L 12.5 16.5 C 12.777 16.5 13 16.723 13 17 L 13 16.5 C 13 16.223 12.777 16 12.5 16 L 10.5 16 z M 14.5 16 C 14.223 16 14 16.223 14 16.5 L 14 17 C 14 16.723 14.223 16.5 14.5 16.5 L 16.5 16.5 C 16.777 16.5 17 16.723 17 17 L 17 16.5 C 17 16.223 16.777 16 16.5 16 L 14.5 16 z"
     id="path60" />
</svg>
