<?xml version="1.0" encoding="UTF-8" standalone="no"?>
<svg
   xmlns:dc="http://purl.org/dc/elements/1.1/"
   xmlns:cc="http://creativecommons.org/ns#"
   xmlns:rdf="http://www.w3.org/1999/02/22-rdf-syntax-ns#"
   xmlns:svg="http://www.w3.org/2000/svg"
   xmlns="http://www.w3.org/2000/svg"
   xmlns:sodipodi="http://sodipodi.sourceforge.net/DTD/sodipodi-0.dtd"
   xmlns:inkscape="http://www.inkscape.org/namespaces/inkscape"
   width="24"
   height="24"
   version="1"
   id="svg50"
   sodipodi:docname="gnome-dev-keyboard.svg"
   inkscape:version="0.92.5 (2060ec1f9f, 2020-04-08)">
  <metadata
     id="metadata56">
    <rdf:RDF>
      <cc:Work
         rdf:about="">
        <dc:format>image/svg+xml</dc:format>
        <dc:type
           rdf:resource="http://purl.org/dc/dcmitype/StillImage" />
      </cc:Work>
    </rdf:RDF>
  </metadata>
  <defs
     id="defs54" />
  <sodipodi:namedview
     pagecolor="#ffffff"
     bordercolor="#666666"
     borderopacity="1"
     objecttolerance="10"
     gridtolerance="10"
     guidetolerance="10"
     inkscape:pageopacity="0"
     inkscape:pageshadow="2"
     inkscape:window-width="640"
     inkscape:window-height="480"
     id="namedview52"
     showgrid="false"
     inkscape:zoom="27.812867"
     inkscape:cx="9.6074636"
     inkscape:cy="12"
     inkscape:current-layer="svg50" />
  <rect
     style="fill:#4c566a;fill-opacity:1"
     width="14"
     height="20"
     x="-19"
     y="-22"
     rx="1"
     ry="1"
     transform="matrix(0,-1,-1,0,0,0)"
     id="rect2" />
  <path
     style="opacity:0.2"
     d="m 8.9640454,12.924727 a 1,1 0 0 1 -1,1 1,1 0 0 1 -1,-1 1,1 0 0 1 1,-1 1,1 0 0 1 1,1 z"
     id="path4"
     inkscape:connector-curvature="0" />
  <path
     style="opacity:0.2"
     d="m 11.964045,12.924727 a 1,1 0 0 1 -1,1 1,1 0 0 1 -0.9999996,-1 1,1 0 0 1 0.9999996,-1 1,1 0 0 1 1,1 z"
     id="path6"
     inkscape:connector-curvature="0" />
  <path
     style="opacity:0.2"
     d="m 14.964045,12.924727 a 1,1 0 0 1 -1,1 1,1 0 0 1 -1,-1 1,1 0 0 1 1,-1 1,1 0 0 1 1,1 z"
     id="path8"
     inkscape:connector-curvature="0" />
  <path
     style="opacity:0.2"
     d="m 17.964045,12.924727 a 1,1 0 0 1 -1,1 1,1 0 0 1 -1,-1 1,1 0 0 1 1,-1 1,1 0 0 1 1,1 z"
     id="path10"
     inkscape:connector-curvature="0" />
  <rect
     style="opacity:0.2"
     width="14"
     height="2"
     x="5.0359535"
     y="15.352818"
     rx="0.46700001"
     ry="0.5"
     id="rect12" />
  <rect
     style="fill:#a5afc3;stroke-width:0.85459971;fill-opacity:1"
     width="14"
     height="1.4606813"
     x="5.0359545"
     y="15.352818"
     rx="0.46700001"
     ry="0.36517033"
     id="rect14" />
  <path
     style="opacity:0.2"
     d="m 15.964045,8.9247267 a 1,1 0 0 1 -1,1 1,1 0 0 1 -1,-1 1,1 0 0 1 1,-1 1,1 0 0 1 1,1 z"
     id="path16"
     inkscape:connector-curvature="0" />
  <path
     style="opacity:0.2"
     d="m 6.9640454,8.9247267 a 1,1 0 0 1 -1,1 1,1 0 0 1 -1,-1 1,1 0 0 1 1,-1 1,1 0 0 1 1,1 z"
     id="path18"
     inkscape:connector-curvature="0" />
  <path
     style="opacity:0.2"
     d="m 9.9640454,8.9247267 a 1,1 0 0 1 -1,1 1,1 0 0 1 -1,-1 1,1 0 0 1 1,-1 1,1 0 0 1 1,1 z"
     id="path20"
     inkscape:connector-curvature="0" />
  <path
     style="opacity:0.2"
     d="m 12.964045,8.9247267 a 1,1 0 0 1 -1,1 1,1 0 0 1 -1,-1 1,1 0 0 1 1,-1 1,1 0 0 1 1,1 z"
     id="path22"
     inkscape:connector-curvature="0" />
  <path
     style="opacity:0.2"
     d="m 18.964045,8.9247267 a 1,1 0 0 1 -1,1 1,1 0 0 1 -1,-1 1,1 0 0 1 1,-1 1,1 0 0 1 1,1 z"
     id="path24"
     inkscape:connector-curvature="0" />
  <g
     style="fill:#a5afc3;fill-opacity:1"
     id="g44"
     transform="translate(-0.03595458,-0.57527331)">
    <path
       d="M 9,13 A 1,1 0 0 1 8,14 1,1 0 0 1 7,13 1,1 0 0 1 8,12 1,1 0 0 1 9,13 Z"
       id="path26"
       inkscape:connector-curvature="0"
       style="fill:#a5afc3;fill-opacity:1" />
    <path
       d="m 12,13 a 1,1 0 0 1 -1,1 1,1 0 0 1 -1,-1 1,1 0 0 1 1,-1 1,1 0 0 1 1,1 z"
       id="path28"
       inkscape:connector-curvature="0"
       style="fill:#a5afc3;fill-opacity:1" />
    <path
       d="m 15,13 a 1,1 0 0 1 -1,1 1,1 0 0 1 -1,-1 1,1 0 0 1 1,-1 1,1 0 0 1 1,1 z"
       id="path30"
       inkscape:connector-curvature="0"
       style="fill:#a5afc3;fill-opacity:1" />
    <path
       d="m 18,13 a 1,1 0 0 1 -1,1 1,1 0 0 1 -1,-1 1,1 0 0 1 1,-1 1,1 0 0 1 1,1 z"
       id="path32"
       inkscape:connector-curvature="0"
       style="fill:#a5afc3;fill-opacity:1" />
    <path
       d="m 16,9 a 1,1 0 0 1 -1,1 1,1 0 0 1 -1,-1 1,1 0 0 1 1,-1 1,1 0 0 1 1,1 z"
       id="path34"
       inkscape:connector-curvature="0"
       style="fill:#a5afc3;fill-opacity:1" />
    <path
       d="M 7,9 A 1,1 0 0 1 6,10 1,1 0 0 1 5,9 1,1 0 0 1 6,8 1,1 0 0 1 7,9 Z"
       id="path36"
       inkscape:connector-curvature="0"
       style="fill:#a5afc3;fill-opacity:1" />
    <path
       d="M 10,9 A 1,1 0 0 1 9,10 1,1 0 0 1 8,9 1,1 0 0 1 9,8 1,1 0 0 1 10,9 Z"
       id="path38"
       inkscape:connector-curvature="0"
       style="fill:#a5afc3;fill-opacity:1" />
    <path
       d="m 13,9 a 1,1 0 0 1 -1,1 1,1 0 0 1 -1,-1 1,1 0 0 1 1,-1 1,1 0 0 1 1,1 z"
       id="path40"
       inkscape:connector-curvature="0"
       style="fill:#a5afc3;fill-opacity:1" />
    <path
       d="m 19,9 a 1,1 0 0 1 -1,1 1,1 0 0 1 -1,-1 1,1 0 0 1 1,-1 1,1 0 0 1 1,1 z"
       id="path42"
       inkscape:connector-curvature="0"
       style="fill:#a5afc3;fill-opacity:1" />
  </g>
  <path
     style="opacity:0.1;fill:#ffffff"
     d="M 3,5 C 2.446,5 2,5.446 2,6 l 0,0.5 c 0,-0.554 0.446,-1 1,-1 l 18,0 c 0.554,0 1,0.446 1,1 L 22,6 C 22,5.446 21.554,5 21,5 L 3,5 Z"
     id="path46" />
  <path
     style="opacity:0.2"
     d="m 2,18 0,0.5 c 0,0.554 0.446,1 1,1 l 18,0 c 0.554,0 1,-0.446 1,-1 L 22,18 c 0,0.554 -0.446,1 -1,1 L 3,19 C 2.446,19 2,18.554 2,18 Z"
     id="path48" />
</svg>
