<?xml version="1.0" encoding="UTF-8" standalone="no"?>
<svg
   xmlns:dc="http://purl.org/dc/elements/1.1/"
   xmlns:cc="http://creativecommons.org/ns#"
   xmlns:rdf="http://www.w3.org/1999/02/22-rdf-syntax-ns#"
   xmlns:svg="http://www.w3.org/2000/svg"
   xmlns="http://www.w3.org/2000/svg"
   xmlns:sodipodi="http://sodipodi.sourceforge.net/DTD/sodipodi-0.dtd"
   xmlns:inkscape="http://www.inkscape.org/namespaces/inkscape"
   width="24"
   height="24"
   version="1"
   id="svg60"
   sodipodi:docname="media-memory.svg"
   inkscape:version="0.92.5 (2060ec1f9f, 2020-04-08)">
  <metadata
     id="metadata66">
    <rdf:RDF>
      <cc:Work
         rdf:about="">
        <dc:format>image/svg+xml</dc:format>
        <dc:type
           rdf:resource="http://purl.org/dc/dcmitype/StillImage" />
      </cc:Work>
    </rdf:RDF>
  </metadata>
  <defs
     id="defs64" />
  <sodipodi:namedview
     pagecolor="#ffffff"
     bordercolor="#666666"
     borderopacity="1"
     objecttolerance="10"
     gridtolerance="10"
     guidetolerance="10"
     inkscape:pageopacity="0"
     inkscape:pageshadow="2"
     inkscape:window-width="640"
     inkscape:window-height="480"
     id="namedview62"
     showgrid="false"
     inkscape:zoom="9.8333333"
     inkscape:cx="-7.8305085"
     inkscape:cy="12"
     inkscape:current-layer="svg60" />
  <g
     style="fill:#8e8e8e"
     id="g34">
    <rect
       width="1"
       height="17"
       x="14"
       y="-21"
       transform="rotate(90)"
       id="rect2" />
    <rect
       width="1"
       height="17"
       x="12"
       y="-21"
       transform="rotate(90)"
       id="rect4" />
    <rect
       width="1"
       height="17"
       x="10"
       y="-21"
       transform="rotate(90)"
       id="rect6" />
    <rect
       width="1"
       height="17"
       x="8"
       y="-21"
       transform="rotate(90)"
       id="rect8" />
    <rect
       width="1"
       height="17"
       x="16"
       y="-21"
       transform="rotate(90)"
       id="rect10" />
    <rect
       width="1"
       height="17"
       x="18"
       y="-21"
       transform="rotate(90)"
       id="rect12" />
    <rect
       width="1"
       height="17"
       x="20"
       y="-21"
       transform="rotate(90)"
       id="rect14" />
    <rect
       width="1"
       height="17"
       x="6"
       y="-21"
       transform="rotate(90)"
       id="rect16" />
    <rect
       width="1"
       height="17"
       x="4"
       y="-21"
       transform="rotate(90)"
       id="rect18" />
    <rect
       width="1"
       height="20"
       x="12"
       y="2"
       id="rect20" />
    <rect
       width="1"
       height="20"
       x="10"
       y="2"
       id="rect22" />
    <rect
       width="1"
       height="20"
       x="8"
       y="2"
       id="rect24" />
    <rect
       width="1"
       height="20"
       x="6"
       y="2"
       id="rect26" />
    <rect
       width="1"
       height="20"
       x="14"
       y="2"
       id="rect28" />
    <rect
       width="1"
       height="20"
       x="16"
       y="2"
       id="rect30" />
    <rect
       width="1"
       height="20"
       x="18"
       y="2"
       id="rect32" />
  </g>
  <rect
     style="opacity:0.2"
     width="15"
     height="18"
     x="5"
     y="3.5"
     rx="1"
     ry="1"
     id="rect36" />
  <rect
     style="fill:#4c566a;fill-opacity:1"
     width="15"
     height="18"
     x="5"
     y="3"
     rx="1"
     ry="1"
     id="rect38" />
  <path
     style="opacity:0.1;fill:#ffffff"
     d="M 6,3 C 5.446,3 5,3.446 5,4 V 4.5 C 5,3.946 5.446,3.5 6,3.5 H 19 C 19.554,3.5 20,3.946 20,4.5 V 4 C 20,3.446 19.554,3 19,3 Z"
     id="path40" />
  <g
     style="opacity:0.4;fill:#ffffff"
     id="g58">
    <rect
       width="1"
       height="2"
       x="9"
       y="6"
       id="rect42" />
    <rect
       width="1"
       height="2"
       x="9"
       y="9"
       id="rect44" />
    <rect
       width="1"
       height="4"
       x="9"
       y="12"
       id="rect46" />
    <rect
       width="1"
       height="5"
       x="12"
       y="6"
       id="rect48" />
    <rect
       width="1"
       height="5"
       x="12"
       y="12"
       id="rect50" />
    <rect
       width="1"
       height="4"
       x="15"
       y="6"
       id="rect52" />
    <rect
       width="1"
       height="2"
       x="15"
       y="11"
       id="rect54" />
    <rect
       width="1"
       height="5"
       x="15"
       y="14"
       id="rect56" />
  </g>
</svg>
