<?xml version="1.0" encoding="UTF-8" standalone="no"?>
<svg
   xmlns:dc="http://purl.org/dc/elements/1.1/"
   xmlns:cc="http://creativecommons.org/ns#"
   xmlns:rdf="http://www.w3.org/1999/02/22-rdf-syntax-ns#"
   xmlns:svg="http://www.w3.org/2000/svg"
   xmlns="http://www.w3.org/2000/svg"
   xmlns:sodipodi="http://sodipodi.sourceforge.net/DTD/sodipodi-0.dtd"
   xmlns:inkscape="http://www.inkscape.org/namespaces/inkscape"
   width="24"
   height="24"
   version="1.1"
   id="svg34"
   sodipodi:docname="media-tape.svg"
   inkscape:version="0.92.5 (2060ec1f9f, 2020-04-08)">
  <metadata
     id="metadata40">
    <rdf:RDF>
      <cc:Work
         rdf:about="">
        <dc:format>image/svg+xml</dc:format>
        <dc:type
           rdf:resource="http://purl.org/dc/dcmitype/StillImage" />
      </cc:Work>
    </rdf:RDF>
  </metadata>
  <defs
     id="defs38" />
  <sodipodi:namedview
     pagecolor="#ffffff"
     bordercolor="#666666"
     borderopacity="1"
     objecttolerance="10"
     gridtolerance="10"
     guidetolerance="10"
     inkscape:pageopacity="0"
     inkscape:pageshadow="2"
     inkscape:window-width="640"
     inkscape:window-height="480"
     id="namedview36"
     showgrid="false"
     inkscape:zoom="9.8333333"
     inkscape:cx="-7.8305085"
     inkscape:cy="12"
     inkscape:current-layer="g32" />
  <g
     transform="translate(0,-1098.5197)"
     id="g32">
    <path
       style="opacity:0.2"
       d="m 7.9091797,1109.0196 c -1.057472,0 -1.9091795,0.8908 -1.9091795,1.9971 v 0.01 c 0,1.1063 0.8517075,1.997 1.9091795,1.997 H 16.09082 c 1.057474,0 1.90918,-0.8907 1.90918,-1.997 v -0.01 c 0,-1.1064 -0.851706,-1.9971 -1.90918,-1.9971 z m 0.090821,0.5 c 0.8284271,0 1.5,0.6716 1.5,1.5 0,0.8284 -0.6715729,1.5 -1.5,1.5 -0.8284272,0 -1.5000001,-0.6716 -1.5000001,-1.5 0,-0.8284 0.6715729,-1.5 1.5000001,-1.5 z m 7.9999993,0 c 0.828427,0 1.5,0.6716 1.5,1.5 0,0.8284 -0.671573,1.5 -1.5,1.5 -0.828427,0 -1.5,-0.6716 -1.5,-1.5 0,-0.8284 0.671573,-1.5 1.5,-1.5 z"
       id="path2" />
    <path
       style="opacity:0.2"
       d="m 2,1116.8547 v 0.5 c 0,0.9222 0.6959893,1.665 1.5605469,1.665 H 20.439453 c 0.864557,0 1.560547,-0.7428 1.560547,-1.665 v -0.5 c 0,0.9222 -0.69599,1.665 -1.560547,1.665 H 3.5605469 C 2.6959893,1118.5197 2,1117.7769 2,1116.8547 Z"
       id="path4" />
    <path
       style="fill:#4c566a;fill-opacity:1"
       transform="translate(0,1098.5197)"
       d="M 3.5605469 4 C 2.6959894 4 2 4.7419625 2 5.6640625 L 2 18.335938 C 2 19.258137 2.6959894 20 3.5605469 20 L 20.439453 20 C 21.30401 20 22 19.258137 22 18.335938 L 22 5.6640625 C 22 4.7419625 21.30401 4 20.439453 4 L 3.5605469 4 z M 7.5 10.25 A 1.75 1.75 0 0 1 8.5566406 10.607422 A 1.5 1.5 0 0 1 9.5 12 A 1.5 1.5 0 0 1 8.5625 13.388672 A 1.75 1.75 0 0 1 7.5 13.75 A 1.75 1.75 0 0 1 5.75 12 A 1.75 1.75 0 0 1 7.5 10.25 z M 16.5 10.25 A 1.75 1.75 0 0 1 18.25 12 A 1.75 1.75 0 0 1 16.5 13.75 A 1.75 1.75 0 0 1 15.443359 13.392578 A 1.5 1.5 0 0 1 14.5 12 A 1.5 1.5 0 0 1 15.4375 10.611328 A 1.75 1.75 0 0 1 16.5 10.25 z"
       id="path6" />
    <path
       style="fill:#262b33;fill-opacity:1"
       transform="translate(0,1098.5197)"
       d="M 4.8027344 6 C 4.3579455 6 4 6.4305969 4 6.9667969 L 4 10 L 20 10 L 20 6.9667969 C 20 6.4305969 19.642053 6 19.197266 6 L 4.8027344 6 z"
       id="path8" />
    <path
       style="opacity:0.2"
       transform="translate(0,1098.5197)"
       d="M 4 15.089844 L 4 15.589844 C 4 16.094444 4.3579455 16.5 4.8027344 16.5 L 19.197266 16.5 C 19.642053 16.5 20 16.094444 20 15.589844 L 20 15.089844 C 20 15.594444 19.642053 16 19.197266 16 L 4.8027344 16 C 4.3579455 16 4 15.594444 4 15.089844 z"
       id="path10" />
    <path
       style="fill:#303643;fill-opacity:1"
       transform="translate(0,1098.5197)"
       d="M 4 10 L 4 15.089844 C 4 15.594444 4.3579455 16 4.8027344 16 L 19.197266 16 C 19.642053 16 20 15.594444 20 15.089844 L 20 10 L 4 10 z M 8 10.5 A 1.5 1.5 0 0 1 9.5 12 A 1.5 1.5 0 0 1 8 13.5 A 1.5 1.5 0 0 1 6.5 12 A 1.5 1.5 0 0 1 8 10.5 z M 16 10.5 A 1.5 1.5 0 0 1 17.5 12 A 1.5 1.5 0 0 1 16 13.5 A 1.5 1.5 0 0 1 14.5 12 A 1.5 1.5 0 0 1 16 10.5 z"
       id="path12" />
    <path
       style="fill:#4c566a;fill-opacity:1"
       d="m 3.4999991,1118.5197 1.9999994,-3.5 H 18.499999 l 2,3.5 z"
       id="path14" />
    <circle
       style="opacity:0.4"
       cx="7"
       cy="1116.52"
       r="1"
       id="circle16" />
    <circle
       style="opacity:0.4"
       cx="17"
       cy="1116.52"
       r="1"
       id="circle18" />
    <path
       style="fill:#3f3f3f"
       d="m 7.9091797,1108.5197 c -1.057472,0 -1.9091795,0.8908 -1.9091795,1.9971 v 0.01 c 0,1.1063 0.8517075,1.997 1.9091795,1.997 H 16.09082 c 1.057474,0 1.90918,-0.8907 1.90918,-1.997 v -0.01 c 0,-1.1064 -0.851706,-1.9971 -1.90918,-1.9971 z m 0.090821,0.5 c 0.8284271,0 1.5,0.6716 1.5,1.5 0,0.8284 -0.6715729,1.5 -1.5,1.5 -0.8284272,0 -1.5000001,-0.6716 -1.5000001,-1.5 0,-0.8284 0.6715729,-1.5 1.5000001,-1.5 z m 7.9999993,0 c 0.828427,0 1.5,0.6716 1.5,1.5 0,0.8284 -0.671573,1.5 -1.5,1.5 -0.828427,0 -1.5,-0.6716 -1.5,-1.5 0,-0.8284 0.671573,-1.5 1.5,-1.5 z"
       id="path20" />
    <path
       style="fill:#cccccc"
       d="m 10,1109.5197 h 4 v 2 h -4 z"
       id="path22" />
    <path
       style="fill:#585858;fill-opacity:1"
       d="m 9.9999998,1109.5197 v 2 h 1.8255982 c 0.114652,-0.321 0.173766,-0.6592 0.174803,-1 -10e-4,-0.3408 -0.06015,-0.679 -0.174803,-1 z"
       id="path24" />
    <path
       style="opacity:0.1;fill:#ffffff"
       d="M 3.5605469,1102.5197 C 2.6959894,1102.5197 2,1103.2626 2,1104.1847 v 0.5 c 0,-0.9221 0.6959894,-1.665 1.5605469,-1.665 H 20.439453 c 0.864557,0 1.560547,0.7429 1.560547,1.665 v -0.5 c 0,-0.9221 -0.69599,-1.665 -1.560547,-1.665 z"
       id="path26" />
    <path
       style="fill:#ffffff;opacity:0.1"
       transform="translate(0,1098.5197)"
       d="M 5.5 16.5 L 3.5 20 L 3.7851562 20 L 5.5 17 L 18.5 17 L 20.214844 20 L 20.5 20 L 18.5 16.5 L 5.5 16.5 z"
       id="path28" />
    <rect
       style="opacity:0.2"
       width="4"
       height=".5"
       x="10"
       y="1109.52"
       id="rect30" />
  </g>
</svg>
