<?xml version="1.0" encoding="UTF-8" standalone="no"?>
<svg
   xmlns:dc="http://purl.org/dc/elements/1.1/"
   xmlns:cc="http://creativecommons.org/ns#"
   xmlns:rdf="http://www.w3.org/1999/02/22-rdf-syntax-ns#"
   xmlns:svg="http://www.w3.org/2000/svg"
   xmlns="http://www.w3.org/2000/svg"
   xmlns:sodipodi="http://sodipodi.sourceforge.net/DTD/sodipodi-0.dtd"
   xmlns:inkscape="http://www.inkscape.org/namespaces/inkscape"
   width="24"
   height="24"
   version="1"
   id="svg10"
   sodipodi:docname="gnome-dev-cdrom-audio.svg"
   inkscape:version="0.92.5 (2060ec1f9f, 2020-04-08)">
  <metadata
     id="metadata16">
    <rdf:RDF>
      <cc:Work
         rdf:about="">
        <dc:format>image/svg+xml</dc:format>
        <dc:type
           rdf:resource="http://purl.org/dc/dcmitype/StillImage" />
      </cc:Work>
    </rdf:RDF>
  </metadata>
  <defs
     id="defs14" />
  <sodipodi:namedview
     pagecolor="#ffffff"
     bordercolor="#666666"
     borderopacity="1"
     objecttolerance="10"
     gridtolerance="10"
     guidetolerance="10"
     inkscape:pageopacity="0"
     inkscape:pageshadow="2"
     inkscape:window-width="640"
     inkscape:window-height="480"
     id="namedview12"
     showgrid="false"
     inkscape:zoom="9.8333333"
     inkscape:cx="-7.8305085"
     inkscape:cy="12"
     inkscape:current-layer="svg10" />
  <path
     style="opacity:0.2"
     d="M 12,2.5 A 10,10 0 0 0 2,12.5 10,10 0 0 0 12,22.5 10,10 0 0 0 22,12.5 10,10 0 0 0 12,2.5 Z M 12,8.5 A 4,4 0 0 1 16,12.5 4,4 0 0 1 12,16.5 4,4 0 0 1 8,12.5 4,4 0 0 1 12,8.5 Z"
     id="path2" />
  <path
     style="fill:#9ea2aa;fill-opacity:0.78431374"
     d="M 12 7 A 5 5 0 0 0 7 12 A 5 5 0 0 0 12 17 A 5 5 0 0 0 17 12 A 5 5 0 0 0 12 7 z M 12 10 A 2 2 0 0 1 14 12 A 2 2 0 0 1 12 14 A 2 2 0 0 1 10 12 A 2 2 0 0 1 12 10 z"
     id="path4" />
  <path
     style="fill:#4c566a;fill-opacity:1"
     d="M 12 2 A 10 10 0 0 0 2 12 A 10 10 0 0 0 12 22 A 10 10 0 0 0 22 12 A 10 10 0 0 0 12 2 z M 12 8 A 4 4 0 0 1 16 12 A 4 4 0 0 1 12 16 A 4 4 0 0 1 8 12 A 4 4 0 0 1 12 8 z"
     id="path6" />
  <path
     style="opacity:0.2;fill:#ffffff"
     d="M 12,2 A 10,10 0 0 0 2,12 10,10 0 0 0 2.0098,12.207 10,10 0 0 1 12,2.5 10,10 0 0 1 21.99,12.293 10,10 0 0 0 22,12 10,10 0 0 0 12,2 Z"
     id="path8" />
</svg>
