<?xml version="1.0" encoding="UTF-8" standalone="no"?>
<svg
   xmlns:dc="http://purl.org/dc/elements/1.1/"
   xmlns:cc="http://creativecommons.org/ns#"
   xmlns:rdf="http://www.w3.org/1999/02/22-rdf-syntax-ns#"
   xmlns:svg="http://www.w3.org/2000/svg"
   xmlns="http://www.w3.org/2000/svg"
   xmlns:sodipodi="http://sodipodi.sourceforge.net/DTD/sodipodi-0.dtd"
   xmlns:inkscape="http://www.inkscape.org/namespaces/inkscape"
   width="24"
   height="24"
   version="1"
   id="svg18"
   sodipodi:docname="media-floppy-3_5.svg"
   inkscape:version="0.92.5 (2060ec1f9f, 2020-04-08)">
  <metadata
     id="metadata24">
    <rdf:RDF>
      <cc:Work
         rdf:about="">
        <dc:format>image/svg+xml</dc:format>
        <dc:type
           rdf:resource="http://purl.org/dc/dcmitype/StillImage" />
      </cc:Work>
    </rdf:RDF>
  </metadata>
  <defs
     id="defs22" />
  <sodipodi:namedview
     pagecolor="#ffffff"
     bordercolor="#666666"
     borderopacity="1"
     objecttolerance="10"
     gridtolerance="10"
     guidetolerance="10"
     inkscape:pageopacity="0"
     inkscape:pageshadow="2"
     inkscape:window-width="640"
     inkscape:window-height="480"
     id="namedview20"
     showgrid="false"
     inkscape:zoom="9.8333333"
     inkscape:cx="-47.491525"
     inkscape:cy="12"
     inkscape:current-layer="svg18" />
  <rect
     style="opacity:0.2"
     width="20"
     height="20"
     x="-22.5"
     y="-22"
     rx="1"
     ry="1"
     transform="matrix(0,-1,-1,0,0,0)"
     id="rect2" />
  <rect
     style="fill:#4c566a;fill-opacity:1"
     width="20"
     height="20"
     x="-22"
     y="-22"
     rx="1"
     ry="1"
     transform="matrix(0,-1,-1,0,0,0)"
     id="rect4" />
  <rect
     style="opacity:0.2"
     width="16"
     height="9"
     x="4"
     y="11.5"
     rx="1"
     ry="1"
     id="rect6" />
  <rect
     style="fill:#949aa6;fill-opacity:1"
     width="16"
     height="9"
     x="4"
     y="11"
     rx="1"
     ry="1"
     id="rect8" />
  <path
     style="fill:#4c566a;fill-opacity:1"
     d="M 20,17.5 V 19 C 20,19.554 19.554,20 19,20 H 5 C 4.446,20 4,19.554 4,19 V 17.5 Z"
     id="path10" />
  <path
     style="opacity:0.2"
     d="M 8,2.5 V 8.5 C 8,9.054 8.446,9.5 9,9.5 H 19 C 19.554,9.5 20,9.054 20,8.5 V 2.5 Z M 15.5,3.5 H 18 C 18.277,3.5 18.5,3.723 18.5,4 V 7.5 C 18.5,7.777 18.277,8 18,8 H 15.5 C 15.223,8 15,7.777 15,7.5 V 4 C 15,3.723 15.223,3.5 15.5,3.5 Z"
     id="path12" />
  <path
     style="fill:#949aa6;fill-opacity:1"
     d="M 8,2 V 8 C 8,8.554 8.446,9 9,9 H 19 C 19.554,9 20,8.554 20,8 V 2 Z M 15.5,3 H 18 C 18.277,3 18.5,3.223 18.5,3.5 V 7 C 18.5,7.277 18.277,7.5 18,7.5 H 15.5 C 15.223,7.5 15,7.277 15,7 V 3.5 C 15,3.223 15.223,3 15.5,3 Z"
     id="path14" />
  <path
     style="opacity:0.1;fill:#ffffff"
     d="M 3,2 C 2.446,2 2,2.446 2,3 V 3.5 C 2,2.946 2.446,2.5 3,2.5 H 21 C 21.554,2.5 22,2.946 22,3.5 V 3 C 22,2.446 21.554,2 21,2 Z"
     id="path16" />
</svg>
