<?xml version="1.0" encoding="UTF-8" standalone="no"?>
<svg
   xmlns:dc="http://purl.org/dc/elements/1.1/"
   xmlns:cc="http://creativecommons.org/ns#"
   xmlns:rdf="http://www.w3.org/1999/02/22-rdf-syntax-ns#"
   xmlns:svg="http://www.w3.org/2000/svg"
   xmlns="http://www.w3.org/2000/svg"
   xmlns:sodipodi="http://sodipodi.sourceforge.net/DTD/sodipodi-0.dtd"
   xmlns:inkscape="http://www.inkscape.org/namespaces/inkscape"
   width="24"
   height="24"
   version="1.1"
   id="svg82"
   sodipodi:docname="network-server-database.svg"
   inkscape:version="0.92.5 (2060ec1f9f, 2020-04-08)">
  <metadata
     id="metadata88">
    <rdf:RDF>
      <cc:Work
         rdf:about="">
        <dc:format>image/svg+xml</dc:format>
        <dc:type
           rdf:resource="http://purl.org/dc/dcmitype/StillImage" />
      </cc:Work>
    </rdf:RDF>
  </metadata>
  <defs
     id="defs86" />
  <sodipodi:namedview
     pagecolor="#ffffff"
     bordercolor="#666666"
     borderopacity="1"
     objecttolerance="10"
     gridtolerance="10"
     guidetolerance="10"
     inkscape:pageopacity="0"
     inkscape:pageshadow="2"
     inkscape:window-width="783"
     inkscape:window-height="480"
     id="namedview84"
     showgrid="false"
     inkscape:zoom="9.8333333"
     inkscape:cx="11.83125"
     inkscape:cy="6.6789969"
     inkscape:current-layer="svg82"
     inkscape:window-x="0"
     inkscape:window-y="28"
     inkscape:window-maximized="0" />
  <g
     id="g26">
    <rect
       style="opacity:0.2"
       width="6"
       height="20"
       x="-21.5"
       y="-22"
       rx="1"
       ry="1"
       transform="matrix(0,-1,-1,0,0,0)"
       id="rect2" />
    <rect
       style="fill:#4c566a;fill-opacity:1"
       width="6"
       height="20"
       x="-21"
       y="-22"
       rx="1"
       ry="1"
       transform="matrix(0,-1,-1,0,0,0)"
       id="rect4" />
    <path
       style="opacity:0.5;stroke:#000000;stroke-linecap:round"
       d="M 8.5,16.5 7.5,19.5"
       id="path6" />
    <path
       style="opacity:0.5;stroke:#000000;stroke-linecap:round"
       d="M 6.5,16.5 5.5,19.5"
       id="path8" />
    <path
       style="opacity:0.5;stroke:#000000;stroke-linecap:round"
       d="M 4.5,16.5 3.5,19.5"
       id="path10" />
    <path
       style="opacity:0.5;stroke:#000000;stroke-linecap:round"
       d="M 10.5,16.5 9.5,19.5"
       id="path12" />
    <circle
       style="opacity:0.2"
       cx="15"
       cy="17.5"
       r="1"
       id="circle14" />
    <circle
       style="opacity:0.2"
       cx="17.5"
       cy="17.5"
       r="1"
       id="circle16" />
    <circle
       style="opacity:0.2"
       cx="20"
       cy="17.5"
       r="1"
       id="circle18" />
    <circle
       style="fill:#ffffff;fill-opacity:1"
       cx="15"
       cy="17"
       r="1"
       id="circle20" />
    <circle
       style="fill:#ffffff;fill-opacity:1"
       cx="17.5"
       cy="17"
       r="1"
       id="circle22" />
    <circle
       style="fill:#ffffff;fill-opacity:1"
       cx="20"
       cy="17"
       r="1"
       id="circle24" />
  </g>
  <g
     id="g52">
    <rect
       style="opacity:0.2"
       width="6"
       height="20"
       x="-15.5"
       y="-22"
       rx="1"
       ry="1"
       transform="matrix(0,-1,-1,0,0,0)"
       id="rect28" />
    <rect
       style="fill:#4c566a;fill-opacity:1"
       width="6"
       height="20"
       x="-15"
       y="-22"
       rx="1"
       ry="1"
       transform="matrix(0,-1,-1,0,0,0)"
       id="rect30" />
    <path
       style="opacity:0.5;stroke:#000000;stroke-linecap:round"
       d="M 8.5,10.5 7.5,13.5"
       id="path32" />
    <path
       style="opacity:0.5;stroke:#000000;stroke-linecap:round"
       d="M 6.5,10.5 5.5,13.5"
       id="path34" />
    <path
       style="opacity:0.5;stroke:#000000;stroke-linecap:round"
       d="M 4.5,10.5 3.5,13.5"
       id="path36" />
    <path
       style="opacity:0.5;stroke:#000000;stroke-linecap:round"
       d="M 10.5,10.5 9.5,13.5"
       id="path38" />
    <circle
       style="opacity:0.2"
       cx="15"
       cy="11.5"
       r="1"
       id="circle40" />
    <circle
       style="opacity:0.2"
       cx="17.5"
       cy="11.5"
       r="1"
       id="circle42" />
    <circle
       style="opacity:0.2"
       cx="20"
       cy="11.5"
       r="1"
       id="circle44" />
    <circle
       style="fill:#ffffff;fill-opacity:1"
       cx="15"
       cy="11"
       r="1"
       id="circle46" />
    <circle
       style="fill:#ffffff;fill-opacity:1"
       cx="17.5"
       cy="11"
       r="1"
       id="circle48" />
    <circle
       style="fill:#ffffff;fill-opacity:1"
       cx="20"
       cy="11"
       r="1"
       id="circle50" />
  </g>
  <g
     id="g80">
    <rect
       style="opacity:0.2"
       width="6"
       height="20"
       x="-9.5"
       y="-22"
       rx="1"
       ry="1"
       transform="matrix(0,-1,-1,0,0,0)"
       id="rect54" />
    <rect
       style="fill:#4c566a;fill-opacity:1"
       width="6"
       height="20"
       x="-9"
       y="-22"
       rx="1"
       ry="1"
       transform="matrix(0,-1,-1,0,0,0)"
       id="rect56" />
    <path
       style="opacity:0.5;stroke:#000000;stroke-linecap:round"
       d="M 8.5,4.5 7.5,7.5"
       id="path58" />
    <path
       style="opacity:0.5;stroke:#000000;stroke-linecap:round"
       d="M 6.5,4.5 5.5,7.5"
       id="path60" />
    <path
       style="opacity:0.5;stroke:#000000;stroke-linecap:round"
       d="M 4.5,4.5 3.5,7.5"
       id="path62" />
    <path
       style="opacity:0.5;stroke:#000000;stroke-linecap:round"
       d="M 10.5,4.5 9.5,7.5"
       id="path64" />
    <circle
       style="opacity:0.2"
       cx="15"
       cy="5.5"
       r="1"
       id="circle66" />
    <circle
       style="opacity:0.2"
       cx="17.5"
       cy="5.5"
       r="1"
       id="circle68" />
    <circle
       style="opacity:0.2"
       cx="20"
       cy="5.5"
       r="1"
       id="circle70" />
    <circle
       style="fill:#ffffff;fill-opacity:1"
       cx="15"
       cy="5"
       r="1"
       id="circle72" />
    <circle
       style="fill:#ffffff;fill-opacity:1"
       cx="17.5"
       cy="5"
       r="1"
       id="circle74" />
    <circle
       style="fill:#ffffff;fill-opacity:1"
       cx="20"
       cy="5"
       r="1"
       id="circle76" />
    <path
       style="opacity:0.2;fill:#ffffff"
       d="M 3,3 C 2.446,3 2,3.446 2,4 V 4.5 C 2,3.946 2.446,3.5 3,3.5 H 21 C 21.554,3.5 22,3.946 22,4.5 V 4 C 22,3.446 21.554,3 21,3 Z"
       id="path78" />
  </g>
</svg>
