<?xml version="1.0" encoding="UTF-8" standalone="no"?>
<svg
   xmlns:dc="http://purl.org/dc/elements/1.1/"
   xmlns:cc="http://creativecommons.org/ns#"
   xmlns:rdf="http://www.w3.org/1999/02/22-rdf-syntax-ns#"
   xmlns:svg="http://www.w3.org/2000/svg"
   xmlns="http://www.w3.org/2000/svg"
   xmlns:sodipodi="http://sodipodi.sourceforge.net/DTD/sodipodi-0.dtd"
   xmlns:inkscape="http://www.inkscape.org/namespaces/inkscape"
   width="24"
   height="24"
   version="1"
   id="svg26"
   sodipodi:docname="network-vpn.svg"
   inkscape:version="0.92.5 (2060ec1f9f, 2020-04-08)">
  <metadata
     id="metadata32">
    <rdf:RDF>
      <cc:Work
         rdf:about="">
        <dc:format>image/svg+xml</dc:format>
        <dc:type
           rdf:resource="http://purl.org/dc/dcmitype/StillImage" />
      </cc:Work>
    </rdf:RDF>
  </metadata>
  <defs
     id="defs30" />
  <sodipodi:namedview
     pagecolor="#ffffff"
     bordercolor="#666666"
     borderopacity="1"
     objecttolerance="10"
     gridtolerance="10"
     guidetolerance="10"
     inkscape:pageopacity="0"
     inkscape:pageshadow="2"
     inkscape:window-width="640"
     inkscape:window-height="480"
     id="namedview28"
     showgrid="false"
     inkscape:zoom="9.8333333"
     inkscape:cx="-27.661017"
     inkscape:cy="12"
     inkscape:current-layer="svg26" />
  <path
     style="opacity:0.2"
     d="m 12,2.5 c -2.209139,0 -4,1.790861 -4,4 v 5 h 8 v -5 c 0,-2.209139 -1.790861,-4 -4,-4 z m 0,2 c 1.128259,0 2,0.8717412 2,2 v 3 h -4 v -3 c 0,-1.1282588 0.871741,-2 2,-2 z"
     id="path2" />
  <rect
     style="opacity:0.2"
     width="2"
     height="20"
     x="19.5"
     y="-22"
     rx="1"
     ry="1"
     transform="rotate(90)"
     id="rect4" />
  <rect
     style="fill:#828282"
     width="2"
     height="4"
     x="11"
     y="16"
     id="rect6" />
  <path
     style="fill:#949aa6;fill-opacity:1"
     d="M 12,2 C 9.790861,2 8,3.790861 8,6 v 5 h 8 V 6 C 16,3.790861 14.209139,2 12,2 Z m 0,2 c 1.128259,0 2,0.8717412 2,2 V 9 H 10 V 6 c 0,-1.1282588 0.871741,-2 2,-2 z"
     id="path8" />
  <rect
     style="opacity:0.2"
     width="7"
     height="12"
     x="-16.5"
     y="-18"
     rx=".7"
     ry=".857"
     transform="matrix(0,-1,-1,0,0,0)"
     id="rect10" />
  <rect
     style="fill:#4c566a;fill-opacity:1"
     width="8"
     height="12"
     x="-16"
     y="-18"
     rx=".8"
     ry=".857"
     transform="matrix(0,-1,-1,0,0,0)"
     id="rect12" />
  <rect
     style="opacity:0.3;fill:#ffffff"
     width="12"
     height="4"
     x="6"
     y="10"
     rx="0"
     ry="0"
     id="rect14" />
  <rect
     style="fill:#828282"
     width="2"
     height="20"
     x="19"
     y="-22"
     rx="1"
     ry="1"
     transform="rotate(90)"
     id="rect16" />
  <rect
     style="opacity:0.2"
     width="8"
     height=".5"
     x="8"
     y="22"
     id="rect18" />
  <rect
     style="fill:#afafb1"
     width="8"
     height="4"
     x="8"
     y="18"
     id="rect20" />
  <rect
     style="opacity:0.2;fill:#ffffff"
     width="8"
     height=".5"
     x="8"
     y="18"
     id="rect22" />
  <path
     style="opacity:0.2;fill:#ffffff"
     d="M 12,2 C 9.790861,2 8,3.790861 8,6 v 0.5 c 0,-2.209139 1.790861,-4 4,-4 2.209139,0 4,1.790861 4,4 V 6 C 16,3.790861 14.209139,2 12,2 Z"
     id="path24" />
</svg>
