<?xml version="1.0" encoding="UTF-8" standalone="no"?>
<svg
   xmlns:dc="http://purl.org/dc/elements/1.1/"
   xmlns:cc="http://creativecommons.org/ns#"
   xmlns:rdf="http://www.w3.org/1999/02/22-rdf-syntax-ns#"
   xmlns:svg="http://www.w3.org/2000/svg"
   xmlns="http://www.w3.org/2000/svg"
   xmlns:sodipodi="http://sodipodi.sourceforge.net/DTD/sodipodi-0.dtd"
   xmlns:inkscape="http://www.inkscape.org/namespaces/inkscape"
   width="24"
   height="24"
   version="1"
   id="svg24"
   sodipodi:docname="blueman-server.svg"
   inkscape:version="0.92.5 (2060ec1f9f, 2020-04-08)">
  <metadata
     id="metadata30">
    <rdf:RDF>
      <cc:Work
         rdf:about="">
        <dc:format>image/svg+xml</dc:format>
        <dc:type
           rdf:resource="http://purl.org/dc/dcmitype/StillImage" />
      </cc:Work>
    </rdf:RDF>
  </metadata>
  <defs
     id="defs28" />
  <sodipodi:namedview
     pagecolor="#ffffff"
     bordercolor="#666666"
     borderopacity="1"
     objecttolerance="10"
     gridtolerance="10"
     guidetolerance="10"
     inkscape:pageopacity="0"
     inkscape:pageshadow="2"
     inkscape:window-width="783"
     inkscape:window-height="480"
     id="namedview26"
     showgrid="false"
     inkscape:zoom="13.906433"
     inkscape:cx="8.805591"
     inkscape:cy="13.493459"
     inkscape:current-layer="svg24"
     inkscape:window-x="0"
     inkscape:window-y="28"
     inkscape:window-maximized="0" />
  <path
     style="opacity:0.2"
     d="M 8,21.5 6,19.5 H 3.5 C 2.669,19.5 2,18.831 2,18 V 6 C 2,5.169 2.669,4.5 3.5,4.5 H 20.5 C 21.331,4.5 22,5.169 22,6 V 18 C 22,18.831 21.331,19.5 20.5,19.5 H 18 L 16,21.5 Z"
     id="path2" />
  <path
     style="fill:#4c566a;fill-opacity:1"
     d="M 8,21 6,19 H 3.5 C 2.669,19 2,18.331 2,17.5 V 5.5 C 2,4.669 2.669,4 3.5,4 H 20.5 C 21.331,4 22,4.669 22,5.5 V 17.5 C 22,18.331 21.331,19 20.5,19 H 18 L 16,21 Z"
     id="path4" />
  <path
     style="opacity:0.6;fill:#333333;fill-opacity:1"
     d="M 10,18 7.75,16 H 5 V 7 H 19 V 16 H 16 L 14,18 Z"
     id="path6" />
  <g
     style="fill:#fefdfb;fill-opacity:1"
     transform="scale(1,-1)"
     id="g18">
    <rect
       width="1"
       height="2"
       x="8"
       y="-9"
       id="rect8"
       style="fill:#fefdfb;fill-opacity:1" />
    <rect
       width="1"
       height="2"
       x="10"
       y="-9"
       id="rect10"
       style="fill:#fefdfb;fill-opacity:1" />
    <rect
       width="1"
       height="2"
       x="12"
       y="-9"
       id="rect12"
       style="fill:#fefdfb;fill-opacity:1" />
    <rect
       width="1"
       height="2"
       x="14"
       y="-9"
       id="rect14"
       style="fill:#fefdfb;fill-opacity:1" />
    <rect
       width="1"
       height="2"
       x="16"
       y="-9"
       id="rect16"
       style="fill:#fefdfb;fill-opacity:1" />
  </g>
  <path
     style="fill:#ffffff;opacity:0.2"
     d="M 3.5 4 C 2.669 4 2 4.669 2 5.5 L 2 6 C 2 5.169 2.669 4.5 3.5 4.5 L 20.5 4.5 C 21.331 4.5 22 5.169 22 6 L 22 5.5 C 22 4.669 21.331 4 20.5 4 L 3.5 4 z"
     id="path20" />
  <path
     style="opacity:0.2;fill:#ffffff"
     d="M 5,16 V 16.5 H 7.75 L 10,18.5 H 14 L 16,16.5 H 19 V 16 H 16 L 14,18 H 10 L 7.75,16 Z"
     id="path22" />
</svg>
