<?xml version="1.0" encoding="UTF-8" standalone="no"?>
<svg
   xmlns:dc="http://purl.org/dc/elements/1.1/"
   xmlns:cc="http://creativecommons.org/ns#"
   xmlns:rdf="http://www.w3.org/1999/02/22-rdf-syntax-ns#"
   xmlns:svg="http://www.w3.org/2000/svg"
   xmlns="http://www.w3.org/2000/svg"
   xmlns:sodipodi="http://sodipodi.sourceforge.net/DTD/sodipodi-0.dtd"
   xmlns:inkscape="http://www.inkscape.org/namespaces/inkscape"
   width="24"
   height="24"
   version="1"
   id="svg30"
   sodipodi:docname="printer.svg"
   inkscape:version="0.92.5 (2060ec1f9f, 2020-04-08)">
  <metadata
     id="metadata36">
    <rdf:RDF>
      <cc:Work
         rdf:about="">
        <dc:format>image/svg+xml</dc:format>
        <dc:type
           rdf:resource="http://purl.org/dc/dcmitype/StillImage" />
      </cc:Work>
    </rdf:RDF>
  </metadata>
  <defs
     id="defs34" />
  <sodipodi:namedview
     pagecolor="#ffffff"
     bordercolor="#666666"
     borderopacity="1"
     objecttolerance="10"
     gridtolerance="10"
     guidetolerance="10"
     inkscape:pageopacity="0"
     inkscape:pageshadow="2"
     inkscape:window-width="783"
     inkscape:window-height="480"
     id="namedview32"
     showgrid="false"
     inkscape:zoom="9.8333333"
     inkscape:cx="8.9491525"
     inkscape:cy="12"
     inkscape:current-layer="svg30"
     inkscape:window-x="0"
     inkscape:window-y="28"
     inkscape:window-maximized="0" />
  <rect
     style="opacity:0.2"
     width="8.5"
     height="20"
     x="-16.5"
     y="-22"
     rx="1"
     ry="1"
     transform="matrix(0,-1,-1,0,0,0)"
     id="rect2" />
  <path
     style="opacity:0.2"
     d="m 4,14 0,7.5 c 0,0.554 0.446,1 1,1 l 14,0 c 0.554,0 1,-0.446 1,-1 L 20,14 4,14 Z"
     id="path4" />
  <path
     style="fill:#949aa6;fill-opacity:1"
     d="M 5,2 C 4.446,2 4,2.446 4,3 L 4,9 20,9 20,3 C 20,2.446 19.554,2 19,2 L 5,2 Z"
     id="path6" />
  <rect
     style="fill:#4c566a;fill-opacity:1"
     width="9"
     height="20"
     x="-16"
     y="-22"
     rx="1.059"
     ry="1"
     transform="matrix(0,-1,-1,0,0,0)"
     id="rect8" />
  <rect
     style="opacity:0.2"
     width="18"
     height="2"
     x="3"
     y="12.5"
     id="rect10" />
  <rect
     style="opacity:0.2"
     width="2"
     height="2"
     x="3"
     y="8.5"
     rx=".75"
     ry=".75"
     id="rect12" />
  <rect
     style="fill:#ffffff;fill-opacity:1"
     width="2"
     height="2"
     x="3"
     y="8"
     rx=".75"
     ry=".75"
     id="rect14" />
  <path
     style="fill:#949aa6;fill-opacity:1"
     d="M 4,13.5 4,21 c 0,0.554 0.446,1 1,1 l 14,0 c 0.554,0 1,-0.446 1,-1 l 0,-7.5 -16,0 z"
     id="path16" />
  <path
     style="opacity:0.2;fill:#ffffff"
     d="M 5,2 C 4.446,2 4,2.446 4,3 l 0,0.5 c 0,-0.554 0.446,-1 1,-1 l 14,0 c 0.554,0 1,0.446 1,1 L 20,3 C 20,2.446 19.554,2 19,2 L 5,2 Z"
     id="path18" />
  <rect
     style="opacity:0.5"
     width="10.5"
     height="1"
     x="6"
     y="19"
     id="rect20" />
  <rect
     style="opacity:0.5"
     width="8.5"
     height="1"
     x="6"
     y="17"
     id="rect22" />
  <rect
     style="opacity:0.5"
     width="12"
     height="1"
     x="6"
     y="15"
     id="rect24" />
  <path
     style="opacity:0.2;fill:#ffffff"
     d="m 3.75,8.0000006 c -0.4155,0 -0.75,0.3345 -0.75,0.75 l 0,0.5 c 0,-0.4155 0.3345,-0.75 0.75,-0.75 l 0.5,0 c 0.4155,0 0.75,0.3345 0.75,0.75 l 0,-0.5 c 0,-0.4155 -0.3345,-0.75 -0.75,-0.75 l -0.5,0 z"
     id="path26" />
  <path
     style="fill:#ffffff;opacity:0.1"
     d="M 3 7 C 2.446 7 2 7.4720055 2 8.0585938 L 2 8.5585938 C 2 7.9720055 2.446 7.5 3 7.5 L 21 7.5 C 21.554 7.5 22 7.9720055 22 8.5585938 L 22 8.0585938 C 22 7.4720055 21.554 7 21 7 L 3 7 z"
     id="path28" />
</svg>
