<?xml version="1.0" encoding="UTF-8" standalone="no"?>
<svg
   xmlns:dc="http://purl.org/dc/elements/1.1/"
   xmlns:cc="http://creativecommons.org/ns#"
   xmlns:rdf="http://www.w3.org/1999/02/22-rdf-syntax-ns#"
   xmlns:svg="http://www.w3.org/2000/svg"
   xmlns="http://www.w3.org/2000/svg"
   xmlns:sodipodi="http://sodipodi.sourceforge.net/DTD/sodipodi-0.dtd"
   xmlns:inkscape="http://www.inkscape.org/namespaces/inkscape"
   width="24"
   height="24"
   version="1"
   id="svg30"
   sodipodi:docname="uninterruptible-power-supply.svg"
   inkscape:version="0.92.5 (2060ec1f9f, 2020-04-08)">
  <metadata
     id="metadata36">
    <rdf:RDF>
      <cc:Work
         rdf:about="">
        <dc:format>image/svg+xml</dc:format>
        <dc:type
           rdf:resource="http://purl.org/dc/dcmitype/StillImage" />
      </cc:Work>
    </rdf:RDF>
  </metadata>
  <defs
     id="defs34" />
  <sodipodi:namedview
     pagecolor="#ffffff"
     bordercolor="#666666"
     borderopacity="1"
     objecttolerance="10"
     gridtolerance="10"
     guidetolerance="10"
     inkscape:pageopacity="0"
     inkscape:pageshadow="2"
     inkscape:window-width="783"
     inkscape:window-height="480"
     id="namedview32"
     showgrid="false"
     inkscape:zoom="27.812867"
     inkscape:cx="10.538833"
     inkscape:cy="19.58007"
     inkscape:current-layer="g28"
     inkscape:window-x="0"
     inkscape:window-y="28"
     inkscape:window-maximized="0" />
  <g
     transform="scale(0.5)"
     id="g28">
    <rect
       style="opacity:0.2"
       width="40"
       height="32"
       x="-45"
       y="-40"
       rx="2"
       ry="2"
       transform="matrix(0,-1,-1,0,0,0)"
       id="rect2" />
    <rect
       style="fill:#4c566a;fill-opacity:1"
       width="40"
       height="32"
       x="-44"
       y="-40"
       rx="2"
       ry="2"
       transform="matrix(0,-1,-1,0,0,0)"
       id="rect4" />
    <path
       style="opacity:0.5"
       d="M 34,4 V 26 C 34,31.54 29.54,36 24,36 18.46,36 14,31.54 14,26 V 4 Z"
       id="path6" />
    <circle
       style="opacity:0.2"
       cx="24"
       cy="27"
       r="4"
       id="circle8" />
    <circle
       style="fill:#4c566a;fill-opacity:1"
       cx="24"
       cy="26"
       r="4"
       id="circle10" />
    <circle
       style="opacity:0.2"
       cx="24"
       cy="17"
       r="2"
       id="circle12" />
    <circle
       style="fill:#ffffff;fill-opacity:1"
       cx="24"
       cy="16"
       r="2"
       id="circle14" />
    <circle
       style="opacity:0.2"
       cx="24"
       cy="11"
       r="2"
       id="circle16" />
    <circle
       style="fill:#ffffff;fill-opacity:1"
       cx="24"
       cy="10"
       r="2"
       id="circle18" />
    <rect
       style="opacity:0.5"
       width="24"
       height="4"
       x="12"
       y="40"
       id="rect20" />
    <path
       style="opacity:0.2;fill:#ffffff"
       d="M 10,4 C 8.892,4 8,4.892 8,6 V 7 C 8,5.892 8.892,5 10,5 H 38 C 39.108,5 40,5.892 40,7 V 6 C 40,4.892 39.108,4 38,4 Z"
       id="path22" />
    <path
       style="opacity:0.5"
       d="M 37,22 C 36.446,22 36,22.446 36,23 36,23.554 36.446,24 37,24 H 40 V 22 Z M 37,26 C 36.446,26 36,26.446 36,27 36,27.554 36.446,28 37,28 H 40 V 26 Z M 37,30 C 36.446,30 36,30.446 36,31 36,31.554 36.446,32 37,32 H 40 V 30 Z"
       id="path24" />
    <path
       style="opacity:0.5"
       d="M 8,22 V 24 H 11 C 11.554,24 12,23.554 12,23 12,22.446 11.554,22 11,22 Z M 8,26 V 28 H 11 C 11.554,28 12,27.554 12,27 12,26.446 11.554,26 11,26 Z M 8,30 V 32 H 11 C 11.554,32 12,31.554 12,31 12,30.446 11.554,30 11,30 Z"
       id="path26" />
  </g>
</svg>
