<?xml version="1.0" encoding="UTF-8" standalone="no"?>
<svg
   xmlns:dc="http://purl.org/dc/elements/1.1/"
   xmlns:cc="http://creativecommons.org/ns#"
   xmlns:rdf="http://www.w3.org/1999/02/22-rdf-syntax-ns#"
   xmlns:svg="http://www.w3.org/2000/svg"
   xmlns="http://www.w3.org/2000/svg"
   xmlns:sodipodi="http://sodipodi.sourceforge.net/DTD/sodipodi-0.dtd"
   xmlns:inkscape="http://www.inkscape.org/namespaces/inkscape"
   width="24"
   height="24"
   version="1"
   id="svg18"
   sodipodi:docname="wiimotedev.svg"
   inkscape:version="0.92.5 (2060ec1f9f, 2020-04-08)">
  <metadata
     id="metadata24">
    <rdf:RDF>
      <cc:Work
         rdf:about="">
        <dc:format>image/svg+xml</dc:format>
        <dc:type
           rdf:resource="http://purl.org/dc/dcmitype/StillImage" />
      </cc:Work>
    </rdf:RDF>
  </metadata>
  <defs
     id="defs22" />
  <sodipodi:namedview
     pagecolor="#ffffff"
     bordercolor="#666666"
     borderopacity="1"
     objecttolerance="10"
     gridtolerance="10"
     guidetolerance="10"
     inkscape:pageopacity="0"
     inkscape:pageshadow="2"
     inkscape:window-width="640"
     inkscape:window-height="480"
     id="namedview20"
     showgrid="false"
     inkscape:zoom="9.8333333"
     inkscape:cx="-7.8305085"
     inkscape:cy="12"
     inkscape:current-layer="svg18" />
  <rect
     style="fill:#4c566a;fill-opacity:1"
     width="20"
     height="9"
     x="2"
     y="-16"
     rx="1"
     ry=".9"
     transform="matrix(0,1,-1,0,0,0)"
     id="rect2" />
  <path
     style="fill:#9ea2aa;fill-opacity:0.78431374"
     d="m 14,6 c 10e-7,-0.277 -0.223,-0.5 -0.49999,-0.499995 l -1,-1.25e-5 1.2e-5,-1 c 1e-6,-0.277 -0.223,-0.5 -0.49999,-0.49999 l -1,0 c -0.277,-5e-7 -0.5,0.223 -0.49999,0.49999 l -1.3e-5,1 -1,-1.25e-5 c -0.277,-5e-7 -0.5,0.223 -0.499995,0.49999 l 1.25e-5,1 c 0,0.277 0.223,0.5 0.49999,0.499995 l 1.0000005,1.25e-5 -1.3e-5,1 c -10e-7,0.277 0.223,0.5 0.49999,0.49999 l 1,1.25e-5 c 0.277,0 0.5,-0.223 0.49999,-0.49999 l 1.3e-5,-1 1,1.25e-5 c 0.277,5e-7 0.5,-0.223 0.49999,-0.49999 l -1.3e-5,-1 z"
     id="path4" />
  <circle
     style="fill:#9ea2aa;fill-opacity:0.78431374"
     cx="19"
     cy="-13"
     r="1"
     transform="matrix(0,1,-1,0,0,0)"
     id="circle6" />
  <circle
     style="fill:#9ea2aa;fill-opacity:0.78431374"
     cx="16"
     cy="-13"
     r="1"
     transform="matrix(0,1,-1,0,0,0)"
     id="circle8" />
  <circle
     style="fill:#9ea2aa;fill-opacity:0.78431374"
     cx="19"
     cy="-10"
     r="1"
     transform="matrix(0,1,-1,0,0,0)"
     id="circle10" />
  <circle
     style="fill:#9ea2aa;fill-opacity:0.78431374"
     cx="16"
     cy="-10"
     r="1"
     transform="matrix(0,1,-1,0,0,0)"
     id="circle12" />
  <path
     style="opacity:0.2;fill:#ffffff"
     d="M 7.9005,2 C 7.402,2 7,2.446 7,3 l 0,0.5 c 0,-0.554 0.402,-1 0.9005,-1 l 7.199,0 C 15.598,2.5 16,2.946 16,3.5 L 16,3 C 16,2.446 15.598,2 15.0995,2 l -7.199,0 z"
     id="path14" />
  <path
     style="opacity:0.2"
     d="m 7,21 0,0.5 c 0,0.554 0.40179,1 0.9004,1 l 7.199,0 c 0.4985,0 0.9005,-0.446 0.9005,-1 l 0,-0.5 c 0,0.554 -0.40179,1 -0.9004,1 l -7.199,0 C 7.402,22 7,21.554 7,21 Z"
     id="path16" />
</svg>
