<?xml version="1.0" encoding="UTF-8" standalone="no"?>
<svg
   xmlns:dc="http://purl.org/dc/elements/1.1/"
   xmlns:cc="http://creativecommons.org/ns#"
   xmlns:rdf="http://www.w3.org/1999/02/22-rdf-syntax-ns#"
   xmlns:svg="http://www.w3.org/2000/svg"
   xmlns="http://www.w3.org/2000/svg"
   xmlns:sodipodi="http://sodipodi.sourceforge.net/DTD/sodipodi-0.dtd"
   xmlns:inkscape="http://www.inkscape.org/namespaces/inkscape"
   width="16"
   height="16"
   version="1.1"
   id="svg4"
   sodipodi:docname="web-browser-symbolic.svg"
   inkscape:version="0.92.5 (2060ec1f9f, 2020-04-08)">
  <metadata
     id="metadata10">
    <rdf:RDF>
      <cc:Work
         rdf:about="">
        <dc:format>image/svg+xml</dc:format>
        <dc:type
           rdf:resource="http://purl.org/dc/dcmitype/StillImage" />
      </cc:Work>
    </rdf:RDF>
  </metadata>
  <defs
     id="defs8" />
  <sodipodi:namedview
     pagecolor="#ffffff"
     bordercolor="#666666"
     borderopacity="1"
     objecttolerance="10"
     gridtolerance="10"
     guidetolerance="10"
     inkscape:pageopacity="0"
     inkscape:pageshadow="2"
     inkscape:window-width="640"
     inkscape:window-height="480"
     id="namedview6"
     showgrid="false"
     inkscape:zoom="14.75"
     inkscape:cx="8"
     inkscape:cy="8"
     inkscape:current-layer="svg4" />
  <path
     style="fill:#dfdfdf;stroke-width:0.93220341"
     d="M 8,0.54237288 C 3.879661,0.54237288 0.54237288,3.879661 0.54237288,8 0.54237288,12.120339 3.879661,15.457627 8,15.457627 12.120339,15.457627 15.457627,12.120339 15.457627,8 15.457627,3.879661 12.120339,0.54237288 8,0.54237288 Z M 12.530508,3.4694915 9.5008475,9.5008475 3.4694915,12.530508 6.4991525,6.4991525 Z M 8,7.1983051 C 7.5618644,7.1983051 7.1983051,7.5618644 7.1983051,8 7.1983051,8.4381356 7.5618644,8.8016949 8,8.8016949 8.4381356,8.8016949 8.8016949,8.4381356 8.8016949,8 8.8016949,7.5618644 8.4381356,7.1983051 8,7.1983051 Z"
     id="path2"
     inkscape:connector-curvature="0" />
</svg>
