<svg xmlns="http://www.w3.org/2000/svg" width="18" height="18" version="1.1">
 <defs>
  <style id="current-color-scheme" type="text/css">
   .ColorScheme-Text { color:#cfefd8; } .ColorScheme-Highlight { color:#3fbd61; } .ColorScheme-NeutralText { color:#73d08c; } .ColorScheme-PositiveText { color:#5dc97a; } .ColorScheme-NegativeText { color:#339b4f; }
  </style>
 </defs>
 <g transform="translate(1,1)">
  <path style="opacity:.35;fill:currentColor" class="ColorScheme-Text" d="M 15,10 A 5,5 0 0 1 10,15 5,5 0 0 1 5,10 5,5 0 0 1 10,5 5,5 0 0 1 15,10 Z"/>
  <path style="fill:currentColor" class="ColorScheme-Text" d="M 10 5 A 5 5 0 0 0 5 10 A 5 5 0 0 0 10 15 A 5 5 0 0 0 15 10 A 5 5 0 0 0 10 5 z M 10 6 A 4 4 0 0 1 14 10 A 4 4 0 0 1 10 14 A 4 4 0 0 1 6 10 A 4 4 0 0 1 10 6 z"/>
  <path style="fill:currentColor" class="ColorScheme-Text" d="M 10,0 7,4 H 9 V 9 H 2 V 11 H 11 V 4 H 13 Z"/>
 </g>
</svg>
