<?xml version="1.0" encoding="UTF-8" standalone="no"?>
<svg
   xmlns:dc="http://purl.org/dc/elements/1.1/"
   xmlns:cc="http://creativecommons.org/ns#"
   xmlns:rdf="http://www.w3.org/1999/02/22-rdf-syntax-ns#"
   xmlns:svg="http://www.w3.org/2000/svg"
   xmlns="http://www.w3.org/2000/svg"
   xmlns:sodipodi="http://sodipodi.sourceforge.net/DTD/sodipodi-0.dtd"
   xmlns:inkscape="http://www.inkscape.org/namespaces/inkscape"
   width="48"
   height="48"
   version="1.1"
   id="svg16"
   sodipodi:docname="application-x-hip.svg"
   inkscape:version="0.92.5 (2060ec1f9f, 2020-04-08)">
  <metadata
     id="metadata22">
    <rdf:RDF>
      <cc:Work
         rdf:about="">
        <dc:format>image/svg+xml</dc:format>
        <dc:type
           rdf:resource="http://purl.org/dc/dcmitype/StillImage" />
      </cc:Work>
    </rdf:RDF>
  </metadata>
  <defs
     id="defs20" />
  <sodipodi:namedview
     pagecolor="#ffffff"
     bordercolor="#666666"
     borderopacity="1"
     objecttolerance="10"
     gridtolerance="10"
     guidetolerance="10"
     inkscape:pageopacity="0"
     inkscape:pageshadow="2"
     inkscape:window-width="640"
     inkscape:window-height="480"
     id="namedview18"
     showgrid="false"
     inkscape:zoom="4.9166667"
     inkscape:cx="-15.661017"
     inkscape:cy="24"
     inkscape:current-layer="svg16" />
  <path
     style="opacity:0.2"
     d="m10 5c-1.108 0-2 0.892-2 2v36c0 1.108 0.892 2 2 2h28c1.108 0 2-0.892 2-2v-26l-12-12z"
     id="path2" />
  <path
     style="fill:#4c566a;fill-opacity:1"
     d="m10 4c-1.108 0-2 0.892-2 2v36c0 1.108 0.892 2 2 2h28c1.108 0 2-0.892 2-2v-26l-12-12z"
     id="path4" />
  <path
     style="opacity:0.2"
     d="m40 17-12-12v10c0 1.108 0.892 2 2 2z"
     id="path6" />
  <path
     style="fill:#5f697d;fill-opacity:1"
     d="m40 16-12-12v10c0 1.108 0.892 2 2 2z"
     id="path8" />
  <path
     style="fill:#ffffff;opacity:0.2"
     d="m10 4c-1.108 0-2 0.892-2 2v1c0-1.108 0.892-2 2-2h18v-1z"
     id="path10" />
  <path
     style="opacity:0.2"
     d="M 18.086,20 C 14.041,19.998 10.624,21.297 8,23.307 V 27.242 C 10.145,25.019 13.278,23.469 17.275,23.409 17.541,23.405 17.812,23.408 18.086,23.417 24.275,23.631 28.394,28.559 28.4,33.679 28.408,39.332 24.909,43.193 19.01,43.12 14.993,43.07 11.078,40.325 11.178,36.15 11.258,32.835 13.608,30.153 17.345,30.065 20.365,29.993 21.582,32.075 21.582,33.363 21.582,34.584 20.859,36.158 19.081,36.537 17.646,36.843 15.615,35.34 17.149,33.29 15.581,33.218 14.214,34.208 14.133,35.96 13.976,39.358 17.504,40.677 19.758,40.316 23.892,39.654 25.424,36.968 25.406,33.32 25.386,29.503 21.923,26.126 17.436,26.081 13.844,26.046 9.5556,28.102 8,32.586 V 39.456 C 8.6454,41.134 9.796,42.739 11.384,44 13.015,43.996 26.015,43.996 27.463,43.993 30.422,41.762 32.24,38.192 32.242,33.658 32.244,26.042 26.746,20.005 18.086,20 Z"
     id="path12" />
  <path
     style="fill:#e4e4e4"
     d="M 18.086,19 C 14.041,18.998 10.624,20.297 8,22.308 V 26.243 C 10.145,24.02 13.278,22.47 17.275,22.409 17.541,22.405 17.812,22.408 18.086,22.417 24.275,22.631 28.394,27.561 28.4,32.681 28.408,38.335 24.909,42.197 19.01,42.123 14.993,42.073 11.078,39.329 11.179,35.153 11.258,31.837 13.609,29.155 17.345,29.066 20.366,28.995 21.582,31.077 21.582,32.365 21.582,33.586 20.859,35.161 19.082,35.539 17.646,35.845 15.615,34.342 17.149,32.292 15.581,32.221 14.214,33.21 14.133,34.963 13.976,38.361 17.504,39.681 19.758,39.319 23.892,38.657 25.425,35.971 25.406,32.322 25.386,28.504 21.924,25.127 17.436,25.082 13.844,25.047 9.5557,27.103 8,31.588 V 38.459 C 8.831,40.62 10.499,42.659 12.861,44 H 25.89 C 29.765,41.93 32.24,37.952 32.242,32.66 32.245,25.043 26.746,19.005 18.086,19 Z"
     id="path14" />
</svg>
