<?xml version="1.0" encoding="UTF-8" standalone="no"?>
<svg
   xmlns:dc="http://purl.org/dc/elements/1.1/"
   xmlns:cc="http://creativecommons.org/ns#"
   xmlns:rdf="http://www.w3.org/1999/02/22-rdf-syntax-ns#"
   xmlns:svg="http://www.w3.org/2000/svg"
   xmlns="http://www.w3.org/2000/svg"
   xmlns:sodipodi="http://sodipodi.sourceforge.net/DTD/sodipodi-0.dtd"
   xmlns:inkscape="http://www.inkscape.org/namespaces/inkscape"
   width="48"
   height="48"
   version="1"
   id="svg44"
   sodipodi:docname="application-bitwig-project-folder.svg"
   inkscape:version="0.92.5 (2060ec1f9f, 2020-04-08)">
  <metadata
     id="metadata50">
    <rdf:RDF>
      <cc:Work
         rdf:about="">
        <dc:format>image/svg+xml</dc:format>
        <dc:type
           rdf:resource="http://purl.org/dc/dcmitype/StillImage" />
      </cc:Work>
    </rdf:RDF>
  </metadata>
  <defs
     id="defs48" />
  <sodipodi:namedview
     pagecolor="#ffffff"
     bordercolor="#666666"
     borderopacity="1"
     objecttolerance="10"
     gridtolerance="10"
     guidetolerance="10"
     inkscape:pageopacity="0"
     inkscape:pageshadow="2"
     inkscape:window-width="640"
     inkscape:window-height="480"
     id="namedview46"
     showgrid="false"
     inkscape:zoom="4.9166667"
     inkscape:cx="-15.661017"
     inkscape:cy="24"
     inkscape:current-layer="svg44" />
  <rect
     style="opacity:0.2"
     width="40"
     height="26"
     x="4"
     y="17"
     rx="2"
     ry="2"
     id="rect2" />
  <path
     style="fill:#4c566a;fill-opacity:1"
     d="M 4,34 C 4,35.108 4.892,36 6,36 H 42 C 43.108,36 44,35.108 44,34 V 12 C 44,10.892 43.108,10 42,10 H 24 C 21,10 20,6 17,6 H 6 C 4.892,6 4,6.892 4,8"
     id="path4" />
  <rect
     style="opacity:0.2"
     width="40"
     height="26"
     x="4"
     y="15"
     rx="2"
     ry="2"
     id="rect6" />
  <rect
     style="fill:#8c929c;fill-opacity:1"
     width="36"
     height="16"
     x="6"
     y="13"
     rx="2"
     ry="2"
     id="rect8" />
  <rect
     style="fill:#4c566a;fill-opacity:1"
     width="40"
     height="26"
     x="4"
     y="16"
     rx="2"
     ry="2"
     id="rect10" />
  <path
     style="opacity:0.1;fill:#ffffff"
     d="M 6,6 C 4.892,6 4,6.892 4,8 V 9 C 4,7.892 4.892,7 6,7 H 17 C 20,7 21,11 24,11 H 42 C 43.108,11 44,11.892 44,13 V 12 C 44,10.892 43.108,10 42,10 H 24 C 21,10 20,6 17,6 Z"
     id="path12" />
  <g
     style="fill:#8c929c;fill-opacity:1"
     transform="translate(0,1)"
     id="g42">
    <circle
       style="fill:#8c929c;fill-opacity:1"
       cx="17.5"
       cy="24.5"
       r="1.5"
       id="circle14" />
    <circle
       style="fill:#8c929c;fill-opacity:1"
       cx="21.5"
       cy="24.5"
       r="1.5"
       id="circle16" />
    <circle
       style="fill:#8c929c;fill-opacity:1"
       cx="25.5"
       cy="24.5"
       r="1.5"
       id="circle18" />
    <circle
       style="fill:#8c929c;fill-opacity:1"
       cx="29.5"
       cy="24.5"
       r="1.5"
       id="circle20" />
    <circle
       style="fill:#8c929c;fill-opacity:1"
       cx="13.5"
       cy="28.5"
       r="1.5"
       id="circle22" />
    <circle
       style="fill:#8c929c;fill-opacity:1"
       cx="17.5"
       cy="28.5"
       r="1.5"
       id="circle24" />
    <circle
       style="fill:#8c929c;fill-opacity:1"
       cx="21.5"
       cy="28.5"
       r="1.5"
       id="circle26" />
    <circle
       style="fill:#8c929c;fill-opacity:1"
       cx="25.5"
       cy="28.5"
       r="1.5"
       id="circle28" />
    <circle
       style="fill:#8c929c;fill-opacity:1"
       cx="29.5"
       cy="28.5"
       r="1.5"
       id="circle30" />
    <circle
       style="fill:#8c929c;fill-opacity:1"
       cx="33.5"
       cy="28.5"
       r="1.5"
       id="circle32" />
    <circle
       style="fill:#8c929c;fill-opacity:1"
       cx="13.5"
       cy="32.5"
       r="1.5"
       id="circle34" />
    <circle
       style="fill:#8c929c;fill-opacity:1"
       cx="17.5"
       cy="32.5"
       r="1.5"
       id="circle36" />
    <circle
       style="fill:#8c929c;fill-opacity:1"
       cx="29.5"
       cy="32.5"
       r="1.5"
       id="circle38" />
    <circle
       style="fill:#8c929c;fill-opacity:1"
       cx="33.5"
       cy="32.5"
       r="1.5"
       id="circle40" />
  </g>
</svg>
