<?xml version="1.0" encoding="UTF-8" standalone="no"?>
<svg
   xmlns:dc="http://purl.org/dc/elements/1.1/"
   xmlns:cc="http://creativecommons.org/ns#"
   xmlns:rdf="http://www.w3.org/1999/02/22-rdf-syntax-ns#"
   xmlns:svg="http://www.w3.org/2000/svg"
   xmlns="http://www.w3.org/2000/svg"
   xmlns:sodipodi="http://sodipodi.sourceforge.net/DTD/sodipodi-0.dtd"
   xmlns:inkscape="http://www.inkscape.org/namespaces/inkscape"
   width="48"
   height="48"
   version="1"
   id="svg18"
   sodipodi:docname="application-x-trash.svg"
   inkscape:version="0.92.5 (2060ec1f9f, 2020-04-08)">
  <metadata
     id="metadata24">
    <rdf:RDF>
      <cc:Work
         rdf:about="">
        <dc:format>image/svg+xml</dc:format>
        <dc:type
           rdf:resource="http://purl.org/dc/dcmitype/StillImage" />
      </cc:Work>
    </rdf:RDF>
  </metadata>
  <defs
     id="defs22" />
  <sodipodi:namedview
     pagecolor="#ffffff"
     bordercolor="#666666"
     borderopacity="1"
     objecttolerance="10"
     gridtolerance="10"
     guidetolerance="10"
     inkscape:pageopacity="0"
     inkscape:pageshadow="2"
     inkscape:window-width="783"
     inkscape:window-height="480"
     id="namedview20"
     showgrid="false"
     inkscape:zoom="4.9166667"
     inkscape:cx="24"
     inkscape:cy="24"
     inkscape:window-x="0"
     inkscape:window-y="28"
     inkscape:window-maximized="0"
     inkscape:current-layer="svg18" />
  <path
     style="opacity:0.2"
     d="M 10,5 C 8.892,5 8,5.892 8,7 v 36 c 0,1.108 0.892,2 2,2 h 28 c 1.108,0 2,-0.892 2,-2 V 17 L 29,16 28,5 Z"
     id="path2" />
  <path
     opacity=".1"
     transform="translate(-135.61 -237.72)"
     d="m163.22 242.45v11c0 1.1046 0.89543 2 2 2h10l-1-1-10-9z"
     id="path4" />
  <path
     fill="#e4e4e4"
     d="m10 4c-1.108 0-2 0.892-2 2v36c0 1.108 0.892 2 2 2h28c1.108 0 2-0.892 2-2v-26l-11-1-1-11z"
     id="path6"
     style="fill:#4c566a;fill-opacity:1" />
  <path
     fill="#fff"
     opacity=".2"
     d="m10 4c-1.108 0-2 0.892-2 2v1c0-1.108 0.892-2 2-2h18l11 11h1l-12-12z"
     id="path8" />
  <path
     style="opacity:0.2"
     d="m 28,5 v 10 c 0,1.1046 0.89543,2 2,2 h 10 z"
     id="path10" />
  <path
     fill="#fafafa"
     d="m28 4v10c0 1.1046 0.89543 2 2 2h10l-12-12z"
     id="path12"
     style="fill:#5f697d;fill-opacity:1" />
  <path
     style="opacity:1;fill:#f4f4f6;fill-opacity:1"
     d="m 17,26 v 11.7 c 6.4e-5,0.68065 0.60635,1.2999 1.2727,1.3 h 11.455 c 0.666,0 1.272,-0.619 1.272,-1.3 V 26 Z"
     id="path14" />
  <path
     style="opacity:1;fill:#ffffff;fill-opacity:1"
     d="m 16,23.3682 v 1.6316 l 16,-0.0046 -2.46e-4,-1.6271 c 0,-1.3318 -1.2305,-1.3363 -1.2305,-1.3363 h -3.6923 c 0,0 0,-1.032 -1.2308,-1.032 l -3.6923,3.1e-5 c -1.2308,0 -1.2308,1.032 -1.2308,1.032 h -3.6923 c 0,0 -1.231,0.004 -1.231,1.3363 z"
     id="path16" />
</svg>
