<?xml version="1.0" encoding="UTF-8" standalone="no"?>
<svg
   xmlns:dc="http://purl.org/dc/elements/1.1/"
   xmlns:cc="http://creativecommons.org/ns#"
   xmlns:rdf="http://www.w3.org/1999/02/22-rdf-syntax-ns#"
   xmlns:svg="http://www.w3.org/2000/svg"
   xmlns="http://www.w3.org/2000/svg"
   xmlns:sodipodi="http://sodipodi.sourceforge.net/DTD/sodipodi-0.dtd"
   xmlns:inkscape="http://www.inkscape.org/namespaces/inkscape"
   width="48"
   height="48"
   version="1"
   id="svg19"
   sodipodi:docname="application-dart.svg"
   inkscape:version="0.92.5 (2060ec1f9f, 2020-04-08)">
  <metadata
     id="metadata25">
    <rdf:RDF>
      <cc:Work
         rdf:about="">
        <dc:format>image/svg+xml</dc:format>
        <dc:type
           rdf:resource="http://purl.org/dc/dcmitype/StillImage" />
      </cc:Work>
    </rdf:RDF>
  </metadata>
  <defs
     id="defs23" />
  <sodipodi:namedview
     pagecolor="#ffffff"
     bordercolor="#666666"
     borderopacity="1"
     objecttolerance="10"
     gridtolerance="10"
     guidetolerance="10"
     inkscape:pageopacity="0"
     inkscape:pageshadow="2"
     inkscape:window-width="640"
     inkscape:window-height="480"
     id="namedview21"
     showgrid="false"
     inkscape:zoom="4.9166667"
     inkscape:cx="-15.661017"
     inkscape:cy="24"
     inkscape:current-layer="svg19" />
  <path
     style="opacity:0.2"
     d="M 11 12 L 11 12.001953 L 4.5253906 24.998047 C 4.2991031 25.477071 4 26.309874 4 26.841797 C 4 27.990867 4.5052975 29.165381 5.3164062 30 L 12.148438 36.832031 L 12.158203 36.841797 C 12.159364 36.842962 12.158993 36.844536 12.160156 36.845703 L 13.3125 38.001953 L 13.320312 38.001953 L 20.316406 45 L 37.001953 45 L 37.001953 38.001953 L 37.001953 37.998047 L 44 37.998047 L 44 21.578125 L 35.580078 13.158203 C 34.398681 11.970928 33.346298 12 31.894531 12 L 11 12 z"
     id="path2" />
  <path
     style="fill:#4c566a;fill-opacity:1"
     d="M 12.158107,35.841893 5.3165822,29.000367 C 4.5054735,28.165748 4,26.990228 4,25.841158 4,25.309235 4.2997576,24.477555 4.5260451,23.998531 L 11,11 Z"
     id="path4" />
  <path
     style="fill:#5f697d;fill-opacity:1"
     d="M 35.580339,12.158107 28.738814,5.3165821 C 28.142238,4.717067 26.896187,4 25.844097,4 24.938946,4 24.051429,4.1822055 23.475424,4.5260451 L 11,11 Z"
     id="path6" />
  <path
     style="fill:#4d576b;opacity:0.2;fill-opacity:0"
     d="M 25.84375 4 C 24.938599 4 24.050614 4.181551 23.474609 4.5253906 L 11 11 L 12.765625 11.083984 L 23.474609 5.5253906 C 24.050614 5.181551 24.938599 5 25.84375 5 C 26.89584 5 28.141705 5.7168912 28.738281 6.3164062 L 34.53125 12.109375 L 35.580078 12.158203 L 28.738281 5.3164062 C 28.141705 4.7168912 26.89584 4 25.84375 4 z"
     id="path8" />
  <path
     id="polygon14"
     style="fill:#5e687c;fill-opacity:1"
     transform="matrix(0.29387995,0,0,0.29387995,3.4475057,3.8266108)"
     d="m 71.73,99.09 -38.5,13.43 24.17,24.18 h 56.77575 v -24.18 z" />
  <path
     style="fill:#677185;fill-opacity:1"
     d="m 11,32.159577 c 0,2.110058 0.108956,2.630225 1.161046,3.685254 L 13.313,37.001469 H 37.001469 L 25.318052,23.739916 11,11.001469 Z"
     id="path11" />
  <path
     style="fill:#4c566a;fill-opacity:1"
     d="M 31.895085,11 H 11 L 36.99853,36.99853 H 44 V 20.577768 L 35.580339,12.158107 C 34.398942,10.970832 33.346852,11 31.895085,11 Z"
     id="path13" />
  <path
     style="opacity:0.2"
     d="M 11 11 L 12 12 L 32.894531 12 C 34.346298 12 35.398681 11.97093 36.580078 13.158203 L 35.580078 12.158203 C 34.398681 10.970928 33.346298 11 31.894531 11 L 11 11 z"
     id="path15" />
  <path
     style="fill:#ffffff;opacity:0.2"
     d="M 11 11.001953 L 11 12.001953 L 11.017578 12.017578 L 36.001953 37.001953 L 37.001953 37.001953 L 36.998047 36.998047 L 11.017578 11.017578 L 11 11.001953 z"
     id="path17" />
</svg>
