<?xml version="1.0" encoding="UTF-8" standalone="no"?>
<svg
   xmlns:dc="http://purl.org/dc/elements/1.1/"
   xmlns:cc="http://creativecommons.org/ns#"
   xmlns:rdf="http://www.w3.org/1999/02/22-rdf-syntax-ns#"
   xmlns:svg="http://www.w3.org/2000/svg"
   xmlns="http://www.w3.org/2000/svg"
   xmlns:sodipodi="http://sodipodi.sourceforge.net/DTD/sodipodi-0.dtd"
   xmlns:inkscape="http://www.inkscape.org/namespaces/inkscape"
   width="48"
   height="48"
   version="1.1"
   id="svg16"
   sodipodi:docname="application-x-kodelife-project.svg"
   inkscape:version="0.92.5 (2060ec1f9f, 2020-04-08)">
  <metadata
     id="metadata22">
    <rdf:RDF>
      <cc:Work
         rdf:about="">
        <dc:format>image/svg+xml</dc:format>
        <dc:type
           rdf:resource="http://purl.org/dc/dcmitype/StillImage" />
      </cc:Work>
    </rdf:RDF>
  </metadata>
  <defs
     id="defs20" />
  <sodipodi:namedview
     pagecolor="#ffffff"
     bordercolor="#666666"
     borderopacity="1"
     objecttolerance="10"
     gridtolerance="10"
     guidetolerance="10"
     inkscape:pageopacity="0"
     inkscape:pageshadow="2"
     inkscape:window-width="783"
     inkscape:window-height="480"
     id="namedview18"
     showgrid="false"
     inkscape:zoom="4.9166667"
     inkscape:cx="24"
     inkscape:cy="24"
     inkscape:window-x="0"
     inkscape:window-y="28"
     inkscape:window-maximized="0"
     inkscape:current-layer="svg16" />
  <path
     style="opacity:.2"
     d="m10 5c-1.108 0-2 0.892-2 2v36c0 1.108 0.892 2 2 2h28c1.108 0 2-0.892 2-2v-26l-12-12z"
     id="path2" />
  <path
     style="fill:#4c566a;fill-opacity:1"
     d="m10 4c-1.108 0-2 0.892-2 2v36c0 1.108 0.892 2 2 2h28c1.108 0 2-0.892 2-2v-26l-10-2-2-10z"
     id="path4" />
  <path
     style="opacity:.2"
     d="m40 17-12-12v10c0 1.108 0.892 2 2 2z"
     id="path6" />
  <path
     style="fill:#5f697d;fill-opacity:1"
     d="m40 16-12-12v10c0 1.108 0.892 2 2 2z"
     id="path8" />
  <path
     style="fill:#ffffff;opacity:.1"
     d="m10 4c-1.108 0-2 0.892-2 2v1c0-1.108 0.892-2 2-2h18v-1h-18z"
     id="path10" />
  <path
     style="opacity:.2"
     d="m17 22c-1.108 0-2 0.892-2 2v6.5l10-8.5zm12 0-7.992188 6.849609 11.384766 10.585938c0.374245-0.363034 0.607422-0.870554 0.607422-1.435547v-14c0-1.108-0.892-2-2-2zm-9.994141 8.566406-4.005859 3.433594v4c0 1.108 0.892 2 2 2h12z"
     id="path12" />
  <path
     style="fill:#ffffff"
     d="m17 21c-1.108 0-2 0.892-2 2v6.5l10-8.5h-8zm12 0-7.992188 6.849609 11.384766 10.585938c0.374245-0.363034 0.607422-0.870554 0.607422-1.435547v-14c0-1.108-0.892-2-2-2h-2zm-9.994141 8.566406-4.005859 3.433594v4c0 1.108 0.892 2 2 2h12l-9.994141-9.433594z"
     id="path14" />
</svg>
