<?xml version="1.0" encoding="UTF-8" standalone="no"?>
<svg
   xmlns:dc="http://purl.org/dc/elements/1.1/"
   xmlns:cc="http://creativecommons.org/ns#"
   xmlns:rdf="http://www.w3.org/1999/02/22-rdf-syntax-ns#"
   xmlns:svg="http://www.w3.org/2000/svg"
   xmlns="http://www.w3.org/2000/svg"
   xmlns:sodipodi="http://sodipodi.sourceforge.net/DTD/sodipodi-0.dtd"
   xmlns:inkscape="http://www.inkscape.org/namespaces/inkscape"
   width="48"
   height="48"
   version="1.1"
   id="svg16"
   sodipodi:docname="application-vnd.recordare.musicxml.svg"
   inkscape:version="0.92.5 (2060ec1f9f, 2020-04-08)">
  <metadata
     id="metadata22">
    <rdf:RDF>
      <cc:Work
         rdf:about="">
        <dc:format>image/svg+xml</dc:format>
        <dc:type
           rdf:resource="http://purl.org/dc/dcmitype/StillImage" />
      </cc:Work>
    </rdf:RDF>
  </metadata>
  <defs
     id="defs20" />
  <sodipodi:namedview
     pagecolor="#ffffff"
     bordercolor="#666666"
     borderopacity="1"
     objecttolerance="10"
     gridtolerance="10"
     guidetolerance="10"
     inkscape:pageopacity="0"
     inkscape:pageshadow="2"
     inkscape:window-width="640"
     inkscape:window-height="480"
     id="namedview18"
     showgrid="false"
     inkscape:zoom="4.9166667"
     inkscape:cx="-15.661017"
     inkscape:cy="24"
     inkscape:current-layer="svg16" />
  <path
     style="opacity:0.2"
     d="M 10,5 C 8.892,5 8,5.892 8,7 V 43 C 8,44.108 8.892,45 10,45 H 38 C 39.108,45 40,44.108 40,43 V 17 L 28,5 Z"
     id="path2" />
  <path
     style="fill:#4c566a;fill-opacity:1"
     d="M 10,4 C 8.892,4 8,4.892 8,6 V 42 C 8,43.108 8.892,44 10,44 H 38 C 39.108,44 40,43.108 40,42 V 16 L 30,14 28,4 Z"
     id="path4" />
  <path
     style="opacity:0.2"
     d="M 40,17 28,5 V 15 C 28,16.108 28.892,17 30,17 Z"
     id="path6" />
  <path
     style="fill:#5f697d;fill-opacity:1"
     d="M 40,16 28,4 V 14 C 28,15.108 28.892,16 30,16 Z"
     id="path8" />
  <path
     style="opacity:0.2;fill:#ffffff"
     d="M 10 4 C 8.892 4 8 4.892 8 6 L 8 7 C 8 5.892 8.892 5 10 5 L 28 5 L 28 4 L 10 4 z"
     id="path10" />
  <path
     style="opacity:0.2"
     d="m 28.5,23.06351 c -1.671149,0 -2.642684,0.907445 -3.076172,1.777344 C 24.99034,25.710753 25,26.565463 25,26.565463 a 0.50005,0.50005 0 1 0 1,-0.0039 c 0,0 0.0044,-0.64529 0.318359,-1.275391 0.313992,-0.630113 0.84271,-1.222662 2.181641,-1.222662 1.338933,0 1.867649,0.592556 2.181641,1.222656 C 30.995632,25.916267 31,26.561557 31,26.561557 a 0.50005,0.50005 0 1 0 1,0.0039 c 0,0 0.0097,-0.85471 -0.423828,-1.724609 C 31.142684,23.970961 30.17115,23.06351 28.5,23.06351 Z m 0,3 c -0.276142,0 -0.5,0.223858 -0.5,0.5 0,0.276142 0.223858,0.5 0.5,0.5 0.276142,0 0.5,-0.223858 0.5,-0.5 0,-0.276142 -0.223858,-0.5 -0.5,-0.5 z m -10.5,2 c -2,0 -3,1.084379 -3,4.039062 v 4.46875 c 0,0 0,0.492188 0.5,0.492188 0.5,0 0.5,-0.492188 0.5,-0.492188 v -4.46875 c -5.99e-4,-2.245514 0.547874,-3.039062 2,-3.039062 1.487688,0 2,0.698002 2,3 v 0.03906 4.46875 c 0,0 0,0.492188 0.5,0.492188 0.125,0 0.21875,-0.03003 0.289062,-0.07617 C 21.000001,36.84891 21,36.571322 21,36.571322 v -4.46875 c -5.99e-4,-2.245514 0.547874,-3.039062 2,-3.039062 1.487688,0 2,0.698002 2,3 v 0.308594 0.652344 c 0,2.954682 1.5,4.039062 3.5,4.039062 2,0 3.5,-1 3.5,-4 v -4.507812 c 0,-2e-6 0,-0.492188 -0.5,-0.492188 -0.5,0 -0.5,0.492187 -0.5,0.492188 v 4.507812 c 0,2.301998 -1.012312,3 -2.5,3 -1.452126,0 -2.500599,-0.793548 -2.5,-3.039062 V 32.254916 32.06351 c 0,-3 -1,-4 -3,-4 -1.179989,0 -2.002526,0.392094 -2.486328,1.308594 C 20.033773,28.435226 19.200504,28.06351 18,28.06351 Z"
     id="path12" />
  <path
     style="fill:#ffffff"
     d="m 28.5,22.06351 c -1.671149,0 -2.642684,0.907445 -3.076172,1.777344 C 24.99034,24.710753 25,25.565463 25,25.565463 a 0.50005,0.50005 0 1 0 1,-0.0039 c 0,0 0.0044,-0.64529 0.318359,-1.275391 0.313992,-0.630113 0.84271,-1.222662 2.181641,-1.222662 1.338933,0 1.867649,0.592556 2.181641,1.222656 C 30.995632,24.916267 31,25.561557 31,25.561557 a 0.50005,0.50005 0 1 0 1,0.0039 c 0,0 0.0097,-0.85471 -0.423828,-1.724609 C 31.142684,22.970961 30.17115,22.06351 28.5,22.06351 Z m 0,3 c -0.276142,0 -0.5,0.223858 -0.5,0.5 0,0.276142 0.223858,0.5 0.5,0.5 0.276142,0 0.5,-0.223858 0.5,-0.5 0,-0.276142 -0.223858,-0.5 -0.5,-0.5 z m -10.5,2 c -2,0 -3,1.084379 -3,4.039062 v 4.46875 c 0,0 0,0.492188 0.5,0.492188 0.5,0 0.5,-0.492188 0.5,-0.492188 v -4.46875 c -5.99e-4,-2.245514 0.547874,-3.039062 2,-3.039062 1.487688,0 2,0.698002 2,3 v 0.03906 4.46875 c 0,0 0,0.492188 0.5,0.492188 0.125,0 0.21875,-0.03003 0.289062,-0.07617 C 21.000001,35.84891 21,35.571322 21,35.571322 v -4.46875 c -5.99e-4,-2.245514 0.547874,-3.039062 2,-3.039062 1.487688,0 2,0.698002 2,3 v 0.308594 0.652344 c 0,2.954682 1.5,4.039062 3.5,4.039062 2,0 3.5,-1 3.5,-4 v -4.507812 c 0,-2e-6 0,-0.492188 -0.5,-0.492188 -0.5,0 -0.5,0.492187 -0.5,0.492188 v 4.507812 c 0,2.301998 -1.012312,3 -2.5,3 -1.452126,0 -2.500599,-0.793548 -2.5,-3.039062 V 31.254916 31.06351 c 0,-3 -1,-4 -3,-4 -1.179989,0 -2.002526,0.392094 -2.486328,1.308594 C 20.033773,27.435226 19.200504,27.06351 18,27.06351 Z"
     id="path14" />
</svg>
