<?xml version="1.0" encoding="UTF-8" standalone="no"?>
<svg
   xmlns:dc="http://purl.org/dc/elements/1.1/"
   xmlns:cc="http://creativecommons.org/ns#"
   xmlns:rdf="http://www.w3.org/1999/02/22-rdf-syntax-ns#"
   xmlns:svg="http://www.w3.org/2000/svg"
   xmlns="http://www.w3.org/2000/svg"
   xmlns:sodipodi="http://sodipodi.sourceforge.net/DTD/sodipodi-0.dtd"
   xmlns:inkscape="http://www.inkscape.org/namespaces/inkscape"
   width="48"
   height="48"
   version="1.1"
   id="svg16"
   sodipodi:docname="application-mathematica.svg"
   inkscape:version="0.92.5 (2060ec1f9f, 2020-04-08)">
  <metadata
     id="metadata22">
    <rdf:RDF>
      <cc:Work
         rdf:about="">
        <dc:format>image/svg+xml</dc:format>
        <dc:type
           rdf:resource="http://purl.org/dc/dcmitype/StillImage" />
      </cc:Work>
    </rdf:RDF>
  </metadata>
  <defs
     id="defs20" />
  <sodipodi:namedview
     pagecolor="#ffffff"
     bordercolor="#666666"
     borderopacity="1"
     objecttolerance="10"
     gridtolerance="10"
     guidetolerance="10"
     inkscape:pageopacity="0"
     inkscape:pageshadow="2"
     inkscape:window-width="640"
     inkscape:window-height="480"
     id="namedview18"
     showgrid="false"
     inkscape:zoom="4.9166667"
     inkscape:cx="-15.661017"
     inkscape:cy="24"
     inkscape:current-layer="svg16" />
  <path
     style="opacity:0.2"
     d="M 10,5 C 8.892,5 8,5.892 8,7 V 43 C 8,44.108 8.892,45 10,45 H 38 C 39.108,45 40,44.108 40,43 V 17 L 28,5 Z"
     id="path2" />
  <path
     style="fill:#4c566a;fill-opacity:1"
     d="M 10,4 C 8.892,4 8,4.892 8,6 V 42 C 8,43.108 8.892,44 10,44 H 38 C 39.108,44 40,43.108 40,42 V 16 L 28,4 Z"
     id="path4" />
  <path
     style="opacity:0.2"
     d="M 40,17 28,5 V 15 C 28,16.108 28.892,17 30,17 Z"
     id="path6" />
  <path
     style="fill:#5f697d;fill-opacity:1"
     d="M 40,16 28,4 V 14 C 28,15.108 28.892,16 30,16 Z"
     id="path8" />
  <path
     style="opacity:0.2;fill:#ffffff"
     d="M 10 4 C 8.892 4 8 4.892 8 6 L 8 7 C 8 5.892 8.892 5 10 5 L 28 5 L 28 4 L 10 4 z"
     id="path10" />
  <path
     style="opacity:0.1;fill-rule:evenodd"
     d="m 16.285156,20.5 c 0,0 1.676193,4.526881 0.833985,7.429688 C 16.276935,30.832493 12,34.101562 12,34.101562 c 0,0 5.590128,0.309601 7.712891,1.691407 2.122763,1.381808 4.28125,6.707031 4.28125,6.707031 0,0 2.867181,-5.867348 4.066406,-6.707031 C 29.259771,34.953289 36,34.09375 36,34.09375 c 0,0 -4.926846,-4.723284 -5.345703,-6.041016 -0.418856,-1.317739 1.060547,-7.548828 1.060547,-7.548828 0,0 -4.729039,2.535156 -7.84375,2.535156 C 20.756383,23.039063 16.285156,20.5 16.285156,20.5 Z m 11.470703,4.867188 c -0.02778,0.213523 -0.07406,0.431705 -0.0957,0.640624 -0.09351,0.902685 -0.33108,1.487555 0.134766,2.953126 0.462254,1.45426 0.965696,1.785921 1.5625,2.505859 0.17165,0.207065 0.378126,0.414908 0.5625,0.625 -0.277066,0.06042 -0.568495,0.10404 -0.833984,0.169922 -0.916554,0.227442 -1.561748,0.244955 -2.746094,1.074219 -1.18425,0.829197 -1.422366,1.441979 -1.929688,2.216796 -0.120043,0.183339 -0.227283,0.390686 -0.345703,0.582032 -0.65516,-1.026262 -1.446028,-2.029536 -2.714844,-2.855469 -0.996208,-0.648479 -2.006844,-1.034451 -2.996093,-1.292969 0.676019,-0.90621 1.277947,-1.950479 1.646484,-3.220703 0.334337,-1.152345 0.40566,-2.252396 0.361328,-3.283203 1.081182,0.319144 2.2442,0.55664 3.509766,0.55664 1.408783,0 2.685261,-0.299921 3.884765,-0.671874 z"
     id="path12" />
  <path
     style="fill:#fef8f7;fill-rule:evenodd;fill-opacity:1"
     d="m 16.285156,19.5 c 0,0 1.676193,4.526881 0.833985,7.429688 C 16.276935,29.832493 12,33.101562 12,33.101562 c 0,0 5.590128,0.309601 7.712891,1.691407 2.122763,1.381808 4.28125,6.707031 4.28125,6.707031 0,0 2.867181,-5.867348 4.066406,-6.707031 C 29.259771,33.953289 36,33.09375 36,33.09375 c 0,0 -4.926846,-4.723284 -5.345703,-6.041016 -0.418856,-1.317739 1.060547,-7.548828 1.060547,-7.548828 0,0 -4.729039,2.535156 -7.84375,2.535156 C 20.756383,22.039063 16.285156,19.5 16.285156,19.5 Z m 11.470703,4.867188 c -0.02778,0.213523 -0.07406,0.431705 -0.0957,0.640624 -0.09351,0.902685 -0.33108,1.487555 0.134766,2.953126 0.462254,1.45426 0.965696,1.785921 1.5625,2.505859 0.17165,0.207065 0.378126,0.414908 0.5625,0.625 -0.277066,0.06042 -0.568495,0.10404 -0.833984,0.169922 -0.916554,0.227442 -1.561748,0.244955 -2.746094,1.074219 -1.18425,0.829197 -1.422366,1.441979 -1.929688,2.216796 -0.120043,0.183339 -0.227283,0.390686 -0.345703,0.582032 -0.65516,-1.026262 -1.446028,-2.029536 -2.714844,-2.855469 -0.996208,-0.648479 -2.006844,-1.034451 -2.996093,-1.292969 0.676019,-0.90621 1.277947,-1.950479 1.646484,-3.220703 0.334337,-1.152345 0.40566,-2.252396 0.361328,-3.283203 1.081182,0.319144 2.2442,0.55664 3.509766,0.55664 1.408783,0 2.685261,-0.299921 3.884765,-0.671874 z"
     id="path14" />
</svg>
