<?xml version="1.0" encoding="UTF-8" standalone="no"?>
<svg
   xmlns:dc="http://purl.org/dc/elements/1.1/"
   xmlns:cc="http://creativecommons.org/ns#"
   xmlns:rdf="http://www.w3.org/1999/02/22-rdf-syntax-ns#"
   xmlns:svg="http://www.w3.org/2000/svg"
   xmlns="http://www.w3.org/2000/svg"
   xmlns:sodipodi="http://sodipodi.sourceforge.net/DTD/sodipodi-0.dtd"
   xmlns:inkscape="http://www.inkscape.org/namespaces/inkscape"
   width="48"
   height="48"
   version="1.1"
   id="svg16"
   sodipodi:docname="application-x-wonderswan-color-rom.svg"
   inkscape:version="0.92.5 (2060ec1f9f, 2020-04-08)">
  <metadata
     id="metadata22">
    <rdf:RDF>
      <cc:Work
         rdf:about="">
        <dc:format>image/svg+xml</dc:format>
        <dc:type
           rdf:resource="http://purl.org/dc/dcmitype/StillImage" />
      </cc:Work>
    </rdf:RDF>
  </metadata>
  <defs
     id="defs20" />
  <sodipodi:namedview
     pagecolor="#ffffff"
     bordercolor="#666666"
     borderopacity="1"
     objecttolerance="10"
     gridtolerance="10"
     guidetolerance="10"
     inkscape:pageopacity="0"
     inkscape:pageshadow="2"
     inkscape:window-width="783"
     inkscape:window-height="480"
     id="namedview18"
     showgrid="false"
     inkscape:zoom="4.9166667"
     inkscape:cx="24"
     inkscape:cy="24"
     inkscape:window-x="0"
     inkscape:window-y="28"
     inkscape:window-maximized="0"
     inkscape:current-layer="svg16" />
  <path
     style="opacity:.2"
     d="m10 5c-1.108 0-2 0.892-2 2v36c0 1.108 0.892 2 2 2h28c1.108 0 2-0.892 2-2v-26l-12-12z"
     id="path2" />
  <path
     style="fill:#4c566a;fill-opacity:1"
     d="m10 4c-1.108 0-2 0.892-2 2v36c0 1.108 0.892 2 2 2h28c1.108 0 2-0.892 2-2v-26l-10-2-2-10z"
     id="path4" />
  <path
     style="opacity:.2"
     d="m40 17-12-12v10c0 1.108 0.892 2 2 2z"
     id="path6" />
  <path
     style="fill:#5f697d;fill-opacity:1"
     d="m40 16-12-12v10c0 1.108 0.892 2 2 2z"
     id="path8" />
  <path
     style="fill:#ffffff;opacity:.2"
     d="m10 4c-1.108 0-2 0.892-2 2v1c0-1.108 0.892-2 2-2h18v-1h-18z"
     id="path10" />
  <path
     style="opacity:0.2"
     d="m 22,21 c -3.073181,0 -7,2 -7,6 0,4 4,7 5.5,8 C 15,35 12,30 12,30 c 0,0 5,11 14,11 4,0 7,-3 7,-7 0,-3 -2,-6 -5,-7.5 6,0.5 8,4.5 8,4.5 0,0 -4,-10 -14,-10 z m 1.033203,4.996094 c 1.508097,0.04497 3.243048,0.657524 4.667969,1.86914 2.334386,1.98494 3.038116,4.901356 2.158203,6.636719 a 3.308772,2.6555652 45.000001 0 0 -1.248047,-3.623047 3.308772,2.6555652 45.000001 0 0 -4.140625,0 3.308772,2.6555652 45.000001 0 0 0.917969,4.242188 3.308772,2.6555652 45.000001 0 0 1.888672,0.853515 c -1.760236,0.121602 -4.028071,-0.587306 -5.728516,-2.033203 -2.605569,-2.215528 -2.885656,-5.308176 -1.492187,-6.90625 0.522551,-0.599277 1.363534,-0.94357 2.345703,-1.023437 0.204618,-0.01664 0.415417,-0.02205 0.630859,-0.01563 z"
     id="path12" />
  <path
     style="fill:#ffffff"
     d="m 22,20.101695 c -3.073181,0 -7,2 -7,6 0,4 4,7 5.5,8 -5.5,0 -8.5,-5 -8.5,-5 0,0 5,11 14,11 4,0 7,-3 7,-7 0,-3 -2,-6 -5,-7.5 6,0.5 8,4.5 8,4.5 0,0 -4,-10 -14,-10 z m 1.033203,4.996094 c 1.508097,0.04497 3.243048,0.657524 4.667969,1.86914 2.334386,1.98494 3.038116,4.901356 2.158203,6.636719 a 3.308772,2.6555652 45.000001 0 0 -1.248047,-3.623047 3.308772,2.6555652 45.000001 0 0 -4.140625,0 3.308772,2.6555652 45.000001 0 0 0.917969,4.242188 3.308772,2.6555652 45.000001 0 0 1.888672,0.853515 c -1.760236,0.121602 -4.028071,-0.587306 -5.728516,-2.033203 -2.605569,-2.215528 -2.885656,-5.308176 -1.492187,-6.90625 0.522551,-0.599277 1.363534,-0.94357 2.345703,-1.023437 0.204618,-0.01664 0.415417,-0.02205 0.630859,-0.01563 z"
     id="path14" />
</svg>
