<?xml version="1.0" encoding="UTF-8" standalone="no"?>
<svg
   xmlns:dc="http://purl.org/dc/elements/1.1/"
   xmlns:cc="http://creativecommons.org/ns#"
   xmlns:rdf="http://www.w3.org/1999/02/22-rdf-syntax-ns#"
   xmlns:svg="http://www.w3.org/2000/svg"
   xmlns="http://www.w3.org/2000/svg"
   xmlns:sodipodi="http://sodipodi.sourceforge.net/DTD/sodipodi-0.dtd"
   xmlns:inkscape="http://www.inkscape.org/namespaces/inkscape"
   width="48"
   height="48"
   version="1.1"
   id="svg24"
   sodipodi:docname="application-x-eqonomize.svg"
   inkscape:version="0.92.5 (2060ec1f9f, 2020-04-08)">
  <metadata
     id="metadata30">
    <rdf:RDF>
      <cc:Work
         rdf:about="">
        <dc:format>image/svg+xml</dc:format>
        <dc:type
           rdf:resource="http://purl.org/dc/dcmitype/StillImage" />
      </cc:Work>
    </rdf:RDF>
  </metadata>
  <defs
     id="defs28" />
  <sodipodi:namedview
     pagecolor="#ffffff"
     bordercolor="#666666"
     borderopacity="1"
     objecttolerance="10"
     gridtolerance="10"
     guidetolerance="10"
     inkscape:pageopacity="0"
     inkscape:pageshadow="2"
     inkscape:window-width="783"
     inkscape:window-height="480"
     id="namedview26"
     showgrid="false"
     inkscape:zoom="4.9166667"
     inkscape:cx="24"
     inkscape:cy="24"
     inkscape:window-x="0"
     inkscape:window-y="28"
     inkscape:window-maximized="0"
     inkscape:current-layer="svg24" />
  <path
     style="opacity:0.2"
     d="M 10,5 C 8.892,5 8,5.892 8,7 V 43 C 8,44.108 8.892,45 10,45 H 38 C 39.108,45 40,44.108 40,43 V 17 L 28,5 Z"
     id="path2" />
  <path
     style="fill:#4c566a;fill-opacity:1"
     d="M 10,4 C 8.892,4 8,4.892 8,6 V 42 C 8,43.108 8.892,44 10,44 H 38 C 39.108,44 40,43.108 40,42 V 16 L 30,14 28,4 Z"
     id="path4" />
  <path
     style="opacity:0.2"
     d="M 40,17 28,5 V 15 C 28,16.108 28.892,17 30,17 Z"
     id="path6" />
  <path
     style="fill:#5f697d;fill-opacity:1"
     d="M 40,16 28,4 V 14 C 28,15.108 28.892,16 30,16 Z"
     id="path8" />
  <path
     style="opacity:0.2;fill:#ffffff"
     d="M 10 4 C 8.892 4 8 4.892 8 6 L 8 7 C 8 5.892 8.892 5 10 5 L 28 5 L 28 4 L 10 4 z"
     id="path10" />
  <path
     style="opacity:0.1"
     d="m 25,23 v 17 h 7 V 23 Z m -3,1 v 1 c -1.243665,-4.68e-4 -2.382636,0.01944 -3.324219,0.490234 -0.520979,0.26049 -0.967767,0.682295 -1.253906,1.267578 C 17.135736,27.343096 17,28.075001 17,29 h 1 c 0,-0.824999 0.125201,-1.405598 0.320312,-1.804688 0.19511,-0.399091 0.448715,-0.633536 0.802735,-0.810546 C 19.762099,26.065239 20.778958,26.009867 22,26.001953 V 27 l 2,-1.5 z m -6,6 v 10 h 7 V 30 Z"
     id="path12" />
  <rect
     style="fill:#ffffff;fill-opacity:1"
     width="7"
     height="17"
     x="25"
     y="22"
     id="rect14" />
  <rect
     style="fill:#ffffff;fill-opacity:1"
     width="7"
     height="10"
     x="16"
     y="29"
     id="rect16" />
  <path
     style="fill:none;stroke:#ffffff;stroke-opacity:1"
     d="m 17.5,28 c 0,-3.5 2.1,-3.5 4.9,-3.5"
     id="path18" />
  <path
     style="fill:#ffffff;fill-opacity:1"
     d="M 24,24.5 22,26 v -3.000001 z"
     id="path20" />
  <path
     style="fill:#3f3f3f"
     d="m 28.769231,32.00246 c -0.615384,-0.02749 -1.019503,0.177077 -1.332933,0.531032 -0.313429,0.349106 -0.428148,0.871759 -0.513221,1.468148 H 26.307693 L 26,34.668034 h 0.926682 c -0.0011,0.09984 -0.0054,0.215779 -0.0072,0.333196 0.0018,0.117418 0.0061,0.233355 0.0072,0.333197 H 26.307693 L 26,36.00082 h 0.923077 c 0.08507,0.59639 0.199792,1.119042 0.513221,1.468147 C 27.749728,37.822923 28.153847,38 28.769231,38 29.384616,38 30,37.332383 30,37.332383 v -0.657282 c 0,0 -0.691346,0.625602 -1.230769,0.658506 -0.539424,0.03291 -1.044667,-0.406685 -1.210337,-1.332787 h 1.210337 l 0.307692,-0.666393 h -1.538462 c -0.0084,-0.0947 -0.009,-0.214404 -0.0072,-0.333197 -0.0018,-0.118793 -0.0012,-0.238491 0.0072,-0.333196 h 1.538462 l 0.307693,-0.666394 h -1.825722 c 0.16567,-0.926102 0.646591,-1.352099 1.210337,-1.332786 C 29.332978,32.688174 30,33.32736 30,33.32736 v -0.657283 c 0,0 -0.615384,-0.64012 -1.230769,-0.667617 z"
     id="path22" />
</svg>
