<?xml version="1.0" encoding="UTF-8" standalone="no"?>
<svg
   xmlns:dc="http://purl.org/dc/elements/1.1/"
   xmlns:cc="http://creativecommons.org/ns#"
   xmlns:rdf="http://www.w3.org/1999/02/22-rdf-syntax-ns#"
   xmlns:svg="http://www.w3.org/2000/svg"
   xmlns="http://www.w3.org/2000/svg"
   xmlns:sodipodi="http://sodipodi.sourceforge.net/DTD/sodipodi-0.dtd"
   xmlns:inkscape="http://www.inkscape.org/namespaces/inkscape"
   width="48"
   height="48"
   version="1.1"
   id="svg38"
   sodipodi:docname="application-vnd.kde.fontspackage.svg"
   inkscape:version="0.92.5 (2060ec1f9f, 2020-04-08)">
  <metadata
     id="metadata44">
    <rdf:RDF>
      <cc:Work
         rdf:about="">
        <dc:format>image/svg+xml</dc:format>
        <dc:type
           rdf:resource="http://purl.org/dc/dcmitype/StillImage" />
      </cc:Work>
    </rdf:RDF>
  </metadata>
  <defs
     id="defs42" />
  <sodipodi:namedview
     pagecolor="#ffffff"
     bordercolor="#666666"
     borderopacity="1"
     objecttolerance="10"
     gridtolerance="10"
     guidetolerance="10"
     inkscape:pageopacity="0"
     inkscape:pageshadow="2"
     inkscape:window-width="640"
     inkscape:window-height="480"
     id="namedview40"
     showgrid="false"
     inkscape:zoom="4.9166667"
     inkscape:cx="-15.661017"
     inkscape:cy="24"
     inkscape:current-layer="svg38" />
  <path
     style="opacity:0.2"
     d="M 10,5 C 8.892,5 8,5.892 8,7 V 43 C 8,44.108 8.892,45 10,45 H 38 C 39.108,45 40,44.108 40,43 V 17 L 28,5 Z"
     id="path2" />
  <path
     style="fill:#4c566a;fill-opacity:1"
     d="M 10,4 C 8.892,4 8,4.892 8,6 V 42 C 8,43.108 8.892,44 10,44 H 38 C 39.108,44 40,43.108 40,42 V 16 L 30,14 28,4 Z"
     id="path4" />
  <rect
     style="opacity:0.2"
     width="8"
     height="19"
     x="14"
     y="4"
     id="rect6" />
  <rect
     style="fill:#ffffff"
     width="2"
     height="2"
     x="16"
     y="18"
     id="rect8" />
  <path
     style="fill:#4b4b4b"
     d="m 18,18 c 3,0 3,4 4,4 v 5 c 0,0.554 -0.446,1 -1,1 h -6 c -0.554,0 -1,-0.446 -1,-1 v -5 c 1,0 1,-4 4,-4 z"
     id="path10" />
  <rect
     style="fill:#ffffff"
     width="2"
     height="2"
     x="18"
     y="16"
     id="rect12" />
  <rect
     style="fill:#ffffff"
     width="2"
     height="2"
     x="16"
     y="14"
     id="rect14" />
  <rect
     style="fill:#ffffff"
     width="2"
     height="2"
     x="18"
     y="12"
     id="rect16" />
  <rect
     style="fill:#ffffff"
     width="2"
     height="2"
     x="16"
     y="10"
     id="rect18" />
  <rect
     style="fill:#ffffff"
     width="2"
     height="2"
     x="18"
     y="8"
     id="rect20" />
  <rect
     style="fill:#ffffff"
     width="2"
     height="2"
     x="16"
     y="6"
     id="rect22" />
  <rect
     style="fill:#ffffff"
     width="2"
     height="2"
     x="18"
     y="4"
     id="rect24" />
  <path
     style="opacity:0.2"
     d="M 17.734375,24 C 15.666108,24 14,25.659635 14,27.71875 v 7.5625 C 14,37.340366 15.666108,39 17.734375,39 h 0.53125 C 20.333892,39 22,37.340366 22,35.28125 v -7.5625 C 22,25.659635 20.333892,24 18.265625,24 Z M 18,32 c 1.656854,3e-6 3,1.345149 3,3.001953 C 21,36.658758 19.656854,38 18,38 16.343146,38 15,36.658758 15,35.001953 15,33.345149 16.343146,32.000003 18,32 Z"
     id="path26" />
  <path
     style="fill:#ffffff"
     d="M 17.734375,23 C 15.666108,23 14,24.659635 14,26.71875 v 7.5625 C 14,36.340366 15.666108,38 17.734375,38 h 0.53125 C 20.333892,38 22,36.340366 22,34.28125 v -7.5625 C 22,24.659635 20.333892,23 18.265625,23 Z M 18,31 c 1.656854,3e-6 3,1.345149 3,3.001953 C 21,35.658758 19.656854,37 18,37 16.343146,37 15,35.658758 15,34.001953 15,32.345149 16.343146,31.000003 18,31 Z"
     id="path28" />
  <path
     style="fill:#909090"
     d="M 17.984375,20.000122 A 1.0001,0.99544853 0 0 0 17,21.009079 v 3.981396 a 1.0001,0.99544853 0 1 0 2,0 v -3.981396 a 1.0001,0.99544853 0 0 0 -1.015625,-1.008957 z"
     id="path30" />
  <path
     style="opacity:0.2"
     d="M 40,17 28,5 V 15 C 28,16.108 28.892,17 30,17 Z"
     id="path32" />
  <path
     style="fill:#5f697d;fill-opacity:1"
     d="M 40,16 28,4 V 14 C 28,15.108 28.892,16 30,16 Z"
     id="path34" />
  <path
     style="opacity:0.2;fill:#ffffff"
     d="M 10 4 C 8.892 4 8 4.892 8 6 L 8 7 C 8 5.892 8.892 5 10 5 L 28 5 L 28 4 L 10 4 z"
     id="path36" />
</svg>
