<?xml version="1.0" encoding="UTF-8" standalone="no"?>
<svg
   xmlns:dc="http://purl.org/dc/elements/1.1/"
   xmlns:cc="http://creativecommons.org/ns#"
   xmlns:rdf="http://www.w3.org/1999/02/22-rdf-syntax-ns#"
   xmlns:svg="http://www.w3.org/2000/svg"
   xmlns="http://www.w3.org/2000/svg"
   xmlns:sodipodi="http://sodipodi.sourceforge.net/DTD/sodipodi-0.dtd"
   xmlns:inkscape="http://www.inkscape.org/namespaces/inkscape"
   width="48"
   height="48"
   version="1.1"
   id="svg24"
   sodipodi:docname="application-mbox.svg"
   inkscape:version="0.92.5 (2060ec1f9f, 2020-04-08)">
  <metadata
     id="metadata30">
    <rdf:RDF>
      <cc:Work
         rdf:about="">
        <dc:format>image/svg+xml</dc:format>
        <dc:type
           rdf:resource="http://purl.org/dc/dcmitype/StillImage" />
      </cc:Work>
    </rdf:RDF>
  </metadata>
  <defs
     id="defs28" />
  <sodipodi:namedview
     pagecolor="#ffffff"
     bordercolor="#666666"
     borderopacity="1"
     objecttolerance="10"
     gridtolerance="10"
     guidetolerance="10"
     inkscape:pageopacity="0"
     inkscape:pageshadow="2"
     inkscape:window-width="640"
     inkscape:window-height="480"
     id="namedview26"
     showgrid="false"
     inkscape:zoom="4.9166667"
     inkscape:cx="-15.661017"
     inkscape:cy="24"
     inkscape:current-layer="svg24" />
  <rect
     style="opacity:0.2"
     width="8"
     height="21"
     x="21"
     y="24"
     rx="1"
     ry="1"
     id="rect2" />
  <rect
     style="fill:#b0b0b0"
     width="8"
     height="21"
     x="21"
     y="23"
     rx="1"
     ry="1"
     id="rect4" />
  <path
     style="opacity:0.2"
     d="m 14,10 a 6,6 0 0 0 -6,6 v 12 c 0,1.108 0.892,2 2,2 h 28 c 1.108,0 2,-0.892 2,-2 V 16 a 6,6 0 0 0 -6,-6 z"
     id="path6" />
  <path
     style="fill:#4c566a;fill-opacity:1"
     d="M 14 9 A 6 6 0 0 0 8 15 L 8 27 C 8 28.108 8.892 29 10 29 L 38 29 C 39.108 29 40 28.108 40 27 L 40 15 A 6 6 0 0 0 34 9 L 14 9 z"
     id="path8" />
  <path
     style="opacity:0.1;fill:#ffffff"
     d="M 14 9 A 6 6 0 0 1 17.316406 10 L 34 10 A 6 6 0 0 1 40 16 L 40 15 A 6 6 0 0 0 34 9 L 14 9 z"
     id="path10" />
  <path
     style="opacity:0.3;fill:#ffffff"
     d="M 14 9 A 6 6 0 0 0 8 15 L 8 27 C 8 28.108 8.892 29 10 29 L 20 29 L 20 15 A 6 6 0 0 0 14 9 z"
     id="path12" />
  <path
     style="opacity:0.2"
     d="m 30,5 a 2.0002,2.0002 0 0 0 -2,2 v 12 a 2,2 0 0 0 2,2 2,2 0 0 0 2,-2 V 9 h 2 A 2,2 0 0 0 36,7 2,2 0 0 0 34,5 Z"
     id="path14" />
  <path
     style="fill:none;stroke:#ffffff;stroke-width:4;stroke-linecap:round;stroke-linejoin:round;stroke-opacity:1"
     d="M 30,18 V 6 h 4"
     id="path16" />
  <rect
     style="opacity:0.3"
     width="8"
     height="2"
     x="10"
     y="14"
     rx=".5"
     ry=".5"
     id="rect18" />
  <path
     style="opacity:0.2;fill:#ffffff"
     d="M 14 9 A 6 6 0 0 0 8 15 L 8 16 A 6 6 0 0 1 14 10 A 6 6 0 0 1 20 16 L 20 15 A 6 6 0 0 0 14 9 z"
     id="path20" />
  <path
     style="opacity:0.2;fill:#ffffff"
     d="M 30,4 A 2.0002,2.0002 0 0 0 28,6 V 6.9511719 A 2.0002,2.0002 0 0 1 30,5 h 4 A 2,2 0 0 1 35.935547,6.5019531 2,2 0 0 0 36,6 2,2 0 0 0 34,4 Z"
     id="path22" />
</svg>
