<?xml version="1.0" encoding="UTF-8" standalone="no"?>
<svg
   xmlns:dc="http://purl.org/dc/elements/1.1/"
   xmlns:cc="http://creativecommons.org/ns#"
   xmlns:rdf="http://www.w3.org/1999/02/22-rdf-syntax-ns#"
   xmlns:svg="http://www.w3.org/2000/svg"
   xmlns="http://www.w3.org/2000/svg"
   xmlns:sodipodi="http://sodipodi.sourceforge.net/DTD/sodipodi-0.dtd"
   xmlns:inkscape="http://www.inkscape.org/namespaces/inkscape"
   width="48"
   height="48"
   version="1"
   id="svg24"
   sodipodi:docname="application-x-bittorrent.svg"
   inkscape:version="0.92.5 (2060ec1f9f, 2020-04-08)">
  <metadata
     id="metadata30">
    <rdf:RDF>
      <cc:Work
         rdf:about="">
        <dc:format>image/svg+xml</dc:format>
        <dc:type
           rdf:resource="http://purl.org/dc/dcmitype/StillImage" />
      </cc:Work>
    </rdf:RDF>
  </metadata>
  <defs
     id="defs28" />
  <sodipodi:namedview
     pagecolor="#ffffff"
     bordercolor="#666666"
     borderopacity="1"
     objecttolerance="10"
     gridtolerance="10"
     guidetolerance="10"
     inkscape:pageopacity="0"
     inkscape:pageshadow="2"
     inkscape:window-width="640"
     inkscape:window-height="480"
     id="namedview26"
     showgrid="false"
     inkscape:zoom="4.9166667"
     inkscape:cx="-15.661017"
     inkscape:cy="24"
     inkscape:current-layer="svg24" />
  <path
     style="opacity:0.2"
     d="M 10,5 C 8.892,5 8,5.892 8,7 v 36 c 0,1.108 0.892,2 2,2 h 28 c 1.108,0 2,-0.892 2,-2 V 17 L 29,16 28,5 Z"
     id="path2" />
  <path
     style="fill:#4c566a;fill-opacity:1"
     d="M 10,4 C 8.892,4 8,4.892 8,6 v 36 c 0,1.108 0.892,2 2,2 h 28 c 1.108,0 2,-0.892 2,-2 V 16 L 29,15 28,4 Z"
     id="path4" />
  <path
     style="opacity:0.2"
     d="m 26,27 c -2.209139,0 -4,1.790861 -4,4 0,2.209139 1.790861,4 4,4 H 40 V 33 H 26 c -1.104569,0 -2,-0.895431 -2,-2 0,-1.104569 0.895431,-2 2,-2 0.713268,0.0013 1.371883,0.38229 1.728516,1 h 2.138672 C 29.411731,28.236014 27.821835,27.00264 26,27 Z"
     id="path6" />
  <path
     style="opacity:0.2;fill:#ffffff"
     d="M 10,4 C 8.892,4 8,4.892 8,6 V 7 C 8,5.892 8.892,5 10,5 h 18 l 11,11 h 1 L 28,4 Z"
     id="path8" />
  <path
     style="opacity:0.2"
     d="m 28,5 v 10 c 0,1.1046 0.89543,2 2,2 h 10 z"
     id="path10" />
  <path
     style="fill:#5f697d;fill-opacity:1"
     d="m 28,4 v 10 c 0,1.1046 0.89543,2 2,2 h 10 z"
     id="path12" />
  <path
     style="opacity:0.2"
     d="m 26,21 c -5.522847,0 -10,4.477153 -10,10 0,5.522847 4.477153,10 10,10 H 40 V 39 H 26 c -4.418278,0 -8,-3.581722 -8,-8 0,-4.418278 3.581722,-8 8,-8 z"
     id="path14" />
  <path
     style="fill:#ffffff"
     d="m 26,20 c -5.522847,0 -10,4.477153 -10,10 0,5.522847 4.477153,10 10,10 H 40 V 38 H 26 c -4.418278,0 -8,-3.581722 -8,-8 0,-4.418278 3.581722,-8 8,-8 z"
     id="path16" />
  <path
     style="opacity:0.2"
     d="m 26,24 c -3.865993,0 -7,3.134007 -7,7 0,3.865993 3.134007,7 7,7 H 40 V 36 H 26 c -2.761424,0 -5,-2.238576 -5,-5 0,-2.761424 2.238576,-5 5,-5 0.688467,7.88e-4 1.369353,0.143747 2,0.419922 V 24.298828 C 27.351311,24.102941 26.677616,24.002281 26,24 Z"
     id="path18" />
  <path
     style="fill:#9ba5b8;fill-opacity:1"
     d="m 26,23 c -3.865993,0 -7,3.134007 -7,7 0,3.865993 3.134007,7 7,7 H 40 V 35 H 26 c -2.761424,0 -5,-2.238576 -5,-5 0,-2.761424 2.238576,-5 5,-5 0.688467,7.88e-4 1.369353,0.143747 2,0.419922 V 23.298828 C 27.351311,23.102941 26.677616,23.002281 26,23 Z"
     id="path20" />
  <path
     style="fill:#7d98bd;fill-opacity:1"
     d="m 26,26 c -2.209139,0 -4,1.790861 -4,4 0,2.209139 1.790861,4 4,4 H 40 V 32 H 26 c -1.104569,0 -2,-0.895431 -2,-2 0,-1.104569 0.895431,-2 2,-2 0.713268,0.0013 1.371883,0.38229 1.728516,1 h 2.138672 C 29.411731,27.236014 27.821835,26.00264 26,26 Z"
     id="path22" />
</svg>
