<?xml version="1.0" encoding="UTF-8" standalone="no"?>
<svg
   xmlns:dc="http://purl.org/dc/elements/1.1/"
   xmlns:cc="http://creativecommons.org/ns#"
   xmlns:rdf="http://www.w3.org/1999/02/22-rdf-syntax-ns#"
   xmlns:svg="http://www.w3.org/2000/svg"
   xmlns="http://www.w3.org/2000/svg"
   xmlns:sodipodi="http://sodipodi.sourceforge.net/DTD/sodipodi-0.dtd"
   xmlns:inkscape="http://www.inkscape.org/namespaces/inkscape"
   width="48"
   height="48"
   version="1.1"
   id="svg16"
   sodipodi:docname="application-x-atari-2600-rom.svg"
   inkscape:version="0.92.5 (2060ec1f9f, 2020-04-08)">
  <metadata
     id="metadata22">
    <rdf:RDF>
      <cc:Work
         rdf:about="">
        <dc:format>image/svg+xml</dc:format>
        <dc:type
           rdf:resource="http://purl.org/dc/dcmitype/StillImage" />
      </cc:Work>
    </rdf:RDF>
  </metadata>
  <defs
     id="defs20" />
  <sodipodi:namedview
     pagecolor="#ffffff"
     bordercolor="#666666"
     borderopacity="1"
     objecttolerance="10"
     gridtolerance="10"
     guidetolerance="10"
     inkscape:pageopacity="0"
     inkscape:pageshadow="2"
     inkscape:window-width="640"
     inkscape:window-height="480"
     id="namedview18"
     showgrid="false"
     inkscape:zoom="4.9166667"
     inkscape:cx="-15.661017"
     inkscape:cy="24"
     inkscape:current-layer="svg16" />
  <path
     style="opacity:.2"
     d="m10 5c-1.108 0-2 0.892-2 2v36c0 1.108 0.892 2 2 2h28c1.108 0 2-0.892 2-2v-26l-12-12z"
     id="path2" />
  <path
     style="fill:#4c566a;fill-opacity:1"
     d="m10 4c-1.108 0-2 0.892-2 2v36c0 1.108 0.892 2 2 2h28c1.108 0 2-0.892 2-2v-26l-10-2-2-10z"
     id="path4" />
  <path
     style="opacity:.2"
     d="m40 17-12-12v10c0 1.108 0.892 2 2 2z"
     id="path6" />
  <path
     style="fill:#5f697d;fill-opacity:1"
     d="m40 16-12-12v10c0 1.108 0.892 2 2 2z"
     id="path8" />
  <path
     style="fill:#ffffff;opacity:.2"
     d="m10 4c-1.108 0-2 0.892-2 2v1c0-1.108 0.892-2 2-2h18v-1h-18z"
     id="path10" />
  <path
     style="opacity:0.2"
     d="m 20.621094,23.000524 c -0.301617,0.03 -0.315856,0.02166 -0.351563,0.400391 -0.05685,5.222728 -1.271154,10.27154 -4.460936,12.679687 -0.353695,0.231438 -0.392164,0.23241 -0.173828,0.619141 l 1.105468,1.958984 c 0.202468,0.482555 0.302649,0.358088 0.628906,0.136719 2.201494,-1.540032 3.607245,-3.569254 4.3125,-6.058594 0.237961,-0.839938 0.359715,-1.732607 0.425781,-2.679687 v 8.466797 c -0.02201,0.455379 -0.0039,0.466796 0.417969,0.466796 h 3.1875 c 0.438005,0.04838 0.281259,-0.08973 0.28125,-0.496093 v -7.509766 c 0.06849,0.60556 0.165537,1.191866 0.324218,1.751953 0.705259,2.489339 2.111003,4.518562 4.3125,6.058594 0.326255,0.221369 0.426439,0.345837 0.628907,-0.136719 l 1.105468,-1.958984 c 0.218331,-0.386733 0.179871,-0.387703 -0.173828,-0.619141 -3.189782,-2.408147 -4.404059,-7.456959 -4.460937,-12.679687 -0.0018,-0.322483 -0.04999,-0.405949 -0.351563,-0.400391 z"
     id="path12" />
  <path
     style="fill:#ffffff"
     d="m 20.621094,22.00039 c -0.301617,0.03 -0.315856,0.02166 -0.351563,0.400391 -0.05685,5.222728 -1.271154,10.27154 -4.460936,12.679687 -0.353695,0.231438 -0.392164,0.23241 -0.173828,0.619141 l 1.105468,1.958984 c 0.202468,0.482555 0.302649,0.358088 0.628906,0.136719 2.201494,-1.540032 3.607245,-3.569254 4.3125,-6.058594 0.237961,-0.839938 0.359715,-1.732607 0.425781,-2.679687 v 8.466797 c -0.02201,0.455379 -0.0039,0.466796 0.417969,0.466796 h 3.1875 c 0.438005,0.04838 0.281259,-0.08973 0.28125,-0.496093 v -7.509766 c 0.06849,0.60556 0.165537,1.191866 0.324218,1.751953 0.705259,2.489339 2.111003,4.518562 4.3125,6.058594 0.326255,0.221369 0.426439,0.345837 0.628907,-0.136719 l 1.105468,-1.958984 c 0.218331,-0.386733 0.179871,-0.387703 -0.173828,-0.619141 -3.189782,-2.408147 -4.404059,-7.456959 -4.460937,-12.679687 -0.0018,-0.322483 -0.04999,-0.405949 -0.351563,-0.400391 z"
     id="path14" />
</svg>
