<?xml version="1.0" encoding="UTF-8" standalone="no"?>
<svg
   xmlns:dc="http://purl.org/dc/elements/1.1/"
   xmlns:cc="http://creativecommons.org/ns#"
   xmlns:rdf="http://www.w3.org/1999/02/22-rdf-syntax-ns#"
   xmlns:svg="http://www.w3.org/2000/svg"
   xmlns="http://www.w3.org/2000/svg"
   xmlns:sodipodi="http://sodipodi.sourceforge.net/DTD/sodipodi-0.dtd"
   xmlns:inkscape="http://www.inkscape.org/namespaces/inkscape"
   width="48"
   height="48"
   version="1.1"
   id="svg42"
   sodipodi:docname="application-bitwig-template.svg"
   inkscape:version="0.92.5 (2060ec1f9f, 2020-04-08)">
  <metadata
     id="metadata48">
    <rdf:RDF>
      <cc:Work
         rdf:about="">
        <dc:format>image/svg+xml</dc:format>
        <dc:type
           rdf:resource="http://purl.org/dc/dcmitype/StillImage" />
      </cc:Work>
    </rdf:RDF>
  </metadata>
  <defs
     id="defs46" />
  <sodipodi:namedview
     pagecolor="#ffffff"
     bordercolor="#666666"
     borderopacity="1"
     objecttolerance="10"
     gridtolerance="10"
     guidetolerance="10"
     inkscape:pageopacity="0"
     inkscape:pageshadow="2"
     inkscape:window-width="640"
     inkscape:window-height="480"
     id="namedview44"
     showgrid="false"
     inkscape:zoom="4.9166667"
     inkscape:cx="-15.661017"
     inkscape:cy="24"
     inkscape:current-layer="svg42" />
  <path
     style="opacity:0.2"
     d="M 10,5 C 8.892,5 8,5.892 8,7 V 43 C 8,44.108 8.892,45 10,45 H 38 C 39.108,45 40,44.108 40,43 V 17 L 28,5 Z"
     id="path2" />
  <path
     style="fill:#4c566a;fill-opacity:1"
     d="M 10,4 C 8.892,4 8,4.892 8,6 V 42 C 8,43.108 8.892,44 10,44 H 38 C 39.108,44 40,43.108 40,42 V 16 L 30,14 28,4 Z"
     id="path4" />
  <path
     style="opacity:0.2"
     d="M 40,17 28,5 V 15 C 28,16.108 28.892,17 30,17 Z"
     id="path6" />
  <path
     style="fill:#5f697d;fill-opacity:1"
     d="M 40,16 28,4 V 14 C 28,15.108 28.892,16 30,16 Z"
     id="path8" />
  <path
     style="opacity:0.2;fill:#ffffff"
     d="M 10 4 C 8.892 4 8 4.892 8 6 L 8 7 C 8 5.892 8.892 5 10 5 L 28 5 L 28 4 L 10 4 z"
     id="path10" />
  <g
     style="fill:#fff3ed;fill-opacity:1"
     id="g40">
    <circle
       style="fill:#fff3ed;fill-opacity:1"
       cx="17.5"
       cy="24.5"
       r="1.5"
       id="circle12" />
    <circle
       style="fill:#fff3ed;fill-opacity:1"
       cx="21.5"
       cy="24.5"
       r="1.5"
       id="circle14" />
    <circle
       style="fill:#fff3ed;fill-opacity:1"
       cx="25.5"
       cy="24.5"
       r="1.5"
       id="circle16" />
    <circle
       style="fill:#fff3ed;fill-opacity:1"
       cx="29.5"
       cy="24.5"
       r="1.5"
       id="circle18" />
    <circle
       style="fill:#fff3ed;fill-opacity:1"
       cx="13.5"
       cy="28.5"
       r="1.5"
       id="circle20" />
    <circle
       style="fill:#fff3ed;fill-opacity:1"
       cx="17.5"
       cy="28.5"
       r="1.5"
       id="circle22" />
    <circle
       style="fill:#fff3ed;fill-opacity:1"
       cx="21.5"
       cy="28.5"
       r="1.5"
       id="circle24" />
    <circle
       style="fill:#fff3ed;fill-opacity:1"
       cx="25.5"
       cy="28.5"
       r="1.5"
       id="circle26" />
    <circle
       style="fill:#fff3ed;fill-opacity:1"
       cx="29.5"
       cy="28.5"
       r="1.5"
       id="circle28" />
    <circle
       style="fill:#fff3ed;fill-opacity:1"
       cx="33.5"
       cy="28.5"
       r="1.5"
       id="circle30" />
    <circle
       style="fill:#fff3ed;fill-opacity:1"
       cx="13.5"
       cy="32.5"
       r="1.5"
       id="circle32" />
    <circle
       style="fill:#fff3ed;fill-opacity:1"
       cx="17.5"
       cy="32.5"
       r="1.5"
       id="circle34" />
    <circle
       style="fill:#fff3ed;fill-opacity:1"
       cx="29.5"
       cy="32.5"
       r="1.5"
       id="circle36" />
    <circle
       style="fill:#fff3ed;fill-opacity:1"
       cx="33.5"
       cy="32.5"
       r="1.5"
       id="circle38" />
  </g>
</svg>
