<?xml version="1.0" encoding="UTF-8" standalone="no"?>
<svg
   xmlns:dc="http://purl.org/dc/elements/1.1/"
   xmlns:cc="http://creativecommons.org/ns#"
   xmlns:rdf="http://www.w3.org/1999/02/22-rdf-syntax-ns#"
   xmlns:svg="http://www.w3.org/2000/svg"
   xmlns="http://www.w3.org/2000/svg"
   xmlns:sodipodi="http://sodipodi.sourceforge.net/DTD/sodipodi-0.dtd"
   xmlns:inkscape="http://www.inkscape.org/namespaces/inkscape"
   width="48"
   height="48"
   version="1"
   id="svg34"
   sodipodi:docname="application-sql.svg"
   inkscape:version="0.92.5 (2060ec1f9f, 2020-04-08)">
  <metadata
     id="metadata40">
    <rdf:RDF>
      <cc:Work
         rdf:about="">
        <dc:format>image/svg+xml</dc:format>
        <dc:type
           rdf:resource="http://purl.org/dc/dcmitype/StillImage" />
      </cc:Work>
    </rdf:RDF>
  </metadata>
  <defs
     id="defs38" />
  <sodipodi:namedview
     pagecolor="#ffffff"
     bordercolor="#666666"
     borderopacity="1"
     objecttolerance="10"
     gridtolerance="10"
     guidetolerance="10"
     inkscape:pageopacity="0"
     inkscape:pageshadow="2"
     inkscape:window-width="640"
     inkscape:window-height="480"
     id="namedview36"
     showgrid="false"
     inkscape:zoom="4.9166667"
     inkscape:cx="-15.661017"
     inkscape:cy="24"
     inkscape:current-layer="svg34" />
  <path
     style="opacity:0.2"
     d="M 10,5 C 8.892,5 8,5.892 8,7 v 36 c 0,1.108 0.892,2 2,2 h 28 c 1.108,0 2,-0.892 2,-2 V 17 L 29,16 28,5 Z"
     id="path2" />
  <path
     inkscape:connector-curvature="0"
     style="fill:#4c566a;fill-opacity:1"
     d="M 10,4 C 8.892,4 8,4.892 8,6 v 36 c 0,1.108 0.892,2 2,2 h 28 c 1.108,0 2,-0.892 2,-2 V 16 L 28,4 Z"
     id="path4" />
  <path
     fill="#fff"
     opacity=".2"
     d="m10 4c-1.108 0-2 0.892-2 2v1c0-1.108 0.892-2 2-2h18l11 11h1l-12-12z"
     id="path6" />
  <path
     style="opacity:0.2"
     d="m 28,5 v 10 c 0,1.1046 0.89543,2 2,2 h 10 z"
     id="path8" />
  <g
     style="fill:#ffffff;fill-opacity:1"
     transform="matrix(0.1786,0,0,0.18927,15.507,21.000044)"
     id="g32">
    <g
       style="fill:#ffffff;fill-opacity:1"
       id="g30">
      <g
         style="fill:#ffffff;fill-opacity:1"
         id="g28">
        <g
           style="fill:#ffffff;fill-opacity:1"
           id="g26">
          <g
             style="fill:#ffffff;fill-opacity:1"
             id="g16">
            <g
               style="fill:#ffffff;fill-opacity:1"
               id="g14">
              <path
                 style="fill:#ffffff;fill-opacity:1"
                 d="M 47.561,0 C 25.928,0 8.39,6.393 8.39,14.283 v 11.72 c 0,7.891 17.538,14.282 39.171,14.282 21.632,0 39.17,-6.392 39.17,-14.282 V 14.283 C 86.731,6.393 69.193,0 47.561,0 Z"
                 id="path12" />
            </g>
          </g>
          <g
             style="fill:#ffffff;fill-opacity:1"
             id="g22">
            <g
               style="fill:#ffffff;fill-opacity:1"
               id="g20">
              <path
                 style="fill:#ffffff;fill-opacity:1"
                 d="m 47.561,47.115 c -20.654,0 -37.682,-5.832 -39.171,-13.227 -0.071,0.353 0,19.355 0,19.355 0,7.892 17.538,14.283 39.171,14.283 21.632,0 39.17,-6.393 39.17,-14.283 0,0 0.044,-19.003 -0.026,-19.355 -1.491,7.396 -18.491,13.227 -39.144,13.227 z"
                 id="path18" />
            </g>
          </g>
          <path
             style="fill:#ffffff;fill-opacity:1"
             d="M 86.694,61.464 C 85.206,68.855 68.215,74.69 47.561,74.69 26.907,74.69 9.875,68.854 8.386,61.464 L 8.39,80.82 c 0,7.891 17.538,14.282 39.171,14.282 21.632,0 39.17,-6.393 39.17,-14.282 z"
             id="path24" />
        </g>
      </g>
    </g>
  </g>
  <path
     inkscape:connector-curvature="0"
     style="fill:#5f697d;fill-opacity:1"
     d="M 40,16 28,4 v 10 c 0,1.108 0.892,2 2,2 z"
     id="path8-3" />
</svg>
