<?xml version="1.0" encoding="UTF-8" standalone="no"?>
<svg
   xmlns:dc="http://purl.org/dc/elements/1.1/"
   xmlns:cc="http://creativecommons.org/ns#"
   xmlns:rdf="http://www.w3.org/1999/02/22-rdf-syntax-ns#"
   xmlns:svg="http://www.w3.org/2000/svg"
   xmlns="http://www.w3.org/2000/svg"
   xmlns:sodipodi="http://sodipodi.sourceforge.net/DTD/sodipodi-0.dtd"
   xmlns:inkscape="http://www.inkscape.org/namespaces/inkscape"
   width="48"
   height="48"
   version="1"
   id="svg18"
   sodipodi:docname="application-vnd.oasis.opendocument.database.svg"
   inkscape:version="0.92.5 (2060ec1f9f, 2020-04-08)">
  <metadata
     id="metadata24">
    <rdf:RDF>
      <cc:Work
         rdf:about="">
        <dc:format>image/svg+xml</dc:format>
        <dc:type
           rdf:resource="http://purl.org/dc/dcmitype/StillImage" />
      </cc:Work>
    </rdf:RDF>
  </metadata>
  <defs
     id="defs22" />
  <sodipodi:namedview
     pagecolor="#ffffff"
     bordercolor="#666666"
     borderopacity="1"
     objecttolerance="10"
     gridtolerance="10"
     guidetolerance="10"
     inkscape:pageopacity="0"
     inkscape:pageshadow="2"
     inkscape:window-width="640"
     inkscape:window-height="480"
     id="namedview20"
     showgrid="false"
     inkscape:zoom="4.9166667"
     inkscape:cx="73.830508"
     inkscape:cy="24"
     inkscape:current-layer="svg18" />
  <path
     style="opacity:0.2"
     d="M 10,5 C 8.892,5 8,5.892 8,7 v 36 c 0,1.108 0.892,2 2,2 h 28 c 1.108,0 2,-0.892 2,-2 V 17 L 29,16 28,5 Z"
     id="path2" />
  <path
     inkscape:connector-curvature="0"
     style="fill:#4c566a;fill-opacity:1"
     d="m 10,3.9999998 c -1.108,0 -2,0.892 -2,2 V 42 c 0,1.108 0.892,2 2,2 h 28 c 1.108,0 2,-0.892 2,-2 V 16 L 28,3.9999998 Z"
     id="path4-3" />
  <path
     opacity=".1"
     transform="translate(-135.61,-237.72)"
     d="m163.22 242.45v11c0 1.1046 0.89543 2 2 2h10l-1-1-10-9z"
     id="path4" />
  <path
     style="opacity:0.2"
     d="m 24,21 c -2.9364,0 -5.4451,1.0351 -6.4844,2.5 -0.08726,0.12299 -0.16463,0.24824 -0.23047,0.37695 -0.06257,0.12232 -0.11607,0.24618 -0.1582,0.37305 a 7,4 0 0 0 -0.0293,0.11719 c -0.02399,0.08598 -0.05021,0.17205 -0.06445,0.25976 a 7,4 0 0 0 -0.034,0.373 c 3.85e-4,0.12998 0.01276,0.25978 0.03516,0.38867 a 7,4 0 0 0 0.0957,0.375 7,4 0 0 0 0.16211,0.37305 7,4 0 0 0 0.223,0.363 7,4 0 0 0 6.484,2.5 7,4 0 0 0 6.4844,-2.5 7,4 0 0 0 0.002,-0.0039 7,4 0 0 0 0.18945,-0.30859 c 0.01111,-0.02028 0.02462,-0.04018 0.03516,-0.06055 a 7,4 0 0 0 0.11523,-0.26562 c 0.01631,-0.04185 0.03683,-0.08288 0.05078,-0.125 a 7,4 0 0 0 0.05664,-0.22266 c 0.01348,-0.05865 0.02819,-0.11679 0.03711,-0.17578 a 7,4 0 0 0 0.029,-0.337 7,4 0 0 0 -0.037,-0.398 c -0.067,-0.387 -0.233,-0.756 -0.479,-1.102 -1.039,-1.465 -3.548,-2.5 -6.484,-2.5 z m -6.4844,7.5 a 7,4 0 0 0 -0.51562,1.5 7,4 0 0 0 7,4 7,4 0 0 0 7,-4 7,4 0 0 0 -0.51562,-1.5 7,4 0 0 1 -6.4844,2.5 7,4 0 0 1 -6.4844,-2.5 z m 0,5 a 7,4 0 0 0 -0.51562,1.5 7,4 0 0 0 7,4 7,4 0 0 0 7,-4 7,4 0 0 0 -0.51562,-1.5 7,4 0 0 1 -6.4844,2.5 7,4 0 0 1 -6.4844,-2.5 z"
     id="path8" />
  <path
     fill="#fff"
     opacity=".2"
     d="m10 4c-1.108 0-2 0.892-2 2v1c0-1.108 0.892-2 2-2h18l11 11h1l-12-12z"
     id="path10" />
  <path
     style="opacity:0.2"
     d="m 28,5 v 10 c 0,1.1046 0.89543,2 2,2 h 10 z"
     id="path12" />
  <path
     fill="#fff"
     d="m24 20c-2.9364 0-5.4451 1.0351-6.4844 2.5-0.08726 0.12299-0.16463 0.24824-0.23047 0.37695-0.06257 0.12232-0.11607 0.24618-0.1582 0.37305a7 4 0 0 0 -0.0293 0.11719c-0.02399 0.08598-0.05021 0.17205-0.06445 0.25976a7 4 0 0 0 -0.034 0.373c0.000385 0.12998 0.01276 0.25978 0.03516 0.38867a7 4 0 0 0 0.0957 0.375 7 4 0 0 0 0.16211 0.37305 7 4 0 0 0 0.223 0.363 7 4 0 0 0 6.484 2.5 7 4 0 0 0 6.4844 -2.5 7 4 0 0 0 0.002 -0.0039 7 4 0 0 0 0.18945 -0.30859c0.01111-0.02028 0.02462-0.04018 0.03516-0.06055a7 4 0 0 0 0.11523 -0.26562c0.01631-0.04185 0.03683-0.08288 0.05078-0.125a7 4 0 0 0 0.05664 -0.22266c0.01348-0.05865 0.02819-0.11679 0.03711-0.17578a7 4 0 0 0 0.029 -0.337 7 4 0 0 0 -0.037 -0.398c-0.067-0.387-0.233-0.756-0.479-1.102-1.039-1.465-3.548-2.5-6.484-2.5zm-6.4844 7.5a7 4 0 0 0 -0.51562 1.5 7 4 0 0 0 7 4 7 4 0 0 0 7 -4 7 4 0 0 0 -0.51562 -1.5 7 4 0 0 1 -6.4844 2.5 7 4 0 0 1 -6.4844 -2.5zm0 5a7 4 0 0 0 -0.51562 1.5 7 4 0 0 0 7 4 7 4 0 0 0 7 -4 7 4 0 0 0 -0.51562 -1.5 7 4 0 0 1 -6.4844 2.5 7 4 0 0 1 -6.4844 -2.5z"
     id="path16" />
  <path
     inkscape:connector-curvature="0"
     style="fill:#5f697d;fill-opacity:1"
     d="M 40,16 28,4 v 10 c 0,1.108 0.892,2 2,2 z"
     id="path8-7" />
</svg>
