<?xml version="1.0" encoding="UTF-8" standalone="no"?>
<svg
   xmlns:dc="http://purl.org/dc/elements/1.1/"
   xmlns:cc="http://creativecommons.org/ns#"
   xmlns:rdf="http://www.w3.org/1999/02/22-rdf-syntax-ns#"
   xmlns:svg="http://www.w3.org/2000/svg"
   xmlns="http://www.w3.org/2000/svg"
   xmlns:sodipodi="http://sodipodi.sourceforge.net/DTD/sodipodi-0.dtd"
   xmlns:inkscape="http://www.inkscape.org/namespaces/inkscape"
   width="48"
   height="48"
   version="1.1"
   id="svg16"
   sodipodi:docname="application-x-wbfs.svg"
   inkscape:version="0.92.5 (2060ec1f9f, 2020-04-08)">
  <metadata
     id="metadata22">
    <rdf:RDF>
      <cc:Work
         rdf:about="">
        <dc:format>image/svg+xml</dc:format>
        <dc:type
           rdf:resource="http://purl.org/dc/dcmitype/StillImage" />
      </cc:Work>
    </rdf:RDF>
  </metadata>
  <defs
     id="defs20" />
  <sodipodi:namedview
     pagecolor="#ffffff"
     bordercolor="#666666"
     borderopacity="1"
     objecttolerance="10"
     gridtolerance="10"
     guidetolerance="10"
     inkscape:pageopacity="0"
     inkscape:pageshadow="2"
     inkscape:window-width="783"
     inkscape:window-height="480"
     id="namedview18"
     showgrid="false"
     inkscape:zoom="4.9166667"
     inkscape:cx="24"
     inkscape:cy="24"
     inkscape:window-x="0"
     inkscape:window-y="28"
     inkscape:window-maximized="0"
     inkscape:current-layer="svg16" />
  <path
     style="opacity:0.2"
     d="M 10,5 C 8.892,5 8,5.892 8,7 V 43 C 8,44.108 8.892,45 10,45 H 38 C 39.108,45 40,44.108 40,43 V 17 L 28,5 Z"
     id="path2" />
  <path
     style="fill:#4c566a;fill-opacity:1"
     d="M 10,4 C 8.892,4 8,4.892 8,6 V 42 C 8,43.108 8.892,44 10,44 H 38 C 39.108,44 40,43.108 40,42 V 16 L 30,14 28,4 Z"
     id="path4" />
  <path
     style="opacity:0.2"
     d="M 40,17 28,5 V 15 C 28,16.108 28.892,17 30,17 Z"
     id="path6" />
  <path
     style="fill:#5f697d;fill-opacity:1"
     d="M 40,16 28,4 V 14 C 28,15.108 28.892,16 30,16 Z"
     id="path8" />
  <path
     style="opacity:0.2;fill:#ffffff"
     d="M 10 4 C 8.892 4 8 4.892 8 6 L 8 7 C 8 5.892 8.892 5 10 5 L 28 5 L 28 4 L 10 4 z"
     id="path10" />
  <path
     style="opacity:0.1"
     d="M 28.988281,25 C 28.442984,25 28,25.447824 28,26 c 0,0.551647 0.442984,1 0.988281,1 C 29.554992,27 30,26.560872 30,26 30,25.438953 29.554968,25 28.988281,25 Z m 4,0 C 32.443323,25 32,25.447823 32,26 c 0,0.551646 0.443323,1 0.988281,1 C 33.555331,27 34,26.560871 34,26 34,25.438952 33.555331,25 32.988281,25 Z M 19,26 c -0.662418,0 -1.128623,0.340345 -1.355469,1.115234 -0.225928,0.773586 -1.621093,6.226563 -1.621093,6.226563 L 14.197266,26 H 12 c 0,0 2.111544,7.828464 2.398438,8.726562 C 14.621633,35.427295 15.149856,36 15.933594,36 c 0.896147,0 1.31567,-0.663604 1.509765,-1.273438 C 17.635329,34.120241 19,29 19,29 c 0,0 1.367033,5.12036 1.558594,5.726562 C 20.752458,35.336396 21.172508,36 22.068359,36 22.852752,36 23.378936,35.427325 23.603516,34.726562 23.889792,33.828739 26,26 26,26 h -2.197266 l -1.824218,7.341797 c 0,0 -1.394219,-5.452916 -1.621094,-6.226563 C 20.130445,26.340375 19.662238,26 19,26 Z m 9,2 v 8 h 2 v -8 z m 4,0 v 8 h 2 v -8 z"
     id="path12" />
  <path
     style="fill:#ffffff;fill-opacity:1"
     d="M 28.988281,24 C 28.442984,24 28,24.447824 28,25 c 0,0.551647 0.442984,1 0.988281,1 C 29.554992,26 30,25.560872 30,25 30,24.438953 29.554968,24 28.988281,24 Z m 4,0 C 32.443323,24 32,24.447823 32,25 c 0,0.551646 0.443323,1 0.988281,1 C 33.555331,26 34,25.560871 34,25 34,24.438952 33.555331,24 32.988281,24 Z M 19,25 c -0.662418,0 -1.128623,0.340345 -1.355469,1.115234 -0.225928,0.773586 -1.621093,6.226563 -1.621093,6.226563 L 14.197266,25 H 12 c 0,0 2.111544,7.828464 2.398438,8.726562 C 14.621633,34.427295 15.149856,35 15.933594,35 c 0.896147,0 1.31567,-0.663604 1.509765,-1.273438 C 17.635329,33.120241 19,28 19,28 c 0,0 1.367033,5.12036 1.558594,5.726562 C 20.752458,34.336396 21.172508,35 22.068359,35 22.852752,35 23.378936,34.427325 23.603516,33.726562 23.889792,32.828739 26,25 26,25 h -2.197266 l -1.824218,7.341797 c 0,0 -1.394219,-5.452916 -1.621094,-6.226563 C 20.130445,25.340375 19.662238,25 19,25 Z m 9,2 v 8 h 2 v -8 z m 4,0 v 8 h 2 v -8 z"
     id="path14" />
</svg>
