<?xml version="1.0" encoding="UTF-8" standalone="no"?>
<svg
   xmlns:dc="http://purl.org/dc/elements/1.1/"
   xmlns:cc="http://creativecommons.org/ns#"
   xmlns:rdf="http://www.w3.org/1999/02/22-rdf-syntax-ns#"
   xmlns:svg="http://www.w3.org/2000/svg"
   xmlns="http://www.w3.org/2000/svg"
   xmlns:sodipodi="http://sodipodi.sourceforge.net/DTD/sodipodi-0.dtd"
   xmlns:inkscape="http://www.inkscape.org/namespaces/inkscape"
   width="48"
   height="48"
   version="1"
   id="svg16"
   sodipodi:docname="application-x-love-game.svg"
   inkscape:version="0.92.5 (2060ec1f9f, 2020-04-08)">
  <metadata
     id="metadata22">
    <rdf:RDF>
      <cc:Work
         rdf:about="">
        <dc:format>image/svg+xml</dc:format>
        <dc:type
           rdf:resource="http://purl.org/dc/dcmitype/StillImage" />
      </cc:Work>
    </rdf:RDF>
  </metadata>
  <defs
     id="defs20" />
  <sodipodi:namedview
     pagecolor="#ffffff"
     bordercolor="#666666"
     borderopacity="1"
     objecttolerance="10"
     gridtolerance="10"
     guidetolerance="10"
     inkscape:pageopacity="0"
     inkscape:pageshadow="2"
     inkscape:window-width="783"
     inkscape:window-height="480"
     id="namedview18"
     showgrid="false"
     inkscape:zoom="9.8333333"
     inkscape:cx="20.971942"
     inkscape:cy="20.582655"
     inkscape:window-x="0"
     inkscape:window-y="28"
     inkscape:window-maximized="0"
     inkscape:current-layer="svg16" />
  <path
     style="opacity:0.2"
     d="M 24,5 C 21.723407,5 4,22.92361 4,25 4,25.98425 8.6090646,31.220731 13.433594,36.087891 18.012355,40.712811 22.784386,45 24,45 26.748432,45 44,26.80505 44,25 43.999706,23.71707 40.058977,19.065476 35.638672,14.572266 30.842951,9.6939356 25.488722,5 24,5 Z"
     id="path2" />
  <path
     style="fill:#4c566a;fill-opacity:1"
     d="M 35.638874,13.57233 C 30.843153,8.694 25.489163,4 24.000441,4 21.723848,4 4.0000005,21.92346 4.0000005,23.99985 c 0,0.98425 4.6087473,6.22153 9.4332765,11.08869 0.388057,-0.25135 0.768175,-0.53505 1.135945,-0.85578 7.216068,-6.76745 15.674209,-12.43071 21.069652,-20.66043 z"
     id="path4" />
  <path
     style="fill:#ffffff;opacity:0.2"
     d="M 24 4 C 21.723407 4 4 21.92361 4 24 C 4 24.109775 4.0652643 24.279112 4.1738281 24.488281 C 5.9843159 20.924675 21.853724 5 24 5 C 25.446756 5 30.54081 9.4368292 35.228516 14.164062 C 35.364045 13.965844 35.506742 13.7735 35.638672 13.572266 C 30.842951 8.6939356 25.488722 4 24 4 z"
     id="path6" />
  <path
     style="fill:#5f697d;fill-opacity:1"
     d="m 35.638874,13.57233 c -5.395737,8.22972 -13.853878,13.89298 -21.069653,20.66043 -0.36777,0.32073 -0.747888,0.60443 -1.135944,0.85578 C 18.012038,39.71346 22.785121,44 24.000735,44 26.749167,44 44,25.8049 44,23.99985 43.999706,22.71692 40.059179,18.06554 35.638874,13.57233 Z"
     id="path8" />
  <path
     style="fill:#ffffff;opacity:0.2"
     d="M 35.638672 13.572266 C 30.242935 21.801986 21.784134 27.464972 14.568359 34.232422 C 14.200589 34.553152 13.82165 34.836541 13.433594 35.087891 C 13.633476 35.289788 13.828986 35.471596 14.029297 35.671875 C 14.212056 35.533803 14.390858 35.38722 14.568359 35.232422 C 21.784134 28.464972 30.242935 22.801986 35.638672 14.572266 C 39.558448 18.556692 43.095448 22.659567 43.847656 24.433594 C 43.941399 24.24871 44 24.096493 44 24 C 43.999706 22.71707 40.058977 18.065476 35.638672 13.572266 z"
     id="path10" />
  <path
     style="opacity:0.2"
     d="m 24.646292,19.488667 c 0,0 -1.957892,-4.327876 -6.033208,-3.342842 C 14.538372,17.131171 6.0281903,25.53921 24.007257,36 h -0.0145 c 17.978766,-10.46079 9.469188,-18.868528 5.394174,-19.854175 -4.075316,-0.985034 -6.032905,3.342842 -6.032905,3.342842 z"
     id="path12" />
  <path
     style="fill:#ffffff"
     d="m 24.646292,18.488667 c 0,0 -1.957892,-4.327876 -6.033208,-3.342842 C 14.538372,16.131171 6.0281903,24.53921 24.007257,35 h -0.0145 c 17.978766,-10.46079 9.469188,-18.868528 5.394174,-19.854175 -4.075316,-0.985034 -6.032905,3.342842 -6.032905,3.342842 z"
     id="path14" />
</svg>
