<?xml version="1.0" encoding="UTF-8" standalone="no"?>
<svg
   xmlns:dc="http://purl.org/dc/elements/1.1/"
   xmlns:cc="http://creativecommons.org/ns#"
   xmlns:rdf="http://www.w3.org/1999/02/22-rdf-syntax-ns#"
   xmlns:svg="http://www.w3.org/2000/svg"
   xmlns="http://www.w3.org/2000/svg"
   xmlns:sodipodi="http://sodipodi.sourceforge.net/DTD/sodipodi-0.dtd"
   xmlns:inkscape="http://www.inkscape.org/namespaces/inkscape"
   width="48"
   height="48"
   version="1"
   id="svg20"
   sodipodi:docname="com.github.torikulhabib.mindi.flv.svg"
   inkscape:version="0.92.5 (2060ec1f9f, 2020-04-08)">
  <metadata
     id="metadata26">
    <rdf:RDF>
      <cc:Work
         rdf:about="">
        <dc:format>image/svg+xml</dc:format>
        <dc:type
           rdf:resource="http://purl.org/dc/dcmitype/StillImage" />
      </cc:Work>
    </rdf:RDF>
  </metadata>
  <defs
     id="defs24" />
  <sodipodi:namedview
     pagecolor="#ffffff"
     bordercolor="#666666"
     borderopacity="1"
     objecttolerance="10"
     gridtolerance="10"
     guidetolerance="10"
     inkscape:pageopacity="0"
     inkscape:pageshadow="2"
     inkscape:window-width="783"
     inkscape:window-height="480"
     id="namedview22"
     showgrid="false"
     inkscape:zoom="4.9166667"
     inkscape:cx="24"
     inkscape:cy="24"
     inkscape:window-x="0"
     inkscape:window-y="28"
     inkscape:window-maximized="0"
     inkscape:current-layer="svg20" />
  <path
     style="opacity:0.2"
     d="M 10,5 C 8.892,5 8,5.892 8,7 v 36 c 0,1.108 0.892,2 2,2 h 28 c 1.108,0 2,-0.892 2,-2 V 17 L 29,16 28,5 Z"
     id="path2" />
  <path
     style="fill:#4c566a;fill-opacity:1"
     d="M 10,4 C 8.892,4 8,4.892 8,6 v 36 c 0,1.108 0.892,2 2,2 h 28 c 1.108,0 2,-0.892 2,-2 V 16 L 29,15 28,4 Z"
     id="path4" />
  <path
     style="opacity:0.2;fill:#ffffff"
     d="M 10,4 C 8.892,4 8,4.892 8,6 V 7 C 8,5.892 8.892,5 10,5 h 18 l 11,11 h 1 L 28,4 Z"
     id="path6" />
  <path
     style="opacity:0.2"
     d="m 28,5 v 10 c 0,1.1046 0.89543,2 2,2 h 10 z"
     id="path8" />
  <path
     style="fill:#5f697d;fill-opacity:1"
     d="m 28,4 v 10 c 0,1.1046 0.89543,2 2,2 h 10 z"
     id="path10" />
  <path
     style="opacity:0.2"
     d="m 15,27 v 8 h 1.007812 v -3.095703 h 2.830079 v -0.884766 h -2.830079 v -3.134765 h 3.042969 V 27 Z m 6,0 v 8 h 4 V 34.103516 H 22.007812 V 27 Z m 4.529297,0 2.857422,8 h 1.007812 l 2.857422,-8 H 31.1875 l -1.792969,5.109375 c -0.119514,0.336134 -0.220568,0.65009 -0.302734,0.941406 -0.08217,0.291317 -0.148885,0.566687 -0.201172,0.828125 -0.05976,-0.261438 -0.130725,-0.532559 -0.212891,-0.816406 -0.0747,-0.291317 -0.171501,-0.602976 -0.291015,-0.931641 L 26.582031,27 Z"
     id="path12" />
  <path
     style="fill:#ffffff"
     d="M 16.008404,34 H 15 v -8 h 4.051443 v 0.885155 h -3.043039 v 3.134269 h 2.830153 v 0.885152 h -2.830153 z"
     id="path14" />
  <path
     style="fill:#ffffff"
     d="m 21,34 v -8 h 1.008404 v 7.103642 H 25 V 34 Z"
     id="path16" />
  <path
     style="fill:#ffffff"
     d="m 32.25169,26 -2.857143,8 H 28.386143 L 25.529,26 h 1.053222 l 1.803921,5.131653 q 0.179272,0.492997 0.291317,0.929972 0.123249,0.42577 0.212885,0.817927 0.07843,-0.392157 0.201681,-0.829132 0.123249,-0.436975 0.302521,-0.941176 L 31.187264,26 Z"
     id="path18" />
</svg>
