<?xml version="1.0" encoding="UTF-8" standalone="no"?>
<svg
   xmlns:dc="http://purl.org/dc/elements/1.1/"
   xmlns:cc="http://creativecommons.org/ns#"
   xmlns:rdf="http://www.w3.org/1999/02/22-rdf-syntax-ns#"
   xmlns:svg="http://www.w3.org/2000/svg"
   xmlns="http://www.w3.org/2000/svg"
   xmlns:sodipodi="http://sodipodi.sourceforge.net/DTD/sodipodi-0.dtd"
   xmlns:inkscape="http://www.inkscape.org/namespaces/inkscape"
   width="48"
   height="48"
   version="1"
   id="svg10"
   sodipodi:docname="image-svg+xml-compressed.svg"
   inkscape:version="0.92.5 (2060ec1f9f, 2020-04-08)">
  <metadata
     id="metadata16">
    <rdf:RDF>
      <cc:Work
         rdf:about="">
        <dc:format>image/svg+xml</dc:format>
        <dc:type
           rdf:resource="http://purl.org/dc/dcmitype/StillImage" />
      </cc:Work>
    </rdf:RDF>
  </metadata>
  <defs
     id="defs14" />
  <sodipodi:namedview
     pagecolor="#ffffff"
     bordercolor="#666666"
     borderopacity="1"
     objecttolerance="10"
     gridtolerance="10"
     guidetolerance="10"
     inkscape:pageopacity="0"
     inkscape:pageshadow="2"
     inkscape:window-width="640"
     inkscape:window-height="480"
     id="namedview12"
     showgrid="false"
     inkscape:zoom="4.9166667"
     inkscape:cx="-15.661017"
     inkscape:cy="24"
     inkscape:current-layer="svg10" />
  <rect
     style="opacity:0.2"
     width="40"
     height="36"
     x="4"
     y="7"
     rx="3"
     ry="3"
     id="rect2" />
  <rect
     style="fill:#4c566a;fill-opacity:1"
     width="40"
     height="36"
     x="4"
     y="6"
     rx="3"
     ry="3"
     id="rect4" />
  <path
     style="opacity:1;fill:#ffffff;fill-opacity:1"
     d="M 22 15 C 21.446 15 21 15.446 21 16 L 21 17 L 13.730469 17 A 2 2 0 0 0 12 16 A 2 2 0 0 0 11.951172 16 A 2 2 0 0 0 10 18 A 2 2 0 0 0 12 20 A 2 2 0 0 0 13.730469 19 L 17.371094 19 A 12 12 0 0 0 12.167969 27 L 11 27 C 10.446 27 10 27.446 10 28 L 10 32 C 10 32.554 10.446 33 11 33 L 15 33 C 15.554 33 16 32.554 16 32 L 16 28 C 16 27.446 15.554 27 15 27 L 14.201172 27 A 10 10 0 0 1 21 19.460938 L 21 20 C 21 20.554 21.446 21 22 21 L 26 21 C 26.554 21 27 20.554 27 20 L 27 19.460938 A 10 10 0 0 1 33.796875 27 L 33 27 C 32.446 27 32 27.446 32 28 L 32 32 C 32 32.554 32.446 33 33 33 L 37 33 C 37.554 33 38 32.554 38 32 L 38 28 C 38 27.446 37.554 27 37 27 L 35.832031 27 A 12 12 0 0 0 30.632812 19 L 34.269531 19 A 2 2 0 0 0 36 20 A 2 2 0 0 0 38 18 A 2 2 0 0 0 36 16 A 2 2 0 0 0 35.951172 16 A 2 2 0 0 0 34.267578 17 L 27 17 L 27 16 C 27 15.446 26.554 15 26 15 L 22 15 z"
     id="path6" />
  <path
     style="opacity:0.2;fill:#ffffff"
     d="M 7 6 C 5.338 6 4 7.338 4 9 L 4 10 C 4 8.338 5.338 7 7 7 L 41 7 C 42.662 7 44 8.338 44 10 L 44 9 C 44 7.338 42.662 6 41 6 L 7 6 z"
     id="path8" />
</svg>
