<?xml version="1.0" encoding="UTF-8" standalone="no"?>
<svg
   xmlns:dc="http://purl.org/dc/elements/1.1/"
   xmlns:cc="http://creativecommons.org/ns#"
   xmlns:rdf="http://www.w3.org/1999/02/22-rdf-syntax-ns#"
   xmlns:svg="http://www.w3.org/2000/svg"
   xmlns="http://www.w3.org/2000/svg"
   xmlns:sodipodi="http://sodipodi.sourceforge.net/DTD/sodipodi-0.dtd"
   xmlns:inkscape="http://www.inkscape.org/namespaces/inkscape"
   width="48"
   height="48"
   version="1.1"
   id="svg20"
   sodipodi:docname="text-x-go.svg"
   inkscape:version="0.92.5 (2060ec1f9f, 2020-04-08)">
  <metadata
     id="metadata26">
    <rdf:RDF>
      <cc:Work
         rdf:about="">
        <dc:format>image/svg+xml</dc:format>
        <dc:type
           rdf:resource="http://purl.org/dc/dcmitype/StillImage" />
      </cc:Work>
    </rdf:RDF>
  </metadata>
  <defs
     id="defs24" />
  <sodipodi:namedview
     pagecolor="#ffffff"
     bordercolor="#666666"
     borderopacity="1"
     objecttolerance="10"
     gridtolerance="10"
     guidetolerance="10"
     inkscape:pageopacity="0"
     inkscape:pageshadow="2"
     inkscape:window-width="783"
     inkscape:window-height="480"
     id="namedview22"
     showgrid="false"
     inkscape:zoom="3.4766083"
     inkscape:cx="44.572008"
     inkscape:cy="45.232856"
     inkscape:window-x="0"
     inkscape:window-y="28"
     inkscape:window-maximized="0"
     inkscape:current-layer="svg20" />
  <path
     style="opacity:0.2"
     d="M 10,5 C 8.892,5 8,5.892 8,7 v 36 c 0,1.108 0.892,2 2,2 h 28 c 1.108,0 2,-0.892 2,-2 V 17 L 29,16 28,5 Z"
     id="path2" />
  <path
     style="fill:#4c566a;fill-opacity:1"
     d="M 10,4 C 8.892,4 8,4.892 8,6 V 42 C 8,43.108 8.892,44 10,44 H 38 C 39.108,44 40,43.108 40,42 V 16 L 29,15 28,4 Z"
     id="path4" />
  <path
     style="fill:#ffffff;opacity:0.2"
     d="M 10 4 C 8.892 4 8 4.892 8 6 L 8 7 C 8 5.892 8.892 5 10 5 L 28 5 L 28 4 L 10 4 z"
     id="path6" />
  <path
     style="opacity:0.2"
     d="m 28,5 v 10 c 0,1.105 0.895,2 2,2 h 10 z"
     id="path8" />
  <path
     style="fill:#5f697d;fill-opacity:1"
     d="M 28,4 V 14 C 28,15.105 28.895,16 30,16 H 40 Z"
     id="path10" />
  <path
     style="opacity:0.2"
     d="m 18,22 a 4,4 0 0 0 -4,4 4,4 0 0 0 4,4 4,4 0 0 0 4,-4 4,4 0 0 0 -4,-4 z m 12,0 a 4,4 0 0 0 -4,4 4,4 0 0 0 4,4 4,4 0 0 0 4,-4 4,4 0 0 0 -4,-4 z M 16.5,24.5 A 1.5,1.5 0 0 1 18,26 1.5,1.5 0 0 1 16.5,27.5 1.5,1.5 0 0 1 15,26 1.5,1.5 0 0 1 16.5,24.5 Z m 12,0 A 1.5,1.5 0 0 1 30,26 1.5,1.5 0 0 1 28.5,27.5 1.5,1.5 0 0 1 27,26 1.5,1.5 0 0 1 28.5,24.5 Z M 23.953125,30 A 2,2 0 0 0 23,30.267578 2,2 0 0 0 22,32 h 4 A 2,2 0 0 0 25,30.267578 2,2 0 0 0 23.953125,30 Z M 26,32 a 2,2 0 0 1 -2,2 2,2 0 0 1 -2,-2 h -1 c -1.108,0 -2,0.892 -2,2 0,1.108 0.892,2 2,2 h 1 v 2 c 0,0.554 0.446,1 1,1 0.554,0 1,-0.446 1,-1 0,0.554 0.446,1 1,1 0.554,0 1,-0.446 1,-1 v -2 h 1 c 1.108,0 2,-0.892 2,-2 0,-1.108 -0.892,-2 -2,-2 z"
     id="path12" />
  <path
     style="fill:#fefefe"
     d="m 18,21 a 4,4 0 0 0 -4,4 4,4 0 0 0 4,4 4,4 0 0 0 4,-4 4,4 0 0 0 -4,-4 z m 12,0 a 4,4 0 0 0 -4,4 4,4 0 0 0 4,4 4,4 0 0 0 4,-4 4,4 0 0 0 -4,-4 z M 16.5,23.5 A 1.5,1.5 0 0 1 18,25 1.5,1.5 0 0 1 16.5,26.5 1.5,1.5 0 0 1 15,25 1.5,1.5 0 0 1 16.5,23.5 Z m 12,0 A 1.5,1.5 0 0 1 30,25 1.5,1.5 0 0 1 28.5,26.5 1.5,1.5 0 0 1 27,25 1.5,1.5 0 0 1 28.5,23.5 Z M 23.953125,29 A 2,2 0 0 0 23,29.267578 2,2 0 0 0 22,31 h 4 A 2,2 0 0 0 25,29.267578 2,2 0 0 0 23.953125,29 Z M 26,31 a 2,2 0 0 1 -2,2 2,2 0 0 1 -2,-2 h -1 c -1.108,0 -2,0.892 -2,2 0,1.108 0.892,2 2,2 h 1 v 2 c 0,0.554 0.446,1 1,1 0.554,0 1,-0.446 1,-1 0,0.554 0.446,1 1,1 0.554,0 1,-0.446 1,-1 v -2 h 1 c 1.108,0 2,-0.892 2,-2 0,-1.108 -0.892,-2 -2,-2 z"
     id="path14" />
  <circle
     cx="24"
     cy="31"
     id="circle16" />
  <circle
     cx="24"
     cy="31"
     id="circle18" />
</svg>
