<?xml version="1.0" encoding="UTF-8" standalone="no"?>
<svg
   xmlns:dc="http://purl.org/dc/elements/1.1/"
   xmlns:cc="http://creativecommons.org/ns#"
   xmlns:rdf="http://www.w3.org/1999/02/22-rdf-syntax-ns#"
   xmlns:svg="http://www.w3.org/2000/svg"
   xmlns="http://www.w3.org/2000/svg"
   xmlns:sodipodi="http://sodipodi.sourceforge.net/DTD/sodipodi-0.dtd"
   xmlns:inkscape="http://www.inkscape.org/namespaces/inkscape"
   width="48"
   height="48"
   version="1.1"
   id="svg22"
   sodipodi:docname="application-ld+json.svg"
   inkscape:version="0.92.5 (2060ec1f9f, 2020-04-08)">
  <metadata
     id="metadata28">
    <rdf:RDF>
      <cc:Work
         rdf:about="">
        <dc:format>image/svg+xml</dc:format>
        <dc:type
           rdf:resource="http://purl.org/dc/dcmitype/StillImage" />
      </cc:Work>
    </rdf:RDF>
  </metadata>
  <defs
     id="defs26" />
  <sodipodi:namedview
     pagecolor="#ffffff"
     bordercolor="#666666"
     borderopacity="1"
     objecttolerance="10"
     gridtolerance="10"
     guidetolerance="10"
     inkscape:pageopacity="0"
     inkscape:pageshadow="2"
     inkscape:window-width="640"
     inkscape:window-height="480"
     id="namedview24"
     showgrid="false"
     inkscape:zoom="4.9166667"
     inkscape:cx="-15.661017"
     inkscape:cy="24"
     inkscape:current-layer="svg22" />
  <path
     style="opacity:0.2"
     d="M 10,5 C 8.892,5 8,5.892 8,7 v 36 c 0,1.108 0.892,2 2,2 h 28 c 1.108,0 2,-0.892 2,-2 V 17 L 29,16 28,5 Z"
     id="path2" />
  <path
     style="fill:#4c566a;fill-opacity:1"
     d="m10 4c-1.108 0-2 0.892-2 2v36c0 1.108 0.892 2 2 2h28c1.108 0 2-0.892 2-2v-26l-11-1-1-11z"
     id="path4" />
  <path
     style="fill:#dbe9fc;fill-opacity:1"
     d="m 26.683594,21.384766 c 0,0 -1.52671,2.648795 -2.605469,3.705078 -0.662941,0.649129 -1.463508,1.174075 -2.310547,1.552734 -1.785738,0.798294 -5.6875,1.447266 -5.6875,1.447266 l 1.001953,1.36914 -1.113281,3.03711 c 0,0 3.50184,0.442293 5.1875,0.9375 0.85175,0.250224 1.723576,0.522274 2.458984,1.019531 1.264258,0.854847 3.201172,3.273437 3.201172,3.273437 l 0.769532,-1.541015 2.722656,-0.171875 c 0,0 -1.006037,-3.380798 -1.232422,-5.123047 -0.11439,-0.880343 -0.219123,-1.790597 -0.06055,-2.664063 0.272621,-1.501595 1.705078,-4.248046 1.705078,-4.248046 l -2.625,-0.128907 z m -0.814453,4.623046 c 0.139566,0.01437 0.2294,0.04438 0.271484,0.0625 0.10834,0.08265 0.22013,0.16012 0.337891,0.230469 0.224019,0.133463 0.453763,0.239102 0.6875,0.316407 0.273701,0.292584 0.777768,1.12298 0.830078,3.30664 0.05346,2.200357 -0.521976,3.047726 -0.835938,3.347656 -0.323582,0.164518 -0.626719,0.383911 -0.898437,0.650391 -0.298394,0.118491 -1.149133,0.250092 -2.94336,-0.830078 -1.943027,-1.171 -2.23129,-2.149718 -2.273437,-2.443359 0.02762,-0.356253 0.0092,-0.711914 -0.04492,-1.058594 l 0.01172,0.02148 c 0,0 -0.15882,-0.952102 2.064453,-2.501953 1.492449,-1.039708 2.374269,-1.144682 2.792969,-1.101563 z"
     id="path6" />
  <path
     style="opacity:0.1"
     d="M 28.5,21 A 3.5,3.5 0 0 0 25,24.5 3.5,3.5 0 0 0 28.5,28 3.5,3.5 0 0 0 32,24.5 3.5,3.5 0 0 0 28.5,21 Z m -11,7 A 3.5,3.5 0 0 0 14,31.5 3.5,3.5 0 0 0 17.5,35 3.5,3.5 0 0 0 21,31.5 3.5,3.5 0 0 0 17.5,28 Z m 11,6 A 3.5,3.5 0 0 0 25,37.5 3.5,3.5 0 0 0 28.5,41 3.5,3.5 0 0 0 32,37.5 3.5,3.5 0 0 0 28.5,34 Z"
     id="path8" />
  <path
     style="opacity:0.2"
     d="m 28,5 v 10 c 0,1.1046 0.89543,2 2,2 h 10 z"
     id="path10" />
  <path
     style="fill:#5f697d;fill-opacity:1"
     d="m28 4v10c0 1.1046 0.89543 2 2 2h10l-12-12z"
     id="path12" />
  <path
     style="fill:#ffffff;opacity:0.2"
     d="M 10 4 C 8.892 4 8 4.892 8 6 L 8 7 C 8 5.892 8.892 5 10 5 L 28 5 L 28 4 L 10 4 z"
     id="path14" />
  <circle
     style="fill:#ffffff;fill-opacity:1"
     cx="17.5"
     cy="30.5"
     r="3.5"
     id="circle16" />
  <circle
     style="fill:#ffffff;fill-opacity:1"
     cx="28.5"
     cy="23.5"
     r="3.5"
     id="circle18" />
  <circle
     style="fill:#ffffff;fill-opacity:1"
     cx="28.5"
     cy="36.5"
     r="3.5"
     id="circle20" />
</svg>
