<?xml version="1.0" encoding="UTF-8" standalone="no"?>
<svg
   xmlns:dc="http://purl.org/dc/elements/1.1/"
   xmlns:cc="http://creativecommons.org/ns#"
   xmlns:rdf="http://www.w3.org/1999/02/22-rdf-syntax-ns#"
   xmlns:svg="http://www.w3.org/2000/svg"
   xmlns="http://www.w3.org/2000/svg"
   xmlns:sodipodi="http://sodipodi.sourceforge.net/DTD/sodipodi-0.dtd"
   xmlns:inkscape="http://www.inkscape.org/namespaces/inkscape"
   width="48"
   height="48"
   version="1"
   id="svg16"
   sodipodi:docname="application-x-bps-patch.svg"
   inkscape:version="0.92.5 (2060ec1f9f, 2020-04-08)">
  <metadata
     id="metadata22">
    <rdf:RDF>
      <cc:Work
         rdf:about="">
        <dc:format>image/svg+xml</dc:format>
        <dc:type
           rdf:resource="http://purl.org/dc/dcmitype/StillImage" />
      </cc:Work>
    </rdf:RDF>
  </metadata>
  <defs
     id="defs20" />
  <sodipodi:namedview
     pagecolor="#ffffff"
     bordercolor="#666666"
     borderopacity="1"
     objecttolerance="10"
     gridtolerance="10"
     guidetolerance="10"
     inkscape:pageopacity="0"
     inkscape:pageshadow="2"
     inkscape:window-width="640"
     inkscape:window-height="480"
     id="namedview18"
     showgrid="false"
     inkscape:zoom="4.9166667"
     inkscape:cx="8.7457627"
     inkscape:cy="24"
     inkscape:current-layer="svg16" />
  <path
     style="opacity:0.2"
     d="M 10,5 C 8.892,5 8,5.892 8,7 v 36 c 0,1.108 0.892,2 2,2 h 28 c 1.108,0 2,-0.892 2,-2 V 17 L 29,16 28,5 Z"
     id="path2" />
  <path
     inkscape:connector-curvature="0"
     d="m 9.9999997,4 c -1.108,0 -2,0.8919997 -2,1.9999997 V 42 c 0,1.108 0.892,2 2,2 H 38 c 1.108,0 2,-0.892 2,-2 V 16 L 29,15 28,4 Z"
     id="path4"
     style="fill:#4c566a;fill-opacity:1" />
  <path
     fill="#fff"
     style="opacity:0.1"
     d="m10 4c-1.108 0-2 0.892-2 2v1c0-1.108 0.892-2 2-2h18l11 11h1l-12-12z"
     id="path6" />
  <path
     style="opacity:0.2"
     d="m 28,5 v 10 c 0,1.1046 0.89543,2 2,2 h 10 z"
     id="path8" />
  <path
     style="opacity:0.2"
     d="m 19.931,23.005171 c -1.0583,-0.05584 -2.0947,0.29464 -2.8629,1.0628 -1.5363,1.5363 -1.3987,4.147 0.30831,5.854 l 1.0781,1.0781 -1.0781,1.0781 c -1.707,1.707 -1.8446,4.3177 -0.30831,5.854 1.53629,1.5363 4.147,1.3987 5.854,-0.30831 l 1.0781,-1.0781 1.0781,1.0781 c 1.707,1.707 4.3177,1.8446 5.854,0.30831 1.5363,-1.53629 1.3987,-4.147 -0.30831,-5.854 l -1.0781,-1.0781 1.0781,-1.0781 c 1.707,-1.707 1.8446,-4.3177 0.30831,-5.854 -1.53629,-1.5363 -4.147,-1.3987 -5.854,0.30831 l -1.0781,1.0781 -1.0781,-1.0781 c -0.85352,-0.85352 -1.9328,-1.3153 -2.9912,-1.3711 z m 4.0693,3.8357 a 0.98046,0.98046 0 0 1 0,1.3864 0.98046,0.98046 0 0 1 0,-1.3864 z m -1.402,1.792 a 0.98046,0.98046 0 0 1 0.2681,0.03447 0.98046,0.98046 0 0 1 -0.25277,0.94599 0.98046,0.98046 0 0 1 -0.94599,0.25277 0.98046,0.98046 0 0 1 0.25277,-0.94599 0.98046,0.98046 0 0 1 0.6779,-0.28724 z m 2.8035,0 a 0.98046,0.98046 0 0 1 0.6779,0.28724 0.98046,0.98046 0 0 1 0.25278,0.94599 0.98046,0.98046 0 0 1 -0.94599,-0.25277 0.98046,0.98046 0 0 1 -0.25277,-0.94599 0.98046,0.98046 0 0 1 0.26809,-0.03447 z M 24,30.019271 a 0.98046,0.98046 0 0 1 0.07085,0.0038 0.98046,0.98046 0 0 1 0.0134,0 0.98046,0.98046 0 0 1 0.0038,0 0.98046,0.98046 0 0 1 0.0766,0.01149 0.98046,0.98046 0 0 1 0.02489,0.0038 0.98046,0.98046 0 0 1 0.06511,0.01532 0.98046,0.98046 0 0 1 0.02681,0.0077 0.98046,0.98046 0 0 1 0.08617,0.03064 0.98046,0.98046 0 0 1 0.07277,0.03255 0.98046,0.98046 0 0 1 0.02681,0.01341 0.98046,0.98046 0 0 1 0.03639,0.02106 0.98046,0.98046 0 0 1 0.05936,0.04021 0.98046,0.98046 0 0 1 0.0019,0 0.98046,0.98046 0 0 1 0.05553,0.04213 0.98046,0.98046 0 0 1 0.07277,0.06511 0.98046,0.98046 0 0 1 0.06511,0.07277 0.98046,0.98046 0 0 1 0.04213,0.05745 0.98046,0.98046 0 0 1 0.04021,0.05936 0.98046,0.98046 0 0 1 0.02106,0.03639 0.98046,0.98046 0 0 1 0.01341,0.02681 0.98046,0.98046 0 0 1 0.03255,0.07277 0.98046,0.98046 0 0 1 0.03064,0.08617 0.98046,0.98046 0 0 1 0.0077,0.02681 0.98046,0.98046 0 0 1 0.01532,0.06511 0.98046,0.98046 0 0 1 0.0038,0.02489 0.98046,0.98046 0 0 1 0.01149,0.0766 0.98046,0.98046 0 0 1 0,0.01723 0.98046,0.98046 0 0 1 0.0038,0.07085 0.98046,0.98046 0 0 1 -0.0038,0.07085 0.98046,0.98046 0 0 1 0,0.01723 0.98046,0.98046 0 0 1 -0.01149,0.0766 0.98046,0.98046 0 0 1 -0.0038,0.02489 0.98046,0.98046 0 0 1 -0.01532,0.06511 0.98046,0.98046 0 0 1 -0.0077,0.02681 0.98046,0.98046 0 0 1 -0.03064,0.08617 0.98046,0.98046 0 0 1 -0.03255,0.07277 0.98046,0.98046 0 0 1 -0.01341,0.02681 0.98046,0.98046 0 0 1 -0.02106,0.03638 0.98046,0.98046 0 0 1 -0.04021,0.05936 0.98046,0.98046 0 0 1 -0.04213,0.05745 0.98046,0.98046 0 0 1 -0.06511,0.07277 0.98046,0.98046 0 0 1 -0.07277,0.06511 0.98046,0.98046 0 0 1 -0.05553,0.04213 0.98046,0.98046 0 0 1 -0.0019,0 0.98046,0.98046 0 0 1 -0.05936,0.04021 0.98046,0.98046 0 0 1 -0.03639,0.02106 0.98046,0.98046 0 0 1 -0.02681,0.0134 0.98046,0.98046 0 0 1 -0.07277,0.03255 0.98046,0.98046 0 0 1 -0.08617,0.03064 0.98046,0.98046 0 0 1 -0.02681,0.0077 0.98046,0.98046 0 0 1 -0.06511,0.01532 0.98046,0.98046 0 0 1 -0.02489,0.0038 0.98046,0.98046 0 0 1 -0.0766,0.01149 0.98046,0.98046 0 0 1 -0.0038,0 0.98046,0.98046 0 0 1 -0.0134,0 0.98046,0.98046 0 0 1 -0.07085,0.0038 0.98046,0.98046 0 0 1 -0.07085,-0.0038 0.98046,0.98046 0 0 1 -0.01723,0 0.98046,0.98046 0 0 1 -0.0766,-0.01149 0.98046,0.98046 0 0 1 -0.02489,-0.0038 0.98046,0.98046 0 0 1 -0.06511,-0.01532 0.98046,0.98046 0 0 1 -0.02681,-0.0077 0.98046,0.98046 0 0 1 -0.08617,-0.03064 0.98046,0.98046 0 0 1 -0.07277,-0.03255 0.98046,0.98046 0 0 1 -0.02681,-0.0134 0.98046,0.98046 0 0 1 -0.03638,-0.02106 0.98046,0.98046 0 0 1 -0.05936,-0.04021 0.98046,0.98046 0 0 1 -0.0019,0 0.98046,0.98046 0 0 1 -0.05553,-0.04213 0.98046,0.98046 0 0 1 -0.07277,-0.06511 0.98046,0.98046 0 0 1 -0.06511,-0.07277 0.98046,0.98046 0 0 1 -0.04213,-0.05553 0.98046,0.98046 0 0 1 0,-0.0019 0.98046,0.98046 0 0 1 -0.04021,-0.05936 0.98046,0.98046 0 0 1 -0.02106,-0.03638 0.98046,0.98046 0 0 1 -0.0134,-0.02681 0.98046,0.98046 0 0 1 -0.03255,-0.07277 0.98046,0.98046 0 0 1 -0.03064,-0.08617 0.98046,0.98046 0 0 1 -0.0077,-0.02681 0.98046,0.98046 0 0 1 -0.01532,-0.06511 0.98046,0.98046 0 0 1 -0.0038,-0.02489 0.98046,0.98046 0 0 1 -0.01149,-0.0766 0.98046,0.98046 0 0 1 0,-0.01723 0.98046,0.98046 0 0 1 -0.0038,-0.07085 0.98046,0.98046 0 0 1 0.0038,-0.07085 0.98046,0.98046 0 0 1 0,-0.01723 0.98046,0.98046 0 0 1 0.01149,-0.0766 0.98046,0.98046 0 0 1 0.0038,-0.02489 0.98046,0.98046 0 0 1 0.01532,-0.06511 0.98046,0.98046 0 0 1 0.0077,-0.02681 0.98046,0.98046 0 0 1 0.03064,-0.08617 0.98046,0.98046 0 0 1 0.03255,-0.07277 0.98046,0.98046 0 0 1 0.0134,-0.02681 0.98046,0.98046 0 0 1 0.02106,-0.03639 0.98046,0.98046 0 0 1 0.04021,-0.05936 0.98046,0.98046 0 0 1 0.04213,-0.05745 0.98046,0.98046 0 0 1 0.06511,-0.07277 0.98046,0.98046 0 0 1 0.07277,-0.06511 0.98046,0.98046 0 0 1 0.05745,-0.04213 0.98046,0.98046 0 0 1 0.05936,-0.04021 0.98046,0.98046 0 0 1 0.03638,-0.02106 0.98046,0.98046 0 0 1 0.02681,-0.01341 0.98046,0.98046 0 0 1 0.07277,-0.03255 0.98046,0.98046 0 0 1 0.08617,-0.03064 0.98046,0.98046 0 0 1 0.02681,-0.0077 0.98046,0.98046 0 0 1 0.06511,-0.01532 0.98046,0.98046 0 0 1 0.02489,-0.0038 0.98046,0.98046 0 0 1 0.0766,-0.01149 0.98046,0.98046 0 0 1 0.01723,0 0.98046,0.98046 0 0 1 0.07085,-0.0038 z m -3.4814,0.69322 a 0.98046,0.98046 0 0 1 0.70853,0.28724 0.98046,0.98046 0 0 1 -1.3864,0 0.98046,0.98046 0 0 1 0.6779,-0.28724 z m 6.9628,0 a 0.98046,0.98046 0 0 1 0.6779,0.28724 0.98046,0.98046 0 0 1 -1.3864,0 0.98046,0.98046 0 0 1 0.70854,-0.28724 z m -5.5764,1.3864 a 0.98046,0.98046 0 0 1 0.70854,0.28724 0.98046,0.98046 0 0 1 0.25277,0.94599 0.98046,0.98046 0 0 1 -0.94599,-0.25277 0.98046,0.98046 0 0 1 -0.25277,-0.94599 0.98046,0.98046 0 0 1 0.23746,-0.03447 z m 4.1899,0 a 0.98046,0.98046 0 0 1 0.23746,0.03447 0.98046,0.98046 0 0 1 -0.25278,0.94599 0.98046,0.98046 0 0 1 -0.94599,0.25277 0.98046,0.98046 0 0 1 0.25277,-0.94599 0.98046,0.98046 0 0 1 0.70854,-0.28724 z m -2.095,1.6737 a 0.98046,0.98046 0 0 1 0,1.3864 0.98046,0.98046 0 0 1 0,-1.3864 z"
     id="path12" />
  <path
     style="fill:#ffffff;fill-opacity:1"
     d="m19.931 22.005c-1.0583-0.05584-2.0947 0.29464-2.8629 1.0628-1.5363 1.5363-1.3987 4.147 0.30831 5.854l1.0781 1.0781-1.0781 1.0781c-1.707 1.707-1.8446 4.3177-0.30831 5.854s4.147 1.3987 5.854-0.30831l1.0781-1.0781 1.0781 1.0781c1.707 1.707 4.3177 1.8446 5.854 0.30831s1.3987-4.147-0.30831-5.854l-1.0781-1.0781 1.0781-1.0781c1.707-1.707 1.8446-4.3177 0.30831-5.854s-4.147-1.3987-5.854 0.30831l-1.0781 1.0781-1.0781-1.0781c-0.85352-0.85352-1.9328-1.3153-2.9912-1.3711zm4.0693 3.8357a0.98046 0.98046 0 0 1 0 1.3864 0.98046 0.98046 0 0 1 0 -1.3864zm-1.402 1.792a0.98046 0.98046 0 0 1 0.2681 0.03447 0.98046 0.98046 0 0 1 -0.25277 0.94599 0.98046 0.98046 0 0 1 -0.94599 0.25277 0.98046 0.98046 0 0 1 0.25277 -0.94599 0.98046 0.98046 0 0 1 0.6779 -0.28724zm2.8035 0a0.98046 0.98046 0 0 1 0.6779 0.28724 0.98046 0.98046 0 0 1 0.25278 0.94599 0.98046 0.98046 0 0 1 -0.94599 -0.25277 0.98046 0.98046 0 0 1 -0.25277 -0.94599 0.98046 0.98046 0 0 1 0.26809 -0.03447zm-1.4018 1.3864a0.98046 0.98046 0 0 1 0.07085 0.0038 0.98046 0.98046 0 0 1 0.0134 0 0.98046 0.98046 0 0 1 0.0038 0 0.98046 0.98046 0 0 1 0.0766 0.01149 0.98046 0.98046 0 0 1 0.02489 0.0038 0.98046 0.98046 0 0 1 0.06511 0.01532 0.98046 0.98046 0 0 1 0.02681 0.0077 0.98046 0.98046 0 0 1 0.08617 0.03064 0.98046 0.98046 0 0 1 0.07277 0.03255 0.98046 0.98046 0 0 1 0.02681 0.01341 0.98046 0.98046 0 0 1 0.03639 0.02106 0.98046 0.98046 0 0 1 0.05936 0.04021 0.98046 0.98046 0 0 1 0.0019 0 0.98046 0.98046 0 0 1 0.05553 0.04213 0.98046 0.98046 0 0 1 0.07277 0.06511 0.98046 0.98046 0 0 1 0.06511 0.07277 0.98046 0.98046 0 0 1 0.04213 0.05745 0.98046 0.98046 0 0 1 0.04021 0.05936 0.98046 0.98046 0 0 1 0.02106 0.03639 0.98046 0.98046 0 0 1 0.01341 0.02681 0.98046 0.98046 0 0 1 0.03255 0.07277 0.98046 0.98046 0 0 1 0.03064 0.08617 0.98046 0.98046 0 0 1 0.0077 0.02681 0.98046 0.98046 0 0 1 0.01532 0.06511 0.98046 0.98046 0 0 1 0.0038 0.02489 0.98046 0.98046 0 0 1 0.01149 0.0766 0.98046 0.98046 0 0 1 0 0.01723 0.98046 0.98046 0 0 1 0.0038 0.07085 0.98046 0.98046 0 0 1 -0.0038 0.07085 0.98046 0.98046 0 0 1 0 0.01723 0.98046 0.98046 0 0 1 -0.01149 0.0766 0.98046 0.98046 0 0 1 -0.0038 0.02489 0.98046 0.98046 0 0 1 -0.01532 0.06511 0.98046 0.98046 0 0 1 -0.0077 0.02681 0.98046 0.98046 0 0 1 -0.03064 0.08617 0.98046 0.98046 0 0 1 -0.03255 0.07277 0.98046 0.98046 0 0 1 -0.01341 0.02681 0.98046 0.98046 0 0 1 -0.02106 0.03638 0.98046 0.98046 0 0 1 -0.04021 0.05936 0.98046 0.98046 0 0 1 -0.04213 0.05745 0.98046 0.98046 0 0 1 -0.06511 0.07277 0.98046 0.98046 0 0 1 -0.07277 0.06511 0.98046 0.98046 0 0 1 -0.05553 0.04213 0.98046 0.98046 0 0 1 -0.0019 0 0.98046 0.98046 0 0 1 -0.05936 0.04021 0.98046 0.98046 0 0 1 -0.03639 0.02106 0.98046 0.98046 0 0 1 -0.02681 0.0134 0.98046 0.98046 0 0 1 -0.07277 0.03255 0.98046 0.98046 0 0 1 -0.08617 0.03064 0.98046 0.98046 0 0 1 -0.02681 0.0077 0.98046 0.98046 0 0 1 -0.06511 0.01532 0.98046 0.98046 0 0 1 -0.02489 0.0038 0.98046 0.98046 0 0 1 -0.0766 0.01149 0.98046 0.98046 0 0 1 -0.0038 0 0.98046 0.98046 0 0 1 -0.0134 0 0.98046 0.98046 0 0 1 -0.07085 0.0038 0.98046 0.98046 0 0 1 -0.07085 -0.0038 0.98046 0.98046 0 0 1 -0.01723 0 0.98046 0.98046 0 0 1 -0.0766 -0.01149 0.98046 0.98046 0 0 1 -0.02489 -0.0038 0.98046 0.98046 0 0 1 -0.06511 -0.01532 0.98046 0.98046 0 0 1 -0.02681 -0.0077 0.98046 0.98046 0 0 1 -0.08617 -0.03064 0.98046 0.98046 0 0 1 -0.07277 -0.03255 0.98046 0.98046 0 0 1 -0.02681 -0.0134 0.98046 0.98046 0 0 1 -0.03638 -0.02106 0.98046 0.98046 0 0 1 -0.05936 -0.04021 0.98046 0.98046 0 0 1 -0.0019 0 0.98046 0.98046 0 0 1 -0.05553 -0.04213 0.98046 0.98046 0 0 1 -0.07277 -0.06511 0.98046 0.98046 0 0 1 -0.06511 -0.07277 0.98046 0.98046 0 0 1 -0.04213 -0.05553 0.98046 0.98046 0 0 1 0 -0.0019 0.98046 0.98046 0 0 1 -0.04021 -0.05936 0.98046 0.98046 0 0 1 -0.02106 -0.03638 0.98046 0.98046 0 0 1 -0.0134 -0.02681 0.98046 0.98046 0 0 1 -0.03255 -0.07277 0.98046 0.98046 0 0 1 -0.03064 -0.08617 0.98046 0.98046 0 0 1 -0.0077 -0.02681 0.98046 0.98046 0 0 1 -0.01532 -0.06511 0.98046 0.98046 0 0 1 -0.0038 -0.02489 0.98046 0.98046 0 0 1 -0.01149 -0.0766 0.98046 0.98046 0 0 1 0 -0.01723 0.98046 0.98046 0 0 1 -0.0038 -0.07085 0.98046 0.98046 0 0 1 0.0038 -0.07085 0.98046 0.98046 0 0 1 0 -0.01723 0.98046 0.98046 0 0 1 0.01149 -0.0766 0.98046 0.98046 0 0 1 0.0038 -0.02489 0.98046 0.98046 0 0 1 0.01532 -0.06511 0.98046 0.98046 0 0 1 0.0077 -0.02681 0.98046 0.98046 0 0 1 0.03064 -0.08617 0.98046 0.98046 0 0 1 0.03255 -0.07277 0.98046 0.98046 0 0 1 0.0134 -0.02681 0.98046 0.98046 0 0 1 0.02106 -0.03639 0.98046 0.98046 0 0 1 0.04021 -0.05936 0.98046 0.98046 0 0 1 0.04213 -0.05745 0.98046 0.98046 0 0 1 0.06511 -0.07277 0.98046 0.98046 0 0 1 0.07277 -0.06511 0.98046 0.98046 0 0 1 0.05745 -0.04213 0.98046 0.98046 0 0 1 0.05936 -0.04021 0.98046 0.98046 0 0 1 0.03638 -0.02106 0.98046 0.98046 0 0 1 0.02681 -0.01341 0.98046 0.98046 0 0 1 0.07277 -0.03255 0.98046 0.98046 0 0 1 0.08617 -0.03064 0.98046 0.98046 0 0 1 0.02681 -0.0077 0.98046 0.98046 0 0 1 0.06511 -0.01532 0.98046 0.98046 0 0 1 0.02489 -0.0038 0.98046 0.98046 0 0 1 0.0766 -0.01149 0.98046 0.98046 0 0 1 0.01723 0 0.98046 0.98046 0 0 1 0.07085 -0.0038zm-3.4814 0.69322a0.98046 0.98046 0 0 1 0.70853 0.28724 0.98046 0.98046 0 0 1 -1.3864 0 0.98046 0.98046 0 0 1 0.6779 -0.28724zm6.9628 0a0.98046 0.98046 0 0 1 0.6779 0.28724 0.98046 0.98046 0 0 1 -1.3864 0 0.98046 0.98046 0 0 1 0.70854 -0.28724zm-5.5764 1.3864a0.98046 0.98046 0 0 1 0.70854 0.28724 0.98046 0.98046 0 0 1 0.25277 0.94599 0.98046 0.98046 0 0 1 -0.94599 -0.25277 0.98046 0.98046 0 0 1 -0.25277 -0.94599 0.98046 0.98046 0 0 1 0.23746 -0.03447zm4.1899 0a0.98046 0.98046 0 0 1 0.23746 0.03447 0.98046 0.98046 0 0 1 -0.25278 0.94599 0.98046 0.98046 0 0 1 -0.94599 0.25277 0.98046 0.98046 0 0 1 0.25277 -0.94599 0.98046 0.98046 0 0 1 0.70854 -0.28724zm-2.095 1.6737a0.98046 0.98046 0 0 1 0 1.3864 0.98046 0.98046 0 0 1 0 -1.3864z"
     id="path14" />
  <path
     inkscape:connector-curvature="0"
     d="M 28,3.9999997 V 14 c 0,1.1046 0.89543,2 2,2 h 10 z"
     id="path10"
     style="fill:#5f697d;fill-opacity:1" />
</svg>
