<?xml version="1.0" encoding="UTF-8" standalone="no"?>
<svg
   xmlns:dc="http://purl.org/dc/elements/1.1/"
   xmlns:cc="http://creativecommons.org/ns#"
   xmlns:rdf="http://www.w3.org/1999/02/22-rdf-syntax-ns#"
   xmlns:svg="http://www.w3.org/2000/svg"
   xmlns="http://www.w3.org/2000/svg"
   xmlns:sodipodi="http://sodipodi.sourceforge.net/DTD/sodipodi-0.dtd"
   xmlns:inkscape="http://www.inkscape.org/namespaces/inkscape"
   width="48"
   height="48"
   version="1.1"
   id="svg16"
   sodipodi:docname="text-x-lua.svg"
   inkscape:version="0.92.5 (2060ec1f9f, 2020-04-08)">
  <metadata
     id="metadata22">
    <rdf:RDF>
      <cc:Work
         rdf:about="">
        <dc:format>image/svg+xml</dc:format>
        <dc:type
           rdf:resource="http://purl.org/dc/dcmitype/StillImage" />
      </cc:Work>
    </rdf:RDF>
  </metadata>
  <defs
     id="defs20" />
  <sodipodi:namedview
     pagecolor="#ffffff"
     bordercolor="#666666"
     borderopacity="1"
     objecttolerance="10"
     gridtolerance="10"
     guidetolerance="10"
     inkscape:pageopacity="0"
     inkscape:pageshadow="2"
     inkscape:window-width="783"
     inkscape:window-height="480"
     id="namedview18"
     showgrid="false"
     inkscape:zoom="4.9166667"
     inkscape:cx="24"
     inkscape:cy="24"
     inkscape:window-x="0"
     inkscape:window-y="28"
     inkscape:window-maximized="0"
     inkscape:current-layer="svg16" />
  <path
     style="opacity:0.2"
     d="M 10,5 C 8.892,5 8,5.892 8,7 v 36 c 0,1.108 0.892,2 2,2 h 28 c 1.108,0 2,-0.892 2,-2 V 17 L 29,16 28,5 Z"
     id="path2" />
  <path
     style="fill:#4c566a;fill-opacity:1"
     d="M 10,4 C 8.892,4 8,4.892 8,6 V 42 C 8,43.108 8.892,44 10,44 H 38 C 39.108,44 40,43.108 40,42 V 16 L 29,15 28,4 Z"
     id="path4" />
  <path
     style="fill:#ffffff;opacity:0.1"
     d="M 10 4 C 8.892 4 8 4.892 8 6 L 8 7 C 8 5.892 8.892 5 10 5 L 28 5 L 28 4 L 10 4 z"
     id="path6" />
  <path
     style="opacity:0.2"
     d="m 28,5 v 10 c 0,1.105 0.895,2 2,2 h 10 z"
     id="path8" />
  <path
     style="fill:#5f697d;fill-opacity:1"
     d="M 28,4 V 14 C 28,15.105 28.895,16 30,16 H 40 Z"
     id="path10" />
  <path
     style="opacity:0.2"
     d="M 30.5,21 A 2.5,2.5 0 0 0 28,23.5 2.5,2.5 0 0 0 30.5,26 2.5,2.5 0 0 0 33,23.5 2.5,2.5 0 0 0 30.5,21 Z m -8,3 A 7.5,7.5 0 0 0 15,31.5 7.5,7.5 0 0 0 22.5,39 7.5,7.5 0 0 0 30,31.5 7.5,7.5 0 0 0 22.5,24 Z m 3,2 A 2.5,2.5 0 0 1 28,28.5 2.5,2.5 0 0 1 25.5,31 2.5,2.5 0 0 1 23,28.5 2.5,2.5 0 0 1 25.5,26 Z"
     id="path12" />
  <path
     style="fill:#ffffff"
     d="M 30.5 20 A 2.5 2.5 0 0 0 28 22.5 A 2.5 2.5 0 0 0 30.5 25 A 2.5 2.5 0 0 0 33 22.5 A 2.5 2.5 0 0 0 30.5 20 z M 22.5 23 A 7.5 7.5 0 0 0 15 30.5 A 7.5 7.5 0 0 0 22.5 38 A 7.5 7.5 0 0 0 30 30.5 A 7.5 7.5 0 0 0 22.5 23 z M 25.5 25 A 2.5 2.5 0 0 1 28 27.5 A 2.5 2.5 0 0 1 25.5 30 A 2.5 2.5 0 0 1 23 27.5 A 2.5 2.5 0 0 1 25.5 25 z"
     id="path14" />
</svg>
