<?xml version="1.0" encoding="UTF-8" standalone="no"?>
<svg
   xmlns:dc="http://purl.org/dc/elements/1.1/"
   xmlns:cc="http://creativecommons.org/ns#"
   xmlns:rdf="http://www.w3.org/1999/02/22-rdf-syntax-ns#"
   xmlns:svg="http://www.w3.org/2000/svg"
   xmlns="http://www.w3.org/2000/svg"
   xmlns:sodipodi="http://sodipodi.sourceforge.net/DTD/sodipodi-0.dtd"
   xmlns:inkscape="http://www.inkscape.org/namespaces/inkscape"
   width="48"
   height="48"
   version="1"
   id="svg16"
   sodipodi:docname="text-x-perl.svg"
   inkscape:version="0.92.5 (2060ec1f9f, 2020-04-08)">
  <metadata
     id="metadata22">
    <rdf:RDF>
      <cc:Work
         rdf:about="">
        <dc:format>image/svg+xml</dc:format>
        <dc:type
           rdf:resource="http://purl.org/dc/dcmitype/StillImage" />
      </cc:Work>
    </rdf:RDF>
  </metadata>
  <defs
     id="defs20" />
  <sodipodi:namedview
     pagecolor="#ffffff"
     bordercolor="#666666"
     borderopacity="1"
     objecttolerance="10"
     gridtolerance="10"
     guidetolerance="10"
     inkscape:pageopacity="0"
     inkscape:pageshadow="2"
     inkscape:window-width="640"
     inkscape:window-height="480"
     id="namedview18"
     showgrid="false"
     inkscape:zoom="4.9166667"
     inkscape:cx="1.6271185"
     inkscape:cy="24"
     inkscape:current-layer="svg16" />
  <path
     style="opacity:0.2"
     d="M 10,5 C 8.892,5 8,5.892 8,7 v 36 c 0,1.108 0.892,2 2,2 h 28 c 1.108,0 2,-0.892 2,-2 V 17 L 29,16 28,5 Z"
     id="path2" />
  <path
     inkscape:connector-curvature="0"
     d="m 10,3.9999996 c -1.1079996,0 -1.9999996,0.892 -1.9999996,2 V 42 c 0,1.108 0.892,2 1.9999996,2 h 28 c 1.108,0 2,-0.892 2,-2 V 16 L 29,15 28,3.9999996 Z"
     id="path4"
     style="fill:#4c566a;fill-opacity:1" />
  <path
     fill="#fff"
     opacity=".1"
     d="m10 4c-1.108 0-2 0.892-2 2v1c0-1.108 0.892-2 2-2h18l11 11h1l-12-12z"
     id="path6" />
  <path
     style="opacity:0.2"
     d="m 28,5 v 10 c 0,1.1046 0.89543,2 2,2 h 10 z"
     id="path8" />
  <path
     style="opacity:0.2"
     d="m 18.984691,22.999626 c -0.551387,0.0086 -0.99174,0.461192 -0.984346,1.01169 v 2.98819 h -2.988193 c -1.349536,-0.0192 -1.349536,2.019064 0,1.999941 h 2.988193 v 3.99988 h -2.988193 c -1.349536,-0.0192 -1.349536,2.019064 0,1.99994 h 2.988193 v 2.988191 c -0.0192,1.350056 2.019063,1.350056 1.99994,0 v -2.988191 h 3.99988 v 2.988191 c -0.0192,1.350056 2.019064,1.350056 1.999941,0 v -2.988191 h 2.98791 c 1.349536,0.0192 1.349536,-2.019065 0,-1.99994 h -2.98791 v -3.99988 h 2.98791 c 1.349536,0.0192 1.349536,-2.019064 0,-1.999941 h -2.98791 v -2.98819 c 0.0076,-0.562716 -0.451971,-1.020478 -1.015594,-1.01169 -0.55139,0.0086 -0.991741,0.461192 -0.984347,1.01169 v 2.98819 h -3.99988 v -2.98819 c 0.0076,-0.562716 -0.451971,-1.020478 -1.015594,-1.01169 z m 13.999582,0 c -0.55153,0.0086 -0.991938,0.461248 -0.984347,1.01169 v 9.975982 c -0.0192,1.349579 2.019064,1.349579 1.99994,0 v -9.975982 c 0.0078,-0.562656 -0.451828,-1.020478 -1.015593,-1.01169 z m -12.983988,5.999821 h 3.99988 v 3.99988 h -3.99988 z m 12.999612,7.999761 c -0.55227,0 -0.999971,0.4477 -0.999971,0.99997 0,0.552267 0.447701,0.99997 0.999971,0.99997 0.552267,0 0.999969,-0.447703 0.999969,-0.99997 0,-0.55227 -0.447702,-0.99997 -0.999969,-0.99997 z"
     id="path12" />
  <path
     style="fill:#ffffff"
     d="m 18.984691,21.999626 c -0.551387,0.0086 -0.99174,0.461192 -0.984346,1.01169 v 2.98819 h -2.988193 c -1.349536,-0.0192 -1.349536,2.019064 0,1.999941 h 2.988193 v 3.99988 h -2.988193 c -1.349536,-0.0192 -1.349536,2.019064 0,1.99994 h 2.988193 v 2.988191 c -0.0192,1.350056 2.019063,1.350056 1.99994,0 v -2.988191 h 3.99988 v 2.988191 c -0.0192,1.350056 2.019064,1.350056 1.999941,0 v -2.988191 h 2.98791 c 1.349536,0.0192 1.349536,-2.019065 0,-1.99994 h -2.98791 v -3.99988 h 2.98791 c 1.349536,0.0192 1.349536,-2.019064 0,-1.999941 h -2.98791 v -2.98819 c 0.0076,-0.562716 -0.451971,-1.020478 -1.015594,-1.01169 -0.55139,0.0086 -0.991741,0.461192 -0.984347,1.01169 v 2.98819 h -3.99988 v -2.98819 c 0.0076,-0.562716 -0.451971,-1.020478 -1.015594,-1.01169 z m 13.999582,0 c -0.55153,0.0086 -0.991938,0.461248 -0.984347,1.01169 v 9.975982 c -0.0192,1.349579 2.019064,1.349579 1.99994,0 v -9.975982 c 0.0078,-0.562656 -0.451828,-1.020478 -1.015593,-1.01169 z m -12.983988,5.999821 h 3.99988 v 3.99988 h -3.99988 z m 12.999612,7.999761 c -0.55227,0 -0.999971,0.4477 -0.999971,0.99997 0,0.552267 0.447701,0.99997 0.999971,0.99997 0.552267,0 0.999969,-0.447703 0.999969,-0.99997 0,-0.55227 -0.447702,-0.99997 -0.999969,-0.99997 z"
     id="path14" />
  <path
     inkscape:connector-curvature="0"
     d="m 28,4 v 10 c 0,1.1046 0.89543,2 2,2 h 10 z"
     id="path10"
     style="fill:#5f697d;fill-opacity:1" />
</svg>
