<?xml version="1.0" encoding="UTF-8" standalone="no"?>
<svg
   xmlns:dc="http://purl.org/dc/elements/1.1/"
   xmlns:cc="http://creativecommons.org/ns#"
   xmlns:rdf="http://www.w3.org/1999/02/22-rdf-syntax-ns#"
   xmlns:svg="http://www.w3.org/2000/svg"
   xmlns="http://www.w3.org/2000/svg"
   xmlns:sodipodi="http://sodipodi.sourceforge.net/DTD/sodipodi-0.dtd"
   xmlns:inkscape="http://www.inkscape.org/namespaces/inkscape"
   width="48"
   height="48"
   version="1.1"
   id="svg18"
   sodipodi:docname="text-x-markdown.svg"
   inkscape:version="0.92.5 (2060ec1f9f, 2020-04-08)">
  <metadata
     id="metadata24">
    <rdf:RDF>
      <cc:Work
         rdf:about="">
        <dc:format>image/svg+xml</dc:format>
        <dc:type
           rdf:resource="http://purl.org/dc/dcmitype/StillImage" />
      </cc:Work>
    </rdf:RDF>
  </metadata>
  <defs
     id="defs22" />
  <sodipodi:namedview
     pagecolor="#ffffff"
     bordercolor="#666666"
     borderopacity="1"
     objecttolerance="10"
     gridtolerance="10"
     guidetolerance="10"
     inkscape:pageopacity="0"
     inkscape:pageshadow="2"
     inkscape:window-width="640"
     inkscape:window-height="480"
     id="namedview20"
     showgrid="false"
     inkscape:zoom="4.9166667"
     inkscape:cx="-27.864408"
     inkscape:cy="24"
     inkscape:current-layer="svg18" />
  <path
     style="opacity:0.2"
     d="M 10,5 C 8.892,5 8,5.892 8,7 v 36 c 0,1.108 0.892,2 2,2 h 28 c 1.108,0 2,-0.892 2,-2 V 17 L 29,16 28,5 Z"
     id="path2" />
  <path
     inkscape:connector-curvature="0"
     d="M 10,4 C 8.8920003,4 8.0000003,4.892 8.0000003,6 v 36 c 0,1.108 0.892,2 1.9999997,2 h 28 c 1.108,0 2,-0.892 2,-2 V 16 L 29,15 28,4 Z"
     id="path4"
     style="opacity:1;fill:#4c566a;fill-opacity:1" />
  <path
     style="fill:#ffffff;opacity:0.2"
     d="M 10 4 C 8.892 4 8 4.892 8 6 L 8 7 C 8 5.892 8.892 5 10 5 L 28 5 L 28 4 L 10 4 z"
     id="path6" />
  <path
     style="opacity:0.2"
     d="m 28,5 v 10 c 0,1.1046 0.89543,2 2,2 h 10 z"
     id="path8" />
  <path
     style="fill:#ffffff;fill-opacity:1"
     d="M 17,35 H 19 V 30.8 L 21,32.8 23,30.8 V 35 H 25 V 28 H 23 L 21,30 19,28 H 17"
     id="path12" />
  <path
     style="fill:#ffffff;fill-opacity:1"
     d="M 28,28 V 32 H 26 L 28.5,35 H 29.5 L 32,32 H 30 V 28 Z"
     id="path14" />
  <rect
     style="fill:none;stroke:#ffffff;stroke-width:2;stroke-linecap:round;stroke-opacity:1;opacity:0.27"
     width="20"
     height="11"
     x="14"
     y="26"
     rx=".5"
     ry=".5"
     id="rect16" />
  <path
     inkscape:connector-curvature="0"
     d="M 28,4.0000002 V 14 c 0,1.1046 0.89543,2 2,2 h 10 z"
     id="path10"
     style="fill:#5f697d;fill-opacity:1" />
</svg>
