<?xml version="1.0" encoding="UTF-8" standalone="no"?>
<svg
   xmlns:dc="http://purl.org/dc/elements/1.1/"
   xmlns:cc="http://creativecommons.org/ns#"
   xmlns:rdf="http://www.w3.org/1999/02/22-rdf-syntax-ns#"
   xmlns:svg="http://www.w3.org/2000/svg"
   xmlns="http://www.w3.org/2000/svg"
   xmlns:sodipodi="http://sodipodi.sourceforge.net/DTD/sodipodi-0.dtd"
   xmlns:inkscape="http://www.inkscape.org/namespaces/inkscape"
   width="48"
   height="48"
   version="1"
   id="svg16"
   sodipodi:docname="unknown.svg"
   inkscape:version="0.92.5 (2060ec1f9f, 2020-04-08)">
  <metadata
     id="metadata22">
    <rdf:RDF>
      <cc:Work
         rdf:about="">
        <dc:format>image/svg+xml</dc:format>
        <dc:type
           rdf:resource="http://purl.org/dc/dcmitype/StillImage" />
      </cc:Work>
    </rdf:RDF>
  </metadata>
  <defs
     id="defs20" />
  <sodipodi:namedview
     pagecolor="#ffffff"
     bordercolor="#666666"
     borderopacity="1"
     objecttolerance="10"
     gridtolerance="10"
     guidetolerance="10"
     inkscape:pageopacity="0"
     inkscape:pageshadow="2"
     inkscape:window-width="640"
     inkscape:window-height="480"
     id="namedview18"
     showgrid="false"
     inkscape:zoom="4.9166667"
     inkscape:cx="-15.661017"
     inkscape:cy="24"
     inkscape:current-layer="svg16" />
  <path
     style="opacity:0.2"
     d="M 10,5 C 8.892,5 8,5.892 8,7 v 36 c 0,1.108 0.892,2 2,2 h 28 c 1.108,0 2,-0.892 2,-2 V 17 L 29,16 28,5 Z"
     id="path2" />
  <path
     style="fill:#4c566a;fill-opacity:1"
     d="m10 4c-1.108 0-2 0.892-2 2v36c0 1.108 0.892 2 2 2h28c1.108 0 2-0.892 2-2v-26l-11-1-1-11z"
     id="path4" />
  <path
     fill="#fff"
     style="opacity:0.1"
     d="m10 4c-1.108 0-2 0.892-2 2v1c0-1.108 0.892-2 2-2h18l11 11h1l-12-12z"
     id="path6" />
  <path
     style="opacity:0.2"
     d="m 28,5 v 10 c 0,1.1046 0.89543,2 2,2 h 10 z"
     id="path8" />
  <path
     style="fill:#5f697d;fill-opacity:1"
     d="m28 4v10c0 1.1046 0.89543 2 2 2h10l-12-12z"
     id="path10" />
  <path
     style="opacity:0.2"
     d="m 23.5,22.000062 c -2.842075,0.0024 -5.214286,2.169693 -5.472656,5 h 3.023437 c 0.237576,-1.163878 1.261341,-1.999871 2.449219,-2 1.380712,0 2.5,1.119288 2.5,2.5 0,2.5 -4,2.500006 -4,7.521484 l 3,-0.04297 c -0.243692,-3.475766 3.916942,-4.370511 4,-7.478516 0,-3.037566 -2.462434,-5.5 -5.5,-5.5 z m -1.5,15 V 40.086 h 3 v -3.085938 z"
     id="path12" />
  <path
     style="fill:#ffffff"
     d="M 23.5 21 C 20.657925 21.0024 18.285714 23.169693 18.027344 26 L 21.050781 26 C 21.288357 24.836122 22.312122 24.000129 23.5 24 C 24.880712 24 26 25.119288 26 26.5 C 26 29 22 29.000006 22 34.021484 L 25 33.978516 C 24.756308 30.50275 28.916942 29.608005 29 26.5 C 29 23.462434 26.537566 21 23.5 21 z M 22 36 L 22 39.085938 L 25 39.085938 L 25 36 L 22 36 z"
     id="path14" />
</svg>
