<?xml version="1.0" encoding="UTF-8" standalone="no"?>
<svg
   xmlns:dc="http://purl.org/dc/elements/1.1/"
   xmlns:cc="http://creativecommons.org/ns#"
   xmlns:rdf="http://www.w3.org/1999/02/22-rdf-syntax-ns#"
   xmlns:svg="http://www.w3.org/2000/svg"
   xmlns="http://www.w3.org/2000/svg"
   xmlns:sodipodi="http://sodipodi.sourceforge.net/DTD/sodipodi-0.dtd"
   xmlns:inkscape="http://www.inkscape.org/namespaces/inkscape"
   width="48"
   height="48"
   version="1"
   id="svg10"
   sodipodi:docname="x-content-blank-hddvd.svg"
   inkscape:version="0.92.5 (2060ec1f9f, 2020-04-08)">
  <metadata
     id="metadata16">
    <rdf:RDF>
      <cc:Work
         rdf:about="">
        <dc:format>image/svg+xml</dc:format>
        <dc:type
           rdf:resource="http://purl.org/dc/dcmitype/StillImage" />
      </cc:Work>
    </rdf:RDF>
  </metadata>
  <defs
     id="defs14" />
  <sodipodi:namedview
     pagecolor="#ffffff"
     bordercolor="#666666"
     borderopacity="1"
     objecttolerance="10"
     gridtolerance="10"
     guidetolerance="10"
     inkscape:pageopacity="0"
     inkscape:pageshadow="2"
     inkscape:window-width="640"
     inkscape:window-height="480"
     id="namedview12"
     showgrid="false"
     inkscape:zoom="4.9166667"
     inkscape:cx="-15.661017"
     inkscape:cy="24"
     inkscape:current-layer="svg10" />
  <path
     style="opacity:0.2"
     d="M 24,5 A 20,20 0 0 0 4,25 20,20 0 0 0 24,45 20,20 0 0 0 44,25 20,20 0 0 0 24,5 Z M 24,17 A 8,8 0 0 1 32,25 8,8 0 0 1 24,33 8,8 0 0 1 16,25 8,8 0 0 1 24,17 Z"
     id="path2" />
  <path
     style="fill:#848484"
     d="M 24,14 A 10,10 0 0 0 14,24 10,10 0 0 0 24,34 10,10 0 0 0 34,24 10,10 0 0 0 24,14 Z M 24,20 A 4,4 0 0 1 28,24 4,4 0 0 1 24,28 4,4 0 0 1 20,24 4,4 0 0 1 24,20 Z"
     id="path4" />
  <path
     style="fill:#4c566a;fill-opacity:1"
     d="M 24,4 A 20,20 0 0 0 4,24 20,20 0 0 0 24,44 20,20 0 0 0 44,24 20,20 0 0 0 24,4 Z M 24,16 A 8,8 0 0 1 32,24 8,8 0 0 1 24,32 8,8 0 0 1 16,24 8,8 0 0 1 24,16 Z"
     id="path6" />
  <path
     style="opacity:0.2;fill:#ffffff"
     d="M 24,4 A 20,20 0 0 0 4,24 20,20 0 0 0 4.0215,24.418 20,20 0 0 1 24,5 20,20 0 0 1 43.979,24.582 20,20 0 0 0 44,24 20,20 0 0 0 24,4 Z"
     id="path8" />
</svg>
