<?xml version="1.0" encoding="UTF-8" standalone="no"?>
<svg
   xmlns:dc="http://purl.org/dc/elements/1.1/"
   xmlns:cc="http://creativecommons.org/ns#"
   xmlns:rdf="http://www.w3.org/1999/02/22-rdf-syntax-ns#"
   xmlns:svg="http://www.w3.org/2000/svg"
   xmlns="http://www.w3.org/2000/svg"
   xmlns:sodipodi="http://sodipodi.sourceforge.net/DTD/sodipodi-0.dtd"
   xmlns:inkscape="http://www.inkscape.org/namespaces/inkscape"
   width="16"
   height="16"
   version="1.1"
   id="svg14"
   sodipodi:docname="emblem-encrypted-unlocked.svg"
   inkscape:version="0.92.5 (2060ec1f9f, 2020-04-08)">
  <metadata
     id="metadata20">
    <rdf:RDF>
      <cc:Work
         rdf:about="">
        <dc:format>image/svg+xml</dc:format>
        <dc:type
           rdf:resource="http://purl.org/dc/dcmitype/StillImage" />
      </cc:Work>
    </rdf:RDF>
  </metadata>
  <defs
     id="defs18" />
  <sodipodi:namedview
     pagecolor="#ffffff"
     bordercolor="#666666"
     borderopacity="1"
     objecttolerance="10"
     gridtolerance="10"
     guidetolerance="10"
     inkscape:pageopacity="0"
     inkscape:pageshadow="2"
     inkscape:window-width="954"
     inkscape:window-height="500"
     id="namedview16"
     showgrid="false"
     inkscape:zoom="14.75"
     inkscape:cx="8"
     inkscape:cy="8"
     inkscape:window-x="0"
     inkscape:window-y="28"
     inkscape:window-maximized="0"
     inkscape:current-layer="g12" />
  <g
     transform="matrix(0,-1,1,0,0,16)"
     id="g12">
    <circle
       style="fill:#374155;fill-opacity:1;stroke-width:0.85714287"
       cx="8.2203388"
       cy="7.8135595"
       r="6"
       id="circle2" />
    <g
       transform="translate(-0.13559322,-0.72881356)"
       id="g10">
      <path
         style="fill:#ffffff"
         d="M 6.5,6 A 2.5,2.5 0 0 0 4,8.5 2.5,2.5 0 0 0 6.5,11 2.5,2.5 0 0 0 9,8.5 2.5,2.5 0 0 0 6.5,6 Z m 0,1 A 1.5,1.5 0 0 1 8,8.5 1.5,1.5 0 0 1 6.5,10 1.5,1.5 0 0 1 5,8.5 1.5,1.5 0 0 1 6.5,7 Z"
         id="path4"
         inkscape:connector-curvature="0" />
      <rect
         style="fill:#ffffff"
         width="5"
         height="1"
         x="8"
         y="8"
         id="rect6" />
      <rect
         style="fill:#ffffff"
         width="1"
         height="1"
         x="11"
         y="9"
         id="rect8" />
    </g>
  </g>
</svg>
