<?xml version="1.0" encoding="UTF-8" standalone="no"?>
<svg
   xmlns:dc="http://purl.org/dc/elements/1.1/"
   xmlns:cc="http://creativecommons.org/ns#"
   xmlns:rdf="http://www.w3.org/1999/02/22-rdf-syntax-ns#"
   xmlns:svg="http://www.w3.org/2000/svg"
   xmlns="http://www.w3.org/2000/svg"
   xmlns:sodipodi="http://sodipodi.sourceforge.net/DTD/sodipodi-0.dtd"
   xmlns:inkscape="http://www.inkscape.org/namespaces/inkscape"
   width="16"
   height="16"
   version="1.1"
   id="svg6"
   sodipodi:docname="emblem-locked.svg"
   inkscape:version="0.92.5 (2060ec1f9f, 2020-04-08)">
  <metadata
     id="metadata12">
    <rdf:RDF>
      <cc:Work
         rdf:about="">
        <dc:format>image/svg+xml</dc:format>
        <dc:type
           rdf:resource="http://purl.org/dc/dcmitype/StillImage" />
      </cc:Work>
    </rdf:RDF>
  </metadata>
  <defs
     id="defs10" />
  <sodipodi:namedview
     pagecolor="#ffffff"
     bordercolor="#666666"
     borderopacity="1"
     objecttolerance="10"
     gridtolerance="10"
     guidetolerance="10"
     inkscape:pageopacity="0"
     inkscape:pageshadow="2"
     inkscape:window-width="783"
     inkscape:window-height="480"
     id="namedview8"
     showgrid="false"
     inkscape:zoom="14.75"
     inkscape:cx="8"
     inkscape:cy="8"
     inkscape:window-x="0"
     inkscape:window-y="28"
     inkscape:window-maximized="0"
     inkscape:current-layer="svg6" />
  <circle
     style="fill:#374155;fill-opacity:1;stroke-width:0.85714287"
     cx="8.0169487"
     cy="8.0508471"
     r="6"
     id="circle2" />
  <path
     style="fill:#ffffff;stroke-width:0.86440676"
     d="m 7.9999978,3.6101695 c -1.3830508,0 -2.5932203,0.8644068 -2.5932203,2.5211844 V 7.0677966 H 5.1186419 c -0.3192542,0 -0.5762712,0.3166199 -0.5762712,0.658678 v 3.0459234 c 0,0.342058 0.257017,0.617433 0.5762712,0.617433 h 5.7627121 c 0.319254,0 0.576271,-0.275375 0.576271,-0.617433 V 7.7264746 c 0,-0.3420581 -0.296878,-0.658678 -0.576271,-0.658678 H 10.593218 V 6.1313539 c 0,-1.6567776 -1.2101692,-2.5211844 -2.5932202,-2.5211844 z m 0,0.8644068 c 0.6915255,0 1.7288137,0.475825 1.7288137,1.6567776 V 7.0677966 H 6.2711842 V 6.1313539 c 0,-1.1692646 1.0372882,-1.6567776 1.7288136,-1.6567776 z"
     id="path4"
     inkscape:connector-curvature="0" />
</svg>
