<?xml version="1.0" encoding="UTF-8" standalone="no"?>
<svg
   xmlns:dc="http://purl.org/dc/elements/1.1/"
   xmlns:cc="http://creativecommons.org/ns#"
   xmlns:rdf="http://www.w3.org/1999/02/22-rdf-syntax-ns#"
   xmlns:svg="http://www.w3.org/2000/svg"
   xmlns="http://www.w3.org/2000/svg"
   xmlns:sodipodi="http://sodipodi.sourceforge.net/DTD/sodipodi-0.dtd"
   xmlns:inkscape="http://www.inkscape.org/namespaces/inkscape"
   width="16"
   height="16"
   version="1.1"
   id="svg14"
   sodipodi:docname="emblem-syncthing-offline.svg"
   inkscape:version="0.92.5 (2060ec1f9f, 2020-04-08)">
  <metadata
     id="metadata20">
    <rdf:RDF>
      <cc:Work
         rdf:about="">
        <dc:format>image/svg+xml</dc:format>
        <dc:type
           rdf:resource="http://purl.org/dc/dcmitype/StillImage" />
      </cc:Work>
    </rdf:RDF>
  </metadata>
  <defs
     id="defs18" />
  <sodipodi:namedview
     pagecolor="#ffffff"
     bordercolor="#666666"
     borderopacity="1"
     objecttolerance="10"
     gridtolerance="10"
     guidetolerance="10"
     inkscape:pageopacity="0"
     inkscape:pageshadow="2"
     inkscape:window-width="954"
     inkscape:window-height="500"
     id="namedview16"
     showgrid="false"
     inkscape:zoom="20.85965"
     inkscape:cx="8.6190085"
     inkscape:cy="7.3533027"
     inkscape:current-layer="svg14"
     inkscape:window-x="0"
     inkscape:window-y="28"
     inkscape:window-maximized="0" />
  <circle
     style="fill:#828282;fill-opacity:1;stroke-width:0.85714287"
     cx="8.0847454"
     cy="7.9152541"
     r="6"
     id="circle2" />
  <path
     style="fill:#ffffff;stroke-width:0.81510013"
     d="M 8,3.9244992 A 4.0755008,4.0755008 0 0 0 3.9244992,8 4.0755008,4.0755008 0 0 0 8,12.075501 4.0755008,4.0755008 0 0 0 12.075501,8 4.0755008,4.0755008 0 0 0 11.82445,6.608624 l 0.009,-0.00636 -0.02201,-0.03024 A 4.0755008,4.0755008 0 0 0 8.000326,3.9244992 Z m 0,0.4075501 a 3.6679507,3.6679507 0 0 1 3.25551,1.981264 L 8.712479,8.130579 4.3735379,8.5245985 A 3.6679507,3.6679507 0 0 1 4.3321308,8 3.6679507,3.6679507 0 0 1 8.0000815,4.3320493 Z m 3.480478,2.5224905 A 3.6679507,3.6679507 0 0 1 11.667951,8 3.6679507,3.6679507 0 0 1 10.60506,10.578162 L 9.2055331,8.4791974 Z M 8.6718055,8.7068549 10.168982,10.952293 A 3.6679507,3.6679507 0 0 1 7.9992664,11.667951 3.6679507,3.6679507 0 0 1 4.5000414,9.08661 L 8.671072,8.7069364 Z"
     id="path4"
     inkscape:connector-curvature="0" />
  <circle
     style="fill:#ffffff;stroke-width:0.81510013"
     cx="4.3320494"
     cy="8.8150997"
     r="0.81510013"
     id="circle6" />
  <circle
     style="fill:#ffffff;stroke-width:0.81510013"
     cx="10.4453"
     cy="10.852851"
     r="0.81510013"
     id="circle8" />
  <circle
     style="fill:#ffffff;stroke-width:0.81510013"
     cx="11.667951"
     cy="6.3697996"
     r="0.81510013"
     id="circle10" />
  <circle
     style="fill:#ffffff;stroke-width:0.81510013"
     cx="8.8150997"
     cy="8.4075499"
     r="0.81510013"
     id="circle12" />
</svg>
