<?xml version="1.0" encoding="UTF-8" standalone="no"?>
<svg
   xmlns:dc="http://purl.org/dc/elements/1.1/"
   xmlns:cc="http://creativecommons.org/ns#"
   xmlns:rdf="http://www.w3.org/1999/02/22-rdf-syntax-ns#"
   xmlns:svg="http://www.w3.org/2000/svg"
   xmlns="http://www.w3.org/2000/svg"
   xmlns:sodipodi="http://sodipodi.sourceforge.net/DTD/sodipodi-0.dtd"
   xmlns:inkscape="http://www.inkscape.org/namespaces/inkscape"
   width="16"
   height="16"
   version="1.1"
   id="svg6"
   sodipodi:docname="emblem-synchronizing.svg"
   inkscape:version="0.92.5 (2060ec1f9f, 2020-04-08)">
  <metadata
     id="metadata12">
    <rdf:RDF>
      <cc:Work
         rdf:about="">
        <dc:format>image/svg+xml</dc:format>
        <dc:type
           rdf:resource="http://purl.org/dc/dcmitype/StillImage" />
      </cc:Work>
    </rdf:RDF>
  </metadata>
  <defs
     id="defs10" />
  <sodipodi:namedview
     pagecolor="#ffffff"
     bordercolor="#666666"
     borderopacity="1"
     objecttolerance="10"
     gridtolerance="10"
     guidetolerance="10"
     inkscape:pageopacity="0"
     inkscape:pageshadow="2"
     inkscape:window-width="954"
     inkscape:window-height="1026"
     id="namedview8"
     showgrid="false"
     inkscape:zoom="29.5"
     inkscape:cx="7.103484"
     inkscape:cy="5.1848081"
     inkscape:window-x="0"
     inkscape:window-y="28"
     inkscape:window-maximized="0"
     inkscape:current-layer="svg6" />
  <circle
     style="fill:#374155;fill-opacity:1;stroke-width:0.81113803"
     cx="8"
     cy="8"
     r="5.6779661"
     id="circle2" />
  <path
     style="fill:#ffffff"
     d="M 8.2636719 4.0039062 C 7.9553875 4.0156437 7.6405762 4.060159 7.3164062 4.140625 C 5.3948162 4.567168 3.9745 6.240627 4 8 L 3 8 L 4.5 10 L 6 8 L 5 8 C 4.99535 7.2298936 5.4005862 6.4646563 6.0039062 5.9121094 C 7.0456263 4.8955544 8.5923794 4.6691104 9.9121094 5.3808594 C 10.368789 5.9121164 11.38746 5.3399166 10.84375 4.7910156 C 10.04446 4.2387216 9.188525 3.9686937 8.2636719 4.0039062 z M 11.5 6 L 10 8 L 11 8 C 11.00465 8.7701064 10.599414 9.5353441 9.9960938 10.087891 C 8.9543735 11.104446 7.4076206 11.33089 6.0878906 10.619141 C 5.6312106 10.087885 4.61254 10.660082 5.15625 11.208984 C 6.22197 11.945376 7.3869137 12.181239 8.6835938 11.859375 C 10.605184 11.432832 12.0255 9.7593735 12 8 L 13 8 L 11.5 6 z"
     id="path4" />
</svg>
