<?xml version="1.0" encoding="UTF-8" standalone="no"?>
<svg
   xmlns:dc="http://purl.org/dc/elements/1.1/"
   xmlns:cc="http://creativecommons.org/ns#"
   xmlns:rdf="http://www.w3.org/1999/02/22-rdf-syntax-ns#"
   xmlns:svg="http://www.w3.org/2000/svg"
   xmlns="http://www.w3.org/2000/svg"
   xmlns:sodipodi="http://sodipodi.sourceforge.net/DTD/sodipodi-0.dtd"
   xmlns:inkscape="http://www.inkscape.org/namespaces/inkscape"
   width="16"
   height="16"
   version="1.1"
   id="svg14"
   sodipodi:docname="Nextcloud_warn_shared.svg"
   inkscape:version="0.92.5 (2060ec1f9f, 2020-04-08)">
  <metadata
     id="metadata20">
    <rdf:RDF>
      <cc:Work
         rdf:about="">
        <dc:format>image/svg+xml</dc:format>
        <dc:type
           rdf:resource="http://purl.org/dc/dcmitype/StillImage" />
      </cc:Work>
    </rdf:RDF>
  </metadata>
  <defs
     id="defs18" />
  <sodipodi:namedview
     pagecolor="#ffffff"
     bordercolor="#666666"
     borderopacity="1"
     objecttolerance="10"
     gridtolerance="10"
     guidetolerance="10"
     inkscape:pageopacity="0"
     inkscape:pageshadow="2"
     inkscape:window-width="640"
     inkscape:window-height="480"
     id="namedview16"
     showgrid="false"
     inkscape:zoom="14.75"
     inkscape:cx="-5.220339"
     inkscape:cy="8"
     inkscape:current-layer="svg14" />
  <rect
     style="fill:#455a64"
     width="9"
     height="7"
     x="3.5"
     y="9"
     id="rect2" />
  <circle
     style="fill:#455a64"
     cx="3.5"
     cy="12.5"
     r="3.5"
     id="circle4" />
  <path
     style="fill:#ffffff"
     d="M 5 10 A 1 1 0 0 0 4 11 A 1 1 0 0 0 4.0234375 11.208984 L 2.7539062 11.84375 A 1 1 0 0 0 2 11.5 A 1 1 0 0 0 1 12.5 A 1 1 0 0 0 2 13.5 A 1 1 0 0 0 2.7539062 13.15625 L 4.0214844 13.789062 A 1 1 0 0 0 4 14 A 1 1 0 0 0 5 15 A 1 1 0 0 0 6 14 A 1 1 0 0 0 5 13 A 1 1 0 0 0 4.2441406 13.34375 L 2.9765625 12.710938 A 1 1 0 0 0 3 12.5 A 1 1 0 0 0 2.9765625 12.289062 L 4.2460938 11.654297 A 1 1 0 0 0 5 12 A 1 1 0 0 0 6 11 A 1 1 0 0 0 5 10 z"
     id="path6" />
  <circle
     style="fill:#ebcb8b;fill-opacity:1"
     cx="12.5"
     cy="12.5"
     r="3.5"
     id="circle8" />
  <rect
     style="fill:#ffffff"
     width="1"
     height="3"
     x="12"
     y="10"
     id="rect10" />
  <rect
     style="fill:#ffffff"
     width="1"
     height="1"
     x="12"
     y="14"
     id="rect12" />
</svg>
