<?xml version="1.0" encoding="UTF-8" standalone="no"?>
<svg
   xmlns:osb="http://www.openswatchbook.org/uri/2009/osb"
   xmlns:dc="http://purl.org/dc/elements/1.1/"
   xmlns:cc="http://creativecommons.org/ns#"
   xmlns:rdf="http://www.w3.org/1999/02/22-rdf-syntax-ns#"
   xmlns:svg="http://www.w3.org/2000/svg"
   xmlns="http://www.w3.org/2000/svg"
   xmlns:sodipodi="http://sodipodi.sourceforge.net/DTD/sodipodi-0.dtd"
   xmlns:inkscape="http://www.inkscape.org/namespaces/inkscape"
   width="16"
   version="1.1"
   style="enable-background:new"
   id="svg7384"
   height="16"
   sodipodi:docname="mintupdate-type-package-symbolic.svg"
   inkscape:version="0.92.4 (5da689c313, 2019-01-14)">
  <sodipodi:namedview
     pagecolor="#ffffff"
     bordercolor="#666666"
     borderopacity="1"
     objecttolerance="10"
     gridtolerance="10"
     guidetolerance="10"
     inkscape:pageopacity="0"
     inkscape:pageshadow="2"
     inkscape:window-width="1920"
     inkscape:window-height="1015"
     id="namedview20"
     showgrid="true"
     showguides="false"
     inkscape:zoom="22.627417"
     inkscape:cx="-0.29919107"
     inkscape:cy="8.9810429"
     inkscape:window-x="0"
     inkscape:window-y="0"
     inkscape:window-maximized="1"
     inkscape:current-layer="layer4">
    <inkscape:grid
       type="xygrid"
       id="grid827" />
  </sodipodi:namedview>
  <metadata
     id="metadata90">
    <rdf:RDF>
      <cc:Work
         rdf:about="">
        <dc:format>image/svg+xml</dc:format>
        <dc:type
           rdf:resource="http://purl.org/dc/dcmitype/StillImage" />
        <dc:title>Moka Symbolic Icon Theme</dc:title>
      </cc:Work>
    </rdf:RDF>
  </metadata>
  <title
     id="title8473">Moka Symbolic Icon Theme</title>
  <defs
     id="defs7386">
    <linearGradient
       osb:paint="solid"
       id="linearGradient5606">
      <stop
         style="stop-color:#000000;stop-opacity:1;"
         offset="0"
         id="stop5608" />
    </linearGradient>
    <filter
       style="color-interpolation-filters:sRGB"
       id="filter7554">
      <feBlend
         mode="darken"
         in2="BackgroundImage"
         id="feBlend7556" />
    </filter>
  </defs>
  <g
     transform="translate(-401.00031,348.00336)"
     style="display:inline;filter:url(#filter7554)"
     id="layer10" />
  <g
     transform="translate(-160.00011,-268.99664)"
     style="display:inline"
     id="layer1" />
  <g
     transform="translate(-401.00031,348.00336)"
     style="display:inline"
     id="layer14" />
  <g
     transform="translate(-401.00031,348.00336)"
     style="display:inline"
     id="layer15" />
  <g
     transform="translate(-401.00031,348.00336)"
     style="display:inline"
     id="g71291" />
  <g
     transform="translate(-160.00011,-118.99664)"
     style="display:inline"
     id="layer2" />
  <g
     transform="translate(-160.00011,-118.99664)"
     style="display:inline"
     id="g6058" />
  <g
     transform="translate(-401.00031,348.00336)"
     style="display:inline"
     id="layer12" />
  <g
     inkscape:groupmode="layer"
     id="layer4"
     inkscape:label="hi"
     style="display:inline">
    <g
       transform="translate(-401.00031,348.00336)"
       style="display:inline;fill:#bebebe;fill-opacity:1;stroke:none;stroke-opacity:1;enable-background:new"
       id="layer9">
      <path
         style="opacity:0.98999999;fill:#bebebe;fill-opacity:1;stroke:none;stroke-width:0.84292817;stroke-opacity:1"
         d="m 409.00031,-347.00336 c 0.24031,0 0.47686,0.0135 0.71094,0.0371 -0.2362,-0.0244 -0.47348,-0.0368 -0.71094,-0.0371 z m 0,0 c -0.20478,10e-4 -0.40941,0.0118 -0.61328,0.0312 0.2027,-0.0177 0.40599,-0.0312 0.61328,-0.0312 z m -0.94336,0.0723 c -0.11631,0.0147 -0.23223,0.0322 -0.34766,0.0527 0.11461,-0.0214 0.23117,-0.037 0.34766,-0.0527 z m -0.75976,0.14453 c -0.0791,0.0188 -0.15791,0.039 -0.23633,0.0605 0.0778,-0.0224 0.15745,-0.0408 0.23633,-0.0605 z m -0.68555,0.21093 c -0.072,0.0249 -0.14366,0.0509 -0.21485,0.0781 0.0706,-0.0283 0.14318,-0.0521 0.21485,-0.0781 z m -0.59961,0.25 c -0.0874,0.0405 -0.17406,0.0829 -0.25977,0.12696 0.0852,-0.0448 0.17254,-0.0856 0.25977,-0.12696 z m -0.60938,0.32618 c -0.079,0.046 -0.15719,0.0935 -0.23437,0.14257 0.0763,-0.0501 0.156,-0.0954 0.23437,-0.14257 z m 7.53711,0.21093 c 0.0462,0.0315 0.0893,0.067 0.13477,0.0996 -0.0445,-0.0337 -0.0894,-0.0669 -0.13477,-0.0996 z m -8.15234,0.20313 c -0.058,0.0421 -0.11525,0.0851 -0.17188,0.12891 0.0558,-0.0449 0.11472,-0.0857 0.17188,-0.12891 z m 8.70312,0.21484 c 0.0626,0.0524 0.12095,0.10953 0.18165,0.16407 -0.0596,-0.0557 -0.12015,-0.11044 -0.18165,-0.16407 z m -9.19335,0.19336 c -0.0723,0.063 -0.14327,0.12746 -0.2129,0.19336 0.0682,-0.0673 0.14197,-0.12885 0.2129,-0.19336 z m 9.68359,0.25781 c 0.0673,0.0682 0.12885,0.14197 0.19336,0.2129 -0.063,-0.0723 -0.12746,-0.14327 -0.19336,-0.2129 z m -10.18359,0.24415 c -0.0557,0.0596 -0.11044,0.12014 -0.16407,0.18164 0.0524,-0.0626 0.10953,-0.12095 0.16407,-0.18164 z m 10.65625,0.2871 c 0.0449,0.0558 0.0857,0.11472 0.1289,0.17188 -0.0421,-0.058 -0.0851,-0.11525 -0.1289,-0.17188 z m -11.13868,0.31055 c -0.0337,0.0445 -0.0669,0.0894 -0.0996,0.13477 0.0315,-0.0462 0.067,-0.0893 0.0996,-0.13477 z m 5.68555,0.0742 c -0.31731,0.48793 -1.738,2.34553 -3,4 v 0 l 2,3e-5 v 4.03125 l 2,0.0312 v -4.0625 h 1.5 l 0.5,2e-5 z m 5.85352,0.16798 c 0.0501,0.0763 0.0954,0.156 0.14257,0.23437 -0.046,-0.0791 -0.0935,-0.15719 -0.14257,-0.23437 z m 0.34179,0.58398 c 0.0448,0.0852 0.0856,0.17254 0.12696,0.25977 -0.0405,-0.0874 -0.0829,-0.17406 -0.12696,-0.25977 z m 0.29883,0.64453 c 0.0283,0.0706 0.0521,0.14318 0.0781,0.21485 -0.0249,-0.072 -0.0509,-0.14366 -0.0781,-0.21485 z m 0.22852,0.66407 c 0.0224,0.0778 0.0408,0.15745 0.0605,0.23633 -0.0188,-0.0791 -0.039,-0.15791 -0.0605,-0.23633 z m 0.15234,0.64843 c 0.0214,0.11461 0.037,0.23116 0.0527,0.34766 -0.0146,-0.11631 -0.0322,-0.23223 -0.0527,-0.34766 z m 0.0937,0.67774 c 0.0177,0.20271 0.0312,0.406 0.0312,0.61328 -10e-4,-0.20478 -0.0118,-0.40941 -0.0312,-0.61328 z m 0.0312,0.61328 c 0,0.24031 -0.0135,0.47686 -0.0371,0.71094 0.0244,-0.2362 0.0368,-0.47348 0.0371,-0.71094 z m -14,0 c 0.001,0.19759 0.0112,0.39504 0.0293,0.5918 -0.0164,-0.19579 -0.0293,-0.39176 -0.0293,-0.5918 z m 0.0762,0.98242 c 0.0134,0.1019 0.029,0.20348 0.0469,0.30469 -0.0187,-0.10045 -0.0325,-0.20278 -0.0469,-0.30469 z m 0.14063,0.72071 c 0.0188,0.0791 0.039,0.1579 0.0605,0.23632 -0.0224,-0.0778 -0.0408,-0.15745 -0.0605,-0.23632 z m 0.21093,0.68554 c 0.0249,0.072 0.0509,0.14366 0.0781,0.21485 -0.0283,-0.0706 -0.0521,-0.14318 -0.0781,-0.21485 z m 0.25,0.59961 c 0.0405,0.0874 0.0829,0.17406 0.12696,0.25977 -0.0448,-0.0852 -0.0856,-0.17254 -0.12696,-0.25977 z m 0.32618,0.60938 c 0.046,0.079 0.0935,0.15719 0.14257,0.23437 -0.0501,-0.0763 -0.0954,-0.156 -0.14257,-0.23437 z m 11.78125,0.34179 c -0.0315,0.0462 -0.067,0.0893 -0.0996,0.13477 0.0337,-0.0445 0.0669,-0.0894 0.0996,-0.13477 z m -11.36719,0.27344 c 0.0421,0.058 0.0851,0.11525 0.12891,0.17188 -0.0449,-0.0558 -0.0857,-0.11472 -0.12891,-0.17188 z m 10.94922,0.27734 c -0.0524,0.0626 -0.10953,0.12095 -0.16406,0.18165 0.0557,-0.0596 0.11044,-0.12015 0.16406,-0.18165 z m -10.54102,0.2129 c 0.063,0.0723 0.12746,0.14326 0.19336,0.21289 -0.0673,-0.0682 -0.12885,-0.14197 -0.19336,-0.21289 z m 10.08985,0.27734 c -0.0682,0.0673 -0.14197,0.12885 -0.21289,0.19336 0.0723,-0.063 0.14326,-0.12746 0.21289,-0.19336 z m -9.58789,0.22266 c 0.0596,0.0557 0.12014,0.11044 0.18164,0.16406 -0.0626,-0.0524 -0.12095,-0.10953 -0.18164,-0.16406 z m 9.05664,0.25 c -0.0558,0.0449 -0.11472,0.0857 -0.17188,0.1289 0.058,-0.0421 0.11525,-0.0851 0.17188,-0.1289 z m -8.45899,0.23242 c 0.0445,0.0337 0.0894,0.0669 0.13477,0.0996 -0.0462,-0.0315 -0.0893,-0.067 -0.13477,-0.0996 z m 7.90625,0.16797 c -0.0763,0.0501 -0.156,0.0954 -0.23437,0.14257 0.079,-0.046 0.15719,-0.0935 0.23437,-0.14257 z m -0.58398,0.34179 c -0.0852,0.0448 -0.17254,0.0856 -0.25977,0.12696 0.0874,-0.0405 0.17406,-0.0829 0.25977,-0.12696 z m -0.64453,0.29883 c -0.0706,0.0283 -0.14318,0.0521 -0.21485,0.0781 0.072,-0.0249 0.14366,-0.0509 0.21485,-0.0781 z m -0.66407,0.22852 c -0.0778,0.0224 -0.15745,0.0408 -0.23632,0.0605 0.0791,-0.0188 0.1579,-0.039 0.23632,-0.0605 z m -0.64843,0.15234 c -0.11461,0.0214 -0.23117,0.037 -0.34766,0.0527 0.11631,-0.0147 0.23223,-0.0322 0.34766,-0.0527 z m -2.00196,0.0879 c 0.2362,0.0244 0.47348,0.0368 0.71094,0.0371 -0.24031,0 -0.47686,-0.0135 -0.71094,-0.0371 z m 0.71094,0.0371 c 0.20478,-0.001 0.40941,-0.0118 0.61328,-0.0312 -0.2027,0.0177 -0.40599,0.0312 -0.61328,0.0312 z"
         id="path4524"
         inkscape:connector-curvature="0"
         sodipodi:nodetypes="ccccccccccccccccccccccccccccccccccccccccccccccccccccccccccccccccccccccccccccccccccccccccccccccccccccccccacccccccccccccccccccccccccczccccccc" />
    </g>
    <path
       style="display:inline;fill:#bebebe;fill-opacity:1;stroke:none;stroke-width:11.31370831;stroke-opacity:1;enable-background:new;opacity:0.35"
       d="M 8 0 A 8 8 0 0 0 0 8 A 8 8 0 0 0 8 16 A 8 8 0 0 0 16 8 A 8 8 0 0 0 8 0 z M 8 1 A 7 7 0 0 1 15 8 A 7 7 0 0 1 8 15 A 7 7 0 0 1 1 8 A 7 7 0 0 1 8 1 z "
       id="path1497" />
  </g>
</svg>
