<?xml version="1.0" encoding="UTF-8" standalone="no"?>
<svg
   xmlns:osb="http://www.openswatchbook.org/uri/2009/osb"
   xmlns:dc="http://purl.org/dc/elements/1.1/"
   xmlns:cc="http://creativecommons.org/ns#"
   xmlns:rdf="http://www.w3.org/1999/02/22-rdf-syntax-ns#"
   xmlns:svg="http://www.w3.org/2000/svg"
   xmlns="http://www.w3.org/2000/svg"
   xmlns:sodipodi="http://sodipodi.sourceforge.net/DTD/sodipodi-0.dtd"
   xmlns:inkscape="http://www.inkscape.org/namespaces/inkscape"
   width="16"
   version="1.1"
   style="enable-background:new"
   id="svg7384"
   height="16"
   sodipodi:docname="mintupdate-error-symbolic.svg"
   inkscape:version="0.92.5 (2060ec1f9f, 2020-04-08)">
  <sodipodi:namedview
     pagecolor="#ffffff"
     bordercolor="#666666"
     borderopacity="1"
     objecttolerance="10"
     gridtolerance="10"
     guidetolerance="10"
     inkscape:pageopacity="0"
     inkscape:pageshadow="2"
     inkscape:window-width="783"
     inkscape:window-height="480"
     id="namedview21"
     showgrid="false"
     inkscape:zoom="14.75"
     inkscape:cx="8"
     inkscape:cy="8"
     inkscape:window-x="0"
     inkscape:window-y="28"
     inkscape:window-maximized="0"
     inkscape:current-layer="svg7384" />
  <metadata
     id="metadata90">
    <rdf:RDF>
      <cc:Work
         rdf:about="">
        <dc:format>image/svg+xml</dc:format>
        <dc:type
           rdf:resource="http://purl.org/dc/dcmitype/StillImage" />
        <dc:title>Moka Symbolic Icon Theme</dc:title>
      </cc:Work>
    </rdf:RDF>
  </metadata>
  <title
     id="title8473">Moka Symbolic Icon Theme</title>
  <defs
     id="defs7386">
    <linearGradient
       osb:paint="solid"
       id="linearGradient5606">
      <stop
         style="stop-color:#000000;stop-opacity:1;"
         offset="0"
         id="stop5608" />
    </linearGradient>
    <filter
       style="color-interpolation-filters:sRGB"
       id="filter7554">
      <feBlend
         mode="darken"
         in2="BackgroundImage"
         id="feBlend7556" />
    </filter>
  </defs>
  <path
     class="error"
     style="display:block;overflow:visible;visibility:visible;opacity:1;fill:#bf616a;fill-opacity:1;fill-rule:nonzero;stroke:none;stroke-width:1.00000012;stroke-linecap:round;stroke-linejoin:round;stroke-miterlimit:4;stroke-dasharray:none;stroke-dashoffset:0;stroke-opacity:1;marker:none;enable-background:new"
     d="M 7.9121094 3.5 C 6.1931768 4.7241287 3.5 5.4765625 3.5 5.4765625 C 4.1967763 11.128998 8 12.5 8 12.5 C 8 12.5 11.745156 11.072458 12.5 5.3925781 C 12.5 5.3925781 9.2475915 4.2682914 7.9121094 3.5 z M 7 5 L 9 5 L 9 7.5 C 9 7.5 9 8 8.5 8 L 7.5 8 C 7 8 7 7.5 7 7.5 L 7 5 z M 7.5 9 L 8.5 9 C 8.777 9 9 9.223 9 9.5 L 9 10.5 C 9 10.777 8.777 11 8.5 11 L 7.5 11 C 7.223628 11.000554 6.999445 10.776372 7 10.5 L 7 9.5 C 7 9.223 7.223 9 7.5 9 z "
     id="path15651-4-7" />
  <g
     transform="translate(-519.00021,368.01034)"
     style="display:inline;filter:url(#filter7554)"
     id="layer10" />
  <g
     transform="translate(-278.00001,-248.98966)"
     style="display:inline"
     id="layer1" />
  <g
     transform="translate(-519.00021,368.01034)"
     style="display:inline"
     id="layer14" />
  <g
     transform="translate(-519.00021,368.01034)"
     style="display:inline"
     id="layer15" />
  <g
     transform="translate(-519.00021,368.01034)"
     style="display:inline"
     id="g71291" />
  <g
     transform="translate(-278.00001,-98.98966)"
     style="display:inline"
     id="layer2" />
  <g
     transform="translate(-278.00001,-98.98966)"
     style="display:inline"
     id="g6058" />
  <g
     transform="translate(-519.00021,368.01034)"
     style="display:inline"
     id="layer12" />
  <path
     style="display:block;overflow:visible;visibility:visible;fill:#d8dee9;fill-opacity:1;fill-rule:nonzero;stroke:none;stroke-width:1.00000012;stroke-linecap:round;stroke-linejoin:round;stroke-miterlimit:4;stroke-dasharray:none;stroke-dashoffset:0;stroke-opacity:1;marker:none;enable-background:new"
     d="M 7.844483,2e-7 C 4.788185,2.1762288 0,3.5111609 0,3.5111609 1.238882,13.559938 8,16 8,16 c 0,0 6.657874,-2.536363 8,-12.6339284 0,0 -5.781008,-2.0002199 -8.155517,-3.3660714 z m 0.04574,2.2857143 c 1.69608,0.9756114 5.825041,2.4040178 5.825041,2.4040178 -0.95866,7.2125377 -5.715265,9.0245537 -5.715265,9.0245537 0,0 -4.830352,-1.74194 -5.715266,-8.9196429 0,0 3.42242,-0.9544829 5.60549,-2.5089286 z"
     id="path15651-4" />
  <path
     style="color:#bebebe;overflow:visible;fill:#d8dee9;fill-opacity:1;enable-background:new"
     d="m 7,5 v 2.5000003 c 0,0 0,0.5 0.5,0.5 h 1 c 0.5,0 0.5,-0.5 0.5,-0.5 V 5 Z m 0.5,4.0000003 c -0.277,0 -0.5,0.223 -0.5,0.5 V 10.5 c -5.55e-4,0.276372 0.223628,0.500554 0.5,0.5 h 1 C 8.777,11 9,10.777 9,10.5 V 9.5000003 c 0,-0.277 -0.223,-0.5 -0.5,-0.5 z"
     id="path4-3-7-3" />
</svg>
