<?xml version="1.0" encoding="UTF-8" standalone="no"?>
<svg
   xmlns:osb="http://www.openswatchbook.org/uri/2009/osb"
   xmlns:dc="http://purl.org/dc/elements/1.1/"
   xmlns:cc="http://creativecommons.org/ns#"
   xmlns:rdf="http://www.w3.org/1999/02/22-rdf-syntax-ns#"
   xmlns:svg="http://www.w3.org/2000/svg"
   xmlns="http://www.w3.org/2000/svg"
   width="16"
   version="1.1"
   style="enable-background:new"
   id="svg7384"
   height="16">
  <metadata
     id="metadata90">
    <rdf:RDF>
      <cc:Work
         rdf:about="">
        <dc:format>image/svg+xml</dc:format>
        <dc:type
           rdf:resource="http://purl.org/dc/dcmitype/StillImage" />
        <dc:title>Moka Symbolic Icon Theme</dc:title>
      </cc:Work>
    </rdf:RDF>
  </metadata>
  <title
     id="title8473">Moka Symbolic Icon Theme</title>
  <defs
     id="defs7386">
    <linearGradient
       osb:paint="solid"
       id="linearGradient5606">
      <stop
         style="stop-color:#000000;stop-opacity:1;"
         offset="0"
         id="stop5608" />
    </linearGradient>
    <filter
       style="color-interpolation-filters:sRGB"
       id="filter7554">
      <feBlend
         mode="darken"
         in2="BackgroundImage"
         id="feBlend7556" />
    </filter>
  </defs>
  <g
     transform="translate(-519.00021,368.01034)"
     style="display:inline;filter:url(#filter7554)"
     id="layer10" />
  <g
     transform="translate(-278.00001,-248.98966)"
     style="display:inline"
     id="layer1" />
  <g
     transform="translate(-519.00021,368.01034)"
     style="display:inline"
     id="layer14" />
  <g
     transform="translate(-519.00021,368.01034)"
     style="display:inline"
     id="layer15" />
  <g
     transform="translate(-519.00021,368.01034)"
     style="display:inline"
     id="g71291" />
  <g
     transform="translate(-278.00001,-98.98966)"
     style="display:inline"
     id="layer2" />
  <g
     transform="translate(-278.00001,-98.98966)"
     style="display:inline"
     id="g6058" />
  <g
     transform="translate(-519.00021,368.01034)"
     style="display:inline"
     id="layer12" />
  <path
     style="display:block;overflow:visible;visibility:visible;fill:#bebebe;fill-opacity:1;fill-rule:nonzero;stroke:none;stroke-width:1.00000012;stroke-linecap:round;stroke-linejoin:round;stroke-miterlimit:4;stroke-dasharray:none;stroke-dashoffset:0;stroke-opacity:1;marker:none;enable-background:new"
     d="M 7.8459822,0 C 4.7901002,2.1762286 0,3.5111607 0,3.5111607 1.2387135,13.559938 8,16 8,16 8,16 14.658057,13.463637 16,3.3660714 16,3.3660714 10.220169,1.3658515 7.8459822,0 Z m 0.04241,2.2857143 C 9.584241,3.2613225 13.714286,4.6897321 13.714286,4.6897321 12.755755,11.902279 8,13.714286 8,13.714286 c 0,0 -4.8294905,-1.741945 -5.7142857,-8.9196431 0,0 3.4199057,-0.9544797 5.6026779,-2.5089286 z"
     id="path15651-4-5" />
  <path
     id="path2"
     style="overflow:visible;fill:#bebebe;fill-opacity:1;marker:none"
     overflow="visible"
     d="m 7.2019998,3.7539995 v 1.187 l -0.175,0.063 c -0.082,0.03 -0.176,0.075 -0.276,0.123 l -0.168,0.082 -0.8339997,-0.832 c 0,-0.003 -0.01,-0.004 -0.012,-0.006 0,0.002 -0.012,0.004 -0.012,0.006 l -1.0999998,1.1 c 0.012,-0.011 0.012,0.03 0,0.02 l 0.8329998,0.8349999 -0.082,0.17 C 5.331262,6.5909824 5.290881,6.6820905 5.255,6.7749994 l -0.065,0.178 H 4.0000003 v 1.598 H 5.19 l 0.065,0.178 c 0.029,0.08 0.072,0.173 0.1200001,0.273 l 0.083,0.17 -0.8319998,0.8359996 c 0.01,-0.01 0.01,0.03 0,0.02 L 5.7260001,11.127 c -0.012,-0.01 0.032,-0.01 0.022,0 l 0.8339997,-0.832 0.168,0.082 c 0.1,0.047 0.193,0.093 0.276,0.123 l 0.175,0.062 v 1.188 h 1.6000001 v -1.188 l 0.178,-0.062 c 0.082,-0.03 0.173,-0.075 0.273,-0.123 l 0.172,-0.082 0.8320001,0.832 c -0.011,-0.01 0.034,-0.01 0.023,0 l 1.1,-1.1 c -0.011,0.011 -0.011,-0.03 0,-0.02 l -0.834,-0.8349996 0.082,-0.17 c 0.048,-0.1 0.092,-0.192 0.12,-0.274 l 0.065,-0.177 H 12 v -1.598 h -1.188 l -0.064,-0.178 c -0.03536,-0.093124 -0.07575,-0.1842586 -0.121,-0.273 l -0.082,-0.17 0.834,-0.8359999 c -0.011,0.01 -0.011,-0.03 0,-0.02 l -1.1,-1.099 c 0.011,0.01 -0.034,0.01 -0.022,0 l -0.8340001,0.832 -0.17,-0.082 c -0.099,-0.048 -0.193,-0.093 -0.275,-0.123 l -0.176,-0.063 v -1.187 z m 0.8010001,2.6659999 c 0.733,0 1.332,0.6 1.332,1.332 0,0.733 -0.599,1.332 -1.332,1.332 -0.7330001,0 -1.3340001,-0.6 -1.3340001,-1.332 0,-0.733 0.601,-1.332 1.3340001,-1.332 z" />
</svg>
