<?xml version="1.0" encoding="UTF-8" standalone="no"?>
<svg
   xmlns:dc="http://purl.org/dc/elements/1.1/"
   xmlns:cc="http://creativecommons.org/ns#"
   xmlns:rdf="http://www.w3.org/1999/02/22-rdf-syntax-ns#"
   xmlns:svg="http://www.w3.org/2000/svg"
   xmlns="http://www.w3.org/2000/svg"
   xmlns:sodipodi="http://sodipodi.sourceforge.net/DTD/sodipodi-0.dtd"
   xmlns:inkscape="http://www.inkscape.org/namespaces/inkscape"
   width="16"
   height="16"
   version="1.1"
   id="svg6"
   sodipodi:docname="notification-disabled-new-symbolic.svg"
   inkscape:version="0.92.5 (2060ec1f9f, 2020-04-08)">
  <metadata
     id="metadata12">
    <rdf:RDF>
      <cc:Work
         rdf:about="">
        <dc:format>image/svg+xml</dc:format>
        <dc:type
           rdf:resource="http://purl.org/dc/dcmitype/StillImage" />
      </cc:Work>
    </rdf:RDF>
  </metadata>
  <defs
     id="defs10" />
  <sodipodi:namedview
     pagecolor="#ffffff"
     bordercolor="#666666"
     borderopacity="1"
     objecttolerance="10"
     gridtolerance="10"
     guidetolerance="10"
     inkscape:pageopacity="0"
     inkscape:pageshadow="2"
     inkscape:window-width="765"
     inkscape:window-height="480"
     id="namedview8"
     showgrid="false"
     inkscape:zoom="14.75"
     inkscape:cx="11.887955"
     inkscape:cy="6.7228532"
     inkscape:current-layer="svg6"
     inkscape:window-x="0"
     inkscape:window-y="28"
     inkscape:window-maximized="0" />
  <path
     style="fill:#dfdfdf;opacity:.35"
     d="M 11.09,1.7012 C 8.8767,0.95343 6.3842,1.8377 5.1695,3.9414 L 2.9195,7.8379 0.18707,8.5703 -0.06293,9.0039 1.6695,10.004 10.33,15.004 12.063,16.004 12.313,15.57 11.58,12.838 12.83,10.674 13.83,8.9414 C 14.375,7.9984 14.561,6.9577 14.463,5.9551 14.311,5.9792 14.158,6.0039 14,6.0039 12.355,6.0039 11,4.6489 11,3.0039 11,2.5677 11.099,2.1552 11.273,1.782 11.273,1.782 11.092,1.7019 11.09,1.7012 Z M 4.0016,12.504 C 4.0016,13.218 4.3816,13.879 4.9996,14.236 5.6179,14.592 6.3799,14.591 6.9976,14.234 Z"
     id="path2" />
  <path
     style="fill:#dfdfdf;fill-opacity:1"
     class="warning"
     d="M 16,3 A 2,2 0 0 1 14,5 2,2 0 0 1 12,3 2,2 0 0 1 14,1 2,2 0 0 1 16,3 Z"
     id="path4" />
</svg>
