<?xml version="1.0" encoding="UTF-8" standalone="no"?>
<svg
   xmlns:dc="http://purl.org/dc/elements/1.1/"
   xmlns:cc="http://creativecommons.org/ns#"
   xmlns:rdf="http://www.w3.org/1999/02/22-rdf-syntax-ns#"
   xmlns:svg="http://www.w3.org/2000/svg"
   xmlns="http://www.w3.org/2000/svg"
   xmlns:sodipodi="http://sodipodi.sourceforge.net/DTD/sodipodi-0.dtd"
   xmlns:inkscape="http://www.inkscape.org/namespaces/inkscape"
   width="48"
   height="48"
   version="1"
   id="svg20"
   sodipodi:docname="financial-list.svg"
   inkscape:version="0.92.5 (2060ec1f9f, 2020-04-08)">
  <metadata
     id="metadata26">
    <rdf:RDF>
      <cc:Work
         rdf:about="">
        <dc:format>image/svg+xml</dc:format>
        <dc:type
           rdf:resource="http://purl.org/dc/dcmitype/StillImage" />
      </cc:Work>
    </rdf:RDF>
  </metadata>
  <defs
     id="defs24" />
  <sodipodi:namedview
     pagecolor="#ffffff"
     bordercolor="#666666"
     borderopacity="1"
     objecttolerance="10"
     gridtolerance="10"
     guidetolerance="10"
     inkscape:pageopacity="0"
     inkscape:pageshadow="2"
     inkscape:window-width="783"
     inkscape:window-height="480"
     id="namedview22"
     showgrid="false"
     inkscape:zoom="4.9166667"
     inkscape:cx="24"
     inkscape:cy="24"
     inkscape:window-x="0"
     inkscape:window-y="28"
     inkscape:window-maximized="0"
     inkscape:current-layer="svg20" />
  <path
     style="fill:#4c566a;fill-opacity:1"
     d="M 12.900391 4 L 12.900391 44 L 38 44 C 39.108 44 40 43.108 40 42 L 40 6 C 40 4.892 39.108 4 38 4 L 12.900391 4 z"
     id="path2" />
  <path
     style="opacity:0.1"
     d="M 13 4 L 13 17 L 40 17 L 40 6 C 40 4.892 39.108 4 38 4 L 13 4 z"
     id="path4" />
  <path
     style="opacity:0.1"
     d="M 15,7 V 9 H 17 V 7 Z M 19,7 V 9 H 24 V 7 Z M 26,7 V 9 H 32 V 7 Z M 33,10 V 11 H 38 V 10 Z M 15,12 V 14 H 20 V 12 Z M 22,12 V 14 H 30 V 12 Z M 15,21 V 23 H 19 V 21 Z M 21,21 V 23 H 23 V 21 Z M 25,21 V 23 H 30 V 21 Z M 35,22 V 24 H 33 V 25 H 35 V 27 H 36 V 25 H 38 V 24 H 36 V 22 Z M 15,26 V 28 H 17 V 26 Z M 19,26 V 28 H 21 V 26 Z M 23,26 V 28 H 26 V 26 Z M 15,36 V 38 H 21 V 36 Z M 23,36 V 38 H 25 V 36 Z M 27,36 V 38 H 30 V 36 Z M 35,37 V 39 H 33 V 40 H 35 V 42 H 36 V 40 H 38 V 39 H 36 V 37 Z M 15,41 V 43 H 19 V 41 Z M 21,41 V 43 H 29 V 41 Z"
     id="path6" />
  <path
     style="fill:#fefefe;fill-opacity:1"
     d="M 15 6 L 15 8 L 17 8 L 17 6 L 15 6 z M 19 6 L 19 8 L 24 8 L 24 6 L 19 6 z M 26 6 L 26 8 L 32 8 L 32 6 L 26 6 z M 15 11 L 15 13 L 20 13 L 20 11 L 15 11 z M 22 11 L 22 13 L 30 13 L 30 11 L 22 11 z M 15 20 L 15 22 L 19 22 L 19 20 L 15 20 z M 21 20 L 21 22 L 23 22 L 23 20 L 21 20 z M 25 20 L 25 22 L 30 22 L 30 20 L 25 20 z M 15 25 L 15 27 L 17 27 L 17 25 L 15 25 z M 19 25 L 19 27 L 21 27 L 21 25 L 19 25 z M 23 25 L 23 27 L 26 27 L 26 25 L 23 25 z M 15 35 L 15 37 L 21 37 L 21 35 L 15 35 z M 23 35 L 23 37 L 25 37 L 25 35 L 23 35 z M 27 35 L 27 37 L 30 37 L 30 35 L 27 35 z M 15 40 L 15 42 L 19 42 L 19 40 L 15 40 z M 21 40 L 21 42 L 29 42 L 29 40 L 21 40 z"
     id="path8" />
  <path
     opacity=".2"
     d="m8 42v1c0 1.108 0.892 2 2 2h28c1.108 0 2-0.892 2-2v-1c0 1.108-0.892 2-2 2h-28c-1.108 0-2-0.892-2-2z"
     id="path10" />
  <path
     style="fill:#5f697d;fill-opacity:1"
     d="M 10 4 C 8.892 4 8 4.892 8 6 L 8 42 C 8 43.108 8.892 44 10 44 L 13 44 L 13 4 L 10 4 z"
     id="path12" />
  <rect
     style="fill:#ffffff;fill-opacity:1"
     width="5"
     height="1"
     x="33"
     y="9"
     id="rect14" />
  <path
     style="fill:#ffffff;fill-opacity:1"
     d="M 35 21 L 35 23 L 33 23 L 33 24 L 35 24 L 35 26 L 36 26 L 36 24 L 38 24 L 38 23 L 36 23 L 36 21 L 35 21 z M 35 36 L 35 38 L 33 38 L 33 39 L 35 39 L 35 41 L 36 41 L 36 39 L 38 39 L 38 38 L 36 38 L 36 36 L 35 36 z"
     id="path16" />
  <path
     fill="#fff"
     opacity=".2"
     d="m10 4c-1.108 0-2 0.892-2 2v1c0-1.108 0.892-2 2-2h28c1.108 0 2 0.892 2 2v-1c0-1.108-0.892-2-2-2z"
     id="path18" />
</svg>
