<?xml version="1.0" encoding="UTF-8" standalone="no"?>
<svg
   xmlns:dc="http://purl.org/dc/elements/1.1/"
   xmlns:cc="http://creativecommons.org/ns#"
   xmlns:rdf="http://www.w3.org/1999/02/22-rdf-syntax-ns#"
   xmlns:svg="http://www.w3.org/2000/svg"
   xmlns="http://www.w3.org/2000/svg"
   xmlns:sodipodi="http://sodipodi.sourceforge.net/DTD/sodipodi-0.dtd"
   xmlns:inkscape="http://www.inkscape.org/namespaces/inkscape"
   width="48"
   height="48"
   version="1"
   id="svg18"
   sodipodi:docname="financial-report.svg"
   inkscape:version="0.92.5 (2060ec1f9f, 2020-04-08)">
  <metadata
     id="metadata24">
    <rdf:RDF>
      <cc:Work
         rdf:about="">
        <dc:format>image/svg+xml</dc:format>
        <dc:type
           rdf:resource="http://purl.org/dc/dcmitype/StillImage" />
      </cc:Work>
    </rdf:RDF>
  </metadata>
  <defs
     id="defs22" />
  <sodipodi:namedview
     pagecolor="#ffffff"
     bordercolor="#666666"
     borderopacity="1"
     objecttolerance="10"
     gridtolerance="10"
     guidetolerance="10"
     inkscape:pageopacity="0"
     inkscape:pageshadow="2"
     inkscape:window-width="783"
     inkscape:window-height="480"
     id="namedview20"
     showgrid="false"
     inkscape:zoom="4.9166667"
     inkscape:cx="24"
     inkscape:cy="24"
     inkscape:window-x="0"
     inkscape:window-y="28"
     inkscape:window-maximized="0"
     inkscape:current-layer="svg18" />
  <circle
     style="opacity:0.2"
     cx="22"
     cy="26"
     r="18"
     id="circle2" />
  <circle
     style="fill:#4c566a;fill-opacity:1"
     cx="22"
     cy="25"
     r="18"
     id="circle4" />
  <path
     style="fill:#ffffff;opacity:0.1"
     d="M 22 7 A 18 18 0 0 0 4 25 A 18 18 0 0 0 4.0214844 25.585938 A 18 18 0 0 1 22 8 A 18 18 0 0 1 39.978516 25.414062 A 18 18 0 0 0 40 25 A 18 18 0 0 0 22 7 z"
     id="path6" />
  <path
     style="opacity:0.2"
     d="M 36.849243,39.743 22,24.893755 36.849243,10.044512 C 45.050254,18.24552 45.050251,31.54199 36.849243,39.743 Z"
     id="path8" />
  <path
     style="fill:#5f697d;fill-opacity:1"
     d="M 36.849243,38.743 22,23.893755 36.849243,9.044512 C 45.050254,17.24552 45.050251,30.54199 36.849243,38.743 Z"
     id="path10" />
  <path
     style="opacity:0.2"
     d="M 22,6 V 25 L 35.435545,11.564454 C 31.997224,8.1261293 27.246704,6 22,6 Z"
     id="path12" />
  <path
     style="fill:#ffffff;fill-opacity:1"
     d="M 22,5 V 24 L 35.435545,10.564454 C 31.997224,7.1261293 27.246704,5 22,5 Z"
     id="path14" />
  <path
     style="fill:#ffffff;opacity:0.1"
     d="M 22 5 L 22 6 C 26.992136 6 31.521286 7.9393711 34.912109 11.087891 L 35.435547 10.564453 C 31.997226 7.1261284 27.246704 5 22 5 z"
     id="path16" />
</svg>
