<svg xmlns="http://www.w3.org/2000/svg" width="18" height="18" version="1.1">
 <defs>
  <style id="current-color-scheme" type="text/css">
   .ColorScheme-Text { color:#ffffff; } .ColorScheme-Highlight { color:#e8d0a3; } .ColorScheme-NeutralText { color:#f6eddc; } .ColorScheme-PositiveText { color:#f0e1c4; } .ColorScheme-NegativeText { color:#dfbd7e; }
  </style>
 </defs>
 <path style="opacity:.35;fill:currentColor" class="ColorScheme-Text" d="M 10,9 A 5,5 0 0 1 5,14 5,5 0 0 1 0,9 5,5 0 0 1 5,4 5,5 0 0 1 10,9 Z"/>
 <path style="opacity:0.7;fill:currentColor" class="ColorScheme-Text" d="M 5,4 A 5,5 0 0 0 0,9 5,5 0 0 0 5,14 5,5 0 0 0 10,9 5,5 0 0 0 5,4 Z M 5,5 A 4,4 0 0 1 9,9 4,4 0 0 1 5,13 4,4 0 0 1 1,9 4,4 0 0 1 5,5 Z"/>
 <path style="fill:currentColor" class="ColorScheme-Text" d="M 4,0 H 6 V 18 H 4 Z"/>
</svg>
