<?xml version="1.0" encoding="UTF-8" standalone="no"?>
<svg
   xmlns:dc="http://purl.org/dc/elements/1.1/"
   xmlns:cc="http://creativecommons.org/ns#"
   xmlns:rdf="http://www.w3.org/1999/02/22-rdf-syntax-ns#"
   xmlns:svg="http://www.w3.org/2000/svg"
   xmlns="http://www.w3.org/2000/svg"
   xmlns:sodipodi="http://sodipodi.sourceforge.net/DTD/sodipodi-0.dtd"
   xmlns:inkscape="http://www.inkscape.org/namespaces/inkscape"
   width="24"
   height="24"
   version="1"
   id="svg16"
   sodipodi:docname="gnome-dev-battery.svg"
   inkscape:version="0.92.5 (2060ec1f9f, 2020-04-08)">
  <metadata
     id="metadata22">
    <rdf:RDF>
      <cc:Work
         rdf:about="">
        <dc:format>image/svg+xml</dc:format>
        <dc:type
           rdf:resource="http://purl.org/dc/dcmitype/StillImage" />
      </cc:Work>
    </rdf:RDF>
  </metadata>
  <defs
     id="defs20" />
  <sodipodi:namedview
     pagecolor="#ffffff"
     bordercolor="#666666"
     borderopacity="1"
     objecttolerance="10"
     gridtolerance="10"
     guidetolerance="10"
     inkscape:pageopacity="0"
     inkscape:pageshadow="2"
     inkscape:window-width="783"
     inkscape:window-height="480"
     id="namedview18"
     showgrid="false"
     inkscape:zoom="9.8333333"
     inkscape:cx="13.016949"
     inkscape:cy="12"
     inkscape:current-layer="svg16"
     inkscape:window-x="0"
     inkscape:window-y="28"
     inkscape:window-maximized="0" />
  <rect
     style="opacity:0.2"
     width="16"
     height="18"
     x="4"
     y="4.5"
     rx="1"
     ry="1"
     id="rect2" />
  <rect
     style="fill:#4c566a;fill-opacity:1"
     width="16"
     height="18"
     x="4"
     y="4"
     rx="1"
     ry="1"
     id="rect4" />
  <rect
     style="fill:#4c566a;fill-opacity:1"
     width="10"
     height="2"
     x="7"
     y="2"
     id="rect6" />
  <path
     style="opacity:0.2"
     d="m 6,6.5 v 4 h 12 v -4 z m 0,5 v 4 h 12 v -4 z m 0,5 v 4 h 12 v -4 z"
     id="path8" />
  <path
     style="fill:#737d91;fill-opacity:1"
     d="M 6 6 L 6 10 L 18 10 L 18 6 L 6 6 z M 6 11 L 6 15 L 18 15 L 18 11 L 6 11 z M 6 16 L 6 20 L 18 20 L 18 16 L 6 16 z"
     id="path10" />
  <path
     style="opacity:0.2;fill:#ffffff"
     d="M 7,2 7,2.5 17,2.5 17,2 7,2 Z"
     id="path12" />
  <path
     style="fill:#ffffff;opacity:0.2"
     d="M 6 6 L 6 6.5 L 18 6.5 L 18 6 L 6 6 z M 6 11 L 6 11.5 L 18 11.5 L 18 11 L 6 11 z M 6 16 L 6 16.5 L 18 16.5 L 18 16 L 6 16 z"
     id="path14" />
</svg>
