<?xml version="1.0" encoding="UTF-8" standalone="no"?>
<svg
   xmlns:dc="http://purl.org/dc/elements/1.1/"
   xmlns:cc="http://creativecommons.org/ns#"
   xmlns:rdf="http://www.w3.org/1999/02/22-rdf-syntax-ns#"
   xmlns:svg="http://www.w3.org/2000/svg"
   xmlns="http://www.w3.org/2000/svg"
   xmlns:sodipodi="http://sodipodi.sourceforge.net/DTD/sodipodi-0.dtd"
   xmlns:inkscape="http://www.inkscape.org/namespaces/inkscape"
   width="24"
   height="24"
   version="1"
   id="svg12"
   sodipodi:docname="bluetooth.svg"
   inkscape:version="0.92.5 (2060ec1f9f, 2020-04-08)">
  <metadata
     id="metadata18">
    <rdf:RDF>
      <cc:Work
         rdf:about="">
        <dc:format>image/svg+xml</dc:format>
        <dc:type
           rdf:resource="http://purl.org/dc/dcmitype/StillImage" />
      </cc:Work>
    </rdf:RDF>
  </metadata>
  <defs
     id="defs16" />
  <sodipodi:namedview
     pagecolor="#ffffff"
     bordercolor="#666666"
     borderopacity="1"
     objecttolerance="10"
     gridtolerance="10"
     guidetolerance="10"
     inkscape:pageopacity="0"
     inkscape:pageshadow="2"
     inkscape:window-width="640"
     inkscape:window-height="480"
     id="namedview14"
     showgrid="false"
     inkscape:zoom="13.906434"
     inkscape:cx="9.5651276"
     inkscape:cy="8.8768801"
     inkscape:current-layer="g10" />
  <g
     transform="translate(1,1)"
     id="g10">
    <rect
       width="20"
       height="14"
       x="-21.101694"
       y="-17.970215"
       rx="7"
       ry="7"
       transform="matrix(0,-1,-1,0,0,0)"
       id="rect2"
       style="fill:#4c566a;fill-opacity:1" />
    <path
       fill="#fff"
       opacity=".1"
       d="m11 1c-3.878 0-7 3.122-7 7v0.5c0-3.878 3.122-7 7-7s7 3.122 7 7v-0.5c0-3.878-3.122-7-7-7z"
       id="path6" />
    <path
       opacity=".2"
       d="m4 14v0.5c0 3.878 3.122 7 7 7s7-3.122 7-7v-0.5c0 3.878-3.122 7-7 7s-7-3.122-7-7z"
       id="path8" />
    <path
       inkscape:connector-curvature="0"
       d="m 7.5460082,7.8490336 6.9999998,6.5000004 -3.2066,3.5 V 4.3490336 l 3.2066,3.5 -6.9999998,6.5000004"
       id="path4"
       style="fill:none;stroke:#a8b0c0;stroke-linecap:square;stroke-opacity:1" />
  </g>
</svg>
