<?xml version="1.0" encoding="UTF-8" standalone="no"?>
<svg
   xmlns:dc="http://purl.org/dc/elements/1.1/"
   xmlns:cc="http://creativecommons.org/ns#"
   xmlns:rdf="http://www.w3.org/1999/02/22-rdf-syntax-ns#"
   xmlns:svg="http://www.w3.org/2000/svg"
   xmlns="http://www.w3.org/2000/svg"
   xmlns:sodipodi="http://sodipodi.sourceforge.net/DTD/sodipodi-0.dtd"
   xmlns:inkscape="http://www.inkscape.org/namespaces/inkscape"
   width="24"
   height="24"
   version="1"
   id="svg20"
   sodipodi:docname="blueman-laptop.svg"
   inkscape:version="0.92.5 (2060ec1f9f, 2020-04-08)">
  <metadata
     id="metadata26">
    <rdf:RDF>
      <cc:Work
         rdf:about="">
        <dc:format>image/svg+xml</dc:format>
        <dc:type
           rdf:resource="http://purl.org/dc/dcmitype/StillImage" />
      </cc:Work>
    </rdf:RDF>
  </metadata>
  <defs
     id="defs24" />
  <sodipodi:namedview
     pagecolor="#ffffff"
     bordercolor="#666666"
     borderopacity="1"
     objecttolerance="10"
     gridtolerance="10"
     guidetolerance="10"
     inkscape:pageopacity="0"
     inkscape:pageshadow="2"
     inkscape:window-width="783"
     inkscape:window-height="480"
     id="namedview22"
     showgrid="false"
     inkscape:zoom="6.9532168"
     inkscape:cx="1.8364071"
     inkscape:cy="18.002532"
     inkscape:current-layer="svg20"
     inkscape:window-x="0"
     inkscape:window-y="28"
     inkscape:window-maximized="0" />
  <rect
     style="opacity:0.2"
     width="20"
     height="14"
     x="2"
     y="4.5"
     rx="1"
     ry="1"
     id="rect2" />
  <rect
     style="opacity:0.2"
     width="2"
     height="22"
     x="-20.5"
     y="-23"
     rx="1"
     ry="1"
     transform="matrix(0,-1,-1,0,0,0)"
     id="rect4" />
  <rect
     style="fill:#4c566a;fill-opacity:1"
     width="2"
     height="22"
     x="-20"
     y="-23"
     rx="1"
     ry="1"
     transform="matrix(0,-1,-1,0,0,0)"
     id="rect6" />
  <path
     style="fill:#4c566a;fill-opacity:1"
     d="M 3,4 C 2.446,4 2,4.446 2,5 V 6 H 22 V 5 C 22,4.446 21.554,4 21,4 Z"
     id="path8" />
  <path
     style="fill:#374155;fill-opacity:1"
     d="m 2,6 v 11 c 0,0.554 0.446,1 1,1 h 18 c 0.554,0 1,-0.446 1,-1 V 6 Z"
     id="path10" />
  <path
     style="opacity:0.1;fill:#ffffff"
     d="M 3,4 C 2.446,4 2,4.446 2,5 v 0.5 c 0,-0.554 0.446,-1 1,-1 h 18 c 0.554,0 1,0.446 1,1 V 5 C 22,4.446 21.554,4 21,4 Z"
     id="path12" />
  <path
     style="opacity:0.1;fill:#ffffff"
     d="m 2,18 c -0.554,0 -1,0.446 -1,1 0,0.08692 0.014506,0.169705 0.035156,0.25 C 1.1461319,18.818503 1.5329174,18.5 2,18.5 h 20 c 0.467082,0 0.853868,0.318503 0.964844,0.75 C 22.985495,19.169705 23,19.086917 23,19 23,18.446 22.554,18 22,18 Z"
     id="path14" />
  <rect
     style="opacity:0.2;fill:#1a1a1a"
     width="20"
     height=".5"
     x="2"
     y="6"
     id="rect16" />
  <circle
     style="fill:#333333"
     cx="12"
     cy="5"
     r=".5"
     id="circle18" />
</svg>
