<?xml version="1.0" encoding="UTF-8" standalone="no"?>
<svg
   xmlns:dc="http://purl.org/dc/elements/1.1/"
   xmlns:cc="http://creativecommons.org/ns#"
   xmlns:rdf="http://www.w3.org/1999/02/22-rdf-syntax-ns#"
   xmlns:svg="http://www.w3.org/2000/svg"
   xmlns="http://www.w3.org/2000/svg"
   xmlns:sodipodi="http://sodipodi.sourceforge.net/DTD/sodipodi-0.dtd"
   xmlns:inkscape="http://www.inkscape.org/namespaces/inkscape"
   width="24"
   height="24"
   version="1"
   id="svg22"
   sodipodi:docname="drive-harddisk-ieee1394.svg"
   inkscape:version="0.92.5 (2060ec1f9f, 2020-04-08)">
  <metadata
     id="metadata28">
    <rdf:RDF>
      <cc:Work
         rdf:about="">
        <dc:format>image/svg+xml</dc:format>
        <dc:type
           rdf:resource="http://purl.org/dc/dcmitype/StillImage" />
      </cc:Work>
    </rdf:RDF>
  </metadata>
  <defs
     id="defs26" />
  <sodipodi:namedview
     pagecolor="#ffffff"
     bordercolor="#666666"
     borderopacity="1"
     objecttolerance="10"
     gridtolerance="10"
     guidetolerance="10"
     inkscape:pageopacity="0"
     inkscape:pageshadow="2"
     inkscape:window-width="640"
     inkscape:window-height="480"
     id="namedview24"
     showgrid="false"
     inkscape:zoom="9.8333333"
     inkscape:cx="-7.8305085"
     inkscape:cy="12"
     inkscape:current-layer="svg22" />
  <rect
     style="opacity:0.2"
     width="20"
     height="16"
     x="-22.5"
     y="-20"
     rx="1"
     ry="1"
     transform="matrix(0,-1,-1,0,0,0)"
     id="rect2" />
  <rect
     style="fill:#4c566a;fill-opacity:1"
     width="20"
     height="16"
     x="-22"
     y="-20"
     rx="1"
     ry="1"
     transform="matrix(0,-1,-1,0,0,0)"
     id="rect4" />
  <path
     style="opacity:0.2;fill:#ffffff"
     d="M 5,2 C 4.446,2 4,2.446 4,3 V 3.5 C 4,2.946 4.446,2.5 5,2.5 H 19 C 19.554,2.5 20,2.946 20,3.5 V 3 C 20,2.446 19.554,2 19,2 Z"
     id="path6" />
  <g
     style="opacity:0.5;fill:#9ea2aa;fill-opacity:0.78431374"
     id="g20">
    <rect
       width="4"
       height="1"
       x="10"
       y="16"
       id="rect8"
       style="fill:#9ea2aa;fill-opacity:0.78431374" />
    <rect
       width="4"
       height="1"
       x="10"
       y="18"
       id="rect10"
       style="fill:#9ea2aa;fill-opacity:0.78431374" />
    <path
       d="M 12,9 A 3,3 0 0 0 9,12 3,3 0 0 0 12,15 3,3 0 0 0 15,12 3,3 0 0 0 12,9 Z M 12,10 A 2,2 0 0 1 14,12 2,2 0 0 1 12,14 2,2 0 0 1 10,12 2,2 0 0 1 12,10 Z"
       id="path12"
       style="fill:#9ea2aa;fill-opacity:0.78431374" />
    <rect
       width="4"
       height="1"
       x="-2"
       y="-13"
       transform="rotate(135)"
       id="rect14"
       style="fill:#9ea2aa;fill-opacity:0.78431374" />
    <rect
       width="4"
       height="1"
       x="-2"
       y="-11"
       transform="rotate(135)"
       id="rect16"
       style="fill:#9ea2aa;fill-opacity:0.78431374" />
    <rect
       width="4"
       height="3"
       x="-19"
       y="4"
       transform="rotate(-135)"
       id="rect18"
       style="fill:#9ea2aa;fill-opacity:0.78431374" />
  </g>
</svg>
