<?xml version="1.0" encoding="UTF-8" standalone="no"?>
<svg
   xmlns:dc="http://purl.org/dc/elements/1.1/"
   xmlns:cc="http://creativecommons.org/ns#"
   xmlns:rdf="http://www.w3.org/1999/02/22-rdf-syntax-ns#"
   xmlns:svg="http://www.w3.org/2000/svg"
   xmlns="http://www.w3.org/2000/svg"
   xmlns:sodipodi="http://sodipodi.sourceforge.net/DTD/sodipodi-0.dtd"
   xmlns:inkscape="http://www.inkscape.org/namespaces/inkscape"
   width="24"
   height="24"
   version="1"
   id="svg34"
   sodipodi:docname="drive-multidisk.svg"
   inkscape:version="0.92.5 (2060ec1f9f, 2020-04-08)">
  <metadata
     id="metadata40">
    <rdf:RDF>
      <cc:Work
         rdf:about="">
        <dc:format>image/svg+xml</dc:format>
        <dc:type
           rdf:resource="http://purl.org/dc/dcmitype/StillImage" />
      </cc:Work>
    </rdf:RDF>
  </metadata>
  <defs
     id="defs38" />
  <sodipodi:namedview
     pagecolor="#ffffff"
     bordercolor="#666666"
     borderopacity="1"
     objecttolerance="10"
     gridtolerance="10"
     guidetolerance="10"
     inkscape:pageopacity="0"
     inkscape:pageshadow="2"
     inkscape:window-width="640"
     inkscape:window-height="480"
     id="namedview36"
     showgrid="false"
     inkscape:zoom="9.8333333"
     inkscape:cx="0.30508475"
     inkscape:cy="12"
     inkscape:current-layer="g32" />
  <g
     id="g16">
    <rect
       style="fill:#4f4f4f"
       width="2"
       height="1"
       x="18"
       y="11"
       id="rect2" />
    <rect
       style="fill:#4f4f4f"
       width="2"
       height="1"
       x="4"
       y="11"
       id="rect4" />
    <rect
       style="opacity:0.2"
       width="7"
       height="20"
       x="-11.5"
       y="-22"
       rx="1.5"
       ry="1.5"
       transform="matrix(0,-1,-1,0,0,0)"
       id="rect6" />
    <rect
       style="fill:#4c566a;fill-opacity:1"
       width="7"
       height="20"
       x="-11"
       y="-22"
       rx="1.5"
       ry="1.5"
       transform="matrix(0,-1,-1,0,0,0)"
       id="rect8" />
    <circle
       style="opacity:0.2"
       cx="18"
       cy="8"
       r="1"
       id="circle10" />
    <circle
       style="fill:#a3be8c;fill-opacity:1"
       cx="18"
       cy="7.5"
       r="1"
       id="circle12" />
    <path
       style="opacity:0.1;fill:#ffffff"
       d="M 3.5,4 C 2.669,4 2,4.669 2,5.5 V 6 C 2,5.169 2.669,4.5 3.5,4.5 H 20.5 C 21.331,4.5 22,5.169 22,6 V 5.5 C 22,4.669 21.331,4 20.5,4 Z"
       id="path14" />
  </g>
  <g
     id="g32"
     style="opacity:1">
    <rect
       style="fill:#4f4f4f"
       width="2"
       height="1"
       x="18"
       y="19"
       id="rect18" />
    <rect
       style="fill:#4f4f4f"
       width="2"
       height="1"
       x="4"
       y="19"
       id="rect20" />
    <rect
       style="opacity:0.2"
       width="7"
       height="20"
       x="-19.5"
       y="-22"
       rx="1.5"
       ry="1.5"
       transform="matrix(0,-1,-1,0,0,0)"
       id="rect22" />
    <rect
       style="fill:#4c566a;fill-opacity:1"
       width="7"
       height="20"
       x="-19"
       y="-22"
       rx="1.5"
       ry="1.5"
       transform="matrix(0,-1,-1,0,0,0)"
       id="rect24" />
    <circle
       style="opacity:0.2"
       cx="18"
       cy="16"
       r="1"
       id="circle26" />
    <circle
       style="fill:#a3be8c;fill-opacity:1"
       cx="18"
       cy="15.5"
       r="1"
       id="circle28" />
    <path
       style="opacity:0.1;fill:#ffffff"
       d="M 3.5,12 C 2.669,12 2,12.669 2,13.5 V 14 C 2,13.169 2.669,12.5 3.5,12.5 H 20.5 C 21.331,12.5 22,13.169 22,14 V 13.5 C 22,12.669 21.331,12 20.5,12 Z"
       id="path30" />
  </g>
</svg>
