<?xml version="1.0" encoding="UTF-8" standalone="no"?>
<svg
   xmlns:dc="http://purl.org/dc/elements/1.1/"
   xmlns:cc="http://creativecommons.org/ns#"
   xmlns:rdf="http://www.w3.org/1999/02/22-rdf-syntax-ns#"
   xmlns:svg="http://www.w3.org/2000/svg"
   xmlns="http://www.w3.org/2000/svg"
   xmlns:sodipodi="http://sodipodi.sourceforge.net/DTD/sodipodi-0.dtd"
   xmlns:inkscape="http://www.inkscape.org/namespaces/inkscape"
   width="24"
   height="24"
   version="1"
   id="svg22"
   sodipodi:docname="input-touchpad.svg"
   inkscape:version="0.92.5 (2060ec1f9f, 2020-04-08)">
  <metadata
     id="metadata28">
    <rdf:RDF>
      <cc:Work
         rdf:about="">
        <dc:format>image/svg+xml</dc:format>
        <dc:type
           rdf:resource="http://purl.org/dc/dcmitype/StillImage" />
      </cc:Work>
    </rdf:RDF>
  </metadata>
  <defs
     id="defs26" />
  <sodipodi:namedview
     pagecolor="#ffffff"
     bordercolor="#666666"
     borderopacity="1"
     objecttolerance="10"
     gridtolerance="10"
     guidetolerance="10"
     inkscape:pageopacity="0"
     inkscape:pageshadow="2"
     inkscape:window-width="640"
     inkscape:window-height="480"
     id="namedview24"
     showgrid="false"
     inkscape:zoom="19.666667"
     inkscape:cx="-7.8305085"
     inkscape:cy="12"
     inkscape:current-layer="g18" />
  <rect
     style="opacity:0.2"
     width="20"
     height="20"
     x="-22.5"
     y="-22"
     rx="1"
     ry="1"
     transform="matrix(0,-1,-1,0,0,0)"
     id="rect2" />
  <rect
     style="fill:#4c566a;fill-opacity:1"
     width="20"
     height="20"
     x="-22"
     y="-22"
     rx="1"
     ry="1"
     transform="matrix(0,-1,-1,0,0,0)"
     id="rect4" />
  <g
     style="opacity:0.40"
     id="g18">
    <rect
       width="8.9152546"
       height="5"
       x="3"
       y="16"
       rx="1.1144068"
       ry="1"
       id="rect6"
       style="stroke-width:1.05565464" />
    <rect
       width="8.423728"
       height="5"
       x="12.576272"
       y="16"
       rx="1.052966"
       ry="1"
       id="rect8"
       style="stroke-width:1.02614129" />
    <rect
       width="3"
       height="1"
       x="18"
       y="13"
       id="rect10" />
    <rect
       width="3"
       height="1"
       x="18"
       y="11"
       id="rect12" />
    <rect
       width="3"
       height="1"
       x="18"
       y="9"
       id="rect14" />
    <rect
       width="3"
       height="1"
       x="18"
       y="7"
       id="rect16" />
  </g>
  <path
     style="opacity:0.1;fill:#ffffff"
     d="M 3,2 C 2.446,2 2,2.446 2,3 V 3.5 C 2,2.946 2.446,2.5 3,2.5 H 21 C 21.554,2.5 22,2.946 22,3.5 V 3 C 22,2.446 21.554,2 21,2 Z"
     id="path20" />
</svg>
