<?xml version="1.0" encoding="UTF-8" standalone="no"?>
<svg
   xmlns:dc="http://purl.org/dc/elements/1.1/"
   xmlns:cc="http://creativecommons.org/ns#"
   xmlns:rdf="http://www.w3.org/1999/02/22-rdf-syntax-ns#"
   xmlns:svg="http://www.w3.org/2000/svg"
   xmlns="http://www.w3.org/2000/svg"
   xmlns:sodipodi="http://sodipodi.sourceforge.net/DTD/sodipodi-0.dtd"
   xmlns:inkscape="http://www.inkscape.org/namespaces/inkscape"
   width="24"
   height="24"
   version="1"
   id="svg26"
   sodipodi:docname="gnome-dev-media-cf.svg"
   inkscape:version="0.92.5 (2060ec1f9f, 2020-04-08)">
  <metadata
     id="metadata32">
    <rdf:RDF>
      <cc:Work
         rdf:about="">
        <dc:format>image/svg+xml</dc:format>
        <dc:type
           rdf:resource="http://purl.org/dc/dcmitype/StillImage" />
      </cc:Work>
    </rdf:RDF>
  </metadata>
  <defs
     id="defs30" />
  <sodipodi:namedview
     pagecolor="#ffffff"
     bordercolor="#666666"
     borderopacity="1"
     objecttolerance="10"
     gridtolerance="10"
     guidetolerance="10"
     inkscape:pageopacity="0"
     inkscape:pageshadow="2"
     inkscape:window-width="783"
     inkscape:window-height="480"
     id="namedview28"
     showgrid="false"
     inkscape:zoom="9.8333333"
     inkscape:cx="11.352729"
     inkscape:cy="18.781569"
     inkscape:current-layer="svg26"
     inkscape:window-x="0"
     inkscape:window-y="28"
     inkscape:window-maximized="0" />
  <path
     style="opacity:0.2"
     d="M 7,2.5 4,5.5 V 21.5 C 4,22.054 4.446,22.5 5,22.5 H 19 C 19.554,22.5 20,22.054 20,21.5 V 3.5 C 20,2.946 19.554,2.5 19,2.5 Z"
     id="path2" />
  <path
     style="fill:#4c566a;fill-opacity:1"
     d="M 7,2 4,5 V 21 C 4,21.554 4.446,22 5,22 H 19 C 19.554,22 20,21.554 20,21 V 3 C 20,2.446 19.554,2 19,2 Z"
     id="path4" />
  <rect
     style="opacity:0.4"
     width="12"
     height="8"
     x="6"
     y="-19"
     rx="1"
     ry="1"
     transform="scale(1,-1)"
     id="rect6" />
  <g
     style="fill:#fffefd;fill-opacity:1"
     id="g22">
    <rect
       width="1"
       height="3"
       x="10"
       y="4"
       id="rect8"
       style="fill:#fffefd;fill-opacity:1" />
    <rect
       width="1"
       height="3"
       x="12"
       y="4"
       id="rect10"
       style="fill:#fffefd;fill-opacity:1" />
    <rect
       width="1"
       height="3"
       x="14"
       y="4"
       id="rect12"
       style="fill:#fffefd;fill-opacity:1" />
    <rect
       width="1"
       height="3"
       x="16"
       y="4"
       id="rect14"
       style="fill:#fffefd;fill-opacity:1" />
    <rect
       width="1"
       height="3"
       x="18"
       y="4"
       id="rect16"
       style="fill:#fffefd;fill-opacity:1" />
    <rect
       width="1"
       height="2"
       x="6"
       y="5"
       id="rect18"
       style="fill:#fffefd;fill-opacity:1" />
    <rect
       width="1"
       height="3"
       x="8"
       y="4"
       id="rect20"
       style="fill:#fffefd;fill-opacity:1" />
  </g>
  <path
     style="opacity:0.1;fill:#ffffff"
     d="M 7,2 4,5 V 5.5 L 7,2.5 H 19 C 19.554,2.5 20,2.946 20,3.5 V 3 C 20,2.446 19.554,2 19,2 Z"
     id="path24" />
</svg>
