<?xml version="1.0" encoding="UTF-8" standalone="no"?>
<svg
   xmlns:dc="http://purl.org/dc/elements/1.1/"
   xmlns:cc="http://creativecommons.org/ns#"
   xmlns:rdf="http://www.w3.org/1999/02/22-rdf-syntax-ns#"
   xmlns:svg="http://www.w3.org/2000/svg"
   xmlns="http://www.w3.org/2000/svg"
   xmlns:sodipodi="http://sodipodi.sourceforge.net/DTD/sodipodi-0.dtd"
   xmlns:inkscape="http://www.inkscape.org/namespaces/inkscape"
   width="24"
   height="24"
   version="1"
   id="svg22"
   sodipodi:docname="network-modem.svg"
   inkscape:version="0.92.5 (2060ec1f9f, 2020-04-08)">
  <metadata
     id="metadata28">
    <rdf:RDF>
      <cc:Work
         rdf:about="">
        <dc:format>image/svg+xml</dc:format>
        <dc:type
           rdf:resource="http://purl.org/dc/dcmitype/StillImage" />
      </cc:Work>
    </rdf:RDF>
  </metadata>
  <defs
     id="defs26" />
  <sodipodi:namedview
     pagecolor="#ffffff"
     bordercolor="#666666"
     borderopacity="1"
     objecttolerance="10"
     gridtolerance="10"
     guidetolerance="10"
     inkscape:pageopacity="0"
     inkscape:pageshadow="2"
     inkscape:window-width="783"
     inkscape:window-height="480"
     id="namedview24"
     showgrid="false"
     inkscape:zoom="9.8333333"
     inkscape:cx="12.152542"
     inkscape:cy="12"
     inkscape:current-layer="g20"
     inkscape:window-x="0"
     inkscape:window-y="28"
     inkscape:window-maximized="0" />
  <g
     transform="scale(0.5,0.5)"
     id="g20">
    <rect
       style="opacity:0.2"
       width="40"
       height="20"
       x="4"
       y="25"
       rx="3"
       ry="3"
       id="rect2" />
    <rect
       style="fill:#8e8e8e"
       width="24"
       height="4"
       x="4"
       y="-14"
       ry="2"
       transform="matrix(0,1,-1,0,0,0)"
       id="rect4" />
    <rect
       style="fill:#4c566a;fill-opacity:1"
       width="40"
       height="20"
       x="4"
       y="24"
       rx="3"
       ry="3"
       id="rect6" />
    <circle
       style="opacity:0.2"
       cx="36"
       cy="35"
       r="4"
       id="circle8" />
    <circle
       style="fill:#ffffff;fill-opacity:1"
       cx="36"
       cy="34"
       r="4"
       id="circle10" />
    <circle
       style="opacity:0.2"
       cx="24"
       cy="35"
       r="4"
       id="circle12" />
    <circle
       style="fill:#ffffff;fill-opacity:1"
       cx="24"
       cy="34"
       r="4"
       id="circle14" />
    <path
       style="opacity:0.1;fill:#ffffff"
       d="m 7,24 c -1.662,0 -3,1.338 -3,3 l 0,1 c 0,-1.662 1.338,-3 3,-3 l 34,0 c 1.662,0 3,1.338 3,3 l 0,-1 c 0,-1.662 -1.338,-3 -3,-3 L 7,24 Z"
       id="path16" />
    <path
       style="opacity:0.1;fill:#ffffff"
       d="m 12,4 c -1.108,0 -2,0.892 -2,2 l 0,1 c 0,-1.108 0.892,-2 2,-2 1.108,0 2,0.892 2,2 L 14,6 C 14,4.892 13.108,4 12,4 Z"
       id="path18" />
  </g>
</svg>
