<?xml version="1.0" encoding="UTF-8" standalone="no"?>
<svg
   xmlns:dc="http://purl.org/dc/elements/1.1/"
   xmlns:cc="http://creativecommons.org/ns#"
   xmlns:rdf="http://www.w3.org/1999/02/22-rdf-syntax-ns#"
   xmlns:svg="http://www.w3.org/2000/svg"
   xmlns="http://www.w3.org/2000/svg"
   xmlns:sodipodi="http://sodipodi.sourceforge.net/DTD/sodipodi-0.dtd"
   xmlns:inkscape="http://www.inkscape.org/namespaces/inkscape"
   width="24"
   height="24"
   version="1"
   id="svg20"
   sodipodi:docname="tvm-dev-pocketpc.svg"
   inkscape:version="0.92.5 (2060ec1f9f, 2020-04-08)">
  <metadata
     id="metadata26">
    <rdf:RDF>
      <cc:Work
         rdf:about="">
        <dc:format>image/svg+xml</dc:format>
        <dc:type
           rdf:resource="http://purl.org/dc/dcmitype/StillImage" />
      </cc:Work>
    </rdf:RDF>
  </metadata>
  <defs
     id="defs24" />
  <sodipodi:namedview
     pagecolor="#ffffff"
     bordercolor="#666666"
     borderopacity="1"
     objecttolerance="10"
     gridtolerance="10"
     guidetolerance="10"
     inkscape:pageopacity="0"
     inkscape:pageshadow="2"
     inkscape:window-width="783"
     inkscape:window-height="480"
     id="namedview22"
     showgrid="false"
     inkscape:zoom="13.906433"
     inkscape:cx="12.137906"
     inkscape:cy="9.5156396"
     inkscape:current-layer="svg20"
     inkscape:window-x="0"
     inkscape:window-y="28"
     inkscape:window-maximized="0" />
  <rect
     style="opacity:0.2"
     width="16"
     height="16"
     x="-22.5"
     y="-20"
     rx="4"
     ry="5"
     transform="matrix(0,-1,-1,0,0,0)"
     id="rect2" />
  <rect
     style="fill:#4c566a;fill-opacity:1"
     width="16"
     height="16"
     x="-18"
     y="-20"
     rx="1.5"
     ry="1.5"
     transform="matrix(0,-1,-1,0,0,0)"
     id="rect4" />
  <rect
     style="fill:#4c566a;fill-opacity:1"
     width="16"
     height="16"
     x="-22"
     y="-20"
     rx="4"
     ry="5"
     transform="matrix(0,-1,-1,0,0,0)"
     id="rect6" />
  <rect
     style="fill:#374155;fill-opacity:1"
     width="12"
     height="13"
     x="6"
     y="4"
     rx=".5"
     ry=".5"
     id="rect8" />
  <circle
     style="fill:#ffffff;fill-opacity:0.78431374"
     cx="8"
     cy="19"
     r="1"
     id="circle10" />
  <circle
     style="fill:#ffffff;fill-opacity:0.78431374"
     cx="17"
     cy="19"
     r="1"
     id="circle12" />
  <rect
     style="fill:#4d4d4d"
     width="1"
     height="1"
     x="15"
     y="2"
     id="rect14" />
  <circle
     style="fill:#ffffff;fill-opacity:0.78431374"
     cx="12.5"
     cy="19.5"
     r="1.5"
     id="circle16" />
  <path
     style="opacity:0.1;fill:#ffffff"
     d="M 5.5,2 C 4.669,2 4,2.669 4,3.5 V 4 C 4,3.169 4.669,2.5 5.5,2.5 H 18.5 C 19.331,2.5 20,3.169 20,4 V 3.5 C 20,2.669 19.331,2 18.5,2 Z"
     id="path18" />
</svg>
