<?xml version="1.0" encoding="UTF-8" standalone="no"?>
<svg
   xmlns:dc="http://purl.org/dc/elements/1.1/"
   xmlns:cc="http://creativecommons.org/ns#"
   xmlns:rdf="http://www.w3.org/1999/02/22-rdf-syntax-ns#"
   xmlns:svg="http://www.w3.org/2000/svg"
   xmlns="http://www.w3.org/2000/svg"
   xmlns:sodipodi="http://sodipodi.sourceforge.net/DTD/sodipodi-0.dtd"
   xmlns:inkscape="http://www.inkscape.org/namespaces/inkscape"
   width="24"
   height="24"
   version="1"
   id="svg12"
   sodipodi:docname="blueman-cellular.svg"
   inkscape:version="0.92.5 (2060ec1f9f, 2020-04-08)">
  <metadata
     id="metadata18">
    <rdf:RDF>
      <cc:Work
         rdf:about="">
        <dc:format>image/svg+xml</dc:format>
        <dc:type
           rdf:resource="http://purl.org/dc/dcmitype/StillImage" />
      </cc:Work>
    </rdf:RDF>
  </metadata>
  <defs
     id="defs16" />
  <sodipodi:namedview
     pagecolor="#ffffff"
     bordercolor="#666666"
     borderopacity="1"
     objecttolerance="10"
     gridtolerance="10"
     guidetolerance="10"
     inkscape:pageopacity="0"
     inkscape:pageshadow="2"
     inkscape:window-width="783"
     inkscape:window-height="480"
     id="namedview14"
     showgrid="false"
     inkscape:zoom="13.906433"
     inkscape:cx="8.2277313"
     inkscape:cy="10.058966"
     inkscape:current-layer="svg12"
     inkscape:window-x="0"
     inkscape:window-y="28"
     inkscape:window-maximized="0" />
  <rect
     style="opacity:0.2"
     width="14"
     height="20"
     x="5"
     y="2.5"
     rx="1"
     ry="1"
     id="rect2" />
  <path
     style="fill:#4c566a;fill-opacity:1"
     d="M 6 2 C 5.446 2 5 2.446 5 3 L 5 4 L 19 4 L 19 3 C 19 2.446 18.554 2 18 2 L 6 2 z M 5 18 L 5 21 C 5 21.554 5.446 22 6 22 L 18 22 C 18.554 22 19 21.554 19 21 L 19 18 L 5 18 z"
     id="path4" />
  <rect
     style="fill:#374155;fill-opacity:1"
     width="14"
     height="14"
     x="5"
     y="4"
     id="rect6" />
  <path
     style="fill:#ffffff;opacity:0.1"
     d="M 6 2 C 5.446 2 5 2.446 5 3 L 5 3.5 C 5 2.946 5.446 2.5 6 2.5 L 18 2.5 C 18.554 2.5 19 2.946 19 3.5 L 19 3 C 19 2.446 18.554 2 18 2 L 6 2 z"
     id="path8" />
  <path
     style="fill:#333333"
     d="M 7.4746094 19 C 7.209695 19.013342 7 19.231656 7 19.5 C 7 19.777 7.223 20 7.5 20 L 8.5 20 C 8.777 20 9 19.777 9 19.5 C 9 19.223 8.777 19 8.5 19 L 7.5 19 C 7.4913438 19 7.483155 18.99957 7.4746094 19 z M 11.5 19 C 11.223 19 11 19.223 11 19.5 L 11 20.5 C 11 20.777 11.223 21 11.5 21 L 12.5 21 C 12.777 21 13 20.777 13 20.5 L 13 19.5 C 13 19.223 12.777 19 12.5 19 L 11.5 19 z M 15.474609 19 C 15.209695 19.013342 15 19.231656 15 19.5 C 15 19.777 15.223 20 15.5 20 L 16.5 20 C 16.777 20 17 19.777 17 19.5 C 17 19.223 16.777 19 16.5 19 L 15.5 19 C 15.491344 19 15.483155 18.99957 15.474609 19 z"
     id="path10" />
</svg>
