<?xml version="1.0" encoding="UTF-8" standalone="no"?>
<svg
   xmlns:dc="http://purl.org/dc/elements/1.1/"
   xmlns:cc="http://creativecommons.org/ns#"
   xmlns:rdf="http://www.w3.org/1999/02/22-rdf-syntax-ns#"
   xmlns:svg="http://www.w3.org/2000/svg"
   xmlns="http://www.w3.org/2000/svg"
   xmlns:sodipodi="http://sodipodi.sourceforge.net/DTD/sodipodi-0.dtd"
   xmlns:inkscape="http://www.inkscape.org/namespaces/inkscape"
   width="24"
   height="24"
   version="1"
   id="svg18"
   sodipodi:docname="scanner.svg"
   inkscape:version="0.92.5 (2060ec1f9f, 2020-04-08)">
  <metadata
     id="metadata24">
    <rdf:RDF>
      <cc:Work
         rdf:about="">
        <dc:format>image/svg+xml</dc:format>
        <dc:type
           rdf:resource="http://purl.org/dc/dcmitype/StillImage" />
      </cc:Work>
    </rdf:RDF>
  </metadata>
  <defs
     id="defs22" />
  <sodipodi:namedview
     pagecolor="#ffffff"
     bordercolor="#666666"
     borderopacity="1"
     objecttolerance="10"
     gridtolerance="10"
     guidetolerance="10"
     inkscape:pageopacity="0"
     inkscape:pageshadow="2"
     inkscape:window-width="783"
     inkscape:window-height="480"
     id="namedview20"
     showgrid="false"
     inkscape:zoom="13.906433"
     inkscape:cx="19.405824"
     inkscape:cy="8.1221034"
     inkscape:current-layer="svg18"
     inkscape:window-x="0"
     inkscape:window-y="28"
     inkscape:window-maximized="0" />
  <rect
     style="opacity:0.2"
     width="20"
     height="16"
     x="-22.5"
     y="-20"
     rx="1"
     ry="1"
     transform="matrix(0,-1,-1,0,0,0)"
     id="rect2" />
  <rect
     style="fill:#5f697d;fill-opacity:1"
     width="20"
     height="16"
     x="-22"
     y="-20"
     rx="1"
     ry="1"
     transform="matrix(0,-1,-1,0,0,0)"
     id="rect4" />
  <rect
     style="fill:#4c566a;fill-opacity:1"
     width="16"
     height="12"
     x="-20"
     y="-18"
     rx="0"
     ry="0"
     transform="matrix(0,-1,-1,0,0,0)"
     id="rect6" />
  <path
     style="opacity:0.1;fill:#ffffff"
     d="M 5,2 C 4.446,2 4,2.446 4,3 l 0,0.5 c 0,-0.554 0.446,-1 1,-1 l 14,0 c 0.554,0 1,0.446 1,1 L 20,3 C 20,2.446 19.554,2 19,2 L 5,2 Z"
     id="path8" />
  <rect
     style="opacity:0.2"
     width="20"
     height="2"
     x="2"
     y="8.5"
     rx=".5"
     ry=".5"
     id="rect10" />
  <rect
     style="fill:#ffffff;fill-opacity:1"
     width="20"
     height="2"
     x="2"
     y="8"
     rx=".5"
     ry=".5"
     id="rect12" />
  <rect
     style="opacity:0.2"
     width=".5"
     height="12"
     x="-20.5"
     y="-18"
     rx="0"
     ry="0"
     transform="matrix(0,-1,-1,0,0,0)"
     id="rect14" />
  <rect
     style="opacity:0.2;fill:#ffffff"
     width=".5"
     height="12"
     x="-4.5"
     y="-18"
     rx="0"
     ry="0"
     transform="matrix(0,-1,-1,0,0,0)"
     id="rect16" />
</svg>
