<?xml version="1.0" encoding="UTF-8" standalone="no"?>
<svg
   xmlns:dc="http://purl.org/dc/elements/1.1/"
   xmlns:cc="http://creativecommons.org/ns#"
   xmlns:rdf="http://www.w3.org/1999/02/22-rdf-syntax-ns#"
   xmlns:svg="http://www.w3.org/2000/svg"
   xmlns="http://www.w3.org/2000/svg"
   xmlns:sodipodi="http://sodipodi.sourceforge.net/DTD/sodipodi-0.dtd"
   xmlns:inkscape="http://www.inkscape.org/namespaces/inkscape"
   width="24"
   height="24"
   version="1.1"
   id="svg18"
   sodipodi:docname="video-television.svg"
   inkscape:version="0.92.5 (2060ec1f9f, 2020-04-08)">
  <metadata
     id="metadata24">
    <rdf:RDF>
      <cc:Work
         rdf:about="">
        <dc:format>image/svg+xml</dc:format>
        <dc:type
           rdf:resource="http://purl.org/dc/dcmitype/StillImage" />
      </cc:Work>
    </rdf:RDF>
  </metadata>
  <defs
     id="defs22" />
  <sodipodi:namedview
     pagecolor="#ffffff"
     bordercolor="#666666"
     borderopacity="1"
     objecttolerance="10"
     gridtolerance="10"
     guidetolerance="10"
     inkscape:pageopacity="0"
     inkscape:pageshadow="2"
     inkscape:window-width="783"
     inkscape:window-height="480"
     id="namedview20"
     showgrid="false"
     inkscape:zoom="9.8333333"
     inkscape:cx="9.2361616"
     inkscape:cy="11.370115"
     inkscape:window-x="0"
     inkscape:window-y="28"
     inkscape:window-maximized="0"
     inkscape:current-layer="svg18" />
  <path
     style="opacity:0.2"
     d="M 4.5,17.5 C 4.223,17.5 4,17.723 4,18 v 2 c 0,0.277 0.223,0.5 0.5,0.5 h 1 C 5.777,20.5 6,20.277 6,20 V 18 C 6,17.723 5.777,17.5 5.5,17.5 Z m 14,0 C 18.223,17.5 18,17.723 18,18 v 2 c 0,0.277 0.223,0.5 0.5,0.5 h 1 c 0.277,0 0.5,-0.223 0.5,-0.5 v -2 c 0,-0.277 -0.223,-0.5 -0.5,-0.5 z"
     id="path2" />
  <rect
     style="fill:#8e8e8e"
     width="3"
     height="2"
     x="-20"
     y="-20"
     rx=".5"
     ry=".5"
     transform="matrix(0,-1,-1,0,0,0)"
     id="rect4" />
  <rect
     style="fill:#8e8e8e"
     width="3"
     height="2"
     x="-20"
     y="-6"
     rx=".5"
     ry=".5"
     transform="matrix(0,-1,-1,0,0,0)"
     id="rect6" />
  <rect
     style="opacity:0.2"
     width="15"
     height="20"
     x="-19.5"
     y="-22"
     rx="1"
     ry="1"
     transform="matrix(0,-1,-1,0,0,0)"
     id="rect8" />
  <path
     style="fill:#4c566a;fill-opacity:1"
     d="m 2,17 v 1 c 0,0.554 0.446,1 1,1 h 18 c 0.554,0 1,-0.446 1,-1 v -1 z"
     id="path10" />
  <path
     style="fill:#374155;fill-opacity:1"
     d="M 3,4 C 2.446,4 2,4.446 2,5 V 17 H 22 V 5 C 22,4.446 21.554,4 21,4 Z"
     id="path12" />
  <path
     style="opacity:0.1;fill:#ffffff"
     d="M 3,4 C 2.446,4 2,4.446 2,5 v 0.5 c 0,-0.554 0.446,-1 1,-1 h 18 c 0.554,0 1,0.446 1,1 V 5 C 22,4.446 21.554,4 21,4 Z"
     id="path14" />
  <rect
     style="opacity:0.1;fill:#ffffff"
     width="20"
     height=".5"
     x="2"
     y="17"
     id="rect16" />
</svg>
