<?xml version="1.0" encoding="UTF-8" standalone="no"?>
<svg
   xmlns:dc="http://purl.org/dc/elements/1.1/"
   xmlns:cc="http://creativecommons.org/ns#"
   xmlns:rdf="http://www.w3.org/1999/02/22-rdf-syntax-ns#"
   xmlns:svg="http://www.w3.org/2000/svg"
   xmlns="http://www.w3.org/2000/svg"
   xmlns:sodipodi="http://sodipodi.sourceforge.net/DTD/sodipodi-0.dtd"
   xmlns:inkscape="http://www.inkscape.org/namespaces/inkscape"
   width="48"
   height="48"
   version="1"
   id="svg16"
   sodipodi:docname="folder-grey-templates-open.svg"
   inkscape:version="0.92.5 (2060ec1f9f, 2020-04-08)">
  <metadata
     id="metadata22">
    <rdf:RDF>
      <cc:Work
         rdf:about="">
        <dc:format>image/svg+xml</dc:format>
        <dc:type
           rdf:resource="http://purl.org/dc/dcmitype/StillImage" />
      </cc:Work>
    </rdf:RDF>
  </metadata>
  <defs
     id="defs20" />
  <sodipodi:namedview
     pagecolor="#ffffff"
     bordercolor="#666666"
     borderopacity="1"
     objecttolerance="10"
     gridtolerance="10"
     guidetolerance="10"
     inkscape:pageopacity="0"
     inkscape:pageshadow="2"
     inkscape:window-width="640"
     inkscape:window-height="480"
     id="namedview18"
     showgrid="false"
     inkscape:zoom="4.9166667"
     inkscape:cx="-15.661017"
     inkscape:cy="24"
     inkscape:current-layer="svg16" />
  <rect
     style="opacity:0.2"
     width="40"
     height="26"
     x="4"
     y="17"
     rx="2"
     ry="2"
     id="rect2" />
  <path
     style="fill:#4c566a;fill-opacity:1"
     d="M 4,34 C 4,35.108 4.892,36 6,36 H 42 C 43.108,36 44,35.108 44,34 V 12 C 44,10.892 43.108,10 42,10 H 24 C 21,10 20,6 17,6 H 6 C 4.892,6 4,6.892 4,8"
     id="path4" />
  <rect
     style="opacity:0.2"
     width="40"
     height="22"
     x="4"
     y="19"
     rx="2"
     ry="2"
     id="rect6" />
  <rect
     style="fill:#9ea2aa;fill-opacity:0.78431374"
     width="36"
     height="16"
     x="6"
     y="13"
     rx="2"
     ry="2"
     id="rect8" />
  <rect
     style="fill:#4c566a;fill-opacity:1"
     width="40"
     height="22"
     x="4"
     y="20"
     rx="2"
     ry="2"
     id="rect10" />
  <path
     style="opacity:0.1;fill:#ffffff"
     d="M 6,6 C 4.892,6 4,6.892 4,8 V 9 C 4,7.892 4.892,7 6,7 H 17 C 20,7 21,11 24,11 H 42 C 43.108,11 44,11.892 44,13 V 12 C 44,10.892 43.108,10 42,10 H 24 C 21,10 20,6 17,6 Z"
     id="path12" />
  <path
     style="fill:#9ea2aa;fill-opacity:0.78431374"
     d="M 19,24 C 18.446,24 18,24.446 18,25 V 34 H 19 V 33 H 20 V 26 H 25 V 29 H 28 V 37 38 H 29 V 37 H 30 V 28 L 26,24 Z M 29,38 V 39 H 30 V 38 Z M 28,38 H 27 V 39 H 28 Z M 27,38 V 37 H 26 V 38 Z M 26,38 H 25 V 39 H 26 Z M 25,38 V 37 H 24 V 38 Z M 24,38 H 23 V 39 H 24 Z M 23,38 V 37 H 22 V 38 Z M 22,38 H 21 V 39 H 22 Z M 21,38 V 37 H 20 V 38 Z M 20,38 H 19 V 39 H 20 Z M 19,38 V 37 H 18 V 38 Z M 19,37 H 20 V 36 H 19 Z M 19,36 V 35 H 18 V 36 Z M 19,35 H 20 V 34 H 19 Z"
     id="path14" />
</svg>
