<?xml version="1.0" encoding="UTF-8" standalone="no"?>
<svg
   xmlns:dc="http://purl.org/dc/elements/1.1/"
   xmlns:cc="http://creativecommons.org/ns#"
   xmlns:rdf="http://www.w3.org/1999/02/22-rdf-syntax-ns#"
   xmlns:svg="http://www.w3.org/2000/svg"
   xmlns="http://www.w3.org/2000/svg"
   xmlns:sodipodi="http://sodipodi.sourceforge.net/DTD/sodipodi-0.dtd"
   xmlns:inkscape="http://www.inkscape.org/namespaces/inkscape"
   width="48"
   height="48"
   version="1"
   id="svg16"
   sodipodi:docname="user-trash-full.svg"
   inkscape:version="0.92.5 (2060ec1f9f, 2020-04-08)">
  <metadata
     id="metadata22">
    <rdf:RDF>
      <cc:Work
         rdf:about="">
        <dc:format>image/svg+xml</dc:format>
        <dc:type
           rdf:resource="http://purl.org/dc/dcmitype/StillImage" />
      </cc:Work>
    </rdf:RDF>
  </metadata>
  <defs
     id="defs20" />
  <sodipodi:namedview
     pagecolor="#ffffff"
     bordercolor="#666666"
     borderopacity="1"
     objecttolerance="10"
     gridtolerance="10"
     guidetolerance="10"
     inkscape:pageopacity="0"
     inkscape:pageshadow="2"
     inkscape:window-width="640"
     inkscape:window-height="480"
     id="namedview18"
     showgrid="false"
     inkscape:zoom="4.9166667"
     inkscape:cx="-15.661017"
     inkscape:cy="24"
     inkscape:current-layer="svg16" />
  <path
     style="opacity:0.2"
     d="M 11,10 H 37 C 39,10 42,21 42,27.5 42,34 40,45 37,45 H 11 C 8,45 6,34 6,27.5 6,21 9,10 11,10 Z"
     id="path2" />
  <path
     style="fill:#4c566a;fill-opacity:1"
     d="M 11,9 H 37 C 39,9 42,20 42,26.5 42,33 40,44 37,44 H 11 C 8,44 6,33 6,26.5 6,20 9,9 11,9 Z"
     id="path4" />
  <rect
     style="fill:#4c566a;fill-opacity:1"
     width="12"
     height="4"
     x="18"
     y="4"
     id="rect6" />
  <rect
     style="opacity:0.2"
     width="36"
     height="8"
     x="6"
     y="7"
     rx="2"
     ry="2"
     id="rect8" />
  <rect
     style="fill:#4c566a;fill-opacity:1"
     width="36"
     height="8"
     x="6"
     y="6"
     rx="2"
     ry="2"
     id="rect10" />
  <path
     style="opacity:0.3;fill:none;stroke:#000000;stroke-width:4;stroke-linecap:round"
     d="M 32,21 C 32,21 33,25 33,29 33,33 32,37 32,37 M 24,21 V 37 M 16,21 C 16,21 15,25 15,29 15,33 16,37 16,37"
     id="path12" />
  <path
     style="fill:#ffffff;opacity:0.2"
     d="M 8 6 C 6.892 6 6 6.892 6 8 L 6 9 C 6 7.892 6.892 7 8 7 L 40 7 C 41.108 7 42 7.892 42 9 L 42 8 C 42 6.892 41.108 6 40 6 L 8 6 z"
     id="path14" />
</svg>
