<?xml version="1.0" encoding="UTF-8" standalone="no"?>
<svg
   xmlns:dc="http://purl.org/dc/elements/1.1/"
   xmlns:cc="http://creativecommons.org/ns#"
   xmlns:rdf="http://www.w3.org/1999/02/22-rdf-syntax-ns#"
   xmlns:svg="http://www.w3.org/2000/svg"
   xmlns="http://www.w3.org/2000/svg"
   xmlns:sodipodi="http://sodipodi.sourceforge.net/DTD/sodipodi-0.dtd"
   xmlns:inkscape="http://www.inkscape.org/namespaces/inkscape"
   width="48"
   height="48"
   version="1"
   id="svg48"
   sodipodi:docname="home.svg"
   inkscape:version="0.92.5 (2060ec1f9f, 2020-04-08)">
  <metadata
     id="metadata54">
    <rdf:RDF>
      <cc:Work
         rdf:about="">
        <dc:format>image/svg+xml</dc:format>
        <dc:type
           rdf:resource="http://purl.org/dc/dcmitype/StillImage" />
      </cc:Work>
    </rdf:RDF>
  </metadata>
  <defs
     id="defs52" />
  <sodipodi:namedview
     pagecolor="#ffffff"
     bordercolor="#666666"
     borderopacity="1"
     objecttolerance="10"
     gridtolerance="10"
     guidetolerance="10"
     inkscape:pageopacity="0"
     inkscape:pageshadow="2"
     inkscape:window-width="783"
     inkscape:window-height="480"
     id="namedview50"
     showgrid="false"
     inkscape:zoom="4.9166667"
     inkscape:cx="24"
     inkscape:cy="24"
     inkscape:window-x="0"
     inkscape:window-y="28"
     inkscape:window-maximized="0"
     inkscape:current-layer="svg48" />
  <path
     style="opacity:0.2"
     d="M 41,43.22369 V 21.405505 L 38.230107,18.62574 C 37.550857,17.94407 33.346099,14.227188 32.419943,14.048565 L 24.256835,8 15.043951,14.328652 C 14.256985,14.869246 10.248317,18.200878 9.5911911,18.905826 L 7.0000002,21.685592 V 43.22369 C 7.0000002,44.207766 7.7582001,45 8.7000003,45 H 39.300002 C 40.2418,45 41,44.207766 41,43.22369 Z"
     id="path2" />
  <path
     style="fill:#4c566a;fill-opacity:1"
     d="M 41,42.22369 V 20.405505 L 38.230107,17.62574 C 37.550857,16.94407 33.346099,13.227188 32.419943,13.048565 L 24.256835,7 15.043951,13.328652 C 14.256985,13.869246 10.248317,17.200878 9.5911911,17.905826 L 7.0000002,20.685592 V 42.22369 C 7.0000002,43.207766 7.7582001,44 8.7000003,44 H 39.300002 C 40.2418,44 41,43.207766 41,42.22369 Z"
     id="path4" />
  <rect
     style="opacity:0.15"
     width="34"
     height="1"
     x="7"
     y="20"
     id="rect6" />
  <rect
     style="fill:#4c566a;fill-opacity:1"
     width="6"
     height="10.5"
     x="8"
     y="7"
     rx="1.069"
     ry="1.147"
     id="rect8" />
  <path
     style="fill:#5f697d;fill-opacity:1"
     d="M 27.708333,24.999999 C 26.226654,24.999999 25,26.226653 25,27.708331 V 35.291667 C 25,36.773344 26.226654,38 27.708333,38 H 35.291667 C 36.773345,38 38.000001,36.773344 38.000001,35.291667 V 27.708331 C 38.000001,26.226653 36.773345,24.999999 35.291667,24.999999 Z"
     id="path10" />
  <path
     style="opacity:0.2"
     d="M 28.437502,29 C 28.179992,29 28,29.179989 28,29.4375 V 35.5625 C 28,35.82001 28.179992,36 28.437502,36 H 34.562499 C 34.820009,36 35,35.82001 35,35.5625 V 29.4375 C 35,29.179989 34.820009,29 34.562499,29 Z"
     id="path12" />
  <path
     style="fill:#e2e5ea;fill-opacity:1"
     d="M 28.437502,28 C 28.179992,28 28,28.179989 28,28.4375 V 34.5625 C 28,34.82001 28.179992,35 28.437502,35 H 34.562499 C 34.820009,35 35,34.82001 35,34.5625 V 28.4375 C 35,28.179989 34.820009,28 34.562499,28 Z"
     id="path14" />
  <rect
     style="fill:#5f697d;fill-opacity:1"
     width="10"
     height="16"
     x="10"
     y="25"
     rx="1.5"
     ry="1.5"
     id="rect16" />
  <circle
     style="opacity:0.2"
     cx="17.5"
     cy="33.5"
     r="1.5"
     id="circle18" />
  <circle
     style="fill:#ffffff"
     cx="17.5"
     cy="32.5"
     r="1.5"
     id="circle20" />
  <path
     style="opacity:0.05"
     d="M 10.032429,17.126797 C 9.449646,17.611164 8.9705593,18.021833 8.7794786,18.218014 L 6.0416934,21.027896 V 20.055584 H 10.032429 Z"
     id="path22" />
  <path
     style="opacity:0.15"
     d="M 14,14 C 13.074911,14.670564 11.300496,16.047885 10,17.111448 V 20 H 14 Z"
     id="path24" />
  <path
     style="opacity:0.05"
     d="M 18,12 14.517578,14.088187 C 14.424341,14.144105 14.168909,14.323895 14,14.437405 V 20 H 18 Z"
     id="path26" />
  <path
     style="opacity:0.15"
     d="M 22,9 18,11.538452 V 20 H 22 Z"
     id="path28" />
  <path
     style="opacity:0.05"
     d="M 24,8 22,9.3904835 V 20 H 27 V 9.1414688 Z"
     id="path30" />
  <path
     style="opacity:0.15"
     d="M 27,9 V 20 H 31 V 11.673576 Z"
     id="path32" />
  <path
     style="opacity:0.05"
     d="M 31,12 V 20 H 35 V 14.400697 C 34.528886,14.117333 34.130458,13.909351 33.916016,13.8735 Z"
     id="path34" />
  <path
     style="opacity:0.15"
     d="M 35,14 V 20 H 39 V 17.025573 C 37.865714,16.088013 36.1735,14.756341 35,14 Z"
     id="path36" />
  <path
     style="opacity:0.05"
     d="M 37.967582,16.998189 V 20.055584 H 41.958317 V 20.745349 L 39.031517,17.933518 C 38.861734,17.770449 38.459176,17.416828 37.967582,16.998189 Z"
     id="path38" />
  <path
     style="fill:none;stroke:#5f697d;stroke-width:4;stroke-linecap:round;stroke-linejoin:round;stroke-opacity:1"
     d="M 24,6 6,21"
     id="path40" />
  <path
     style="fill:none;stroke:#5f697d;stroke-width:4;stroke-linecap:round;stroke-linejoin:round;stroke-opacity:1"
     d="M 23.999994,6 42,21"
     id="path42" />
  <path
     style="opacity:0.1;fill:#ffffff"
     d="M 23.943359 3.9824219 A 2.0002 2.0002 0 0 0 23.900391 3.9863281 A 2.0002 2.0002 0 0 0 22.472656 4.6679688 L 4.71875 19.462891 A 2.0010761 2.0010761 0 0 0 4.0644531 21.498047 A 2.0010761 2.0010761 0 0 1 4.71875 20.462891 L 22.472656 5.6679688 A 2.0002 2.0002 0 0 1 23.900391 4.9863281 A 2.0002 2.0002 0 0 1 23.943359 4.9824219 A 2.0002 2.0002 0 0 1 23.986328 4.9824219 A 2.0002 2.0002 0 0 1 24.005859 4.9824219 A 2.0002 2.0002 0 0 1 25.542969 5.6796875 L 25.544922 5.6835938 L 43.28125 20.462891 A 2.0010761 2.0010761 0 0 1 43.9375 21.5 A 2.0010761 2.0010761 0 0 0 43.28125 19.462891 L 25.544922 4.6835938 L 25.542969 4.6796875 A 2.0002 2.0002 0 0 0 24.005859 3.9824219 A 2.0002 2.0002 0 0 0 23.986328 3.9824219 A 2.0002 2.0002 0 0 0 23.943359 3.9824219 z"
     id="path44" />
  <path
     style="fill:#ffffff;opacity:0.1"
     d="M 9.0703125 7 C 8.4778095 7 8 7.5127225 8 8.1484375 L 8 9.1484375 C 8 8.5127225 8.4778095 8 9.0703125 8 L 12.929688 8 C 13.52219 8 14 8.5127225 14 9.1484375 L 14 8.1484375 C 14 7.5127225 13.52219 7 12.929688 7 L 9.0703125 7 z"
     id="path46" />
</svg>
