<?xml version="1.0" encoding="UTF-8" standalone="no"?>
<svg
   xmlns:dc="http://purl.org/dc/elements/1.1/"
   xmlns:cc="http://creativecommons.org/ns#"
   xmlns:rdf="http://www.w3.org/1999/02/22-rdf-syntax-ns#"
   xmlns:svg="http://www.w3.org/2000/svg"
   xmlns="http://www.w3.org/2000/svg"
   xmlns:sodipodi="http://sodipodi.sourceforge.net/DTD/sodipodi-0.dtd"
   xmlns:inkscape="http://www.inkscape.org/namespaces/inkscape"
   width="48"
   height="48"
   version="1"
   id="svg28"
   sodipodi:docname="institution.svg"
   inkscape:version="0.92.5 (2060ec1f9f, 2020-04-08)">
  <metadata
     id="metadata34">
    <rdf:RDF>
      <cc:Work
         rdf:about="">
        <dc:format>image/svg+xml</dc:format>
        <dc:type
           rdf:resource="http://purl.org/dc/dcmitype/StillImage" />
      </cc:Work>
    </rdf:RDF>
  </metadata>
  <defs
     id="defs32" />
  <sodipodi:namedview
     pagecolor="#ffffff"
     bordercolor="#666666"
     borderopacity="1"
     objecttolerance="10"
     gridtolerance="10"
     guidetolerance="10"
     inkscape:pageopacity="0"
     inkscape:pageshadow="2"
     inkscape:window-width="783"
     inkscape:window-height="480"
     id="namedview30"
     showgrid="false"
     inkscape:zoom="4.9166667"
     inkscape:cx="24"
     inkscape:cy="24"
     inkscape:window-x="0"
     inkscape:window-y="28"
     inkscape:window-maximized="0"
     inkscape:current-layer="svg28" />
  <path
     style="opacity:0.2;fill-rule:evenodd"
     d="M 8.0275028,41 C 6.9043247,41 6,41.756196 6,42.695403 V 45 H 42.999999 V 42.695403 C 42.999999,41.756196 42.095674,41 40.972496,41 Z"
     id="path2" />
  <rect
     style="fill:#ffffff;fill-opacity:1"
     width="25"
     height="25"
     x="13"
     y="16"
     id="rect4" />
  <rect
     style="fill:#4c566a;fill-opacity:1"
     width="5"
     height="18"
     x="10"
     y="20"
     id="rect6" />
  <rect
     style="fill:#4c566a;fill-opacity:1"
     width="5"
     height="18"
     x="34"
     y="20"
     id="rect8" />
  <rect
     style="fill:#4c566a;fill-opacity:1"
     width="5"
     height="18"
     x="22"
     y="20"
     id="rect10" />
  <rect
     style="opacity:0.2"
     width="31"
     height="6"
     x="9"
     y="16"
     rx="1.698"
     ry="1.715"
     id="rect12" />
  <rect
     style="fill:#4c566a;fill-opacity:1"
     width="31"
     height="6"
     x="9"
     y="37"
     rx="1.698"
     ry="1.715"
     id="rect14" />
  <rect
     style="fill:#4c566a;fill-opacity:1"
     width="31"
     height="6"
     x="9"
     y="15"
     rx="1.698"
     ry="1.715"
     id="rect16" />
  <path
     style="opacity:0.2;fill-rule:evenodd"
     d="M 22.934144,5.638537 15.25,9.7032598 7.5907748,13.754802 C 5.9041082,14.590636 6.1313916,14.212733 6,15.814078 V 18.749138 C 6,18.888152 6.1019492,19 6.2285396,19 H 42.771459 C 42.898053,19 42.999999,18.888152 42.999999,18.749138 V 15.879363 C 42.996299,14.190369 42.954253,14.572089 41.347053,13.721914 L 33.75,9.7032598 26.107883,5.660769 C 24.693096,4.6825252 24.350598,4.8892665 22.934144,5.6385402 Z"
     id="path18" />
  <path
     style="fill:#4c566a;fill-rule:evenodd;fill-opacity:1"
     d="M 22.934144,4.638537 15.25,8.7032598 7.5907748,12.754802 C 5.9041082,13.590636 6.1313916,13.212733 6,14.814078 V 17.749138 C 6,17.888152 6.1019492,18 6.2285396,18 H 42.771459 C 42.898053,18 42.999999,17.888152 42.999999,17.749138 V 14.879363 C 42.996299,13.190369 42.954253,13.572089 41.347053,12.721914 L 33.75,8.7032598 26.107883,4.660769 C 24.693096,3.6825252 24.350598,3.8892665 22.934144,4.6385402 Z"
     id="path20" />
  <path
     style="fill:#4c566a;fill-rule:evenodd;fill-opacity:1"
     d="M 8.0275028,40 C 6.9043247,40 6,40.756196 6,41.695403 V 44 H 42.999999 V 41.695403 C 42.999999,40.756196 42.095674,40 40.972496,40 Z"
     id="path22" />
  <path
     style="fill:#ffffff;fill-rule:evenodd;opacity:0.2"
     d="M 24.521484 4.0019531 C 24.081955 4.0250172 23.641821 4.264035 22.933594 4.6386719 L 15.25 8.703125 L 7.5898438 12.753906 C 5.9031771 13.58974 6.1313916 13.213108 6 14.814453 L 6 15.814453 C 6.1313916 14.213108 5.9031771 14.58974 7.5898438 13.753906 L 15.25 9.703125 L 22.933594 5.6386719 C 24.350048 4.8893982 24.692635 4.6819124 26.107422 5.6601562 L 33.75 9.703125 L 41.347656 13.722656 C 42.954856 14.572831 42.9963 14.189912 43 15.878906 L 43 14.878906 C 42.9963 13.189912 42.954856 13.572831 41.347656 12.722656 L 33.75 8.703125 L 26.107422 4.6601562 C 25.400028 4.1710344 24.961014 3.9788891 24.521484 4.0019531 z"
     id="path24" />
  <path
     style="fill:#ffffff;fill-rule:evenodd;opacity:0.2"
     d="M 8.0273438 40 C 6.9041656 40 6 40.756106 6 41.695312 L 6 42.695312 C 6 41.756106 6.9041656 41 8.0273438 41 L 40.972656 41 C 42.095834 41 43 41.756106 43 42.695312 L 43 41.695312 C 43 40.756106 42.095834 40 40.972656 40 L 8.0273438 40 z"
     id="path26" />
</svg>
