<?xml version="1.0" encoding="UTF-8" standalone="no"?>
<svg
   xmlns:dc="http://purl.org/dc/elements/1.1/"
   xmlns:cc="http://creativecommons.org/ns#"
   xmlns:rdf="http://www.w3.org/1999/02/22-rdf-syntax-ns#"
   xmlns:svg="http://www.w3.org/2000/svg"
   xmlns="http://www.w3.org/2000/svg"
   xmlns:sodipodi="http://sodipodi.sourceforge.net/DTD/sodipodi-0.dtd"
   xmlns:inkscape="http://www.inkscape.org/namespaces/inkscape"
   width="48"
   height="48"
   version="1"
   id="svg14"
   sodipodi:docname="vm_import_wizard.svg"
   inkscape:version="0.92.5 (2060ec1f9f, 2020-04-08)">
  <metadata
     id="metadata20">
    <rdf:RDF>
      <cc:Work
         rdf:about="">
        <dc:format>image/svg+xml</dc:format>
        <dc:type
           rdf:resource="http://purl.org/dc/dcmitype/StillImage" />
      </cc:Work>
    </rdf:RDF>
  </metadata>
  <defs
     id="defs18" />
  <sodipodi:namedview
     pagecolor="#ffffff"
     bordercolor="#666666"
     borderopacity="1"
     objecttolerance="10"
     gridtolerance="10"
     guidetolerance="10"
     inkscape:pageopacity="0"
     inkscape:pageshadow="2"
     inkscape:window-width="783"
     inkscape:window-height="480"
     id="namedview16"
     showgrid="false"
     inkscape:zoom="4.9166667"
     inkscape:cx="24"
     inkscape:cy="24"
     inkscape:window-x="0"
     inkscape:window-y="28"
     inkscape:window-maximized="0"
     inkscape:current-layer="svg14" />
  <path
     style="opacity:0.2"
     d="M 35.6,11 C 12.6,11 4,23 4,45 v 0 C 5.8110133,31.592089 25.408791,23.09433 35.6,23 Z"
     id="path2" />
  <path
     style="fill:#4c566a;fill-opacity:1"
     d="M 35.6,10 C 12.6,10 4,22 4,44 v 0 C 5.8110133,30.592089 25.408791,22.09433 35.6,22 Z"
     id="path4" />
  <path
     style="opacity:0.1;fill:#ffffff"
     d="M 35.599609 10 C 12.599609 10 4 22 4 44 C 4.0034715 43.974299 4.0100699 43.949493 4.0136719 43.923828 C 4.2950255 22.613601 12.980044 11 35.599609 11 L 35.599609 10 z"
     id="path6" />
  <path
     style="opacity:0.2"
     d="M 27.801412,5.0008564 A 2.7380808,3.1999338 0 0 0 25,8.1989444 v 9.8004026 9.800403 a 2.7380808,3.1999338 0 0 0 4.107792,2.771087 l 7.260976,-4.900201 7.262395,-4.900202 a 2.7380808,3.1999338 0 0 0 0,-5.542174 L 36.368768,10.328058 29.107792,5.4278571 a 2.7380808,3.1999338 0 0 0 -1.30638,-0.4270007 z"
     id="path8" />
  <path
     style="fill:#5f697d;fill-opacity:1"
     d="M 27.801412,4.0008564 A 2.7380808,3.1999338 0 0 0 25,7.1989444 v 9.8004026 9.800403 a 2.7380808,3.1999338 0 0 0 4.107792,2.771087 l 7.260976,-4.900201 7.262395,-4.900202 a 2.7380808,3.1999338 0 0 0 0,-5.542174 L 36.368768,9.3280584 29.107792,4.4278571 a 2.7380808,3.1999338 0 0 0 -1.30638,-0.4270007 z"
     id="path10" />
  <path
     style="opacity:0.2;fill:#ffffff"
     d="M 27.800781 4 A 2.7380808 3.1999338 0 0 0 25 7.1992188 L 25 8.1992188 A 2.7380808 3.1999338 0 0 1 27.800781 5 A 2.7380808 3.1999338 0 0 1 29.107422 5.4277344 L 36.369141 10.328125 L 43.630859 15.228516 A 2.7380808 3.1999338 0 0 1 44.966797 17.496094 A 2.7380808 3.1999338 0 0 0 43.630859 14.228516 L 36.369141 9.328125 L 29.107422 4.4277344 A 2.7380808 3.1999338 0 0 0 27.800781 4 z"
     id="path12" />
</svg>
