<?xml version="1.0" encoding="UTF-8" standalone="no"?>
<svg
   xmlns:dc="http://purl.org/dc/elements/1.1/"
   xmlns:cc="http://creativecommons.org/ns#"
   xmlns:rdf="http://www.w3.org/1999/02/22-rdf-syntax-ns#"
   xmlns:svg="http://www.w3.org/2000/svg"
   xmlns="http://www.w3.org/2000/svg"
   xmlns:sodipodi="http://sodipodi.sourceforge.net/DTD/sodipodi-0.dtd"
   xmlns:inkscape="http://www.inkscape.org/namespaces/inkscape"
   width="48"
   height="48"
   version="1.1"
   id="svg14"
   sodipodi:docname="vm_new_wizard.svg"
   inkscape:version="0.92.5 (2060ec1f9f, 2020-04-08)">
  <metadata
     id="metadata20">
    <rdf:RDF>
      <cc:Work
         rdf:about="">
        <dc:format>image/svg+xml</dc:format>
        <dc:type
           rdf:resource="http://purl.org/dc/dcmitype/StillImage" />
      </cc:Work>
    </rdf:RDF>
  </metadata>
  <defs
     id="defs18" />
  <sodipodi:namedview
     pagecolor="#ffffff"
     bordercolor="#666666"
     borderopacity="1"
     objecttolerance="10"
     gridtolerance="10"
     guidetolerance="10"
     inkscape:pageopacity="0"
     inkscape:pageshadow="2"
     inkscape:window-width="783"
     inkscape:window-height="480"
     id="namedview16"
     showgrid="false"
     inkscape:zoom="4.9166667"
     inkscape:cx="24"
     inkscape:cy="24"
     inkscape:window-x="0"
     inkscape:window-y="28"
     inkscape:window-maximized="0"
     inkscape:current-layer="svg14" />
  <rect
     style="opacity:0.2"
     width="12"
     height="40"
     x="18"
     y="5"
     rx="3"
     ry="2.857"
     id="rect2" />
  <rect
     style="fill:#4c566a;fill-opacity:1"
     width="12"
     height="40"
     x="18"
     y="4"
     rx="3"
     ry="2.857"
     id="rect4" />
  <rect
     style="opacity:0.2"
     width="12"
     height="40"
     x="19"
     y="-44"
     rx="3"
     ry="2.857"
     transform="rotate(90)"
     id="rect6" />
  <rect
     style="fill:#4c566a;fill-opacity:1"
     width="12"
     height="40"
     x="18"
     y="-44"
     rx="3"
     ry="2.857"
     transform="rotate(90)"
     id="rect8" />
  <path
     style="fill:#ffffff;opacity:0.2"
     d="M 21 4 C 19.338 4 18 5.2745648 18 6.8574219 L 18 7.8574219 C 18 6.2745648 19.338 5 21 5 L 27 5 C 28.662 5 30 6.2745648 30 7.8574219 L 30 6.8574219 C 30 5.2745648 28.662 4 27 4 L 21 4 z"
     id="path10" />
  <path
     style="fill:#ffffff;opacity:0.2"
     d="M 6.8574219 18 C 5.2745648 18 4 19.338 4 21 L 4 22 C 4 20.338 5.2745648 19 6.8574219 19 L 41.142578 19 C 42.725435 19 44 20.338 44 22 L 44 21 C 44 19.338 42.725435 18 41.142578 18 L 6.8574219 18 z"
     id="path12" />
</svg>
