<svg xmlns="http://www.w3.org/2000/svg" width="22" height="22" version="1.1">
 <defs>
  <style id="current-color-scheme" type="text/css">
   .ColorScheme-Text { color:#ffffff; } .ColorScheme-Highlight { color:#e5b0b0; } .ColorScheme-NeutralText { color:#f7e6e6; } .ColorScheme-PositiveText { color:#efd0d0; } .ColorScheme-NegativeText { color:#d98e8e; }
  </style>
 </defs>
 <rect style="fill:currentColor" class="ColorScheme-Text" width="7" height="2" x="3" y="17" rx=".538" ry=".5"/>
 <rect style="fill:currentColor;opacity:.35" class="ColorScheme-Text" width="7" height="2" x="3" y="15" rx=".538" ry=".5"/>
 <rect style="fill:currentColor" class="ColorScheme-Text" width="7" height="2" x="3" y="13" rx=".538" ry=".5"/>
 <rect style="fill:currentColor;opacity:.35" class="ColorScheme-Text" width="7" height="2" x="3" y="11" rx=".538" ry=".5"/>
 <rect style="fill:currentColor" class="ColorScheme-Text" width="7" height="2" x="3" y="9" rx=".538" ry=".5"/>
 <rect style="fill:currentColor;opacity:.35" class="ColorScheme-Text" width="7" height="2" x="3" y="7" rx=".538" ry=".5"/>
 <rect style="fill:currentColor" class="ColorScheme-Text" width="7" height="2" x="3" y="5" rx=".538" ry=".5"/>
 <rect style="fill:currentColor;opacity:.35" class="ColorScheme-Text" width="7" height="2" x="3" y="3" rx=".538" ry=".5"/>
 <rect style="fill:currentColor;opacity:.35" class="ColorScheme-Text" width="7" height="2" x="12" y="17" rx=".538" ry=".5"/>
 <rect style="fill:currentColor" class="ColorScheme-Text" width="7" height="2" x="12" y="15" rx=".538" ry=".5"/>
 <rect style="fill:currentColor;opacity:.35" class="ColorScheme-Text" width="7" height="2" x="12" y="13" rx=".538" ry=".5"/>
 <rect style="fill:currentColor" class="ColorScheme-Text" width="7" height="2" x="12" y="11" rx=".538" ry=".5"/>
</svg>
