<svg xmlns="http://www.w3.org/2000/svg" width="22" height="22" version="1.1">
 <defs>
  <style id="current-color-scheme" type="text/css">
   .ColorScheme-Text { color:#ffffff; } .ColorScheme-Highlight { color:#e5b0b0; } .ColorScheme-NeutralText { color:#f7e6e6; } .ColorScheme-PositiveText { color:#efd0d0; } .ColorScheme-NegativeText { color:#d98e8e; }
  </style>
 </defs>
 <path style="fill:currentColor" class="ColorScheme-Text" d="M 11,4 A 2,2 0 0 0 9,6 2,2 0 0 0 11,8 2,2 0 0 0 13,6 2,2 0 0 0 11,4 Z m 0,5 a 2,2 0 0 0 -2,2 2,2 0 0 0 2,2 2,2 0 0 0 2,-2 2,2 0 0 0 -2,-2 z m 0,5 a 2,2 0 0 0 -2,2 2,2 0 0 0 2,2 2,2 0 0 0 2,-2 2,2 0 0 0 -2,-2 z"/>
</svg>
