<svg xmlns="http://www.w3.org/2000/svg" width="22" height="22" version="1.1">
 <defs>
  <style id="current-color-scheme" type="text/css">
   .ColorScheme-Text { color:#ffffff; } .ColorScheme-Highlight { color:#e5b0b0; } .ColorScheme-NeutralText { color:#f7e6e6; } .ColorScheme-PositiveText { color:#efd0d0; } .ColorScheme-NegativeText { color:#d98e8e; }
  </style>
 </defs>
 <g transform="translate(3,3)">
  <path style="opacity:.35;fill:currentColor" class="ColorScheme-Text" d="M 5,5 H 15 V 15 H 5 Z"/>
  <path style="fill:currentColor" class="ColorScheme-Text" d="M 5.5 0 A 5.5 5.5 0 0 0 0 5.5 A 5.5 5.5 0 0 0 5 10.975 L 5 5 L 10.973 5 A 5.5 5.5 0 0 0 5.5 0 z M 10.973 5 A 5.5 5.5 0 0 1 11 5.5 A 5.5 5.5 0 0 1 5.5 11 A 5.5 5.5 0 0 1 5 10.975 L 5 15 L 15 15 L 15 5 L 10.973 5 z"/>
 </g>
</svg>
