<?xml version="1.0" encoding="UTF-8" standalone="no"?>
<svg
   xmlns:dc="http://purl.org/dc/elements/1.1/"
   xmlns:cc="http://creativecommons.org/ns#"
   xmlns:rdf="http://www.w3.org/1999/02/22-rdf-syntax-ns#"
   xmlns:svg="http://www.w3.org/2000/svg"
   xmlns="http://www.w3.org/2000/svg"
   xmlns:sodipodi="http://sodipodi.sourceforge.net/DTD/sodipodi-0.dtd"
   xmlns:inkscape="http://www.inkscape.org/namespaces/inkscape"
   width="22"
   height="22"
   version="1.1"
   id="svg11"
   sodipodi:docname="media-repeat-none.svg"
   inkscape:version="0.92.5 (2060ec1f9f, 2020-04-08)">
  <metadata
     id="metadata15">
    <rdf:RDF>
      <cc:Work
         rdf:about="">
        <dc:format>image/svg+xml</dc:format>
        <dc:type
           rdf:resource="http://purl.org/dc/dcmitype/StillImage" />
      </cc:Work>
    </rdf:RDF>
  </metadata>
  <sodipodi:namedview
     pagecolor="#ffffff"
     bordercolor="#666666"
     borderopacity="1"
     objecttolerance="10"
     gridtolerance="10"
     guidetolerance="10"
     inkscape:pageopacity="0"
     inkscape:pageshadow="2"
     inkscape:window-width="640"
     inkscape:window-height="480"
     id="namedview13"
     showgrid="false"
     inkscape:zoom="10.727273"
     inkscape:cx="-7.1779661"
     inkscape:cy="11"
     inkscape:current-layer="g9" />
  <defs
     id="defs3">
    <style
       id="current-color-scheme"
       type="text/css">
   .ColorScheme-Text { color:#dfdfdf; } .ColorScheme-Highlight { color:#4285f4; } .ColorScheme-NeutralText { color:#ff9800; } .ColorScheme-PositiveText { color:#4caf50; } .ColorScheme-NegativeText { color:#f44336; }
  </style>
  </defs>
  <g
     transform="translate(3,3)"
     id="g9">
    <path
       style="fill:#bf616a;fill-opacity:1"
       class="ColorScheme-NegativeText"
       d="M 10,2 V 3.4141 L 11.586,5 10,6.5859 V 8 H 11.414 L 13,6.4141 14.586,8 H 16 V 6.5859 L 14.414,5 16,3.4141 V 2 H 14.586 L 13,3.5859 11.414,2 Z"
       id="path5" />
    <path
       style="fill:currentColor;opacity:.35"
       class="ColorScheme-Text"
       d="M 5 2 L 5 4 L 3 4 C 1 4 1 6 1 6 L 1 12 C 1 12 1 14 3 14 L 13 14 C 15 14 15 12 15 12 L 15 10 L 13 10 L 13 12 L 3 12 L 3 6 L 5 6 L 5 8 L 9 5 L 5 2 z"
       id="path7" />
  </g>
</svg>
