<?xml version="1.0" encoding="UTF-8" standalone="no"?>
<svg
   xmlns:dc="http://purl.org/dc/elements/1.1/"
   xmlns:cc="http://creativecommons.org/ns#"
   xmlns:rdf="http://www.w3.org/1999/02/22-rdf-syntax-ns#"
   xmlns:svg="http://www.w3.org/2000/svg"
   xmlns="http://www.w3.org/2000/svg"
   xmlns:sodipodi="http://sodipodi.sourceforge.net/DTD/sodipodi-0.dtd"
   xmlns:inkscape="http://www.inkscape.org/namespaces/inkscape"
   width="22"
   height="22"
   version="1.1"
   id="svg9"
   sodipodi:docname="preview-remove-zone.svg"
   inkscape:version="0.92.5 (2060ec1f9f, 2020-04-08)">
  <metadata
     id="metadata13">
    <rdf:RDF>
      <cc:Work
         rdf:about="">
        <dc:format>image/svg+xml</dc:format>
        <dc:type
           rdf:resource="http://purl.org/dc/dcmitype/StillImage" />
      </cc:Work>
    </rdf:RDF>
  </metadata>
  <sodipodi:namedview
     pagecolor="#ffffff"
     bordercolor="#666666"
     borderopacity="1"
     objecttolerance="10"
     gridtolerance="10"
     guidetolerance="10"
     inkscape:pageopacity="0"
     inkscape:pageshadow="2"
     inkscape:window-width="640"
     inkscape:window-height="480"
     id="namedview11"
     showgrid="false"
     inkscape:zoom="10.727273"
     inkscape:cx="-7.1779661"
     inkscape:cy="11"
     inkscape:current-layer="svg9" />
  <defs
     id="defs3">
    <style
       id="current-color-scheme"
       type="text/css">
   .ColorScheme-Text { color:#dfdfdf; } .ColorScheme-Highlight { color:#4285f4; } .ColorScheme-NeutralText { color:#ff9800; } .ColorScheme-PositiveText { color:#4caf50; } .ColorScheme-NegativeText { color:#f44336; }
  </style>
  </defs>
  <path
     style="opacity:.35;fill:currentColor"
     class="ColorScheme-Text"
     d="M 9 3 L 9 9 L 7 9 L 7 4 L 5 4 L 5 9 L 3 9 L 3 13 L 19 13 L 19 9 L 19 5 L 17 5 L 17 9 L 15 9 L 15 6 L 13 6 L 13 9 L 11 9 L 11 3 L 9 3 z M 3 14 L 3 19 L 4 19 L 4 16.5 L 4 14 L 3 14 z M 4 16.5 L 5.5 17.75 L 7 19 L 7 16.5 L 7 14 L 5.5 15.25 L 4 16.5 z M 15 14 L 15 16.5 L 15 19 L 16.5 17.75 L 18 16.5 L 16.5 15.25 L 15 14 z M 18 16.5 L 18 19 L 19 19 L 19 14 L 18 14 L 18 16.5 z"
     id="path5" />
  <path
     style="fill:#bf616a;fill-opacity:1"
     class="ColorScheme-NegativeText"
     d="m 8,14 v 1.414063 L 9.585937,17 8,18.585938 V 20 H 9.414062 L 11,18.414062 12.585938,20 H 14 V 18.585938 L 12.414062,17 14,15.414063 V 14 H 12.585938 L 11,15.585938 9.414062,14 Z"
     id="path7" />
</svg>
