<?xml version="1.0" encoding="UTF-8" standalone="no"?>
<svg
   xmlns:dc="http://purl.org/dc/elements/1.1/"
   xmlns:cc="http://creativecommons.org/ns#"
   xmlns:rdf="http://www.w3.org/1999/02/22-rdf-syntax-ns#"
   xmlns:svg="http://www.w3.org/2000/svg"
   xmlns="http://www.w3.org/2000/svg"
   xmlns:sodipodi="http://sodipodi.sourceforge.net/DTD/sodipodi-0.dtd"
   xmlns:inkscape="http://www.inkscape.org/namespaces/inkscape"
   width="16"
   height="16"
   version="1.1"
   id="svg6"
   sodipodi:docname="emblem-web.svg"
   inkscape:version="0.92.5 (2060ec1f9f, 2020-04-08)">
  <metadata
     id="metadata12">
    <rdf:RDF>
      <cc:Work
         rdf:about="">
        <dc:format>image/svg+xml</dc:format>
        <dc:type
           rdf:resource="http://purl.org/dc/dcmitype/StillImage" />
      </cc:Work>
    </rdf:RDF>
  </metadata>
  <defs
     id="defs10" />
  <sodipodi:namedview
     pagecolor="#ffffff"
     bordercolor="#666666"
     borderopacity="1"
     objecttolerance="10"
     gridtolerance="10"
     guidetolerance="10"
     inkscape:pageopacity="0"
     inkscape:pageshadow="2"
     inkscape:window-width="954"
     inkscape:window-height="500"
     id="namedview8"
     showgrid="false"
     inkscape:zoom="20.85965"
     inkscape:cx="11.920288"
     inkscape:cy="7.6610169"
     inkscape:window-x="0"
     inkscape:window-y="28"
     inkscape:window-maximized="0"
     inkscape:current-layer="svg6" />
  <circle
     style="fill:#374155;fill-opacity:1;stroke-width:0.85714287"
     cx="7.9888663"
     cy="7.9525595"
     r="6"
     id="circle2" />
  <path
     style="fill:#ffffff;fill-rule:evenodd;stroke-width:0.9041211"
     d="m 5.7413422,4.0840752 c -1.6571443,0.9521145 -2.478431,2.7918735 -2.2127873,4.5634572 0.012163,0.090887 0.029061,0.1814264 0.046981,0.2718964 0.004,0.018562 0.00695,0.037123 0.01116,0.055676 0.094893,0.4492632 0.2567129,0.8913504 0.499575,1.3099602 1.2421759,2.141082 4.0089819,2.872242 6.1700361,1.630606 1.641513,-0.943134 2.464704,-2.7568434 2.222691,-4.5128491 -5.9e-5,-4.521e-4 -1.24e-4,-8.716e-4 -7.1e-5,-0.00145 C 12.463999,7.2794733 12.440791,7.1583166 12.41552,7.0371472 12.320943,6.5836147 12.156369,6.1370404 11.911353,5.7147164 10.669452,3.5741093 7.9019221,2.8427323 5.7413179,4.0841104 Z m 0.069531,0.7679297 0.7580077,1.3065436 C 6.1872015,6.3604098 5.806683,6.5266741 5.440172,6.6547193 5.4229386,6.5108972 5.4105783,6.3699483 5.4086182,6.2360868 5.3995544,5.6189555 5.546703,5.1462023 5.8108966,4.8519877 Z M 6.3830797,4.5521224 c 0.032206,-0.01207 0.064083,-0.025867 0.096388,-0.037331 C 6.8483088,4.4732469 7.2924086,4.587799 7.7766785,4.875494 7.8900591,4.942851 8.0043403,5.0222599 8.1187223,5.1070954 7.8264652,5.3597096 7.4929597,5.6062987 7.1279083,5.8359192 L 6.3830887,4.5521079 Z M 4.7844737,5.8272478 C 4.7706118,5.9646805 4.7612279,6.1040725 4.7633363,6.248005 4.7661481,6.4396135 4.7845569,6.6383556 4.812704,6.840528 4.6212722,6.887045 4.4384634,6.9202353 4.2631288,6.943313 4.3744116,6.548099 4.5507646,6.1717604 4.7844725,5.8272568 Z M 7.8419379,4.18176 C 8.029997,4.1546816 8.1800295,4.144022 8.3305689,4.13348 8.5395742,4.1508933 8.7464634,4.1845809 8.9491343,4.2350625 8.8434807,4.3742971 8.7247832,4.5153373 8.5905341,4.6569607 8.431864,4.5346964 8.2716069,4.4216469 8.1096042,4.3253878 8.0211505,4.2728313 7.9316703,4.2262328 7.8419098,4.1817474 Z m 1.7156567,0.2618118 c 0.6364564,0.2764332 1.2016324,0.723956 1.6199964,1.3253105 l -1.053699,0.605404 C 9.8091825,5.8791091 9.4541993,5.4436726 9.0773054,5.0790225 9.2614106,4.8827532 9.4261121,4.6842913 9.566506,4.4853485 9.564696,4.4702765 9.560956,4.4570765 9.557566,4.4435605 Z M 4.1399832,7.605362 C 4.3945783,7.58256 4.6624593,7.5355819 4.9381811,7.4701914 5.0671943,7.9738356 5.2676115,8.4934982 5.5391626,9.0084829 L 4.4893076,9.6116781 C 4.1831924,8.9672794 4.0735745,8.275813 4.140012,7.6053602 Z M 8.6135078,5.5281898 C 8.9501276,5.8524945 9.2744329,6.2457202 9.5636651,6.6961841 L 8.1110082,7.53081 7.4494325,6.3904818 C 7.8798651,6.1218701 8.2714354,5.8312892 8.6134971,5.5281844 Z M 5.5603049,7.2932395 C 5.9948223,7.1473677 6.4425318,6.9520676 6.8903178,6.7131744 L 7.5512617,7.8524131 6.0991665,8.686717 C 5.8534484,8.2154593 5.6743617,7.7427079 5.5603365,7.2932295 Z M 4.8107617,10.166257 5.8606165,9.5630617 C 6.1815956,10.068078 6.5443887,10.51165 6.9296994,10.880772 6.7390687,11.080634 6.5687325,11.282985 6.4230835,11.485897 5.7900679,11.20972 5.2276752,10.764285 4.8107329,10.166285 Z M 6.4208179,9.2411964 7.8729131,8.4068934 8.5564745,9.5851169 C 8.1283257,9.8492812 7.7373676,10.134726 7.3952637,10.433502 7.0498584,10.104676 6.7170843,9.7026499 6.420799,9.2411964 Z M 8.4325528,8.0853517 9.8852091,7.2507259 C 10.14032,7.7400435 10.324817,8.2312461 10.438103,8.696081 10.006735,8.8389331 9.5619402,9.0299711 9.116738,9.2646765 L 8.4325446,8.0853635 Z m 2.0128302,-1.1564748 1.053699,-0.605404 c 0.315611,0.6660497 0.420814,1.3823198 0.339402,2.0733639 -0.0021,-0.00108 -0.0033,-0.00307 -0.0054,-0.00416 -0.246825,0.021834 -0.505802,0.065757 -0.772662,0.1277197 -0.128383,-0.520092 -0.33408,-1.0585766 -0.61511,-1.591537 z M 8.8781569,10.139587 9.6132394,11.406614 C 9.2251779,11.486937 8.7406188,11.378616 8.208228,11.062349 8.1045263,11.00074 8.0003354,10.929053 7.8957163,10.852764 8.1871162,10.604928 8.5172818,10.364127 8.8781369,10.139591 Z M 9.4384285,9.8191342 C 9.8151633,9.6220981 10.190332,9.4597044 10.551473,9.3348525 c 0.01359,0.1257859 0.02313,0.2489615 0.02487,0.3669186 0.0091,0.6172069 -0.139142,1.0889649 -0.403444,1.3833159 L 9.4384495,9.8191486 Z M 7.4188386,11.299315 c 0.1506883,0.114723 0.3028028,0.221903 0.4564029,0.31316 0.1207625,0.07174 0.243133,0.133177 0.3660893,0.188891 -0.396296,0.02685 -0.7911841,-0.0064 -1.1725343,-0.09808 0.1052125,-0.133623 0.2192022,-0.26864 0.3500272,-0.403977 z M 11.179186,9.1517969 c 0.181921,-0.043443 0.355317,-0.073107 0.522605,-0.095227 -0.11153,0.3696635 -0.27906,0.7219063 -0.498599,1.0459451 0.0127,-0.1349446 0.02056,-0.2718683 0.01849,-0.4127575 -0.0025,-0.1741988 -0.01899,-0.3549172 -0.04249,-0.5379746 z"
     id="path4"
     inkscape:connector-curvature="0" />
</svg>
