<?xml version="1.0" encoding="UTF-8" standalone="no"?>
<svg
   xmlns:dc="http://purl.org/dc/elements/1.1/"
   xmlns:cc="http://creativecommons.org/ns#"
   xmlns:rdf="http://www.w3.org/1999/02/22-rdf-syntax-ns#"
   xmlns:svg="http://www.w3.org/2000/svg"
   xmlns="http://www.w3.org/2000/svg"
   xmlns:sodipodi="http://sodipodi.sourceforge.net/DTD/sodipodi-0.dtd"
   xmlns:inkscape="http://www.inkscape.org/namespaces/inkscape"
   width="48"
   height="48"
   version="1"
   id="svg18"
   sodipodi:docname="ac-adapter.svg"
   inkscape:version="0.92.5 (2060ec1f9f, 2020-04-08)">
  <metadata
     id="metadata24">
    <rdf:RDF>
      <cc:Work
         rdf:about="">
        <dc:format>image/svg+xml</dc:format>
        <dc:type
           rdf:resource="http://purl.org/dc/dcmitype/StillImage" />
      </cc:Work>
    </rdf:RDF>
  </metadata>
  <defs
     id="defs22" />
  <sodipodi:namedview
     pagecolor="#ffffff"
     bordercolor="#666666"
     borderopacity="1"
     objecttolerance="10"
     gridtolerance="10"
     guidetolerance="10"
     inkscape:pageopacity="0"
     inkscape:pageshadow="2"
     inkscape:window-width="783"
     inkscape:window-height="480"
     id="namedview20"
     showgrid="false"
     inkscape:zoom="4.9166667"
     inkscape:cx="24"
     inkscape:cy="24"
     inkscape:window-x="0"
     inkscape:window-y="28"
     inkscape:window-maximized="0"
     inkscape:current-layer="svg18" />
  <rect
     fill="#b7b7b7"
     width="6"
     height="16"
     x="14"
     y="5"
     rx="2"
     ry="2"
     id="rect2" />
  <rect
     fill="#b7b7b7"
     width="6"
     height="16"
     x="28"
     y="5"
     rx="2"
     ry="2"
     id="rect4" />
  <rect
     fill="#5b5b5b"
     width="30"
     height="24"
     x="9"
     y="19"
     rx="2"
     ry="2"
     id="rect6"
     style="fill:#4c566a;fill-opacity:1" />
  <path
     fill="#fff"
     opacity=".1"
     d="m16 5c-1.108 0-2 0.892-2 2v1c0-1.108 0.892-2 2-2h2c1.108 0 2 0.892 2 2v-1c0-1.108-0.892-2-2-2h-2z"
     id="path8" />
  <path
     fill="#fff"
     opacity=".1"
     d="m30 5c-1.108 0-2 0.892-2 2v1c0-1.108 0.892-2 2-2h2c1.108 0 2 0.892 2 2v-1c0-1.108-0.892-2-2-2h-2z"
     id="path10" />
  <path
     opacity=".2"
     d="m9 41v1c0 1.108 0.892 2 2 2h26c1.108 0 2-0.892 2-2v-1c0 1.108-0.892 2-2 2h-26c-1.108 0-2-0.892-2-2z"
     id="path12" />
  <path
     opacity=".2"
     d="m24 24v6h6l-6 10v-6h-6z"
     id="path14" />
  <path
     fill="#e4e4e4"
     d="m24 23v6h6l-6 10v-6h-6z"
     id="path16"
     style="fill:#ffffff;fill-opacity:1" />
</svg>
