<?xml version="1.0" encoding="UTF-8" standalone="no"?>
<svg
   xmlns:dc="http://purl.org/dc/elements/1.1/"
   xmlns:cc="http://creativecommons.org/ns#"
   xmlns:rdf="http://www.w3.org/1999/02/22-rdf-syntax-ns#"
   xmlns:svg="http://www.w3.org/2000/svg"
   xmlns="http://www.w3.org/2000/svg"
   xmlns:sodipodi="http://sodipodi.sourceforge.net/DTD/sodipodi-0.dtd"
   xmlns:inkscape="http://www.inkscape.org/namespaces/inkscape"
   width="48"
   height="48"
   version="1.1"
   id="svg24"
   sodipodi:docname="computer-fail.svg"
   inkscape:version="0.92.5 (2060ec1f9f, 2020-04-08)">
  <metadata
     id="metadata30">
    <rdf:RDF>
      <cc:Work
         rdf:about="">
        <dc:format>image/svg+xml</dc:format>
        <dc:type
           rdf:resource="http://purl.org/dc/dcmitype/StillImage" />
      </cc:Work>
    </rdf:RDF>
  </metadata>
  <defs
     id="defs28" />
  <sodipodi:namedview
     pagecolor="#ffffff"
     bordercolor="#666666"
     borderopacity="1"
     objecttolerance="10"
     gridtolerance="10"
     guidetolerance="10"
     inkscape:pageopacity="0"
     inkscape:pageshadow="2"
     inkscape:window-width="783"
     inkscape:window-height="480"
     id="namedview26"
     showgrid="false"
     inkscape:zoom="6.9532167"
     inkscape:cx="24.845036"
     inkscape:cy="25.242799"
     inkscape:window-x="0"
     inkscape:window-y="28"
     inkscape:window-maximized="0"
     inkscape:current-layer="svg24" />
  <rect
     style="opacity:0.2"
     width="32"
     height="24"
     x="-43"
     y="-36"
     rx="2"
     ry="2"
     transform="matrix(0,-1,-1,0,0,0)"
     id="rect2" />
  <rect
     fill="#8e8e8e"
     width="32"
     height="24"
     x="-42"
     y="-36"
     rx="2"
     ry="2"
     transform="matrix(0,-1,-1,0,0,0)"
     id="rect4"
     style="fill:#4c566a;fill-opacity:1" />
  <rect
     style="opacity:0.2"
     width="32"
     height="40"
     x="-39"
     y="-44"
     rx="2"
     ry="2"
     transform="matrix(0,-1,-1,0,0,0)"
     id="rect6" />
  <rect
     style="fill:#4c566a;fill-opacity:1"
     width="32"
     height="40"
     x="-38"
     y="-44"
     rx="2"
     ry="2"
     transform="matrix(0,-1,-1,0,0,0)"
     id="rect8" />
  <rect
     style="fill:#5f697d;fill-opacity:1"
     width="26"
     height="34"
     x="-35"
     y="-41"
     rx="0"
     ry="0"
     transform="matrix(0,-1,-1,0,0,0)"
     id="rect10" />
  <path
     fill="#ffffff"
     style="opacity:0.1"
     d="m6 6c-1.108 0-2 0.892-2 2v1c0-1.108 0.892-2 2-2h36c1.108 0 2 0.892 2 2v-1c0-1.108-0.892-2-2-2h-36z"
     id="path12" />
  <rect
     style="opacity:0.1;fill:#ffffff"
     width="34"
     height="1"
     x="7"
     y="35"
     id="rect14" />
  <g
     style="opacity:0.2;enable-background:new"
     transform="matrix(2,0,0,2,-962.0004,561)"
     id="g18">
    <path
       d="m 490.0002,-272 v 2.5 h 1 v -2.5 z m 5,0 v 2.5 h 1 v -2.5 z m -6,4.5 v 1 h 1 6 1 v -1 h -1 -6 z m 8,1 v 1 h 1 v -1 z m -8,0 h -1 v 1 h 1 z"
       id="path16" />
  </g>
  <g
     style="fill:#ffffff;enable-background:new"
     transform="matrix(2,0,0,2,-962.0004,560)"
     id="g22">
    <path
       style="fill:#ffffff"
       d="m 490.0002,-272 v 2.5 h 1 v -2.5 z m 5,0 v 2.5 h 1 v -2.5 z m -6,4.5 v 1 h 1 6 1 v -1 h -1 -6 z m 8,1 v 1 h 1 v -1 z m -8,0 h -1 v 1 h 1 z"
       id="path20" />
  </g>
</svg>
