<?xml version="1.0" encoding="UTF-8" standalone="no"?>
<svg
   xmlns:dc="http://purl.org/dc/elements/1.1/"
   xmlns:cc="http://creativecommons.org/ns#"
   xmlns:rdf="http://www.w3.org/1999/02/22-rdf-syntax-ns#"
   xmlns:svg="http://www.w3.org/2000/svg"
   xmlns="http://www.w3.org/2000/svg"
   xmlns:sodipodi="http://sodipodi.sourceforge.net/DTD/sodipodi-0.dtd"
   xmlns:inkscape="http://www.inkscape.org/namespaces/inkscape"
   width="48"
   height="48"
   version="1"
   id="svg20"
   sodipodi:docname="notification-gsm-connected.svg"
   inkscape:version="0.92.5 (2060ec1f9f, 2020-04-08)">
  <metadata
     id="metadata26">
    <rdf:RDF>
      <cc:Work
         rdf:about="">
        <dc:format>image/svg+xml</dc:format>
        <dc:type
           rdf:resource="http://purl.org/dc/dcmitype/StillImage" />
      </cc:Work>
    </rdf:RDF>
  </metadata>
  <defs
     id="defs24" />
  <sodipodi:namedview
     pagecolor="#ffffff"
     bordercolor="#666666"
     borderopacity="1"
     objecttolerance="10"
     gridtolerance="10"
     guidetolerance="10"
     inkscape:pageopacity="0"
     inkscape:pageshadow="2"
     inkscape:window-width="783"
     inkscape:window-height="480"
     id="namedview22"
     showgrid="false"
     inkscape:zoom="3.4766083"
     inkscape:cx="1.2104191"
     inkscape:cy="22.785825"
     inkscape:window-x="0"
     inkscape:window-y="28"
     inkscape:window-maximized="0"
     inkscape:current-layer="svg20" />
  <path
     fill="#888"
     d="m9 6h30v14h-30z"
     id="path2" />
  <rect
     fill="#c4c4c4"
     width="40"
     height="24"
     x="4"
     y="18"
     rx="2"
     ry="2"
     id="rect4"
     style="fill:#4c566a;fill-opacity:1" />
  <g
     opacity=".2"
     transform="translate(0,-2)"
     id="g8">
    <rect
       width="8"
       height="4"
       x="20"
       y="38"
       id="rect6" />
  </g>
  <g
     fill="#db3c30"
     transform="translate(0,-3)"
     id="g12"
     style="fill:#fdfdfd;fill-opacity:1">
    <rect
       width="8"
       height="4"
       x="20"
       y="38"
       id="rect10"
       style="fill:#fdfdfd;fill-opacity:1" />
  </g>
  <path
     fill="#fff"
     opacity=".2"
     d="m9 6v1h30v-1h-30z"
     id="path14" />
  <path
     fill="#fff"
     opacity=".2"
     d="m6 18c-1.108 0-2 0.892-2 2v1c0-1.108 0.892-2 2-2h36c1.108 0 2 0.892 2 2v-1c0-1.108-0.892-2-2-2h-36z"
     id="path16" />
  <path
     opacity=".2"
     d="m4 40v1c0 1.108 0.892 2 2 2h36c1.108 0 2-0.892 2-2v-1c0 1.108-0.892 2-2 2h-36c-1.108 0-2-0.892-2-2z"
     id="path18" />
</svg>
