<?xml version="1.0" encoding="UTF-8" standalone="no"?>
<svg
   xmlns:dc="http://purl.org/dc/elements/1.1/"
   xmlns:cc="http://creativecommons.org/ns#"
   xmlns:rdf="http://www.w3.org/1999/02/22-rdf-syntax-ns#"
   xmlns:svg="http://www.w3.org/2000/svg"
   xmlns="http://www.w3.org/2000/svg"
   xmlns:sodipodi="http://sodipodi.sourceforge.net/DTD/sodipodi-0.dtd"
   xmlns:inkscape="http://www.inkscape.org/namespaces/inkscape"
   width="48"
   height="48"
   version="1"
   id="svg24"
   sodipodi:docname="notification-battery-000.svg"
   inkscape:version="0.92.5 (2060ec1f9f, 2020-04-08)">
  <metadata
     id="metadata30">
    <rdf:RDF>
      <cc:Work
         rdf:about="">
        <dc:format>image/svg+xml</dc:format>
        <dc:type
           rdf:resource="http://purl.org/dc/dcmitype/StillImage" />
      </cc:Work>
    </rdf:RDF>
  </metadata>
  <defs
     id="defs28" />
  <sodipodi:namedview
     pagecolor="#ffffff"
     bordercolor="#666666"
     borderopacity="1"
     objecttolerance="10"
     gridtolerance="10"
     guidetolerance="10"
     inkscape:pageopacity="0"
     inkscape:pageshadow="2"
     inkscape:window-width="783"
     inkscape:window-height="480"
     id="namedview26"
     showgrid="false"
     inkscape:zoom="4.9166667"
     inkscape:cx="9.981106"
     inkscape:cy="12.654208"
     inkscape:window-x="0"
     inkscape:window-y="28"
     inkscape:window-maximized="0"
     inkscape:current-layer="svg24" />
  <path
     opacity=".2"
     d="m8 41v2c0 1.108 0.892 2 2 2h28c1.108 0 2-0.892 2-2v-2c0 1.108-0.892 2-2 2h-28c-1.108 0-2-0.892-2-2z"
     id="path2" />
  <path
     fill="#e4e4e4"
     transform="matrix(0,-1,-1,0,0,0)"
     d="m-42-40h32c1.108 0 2 0.892 2 2v28c0 1.108-0.892 2-2 2h-32c-1.108 0-2-0.892-2-2v-28c0-1.108 0.892-2 2-2z"
     id="path4"
     style="fill:#4c566a;fill-opacity:1" />
  <rect
     fill="#e4e4e4"
     width="20"
     height="4"
     x="14"
     y="4"
     id="rect6" />
  <rect
     fill="#fff"
     opacity=".2"
     width="26"
     height="8"
     x="11"
     y="32"
     id="rect8" />
  <rect
     fill="#d23a2e"
     width="26"
     height="8"
     x="11"
     y="31"
     id="rect10"
     style="fill:#f8f8f8;fill-opacity:1" />
  <rect
     fill="#fff"
     opacity=".2"
     width="26"
     height="8"
     x="11"
     y="22"
     id="rect12" />
  <rect
     fill="#5d5d5d"
     width="26"
     height="8"
     x="11"
     y="21"
     id="rect14" />
  <rect
     fill="#fff"
     opacity=".2"
     width="26"
     height="8"
     x="11"
     y="12"
     id="rect16" />
  <rect
     fill="#5d5d5d"
     width="26"
     height="8"
     x="11"
     y="11"
     id="rect18" />
  <path
     fill="#fff"
     opacity=".2"
     d="m14 4v1h20v-1h-20z"
     id="path20" />
  <path
     fill="#fff"
     opacity=".1"
     d="m10 8c-1.108 0-2 0.892-2 2v1c0-1.108 0.892-2 2-2h28c1.108 0 2 0.892 2 2v-1c0-1.108-0.892-2-2-2h-28z"
     id="path22" />
</svg>
