<?xml version="1.0" encoding="UTF-8" standalone="no"?>
<svg
   xmlns:dc="http://purl.org/dc/elements/1.1/"
   xmlns:cc="http://creativecommons.org/ns#"
   xmlns:rdf="http://www.w3.org/1999/02/22-rdf-syntax-ns#"
   xmlns:svg="http://www.w3.org/2000/svg"
   xmlns="http://www.w3.org/2000/svg"
   xmlns:sodipodi="http://sodipodi.sourceforge.net/DTD/sodipodi-0.dtd"
   xmlns:inkscape="http://www.inkscape.org/namespaces/inkscape"
   width="48"
   height="48"
   version="1.1"
   id="svg18"
   sodipodi:docname="notification-display-brightness.svg"
   inkscape:version="0.92.5 (2060ec1f9f, 2020-04-08)">
  <metadata
     id="metadata24">
    <rdf:RDF>
      <cc:Work
         rdf:about="">
        <dc:format>image/svg+xml</dc:format>
        <dc:type
           rdf:resource="http://purl.org/dc/dcmitype/StillImage" />
      </cc:Work>
    </rdf:RDF>
  </metadata>
  <defs
     id="defs22" />
  <sodipodi:namedview
     pagecolor="#ffffff"
     bordercolor="#666666"
     borderopacity="1"
     objecttolerance="10"
     gridtolerance="10"
     guidetolerance="10"
     inkscape:pageopacity="0"
     inkscape:pageshadow="2"
     inkscape:window-width="783"
     inkscape:window-height="480"
     id="namedview20"
     showgrid="false"
     inkscape:zoom="4.9166667"
     inkscape:cx="21.228596"
     inkscape:cy="24.149982"
     inkscape:window-x="0"
     inkscape:window-y="28"
     inkscape:window-maximized="0"
     inkscape:current-layer="svg18" />
  <rect
     fill="#c4c4c4"
     width="32"
     height="24"
     x="-42"
     y="-36"
     rx="2"
     ry="2"
     transform="matrix(0,-1,-1,0,0,0)"
     id="rect2"
     style="fill:#4c566a;fill-opacity:1" />
  <rect
     fill="#c4c4c4"
     width="32"
     height="40"
     x="-38"
     y="-44"
     rx="2"
     ry="2"
     transform="matrix(0,-1,-1,0,0,0)"
     id="rect4"
     style="fill:#4c566a;fill-opacity:1" />
  <rect
     fill="#5d5d5d"
     width="26"
     height="34"
     x="-35"
     y="-41"
     rx="0"
     ry="0"
     transform="matrix(0,-1,-1,0,0,0)"
     id="rect6"
     style="fill:#5f697d;fill-opacity:1" />
  <path
     fill="#fff"
     opacity=".2"
     d="m6 6c-1.108 0-2 0.892-2 2v1c0-1.108 0.892-2 2-2h36c1.108 0 2 0.892 2 2v-1c0-1.108-0.892-2-2-2h-36z"
     id="path8" />
  <path
     opacity=".2"
     d="m12 40v1c0 1.108 0.892 2 2 2h20c1.108 0 2-0.892 2-2v-1c0 1.108-0.892 2-2 2h-20c-1.108 0-2-0.892-2-2z"
     id="path10" />
  <path
     opacity=".2"
     d="m4 36v1c0 1.108 0.892 2 2 2h36c1.108 0 2-0.892 2-2v-1c0 1.108-0.892 2-2 2h-36c-1.108 0-2-0.892-2-2z"
     id="path12" />
  <path
     opacity=".2"
     d="m24 11.685-3.3145 3.3145h-4.6855v4.6855l-3.3145 3.3145 3.314 3.314v4.6855h4.6855l3.314 3.314 3.314-3.314h4.686v-4.686l3.314-3.314-3.314-3.315v-4.6855h-4.6855l-3.314-3.315z"
     id="path14" />
  <path
     fill="#c4c4c4"
     d="m24 10.686-3.314 3.314h-4.686v4.686l-3.314 3.314 3.314 3.314v4.686h4.686l3.314 3.314 3.314-3.314h4.686v-4.686l3.314-3.314-3.314-3.314v-4.686h-4.686l-3.314-3.314z"
     id="path16"
     style="fill:#f6f6f6;fill-opacity:1" />
</svg>
