<?xml version="1.0" encoding="UTF-8" standalone="no"?>
<svg
   xmlns:dc="http://purl.org/dc/elements/1.1/"
   xmlns:cc="http://creativecommons.org/ns#"
   xmlns:rdf="http://www.w3.org/1999/02/22-rdf-syntax-ns#"
   xmlns:svg="http://www.w3.org/2000/svg"
   xmlns="http://www.w3.org/2000/svg"
   xmlns:sodipodi="http://sodipodi.sourceforge.net/DTD/sodipodi-0.dtd"
   xmlns:inkscape="http://www.inkscape.org/namespaces/inkscape"
   width="48"
   height="48"
   version="1.1"
   id="svg20"
   sodipodi:docname="state_running.svg"
   inkscape:version="0.92.5 (2060ec1f9f, 2020-04-08)">
  <metadata
     id="metadata26">
    <rdf:RDF>
      <cc:Work
         rdf:about="">
        <dc:format>image/svg+xml</dc:format>
        <dc:type
           rdf:resource="http://purl.org/dc/dcmitype/StillImage" />
      </cc:Work>
    </rdf:RDF>
  </metadata>
  <defs
     id="defs24" />
  <sodipodi:namedview
     pagecolor="#ffffff"
     bordercolor="#666666"
     borderopacity="1"
     objecttolerance="10"
     gridtolerance="10"
     guidetolerance="10"
     inkscape:pageopacity="0"
     inkscape:pageshadow="2"
     inkscape:window-width="783"
     inkscape:window-height="480"
     id="namedview22"
     showgrid="false"
     inkscape:zoom="4.9166667"
     inkscape:cx="18.444669"
     inkscape:cy="12.911358"
     inkscape:window-x="0"
     inkscape:window-y="28"
     inkscape:window-maximized="0"
     inkscape:current-layer="svg20" />
  <rect
     style="opacity:0.2"
     width="24"
     height="32"
     x="12"
     y="11"
     rx="2"
     ry="2"
     id="rect2" />
  <rect
     style="fill:#4c566a;fill-opacity:1"
     width="24"
     height="32"
     x="12"
     y="10"
     rx="2"
     ry="2"
     id="rect4" />
  <rect
     style="opacity:0.2"
     width="40"
     height="32"
     x="4"
     y="7"
     rx="2"
     ry="2"
     id="rect6" />
  <rect
     style="fill:#4c566a;fill-opacity:1"
     width="40"
     height="32"
     x="4"
     y="6"
     rx="2"
     ry="2"
     id="rect8" />
  <rect
     style="fill:#5f697d;fill-opacity:1"
     width="34"
     height="26"
     x="7"
     y="9"
     rx="0"
     ry="0"
     id="rect10" />
  <rect
     style="opacity:0.1;fill:#ffffff"
     width="34"
     height="1"
     x="7"
     y="35"
     id="rect12" />
  <path
     style="fill:#ffffff;opacity:0.1"
     d="M 6 6 C 4.892 6 4 6.892 4 8 L 4 9 C 4 7.892 4.892 7 6 7 L 42 7 C 43.108 7 44 7.892 44 9 L 44 8 C 44 6.892 43.108 6 42 6 L 6 6 z"
     id="path14" />
  <path
     style="opacity:0.2"
     d="M 19,17 V 29 L 30,23 Z"
     id="path16" />
  <path
     style="fill:#ffffff;fill-opacity:1"
     d="M 19,16 V 28 L 30,22 Z"
     id="path18" />
</svg>
