<svg xmlns="http://www.w3.org/2000/svg" width="16" height="16" viewBox="0 0 16 16">
 <defs>
  <style id="current-color-scheme" type="text/css">
   .ColorScheme-Text { color:#ffffff; } .ColorScheme-Highlight { color:#e8d0a3; } .ColorScheme-NeutralText { color:#f6eddc; } .ColorScheme-PositiveText { color:#f0e1c4; } .ColorScheme-NegativeText { color:#dfbd7e; }
  </style>
 </defs>
 <path style="fill:currentColor" class="ColorScheme-Text" d="m1 1v14h14v-14h-14zm2 2h2v2h-2v-2zm4 0h2v2h-2v-2zm4 0h2v2h-2v-2zm-8 4h2v2h-2v-2zm4 0h2v2h-2v-2zm4 0h2v2h-2v-2zm-8 4h2v2h-2v-2zm4 0h2v2h-2v-2zm4 0h2v2h-2v-2z"/>
</svg>
