<?xml version="1.0" encoding="UTF-8" standalone="no"?>
<svg
   xmlns:dc="http://purl.org/dc/elements/1.1/"
   xmlns:cc="http://creativecommons.org/ns#"
   xmlns:rdf="http://www.w3.org/1999/02/22-rdf-syntax-ns#"
   xmlns:svg="http://www.w3.org/2000/svg"
   xmlns="http://www.w3.org/2000/svg"
   xmlns:sodipodi="http://sodipodi.sourceforge.net/DTD/sodipodi-0.dtd"
   xmlns:inkscape="http://www.inkscape.org/namespaces/inkscape"
   width="32"
   height="32"
   version="1"
   id="svg50"
   sodipodi:docname="budget.svg"
   inkscape:version="0.92.5 (2060ec1f9f, 2020-04-08)">
  <metadata
     id="metadata56">
    <rdf:RDF>
      <cc:Work
         rdf:about="">
        <dc:format>image/svg+xml</dc:format>
        <dc:type
           rdf:resource="http://purl.org/dc/dcmitype/StillImage" />
      </cc:Work>
    </rdf:RDF>
  </metadata>
  <defs
     id="defs54" />
  <sodipodi:namedview
     pagecolor="#ffffff"
     bordercolor="#666666"
     borderopacity="1"
     objecttolerance="10"
     gridtolerance="10"
     guidetolerance="10"
     inkscape:pageopacity="0"
     inkscape:pageshadow="2"
     inkscape:window-width="783"
     inkscape:window-height="480"
     id="namedview52"
     showgrid="false"
     inkscape:zoom="5.2149125"
     inkscape:cx="6.3889019"
     inkscape:cy="15.536695"
     inkscape:window-x="0"
     inkscape:window-y="28"
     inkscape:window-maximized="0"
     inkscape:current-layer="svg50" />
  <rect
     style="fill:#4c566a;fill-opacity:1"
     width="13"
     height="4"
     x="2"
     y="26"
     rx="1"
     ry="1"
     id="rect2" />
  <rect
     style="fill:#4c566a;fill-opacity:1"
     width="13"
     height="4"
     x="2"
     y="22"
     rx="1"
     ry="1"
     id="rect4" />
  <rect
     style="fill:#4c566a;fill-opacity:1"
     width="13"
     height="4"
     x="2"
     y="18"
     rx="1"
     ry="1"
     id="rect6" />
  <rect
     style="fill:#4c566a;fill-opacity:1"
     width="13"
     height="4"
     x="2"
     y="14"
     rx="1"
     ry="1"
     id="rect8" />
  <rect
     style="fill:#4c566a;fill-opacity:1"
     width="13"
     height="4"
     x="2"
     y="10"
     rx="1"
     ry="1"
     id="rect10" />
  <rect
     style="fill:#4c566a;fill-opacity:1"
     width="13"
     height="4"
     x="2"
     y="6"
     rx="1"
     ry="1"
     id="rect12" />
  <rect
     style="fill:#4c566a;fill-opacity:1"
     width="13"
     height="4"
     x="2"
     y="2"
     rx="1"
     ry="1"
     id="rect14" />
  <rect
     style="fill:#4c566a;fill-opacity:1"
     width="13"
     height="4"
     x="17"
     y="26"
     rx="1"
     ry="1"
     id="rect16" />
  <rect
     style="fill:#4c566a;fill-opacity:1"
     width="13"
     height="4"
     x="17"
     y="22"
     rx="1"
     ry="1"
     id="rect18" />
  <rect
     style="fill:#4c566a;fill-opacity:1"
     width="13"
     height="4"
     x="17"
     y="18"
     rx="1"
     ry="1"
     id="rect20" />
  <rect
     style="fill:#4c566a;fill-opacity:1"
     width="13"
     height="4"
     x="17"
     y="14"
     rx="1"
     ry="1"
     id="rect22" />
  <path
     style="opacity:0.2"
     d="m 2,5 v 1 c 0,0.554 0.446,1 1,1 h 11 c 0.554,0 1,-0.446 1,-1 V 5 c 0,0.554 -0.446,1 -1,1 H 3 C 2.446,6 2,5.554 2,5 Z"
     id="path24" />
  <path
     style="opacity:0.2"
     d="m 2,9 v 1 c 0,0.554 0.446,1 1,1 h 11 c 0.554,0 1,-0.446 1,-1 V 9 c 0,0.554 -0.446,1 -1,1 H 3 C 2.446,10 2,9.554 2,9 Z"
     id="path26" />
  <path
     style="opacity:0.2"
     d="m 2,13 v 1 c 0,0.554 0.446,1 1,1 h 11 c 0.554,0 1,-0.446 1,-1 v -1 c 0,0.554 -0.446,1 -1,1 H 3 C 2.446,14 2,13.554 2,13 Z"
     id="path28" />
  <path
     style="opacity:0.2"
     d="m 2,17 v 1 c 0,0.554 0.446,1 1,1 h 11 c 0.554,0 1,-0.446 1,-1 v -1 c 0,0.554 -0.446,1 -1,1 H 3 C 2.446,18 2,17.554 2,17 Z"
     id="path30" />
  <path
     style="opacity:0.2"
     d="m 2,21 v 1 c 0,0.554 0.446,1 1,1 h 11 c 0.554,0 1,-0.446 1,-1 v -1 c 0,0.554 -0.446,1 -1,1 H 3 C 2.446,22 2,21.554 2,21 Z"
     id="path32" />
  <path
     style="opacity:0.2"
     d="m 2,25 v 1 c 0,0.554 0.446,1 1,1 h 11 c 0.554,0 1,-0.446 1,-1 v -1 c 0,0.554 -0.446,1 -1,1 H 3 C 2.446,26 2,25.554 2,25 Z"
     id="path34" />
  <path
     style="opacity:0.2"
     d="m 2,29 v 1 c 0,0.554 0.446,1 1,1 h 11 c 0.554,0 1,-0.446 1,-1 v -1 c 0,0.554 -0.446,1 -1,1 H 3 C 2.446,30 2,29.554 2,29 Z"
     id="path36" />
  <path
     style="opacity:0.2"
     d="m 17,17 v 1 c 0,0.554 0.446,1 1,1 h 11 c 0.554,0 1,-0.446 1,-1 v -1 c 0,0.554 -0.446,1 -1,1 H 18 c -0.554,0 -1,-0.446 -1,-1 z"
     id="path38" />
  <path
     style="opacity:0.2"
     d="m 17,21 v 1 c 0,0.554 0.446,1 1,1 h 11 c 0.554,0 1,-0.446 1,-1 v -1 c 0,0.554 -0.446,1 -1,1 H 18 c -0.554,0 -1,-0.446 -1,-1 z"
     id="path40" />
  <path
     style="opacity:0.2"
     d="m 17,25 v 1 c 0,0.554 0.446,1 1,1 h 11 c 0.554,0 1,-0.446 1,-1 v -1 c 0,0.554 -0.446,1 -1,1 H 18 c -0.554,0 -1,-0.446 -1,-1 z"
     id="path42" />
  <path
     style="opacity:0.2"
     d="m 17,29 v 1 c 0,0.554 0.446,1 1,1 h 11 c 0.554,0 1,-0.446 1,-1 v -1 c 0,0.554 -0.446,1 -1,1 H 18 c -0.554,0 -1,-0.446 -1,-1 z"
     id="path44" />
  <path
     style="opacity:0.2;fill:#ffffff"
     d="M 3 2 C 2.446 2 2 2.446 2 3 L 2 4 C 2 3.446 2.446 3 3 3 L 14 3 C 14.554 3 15 3.446 15 4 L 15 3 C 15 2.446 14.554 2 14 2 L 3 2 z"
     id="path46" />
  <path
     style="opacity:0.2;fill:#ffffff"
     d="m 18,14 c -0.554,0 -1,0.446 -1,1 v 1 c 0,-0.554 0.446,-1 1,-1 h 11 c 0.554,0 1,0.446 1,1 v -1 c 0,-0.554 -0.446,-1 -1,-1 z"
     id="path48" />
</svg>
