<?xml version="1.0" encoding="UTF-8" standalone="no"?>
<svg
   xmlns:dc="http://purl.org/dc/elements/1.1/"
   xmlns:cc="http://creativecommons.org/ns#"
   xmlns:rdf="http://www.w3.org/1999/02/22-rdf-syntax-ns#"
   xmlns:svg="http://www.w3.org/2000/svg"
   xmlns="http://www.w3.org/2000/svg"
   xmlns:sodipodi="http://sodipodi.sourceforge.net/DTD/sodipodi-0.dtd"
   xmlns:inkscape="http://www.inkscape.org/namespaces/inkscape"
   width="32"
   height="32"
   version="1"
   id="svg34"
   sodipodi:docname="categories.svg"
   inkscape:version="0.92.5 (2060ec1f9f, 2020-04-08)">
  <metadata
     id="metadata40">
    <rdf:RDF>
      <cc:Work
         rdf:about="">
        <dc:format>image/svg+xml</dc:format>
        <dc:type
           rdf:resource="http://purl.org/dc/dcmitype/StillImage" />
      </cc:Work>
    </rdf:RDF>
  </metadata>
  <defs
     id="defs38" />
  <sodipodi:namedview
     pagecolor="#ffffff"
     bordercolor="#666666"
     borderopacity="1"
     objecttolerance="10"
     gridtolerance="10"
     guidetolerance="10"
     inkscape:pageopacity="0"
     inkscape:pageshadow="2"
     inkscape:window-width="783"
     inkscape:window-height="480"
     id="namedview36"
     showgrid="false"
     inkscape:zoom="10.429825"
     inkscape:cx="9.66913"
     inkscape:cy="21.757586"
     inkscape:window-x="0"
     inkscape:window-y="28"
     inkscape:window-maximized="0"
     inkscape:current-layer="svg34" />
  <rect
     style="opacity:0.2"
     width="20"
     height="12"
     x="1"
     y="9"
     rx="1"
     ry="1"
     id="rect2" />
  <path
     style="fill:#5f697d;fill-opacity:1"
     d="m 1,16.000001 c 0,0.554 0.446,1 1,1 h 18 c 0.554,0 1,-0.446 1,-1 v -11 c 0,-0.554 -0.446,-1 -1,-1 H 10 v -1 c 0,-0.554 -0.446,-1 -1,-1 H 2 c -0.554,0 -1,0.446 -1,1"
     id="path4" />
  <rect
     style="opacity:0.2"
     width="20"
     height="12"
     x="1"
     y="7"
     rx="1"
     ry="1"
     id="rect6" />
  <rect
     style="fill:#e4e4e4"
     width="16"
     height="8"
     x="3"
     y="6"
     rx="1"
     ry="1"
     id="rect8" />
  <rect
     style="fill:#5f697d;fill-opacity:1"
     width="20"
     height="12"
     x="1"
     y="8"
     rx="1"
     ry="1"
     id="rect10" />
  <path
     style="opacity:0.1;fill:#ffffff"
     d="M 2,2 C 1.446,2 1,2.446 1,3 V 4 C 1,3.446 1.446,3 2,3 h 7 c 0.554,0 1,0.446 1,1 V 3 C 10,2.446 9.554,2 9,2 Z m 8,2 v 1 h 10 c 0.554,0 1,0.446 1,1 V 5 C 21,4.446 20.554,4 20,4 Z"
     id="path12" />
  <rect
     style="opacity:0.2"
     width="20"
     height="12"
     x="10"
     y="19"
     rx="1"
     ry="1"
     id="rect14" />
  <path
     style="fill:#4c566a;fill-opacity:1"
     d="m 10,26.000001 c 0,0.554 0.446,1 1,1 h 18 c 0.554,0 1,-0.446 1,-1 v -11 c 0,-0.554 -0.446,-1 -1,-1 H 19 v -1 c 0,-0.554 -0.446,-1 -1,-1 h -7 c -0.554,0 -1,0.446 -1,1"
     id="path16" />
  <rect
     style="opacity:0.2"
     width="20"
     height="12"
     x="10"
     y="17"
     rx="1"
     ry="1"
     id="rect18" />
  <rect
     style="fill:#e4e4e4"
     width="16"
     height="8"
     x="12"
     y="16"
     rx="1"
     ry="1"
     id="rect20" />
  <rect
     style="fill:#4c566a;fill-opacity:1"
     width="20"
     height="12"
     x="10"
     y="18"
     rx="1"
     ry="1"
     id="rect22" />
  <path
     style="opacity:0.1;fill:#ffffff"
     d="m 11,12 c -0.554,0 -1,0.446 -1,1 v 1 c 0,-0.554 0.446,-1 1,-1 h 7 c 0.554,0 1,0.446 1,1 v -1 c 0,-0.554 -0.446,-1 -1,-1 z m 8,2 v 1 h 10 c 0.554,0 1,0.446 1,1 v -1 c 0,-0.554 -0.446,-1 -1,-1 z"
     id="path24" />
  <path
     style="opacity:0.2"
     d="m 6,12 a 3,3 0 0 0 -3,3 3,3 0 0 0 3,3 3,3 0 0 0 2,-0.767578 V 18 H 9 V 15 12 H 8 v 0.769531 A 3,3 0 0 0 6,12 Z m 0,1 a 2,2 0 0 1 2,2 2,2 0 0 1 -2,2 2,2 0 0 1 -2,-2 2,2 0 0 1 2,-2 z"
     id="path26" />
  <path
     style="fill:#ffffff"
     d="m 6,11 a 3,3 0 0 0 -3,3 3,3 0 0 0 3,3 3,3 0 0 0 2,-0.767578 V 17 H 9 V 14 11 H 8 v 0.769531 A 3,3 0 0 0 6,11 Z m 0,1 a 2,2 0 0 1 2,2 2,2 0 0 1 -2,2 2,2 0 0 1 -2,-2 2,2 0 0 1 2,-2 z"
     id="path28" />
  <path
     style="opacity:0.2"
     d="m 12,21 v 4.5 2.5 h 1 V 27.498047 A 2.5,2.5 0 0 0 14.5,28 2.5,2.5 0 0 0 17,25.5 2.5,2.5 0 0 0 14.5,23 2.5,2.5 0 0 0 13,23.503906 V 21 Z m 2.5,3 A 1.5,1.5 0 0 1 16,25.5 1.5,1.5 0 0 1 14.5,27 1.5,1.5 0 0 1 13,25.5 1.5,1.5 0 0 1 14.5,24 Z"
     id="path30" />
  <path
     style="fill:#ffffff"
     d="m 12,20 v 4.5 2.5 h 1 V 26.498047 A 2.5,2.5 0 0 0 14.5,27 2.5,2.5 0 0 0 17,24.5 2.5,2.5 0 0 0 14.5,22 2.5,2.5 0 0 0 13,22.503906 V 20 Z m 2.5,3 A 1.5,1.5 0 0 1 16,24.5 1.5,1.5 0 0 1 14.5,26 1.5,1.5 0 0 1 13,24.5 1.5,1.5 0 0 1 14.5,23 Z"
     id="path32" />
</svg>
