<?xml version="1.0" encoding="UTF-8" standalone="no"?>
<svg
   xmlns:dc="http://purl.org/dc/elements/1.1/"
   xmlns:cc="http://creativecommons.org/ns#"
   xmlns:rdf="http://www.w3.org/1999/02/22-rdf-syntax-ns#"
   xmlns:svg="http://www.w3.org/2000/svg"
   xmlns="http://www.w3.org/2000/svg"
   xmlns:sodipodi="http://sodipodi.sourceforge.net/DTD/sodipodi-0.dtd"
   xmlns:inkscape="http://www.inkscape.org/namespaces/inkscape"
   width="32"
   height="32"
   version="1.1"
   id="svg12"
   sodipodi:docname="investment.svg"
   inkscape:version="0.92.5 (2060ec1f9f, 2020-04-08)">
  <metadata
     id="metadata18">
    <rdf:RDF>
      <cc:Work
         rdf:about="">
        <dc:format>image/svg+xml</dc:format>
        <dc:type
           rdf:resource="http://purl.org/dc/dcmitype/StillImage" />
      </cc:Work>
    </rdf:RDF>
  </metadata>
  <defs
     id="defs16" />
  <sodipodi:namedview
     pagecolor="#ffffff"
     bordercolor="#666666"
     borderopacity="1"
     objecttolerance="10"
     gridtolerance="10"
     guidetolerance="10"
     inkscape:pageopacity="0"
     inkscape:pageshadow="2"
     inkscape:window-width="783"
     inkscape:window-height="480"
     id="namedview14"
     showgrid="false"
     inkscape:zoom="7.375"
     inkscape:cx="16"
     inkscape:cy="16"
     inkscape:window-x="0"
     inkscape:window-y="28"
     inkscape:window-maximized="0"
     inkscape:current-layer="svg12" />
  <circle
     style="opacity:0.2"
     cx="16"
     cy="17"
     r="14"
     id="circle2" />
  <circle
     style="fill:#4c566a;fill-opacity:1"
     cx="16"
     cy="16"
     r="14"
     id="circle4" />
  <path
     style="opacity:0.2;fill:#ffffff"
     d="M 16,2 A 14,14 0 0 0 2,16 14,14 0 0 0 2.0215,16.586 14,14 0 0 1 16,3 14,14 0 0 1 29.979,16.414 14,14 0 0 0 30,16 14,14 0 0 0 16,2 Z"
     id="path6" />
  <path
     style="opacity:0.2"
     d="M 22.91227,9.0066756 A 0.92466424,0.93414414 0 0 0 22.113442,10.40902 l 1.662109,2.908202 -3.070312,1.773437 -0.574219,-0.99414 a 1.0001,1.0001 0 0 0 -1.367187,-0.367188 l -6.646485,3.837891 -0.726562,-1.257813 a 1.0001,1.0001 0 0 0 -1.365235,-0.365234 l -5.5253903,3.189453 a 1.0001607,1.0001607 0 1 0 1,1.732422 l 4.6601563,-2.689453 0.724609,1.255859 a 1.0001,1.0001 0 0 0 1.367188,0.367188 l 6.646484,-3.837891 0.574219,0.996094 a 1.0001,1.0001 0 0 0 1.367187,0.365234 l 3.927735,-2.269531 1.419922,2.484375 a 0.92466424,0.93414414 0 0 0 1.601562,0.002 l 4.076172,-7.130858 A 0.92466424,0.93414414 0 0 0 31.838051,9.4324568 0.92466424,0.93414414 0 0 0 31.064614,9.0066756 Z"
     id="path8" />
  <path
     style="fill:#ffffff"
     d="m 22.91227,8.0066753 a 0.92466424,0.93414414 0 0 0 -0.798828,1.402344 l 1.662109,2.9082027 -3.070312,1.773437 -0.574219,-0.99414 a 1.0001,1.0001 0 0 0 -1.367187,-0.367188 l -6.646485,3.837891 -0.726562,-1.257813 a 1.0001,1.0001 0 0 0 -1.365235,-0.365234 l -5.5253903,3.189453 a 1.0001607,1.0001607 0 1 0 1,1.732422 l 4.6601563,-2.689453 0.724609,1.255859 a 1.0001,1.0001 0 0 0 1.367188,0.367188 l 6.646484,-3.837891 0.574219,0.996094 a 1.0001,1.0001 0 0 0 1.367187,0.365234 l 3.927735,-2.269531 1.419922,2.484375 a 0.92466424,0.93414414 0 0 0 1.601562,0.002 L 31.865395,9.4090663 A 0.92466424,0.93414414 0 0 0 31.838051,8.4324565 0.92466424,0.93414414 0 0 0 31.064614,8.0066753 Z"
     id="path10" />
</svg>
