<?xml version="1.0" encoding="UTF-8" standalone="no"?>
<svg
   xmlns:dc="http://purl.org/dc/elements/1.1/"
   xmlns:cc="http://creativecommons.org/ns#"
   xmlns:rdf="http://www.w3.org/1999/02/22-rdf-syntax-ns#"
   xmlns:svg="http://www.w3.org/2000/svg"
   xmlns="http://www.w3.org/2000/svg"
   xmlns:sodipodi="http://sodipodi.sourceforge.net/DTD/sodipodi-0.dtd"
   xmlns:inkscape="http://www.inkscape.org/namespaces/inkscape"
   width="32"
   height="32"
   version="1"
   id="svg16"
   sodipodi:docname="schedule.svg"
   inkscape:version="0.92.5 (2060ec1f9f, 2020-04-08)">
  <metadata
     id="metadata22">
    <rdf:RDF>
      <cc:Work
         rdf:about="">
        <dc:format>image/svg+xml</dc:format>
        <dc:type
           rdf:resource="http://purl.org/dc/dcmitype/StillImage" />
      </cc:Work>
    </rdf:RDF>
  </metadata>
  <defs
     id="defs20" />
  <sodipodi:namedview
     pagecolor="#ffffff"
     bordercolor="#666666"
     borderopacity="1"
     objecttolerance="10"
     gridtolerance="10"
     guidetolerance="10"
     inkscape:pageopacity="0"
     inkscape:pageshadow="2"
     inkscape:window-width="783"
     inkscape:window-height="480"
     id="namedview18"
     showgrid="false"
     inkscape:zoom="7.375"
     inkscape:cx="15.542441"
     inkscape:cy="21.051586"
     inkscape:window-x="0"
     inkscape:window-y="28"
     inkscape:window-maximized="0"
     inkscape:current-layer="svg16" />
  <path
     style="opacity:.2"
     d="m16 3c-7.756 0-14 6.244-14 14s6.244 14 14 14 14-6.244 14-14-6.244-14-14-14z"
     id="path2" />
  <path
     style="fill:#5f697d;fill-opacity:1"
     d="m16 2c-7.756 0-14 6.244-14 14s6.244 14 14 14 14-6.244 14-14-6.244-14-14-14z"
     id="path4" />
  <path
     style="fill:#4c566a;fill-opacity:1"
     d="m16 4.0000001c6.684706 0 12 5.315294 12 11.9999999 0 6.684706-5.315294 12-12 12-6.6847059 0-12-5.315294-12-12 0-6.6847059 5.3152941-11.9999999 12-11.9999999z"
     id="path6" />
  <path
     style="opacity:.2;fill:#ffffff"
     d="m16 2c-7.756 0-14 6.244-14 14 0 0.168842 0.0195214 0.33264 0.0253906 0.5 0.263742-7.5205675 6.3874512-13.5 13.9746094-13.5 7.587158 0 13.710867 5.9794325 13.974609 13.5 0.00587-0.16736 0.025391-0.331158 0.025391-0.5 0-7.756-6.244-14-14-14z"
     id="path8" />
  <path
     style="opacity:0.2"
     d="M 16,8.9999998 A 8,8 0 0 0 8.5879,14 H 7 L 6,16 H 8.0723 A 8,8 0 0 0 8,17 L 7,19 H 8.2656 A 8,8 0 0 0 16,25 8,8 0 0 0 22.244,22 H 19.311 A 6,6 0 0 1 16,23 6,6 0 0 1 10.35,19 H 17 l 1,-2 h -8 a 6,6 0 0 1 0.09,-1 H 18 l 1,-2 H 10.811 A 6,6 0 0 1 16,11 a 6,6 0 0 1 3.309,1 h 2.927 A 8,8 0 0 0 16,8.9999998 Z"
     id="path10" />
  <path
     style="fill:#ffffff;fill-opacity:1"
     d="M 16,7.9999998 A 8,8 0 0 0 8.5879,13 H 7 L 6,15 H 8.0723 A 8,8 0 0 0 8,16 L 7,18 H 8.2656 A 8,8 0 0 0 16,24 8,8 0 0 0 22.244,21 H 19.311 A 6,6 0 0 1 16,22 6,6 0 0 1 10.35,18 H 17 l 1,-2 h -8 a 6,6 0 0 1 0.09,-1 H 18 l 1,-2 H 10.811 A 6,6 0 0 1 16,10 a 6,6 0 0 1 3.309,1 h 2.927 A 8,8 0 0 0 16,7.9999998 Z"
     id="path12" />
  <path
     style="opacity:0.1"
     d="M 4.0253906,15.5 C 4.0186613,15.667167 4,15.831019 4,16 c 0,6.684706 5.3152941,12 12,12 6.684706,0 12,-5.315294 12,-12 0,-0.168981 -0.01866,-0.332833 -0.02539,-0.5 C 27.715133,21.945784 22.515725,27 16,27 9.4842747,27 4.2848672,21.945784 4.0253906,15.5 Z"
     id="path14" />
</svg>
