<?xml version="1.0" encoding="UTF-8" standalone="no"?>
<svg
   xmlns:dc="http://purl.org/dc/elements/1.1/"
   xmlns:cc="http://creativecommons.org/ns#"
   xmlns:rdf="http://www.w3.org/1999/02/22-rdf-syntax-ns#"
   xmlns:svg="http://www.w3.org/2000/svg"
   xmlns="http://www.w3.org/2000/svg"
   xmlns:sodipodi="http://sodipodi.sourceforge.net/DTD/sodipodi-0.dtd"
   xmlns:inkscape="http://www.inkscape.org/namespaces/inkscape"
   width="16"
   height="16"
   viewBox="0 0 16 16"
   version="1.1"
   id="svg7"
   sodipodi:docname="bus-usb.svg"
   inkscape:version="0.92.5 (2060ec1f9f, 2020-04-08)">
  <metadata
     id="metadata11">
    <rdf:RDF>
      <cc:Work
         rdf:about="">
        <dc:format>image/svg+xml</dc:format>
        <dc:type
           rdf:resource="http://purl.org/dc/dcmitype/StillImage" />
      </cc:Work>
    </rdf:RDF>
  </metadata>
  <sodipodi:namedview
     pagecolor="#ffffff"
     bordercolor="#666666"
     borderopacity="1"
     objecttolerance="10"
     gridtolerance="10"
     guidetolerance="10"
     inkscape:pageopacity="0"
     inkscape:pageshadow="2"
     inkscape:window-width="640"
     inkscape:window-height="480"
     id="namedview9"
     showgrid="false"
     inkscape:zoom="14.75"
     inkscape:cx="8"
     inkscape:cy="8"
     inkscape:current-layer="svg7" />
  <defs
     id="defs3">
    <style
       id="current-color-scheme"
       type="text/css">
   .ColorScheme-Text { color:#dfdfdf; } .ColorScheme-Highlight { color:#4285f4; } .ColorScheme-NeutralText { color:#ff9800; } .ColorScheme-PositiveText { color:#4caf50; } .ColorScheme-NegativeText { color:#f44336; }
  </style>
  </defs>
  <path
     style="fill:#c3c7d1;fill-opacity:1"
     class="ColorScheme-Text"
     d="M 8 0 L 5.5 4 L 7 4 L 7 9 L 4 9 L 4 7.7285156 C 4.61771 7.3718856 4.99874 6.7133 5 6 C 5 4.8954 4.10457 4 3 4 C 1.89543 4 1 4.89543 1 6 C 1.00056 6.71397 1.38169 7.3734688 2 7.7304688 L 2 9 C 2 11 4 11 4 11 L 7 11 L 7 12.271484 C 6.38229 12.628114 6.00126 13.2867 6 14 C 6 15.1046 6.89543 16 8 16 C 9.10457 16 10 15.10457 10 14 C 9.99944 13.28603 9.61831 12.626531 9 12.269531 L 9 11 L 12 11 C 12 11 14 11 14 9 L 14 8 C 14 8 15.125 7.8125 15 7 L 15 5 C 15.125 3.875 14 4 14 4 L 12 4 C 10.9375 4 11 5 11 5 L 11 7 C 11 8 12 8 12 8 L 12 9 L 9 9 L 9 4 L 10.5 4 L 8 0 z"
     id="path5" />
</svg>
