<?xml version="1.0" encoding="UTF-8" standalone="no"?>
<svg
   xmlns:dc="http://purl.org/dc/elements/1.1/"
   xmlns:cc="http://creativecommons.org/ns#"
   xmlns:rdf="http://www.w3.org/1999/02/22-rdf-syntax-ns#"
   xmlns:svg="http://www.w3.org/2000/svg"
   xmlns="http://www.w3.org/2000/svg"
   xmlns:sodipodi="http://sodipodi.sourceforge.net/DTD/sodipodi-0.dtd"
   xmlns:inkscape="http://www.inkscape.org/namespaces/inkscape"
   width="24"
   height="24"
   version="1"
   id="svg20"
   sodipodi:docname="avatar-default.svg"
   inkscape:version="0.92.5 (2060ec1f9f, 2020-04-08)">
  <metadata
     id="metadata26">
    <rdf:RDF>
      <cc:Work
         rdf:about="">
        <dc:format>image/svg+xml</dc:format>
        <dc:type
           rdf:resource="http://purl.org/dc/dcmitype/StillImage" />
      </cc:Work>
    </rdf:RDF>
  </metadata>
  <defs
     id="defs24" />
  <sodipodi:namedview
     pagecolor="#ffffff"
     bordercolor="#666666"
     borderopacity="1"
     objecttolerance="10"
     gridtolerance="10"
     guidetolerance="10"
     inkscape:pageopacity="0"
     inkscape:pageshadow="2"
     inkscape:window-width="960"
     inkscape:window-height="498"
     id="namedview22"
     showgrid="false"
     inkscape:zoom="9.8333333"
     inkscape:cx="-7.8305085"
     inkscape:cy="12"
     inkscape:window-x="0"
     inkscape:window-y="28"
     inkscape:window-maximized="0"
     inkscape:current-layer="svg20" />
  <circle
     style="fill:#4c566a;fill-opacity:1"
     cx="12"
     cy="12"
     r="10"
     id="circle2" />
  <path
     style="opacity:0.2;fill:#ffffff"
     d="m 12,2 a 10,10 0 0 0 -10,10 10,10 0 0 0 0.01075,0.291 10,10 0 0 1 9.989,-9.791 10,10 0 0 1 9.9895,9.709 10,10 0 0 0 0.0105,-0.209 10,10 0 0 0 -10,-10 z"
     id="path4" />
  <path
     style="opacity:0.2"
     d="M 21.9895,12.209 A 10,10 0 0 1 12,22 10,10 0 0 1 2.011,12.291 10,10 0 0 0 2,12.5 a 10,10 0 0 0 10,10 10,10 0 0 0 10,-10 10,10 0 0 0 -0.0105,-0.291 z"
     id="path6" />
  <g
     style="opacity:0.2"
     transform="translate(0,0.5)"
     id="g12">
    <path
       d="m 12,5 c -1.6572,0 -3,1.3434 -3,3 0,1.6566 1.3428,3 3,3 1.6572,0 3,-1.3434 3,-3 0,-1.6566 -1.3428,-3 -3,-3 z"
       id="path8" />
    <path
       d="m 12,12.000001 c -4.9995,0.0032 -5,3.446153 -5,3.446153 v 1.4 C 7,16.846154 7.923071,19 12,19 c 4.076929,0 5,-2.153846 5,-2.153846 v -1.4 c 0,0 0,-3.448307 -4.999,-3.446153 z"
       id="path10" />
  </g>
  <g
     id="g18">
    <path
       style="fill:#ffffff"
       d="m 12,5 c -1.6572,0 -3,1.3434 -3,3 0,1.6566 1.3428,3 3,3 1.6572,0 3,-1.3434 3,-3 0,-1.6566 -1.3428,-3 -3,-3 z"
       id="path14" />
    <path
       style="fill:#ffffff"
       d="m 12,12.000001 c -4.9995,0.0032 -5,3.446153 -5,3.446153 v 1.4 C 7,16.846154 7.923071,19 12,19 c 4.076929,0 5,-2.153846 5,-2.153846 v -1.4 c 0,0 0,-3.448307 -4.999,-3.446153 z"
       id="path16" />
  </g>
</svg>
