<?xml version="1.0" encoding="UTF-8" standalone="no"?>
<svg
   xmlns:dc="http://purl.org/dc/elements/1.1/"
   xmlns:cc="http://creativecommons.org/ns#"
   xmlns:rdf="http://www.w3.org/1999/02/22-rdf-syntax-ns#"
   xmlns:svg="http://www.w3.org/2000/svg"
   xmlns="http://www.w3.org/2000/svg"
   xmlns:sodipodi="http://sodipodi.sourceforge.net/DTD/sodipodi-0.dtd"
   xmlns:inkscape="http://www.inkscape.org/namespaces/inkscape"
   width="22"
   height="22"
   version="1.1"
   id="svg22"
   sodipodi:docname="state_running.svg"
   inkscape:version="0.92.5 (2060ec1f9f, 2020-04-08)">
  <metadata
     id="metadata28">
    <rdf:RDF>
      <cc:Work
         rdf:about="">
        <dc:format>image/svg+xml</dc:format>
        <dc:type
           rdf:resource="http://purl.org/dc/dcmitype/StillImage" />
      </cc:Work>
    </rdf:RDF>
  </metadata>
  <defs
     id="defs26" />
  <sodipodi:namedview
     pagecolor="#ffffff"
     bordercolor="#666666"
     borderopacity="1"
     objecttolerance="10"
     gridtolerance="10"
     guidetolerance="10"
     inkscape:pageopacity="0"
     inkscape:pageshadow="2"
     inkscape:window-width="783"
     inkscape:window-height="480"
     id="namedview24"
     showgrid="false"
     inkscape:zoom="10.727273"
     inkscape:cx="8.0251815"
     inkscape:cy="7.1290425"
     inkscape:current-layer="g20"
     inkscape:window-x="0"
     inkscape:window-y="28"
     inkscape:window-maximized="0" />
  <g
     transform="translate(-1,-1)"
     id="g20">
    <rect
       style="opacity:0.2"
       width="12"
       height="16"
       x="6"
       y="5.5"
       rx="1"
       ry="1"
       id="rect2" />
    <rect
       style="fill:#4c566a;fill-opacity:1"
       width="12"
       height="16"
       x="6"
       y="5"
       rx="1"
       ry="1"
       id="rect4" />
    <rect
       style="opacity:0.2"
       width="20"
       height="16"
       x="2"
       y="3.5"
       rx="1"
       ry="1"
       id="rect6" />
    <rect
       style="fill:#4c566a;fill-opacity:1"
       width="20"
       height="16"
       x="2"
       y="3"
       rx="1"
       ry="1"
       id="rect8" />
    <rect
       style="fill:#5f697d;fill-opacity:1"
       width="16"
       height="12"
       x="4"
       y="5"
       rx="0"
       ry="0"
       id="rect10" />
    <rect
       style="opacity:0.1;fill:#ffffff"
       width="16"
       height=".5"
       x="4"
       y="17"
       id="rect12" />
    <path
       style="opacity:0.1;fill:#ffffff"
       d="M 3,3 C 2.446,3 2,3.446 2,4 V 4.5 C 2,3.946 2.446,3.5 3,3.5 H 21 C 21.554,3.5 22,3.946 22,4.5 V 4 C 22,3.446 21.554,3 21,3 Z"
       id="path14" />
    <path
       style="opacity:0.2"
       d="M 9,7.5 V 15.5 L 16,11.5 Z"
       id="path16" />
    <path
       style="fill:#ffffff;fill-opacity:1"
       d="M 9,7 V 15 L 16,11 Z"
       id="path18" />
  </g>
</svg>
