<?xml version="1.0" encoding="UTF-8" standalone="no"?>
<svg
   xmlns:dc="http://purl.org/dc/elements/1.1/"
   xmlns:cc="http://creativecommons.org/ns#"
   xmlns:rdf="http://www.w3.org/1999/02/22-rdf-syntax-ns#"
   xmlns:svg="http://www.w3.org/2000/svg"
   xmlns="http://www.w3.org/2000/svg"
   xmlns:sodipodi="http://sodipodi.sourceforge.net/DTD/sodipodi-0.dtd"
   xmlns:inkscape="http://www.inkscape.org/namespaces/inkscape"
   width="22"
   height="22"
   version="1"
   id="svg12"
   sodipodi:docname="tdenetworkmanager_disabled.svg"
   inkscape:version="0.92.5 (2060ec1f9f, 2020-04-08)">
  <metadata
     id="metadata18">
    <rdf:RDF>
      <cc:Work
         rdf:about="">
        <dc:format>image/svg+xml</dc:format>
        <dc:type
           rdf:resource="http://purl.org/dc/dcmitype/StillImage" />
      </cc:Work>
    </rdf:RDF>
  </metadata>
  <defs
     id="defs16" />
  <sodipodi:namedview
     pagecolor="#ffffff"
     bordercolor="#666666"
     borderopacity="1"
     objecttolerance="10"
     gridtolerance="10"
     guidetolerance="10"
     inkscape:pageopacity="0"
     inkscape:pageshadow="2"
     inkscape:window-width="765"
     inkscape:window-height="480"
     id="namedview14"
     showgrid="false"
     inkscape:zoom="7.5853273"
     inkscape:cx="0.99557072"
     inkscape:cy="8.5594166"
     inkscape:current-layer="svg12"
     inkscape:window-x="0"
     inkscape:window-y="28"
     inkscape:window-maximized="0" />
  <path
     style="opacity:0.2"
     d="M 1.0410156 6.2519531 A 0.65615963 0.72622729 0 0 0 1.328125 7.1289062 L 4.671875 9.265625 L 8.015625 11.402344 A 0.65615963 0.72622729 0 0 0 9 10.773438 L 9 10.273438 A 0.65615963 0.72622729 0 0 1 8.015625 10.902344 L 4.671875 8.765625 L 1.328125 6.6289062 A 0.65615963 0.72622729 0 0 1 1.0410156 6.2519531 z M 20 7 C 20 7.554 19.554 8 19 8 L 9 8 L 9 8.5 L 19 8.5 C 19.554 8.5 20 8.054 20 7.5 L 20 7 z M 19.958984 16.251953 A 0.65615963 0.72622729 0 0 1 19.671875 16.628906 L 16.328125 18.765625 L 12.984375 20.902344 A 0.65615963 0.72622729 0 0 1 12 20.273438 L 12 20.773438 A 0.65615963 0.72622729 0 0 0 12.984375 21.402344 L 16.328125 19.265625 L 19.671875 17.128906 A 0.65615963 0.72622729 0 0 0 19.958984 16.251953 z M 1 17 L 1 17.5 C 1 18.054 1.446 18.5 2 18.5 L 12 18.5 L 12 18 L 2 18 C 1.446 18 1 17.554 1 17 z"
     id="path2" />
  <path
     style="opacity:1;fill:#4c566a;fill-opacity:1"
     d="M 8.328125 1 A 0.65615963 0.72622729 0 0 0 8.015625 1.0976562 L 4.671875 3.234375 L 1.328125 5.3710938 A 0.65615963 0.72622729 0 0 0 1.328125 6.6289062 L 4.671875 8.765625 L 8.015625 10.902344 A 0.65615963 0.72622729 0 0 0 9 10.273438 L 9 8 L 19 8 C 19.554 8 20 7.554 20 7 L 20 5 C 20 4.446 19.554 4 19 4 L 9 4 L 9 1.7265625 A 0.65615963 0.72622729 0 0 0 8.328125 1 z M 12.671875 11 A 0.65615963 0.72622729 0 0 0 12 11.726562 L 12 14 L 2 14 C 1.446 14 1 14.446 1 15 L 1 17 C 1 17.554 1.446 18 2 18 L 12 18 L 12 20.273438 A 0.65615963 0.72622729 0 0 0 12.984375 20.902344 L 16.328125 18.765625 L 19.671875 16.628906 A 0.65615963 0.72622729 0 0 0 19.671875 15.371094 L 16.328125 13.234375 L 12.984375 11.097656 A 0.65615963 0.72622729 0 0 0 12.671875 11 z"
     id="path4" />
  <path
     style="opacity:0.1;fill:#ffffff"
     d="M 8.328125 1 A 0.65615963 0.72622729 0 0 0 8.015625 1.0976562 L 4.671875 3.234375 L 1.328125 5.3710938 A 0.65615963 0.72622729 0 0 0 1.0410156 6.25 A 0.65615963 0.72622729 0 0 1 1.328125 5.8710938 L 4.671875 3.734375 L 8.015625 1.5976562 A 0.65615963 0.72622729 0 0 1 8.328125 1.5 A 0.65615963 0.72622729 0 0 1 9 2.2265625 L 9 1.7265625 A 0.65615963 0.72622729 0 0 0 8.328125 1 z M 9 4 L 9 4.5 L 19 4.5 C 19.554 4.5 20 4.946 20 5.5 L 20 5 C 20 4.446 19.554 4 19 4 L 9 4 z M 12.671875 11 A 0.65615963 0.72622729 0 0 0 12 11.726562 L 12 12.226562 A 0.65615963 0.72622729 0 0 1 12.671875 11.5 A 0.65615963 0.72622729 0 0 1 12.984375 11.597656 L 16.328125 13.734375 L 19.671875 15.871094 A 0.65615963 0.72622729 0 0 1 19.958984 16.25 A 0.65615963 0.72622729 0 0 0 19.671875 15.371094 L 16.328125 13.234375 L 12.984375 11.097656 A 0.65615963 0.72622729 0 0 0 12.671875 11 z M 2 14 C 1.446 14 1 14.446 1 15 L 1 15.5 C 1 14.946 1.446 14.5 2 14.5 L 12 14.5 L 12 14 L 2 14 z"
     id="path6" />
  <path
     style="opacity:0.1"
     d="m 19.012211,2.4877393 a 1.0001,1.0001 0 0 1 0.697266,1.7167968 L 3.709476,20.204538 A 1.0001,1.0001 0 1 1 2.295414,18.790476 l 16,-16.0000023 a 1.0001,1.0001 0 0 1 0.716797,-0.3027344 z"
     id="path8" />
  <path
     style="fill:#ffffff;fill-opacity:1"
     d="m 19.012211,1.9878703 a 1.0001,1.0001 0 0 1 0.697266,1.7167968 L 3.709476,19.704667 A 1.0001,1.0001 0 1 1 2.295414,18.290605 l 16,-16.0000003 a 1.0001,1.0001 0 0 1 0.716797,-0.3027344 z"
     id="path10" />
</svg>
