<svg xmlns="http://www.w3.org/2000/svg" width="24" height="24" version="1.1">
 <defs>
  <style id="current-color-scheme" type="text/css">
   .ColorScheme-Text { color:#cfefd8; } .ColorScheme-Highlight { color:#3fbd61; } .ColorScheme-NeutralText { color:#73d08c; } .ColorScheme-PositiveText { color:#5dc97a; } .ColorScheme-NegativeText { color:#339b4f; }
  </style>
 </defs>
 <g transform="matrix(1,0,0,1,4,4)">
  <path class="ColorScheme-Text" d="M 8 1 C 5.2386 1 3 3.2386 3 6 C 3 8.7614 8 15 8 15 C 8 15 13 8.7614 13 6 C 13 3.2386 10.761 1 8 1 z M 8 3 A 3 3 0 0 1 11 6 A 3 3 0 0 1 8 9 A 3 3 0 0 1 5 6 A 3 3 0 0 1 8 3 z" style="fill:currentColor"/>
 </g>
</svg>
