<?xml version="1.0" encoding="UTF-8" standalone="no"?>
<svg
   xmlns:dc="http://purl.org/dc/elements/1.1/"
   xmlns:cc="http://creativecommons.org/ns#"
   xmlns:rdf="http://www.w3.org/1999/02/22-rdf-syntax-ns#"
   xmlns:svg="http://www.w3.org/2000/svg"
   xmlns="http://www.w3.org/2000/svg"
   xmlns:sodipodi="http://sodipodi.sourceforge.net/DTD/sodipodi-0.dtd"
   xmlns:inkscape="http://www.inkscape.org/namespaces/inkscape"
   width="84"
   height="84"
   version="1"
   id="svg20"
   sodipodi:docname="dcc_nav_defapp.svg"
   inkscape:version="0.92.5 (2060ec1f9f, 2020-04-08)">
  <metadata
     id="metadata26">
    <rdf:RDF>
      <cc:Work
         rdf:about="">
        <dc:format>image/svg+xml</dc:format>
        <dc:type
           rdf:resource="http://purl.org/dc/dcmitype/StillImage" />
      </cc:Work>
    </rdf:RDF>
  </metadata>
  <defs
     id="defs24" />
  <sodipodi:namedview
     pagecolor="#ffffff"
     bordercolor="#666666"
     borderopacity="1"
     objecttolerance="10"
     gridtolerance="10"
     guidetolerance="10"
     inkscape:pageopacity="0"
     inkscape:pageshadow="2"
     inkscape:window-width="783"
     inkscape:window-height="480"
     id="namedview22"
     showgrid="false"
     inkscape:zoom="2.8095238"
     inkscape:cx="42"
     inkscape:cy="42"
     inkscape:window-x="0"
     inkscape:window-y="28"
     inkscape:window-maximized="0"
     inkscape:current-layer="svg20" />
  <rect
     style="opacity:0.2"
     width="80"
     height="80"
     x="2"
     y="3"
     rx="8"
     ry="8.572"
     id="rect2" />
  <rect
     style="fill:#4c566a;fill-opacity:1"
     width="80"
     height="80"
     x="2"
     y="2"
     rx="8"
     ry="8.572"
     id="rect4" />
  <rect
     style="opacity:0.2"
     width="24"
     height="24"
     x="14"
     y="15"
     rx="6"
     ry="6"
     id="rect6" />
  <rect
     style="fill:#ffffff"
     width="24"
     height="24"
     x="14"
     y="14"
     rx="6"
     ry="6"
     id="rect8" />
  <rect
     style="opacity:0.3"
     width="24"
     height="24"
     x="46"
     y="14"
     rx="6"
     ry="6"
     id="rect10" />
  <rect
     style="opacity:0.3"
     width="24"
     height="24"
     x="14"
     y="46"
     rx="6"
     ry="6"
     id="rect12" />
  <rect
     style="opacity:0.2"
     width="24"
     height="24"
     x="46"
     y="47"
     rx="6"
     ry="6"
     id="rect14" />
  <rect
     style="fill:#ffffff"
     width="24"
     height="24"
     x="46"
     y="46"
     rx="6"
     ry="6"
     id="rect16" />
  <path
     style="opacity:0.1;fill:#ffffff"
     d="M 10 2 C 5.568 2 2 5.8217425 2 10.570312 L 2 11.570312 C 2 6.8217425 5.568 3 10 3 L 74 3 C 78.432 3 82 6.8217425 82 11.570312 L 82 10.570312 C 82 5.8217425 78.432 2 74 2 L 10 2 z"
     id="path18" />
</svg>
