<?xml version="1.0" encoding="UTF-8" standalone="no"?>
<svg
   xmlns:dc="http://purl.org/dc/elements/1.1/"
   xmlns:cc="http://creativecommons.org/ns#"
   xmlns:rdf="http://www.w3.org/1999/02/22-rdf-syntax-ns#"
   xmlns:svg="http://www.w3.org/2000/svg"
   xmlns="http://www.w3.org/2000/svg"
   xmlns:sodipodi="http://sodipodi.sourceforge.net/DTD/sodipodi-0.dtd"
   xmlns:inkscape="http://www.inkscape.org/namespaces/inkscape"
   width="84"
   height="84"
   version="1"
   id="svg12"
   sodipodi:docname="dcc_nav_accounts.svg"
   inkscape:version="0.92.5 (2060ec1f9f, 2020-04-08)">
  <metadata
     id="metadata18">
    <rdf:RDF>
      <cc:Work
         rdf:about="">
        <dc:format>image/svg+xml</dc:format>
        <dc:type
           rdf:resource="http://purl.org/dc/dcmitype/StillImage" />
      </cc:Work>
    </rdf:RDF>
  </metadata>
  <defs
     id="defs16" />
  <sodipodi:namedview
     pagecolor="#ffffff"
     bordercolor="#666666"
     borderopacity="1"
     objecttolerance="10"
     gridtolerance="10"
     guidetolerance="10"
     inkscape:pageopacity="0"
     inkscape:pageshadow="2"
     inkscape:window-width="783"
     inkscape:window-height="480"
     id="namedview14"
     showgrid="false"
     inkscape:zoom="2.8095238"
     inkscape:cx="42"
     inkscape:cy="42"
     inkscape:window-x="0"
     inkscape:window-y="28"
     inkscape:window-maximized="0"
     inkscape:current-layer="svg12" />
  <path
     opacity=".2"
     d="M 81.958,41.836 A 40,40 0 0 1 42,81 40,40 0 0 1 2.044,42.164 40,40 0 0 0 2,43 40,40 0 0 0 42,83 40,40 0 0 0 82,43 40,40 0 0 0 81.958,41.836 Z"
     id="path2" />
  <circle
     fill="#009587"
     cx="42"
     cy="42"
     r="40"
     id="circle4"
     style="fill:#4c566a;fill-opacity:1" />
  <path
     style="fill:#ffffff;opacity:0.2"
     d="M 41.998047 2 A 40 40 0 0 0 2 42 A 40 40 0 0 0 2.0234375 42.638672 A 40 40 0 0 1 41.998047 3 L 42 3 A 40 40 0 0 1 81.982422 42.302734 A 40 40 0 0 0 81.998047 42 A 40 40 0 0 0 42 2 L 41.998047 2 z"
     id="path6" />
  <path
     style="opacity:0.2"
     d="m 42,17 c -5.524,0 -10,4.478 -10,10 0,5.522 4.476,10 10,10 5.524,0 10,-4.478 10,-10 0,-5.522 -4.476,-10 -10,-10 z m 0,26 C 22.002,43.012 22,55.8 22,55.8 V 61 c 0,0 3.692284,8 20,8 16.307716,0 20,-8 20,-8 v -5.2 c 0,0 0,-12.808 -19.996,-12.8 z"
     id="path8" />
  <path
     style="fill:#ffffff"
     d="m 42,16 c -5.524,0 -10,4.478 -10,10 0,5.522 4.476,10 10,10 5.524,0 10,-4.478 10,-10 0,-5.522 -4.476,-10 -10,-10 z m 0,26 C 22.002,42.012 22,54.8 22,54.8 V 60 c 0,0 3.692284,8 20,8 16.307716,0 20,-8 20,-8 v -5.2 c 0,0 0,-12.808 -19.996,-12.8 z"
     id="path10" />
</svg>
