<?xml version="1.0" encoding="UTF-8" standalone="no"?>
<svg
   xmlns:dc="http://purl.org/dc/elements/1.1/"
   xmlns:cc="http://creativecommons.org/ns#"
   xmlns:rdf="http://www.w3.org/1999/02/22-rdf-syntax-ns#"
   xmlns:svg="http://www.w3.org/2000/svg"
   xmlns="http://www.w3.org/2000/svg"
   xmlns:sodipodi="http://sodipodi.sourceforge.net/DTD/sodipodi-0.dtd"
   xmlns:inkscape="http://www.inkscape.org/namespaces/inkscape"
   width="84"
   height="84"
   version="1.1"
   id="svg34"
   sodipodi:docname="dcc_nav_personalization.svg"
   inkscape:version="0.92.5 (2060ec1f9f, 2020-04-08)">
  <metadata
     id="metadata40">
    <rdf:RDF>
      <cc:Work
         rdf:about="">
        <dc:format>image/svg+xml</dc:format>
        <dc:type
           rdf:resource="http://purl.org/dc/dcmitype/StillImage" />
      </cc:Work>
    </rdf:RDF>
  </metadata>
  <defs
     id="defs38" />
  <sodipodi:namedview
     pagecolor="#ffffff"
     bordercolor="#666666"
     borderopacity="1"
     objecttolerance="10"
     gridtolerance="10"
     guidetolerance="10"
     inkscape:pageopacity="0"
     inkscape:pageshadow="2"
     inkscape:window-width="783"
     inkscape:window-height="480"
     id="namedview36"
     showgrid="false"
     inkscape:zoom="2.8095238"
     inkscape:cx="42"
     inkscape:cy="42"
     inkscape:window-x="0"
     inkscape:window-y="28"
     inkscape:window-maximized="0"
     inkscape:current-layer="svg34" />
  <path
     opacity=".2"
     d="m 2,73 v 2 c 0,2.216 1.784,4 4,4 h 72 c 2.216,0 4,-1.784 4,-4 v -2 c 0,2.216 -1.784,4 -4,4 H 6 C 3.784,77 2,75.216 2,73 Z"
     id="path2" />
  <path
     fill="#1e88e5"
     d="M 6,6 C 3.784,6 2,7.784 2,10 V 70 H 82 V 10 C 82,7.784 80.216,6 78,6 Z"
     id="path4"
     style="fill:#4c566a;fill-opacity:1" />
  <path
     fill="#253951"
     d="M 6,78 C 3.784,78 2,76.216 2,74 v -4 h 80 v 4 c 0,2.216 -1.784,4 -4,4 z"
     id="path6"
     style="fill:#5f697d;fill-opacity:1" />
  <path
     style="fill:#ffffff;opacity:0.2"
     d="M 6 6 C 3.784 6 2 7.784 2 10 L 2 11 C 2 8.784 3.784 7 6 7 L 78 7 C 80.216 7 82 8.784 82 11 L 82 10 C 82 7.784 80.216 6 78 6 L 6 6 z"
     id="path8" />
  <rect
     opacity=".2"
     width="32"
     height="24"
     x="26"
     y="31"
     rx="2"
     ry="2"
     id="rect10" />
  <path
     fill="#ffffff"
     d="m 26,34 v 18 c 0,1.108 0.892,2 2,2 h 28 c 1.108,0 2,-0.892 2,-2 V 34 Z"
     id="path12"
     style="fill:#5f697d;fill-opacity:1" />
  <path
     fill="#253951"
     d="m 28,30 h 28 c 1.108,0 2,0.892 2,2 v 2 H 26 v -2 c 0,-1.108 0.892,-2 2,-2 z"
     id="path14"
     style="fill:#414b5f;fill-opacity:1" />
  <g
     opacity=".2"
     transform="matrix(2,0,0,2,-2,-2011.8)"
     id="g24">
    <rect
       width="4"
       height="4"
       x="5"
       y="1012.4"
       rx=".5"
       ry=".5"
       id="rect16" />
    <rect
       width="4"
       height="4"
       x="5"
       y="1018.4"
       rx=".5"
       ry=".5"
       id="rect18" />
    <rect
       width="4"
       height="4"
       x="5"
       y="1024.4"
       rx=".5"
       ry=".5"
       id="rect20" />
    <rect
       width="4"
       height="4"
       x="5"
       y="1030.4"
       rx=".5"
       ry=".5"
       id="rect22" />
  </g>
  <rect
     fill="#ffffff"
     width="8"
     height="8"
     x="8"
     y="12"
     rx="1"
     ry="1"
     id="rect26" />
  <rect
     fill="#ffffff"
     width="8"
     height="8"
     x="8"
     y="24"
     rx="1"
     ry="1"
     id="rect28" />
  <rect
     fill="#ffffff"
     width="8"
     height="8"
     x="8"
     y="36"
     rx="1"
     ry="1"
     id="rect30" />
  <rect
     fill="#ffffff"
     width="8"
     height="8"
     x="8"
     y="48"
     rx="1"
     ry="1"
     id="rect32" />
</svg>
