<?xml version="1.0" encoding="UTF-8" standalone="no"?>
<svg
   xmlns:dc="http://purl.org/dc/elements/1.1/"
   xmlns:cc="http://creativecommons.org/ns#"
   xmlns:rdf="http://www.w3.org/1999/02/22-rdf-syntax-ns#"
   xmlns:svg="http://www.w3.org/2000/svg"
   xmlns="http://www.w3.org/2000/svg"
   xmlns:sodipodi="http://sodipodi.sourceforge.net/DTD/sodipodi-0.dtd"
   xmlns:inkscape="http://www.inkscape.org/namespaces/inkscape"
   width="84"
   height="84"
   version="1"
   id="svg12"
   sodipodi:docname="dcc_nav_bluetooth.svg"
   inkscape:version="0.92.5 (2060ec1f9f, 2020-04-08)">
  <metadata
     id="metadata18">
    <rdf:RDF>
      <cc:Work
         rdf:about="">
        <dc:format>image/svg+xml</dc:format>
        <dc:type
           rdf:resource="http://purl.org/dc/dcmitype/StillImage" />
      </cc:Work>
    </rdf:RDF>
  </metadata>
  <defs
     id="defs16" />
  <sodipodi:namedview
     pagecolor="#ffffff"
     bordercolor="#666666"
     borderopacity="1"
     objecttolerance="10"
     gridtolerance="10"
     guidetolerance="10"
     inkscape:pageopacity="0"
     inkscape:pageshadow="2"
     inkscape:window-width="783"
     inkscape:window-height="480"
     id="namedview14"
     showgrid="false"
     inkscape:zoom="2.8095238"
     inkscape:cx="42"
     inkscape:cy="42"
     inkscape:window-x="0"
     inkscape:window-y="28"
     inkscape:window-maximized="0"
     inkscape:current-layer="svg12" />
  <path
     opacity=".2"
     d="m 14,53 v 2 C 14,70.512 26.488,83 42,83 57.512,83 70,70.512 70,55 V 53 C 70,68.512 57.512,81 42,81 26.488,81 14,68.512 14,53 Z"
     id="path2" />
  <rect
     fill="#324090"
     width="80"
     height="56"
     x="-82"
     y="-70"
     rx="28"
     ry="28"
     transform="matrix(0,-1,-1,0,0,0)"
     id="rect4"
     style="fill:#4c566a;fill-opacity:1" />
  <path
     fill="none"
     stroke="#000000"
     stroke-linecap="square"
     stroke-width="4"
     opacity=".2"
     d="m 28,30.999573 28,26 -14,14 v -54 l 14,14 -28,26"
     id="path6" />
  <path
     fill="none"
     stroke="#ffffff"
     stroke-linecap="square"
     stroke-width="4"
     d="M 28,30 56,56 42,70 V 16 L 56,30 28,56"
     id="path8" />
  <path
     style="fill:#ffffff;opacity:0.1"
     d="M 42 2 C 26.488 2 14 14.488 14 30 L 14 31 C 14 15.488 26.488 3 42 3 C 57.512 3 70 15.488 70 31 L 70 30 C 70 14.488 57.512 2 42 2 z"
     id="path10" />
</svg>
