<svg xmlns="http://www.w3.org/2000/svg" width="16" height="16" version="1.1">
 <defs>
  <style id="current-color-scheme" type="text/css">
   .ColorScheme-Text { color:#ffffff; } .ColorScheme-Highlight { color:#e8d0a3; } .ColorScheme-NeutralText { color:#f6eddc; } .ColorScheme-PositiveText { color:#f0e1c4; } .ColorScheme-NegativeText { color:#dfbd7e; }
  </style>
 </defs>
 <path style="fill:currentColor" class="ColorScheme-Text" d="M 8,0 A 8,8 0 0 0 0,8 8,8 0 0 0 7.285156,15.949219 5,5 0 0 1 3,11 5,5 0 0 1 8,6 5,5 0 0 1 13,11 5,5 0 0 1 8.714844,15.949219 8,8 0 0 0 16,8 8,8 0 0 0 8,0 Z m 0,10 a 3,3 0 0 0 -3,3 3,3 0 0 0 3,3 3,3 0 0 0 3,-3 3,3 0 0 0 -3,-3 z"/>
</svg>
