<svg xmlns="http://www.w3.org/2000/svg" width="22" height="22" viewBox="0 0 22 22">
 <defs>
  <style id="current-color-scheme" type="text/css">
   .ColorScheme-Text { color:#cfefd8; } .ColorScheme-Highlight { color:#3fbd61; } .ColorScheme-NeutralText { color:#73d08c; } .ColorScheme-PositiveText { color:#5dc97a; } .ColorScheme-NegativeText { color:#339b4f; }
  </style>
 </defs>
 <path style="fill:currentColor" class="ColorScheme-Text" d="M 8 1 A 5 5 0 0 0 3 6 A 5 5 0 0 0 3 6.0078125 A 5 5 0 0 0 1 10 A 5 5 0 0 0 6 15 A 5 5 0 0 0 7.9960938 14.578125 A 5 5 0 0 0 10 15 A 5 5 0 0 0 15 10 A 5 5 0 0 0 13 6.0078125 A 5 5 0 0 0 13 6 A 5 5 0 0 0 8 1 z" transform="translate(3 3)"/>
</svg>
