<svg xmlns="http://www.w3.org/2000/svg" width="22" height="22" version="1.1">
 <defs>
  <style id="current-color-scheme" type="text/css">
   .ColorScheme-Text { color:#cfefd8; } .ColorScheme-Highlight { color:#3fbd61; } .ColorScheme-NeutralText { color:#73d08c; } .ColorScheme-PositiveText { color:#5dc97a; } .ColorScheme-NegativeText { color:#339b4f; }
  </style>
 </defs>
 <g transform="translate(3,3)">
  <path style="fill:currentColor" class="ColorScheme-Text" d="m4.5 3a3.5 5 0 0 0 -3.5 5 3.5 5 0 0 0 3.5 5 3.5 5 0 0 0 3.5 -5 3.5 5 0 0 0 -3.5 -5zm3.5 5a3.5 5 0 0 0 3.5 5 3.5 5 0 0 0 3.5 -5 3.5 5 0 0 0 -3.5 -5 3.5 5 0 0 0 -3.5 5zm-3 0a2 2 0 0 1 2 2 2 2 0 0 1 -2 2 2 2 0 0 1 -2 -2 2 2 0 0 1 2 -2zm7 0a2 2 0 0 1 2 2 2 2 0 0 1 -2 2 2 2 0 0 1 -2 -2 2 2 0 0 1 2 -2z"/>
 </g>
</svg>
