<svg xmlns="http://www.w3.org/2000/svg" width="22" height="22" version="1.1">
 <defs>
  <style id="current-color-scheme" type="text/css">
   .ColorScheme-Text { color:#cfefd8; } .ColorScheme-Highlight { color:#3fbd61; } .ColorScheme-NeutralText { color:#73d08c; } .ColorScheme-PositiveText { color:#5dc97a; } .ColorScheme-NegativeText { color:#339b4f; }
  </style>
 </defs>
 <g transform="translate(3,3)">
  <path style="fill:currentColor" class="ColorScheme-Text" d="M 9,12.5 A 1.5,1.5 0 0 1 7.5,14 1.5,1.5 0 0 1 6,12.5 1.5,1.5 0 0 1 7.5,11 1.5,1.5 0 0 1 9,12.5 Z M 9,8.5 A 1.5,1.5 0 0 1 7.5,10 1.5,1.5 0 0 1 6,8.5 1.5,1.5 0 0 1 7.5,7 1.5,1.5 0 0 1 9,8.5 Z M 9,4.5 A 1.5,1.5 0 0 1 7.5,6 1.5,1.5 0 0 1 6,4.5 1.5,1.5 0 0 1 7.5,3 1.5,1.5 0 0 1 9,4.5 Z"/>
 </g>
</svg>
