<?xml version="1.0" encoding="UTF-8" standalone="no"?>
<svg
   xmlns:dc="http://purl.org/dc/elements/1.1/"
   xmlns:cc="http://creativecommons.org/ns#"
   xmlns:rdf="http://www.w3.org/1999/02/22-rdf-syntax-ns#"
   xmlns:svg="http://www.w3.org/2000/svg"
   xmlns="http://www.w3.org/2000/svg"
   xmlns:sodipodi="http://sodipodi.sourceforge.net/DTD/sodipodi-0.dtd"
   xmlns:inkscape="http://www.inkscape.org/namespaces/inkscape"
   width="32"
   height="32"
   version="1"
   id="svg26"
   sodipodi:docname="forecast.svg"
   inkscape:version="0.92.5 (2060ec1f9f, 2020-04-08)">
  <metadata
     id="metadata32">
    <rdf:RDF>
      <cc:Work
         rdf:about="">
        <dc:format>image/svg+xml</dc:format>
        <dc:type
           rdf:resource="http://purl.org/dc/dcmitype/StillImage" />
      </cc:Work>
    </rdf:RDF>
  </metadata>
  <defs
     id="defs30" />
  <sodipodi:namedview
     pagecolor="#ffffff"
     bordercolor="#666666"
     borderopacity="1"
     objecttolerance="10"
     gridtolerance="10"
     guidetolerance="10"
     inkscape:pageopacity="0"
     inkscape:pageshadow="2"
     inkscape:window-width="783"
     inkscape:window-height="480"
     id="namedview28"
     showgrid="false"
     inkscape:zoom="5.2149125"
     inkscape:cx="11.33415"
     inkscape:cy="17.763798"
     inkscape:window-x="0"
     inkscape:window-y="28"
     inkscape:window-maximized="0"
     inkscape:current-layer="svg26" />
  <circle
     style="opacity:0.2"
     cx="16"
     cy="16"
     r="12"
     id="circle2" />
  <path
     style="opacity:0.2"
     d="m 9,25 c 0,0 4.642977,1 7,1 2.357023,0 7,-1 7,-1 1.645296,-0.235042 3,1.338 3,3 0,1.662 -1.338,3 -3,3 H 9 C 7.338,31 6,29.662 6,28 6,26.338 7.338,25 9,25 Z"
     id="path4" />
  <circle
     style="fill:#4c566a;fill-opacity:1"
     cx="16"
     cy="15"
     r="12"
     id="circle6" />
  <path
     style="fill:#5f697d;fill-opacity:1"
     d="m 9,24 c 0,0 4.642977,1 7,1 2.357023,0 7,-1 7,-1 1.645296,-0.235042 3,1.338 3,3 0,1.662 -1.338,3 -3,3 H 9 C 7.338,30 6,28.662 6,27 6,25.338 7.338,24 9,24 Z"
     id="path8" />
  <path
     style="opacity:0.1;fill:#ffffff"
     d="M 16,3 A 12,12 0 0 0 4,15 12,12 0 0 0 4.0195312,15.59375 12,12 0 0 1 16,4 12,12 0 0 1 27.980469,15.40625 12,12 0 0 0 28,15 12,12 0 0 0 16,3 Z"
     id="path10" />
  <path
     style="opacity:0.2;fill:#ffffff"
     d="M 23.601562 23.994141 C 23.40706 23.970376 23.205662 23.97062 23 24 C 23 24 18.357023 25 16 25 C 13.642977 25 9 24 9 24 C 7.338 24 6 25.338 6 27 C 6 27.171588 6.023374 27.336435 6.0507812 27.5 C 6.2888409 26.079274 7.5095878 25 9 25 C 9 25 13.642977 26 16 26 C 18.357023 26 23 25 23 25 C 24.476874 24.789018 25.712221 26.036744 25.951172 27.496094 C 25.978145 27.333783 26 27.170194 26 27 C 26 25.54575 24.963081 24.160494 23.601562 23.994141 z"
     id="path12" />
  <path
     style="opacity:0.2"
     transform="matrix(0.51236374,-0.29581334,0.29581334,0.51236374,5.315524,13.223975)"
     d="m 15,13 1.763356,3.572949 3.942983,0.572949 -2.853169,2.781153 0.673541,3.927051 L 15,22 11.473288,23.854102 12.14683,19.927051 9.293661,17.145898 13.236644,16.572949 Z"
     id="path14" />
  <path
     style="fill:#ffffff"
     transform="matrix(0.51236374,-0.29581334,0.29581334,0.51236374,5.315524,12.223975)"
     d="m 15,13 1.763356,3.572949 3.942983,0.572949 -2.853169,2.781153 0.673541,3.927051 L 15,22 11.473288,23.854102 12.14683,19.927051 9.293661,17.145898 13.236644,16.572949 Z"
     id="path16" />
  <path
     style="opacity:0.2"
     transform="matrix(0.28779947,-0.1661611,0.1661611,0.28779947,4.4367214,10.230216)"
     d="m 15,13 1.763356,3.572949 3.942983,0.572949 -2.853169,2.781153 0.673541,3.927051 L 15,22 11.473288,23.854102 12.14683,19.927051 9.293661,17.145898 13.236644,16.572949 Z"
     id="path18" />
  <path
     style="fill:#ffffff"
     transform="matrix(0.28779947,-0.1661611,0.1661611,0.28779947,4.4367214,9.2302163)"
     d="m 15,13 1.763356,3.572949 3.942983,0.572949 -2.853169,2.781153 0.673541,3.927051 L 15,22 11.473288,23.854102 12.14683,19.927051 9.293661,17.145898 13.236644,16.572949 Z"
     id="path20" />
  <path
     style="opacity:0.2"
     transform="matrix(0.18193438,-0.10503986,0.10503986,0.18193438,12.58262,6.5552713)"
     d="m 15,13 1.763356,3.572949 3.942983,0.572949 -2.853169,2.781153 0.673541,3.927051 L 15,22 11.473288,23.854102 12.14683,19.927051 9.293661,17.145898 13.236644,16.572949 Z"
     id="path22" />
  <path
     style="fill:#ffffff"
     transform="matrix(0.18193438,-0.10503986,0.10503986,0.18193438,12.58262,5.5552714)"
     d="m 15,13 1.763356,3.572949 3.942983,0.572949 -2.853169,2.781153 0.673541,3.927051 L 15,22 11.473288,23.854102 12.14683,19.927051 9.293661,17.145898 13.236644,16.572949 Z"
     id="path24" />
</svg>
