<?xml version="1.0" encoding="UTF-8" standalone="no"?>
<svg
   xmlns:dc="http://purl.org/dc/elements/1.1/"
   xmlns:cc="http://creativecommons.org/ns#"
   xmlns:rdf="http://www.w3.org/1999/02/22-rdf-syntax-ns#"
   xmlns:svg="http://www.w3.org/2000/svg"
   xmlns="http://www.w3.org/2000/svg"
   xmlns:sodipodi="http://sodipodi.sourceforge.net/DTD/sodipodi-0.dtd"
   xmlns:inkscape="http://www.inkscape.org/namespaces/inkscape"
   width="32"
   height="32"
   version="1"
   id="svg26"
   sodipodi:docname="payee.svg"
   inkscape:version="0.92.5 (2060ec1f9f, 2020-04-08)">
  <metadata
     id="metadata32">
    <rdf:RDF>
      <cc:Work
         rdf:about="">
        <dc:format>image/svg+xml</dc:format>
        <dc:type
           rdf:resource="http://purl.org/dc/dcmitype/StillImage" />
      </cc:Work>
    </rdf:RDF>
  </metadata>
  <defs
     id="defs30" />
  <sodipodi:namedview
     pagecolor="#ffffff"
     bordercolor="#666666"
     borderopacity="1"
     objecttolerance="10"
     gridtolerance="10"
     guidetolerance="10"
     inkscape:pageopacity="0"
     inkscape:pageshadow="2"
     inkscape:window-width="783"
     inkscape:window-height="480"
     id="namedview28"
     showgrid="false"
     inkscape:zoom="7.375"
     inkscape:cx="16"
     inkscape:cy="16"
     inkscape:window-x="0"
     inkscape:window-y="28"
     inkscape:window-maximized="0"
     inkscape:current-layer="svg26" />
  <rect
     opacity=".2"
     width="28"
     height="24"
     x="2"
     y="5"
     rx="2"
     ry="2"
     id="rect2" />
  <rect
     style="fill:#4c566a;fill-opacity:1"
     width="28"
     height="24"
     x="2"
     y="4"
     rx="2"
     ry="2"
     id="rect4" />
  <g
     opacity=".2"
     transform="translate(0 .99967)"
     id="g14">
    <path
       d="m12 10c1.6569 0 3 1.3432 3 3s-1.3431 3-3 3-3-1.3432-3-3 1.3431-3 3-3z"
       id="path6" />
    <path
       d="m12 17.667c6-0.003 6 4 6 4v0.99933h-12v-0.99933s0-3.9973 6.0002-4.0007z"
       id="path8" />
    <path
       d="m22 10c1.105 0 2 0.895 2 2s-0.895 2-2 2-2-0.895-2-2c0-1.1045 0.89543-2 2-2z"
       id="path10" />
    <path
       d="m22 15c4-0.002 4 3.201 4 3.201v0.799h-8v-0.79946s0-3.1979 4.0002-3.2005z"
       id="path12" />
  </g>
  <path
     fill="#fff"
     d="m12 10c1.6569 0 3 1.3432 3 3s-1.3431 3-3 3-3-1.3432-3-3 1.3431-3 3-3z"
     id="path16" />
  <path
     fill="#fff"
     d="m12 17.667c6-0.003 6 4 6 4v0.99933h-12v-0.99933s0-3.9973 6.0002-4.0007z"
     id="path18" />
  <path
     fill="#fff"
     d="m22 10c1.105 0 2 0.895 2 2s-0.895 2-2 2-2-0.895-2-2c0-1.1045 0.89543-2 2-2z"
     id="path20" />
  <path
     fill="#fff"
     d="m22 15c4-0.002 4 3.201 4 3.201v0.799h-8v-0.79946s0-3.1979 4.0002-3.2005z"
     id="path22" />
  <path
     fill="#fff"
     style="opacity:0.1"
     d="m4 4c-1.108 0-2 0.892-2 2v1c0-1.108 0.892-2 2-2h24c1.108 0 2 0.892 2 2v-1c0-1.108-0.892-2-2-2h-24z"
     id="path24" />
</svg>
