<?xml version="1.0" encoding="UTF-8" standalone="no"?>
<svg
   xmlns:dc="http://purl.org/dc/elements/1.1/"
   xmlns:cc="http://creativecommons.org/ns#"
   xmlns:rdf="http://www.w3.org/1999/02/22-rdf-syntax-ns#"
   xmlns:svg="http://www.w3.org/2000/svg"
   xmlns="http://www.w3.org/2000/svg"
   xmlns:sodipodi="http://sodipodi.sourceforge.net/DTD/sodipodi-0.dtd"
   xmlns:inkscape="http://www.inkscape.org/namespaces/inkscape"
   width="32"
   height="32"
   version="1"
   id="svg16"
   sodipodi:docname="smartphone-connected.svg"
   inkscape:version="0.92.5 (2060ec1f9f, 2020-04-08)">
  <metadata
     id="metadata22">
    <rdf:RDF>
      <cc:Work
         rdf:about="">
        <dc:format>image/svg+xml</dc:format>
        <dc:type
           rdf:resource="http://purl.org/dc/dcmitype/StillImage" />
      </cc:Work>
    </rdf:RDF>
  </metadata>
  <defs
     id="defs20" />
  <sodipodi:namedview
     pagecolor="#ffffff"
     bordercolor="#666666"
     borderopacity="1"
     objecttolerance="10"
     gridtolerance="10"
     guidetolerance="10"
     inkscape:pageopacity="0"
     inkscape:pageshadow="2"
     inkscape:window-width="783"
     inkscape:window-height="480"
     id="namedview18"
     showgrid="false"
     inkscape:zoom="7.375"
     inkscape:cx="16.677966"
     inkscape:cy="5.1525424"
     inkscape:window-x="0"
     inkscape:window-y="28"
     inkscape:window-maximized="0"
     inkscape:current-layer="svg16" />
  <path
     opacity=".2"
     d="m4 29v1.5c0 0.831 0.669 1.5 1.5 1.5h21c0.831 0 1.5-0.669 1.5-1.5v-1.5c0 0.831-0.669 1.5-1.5 1.5h-21c-0.831 0-1.5-0.669-1.5-1.5z"
     id="path2" />
  <rect
     fill="#8e8e8e"
     width="30"
     height="24"
     x="-31"
     y="-28"
     rx="1.5"
     ry="1.5"
     transform="matrix(0,-1,-1,0,0,0)"
     id="rect4"
     style="fill:#4c566a;fill-opacity:1" />
  <path
     style="opacity:0.5"
     d="m7.5385 3.9997h16.924c0.852 0 1.538 0.7548 1.538 1.6923v18.616c0 0.937-0.686 1.692-1.538 1.692h-16.924c-0.8518 0-1.538-0.75458-1.538-1.6918v-18.615c0.001-0.9374 0.6872-1.6922 1.5395-1.6922z"
     id="path6" />
  <path
     fill="#fff"
     style="opacity:0.2"
     d="m5.5 1c-0.831 0-1.5 0.669-1.5 1.5v1c0-0.831 0.669-1.5 1.5-1.5h21c0.831 0 1.5 0.669 1.5 1.5v-1c0-0.831-0.669-1.5-1.5-1.5h-21z"
     id="path8" />
  <path
     fill="#a4ca39"
     d="m12.865 4.902-0.865 0.5 1.197 2.0743c-2.188 1.0571-2.197 3.5237-2.197 3.5237h9s-0.01-2.4665-2.197-3.5234l1.197-2.0746-0.86523-0.5-1.2949 2.2422c-0.397-0.0888-0.83489-0.14453-1.3379-0.14453-0.504 0-0.9438 0.055531-1.3418 0.14453l-1.295-2.2422zm0.637 4.0977c0.277 0 0.498 0.223 0.498 0.498s-0.224 0.502-0.498 0.502c-0.277 0-0.502-0.224-0.502-0.502 0-0.275 0.225-0.498 0.502-0.498zm4 0c0.277 0 0.498 0.223 0.498 0.498s-0.224 0.502-0.498 0.502c-0.277 0-0.502-0.224-0.502-0.502 0-0.275 0.225-0.498 0.502-0.498zm-8.4571 3c-0.5753 0-1.0449 0.531-1.0449 1.184v4.6309c0 0.652 0.4696 1.185 1.0449 1.185s0.9551-0.533 0.9551-1.186v-4.6309c0-0.653-0.3791-1.183-0.9551-1.183zm1.9551 0v8.5c-0.000007 0.23573 0.26427 0.5 0.5 0.5h1.5v1.875c0 0.622 0.396 1.125 1 1.125 0.60019 0 1.0199-0.50369 1-1.125v-1.875h1v1.875c0 0.622 0.396 1.125 1 1.125 0.60019 0 1-0.51183 1-1.125v-1.875h1.5c0.236 0 0.5-0.264 0.5-0.5v-8.5h-9zm11.045 0c-0.575 0-1.045 0.531-1.045 1.184v4.6309c0 0.652 0.47 1.185 1.045 1.185s0.955-0.533 0.955-1.186v-4.6309c0-0.653-0.379-1.183-0.955-1.183z"
     id="path10"
     style="fill:#ffffff;fill-opacity:1" />
  <rect
     style="opacity:0.5"
     width="8"
     height="1"
     x="12"
     y="2"
     rx=".5"
     ry=".5"
     id="rect12" />
  <circle
     style="opacity:0.5"
     cx="16"
     cy="28"
     r="1"
     id="circle14" />
</svg>
