<?xml version="1.0" encoding="UTF-8" standalone="no"?>
<svg
   xmlns:dc="http://purl.org/dc/elements/1.1/"
   xmlns:cc="http://creativecommons.org/ns#"
   xmlns:rdf="http://www.w3.org/1999/02/22-rdf-syntax-ns#"
   xmlns:svg="http://www.w3.org/2000/svg"
   xmlns="http://www.w3.org/2000/svg"
   xmlns:sodipodi="http://sodipodi.sourceforge.net/DTD/sodipodi-0.dtd"
   xmlns:inkscape="http://www.inkscape.org/namespaces/inkscape"
   width="32"
   height="32"
   version="1"
   id="svg14"
   sodipodi:docname="smartphonetrusted.svg"
   inkscape:version="0.92.5 (2060ec1f9f, 2020-04-08)">
  <metadata
     id="metadata20">
    <rdf:RDF>
      <cc:Work
         rdf:about="">
        <dc:format>image/svg+xml</dc:format>
        <dc:type
           rdf:resource="http://purl.org/dc/dcmitype/StillImage" />
      </cc:Work>
    </rdf:RDF>
  </metadata>
  <defs
     id="defs18" />
  <sodipodi:namedview
     pagecolor="#ffffff"
     bordercolor="#666666"
     borderopacity="1"
     objecttolerance="10"
     gridtolerance="10"
     guidetolerance="10"
     inkscape:pageopacity="0"
     inkscape:pageshadow="2"
     inkscape:window-width="783"
     inkscape:window-height="480"
     id="namedview16"
     showgrid="false"
     inkscape:zoom="7.375"
     inkscape:cx="16"
     inkscape:cy="16"
     inkscape:window-x="0"
     inkscape:window-y="28"
     inkscape:window-maximized="0"
     inkscape:current-layer="svg14" />
  <path
     opacity=".2"
     d="m4 29v1.5c0 0.831 0.669 1.5 1.5 1.5h21c0.831 0 1.5-0.669 1.5-1.5v-1.5c0 0.831-0.669 1.5-1.5 1.5h-21c-0.831 0-1.5-0.669-1.5-1.5z"
     id="path2" />
  <rect
     fill="#8e8e8e"
     width="30"
     height="24"
     x="-31"
     y="-28"
     rx="1.5"
     ry="1.5"
     transform="matrix(0,-1,-1,0,0,0)"
     id="rect4"
     style="fill:#4c566a;fill-opacity:1" />
  <path
     style="opacity:0.5"
     d="m7.5385 3.9997h16.924c0.852 0 1.538 0.7548 1.538 1.6923v18.616c0 0.937-0.686 1.692-1.538 1.692h-16.924c-0.8518 0-1.538-0.75458-1.538-1.6918v-18.615c0.001-0.9374 0.6872-1.6922 1.5395-1.6922z"
     id="path6" />
  <path
     fill="#fff"
     style="opacity:0.2"
     d="m5.5 1c-0.831 0-1.5 0.669-1.5 1.5v1c0-0.831 0.669-1.5 1.5-1.5h21c0.831 0 1.5 0.669 1.5 1.5v-1c0-0.831-0.669-1.5-1.5-1.5h-21z"
     id="path8" />
  <rect
     style="opacity:0.5"
     width="8"
     height="1"
     x="12"
     y="2"
     rx=".5"
     ry=".5"
     id="rect10" />
  <circle
     style="opacity:0.5"
     cx="16"
     cy="28"
     r="1"
     id="circle12" />
</svg>
