<?xml version="1.0" encoding="UTF-8" standalone="no"?>
<svg
   xmlns:dc="http://purl.org/dc/elements/1.1/"
   xmlns:cc="http://creativecommons.org/ns#"
   xmlns:rdf="http://www.w3.org/1999/02/22-rdf-syntax-ns#"
   xmlns:svg="http://www.w3.org/2000/svg"
   xmlns="http://www.w3.org/2000/svg"
   xmlns:sodipodi="http://sodipodi.sourceforge.net/DTD/sodipodi-0.dtd"
   xmlns:inkscape="http://www.inkscape.org/namespaces/inkscape"
   width="32"
   height="32"
   version="1.1"
   id="svg26"
   sodipodi:docname="task-due.svg"
   inkscape:version="0.92.5 (2060ec1f9f, 2020-04-08)">
  <metadata
     id="metadata32">
    <rdf:RDF>
      <cc:Work
         rdf:about="">
        <dc:format>image/svg+xml</dc:format>
        <dc:type
           rdf:resource="http://purl.org/dc/dcmitype/StillImage" />
      </cc:Work>
    </rdf:RDF>
  </metadata>
  <defs
     id="defs30" />
  <sodipodi:namedview
     pagecolor="#ffffff"
     bordercolor="#666666"
     borderopacity="1"
     objecttolerance="10"
     gridtolerance="10"
     guidetolerance="10"
     inkscape:pageopacity="0"
     inkscape:pageshadow="2"
     inkscape:window-width="783"
     inkscape:window-height="480"
     id="namedview28"
     showgrid="false"
     inkscape:zoom="10.429825"
     inkscape:cx="14.336107"
     inkscape:cy="17.240013"
     inkscape:window-x="0"
     inkscape:window-y="28"
     inkscape:window-maximized="0"
     inkscape:current-layer="g24" />
  <g
     transform="translate(0,-288.53332)"
     id="g24">
    <rect
       style="opacity:0.2"
       width="26"
       height="24"
       x="-319.53"
       y="-28"
       rx="2"
       ry="2"
       transform="matrix(0,-1,-1,0,0,0)"
       id="rect2" />
    <rect
       style="fill:#4c566a;fill-opacity:1"
       width="26"
       height="24"
       x="-318.53"
       y="-28"
       rx="2"
       ry="2"
       transform="matrix(0,-1,-1,0,0,0)"
       id="rect4" />
    <path
       style="opacity:0.2;fill:#ffffff"
       d="m 6,292.53332 c -1.108,0 -2,0.892 -2,2 v 1 c 0,-1.108 0.892,-2 2,-2 h 20 c 1.108,0 2,0.892 2,2 v -1 c 0,-1.108 -0.892,-2 -2,-2 z"
       id="path6" />
    <rect
       style="fill:#737d91;fill-opacity:1"
       width="18"
       height="20"
       x="7"
       y="295.53"
       id="rect8" />
    <path
       style="fill:#cccccc"
       d="M 16 0 C 14.338 0 13 1.338 13 3 L 13 5 L 11 5 C 10.446 5 10 5.446 10 6 L 10 9 L 22 9 L 22 6 C 22 5.446 21.554 5 21 5 L 19 5 L 19 3 C 19 1.338 17.662 0 16 0 z M 16 2 A 2 2 0 0 1 18 4 A 2 2 0 0 1 16 6 A 2 2 0 0 1 14 4 A 2 2 0 0 1 16 2 z "
       transform="translate(0,288.53332)"
       id="path10" />
    <path
       style="opacity:0.2;fill:#ffffff"
       d="m 16,288.53332 c -1.662,0 -3,1.338 -3,3 v 1 c 0,-1.662 1.338,-3 3,-3 1.662,0 3,1.338 3,3 v -1 c 0,-1.662 -1.338,-3 -3,-3 z m -5,5 c -0.554,0 -1,0.446 -1,1 v 1 c 0,-0.554 0.446,-1 1,-1 h 2 v -1 z m 8,0 v 1 h 2 c 0.554,0 1,0.446 1,1 v -1 c 0,-0.554 -0.446,-1 -1,-1 z"
       id="path16" />
    <path
       style="fill:#b3b3b3"
       d="m 10,296.53332 v 1 h 8 4 v -1 z"
       id="path18" />
    <path
       style="fill:#ffffff;fill-opacity:1"
       d="m 17.0003,300.53332 v 8 h -2 v -8 z m -3e-4,10 v 2 h -2 v -2 z"
       id="path20" />
    <rect
       style="opacity:0.2"
       width="18"
       height="1"
       x="7"
       y="315.53"
       id="rect22" />
  </g>
</svg>
