<?xml version="1.0" encoding="UTF-8" standalone="no"?>
<svg
   xmlns:dc="http://purl.org/dc/elements/1.1/"
   xmlns:cc="http://creativecommons.org/ns#"
   xmlns:rdf="http://www.w3.org/1999/02/22-rdf-syntax-ns#"
   xmlns:svg="http://www.w3.org/2000/svg"
   xmlns="http://www.w3.org/2000/svg"
   xmlns:sodipodi="http://sodipodi.sourceforge.net/DTD/sodipodi-0.dtd"
   xmlns:inkscape="http://www.inkscape.org/namespaces/inkscape"
   width="32"
   height="32"
   version="1"
   id="svg24"
   sodipodi:docname="tvdisconnected.svg"
   inkscape:version="0.92.5 (2060ec1f9f, 2020-04-08)">
  <metadata
     id="metadata30">
    <rdf:RDF>
      <cc:Work
         rdf:about="">
        <dc:format>image/svg+xml</dc:format>
        <dc:type
           rdf:resource="http://purl.org/dc/dcmitype/StillImage" />
      </cc:Work>
    </rdf:RDF>
  </metadata>
  <defs
     id="defs28" />
  <sodipodi:namedview
     pagecolor="#ffffff"
     bordercolor="#666666"
     borderopacity="1"
     objecttolerance="10"
     gridtolerance="10"
     guidetolerance="10"
     inkscape:pageopacity="0"
     inkscape:pageshadow="2"
     inkscape:window-width="960"
     inkscape:window-height="498"
     id="namedview26"
     showgrid="false"
     inkscape:zoom="10.429825"
     inkscape:cx="13.004667"
     inkscape:cy="14.242366"
     inkscape:window-x="0"
     inkscape:window-y="28"
     inkscape:window-maximized="0"
     inkscape:current-layer="svg24" />
  <rect
     style="opacity:0.2"
     width="3"
     height="18"
     x="-28"
     y="-25"
     rx="1"
     ry=".6"
     transform="matrix(0,-1,-1,0,0,0)"
     id="rect2" />
  <rect
     style="fill:#4c566a;fill-opacity:1"
     width="3"
     height="18"
     x="-27"
     y="-25"
     rx="1"
     ry=".6"
     transform="matrix(0,-1,-1,0,0,0)"
     id="rect4" />
  <path
     style="opacity:0.2"
     d="M 30,24.611111 V 7.3888889 C 30,6.6194444 29.375384,6 28.6,6 H 3.4 C 2.6244,6 2,6.6194444 2,7.3888889 V 24.611111 C 2,25.38 2.6244,26 3.4,26 h 25.2 c 0.7756,0 1.4,-0.619444 1.4,-1.388889 z"
     id="path6" />
  <path
     style="fill:#4c566a;fill-opacity:1"
     d="M 30,23.611111 V 6.3888889 C 30,5.6194444 29.375384,5 28.6,5 H 3.4 C 2.6244,5 2,5.6194444 2,6.3888889 V 23.611111 C 2,24.38 2.6244,25 3.4,25 h 25.2 c 0.7756,0 1.4,-0.619444 1.4,-1.388889 z"
     id="path8" />
  <path
     style="opacity:0.5"
     d="M 28,23 V 7 H 4 v 16 z"
     id="path10" />
  <path
     style="fill:#ffffff;opacity:0.2"
     d="M 3.4003906 5 C 2.6247906 5 2 5.6192274 2 6.3886719 L 2 7.3886719 C 2 6.6192274 2.6247906 6 3.4003906 6 L 28.599609 6 C 29.374993 6 30 6.6192274 30 7.3886719 L 30 6.3886719 C 30 5.6192274 29.374993 5 28.599609 5 L 3.4003906 5 z"
     id="path12" />
  <circle
     style="fill:#5f697d;fill-opacity:1"
     cx="25"
     cy="23"
     r="7"
     id="circle14" />
  <path
     style="opacity:0.2"
     d="m 31.977001,23.459 a 7,7 0 0 1 -6.977,6.541 7,7 0 0 1 -6.977,-6.459 7,7 0 0 0 -0.023,0.459 7,7 0 0 0 7,7 7,7 0 0 0 7,-7 7,7 0 0 0 -0.02344,-0.54102 z"
     id="path16" />
  <g
     style="fill:#ffffff"
     transform="matrix(0.70711,-0.70711,0.70711,0.70711,-8.9410991,23)"
     id="g22">
    <rect
       width="8"
       height="2"
       x="20"
       y="23"
       id="rect18" />
    <rect
       width="8"
       height="2"
       x="20"
       y="-25"
       transform="rotate(90)"
       id="rect20" />
  </g>
</svg>
