<?xml version="1.0" encoding="UTF-8" standalone="no"?>
<svg
   xmlns:dc="http://purl.org/dc/elements/1.1/"
   xmlns:cc="http://creativecommons.org/ns#"
   xmlns:rdf="http://www.w3.org/1999/02/22-rdf-syntax-ns#"
   xmlns:svg="http://www.w3.org/2000/svg"
   xmlns="http://www.w3.org/2000/svg"
   xmlns:sodipodi="http://sodipodi.sourceforge.net/DTD/sodipodi-0.dtd"
   xmlns:inkscape="http://www.inkscape.org/namespaces/inkscape"
   width="24"
   height="24"
   version="1"
   id="svg24"
   sodipodi:docname="joystick.svg"
   inkscape:version="0.92.5 (2060ec1f9f, 2020-04-08)">
  <metadata
     id="metadata30">
    <rdf:RDF>
      <cc:Work
         rdf:about="">
        <dc:format>image/svg+xml</dc:format>
        <dc:type
           rdf:resource="http://purl.org/dc/dcmitype/StillImage" />
      </cc:Work>
    </rdf:RDF>
  </metadata>
  <defs
     id="defs28" />
  <sodipodi:namedview
     pagecolor="#ffffff"
     bordercolor="#666666"
     borderopacity="1"
     objecttolerance="10"
     gridtolerance="10"
     guidetolerance="10"
     inkscape:pageopacity="0"
     inkscape:pageshadow="2"
     inkscape:window-width="640"
     inkscape:window-height="480"
     id="namedview26"
     showgrid="false"
     inkscape:zoom="9.8333333"
     inkscape:cx="-7.8305085"
     inkscape:cy="12"
     inkscape:current-layer="svg24" />
  <path
     opacity=".2"
     d="m7.026 4.5v0.00195c-2.4885 0-4.3601 2.0013-4.4909 4.4807l-0.4988 9.4603c-0.315 1.85 1.4831 3.018 2.9946 0.995 0.9425-1.279 2.9691-3.938 2.9691-3.938l8 0.04044 2.9887 4.0231c1.4989 2.012 3.187 0.35648 2.9965-1.0053l-0.496-9.4746c0.000784-0.034624 0.0098-0.066882 0.0098-0.1017 0-2.4824-2.0028-4.4827-4.4909-4.4827h-9.9833z"
     id="path2" />
  <path
     inkscape:connector-curvature="0"
     d="m 7.0268004,4.00041 v 0.00195 c -2.4885,0 -4.3601,2.0013 -4.4909,4.4807 l -0.4988,9.4603 c -0.315,1.85 1.4831,3.018 2.9946,0.995 0.9425,-1.279 2.9691,-3.938 2.9691,-3.938 l 7.9999996,0.04044 2.9887,4.0231 c 1.4989,2.012 3.187,0.35648 2.9965,-1.0053 L 21.49,8.584 c 7.84e-4,-0.034624 0.0098,-0.066882 0.0098,-0.1017 0,-2.4824 -2.0028,-4.4827 -4.4909,-4.4827 H 7.0256004 Z"
     id="path4"
     style="fill:#4c566a;fill-opacity:1" />
  <path
     fill="#fff"
     opacity=".1"
     d="m7.0254 4v0.002c-2.4885 0-4.3595 2.001-4.4902 4.4804l-0.4981 9.4606c-0.0439 0.258-0.0395 0.497-0.0078 0.721 0.0059-0.075-0.0054-0.143 0.0078-0.221l0.4981-9.4606c0.1307-2.4794 2.0017-4.4804 4.4902-4.4804v-0.002h9.9846c2.488 0 4.49 2 4.49 4.4824 0 0.0348-0.009 0.067-0.01 0.1016l0.487 9.322c0.009-0.116 0.023-0.233 0.007-0.347l-0.494-9.475c0.001-0.0346 0.01-0.0668 0.01-0.1016 0-2.4824-2.002-4.4824-4.49-4.4824h-9.9846z"
     id="path6" />
  <path
     opacity=".2"
     d="m6 6.5v2h-2v2h2v2h2v-2h2v-2h-2v-2h-2z"
     id="path8" />
  <path
     fill="#e4e4e4"
     d="m6 6v2h-2v2h2v2h2v-2h2v-2h-2v-2h-2z"
     id="path10" />
  <path
     opacity=".2"
     d="m17 6.5a1 1 0 0 0 -1 1 1 1 0 0 0 1 1 1 1 0 0 0 1 -1 1 1 0 0 0 -1 -1zm-2 2a1 1 0 0 0 -1 1 1 1 0 0 0 1 1 1 1 0 0 0 1 -1 1 1 0 0 0 -1 -1zm4 0a1 1 0 0 0 -1 1 1 1 0 0 0 1 1 1 1 0 0 0 1 -1 1 1 0 0 0 -1 -1zm-2 2a1 1 0 0 0 -1 1 1 1 0 0 0 1 1 1 1 0 0 0 1 -1 1 1 0 0 0 -1 -1z"
     id="path12" />
  <g
     transform="translate(-0.01694918,0.94915258)"
     id="g22">
    <circle
       cx="15"
       cy="8"
       r="1"
       id="circle14"
       style="fill:#e4e4e4;fill-opacity:1" />
    <circle
       cx="10"
       cy="-17"
       r="1"
       transform="rotate(90)"
       id="circle16"
       style="fill:#e4e4e4;fill-opacity:1" />
    <circle
       cx="17"
       cy="6"
       r="1"
       id="circle18"
       style="fill:#e4e4e4;fill-opacity:1" />
    <circle
       cx="8"
       cy="-19"
       r="1"
       transform="rotate(90)"
       id="circle20"
       style="fill:#e4e4e4;fill-opacity:1" />
  </g>
</svg>
