<svg xmlns="http://www.w3.org/2000/svg" width="16" height="16" version="1.1">
 <defs>
  <style id="current-color-scheme" type="text/css">
   .ColorScheme-Text { color:#ffffff; } .ColorScheme-Highlight { color:#82c1e0; } .ColorScheme-NeutralText { color:#bcddee; } .ColorScheme-PositiveText { color:#a4d1e8; } .ColorScheme-NegativeText { color:#5daed7; }
  </style>
 </defs>
 <path style="fill:currentColor" class="ColorScheme-Text" d="M 7.467,2 A 5.3333,5.4545 0 0 0 2.4191,5.7073 4.2667,4.3636 0 0 0 3e-4,9.636 4.2667,4.3636 0 0 0 4.267,14 4.2667,4.3636 0 0 0 7.102,12.889 5.3333,5.4545 0 0 0 7.467,12.909 5.3333,5.4545 0 0 0 9.721,12.391 4.2667,4.3636 0 0 0 11.734,12.909 4.2667,4.3636 0 0 0 16,8.544 4.2667,4.3636 0 0 0 11.733,4.1808 4.2667,4.3636 0 0 0 11.724,4.1808 5.3333,5.4545 0 0 0 7.466,1.999 Z"/>
</svg>
