<?xml version="1.0" encoding="UTF-8" standalone="no"?>
<svg
   xmlns:dc="http://purl.org/dc/elements/1.1/"
   xmlns:cc="http://creativecommons.org/ns#"
   xmlns:rdf="http://www.w3.org/1999/02/22-rdf-syntax-ns#"
   xmlns:svg="http://www.w3.org/2000/svg"
   xmlns="http://www.w3.org/2000/svg"
   xmlns:sodipodi="http://sodipodi.sourceforge.net/DTD/sodipodi-0.dtd"
   xmlns:inkscape="http://www.inkscape.org/namespaces/inkscape"
   width="24"
   height="24"
   version="1.1"
   id="svg9"
   sodipodi:docname="replay-record-error.svg"
   inkscape:version="0.92.5 (2060ec1f9f, 2020-04-08)">
  <metadata
     id="metadata13">
    <rdf:RDF>
      <cc:Work
         rdf:about="">
        <dc:format>image/svg+xml</dc:format>
        <dc:type
           rdf:resource="http://purl.org/dc/dcmitype/StillImage" />
      </cc:Work>
    </rdf:RDF>
  </metadata>
  <sodipodi:namedview
     pagecolor="#ffffff"
     bordercolor="#666666"
     borderopacity="1"
     objecttolerance="10"
     gridtolerance="10"
     guidetolerance="10"
     inkscape:pageopacity="0"
     inkscape:pageshadow="2"
     inkscape:window-width="640"
     inkscape:window-height="480"
     id="namedview11"
     showgrid="false"
     inkscape:zoom="9.8333333"
     inkscape:cx="-7.8305085"
     inkscape:cy="12"
     inkscape:current-layer="svg9" />
  <defs
     id="defs3">
    <style
       id="current-color-scheme"
       type="text/css">
   .ColorScheme-Text { color:#dfdfdf; } .ColorScheme-Highlight { color:#4285f4; } .ColorScheme-NeutralText { color:#ff9800; } .ColorScheme-PositiveText { color:#4caf50; } .ColorScheme-NegativeText { color:#f44336; }
  </style>
  </defs>
  <path
     style="fill:#bf616a;fill-opacity:1"
     class="ColorScheme-NegativeText"
     d="M 16.5,13 C 14.567003,13 13,14.567003 13,16.5 13,18.432997 14.567003,20 16.5,20 18.432997,20 20,18.432997 20,16.5 20,14.567003 18.432997,13 16.5,13 Z M 14,16 h 5 v 1 h -5 z"
     id="path5" />
  <path
     style="fill:currentColor"
     class="ColorScheme-Text"
     d="m 12,4 c -4.418278,0 -8,3.581722 -8,8 0,4.418278 3.581722,8 8,8 0.501907,-0.0057 1.00216,-0.05871 1.494141,-0.158203 C 12.932533,19.334394 12.50798,18.693534 12.259766,17.978516 12.173343,17.987558 12.086734,17.994721 12,18 8.6862915,18 6,15.313708 6,12 6,8.6862915 8.6862915,6 12,6 c 3.313708,0 6,2.6862915 6,6 -0.0047,0.08411 -0.01125,0.168115 -0.01953,0.251953 0.71452,0.249062 1.354699,0.67428 1.861328,1.236328 C 19.940921,12.998221 19.993889,12.499947 20,12 20,7.581722 16.418278,4 12,4 Z m 0,4 c -2.209139,0 -4,1.790861 -4,4 0,2.209139 1.790861,4 4,4 l 0.03516,-0.0039 c 0.237441,-2.081325 1.879631,-3.723504 3.960938,-3.960944 C 15.997448,12.023444 15.99875,12.011724 16,12 16,9.790861 14.209139,8 12,8 Z"
     id="path7" />
</svg>
