<?xml version="1.0" encoding="UTF-8" standalone="no"?>
<svg
   xmlns:dc="http://purl.org/dc/elements/1.1/"
   xmlns:cc="http://creativecommons.org/ns#"
   xmlns:rdf="http://www.w3.org/1999/02/22-rdf-syntax-ns#"
   xmlns:svg="http://www.w3.org/2000/svg"
   xmlns="http://www.w3.org/2000/svg"
   xmlns:sodipodi="http://sodipodi.sourceforge.net/DTD/sodipodi-0.dtd"
   xmlns:inkscape="http://www.inkscape.org/namespaces/inkscape"
   width="16"
   height="16"
   version="1.1"
   viewBox="0 0 16 16"
   id="svg4"
   sodipodi:docname="add-files-to-archive-symbolic.svg"
   inkscape:version="0.92.5 (2060ec1f9f, 2020-04-08)">
  <metadata
     id="metadata10">
    <rdf:RDF>
      <cc:Work
         rdf:about="">
        <dc:format>image/svg+xml</dc:format>
        <dc:type
           rdf:resource="http://purl.org/dc/dcmitype/StillImage" />
      </cc:Work>
    </rdf:RDF>
  </metadata>
  <defs
     id="defs8" />
  <sodipodi:namedview
     pagecolor="#ffffff"
     bordercolor="#666666"
     borderopacity="1"
     objecttolerance="10"
     gridtolerance="10"
     guidetolerance="10"
     inkscape:pageopacity="0"
     inkscape:pageshadow="2"
     inkscape:window-width="640"
     inkscape:window-height="480"
     id="namedview6"
     showgrid="false"
     inkscape:zoom="14.75"
     inkscape:cx="8"
     inkscape:cy="8"
     inkscape:current-layer="svg4" />
  <path
     style="fill:#dfdfdf;fill-opacity:1"
     d="M 4.7029987,1.0058594 C 4.4687422,1.0433148 3.9998737,1.2049729 3.9998737,1.8046875 V 12.199219 C 3.9998737,12.998895 4.8338581,13 4.8338581,13 h 8.3242189 c 0.832521,0 0.833982,-0.800781 0.833985,-0.800781 0.01583,-0.03685 0.0042,-5.9574944 0,-7.9941409 L 10.661983,1.0058594 H 4.8338581 c 0,0 -0.052774,-0.012462 -0.1308594,0 z m -2,2 C 2.4687422,3.0433148 1.9998737,3.2049729 1.9998737,3.8046875 V 14.199219 C 1.9998737,14.998895 2.8338581,15 2.8338581,15 h 8.3242189 c 0.832521,0 0.833981,-0.800781 0.833985,-0.800781 3.94e-4,-9.19e-4 -3.61e-4,-0.191144 0,-0.199219 H 3.8338581 c 0,0 -0.8339844,-0.0011 -0.8339844,-0.800781 V 3.0058594 H 2.8338581 c 0,0 -0.052774,-0.012462 -0.1308594,0 z M 7.9998737,4 h 2 V 6 H 11.999874 V 8 H 9.9998737 v 2 h -2 V 8 h -2 V 6 h 2 z"
     id="path2" />
  <path
     id="path7"
     d="M 4.7029987,1.0058594 C 4.4687422,1.0433148 3.9998737,1.2049729 3.9998737,1.8046875 V 12.199219 C 3.9998737,12.998895 4.8338581,13 4.8338581,13 h 8.3242189 c 0.832521,0 0.833982,-0.800781 0.833985,-0.800781 0.01583,-0.03685 0.0042,-5.9574944 0,-7.9941409 L 10.661983,1.0058594 H 4.8338581 c 0,0 -0.052774,-0.012462 -0.1308594,0 z m -2,2 C 2.4687422,3.0433148 1.9998737,3.2049729 1.9998737,3.8046875 V 14.199219 C 1.9998737,14.998895 2.8338581,15 2.8338581,15 h 8.3242189 c 0.832521,0 0.833981,-0.800781 0.833985,-0.800781 3.94e-4,-9.19e-4 -3.61e-4,-0.191144 0,-0.199219 H 3.8338581 c 0,0 -0.8339844,-0.0011 -0.8339844,-0.800781 V 3.0058594 H 2.8338581 c 0,0 -0.052774,-0.012462 -0.1308594,0 z M 7.9998737,4 h 2 V 6 H 11.999874 V 8 H 9.9998737 v 2 h -2 V 8 h -2 V 6 h 2 z"
     style="fill:#dfdfdf;fill-opacity:1" />
</svg>
