<?xml version="1.0" encoding="UTF-8" standalone="no"?>
<svg
   xmlns:dc="http://purl.org/dc/elements/1.1/"
   xmlns:cc="http://creativecommons.org/ns#"
   xmlns:rdf="http://www.w3.org/1999/02/22-rdf-syntax-ns#"
   xmlns:svg="http://www.w3.org/2000/svg"
   xmlns="http://www.w3.org/2000/svg"
   xmlns:sodipodi="http://sodipodi.sourceforge.net/DTD/sodipodi-0.dtd"
   xmlns:inkscape="http://www.inkscape.org/namespaces/inkscape"
   width="16"
   height="16"
   version="1.1"
   id="svg4"
   sodipodi:docname="application-menu-symbolic.svg"
   inkscape:version="0.92.5 (2060ec1f9f, 2020-04-08)">
  <metadata
     id="metadata10">
    <rdf:RDF>
      <cc:Work
         rdf:about="">
        <dc:format>image/svg+xml</dc:format>
        <dc:type
           rdf:resource="http://purl.org/dc/dcmitype/StillImage" />
      </cc:Work>
    </rdf:RDF>
  </metadata>
  <defs
     id="defs8" />
  <sodipodi:namedview
     pagecolor="#ffffff"
     bordercolor="#666666"
     borderopacity="1"
     objecttolerance="10"
     gridtolerance="10"
     guidetolerance="10"
     inkscape:pageopacity="0"
     inkscape:pageshadow="2"
     inkscape:window-width="640"
     inkscape:window-height="480"
     id="namedview6"
     showgrid="false"
     inkscape:zoom="14.75"
     inkscape:cx="8"
     inkscape:cy="8"
     inkscape:current-layer="svg4" />
  <path
     style="fill:#dfdfdf;fill-opacity:1"
     d="M 6.25,1 6.09,2.84 A 5.5,5.5 0 0 0 4.49,3.77 L 2.81,2.98 1.06,6.01 2.58,7.07 A 5.5,5.5 0 0 0 2.5,8 5.5,5.5 0 0 0 2.58,8.93 L 1.06,9.98 2.81,13.01 4.48,12.22 A 5.5,5.5 0 0 0 6.09,13.15 L 6.25,15 H 9.75 L 9.9,13.15 A 5.5,5.5 0 0 0 11.51,12.22 L 13.19,13.01 14.94,9.98 13.41,8.92 A 5.5,5.5 0 0 0 13.5,8 5.5,5.5 0 0 0 13.42,7.06 L 14.94,6.01 13.19,2.98 11.51,3.77 A 5.5,5.5 0 0 0 9.9,2.84 L 9.75,1 Z M 8,6 A 2,2 0 0 1 10,8 2,2 0 0 1 8,10 2,2 0 0 1 6,8 2,2 0 0 1 8,6 Z"
     id="path2" />
</svg>
