<?xml version="1.0" encoding="UTF-8" standalone="no"?>
<svg
   xmlns:dc="http://purl.org/dc/elements/1.1/"
   xmlns:cc="http://creativecommons.org/ns#"
   xmlns:rdf="http://www.w3.org/1999/02/22-rdf-syntax-ns#"
   xmlns:svg="http://www.w3.org/2000/svg"
   xmlns="http://www.w3.org/2000/svg"
   xmlns:sodipodi="http://sodipodi.sourceforge.net/DTD/sodipodi-0.dtd"
   xmlns:inkscape="http://www.inkscape.org/namespaces/inkscape"
   width="16"
   height="16"
   version="1.1"
   id="svg6"
   sodipodi:docname="application-exit-symbolic.svg"
   inkscape:version="0.92.5 (2060ec1f9f, 2020-04-08)">
  <metadata
     id="metadata12">
    <rdf:RDF>
      <cc:Work
         rdf:about="">
        <dc:format>image/svg+xml</dc:format>
        <dc:type
           rdf:resource="http://purl.org/dc/dcmitype/StillImage" />
      </cc:Work>
    </rdf:RDF>
  </metadata>
  <defs
     id="defs10" />
  <sodipodi:namedview
     pagecolor="#ffffff"
     bordercolor="#666666"
     borderopacity="1"
     objecttolerance="10"
     gridtolerance="10"
     guidetolerance="10"
     inkscape:pageopacity="0"
     inkscape:pageshadow="2"
     inkscape:window-width="640"
     inkscape:window-height="480"
     id="namedview8"
     showgrid="false"
     inkscape:zoom="14.75"
     inkscape:cx="8"
     inkscape:cy="8"
     inkscape:current-layer="svg6" />
  <path
     style="fill:#dfdfdf;fill-opacity:1"
     d="M 3,1 C 1.89,1 1,1.892 1,3 V 6 H 3 V 3 H 13 V 13 H 3 V 10 H 1 V 13 C 1,14.108 1.89,15 3,15 H 13 C 14.11,15 15,14.108 15,13 V 3 C 15,1.892 14.11,1 13,1 Z"
     id="path2" />
  <path
     style="fill:#c3c7d1;fill-opacity:1"
     d="M 7.21,4 5.83,5.386 7.46,7.021 0,7 V 9 L 7.46,9.021 5.83,10.655 7.21,12.041 11.21,8 Z"
     id="path4" />
  <path
     id="path14"
     d="M 7.21,4 5.83,5.386 7.46,7.021 0,7 V 9 L 7.46,9.021 5.83,10.655 7.21,12.041 11.21,8 Z"
     style="fill:#c3c7d1;fill-opacity:1" />
  <path
     style="fill:#dfdfdf;fill-opacity:1"
     d="M 7.21,4 5.83,5.386 7.46,7.021 0,7 V 9 L 7.46,9.021 5.83,10.655 7.21,12.041 11.21,8 Z"
     id="path16" />
</svg>
