<?xml version="1.0" encoding="UTF-8" standalone="no"?>
<svg
   xmlns:dc="http://purl.org/dc/elements/1.1/"
   xmlns:cc="http://creativecommons.org/ns#"
   xmlns:rdf="http://www.w3.org/1999/02/22-rdf-syntax-ns#"
   xmlns:svg="http://www.w3.org/2000/svg"
   xmlns="http://www.w3.org/2000/svg"
   xmlns:sodipodi="http://sodipodi.sourceforge.net/DTD/sodipodi-0.dtd"
   xmlns:inkscape="http://www.inkscape.org/namespaces/inkscape"
   width="16"
   height="16"
   version="1.1"
   id="svg6"
   sodipodi:docname="call-stop-symbolic.svg"
   inkscape:version="0.92.5 (2060ec1f9f, 2020-04-08)">
  <metadata
     id="metadata12">
    <rdf:RDF>
      <cc:Work
         rdf:about="">
        <dc:format>image/svg+xml</dc:format>
        <dc:type
           rdf:resource="http://purl.org/dc/dcmitype/StillImage" />
      </cc:Work>
    </rdf:RDF>
  </metadata>
  <defs
     id="defs10" />
  <sodipodi:namedview
     pagecolor="#ffffff"
     bordercolor="#666666"
     borderopacity="1"
     objecttolerance="10"
     gridtolerance="10"
     guidetolerance="10"
     inkscape:pageopacity="0"
     inkscape:pageshadow="2"
     inkscape:window-width="765"
     inkscape:window-height="480"
     id="namedview8"
     showgrid="false"
     inkscape:zoom="14.75"
     inkscape:cx="-5.220339"
     inkscape:cy="8"
     inkscape:current-layer="svg6"
     inkscape:window-x="0"
     inkscape:window-y="28"
     inkscape:window-maximized="0" />
  <path
     style="fill:#dfdfdf;fill-opacity:1"
     d="M 4.5,11 7.5,14 C 7.5,14 8,14.5 8.5,14 L 11.5,11 Z"
     id="path2" />
  <path
     style="fill:#dfdfdf;fill-opacity:1"
     class="error"
     d="M 8.14,2.0141 C 5.47,1.9741 2.89,3.0211 0.99,4.9141 L 0.29,5.6151 C -0.1,6.0031 -0.1,6.6291 0.29,7.0181 L 2.39,9.1191 C 2.78,9.5071 3.41,9.5071 3.8,9.1191 L 5,7.9161 V 5.6581 5.6581 L 5.2,5.5761 C 6.98,4.7911 9.02,4.7941 10.801,5.5861 L 11.001,5.6591 V 5.6591 7.9161 L 12.211,9.1191 C 12.59,9.5081 13.221,9.5081 13.61,9.1191 L 15.711,7.0181 C 16.1,6.6301 16.1,6.0041 15.711,5.6161 L 15.01,4.9141 C 13.18,3.0921 10.721,2.0511 8.14,2.0141 Z"
     id="path4" />
</svg>
