<?xml version="1.0" encoding="UTF-8" standalone="no"?>
<svg
   xmlns:dc="http://purl.org/dc/elements/1.1/"
   xmlns:cc="http://creativecommons.org/ns#"
   xmlns:rdf="http://www.w3.org/1999/02/22-rdf-syntax-ns#"
   xmlns:svg="http://www.w3.org/2000/svg"
   xmlns="http://www.w3.org/2000/svg"
   xmlns:sodipodi="http://sodipodi.sourceforge.net/DTD/sodipodi-0.dtd"
   xmlns:inkscape="http://www.inkscape.org/namespaces/inkscape"
   width="16"
   height="16"
   version="1.1"
   id="svg4"
   sodipodi:docname="chat-message-new-symbolic.svg"
   inkscape:version="0.92.5 (2060ec1f9f, 2020-04-08)">
  <metadata
     id="metadata10">
    <rdf:RDF>
      <cc:Work
         rdf:about="">
        <dc:format>image/svg+xml</dc:format>
        <dc:type
           rdf:resource="http://purl.org/dc/dcmitype/StillImage" />
      </cc:Work>
    </rdf:RDF>
  </metadata>
  <defs
     id="defs8" />
  <sodipodi:namedview
     pagecolor="#ffffff"
     bordercolor="#666666"
     borderopacity="1"
     objecttolerance="10"
     gridtolerance="10"
     guidetolerance="10"
     inkscape:pageopacity="0"
     inkscape:pageshadow="2"
     inkscape:window-width="640"
     inkscape:window-height="480"
     id="namedview6"
     showgrid="false"
     inkscape:zoom="14.75"
     inkscape:cx="8"
     inkscape:cy="8"
     inkscape:current-layer="svg4" />
  <path
     style="fill:#c3c7d1;fill-opacity:1"
     d="M 2.5 1 C 1.115 1 0 2.1162718 0 3.5039062 L 0 10.517578 C 0 11.905212 1.1150052 12.996222 2.5 13 L 10.875 13 L 12.953125 14.998047 L 14 15 L 14 13 C 15.14126 12.767208 16 11.731753 16 10.517578 L 16 3.5039062 C 16 2.1162718 14.885 1 13.5 1 L 2.5 1 z M 2.5 3 L 13.5 3 C 13.777 3 14 3.223 14 3.5 L 14 10.5 C 14 10.777 13.777 11 13.5 11 L 2.5 11 C 2.223 11 2 10.777 2 10.5 L 2 3.5 C 2 3.223 2.223 3 2.5 3 z M 7 4 L 7 6 L 5 6 L 5 8 L 7 8 L 7 10 L 9 10 L 9 8 L 11 8 L 11 6 L 9 6 L 9 4 L 7 4 z"
     id="path2" />
  <path
     id="path12"
     d="M 2.5 1 C 1.115 1 0 2.1162718 0 3.5039062 L 0 10.517578 C 0 11.905212 1.1150052 12.996222 2.5 13 L 10.875 13 L 12.953125 14.998047 L 14 15 L 14 13 C 15.14126 12.767208 16 11.731753 16 10.517578 L 16 3.5039062 C 16 2.1162718 14.885 1 13.5 1 L 2.5 1 z M 2.5 3 L 13.5 3 C 13.777 3 14 3.223 14 3.5 L 14 10.5 C 14 10.777 13.777 11 13.5 11 L 2.5 11 C 2.223 11 2 10.777 2 10.5 L 2 3.5 C 2 3.223 2.223 3 2.5 3 z M 7 4 L 7 6 L 5 6 L 5 8 L 7 8 L 7 10 L 9 10 L 9 8 L 11 8 L 11 6 L 9 6 L 9 4 L 7 4 z"
     style="fill:#c3c7d1;fill-opacity:1" />
  <path
     style="fill:#dfdfdf;fill-opacity:1"
     d="M 2.5 1 C 1.115 1 0 2.1162718 0 3.5039062 L 0 10.517578 C 0 11.905212 1.1150052 12.996222 2.5 13 L 10.875 13 L 12.953125 14.998047 L 14 15 L 14 13 C 15.14126 12.767208 16 11.731753 16 10.517578 L 16 3.5039062 C 16 2.1162718 14.885 1 13.5 1 L 2.5 1 z M 2.5 3 L 13.5 3 C 13.777 3 14 3.223 14 3.5 L 14 10.5 C 14 10.777 13.777 11 13.5 11 L 2.5 11 C 2.223 11 2 10.777 2 10.5 L 2 3.5 C 2 3.223 2.223 3 2.5 3 z M 7 4 L 7 6 L 5 6 L 5 8 L 7 8 L 7 10 L 9 10 L 9 8 L 11 8 L 11 6 L 9 6 L 9 4 L 7 4 z"
     id="path14" />
</svg>
