<?xml version="1.0" encoding="UTF-8" standalone="no"?>
<svg
   xmlns:dc="http://purl.org/dc/elements/1.1/"
   xmlns:cc="http://creativecommons.org/ns#"
   xmlns:rdf="http://www.w3.org/1999/02/22-rdf-syntax-ns#"
   xmlns:svg="http://www.w3.org/2000/svg"
   xmlns="http://www.w3.org/2000/svg"
   xmlns:sodipodi="http://sodipodi.sourceforge.net/DTD/sodipodi-0.dtd"
   xmlns:inkscape="http://www.inkscape.org/namespaces/inkscape"
   width="16"
   height="16"
   version="1.1"
   id="svg4"
   sodipodi:docname="color-select-symbolic.svg"
   inkscape:version="0.92.5 (2060ec1f9f, 2020-04-08)">
  <metadata
     id="metadata10">
    <rdf:RDF>
      <cc:Work
         rdf:about="">
        <dc:format>image/svg+xml</dc:format>
        <dc:type
           rdf:resource="http://purl.org/dc/dcmitype/StillImage" />
      </cc:Work>
    </rdf:RDF>
  </metadata>
  <defs
     id="defs8" />
  <sodipodi:namedview
     pagecolor="#ffffff"
     bordercolor="#666666"
     borderopacity="1"
     objecttolerance="10"
     gridtolerance="10"
     guidetolerance="10"
     inkscape:pageopacity="0"
     inkscape:pageshadow="2"
     inkscape:window-width="640"
     inkscape:window-height="480"
     id="namedview6"
     showgrid="false"
     inkscape:zoom="14.75"
     inkscape:cx="8"
     inkscape:cy="8"
     inkscape:current-layer="svg4" />
  <path
     style="fill:#dfdfdf;fill-opacity:1"
     d="M 13.5,1 A 1.5,1.5 0 0 0 12.439,1.4395 L 10.018,4.0176 8,2 6.5,3.5 8,5 1,12 V 15 H 4 L 11,8 12.5,9.5 14,8 12.012,6.0117 14.566,3.5605 14.562,3.5566 A 1.5,1.5 0 0 0 15,2.5 1.5,1.5 0 0 0 13.5,1 Z M 9,6 10,7 3,14 2,13 Z"
     id="path2" />
  <path
     id="path7"
     d="M 13.5,1 A 1.5,1.5 0 0 0 12.439,1.4395 L 10.018,4.0176 8,2 6.5,3.5 8,5 1,12 V 15 H 4 L 11,8 12.5,9.5 14,8 12.012,6.0117 14.566,3.5605 14.562,3.5566 A 1.5,1.5 0 0 0 15,2.5 1.5,1.5 0 0 0 13.5,1 Z M 9,6 10,7 3,14 2,13 Z"
     style="fill:#dfdfdf;fill-opacity:1" />
</svg>
