<?xml version="1.0" encoding="UTF-8" standalone="no"?>
<svg
   xmlns:dc="http://purl.org/dc/elements/1.1/"
   xmlns:cc="http://creativecommons.org/ns#"
   xmlns:rdf="http://www.w3.org/1999/02/22-rdf-syntax-ns#"
   xmlns:svg="http://www.w3.org/2000/svg"
   xmlns="http://www.w3.org/2000/svg"
   xmlns:sodipodi="http://sodipodi.sourceforge.net/DTD/sodipodi-0.dtd"
   xmlns:inkscape="http://www.inkscape.org/namespaces/inkscape"
   width="48"
   height="48"
   version="1"
   id="svg16"
   sodipodi:docname="application-x-qemu-disk.svg"
   inkscape:version="0.92.5 (2060ec1f9f, 2020-04-08)">
  <metadata
     id="metadata22">
    <rdf:RDF>
      <cc:Work
         rdf:about="">
        <dc:format>image/svg+xml</dc:format>
        <dc:type
           rdf:resource="http://purl.org/dc/dcmitype/StillImage" />
      </cc:Work>
    </rdf:RDF>
  </metadata>
  <defs
     id="defs20" />
  <sodipodi:namedview
     pagecolor="#ffffff"
     bordercolor="#666666"
     borderopacity="1"
     objecttolerance="10"
     gridtolerance="10"
     guidetolerance="10"
     inkscape:pageopacity="0"
     inkscape:pageshadow="2"
     inkscape:window-width="783"
     inkscape:window-height="480"
     id="namedview18"
     showgrid="false"
     inkscape:zoom="4.9166667"
     inkscape:cx="24"
     inkscape:cy="24"
     inkscape:window-x="0"
     inkscape:window-y="28"
     inkscape:window-maximized="0"
     inkscape:current-layer="svg16" />
  <path
     style="opacity:0.2"
     d="M 10,5 C 8.892,5 8,5.892 8,7 v 36 c 0,1.108 0.892,2 2,2 h 28 c 1.108,0 2,-0.892 2,-2 V 17 L 29,16 28,5 Z"
     id="path2" />
  <path
     style="fill:#4c566a;fill-opacity:1"
     d="m10 4c-1.108 0-2 0.892-2 2v36c0 1.108 0.892 2 2 2h28c1.108 0 2-0.892 2-2v-26l-11-1-1-11z"
     id="path4" />
  <path
     fill="#fff"
     opacity=".1"
     d="m10 4c-1.108 0-2 0.892-2 2v1c0-1.108 0.892-2 2-2h18l11 11h1l-12-12z"
     id="path6" />
  <path
     style="opacity:0.2"
     d="m 28,5 v 10 c 0,1.1046 0.89543,2 2,2 h 10 z"
     id="path8" />
  <path
     style="fill:#5f697d;fill-opacity:1"
     d="m28 4v10c0 1.1046 0.89543 2 2 2h10l-12-12z"
     id="path10" />
  <path
     style="opacity:0.2"
     d="M 17.333984,22 C 16.00065,22 16,23.285156 16,23.285156 V 38.714844 C 16,38.714844 16.00065,40 17.333984,40 H 30.666016 C 30.666016,40 32,40.000558 32,38.714844 V 23.285156 C 32,23.285156 31.999349,22 30.666016,22 Z M 24,25 c 2.762499,0 5,2.237499 5,5 0,2.7625 -2.237501,5 -5,5 h -5 v -5 c 0,-2.762501 2.237499,-5 5,-5 z m 0,3 c -1.1,0 -2,0.899999 -2,2 0,1.099999 0.899999,2 2,2 1.1,0 2,-0.900001 2,-2 0,-1.100001 -0.9,-2 -2,-2 z"
     id="path12" />
  <path
     style="fill:#ffffff"
     d="M 17.333984,21 C 16.00065,21 16,22.285156 16,22.285156 V 37.714844 C 16,37.714844 16.00065,39 17.333984,39 H 30.666016 C 30.666016,39 32,39.000558 32,37.714844 V 22.285156 C 32,22.285156 31.999349,21 30.666016,21 Z M 24,24 c 2.762499,0 5,2.237499 5,5 0,2.7625 -2.237501,5 -5,5 h -5 v -5 c 0,-2.762501 2.237499,-5 5,-5 z m 0,3 c -1.1,0 -2,0.899999 -2,2 0,1.099999 0.899999,2 2,2 1.1,0 2,-0.900001 2,-2 0,-1.100001 -0.9,-2 -2,-2 z"
     id="path14" />
</svg>
