<?xml version="1.0" encoding="UTF-8" standalone="no"?>
<svg
   xmlns:dc="http://purl.org/dc/elements/1.1/"
   xmlns:cc="http://creativecommons.org/ns#"
   xmlns:rdf="http://www.w3.org/1999/02/22-rdf-syntax-ns#"
   xmlns:svg="http://www.w3.org/2000/svg"
   xmlns="http://www.w3.org/2000/svg"
   xmlns:sodipodi="http://sodipodi.sourceforge.net/DTD/sodipodi-0.dtd"
   xmlns:inkscape="http://www.inkscape.org/namespaces/inkscape"
   width="48"
   height="48"
   version="1.1"
   id="svg19"
   sodipodi:docname="application-x-nes-rom.svg"
   inkscape:version="0.92.5 (2060ec1f9f, 2020-04-08)">
  <metadata
     id="metadata25">
    <rdf:RDF>
      <cc:Work
         rdf:about="">
        <dc:format>image/svg+xml</dc:format>
        <dc:type
           rdf:resource="http://purl.org/dc/dcmitype/StillImage" />
      </cc:Work>
    </rdf:RDF>
  </metadata>
  <defs
     id="defs23" />
  <sodipodi:namedview
     pagecolor="#ffffff"
     bordercolor="#666666"
     borderopacity="1"
     objecttolerance="10"
     gridtolerance="10"
     guidetolerance="10"
     inkscape:pageopacity="0"
     inkscape:pageshadow="2"
     inkscape:window-width="783"
     inkscape:window-height="480"
     id="namedview21"
     showgrid="false"
     inkscape:zoom="4.9166667"
     inkscape:cx="24"
     inkscape:cy="24"
     inkscape:window-x="0"
     inkscape:window-y="28"
     inkscape:window-maximized="0"
     inkscape:current-layer="svg19" />
  <path
     style="opacity:.2"
     d="m10 5c-1.108 0-2 0.892-2 2v36c0 1.108 0.892 2 2 2h28c1.108 0 2-0.892 2-2v-26l-12-12z"
     id="path2" />
  <path
     style="fill:#4c566a;fill-opacity:1"
     d="m10 4c-1.108 0-2 0.892-2 2v36c0 1.108 0.892 2 2 2h28c1.108 0 2-0.892 2-2v-26l-10-2-2-10z"
     id="path4" />
  <path
     style="opacity:.2"
     d="m40 17-12-12v10c0 1.108 0.892 2 2 2z"
     id="path6" />
  <path
     style="fill:#5f697d;fill-opacity:1"
     d="m40 16-12-12v10c0 1.108 0.892 2 2 2z"
     id="path8" />
  <path
     style="fill:#ffffff;opacity:.2"
     d="m10 4c-1.108 0-2 0.892-2 2v1c0-1.108 0.892-2 2-2h18v-1h-18z"
     id="path10" />
  <path
     style="opacity:0.2"
     d="m 10,26.970703 v 8 h 1.992188 v -5.578125 l 4.009765,5.578125 H 18 v -8 H 15.998047 L 16,32.550781 12.007812,26.970703 Z M 20.005859,27 v 5.351562 c 0,0 -0.250931,2.648438 2.363282,2.648438 H 28 V 33 H 22.771484 C 22.419986,33 22,32.834725 22,32.5 22,32.105546 22.370245,32 22.771484,32 H 28 V 30 H 22.671875 C 22.371065,30 22,29.838973 22,29.5 22,29.161024 22.371065,29 22.671875,29 H 28 V 27 Z M 32.09375,27 C 30.931202,27 30,28.069404 30,29.310547 30,31.056757 31.024052,32 32.279297,32 h 3.021484 C 35.673539,32 36,32.106991 36,32.5 36,32.838296 35.674373,33 35.394531,33 H 30 v 2 h 5.953125 C 37.022978,35 38,34.042389 38,32.689453 38,31.05716 36.975952,30 35.720703,30 H 32.699219 C 32.326459,30 32,29.89301 32,29.5 32,29.158513 32.325629,28.998553 32.605469,29 H 38 v -2 z"
     id="path12" />
  <path
     style="fill:#ffffff;fill-opacity:1"
     d="M 35.72092,29 H 32.698295 C 32.325535,29 32,28.89301 32,28.5 32,28.158513 32.325539,27.998553 32.605379,28 H 38 V 26 H 32.093245 C 30.930697,26 30,27.069605 30,28.310748 30,30.056958 31.023613,31 32.278858,31 h 3.022628 C 35.674244,31 36,31.106991 36,31.5 36,31.838296 35.674244,32 35.394402,32 H 30 v 2 h 5.952556 C 37.022409,34 38,33.042187 38,31.689251 38,30.056958 36.976169,29 35.72092,29"
     id="path14" />
  <path
     id="polygon1045"
     style="fill:#ffffff"
     class="logo"
     d="m 10,25.970986 h 2.007823 l 3.992139,5.578839 -0.0017,-5.578839 h 2.00091 v 8 h -1.997435 l -4.00956,-5.578839 v 5.578839 H 9.9991289 Z" />
  <path
     style="fill:#ffffff;fill-opacity:1"
     d="m 20.006486,31.351914 c 0,0 -0.250598,2.648086 2.363615,2.648086 H 28 V 32 H 22.77134 C 22.419842,32 22,31.834725 22,31.5 22,31.105546 22.370101,31 22.77134,31 H 28 V 29 H 22.670911 C 22.370101,29 22,28.838973 22,28.5 22,28.161024 22.370101,28 22.670911,28 H 28 v -2 h -7.993514 v 5.351914"
     id="path17" />
</svg>
