<?xml version="1.0" encoding="UTF-8" standalone="no"?>
<svg
   xmlns:dc="http://purl.org/dc/elements/1.1/"
   xmlns:cc="http://creativecommons.org/ns#"
   xmlns:rdf="http://www.w3.org/1999/02/22-rdf-syntax-ns#"
   xmlns:svg="http://www.w3.org/2000/svg"
   xmlns="http://www.w3.org/2000/svg"
   xmlns:sodipodi="http://sodipodi.sourceforge.net/DTD/sodipodi-0.dtd"
   xmlns:inkscape="http://www.inkscape.org/namespaces/inkscape"
   width="48"
   height="48"
   version="1"
   id="svg20"
   sodipodi:docname="application-x-extension-fcstd.svg"
   inkscape:version="0.92.5 (2060ec1f9f, 2020-04-08)">
  <metadata
     id="metadata26">
    <rdf:RDF>
      <cc:Work
         rdf:about="">
        <dc:format>image/svg+xml</dc:format>
        <dc:type
           rdf:resource="http://purl.org/dc/dcmitype/StillImage" />
      </cc:Work>
    </rdf:RDF>
  </metadata>
  <defs
     id="defs24" />
  <sodipodi:namedview
     pagecolor="#ffffff"
     bordercolor="#666666"
     borderopacity="1"
     objecttolerance="10"
     gridtolerance="10"
     guidetolerance="10"
     inkscape:pageopacity="0"
     inkscape:pageshadow="2"
     inkscape:window-width="783"
     inkscape:window-height="480"
     id="namedview22"
     showgrid="false"
     inkscape:zoom="4.9166667"
     inkscape:cx="24"
     inkscape:cy="24"
     inkscape:window-x="0"
     inkscape:window-y="28"
     inkscape:window-maximized="0"
     inkscape:current-layer="svg20" />
  <path
     style="opacity:0.2"
     d="m 44,39 c 0,1.108 -0.892,2 -2,2 H 6 C 4.892,41 4,40.108 4,39 V 11 C 4,9.892 4.892,9 6,9 h 26 l 1,11 11,1 z"
     id="path2" />
  <path
     style="fill:#4c566a;fill-opacity:1"
     d="m 44,38 c 0,1.108 -0.892,2 -2,2 H 6 C 4.892,40 4,39.108 4,38 V 10 C 4,8.892 4.892,8 6,8 h 26 l 1,11 11,1 z"
     id="path4" />
  <path
     style="opacity:0.1"
     d="m 13,12 v 26 h 4 V 27 h 6 v -4 h -6 v -5 h 12 v -6 z m 14.501953,14.003906 -0.132812,1.578125 a 4.7143,4.7135333 0 0 0 -1.376953,0.796875 l -1.4375,-0.677734 -1.5,2.599609 1.304687,0.904297 A 4.7143,4.7135333 0 0 0 24.287109,32 a 4.7143,4.7135333 0 0 0 0.06836,0.796875 l -1.300781,0.904297 1.5,2.597656 1.433593,-0.673828 a 4.7143,4.7135333 0 0 0 1.38086,0.791016 L 27.5,38 h 3 l 0.132812,-1.580078 a 4.7143,4.7135333 0 0 0 1.376954,-0.796875 l 1.435546,0.675781 1.5,-2.597656 -1.302734,-0.90625 A 4.7143,4.7135333 0 0 0 33.714844,32 4.7143,4.7135333 0 0 0 33.646484,31.203125 l 1.300782,-0.902344 -1.5,-2.597656 -1.433594,0.673828 a 4.7143,4.7135333 0 0 0 -1.38086,-0.789062 L 30.5,26.003906 Z M 29,30 a 2,1.9999997 0 0 1 2,2 2,1.9999997 0 0 1 -2,2 2,1.9999997 0 0 1 -2,-2 2,1.9999997 0 0 1 2,-2 z"
     id="path6" />
  <path
     style="opacity:0.1;fill:#ffffff"
     d="M 6,8 C 4.892,8 4,8.892 4,10 v 1 C 4,9.892 4.892,9 6,9 H 32 V 8 Z"
     id="path8" />
  <path
     style="opacity:0.2"
     d="M 44,21 H 34 c -1.1046,0 -2,-0.89543 -2,-2 V 9 Z"
     id="path10" />
  <path
     style="fill:#5f697d;fill-opacity:1"
     d="M 44,20 H 34 c -1.1046,0 -2,-0.89543 -2,-2 V 8 Z"
     id="path12" />
  <path
     style="fill:#3f92e7"
     d="m 19.501268,24.999999 -0.002,0.0039 h 0.002 z"
     id="path14" />
  <path
     style="fill:#ffffff;fill-opacity:1"
     d="m 13,11 h 16 v 5.999899 H 17 V 22 h 5.9994 v 4 H 17 v 11 h -4 z"
     id="path16" />
  <path
     style="fill:#697387;fill-opacity:1"
     d="m 27.502269,25.003805 -0.132812,1.578125 a 4.7143,4.7135333 0 0 0 -1.376953,0.796875 l -1.4375,-0.677734 -1.5,2.599609 1.304687,0.904297 a 4.7143,4.7135333 0 0 0 -0.07227,0.794922 4.7143,4.7135333 0 0 0 0.06836,0.796875 l -1.300781,0.904297 1.5,2.597656 1.433593,-0.673828 a 4.7143,4.7135333 0 0 0 1.38086,0.791016 l 0.130863,1.583984 h 3 l 0.132812,-1.580078 a 4.7143,4.7135333 0 0 0 1.376954,-0.796875 l 1.435546,0.675781 1.5,-2.597656 -1.302734,-0.90625 a 4.7143,4.7135333 0 0 0 0.07227,-0.794922 4.7143,4.7135333 0 0 0 -0.06836,-0.796875 l 1.300782,-0.902344 -1.5,-2.597656 -1.433594,0.673828 A 4.7143,4.7135333 0 0 0 30.633128,26.58779 l -0.132812,-1.583985 z m 1.498047,3.996094 a 2,1.9999997 0 0 1 2,2 2,1.9999997 0 0 1 -2,2 2,1.9999997 0 0 1 -2,-2 2,1.9999997 0 0 1 2,-2 z"
     id="path18" />
</svg>
