<?xml version="1.0" encoding="UTF-8" standalone="no"?>
<svg
   xmlns:dc="http://purl.org/dc/elements/1.1/"
   xmlns:cc="http://creativecommons.org/ns#"
   xmlns:rdf="http://www.w3.org/1999/02/22-rdf-syntax-ns#"
   xmlns:svg="http://www.w3.org/2000/svg"
   xmlns="http://www.w3.org/2000/svg"
   xmlns:sodipodi="http://sodipodi.sourceforge.net/DTD/sodipodi-0.dtd"
   xmlns:inkscape="http://www.inkscape.org/namespaces/inkscape"
   width="48"
   height="48"
   version="1"
   id="svg16"
   sodipodi:docname="application-mathematicaplayer.svg"
   inkscape:version="0.92.5 (2060ec1f9f, 2020-04-08)">
  <metadata
     id="metadata22">
    <rdf:RDF>
      <cc:Work
         rdf:about="">
        <dc:format>image/svg+xml</dc:format>
        <dc:type
           rdf:resource="http://purl.org/dc/dcmitype/StillImage" />
      </cc:Work>
    </rdf:RDF>
  </metadata>
  <defs
     id="defs20" />
  <sodipodi:namedview
     pagecolor="#ffffff"
     bordercolor="#666666"
     borderopacity="1"
     objecttolerance="10"
     gridtolerance="10"
     guidetolerance="10"
     inkscape:pageopacity="0"
     inkscape:pageshadow="2"
     inkscape:window-width="640"
     inkscape:window-height="480"
     id="namedview18"
     showgrid="false"
     inkscape:zoom="4.9166667"
     inkscape:cx="-15.661017"
     inkscape:cy="24"
     inkscape:current-layer="svg16" />
  <path
     style="opacity:0.2"
     d="M 10,5 C 8.892,5 8,5.892 8,7 v 36 c 0,1.108 0.892,2 2,2 h 28 c 1.108,0 2,-0.892 2,-2 V 17 L 29,16 28,5 Z"
     id="path2" />
  <path
     inkscape:connector-curvature="0"
     style="fill:#4c566a;fill-opacity:1"
     d="M 10,4 C 8.892,4 8,4.892 8,6 v 36 c 0,1.108 0.892,2 2,2 h 28 c 1.108,0 2,-0.892 2,-2 V 16 L 28,4 Z"
     id="path4" />
  <path
     fill="#fff"
     opacity=".2"
     d="m10 4c-1.108 0-2 0.892-2 2v1c0-1.108 0.892-2 2-2h18l11 11h1l-12-12z"
     id="path6" />
  <path
     style="opacity:0.2"
     d="m 28,5 v 10 c 0,1.1046 0.89543,2 2,2 h 10 z"
     id="path8" />
  <path
     style="opacity:0.1"
     d="M 22.386719,21 C 17.669496,20.999944 13.999854,25.019081 14,29.744141 c 6.7e-5,4.724909 3.314178,8.255915 8.03125,8.255859 5.94657,-0.389775 7.128281,-9.046113 1.941406,-8.03125 -0.06259,0.205663 1.45441,0.798617 1.5625,1.876953 0.212453,2.119482 -1.443886,3.396508 -3.511718,2.994141 -1.510798,-0.293977 -3.335257,-1.587119 -3.689454,-2.875 -0.32749,-1.19078 -0.164179,-2.619281 0.183594,-3.56836 C 20.159468,23.915738 25.956573,22.728968 28,22.785156 26.401301,21.566975 24.643587,21.002335 22.386719,21 Z m 3.582031,4 c -5.94657,0.389775 -7.128281,9.046113 -1.941406,8.03125 0.06259,-0.205663 -1.45441,-0.798617 -1.5625,-1.876953 -0.212453,-2.119482 1.443886,-3.396508 3.511718,-2.994141 1.510798,0.293977 3.335257,1.587119 3.689454,2.875 0.32749,1.19078 0.164179,2.619281 -0.183594,3.56836 C 27.840532,39.084262 22.043427,40.271032 20,40.214844 21.598699,41.433025 23.356413,41.997665 25.613281,42 30.330504,42.000056 34.000146,37.980919 34,33.255859 33.999933,28.53095 30.685822,24.999944 25.96875,25 Z"
     id="path12" />
  <path
     style="fill:#ffffff;fill-opacity:1"
     d="M 22.386719,20 C 17.669496,19.999944 13.999854,24.019081 14,28.744141 c 6.7e-5,4.724909 3.314178,8.255915 8.03125,8.255859 5.94657,-0.389775 7.128281,-9.046113 1.941406,-8.03125 -0.06259,0.205663 1.45441,0.798617 1.5625,1.876953 0.212453,2.119482 -1.443886,3.396508 -3.511718,2.994141 -1.510798,-0.293977 -3.335257,-1.587119 -3.689454,-2.875 -0.32749,-1.19078 -0.164179,-2.619281 0.183594,-3.56836 C 20.159468,22.915738 25.956573,21.728968 28,21.785156 26.401301,20.566975 24.643587,20.002335 22.386719,20 Z m 3.582031,4 c -5.94657,0.389775 -7.128281,9.046113 -1.941406,8.03125 0.06259,-0.205663 -1.45441,-0.798617 -1.5625,-1.876953 -0.212453,-2.119482 1.443886,-3.396508 3.511718,-2.994141 1.510798,0.293977 3.335257,1.587119 3.689454,2.875 0.32749,1.19078 0.164179,2.619281 -0.183594,3.56836 C 27.840532,38.084262 22.043427,39.271032 20,39.214844 21.598699,40.433025 23.356413,40.997665 25.613281,41 30.330504,41.000056 34.000146,36.980919 34,32.255859 33.999933,27.53095 30.685822,23.999944 25.96875,24 Z"
     id="path14" />
  <path
     inkscape:connector-curvature="0"
     style="fill:#5f697d;fill-opacity:1"
     d="M 40,16 28,4 v 10 c 0,1.108 0.892,2 2,2 z"
     id="path8-3" />
</svg>
