<?xml version="1.0" encoding="UTF-8" standalone="no"?>
<svg
   xmlns:dc="http://purl.org/dc/elements/1.1/"
   xmlns:cc="http://creativecommons.org/ns#"
   xmlns:rdf="http://www.w3.org/1999/02/22-rdf-syntax-ns#"
   xmlns:svg="http://www.w3.org/2000/svg"
   xmlns="http://www.w3.org/2000/svg"
   xmlns:sodipodi="http://sodipodi.sourceforge.net/DTD/sodipodi-0.dtd"
   xmlns:inkscape="http://www.inkscape.org/namespaces/inkscape"
   width="48"
   height="48"
   version="1.1"
   id="svg16"
   sodipodi:docname="application-vnd.scribus.svg"
   inkscape:version="0.92.5 (2060ec1f9f, 2020-04-08)">
  <metadata
     id="metadata22">
    <rdf:RDF>
      <cc:Work
         rdf:about="">
        <dc:format>image/svg+xml</dc:format>
        <dc:type
           rdf:resource="http://purl.org/dc/dcmitype/StillImage" />
      </cc:Work>
    </rdf:RDF>
  </metadata>
  <defs
     id="defs20" />
  <sodipodi:namedview
     pagecolor="#ffffff"
     bordercolor="#666666"
     borderopacity="1"
     objecttolerance="10"
     gridtolerance="10"
     guidetolerance="10"
     inkscape:pageopacity="0"
     inkscape:pageshadow="2"
     inkscape:window-width="640"
     inkscape:window-height="480"
     id="namedview18"
     showgrid="false"
     inkscape:zoom="4.9166667"
     inkscape:cx="-15.661017"
     inkscape:cy="24"
     inkscape:current-layer="svg16" />
  <path
     style="opacity:0.2"
     d="M 10,5 C 8.892,5 8,5.892 8,7 V 43 C 8,44.108 8.892,45 10,45 H 38 C 39.108,45 40,44.108 40,43 V 17 L 28,5 Z"
     id="path2" />
  <path
     style="fill:#4c566a;fill-opacity:1"
     d="M 10,4 C 8.892,4 8,4.892 8,6 V 42 C 8,43.108 8.892,44 10,44 H 38 C 39.108,44 40,43.108 40,42 V 16 L 30,14 28,4 Z"
     id="path4" />
  <path
     style="opacity:0.2"
     d="M 40,17 28,5 V 15 C 28,16.108 28.892,17 30,17 Z"
     id="path6" />
  <path
     style="fill:#5f697d;fill-opacity:1"
     d="M 40,16 28,4 V 14 C 28,15.108 28.892,16 30,16 Z"
     id="path8" />
  <path
     style="opacity:0.2;fill:#ffffff"
     d="M 10 4 C 8.892 4 8 4.892 8 6 L 8 7 C 8 5.892 8.892 5 10 5 L 28 5 L 28 4 L 10 4 z"
     id="path10" />
  <path
     style="opacity:0.2;fill-rule:evenodd"
     d="m 25.499775,21.504073 c -2.451825,4.30444 -4.396051,8.146185 -5.651775,12.452414 -0.665251,2.304907 -1.26525,4.692171 -1.848,7.007976 0.9495,0.08329 0.767025,-0.0069 1.499774,1.8e-4 0.539251,-1.252481 1.616476,-2.444245 2.364976,-3.313742 1.857749,-2.005993 3.62775,-2.904292 5.885249,-3.692055 0.033,-2.361732 -0.132749,-4.704003 0.789751,-6.775382 C 28.917751,26.322529 29.511,25.399321 30,24.617785 30,22.28252 27.749999,19.947254 25.5,21.504098 Z"
     id="path12" />
  <path
     style="fill:#ffffff;fill-rule:evenodd"
     d="m 25.499775,20.504073 c -2.451825,4.30444 -4.396051,8.146185 -5.651775,12.452414 -0.665251,2.304907 -1.26525,4.692171 -1.848,7.007976 0.9495,0.08329 0.767025,-0.0069 1.499774,1.8e-4 0.539251,-1.252481 1.616476,-2.444245 2.364976,-3.313742 1.857749,-2.005993 3.62775,-2.904292 5.885249,-3.692055 0.033,-2.361732 -0.132749,-4.704003 0.789751,-6.775382 C 28.917751,25.322529 29.511,24.399321 30,23.617785 30,21.28252 27.749999,18.947254 25.5,20.504098 Z"
     id="path14" />
</svg>
