<?xml version="1.0" encoding="UTF-8" standalone="no"?>
<svg
   xmlns:dc="http://purl.org/dc/elements/1.1/"
   xmlns:cc="http://creativecommons.org/ns#"
   xmlns:rdf="http://www.w3.org/1999/02/22-rdf-syntax-ns#"
   xmlns:svg="http://www.w3.org/2000/svg"
   xmlns="http://www.w3.org/2000/svg"
   xmlns:sodipodi="http://sodipodi.sourceforge.net/DTD/sodipodi-0.dtd"
   xmlns:inkscape="http://www.inkscape.org/namespaces/inkscape"
   width="48"
   height="48"
   version="1"
   id="svg18"
   sodipodi:docname="application-x-codeblocks-workspace.svg"
   inkscape:version="0.92.5 (2060ec1f9f, 2020-04-08)">
  <metadata
     id="metadata24">
    <rdf:RDF>
      <cc:Work
         rdf:about="">
        <dc:format>image/svg+xml</dc:format>
        <dc:type
           rdf:resource="http://purl.org/dc/dcmitype/StillImage" />
      </cc:Work>
    </rdf:RDF>
  </metadata>
  <defs
     id="defs22" />
  <sodipodi:namedview
     pagecolor="#ffffff"
     bordercolor="#666666"
     borderopacity="1"
     objecttolerance="10"
     gridtolerance="10"
     guidetolerance="10"
     inkscape:pageopacity="0"
     inkscape:pageshadow="2"
     inkscape:window-width="783"
     inkscape:window-height="480"
     id="namedview20"
     showgrid="false"
     inkscape:zoom="4.9166667"
     inkscape:cx="24"
     inkscape:cy="24"
     inkscape:window-x="0"
     inkscape:window-y="28"
     inkscape:window-maximized="0"
     inkscape:current-layer="svg18" />
  <path
     fill="#e44545"
     d="m24 4h-18c-1.108 0-2 0.892-2 2v18h20z"
     id="path2"
     style="fill:#414b5f;fill-opacity:1" />
  <path
     fill="#38ac52"
     d="m24 4h18c1.108 0 2 0.892 2 2v18h-20z"
     id="path4"
     style="fill:#5f697d;fill-opacity:1" />
  <path
     fill="#f2ae37"
     d="m24 44h-18c-1.108 0-2-0.892-2-2v-18h20z"
     id="path6"
     style="fill:#5f697d;fill-opacity:1" />
  <path
     fill="#3776f2"
     d="m24 44h18c1.108 0 2-0.892 2-2v-18h-20z"
     id="path8"
     style="fill:#414b5f;fill-opacity:1" />
  <path
     fill="#fff"
     opacity=".2"
     d="m6 4c-1.108 0-2 0.892-2 2v1c0-1.108 0.892-2 2-2h36c1.108 0 2 0.892 2 2v-1c0-1.108-0.892-2-2-2h-36z"
     id="path10" />
  <path
     opacity=".2"
     d="m6 45c-1.108 0-2-0.892-2-2v-1c0 1.108 0.892 2 2 2h36c1.108 0 2-0.892 2-2v1c0 1.108-0.892 2-2 2h-36z"
     id="path12" />
  <rect
     style="fill:#4c566a;fill-opacity:1"
     width="28"
     height="28"
     x="10"
     y="10"
     id="rect14" />
  <rect
     style="opacity:0.2"
     width="28"
     height="1"
     x="10"
     y="38"
     id="rect16" />
</svg>
