<?xml version="1.0" encoding="UTF-8" standalone="no"?>
<svg
   xmlns:dc="http://purl.org/dc/elements/1.1/"
   xmlns:cc="http://creativecommons.org/ns#"
   xmlns:rdf="http://www.w3.org/1999/02/22-rdf-syntax-ns#"
   xmlns:svg="http://www.w3.org/2000/svg"
   xmlns="http://www.w3.org/2000/svg"
   xmlns:sodipodi="http://sodipodi.sourceforge.net/DTD/sodipodi-0.dtd"
   xmlns:inkscape="http://www.inkscape.org/namespaces/inkscape"
   width="48"
   height="48"
   version="1"
   id="svg16"
   sodipodi:docname="application-vnd.adobe.flash.movie.svg"
   inkscape:version="0.92.5 (2060ec1f9f, 2020-04-08)">
  <metadata
     id="metadata22">
    <rdf:RDF>
      <cc:Work
         rdf:about="">
        <dc:format>image/svg+xml</dc:format>
        <dc:type
           rdf:resource="http://purl.org/dc/dcmitype/StillImage" />
      </cc:Work>
    </rdf:RDF>
  </metadata>
  <defs
     id="defs20" />
  <sodipodi:namedview
     pagecolor="#ffffff"
     bordercolor="#666666"
     borderopacity="1"
     objecttolerance="10"
     gridtolerance="10"
     guidetolerance="10"
     inkscape:pageopacity="0"
     inkscape:pageshadow="2"
     inkscape:window-width="640"
     inkscape:window-height="480"
     id="namedview18"
     showgrid="false"
     inkscape:zoom="4.9166667"
     inkscape:cx="-15.661017"
     inkscape:cy="24"
     inkscape:current-layer="svg16" />
  <path
     style="opacity:0.2"
     d="M 10,5 C 8.892,5 8,5.892 8,7 v 36 c 0,1.108 0.892,2 2,2 h 28 c 1.108,0 2,-0.892 2,-2 V 17 L 29,16 28,5 Z"
     id="path2" />
  <path
     style="fill:#4c566a;fill-opacity:1"
     d="m10 4c-1.108 0-2 0.892-2 2v36c0 1.108 0.892 2 2 2h28c1.108 0 2-0.892 2-2v-26l-11-1-1-11z"
     id="path4" />
  <path
     fill="#fff"
     style="opacity:0.2"
     d="m10 4c-1.108 0-2 0.892-2 2v1c0-1.108 0.892-2 2-2h18l11 11h1l-12-12z"
     id="path6" />
  <path
     style="opacity:0.2"
     d="m 28,5 v 10 c 0,1.1046 0.89543,2 2,2 h 10 z"
     id="path8" />
  <path
     style="fill:#5f697d;fill-opacity:1"
     d="m28 4v10c0 1.1046 0.89543 2 2 2h10l-12-12z"
     id="path10" />
  <path
     style="opacity:0.1"
     d="m 31,21.006 v 3.6212 c -3.5149,0.0633 -4.3787,3.5891 -4.3787,3.5891 h 2.6511 v 3.6211 h -4.1106 c -2.473,7.846 -8.162,7.147 -8.162,7.147 v -3.6211 c 0,0 3.6103,0.68898 5.4511,-6.2255 2.303,-8.65 8.549,-8.132 8.549,-8.132 z"
     id="path12" />
  <path
     style="fill:#ffffff;fill-opacity:1"
     d="m31 20.006v3.6212c-3.5149 0.0633-4.3787 3.5891-4.3787 3.5891h2.6511v3.6211h-4.1106c-2.473 7.846-8.162 7.147-8.162 7.147v-3.6211s3.6103 0.68898 5.4511-6.2255c2.303-8.65 8.549-8.132 8.549-8.132z"
     id="path14" />
</svg>
