<?xml version="1.0" encoding="UTF-8" standalone="no"?>
<svg
   xmlns:dc="http://purl.org/dc/elements/1.1/"
   xmlns:cc="http://creativecommons.org/ns#"
   xmlns:rdf="http://www.w3.org/1999/02/22-rdf-syntax-ns#"
   xmlns:svg="http://www.w3.org/2000/svg"
   xmlns="http://www.w3.org/2000/svg"
   xmlns:sodipodi="http://sodipodi.sourceforge.net/DTD/sodipodi-0.dtd"
   xmlns:inkscape="http://www.inkscape.org/namespaces/inkscape"
   width="48"
   height="48"
   version="1"
   id="svg12"
   sodipodi:docname="application-afdesigner.svg"
   inkscape:version="0.92.5 (2060ec1f9f, 2020-04-08)">
  <metadata
     id="metadata18">
    <rdf:RDF>
      <cc:Work
         rdf:about="">
        <dc:format>image/svg+xml</dc:format>
        <dc:type
           rdf:resource="http://purl.org/dc/dcmitype/StillImage" />
      </cc:Work>
    </rdf:RDF>
  </metadata>
  <defs
     id="defs16" />
  <sodipodi:namedview
     pagecolor="#ffffff"
     bordercolor="#666666"
     borderopacity="1"
     objecttolerance="10"
     gridtolerance="10"
     guidetolerance="10"
     inkscape:pageopacity="0"
     inkscape:pageshadow="2"
     inkscape:window-width="640"
     inkscape:window-height="480"
     id="namedview14"
     showgrid="false"
     inkscape:zoom="19.666667"
     inkscape:cx="16.881356"
     inkscape:cy="9.762712"
     inkscape:current-layer="svg12" />
  <rect
     style="opacity:0.2"
     width="40"
     height="40"
     x="4"
     y="5"
     rx="2"
     ry="2"
     id="rect2" />
  <rect
     width="40"
     height="40"
     x="4"
     y="4.3898306"
     rx="2"
     ry="2"
     id="rect4-3"
     style="fill:#4c566a;fill-opacity:1" />
  <path
     fill="#fff"
     opacity=".1"
     d="m6 4c-1.108 0-2 0.892-2 2v1c0-1.108 0.892-2 2-2h36c1.108 0 2 0.892 2 2v-1c0-1.108-0.892-2-2-2h-36z"
     id="path6" />
  <path
     style="opacity:0.2"
     d="m 20.709596,11 h 4.724678 l 0.395235,1 h 1.35431 L 39,32.506631 36.455597,37 H 26.113672 l 1.04801,2 h -0.45745 L 25.656319,37 H 12.818847 L 12.161682,36 H 11.348979 L 9,31.623034 v 0 l 3.010629,-5.222111 2.788682,-1.607365 4.613704,-7.988461 -0.928065,-1.607463 z M 23.493791,18.41256 15.332141,33 h 7.810883 l -0.901443,-2.0049 8.512417,0.0098 z"
     id="path8" />
  <path
     style="fill:#ffffff"
     d="m 20.709596,10 h 4.724678 l 0.395235,1 h 1.35431 L 39,31.506631 36.455597,36 H 26.113672 l 1.04801,2 h -0.45745 L 25.656319,36 H 12.818847 L 12.161682,35 H 11.348979 L 9,30.623034 v 0 l 3.010629,-5.222111 2.788682,-1.607365 4.613704,-7.988461 -0.928065,-1.607463 z M 23.493791,17.41256 15.332141,32 h 7.810883 l -0.901443,-2.0049 8.512417,0.0098 z"
     id="path10" />
</svg>
