<?xml version="1.0" encoding="UTF-8" standalone="no"?>
<svg
   xmlns:dc="http://purl.org/dc/elements/1.1/"
   xmlns:cc="http://creativecommons.org/ns#"
   xmlns:rdf="http://www.w3.org/1999/02/22-rdf-syntax-ns#"
   xmlns:svg="http://www.w3.org/2000/svg"
   xmlns="http://www.w3.org/2000/svg"
   xmlns:sodipodi="http://sodipodi.sourceforge.net/DTD/sodipodi-0.dtd"
   xmlns:inkscape="http://www.inkscape.org/namespaces/inkscape"
   width="48"
   height="48"
   version="1.1"
   id="svg18"
   sodipodi:docname="application-x-kmymoney.svg"
   inkscape:version="0.92.5 (2060ec1f9f, 2020-04-08)">
  <metadata
     id="metadata24">
    <rdf:RDF>
      <cc:Work
         rdf:about="">
        <dc:format>image/svg+xml</dc:format>
        <dc:type
           rdf:resource="http://purl.org/dc/dcmitype/StillImage" />
      </cc:Work>
    </rdf:RDF>
  </metadata>
  <defs
     id="defs22" />
  <sodipodi:namedview
     pagecolor="#ffffff"
     bordercolor="#666666"
     borderopacity="1"
     objecttolerance="10"
     gridtolerance="10"
     guidetolerance="10"
     inkscape:pageopacity="0"
     inkscape:pageshadow="2"
     inkscape:window-width="783"
     inkscape:window-height="480"
     id="namedview20"
     showgrid="false"
     inkscape:zoom="4.9166667"
     inkscape:cx="24"
     inkscape:cy="24"
     inkscape:window-x="0"
     inkscape:window-y="28"
     inkscape:window-maximized="0"
     inkscape:current-layer="svg18" />
  <path
     style="opacity:0.2"
     d="M 10,5 C 8.892,5 8,5.892 8,7 v 36 c 0,1.108 0.892,2 2,2 h 28 c 1.108,0 2,-0.892 2,-2 V 17 L 29,16 28,5 Z"
     id="path2" />
  <path
     opacity=".1"
     d="m163.22 242.45v11c0 1.1046 0.89543 2 2 2h10l-1-1-10-9z"
     id="path4" />
  <path
     style="fill:#4c566a;fill-opacity:1"
     d="m10 4c-1.108 0-2 0.892-2 2v36c0 1.108 0.892 2 2 2h28c1.108 0 2-0.892 2-2v-26l-11-1-1-11z"
     id="path6" />
  <path
     fill="#ffffff"
     opacity=".2"
     d="m10 4c-1.108 0-2 0.892-2 2v1c0-1.108 0.892-2 2-2h18l11 11h1l-12-12z"
     id="path8" />
  <path
     style="opacity:0.2"
     d="m 28,5 v 10 c 0,1.1046 0.89543,2 2,2 h 10 z"
     id="path10" />
  <path
     style="fill:#5f697d;fill-opacity:1"
     d="m28 4v10c0 1.1046 0.89543 2 2 2h10l-12-12z"
     id="path12" />
  <path
     style="opacity:0.2"
     d="m 21.5,22.9997 c -0.831,0 -1.5,0.59532 -1.5,1.333984 v 13.332032 c 0,0.738664 0.669,1.333984 1.5,1.333984 0.831,0 1.5,-0.59532 1.5,-1.333984 v -3.263672 l 2.291016,3.96875 c 0.369332,0.639702 1.247129,0.82175 1.966796,0.40625 0.719664,-0.4155 1.002145,-1.266546 0.632813,-1.90625 l -3.384766,-5.863282 3.384766,-5.861328 c 0.369332,-0.639703 0.08685,-1.488797 -0.632813,-1.904297 -0.269875,-0.155812 -0.562792,-0.227254 -0.841796,-0.222656 -0.465008,0.0077 -0.894168,0.227139 -1.125,0.626953 L 23,27.614934 v -3.28125 C 23,23.59502 22.331,22.9997 21.5,22.9997 Z"
     id="path14" />
  <path
     style="fill:#ffffff"
     d="m21.5 21.9997c-0.831 0-1.5 0.59532-1.5 1.333984v13.332032c0 0.738664 0.669 1.333984 1.5 1.333984s1.5-0.59532 1.5-1.333984v-3.263672l2.291016 3.96875c0.369332 0.639702 1.247129 0.82175 1.966796 0.40625 0.719664-0.4155 1.002145-1.266546 0.632813-1.90625l-3.384766-5.863282 3.384766-5.861328c0.369332-0.639703 0.08685-1.488797-0.632813-1.904297-0.269875-0.155812-0.562792-0.227254-0.841796-0.222656-0.465008 0.0077-0.894168 0.227139-1.125 0.626953l-2.291016 3.96875v-3.28125c0-0.738664-0.669-1.333984-1.5-1.333984z"
     id="path16" />
</svg>
