<?xml version="1.0" encoding="UTF-8" standalone="no"?>
<svg
   xmlns:dc="http://purl.org/dc/elements/1.1/"
   xmlns:cc="http://creativecommons.org/ns#"
   xmlns:rdf="http://www.w3.org/1999/02/22-rdf-syntax-ns#"
   xmlns:svg="http://www.w3.org/2000/svg"
   xmlns="http://www.w3.org/2000/svg"
   xmlns:sodipodi="http://sodipodi.sourceforge.net/DTD/sodipodi-0.dtd"
   xmlns:inkscape="http://www.inkscape.org/namespaces/inkscape"
   width="48"
   height="48"
   version="1"
   id="svg20"
   sodipodi:docname="application-mathml+xml.svg"
   inkscape:version="0.92.5 (2060ec1f9f, 2020-04-08)">
  <metadata
     id="metadata26">
    <rdf:RDF>
      <cc:Work
         rdf:about="">
        <dc:format>image/svg+xml</dc:format>
        <dc:type
           rdf:resource="http://purl.org/dc/dcmitype/StillImage" />
      </cc:Work>
    </rdf:RDF>
  </metadata>
  <defs
     id="defs24" />
  <sodipodi:namedview
     pagecolor="#ffffff"
     bordercolor="#666666"
     borderopacity="1"
     objecttolerance="10"
     gridtolerance="10"
     guidetolerance="10"
     inkscape:pageopacity="0"
     inkscape:pageshadow="2"
     inkscape:window-width="640"
     inkscape:window-height="480"
     id="namedview22"
     showgrid="false"
     inkscape:zoom="4.9166667"
     inkscape:cx="-15.661017"
     inkscape:cy="24"
     inkscape:current-layer="svg20" />
  <path
     style="opacity:0.2"
     d="M 10,5 C 8.892,5 8,5.892 8,7 v 36 c 0,1.108 0.892,2 2,2 h 28 c 1.108,0 2,-0.892 2,-2 V 17 L 29,16 28,5 Z"
     id="path2" />
  <path
     style="fill:#4c566a;fill-opacity:1"
     d="M 10,4 C 8.892,4 8,4.892 8,6 v 36 c 0,1.108 0.892,2 2,2 h 28 c 1.108,0 2,-0.892 2,-2 V 16 L 29,15 28,4 Z"
     id="path4" />
  <path
     style="opacity:0.1;fill:#ffffff"
     d="M 10,4 C 8.892,4 8,4.892 8,6 V 7 C 8,5.892 8.892,5 10,5 h 18 l 11,11 h 1 L 28,4 Z"
     id="path6" />
  <path
     style="opacity:0.2"
     d="m 28,5 v 10 c 0,1.1046 0.89543,2 2,2 h 10 z"
     id="path8" />
  <path
     style="fill:#5f697d;fill-opacity:1"
     d="m 28,4 v 10 c 0,1.1046 0.89543,2 2,2 h 10 z"
     id="path10" />
  <g
     style="opacity:0.2"
     transform="matrix(1.1795,0,0,1.2139,13.999,22.352)"
     id="g14">
    <path
       transform="matrix(0.8478,0,0,0.82378,30.217,-16.333)"
       d="m -25.725,21.475 -3.1152,10.939 -2.3066,-5.7949 h -4.4941 v 2.0137 h 3.1816 l 3.1211,7.8418 h 1.3789 l 3.6992,-12.986 h 6.3984 v -2.0137 h -7.8633 z m 1.498,6 3.2578,4.291 -3.5605,4.709 h 1.7754 l 2.668,-3.5352 2.668,3.5352 h 1.7773 l -3.4883,-4.6191 3.3164,-4.3809 h -1.7773 l -2.4297,3.207 -2.4316,-3.207 h -1.7754 z"
       id="path12" />
  </g>
  <g
     style="fill:#ffffff"
     transform="matrix(1.1795,0,0,1.2139,13.999,21.352)"
     id="g18">
    <path
       transform="matrix(0.8478,0,0,0.82378,30.217,-16.333)"
       d="m -25.725,21.475 -3.1152,10.939 -2.3066,-5.7949 h -4.4941 v 2.0137 h 3.1816 l 3.1211,7.8418 h 1.3789 l 3.6992,-12.986 h 6.3984 v -2.0137 h -7.8633 z m 1.498,6 3.2578,4.291 -3.5605,4.709 h 1.7754 l 2.668,-3.5352 2.668,3.5352 h 1.7773 l -3.4883,-4.6191 3.3164,-4.3809 h -1.7773 l -2.4297,3.207 -2.4316,-3.207 h -1.7754 z"
       id="path16" />
  </g>
</svg>
