<?xml version="1.0" encoding="UTF-8" standalone="no"?>
<svg
   xmlns:dc="http://purl.org/dc/elements/1.1/"
   xmlns:cc="http://creativecommons.org/ns#"
   xmlns:rdf="http://www.w3.org/1999/02/22-rdf-syntax-ns#"
   xmlns:svg="http://www.w3.org/2000/svg"
   xmlns="http://www.w3.org/2000/svg"
   xmlns:sodipodi="http://sodipodi.sourceforge.net/DTD/sodipodi-0.dtd"
   xmlns:inkscape="http://www.inkscape.org/namespaces/inkscape"
   width="48"
   height="48"
   version="1"
   id="svg24"
   sodipodi:docname="application-x-krita.svg"
   inkscape:version="0.92.5 (2060ec1f9f, 2020-04-08)">
  <metadata
     id="metadata30">
    <rdf:RDF>
      <cc:Work
         rdf:about="">
        <dc:format>image/svg+xml</dc:format>
        <dc:type
           rdf:resource="http://purl.org/dc/dcmitype/StillImage" />
      </cc:Work>
    </rdf:RDF>
  </metadata>
  <defs
     id="defs28" />
  <sodipodi:namedview
     pagecolor="#ffffff"
     bordercolor="#666666"
     borderopacity="1"
     objecttolerance="10"
     gridtolerance="10"
     guidetolerance="10"
     inkscape:pageopacity="0"
     inkscape:pageshadow="2"
     inkscape:window-width="783"
     inkscape:window-height="480"
     id="namedview26"
     showgrid="false"
     inkscape:zoom="4.9166667"
     inkscape:cx="24"
     inkscape:cy="24"
     inkscape:window-x="0"
     inkscape:window-y="28"
     inkscape:window-maximized="0"
     inkscape:current-layer="g22" />
  <path
     style="opacity:0.2"
     d="M 10,5 C 8.892,5 8,5.892 8,7 v 36 c 0,1.108 0.892,2 2,2 h 28 c 1.108,0 2,-0.892 2,-2 V 17 L 29,16 28,5 Z"
     id="path2" />
  <path
     fill="#4f4f4f"
     d="m10 4c-1.108 0-2 0.892-2 2v36c0 1.108 0.892 2 2 2h28c1.108 0 2-0.892 2-2v-26l-11-1-1-11z"
     id="path4"
     style="fill:#4c566a;fill-opacity:1" />
  <path
     fill="#fff"
     opacity=".1"
     d="m10 4c-1.108 0-2 0.892-2 2v1c0-1.108 0.892-2 2-2h18l11 11h1l-12-12z"
     id="path6" />
  <path
     style="opacity:0.2"
     d="m 28,5 v 10 c 0,1.1046 0.89543,2 2,2 h 10 z"
     id="path8" />
  <path
     fill="#696969"
     d="m28 4v10c0 1.1046 0.89543 2 2 2h10l-12-12z"
     id="path10"
     style="fill:#5f697d;fill-opacity:1" />
  <circle
     style="opacity:0.2"
     cx="24"
     cy="31"
     r="10"
     id="circle12" />
  <g
     transform="matrix(0.50012868,0,0,0.50021719,32.956526,18.657031)"
     id="g22">
    <circle
       style="fill:#ffffff;stroke:#000000;stroke-width:0;stroke-linecap:round;stroke-linejoin:round"
       cx="-17.917"
       cy="22.688"
       r="19.5"
       id="circle14" />
    <path
       style="fill:#697387;stroke:#000000;stroke-width:0;stroke-linecap:round;stroke-linejoin:round;fill-opacity:1"
       d="M -0.596414,12.688108 A 20,20 0 0 0 -27.916922,5.3676 a 20,20 0 0 0 -7.344002,7.408722 l 17.344002,9.911786 z"
       id="path16" />
    <path
       style="fill:#ffffff;stroke:#000000;stroke-width:0;stroke-linecap:round;stroke-linejoin:round;fill-opacity:1"
       d="m -0.596414,12.688108 -17.320508,10 -0.08886,19.978907 a 20,20 0 0 0 10.088857,-2.658399 20,20 0 0 0 7.320508,-27.320508 z"
       id="path18" />
    <path
       style="fill:#5f697d;stroke:#000000;stroke-width:0;stroke-linecap:round;stroke-linejoin:round;fill-opacity:1"
       d="m -17.916922,22.688108 -17.344002,-9.911786 a 20,20 0 0 0 0.02349,19.911786 20,20 0 0 0 17.231651,9.978907 z"
       id="path20" />
  </g>
</svg>
