<?xml version="1.0" encoding="UTF-8" standalone="no"?>
<svg
   xmlns:dc="http://purl.org/dc/elements/1.1/"
   xmlns:cc="http://creativecommons.org/ns#"
   xmlns:rdf="http://www.w3.org/1999/02/22-rdf-syntax-ns#"
   xmlns:svg="http://www.w3.org/2000/svg"
   xmlns="http://www.w3.org/2000/svg"
   xmlns:sodipodi="http://sodipodi.sourceforge.net/DTD/sodipodi-0.dtd"
   xmlns:inkscape="http://www.inkscape.org/namespaces/inkscape"
   width="48"
   height="48"
   version="1"
   id="svg14"
   sodipodi:docname="application-pgp-encrypted.svg"
   inkscape:version="0.92.5 (2060ec1f9f, 2020-04-08)">
  <metadata
     id="metadata20">
    <rdf:RDF>
      <cc:Work
         rdf:about="">
        <dc:format>image/svg+xml</dc:format>
        <dc:type
           rdf:resource="http://purl.org/dc/dcmitype/StillImage" />
      </cc:Work>
    </rdf:RDF>
  </metadata>
  <defs
     id="defs18" />
  <sodipodi:namedview
     pagecolor="#ffffff"
     bordercolor="#666666"
     borderopacity="1"
     objecttolerance="10"
     gridtolerance="10"
     guidetolerance="10"
     inkscape:pageopacity="0"
     inkscape:pageshadow="2"
     inkscape:window-width="640"
     inkscape:window-height="480"
     id="namedview16"
     showgrid="false"
     inkscape:zoom="4.9166667"
     inkscape:cx="16.881356"
     inkscape:cy="24"
     inkscape:current-layer="svg14" />
  <path
     style="opacity:0.2"
     d="M 10,5 C 8.892,5 8,5.892 8,7 v 36 c 0,1.108 0.892,2 2,2 h 28 c 1.108,0 2,-0.892 2,-2 V 17 L 29,16 28,5 Z"
     id="path2" />
  <path
     inkscape:connector-curvature="0"
     style="fill:#4c566a;fill-opacity:1"
     d="M 10,4 C 8.8920004,4 8.0000004,4.892 8.0000004,6 v 36 c 0,1.108 0.892,2 1.9999996,2 h 28 c 1.108,0 2,-0.892 2,-2 V 16 L 28,4 Z"
     id="path4" />
  <path
     fill="#fff"
     opacity=".2"
     d="m10 4c-1.108 0-2 0.892-2 2v1c0-1.108 0.892-2 2-2h18l11 11h1l-12-12z"
     id="path6" />
  <path
     style="opacity:0.2"
     d="m 28,5 v 10 c 0,1.1046 0.89543,2 2,2 h 10 z"
     id="path8" />
  <path
     style="fill:#ffffff;fill-opacity:1"
     d="m 24,21 c -2.5853,0 -5,2.0816 -5,4.6426 v 2.357 h -0.834 c -0.646,0 -1.166,0.367 -1.166,1 V 35.857 C 17,36.491 17.52,37 18.166,37 H 29.834 C 30.48,37 31,36.491 31,35.857 V 29 c 0,-0.63314 -0.51968,-1 -1.166,-1 H 29 V 25.643 C 29,23.083 26.585,21 24,21 Z m 0,3 c 1.108,0 2,0.892 2,2 v 2 h -4 v -2 c 0,-1.108 0.892,-2 2,-2 z"
     id="path12" />
  <path
     inkscape:connector-curvature="0"
     style="fill:#5f697d;fill-opacity:1"
     d="M 40,16 28,4 v 10 c 0,1.108 0.892,2 2,2 z"
     id="path8-3" />
</svg>
