<?xml version="1.0" encoding="UTF-8" standalone="no"?>
<svg
   xmlns:dc="http://purl.org/dc/elements/1.1/"
   xmlns:cc="http://creativecommons.org/ns#"
   xmlns:rdf="http://www.w3.org/1999/02/22-rdf-syntax-ns#"
   xmlns:svg="http://www.w3.org/2000/svg"
   xmlns="http://www.w3.org/2000/svg"
   xmlns:sodipodi="http://sodipodi.sourceforge.net/DTD/sodipodi-0.dtd"
   xmlns:inkscape="http://www.inkscape.org/namespaces/inkscape"
   width="48"
   height="48"
   version="1.1"
   id="svg24"
   sodipodi:docname="application-x-lyx.svg"
   inkscape:version="0.92.5 (2060ec1f9f, 2020-04-08)">
  <metadata
     id="metadata30">
    <rdf:RDF>
      <cc:Work
         rdf:about="">
        <dc:format>image/svg+xml</dc:format>
        <dc:type
           rdf:resource="http://purl.org/dc/dcmitype/StillImage" />
      </cc:Work>
    </rdf:RDF>
  </metadata>
  <defs
     id="defs28" />
  <sodipodi:namedview
     pagecolor="#ffffff"
     bordercolor="#666666"
     borderopacity="1"
     objecttolerance="10"
     gridtolerance="10"
     guidetolerance="10"
     inkscape:pageopacity="0"
     inkscape:pageshadow="2"
     inkscape:window-width="783"
     inkscape:window-height="480"
     id="namedview26"
     showgrid="false"
     inkscape:zoom="6.9532167"
     inkscape:cx="21.954458"
     inkscape:cy="25.865684"
     inkscape:window-x="0"
     inkscape:window-y="28"
     inkscape:window-maximized="0"
     inkscape:current-layer="svg24" />
  <path
     style="opacity:0.2"
     d="M 10,5 C 8.892,5 8,5.892 8,7 V 43 C 8,44.108 8.892,45 10,45 H 38 C 39.108,45 40,44.108 40,43 V 17 L 28,5 Z"
     id="path2" />
  <path
     style="fill:#4c566a;fill-opacity:1"
     d="M 10,4 C 8.892,4 8,4.892 8,6 V 42 C 8,43.108 8.892,44 10,44 H 38 C 39.108,44 40,43.108 40,42 V 16 L 30,14 28,4 Z"
     id="path4" />
  <path
     style="opacity:0.2"
     d="M 40,17 28,5 V 15 C 28,16.108 28.892,17 30,17 Z"
     id="path6" />
  <path
     style="fill:#5f697d;fill-opacity:1"
     d="M 40,16 28,4 V 14 C 28,15.108 28.892,16 30,16 Z"
     id="path8" />
  <path
     style="opacity:0.2;fill:#ffffff"
     d="M 10 4 C 8.892 4 8 4.892 8 6 L 8 7 C 8 5.892 8.892 5 10 5 L 28 5 L 28 4 L 10 4 z"
     id="path10" />
  <path
     style="opacity:0.1"
     d="m 15.106222,36.382314 -4.105821,-9.91681 3.305661,-1.616806 0.08202,-0.108987 2.664533,6.741191 3.19964,-1.698796 1.438287,3.202616 m -6.583316,3.397592"
     id="path12" />
  <path
     style="fill:#fcfdfd;fill-opacity:1"
     d="m 13.978619,35.983949 -4.1058206,-9.91681 3.3056606,-1.616806 0.08202,-0.108987 2.664533,6.741191 3.19964,-1.698796 1.438287,3.202616 m -6.583316,3.397592"
     id="path14"
     inkscape:connector-curvature="0" />
  <path
     style="opacity:0.1"
     d="m 27.068614,23.00092 3.609721,0.722913 0.777156,2.440707 1.586317,-1.882774 3.957791,0.870896 -3.543708,4.128504 2.0004,6.147263 -4.258852,-0.433948 -0.758151,-3.3356 -1.926386,2.741671 -3.316663,-1.073871 3.328666,-4.91341 M 27.055611,22.99992"
     id="path16" />
  <path
     style="fill:#ffffff;fill-opacity:1"
     d="m 28.147251,21.74251 3.609721,0.722913 0.777156,2.440707 1.586317,-1.882774 3.957791,0.870896 -3.543708,4.128504 2.0004,6.147263 -4.258852,-0.433948 -0.758151,-3.3356 -1.926386,2.741671 -3.316663,-1.073871 3.328666,-4.91341 M 28.134248,21.74151"
     id="path18"
     inkscape:connector-curvature="0" />
  <path
     style="opacity:0.1"
     d="m 17.953791,26.383514 4.133827,0.58193 1.227245,2.675679 1.543309,-2.312722 4.160832,0.554933 -3.813763,5.683318 L 24.271054,39 20.407282,38.359077 21.071414,33.484662 m -3.117623,-7.101148"
     id="path20" />
  <path
     style="fill:#ffffff;fill-opacity:1"
     d="m 17.953791,25.383514 4.133827,0.58193 1.227245,2.675679 1.543309,-2.312722 4.160832,0.554933 -3.813763,5.683318 L 24.271054,38 20.407282,37.359077 21.071414,32.484662 m -3.117623,-7.101148"
     id="path22" />
</svg>
