<?xml version="1.0" encoding="UTF-8" standalone="no"?>
<svg
   xmlns:dc="http://purl.org/dc/elements/1.1/"
   xmlns:cc="http://creativecommons.org/ns#"
   xmlns:rdf="http://www.w3.org/1999/02/22-rdf-syntax-ns#"
   xmlns:svg="http://www.w3.org/2000/svg"
   xmlns="http://www.w3.org/2000/svg"
   xmlns:sodipodi="http://sodipodi.sourceforge.net/DTD/sodipodi-0.dtd"
   xmlns:inkscape="http://www.inkscape.org/namespaces/inkscape"
   width="48"
   height="48"
   version="1.1"
   id="svg16"
   sodipodi:docname="inode-fifo.svg"
   inkscape:version="0.92.5 (2060ec1f9f, 2020-04-08)">
  <metadata
     id="metadata22">
    <rdf:RDF>
      <cc:Work
         rdf:about="">
        <dc:format>image/svg+xml</dc:format>
        <dc:type
           rdf:resource="http://purl.org/dc/dcmitype/StillImage" />
      </cc:Work>
    </rdf:RDF>
  </metadata>
  <defs
     id="defs20" />
  <sodipodi:namedview
     pagecolor="#ffffff"
     bordercolor="#666666"
     borderopacity="1"
     objecttolerance="10"
     gridtolerance="10"
     guidetolerance="10"
     inkscape:pageopacity="0"
     inkscape:pageshadow="2"
     inkscape:window-width="783"
     inkscape:window-height="480"
     id="namedview18"
     showgrid="false"
     inkscape:zoom="4.9166667"
     inkscape:cx="24"
     inkscape:cy="24"
     inkscape:window-x="0"
     inkscape:window-y="28"
     inkscape:window-maximized="0"
     inkscape:current-layer="svg16" />
  <path
     style="opacity:0.2"
     d="M 10,5 C 8.892,5 8,5.892 8,7 V 43 C 8,44.108 8.892,45 10,45 H 38 C 39.108,45 40,44.108 40,43 V 17 L 28,5 Z"
     id="path2" />
  <path
     style="fill:#4c566a;fill-opacity:1"
     d="M 10,4 C 8.892,4 8,4.892 8,6 V 42 C 8,43.108 8.892,44 10,44 H 38 C 39.108,44 40,43.108 40,42 V 16 L 30,14 28,4 Z"
     id="path4" />
  <path
     style="opacity:0.2"
     d="M 40,17 28,5 V 15 C 28,16.108 28.892,17 30,17 Z"
     id="path6" />
  <path
     style="fill:#5f697d;fill-opacity:1"
     d="M 40,16 28,4 V 14 C 28,15.108 28.892,16 30,16 Z"
     id="path8" />
  <path
     style="opacity:0.2;fill:#ffffff"
     d="M 10 4 C 8.892 4 8 4.892 8 6 L 8 7 C 8 5.892 8.892 5 10 5 L 28 5 L 28 4 L 10 4 z"
     id="path10" />
  <path
     style="opacity:0.2"
     d="M 23.5,20 C 22.119288,20 21,21.119288 21,22.5 21,23.880712 22.119288,25 23.5,25 24.880712,25 26,23.880712 26,22.5 26,21.119288 24.880712,20 23.5,20 Z M 17,21 v 1 h -4 v 1 h 4 v 1 l 1,-0.75 1,-0.75 -1,-0.75 z m 12,1 v 1 h 4 v 3 h -1 l 0.75,1 0.75,1 0.75,-1 0.75,-1 h -1 v -4 z m 4.5,7 C 32.119288,29 31,30.119288 31,31.5 31,32.880712 32.119288,34 33.5,34 34.880712,34 36,32.880712 36,31.5 36,30.119288 34.880712,29 33.5,29 Z M 33,35 v 4 h -3 v -1 l -1,0.75 -1,0.75 1,0.75 1,0.75 v -1 h 3 1 v -1 -4 z m -9.5,2 C 22.119288,37 21,38.119288 21,39.5 21,40.880712 22.119288,42 23.5,42 24.880712,42 26,40.880712 26,39.5 26,38.119288 24.880712,37 23.5,37 Z m -8.5,1 -1,0.75 -1,0.75 1,0.75 1,0.75 v -1 h 4 v -1 h -4 z"
     id="path12" />
  <path
     style="fill:#ffffff"
     d="M 23.5,19 C 22.119288,19 21,20.119288 21,21.5 21,22.880712 22.119288,24 23.5,24 24.880712,24 26,22.880712 26,21.5 26,20.119288 24.880712,19 23.5,19 Z M 17,20 v 1 h -4 v 1 h 4 v 1 l 1,-0.75 1,-0.75 -1,-0.75 z m 12,1 v 1 h 4 v 3 h -1 l 0.75,1 0.75,1 0.75,-1 0.75,-1 h -1 v -4 z m 4.5,7 C 32.119288,28 31,29.119288 31,30.5 31,31.880712 32.119288,33 33.5,33 34.880712,33 36,31.880712 36,30.5 36,29.119288 34.880712,28 33.5,28 Z M 33,34 v 4 h -3 v -1 l -1,0.75 -1,0.75 1,0.75 1,0.75 v -1 h 3 1 v -1 -4 z m -9.5,2 C 22.119288,36 21,37.119288 21,38.5 21,39.880712 22.119288,41 23.5,41 24.880712,41 26,39.880712 26,38.5 26,37.119288 24.880712,36 23.5,36 Z m -8.5,1 -1,0.75 -1,0.75 1,0.75 1,0.75 v -1 h 4 v -1 h -4 z"
     id="path14" />
</svg>
