<?xml version="1.0" encoding="UTF-8" standalone="no"?>
<svg
   xmlns:dc="http://purl.org/dc/elements/1.1/"
   xmlns:cc="http://creativecommons.org/ns#"
   xmlns:rdf="http://www.w3.org/1999/02/22-rdf-syntax-ns#"
   xmlns:svg="http://www.w3.org/2000/svg"
   xmlns="http://www.w3.org/2000/svg"
   xmlns:sodipodi="http://sodipodi.sourceforge.net/DTD/sodipodi-0.dtd"
   xmlns:inkscape="http://www.inkscape.org/namespaces/inkscape"
   width="48"
   height="48"
   version="1.1"
   id="svg16"
   sodipodi:docname="inode-blockdevice.svg"
   inkscape:version="0.92.5 (2060ec1f9f, 2020-04-08)">
  <metadata
     id="metadata22">
    <rdf:RDF>
      <cc:Work
         rdf:about="">
        <dc:format>image/svg+xml</dc:format>
        <dc:type
           rdf:resource="http://purl.org/dc/dcmitype/StillImage" />
      </cc:Work>
    </rdf:RDF>
  </metadata>
  <defs
     id="defs20" />
  <sodipodi:namedview
     pagecolor="#ffffff"
     bordercolor="#666666"
     borderopacity="1"
     objecttolerance="10"
     gridtolerance="10"
     guidetolerance="10"
     inkscape:pageopacity="0"
     inkscape:pageshadow="2"
     inkscape:window-width="1600"
     inkscape:window-height="844"
     id="namedview18"
     showgrid="false"
     inkscape:zoom="4.9166667"
     inkscape:cx="3.6610169"
     inkscape:cy="24"
     inkscape:window-x="0"
     inkscape:window-y="28"
     inkscape:window-maximized="1"
     inkscape:current-layer="svg16" />
  <path
     style="opacity:0.2"
     d="M 10,5 C 8.892,5 8,5.892 8,7 V 43 C 8,44.108 8.892,45 10,45 H 38 C 39.108,45 40,44.108 40,43 V 17 L 28,5 Z"
     id="path2" />
  <path
     style="fill:#4c566a;fill-opacity:1"
     d="M 10,4 C 8.892,4 8,4.892 8,6 V 42 C 8,43.108 8.892,44 10,44 H 38 C 39.108,44 40,43.108 40,42 V 16 L 30,14 28,4 Z"
     id="path4" />
  <path
     style="opacity:0.1"
     d="m 23,20 v 4 h 2 v -4 z m -5,0 v 4 h 2 v -4 z m 10,0 v 4 h 2 v -4 z m -15,5 v 2 h 4 v -2 z m 8,0 c -1.662,0 -3,1.338 -3,3 v 6 c 0,1.662 1.338,3 3,3 h 6 c 1.662,0 3,-1.338 3,-3 v -6 c 0,-1.662 -1.338,-3 -3,-3 z m 10,0 v 2 h 4 v -2 z m -18,5 v 2 h 4 v -2 z m 18,0 v 2 h 4 v -2 z m -18,5 v 2 h 4 v -2 z m 18,0 v 2 h 4 v -2 z m -13,3 v 4 h 2 v -4 z m 5,0 v 4 h 2 v -4 z m 5,0 v 4 h 2 v -4 z"
     id="path6" />
  <path
     style="opacity:0.2"
     d="M 40,17 28,5 V 15 C 28,16.108 28.892,17 30,17 Z"
     id="path8" />
  <path
     style="fill:#5f697d;fill-opacity:1"
     d="M 40,16 28,4 V 14 C 28,15.108 28.892,16 30,16 Z"
     id="path10" />
  <path
     style="opacity:0.2;fill:#ffffff"
     d="M 10 4 C 8.892 4 8 4.892 8 6 L 8 7 C 8 5.892 8.892 5 10 5 L 28 5 L 28 4 L 10 4 z"
     id="path12" />
  <path
     style="fill:#ffffff;fill-opacity:1"
     d="m 23,19 v 4 h 2 v -4 z m -5,0 v 4 h 2 v -4 z m 10,0 v 4 h 2 v -4 z m -15,5 v 2 h 4 v -2 z m 8,0 c -1.662,0 -3,1.338 -3,3 v 6 c 0,1.662 1.338,3 3,3 h 6 c 1.662,0 3,-1.338 3,-3 v -6 c 0,-1.662 -1.338,-3 -3,-3 z m 10,0 v 2 h 4 v -2 z m -18,5 v 2 h 4 v -2 z m 18,0 v 2 h 4 v -2 z m -18,5 v 2 h 4 v -2 z m 18,0 v 2 h 4 v -2 z m -13,3 v 4 h 2 v -4 z m 5,0 v 4 h 2 v -4 z m 5,0 v 4 h 2 v -4 z"
     id="path14" />
</svg>
