<?xml version="1.0" encoding="UTF-8" standalone="no"?>
<svg
   xmlns:dc="http://purl.org/dc/elements/1.1/"
   xmlns:cc="http://creativecommons.org/ns#"
   xmlns:rdf="http://www.w3.org/1999/02/22-rdf-syntax-ns#"
   xmlns:svg="http://www.w3.org/2000/svg"
   xmlns="http://www.w3.org/2000/svg"
   xmlns:sodipodi="http://sodipodi.sourceforge.net/DTD/sodipodi-0.dtd"
   xmlns:inkscape="http://www.inkscape.org/namespaces/inkscape"
   width="48"
   height="48"
   version="1.1"
   id="svg12"
   sodipodi:docname="model-stl.svg"
   inkscape:version="0.92.5 (2060ec1f9f, 2020-04-08)">
  <metadata
     id="metadata18">
    <rdf:RDF>
      <cc:Work
         rdf:about="">
        <dc:format>image/svg+xml</dc:format>
        <dc:type
           rdf:resource="http://purl.org/dc/dcmitype/StillImage" />
      </cc:Work>
    </rdf:RDF>
  </metadata>
  <defs
     id="defs16" />
  <sodipodi:namedview
     pagecolor="#ffffff"
     bordercolor="#666666"
     borderopacity="1"
     objecttolerance="10"
     gridtolerance="10"
     guidetolerance="10"
     inkscape:pageopacity="0"
     inkscape:pageshadow="2"
     inkscape:window-width="783"
     inkscape:window-height="480"
     id="namedview14"
     showgrid="false"
     inkscape:zoom="4.9166667"
     inkscape:cx="24"
     inkscape:cy="24"
     inkscape:window-x="0"
     inkscape:window-y="28"
     inkscape:window-maximized="0"
     inkscape:current-layer="svg12" />
  <path
     style="opacity:0.2"
     d="M 24.05,5 C 23.661,5 23.278,5.1 22.941,5.3 L 7.06,14.2 C 6.4044,14.6 5.9999,15.3 6,16 V 34 C 5.9999,34.7 6.4044,35.4 7.06,35.8 L 22.941,44.7 C 23.597,45.1 24.404,45.1 25.06,44.7 L 40.941,35.8 C 41.596,35.4 42,34.7 42,34 V 16 C 42,15.3 41.596,14.6 40.941,14.2 L 25.06,5.3 C 24.752,5.1 24.405,5 24.05,5 Z"
     id="path2" />
  <path
     style="fill:#4c566a;fill-opacity:1"
     d="M 24.05,4 C 23.661,4 23.278,4.1 22.941,4.3 L 7.06,13.2 C 6.4044,13.6 5.9999,14.3 6,15 V 33 C 5.9999,33.7 6.4044,34.4 7.06,34.8 L 22.941,43.7 C 23.597,44.1 24.404,44.1 25.06,43.7 L 40.941,34.8 C 41.596,34.4 42,33.7 42,33 V 15 C 42,14.3 41.596,13.6 40.941,13.2 L 25.06,4.3 C 24.752,4.1 24.405,4 24.05,4 Z"
     id="path4" />
  <path
     style="opacity:0.1"
     d="M 24,44 C 23.634,44 23.269,43.9 22.941,43.7 L 7.06,34.8 C 6.404,34.5 6.0003,33.7 6.0004,32.9 V 15 C 6.0004,14.7 6.0671,14.4 6.1903,14.1 L 24,24 Z"
     id="path6" />
  <path
     style="opacity:0.2"
     d="M 24,44 C 24.366,44 24.731,43.9 25.059,43.7 L 40.942,34.8 C 41.597,34.4 42,33.7 42,33 V 15 C 42,14.7 41.934,14.4 41.81,14.2 L 24,24 Z"
     id="path8" />
  <path
     style="fill:#ffffff;opacity:0.2"
     d="M 24.051 4 C 23.662 4 23.278 4.1008 22.941 4.3008 L 7.0605 13.199 C 6.4049 13.599 5.9999 14.3 6 15 L 6 16 C 5.9999 15.3 6.4049 14.599 7.0605 14.199 L 22.941 5.3008 C 23.278 5.1008 23.662 5 24.051 5 C 24.406 5 24.753 5.1008 25.061 5.3008 L 40.941 14.199 C 41.596 14.599 42 15.3 42 16 L 42 15 C 42 14.3 41.596 13.599 40.941 13.199 L 25.061 4.3008 C 24.753 4.1008 24.406 4 24.051 4 z"
     id="path10" />
</svg>
