<?xml version="1.0" encoding="UTF-8" standalone="no"?>
<svg
   xmlns:dc="http://purl.org/dc/elements/1.1/"
   xmlns:cc="http://creativecommons.org/ns#"
   xmlns:rdf="http://www.w3.org/1999/02/22-rdf-syntax-ns#"
   xmlns:svg="http://www.w3.org/2000/svg"
   xmlns="http://www.w3.org/2000/svg"
   xmlns:sodipodi="http://sodipodi.sourceforge.net/DTD/sodipodi-0.dtd"
   xmlns:inkscape="http://www.inkscape.org/namespaces/inkscape"
   width="48"
   height="48"
   version="1.1"
   id="svg16"
   sodipodi:docname="qgis-qgs.svg"
   inkscape:version="0.92.5 (2060ec1f9f, 2020-04-08)">
  <metadata
     id="metadata22">
    <rdf:RDF>
      <cc:Work
         rdf:about="">
        <dc:format>image/svg+xml</dc:format>
        <dc:type
           rdf:resource="http://purl.org/dc/dcmitype/StillImage" />
      </cc:Work>
    </rdf:RDF>
  </metadata>
  <defs
     id="defs20" />
  <sodipodi:namedview
     pagecolor="#ffffff"
     bordercolor="#666666"
     borderopacity="1"
     objecttolerance="10"
     gridtolerance="10"
     guidetolerance="10"
     inkscape:pageopacity="0"
     inkscape:pageshadow="2"
     inkscape:window-width="783"
     inkscape:window-height="480"
     id="namedview18"
     showgrid="false"
     inkscape:zoom="4.9166667"
     inkscape:cx="16.656497"
     inkscape:cy="29.694314"
     inkscape:window-x="0"
     inkscape:window-y="28"
     inkscape:window-maximized="0"
     inkscape:current-layer="svg16" />
  <rect
     style="fill:#4c566a;fill-opacity:1"
     width="40"
     height="40"
     x="-44"
     y="-44"
     rx="2"
     ry="2"
     transform="matrix(0,-1,-1,0,0,0)"
     id="rect2" />
  <path
     style="opacity:0.2;fill:#ffffff"
     d="m 6.0001,4 c -1.108,0 -2,0.892 -2,2 l 0,1 c 0,-1.108 0.892,-2 2,-2 l 36,0 c 1.108,0 2,0.892 2,2 l 0,-1 c 0,-1.108 -0.892,-2 -2,-2 l -36,0 z"
     id="path4" />
  <path
     style="fill:#697387;fill-rule:evenodd;fill-opacity:1"
     d="m 6.0001,44 18,-18 18,18 z"
     id="path6" />
  <path
     style="fill:#4c566a;fill-rule:evenodd;fill-opacity:1"
     d="M 44,42 26,24 44,6 Z"
     id="path8" />
  <path
     style="fill:#ffffff;fill-rule:evenodd"
     d="m 25.768,22.2 -3.5352,3.5371 18.23,18.23 1.5371,0 c 1.108,0 2,-0.892 2,-2 l 0,-1.5352 -18.232,-18.232 z"
     id="path10" />
  <path
     style="fill:#ffffff;fill-rule:evenodd"
     d="M 40.465,4 4,40.4 4,41.935 c 0,1.108 0.892,2 2,2 l 1.5371,0 36.463,-36.4 0,-1.5371 c 0,-1.108 -0.892,-2 -2,-2 l -1.5352,0 z"
     id="path12" />
  <path
     style="opacity:0.2"
     d="m 6.0001,45 c -1.108,0 -2,-0.892 -2,-2 l 0,-1 c 0,1.108 0.892,2 2,2 l 36,0 c 1.108,0 2,-0.892 2,-2 l 0,1 c 0,1.108 -0.892,2 -2,2 l -36,0 z"
     id="path14" />
</svg>
