<?xml version="1.0" encoding="UTF-8" standalone="no"?>
<svg
   xmlns:dc="http://purl.org/dc/elements/1.1/"
   xmlns:cc="http://creativecommons.org/ns#"
   xmlns:rdf="http://www.w3.org/1999/02/22-rdf-syntax-ns#"
   xmlns:svg="http://www.w3.org/2000/svg"
   xmlns="http://www.w3.org/2000/svg"
   xmlns:sodipodi="http://sodipodi.sourceforge.net/DTD/sodipodi-0.dtd"
   xmlns:inkscape="http://www.inkscape.org/namespaces/inkscape"
   width="48"
   height="48"
   version="1"
   id="svg16"
   sodipodi:docname="text-vcard.svg"
   inkscape:version="0.92.5 (2060ec1f9f, 2020-04-08)">
  <metadata
     id="metadata22">
    <rdf:RDF>
      <cc:Work
         rdf:about="">
        <dc:format>image/svg+xml</dc:format>
        <dc:type
           rdf:resource="http://purl.org/dc/dcmitype/StillImage" />
      </cc:Work>
    </rdf:RDF>
  </metadata>
  <defs
     id="defs20" />
  <sodipodi:namedview
     pagecolor="#ffffff"
     bordercolor="#666666"
     borderopacity="1"
     objecttolerance="10"
     gridtolerance="10"
     guidetolerance="10"
     inkscape:pageopacity="0"
     inkscape:pageshadow="2"
     inkscape:window-width="783"
     inkscape:window-height="480"
     id="namedview18"
     showgrid="false"
     inkscape:zoom="4.9166667"
     inkscape:cx="17.374048"
     inkscape:cy="44.754479"
     inkscape:window-x="0"
     inkscape:window-y="28"
     inkscape:window-maximized="0"
     inkscape:current-layer="svg16" />
  <path
     style="opacity:0.2"
     d="M 10,5 C 8.892,5 8,5.892 8,7 v 36 c 0,1.108 0.892,2 2,2 h 28 c 1.108,0 2,-0.892 2,-2 V 17 L 29,16 28,5 Z"
     id="path2" />
  <path
     style="fill:#4c566a;fill-opacity:1"
     d="m10 4c-1.108 0-2 0.892-2 2v36c0 1.108 0.892 2 2 2h28c1.108 0 2-0.892 2-2v-26l-11-1-1-11z"
     id="path4" />
  <path
     fill="#fff"
     opacity=".2"
     d="m10 4c-1.108 0-2 0.892-2 2v1c0-1.108 0.892-2 2-2h18l11 11h1l-12-12z"
     id="path6" />
  <path
     style="opacity:0.2"
     d="m 28,5 v 10 c 0,1.1046 0.89543,2 2,2 h 10 z"
     id="path8" />
  <path
     style="fill:#5f697d;fill-opacity:1"
     d="m28 4v10c0 1.1046 0.89543 2 2 2h10l-12-12z"
     id="path10" />
  <path
     style="opacity:0.2"
     d="M 23.980469,21 A 10,10 0 0 0 14,31 10,10 0 0 0 24,41 10,10 0 0 0 34,31 10,10 0 0 0 24,21 10,10 0 0 0 23.98047,21 Z m 0.132812,4.001953 c 0.632882,0.01823 1.244361,0.197767 1.714844,0.515625 0.623856,0.421488 1.010939,1.054234 1.167969,1.908203 0.05138,0.279221 0.05722,0.95861 0.01172,1.289063 -0.127754,0.928468 -0.417699,1.781512 -1.015624,2.972656 -0.244014,0.486134 -0.294271,0.648788 -0.275391,0.90625 0.01525,0.207546 0.103098,0.387785 0.269531,0.546875 0.318113,0.304083 0.846567,0.510796 1.990234,0.78125 0.87366,0.206605 0.955198,0.231718 1.244141,0.371094 0.335207,0.161692 0.549582,0.358328 0.681641,0.628906 0.137026,0.280681 0.138757,0.259283 -0.04687,0.503906 -0.37604,0.495515 -0.87526,1.005051 -1.34961,1.375 L 28.248047,37 h -4.267578 -4.269531 l -0.25586,-0.199219 c -0.469242,-0.365963 -1.035572,-0.944754 -1.357422,-1.384765 -0.132535,-0.181292 -0.132215,-0.217414 0.0098,-0.498047 0.120131,-0.237449 0.352293,-0.460739 0.61914,-0.597657 0.258365,-0.132557 0.540085,-0.218864 1.269532,-0.388671 1.725516,-0.401676 2.312494,-0.761962 2.308594,-1.417969 -0.0014,-0.230353 -0.05569,-0.380352 -0.341797,-0.941406 -0.681196,-1.335869 -0.971424,-2.295224 -1.001953,-3.322266 -0.02153,-0.725378 0.06939,-1.178061 0.341796,-1.722656 0.416539,-0.832776 1.159819,-1.340235 2.175782,-1.488282 0.211408,-0.03081 0.423805,-0.04319 0.634765,-0.03711 z"
     id="path12" />
  <path
     style="fill:#ffffff"
     d="M 23.980469,20 A 10,10 0 0 0 14,30 10,10 0 0 0 24,40 10,10 0 0 0 34,30 10,10 0 0 0 24,20 10,10 0 0 0 23.98047,20 Z m 0.132812,4.001953 c 0.632882,0.01823 1.244361,0.197767 1.714844,0.515625 0.623856,0.421488 1.010939,1.054234 1.167969,1.908203 0.05138,0.279221 0.05722,0.95861 0.01172,1.289063 -0.127754,0.928468 -0.417699,1.781512 -1.015624,2.972656 -0.244014,0.486134 -0.294271,0.648788 -0.275391,0.90625 0.01525,0.207546 0.103098,0.387785 0.269531,0.546875 0.318113,0.304083 0.846567,0.510796 1.990234,0.78125 0.87366,0.206605 0.955198,0.231718 1.244141,0.371094 0.335207,0.161692 0.549582,0.358328 0.681641,0.628906 0.137026,0.280681 0.138757,0.259283 -0.04687,0.503906 -0.37604,0.495515 -0.87526,1.005051 -1.34961,1.375 L 28.248047,36 h -4.267578 -4.269531 l -0.25586,-0.199219 c -0.469242,-0.365963 -1.035572,-0.944754 -1.357422,-1.384765 -0.132535,-0.181292 -0.132215,-0.217414 0.0098,-0.498047 0.120131,-0.237449 0.352293,-0.460739 0.61914,-0.597657 0.258365,-0.132557 0.540085,-0.218864 1.269532,-0.388671 1.725516,-0.401676 2.312494,-0.761962 2.308594,-1.417969 -0.0014,-0.230353 -0.05569,-0.380352 -0.341797,-0.941406 -0.681196,-1.335869 -0.971424,-2.295224 -1.001953,-3.322266 -0.02153,-0.725378 0.06939,-1.178061 0.341796,-1.722656 0.416539,-0.832776 1.159819,-1.340235 2.175782,-1.488282 0.211408,-0.03081 0.423805,-0.04319 0.634765,-0.03711 z"
     id="path14" />
</svg>
