<?xml version="1.0" encoding="UTF-8" standalone="no"?>
<svg
   xmlns:dc="http://purl.org/dc/elements/1.1/"
   xmlns:cc="http://creativecommons.org/ns#"
   xmlns:rdf="http://www.w3.org/1999/02/22-rdf-syntax-ns#"
   xmlns:svg="http://www.w3.org/2000/svg"
   xmlns="http://www.w3.org/2000/svg"
   xmlns:sodipodi="http://sodipodi.sourceforge.net/DTD/sodipodi-0.dtd"
   xmlns:inkscape="http://www.inkscape.org/namespaces/inkscape"
   width="48"
   height="48"
   version="1.1"
   id="svg26"
   sodipodi:docname="text-x-octave.svg"
   inkscape:version="0.92.5 (2060ec1f9f, 2020-04-08)">
  <metadata
     id="metadata32">
    <rdf:RDF>
      <cc:Work
         rdf:about="">
        <dc:format>image/svg+xml</dc:format>
        <dc:type
           rdf:resource="http://purl.org/dc/dcmitype/StillImage" />
      </cc:Work>
    </rdf:RDF>
  </metadata>
  <defs
     id="defs30" />
  <sodipodi:namedview
     pagecolor="#ffffff"
     bordercolor="#666666"
     borderopacity="1"
     objecttolerance="10"
     gridtolerance="10"
     guidetolerance="10"
     inkscape:pageopacity="0"
     inkscape:pageshadow="2"
     inkscape:window-width="640"
     inkscape:window-height="480"
     id="namedview28"
     showgrid="false"
     inkscape:zoom="4.9166667"
     inkscape:cx="-15.661017"
     inkscape:cy="24"
     inkscape:current-layer="svg26" />
  <path
     style="opacity:0.2"
     d="M 10,5 C 8.892,5 8,5.892 8,7 v 36 c 0,1.108 0.892,2 2,2 h 28 c 1.108,0 2,-0.892 2,-2 V 17 L 29,16 28,5 Z"
     id="path2" />
  <path
     style="fill:#4c566a;fill-opacity:1"
     d="M 10,4 C 8.892,4 8,4.892 8,6 V 42 C 8,43.108 8.892,44 10,44 H 38 C 39.108,44 40,43.108 40,42 V 16 L 29,15 28,4 Z"
     id="path4" />
  <path
     style="fill:#ffffff;opacity:0.2"
     d="M 10 4 C 8.892 4 8 4.892 8 6 L 8 7 C 8 5.892 8.892 5 10 5 L 28 5 L 28 4 L 10 4 z"
     id="path6" />
  <path
     style="opacity:0.2"
     d="m 28,5 v 10 c 0,1.105 0.895,2 2,2 h 10 z"
     id="path8" />
  <path
     style="fill:#5f697d;fill-opacity:1"
     d="M 28,4 V 14 C 28,15.105 28.895,16 30,16 H 40 Z"
     id="path10" />
  <path
     style="fill:#ffffff;opacity:0.5"
     d="M 24 18 A 11 11 0 0 0 13 29 A 11 11 0 0 0 24 40 A 11 11 0 0 0 35 29 A 11 11 0 0 0 24 18 z M 25 20 A 8 8 0 0 1 33 28 A 8 8 0 0 1 25 36 A 8 8 0 0 1 17 28 A 8 8 0 0 1 25 20 z"
     id="path12" />
  <rect
     style="opacity:0.2"
     width="8"
     height="8"
     x="12"
     y="26"
     rx="1.6"
     ry="1.6"
     id="rect14" />
  <rect
     style="fill:#ffffff"
     width="8"
     height="8"
     x="12"
     y="25"
     rx="1.6"
     ry="1.6"
     id="rect16" />
  <rect
     style="opacity:0.2"
     width="5"
     height="5"
     x="30"
     y="32"
     rx="1"
     ry="1"
     id="rect18" />
  <rect
     style="fill:#ffffff"
     width="5"
     height="5"
     x="30"
     y="31"
     rx="1"
     ry="1"
     id="rect20" />
  <rect
     style="opacity:0.2"
     width="4"
     height="4"
     x="28"
     y="20"
     rx=".8"
     ry=".8"
     id="rect22" />
  <rect
     style="fill:#ffffff"
     width="4"
     height="4"
     x="28"
     y="19"
     rx=".8"
     ry=".8"
     id="rect24" />
</svg>
