<?xml version="1.0" encoding="UTF-8" standalone="no"?>
<svg
   xmlns:dc="http://purl.org/dc/elements/1.1/"
   xmlns:cc="http://creativecommons.org/ns#"
   xmlns:rdf="http://www.w3.org/1999/02/22-rdf-syntax-ns#"
   xmlns:svg="http://www.w3.org/2000/svg"
   xmlns="http://www.w3.org/2000/svg"
   xmlns:sodipodi="http://sodipodi.sourceforge.net/DTD/sodipodi-0.dtd"
   xmlns:inkscape="http://www.inkscape.org/namespaces/inkscape"
   width="48"
   height="48"
   version="1.1"
   id="svg20"
   sodipodi:docname="text-x-texmacs.svg"
   inkscape:version="0.92.5 (2060ec1f9f, 2020-04-08)">
  <metadata
     id="metadata26">
    <rdf:RDF>
      <cc:Work
         rdf:about="">
        <dc:format>image/svg+xml</dc:format>
        <dc:type
           rdf:resource="http://purl.org/dc/dcmitype/StillImage" />
      </cc:Work>
    </rdf:RDF>
  </metadata>
  <defs
     id="defs24" />
  <sodipodi:namedview
     pagecolor="#ffffff"
     bordercolor="#666666"
     borderopacity="1"
     objecttolerance="10"
     gridtolerance="10"
     guidetolerance="10"
     inkscape:pageopacity="0"
     inkscape:pageshadow="2"
     inkscape:window-width="783"
     inkscape:window-height="480"
     id="namedview22"
     showgrid="false"
     inkscape:zoom="4.9166667"
     inkscape:cx="24"
     inkscape:cy="24"
     inkscape:window-x="0"
     inkscape:window-y="28"
     inkscape:window-maximized="0"
     inkscape:current-layer="svg20" />
  <path
     style="opacity:0.2"
     d="M 10,5 C 8.892,5 8,5.892 8,7 V 43 C 8,44.108 8.892,45 10,45 H 38 C 39.108,45 40,44.108 40,43 V 17 L 28,5 Z"
     id="path2" />
  <path
     style="fill:#4c566a;fill-opacity:1"
     d="M 10,4 C 8.892,4 8,4.892 8,6 V 42 C 8,43.108 8.892,44 10,44 H 38 C 39.108,44 40,43.108 40,42 V 16 L 30,14 28,4 Z"
     id="path4" />
  <path
     style="opacity:0.2"
     d="M 40,17 28,5 V 15 C 28,16.108 28.892,17 30,17 Z"
     id="path6" />
  <path
     style="fill:#5f697d;fill-opacity:1"
     d="M 40,16 28,4 V 14 C 28,15.108 28.892,16 30,16 Z"
     id="path8" />
  <path
     style="opacity:0.1;fill:#ffffff"
     d="M 10 4 C 8.892 4 8 4.892 8 6 L 8 7 C 8 5.892 8.892 5 10 5 L 28 5 L 28 4 L 10 4 z"
     id="path10" />
  <g
     style="opacity:0.2"
     transform="matrix(-0.77951345,0,0,0.77228516,5.6086948,11.538462)"
     id="g14">
    <path
       d="m -12.04765,27.905301 h -0.94792 c -0.682502,6.332105 -3.263206,7.822751 -9.213781,7.653505 H -32.674386 L -23.15727,24.49279 c 0.341251,-0.379168 0.341251,-0.606669 0.341251,-0.606669 0,-0.189584 -0.151667,-0.379168 -0.265418,-0.530835 L -30.85438,12.131915 h 8.75878 c 6.407938,0 8.303778,1.365004 9.10003,7.355858 h 0.94792 l -1.06167,-8.531279 h -21.043821 c -0.910003,0 -0.985836,0 -0.985836,0.872086 l 9.441281,13.72588 -9.024196,10.275451 c -0.379168,0.417085 -0.379168,0.492918 -0.379168,0.606669 0,0.417084 0.379168,0.417084 0.947919,0.417084 h 21.043821 z"
       id="path12" />
  </g>
  <g
     style="fill:#ffffff;fill-opacity:1"
     transform="matrix(-0.77951345,0,0,0.77228516,5.6086948,10.538462)"
     id="g18">
    <path
       style="fill:#ffffff;fill-opacity:1"
       d="m -12.04765,27.905301 h -0.94792 c -0.682502,6.332105 -3.260844,7.653505 -9.213781,7.653505 H -32.674386 L -23.15727,24.49279 c 0.341251,-0.379168 0.341251,-0.606669 0.341251,-0.606669 0,-0.189584 -0.151667,-0.379168 -0.265418,-0.530835 L -30.85438,12.131915 h 8.75878 c 6.407938,0 8.303778,1.365004 9.10003,7.355858 h 0.94792 l -1.06167,-8.531279 h -21.043821 c -0.910003,0 -0.985836,0 -0.985836,0.872086 l 9.441281,13.72588 -9.024196,10.275451 c -0.379168,0.417085 -0.379168,0.492918 -0.379168,0.606669 0,0.417084 0.379168,0.417084 0.947919,0.417084 h 21.043821 z"
       id="path16" />
  </g>
</svg>
