<?xml version="1.0" encoding="UTF-8" standalone="no"?>
<svg
   xmlns:dc="http://purl.org/dc/elements/1.1/"
   xmlns:cc="http://creativecommons.org/ns#"
   xmlns:rdf="http://www.w3.org/1999/02/22-rdf-syntax-ns#"
   xmlns:svg="http://www.w3.org/2000/svg"
   xmlns="http://www.w3.org/2000/svg"
   xmlns:sodipodi="http://sodipodi.sourceforge.net/DTD/sodipodi-0.dtd"
   xmlns:inkscape="http://www.inkscape.org/namespaces/inkscape"
   width="48"
   height="48"
   version="1"
   id="svg18"
   sodipodi:docname="text-x-python.svg"
   inkscape:version="0.92.5 (2060ec1f9f, 2020-04-08)">
  <metadata
     id="metadata24">
    <rdf:RDF>
      <cc:Work
         rdf:about="">
        <dc:format>image/svg+xml</dc:format>
        <dc:type
           rdf:resource="http://purl.org/dc/dcmitype/StillImage" />
      </cc:Work>
    </rdf:RDF>
  </metadata>
  <defs
     id="defs22" />
  <sodipodi:namedview
     pagecolor="#ffffff"
     bordercolor="#666666"
     borderopacity="1"
     objecttolerance="10"
     gridtolerance="10"
     guidetolerance="10"
     inkscape:pageopacity="0"
     inkscape:pageshadow="2"
     inkscape:window-width="640"
     inkscape:window-height="480"
     id="namedview20"
     showgrid="false"
     inkscape:zoom="4.9166667"
     inkscape:cx="8.7457627"
     inkscape:cy="24"
     inkscape:current-layer="svg18" />
  <path
     style="opacity:0.2"
     d="M 10,5 C 8.892,5 8,5.892 8,7 v 36 c 0,1.108 0.892,2 2,2 h 28 c 1.108,0 2,-0.892 2,-2 V 17 L 29,16 28,5 Z"
     id="path2" />
  <path
     inkscape:connector-curvature="0"
     d="M 10,4 C 8.8920003,4 8.0000003,4.892 8.0000003,6 v 36 c 0,1.108 0.892,2 1.9999997,2 h 28 c 1.108,0 2,-0.892 2,-2 V 16 L 29,15 28,4 Z"
     id="path6"
     style="fill:#4c566a;fill-opacity:1" />
  <path
     opacity=".1"
     transform="translate(-135.61,-237.72)"
     d="m163.22 242.45v11c0 1.1046 0.89543 2 2 2h10l-1-1-10-9z"
     id="path4" />
  <path
     fill="#fff"
     opacity=".2"
     d="m10 4c-1.108 0-2 0.892-2 2v1c0-1.108 0.892-2 2-2h18l11 11h1l-12-12z"
     id="path8" />
  <path
     style="opacity:0.2"
     d="m 28,5 v 10 c 0,1.1046 0.89543,2 2,2 h 10 z"
     id="path10" />
  <path
     style="fill:#a7b5c9;fill-opacity:1"
     d="m 29,24.576271 v 2.5 c 0,1.385 -1.115,2.5 -2.5,2.5 h -5 c 0,0 -2.5,0 -2.5,2.5 v 4.375 c 0,1.731 1.951,3.125 4.375,3.125 h 1.25 c 2.424,0 4.375,-1.394 4.375,-3.125 v -1.875 h 1.875 c 1.731,0 3.125,-1.951 3.125,-4.375 v -1.25 c 0,-2.424 -1.394,-4.375 -3.125,-4.375 z m -2,11 a 1,1 0 0 1 1,1 1,1 0 0 1 -1,1 1,1 0 0 1 -1,-1 1,1 0 0 1 1,-1 z"
     id="path14"
     inkscape:connector-curvature="0" />
  <path
     style="fill:#7a8498;fill-opacity:1"
     d="m 22.154661,18.762712 c -2.424,0 -4.375,1.394 -4.375,3.125 v 1.875 h -1.875 c -1.731,0 -3.125,1.951 -3.125,4.375 v 1.25 c 0,2.424 1.394,4.375 3.125,4.375 h 1.875 v -2.5 c 0,-1.385 1.115,-2.5 2.5,-2.5 h 5 c 0,0 2.5,0 2.5,-2.5 v -4.375 c 0,-1.731 -1.951,-3.125 -4.375,-3.125 z m -2.375,2 a 1,1 0 0 1 1,1 1,1 0 0 1 -1,1 1,1 0 0 1 -1,-1 1,1 0 0 1 1,-1 z"
     id="path16"
     inkscape:connector-curvature="0" />
  <path
     inkscape:connector-curvature="0"
     style="fill:#5f697d;fill-opacity:1"
     d="M 28,3.9999995 V 14 c 0,1.1046 0.89543,2 2,2 h 10 z"
     id="path12" />
</svg>
