<?xml version="1.0" encoding="UTF-8" standalone="no"?>
<svg
   xmlns:dc="http://purl.org/dc/elements/1.1/"
   xmlns:cc="http://creativecommons.org/ns#"
   xmlns:rdf="http://www.w3.org/1999/02/22-rdf-syntax-ns#"
   xmlns:svg="http://www.w3.org/2000/svg"
   xmlns="http://www.w3.org/2000/svg"
   xmlns:sodipodi="http://sodipodi.sourceforge.net/DTD/sodipodi-0.dtd"
   xmlns:inkscape="http://www.inkscape.org/namespaces/inkscape"
   width="48"
   height="48"
   version="1.1"
   id="svg16"
   sodipodi:docname="text-x-xges.svg"
   inkscape:version="0.92.5 (2060ec1f9f, 2020-04-08)">
  <metadata
     id="metadata22">
    <rdf:RDF>
      <cc:Work
         rdf:about="">
        <dc:format>image/svg+xml</dc:format>
        <dc:type
           rdf:resource="http://purl.org/dc/dcmitype/StillImage" />
      </cc:Work>
    </rdf:RDF>
  </metadata>
  <defs
     id="defs20" />
  <sodipodi:namedview
     pagecolor="#ffffff"
     bordercolor="#666666"
     borderopacity="1"
     objecttolerance="10"
     gridtolerance="10"
     guidetolerance="10"
     inkscape:pageopacity="0"
     inkscape:pageshadow="2"
     inkscape:window-width="783"
     inkscape:window-height="480"
     id="namedview18"
     showgrid="false"
     inkscape:zoom="4.9166667"
     inkscape:cx="26.934823"
     inkscape:cy="24.954296"
     inkscape:window-x="0"
     inkscape:window-y="28"
     inkscape:window-maximized="0"
     inkscape:current-layer="svg16" />
  <path
     style="opacity:0.2"
     d="M 10,5 C 8.892,5 8,5.892 8,7 V 43 C 8,44.108 8.892,45 10,45 H 38 C 39.108,45 40,44.108 40,43 V 17 L 28,5 Z"
     id="path2" />
  <path
     style="fill:#4c566a;fill-opacity:1"
     d="M 10,4 C 8.892,4 8,4.892 8,6 V 42 C 8,43.108 8.892,44 10,44 H 38 C 39.108,44 40,43.108 40,42 V 16 L 30,14 28,4 Z"
     id="path4" />
  <path
     style="opacity:0.2"
     d="M 40,17 28,5 V 15 C 28,16.108 28.892,17 30,17 Z"
     id="path6" />
  <path
     style="fill:#5f697d;fill-opacity:1"
     d="M 40,16 28,4 V 14 C 28,15.108 28.892,16 30,16 Z"
     id="path8" />
  <path
     style="opacity:0.2;fill:#ffffff"
     d="M 10 4 C 8.892 4 8 4.892 8 6 L 8 7 C 8 5.892 8.892 5 10 5 L 28 5 L 28 4 L 10 4 z"
     id="path10" />
  <path
     style="opacity:0.1"
     d="M 17.571429,23 C 16.146857,23 15,24.115001 15,25.5 V 35.5 C 15,36.885 16.146857,38 17.571429,38 H 30.428571 C 31.853143,38 33,36.885 33,35.5 V 23 H 30.428571 L 31.714286,25.5 30.428571,28 H 27.857143 L 29.142857,25.5 27.857143,23 H 25.285715 L 26.571428,25.5 25.285715,28 H 22.714286 L 24,25.5 22.714286,23 H 20.142857 L 21.428571,25.5 20.142857,28 H 17.571429 L 18.857142,25.5 Z"
     id="path12" />
  <path
     style="fill:#ffffff;fill-opacity:1"
     d="M 17.571429,22 C 16.146857,22 15,23.115001 15,24.5 V 34.5 C 15,35.885 16.146857,37 17.571429,37 H 30.428571 C 31.853143,37 33,35.885 33,34.5 V 22 H 30.428571 L 31.714286,24.5 30.428571,27 H 27.857143 L 29.142857,24.5 27.857143,22 H 25.285715 L 26.571428,24.5 25.285715,27 H 22.714286 L 24,24.5 22.714286,22 H 20.142857 L 21.428571,24.5 20.142857,27 H 17.571429 L 18.857142,24.5 Z"
     id="path14" />
</svg>
