<?xml version="1.0" encoding="UTF-8" standalone="no"?>
<svg
   xmlns:dc="http://purl.org/dc/elements/1.1/"
   xmlns:cc="http://creativecommons.org/ns#"
   xmlns:rdf="http://www.w3.org/1999/02/22-rdf-syntax-ns#"
   xmlns:svg="http://www.w3.org/2000/svg"
   xmlns="http://www.w3.org/2000/svg"
   xmlns:sodipodi="http://sodipodi.sourceforge.net/DTD/sodipodi-0.dtd"
   xmlns:inkscape="http://www.inkscape.org/namespaces/inkscape"
   width="48"
   height="48"
   version="1"
   id="svg16"
   sodipodi:docname="text-x-vala.svg"
   inkscape:version="0.92.5 (2060ec1f9f, 2020-04-08)">
  <metadata
     id="metadata22">
    <rdf:RDF>
      <cc:Work
         rdf:about="">
        <dc:format>image/svg+xml</dc:format>
        <dc:type
           rdf:resource="http://purl.org/dc/dcmitype/StillImage" />
      </cc:Work>
    </rdf:RDF>
  </metadata>
  <defs
     id="defs20" />
  <sodipodi:namedview
     pagecolor="#ffffff"
     bordercolor="#666666"
     borderopacity="1"
     objecttolerance="10"
     gridtolerance="10"
     guidetolerance="10"
     inkscape:pageopacity="0"
     inkscape:pageshadow="2"
     inkscape:window-width="783"
     inkscape:window-height="480"
     id="namedview18"
     showgrid="false"
     inkscape:zoom="4.9166667"
     inkscape:cx="15.776264"
     inkscape:cy="27.655455"
     inkscape:window-x="0"
     inkscape:window-y="28"
     inkscape:window-maximized="0"
     inkscape:current-layer="svg16" />
  <path
     style="opacity:0.2"
     d="M 10,5 C 8.892,5 8,5.892 8,7 v 36 c 0,1.108 0.892,2 2,2 h 28 c 1.108,0 2,-0.892 2,-2 V 17 L 29,16 28,5 Z"
     id="path2" />
  <path
     style="fill:#4c566a;fill-opacity:1"
     d="m10 4c-1.108 0-2 0.892-2 2v36c0 1.108 0.892 2 2 2h28c1.108 0 2-0.892 2-2v-26l-11-1-1-11z"
     id="path4" />
  <path
     fill="#fff"
     opacity=".1"
     d="m10 4c-1.108 0-2 0.892-2 2v1c0-1.108 0.892-2 2-2h18l11 11h1l-12-12z"
     id="path6" />
  <path
     style="opacity:0.2"
     d="m 28,5 v 10 c 0,1.1046 0.89543,2 2,2 h 10 z"
     id="path8" />
  <path
     style="fill:#5f697d;fill-opacity:1"
     d="m28 4v10c0 1.1046 0.89543 2 2 2h10l-12-12z"
     id="path10" />
  <path
     style="opacity:0.2"
     d="M 21.000581,40.999411 21,23 c -1.240747,0.468627 -1.79982,0.985489 -2.497255,1.983528 -0.689651,0.998431 -1.034476,2.739453 -1.034476,4.223767 0,0.338431 0.01732,0.616274 0.05195,0.833529 0.04281,0.208235 0.08582,0.377451 0.129018,0.507647 0.0432,0.121569 0.08212,0.217059 0.116757,0.286471 0.04281,0.06941 0.06422,0.130196 0.06422,0.182353 -0.456523,0 -0.861284,-0.04333 -1.214282,-0.13 C 16.262544,30.791608 15.9652,30.643961 15.7239,30.444353 15.491163,30.245137 15.310188,29.980431 15.180975,29.650236 15.060325,29.320824 15,28.912981 15,28.426706 c 0,-0.590196 0.124737,-1.671413 0.37421,-2.244354 0.258424,-0.572549 0.607336,-1.115099 1.046735,-1.627648 0.447962,-0.511765 0.969287,-0.984706 1.563974,-1.418823 0.603249,-0.434117 1.245029,-0.807451 1.925339,-1.12 0.688873,-0.321177 1.403821,-0.568432 2.144845,-0.741765 0.749587,-0.182745 1.494892,-0.274117 2.235916,-0.274117 0.278844,-0.03531 0.687717,0.05021 0.708981,0.05176 v 16.405882 l 6.152304,-16.328235 h 1.847701 L 25.647752,41 H 21 Z"
     id="path12" />
  <path
     style="fill:#ffffff"
     d="M 21.000581,39.999411 21,22 c -1.240747,0.468627 -1.79982,0.985489 -2.497255,1.983528 -0.689651,0.998431 -1.034476,2.739453 -1.034476,4.223767 0,0.338431 0.01732,0.616274 0.05195,0.833529 0.04281,0.208235 0.08582,0.377451 0.129018,0.507647 0.0432,0.121569 0.08212,0.217059 0.116757,0.286471 0.04281,0.06941 0.06422,0.130196 0.06422,0.182353 -0.456523,0 -0.861284,-0.04333 -1.214282,-0.13 C 16.262544,29.791608 15.9652,29.643961 15.7239,29.444353 15.491163,29.245137 15.310188,28.980431 15.180975,28.650236 15.060325,28.320824 15,27.912981 15,27.426706 c 0,-0.590196 0.124737,-1.671413 0.37421,-2.244354 0.258424,-0.572549 0.607336,-1.115099 1.046735,-1.627648 0.447962,-0.511765 0.969287,-0.984706 1.563974,-1.418823 0.603249,-0.434117 1.245029,-0.807451 1.925339,-1.12 0.688873,-0.321177 1.403821,-0.568432 2.144845,-0.741765 0.749587,-0.182745 1.494892,-0.274117 2.235916,-0.274117 0.278844,-0.03531 0.687717,0.05021 0.708981,0.05176 v 16.405882 l 6.152304,-16.328235 h 1.847701 L 25.647752,40 H 21 Z"
     id="path14" />
</svg>
