<?xml version="1.0" encoding="UTF-8" standalone="no"?>
<svg
   xmlns:dc="http://purl.org/dc/elements/1.1/"
   xmlns:cc="http://creativecommons.org/ns#"
   xmlns:rdf="http://www.w3.org/1999/02/22-rdf-syntax-ns#"
   xmlns:svg="http://www.w3.org/2000/svg"
   xmlns="http://www.w3.org/2000/svg"
   xmlns:sodipodi="http://sodipodi.sourceforge.net/DTD/sodipodi-0.dtd"
   xmlns:inkscape="http://www.inkscape.org/namespaces/inkscape"
   width="48"
   height="48"
   version="1.1"
   id="svg16"
   sodipodi:docname="text-rust.svg"
   inkscape:version="0.92.5 (2060ec1f9f, 2020-04-08)">
  <metadata
     id="metadata22">
    <rdf:RDF>
      <cc:Work
         rdf:about="">
        <dc:format>image/svg+xml</dc:format>
        <dc:type
           rdf:resource="http://purl.org/dc/dcmitype/StillImage" />
      </cc:Work>
    </rdf:RDF>
  </metadata>
  <defs
     id="defs20" />
  <sodipodi:namedview
     pagecolor="#ffffff"
     bordercolor="#666666"
     borderopacity="1"
     objecttolerance="10"
     gridtolerance="10"
     guidetolerance="10"
     inkscape:pageopacity="0"
     inkscape:pageshadow="2"
     inkscape:window-width="783"
     inkscape:window-height="480"
     id="namedview18"
     showgrid="false"
     inkscape:zoom="4.9166667"
     inkscape:cx="24"
     inkscape:cy="24"
     inkscape:window-x="0"
     inkscape:window-y="28"
     inkscape:window-maximized="0"
     inkscape:current-layer="svg16" />
  <path
     style="opacity:0.2"
     d="M 10,5 C 8.892,5 8,5.892 8,7 v 36 c 0,1.108 0.892,2 2,2 h 28 c 1.108,0 2,-0.892 2,-2 V 17 L 29,16 28,5 Z"
     id="path2" />
  <path
     style="fill:#4c566a;fill-opacity:1"
     d="M 10,4 C 8.892,4 8,4.892 8,6 V 42 C 8,43.108 8.892,44 10,44 H 38 C 39.108,44 40,43.108 40,42 V 16 L 29,15 28,4 Z"
     id="path4" />
  <path
     style="fill:#ffffff;opacity:0.2"
     d="M 10 4 C 8.892 4 8 4.892 8 6 L 8 7 C 8 5.892 8.892 5 10 5 L 28 5 L 28 4 L 10 4 z"
     id="path6" />
  <path
     style="opacity:0.2"
     d="m 28,5 v 10 c 0,1.105 0.895,2 2,2 h 10 z"
     id="path8" />
  <path
     style="fill:#5f697d;fill-opacity:1"
     d="M 28,4 V 14 C 28,15.105 28.895,16 30,16 H 40 Z"
     id="path10" />
  <path
     style="opacity:0.2"
     d="m 15,34 h -3 v 3 h 11 v -3 h -3 v -3 h 2 c 3,0 3,6 6,6 h 5 c 3,0 3,-6 3,-6 h -3.5 c 0,0 0.5,3 -2.5,3 -1.5,0 -3,-3 -3,-3 h 1 c 2,0 4,-2 4,-4.5 C 32,24 30,22 28,22 H 12 v 3 h 3 m 11,0 c 1,0 2,0 2,1.5 0,1.5 -1,1.5 -2,1.5 h -6 v -3"
     id="path12" />
  <path
     style="fill:#ffffff"
     d="M 15,33 H 12 V 36 H 23 V 33 H 20 V 30 H 22 C 25,30 25,36 28,36 H 33 C 36,36 36,30 36,30 H 32.5 C 32.5,30 33,33 30,33 28.5,33 27,30 27,30 H 28 C 30,30 32,28 32,25.5 32,23 30,21 28,21 H 12 V 24 H 15 M 26,24 C 27,24 28,24 28,25.5 28,27 27,27 26,27 H 20 V 24"
     id="path14" />
</svg>
