<?xml version="1.0" encoding="UTF-8" standalone="no"?>
<svg
   xmlns:dc="http://purl.org/dc/elements/1.1/"
   xmlns:cc="http://creativecommons.org/ns#"
   xmlns:rdf="http://www.w3.org/1999/02/22-rdf-syntax-ns#"
   xmlns:svg="http://www.w3.org/2000/svg"
   xmlns="http://www.w3.org/2000/svg"
   xmlns:sodipodi="http://sodipodi.sourceforge.net/DTD/sodipodi-0.dtd"
   xmlns:inkscape="http://www.inkscape.org/namespaces/inkscape"
   width="48"
   height="48"
   version="1.1"
   id="svg16"
   sodipodi:docname="text-x-maxima-out.svg"
   inkscape:version="0.92.5 (2060ec1f9f, 2020-04-08)">
  <metadata
     id="metadata22">
    <rdf:RDF>
      <cc:Work
         rdf:about="">
        <dc:format>image/svg+xml</dc:format>
        <dc:type
           rdf:resource="http://purl.org/dc/dcmitype/StillImage" />
      </cc:Work>
    </rdf:RDF>
  </metadata>
  <defs
     id="defs20" />
  <sodipodi:namedview
     pagecolor="#ffffff"
     bordercolor="#666666"
     borderopacity="1"
     objecttolerance="10"
     gridtolerance="10"
     guidetolerance="10"
     inkscape:pageopacity="0"
     inkscape:pageshadow="2"
     inkscape:window-width="783"
     inkscape:window-height="480"
     id="namedview18"
     showgrid="false"
     inkscape:zoom="4.9166667"
     inkscape:cx="27.171656"
     inkscape:cy="25.423428"
     inkscape:window-x="0"
     inkscape:window-y="28"
     inkscape:window-maximized="0"
     inkscape:current-layer="svg16" />
  <path
     style="opacity:0.2"
     d="M 10,5 C 8.892,5 8,5.892 8,7 l 0,36 c 0,1.108 0.892,2 2,2 l 28,0 c 1.108,0 2,-0.892 2,-2 L 40,17 28,5 Z"
     id="path2" />
  <path
     style="fill:#4c566a;fill-opacity:1"
     d="M 10,4 C 8.892,4 8,4.892 8,6 l 0,36 c 0,1.108 0.892,2 2,2 l 28,0 c 1.108,0 2,-0.892 2,-2 L 40,16 28,4 Z"
     id="path4" />
  <path
     style="opacity:0.2"
     d="M 40,17 28,5 28,15 c 0,1.108 0.892,2 2,2 z"
     id="path6" />
  <path
     style="fill:#5f697d;fill-opacity:1"
     d="M 40,16 28,4 28,14 c 0,1.108 0.892,2 2,2 z"
     id="path8" />
  <path
     style="opacity:0.1;fill:#ffffff"
     d="M 10,4 C 8.892,4 8,4.892 8,6 L 8,7 C 8,5.892 8.892,5 10,5 L 28,5 28,4 10,4 Z"
     id="path10" />
  <path
     style="opacity:0.2"
     d="m 18.0003,24.00003 0,1.4 L 18.0059,26 20.9999,31 18,36 l 0,2 11,0 0,-3 -2,0 0,1 -7,0 3,-5 -3,-5 6,0 0,1 2,0 0,-3 -9.9998,0 z"
     id="path12" />
  <path
     style="fill:#ffffff;fill-opacity:1"
     d="m 18.0003,23.00003 0,1.4 L 18.0059,25 20.9999,30 18,35 l 0,2 11,0 0,-3 -2,0 0,1 -7,0 3,-5 -3,-5 6,0 0,1 2,0 0,-3 -9.9998,0 z"
     id="path14" />
</svg>
