<?xml version="1.0" encoding="UTF-8" standalone="no"?>
<svg
   xmlns:dc="http://purl.org/dc/elements/1.1/"
   xmlns:cc="http://creativecommons.org/ns#"
   xmlns:rdf="http://www.w3.org/1999/02/22-rdf-syntax-ns#"
   xmlns:svg="http://www.w3.org/2000/svg"
   xmlns="http://www.w3.org/2000/svg"
   xmlns:sodipodi="http://sodipodi.sourceforge.net/DTD/sodipodi-0.dtd"
   xmlns:inkscape="http://www.inkscape.org/namespaces/inkscape"
   width="48"
   height="48"
   version="1"
   id="svg16"
   sodipodi:docname="text-r.svg"
   inkscape:version="0.92.5 (2060ec1f9f, 2020-04-08)">
  <metadata
     id="metadata22">
    <rdf:RDF>
      <cc:Work
         rdf:about="">
        <dc:format>image/svg+xml</dc:format>
        <dc:type
           rdf:resource="http://purl.org/dc/dcmitype/StillImage" />
      </cc:Work>
    </rdf:RDF>
  </metadata>
  <defs
     id="defs20" />
  <sodipodi:namedview
     pagecolor="#ffffff"
     bordercolor="#666666"
     borderopacity="1"
     objecttolerance="10"
     gridtolerance="10"
     guidetolerance="10"
     inkscape:pageopacity="0"
     inkscape:pageshadow="2"
     inkscape:window-width="783"
     inkscape:window-height="480"
     id="namedview18"
     showgrid="false"
     inkscape:zoom="4.9166667"
     inkscape:cx="24"
     inkscape:cy="24"
     inkscape:window-x="0"
     inkscape:window-y="28"
     inkscape:window-maximized="0"
     inkscape:current-layer="svg16" />
  <path
     style="opacity:0.2"
     d="M 10,5 C 8.892,5 8,5.892 8,7 v 36 c 0,1.108 0.892,2 2,2 h 28 c 1.108,0 2,-0.892 2,-2 V 17 L 29,16 28,5 Z"
     id="path2" />
  <path
     opacity=".1"
     transform="translate(-135.61 -237.72)"
     d="m163.22 242.45v11c0 1.1046 0.89543 2 2 2h10l-1-1-10-9z"
     id="path4" />
  <path
     fill="#e4e4e4"
     d="m10 4c-1.108 0-2 0.892-2 2v36c0 1.108 0.892 2 2 2h28c1.108 0 2-0.892 2-2v-26l-11-1-1-11z"
     id="path6"
     style="fill:#4c566a;fill-opacity:1" />
  <path
     fill="#fff"
     opacity=".2"
     d="m10 4c-1.108 0-2 0.892-2 2v1c0-1.108 0.892-2 2-2h18l11 11h1l-12-12z"
     id="path8" />
  <path
     style="opacity:0.2"
     d="m 28,5 v 10 c 0,1.1046 0.89543,2 2,2 h 10 z"
     id="path10" />
  <path
     fill="#fafafa"
     d="m28 4v10c0 1.1046 0.89543 2 2 2h10l-12-12z"
     id="path12"
     style="fill:#5f697d;fill-opacity:1" />
  <path
     fill-rule="evenodd"
     style="fill:#ffffff;fill-opacity:1"
     d="m29 32s0.55306-0.016 1.1046 0.2656c0.1914 0.097 0.52254 0.2932 0.76141 0.5495 0.23398 0.2511 0.34806 0.5056 0.34806 0.5056l3.786 6.679h-7c-1.172-2.243-2.168-4.666-3.662-6.663-0.297-0.243-0.544-0.337-0.838-0.337h-1.5004l0.000866 6.9961h-6.0004v-19.996h10.826c1.1736 0 6.1736 1 6.3471 6-0.17357 5-4.1736 6-4.1736 6zm-6.9996-8.0013v5.0013h3.9996s1 0 1-2.6952c0-2.3048-1-2.3035-1-2.3035z"
     id="path14" />
</svg>
