<?xml version="1.0" encoding="UTF-8" standalone="no"?>
<svg
   xmlns:dc="http://purl.org/dc/elements/1.1/"
   xmlns:cc="http://creativecommons.org/ns#"
   xmlns:rdf="http://www.w3.org/1999/02/22-rdf-syntax-ns#"
   xmlns:svg="http://www.w3.org/2000/svg"
   xmlns="http://www.w3.org/2000/svg"
   xmlns:sodipodi="http://sodipodi.sourceforge.net/DTD/sodipodi-0.dtd"
   xmlns:inkscape="http://www.inkscape.org/namespaces/inkscape"
   width="48"
   height="48"
   version="1.1"
   id="svg18"
   sodipodi:docname="text-x-systemd-unit.svg"
   inkscape:version="0.92.5 (2060ec1f9f, 2020-04-08)">
  <metadata
     id="metadata24">
    <rdf:RDF>
      <cc:Work
         rdf:about="">
        <dc:format>image/svg+xml</dc:format>
        <dc:type
           rdf:resource="http://purl.org/dc/dcmitype/StillImage" />
      </cc:Work>
    </rdf:RDF>
  </metadata>
  <defs
     id="defs22" />
  <sodipodi:namedview
     pagecolor="#ffffff"
     bordercolor="#666666"
     borderopacity="1"
     objecttolerance="10"
     gridtolerance="10"
     guidetolerance="10"
     inkscape:pageopacity="0"
     inkscape:pageshadow="2"
     inkscape:window-width="783"
     inkscape:window-height="480"
     id="namedview20"
     showgrid="false"
     inkscape:zoom="4.9166667"
     inkscape:cx="24"
     inkscape:cy="24"
     inkscape:window-x="0"
     inkscape:window-y="28"
     inkscape:window-maximized="0"
     inkscape:current-layer="svg18" />
  <path
     style="opacity:0.2"
     d="M 10,5 C 8.892,5 8,5.892 8,7 V 43 C 8,44.108 8.892,45 10,45 H 38 C 39.108,45 40,44.108 40,43 V 17 L 28,5 Z"
     id="path2" />
  <path
     style="fill:#4c566a;fill-opacity:1"
     d="M 10,4 C 8.892,4 8,4.892 8,6 V 42 C 8,43.108 8.892,44 10,44 H 38 C 39.108,44 40,43.108 40,42 V 16 L 30,14 28,4 Z"
     id="path4" />
  <path
     style="opacity:0.2"
     d="M 40,17 28,5 V 15 C 28,16.108 28.892,17 30,17 Z"
     id="path6" />
  <path
     style="fill:#5f697d;fill-opacity:1"
     d="M 40,16 28,4 V 14 C 28,15.108 28.892,16 30,16 Z"
     id="path8" />
  <path
     style="opacity:0.2;fill:#ffffff"
     d="M 10,4 C 8.892,4 8,4.892 8,6 V 7 C 8,5.892 8.892,5 10,5 H 28 V 4 Z"
     id="path10" />
  <path
     style="fill:#ffffff;fill-opacity:1"
     d="m 33,37 h 4 V 23 h -4 v 2 h 2 V 35 H 33 Z M 15,23 h -4 v 14 h 4 V 35 H 13 V 25 h 2 z"
     id="path12" />
  <circle
     style="fill:#f8fffe;fill-opacity:1"
     cx="19"
     cy="30"
     r="4"
     id="circle14" />
  <path
     style="fill:#ffffff;fill-opacity:1"
     d="m 32,25.5 v 9 L 24.5,30 Z"
     id="path16" />
</svg>
