<svg xmlns="http://www.w3.org/2000/svg" width="16" height="16" version="1.1">
 <defs>
  <style id="current-color-scheme" type="text/css">
   .ColorScheme-Text { color:#ffffff; } .ColorScheme-Highlight { color:#82c1e0; } .ColorScheme-NeutralText { color:#bcddee; } .ColorScheme-PositiveText { color:#a4d1e8; } .ColorScheme-NegativeText { color:#5daed7; }
  </style>
 </defs>
 <path style="fill:currentColor" class="ColorScheme-Text" d="M 8,1 A 7,7 0 0 0 1,8 7,7 0 0 0 8,15 7,7 0 0 0 15,8 7,7 0 0 0 8,1 Z M 8,4 A 2,2 0 0 1 10,6 2,2 0 0 1 8,8 2,2 0 0 1 6,6 2,2 0 0 1 8,4 Z M 8,9 C 10.5,9 12,10 12,11.5 V 12 H 4 V 11.5 C 4,10 5.5,9 8,9 Z"/>
</svg>
