<svg xmlns="http://www.w3.org/2000/svg" width="16" height="16" version="1.1">
 <defs>
  <style id="current-color-scheme" type="text/css">
   .ColorScheme-Text { color:#ffffff; } .ColorScheme-Highlight { color:#82c1e0; } .ColorScheme-NeutralText { color:#bcddee; } .ColorScheme-PositiveText { color:#a4d1e8; } .ColorScheme-NegativeText { color:#5daed7; }
  </style>
 </defs>
 <path style="fill:currentColor" class="ColorScheme-Text" d="M 9,12.5 A 1.5,1.5 0 0 1 7.5,14 1.5,1.5 0 0 1 6,12.5 1.5,1.5 0 0 1 7.5,11 1.5,1.5 0 0 1 9,12.5 Z M 9,8.5 A 1.5,1.5 0 0 1 7.5,10 1.5,1.5 0 0 1 6,8.5 1.5,1.5 0 0 1 7.5,7 1.5,1.5 0 0 1 9,8.5 Z M 9,4.5 A 1.5,1.5 0 0 1 7.5,6 1.5,1.5 0 0 1 6,4.5 1.5,1.5 0 0 1 7.5,3 1.5,1.5 0 0 1 9,4.5 Z"/>
</svg>
