<?xml version="1.0" encoding="UTF-8" standalone="no"?>
<svg
   xmlns:dc="http://purl.org/dc/elements/1.1/"
   xmlns:cc="http://creativecommons.org/ns#"
   xmlns:rdf="http://www.w3.org/1999/02/22-rdf-syntax-ns#"
   xmlns:svg="http://www.w3.org/2000/svg"
   xmlns="http://www.w3.org/2000/svg"
   xmlns:sodipodi="http://sodipodi.sourceforge.net/DTD/sodipodi-0.dtd"
   xmlns:inkscape="http://www.inkscape.org/namespaces/inkscape"
   width="48"
   height="48"
   version="1"
   id="svg22"
   sodipodi:docname="battery-full-charging.svg"
   inkscape:version="0.92.5 (2060ec1f9f, 2020-04-08)">
  <metadata
     id="metadata28">
    <rdf:RDF>
      <cc:Work
         rdf:about="">
        <dc:format>image/svg+xml</dc:format>
        <dc:type
           rdf:resource="http://purl.org/dc/dcmitype/StillImage" />
      </cc:Work>
    </rdf:RDF>
  </metadata>
  <defs
     id="defs26" />
  <sodipodi:namedview
     pagecolor="#ffffff"
     bordercolor="#666666"
     borderopacity="1"
     objecttolerance="10"
     gridtolerance="10"
     guidetolerance="10"
     inkscape:pageopacity="0"
     inkscape:pageshadow="2"
     inkscape:window-width="960"
     inkscape:window-height="498"
     id="namedview24"
     showgrid="false"
     inkscape:zoom="4.9166665"
     inkscape:cx="11.171632"
     inkscape:cy="27.88129"
     inkscape:window-x="0"
     inkscape:window-y="28"
     inkscape:window-maximized="0"
     inkscape:current-layer="svg22" />
  <rect
     style="opacity:0.2"
     width="32"
     height="36"
     x="8"
     y="9"
     rx="2"
     ry="2"
     id="rect2" />
  <rect
     style="fill:#4c566a;fill-opacity:1"
     width="32"
     height="36"
     x="8"
     y="8"
     rx="2"
     ry="2"
     id="rect4" />
  <rect
     style="fill:#8e8e8e"
     width="20"
     height="4"
     x="14"
     y="4"
     id="rect6" />
  <path
     style="opacity:0.2"
     d="m 11,13 v 8 h 26 v -8 z m 0,10 v 8 h 26 v -8 z m 0,10 v 8 h 26 v -8 z"
     id="path8" />
  <path
     style="fill:#ffffff;fill-opacity:1"
     d="m 11,12 v 8 h 26 v -8 z m 0,10 v 8 h 26 v -8 z m 0,10 v 8 h 26 v -8 z"
     id="path10" />
  <path
     style="opacity:0.2;fill:#ffffff"
     d="m14 4v1h20v-1h-20z"
     id="path12" />
  <path
     style="fill:#ffffff;opacity:0.2"
     d="M 11 12 L 11 13 L 37 13 L 37 12 L 11 12 z M 11 22 L 11 23 L 37 23 L 37 22 L 11 22 z M 11 32 L 11 33 L 37 33 L 37 32 L 11 32 z"
     id="path14" />
  <path
     style="opacity:0.2"
     d="M 35.999,27 C 30.46,27 26,31.46 26,37 c 0,5.54 4.4596,10 9.9991,10 5.5395,0 9.9991,-4.46 9.9991,-10 0,-5.54 -4.459,-10 -9.999,-10 z"
     id="path16" />
  <path
     style="fill:#5f697d;fill-opacity:1"
     d="M 35.999,26 C 30.46,26 26,30.46 26,36 c 0,5.54 4.4596,10 9.9991,10 5.5395,0 9.9991,-4.46 9.9991,-10 0,-5.54 -4.459,-10 -9.999,-10 z"
     id="path18" />
  <path
     style="fill:#fdfdfd;fill-opacity:1"
     d="m 35.999,30 v 4 h 4 l -5,8 v -4 h -4 z"
     id="path20" />
</svg>
