<?xml version="1.0" encoding="UTF-8" standalone="no"?>
<svg
   xmlns:dc="http://purl.org/dc/elements/1.1/"
   xmlns:cc="http://creativecommons.org/ns#"
   xmlns:rdf="http://www.w3.org/1999/02/22-rdf-syntax-ns#"
   xmlns:svg="http://www.w3.org/2000/svg"
   xmlns="http://www.w3.org/2000/svg"
   xmlns:sodipodi="http://sodipodi.sourceforge.net/DTD/sodipodi-0.dtd"
   xmlns:inkscape="http://www.inkscape.org/namespaces/inkscape"
   width="48"
   height="48"
   version="1"
   id="svg12"
   sodipodi:docname="blueberry.svg"
   inkscape:version="0.92.5 (2060ec1f9f, 2020-04-08)">
  <metadata
     id="metadata18">
    <rdf:RDF>
      <cc:Work
         rdf:about="">
        <dc:format>image/svg+xml</dc:format>
        <dc:type
           rdf:resource="http://purl.org/dc/dcmitype/StillImage" />
      </cc:Work>
    </rdf:RDF>
  </metadata>
  <defs
     id="defs16" />
  <sodipodi:namedview
     pagecolor="#ffffff"
     bordercolor="#666666"
     borderopacity="1"
     objecttolerance="10"
     gridtolerance="10"
     guidetolerance="10"
     inkscape:pageopacity="0"
     inkscape:pageshadow="2"
     inkscape:window-width="783"
     inkscape:window-height="480"
     id="namedview14"
     showgrid="false"
     inkscape:zoom="4.9166667"
     inkscape:cx="24"
     inkscape:cy="24"
     inkscape:window-x="0"
     inkscape:window-y="28"
     inkscape:window-maximized="0"
     inkscape:current-layer="svg12" />
  <rect
     fill="#324090"
     width="40"
     height="28"
     x="-44"
     y="-38"
     rx="14"
     ry="14"
     transform="matrix(0,-1,-1,0,0,0)"
     id="rect2"
     style="fill:#4c566a;fill-opacity:1" />
  <path
     fill="none"
     stroke="#000"
     stroke-linecap="square"
     stroke-width="2"
     opacity=".2"
     d="m17 19 14 13-7 7v-27l7 7-14 13"
     id="path4" />
  <path
     fill="none"
     stroke="#fff"
     stroke-linecap="square"
     stroke-width="2"
     d="m17 18 14 13-7 7v-27l7 7-14 13"
     id="path6" />
  <path
     fill="#fff"
     opacity=".1"
     d="m24 4c-7.756 0-14 6.244-14 14v1c0-7.756 6.244-14 14-14s14 6.244 14 14v-1c0-7.756-6.244-14-14-14z"
     id="path8" />
  <path
     opacity=".2"
     d="m10 30v1c0 7.756 6.244 14 14 14s14-6.244 14-14v-1c0 7.756-6.244 14-14 14s-14-6.244-14-14z"
     id="path10" />
</svg>
