<?xml version="1.0" encoding="UTF-8" standalone="no"?>
<svg
   xmlns:dc="http://purl.org/dc/elements/1.1/"
   xmlns:cc="http://creativecommons.org/ns#"
   xmlns:rdf="http://www.w3.org/1999/02/22-rdf-syntax-ns#"
   xmlns:svg="http://www.w3.org/2000/svg"
   xmlns="http://www.w3.org/2000/svg"
   xmlns:sodipodi="http://sodipodi.sourceforge.net/DTD/sodipodi-0.dtd"
   xmlns:inkscape="http://www.inkscape.org/namespaces/inkscape"
   width="48"
   height="48"
   version="1"
   id="svg26"
   sodipodi:docname="camera-off.svg"
   inkscape:version="0.92.5 (2060ec1f9f, 2020-04-08)">
  <metadata
     id="metadata32">
    <rdf:RDF>
      <cc:Work
         rdf:about="">
        <dc:format>image/svg+xml</dc:format>
        <dc:type
           rdf:resource="http://purl.org/dc/dcmitype/StillImage" />
      </cc:Work>
    </rdf:RDF>
  </metadata>
  <defs
     id="defs30" />
  <sodipodi:namedview
     pagecolor="#ffffff"
     bordercolor="#666666"
     borderopacity="1"
     objecttolerance="10"
     gridtolerance="10"
     guidetolerance="10"
     inkscape:pageopacity="0"
     inkscape:pageshadow="2"
     inkscape:window-width="783"
     inkscape:window-height="480"
     id="namedview28"
     showgrid="false"
     inkscape:zoom="4.9166667"
     inkscape:cx="19.316773"
     inkscape:cy="9.4709664"
     inkscape:window-x="0"
     inkscape:window-y="28"
     inkscape:window-maximized="0"
     inkscape:current-layer="svg26" />
  <rect
     style="opacity:0.2"
     width="40"
     height="40"
     x="-45"
     y="-44"
     rx="20"
     ry="20"
     transform="matrix(0,-1,-1,0,0,0)"
     id="rect2" />
  <rect
     style="fill:#4c566a;fill-opacity:1"
     width="40"
     height="40"
     x="-44"
     y="-44"
     rx="20"
     ry="20"
     transform="matrix(0,-1,-1,0,0,0)"
     id="rect4" />
  <circle
     style="fill:#3f3f3f"
     cx="24"
     cy="24"
     r="12"
     id="circle6" />
  <circle
     style="opacity:0.2"
     cx="24"
     cy="-25"
     r="9"
     transform="scale(1,-1)"
     id="circle8" />
  <circle
     style="fill:#696969"
     cx="24"
     cy="-24"
     r="9"
     transform="scale(1,-1)"
     id="circle10" />
  <path
     style="opacity:0.1;fill:#ffffff"
     d="M 24,4 C 12.92,4 4,12.92 4,24 4,24.168 4.0076,24.333 4.0117,24.5 4.2764,13.654 13.088,5 23.9997,5 c 10.9117,0 19.724,8.654 19.988,19.5 0.004,-0.167 0.012,-0.332 0.012,-0.5 0,-11.08 -8.92,-20 -20,-20 z"
     id="path12" />
  <circle
     style="opacity:0.2"
     cx="24"
     cy="25"
     r="6"
     id="circle14" />
  <circle
     style="fill:#a5a5a5"
     cx="24"
     cy="24"
     r="6"
     id="circle16" />
  <circle
     style="fill:#5f697d;fill-opacity:1"
     cx="37"
     cy="36"
     r="10"
     id="circle18" />
  <path
     style="opacity:0.2"
     d="M 46.979,36.414 A 10,10 0 0 1 37,46 10,10 0 0 1 27.021,36.586 10,10 0 0 0 27,37 10,10 0 0 0 37,47 10,10 0 0 0 47,37 10,10 0 0 0 46.979,36.414 Z"
     id="path20" />
  <rect
     style="fill:#ffffff"
     width="12"
     height="2"
     x="-5.48"
     y="50.8"
     transform="matrix(0.70710678,-0.70710678,0.70710678,0.70710678,0,0)"
     id="rect22" />
  <rect
     style="fill:#ffffff"
     width="12"
     height="2"
     x="-57.8"
     y="-.48"
     transform="matrix(-0.70710678,-0.70710678,0.70710678,-0.70710678,0,0)"
     id="rect24" />
</svg>
