<?xml version="1.0" encoding="UTF-8" standalone="no"?>
<svg
   xmlns:dc="http://purl.org/dc/elements/1.1/"
   xmlns:cc="http://creativecommons.org/ns#"
   xmlns:rdf="http://www.w3.org/1999/02/22-rdf-syntax-ns#"
   xmlns:svg="http://www.w3.org/2000/svg"
   xmlns="http://www.w3.org/2000/svg"
   xmlns:sodipodi="http://sodipodi.sourceforge.net/DTD/sodipodi-0.dtd"
   xmlns:inkscape="http://www.inkscape.org/namespaces/inkscape"
   width="48"
   height="48"
   version="1"
   id="svg14"
   sodipodi:docname="dialog-question.svg"
   inkscape:version="0.92.5 (2060ec1f9f, 2020-04-08)">
  <metadata
     id="metadata20">
    <rdf:RDF>
      <cc:Work
         rdf:about="">
        <dc:format>image/svg+xml</dc:format>
        <dc:type
           rdf:resource="http://purl.org/dc/dcmitype/StillImage" />
      </cc:Work>
    </rdf:RDF>
  </metadata>
  <defs
     id="defs18" />
  <sodipodi:namedview
     pagecolor="#ffffff"
     bordercolor="#666666"
     borderopacity="1"
     objecttolerance="10"
     gridtolerance="10"
     guidetolerance="10"
     inkscape:pageopacity="0"
     inkscape:pageshadow="2"
     inkscape:window-width="783"
     inkscape:window-height="480"
     id="namedview16"
     showgrid="false"
     inkscape:zoom="4.9166667"
     inkscape:cx="-15.661017"
     inkscape:cy="24"
     inkscape:window-x="0"
     inkscape:window-y="28"
     inkscape:window-maximized="0"
     inkscape:current-layer="svg14" />
  <path
     fill="#64db2d"
     fill-rule="evenodd"
     d="m23.947 4.0004c-0.946 0.0134-1.85 0.3953-2.519 1.0644l-16.362 16.362c-1.4211 1.4203-1.4211 3.724 0 5.1443l16.362 16.363c1.4203 1.4211 3.7239 1.4211 5.1442 0l16.362-16.363c1.4211-1.4203 1.4211-3.724 0-5.1443l-16.362-16.362c-0.695-0.6952-1.642-1.0791-2.625-1.0646z"
     id="path2"
     style="fill:#4c566a;fill-opacity:1" />
  <path
     opacity=".2"
     d="m26 39h-4v-4h4zm4.14-15.5-1.8 1.84c-1.44 1.46-2.34 2.66-2.34 5.66h-4v-1c0-2.2 0.9-4.2 2.34-5.66l2.48-2.52c0.74-0.72 1.18-1.72 1.18-2.82 0-2.2-1.8-4-4-4s-4 1.8-4 4h-4c0-4.42 3.58-8 8-8s8 3.58 8 8c0 1.76-0.72 3.36-1.86 4.5z"
     id="path4" />
  <path
     fill="#fff"
     d="m26 38h-4v-4h4zm4.14-15.5-1.8 1.84c-1.44 1.46-2.34 2.66-2.34 5.66h-4v-1c0-2.2 0.9-4.2 2.34-5.66l2.48-2.52c0.74-0.72 1.18-1.72 1.18-2.82 0-2.2-1.8-4-4-4s-4 1.8-4 4h-4c0-4.42 3.58-8 8-8s8 3.58 8 8c0 1.76-0.72 3.36-1.86 4.5z"
     id="path6" />
  <rect
     fill="none"
     width="32"
     height="32"
     x="8"
     y="7.99"
     id="rect8" />
  <path
     fill="#fff"
     fill-rule="evenodd"
     opacity=".2"
     d="m23.947 4c-0.946 0.0134-1.85 0.3953-2.519 1.0645l-16.362 16.364c-0.8382 0.838-1.1703 1.982-1.0191 3.072 0.1047-0.758 0.4367-1.49 1.0195-2.072l16.362-16.364c0.669-0.6687 1.573-1.0506 2.519-1.064 0.98283-0.01453 1.9299 0.36948 2.625 1.0645l16.362 16.364c0.58282 0.58252 0.91477 1.3145 1.0195 2.0723 0.15116-1.0903-0.18093-2.2341-1.0195-3.0723l-16.362-16.364c-0.695-0.6945-1.642-1.0785-2.625-1.064z"
     id="path10" />
  <path
     fill-rule="evenodd"
     opacity=".2"
     d="m4.0469 24.5c-0.15067 1.0899 0.18128 2.2344 1.0195 3.0723l16.362 16.362c1.4203 1.4211 3.7242 1.4211 5.1445 0l16.362-16.362c0.838-0.838 1.17-1.982 1.019-3.072-0.10499 0.7573-0.43707 1.4901-1.0195 2.0723l-16.362 16.362c-1.4203 1.4211-3.7242 1.4211-5.1445 0l-16.362-16.362c-0.5821-0.582-0.9141-1.315-1.0191-2.072z"
     id="path12" />
</svg>
