<?xml version="1.0" encoding="UTF-8" standalone="no"?>
<svg
   xmlns:dc="http://purl.org/dc/elements/1.1/"
   xmlns:cc="http://creativecommons.org/ns#"
   xmlns:rdf="http://www.w3.org/1999/02/22-rdf-syntax-ns#"
   xmlns:svg="http://www.w3.org/2000/svg"
   xmlns="http://www.w3.org/2000/svg"
   xmlns:sodipodi="http://sodipodi.sourceforge.net/DTD/sodipodi-0.dtd"
   xmlns:inkscape="http://www.inkscape.org/namespaces/inkscape"
   width="48"
   height="48"
   version="1"
   id="svg30"
   sodipodi:docname="face-cool.svg"
   inkscape:version="0.92.5 (2060ec1f9f, 2020-04-08)">
  <metadata
     id="metadata36">
    <rdf:RDF>
      <cc:Work
         rdf:about="">
        <dc:format>image/svg+xml</dc:format>
        <dc:type
           rdf:resource="http://purl.org/dc/dcmitype/StillImage" />
      </cc:Work>
    </rdf:RDF>
  </metadata>
  <defs
     id="defs34" />
  <sodipodi:namedview
     pagecolor="#ffffff"
     bordercolor="#666666"
     borderopacity="1"
     objecttolerance="10"
     gridtolerance="10"
     guidetolerance="10"
     inkscape:pageopacity="0"
     inkscape:pageshadow="2"
     inkscape:window-width="783"
     inkscape:window-height="480"
     id="namedview32"
     showgrid="false"
     inkscape:zoom="4.9166667"
     inkscape:cx="18.657979"
     inkscape:cy="39.985854"
     inkscape:window-x="0"
     inkscape:window-y="28"
     inkscape:window-maximized="0"
     inkscape:current-layer="svg30" />
  <path
     style="fill:#4c566a;fill-opacity:1"
     d="M 24,4 C 12.92,4 4,12.92 4,24 4,35.08 12.92,44 24,44 35.08,44 44,35.08 44,24 44,12.92 35.08,4 24,4 Z"
     id="path2" />
  <rect
     style="opacity:0.1"
     width="16"
     height="12"
     x="5"
     y="13"
     rx="2"
     ry="2"
     id="rect4" />
  <rect
     style="opacity:0.1"
     width="16"
     height="12"
     x="27"
     y="13"
     rx="2"
     ry="2"
     id="rect6" />
  <path
     style="opacity:0.2;fill:#ffffff"
     d="M 24,4 C 12.92,4 4,12.92 4,24 4,24.168 3.996,24.333 4,24.5 4.2644,13.654 13.088,5 24,5 34.912,5 43.736,13.654 44,24.5 44.004,24.333 44,24.168 44,24 44,12.92 35.08,4 24,4 Z"
     id="path8" />
  <path
     style="opacity:0.2"
     d="M 4.0117,24.5 C 4.0076,24.667 4,24.832 4,25 c 0,11.08 8.92,20 20,20 11.08,0 20,-8.92 20,-20 0,-0.16787 -0.0076,-0.33314 -0.01172,-0.5 -0.264,10.846 -9.076,19.5 -19.988,19.5 -10.912,0 -19.724,-8.654 -19.988,-19.5 z"
     id="path10" />
  <path
     style="opacity:0.1"
     d="m 20,16 c 0,0 2,-1 4,-1 2,0 4,1 4,1 l 0,2 c 0,0 -2,-1 -4,-1 -2,0 -4,1 -4,1 z"
     id="path12" />
  <rect
     style="fill:#ffffff;fill-opacity:1"
     width="16"
     height="12"
     x="5"
     y="12"
     rx="2"
     ry="2"
     id="rect14" />
  <rect
     style="fill:#ffffff;fill-opacity:1"
     width="16"
     height="12"
     x="27"
     y="12"
     rx="2"
     ry="2"
     id="rect16" />
  <rect
     style="opacity:0.1"
     width="3"
     height="4"
     x="3"
     y="15"
     rx="1"
     ry="1"
     id="rect18" />
  <rect
     style="fill:#ffffff;fill-opacity:1"
     width="3"
     height="4"
     x="3"
     y="14"
     rx="1"
     ry="1"
     id="rect20" />
  <rect
     style="opacity:0.1"
     width="3"
     height="4"
     x="42"
     y="15"
     rx="1"
     ry="1"
     id="rect22" />
  <rect
     style="fill:#fdfdfd;fill-opacity:1"
     width="3"
     height="4"
     x="42"
     y="14"
     rx="1"
     ry="1"
     id="rect24" />
  <path
     style="fill:#ffffff;fill-opacity:1"
     d="m 20,15 c 0,0 2,-1 4,-1 2,0 4,1 4,1 l 0,2 c 0,0 -2,-1 -4,-1 -2,0 -4,1 -4,1 z"
     id="path26" />
  <rect
     style="fill:#f9f9f9;fill-opacity:1"
     width="16"
     height="2"
     x="16"
     y="32"
     rx="1"
     ry="1"
     id="rect28" />
</svg>
