<?xml version="1.0" encoding="UTF-8" standalone="no"?>
<svg
   xmlns:dc="http://purl.org/dc/elements/1.1/"
   xmlns:cc="http://creativecommons.org/ns#"
   xmlns:rdf="http://www.w3.org/1999/02/22-rdf-syntax-ns#"
   xmlns:svg="http://www.w3.org/2000/svg"
   xmlns="http://www.w3.org/2000/svg"
   xmlns:sodipodi="http://sodipodi.sourceforge.net/DTD/sodipodi-0.dtd"
   xmlns:inkscape="http://www.inkscape.org/namespaces/inkscape"
   width="48"
   height="48"
   version="1"
   id="svg14"
   sodipodi:docname="gtk-missing-image.svg"
   inkscape:version="0.92.5 (2060ec1f9f, 2020-04-08)">
  <metadata
     id="metadata20">
    <rdf:RDF>
      <cc:Work
         rdf:about="">
        <dc:format>image/svg+xml</dc:format>
        <dc:type
           rdf:resource="http://purl.org/dc/dcmitype/StillImage" />
      </cc:Work>
    </rdf:RDF>
  </metadata>
  <defs
     id="defs18" />
  <sodipodi:namedview
     pagecolor="#ffffff"
     bordercolor="#666666"
     borderopacity="1"
     objecttolerance="10"
     gridtolerance="10"
     guidetolerance="10"
     inkscape:pageopacity="0"
     inkscape:pageshadow="2"
     inkscape:window-width="783"
     inkscape:window-height="480"
     id="namedview16"
     showgrid="false"
     inkscape:zoom="4.9166667"
     inkscape:cx="24"
     inkscape:cy="24"
     inkscape:window-x="0"
     inkscape:window-y="28"
     inkscape:window-maximized="0"
     inkscape:current-layer="svg14" />
  <path
     style="opacity:0.2"
     d="M 5.9999,7 C 4.8919,7 3.9999,7.892 3.9999,9 V 41 C 3.9999,42.108 4.8919,43 5.9999,43 H 28 L 44,27 V 9 C 44,7.892 43.108,7 42,7 Z"
     id="path2" />
  <path
     style="fill:#4c566a;fill-opacity:1"
     d="M 5.9999,6 C 4.8919,6 3.9999,6.892 3.9999,8 V 40 C 3.9999,41.108 4.8919,42 5.9999,42 H 28 L 44,26 V 8 C 44,6.892 43.108,6 42,6 Z"
     id="path4" />
  <path
     style="opacity:1;fill:#ffffff;fill-opacity:1"
     d="M 16.5,19.688 26.437,30.938 32.813,24.75 38.101,30.039 36.999,31 32.999,36 H 8.9991 V 28.5 Z"
     id="path6" />
  <path
     style="fill:#5f697d;fill-opacity:1"
     d="M 44,26 H 30 C 28.895,26 28,26.895 28,28 V 42 Z"
     id="path8" />
  <path
     style="opacity:0.2;fill:#ffffff"
     d="M 30,26 C 28.895,26 28,26.895 28,28 V 29 C 28,27.895 28.895,27 30,27 H 43 L 44,26 Z"
     id="path10" />
  <path
     style="opacity:0.2;fill:#ffffff"
     d="M 6,6 C 4.892,6 4,6.892 4,8 V 9 C 4,7.892 4.892,7 6,7 H 42 C 43.108,7 44,7.892 44,9 V 8 C 44,6.892 43.108,6 42,6 Z"
     id="path12" />
</svg>
