<?xml version="1.0" encoding="UTF-8" standalone="no"?>
<svg
   xmlns:dc="http://purl.org/dc/elements/1.1/"
   xmlns:cc="http://creativecommons.org/ns#"
   xmlns:rdf="http://www.w3.org/1999/02/22-rdf-syntax-ns#"
   xmlns:svg="http://www.w3.org/2000/svg"
   xmlns="http://www.w3.org/2000/svg"
   xmlns:sodipodi="http://sodipodi.sourceforge.net/DTD/sodipodi-0.dtd"
   xmlns:inkscape="http://www.inkscape.org/namespaces/inkscape"
   width="48"
   height="48"
   version="1"
   id="svg64"
   sodipodi:docname="input-keyboard-virtual-off.svg"
   inkscape:version="0.92.5 (2060ec1f9f, 2020-04-08)">
  <metadata
     id="metadata70">
    <rdf:RDF>
      <cc:Work
         rdf:about="">
        <dc:format>image/svg+xml</dc:format>
        <dc:type
           rdf:resource="http://purl.org/dc/dcmitype/StillImage" />
      </cc:Work>
    </rdf:RDF>
  </metadata>
  <defs
     id="defs68" />
  <sodipodi:namedview
     pagecolor="#ffffff"
     bordercolor="#666666"
     borderopacity="1"
     objecttolerance="10"
     gridtolerance="10"
     guidetolerance="10"
     inkscape:pageopacity="0"
     inkscape:pageshadow="2"
     inkscape:window-width="783"
     inkscape:window-height="480"
     id="namedview66"
     showgrid="false"
     inkscape:zoom="6.9532168"
     inkscape:cx="26.576736"
     inkscape:cy="26.323993"
     inkscape:window-x="0"
     inkscape:window-y="28"
     inkscape:window-maximized="0"
     inkscape:current-layer="svg64" />
  <rect
     style="fill:#4c566a;fill-opacity:1"
     width="28"
     height="40"
     x="-38"
     y="-44"
     rx="2"
     ry="2"
     transform="matrix(0,-1,-1,0,0,0)"
     id="rect2" />
  <path
     style="opacity:0.2"
     d="m 14,27 a 2,2 0 0 1 -2,2 2,2 0 0 1 -2,-2 2,2 0 0 1 2,-2 2,2 0 0 1 2,2 z"
     id="path4" />
  <path
     style="opacity:0.2"
     d="m 20,27 a 2,2 0 0 1 -2,2 2,2 0 0 1 -2,-2 2,2 0 0 1 2,-2 2,2 0 0 1 2,2 z"
     id="path6" />
  <path
     style="opacity:0.2"
     d="m 26,27 a 2,2 0 0 1 -2,2 2,2 0 0 1 -2,-2 2,2 0 0 1 2,-2 2,2 0 0 1 2,2 z"
     id="path8" />
  <path
     style="opacity:0.2"
     d="m 32,27 a 2,2 0 0 1 -2,2 2,2 0 0 1 -2,-2 2,2 0 0 1 2,-2 2,2 0 0 1 2,2 z"
     id="path10" />
  <path
     style="opacity:0.2"
     d="m 38,27 a 2,2 0 0 1 -2,2 2,2 0 0 1 -2,-2 2,2 0 0 1 2,-2 2,2 0 0 1 2,2 z"
     id="path12" />
  <rect
     style="opacity:0.2"
     width="30"
     height="4"
     x="9"
     y="32"
     rx="1"
     ry="1"
     id="rect14" />
  <path
     style="opacity:0.2"
     d="m 35,19 a 2,2 0 0 1 -2,2 2,2 0 0 1 -2,-2 2,2 0 0 1 2,-2 2,2 0 0 1 2,2 z"
     id="path16" />
  <path
     style="opacity:0.2"
     d="m 17,19 a 2,2 0 0 1 -2,2 2,2 0 0 1 -2,-2 2,2 0 0 1 2,-2 2,2 0 0 1 2,2 z"
     id="path18" />
  <path
     style="opacity:0.2"
     d="m 11,19 a 2,2 0 0 1 -2,2 2,2 0 0 1 -2,-2 2,2 0 0 1 2,-2 2,2 0 0 1 2,2 z"
     id="path20" />
  <path
     style="opacity:0.2"
     d="m 23,19 a 2,2 0 0 1 -2,2 2,2 0 0 1 -2,-2 2,2 0 0 1 2,-2 2,2 0 0 1 2,2 z"
     id="path22" />
  <path
     style="opacity:0.2"
     d="m 29,19 a 2,2 0 0 1 -2,2 2,2 0 0 1 -2,-2 2,2 0 0 1 2,-2 2,2 0 0 1 2,2 z"
     id="path24" />
  <path
     style="opacity:0.2"
     d="m 41,19 a 2,2 0 0 1 -2,2 2,2 0 0 1 -2,-2 2,2 0 0 1 2,-2 2,2 0 0 1 2,2 z"
     id="path26" />
  <path
     style="fill:#ffffff;fill-opacity:1"
     d="m 14,26 a 2,2 0 0 1 -2,2 2,2 0 0 1 -2,-2 2,2 0 0 1 2,-2 2,2 0 0 1 2,2 z"
     id="path28" />
  <path
     style="fill:#ffffff;fill-opacity:1"
     d="m 20,26 a 2,2 0 0 1 -2,2 2,2 0 0 1 -2,-2 2,2 0 0 1 2,-2 2,2 0 0 1 2,2 z"
     id="path30" />
  <path
     style="fill:#ffffff;fill-opacity:1"
     d="m 26,26 a 2,2 0 0 1 -2,2 2,2 0 0 1 -2,-2 2,2 0 0 1 2,-2 2,2 0 0 1 2,2 z"
     id="path32" />
  <path
     style="fill:#ffffff;fill-opacity:1"
     d="m 32,26 a 2,2 0 0 1 -2,2 2,2 0 0 1 -2,-2 2,2 0 0 1 2,-2 2,2 0 0 1 2,2 z"
     id="path34" />
  <path
     style="fill:#ffffff;fill-opacity:1"
     d="m 38,26 a 2,2 0 0 1 -2,2 2,2 0 0 1 -2,-2 2,2 0 0 1 2,-2 2,2 0 0 1 2,2 z"
     id="path36" />
  <rect
     style="fill:#ffffff;fill-opacity:1"
     width="30"
     height="4"
     x="9"
     y="31"
     rx="1"
     ry="1"
     id="rect38" />
  <path
     style="fill:#ffffff;fill-opacity:1"
     d="m 35,18 a 2,2 0 0 1 -2,2 2,2 0 0 1 -2,-2 2,2 0 0 1 2,-2 2,2 0 0 1 2,2 z"
     id="path40" />
  <path
     style="fill:#ffffff;fill-opacity:1"
     d="m 17,18 a 2,2 0 0 1 -2,2 2,2 0 0 1 -2,-2 2,2 0 0 1 2,-2 2,2 0 0 1 2,2 z"
     id="path42" />
  <path
     style="fill:#ffffff;fill-opacity:1"
     d="m 11,18 a 2,2 0 0 1 -2,2 2,2 0 0 1 -2,-2 2,2 0 0 1 2,-2 2,2 0 0 1 2,2 z"
     id="path44" />
  <path
     style="fill:#ffffff;fill-opacity:1"
     d="m 23,18 a 2,2 0 0 1 -2,2 2,2 0 0 1 -2,-2 2,2 0 0 1 2,-2 2,2 0 0 1 2,2 z"
     id="path46" />
  <path
     style="fill:#ffffff;fill-opacity:1"
     d="m 29,18 a 2,2 0 0 1 -2,2 2,2 0 0 1 -2,-2 2,2 0 0 1 2,-2 2,2 0 0 1 2,2 z"
     id="path48" />
  <path
     style="fill:#ffffff;fill-opacity:1"
     d="m 41,18 a 2,2 0 0 1 -2,2 2,2 0 0 1 -2,-2 2,2 0 0 1 2,-2 2,2 0 0 1 2,2 z"
     id="path50" />
  <path
     style="opacity:0.1;fill:#ffffff"
     d="m 6,10 c -1.108,0 -2,0.892 -2,2 l 0,1 c 0,-1.108 0.892,-2 2,-2 l 36,0 c 1.108,0 2,0.892 2,2 l 0,-1 c 0,-1.108 -0.892,-2 -2,-2 L 6,10 Z"
     id="path52" />
  <path
     style="opacity:0.2"
     d="m 4,36 0,1 c 0,1.108 0.892,2 2,2 l 36,0 c 1.108,0 2,-0.892 2,-2 l 0,-1 c 0,1.108 -0.892,2 -2,2 L 6,38 C 4.892,38 4,37.108 4,36 Z"
     id="path54" />
  <circle
     style="fill:#5f697d;fill-opacity:1"
     cx="37"
     cy="36"
     r="10"
     id="circle56" />
  <path
     style="opacity:0.2"
     d="M 46.979,36.414 A 10,10 0 0 1 37,46 10,10 0 0 1 27.021,36.586 10,10 0 0 0 27,37 10,10 0 0 0 37,47 10,10 0 0 0 47,37 10,10 0 0 0 46.979,36.414 Z"
     id="path58" />
  <rect
     style="fill:#ffffff"
     width="12"
     height="2"
     x="-5.48"
     y="50.8"
     transform="matrix(0.70710678,-0.70710678,0.70710678,0.70710678,0,0)"
     id="rect60" />
  <rect
     style="fill:#ffffff"
     width="12"
     height="2"
     x="-57.8"
     y="-.48"
     transform="matrix(-0.70710678,-0.70710678,0.70710678,-0.70710678,0,0)"
     id="rect62" />
</svg>
