<?xml version="1.0" encoding="UTF-8" standalone="no"?>
<svg
   xmlns:dc="http://purl.org/dc/elements/1.1/"
   xmlns:cc="http://creativecommons.org/ns#"
   xmlns:rdf="http://www.w3.org/1999/02/22-rdf-syntax-ns#"
   xmlns:svg="http://www.w3.org/2000/svg"
   xmlns="http://www.w3.org/2000/svg"
   xmlns:sodipodi="http://sodipodi.sourceforge.net/DTD/sodipodi-0.dtd"
   xmlns:inkscape="http://www.inkscape.org/namespaces/inkscape"
   width="48"
   height="48"
   version="1"
   id="svg22"
   sodipodi:docname="notification-network-ethernet-disconnected.svg"
   inkscape:version="0.92.5 (2060ec1f9f, 2020-04-08)">
  <metadata
     id="metadata28">
    <rdf:RDF>
      <cc:Work
         rdf:about="">
        <dc:format>image/svg+xml</dc:format>
        <dc:type
           rdf:resource="http://purl.org/dc/dcmitype/StillImage" />
      </cc:Work>
    </rdf:RDF>
  </metadata>
  <defs
     id="defs26" />
  <sodipodi:namedview
     pagecolor="#ffffff"
     bordercolor="#666666"
     borderopacity="1"
     objecttolerance="10"
     gridtolerance="10"
     guidetolerance="10"
     inkscape:pageopacity="0"
     inkscape:pageshadow="2"
     inkscape:window-width="783"
     inkscape:window-height="480"
     id="namedview24"
     showgrid="false"
     inkscape:zoom="4.9166667"
     inkscape:cx="18.895965"
     inkscape:cy="20.353511"
     inkscape:window-x="0"
     inkscape:window-y="28"
     inkscape:window-maximized="0"
     inkscape:current-layer="svg22" />
  <path
     style="fill:#4c566a;fill-opacity:1"
     d="M 7,7 C 7,7 4,7 4,10 V 34 C 4,34 4,37 7,37 H 12 L 16,41 H 32 L 36,37 H 41 C 41,37 44,37 44,34 V 10 C 44,7 41,7 41,7 Z"
     id="path2" />
  <path
     style="opacity:0.4;fill:#ffffff"
     d="M 10,14 H 38 V 32 H 33.516 L 29.516,36 H 18.485 L 14.485,32 H 9.9996 Z"
     id="path4" />
  <path
     style="fill:#374155;fill-opacity:1"
     d="M 10,13 H 38 V 31 H 33.516 L 29.516,35 H 18.485 L 14.485,31 H 9.9996 Z"
     id="path6" />
  <path
     style="opacity:0.1;fill:#ffffff"
     d="M 7,7 C 7,7 4,7 4,10 V 11 C 4,8 7,8 7,8 H 41 C 41,8 44,8 44,11 V 10 C 44,7 41,7 41,7 Z"
     id="path8" />
  <path
     style="opacity:0.2"
     d="M 4,34 V 35 C 4,35 4,38 7,38 H 12 L 16,42 H 32 L 36,38 H 41 C 41,38 44,38 44,35 V 34 C 44,37 41,37 41,37 H 36 L 32,41 H 16 L 12,37 H 7 C 4,37 4,34 4,34 Z"
     id="path10" />
  <circle
     style="fill:#5f697d;fill-opacity:1"
     cx="37"
     cy="35"
     r="10"
     id="circle12" />
  <path
     style="opacity:0.2"
     d="M 46.979,35.414 A 10,10 0 0 1 37,45 10,10 0 0 1 27.021,35.586 10,10 0 0 0 27,36 10,10 0 0 0 37,46 10,10 0 0 0 47,36 10,10 0 0 0 46.979,35.414 Z"
     id="path14" />
  <g
     style="fill:#ffffff"
     transform="matrix(0.70711,-0.70711,0.70711,0.70711,-12.497,33.846)"
     id="g20">
    <rect
       width="12"
       height="2"
       x="28"
       y="35"
       id="rect16" />
    <rect
       width="12"
       height="2"
       x="-42"
       y="33"
       transform="rotate(-90)"
       id="rect18" />
  </g>
</svg>
