<?xml version="1.0" encoding="UTF-8" standalone="no"?>
<svg
   xmlns:dc="http://purl.org/dc/elements/1.1/"
   xmlns:cc="http://creativecommons.org/ns#"
   xmlns:rdf="http://www.w3.org/1999/02/22-rdf-syntax-ns#"
   xmlns:svg="http://www.w3.org/2000/svg"
   xmlns="http://www.w3.org/2000/svg"
   xmlns:sodipodi="http://sodipodi.sourceforge.net/DTD/sodipodi-0.dtd"
   xmlns:inkscape="http://www.inkscape.org/namespaces/inkscape"
   width="48"
   height="48"
   version="1"
   id="svg30"
   sodipodi:docname="notification-gsm-disconnected.svg"
   inkscape:version="0.92.5 (2060ec1f9f, 2020-04-08)">
  <metadata
     id="metadata36">
    <rdf:RDF>
      <cc:Work
         rdf:about="">
        <dc:format>image/svg+xml</dc:format>
        <dc:type
           rdf:resource="http://purl.org/dc/dcmitype/StillImage" />
      </cc:Work>
    </rdf:RDF>
  </metadata>
  <defs
     id="defs34" />
  <sodipodi:namedview
     pagecolor="#ffffff"
     bordercolor="#666666"
     borderopacity="1"
     objecttolerance="10"
     gridtolerance="10"
     guidetolerance="10"
     inkscape:pageopacity="0"
     inkscape:pageshadow="2"
     inkscape:window-width="783"
     inkscape:window-height="480"
     id="namedview32"
     showgrid="false"
     inkscape:zoom="3.4766083"
     inkscape:cx="12.412165"
     inkscape:cy="16.41488"
     inkscape:window-x="0"
     inkscape:window-y="28"
     inkscape:window-maximized="0"
     inkscape:current-layer="svg30" />
  <path
     fill="#888"
     d="m9 6h30v14h-30z"
     id="path2" />
  <rect
     fill="#c4c4c4"
     width="40"
     height="24"
     x="4"
     y="18"
     rx="2"
     ry="2"
     id="rect4"
     style="fill:#4c566a;fill-opacity:1" />
  <g
     opacity=".2"
     transform="translate(0,-2)"
     id="g8">
    <rect
       width="8"
       height="4"
       x="20"
       y="38"
       id="rect6" />
  </g>
  <g
     fill="#858585"
     transform="translate(0,-3)"
     id="g12">
    <rect
       width="8"
       height="4"
       x="20"
       y="38"
       id="rect10" />
  </g>
  <path
     fill="#fff"
     opacity=".2"
     d="m9 6v1h30v-1h-30z"
     id="path14" />
  <path
     fill="#fff"
     opacity=".2"
     d="m6 18c-1.108 0-2 0.892-2 2v1c0-1.108 0.892-2 2-2h36c1.108 0 2 0.892 2 2v-1c0-1.108-0.892-2-2-2h-36z"
     id="path16" />
  <path
     opacity=".2"
     d="m4 40v1c0 1.108 0.892 2 2 2h36c1.108 0 2-0.892 2-2v-1c0 1.108-0.892 2-2 2h-36c-1.108 0-2-0.892-2-2z"
     id="path18" />
  <circle
     fill="#db3c30"
     cx="37"
     cy="37"
     r="10"
     id="circle20"
     style="fill:#5f697d;fill-opacity:1" />
  <path
     opacity=".2"
     d="m46.979 37.414a10 10 0 0 1 -9.979 9.586 10 10 0 0 1 -9.979 -9.414 10 10 0 0 0 -0.021 0.414 10 10 0 0 0 10 10 10 10 0 0 0 10 -10 10 10 0 0 0 -0.021 -0.586z"
     id="path22" />
  <g
     fill="#fff"
     transform="matrix(.70711 -.70711 .70711 .70711 -12.497 35.846)"
     id="g28">
    <rect
       width="12"
       height="2"
       x="28"
       y="35"
       id="rect24" />
    <rect
       width="12"
       height="2"
       x="-42"
       y="33"
       transform="rotate(-90)"
       id="rect26" />
  </g>
</svg>
