<?xml version="1.0" encoding="UTF-8" standalone="no"?>
<svg
   xmlns:dc="http://purl.org/dc/elements/1.1/"
   xmlns:cc="http://creativecommons.org/ns#"
   xmlns:rdf="http://www.w3.org/1999/02/22-rdf-syntax-ns#"
   xmlns:svg="http://www.w3.org/2000/svg"
   xmlns="http://www.w3.org/2000/svg"
   xmlns:sodipodi="http://sodipodi.sourceforge.net/DTD/sodipodi-0.dtd"
   xmlns:inkscape="http://www.inkscape.org/namespaces/inkscape"
   width="48"
   height="48"
   version="1"
   id="svg58"
   sodipodi:docname="input-keyboard-virtual-on.svg"
   inkscape:version="0.92.5 (2060ec1f9f, 2020-04-08)">
  <metadata
     id="metadata64">
    <rdf:RDF>
      <cc:Work
         rdf:about="">
        <dc:format>image/svg+xml</dc:format>
        <dc:type
           rdf:resource="http://purl.org/dc/dcmitype/StillImage" />
      </cc:Work>
    </rdf:RDF>
  </metadata>
  <defs
     id="defs62" />
  <sodipodi:namedview
     pagecolor="#ffffff"
     bordercolor="#666666"
     borderopacity="1"
     objecttolerance="10"
     gridtolerance="10"
     guidetolerance="10"
     inkscape:pageopacity="0"
     inkscape:pageshadow="2"
     inkscape:window-width="783"
     inkscape:window-height="480"
     id="namedview60"
     showgrid="false"
     inkscape:zoom="4.9166667"
     inkscape:cx="24"
     inkscape:cy="24"
     inkscape:window-x="0"
     inkscape:window-y="28"
     inkscape:window-maximized="0"
     inkscape:current-layer="svg58" />
  <rect
     fill="#c4c4c4"
     width="28"
     height="40"
     x="-38"
     y="-44"
     rx="2"
     ry="2"
     transform="matrix(0,-1,-1,0,0,0)"
     id="rect2"
     style="fill:#4c566a;fill-opacity:1" />
  <path
     opacity=".2"
     d="m14 27a2 2 0 0 1 -2 2 2 2 0 0 1 -2 -2 2 2 0 0 1 2 -2 2 2 0 0 1 2 2z"
     id="path4" />
  <path
     opacity=".2"
     d="m20 27a2 2 0 0 1 -2 2 2 2 0 0 1 -2 -2 2 2 0 0 1 2 -2 2 2 0 0 1 2 2z"
     id="path6" />
  <path
     opacity=".2"
     d="m26 27a2 2 0 0 1 -2 2 2 2 0 0 1 -2 -2 2 2 0 0 1 2 -2 2 2 0 0 1 2 2z"
     id="path8" />
  <path
     opacity=".2"
     d="m32 27a2 2 0 0 1 -2 2 2 2 0 0 1 -2 -2 2 2 0 0 1 2 -2 2 2 0 0 1 2 2z"
     id="path10" />
  <path
     opacity=".2"
     d="m38 27a2 2 0 0 1 -2 2 2 2 0 0 1 -2 -2 2 2 0 0 1 2 -2 2 2 0 0 1 2 2z"
     id="path12" />
  <rect
     opacity=".2"
     width="30"
     height="4"
     x="9"
     y="32"
     rx="1"
     ry="1"
     id="rect14" />
  <path
     opacity=".2"
     d="m35 19a2 2 0 0 1 -2 2 2 2 0 0 1 -2 -2 2 2 0 0 1 2 -2 2 2 0 0 1 2 2z"
     id="path16" />
  <path
     opacity=".2"
     d="m17 19a2 2 0 0 1 -2 2 2 2 0 0 1 -2 -2 2 2 0 0 1 2 -2 2 2 0 0 1 2 2z"
     id="path18" />
  <path
     opacity=".2"
     d="m11 19a2 2 0 0 1 -2 2 2 2 0 0 1 -2 -2 2 2 0 0 1 2 -2 2 2 0 0 1 2 2z"
     id="path20" />
  <path
     opacity=".2"
     d="m23 19a2 2 0 0 1 -2 2 2 2 0 0 1 -2 -2 2 2 0 0 1 2 -2 2 2 0 0 1 2 2z"
     id="path22" />
  <path
     opacity=".2"
     d="m29 19a2 2 0 0 1 -2 2 2 2 0 0 1 -2 -2 2 2 0 0 1 2 -2 2 2 0 0 1 2 2z"
     id="path24" />
  <path
     opacity=".2"
     d="m41 19a2 2 0 0 1 -2 2 2 2 0 0 1 -2 -2 2 2 0 0 1 2 -2 2 2 0 0 1 2 2z"
     id="path26" />
  <g
     fill="#d23a2e"
     id="g52"
     style="fill:#ffffff;fill-opacity:1">
    <path
       d="m14 26a2 2 0 0 1 -2 2 2 2 0 0 1 -2 -2 2 2 0 0 1 2 -2 2 2 0 0 1 2 2z"
       id="path28"
       style="fill:#ffffff;fill-opacity:1" />
    <path
       d="m20 26a2 2 0 0 1 -2 2 2 2 0 0 1 -2 -2 2 2 0 0 1 2 -2 2 2 0 0 1 2 2z"
       id="path30"
       style="fill:#ffffff;fill-opacity:1" />
    <path
       d="m26 26a2 2 0 0 1 -2 2 2 2 0 0 1 -2 -2 2 2 0 0 1 2 -2 2 2 0 0 1 2 2z"
       id="path32"
       style="fill:#ffffff;fill-opacity:1" />
    <path
       d="m32 26a2 2 0 0 1 -2 2 2 2 0 0 1 -2 -2 2 2 0 0 1 2 -2 2 2 0 0 1 2 2z"
       id="path34"
       style="fill:#ffffff;fill-opacity:1" />
    <path
       d="m38 26a2 2 0 0 1 -2 2 2 2 0 0 1 -2 -2 2 2 0 0 1 2 -2 2 2 0 0 1 2 2z"
       id="path36"
       style="fill:#ffffff;fill-opacity:1" />
    <rect
       width="30"
       height="4"
       x="9"
       y="31"
       rx="1"
       ry="1"
       id="rect38"
       style="fill:#ffffff;fill-opacity:1" />
    <path
       d="m35 18a2 2 0 0 1 -2 2 2 2 0 0 1 -2 -2 2 2 0 0 1 2 -2 2 2 0 0 1 2 2z"
       id="path40"
       style="fill:#ffffff;fill-opacity:1" />
    <path
       d="m17 18a2 2 0 0 1 -2 2 2 2 0 0 1 -2 -2 2 2 0 0 1 2 -2 2 2 0 0 1 2 2z"
       id="path42"
       style="fill:#ffffff;fill-opacity:1" />
    <path
       d="m11 18a2 2 0 0 1 -2 2 2 2 0 0 1 -2 -2 2 2 0 0 1 2 -2 2 2 0 0 1 2 2z"
       id="path44"
       style="fill:#ffffff;fill-opacity:1" />
    <path
       d="m23 18a2 2 0 0 1 -2 2 2 2 0 0 1 -2 -2 2 2 0 0 1 2 -2 2 2 0 0 1 2 2z"
       id="path46"
       style="fill:#ffffff;fill-opacity:1" />
    <path
       d="m29 18a2 2 0 0 1 -2 2 2 2 0 0 1 -2 -2 2 2 0 0 1 2 -2 2 2 0 0 1 2 2z"
       id="path48"
       style="fill:#ffffff;fill-opacity:1" />
    <path
       d="m41 18a2 2 0 0 1 -2 2 2 2 0 0 1 -2 -2 2 2 0 0 1 2 -2 2 2 0 0 1 2 2z"
       id="path50"
       style="fill:#ffffff;fill-opacity:1" />
  </g>
  <path
     fill="#fff"
     opacity=".1"
     d="m6 10c-1.108 0-2 0.892-2 2v1c0-1.108 0.892-2 2-2h36c1.108 0 2 0.892 2 2v-1c0-1.108-0.892-2-2-2h-36z"
     id="path54" />
  <path
     opacity=".2"
     d="m4 36v1c0 1.108 0.892 2 2 2h36c1.108 0 2-0.892 2-2v-1c0 1.108-0.892 2-2 2h-36c-1.108 0-2-0.892-2-2z"
     id="path56" />
</svg>
